<?xml version="1.0" encoding="UTF-8"?>
<svg width="20px" height="20px" viewBox="0 0 20 20" version="1.1" xmlns="http://www.w3.org/2000/svg" xmlns:xlink="http://www.w3.org/1999/xlink">
    <title>airtransport</title>
    <g id="airtransport" stroke="none" stroke-width="1" fill="none" fill-rule="evenodd">
        <path d="M10.5200881,4.4394355 C10.6168953,4.4394355 10.7108896,4.46751373 10.7911188,4.51926404 L10.866354,4.57874184 L12.9229996,6.5524355 L14.1426534,6.39059331 C16.0727794,6.13359572 18.0139191,6.77805971 19.4070843,8.13839969 C20.0879456,8.80321874 20.1009504,9.89410821 19.4361314,10.5749695 C19.1825428,10.8346772 18.8534137,11.0076663 18.4956943,11.0692463 C17.3282142,11.2702652 16.160734,11.3707747 14.9932538,11.3707747 L13.0649996,11.3704355 L9.57037202,14.6670249 C9.38480595,14.8419872 9.13940144,14.9394355 8.88435915,14.9394355 L7.42046874,14.9394355 C6.86818399,14.9394355 6.42046874,14.4917202 6.42046874,13.9394355 C6.42046874,13.7566825 6.47054971,13.5774238 6.56527091,13.4211338 L7.80699963,11.3704355 L1.64830439,11.3707747 C1.09601964,11.3707747 0.64830439,10.9230594 0.64830439,10.3707747 L0.64830439,9.91274676 C0.64830439,9.49398257 0.909229048,9.11956892 1.30209585,8.97458918 L2.072368,8.69033545 L0.613999629,6.0886637 L2.46243804,5.37077469 L5.06213497,7.59967052 L9.36099963,7.0274355 L8.2210889,5.20443497 C8.02781604,4.8951984 8.22045071,4.50064143 8.56338786,4.44585388 L8.64508806,4.4394355 L10.5200881,4.4394355 Z M11.6069996,11.3704355 L8.97599963,11.3704355 L7.42046874,13.9394355 L8.88435915,13.9394355 L11.6069996,11.3704355 Z M2.266,6.519 L2.049,6.603 L3.51735272,9.22301136 L1.64830439,9.91274676 L1.64830439,10.3707747 L14.9932538,10.3707747 C16.1036525,10.3707747 17.2143713,10.2751519 18.3260435,10.0837421 C18.4761334,10.0579047 18.6142351,9.98532037 18.7206458,9.87634197 C18.9996235,9.59063245 18.9941663,9.13286298 18.7084568,8.85388525 C18.3931722,8.5460293 18.0445654,8.28170565 17.6717702,8.06394674 L16.0304054,8.86610743 L15.5920342,7.96731339 L16.4576068,7.54396176 C15.838561,7.36551197 15.1861992,7.29876804 14.5313204,7.35395538 L14.2746392,7.38184492 L13.8449996,7.4384355 L9.94199963,7.9584355 L9.94299963,7.9584355 L4.75078439,8.64995267 L2.266,6.519 Z M10.318,5.439 L9.547,5.439 L10.4489996,6.8824355 L11.6539996,6.7214355 L10.318,5.439 Z" id="Combined-Shape" fill="#A5B7C0" fill-rule="nonzero" transform="translate(10.270180, 9.689435) rotate(-14.000000) translate(-10.270180, -9.689435) " class="primary"></path>
    </g>
</svg>
