<?xml version="1.0" encoding="UTF-8"?>
<svg width="20px" height="20px" viewBox="0 0 20 20" version="1.1" xmlns="http://www.w3.org/2000/svg" xmlns:xlink="http://www.w3.org/1999/xlink">
    <title>animal</title>
    <g id="animal" stroke="none" stroke-width="1" fill="none" fill-rule="evenodd">
        <path d="M11.2417152,8.3883984 L11.6116016,8.75828478 C13.0542046,10.2008878 13.138491,12.4874406 11.8644607,14.0286618 C12.1526426,15.0806332 11.8835617,16.2539386 11.056772,17.0807283 C9.8310764,18.3064239 7.84383113,18.3064239 6.6181355,17.0807283 C5.96116264,16.4237554 5.65632723,15.5479924 5.70362928,14.6879823 L5.31201774,14.2963707 C4.45200761,14.3436728 3.57624458,14.0388374 2.91927172,13.3818645 C1.69357609,12.1561689 1.69357609,10.1689236 2.91927172,8.94322797 C3.74606138,8.11643831 4.91936682,7.84735737 5.97170548,8.13598515 C7.51255944,6.86150901 9.79911221,6.94579539 11.2417152,8.3883984 Z M6.63850516,8.9421524 C6.37581711,9.15942779 6.0237417,9.23509082 5.69498191,9.14492098 C4.9735096,8.94704082 4.1972982,9.144747 3.65904448,9.68300072 C2.84191406,10.5001311 2.84191406,11.8249613 3.65904448,12.6420917 C4.04331565,13.0263629 4.5490661,13.2391285 5.07765507,13.2541176 L5.25456195,13.2517529 C5.50912932,13.2377513 5.75849008,13.3171959 5.95699019,13.4726295 L6.05179049,13.556598 L6.44340204,13.9482095 C6.62368042,14.1284879 6.73087932,14.3672359 6.74754151,14.6187996 L6.74824705,14.745438 C6.71570764,15.3370452 6.93094029,15.9139876 7.35790826,16.3409555 C8.17503868,17.1580859 9.49986885,17.1580859 10.3169993,16.3409555 C10.8138188,15.844136 11.0206007,15.1444499 10.8940482,14.4723849 L10.8554405,14.3050774 C10.765429,13.9765019 10.8410413,13.6246766 11.0581009,13.362095 C11.9600084,12.2710385 11.9271508,10.6822791 10.9932561,9.62710112 L10.8718288,9.49805753 L10.5019425,9.12817116 C9.45096668,8.07719537 7.7745551,8.00249908 6.63850516,8.9421524 Z M17.1598973,11.3474894 C18.0846132,12.2722054 17.5436788,13.5529125 16.4201245,14.6764668 C15.2965702,15.8000212 14.0158631,16.3409555 13.0911471,15.4162396 C12.1664312,14.4915236 12.7073655,13.2108165 13.8309199,12.0872622 C14.9544742,10.9637078 16.2351813,10.4227735 17.1598973,11.3474894 Z M14.5706926,12.8270349 C13.6732797,13.7244479 13.5005634,14.3461103 13.8309199,14.6764668 C14.1612763,15.0068233 14.7829388,14.834107 15.6803518,13.9366941 C16.5777647,13.0392811 16.750481,12.4176187 16.4201245,12.0872622 C16.089768,11.7569057 15.4681056,11.929622 14.5706926,12.8270349 Z M17.5297836,5.79919376 C18.4544996,6.7239097 17.9135652,8.00461683 16.7900109,9.12817116 C15.6664566,10.2517255 14.3857494,10.7926599 13.4610335,9.86794391 C12.5363175,8.94322797 13.0772519,7.66252084 14.2008062,6.53896651 C15.3243606,5.41541218 16.6050677,4.87447782 17.5297836,5.79919376 Z M14.940579,7.27873927 C14.043166,8.17615223 13.8704498,8.79781468 14.2008062,9.12817116 C14.5311627,9.45852763 15.1528252,9.28581136 16.0502381,8.3883984 C16.9476511,7.49098544 17.1203674,6.86932299 16.7900109,6.53896651 C16.4596544,6.20861004 15.837992,6.38132631 14.940579,7.27873927 Z M14.2008062,2.47021636 C15.1255222,3.3949323 14.5845878,4.67563943 13.4610335,5.79919376 C12.3374792,6.92274809 11.056772,7.46368246 10.1320561,6.53896651 C9.20734014,5.61425057 9.74827451,4.33354345 10.8718288,3.20998912 C11.9953832,2.08643479 13.2760903,1.54550042 14.2008062,2.47021636 Z M9.02239695,2.47021636 C9.9471129,3.3949323 9.40617853,4.67563943 8.2826242,5.79919376 C7.15906987,6.92274809 5.87836275,7.46368246 4.9536468,6.53896651 C4.02893086,5.61425057 4.56986523,4.33354345 5.69341956,3.20998912 C6.81697389,2.08643479 8.09768101,1.54550042 9.02239695,2.47021636 Z M11.6116016,3.94976187 C10.7141886,4.84717483 10.5414724,5.46883728 10.8718288,5.79919376 C11.2021853,6.12955024 11.8238478,5.95683396 12.7212607,5.059421 C13.6186737,4.16200804 13.79139,3.54034559 13.4610335,3.20998912 C13.130677,2.87963264 12.5090146,3.05234891 11.6116016,3.94976187 Z M6.43319231,3.94976187 C5.53577935,4.84717483 5.36306308,5.46883728 5.69341956,5.79919376 C6.02377603,6.12955024 6.64543848,5.95683396 7.54285144,5.059421 C8.4402644,4.16200804 8.61298068,3.54034559 8.2826242,3.20998912 C7.95226772,2.87963264 7.33060527,3.05234891 6.43319231,3.94976187 Z" fill="#A5B7C0" fill-rule="nonzero" class="primary"></path>
    </g>
</svg>
