<?xml version="1.0" encoding="UTF-8"?>
<svg width="20px" height="20px" viewBox="0 0 20 20" version="1.1" xmlns="http://www.w3.org/2000/svg" xmlns:xlink="http://www.w3.org/1999/xlink">
    <title>bike</title>
    <g id="bike" stroke="none" stroke-width="1" fill="none" fill-rule="evenodd">
        <path d="M14.4743416,4.84188612 C14.5519629,5.07474981 14.4487218,5.32435491 14.24083,5.4382782 L14.1581139,5.47434165 L13.132,5.816 L14.5380285,10.0353507 C14.6886134,10.0120761 14.8428964,10 15,10 C16.6568542,10 18,11.3431458 18,13 C18,14.6568542 16.6568542,16 15,16 C13.3431458,16 12,14.6568542 12,13 C12,11.8527613 12.6439648,10.8559286 13.5901445,10.3512518 L13.0510922,8.73586435 L9.3904344,13.3123475 L9.37266588,13.3335356 C9.3622448,13.3451917 9.3512344,13.3564004 9.33965333,13.3671119 L9.3904344,13.3123475 C9.36697645,13.34167 9.34053772,13.3679632 9.31173067,13.3909328 C9.29836408,13.4017249 9.28420287,13.411852 9.26941068,13.4212855 C9.2577272,13.4286851 9.24572651,13.4356735 9.23346095,13.4421495 C9.22509977,13.4465825 9.21609438,13.4510046 9.20690147,13.4551832 L9.19123473,13.4619846 C9.17718377,13.4678014 9.16285935,13.4729809 9.14830526,13.4775021 L9.20690147,13.4551832 C9.17344766,13.4703895 9.13919634,13.4816037 9.1046829,13.4890266 C9.10005686,13.4899187 9.09494967,13.4909342 9.08982259,13.4918705 L9.06438583,13.495971 C9.0483181,13.4980624 9.0322387,13.4993548 9.01620109,13.499868 L9,13.5 L7.9584039,13.5006962 C7.72007807,14.9192103 6.48625501,16 5,16 C3.34314575,16 2,14.6568542 2,13 C2,11.3431458 3.34314575,10 5,10 C5.49552662,10 5.96299299,10.1201402 6.37486011,10.3328818 L6.912,9.61586435 L6.04481676,7.70690147 C6.01425657,7.63966906 5.99982016,7.56921554 5.99987781,7.49988681 L5,7.5 C4.72385763,7.5 4.5,7.27614237 4.5,7 C4.5,6.75454011 4.67687516,6.55039163 4.91012437,6.50805567 L5,6.5 L8,6.5 C8.27614237,6.5 8.5,6.72385763 8.5,7 C8.5,7.24545989 8.32312484,7.44960837 8.08987563,7.49194433 L8,7.5 L7.049,7.49986435 L7.597,8.70486435 L7.6,8.7 C7.65535827,8.62618898 7.72966741,8.56962699 7.81425264,8.53578107 L7.90194193,8.50970966 L12.6580922,7.55786435 L12.0256584,5.65811388 C11.9480371,5.42525019 12.0512782,5.17564509 12.25917,5.0617218 L12.3418861,5.02565835 L13.8418861,4.52565835 C14.1038578,4.43833446 14.3870178,4.57991446 14.4743416,4.84188612 Z M5,11 C3.8954305,11 3,11.8954305 3,13 C3,14.1045695 3.8954305,15 5,15 C5.93155158,15 6.71435119,14.3631171 6.93672788,13.5010222 L5,13.5 C4.61740753,13.5 4.38728731,13.0944156 4.55429804,12.7725643 L4.6,12.7 L5.76301477,11.1507012 C5.5278887,11.0535824 5.27020177,11 5,11 Z M15,11 L14.8610922,11.0048643 L15.4743416,12.8418861 C15.5519629,13.0747498 15.4487218,13.3243549 15.24083,13.4382782 L15.1581139,13.4743416 C14.9252502,13.5519629 14.6756451,13.4487218 14.5617218,13.24083 L14.5256584,13.1581139 L13.9129221,11.3209502 C13.3634691,11.6774173 13,12.2962623 13,13 C13,14.1045695 13.8954305,15 15,15 C16.1045695,15 17,14.1045695 17,13 C17,11.8954305 16.1045695,11 15,11 Z M7.384,10.6538643 L7.216,10.8778643 L6,12.5 L8.223,12.4998643 L7.384,10.6538643 Z M11.751,8.759 L8.286,9.452 L8.068,9.74186435 L9.118,12.0508643 L11.751,8.759 Z" id="Combined-Shape" fill="#A5B7C0" fill-rule="nonzero" class="primary"></path>
    </g>
</svg>
