<?xml version="1.0" encoding="UTF-8"?>
<svg width="20px" height="20px" viewBox="0 0 20 20" version="1.1" xmlns="http://www.w3.org/2000/svg" xmlns:xlink="http://www.w3.org/1999/xlink">
    <title>bird</title>
    <g id="bird" stroke="none" stroke-width="1" fill="none" fill-rule="evenodd">
        <path d="M13,2 C14.1151263,2 15.0881487,2.60841878 15.6052195,3.51140854 L15.6212678,3.51492875 L17.6212678,4.01492875 C18.071611,4.12751455 18.1388027,4.73961564 17.7236068,4.9472136 L17.7236068,4.9472136 L16.2530765,5.68276238 C16.6424756,6.47766242 16.8609172,7.37158518 16.8609172,8.3165277 C16.8609172,11.0615794 15.0174917,13.376076 12.5010522,14.0896061 L12.4998941,16.499 L14,16.5 L14,17.5 L8,17.5 L8,16.5 L9.49989415,16.499 L9.49953989,14.1614154 C8.87141448,14.0156946 8.28110758,13.7713314 7.7458248,13.4455316 L6.28789621,14.3958573 L5.31818493,15.0378999 L4.19022335,15.7996828 L3.46799676,16.3003111 L2.8518408,16.7403288 L2.5,17 C2.22261273,17 1.96123565,16.8881566 1.7725403,16.6904757 C1.42053486,16.3217081 1.40600067,15.7539857 1.7200637,15.3688922 L1.80542009,15.2766445 L10.6364142,6.84777009 C10.237682,6.33844828 10,5.69698095 10,5 C10,3.34314575 11.3431458,2 13,2 Z M10.8609172,14.3165277 C10.7398762,14.3165277 10.6196724,14.3129435 10.500406,14.3058755 L10.4998941,16.499 L11.4998941,16.499 L11.5005016,14.2828403 C11.2903544,14.3051083 11.0769694,14.3165277 10.8609172,14.3165277 Z M13,3 C11.8954305,3 11,3.8954305 11,5 C11,5.39709203 11.1151281,5.77458839 11.3270991,6.0967551 L11.4238198,6.23133483 L11.9826801,6.9451969 L3.418,15.116 L4.22736177,14.5654781 L5.62042944,13.6379702 L7.20263961,12.6059186 L7.49989415,12.412 L7.5,12.4 L7.52089415,12.399 L7.72960879,12.2649974 L7.9297236,12.3877673 C9.26584992,12.3100774 10.3305027,11.8623906 11.1464466,11.0464466 C12.0375023,10.1553909 12.648321,9.40900317 12.9766033,8.82028141 L13.0527864,8.6763932 L13.9472136,9.1236068 C13.5851552,9.84772349 12.8882431,10.7188637 11.8535534,11.7535534 C11.1988446,12.4082622 10.4151681,12.8674346 9.50902734,13.1315677 C9.94330039,13.2535327 10.3971768,13.3165277 10.8609172,13.3165277 C13.6223409,13.3165277 15.8609172,11.0779514 15.8609172,8.3165277 C15.8609172,7.48149722 15.6566741,6.67869981 15.2729601,5.9625047 L15.2577049,5.93738237 C15.1075089,5.85401099 15,5.69486286 15,5.5 L15,5.5 L14.973624,5.45594221 L14.9952576,5.13939957 L15,5 C15,3.8954305 14.1045695,3 13,3 Z M13.5,4 C13.7761424,4 14,4.22385763 14,4.5 C14,4.77614237 13.7761424,5 13.5,5 C13.2238576,5 13,4.77614237 13,4.5 C13,4.22385763 13.2238576,4 13.5,4 Z" id="Combined-Shape" fill="#A5B7C0" fill-rule="nonzero" class="primary"></path>
    </g>
</svg>
