<?xml version="1.0" encoding="UTF-8"?>
<svg width="20px" height="20px" viewBox="0 0 20 20" version="1.1" xmlns="http://www.w3.org/2000/svg" xmlns:xlink="http://www.w3.org/1999/xlink">
    <title>bus</title>
    <g id="bus" stroke="none" stroke-width="1" fill="none" fill-rule="evenodd">
        <path d="M16,3 C18.1421954,3 19.8910789,4.68396847 19.9951047,6.80035966 L20,7 L20,13 C20,13.5522847 19.5522847,14 19,14 L17.9499027,14.0004345 C17.7180997,15.1413382 16.7093254,16 15.5,16 C14.2906746,16 13.2819003,15.1413382 13.0500973,14.0004345 L7.94990271,14.0004345 C7.71809967,15.1413382 6.70932545,16 5.5,16 C4.29067455,16 3.28190033,15.1413382 3.05009729,14.0004345 L1,14 C0.44771525,14 0,13.5522847 0,13 L0,4 C0,3.44771525 0.44771525,3 1,3 L16,3 Z M5.5,12 C4.78336754,12 4.18411143,12.5025479 4.03542508,13.1744504 C4.0277979,13.2088806 4.02130465,13.2440873 4.01606301,13.2797013 L4.03542508,13.1744504 C4.02348799,13.2283932 4.01445503,13.2834275 4.00849863,13.3393811 L4.01606301,13.2797013 C4.00548083,13.3516011 4,13.4251605 4,13.5 L4.00839162,13.6596105 C4.01009843,13.6757473 4.0120611,13.6918077 4.01427551,13.7077877 C4.0190183,13.7420438 4.02495485,13.7761056 4.03201898,13.8097524 L4.01427551,13.7077877 C4.02208294,13.7641289 4.03301964,13.8194698 4.04690447,13.8736294 L4.03201898,13.8097524 C4.04377999,13.8657707 4.05866651,13.9206389 4.0764877,13.9741662 L4.04690447,13.8736294 C4.21294334,14.5212849 4.80056672,15 5.5,15 C6.22236552,15 6.82546915,14.4893792 6.96805671,13.8093916 C6.97504515,13.7761056 6.9809817,13.7420438 6.9857493,13.7076085 L6.96805671,13.8093916 C6.97834989,13.7603044 6.98624324,13.7103345 6.99160838,13.6596105 L6.9857493,13.7076085 C6.99514428,13.6397508 7,13.5704424 7,13.5 L6.99160838,13.3403895 C6.98947487,13.3202185 6.98694157,13.3001668 6.98401654,13.2802425 C6.97869535,13.2440873 6.9722021,13.2088806 6.96450336,13.1741272 L6.98401654,13.2802425 C6.97660397,13.2297503 6.96667571,13.180076 6.95436314,13.1313508 L6.96450336,13.1741272 C6.95249451,13.1199171 6.93755255,13.06681 6.91985252,13.0149809 L6.95436314,13.1313508 C6.7900663,12.4811707 6.20122486,12 5.5,12 Z M15.5,12 C14.7833675,12 14.1841114,12.5025479 14.0354251,13.1744504 C14.0277979,13.2088806 14.0213047,13.2440873 14.016063,13.2797013 L14.0354251,13.1744504 C14.023488,13.2283932 14.014455,13.2834275 14.0084986,13.3393811 L14.016063,13.2797013 C14.0054808,13.3516011 14,13.4251605 14,13.5 L14.0083916,13.6596105 C14.0100984,13.6757473 14.0120611,13.6918077 14.0142755,13.7077877 C14.0190183,13.7420438 14.0249548,13.7761056 14.032019,13.8097524 L14.0142755,13.7077877 C14.0220829,13.7641289 14.0330196,13.8194698 14.0469045,13.8736294 L14.032019,13.8097524 C14.04378,13.8657707 14.0586665,13.9206389 14.0764877,13.9741662 L14.0469045,13.8736294 C14.2129433,14.5212849 14.8005667,15 15.5,15 C16.2223655,15 16.8254692,14.4893792 16.9680567,13.8093916 C16.9750452,13.7761056 16.9809817,13.7420438 16.9857493,13.7076085 L16.9680567,13.8093916 C16.9783499,13.7603044 16.9862432,13.7103345 16.9916084,13.6596105 L16.9857493,13.7076085 C16.9951443,13.6397508 17,13.5704424 17,13.5 L16.9915014,13.3393811 C16.9893903,13.3195502 16.9868928,13.2998348 16.9840165,13.2802425 C16.9786953,13.2440873 16.9722021,13.2088806 16.9645034,13.1741272 L16.9840165,13.2802425 C16.976604,13.2297503 16.9666757,13.180076 16.9543631,13.1313508 L16.9645034,13.1741272 C16.9524945,13.1199171 16.9375525,13.06681 16.9198525,13.0149809 L16.9543631,13.1313508 C16.7900663,12.4811707 16.2012249,12 15.5,12 Z M16,4 L1,4 L1,13 L3.0498926,13.000574 C3.2813059,11.8591679 4.29031824,11 5.5,11 C6.70968176,11 7.7186941,11.8591679 7.9501074,13.000574 L13.0498926,13.000574 C13.2813059,11.8591679 14.2903182,11 15.5,11 C16.7096818,11 17.7186941,11.8591679 17.9501074,13.000574 L19,13 L19,9 L17.5,9 C17.2238576,9 17,8.77614237 17,8.5 L17,5.5 C17,5.22385763 17.2238576,5 17.5,5 L18.2362168,4.99998669 C17.6859304,4.38557688 16.8864792,4 16,4 Z M5,5 C5.55228475,5 6,5.44771525 6,6 L6,8 C6,8.55228475 5.55228475,9 5,9 L3,9 C2.44771525,9 2,8.55228475 2,8 L2,6 C2,5.44771525 2.44771525,5 3,5 L5,5 Z M10,5 C10.5522847,5 11,5.44771525 11,6 L11,8 C11,8.55228475 10.5522847,9 10,9 L8,9 C7.44771525,9 7,8.55228475 7,8 L7,6 C7,5.44771525 7.44771525,5 8,5 L10,5 Z M15,5 C15.5522847,5 16,5.44771525 16,6 L16,8 C16,8.55228475 15.5522847,9 15,9 L13,9 C12.4477153,9 12,8.55228475 12,8 L12,6 C12,5.44771525 12.4477153,5 13,5 L15,5 Z M18.8296731,6.0002825 L18,6 L18,8 L19,8 L19.0003005,7.02451326 L18.9963105,6.84945284 C18.981729,6.55279392 18.9241229,6.26774536 18.8296731,6.0002825 Z M5,6 L3,6 L3,8 L5,8 L5,6 Z M10,6 L8,6 L8,8 L10,8 L10,6 Z M15,6 L13,6 L13,8 L15,8 L15,6 Z" id="Combined-Shape" fill="#A5B7C0" fill-rule="nonzero" class="primary"></path>
    </g>
</svg>
