<?xml version="1.0" encoding="UTF-8"?>
<svg width="20px" height="20px" viewBox="0 0 20 20" version="1.1" xmlns="http://www.w3.org/2000/svg" xmlns:xlink="http://www.w3.org/1999/xlink">
    <title>car</title>
    <g id="car" stroke="none" stroke-width="1" fill="none" fill-rule="evenodd">
        <path d="M11.5,4 C12.4442719,4 13.3334369,4.44458247 13.9,5.2 L16,8 L18,8 C19.1045695,8 20,8.8954305 20,10 L20,11 C20,12.1045695 19.1045695,13 18,13 L17.9499027,13.0004345 C17.7180997,14.1413382 16.7093254,15 15.5,15 C14.2906746,15 13.2819003,14.1413382 13.0500973,13.0004345 L7.94990271,13.0004345 C7.71809967,14.1413382 6.70932545,15 5.5,15 C4.29067455,15 3.28190033,14.1413382 3.05009729,13.0004345 L2,13 C0.8954305,13 0,12.1045695 0,11 L0,9.5 C0,8.67157288 0.671572875,8 1.5,8 L2.5,8 C2.8147573,8 3.11114562,7.85180584 3.3,7.6 L5.1,5.2 C5.66656315,4.44458247 6.55572809,4 7.5,4 L11.5,4 Z M5.5,11 C4.78336754,11 4.18411143,11.5025479 4.03542508,12.1744504 C4.0277979,12.2088806 4.02130465,12.2440873 4.01606301,12.2797013 L4.03542508,12.1744504 C4.02377482,12.227097 4.0148908,12.2807834 4.00893332,12.3353493 L4.01606301,12.2797013 C4.00548083,12.3516011 4,12.4251605 4,12.5 L4.00839162,12.6596105 C4.01077404,12.6821347 4.01365498,12.7045103 4.0170232,12.7267258 C4.02126908,12.7547191 4.02627071,12.7823731 4.03201898,12.8097524 L4.0170232,12.7267258 C4.02436734,12.7751651 4.03402813,12.822844 4.04588906,12.8696457 L4.03201898,12.8097524 C4.04406913,12.8671479 4.05940037,12.9233361 4.07780743,12.9781117 L4.04588906,12.8696457 C4.21053551,13.519321 4.79913345,14 5.5,14 C6.22236552,14 6.82546915,13.4893792 6.96805671,12.8093916 C6.97372929,12.7823731 6.97873092,12.7547191 6.98296364,12.7268126 L6.96805671,12.8093916 C6.97834989,12.7603044 6.98624324,12.7103345 6.99160838,12.6596105 L6.98296364,12.7268126 C6.9941829,12.6528437 7,12.5771012 7,12.5 L6.99106668,12.3353493 C6.98904993,12.3168775 6.98669782,12.2985065 6.98401654,12.2802425 C6.97869535,12.2440873 6.9722021,12.2088806 6.96450336,12.1741272 L6.98401654,12.2802425 C6.97660397,12.2297503 6.96667571,12.180076 6.95436314,12.1313508 L6.96450336,12.1741272 C6.95249451,12.1199171 6.93755255,12.06681 6.91985252,12.0149809 L6.95436314,12.1313508 C6.7900663,11.4811707 6.20122486,11 5.5,11 Z M15.5,11 C14.7833675,11 14.1841114,11.5025479 14.0354251,12.1744504 C14.0277979,12.2088806 14.0213047,12.2440873 14.016063,12.2797013 L14.0354251,12.1744504 C14.0237748,12.227097 14.0148908,12.2807834 14.0089333,12.3353493 L14.016063,12.2797013 C14.0054808,12.3516011 14,12.4251605 14,12.5 L14.0083916,12.6596105 C14.010774,12.6821347 14.013655,12.7045103 14.0170232,12.7267258 C14.0212691,12.7547191 14.0262707,12.7823731 14.032019,12.8097524 L14.0170232,12.7267258 C14.0243673,12.7751651 14.0340281,12.822844 14.0458891,12.8696457 L14.032019,12.8097524 C14.0440691,12.8671479 14.0594004,12.9233361 14.0778074,12.9781117 L14.0458891,12.8696457 C14.2105355,13.519321 14.7991335,14 15.5,14 C16.2223655,14 16.8254692,13.4893792 16.9680567,12.8093916 C16.9737293,12.7823731 16.9787309,12.7547191 16.9829636,12.7268126 L16.9680567,12.8093916 C16.9783499,12.7603044 16.9862432,12.7103345 16.9916084,12.6596105 L16.9829636,12.7268126 C16.9941829,12.6528437 17,12.5771012 17,12.5 L16.9910667,12.3353493 C16.9890499,12.3168775 16.9866978,12.2985065 16.9840165,12.2802425 C16.9786953,12.2440873 16.9722021,12.2088806 16.9645034,12.1741272 L16.9840165,12.2802425 C16.976604,12.2297503 16.9666757,12.180076 16.9543631,12.1313508 L16.9645034,12.1741272 C16.9524945,12.1199171 16.9375525,12.06681 16.9198525,12.0149809 L16.9543631,12.1313508 C16.7900663,11.4811707 16.2012249,11 15.5,11 Z M18,9 L1.5,9 C1.25454011,9 1.05039163,9.17687516 1.00805567,9.41012437 L1,9.5 L1,11 C1,11.5128358 1.38604019,11.9355072 1.88337887,11.9932723 L2,12 L3.0498926,12.000574 C3.2813059,10.8591679 4.29031824,10 5.5,10 C6.70968176,10 7.7186941,10.8591679 7.9501074,12.000574 L13.0498926,12.000574 C13.2813059,10.8591679 14.2903182,10 15.5,10 C16.7096818,10 17.7186941,10.8591679 17.9501074,12.000574 L18,12 C18.5128358,12 18.9355072,11.6139598 18.9932723,11.1166211 L19,11 L19,10 C19,9.48716416 18.6139598,9.06449284 18.1166211,9.00672773 L18,9 Z M9,5 L7.5,5 C6.92771399,5 6.38578995,5.24494902 6.00820976,5.66785612 L5.9,5.8 L4.249,8 L9,8 L9,5 Z M11.5,5 L10,5 L10,8 L14.75,8 L13.1,5.8 C12.7566284,5.3421712 12.2355148,5.05560137 11.670641,5.00728148 L11.5,5 Z" id="Combined-Shape" fill="#A5B7C0" fill-rule="nonzero" class="primary"></path>
    </g>
</svg>
