<?xml version="1.0" encoding="UTF-8"?>
<svg width="20px" height="20px" viewBox="0 0 20 20" version="1.1" xmlns="http://www.w3.org/2000/svg" xmlns:xlink="http://www.w3.org/1999/xlink">
    <title>cat</title>
    <g id="cat" stroke="none" stroke-width="1" fill="none" fill-rule="evenodd">
        <path d="M16.838726,3.19988596 C16.9959364,3.46190326 17.0687552,3.764571 17.0494456,4.06714029 L17.0320775,4.21822807 L16.4181153,7.90122556 C16.7923867,8.6971034 17,9.57603817 17,10.5 C17,10.6318982 16.9957692,10.7628788 16.9874267,10.8928311 L18.9019419,10.5097097 L19.0980581,11.4902903 L16.8262828,11.9455078 C16.6275394,12.7581717 16.2648101,13.5129818 15.7721111,14.1783517 L17.1212678,14.5149287 L16.8787322,15.4850713 L15.0279805,15.0223898 C13.7555472,16.2419548 11.9731087,17 10,17 C8.02638669,17 6.24354116,16.241567 4.9710434,15.021454 L3.12126781,15.4850713 L2.87873219,14.5149287 L4.22788894,14.1783517 C3.73518988,13.5129818 3.37246063,12.7581717 3.17371716,11.9455078 L0.901941932,11.4902903 L1.09805807,10.5097097 L3.01257332,10.8928311 C3.00423082,10.7628788 3,10.6318982 3,10.5 C3,9.54486273 3.22185984,8.63784231 3.6203372,7.82094946 L3.02041241,4.21822807 C2.96180596,3.86658942 3.03035179,3.50557281 3.2137639,3.19988596 C3.63998614,2.48951556 4.56137653,2.25916796 5.27174692,2.6853902 L7.94013064,4.28599124 C8.59137172,4.10007133 9.28310045,4 10,4 C10.7296948,4 11.4333123,4.10367536 12.0947007,4.29602812 L14.780743,2.6853902 C15.4911134,2.25916796 16.4125038,2.48951556 16.838726,3.19988596 Z M11.5,11 L11.5,12 L10.4999419,12 L10.5,14 L9.5,14 L9.49994193,12 L8.5,12 L8.5,11 L11.5,11 Z M15.9949419,10.2964029 L15.987362,10.1410056 L15.987362,10.1410056 C15.9828739,10.0774357 15.9771989,10.0141162 15.970359,9.95109833 C15.9687428,9.93620333 15.9670439,9.92117552 15.9652788,9.90616515 C15.9458471,9.74089108 15.9183822,9.57765972 15.8832508,9.41689055 C15.8770739,9.38863587 15.8707639,9.36089541 15.8642262,9.33323044 C15.8060161,9.08684378 15.7296437,8.84617648 15.6364889,8.6127766 C15.6323099,8.60230477 15.6280121,8.59163855 15.6236793,8.58098766 C14.9124258,6.8328887 13.2581501,5.49823746 11.2170265,5.1130615 L11.2130157,5.11230594 L11.1557538,5.10180526 C10.9868858,5.07162551 10.8154274,5.04793247 10.6416902,5.03102644 L10.5729991,5.02470682 L10.5729991,5.02470682 C10.5039273,5.01872172 10.4348468,5.01382716 10.3654376,5.01001215 L10.2730595,5.00558158 L10.2730595,5.00558158 C10.1820957,5.00186429 10.0912956,5 10,5 L9.78094193,5.0034029 L9.62410698,5.01059513 L9.62410698,5.01059513 C9.57909541,5.01313742 9.53375542,5.01616985 9.48856248,5.01966067 L9.34627505,5.03220873 L9.34627505,5.03220873 C9.315209,5.03528935 9.28416265,5.03859309 9.25319153,5.0421129 C9.20211438,5.04791741 9.1512029,5.05431495 9.1005044,5.06129327 C9.01988648,5.07239018 8.93983582,5.08495059 8.86035568,5.09894728 L8.85733397,5.09948016 L8.65018612,5.13956963 C6.74005133,5.54185971 5.18524762,6.77938848 4.45335312,8.40137038 L4.45245089,8.40337097 L4.43901775,8.43342638 C4.37395292,8.58024277 4.31561375,8.73016547 4.26434382,8.88286326 L4.25867948,8.89983141 C4.2541877,8.91336554 4.24975142,8.92692131 4.24537085,8.9404985 C4.2010513,9.07788223 4.16248427,9.21725586 4.12985215,9.35857891 L4.10977231,9.44932724 L4.10977231,9.44932724 C4.07739154,9.60243243 4.05205838,9.7568782 4.03389767,9.91321094 C4.03006992,9.94612449 4.02649832,9.97976364 4.02326009,10.0134868 C4.01849177,10.0632046 4.01448721,10.1125161 4.01119952,10.1619969 C4.00919654,10.1920918 4.00743147,10.2228115 4.00594374,10.2535941 L4.00430745,10.2901809 L4,10.5 C4,10.7015144 4.01188727,10.9006221 4.03506448,11.0967472 L6.09805807,11.5097097 L5.90194193,12.4902903 L4.28112724,12.1662973 C4.50305915,12.8057674 4.84929779,13.395554 5.29431046,13.9110412 L6.87873219,13.5149287 L7.12126781,14.4850713 L6.15983356,14.7255268 C7.19819334,15.5201559 8.53531812,16 10,16 C11.464721,16 12.8018781,15.5201303 13.8402496,14.7254632 L12.8787322,14.4850713 L13.1212678,13.5149287 L14.7056895,13.9110412 C15.1507022,13.395554 15.4969408,12.8057674 15.7188728,12.1662973 L14.0980581,12.4902903 L13.9019419,11.5097097 L15.9648178,11.0977427 C15.9880725,10.9012959 16,10.7018554 16,10.5 L15.9986336,10.3817515 L15.9986336,10.3817515 L15.9959419,10.3194029 L15.9949419,10.2964029 Z M8,8 C8.55228475,8 9,8.44771525 9,9 C9,9.55228475 8.55228475,10 8,10 C7.44771525,10 7,9.55228475 7,9 C7,8.44771525 7.44771525,8 8,8 Z M12,8 C12.5522847,8 13,8.44771525 13,9 C13,9.55228475 12.5522847,10 12,10 C11.4477153,10 11,9.55228475 11,9 C11,8.44771525 11.4477153,8 12,8 Z M15.3764511,3.50355018 L15.2952388,3.54288313 L13.2749926,4.75380046 C14.1971706,5.20792668 14.9969695,5.84786105 15.6165212,6.61986885 L16.0456836,4.05382908 C16.0554513,3.99522264 16.0546231,3.9358347 16.0437107,3.87836142 L16.019843,3.79392452 L15.9812331,3.71438171 C15.854945,3.5039016 15.5982423,3.41984724 15.3764511,3.50355018 Z M4.07125683,3.71438171 L4.03264693,3.79392452 C4.00134416,3.87625139 3.99215472,3.96591942 4.00680633,4.05382908 L4.42588647,6.5675753 C5.04595763,5.81088413 5.84064504,5.18426692 6.75416317,4.73952452 L4.75725117,3.54288313 C4.52046104,3.40080905 4.21333091,3.47759158 4.07125683,3.71438171 Z" id="Combined-Shape" fill="#A5B7C0" fill-rule="nonzero" class="primary"></path>
    </g>
</svg>
