<?xml version="1.0" encoding="UTF-8"?>
<svg width="20px" height="20px" viewBox="0 0 20 20" version="1.1" xmlns="http://www.w3.org/2000/svg" xmlns:xlink="http://www.w3.org/1999/xlink">
    <title>default</title>
    <g id="default" stroke="none" stroke-width="1" fill="none" fill-rule="evenodd">
        <path d="M7.5 15.5V17.5H6.5V15.5H7.5ZM9.5 15.5V17.5H8.5V15.5H9.5ZM11.5 15.5V17.5H10.5V15.5H11.5ZM13.5 15.5V17.5H12.5V15.5H13.5ZM13.5 5.5C14.0523 5.5 14.5 5.94772 14.5 6.5V13.5C14.5 14.0523 14.0523 14.5 13.5 14.5H6.5C5.94772 14.5 5.5 14.0523 5.5 13.5V6.5C5.5 5.94772 5.94772 5.5 6.5 5.5H13.5ZM13.5 6.5H6.5V13.5H13.5V6.5ZM17.5 12.5V13.5H15.5V12.5H17.5ZM4.5 12.5V13.5H2.5V12.5H4.5ZM17.5 10.5V11.5H15.5V10.5H17.5ZM4.5 10.5V11.5H2.5V10.5H4.5ZM17.5 8.5V9.5H15.5V8.5H17.5ZM4.5 8.5V9.5H2.5V8.5H4.5ZM17.5 6.5V7.5H15.5V6.5H17.5ZM4.5 6.5V7.5H2.5V6.5H4.5ZM7.5 2.5V4.5H6.5V2.5H7.5ZM9.5 2.5V4.5H8.5V2.5H9.5ZM11.5 2.5V4.5H10.5V2.5H11.5ZM13.5 2.5V4.5H12.5V2.5H13.5Z" fill="#A5B7C0"/>
    </g>
</svg>