<?xml version="1.0" encoding="UTF-8"?>
<svg width="20px" height="20px" viewBox="0 0 20 20" version="1.1" xmlns="http://www.w3.org/2000/svg" xmlns:xlink="http://www.w3.org/1999/xlink">
    <title>dog</title>
    <g id="dog" stroke="none" stroke-width="1" fill="none" fill-rule="evenodd">
        <path d="M6.44143286,4.74466208 L6.58263658,4.67016114 C7.42337016,4.24863184 8.53409091,4 10,4 C11.5509514,4 12.7043077,4.27831655 13.5609754,4.74525501 C14.0134607,3.87960596 15.0775371,3.53396438 15.954536,3.97246387 C16.1783846,4.08438816 16.3757662,4.2414961 16.534613,4.43313431 L16.6463341,4.58317092 L18.0766824,6.72869336 C18.9497964,8.03836438 19.2175731,9.65522635 18.8218444,11.1696605 L18.7451105,11.435767 L17.966753,13.9005657 C17.7276222,14.6578132 16.919898,15.0778297 16.1626505,14.8386989 C15.5942773,14.6592126 15.1955676,14.1476659 15.1602858,13.5526585 L15.1498098,13.3747732 L15.1396661,13.2002054 L15.112,12.6982881 L14.8580888,13.1094415 C14.6682963,13.4178289 14.4914694,13.7191851 14.3621341,14.0089769 L14.0911864,14.6055444 L13.9531855,14.8877658 L13.8087312,15.1576699 C13.1884265,16.2549325 12.3069266,17 10,17 C7.65005112,17 6.79401536,16.2268836 6.16676973,15.0959158 L6.0199758,14.8178254 L5.80775618,14.377715 L5.66592286,14.0708521 C5.57082476,13.8644132 5.45282084,13.6518713 5.32384409,13.4348938 L4.885,12.7222881 L4.86076765,13.2002054 C4.85411596,13.3154784 4.84724272,13.4329622 4.84014797,13.5526585 C4.80486621,14.1476659 4.40615649,14.6592126 3.83778324,14.8386989 C3.08053577,15.0778297 2.2728116,14.6578132 2.03368082,13.9005657 L1.25532333,11.435767 C0.753452192,9.84650835 0.999277706,8.11540386 1.92375137,6.72869336 L3.35409966,4.58317092 C3.52763091,4.32287406 3.76608703,4.11236923 4.04589775,3.97246387 C4.92324037,3.53379256 5.98780707,3.87987696 6.44143286,4.74466208 Z M10,5 C7.4741108,5 6.13347998,5.66320836 5.49550411,7.1576318 L5.41511304,7.37248542 C5.36331299,7.51822863 5.31651086,7.66208178 5.27469253,7.80404087 C5.15715575,8.248391 5.0812121,8.75108977 5.03967905,9.31396427 L5.01394387,9.7694632 L5.00151148,10.2501299 C5.00049752,10.3323559 5,10.4156437 5,10.5 C5,10.6896614 5.06320999,10.9302012 5.19824221,11.2303636 L5.30289326,11.4480198 L5.4307727,11.6850918 L5.59252257,11.9618242 L6.22256326,12.988743 L6.33100364,13.1749275 L6.41922868,13.335951 L6.53507419,13.568556 L6.74649468,14.0243933 L6.90840563,14.3557414 C7.57437182,15.6581873 8.16707941,16 10,16 C11.9373425,16 12.5054279,15.6195536 13.2078646,14.1330183 L13.4878937,13.515408 L13.5648839,13.3542375 L13.6482352,13.193841 L13.8049992,12.9187352 L14.4221741,11.9121134 L14.5756278,11.6508043 L14.6972513,11.4275277 L14.7975632,11.2225413 C14.935738,10.9223162 15,10.6846232 15,10.5 L14.9984885,10.2501299 L14.9860561,9.7694632 L14.9603209,9.31396427 C14.9178802,8.73878882 14.8395085,8.22644798 14.7162615,7.77382805 C14.6775276,7.64248738 14.6335945,7.50830714 14.5853207,7.37248542 L14.5044959,7.1576318 C13.86652,5.66320836 12.5258892,5 10,5 Z M10.8195396,11 C11.3718243,11 11.8195396,11.4477153 11.8195396,12 C11.8195396,12.0550809 11.8149887,12.1100676 11.8059335,12.164399 L11.7465985,12.5204091 C11.6327577,13.2034537 11.1372122,13.7405651 10.5003692,13.9280879 L10.5,14.324 L10.5377379,14.360587 C10.6286626,14.4363353 10.7409559,14.4801106 10.8854359,14.4945908 L11,14.5 C11.2761424,14.5 11.5,14.7238576 11.5,15 C11.5,15.2761424 11.2761424,15.5 11,15.5 C10.6148146,15.5 10.2761314,15.4009771 9.99878734,15.206604 C9.7235823,15.4010608 9.38502255,15.5 9,15.5 C8.72385763,15.5 8.5,15.2761424 8.5,15 C8.5,14.7545401 8.67687516,14.5503916 8.91012437,14.5080557 L9,14.5 L9.11456407,14.4945908 C9.22292409,14.4837307 9.31317907,14.456392 9.3898929,14.4114451 L9.46226205,14.360587 L9.5,14.324 L9.49963081,13.9280879 C8.86278779,13.7405651 8.36724228,13.2034537 8.25340152,12.5204091 L8.1940665,12.164399 C8.10327144,11.6196287 8.47129111,11.1044011 9.01606143,11.0136061 C9.07039286,11.0045508 9.12537956,11 9.18046042,11 L10.8195396,11 Z M4.60587009,4.82078711 L4.49311135,4.86689106 C4.36895505,4.92896921 4.26314842,5.02237342 4.18614996,5.13787112 L2.75580167,7.28339355 C1.99941412,8.41797487 1.79828416,9.8343331 2.208906,11.1346356 L2.98726349,13.5994343 C3.06008401,13.8300326 3.30605356,13.9579368 3.53665187,13.8851163 C3.70973629,13.830458 3.83115633,13.6746755 3.84190068,13.4934778 L3.94463852,11.5978183 L3.98677555,10.5990729 L4.00454866,9.98958096 L4.00981404,9.64985455 C4.01025279,9.59767881 4.01047216,9.54772677 4.01047216,9.5 L4.01751045,9.21114174 C4.07380107,8.04768766 4.46755286,6.78792776 5.19198457,5.42994035 L5.41847216,5.022 L5.36834372,4.97393956 C5.16155021,4.79726928 4.87279769,4.73468691 4.60587009,4.82078711 Z M14.7254312,4.90530956 L14.6320901,4.97393956 L14.5819616,5.022 L14.8084492,5.42994035 C15.4725116,6.67476215 15.858711,7.83704555 15.9618242,8.91827074 L15.9829233,9.21114174 L15.9899616,9.5 L15.9901262,9.57325891 L15.9906197,9.64985455 L15.9958851,9.98958096 L16.0136582,10.5990729 L16.0557953,11.5978183 L16.1585331,13.4934778 C16.1692775,13.6746755 16.2906975,13.830458 16.4637819,13.8851163 C16.6687582,13.9498456 16.8858796,13.8559777 16.9827425,13.6723625 L17.0131703,13.5994343 L17.7915278,11.1346356 C18.1764858,9.915602 18.0237713,8.59456631 17.3799341,7.4993325 L17.2446321,7.28339355 L15.8142838,5.13787112 C15.756535,5.05124784 15.6825815,4.97705216 15.5968357,4.91917905 L15.5073224,4.86689106 L15.3945637,4.82078711 C15.1657686,4.74698694 14.9209389,4.78242294 14.7254312,4.90530956 Z M10.8195396,12 L9.18046042,12 L9.23979544,12.3560101 C9.30173173,12.7276279 9.62325624,13 10,13 C10.3390694,13 10.6334112,12.7793786 10.7340404,12.464345 L10.7602046,12.3560101 L10.8195396,12 Z M7,8 C7.55228475,8 8,8.44771525 8,9 C8,9.55228475 7.55228475,10 7,10 C6.44771525,10 6,9.55228475 6,9 C6,8.44771525 6.44771525,8 7,8 Z M13,8 C13.5522847,8 14,8.44771525 14,9 C14,9.55228475 13.5522847,10 13,10 C12.4477153,10 12,9.55228475 12,9 C12,8.44771525 12.4477153,8 13,8 Z" id="Combined-Shape" fill="#A5B7C0" fill-rule="nonzero" class="primary"></path>
    </g>
</svg>
