<?xml version="1.0" encoding="UTF-8"?>
<svg width="20px" height="20px" viewBox="0 0 20 20" version="1.1" xmlns="http://www.w3.org/2000/svg" xmlns:xlink="http://www.w3.org/1999/xlink">
    <title>emergency</title>
    <g id="emergency" stroke="none" stroke-width="1" fill="none" fill-rule="evenodd">
        <path d="M11,3 C11.5522847,3 12,3.44771525 12,4 L12,5 L11.5,5 C12.4442719,5 13.3334369,5.44458247 13.9,6.2 L16,9 L18,9 C19.1045695,9 20,9.8954305 20,11 L20,12 C20,13.1045695 19.1045695,14 18,14 L17.9499027,14.0004345 C17.7180997,15.1413382 16.7093254,16 15.5,16 C14.2906746,16 13.2819003,15.1413382 13.0500973,14.0004345 L7.94990271,14.0004345 C7.71809967,15.1413382 6.70932545,16 5.5,16 C4.29067455,16 3.28190033,15.1413382 3.05009729,14.0004345 L2,14 C0.8954305,14 0,13.1045695 0,12 L0,9.66666667 C0,9.23392624 0.140355744,8.81285901 0.4,8.46666667 L2.7,5.4 C2.88885438,5.14819416 3.1852427,5 3.5,5 L10,5 L10,4 C10,3.44771525 10.4477153,3 11,3 Z M9,6 L3.5,6 L1.2,9.06666667 C1.0961423,9.2051436 1.03045692,9.3675805 1.00833708,9.53779774 L1,9.66666667 L1,12 C1,12.5128358 1.38604019,12.9355072 1.88337887,12.9932723 L2,13 L3.0498926,13.000574 C3.2813059,11.8591679 4.29031824,11 5.5,11 C6.70968176,11 7.7186941,11.8591679 7.9501074,13.000574 L13.0498926,13.000574 C13.2813059,11.8591679 14.2903182,11 15.5,11 C16.7096818,11 17.7186941,11.8591679 17.9501074,13.000574 L18,13 C18.5128358,13 18.9355072,12.6139598 18.9932723,12.1166211 L19,12 L19,11 C19,10.4871642 18.6139598,10.0644928 18.1166211,10.0067277 L18,10 L9,10 L9,6 Z M6,7 L6,7.999 L7,8 L7,9 L6,8.999 L6,10 L5,10 L5,8.999 L4,9 L4,8 L5,7.999 L5,7 L6,7 Z M11.5,6 L10,6 L10,9 L14.75,9 L13.1,6.8 C12.7566284,6.3421712 12.2355148,6.05560137 11.670641,6.00728148 L11.5,6 Z M4.016,13.28 C4.00548083,13.3516011 4,13.4251605 4,13.5 L4.00839162,13.6596105 C4.01077404,13.6821347 4.01365498,13.7045103 4.0170232,13.7267258 L4.021,13.75 L4.018,13.735 L4.02395769,13.7684694 L4.02395769,13.7684694 L4.027,13.787 L4.02976233,13.7987999 L4.02976233,13.7987999 L4.033,13.814 L4.05,13.884 L4.04588906,13.8696457 L4.05,13.885 L4.051,13.888 L4.059,13.915 L4.08437868,13.9972352 C4.28951421,14.5812751 4.84585789,15 5.5,15 C6.22236552,15 6.82546915,14.4893792 6.96805671,13.8093916 L6.97,13.798 L6.97605012,13.7684351 L6.97605012,13.7684351 L6.981,13.735 L6.978,13.75 L6.98296364,13.7268126 L6.98296364,13.7268126 L6.986,13.693 L6.987,13.693 L6.989,13.677 L6.986,13.693 L6.99568904,13.6145809 C6.99854572,13.5767615 7,13.5385506 7,13.5 L6.99106668,13.3353493 C6.98904993,13.3168775 6.98669782,13.2985065 6.98401654,13.2802425 L6.984,13.279 L6.97515153,13.2266592 L6.97515153,13.2266592 L6.979,13.254 L6.96450336,13.1741272 L6.96450336,13.1741272 L6.95436314,13.1313508 L6.95,13.119 L6.951,13.12 L6.948,13.112 L6.94431213,13.0936612 C6.93686303,13.0671295 6.92870253,13.0408955 6.91985252,13.0149809 L6.927,13.042 L6.91593567,13.0036607 C6.71105462,12.4191531 6.15447654,12 5.5,12 C4.78336754,12 4.18411143,12.5025479 4.03542508,13.1744504 L4.02484947,13.2266319 L4.02484947,13.2266319 L4.02,13.254 L4.01606301,13.2797013 L4.016,13.28 Z M14.016,13.28 C14.0054808,13.3516011 14,13.4251605 14,13.5 L14.0083916,13.6596105 C14.010774,13.6821347 14.013655,13.7045103 14.0170232,13.7267258 L14.021,13.75 L14.018,13.735 L14.0239577,13.7684694 L14.0239577,13.7684694 L14.027,13.787 L14.0297623,13.7987999 L14.0297623,13.7987999 L14.033,13.814 L14.05,13.884 L14.0458891,13.8696457 L14.05,13.885 L14.051,13.888 L14.059,13.915 L14.0843787,13.9972352 C14.2895142,14.5812751 14.8458579,15 15.5,15 C16.2223655,15 16.8254692,14.4893792 16.9680567,13.8093916 L16.97,13.798 L16.9760501,13.7684351 L16.9760501,13.7684351 L16.981,13.735 L16.978,13.75 L16.9829636,13.7268126 L16.9829636,13.7268126 L16.986,13.693 L16.987,13.693 L16.989,13.677 L16.986,13.693 L16.995689,13.6145809 C16.9985457,13.5767615 17,13.5385506 17,13.5 L16.9910667,13.3353493 C16.9890499,13.3168775 16.9866978,13.2985065 16.9840165,13.2802425 L16.984,13.279 L16.9751515,13.2266592 L16.9751515,13.2266592 L16.979,13.254 L16.9645034,13.1741272 L16.9645034,13.1741272 L16.9543631,13.1313508 L16.95,13.119 L16.951,13.12 L16.948,13.112 L16.9443121,13.0936612 C16.936863,13.0671295 16.9287025,13.0408955 16.9198525,13.0149809 L16.927,13.042 L16.9159357,13.0036607 C16.7110546,12.4191531 16.1544765,12 15.5,12 C14.7833675,12 14.1841114,12.5025479 14.0354251,13.1744504 L14.0248495,13.2266319 L14.0248495,13.2266319 L14.02,13.254 L14.016063,13.2797013 L14.016,13.28 Z" id="Combined-Shape" fill="#A5B7C0" fill-rule="nonzero" class="primary"></path>
    </g>
</svg>
