<?xml version="1.0" encoding="UTF-8"?>
<svg width="20px" height="20px" viewBox="0 0 20 20" version="1.1" xmlns="http://www.w3.org/2000/svg" xmlns:xlink="http://www.w3.org/1999/xlink">
    <title>face</title>
    <g id="face" stroke="none" stroke-width="1" fill="none" fill-rule="evenodd">
        <path d="M8.71428571,1.5 C10.8080968,1.5 12.2387038,1.73628032 12.9587545,2.29439086 C13.2603203,2.10730392 13.617629,2 14,2 C15.0543618,2 15.9181651,2.81587779 15.9945143,3.85073766 L16,4 L16.0010775,8.26818814 C16.5982846,8.61415066 17,9.2601625 17,10 C17,10.7398375 16.5982846,11.3858493 16.0010775,11.7318119 L16,12 C16,15.3137085 13.3137085,18 10,18 C6.6862915,18 4,15.3137085 4,12 L3.9989225,11.7318119 C3.40171539,11.3858493 3,10.7398375 3,10 C3,9.26057744 3.40126491,8.61487533 3.99791785,8.26877052 L3.999,7.251 L3.88725583,7.26432536 L3.70584377,7.28154181 L3.57176565,7.28870125 L3.46821019,7.28640586 L3.37836607,7.27525782 L3.23253396,7.24325433 C2.73423417,7.12297507 2.5,6.7272001 2.5,6.13793103 C2.5,3.78882095 4.87056455,1.5 8.71428571,1.5 Z M12.8889255,6.13151721 L12.7661571,6.21246198 C11.0066821,7.336716 9.22308447,7.72911037 7.43641487,7.37270606 L7.16839402,7.31362731 L6.85817844,7.24518751 C6.21849637,7.11792738 5.65194483,7.09446776 5.00205903,7.14323672 L5,11 L5,11 L5,12 L5,12 C5,14.7614237 7.23857625,17 10,17 C12.6887547,17 14.8818181,14.8776933 14.9953805,12.2168896 L15,12 L15,7 C14.176772,7 13.4309898,6.66841504 12.8889255,6.13151721 Z M12.3321819,13.6262953 C12.5385733,13.8097543 12.5571637,14.1257905 12.3737047,14.3321819 C11.6907397,15.1005174 10.8917746,15.4999946 9.99999464,15.4999946 C9.10822536,15.4999946 8.30926026,15.1005174 7.62629534,14.3321819 C7.44283633,14.1257905 7.4614267,13.8097543 7.66781808,13.6262953 C7.87420946,13.4428363 8.19024565,13.4614267 8.37370466,13.6678181 C8.87592493,14.2328159 9.41029316,14.4999946 9.99999464,14.4999946 C10.5897068,14.4999946 11.1240751,14.2328159 11.6262953,13.6678181 C11.8097543,13.4614267 12.1257905,13.4428363 12.3321819,13.6262953 Z M8,9.5 C8.27614237,9.5 8.5,9.72385763 8.5,10 C8.5,10.2454599 8.32312484,10.4496084 8.08987563,10.4919443 L8,10.5 L7,10.5 C6.72385763,10.5 6.5,10.2761424 6.5,10 C6.5,9.75454011 6.67687516,9.55039163 6.91012437,9.50805567 L7,9.5 L8,9.5 Z M13,9.5 C13.2761424,9.5 13.5,9.72385763 13.5,10 C13.5,10.2454599 13.3231248,10.4496084 13.0898756,10.4919443 L13,10.5 L12,10.5 C11.7238576,10.5 11.5,10.2761424 11.5,10 C11.5,9.75454011 11.6768752,9.55039163 11.9101244,9.50805567 L12,9.5 L13,9.5 Z M8.71428571,2.5 C6.77791576,2.5 5.31831481,3.13699937 4.44287996,4.02493253 L4.31128366,4.16518738 C4.30353272,4.17387519 4.29583518,4.18258391 4.28819114,4.19131321 C4.18619169,4.30779174 4.09369885,4.42796196 4.01095572,4.55100657 C3.70685655,5.0033248 3.53452763,5.49412763 3.50467777,5.98450041 L3.5,6.13793103 L3.49565987,6.23954536 C3.49298784,6.26034112 3.48931191,6.26990238 3.481,6.274 L3.4949305,6.27652446 L3.50929435,6.27863748 L3.57716421,6.28256026 L3.67629147,6.27824059 L3.99910615,6.24286997 L4.70237472,6.16515935 C4.80332555,6.15556468 4.90248938,6.14737331 5.00027033,6.14067789 L5,6.141 L5.05052205,6.13736153 C5.73469661,6.09392171 6.35395191,6.12520479 7.04871221,6.26339315 L7.40303455,6.3415451 L7.66624274,6.39871154 C9.15791464,6.68659201 10.6526727,6.36109728 12.1701783,5.40640617 L12.3044419,5.31834161 L12.4382136,5.2313966 L12.5,5.188 L12.5,3.999 L12.5,3.37931034 L12.499,3.368 L12.4923804,3.31262313 C12.4908395,3.30595695 12.4890645,3.29931281 12.4870549,3.29269146 L12.4783676,3.26785702 L12.475,3.26 L12.477,3.267 L12.47,3.251 L12.473,3.256 L12.462,3.234 L12.461,3.233 L12.454,3.219 L12.45,3.212 L12.4235953,3.1737251 C12.4116284,3.15830841 12.398247,3.14305578 12.3834449,3.1279784 C12.3751469,3.11950438 12.3658309,3.1105701 12.3560081,3.10170051 L12.369,3.114 L12.3544295,3.10027955 L12.343,3.091 L12.3187494,3.07028678 L12.302,3.058 L12.2458636,3.01846893 C11.9131986,2.80416251 11.2502588,2.63659127 10.2354275,2.55480982 L9.9991881,2.53774752 L9.51446501,2.51371203 L8.98515545,2.50147556 L8.71428571,2.5 Z M14,3 C13.8100759,3 13.632518,3.05294636 13.4812814,3.14488408 C13.4876863,3.17987625 13.4919079,3.21528811 13.4948596,3.25132521 L13.5,3.37931034 L13.500494,5.32347172 C13.8361387,5.70347044 14.3139826,5.95491394 14.8507377,5.99451426 L15,6 L15,4 C15,3.44771525 14.5522847,3 14,3 Z" id="Combined-Shape" fill="#A5B7C0" fill-rule="nonzero" class="primary"></path>
    </g>
</svg>
