<?xml version="1.0" encoding="UTF-8"?>
<svg width="20px" height="20px" viewBox="0 0 20 20" version="1.1" xmlns="http://www.w3.org/2000/svg" xmlns:xlink="http://www.w3.org/1999/xlink">
    <title>fish</title>
    <g id="fish" stroke="none" stroke-width="1" fill="none" fill-rule="evenodd">
        <path d="M8.79136888,3.17528659 L12.247,6.05428659 L12.2950933,6.05749625 C12.4337553,6.06653284 12.571153,6.07667824 12.7071967,6.08796296 L13.2439372,6.13925058 C13.3321195,6.14883536 13.4196467,6.15894459 13.5064924,6.16958731 L14.019175,6.2399179 L14.5142233,6.32348633 C17.1861536,6.8203125 19,7.9375 19,10 C19,12.0625 17.1861536,13.1796875 14.5142233,13.6765137 L14.019175,13.7600821 L13.5064924,13.8304127 C13.4196467,13.8410554 13.3321195,13.8511646 13.2439372,13.8607494 L12.735,13.9082866 L10.4459029,16.1983583 L8.61635344,13.7617408 C7.06454145,13.3357524 5.96187685,12.4102444 5.22429288,11.5792329 L4.98868804,11.3026964 L4.836,11.1092866 L2,13 L2,7 L4.83568203,8.88933673 C5.37618327,8.19286529 6.20054994,7.32570632 7.37050918,6.7240243 L8.79136888,3.17528659 Z M10.15,14.1361545 L10.554,14.6761545 L10.959,14.2711545 L10.15,14.1361545 Z M10.448765,6.99979609 L10.1711382,7.00519477 C8.61499328,7.06844846 7.35602446,7.69394499 6.30736873,8.73056632 C5.97249801,9.06159406 5.67908849,9.41511183 5.40453414,9.79976531 L5.266,9.999 L5.40453414,10.2002347 C5.67908849,10.5848882 5.97249801,10.9384059 6.30736873,11.2694337 C7.41514748,12.3644995 8.75464496,13 10.4285714,13 C11.1713797,13 11.8628176,12.9753844 12.5014136,12.9269224 L12.5,7.07228659 L12.3631656,7.06199355 L11.7543063,7.0275475 C11.3385825,7.00912495 10.9032828,6.99979609 10.448765,6.99979609 Z M13.5011958,7.17256718 L13.5008462,12.8262234 C16.4367833,12.4503905 18,11.4751262 18,10 C18,8.52340933 16.4336779,7.54767351 13.5011958,7.17256718 Z M3,8.869 L3,11.13 L4,10.464 L4,9.535 L3,8.869 Z M15.5,9 C15.7761424,9 16,9.22385763 16,9.5 C16,9.77614237 15.7761424,10 15.5,10 C15.2238576,10 15,9.77614237 15,9.5 C15,9.22385763 15.2238576,9 15.5,9 Z M9.208,4.825 L8.738,6 L10.618,6 L9.208,4.825 Z" id="Combined-Shape" fill="#A5B7C0" fill-rule="nonzero" class="primary"></path>
    </g>
</svg>
