<?xml version="1.0" encoding="UTF-8"?>
<svg width="20px" height="20px" viewBox="0 0 20 20" version="1.1" xmlns="http://www.w3.org/2000/svg" xmlns:xlink="http://www.w3.org/1999/xlink">
    <title>license</title>
    <g id="license" stroke="none" stroke-width="1" fill="none" fill-rule="evenodd">
        <path d="M19,5 C19.5522847,5 20,5.44771525 20,6 L20,14 C20,14.5522847 19.5522847,15 19,15 L1,15 C0.44771525,15 0,14.5522847 0,14 L0,6 C0,5.44771525 0.44771525,5 1,5 L19,5 Z M19,6 L1,6 L1,14 L19,14 L19,6 Z M15,7 L15,13 L14,13 L14,8 L13,8 L13,7 L15,7 Z M8,7 L8,13 L5,13 L5,7 L8,7 Z M12,7 L12,13 L9,13 L9,7 L12,7 Z M7,8 L6,8 L6,12 L7,12 L7,8 Z M11,8 L10,8 L10,12 L11,12 L11,8 Z M3,9 C3.55228475,9 4,9.44771525 4,10 C4,10.5522847 3.55228475,11 3,11 C2.44771525,11 2,10.5522847 2,10 C2,9.44771525 2.44771525,9 3,9 Z M17,9 C17.5522847,9 18,9.44771525 18,10 C18,10.5522847 17.5522847,11 17,11 C16.4477153,11 16,10.5522847 16,10 C16,9.44771525 16.4477153,9 17,9 Z" id="Combined-Shape" fill="#A5B7C0" fill-rule="nonzero" class="primary"></path>
    </g>
</svg>
