<?xml version="1.0" encoding="UTF-8"?>
<svg width="20px" height="20px" viewBox="0 0 20 20" version="1.1" xmlns="http://www.w3.org/2000/svg" xmlns:xlink="http://www.w3.org/1999/xlink">
    <title>person</title>
    <g id="person" stroke="none" stroke-width="1" fill="none" fill-rule="evenodd">
        <path d="M3,14 L3,17 L6,17 L6,18 L3,18 C2.44771525,18 2,17.5522847 2,17 L2,14 L3,14 Z M18,14 L18,17 C18,17.5522847 17.5522847,18 17,18 L14,18 L14,17 L17,17 L17,14 L18,14 Z M10,6.5 C12.4492973,6.5 13.5,8.1511043 13.5,10.5 C13.5,10.7761424 13.2761424,11 13,11 C12.7238576,11 12.5,10.7761424 12.5,10.5 C12.5,9.29178734 12.1970999,8.39014784 11.5005653,7.90481009 L11.5,15.5 C11.5,15.7761424 11.2761424,16 11,16 C10.7238576,16 10.5,15.7761424 10.5,15.5 L10.5,12 C10.5,11.7238576 10.2761424,11.5 10,11.5 C9.72385763,11.5 9.5,11.7238576 9.5,12 L9.5,15.5 C9.5,15.7761424 9.27614237,16 9,16 C8.72385763,16 8.5,15.7761424 8.5,15.5 L8.50041142,7.90412998 C7.80318326,8.38930526 7.5,9.29122275 7.5,10.5 C7.5,10.7761424 7.27614237,11 7,11 C6.72385763,11 6.5,10.7761424 6.5,10.5 C6.5,8.1511043 7.55070274,6.5 10,6.5 Z M17,2 C17.5522847,2 18,2.44771525 18,3 L18,6 L17,6 L17,3 L14,3 L14,2 L17,2 Z M6,2 L6,3 L3,3 L3,6 L2,6 L2,3 C2,2.44771525 2.44771525,2 3,2 L6,2 Z M10,4 C10.5522847,4 11,4.44771525 11,5 C11,5.55228475 10.5522847,6 10,6 C9.44771525,6 9,5.55228475 9,5 C9,4.44771525 9.44771525,4 10,4 Z" id="Combined-Shape" fill="#A5B7C0" fill-rule="nonzero" class="primary"></path>
    </g>
</svg>
