<?xml version="1.0" encoding="UTF-8"?>
<svg width="20px" height="20px" viewBox="0 0 20 20" version="1.1" xmlns="http://www.w3.org/2000/svg" xmlns:xlink="http://www.w3.org/1999/xlink">
    <title>things</title>
    <g id="things" stroke="none" stroke-width="1" fill="none" fill-rule="evenodd">
        <path d="M18,4 L18,6 L16.9998504,6 L17,7 C17,7.55228475 16.5522847,8 16,8 L12.9998504,8 L13,9 C13,10.1045695 12.1045695,11 11,11 L9,11 L8.32155355,14.3922323 C8.13458387,15.3270807 7.31375423,16 6.36039219,16 L4,16 C3.27385551,16 2.63809575,15.613017 2.28770454,15.0340349 L3.68120928,9.45199566 C3.80527549,8.95439324 3.5329558,8.45088549 3.06436484,8.27451914 L2.95283545,8.23977804 L1.99985038,8.001 L2,5 C2,4.44771525 2.44771525,4 3,4 L18,4 Z M8,8 L4.302,8 L4.36543484,8.0863203 C4.64664333,8.50087458 4.77079019,9.01779681 4.68388938,9.53810742 L4.65143372,9.69420327 L3.38,14.783 L3.40019033,14.8005089 C3.53575073,14.9022204 3.69642588,14.9688678 3.86876696,14.9914583 L4,15 L6.36039219,15 C6.7973498,15 7.17862538,14.7172804 7.31114401,14.3101248 L7.34097287,14.1961161 L8,10.898 L8,8 Z M12,8 L9,8 L9,10 L11,10 C11.5128358,10 11.9355072,9.61395981 11.9932723,9.11662113 L12,9 L12,8 Z M3.99985038,5 L3,5 L3,7 L16,7 L16,5 L6.99985038,5 L7,6 L6,6 L5.99985038,5 L4.99985038,5 L5,6 L4,6 L3.99985038,5 Z" id="Combined-Shape" fill="#A5B7C0" fill-rule="nonzero" class="primary"></path>
    </g>
</svg>
