<?xml version="1.0" encoding="UTF-8"?>
<svg width="20px" height="20px" viewBox="0 0 20 20" version="1.1" xmlns="http://www.w3.org/2000/svg" xmlns:xlink="http://www.w3.org/1999/xlink">
    <title>train</title>
    <g id="train" stroke="none" stroke-width="1" fill="none" fill-rule="evenodd">
        <path d="M20,15 L20,16 L0,16 L0,15 L20,15 Z M11.7798467,3 C14.8781903,3 17.6096975,5.03232508 18.5,8 L19.2275913,10.4253042 C19.544987,11.4832899 18.9446202,12.5982569 17.8866345,12.9156526 C17.7001944,12.9715846 17.5065878,13 17.3119387,13 L16,13 C16,13.5522847 15.5522847,14 15,14 C14.4871642,14 14.0644928,13.6139598 14.0067277,13.1166211 L14,13.008 L13.9932723,13.1166211 C13.9355072,13.6139598 13.5128358,14 13,14 C12.4871642,14 12.0644928,13.6139598 12.0067277,13.1166211 L12,13 L5,13 C5,13.5522847 4.55228475,14 4,14 C3.48716416,14 3.06449284,13.6139598 3.00672773,13.1166211 L2.99996745,13.0081542 C2.99558647,13.5566849 2.54956414,14 2,14 C1.48716416,14 1.06449284,13.6139598 1.00672773,13.1166211 L1,13 L1,12 L17.3119387,12 C17.4092633,12 17.5060666,11.9857923 17.5992866,11.9578263 C18.0904942,11.810464 18.3844121,11.3192508 18.2968318,10.8262881 L18.269765,10.7126521 L18.056,10 L11,10 C10.4477153,10 10,9.55228475 10,9 L10,8 C10,7.44771525 10.4477153,7 11,7 L16.985923,7.00023569 C15.9279587,5.17329407 13.959793,4 11.7798467,4 L1,4 L1,3 L11.7798467,3 Z M8,7 C8.55228475,7 9,7.44771525 9,8 L9,9 C9,9.55228475 8.55228475,10 8,10 L1,10 L1,9 L8,9 L8,8 L1,8 L1,7 L8,7 Z M17.2792408,8 L11,8 L11,9 L17.612,9 L17.2792408,8 Z" id="Combined-Shape" fill="#A5B7C0" fill-rule="nonzero" class="primary"></path>
    </g>
</svg>
