<?xml version="1.0" encoding="UTF-8"?>
<svg width="20px" height="20px" viewBox="0 0 20 20" version="1.1" xmlns="http://www.w3.org/2000/svg" xmlns:xlink="http://www.w3.org/1999/xlink">
    <title>tram</title>
    <g id="tram" stroke="none" stroke-width="1" fill="none" fill-rule="evenodd">
        <path d="M20,15 L20,16 L0,16 L0,15 L20,15 Z M12.1365566,0.519003106 L12.2236068,0.552786405 L15.2236068,2.0527864 C15.563783,2.22287453 15.5899505,2.68406486 15.302109,2.89893794 L15.2236068,2.9472136 L13.117,4 L16,4 C18.1421954,4 19.8910789,5.68396847 19.9951047,7.80035966 L20,8 L20,13 L18,13 C18,13.5522847 17.5522847,14 17,14 C16.4477153,14 16,13.5522847 16,13 C16,13.5522847 15.5522847,14 15,14 C14.4477153,14 14,13.5522847 14,13 L14,13 L6,13 C6,13.5522847 5.55228475,14 5,14 C4.44771525,14 4,13.5522847 4,13 C4,13.5522847 3.55228475,14 3,14 C2.44771525,14 2,13.5522847 2,13 L2,13 L0,13 L0,4 L10.882,4 L8.7763932,2.9472136 C8.43621695,2.77712547 8.41004955,2.31593514 8.69789099,2.10106206 L8.7763932,2.0527864 L11.7763932,0.552786405 C11.8890042,0.496480906 12.0175655,0.485219807 12.1365566,0.519003106 Z M16,5 L1,5 L1,12 L19,12 L19,10 L17,10 C16.4477153,10 16,9.55228475 16,9 L16,8 C16,7.44771525 16.4477153,7 17,7 L18.8293257,7.00008893 C18.4361695,5.88763555 17.4054973,5.0763156 16.1762728,5.00509269 L16,5 Z M11,6 C11.5522847,6 12,6.44771525 12,7 L12,9 C12,9.55228475 11.5522847,10 11,10 L3,10 C2.44771525,10 2,9.55228475 2,9 L2,7 C2,6.44771525 2.44771525,6 3,6 L11,6 Z M5,7 L3,7 L3,9 L5,9 L5,7 Z M8,7 L6,7 L6,9 L8,9 L8,7 Z M11,7 L9,7 L9,9 L11,9 L11,7 Z M19,8 L17,8 L17,9 L19,9 L19,8 Z M12,1.559 L10.118,2.5 L12,3.44 L13.881,2.5 L12,1.559 Z" id="Combined-Shape" fill="#A5B7C0" fill-rule="nonzero" class="primary"></path>
    </g>
</svg>
