<?xml version="1.0" encoding="UTF-8"?>
<svg width="20px" height="20px" viewBox="0 0 20 20" version="1.1" xmlns="http://www.w3.org/2000/svg" xmlns:xlink="http://www.w3.org/1999/xlink">
    <title>truck</title>
    <g id="truck" stroke="none" stroke-width="1" fill="none" fill-rule="evenodd">
        <path d="M5.5,16 C4.29067455,16 3.28190033,15.1413382 3.05009729,14.0004345 L0,14 L0,3 L13,3 L13,5 L18,5 C19.3333333,6.55555556 20,7.88888889 20,9 L20,12 C20,13.1045695 19.1045695,14 18,14 L17.9499027,14.0004345 C17.7180997,15.1413382 16.7093254,16 15.5,16 C14.2906746,16 13.2819003,15.1413382 13.0500973,14.0004345 L7.94990271,14.0004345 C7.71809967,15.1413382 6.70932545,16 5.5,16 Z M14.05,13.885 L14.051,13.888 L14.059,13.915 L14.0843787,13.9972352 C14.2895142,14.5812751 14.8458579,15 15.5,15 C16.2223655,15 16.8254692,14.4893792 16.9680567,13.8093916 L16.97,13.798 L16.9760501,13.7684351 L16.9760501,13.7684351 L16.981,13.735 L16.978,13.75 L16.9829636,13.7268126 L16.9829636,13.7268126 L16.986,13.693 L16.987,13.693 L16.989,13.677 L16.986,13.693 L16.995689,13.6145809 C16.9985457,13.5767615 17,13.5385506 17,13.5 L16.9910667,13.3353493 C16.9890499,13.3168775 16.9866978,13.2985065 16.9840165,13.2802425 L16.984,13.279 L16.9751515,13.2266592 L16.9751515,13.2266592 L16.979,13.254 L16.9645034,13.1741272 L16.9645034,13.1741272 L16.9543631,13.1313508 L16.95,13.119 L16.951,13.12 L16.948,13.112 L16.9443121,13.0936612 C16.936863,13.0671295 16.9287025,13.0408955 16.9198525,13.0149809 L16.927,13.042 L16.9159357,13.0036607 C16.7110546,12.4191531 16.1544765,12 15.5,12 C14.7833675,12 14.1841114,12.5025479 14.0354251,13.1744504 L14.0248495,13.2266319 L14.0248495,13.2266319 L14.02,13.254 L14.016063,13.2797013 L14.016,13.28 L14.0040632,13.3887482 C14.0013702,13.4254805 14,13.4625802 14,13.5 L14.0083916,13.6596105 C14.010774,13.6821347 14.013655,13.7045103 14.0170232,13.7267258 L14.021,13.75 L14.018,13.735 L14.0239577,13.7684694 L14.0239577,13.7684694 L14.027,13.787 L14.0297623,13.7987999 L14.0297623,13.7987999 L14.033,13.814 L14.05,13.884 L14.05,13.885 Z M5.5,12 C4.78336754,12 4.18411143,12.5025479 4.03542508,13.1744504 C4.02787053,13.2085527 4.02142727,13.2434231 4.01621169,13.2786934 L4.03542508,13.1744504 C4.02377482,13.227097 4.0148908,13.2807834 4.00893332,13.3353493 L4.01621169,13.2786934 C4.00553218,13.3509136 4,13.4248108 4,13.5 L4.00839162,13.6596105 C4.01077404,13.6821347 4.01365498,13.7045103 4.0170232,13.7267258 C4.02126908,13.7547191 4.02627071,13.7823731 4.03201898,13.8097524 L4.0170232,13.7267258 C4.02436734,13.7751651 4.03402813,13.822844 4.04588906,13.8696457 L4.03201898,13.8097524 C4.04406913,13.8671479 4.05940037,13.9233361 4.07780743,13.9781117 L4.04588906,13.8696457 C4.21053551,14.519321 4.79913345,15 5.5,15 C6.22236552,15 6.82546915,14.4893792 6.96805671,13.8093916 C6.97372929,13.7823731 6.97873092,13.7547191 6.98296364,13.7268126 L6.96805671,13.8093916 C6.97834989,13.7603044 6.98624324,13.7103345 6.99160838,13.6596105 L6.98296364,13.7268126 C6.9941829,13.6528437 7,13.5771012 7,13.5 L6.99106668,13.3353493 C6.98901327,13.3165416 6.98661218,13.2978385 6.98386997,13.2792464 C6.97857273,13.2434231 6.97212947,13.2085527 6.96450336,13.1741272 L6.98386997,13.2792464 C6.97647328,13.229097 6.96659473,13.1797555 6.95436314,13.1313508 L6.96450336,13.1741272 C6.9524187,13.1195749 6.93736379,13.0661396 6.91951699,13.0139995 L6.95436314,13.1313508 C6.7900663,12.4811707 6.20122486,12 5.5,12 Z M12,4 L1,4 L1,13 L3.0498926,13.000574 C3.2813059,11.8591679 4.29031824,11 5.5,11 C6.70968176,11 7.7186941,11.8591679 7.9501074,13.000574 L12,13 L12,4 Z M15.5,6 L13,6 L13,13 L13.0498926,13.000574 C13.2813059,11.8591679 14.2903182,11 15.5,11 C16.7096818,11 17.7186941,11.8591679 17.9501074,13.000574 L18,13 C18.5128358,13 18.9355072,12.6139598 18.9932723,12.1166211 L19,12 L19,9.5 L15.5,9.5 L15.5,6 Z M17.53,6 L16.5,6 L16.5,8.5 L18.9392381,8.50129303 C18.7895898,7.84964223 18.361724,7.05395492 17.6357809,6.13107912 L17.53,6 Z" id="Combined-Shape" fill="#A5B7C0" fill-rule="nonzero" class="primary"></path>
    </g>
</svg>
