<?xml version="1.0" encoding="UTF-8"?>
<svg width="20px" height="20px" viewBox="0 0 20 20" version="1.1" xmlns="http://www.w3.org/2000/svg" xmlns:xlink="http://www.w3.org/1999/xlink">
    <title>unknown</title>
    <g id="unknown" stroke="none" stroke-width="1" fill="none" fill-rule="evenodd">
        <path d="M10,2 C14.418278,2 18,5.581722 18,10 C18,14.418278 14.418278,18 10,18 C5.581722,18 2,14.418278 2,10 C2,5.581722 5.581722,2 10,2 Z M10,3 C6.13400675,3 3,6.13400675 3,10 C3,13.8659932 6.13400675,17 10,17 C13.8659932,17 17,13.8659932 17,10 C17,6.13400675 13.8659932,3 10,3 Z M10.5,14 L10.5,15 L9.5,15 L9.5,14 L10.5,14 Z M10,5.5 C11.6568542,5.5 13,6.84314575 13,8.5 C13,9.98625501 11.9192103,11.2200781 10.5006962,11.4584039 L10.5,13 L9.5,13 L9.5,10.5 L10,10.5 C11.1045695,10.5 12,9.6045695 12,8.5 C12,7.3954305 11.1045695,6.5 10,6.5 C8.9456382,6.5 8.08183488,7.31587779 8.00548574,8.35073766 L8,8.5 L7,8.5 C7,6.84314575 8.34314575,5.5 10,5.5 Z" id="Combined-Shape" fill="#A5B7C0" fill-rule="nonzero" class="primary"></path>
    </g>
</svg>
