<?xml version="1.0" encoding="UTF-8"?>
<svg width="20px" height="20px" viewBox="0 0 20 20" version="1.1" xmlns="http://www.w3.org/2000/svg" xmlns:xlink="http://www.w3.org/1999/xlink">
    <title>watertransport</title>
    <g id="watertransport" stroke="none" stroke-width="1" fill="none" fill-rule="evenodd">
        <path d="M9,4 L9,6 L11,6 C12.6568542,6 14,7.34314575 14,9 L20,9 L18.0389955,13.5756772 C17.4086803,15.0464126 15.9625278,16 14.3624154,16 L4,16 C2.34314575,16 1,14.6568542 1,13 L1,9 L3,9 L3,4 L9,4 Z M18.482,10 L2,10 L2,13 C2,14.0543618 2.81587779,14.9181651 3.85073766,14.9945143 L4,15 L14.3624154,15 C15.4958283,15 16.526245,14.3620677 17.0354806,13.3619524 L17.1198505,13.1817579 L18.482,10 Z M15.5,11 C15.7761424,11 16,11.2238576 16,11.5 C16,11.7761424 15.7761424,12 15.5,12 C15.2238576,12 15,11.7761424 15,11.5 C15,11.2238576 15.2238576,11 15.5,11 Z M11,7 L4,7 L4,9 L13,9 C13,7.9456382 12.1841222,7.08183488 11.1492623,7.00548574 L11,7 Z M8,5 L4,5 L4,6 L8,6 L8,5 Z" id="Combined-Shape" fill="#A5B7C0" fill-rule="nonzero" class="primary"></path>
    </g>
</svg>
