<svg xmlns="http://www.w3.org/2000/svg" width="64" height="64" fill="none" viewBox="0 0 64 64">
  <g class="illustrations/64x64/pan">
    <path fill="#698796" d="M33 8a6.002 6.002 0 0 1 5.917 5.002V13l.005.032A5.997 5.997 0 0 1 39 14v10c0 1.51-.558 2.89-1.479 3.945l17.861 9.526a3.995 3.995 0 0 1 2.087 3.026l.02-.193.01-.193v6a4 4 0 0 1-2.117 3.42l-21.5 11.465a4 4 0 0 1-3.764 0L8.618 49.53a3.998 3.998 0 0 1-2.113-3.315L6.5 46v-6l.006.226c.005.075.011.15.02.224l.006.04a4 4 0 0 1 2.086-3.019l17.86-9.527A5.977 5.977 0 0 1 25 24V14c0-.319.025-.632.073-.937l.01-.063A6 6 0 0 1 31 8h2Zm23.5 35.998-.186.135-.226.145-.235.134-21.526 11.48-.236.117a4.997 4.997 0 0 1-1.935.455l-.09.002h-.144l-.076-.002A4.987 4.987 0 0 1 29.893 56l-.246-.123-21.524-11.48-.223-.127-.2-.129L7.499 44v1.975l.005.183c.053.978.575 1.87 1.413 2.39l.171.098 21.5 11.467a3 3 0 0 0 2.645.088l.179-.088 21.5-11.467a3 3 0 0 0 1.572-2.319l.015-.218v-2.112ZM36.761 28.674a5.992 5.992 0 0 1-1.761.984V38a2 2 0 0 1-2 2h-2a2 2 0 0 1-2-2l-.001-2.373v.492C27.774 36.685 27 37.574 27 38.5c0 1.551 2.173 3 5 3s5-1.449 5-3c0-.926-.774-1.815-2-2.382v-1.82c4.057.828 7 3.292 7 6.202 0 3.59-4.477 6.5-10 6.5s-10-2.91-10-6.5c0-2.91 2.942-5.374 7-6.202l-.001.061.001-4.7a5.99 5.99 0 0 1-1.761-.984l-18.15 9.678a3 3 0 0 0-.16 5.203l.16.091 21.5 11.467a3 3 0 0 0 2.644.088l.179-.088 21.5-11.467a3 3 0 0 0 .158-5.203l-.158-.091-18.15-9.679Zm-.553 6.976.116.078C37.362 36.447 38 37.424 38 38.5c0 2.21-2.686 4-6 4s-6-1.79-6-4c0-1.116.686-2.125 1.791-2.85C24.922 36.595 23 38.462 23 40.5c0 2.925 3.962 5.5 9 5.5s9-2.575 9-5.5c0-2.037-1.922-3.904-4.79-4.85ZM26 23.317V24c0 1.297.498 2.5 1.334 3.4l.055.059a5.023 5.023 0 0 0 1.735 1.177l.21.08.666.235V38a1 1 0 0 0 .883.993L31 39h2a1 1 0 0 0 .993-.883L34 38v-9.05l.667-.236c.327-.115.636-.262.925-.437l.193-.125c.3-.201.577-.434.826-.694l.056-.059a4.997 4.997 0 0 0 1.328-3.172L38 24v-.683A5.994 5.994 0 0 1 33 26h-2a5.994 5.994 0 0 1-5-2.683Zm4.5-4.337v5.995c.094.01.189.016.284.02L31 25h.5l-.001-6.001h-.52l-.266-.005-.214-.014Zm2.813.013L33 19h-.501l.001 6h.5c.169 0 .335-.008.5-.025v-5.993a6.502 6.502 0 0 1-.188.011Zm-4.814-.454v5.791c.314.182.65.33 1.002.441v-5.933a6.96 6.96 0 0 1-1.002-.299Zm6.001.3v5.932c.352-.11.688-.259 1.001-.44v-5.792a6.96 6.96 0 0 1-1 .3Zm2.001-.776v5.508c.408-.4.748-.87 1-1.389v-4.82a7.033 7.033 0 0 1-1 .7Zm-10.002-.702v4.817c.253.521.593.991 1.001 1.392v-5.508a7.023 7.023 0 0 1-1-.701ZM33 9h-2a5 5 0 0 0-4.995 4.783L26 14l-.001 1.316a5.995 5.995 0 0 0 4.755 2.679L31 18h2a5.995 5.995 0 0 0 5-2.682V14a5 5 0 0 0-4.783-4.995L33 9Z" class="Primary"/>
    <path fill="#A5B7C0" fill-rule="evenodd" d="m44.368 5.566-3.897 2.25 1.5 2.598 3.897-2.25.53.916 1.78-3.915-4.28-.415.47.816Zm-27.866 13.5 3.897-2.25 1.5 2.598-3.897 2.25.53.916-4.282-.415 1.781-3.915.471.816Z" class="Secondary" clip-rule="evenodd"/>
  </g>
</svg>
