<svg xmlns="http://www.w3.org/2000/svg" width="64" height="64" fill="none" viewBox="0 0 64 64">
  <g class="illustrations/64x64/zoom">
    <path fill="#698796" d="M35 7c7.18 0 13 5.82 13 13v23c0 7.732-6.268 14-14 14h-4c-7.732 0-14-6.268-14-14V20c0-7.18 5.82-13 13-13h6Zm-1 42h-5v-.035c-5.457-.385-10.051-3.899-12-8.758V43c0 7.077 5.655 12.833 12.693 12.996L30 56h4c7.077 0 12.833-5.655 12.996-12.693L47 43l.001-2.797C44.936 45.358 39.893 49 34 49Zm-2-17h-2v16h2V32Zm3-.033c-.22.015-.442.024-.666.03L34 32h-1v16h1c.337 0 .67-.013 1-.038V31.967Zm-8-.268v15.953c.65.154 1.318.258 2 .31V31.967a14.986 14.986 0 0 1-2-.268Zm11.001-.24c-.65.18-1.319.317-2 .408v15.98a12.914 12.914 0 0 0 2-.474V31.459ZM24 30.75v15.786c.638.332 1.306.613 2 .837V31.46a14.923 14.923 0 0 1-2-.71Zm17-.483c-.641.34-1.31.633-2 .877v15.86a13.02 13.02 0 0 0 2-1.048V30.267ZM21 29v15.38a13.053 13.053 0 0 0 2 1.577V30.268A15.03 15.03 0 0 1 21 29Zm23-.82a15.076 15.076 0 0 1-2 1.509v15.558a13.073 13.073 0 0 0 2-1.941V28.18Zm-26-2.177V40a12.883 12.883 0 0 0 2 3.307V28.18a15.063 15.063 0 0 1-2-2.177Zm28 0c-.312.416-.646.815-.999 1.195V41.93c.386-.61.721-1.256 1.002-1.93H46V26.003ZM35 8h-6c-6.526 0-11.834 5.209-11.996 11.695L17 20v2.205c2.026 5.058 6.92 8.658 12.67 8.791L30 31h4c2.55 0 4.941-.682 7.001-1.873L41 29h.215A14.052 14.052 0 0 0 47 22.205V20c0-6.525-5.209-11.834-11.695-11.996L35 8Zm-3 5c4.418 0 8 2.686 8 6s-3.582 6-8 6-8-2.686-8-6 3.582-6 8-6Zm0 1c-3.918 0-7 2.311-7 5s3.082 5 7 5 7-2.311 7-5-3.082-5-7-5Z" class="Primary"/>
    <path fill="#A5B7C0" d="m54 22 3 3.5h-2.01C54.61 34.2 44.401 41 32 41S9.39 34.199 9.01 25.5H7l3-3.5 3 3.5h-1.987C11.411 32.91 20.595 39 32 39c11.405 0 20.589-6.091 20.987-13.5H51l3-3.5Z" class="Secondary"/>
  </g>
</svg>
