<svg width="24" height="24" viewBox="0 0 24 24" fill="none" xmlns="http://www.w3.org/2000/svg">
<path fill-rule="evenodd" clip-rule="evenodd" d="M13 3V7H11V3H13ZM7 11H3V13H7V11ZM21 11H17V13H21V11ZM13 21V17H11V21H13Z" fill="white"/>
<path fill-rule="evenodd" clip-rule="evenodd" d="M4.5 8V4.5H8V3H4C3.44772 3 3 3.44772 3 4V8H4.5ZM4.5 16H3V20C3 20.5523 3.44772 21 4 21H8V19.5H4.5V16ZM16 19.5V21H20C20.5523 21 21 20.5523 21 20V16H19.5V19.5H16ZM19.5 8H21V4C21 3.44772 20.5523 3 20 3H16V4.5H19.5V8Z" fill="white"/>
</svg>
