<svg width="64" height="64" viewBox="0 0 64 64" fill="none" xmlns="http://www.w3.org/2000/svg">
<path fill-rule="evenodd" clip-rule="evenodd" d="M35 11C35 9.89543 35.8954 9 37 9C49.7025 9 60 19.2975 60 32C60 44.7025 49.7025 55 37 55C35.8954 55 35 54.1046 35 53C35 51.8954 35.8954 51 37 51C47.4934 51 56 42.4934 56 32C56 21.5066 47.4934 13 37 13C35.8954 13 35 12.1046 35 11ZM27.5379 11.7094L17 23H6C4.89543 23 4 23.8954 4 25V39C4 40.1046 4.89543 41 6 41H17L27.5379 52.2906C28.7765 53.6176 31 52.7412 31 50.926V13.074C31 11.2588 28.7765 10.3824 27.5379 11.7094ZM37 19C35.8954 19 35 19.8954 35 21C35 22.1046 35.8954 23 37 23C41.9706 23 46 27.0294 46 32C46 36.9706 41.9706 41 37 41C35.8954 41 35 41.8954 35 43C35 44.1046 35.8954 45 37 45C44.1797 45 50 39.1797 50 32C50 24.8203 44.1797 19 37 19Z" fill="#E1E7EA"/>
</svg>
