<svg width="64" height="64" viewBox="0 0 64 64" fill="none" xmlns="http://www.w3.org/2000/svg">
<path fill-rule="evenodd" clip-rule="evenodd" d="M10.4142 7.58579C9.63317 6.80474 8.36684 6.80474 7.58579 7.58579C6.80474 8.36684 6.80474 9.63317 7.58579 10.4142L18.5311 21.3595L31 33.8284L38.1045 40.9329L41.4059 44.2344L45.9408 48.7692L48.8737 51.7021L53.5858 56.4142C54.3668 57.1953 55.6332 57.1953 56.4142 56.4142C57.1953 55.6332 57.1953 54.3668 56.4142 53.5858L52.1416 49.3132L49.3056 46.4771L45.0426 42.2142L42.1854 39.357L31 28.1716L21.262 18.4336L10.4142 7.58579ZM14.5147 23L31 39.4853V50.926C31 52.7412 28.7765 53.6176 27.5379 52.2906L17 41H6C4.89543 41 4 40.1046 4 39V25C4 23.8954 4.89543 23 6 23H14.5147ZM41.8817 50.367C40.324 50.78 38.6877 51 37 51C35.8954 51 35 51.8954 35 53C35 54.1046 35.8954 55 37 55C39.8366 55 42.5533 54.4865 45.0621 53.5474L41.8817 50.367ZM54.913 46.4277C58.095 42.4821 60 37.4635 60 32C60 19.2975 49.7025 9 37 9C35.8954 9 35 9.89543 35 11C35 12.1046 35.8954 13 37 13C47.4934 13 56 21.5066 56 32C56 36.3583 54.5326 40.3739 52.0648 43.5796L54.913 46.4277ZM47.7693 39.284C49.1774 37.2061 50 34.6991 50 32C50 24.8203 44.1797 19 37 19C35.8954 19 35 19.8954 35 21C35 22.1046 35.8954 23 37 23C41.9706 23 46 27.0294 46 32C46 33.5897 45.5878 35.0831 44.8646 36.3793L47.7693 39.284ZM31 22.5147V13.074C31 11.2588 28.7765 10.3824 27.5379 11.7094L23.9929 15.5076L31 22.5147Z" fill="#E1E7EA"/>
</svg>
