<svg width="24" height="24" viewBox="0 0 24 24" fill="none" xmlns="http://www.w3.org/2000/svg">
<path fill-rule="evenodd" clip-rule="evenodd" d="M12 19.5909C16.1923 19.5909 19.5909 16.1923 19.5909 12C19.5909 7.80765 16.1923 4.40909 12 4.40909C7.80765 4.40909 4.40909 7.80765 4.40909 12C4.40909 16.1923 7.80765 19.5909 12 19.5909ZM12 21.0909C17.0208 21.0909 21.0909 17.0208 21.0909 12C21.0909 6.97923 17.0208 2.90909 12 2.90909C6.97923 2.90909 2.90909 6.97923 2.90909 12C2.90909 17.0208 6.97923 21.0909 12 21.0909Z" fill="white"/>
<path fill-rule="evenodd" clip-rule="evenodd" d="M13 17H11V15H13V17ZM13 13H11V7H13V13Z" fill="white"/>
<path fill-rule="evenodd" clip-rule="evenodd" d="M11.0909 2H12.9091V3.86812C12.6106 3.83512 12.3073 3.81818 12 3.81818C11.6927 3.81818 11.3894 3.83512 11.0909 3.86812V2ZM9.79435 4.11893L9.09466 2.38827L7.40903 3.06975L8.10891 4.80088C8.63825 4.51417 9.20278 4.28414 9.79435 4.11893ZM6.89301 5.60737L5.57175 4.28611L4.2861 5.57176L5.60736 6.89302C5.98701 6.41842 6.41841 5.98702 6.89301 5.60737ZM4.8682 7.98711L3.1491 7.25785L2.43906 8.93166L4.15751 9.66064C4.33274 9.07233 4.57236 8.51176 4.8682 7.98711ZM3.86812 11.0909H2V12.9091H3.86812C3.83512 12.6106 3.81818 12.3073 3.81818 12C3.81818 11.6927 3.83512 11.3894 3.86812 11.0909ZM4.11893 14.2057L2.38827 14.9053L3.06975 16.591L4.80089 15.8911C4.51417 15.3618 4.28414 14.7972 4.11893 14.2057ZM5.60737 17.107L4.28612 18.4282L5.57176 19.7139L6.89302 18.3926C6.41842 18.013 5.98702 17.5816 5.60737 17.107ZM7.98711 19.1318L7.25785 20.8509L8.93166 21.5609L9.66064 19.8425C9.07233 19.6673 8.51176 19.4276 7.98711 19.1318ZM11.0909 20.1319V22H12.9091V20.1319C12.6106 20.1649 12.3073 20.1818 12 20.1818C11.6927 20.1818 11.3894 20.1649 11.0909 20.1319ZM14.2056 19.8811L14.9053 21.6117L16.591 20.9303L15.8911 19.1991C15.3617 19.4858 14.7972 19.7159 14.2056 19.8811ZM17.107 18.3926L18.4282 19.7139L19.7139 18.4283L18.3926 17.107C18.013 17.5816 17.5816 18.013 17.107 18.3926ZM19.1318 16.0129L20.8509 16.7422L21.5609 15.0683L19.8425 14.3394C19.6673 14.9277 19.4276 15.4882 19.1318 16.0129ZM20.1319 12.9091H22V11.0909H20.1319C20.1649 11.3894 20.1818 11.6927 20.1818 12C20.1818 12.3073 20.1649 12.6106 20.1319 12.9091ZM19.8811 9.79437L21.6117 9.09468L20.9303 7.40905L19.1991 8.10892C19.4858 8.63827 19.7159 9.20279 19.8811 9.79437ZM18.3926 6.89302L19.7139 5.57176L18.4283 4.28611L17.107 5.60737C17.5816 5.98702 18.013 6.41842 18.3926 6.89302ZM16.0129 4.8682L16.7422 3.1491L15.0683 2.43905L14.3394 4.15751C14.9277 4.33274 15.4882 4.57236 16.0129 4.8682Z" fill="white"/>
</svg>
