<svg width="24" height="24" viewBox="0 0 24 24" fill="none" xmlns="http://www.w3.org/2000/svg">
<path fill-rule="evenodd" clip-rule="evenodd" d="M3 9.75H9H9.75V9V3H8.25V7.18934L4.53033 3.46967L3.46967 4.53033L7.18934 8.25H3V9.75ZM9 14.25H3V15.75H7.18934L3.46967 19.4697L4.53033 20.5303L8.25 16.8107V21H9.75V15V14.25H9ZM15 14.25H21V15.75H16.8107L20.5303 19.4697L19.4697 20.5303L15.75 16.8107V21H14.25V15V14.25H15ZM15 9.75H21V8.25H16.8107L20.5303 4.53033L19.4697 3.46967L15.75 7.18934V3H14.25V9V9.75H15Z" fill="white"/>
</svg>
