<svg width="24" height="24" viewBox="0 0 24 24" fill="none" xmlns="http://www.w3.org/2000/svg">
<path fill-rule="evenodd" clip-rule="evenodd" d="M13.25 6.50732C9.91249 6.50732 6.84187 7.66546 4.41062 9.59735L4.40192 9.47031L4.40192 9.4703C4.38845 9.27685 4.37499 9.08342 4.37499 8.88619C4.37499 7.37999 4.68812 5.94641 5.24749 4.64367C7.02749 3.00664 9.39374 2 12 2C12.6775 2 13.3387 2.06886 13.9781 2.19782C15.1294 3.55816 16.015 5.15012 16.5475 6.89733C15.4887 6.64505 14.385 6.50732 13.25 6.50732ZM21.5981 9.22361C20.7281 6.22061 18.4963 3.80606 15.6138 2.68486C16.5494 4.0452 17.2581 5.5733 17.6794 7.2166C19.0963 7.68236 20.415 8.36409 21.5981 9.22361ZM21.9131 10.7617C20.7431 9.74509 19.395 8.93565 17.9213 8.37662C18.0531 9.15413 18.125 9.95042 18.125 10.7642C18.125 14.121 16.9594 17.2085 15.0156 19.6481C15.0333 19.6484 15.0503 19.6496 15.0673 19.6509C15.0865 19.6523 15.1055 19.6537 15.125 19.6537C16.6288 19.6537 18.06 19.3401 19.3606 18.7798C20.995 16.9969 22 14.6268 22 12.0163C22 11.59 21.9644 11.1737 21.9131 10.7617ZM14.1794 20.6077C13.7031 21.1079 13.1913 21.5731 12.6475 22C14.4 21.8873 16.0275 21.3289 17.4194 20.4268C16.6769 20.5746 15.9106 20.6553 15.125 20.6553C14.8056 20.6553 14.4925 20.6328 14.1794 20.6077ZM2.13424 13.5826C2.59487 12.872 3.11987 12.2097 3.70362 11.6012C4.76424 16.0773 8.37549 19.5698 12.9155 20.4393C12.3055 21.0109 11.6449 21.5249 10.9361 21.9743C6.43236 21.4973 2.83237 18.0235 2.13424 13.5826ZM3.48375 10.4012C3.41937 9.90348 3.375 9.40016 3.375 8.8862C3.375 8.09929 3.45562 7.3318 3.60312 6.58809C2.59312 8.15251 2 10.0137 2 12.0163C2 12.0196 2.00017 12.0229 2.00034 12.026L2.00063 12.0338C2.45312 11.4522 2.94875 10.9064 3.48375 10.4012ZM13.7712 19.5591C9.11062 18.9688 5.37687 15.3836 4.55375 10.7918C6.88312 8.75409 9.92124 7.50894 13.25 7.50894C14.4937 7.50894 15.6931 7.69362 16.8356 8.01602C17.0231 8.90308 17.125 9.82145 17.125 10.7642C17.125 14.1391 15.85 17.2147 13.7712 19.5591Z" fill="white"/>
</svg>
