<svg width="24" height="24" viewBox="0 0 24 24" fill="none" xmlns="http://www.w3.org/2000/svg">
<path class="Primary" d="M16.5 12C16.5 12.5838 16.103 13.1977 15.2783 13.6926C14.4635 14.1814 13.3057 14.5 12 14.5C10.6943 14.5 9.53647 14.1814 8.72171 13.6926C7.897 13.1977 7.5 12.5838 7.5 12C7.5 11.4162 7.897 10.8023 8.72171 10.3074C9.53647 9.81857 10.6943 9.5 12 9.5C13.3057 9.5 14.4635 9.81857 15.2783 10.3074C16.103 10.8023 16.5 11.4162 16.5 12Z" stroke="#E1E7EA"/>
<circle class="Primary" cx="12" cy="12" r="1" fill="#E1E7EA"/>
<path class="Primary" d="M 12,4 c -4.5,0 -8,3.5 -8,8 0,4.5 3.5,8 8,8 4.5,0 8,-3.5 8,-8 V 4 Z" fill="none" stroke="#E1E7EA" stroke-width="2"/>
</svg>
