<svg width="24" height="24" viewBox="0 0 24 24" fill="none" xmlns="http://www.w3.org/2000/svg">
<path fill-rule="evenodd" clip-rule="evenodd" d="M20.8348 8.35136C20.9231 8.43081 20.9231 8.56923 20.8348 8.64868L16.3338 12.6996C16.2051 12.8154 16 12.7241 16 12.551V10H9L10 7.00001H16V4.4491C16 4.27594 16.2051 4.1846 16.3338 4.30044L20.8348 8.35136ZM15 14H8V11.4491C8 11.2759 7.79491 11.1846 7.66621 11.3004L3.16518 15.3513C3.0769 15.4308 3.0769 15.5692 3.16518 15.6487L7.66621 19.6996C7.79491 19.8154 8 19.7241 8 19.5509V17H14L15 14Z" fill="white"/>
</svg>
