<svg width="16" height="16" viewBox="0 0 16 16" fill="none" xmlns="http://www.w3.org/2000/svg">
<path fill-rule="evenodd" clip-rule="evenodd" d="M7.61523 2.0352C6.19389 2.0352 5.04165 3.18743 5.04165 4.60878V6.59745H10.1888V4.60878C10.1888 3.18743 9.03657 2.0352 7.61523 2.0352ZM4.69071 7.29934L4.68877 7.29934H3.05307C2.85925 7.29934 2.70213 7.45646 2.70213 7.65028V12.6805C2.70213 12.8743 2.85925 13.0314 3.05307 13.0314H12.1776C12.3714 13.0314 12.5285 12.8743 12.5285 12.6805V7.65028C12.5285 7.45646 12.3714 7.29934 12.1776 7.29934H10.5417L10.5398 7.29934L10.5378 7.29934H4.69264L4.69071 7.29934ZM4.33976 4.60878V6.59745H3.05307C2.47161 6.59745 2.00024 7.06882 2.00024 7.65028V12.6805C2.00024 13.2619 2.47161 13.7333 3.05307 13.7333H12.1776C12.7591 13.7333 13.2304 13.2619 13.2304 12.6805V7.65028C13.2304 7.06882 12.7591 6.59745 12.1776 6.59745H10.8907V4.60878C10.8907 2.79979 9.42421 1.33331 7.61523 1.33331C5.80625 1.33331 4.33976 2.79979 4.33976 4.60878ZM7.96613 9.28802C7.96613 9.0942 7.80901 8.93707 7.61518 8.93707C7.42136 8.93707 7.26424 9.0942 7.26424 9.28802V11.0427C7.26424 11.2366 7.42136 11.3937 7.61518 11.3937C7.80901 11.3937 7.96613 11.2366 7.96613 11.0427V9.28802Z" fill="white"/>
<path d="M1.94959 1.38381C1.79338 1.2276 1.54012 1.2276 1.38391 1.38381C1.2277 1.54002 1.2277 1.79329 1.38391 1.9495L1.94959 1.38381ZM14.0506 14.6162C14.2068 14.7724 14.46 14.7724 14.6163 14.6162C14.7725 14.46 14.7725 14.2067 14.6163 14.0505L14.0506 14.6162ZM1.38391 1.9495L14.0506 14.6162L14.6163 14.0505L1.94959 1.38381L1.38391 1.9495Z" fill="white"/>
</svg>
