<svg width="24" height="24" viewBox="0 0 24 24" fill="none" xmlns="http://www.w3.org/2000/svg">
<path d="M13.4619 15.5343C13.3826 15.5343 13.3826 15.4563 13.3826 15.4563L13.0651 16.6275L10.526 19.7507C10.288 20.063 10.288 20.6096 10.6054 20.8439C10.7641 21 10.9228 21 11.0815 21C11.3195 21 11.5575 20.9219 11.7162 20.6877L14.4141 17.4082C14.4934 17.3302 14.5727 17.174 14.5727 17.0959L14.6521 16.6275C14.176 16.1589 13.6999 15.7686 13.4619 15.5343Z" fill="white"/>
<path d="M20.762 12.2549L19.2544 10.7713L18.3815 9.05349C18.1434 8.27266 17.4293 7.7261 16.6358 7.64801H15.4456H14.8109C13.3826 7.64801 12.1924 8.35075 11.3989 9.75623L10.2087 11.9425C9.97066 12.3329 10.1294 12.8014 10.5261 12.9575C10.9228 13.1919 11.3989 13.0356 11.5576 12.6452L12.7479 10.459C13.1445 9.75623 13.6206 9.36581 14.2555 9.20965C14.0174 9.99046 13.7001 11.0055 13.462 11.7083C13.1445 12.7233 13.3826 13.8945 14.176 14.5193C14.8109 15.0658 16.3185 16.6274 16.7946 17.0959L17.7468 20.2973C17.8261 20.6096 18.1434 20.8439 18.5402 20.8439C18.6195 20.8439 18.6989 20.8439 18.7783 20.8439C19.175 20.6877 19.413 20.2973 19.3337 19.9069L18.3022 16.4712C18.3022 16.3932 18.2228 16.237 18.1434 16.1589C18.0641 16.0809 15.6836 12.9575 15.6836 12.9575L17.0326 9.60006L17.9054 11.3959C17.9848 11.474 17.9848 11.5521 18.0641 11.6302L19.6511 13.1919C19.8098 13.348 20.0478 13.4261 20.2065 13.4261C20.3652 13.4261 20.6032 13.348 20.762 13.1919C21.0793 13.0356 21.0793 12.5672 20.762 12.2549Z" fill="white"/>
<path d="M17.4293 6.94414C18.5248 6.94414 19.413 6.07018 19.413 4.99209C19.413 3.914 18.5248 3.04004 17.4293 3.04004C16.3338 3.04004 15.4456 3.914 15.4456 4.99209C15.4456 6.07018 16.3338 6.94414 17.4293 6.94414Z" fill="white"/>
<path d="M4.01955 21C3.54346 21 3.22607 20.6877 3.22607 20.2192C3.22607 18.8917 3.54346 17.6424 4.17824 16.4712C2.74998 14.1287 2.59129 11.2398 3.86085 8.81922L5.13041 6.39868C5.84454 5.14936 6.71735 4.1343 7.74887 3.27539C8.06627 2.96307 8.6217 3.04115 8.85974 3.35348C9.17713 3.66581 9.09779 4.21238 8.78039 4.44662C7.90758 5.22745 7.1141 6.08635 6.55866 7.17949L5.28911 9.60003C4.17824 11.7083 4.33693 14.1287 5.76519 16.0808C5.92389 16.315 5.92389 16.7055 5.76519 16.9398C5.13042 17.8768 4.81302 19.048 4.81302 20.2192C4.81302 20.6877 4.41628 21 4.01955 21Z" fill="white"/>
<path d="M7.59013 21C7.11404 21 6.79666 20.6877 6.79666 20.2191C6.79666 19.2042 7.11404 18.2672 7.74883 17.4863L8.8597 16.1589C6.79666 15.0658 6.00318 12.4891 7.0347 10.3809L8.30426 8.0384C9.17708 6.47676 10.4466 5.38362 11.8749 4.75896C11.8749 4.36856 11.9542 3.97814 12.0336 3.58773C12.1129 3.19732 12.589 2.88499 12.9858 3.04116C13.3825 3.11924 13.6999 3.58773 13.5412 3.97814C13.4619 4.29047 13.3825 4.6028 13.3825 4.91512C13.3825 4.99321 13.3825 5.07128 13.3825 5.14937C13.3825 5.53978 13.2238 5.85211 12.8271 6.00827C11.4782 6.47676 10.3673 7.41375 9.57382 8.74114L8.38361 11.0055C7.66947 12.3329 8.22491 13.9726 9.57382 14.6754C9.73251 14.7535 9.97056 14.8315 10.2879 14.9096C10.526 14.9877 10.764 15.1438 10.8434 15.3781C10.9227 15.6124 10.9227 15.9247 10.6847 16.1589L8.8597 18.3452C8.46296 18.8137 8.22491 19.4384 8.22491 20.063C8.38361 20.6877 7.98687 21 7.59013 21Z" fill="white"/>
</svg>
