<svg width="24" height="24" viewBox="0 0 24 24" fill="none" xmlns="http://www.w3.org/2000/svg">
<path fill-rule="evenodd" clip-rule="evenodd" d="M3.69478 6.52314C2.73508 6.6701 2 7.49921 2 8.5V15.5C2 16.6046 2.89543 17.5 4 17.5L8.61102 17.5L12.6486 21.2011C13.9314 22.377 16 21.467 16 19.7268V18.8284L14 16.8284V19.7268L9.67572 15.7628L9.38898 15.5H9L4 15.5L4 8.5L5.67163 8.5L3.69478 6.52314ZM14 15.4142L16 17.4142V14.5857L14 12.5857V15.4142ZM9.66305 8.24877L9.38898 8.5H9L7.08584 8.5L5.08585 6.5L7.91427 6.5L9.66305 8.24877ZM14 11.1715V4.27323L10.4009 7.57241L8.98535 6.15686L12.6485 2.79892C13.9313 1.62302 16 2.53302 16 4.27323V13.1715L14 11.1715ZM20.0326 17.2041L18.6139 15.7854C18.9986 15.3226 19.3121 14.8038 19.5432 14.2458C19.8448 13.5179 20 12.7377 20 11.9497C20 11.1618 19.8448 10.3816 19.5432 9.65364C19.2417 8.92569 18.7998 8.26425 18.2426 7.7071L19.6568 6.29289C20.3997 7.03576 20.989 7.91767 21.391 8.88828C21.793 9.85888 22 10.8992 22 11.9497C22 13.0003 21.793 14.0406 21.391 15.0112C21.0593 15.8119 20.6002 16.5523 20.0326 17.2041Z" fill="white"/>
<path fill-rule="evenodd" clip-rule="evenodd" d="M4.00003 2.58578L4.70714 3.29289L20.7071 19.2929L21.4142 20L20 21.4142L19.2929 20.7071L3.29292 4.70711L2.58582 4L4.00003 2.58578Z" fill="white"/>
</svg>
