<svg width="24" height="24" viewBox="0 0 24 24" fill="none" xmlns="http://www.w3.org/2000/svg">
<path fill-rule="evenodd" clip-rule="evenodd" d="M8 3H4C3.44772 3 3 3.44772 3 4V8H4.5V4.5H8V3ZM16 4.5H19.5V8H21V4C21 3.44772 20.5523 3 20 3H16V4.5ZM21 16H19.5V19.5H16V21H20C20.5523 21 21 20.5523 21 20V16ZM8 21V19.5H4.5V16H3V20C3 20.5523 3.44772 21 4 21H8ZM12 7.5C14.4853 7.5 16.5 9.74854 16.5 10.875C16.5 11.5761 15.7196 12.7117 14.5312 13.4695L14.6108 11.606C14.8667 11.3174 15 11.0427 15 10.875C15 10.6394 14.7371 10.1929 14.2408 9.79295L14.1773 9.74398L14.1773 9.75C14.1773 9.77366 14.1767 9.79732 14.1756 9.82096L13.9659 14.25L14.6204 20.1675C14.666 20.5792 14.3692 20.9499 13.9575 20.9954C13.5752 21.0378 13.2283 20.7849 13.1442 20.4189L13.1296 20.3325L12.456 14.25C12.4137 14.0372 12.2277 13.875 12.0037 13.875C11.7798 13.875 11.5938 14.0372 11.5567 14.2505L11.5455 14.25L10.8704 20.3328C10.8279 20.7151 10.5052 20.9982 10.1297 21.0001L10.0422 20.9954C9.6599 20.9529 9.37681 20.6302 9.37494 20.2547L9.37959 20.1672L10.0372 14.25H10.0361L9.82493 9.82144L9.82303 9.74278C9.80154 9.75927 9.78028 9.776 9.75923 9.79295C9.26291 10.1929 9 10.6394 9 10.875C9 11.0429 9.13351 11.3179 9.38986 11.6068L9.4711 13.4939C8.28135 12.7538 7.5 11.6303 7.5 10.875C7.5 9.66208 9.51472 7.5 12 7.5ZM12 7C13.1046 7 14 6.10457 14 5C14 3.89543 13.1046 3 12 3C10.8954 3 10 3.89543 10 5C10 6.10457 10.8954 7 12 7Z" fill="white"/>
</svg>
