<svg width="24" height="24" viewBox="0 0 24 24" fill="none" xmlns="http://www.w3.org/2000/svg">
<path fill-rule="evenodd" clip-rule="evenodd" d="M20.4418 11H17V13H20.4418C19.9853 16.8952 16.8952 19.9853 13 20.4418V17H11V20.4418C7.10482 19.9853 4.01469 16.8952 3.5582 13H7V11H3.5582C4.01469 7.10482 7.10482 4.01469 11 3.5582V7H13V3.5582C16.8952 4.01469 19.9853 7.10482 20.4418 11ZM12 22C17.5228 22 22 17.5228 22 12C22 6.47715 17.5228 2 12 2C6.47715 2 2 6.47715 2 12C2 17.5228 6.47715 22 12 22Z" fill="white"/>
</svg>
