<svg width="24" height="24" viewBox="0 0 24 24" fill="none" xmlns="http://www.w3.org/2000/svg">
<path fill-rule="evenodd" clip-rule="evenodd" d="M3 2.39999H5V6.34267C5.09441 6.226 5.19167 6.11174 5.29168 6C6.93964 4.15875 9.3345 3 12 3C15.9187 3 19.2524 5.50442 20.4879 9H18.8759C17.7186 6.35114 15.0755 4.5 12 4.5C9.77889 4.5 7.78483 5.4636 6.40939 7.00037C6.29367 7.12965 6.18239 7.26294 6.07578 7.39999L10 7.39999V9.39999H5H3V7.39999V2.39999ZM19 14.6H14V16.6H17.9241C16.5519 18.3647 14.4085 19.5 12 19.5C8.92452 19.5 6.2814 17.6489 5.12407 15H3.51212C4.74763 18.4956 8.08135 21 12 21C14.8273 21 17.35 19.6963 19 17.6573V21.6H21V16.6V14.6H19Z" fill="white"/>
</svg>
