<svg width="24" height="24" viewBox="0 0 24 24" fill="none" xmlns="http://www.w3.org/2000/svg">
<g id="refresh_auto">
<path id="Union" fill-rule="evenodd" clip-rule="evenodd" d="M3 2.40002H5V6.3427C5.09441 6.22603 5.19167 6.11178 5.29168 6.00003C6.93964 4.15878 9.3345 3.00003 12 3.00003C15.9187 3.00003 19.2524 5.50445 20.4879 9.00003H18.8759C17.7186 6.35117 15.0755 4.50003 12 4.50003C9.77889 4.50003 7.78483 5.46363 6.40939 7.0004C6.29367 7.12969 6.18239 7.26297 6.07578 7.40002L10 7.40002V9.40002H5H3V7.40002V2.40002ZM19 14.6H14V16.6L17.9241 16.6C16.5519 18.3647 14.4085 19.5 12 19.5V21C14.8273 21 17.35 19.6964 19 17.6574V21.6H21V16.6V14.6H19ZM6.82715 11.8907H7.2373L9.87891 19H8.17969L7.7269 17.584H5.2719L4.82031 19H3.12109L5.75293 11.8907H6.14844H6.82715ZM5.66431 16.3535H7.33344L6.49777 13.7401L5.66431 16.3535Z" fill="white"/>
</g>
</svg>
