<svg width="24" height="24" viewBox="0 0 24 24" fill="none" xmlns="http://www.w3.org/2000/svg">
<path fill-rule="evenodd" clip-rule="evenodd" d="M3 2.39999H5V6.34267C5.09441 6.226 5.19167 6.11174 5.29168 6C6.93964 4.15875 9.3345 3 12 3C16.9706 3 21 7.02944 21 12C21 16.9706 16.9706 21 12 21C7.36745 21 3.55238 17.5 3.05493 13H4.56609C5.05498 16.6694 8.19693 19.5 12 19.5C16.1421 19.5 19.5 16.1421 19.5 12C19.5 7.85786 16.1421 4.5 12 4.5C9.77889 4.5 7.78483 5.4636 6.40939 7.00037C6.29367 7.12965 6.18239 7.26294 6.07578 7.39999L10 7.39999V9.39999H5H3V7.39999V2.39999Z" fill="white"/>
</svg>
