<svg width="24" height="24" viewBox="0 0 24 24" fill="none" xmlns="http://www.w3.org/2000/svg">
<path fill-rule="evenodd" clip-rule="evenodd" d="M6.6 8.5H7.44929L7.88624 7.77174L9.24929 5.5H14.7507L16.1138 7.77174L16.5507 8.5H17.4H20C20.2761 8.5 20.5 8.72386 20.5 9V19C20.5 19.2761 20.2761 19.5 20 19.5H4C3.72386 19.5 3.5 19.2761 3.5 19V9C3.5 8.72386 3.72386 8.5 4 8.5H6.6ZM8.96619 4C8.61493 4 8.28942 4.1843 8.1087 4.4855L6.6 7H4C2.89543 7 2 7.89543 2 9V19C2 20.1046 2.89543 21 4 21H20C21.1046 21 22 20.1046 22 19V9C22 7.89543 21.1046 7 20 7H17.4L15.8913 4.4855C15.7106 4.1843 15.3851 4 15.0338 4H8.96619ZM15 13C15 14.6569 13.6569 16 12 16C10.3431 16 9 14.6569 9 13C9 11.3431 10.3431 10 12 10C13.6569 10 15 11.3431 15 13ZM17 13C17 15.7614 14.7614 18 12 18C9.23858 18 7 15.7614 7 13C7 10.2386 9.23858 8 12 8C14.7614 8 17 10.2386 17 13Z" fill="white"/>
</svg>
