<svg xmlns="http://www.w3.org/2000/svg" width="20" height="20" fill="none" viewBox="0 0 20 20">
  <g class="20x20/Solid/airtransport_solid">
    <path fill="#A5B7C0" fill-rule="evenodd" d="M9.525 4.547a.5.5 0 0 0-.282-.012l-1.82.453-.077.026a.5.5 0 0 0-.15.82l1.548 1.492-4.033 1.596L1.65 7.388.03 8.532l2.044 2.171-.678.462a1 1 0 0 0-.408 1.069l.111.444a1 1 0 0 0 1.212.729l5.976-1.49-.709 2.29a1 1 0 0 0 1.197 1.266l1.42-.354a1 1 0 0 0 .6-.43l2.594-4.045 1.87-.466a20.61 20.61 0 0 0 3.326-1.14 1.723 1.723 0 0 0 .175-3.064 6.339 6.339 0 0 0-.842-.412l-2.264 1.956L15 6.761l1.778-1.536a6.337 6.337 0 0 0-3.548.327l-1.145.452-2.473-1.418-.087-.04Z" class="Primary" clip-rule="evenodd"/>
  </g>
</svg>
