<svg xmlns="http://www.w3.org/2000/svg" width="20" height="20" fill="none" viewBox="0 0 20 20">
  <g class="20x20/Solid/animal_solid">
    <path fill="#A5B7C0" d="m11.242 8.388.37.37a3.924 3.924 0 0 1 .252 5.27 3.138 3.138 0 1 1-6.16.66l-.392-.392a3.139 3.139 0 1 1 .66-6.16 3.923 3.923 0 0 1 5.27.252Zm5.918 2.96c.925.924.384 2.205-.74 3.329-1.123 1.123-2.404 1.664-3.329.74-.925-.925-.384-2.206.74-3.33 1.123-1.123 2.404-1.664 3.329-.74Zm.37-5.549c.924.925.384 2.206-.74 3.33-1.123 1.123-2.404 1.664-3.329.739-.925-.925-.384-2.205.74-3.329 1.123-1.124 2.404-1.665 3.329-.74ZM14.2 2.47c.926.925.385 2.206-.739 3.33-1.123 1.123-2.404 1.664-3.329.739-.925-.925-.384-2.205.74-3.329 1.123-1.124 2.404-1.664 3.329-.74Zm-5.178 0c.925.925.384 2.206-.74 3.33-1.123 1.123-2.404 1.664-3.328.739-.925-.925-.384-2.205.74-3.329 1.123-1.124 2.404-1.664 3.328-.74Z" class="Primary"/>
  </g>
</svg>
