<svg xmlns="http://www.w3.org/2000/svg" width="20" height="20" fill="none" viewBox="0 0 20 20">
  <g class="20x20/Solid/api">
    <path fill="#A5B7C0" fill-rule="evenodd" d="M5.642 5.333C6.142 3.416 7.903 2 10 2c2.097 0 3.859 1.416 4.358 3.333h1.309a3.333 3.333 0 0 1 0 6.667H13v.707l1 1.1v1.278a1.5 1.5 0 1 1-1 0v-.892l-1-1.1V12H8v1.093l-1 1.1v.892a1.5 1.5 0 1 1-1 0v-1.279l1-1.1V12H4.333a3.333 3.333 0 0 1 0-6.667h1.309Zm1.411 4.131h1.163l.239.936h.869L8.085 5.992H7.19L5.95 10.4h.868l.236-.936Zm.987-.693h-.811l.396-1.559h.018l.397 1.559Zm2.365 1.629V8.82h.668c.438 0 .785-.13 1.039-.388.256-.26.384-.602.384-1.026 0-.422-.127-.763-.381-1.024-.254-.26-.601-.39-1.042-.39H9.542V10.4h.863Zm.668-2.27h-.668V6.681h.668c.186 0 .326.07.421.21.097.136.146.31.146.52 0 .208-.049.38-.146.514a.485.485 0 0 1-.42.203Zm2.752 2.27h-.856V5.992h.857V10.4ZM13.5 16a.5.5 0 1 0 0 1 .5.5 0 0 0 0-1Zm-7 0a.5.5 0 1 0 0 1 .5.5 0 0 0 0-1Z" class="Primary" clip-rule="evenodd"/>
  </g>
</svg>
