<svg xmlns="http://www.w3.org/2000/svg" width="20" height="20" fill="none" viewBox="0 0 20 20">
  <g class="20x20/Solid/api_error">
    <path fill="#A5B7C0" fill-rule="evenodd" d="M10 2C7.903 2 6.141 3.416 5.642 5.333H4.333a3.333 3.333 0 1 0 0 6.667H7v.707l-1 1.1v1.278a1.5 1.5 0 1 0 1 0v-.892l1-1.1V12h1.41a.999.999 0 0 1 .283-.843L11.46 9.39a1 1 0 0 1 1.414 0l.094.093V5.992h.857v4.348l.458.459 1.409-1.41a1 1 0 0 1 1.414 0l1.248 1.248a3.333 3.333 0 0 0-2.688-5.304h-1.309C13.858 3.416 12.097 2 10 2ZM7.053 9.464h1.163l.239.936h.869L8.085 5.992H7.19L5.95 10.4h.868l.236-.936Zm.987-.693h-.811l.396-1.56h.018l.397 1.56Zm2.365 1.629V8.82h.668c.438 0 .785-.13 1.039-.388.256-.26.384-.603.384-1.026 0-.422-.127-.763-.381-1.024-.254-.26-.601-.39-1.042-.39H9.542V10.4h.863Zm.668-2.27h-.668V6.681h.668c.186 0 .326.07.421.209.097.137.146.31.146.52a.86.86 0 0 1-.146.515.485.485 0 0 1-.42.203ZM6.5 16a.5.5 0 1 0 0 1 .5.5 0 0 0 0-1Z" class="Primary" clip-rule="evenodd"/>
    <path fill="#EF5350" fill-rule="evenodd" d="m14.284 12.313 2.116-2.116 1.768 1.767-2.116 2.117 2.116 2.116-1.768 1.767-2.116-2.116-2.116 2.116-1.768-1.767 2.116-2.116-2.116-2.117 1.768-1.767 2.116 2.116Z" class="Secondary" clip-rule="evenodd"/>
  </g>
</svg>
