<svg xmlns="http://www.w3.org/2000/svg" width="20" height="20" fill="none" viewBox="0 0 20 20">
  <g class="20x20/Solid/api_permission_changed">
    <path fill="#A5B7C0" fill-rule="evenodd" d="M10 2C7.903 2 6.141 3.416 5.642 5.333H4.333a3.333 3.333 0 1 0 0 6.667H7v.707l-1 1.1v1.278a1.5 1.5 0 1 0 1 0v-.892l1-1.1V12h3c0-1.295.82-2.397 1.969-2.818v-3.19h.857v3.013A3.05 3.05 0 0 1 14 9h1a3 3 0 0 1 2.88 2.159 3.333 3.333 0 0 0-2.214-5.826h-1.308C13.858 3.416 12.097 2 10 2ZM7.053 9.464h1.163l.239.936h.869L8.085 5.992H7.19L5.95 10.4h.868l.236-.936Zm.987-.693h-.811l.396-1.56h.018l.397 1.56Zm2.365 1.629V8.82h.668c.438 0 .785-.13 1.039-.388.256-.26.384-.603.384-1.026 0-.422-.127-.763-.381-1.024-.254-.26-.601-.39-1.042-.39H9.542V10.4h.863Zm.668-2.27h-.668V6.681h.668c.186 0 .326.07.421.209.097.137.146.31.146.52a.86.86 0 0 1-.146.515.485.485 0 0 1-.42.203ZM6.5 16a.5.5 0 1 0 0 1 .5.5 0 0 0 0-1Z" class="Primary" clip-rule="evenodd"/>
    <path fill="#FFCA28" fill-rule="evenodd" d="M14 11.501h1a.5.5 0 0 1 .5.5v2h-2v-2a.5.5 0 0 1 .5-.5Zm-2 2.5v-2a2 2 0 0 1 2-2h1a2 2 0 0 1 2 2v2h.5a.5.5 0 0 1 .5.5v3a.5.5 0 0 1-.5.5h-6a.5.5 0 0 1-.5-.5v-3a.5.5 0 0 1 .5-.5h.5Z" class="Secondary" clip-rule="evenodd"/>
  </g>
</svg>
