<svg xmlns="http://www.w3.org/2000/svg" width="20" height="20" fill="none" viewBox="0 0 20 20">
  <g class="20x20/Solid/bike_solid">
    <path fill="#A5B7C0" fill-rule="evenodd" d="M14.474 4.842a.5.5 0 0 1-.233.596l-.083.036-1.026.342 1.406 4.22.007-.002a.5.5 0 0 0 .017.063l.821 2.403H14.6a.5.5 0 0 0 0 1h1.5a.5.5 0 0 0 .415-.778l-.909-2.66a3.001 3.001 0 1 1-2.016.29l-.539-1.616-3.66 4.576a.557.557 0 0 1-.015.018l-.003.004a.487.487 0 0 1-.033.033v-.001a.462.462 0 0 1-.133.09.5.5 0 0 1-.102.033l-.015.003-.026.004a.49.49 0 0 1-.048.004H7.958a3 3 0 1 1-2.61-3.48l-2.08 2.66a.5.5 0 0 0 .27.793c.05.018.105.027.162.027h1.5a.5.5 0 1 0 0-1h-.522l1.695-2.168h.002l.537-.716-.867-1.91A.498.498 0 0 1 6 7.5H5a.5.5 0 0 1-.09-.992L5 6.5h3a.5.5 0 0 1 .09.992L8 7.5h-.951l.548 1.205L7.6 8.7a.5.5 0 0 1 .214-.164l.088-.026 4.756-.952-.632-1.9a.5.5 0 0 1 .233-.596l.083-.036 1.5-.5a.5.5 0 0 1 .632.316Zm-7.09 5.812-.168.224L6 12.5h2.223l-.839-1.846Zm4.367-1.895-3.465.693-.218.29 1.05 2.309 2.633-3.292Z" class="Primary" clip-rule="evenodd"/>
  </g>
</svg>
