<svg xmlns="http://www.w3.org/2000/svg" width="20" height="20" fill="none" viewBox="0 0 20 20">
  <g class="20x20/Solid/calendar">
    <path fill="#A3B8C2" d="M4.756 17.583a1.28 1.28 0 0 1-.95-.395 1.3 1.3 0 0 1-.39-.944V5.756c0-.365.13-.68.39-.943.258-.264.575-.396.95-.396h1.821V2.878a.543.543 0 0 1 .553-.557.549.549 0 0 1 .562.557v1.539h4.648V2.862a.527.527 0 0 1 .537-.541.53.53 0 0 1 .387.155.519.519 0 0 1 .159.386v1.555h1.82c.376 0 .693.132.952.396a1.3 1.3 0 0 1 .388.943v10.488c0 .365-.13.68-.388.944-.26.263-.576.395-.951.395H4.756Zm0-1.083h10.488a.245.245 0 0 0 .176-.08.245.245 0 0 0 .08-.176V9.256h-11v6.988c0 .064.027.122.08.176.054.053.112.08.176.08Zm5.248-4.436a.64.64 0 0 1-.463-.19.619.619 0 0 1-.195-.46.64.64 0 0 1 .19-.463.619.619 0 0 1 .46-.194.64.64 0 0 1 .463.19c.13.127.195.28.195.459a.64.64 0 0 1-.19.463.619.619 0 0 1-.46.195Zm-3.25 0a.64.64 0 0 1-.463-.19.619.619 0 0 1-.195-.46.64.64 0 0 1 .19-.463.619.619 0 0 1 .46-.194.64.64 0 0 1 .463.19c.13.127.195.28.195.459a.64.64 0 0 1-.19.463.619.619 0 0 1-.46.195Zm6.5 0a.64.64 0 0 1-.463-.19.619.619 0 0 1-.195-.46.64.64 0 0 1 .19-.463.619.619 0 0 1 .46-.194.64.64 0 0 1 .463.19c.13.127.195.28.195.459a.64.64 0 0 1-.19.463.619.619 0 0 1-.46.195ZM10.004 15a.64.64 0 0 1-.463-.19.619.619 0 0 1-.195-.46.64.64 0 0 1 .19-.463.618.618 0 0 1 .46-.195.64.64 0 0 1 .463.19.62.62 0 0 1 .195.46.64.64 0 0 1-.19.463.619.619 0 0 1-.46.195Zm-3.25 0a.64.64 0 0 1-.463-.19.619.619 0 0 1-.195-.46.64.64 0 0 1 .19-.463.618.618 0 0 1 .46-.195.64.64 0 0 1 .463.19.62.62 0 0 1 .195.46.64.64 0 0 1-.19.463.619.619 0 0 1-.46.195Zm6.5 0a.64.64 0 0 1-.463-.19.619.619 0 0 1-.195-.46.64.64 0 0 1 .19-.463.618.618 0 0 1 .46-.195.64.64 0 0 1 .463.19.62.62 0 0 1 .195.46.64.64 0 0 1-.19.463.619.619 0 0 1-.46.195Z" class="Primary"/>
  </g>
</svg>
