<svg xmlns="http://www.w3.org/2000/svg" width="20" height="20" fill="none" viewBox="0 0 20 20">
  <g class="20x20/Solid/capslock">
    <path fill="#A3B8C2" d="M6.838 13.583h6.324a.527.527 0 0 0 .541-.537.532.532 0 0 0-.155-.387.519.519 0 0 0-.386-.16H6.838a.527.527 0 0 0-.542.538c0 .153.052.282.156.388a.519.519 0 0 0 .386.158ZM10 8.063l2.569 2.56a.482.482 0 0 0 .383.159.592.592 0 0 0 .383-.188.528.528 0 0 0 .173-.378.517.517 0 0 0-.17-.375l-2.873-2.862a.62.62 0 0 0-.461-.205.645.645 0 0 0-.469.205L6.662 9.86a.465.465 0 0 0-.156.37c.01.133.073.257.188.372a.528.528 0 0 0 .379.174.524.524 0 0 0 .377-.172L10 8.062Zm-5.244 8.52c-.375 0-.692-.13-.95-.388a1.294 1.294 0 0 1-.39-.952V4.756c0-.375.13-.692.39-.95.258-.26.575-.39.95-.39h10.488c.375 0 .692.13.95.39.26.258.39.575.39.95v10.487c0 .376-.13.693-.39.952a1.29 1.29 0 0 1-.95.388H4.756Z" class="Primary"/>
  </g>
</svg>
