<svg xmlns="http://www.w3.org/2000/svg" width="20" height="20" fill="none" viewBox="0 0 20 20">
  <g class="20x20/Solid/chunk_mode">
    <path fill="#A3B8C2" fill-rule="evenodd" d="M2 4.5a.5.5 0 0 1 .5-.5H4a.5.5 0 0 1 .5.5v11a.5.5 0 0 1-.5.5H2.5a.5.5 0 0 1-.5-.5v-11Zm13.5 0A.5.5 0 0 1 16 4h1.5a.5.5 0 0 1 .5.5v11a.5.5 0 0 1-.5.5H16a.5.5 0 0 1-.5-.5v-11Zm-7.753 8.936c.165.096.324.084.478-.037l4.059-2.988a.47.47 0 0 0 .216-.41.474.474 0 0 0-.216-.411L8.225 6.602c-.154-.12-.313-.134-.478-.04a.466.466 0 0 0-.247.434v6.01c0 .19.082.335.247.43Z" class="Primary" clip-rule="evenodd"/>
  </g>
</svg>
