<svg xmlns="http://www.w3.org/2000/svg" width="20" height="20" fill="none" viewBox="0 0 20 20">
  <g class="20x20/Solid/edit_filled">
    <path fill="#698796" fill-rule="evenodd" d="M15.556 1.707a1 1 0 0 0-1.414 0l-1.704 1.704-.004.005.658.658L14.5 5.5l1.489 1.47.688.689.706-.706 1.002-1.003a1 1 0 0 0 0-1.414l-2.829-2.829Zm-3.211 3.028-.615-.615-.677.677a1.015 1.015 0 0 0-.025.024l-8.234 8.234-.494 3.61a1 1 0 0 0 1.126 1.127l3.61-.494 8.23-8.23.707-.705-.616-.616a1.005 1.005 0 0 0-.086-.098l-2.828-2.828a1.015 1.015 0 0 0-.098-.086Z" class="Primary" clip-rule="evenodd"/>
  </g>
</svg>
