<svg xmlns="http://www.w3.org/2000/svg" width="20" height="20" fill="none" viewBox="0 0 20 20">
  <g class="20x20/Solid/eye_off">
    <path fill="#A3B8C2" d="m15.862 13.341-2.614-2.593c.057-.135.103-.308.138-.518.036-.21.053-.432.053-.667 0-.96-.333-1.773-1-2.44-.667-.666-1.48-1-2.439-1-.207 0-.41.018-.607.053-.198.036-.39.082-.579.138L6.821 4.321a7.564 7.564 0 0 1 1.572-.443A9.92 9.92 0 0 1 10 3.75c1.853 0 3.538.484 5.058 1.452a9.238 9.238 0 0 1 3.434 3.857c.022.064.044.14.065.229a1.363 1.363 0 0 1-.065.778 9.288 9.288 0 0 1-1.129 1.779 9.875 9.875 0 0 1-1.5 1.496Zm.042 4.423-2.87-2.865a8.397 8.397 0 0 1-1.41.377 9.043 9.043 0 0 1-1.624.14c-1.863 0-3.55-.49-5.062-1.472a9.46 9.46 0 0 1-3.43-3.878 8.533 8.533 0 0 1-.065-.24 1.062 1.062 0 0 1-.031-.263c0-.096.007-.189.02-.28a.676.676 0 0 1 .076-.232 8.89 8.89 0 0 1 1.107-1.725 9.473 9.473 0 0 1 1.427-1.419l-1.82-1.832a.694.694 0 0 1-.208-.47.568.568 0 0 1 .2-.47.645.645 0 0 1 .941 0l13.69 13.71a.627.627 0 0 1 .193.46c0 .177-.064.33-.194.46a.645.645 0 0 1-.94 0ZM10 13.002a3.376 3.376 0 0 0 .98-.156L6.738 8.603a5.085 5.085 0 0 0-.12.468 2.365 2.365 0 0 0-.056.492c0 .959.333 1.772 1 2.439.667.666 1.48 1 2.439 1Zm2.25-3.252L9.812 7.313c.671-.07 1.26.143 1.764.638.505.495.73 1.095.674 1.799Z" class="Primary"/>
  </g>
</svg>
