<svg xmlns="http://www.w3.org/2000/svg" width="20" height="20" fill="none" viewBox="0 0 20 20">
  <g class="20x20/Solid/face_solid">
    <path fill="#A5B7C0" fill-rule="evenodd" d="M4.11 3.059C5.13 1.86 6.828 1 9.081 1l.316.002.615.017.565.032.275.023c1.18.11 1.952.337 2.34.626l.065.053.007.006c.217-.101.593-.159.82-.159.726 0 1.916.597 1.916 1.333V5.5l-.197-.007c-.685-.051-1.86-.368-2.335-.849l-.053.043-.155.118-.157.119c-1.562 1.055-3.651 1.84-5.548 1.362-.902-.23-1.804-.344-2.738-.275l-.058.004c-.114.01-.23.02-.347.033l-.818.105-.376.048-.115.006-.08-.006-.016-.003c-.006 0-.008-.01-.006-.016a.132.132 0 0 0 .007-.034l.005-.137.005-.207a4.723 4.723 0 0 1 .59-2.035 4.81 4.81 0 0 1 .322-.486l.027-.035.153-.19Zm-.108 4.988c-.53.277-.902.912-.902 1.65 0 .74.37 1.373.9 1.651v1.131C4 15.53 6.686 18 10 18c3.226 0 5.858-2.343 5.995-5.281l.005-.24v-1.083c.583-.247 1-.914 1-1.698 0-.784-.417-1.45-1-1.698V6.96c-.988 0-1.883-.466-2.533-1.059l-.148.09c-2.111 1.24-4.251 1.674-6.395 1.28l-.322-.065-.372-.075a8.55 8.55 0 0 0-2.228-.113v1.03Zm8.33 5.448a.5.5 0 0 1 .042.706c-.683.768-1.482 1.167-2.374 1.167-.892 0-1.69-.4-2.374-1.167a.5.5 0 0 1 .748-.665c.502.565 1.036.832 1.626.832.59 0 1.124-.267 1.626-.832a.5.5 0 0 1 .706-.041ZM8 9.368a.5.5 0 0 1 .09.992l-.09.008H7a.5.5 0 0 1-.09-.992L7 9.368h1Zm5 0a.5.5 0 0 1 .09.992l-.09.008h-1a.5.5 0 0 1-.09-.992l.09-.008h1Z" class="Primary" clip-rule="evenodd"/>
  </g>
</svg>
