<svg xmlns="http://www.w3.org/2000/svg" width="20" height="20" fill="none" viewBox="0 0 20 20">
  <g class="20x20/Solid/group_alert">
    <path fill="#FFCA28" fill-rule="evenodd" d="M14.936 9.775a.5.5 0 0 0-.872 0l-3.645 6.48a.5.5 0 0 0 .436.745h7.29a.5.5 0 0 0 .436-.745l-3.645-6.48ZM14 11.5h1v3h-1v-3Zm0 3.5h1v1h-1v-1Z" class="Secondary" clip-rule="evenodd"/>
    <path fill="#A5B7C0" fill-rule="evenodd" d="M8 3a3 3 0 0 0-3 3v1a3 3 0 0 0 6 0V6c0-.888-.386-1.687-1-2.236A2.989 2.989 0 0 0 8 3Zm4 3v1a3.987 3.987 0 0 1-1.126 2.782 2.992 2.992 0 0 0 1.987.093l.332-.59a1.488 1.488 0 0 1 1.393-.763C14.849 8.076 15 7.556 15 7V6a3 3 0 0 0-4.126-2.782A3.989 3.989 0 0 1 12 6Zm-.476 6.251-1.976 3.514c-.044.077-.08.156-.108.235H2.65a.643.643 0 0 1-.643-.734C2.294 13.389 3.935 12 5.866 12h4.268c.488 0 .957.088 1.39.251Z" class="Primary" clip-rule="evenodd"/>
  </g>
</svg>
