<svg xmlns="http://www.w3.org/2000/svg" width="20" height="20" fill="none" viewBox="0 0 20 20">
  <g class="20x20/Solid/layout_cloud">
    <path fill="#A5B7C0" fill-rule="evenodd" d="M10 3a4.002 4.002 0 0 0-3.874 3H5a3 3 0 0 0 0 6h10a3 3 0 1 0 0-6h-1.126A4.002 4.002 0 0 0 10 3ZM2 16.5a.5.5 0 0 0 .5.5h4a.5.5 0 0 0 .5-.5v-3a.5.5 0 0 0-.5-.5h-4a.5.5 0 0 0-.5.5v3Zm6 0a.5.5 0 0 0 .5.5h4a.5.5 0 0 0 .5-.5v-3a.5.5 0 0 0-.5-.5h-4a.5.5 0 0 0-.5.5v3Zm6-3a.5.5 0 0 1 .5-.5h3a.5.5 0 0 1 .5.5v3a.5.5 0 0 1-.5.5h-3a.5.5 0 0 1-.5-.5v-3Z" class="Primary" clip-rule="evenodd"/>
  </g>
</svg>
