<svg xmlns="http://www.w3.org/2000/svg" width="20" height="20" fill="none" viewBox="0 0 20 20">
  <g class="20x20/Solid/layout">
    <path fill="#A5B7C0" fill-rule="evenodd" d="M2.5 3a.5.5 0 0 0-.5.5v8a.5.5 0 0 0 .5.5h10a.5.5 0 0 0 .5-.5v-8a.5.5 0 0 0-.5-.5h-10Zm12 5a.5.5 0 0 0-.5.5v3a.5.5 0 0 0 .5.5h3a.5.5 0 0 0 .5-.5v-3a.5.5 0 0 0-.5-.5h-3ZM14 3.5a.5.5 0 0 1 .5-.5h3a.5.5 0 0 1 .5.5v3a.5.5 0 0 1-.5.5h-3a.5.5 0 0 1-.5-.5v-3Zm-12 13a.5.5 0 0 0 .5.5h4a.5.5 0 0 0 .5-.5v-3a.5.5 0 0 0-.5-.5h-4a.5.5 0 0 0-.5.5v3Zm6.5.5a.5.5 0 0 1-.5-.5v-3a.5.5 0 0 1 .5-.5h4a.5.5 0 0 1 .5.5v3a.5.5 0 0 1-.5.5h-4Zm6-4a.5.5 0 0 0-.5.5v3a.5.5 0 0 0 .5.5h3a.5.5 0 0 0 .5-.5v-3a.5.5 0 0 0-.5-.5h-3Z" class="Primary" clip-rule="evenodd"/>
  </g>
</svg>
