<svg xmlns="http://www.w3.org/2000/svg" width="20" height="20" fill="none" viewBox="0 0 20 20">
  <g class="20x20/Solid/mail">
    <path fill="#A3B8C2" d="M3.756 15.583c-.375 0-.692-.13-.95-.388a1.295 1.295 0 0 1-.39-.952V5.75c0-.376.13-.692.39-.949.258-.257.575-.385.95-.385h12.488c.375 0 .692.13.95.389.26.259.39.576.39.951v8.492c0 .376-.13.692-.39.949a1.3 1.3 0 0 1-.95.385H3.756ZM10 10.535a.57.57 0 0 0 .186-.031.84.84 0 0 0 .178-.086l5.814-3.42a.534.534 0 0 0 .212-.247.623.623 0 0 0 .046-.34.519.519 0 0 0-.31-.463.604.604 0 0 0-.592.018L10 9.23 4.487 5.987a.643.643 0 0 0-.595-.037.5.5 0 0 0-.328.454.566.566 0 0 0 .056.333.65.65 0 0 0 .223.261l5.814 3.42a.716.716 0 0 0 .158.086c.054.02.116.031.185.031Z" class="Primary"/>
  </g>
</svg>
