<svg xmlns="http://www.w3.org/2000/svg" width="20" height="20" fill="none" viewBox="0 0 20 20">
  <g class="20x20/Solid/media_offline">
    <path fill="#A5B7C0" fill-rule="evenodd" d="M3 4v12h7.116c0 .256.098.512.293.707l.293.293H2.5a.5.5 0 0 1-.5-.5v-13a.5.5 0 0 1 .5-.5h15a.5.5 0 0 1 .5.5v5.97l-.177-.177A.998.998 0 0 0 17 9.007V4H3Zm9.332 5.166L8.724 7.362A.5.5 0 0 0 8 7.809v4.382a.5.5 0 0 0 .724.447l1.406-.703a.999.999 0 0 1 .279-.874l1.768-1.768c.048-.048.1-.09.155-.127Z" class="Primary" clip-rule="evenodd"/>
    <path fill="#EF5350" fill-rule="evenodd" d="M15 12.116 12.884 10l-1.768 1.768 2.116 2.116L11.116 16l1.768 1.768L15 15.652l2.116 2.116L18.884 16l-2.116-2.116 2.116-2.116L17.116 10 15 12.116Z" class="Secondary" clip-rule="evenodd"/>
  </g>
</svg>
