<svg xmlns="http://www.w3.org/2000/svg" width="20" height="20" fill="none" viewBox="0 0 20 20">
  <g class="20x20/Solid/motion">
    <path fill="#A5B7C0" fill-rule="evenodd" d="M16.59 3.77c0 .959-.79 1.736-1.764 1.736s-1.763-.777-1.763-1.735c0-.959.79-1.735 1.763-1.735.974 0 1.763.776 1.763 1.735Zm1.198 6.456-1.34-1.318-.776-1.527c-.211-.694-.846-1.18-1.551-1.25h-1.622c-1.27 0-2.328.625-3.033 1.874L8.408 9.95c-.212.347-.07.763.282.902.353.208.776.07.917-.278l1.058-1.943c.352-.625.776-.972 1.34-1.11a86.132 86.132 0 0 1-.706 2.22c-.282.903-.07 1.944.635 2.5.411.353 1.234 1.185 1.814 1.772.216.22.399.404.514.518l.846 2.845c.07.278.353.486.706.486h.211c.353-.139.564-.486.494-.833l-.917-3.054a.518.518 0 0 0-.141-.277c-.07-.07-2.187-2.846-2.187-2.846l1.2-2.984.775 1.596c.036.035.053.07.07.104.018.035.036.07.071.104l1.411 1.388a.768.768 0 0 0 .494.209c.14 0 .352-.07.493-.209.283-.138.283-.555 0-.832ZM11.3 13.143c-.07 0-.07-.07-.07-.07l-.282 1.041L8.69 16.89c-.212.277-.212.763.07.971.141.139.282.139.424.139.211 0 .423-.07.564-.278l2.398-2.915a.523.523 0 0 0 .14-.277l.072-.417a17.601 17.601 0 0 0-.702-.646c-.145-.13-.269-.24-.357-.325Z" class="Primary" clip-rule="evenodd"/>
    <path fill="#A5B7C0" d="M2.906 18c-.423 0-.705-.278-.705-.694 0-1.18.282-2.29.846-3.332-1.27-2.082-1.41-4.65-.282-6.801L3.894 5.02A10.042 10.042 0 0 1 6.22 2.245c.282-.278.776-.208.988.07.282.277.211.763-.07.97-.777.695-1.482 1.458-1.976 2.43L4.035 7.867c-.988 1.874-.847 4.025.423 5.76a.742.742 0 0 1 0 .764c-.564.833-.846 1.874-.846 2.915 0 .416-.353.694-.706.694Z" class="Third" opacity=".3"/>
    <path fill="#A5B7C0" d="M6.08 18c-.423 0-.705-.278-.705-.694 0-.902.282-1.735.846-2.43l.988-1.18c-1.834-.97-2.54-3.261-1.623-5.135l1.129-2.082c.776-1.389 1.904-2.36 3.174-2.916 0-.347.07-.694.14-1.04.071-.348.495-.625.847-.486.353.069.635.485.494.832-.07.278-.141.556-.141.833v.208c0 .348-.141.625-.494.764-1.199.416-2.186 1.25-2.892 2.43L6.785 9.115c-.634 1.18-.14 2.637 1.058 3.262.141.07.353.139.635.208.212.07.423.208.494.417.07.208.07.486-.141.694L7.209 15.64a2.402 2.402 0 0 0-.565 1.527c.141.555-.211.833-.564.833Z" class="Secondary" opacity=".6"/>
  </g>
</svg>
