<svg xmlns="http://www.w3.org/2000/svg" width="20" height="20" fill="none" viewBox="0 0 20 20">
  <g class="20x20/Solid/notification">
    <path fill="#A5B7C0" fill-rule="evenodd" d="M9.503 2.028A4.41 4.41 0 0 0 5.611 5.98l-.524 5.351a1.332 1.332 0 0 1-.95 1.15l-.703.208a.606.606 0 0 0-.434.58V14h14v-.73a.606.606 0 0 0-.434-.58l-.704-.208a1.334 1.334 0 0 1-.76-.583 6 6 0 0 1-5.6-9.871Zm2.783 14.258c0 .63-1.143 1.714-2.286 1.714s-2.286-1.083-2.286-1.714c0-.58.864-.577 1.984-.573a74.372 74.372 0 0 0 .604 0c1.12-.004 1.984-.007 1.984.573Z" class="Primary" clip-rule="evenodd"/>
    <circle cx="14" cy="6" r="4.75" fill="#EF5350" class="Secondary"/>
  </g>
</svg>
