<svg xmlns="http://www.w3.org/2000/svg" width="20" height="20" fill="none" viewBox="0 0 20 20">
  <g class="20x20/Solid/other_systems">
    <path fill="#A5B7C0" fill-rule="evenodd" d="m14 7.586 1.707 1.707.146.146-1.414 1.415-.146-.147-.293-.293-6-6-6.293 6.293L.293 9.293 8 1.586l6 6ZM3 10.983a.5.5 0 0 1 .155-.362L8 6l4.84 4.5a.5.5 0 0 1 .16.366V14H3v-3.017ZM5 16v-1h9v-3.282l.84.781a.5.5 0 0 1 .16.367V16H5Zm10.146-4.44.854.854.293.293.146.147 1.415-1.415-.147-.146-1.146-1.146-.561.56-.854.854ZM7 17v1h10v-3.134a.5.5 0 0 0-.16-.367l-.84-.78V17H7Zm11.293-2.293-1.147-1.146 1.415-1.415 1.146 1.147-1.414 1.414Z" class="Primary" clip-rule="evenodd"/>
  </g>
</svg>
