<svg xmlns="http://www.w3.org/2000/svg" width="20" height="20" fill="none" viewBox="0 0 20 20">
  <g class="20x20/Solid/person_solid">
    <path fill="#A5B7C0" fill-rule="evenodd" d="M2 3a1 1 0 0 1 1-1h14a1 1 0 0 1 1 1v14a1 1 0 0 1-1 1H3a1 1 0 0 1-1-1V3Zm1.875 10.5v2.625H6.5V17H3.875A.875.875 0 0 1 3 16.125V13.5h.875ZM17 13.5v2.625a.875.875 0 0 1-.875.875H13.5v-.875h2.625V13.5H17ZM16.125 3c.483 0 .875.392.875.875V6.5h-.875V3.875H13.5V3h2.625ZM6.5 3v.875H3.875V6.5H3V3.875C3 3.392 3.392 3 3.875 3H6.5Zm7 7.5c0-2.349-1.05-4-3.5-4s-3.5 1.651-3.5 4a.5.5 0 0 0 1 0c0-1.209.303-2.11 1-2.596V15.5a.5.5 0 0 0 1 0V12a.5.5 0 0 1 1 0v3.5a.5.5 0 0 0 1 0V7.905c.697.485 1 1.387 1 2.595a.5.5 0 0 0 1 0ZM11 5a1 1 0 1 0-2 0 1 1 0 0 0 2 0Z" class="Primary" clip-rule="evenodd"/>
  </g>
</svg>
