<svg xmlns="http://www.w3.org/2000/svg" width="20" height="20" fill="none" viewBox="0 0 20 20">
  <g class="20x20/Solid/screen_controlled">
    <path fill="#D9D9D9" fill-rule="evenodd" d="M14 13a2 2 0 1 0 0-4 2 2 0 0 0 0 4Zm-2 2a2 2 0 0 0-2 2h8a2 2 0 0 0-2-2h-4Z" class="Secondary" clip-rule="evenodd"/>
    <path fill="#A5B7C0" fill-rule="evenodd" d="M3 4v12h6.17c-.11.313-.17.65-.17 1H2.5a.5.5 0 0 1-.5-.5v-13a.5.5 0 0 1 .5-.5h15a.5.5 0 0 1 .5.5v11.264a2.997 2.997 0 0 0-1-.593V4H3Zm13 4.764V5H4v10h5.764c.55-.614 1.348-1 2.236-1h4v-.764a3 3 0 1 1 0-4.472Z" class="Primary" clip-rule="evenodd"/>
  </g>
</svg>
