<svg xmlns="http://www.w3.org/2000/svg" width="20" height="20" fill="none" viewBox="0 0 20 20">
  <g class="20x20/Solid/screen_locked">
    <path fill="#A5B7C0" fill-rule="evenodd" d="M3 4v12h7v.5c0 .175.03.344.085.5H2.5a.5.5 0 0 1-.5-.5v-13a.5.5 0 0 1 .5-.5h15a.5.5 0 0 1 .5.5V11a2.99 2.99 0 0 0-1-2.236V4H3Zm13 4.17V5H4v10h6v-1.5a1.5 1.5 0 0 1 1-1.415V11a3 3 0 0 1 3-3h1c.35 0 .687.06 1 .17Z" class="Primary" clip-rule="evenodd"/>
    <path fill="#E1E7EA" fill-rule="evenodd" d="M14 10.5h1a.5.5 0 0 1 .5.5v2h-2v-2a.5.5 0 0 1 .5-.5ZM12 13v-2a2 2 0 0 1 2-2h1a2 2 0 0 1 2 2v2h.5a.5.5 0 0 1 .5.5v3a.5.5 0 0 1-.5.5h-6a.5.5 0 0 1-.5-.5v-3a.5.5 0 0 1 .5-.5h.5Z" class="Secondary" clip-rule="evenodd"/>
  </g>
</svg>
