<svg xmlns="http://www.w3.org/2000/svg" width="20" height="20" fill="none" viewBox="0 0 20 20">
  <g class="20x20/Solid/sdk">
    <path fill="#A5B7C0" fill-rule="evenodd" d="M10 11.3c-.3 0-.599-.06-.866-.175L4 8.697V3.47C4 2.65 4.78 2 5.721 2h8.757C15.24 2 16 2.666 16 3.47v5.227l-5.133 2.428A2.223 2.223 0 0 1 10 11.3ZM7.01 6.46c.09.1.134.235.134.407a.562.562 0 0 1-.133.395c-.087.097-.222.146-.404.146-.233 0-.408-.06-.523-.18-.115-.119-.173-.315-.173-.589h-.842l-.006.018c-.01.46.139.814.447 1.06.31.246.675.368 1.097.368.423 0 .762-.108 1.017-.325.256-.216.383-.516.383-.9 0-.37-.106-.663-.319-.88-.21-.219-.525-.4-.945-.541-.265-.115-.451-.22-.559-.313a.462.462 0 0 1-.16-.361c0-.158.047-.29.142-.392a.523.523 0 0 1 .404-.158c.184 0 .327.062.428.188a.76.76 0 0 1 .152.492h.839l.006-.018a1.237 1.237 0 0 0-.383-.96c-.263-.255-.605-.383-1.027-.383-.415 0-.756.115-1.024.343a1.105 1.105 0 0 0-.4.885c0 .366.114.652.343.856.23.203.576.384 1.036.544.225.097.382.197.47.298Zm1.354 1.562V3.598h1.337c.454 0 .829.172 1.124.516.296.343.444.784.444 1.325v.744c0 .541-.148.983-.444 1.325a1.42 1.42 0 0 1-1.124.514H8.364ZM9.23 4.29v3.04h.422a.618.618 0 0 0 .556-.312c.132-.21.198-.49.198-.836v-.75c0-.344-.066-.62-.198-.83a.618.618 0 0 0-.556-.312H9.23Zm3.69 1.892h-.376v1.839h-.866V3.598h.866v1.799h.28l.862-1.8h1.06L13.54 5.619l1.307 2.404h-1.052l-.875-1.839ZM2.708 9.145l6.131 3.063c.21.106.432.181.661.225v5.52a2.525 2.525 0 0 1-.66-.226L3.156 14.89A2.08 2.08 0 0 1 2 13.017V8c0 .488.271.927.708 1.145Zm7.792 8.807v-5.519a2.52 2.52 0 0 0 .66-.225l6.132-3.063C17.729 8.927 18 8.488 18 8v5.017a2.08 2.08 0 0 1-1.157 1.871l-5.682 2.84c-.21.105-.432.18-.661.224Z" class="Primary" clip-rule="evenodd"/>
  </g>
</svg>
