<svg xmlns="http://www.w3.org/2000/svg" width="20" height="20" fill="none" viewBox="0 0 20 20">
  <g class="20x20/Solid/selection">
    <path fill="#A3B8C2" d="M15.318 15.318V4.682h-2.132a.811.811 0 0 1-.598-.244.818.818 0 0 1-.244-.6c0-.238.082-.437.244-.597A.818.818 0 0 1 13.186 3h2.132c.462 0 .858.165 1.188.494.33.33.494.726.494 1.188v10.636c0 .462-.165.858-.494 1.188a1.62 1.62 0 0 1-1.188.494h-2.132a.811.811 0 0 1-.598-.244.819.819 0 0 1-.244-.6.81.81 0 0 1 .244-.598.817.817 0 0 1 .598-.24h2.132Zm-10.636 0h2.132a.81.81 0 0 1 .598.244.818.818 0 0 1 .244.6.806.806 0 0 1-.244.598.818.818 0 0 1-.598.24H4.682a1.62 1.62 0 0 1-1.188-.494A1.62 1.62 0 0 1 3 15.318V4.682c0-.462.165-.858.494-1.188A1.62 1.62 0 0 1 4.682 3h2.132a.81.81 0 0 1 .598.244.818.818 0 0 1 .244.6.806.806 0 0 1-.244.598.817.817 0 0 1-.598.24H4.682v10.636Z" class="Primary"/>
  </g>
</svg>
