<svg xmlns="http://www.w3.org/2000/svg" width="20" height="20" fill="none" viewBox="0 0 20 20">
  <g class="20x20/Solid/server_offline">
    <path fill="#EF5350" fill-rule="evenodd" d="M15 12.116 12.884 10l-1.768 1.768 2.116 2.116L11.116 16l1.768 1.768L15 15.652l2.116 2.116L18.884 16l-2.116-2.116 2.116-2.116L17.116 10 15 12.116Z" class="Secondary" clip-rule="evenodd"/>
    <path fill="#A5B7C0" fill-rule="evenodd" d="M2 3.5a.5.5 0 0 1 .5-.5h15a.5.5 0 0 1 .5.5v3a.5.5 0 0 1-.5.5h-15a.5.5 0 0 1-.5-.5v-3ZM3 4h3v1H3V4ZM2 8.5a.5.5 0 0 1 .5-.5h15a.5.5 0 0 1 .5.5v.97l-.177-.177a1 1 0 0 0-1.414 0L15 10.702l-1.409-1.41a1 1 0 0 0-1.414 0l-1.768 1.769a1 1 0 0 0-.266.939H2.5a.5.5 0 0 1-.5-.5v-3Zm8.934 4.5H2.5a.5.5 0 0 0-.5.5v3a.5.5 0 0 0 .5.5h8.202l-.293-.293a1 1 0 0 1 0-1.414l1.409-1.41-.884-.883ZM3 9h3v1H3V9Zm3 5H3v1h3v-1Z" class="Primary" clip-rule="evenodd"/>
  </g>
</svg>
