<svg xmlns="http://www.w3.org/2000/svg" width="20" height="20" fill="none" viewBox="0 0 20 20">
  <g class="20x20/Solid/settings">
    <path fill="#A3B8C2" d="M11.279 17.917H8.713a.736.736 0 0 1-.517-.2.81.81 0 0 1-.257-.5l-.221-1.797c-.182-.089-.393-.2-.635-.335a5.835 5.835 0 0 1-.618-.391l-1.657.713a.746.746 0 0 1-.573.02.802.802 0 0 1-.435-.37l-1.274-2.225a.728.728 0 0 1-.082-.548.885.885 0 0 1 .295-.473l1.402-1.077c-.005-.11-.012-.231-.02-.363a5.715 5.715 0 0 1 0-.714c.008-.13.015-.26.02-.391L2.74 8.189a.885.885 0 0 1-.295-.473.728.728 0 0 1 .082-.548L3.8 4.96a.87.87 0 0 1 .435-.368.715.715 0 0 1 .565.017l1.657.705A10.352 10.352 0 0 1 7.71 4.58l.23-1.798a.81.81 0 0 1 .256-.5.736.736 0 0 1 .517-.199h2.566c.2 0 .374.067.52.2a.796.796 0 0 1 .262.5l.221 1.805c.208.105.417.218.627.34.21.12.41.25.602.386l1.69-.705a.75.75 0 0 1 .568-.025.79.79 0 0 1 .431.368l1.295 2.216a.77.77 0 0 1 .092.548.794.794 0 0 1-.305.473L15.848 9.29c.016.12.025.243.028.367.002.124.004.238.004.343 0 .1-.003.211-.008.335l-.016.391 1.418 1.085a.74.74 0 0 1 .31.469.792.792 0 0 1-.097.552l-1.295 2.232c-.1.178-.244.3-.43.364a.763.763 0 0 1-.57-.029l-1.68-.713a8.518 8.518 0 0 1-1.23.726l-.221 1.806a.801.801 0 0 1-.261.5.75.75 0 0 1-.521.199Zm-1.311-5.355c.707 0 1.311-.25 1.812-.75.5-.5.75-1.105.75-1.812 0-.707-.25-1.311-.75-1.812a2.47 2.47 0 0 0-1.812-.75c-.702 0-1.305.25-1.808.75A2.462 2.462 0 0 0 7.405 10c0 .707.252 1.311.755 1.812.503.5 1.106.75 1.808.75Z" class="Primary"/>
  </g>
</svg>
