<svg xmlns="http://www.w3.org/2000/svg" width="20" height="20" fill="none" viewBox="0 0 20 20">
  <g class="20x20/Solid/share">
    <path fill="#A3B8C2" d="M14.5 17.792a2.212 2.212 0 0 1-1.623-.669 2.21 2.21 0 0 1-.669-1.623c0-.118.009-.226.025-.323.017-.098.042-.207.075-.33L7.06 11.636c-.192.232-.425.4-.697.503a2.44 2.44 0 0 1-.864.154 2.21 2.21 0 0 1-1.623-.668A2.208 2.208 0 0 1 3.208 10c0-.636.223-1.178.669-1.624A2.207 2.207 0 0 1 5.5 7.707c.3 0 .587.055.861.165.274.11.508.273.7.492l5.247-3.213a3.489 3.489 0 0 1-.075-.329 1.933 1.933 0 0 1-.025-.323c0-.637.223-1.178.668-1.623a2.208 2.208 0 0 1 1.623-.669c.636 0 1.178.223 1.624.668.446.446.669.987.669 1.623s-.223 1.178-.669 1.624a2.207 2.207 0 0 1-1.623.669 2.43 2.43 0 0 1-.864-.154 1.644 1.644 0 0 1-.697-.503L7.692 9.348c.033.122.058.231.075.328a2.012 2.012 0 0 1 0 .646 3.462 3.462 0 0 1-.075.33l5.247 3.213c.192-.246.425-.418.697-.513.272-.096.56-.144.864-.144a2.21 2.21 0 0 1 1.623.668c.446.446.669.987.669 1.623s-.223 1.178-.669 1.624a2.206 2.206 0 0 1-1.622.669Z" class="Primary"/>
  </g>
</svg>
