<svg xmlns="http://www.w3.org/2000/svg" width="20" height="20" fill="none" viewBox="0 0 20 20">
  <g class="20x20/Solid/shield_lock">
    <path fill="#A3B8C2" d="M8.016 12.356h3.968c.119 0 .219-.04.3-.121.08-.08.12-.18.12-.3V8.969a.406.406 0 0 0-.12-.3.406.406 0 0 0-.3-.12h-.572v-.5c0-.391-.137-.723-.41-.995a1.361 1.361 0 0 0-.998-.409c-.393 0-.724.136-.994.409a1.36 1.36 0 0 0-.406.995v.5h-.588a.406.406 0 0 0-.3.12.41.41 0 0 0-.12.3v2.968a.41.41 0 0 0 .42.419Zm1.242-3.808v-.5c0-.212.071-.39.214-.534a.72.72 0 0 1 .532-.216c.21 0 .39.072.535.216a.72.72 0 0 1 .219.534v.5h-1.5ZM10 17.476c-.073 0-.15-.004-.234-.01a.703.703 0 0 1-.221-.053c-1.702-.597-3.066-1.653-4.09-3.168-1.026-1.515-1.538-3.173-1.538-4.974V5.705c0-.284.077-.54.231-.768.154-.228.362-.391.623-.491l4.743-1.813c.165-.064.327-.096.486-.096.16 0 .321.032.486.096l4.743 1.813c.261.1.469.263.623.491.154.228.231.484.231.768v3.566c0 1.801-.512 3.46-1.537 4.974-1.025 1.515-2.389 2.571-4.09 3.168a.703.703 0 0 1-.222.052c-.083.007-.161.01-.234.01Z" class="Primary"/>
  </g>
</svg>
