<svg xmlns="http://www.w3.org/2000/svg" width="20" height="20" fill="none" viewBox="0 0 20 20">
  <g class="20x20/Solid/snapshot">
    <path fill="#A5B7C0" fill-rule="evenodd" d="M3 13.25V4h14v12H3v-2.75Zm1-.75 1.717-1.288a.5.5 0 0 1 .577-.016l2.402 1.601a.5.5 0 0 0 .59-.025l4.437-3.55a.5.5 0 0 1 .578-.034L16 10.25V15H4v-2.5Zm-2 1.75V3.5a.5.5 0 0 1 .5-.5h15a.5.5 0 0 1 .5.5v13a.5.5 0 0 1-.5.5h-15a.5.5 0 0 1-.5-.5v-2.25ZM9 7.5a1.5 1.5 0 1 1-3 0 1.5 1.5 0 0 1 3 0Z" class="Primary" clip-rule="evenodd"/>
  </g>
</svg>
