<svg xmlns="http://www.w3.org/2000/svg" width="20" height="20" fill="none" viewBox="0 0 20 20">
  <g class="20x20/Solid/star_full">
    <path fill="#FFCA28" d="M9.627 3.025a.5.5 0 0 1 .914 0l1.774 3.98a.5.5 0 0 0 .404.293l4.333.458a.5.5 0 0 1 .283.868l-3.237 2.917a.5.5 0 0 0-.155.476l.904 4.262a.5.5 0 0 1-.739.537l-3.774-2.177a.5.5 0 0 0-.5 0L6.06 16.816a.5.5 0 0 1-.738-.537l.904-4.262a.5.5 0 0 0-.155-.476L2.833 8.624a.5.5 0 0 1 .283-.868l4.333-.458a.5.5 0 0 0 .404-.293l1.774-3.98Z" class="Primary"/>
  </g>
</svg>
