<svg xmlns="http://www.w3.org/2000/svg" width="20" height="20" fill="none" viewBox="0 0 20 20">
  <g class="20x20/Solid/system_local_unauthorized">
    <path fill="#A5B7C0" fill-rule="evenodd" d="m10 2.586.707.707 4.74 4.74A3.023 3.023 0 0 0 15 8h-1c-.417 0-.814.085-1.175.239L10 5.414l-7.293 7.293-1.414-1.414 8-8L10 2.586Zm1.807 6.367L10 7.246l-5.848 5.667a.5.5 0 0 0-.152.36V17h6.085a1.497 1.497 0 0 1-.085-.5v-3a1.5 1.5 0 0 1 1-1.415V11c0-.791.306-1.511.807-2.047ZM11.5 17a.5.5 0 0 1-.5-.5v-3a.5.5 0 0 1 .5-.5h.5v-2c0-.525.203-1.004.534-1.36l1.09 1.03a.498.498 0 0 0-.124.33v2h2v-.56l.343.325a.5.5 0 0 1 .157.363V17h-4.5Zm5.5-4.586V11a2 2 0 0 0-2-2h-1c-.13 0-.256.012-.379.036l1.474 1.473a.5.5 0 0 1 .396.396L17 12.415Z" class="Primary" clip-rule="evenodd"/>
    <path fill="#EF5350" fill-rule="evenodd" d="M14 10.5h1a.5.5 0 0 1 .5.5v2h-2v-2a.5.5 0 0 1 .5-.5ZM12 13v-2a2 2 0 0 1 2-2h1a2 2 0 0 1 2 2v2h.5a.5.5 0 0 1 .5.5v3a.5.5 0 0 1-.5.5h-6a.5.5 0 0 1-.5-.5v-3a.5.5 0 0 1 .5-.5h.5Z" class="Secondary" clip-rule="evenodd"/>
  </g>
</svg>
