<svg xmlns="http://www.w3.org/2000/svg" width="20" height="20" fill="none" viewBox="0 0 20 20">
  <g class="20x20/Solid/thumbnails">
    <path fill="#A3B8C2" d="M3.756 1.933c-.375 0-.692.13-.95.388a1.294 1.294 0 0 0-.39.951V13.76c0 .376.13.693.39.952.258.259.575.388.95.388h3.5l2.283 2.283a.64.64 0 0 0 .465.201.62.62 0 0 0 .46-.205l2.28-2.279h3.5c.375 0 .692-.13.95-.388.26-.26.39-.576.39-.952V3.272c0-.375-.13-.692-.39-.95a1.294 1.294 0 0 0-.95-.39H3.756Zm0 1.083h12.488c.064 0 .122.027.176.08.053.054.08.112.08.176V13.76a.245.245 0 0 1-.08.177.245.245 0 0 1-.176.08H3.756a.245.245 0 0 1-.176-.08.245.245 0 0 1-.08-.177V3.272c0-.064.027-.122.08-.176a.245.245 0 0 1 .176-.08Zm1.404 2.33v6.34c0 .191.064.35.192.478a.65.65 0 0 0 .478.192h8.34c.191 0 .35-.064.478-.192a.649.649 0 0 0 .192-.478v-6.34a.649.649 0 0 0-.192-.478.649.649 0 0 0-.478-.192H5.83a.649.649 0 0 0-.478.192.649.649 0 0 0-.192.478Z" class="Primary"/>
  </g>
</svg>
