<svg xmlns="http://www.w3.org/2000/svg" width="20" height="20" fill="none" viewBox="0 0 20 20">
  <g class="20x20/Solid/user_owner">
    <path fill="#A5B7C0" fill-rule="evenodd" d="M10 3a3 3 0 0 0-3 3v1a3 3 0 0 0 6 0V6a3 3 0 0 0-3-3ZM4.007 15.266C4.294 13.389 5.935 12 7.866 12h1.203c-.36.549-.332 1.337.256 1.84l1.42 1.217-.224.943H4.65a.643.643 0 0 1-.644-.734Zm8.713-3.223Zm-2.517.335Zm1.472 2.158Z" class="Primary" clip-rule="evenodd"/>
    <path fill="#E1E7EA" d="M13.63 9.888a.4.4 0 0 1 .74 0l.859 2.066a.4.4 0 0 0 .337.245l2.23.18a.4.4 0 0 1 .229.702l-1.7 1.455a.4.4 0 0 0-.128.397l.519 2.177a.4.4 0 0 1-.598.434l-1.91-1.167a.4.4 0 0 0-.417 0l-1.91 1.167a.4.4 0 0 1-.597-.434l.52-2.177a.4.4 0 0 0-.13-.397l-1.699-1.455a.4.4 0 0 1 .228-.703l2.23-.179a.4.4 0 0 0 .338-.245l.86-2.066Z" class="Secondary"/>
  </g>
</svg>
