<svg xmlns="http://www.w3.org/2000/svg" width="20" height="20" fill="none" viewBox="0 0 20 20">
  <g class="20x20/Solid/user_cloud">
    <path fill="#A5B7C0" fill-rule="evenodd" d="M7 6a3 3 0 0 1 6 0v1a3 3 0 1 1-6 0V6Zm-2.993 9.266C4.294 13.389 5.935 12 7.866 12h1.863c-.071.13-.136.265-.193.403C8.06 12.475 7 13.77 7 15.2c0 .274.039.543.112.8H4.65a.643.643 0 0 1-.643-.734ZM10.93 12h1.204c.543 0 1.063.11 1.537.31a3.02 3.02 0 0 0-1.27 1.19h-.151a2.25 2.25 0 0 0-2.246 2.379c-.003.04-.004.08-.004.121H8.173A1.91 1.91 0 0 1 8 15.2c0-.994.746-1.8 1.667-1.8h.61c.1-.531.33-1.011.653-1.4Z" class="Primary" clip-rule="evenodd"/>
    <path fill="#E1E7EA" fill-rule="evenodd" d="M15.722 13.4h.611c.92 0 1.667.806 1.667 1.8s-.746 1.8-1.667 1.8H9.667C8.747 17 8 16.194 8 15.2s.746-1.8 1.667-1.8h.61c.258-1.37 1.38-2.4 2.723-2.4 1.344 0 2.465 1.03 2.722 2.4Z" class="Secondary" clip-rule="evenodd"/>
  </g>
</svg>
