<svg xmlns="http://www.w3.org/2000/svg" width="20" height="20" fill="none" viewBox="0 0 20 20">
  <g class="20x20/Solid/videocam">
    <path fill="#A3B8C2" d="M3.873 16.27a1.54 1.54 0 0 1-1.131-.457 1.537 1.537 0 0 1-.458-1.132v-9.32c0-.45.152-.826.458-1.132a1.537 1.537 0 0 1 1.131-.458h9.32c.45 0 .827.153 1.132.458.306.306.459.683.459 1.132v3.605L16.98 6.77c.147-.147.307-.18.478-.096.172.083.257.214.257.393v5.868c0 .179-.085.31-.257.393-.171.083-.33.051-.478-.096l-2.197-2.197v3.647c0 .449-.153.826-.459 1.132a1.537 1.537 0 0 1-1.131.458h-9.32Z" class="Primary"/>
  </g>
</svg>
