<svg xmlns="http://www.w3.org/2000/svg" width="20" height="20" fill="none" viewBox="0 0 20 20">
  <g class="20x20/Solid/volume_off">
    <path fill="#A3B8C2" d="M13.506 15.52a5.004 5.004 0 0 1-.439.246c-.156.078-.323.156-.501.234a.595.595 0 0 1-.442 0 .472.472 0 0 1-.302-.289.54.54 0 0 1 .027-.42.568.568 0 0 1 .311-.294c.141-.061.274-.123.399-.187.124-.064.22-.124.286-.182l-3.021-2.792v1.851a.508.508 0 0 1-.338.506.503.503 0 0 1-.597-.116l-2.472-2.473h-2.09a.646.646 0 0 1-.475-.195.646.646 0 0 1-.195-.475V9.107c0-.187.065-.345.195-.475a.646.646 0 0 1 .475-.194h2.077L2.748 4.76a.547.547 0 0 1-.177-.383.531.531 0 0 1 .177-.39.544.544 0 0 1 .387-.182.54.54 0 0 1 .387.181L16.125 16.59a.54.54 0 0 1 .177.372c.003.133-.056.26-.177.381a.543.543 0 0 1-.387.181.543.543 0 0 1-.387-.181l-1.845-1.824Zm1.856-1.805-.77-.771c.275-.424.493-.885.652-1.382.16-.496.24-1.01.24-1.541a5.21 5.21 0 0 0-.9-2.97 5.525 5.525 0 0 0-2.366-1.998.783.783 0 0 1-.333-.319.418.418 0 0 1-.005-.417.534.534 0 0 1 .345-.309.644.644 0 0 1 .485.037 6.562 6.562 0 0 1 2.798 2.392A6.31 6.31 0 0 1 16.568 10c0 .675-.106 1.325-.316 1.949a7.068 7.068 0 0 1-.89 1.766Zm-2.343-2.343-1.375-1.375V7.753c0-.131.056-.223.168-.275a.322.322 0 0 1 .323.019c.375.283.667.658.875 1.125a3.401 3.401 0 0 1 .248 2.086 2.347 2.347 0 0 1-.239.664ZM9.824 8.176 8.254 6.6l.635-.634a.503.503 0 0 1 .597-.116.508.508 0 0 1 .338.505v1.822Z" class="Primary"/>
  </g>
</svg>
