<?xml version="1.0" encoding="UTF-8" standalone="no"?>
<!-- Created with Inkscape (http://www.inkscape.org/) -->

<svg
   xmlns:dc="http://purl.org/dc/elements/1.1/"
   xmlns:cc="http://creativecommons.org/ns#"
   xmlns:rdf="http://www.w3.org/1999/02/22-rdf-syntax-ns#"
   xmlns:svg="http://www.w3.org/2000/svg"
   xmlns="http://www.w3.org/2000/svg"
   version="1.1"
   width="18"
   height="18"
   id="svg2"
   xml:space="preserve"><metadata
     id="metadata8"><rdf:RDF><cc:Work
         rdf:about=""><dc:format>image/svg+xml</dc:format><dc:type
           rdf:resource="http://purl.org/dc/dcmitype/StillImage" /><dc:title></dc:title></cc:Work></rdf:RDF></metadata><defs
     id="defs6"><clipPath
       id="clipPath16"><path
         d="M 0,256 256,256 256,0 0,0 0,256 z"
         id="path18" /></clipPath></defs><g
     transform="matrix(1.25,0,0,-1.25,0,18)"
     id="g10"><path
       d="M 16,9 A 7,7 0 1 1 2,9 7,7 0 1 1 16,9 z"
       transform="matrix(0.8,0,0,-0.8,0,14.4)"
       id="path3775"
       style="fill:#212a2f;fill-opacity:1;stroke:none" /><path
       d="m 8,8.8 -1.6,0 0,1.2 C 6.4003375,10.211838 6.2118375,10.399663 6,10.4 5.7881625,10.400451 5.6003938,10.211781 5.6,10 L 5.6,8.8 4.8,8.8 4.79685,7.101475 C 4.79477,6.0055 5.5767812,5.2016312 6.4,5.2 l 0,-2 1.6,0 0,2 C 8.8231625,5.19848 9.5948212,6.0054437 9.59679,7.1013624 L 9.6,8.8 8.8,8.8 8.8,10 C 8.80045,10.211894 8.6118937,10.399662 8.4,10.4 8.1881625,10.400393 8.0004513,10.211897 8,10 z"
       id="path26"
       style="fill:#be3938;fill-opacity:1;fill-rule:nonzero;stroke:none" /></g></svg>