<?xml version="1.0" encoding="UTF-8" standalone="no"?>
<!-- Created with Inkscape (http://www.inkscape.org/) -->

<svg
   xmlns:dc="http://purl.org/dc/elements/1.1/"
   xmlns:cc="http://creativecommons.org/ns#"
   xmlns:rdf="http://www.w3.org/1999/02/22-rdf-syntax-ns#"
   xmlns:svg="http://www.w3.org/2000/svg"
   xmlns="http://www.w3.org/2000/svg"
   version="1.1"
   width="18"
   height="18"
   id="svg2"
   xml:space="preserve"><metadata
     id="metadata8"><rdf:RDF><cc:Work
         rdf:about=""><dc:format>image/svg+xml</dc:format><dc:type
           rdf:resource="http://purl.org/dc/dcmitype/StillImage" /><dc:title></dc:title></cc:Work></rdf:RDF></metadata><defs
     id="defs6"><clipPath
       id="clipPath16"><path
         d="M 0,256 256,256 256,0 0,0 0,256 z"
         id="path18" /></clipPath></defs><g
     transform="matrix(1.25,0,0,-1.25,0,18)"
     id="g10"><path
       d="M 5.3125,8 C 4.5808019,8 4,8.5808019 4,9.3125 l 0,5.375 C 4,15.419198 4.5808019,16 5.3125,16 l 8.375,0 C 14.419198,16 15,15.419198 15,14.6875 l 0,-5.375 C 15,8.5808019 14.419198,8 13.6875,8 l -8.375,0 z m 4.03125,2 A 0.50005,0.50005 0 0 1 9.40625,10 0.50005,0.50005 0 0 1 10,10.5 l 0,3 a 0.50005,0.50005 0 1 1 -1,0 l 0,-3 A 0.50005,0.50005 0 0 1 9.34375,10 z"
       transform="matrix(0.8,0,0,-0.8,0,14.4)"
       id="rect3775"
       style="fill:#212a2f;fill-opacity:1;stroke:none" /><path
       d="m 4.8,7.6 c 0,1.5849058 -0.1263679,4.586441 2.8,4.586441 2.926368,0 2.8,-3.0015352 2.8,-4.586441"
       id="path3777"
       style="fill:none;stroke:#212a2f;stroke-width:1.26792467;stroke-linecap:butt;stroke-linejoin:miter;stroke-miterlimit:4;stroke-opacity:1;stroke-dasharray:none" /></g></svg>