<?xml version="1.0" encoding="UTF-8" standalone="no"?>
<!-- Created with Inkscape (http://www.inkscape.org/) -->

<svg
   xmlns:dc="http://purl.org/dc/elements/1.1/"
   xmlns:cc="http://creativecommons.org/ns#"
   xmlns:rdf="http://www.w3.org/1999/02/22-rdf-syntax-ns#"
   xmlns:svg="http://www.w3.org/2000/svg"
   xmlns="http://www.w3.org/2000/svg"
   version="1.1"
   width="18"
   height="18"
   id="svg2"
   xml:space="preserve"><metadata
     id="metadata8"><rdf:RDF><cc:Work
         rdf:about=""><dc:format>image/svg+xml</dc:format><dc:type
           rdf:resource="http://purl.org/dc/dcmitype/StillImage" /><dc:title></dc:title></cc:Work></rdf:RDF></metadata><defs
     id="defs6"><clipPath
       id="clipPath16"><path
         d="M 0,256 256,256 256,0 0,0 0,256 z"
         id="path18" /></clipPath></defs><g
     transform="matrix(1.25,0,0,-1.25,0,18)"
     id="g10"><g
       transform="matrix(0.05384615,0,0,0.05384615,0.25386231,0.36128004)"
       id="g12"
       style="fill:#d4d4d4;fill-opacity:1"><g
         clip-path="url(#clipPath16)"
         id="g14"
         style="fill:#d4d4d4;fill-opacity:1"><g
           transform="translate(193.5217,128.1258)"
           id="g20"
           style="fill:#d4d4d4;fill-opacity:1"><path
             d="m 0,0 c -14.854,-3.912 -30.032,4.977 -33.925,19.802 -3.888,14.82 4.976,30.003 19.802,33.896 C 0.706,57.585 15.89,48.72 19.773,33.892 23.69,19.066 14.825,3.882 0,0 m -4.9,-69.704 c -12.898,-8.304 -30.071,-4.557 -38.35,8.347 -8.298,12.902 -4.561,30.09 8.342,38.368 12.903,8.285 30.095,4.537 38.375,-8.365 8.279,-12.903 4.536,-30.067 -8.367,-38.35 m -59.614,51.131 c -9.626,0 -17.445,7.82 -17.445,17.459 0,9.645 7.819,17.439 17.445,17.439 9.634,0 17.458,-7.794 17.458,-17.439 0,-9.639 -7.824,-17.459 -17.458,-17.459 m -7.466,-55.77 c -9.708,-11.876 -27.205,-13.614 -39.063,-3.911 -11.88,9.702 -13.634,27.204 -3.906,39.066 9.698,11.877 27.204,13.605 39.057,3.908 11.871,-9.708 13.609,-27.182 3.912,-39.063 m -64.224,58.472 c -14.288,5.554 -21.356,21.657 -15.793,35.944 5.562,14.283 21.671,21.347 35.953,15.789 14.303,-5.563 21.371,-21.666 15.813,-35.954 -5.587,-14.273 -21.666,-21.347 -35.973,-15.779 m 35.78,79.127 c 0.876,15.308 13.987,26.996 29.301,26.115 15.304,-0.881 27.016,-13.987 26.115,-29.296 -0.876,-15.304 -13.991,-27.021 -29.291,-26.121 -15.314,0.857 -27.001,13.992 -26.125,29.302 m 35.91,39.623 c -57.426,0 -104.008,-46.567 -104.008,-103.993 0,-57.446 46.582,-104.017 104.008,-104.017 57.44,0 103.992,46.571 103.992,104.017 0,57.426 -46.552,103.993 -103.992,103.993"
             id="path22"
             style="fill:#d4d4d4;fill-opacity:1;fill-rule:nonzero;stroke:none" /></g></g></g></g></svg>