<?xml version="1.0" encoding="UTF-8"?>
<svg width="128px" height="128px" viewBox="0 0 128 128" version="1.1" xmlns="http://www.w3.org/2000/svg" xmlns:xlink="http://www.w3.org/1999/xlink">
    <!-- Generator: Sketch 64 (93537) - https://sketch.com -->
    <title>VMS/Placeholders/NoFavorites</title>
    <desc>Created with Sketch.</desc>
    <g id="VMS/Placeholders/NoFavorites" stroke="none" stroke-width="1" fill="none" fill-rule="evenodd">
        <path d="M40,83 L12,83 L12,101 L40,101 L40,83 Z M78,83 L50,83 L50,101 L78,101 L78,83 Z M116,83 L88,83 L88,101 L116,101 L116,83 Z M40,55 L12,55 L12,73 L40,73 L40,55 Z M78,55 L50,55 L50,73 L78,73 L78,55 Z M116,55 L88,55 L88,73 L116,73 L116,55 Z M40,27 L12,27 L12,45 L40,45 L40,27 Z M78,27 L50,27 L50,45 L78,45 L78,27 Z M116,27 L88,27 L88,45 L116,45 L116,27 Z" id="Combined-Shape" stroke="#3F545F" stroke-width="2" fill="#2B383F"></path>
        <path d="M26,39.9004604 L21.7839628,42.5947788 C21.5512772,42.7434798 21.2421022,42.6753969 21.0934011,42.4427112 C21.0184644,42.3254512 20.9957861,42.182266 21.0308198,42.0475883 L22.2904417,37.2053085 L22.2904417,37.2053085 L18.4251655,34.0282091 C18.2118386,33.8528631 18.181049,33.5377814 18.3563951,33.3244544 C18.4447593,33.2169501 18.5739285,33.151135 18.7128406,33.1428364 L23.7073669,32.8444613 L23.7073669,32.8444613 L25.534532,28.1865874 C25.6353744,27.9295166 25.9255203,27.8028683 26.1825912,27.9037107 C26.31214,27.9545294 26.4146493,28.0570387 26.465468,28.1865874 L28.2926331,32.8444613 L28.2926331,32.8444613 L33.2871594,33.1428364 C33.5628103,33.1593039 33.77292,33.3961126 33.7564525,33.6717636 C33.7481539,33.8106756 33.6823388,33.9398449 33.5748345,34.0282091 L29.7095583,37.2053085 L29.7095583,37.2053085 L30.9691802,42.0475883 C31.0386995,42.3148367 30.8784084,42.5878408 30.6111601,42.6573601 C30.4764824,42.6923938 30.3332972,42.6697155 30.2160372,42.5947788 L26,39.9004604 L26,39.9004604 Z" id="star" fill="#E1E7EA"></path>
    </g>
</svg>