<?xml version="1.0" encoding="UTF-8"?>
<svg width="128px" height="128px" viewBox="0 0 128 128" version="1.1" xmlns="http://www.w3.org/2000/svg" xmlns:xlink="http://www.w3.org/1999/xlink">
    <!-- Generator: Sketch 64 (93537) - https://sketch.com -->
    <title>VMS/Placeholders/NoHidden</title>
    <desc>Created with Sketch.</desc>
    <g id="VMS/Placeholders/NoHidden" stroke="none" stroke-width="1" fill="none" fill-rule="evenodd">
        <path d="M40,83 L12,83 L12,101 L40,101 L40,83 Z M78,83 L50,83 L50,101 L78,101 L78,83 Z M116,83 L88,83 L88,101 L116,101 L116,83 Z M40,55 L12,55 L12,73 L40,73 L40,55 Z M78,55 L50,55 L50,73 L78,73 L78,55 Z M116,55 L88,55 L88,73 L116,73 L116,55 Z M116,27 L88,27 L88,45 L116,45 L116,27 Z" id="Combined-Shape" stroke="#3F545F" stroke-width="2" fill="#2B383F"></path>
        <path d="M13,44 L13,46 L11,46 L11,44 L13,44 Z M17,44 L17,46 L15,46 L15,44 L17,44 Z M21,44 L21,46 L19,46 L19,44 L21,44 Z M25,44 L25,46 L23,46 L23,44 L25,44 Z M29,44 L29,46 L27,46 L27,44 L29,44 Z M33,44 L33,46 L31,46 L31,44 L33,44 Z M37,44 L37,46 L35,46 L35,44 L37,44 Z M41,44 L41,46 L39,46 L39,44 L41,44 Z M79,44 L79,46 L77,46 L77,44 L79,44 Z M75,44 L75,46 L73,46 L73,44 L75,44 Z M71,44 L71,46 L69,46 L69,44 L71,44 Z M67,44 L67,46 L65,46 L65,44 L67,44 Z M63,44 L63,46 L61,46 L61,44 L63,44 Z M59,44 L59,46 L57,46 L57,44 L59,44 Z M55,44 L55,46 L53,46 L53,44 L55,44 Z M51,44 L51,46 L49,46 L49,44 L51,44 Z M41,39 L41,41 L39,41 L39,39 L41,39 Z M13,39 L13,41 L11,41 L11,39 L13,39 Z M51,39 L51,41 L49,41 L49,39 L51,39 Z M79,39 L79,41 L77,41 L77,39 L79,39 Z M41,35 L41,37 L39,37 L39,35 L41,35 Z M13,35 L13,37 L11,37 L11,35 L13,35 Z M51,35 L51,37 L49,37 L49,35 L51,35 Z M79,35 L79,37 L77,37 L77,35 L79,35 Z M41,31 L41,33 L39,33 L39,31 L41,31 Z M13,31 L13,33 L11,33 L11,31 L13,31 Z M51,31 L51,33 L49,33 L49,31 L51,31 Z M79,31 L79,33 L77,33 L77,31 L79,31 Z M25,26 L25,28 L23,28 L23,26 L25,26 Z M29,26 L29,28 L27,28 L27,26 L29,26 Z M33,26 L33,28 L31,28 L31,26 L33,26 Z M37,26 L37,28 L35,28 L35,26 L37,26 Z M41,26 L41,28 L39,28 L39,26 L41,26 Z M13,26 L13,28 L11,28 L11,26 L13,26 Z M21,26 L21,28 L19,28 L19,26 L21,26 Z M17,26 L17,28 L15,28 L15,26 L17,26 Z M55,26 L55,28 L53,28 L53,26 L55,26 Z M59,26 L59,28 L57,28 L57,26 L59,26 Z M63,26 L63,28 L61,28 L61,26 L63,26 Z M67,26 L67,28 L65,28 L65,26 L67,26 Z M71,26 L71,28 L69,28 L69,26 L71,26 Z M75,26 L75,28 L73,28 L73,26 L75,26 Z M79,26 L79,28 L77,28 L77,26 L79,26 Z M51,26 L51,28 L49,28 L49,26 L51,26 Z" id="Combined-Shape" fill="#3F545F"></path>
    </g>
</svg>