<?xml version="1.0" encoding="UTF-8"?>
<svg width="128px" height="128px" viewBox="0 0 128 128" version="1.1" xmlns="http://www.w3.org/2000/svg" xmlns:xlink="http://www.w3.org/1999/xlink">
    <!-- Generator: Sketch 64 (93537) - https://sketch.com -->
    <title>VMS/Placeholders/NoFound</title>
    <desc>Created with Sketch.</desc>
    <g id="VMS/Placeholders/NoFound" stroke="none" stroke-width="1" fill="none" fill-rule="evenodd">
        <path d="M13,100 L13,102 L11,102 L11,100 L13,100 Z M71,100 L71,102 L69,102 L69,100 L71,100 Z M33,100 L33,102 L31,102 L31,100 L33,100 Z M75,100 L75,102 L73,102 L73,100 L75,100 Z M89,100 L89,102 L87,102 L87,100 L89,100 Z M17,100 L17,102 L15,102 L15,100 L17,100 Z M21,100 L21,102 L19,102 L19,100 L21,100 Z M37,100 L37,102 L35,102 L35,100 L37,100 Z M29,100 L29,102 L27,102 L27,100 L29,100 Z M67,100 L67,102 L65,102 L65,100 L67,100 Z M63,100 L63,102 L61,102 L61,100 L63,100 Z M59,100 L59,102 L57,102 L57,100 L59,100 Z M55,100 L55,102 L53,102 L53,100 L55,100 Z M51,100 L51,102 L49,102 L49,100 L51,100 Z M93,100 L93,102 L91,102 L91,100 L93,100 Z M97,100 L97,102 L95,102 L95,100 L97,100 Z M101,100 L101,102 L99,102 L99,100 L101,100 Z M41,100 L41,102 L39,102 L39,100 L41,100 Z M79,100 L79,102 L77,102 L77,100 L79,100 Z M105,100 L105,102 L103,102 L103,100 L105,100 Z M109,100 L109,102 L107,102 L107,100 L109,100 Z M25,100 L25,102 L23,102 L23,100 L25,100 Z M113,100 L113,102 L111,102 L111,100 L113,100 Z M117,100 L117,102 L115,102 L115,100 L117,100 Z M79,95 L79,97 L77,97 L77,95 L79,95 Z M51,95 L51,97 L49,97 L49,95 L51,95 Z M13,95 L13,97 L11,97 L11,95 L13,95 Z M41,95 L41,97 L39,97 L39,95 L41,95 Z M117,95 L117,97 L115,97 L115,95 L117,95 Z M89,95 L89,97 L87,97 L87,95 L89,95 Z M13,91 L13,93 L11,93 L11,91 L13,91 Z M41,91 L41,93 L39,93 L39,91 L41,91 Z M51,91 L51,93 L49,93 L49,91 L51,91 Z M79,91 L79,93 L77,93 L77,91 L79,91 Z M89,91 L89,93 L87,93 L87,91 L89,91 Z M117,91 L117,93 L115,93 L115,91 L117,91 Z M117,87 L117,89 L115,89 L115,87 L117,87 Z M89,87 L89,89 L87,89 L87,87 L89,87 Z M41,87 L41,89 L39,89 L39,87 L41,87 Z M13,87 L13,89 L11,89 L11,87 L13,87 Z M51,87 L51,89 L49,89 L49,87 L51,87 Z M79,87 L79,89 L77,89 L77,87 L79,87 Z M79,82 L79,84 L77,84 L77,82 L79,82 Z M51,82 L51,84 L49,84 L49,82 L51,82 Z M75,82 L75,84 L73,84 L73,82 L75,82 Z M71,82 L71,84 L69,84 L69,82 L71,82 Z M67,82 L67,84 L65,84 L65,82 L67,82 Z M63,82 L63,84 L61,84 L61,82 L63,82 Z M59,82 L59,84 L57,84 L57,82 L59,82 Z M55,82 L55,84 L53,84 L53,82 L55,82 Z M17,82 L17,84 L15,84 L15,82 L17,82 Z M21,82 L21,84 L19,84 L19,82 L21,82 Z M13,82 L13,84 L11,84 L11,82 L13,82 Z M41,82 L41,84 L39,84 L39,82 L41,82 Z M37,82 L37,84 L35,84 L35,82 L37,82 Z M33,82 L33,84 L31,84 L31,82 L33,82 Z M29,82 L29,84 L27,84 L27,82 L29,82 Z M25,82 L25,84 L23,84 L23,82 L25,82 Z M93,82 L93,84 L91,84 L91,82 L93,82 Z M97,82 L97,84 L95,84 L95,82 L97,82 Z M101,82 L101,84 L99,84 L99,82 L101,82 Z M105,82 L105,84 L103,84 L103,82 L105,82 Z M109,82 L109,84 L107,84 L107,82 L109,82 Z M113,82 L113,84 L111,84 L111,82 L113,82 Z M117,82 L117,84 L115,84 L115,82 L117,82 Z M89,82 L89,84 L87,84 L87,82 L89,82 Z M13,72 L13,74 L11,74 L11,72 L13,72 Z M113,72 L113,74 L111,74 L111,72 L113,72 Z M71,72 L71,74 L69,74 L69,72 L71,72 Z M33,72 L33,74 L31,74 L31,72 L33,72 Z M75,72 L75,74 L73,74 L73,72 L75,72 Z M89,72 L89,74 L87,74 L87,72 L89,72 Z M17,72 L17,74 L15,74 L15,72 L17,72 Z M21,72 L21,74 L19,74 L19,72 L21,72 Z M37,72 L37,74 L35,74 L35,72 L37,72 Z M29,72 L29,74 L27,74 L27,72 L29,72 Z M67,72 L67,74 L65,74 L65,72 L67,72 Z M63,72 L63,74 L61,74 L61,72 L63,72 Z M59,72 L59,74 L57,74 L57,72 L59,72 Z M55,72 L55,74 L53,74 L53,72 L55,72 Z M51,72 L51,74 L49,74 L49,72 L51,72 Z M93,72 L93,74 L91,74 L91,72 L93,72 Z M97,72 L97,74 L95,74 L95,72 L97,72 Z M101,72 L101,74 L99,74 L99,72 L101,72 Z M41,72 L41,74 L39,74 L39,72 L41,72 Z M79,72 L79,74 L77,74 L77,72 L79,72 Z M117,72 L117,74 L115,74 L115,72 L117,72 Z M25,72 L25,74 L23,74 L23,72 L25,72 Z M109,72 L109,74 L107,74 L107,72 L109,72 Z M105,72 L105,74 L103,74 L103,72 L105,72 Z M89,67 L89,69 L87,69 L87,67 L89,67 Z M79,67 L79,69 L77,69 L77,67 L79,67 Z M51,67 L51,69 L49,69 L49,67 L51,67 Z M13,67 L13,69 L11,69 L11,67 L13,67 Z M41,67 L41,69 L39,69 L39,67 L41,67 Z M117,67 L117,69 L115,69 L115,67 L117,67 Z M79,63 L79,65 L77,65 L77,63 L79,63 Z M117,63 L117,65 L115,65 L115,63 L117,63 Z M89,63 L89,65 L87,65 L87,63 L89,63 Z M51,63 L51,65 L49,65 L49,63 L51,63 Z M41,63 L41,65 L39,65 L39,63 L41,63 Z M13,63 L13,65 L11,65 L11,63 L13,63 Z M79,59 L79,61 L77,61 L77,59 L79,59 Z M117,59 L117,61 L115,61 L115,59 L117,59 Z M89,59 L89,61 L87,61 L87,59 L89,59 Z M41,59 L41,61 L39,61 L39,59 L41,59 Z M13,59 L13,61 L11,61 L11,59 L13,59 Z M51,59 L51,61 L49,61 L49,59 L51,59 Z M79,54 L79,56 L77,56 L77,54 L79,54 Z M89,54 L89,56 L87,56 L87,54 L89,54 Z M117,54 L117,56 L115,56 L115,54 L117,54 Z M113,54 L113,56 L111,56 L111,54 L113,54 Z M109,54 L109,56 L107,56 L107,54 L109,54 Z M105,54 L105,56 L103,56 L103,54 L105,54 Z M101,54 L101,56 L99,56 L99,54 L101,54 Z M97,54 L97,56 L95,56 L95,54 L97,54 Z M93,54 L93,56 L91,56 L91,54 L93,54 Z M25,54 L25,56 L23,56 L23,54 L25,54 Z M29,54 L29,56 L27,56 L27,54 L29,54 Z M33,54 L33,56 L31,56 L31,54 L33,54 Z M37,54 L37,56 L35,56 L35,54 L37,54 Z M41,54 L41,56 L39,56 L39,54 L41,54 Z M13,54 L13,56 L11,56 L11,54 L13,54 Z M21,54 L21,56 L19,56 L19,54 L21,54 Z M17,54 L17,56 L15,56 L15,54 L17,54 Z M55,54 L55,56 L53,56 L53,54 L55,54 Z M59,54 L59,56 L57,56 L57,54 L59,54 Z M63,54 L63,56 L61,56 L61,54 L63,54 Z M67,54 L67,56 L65,56 L65,54 L67,54 Z M71,54 L71,56 L69,56 L69,54 L71,54 Z M75,54 L75,56 L73,56 L73,54 L75,54 Z M51,54 L51,56 L49,56 L49,54 L51,54 Z M67,44 L67,46 L65,46 L65,44 L67,44 Z M13,44 L13,46 L11,46 L11,44 L13,44 Z M25,44 L25,46 L23,46 L23,44 L25,44 Z M71,44 L71,46 L69,46 L69,44 L71,44 Z M33,44 L33,46 L31,46 L31,44 L33,44 Z M75,44 L75,46 L73,46 L73,44 L75,44 Z M89,44 L89,46 L87,46 L87,44 L89,44 Z M29,44 L29,46 L27,46 L27,44 L29,44 Z M21,44 L21,46 L19,46 L19,44 L21,44 Z M63,44 L63,46 L61,46 L61,44 L63,44 Z M59,44 L59,46 L57,46 L57,44 L59,44 Z M55,44 L55,46 L53,46 L53,44 L55,44 Z M51,44 L51,46 L49,46 L49,44 L51,44 Z M93,44 L93,46 L91,46 L91,44 L93,44 Z M97,44 L97,46 L95,46 L95,44 L97,44 Z M101,44 L101,46 L99,46 L99,44 L101,44 Z M41,44 L41,46 L39,46 L39,44 L41,44 Z M79,44 L79,46 L77,46 L77,44 L79,44 Z M37,44 L37,46 L35,46 L35,44 L37,44 Z M117,44 L117,46 L115,46 L115,44 L117,44 Z M113,44 L113,46 L111,46 L111,44 L113,44 Z M17,44 L17,46 L15,46 L15,44 L17,44 Z M109,44 L109,46 L107,46 L107,44 L109,44 Z M105,44 L105,46 L103,46 L103,44 L105,44 Z M51,39 L51,41 L49,41 L49,39 L51,39 Z M13,39 L13,41 L11,41 L11,39 L13,39 Z M41,39 L41,41 L39,41 L39,39 L41,39 Z M117,39 L117,41 L115,41 L115,39 L117,39 Z M89,39 L89,41 L87,41 L87,39 L89,39 Z M79,39 L79,41 L77,41 L77,39 L79,39 Z M51,35 L51,37 L49,37 L49,35 L51,35 Z M13,35 L13,37 L11,37 L11,35 L13,35 Z M41,35 L41,37 L39,37 L39,35 L41,35 Z M79,35 L79,37 L77,37 L77,35 L79,35 Z M89,35 L89,37 L87,37 L87,35 L89,35 Z M117,35 L117,37 L115,37 L115,35 L117,35 Z M79,31 L79,33 L77,33 L77,31 L79,31 Z M117,31 L117,33 L115,33 L115,31 L117,31 Z M89,31 L89,33 L87,33 L87,31 L89,31 Z M41,31 L41,33 L39,33 L39,31 L41,31 Z M13,31 L13,33 L11,33 L11,31 L13,31 Z M51,31 L51,33 L49,33 L49,31 L51,31 Z M79,26 L79,28 L77,28 L77,26 L79,26 Z M89,26 L89,28 L87,28 L87,26 L89,26 Z M117,26 L117,28 L115,28 L115,26 L117,26 Z M113,26 L113,28 L111,28 L111,26 L113,26 Z M109,26 L109,28 L107,28 L107,26 L109,26 Z M105,26 L105,28 L103,28 L103,26 L105,26 Z M101,26 L101,28 L99,28 L99,26 L101,26 Z M97,26 L97,28 L95,28 L95,26 L97,26 Z M93,26 L93,28 L91,28 L91,26 L93,26 Z M25,26 L25,28 L23,28 L23,26 L25,26 Z M29,26 L29,28 L27,28 L27,26 L29,26 Z M33,26 L33,28 L31,28 L31,26 L33,26 Z M37,26 L37,28 L35,28 L35,26 L37,26 Z M41,26 L41,28 L39,28 L39,26 L41,26 Z M13,26 L13,28 L11,28 L11,26 L13,26 Z M21,26 L21,28 L19,28 L19,26 L21,26 Z M17,26 L17,28 L15,28 L15,26 L17,26 Z M55,26 L55,28 L53,28 L53,26 L55,26 Z M59,26 L59,28 L57,28 L57,26 L59,26 Z M63,26 L63,28 L61,28 L61,26 L63,26 Z M67,26 L67,28 L65,28 L65,26 L67,26 Z M71,26 L71,28 L69,28 L69,26 L71,26 Z M75,26 L75,28 L73,28 L73,26 L75,26 Z M51,26 L51,28 L49,28 L49,26 L51,26 Z" id="Combined-Shape" fill="#3F545F"></path>
        <circle id="Oval" stroke="#3F545F" stroke-width="4" fill="#2B383F" transform="translate(57.597980, 60.597980) rotate(45.000000) translate(-57.597980, -60.597980) " cx="57.5979797" cy="60.5979797" r="26"></circle>
        <polygon id="Path-14" fill="#3F545F" fill-rule="nonzero" transform="translate(84.468037, 87.468037) rotate(45.000000) translate(-84.468037, -87.468037) " points="96.4680374 85.4680374 96.4680374 89.4680374 72.4680374 89.4680374 72.4680374 85.4680374"></polygon>
        <path d="M50.1103741,51.7071793 L50.2045815,51.7903679 L57.9974747,59.5824747 L65.7903679,51.7903679 L65.8845752,51.7071793 C66.2768664,51.4021544 66.8440975,51.4298839 67.2045815,51.7903679 C67.5951058,52.1808922 67.5951058,52.8140572 67.2045815,53.2045815 L67.2045815,53.2045815 L59.4124747,60.9974747 L67.2045815,68.7903679 C67.5951058,69.1808922 67.5951058,69.8140572 67.2045815,70.2045815 C66.8440975,70.5650654 66.2768664,70.592795 65.8845752,70.2877701 L65.7903679,70.2045815 L57.9974747,62.4124747 L50.2045815,70.2045815 L50.1103741,70.2877701 C49.7180829,70.592795 49.1508519,70.5650654 48.7903679,70.2045815 C48.3998436,69.8140572 48.3998436,69.1808922 48.7903679,68.7903679 L48.7903679,68.7903679 L56.5824747,60.9974747 L48.7903679,53.2045815 C48.3998436,52.8140572 48.3998436,52.1808922 48.7903679,51.7903679 C49.1508519,51.4298839 49.7180829,51.4021544 50.1103741,51.7071793 Z" id="Combined-Shape" fill="#E1E7EA" fill-rule="nonzero"></path>
    </g>
</svg>