<svg width="90" height="124" viewBox="0 0 90 124" fill="none" xmlns="http://www.w3.org/2000/svg">
<g clip-path="url(#clip0_7488_143)">
<path d="M87.625 1H2.375C1.61561 1 1 1.61561 1 2.375V111.625C1 112.384 1.61561 113 2.375 113H87.625C88.3844 113 89 112.384 89 111.625V2.375C89 1.61561 88.3844 1 87.625 1Z" fill="#2B383F" stroke="#3F545F" stroke-width="2.75"/>
<path fill-rule="evenodd" clip-rule="evenodd" d="M67 10C67 16.6274 72.3726 22 79 22V104H21C21 97.3726 15.6274 92 9 92V22C15.6274 22 21 16.6274 21 10H67Z" fill="#A5B7C0" stroke="#3F545F" stroke-width="2.75"/>
<path fill-rule="evenodd" clip-rule="evenodd" d="M39 70V74H15V70H39ZM42 60V64H15V60H42ZM73 60V64H44V60H73ZM73 54V58H15V54H73ZM35 48V52H15V48H35ZM73 48V52H37V48H73ZM51 42V46.125H15V42H51ZM73 42V46H53V42H73ZM73 36V40H15V36H73ZM62 20V31H26V20H62Z" fill="#3F545F"/>
<path fill-rule="evenodd" clip-rule="evenodd" d="M65.6667 78.5435C75.976 78.5435 84.3333 86.9235 84.3333 97.2609C84.3333 103.621 81.1695 109.241 76.3339 112.623L76.3333 124L65.6667 119.989L55 124L54.9985 112.622C50.1634 109.24 47 103.621 47 97.2609C47 86.9235 55.3574 78.5435 65.6667 78.5435Z" fill="#3F545F"/>
<path fill-rule="evenodd" clip-rule="evenodd" d="M65.6667 81.2174C74.5032 81.2174 81.6667 88.4003 81.6667 97.2609C81.6667 106.121 74.5032 113.304 65.6667 113.304C56.8301 113.304 49.6667 106.121 49.6667 97.2609C49.6667 88.4003 56.8301 81.2174 65.6667 81.2174Z" fill="#2B383F"/>
<path d="M65.6666 110.63C73.0304 110.63 79 104.645 79 97.2609C79 89.8771 73.0304 83.8913 65.6666 83.8913C58.3028 83.8913 52.3333 89.8771 52.3333 97.2609C52.3333 104.645 58.3028 110.63 65.6666 110.63Z" fill="#3F545F"/>
<path d="M70.1828 90.8565C70.7059 90.4487 71.4622 90.4857 71.9428 90.9677C72.4635 91.4898 72.4635 92.3363 71.9428 92.8584L67.552 97.2601L71.9428 101.663C72.4635 102.185 72.4635 103.032 71.9428 103.554C71.4622 104.036 70.7059 104.073 70.1828 103.665L70.0572 103.554L65.666 99.1511L61.2761 103.554L61.1505 103.665C60.6275 104.073 59.8712 104.036 59.3905 103.554C58.8698 103.032 58.8698 102.185 59.3905 101.663L63.781 97.2601L59.3905 92.8584C58.8698 92.3363 58.8698 91.4898 59.3905 90.9677C59.8712 90.4857 60.6275 90.4487 61.1505 90.8565L61.2761 90.9677L65.666 95.3701L70.0572 90.9677L70.1828 90.8565Z" fill="#A5B7C0"/>
</g>
<defs>
<clipPath id="clip0_7488_143">
<rect width="90" height="124" fill="white"/>
</clipPath>
</defs>
</svg>
