<svg width="54" height="32" viewBox="0 0 54 32" fill="none" xmlns="http://www.w3.org/2000/svg">
<g class="Illustrations/connect_to_server_54x32">
    <path fill-rule="evenodd" clip-rule="evenodd" d="M37.5 22.5H5.5V29.5H37.5V22.5ZM37.5 12.5H5.5V19.5H37.5V12.5ZM37.5 2.5H5.5V9.5H37.5V2.5Z" stroke="#E1E7EA" stroke-linejoin="round"/>
<path d="M38.5 27C44.299 27 49 22.299 49 16.5C49 10.701 44.299 6 38.5 6C32.701 6 28 10.701 28 16.5C28 22.299 32.701 27 38.5 27Z" fill="#E1E7EA"/>
<path fill-rule="evenodd" clip-rule="evenodd" d="M9 25C9.55228 25 10 25.4477 10 26C10 26.5523 9.55228 27 9 27C8.44772 27 8 26.5523 8 26C8 25.4477 8.44772 25 9 25ZM40 11V15.5H44.5V17.5H40V22H38V17.499L33.5 17.5V15.5L38 15.499V11H40ZM9 15C9.55228 15 10 15.4477 10 16C10 16.5523 9.55228 17 9 17C8.44772 17 8 16.5523 8 16C8 15.4477 8.44772 15 9 15ZM9 5C9.55228 5 10 5.44772 10 6C10 6.55228 9.55228 7 9 7C8.44772 7 8 6.55228 8 6C8 5.44772 8.44772 5 9 5Z" fill="#2FA2DB"/>
</g>
</svg>
