<svg width="54" height="32" viewBox="0 0 54 32" fill="none" xmlns="http://www.w3.org/2000/svg">
<path fill-rule="evenodd" clip-rule="evenodd" d="M28 3.5C25.2101 3.5 22.6336 4.41391 20.5537 5.95888C18.422 7.54241 16.8117 9.78855 15.4293 12.7341C14.8114 12.5811 14.1652 12.5 13.5 12.5C11.2793 12.5 9.26993 13.4052 7.82162 14.8977C6.38698 16.376 5.50394 18.4292 5.50375 20.7471C5.56924 22.9045 6.48874 24.8465 7.94309 26.2471C9.39149 27.642 11.3702 28.4995 13.5639 28.499H28.077L41.5 28.5C43.433 28.5 45.183 27.7165 46.4497 26.4497C47.7165 25.183 48.5 23.433 48.5 21.5C48.5 19.567 47.7165 17.817 46.4497 16.5503C45.183 15.2835 43.433 14.5 41.5 14.5L40.4108 14.4986C40.0291 11.3079 38.445 8.48679 36.1251 6.5006C33.9401 4.62985 31.102 3.5 28 3.5Z" stroke="#E1E7EA"/>
<path fill-rule="evenodd" clip-rule="evenodd" d="M27.6129 10.2097L27.7071 10.2929L32.7071 15.2929L31.2929 16.7071L27.9999 13.415L28 22H26L25.9999 13.415L22.7071 16.7071L21.2929 15.2929L26.2929 10.2929C26.6534 9.93241 27.2206 9.90468 27.6129 10.2097Z" fill="#2FA2DB"/>
</svg>
