<svg width="128" height="128" viewBox="0 0 128 128" fill="none" xmlns="http://www.w3.org/2000/svg">
<path fill-rule="evenodd" clip-rule="evenodd" d="M40 83H12V101H40V83ZM78 83H50V101H78V83ZM116 83H88V101H116V83ZM40 55H12V73H40V55ZM78 55H50V73H78V55ZM116 55H88V73H116V55ZM40 27H12V45H40V27ZM78 27H50V45H78V27ZM116 27H88V45H116V27Z" fill="#2B383F" stroke="#3F545F" stroke-width="2"/>
<path fill-rule="evenodd" clip-rule="evenodd" d="M26 39.9005L21.784 42.5948C21.5513 42.7435 21.2421 42.6754 21.0934 42.4427C21.0185 42.3255 20.9958 42.1823 21.0308 42.0476L22.2904 37.2053L18.4252 34.0282C18.2118 33.8529 18.181 33.5378 18.3564 33.3245C18.4448 33.217 18.5739 33.1511 18.7128 33.1428L23.7074 32.8445L25.5345 28.1866C25.6354 27.9295 25.9255 27.8029 26.1826 27.9037C26.3121 27.9545 26.4146 28.057 26.4655 28.1866L28.2926 32.8445L33.2872 33.1428C33.5628 33.1593 33.7729 33.3961 33.7565 33.6718C33.7482 33.8107 33.6823 33.9398 33.5748 34.0282L29.7096 37.2053L30.9692 42.0476C31.0387 42.3148 30.8784 42.5878 30.6112 42.6574C30.4765 42.6924 30.3333 42.6697 30.216 42.5948L26 39.9005Z" fill="#E1E7EA"/>
</svg>
