<svg width="128" height="128" viewBox="0 0 128 128" fill="none" xmlns="http://www.w3.org/2000/svg">
<path fill-rule="evenodd" clip-rule="evenodd" d="M40 83H12V101H40V83ZM78 83H50V101H78V83ZM116 83H88V101H116V83ZM40 55H12V73H40V55ZM78 55H50V73H78V55ZM116 55H88V73H116V55ZM116 27H88V45H116V27Z" fill="#2B383F" stroke="#3F545F" stroke-width="2"/>
<path fill-rule="evenodd" clip-rule="evenodd" d="M13 44V46H11V44H13ZM17 44V46H15V44H17ZM21 44V46H19V44H21ZM25 44V46H23V44H25ZM29 44V46H27V44H29ZM33 44V46H31V44H33ZM37 44V46H35V44H37ZM41 44V46H39V44H41ZM79 44V46H77V44H79ZM75 44V46H73V44H75ZM71 44V46H69V44H71ZM67 44V46H65V44H67ZM63 44V46H61V44H63ZM59 44V46H57V44H59ZM55 44V46H53V44H55ZM51 44V46H49V44H51ZM41 39V41H39V39H41ZM13 39V41H11V39H13ZM51 39V41H49V39H51ZM79 39V41H77V39H79ZM41 35V37H39V35H41ZM13 35V37H11V35H13ZM51 35V37H49V35H51ZM79 35V37H77V35H79ZM41 31V33H39V31H41ZM13 31V33H11V31H13ZM51 31V33H49V31H51ZM79 31V33H77V31H79ZM25 26V28H23V26H25ZM29 26V28H27V26H29ZM33 26V28H31V26H33ZM37 26V28H35V26H37ZM41 26V28H39V26H41ZM13 26V28H11V26H13ZM21 26V28H19V26H21ZM17 26V28H15V26H17ZM55 26V28H53V26H55ZM59 26V28H57V26H59ZM63 26V28H61V26H63ZM67 26V28H65V26H67ZM71 26V28H69V26H71ZM75 26V28H73V26H75ZM79 26V28H77V26H79ZM51 26V28H49V26H51Z" fill="#3F545F"/>
</svg>
