<svg width="128" height="128" viewBox="0 0 128 128" fill="none" xmlns="http://www.w3.org/2000/svg">
<path fill-rule="evenodd" clip-rule="evenodd" d="M13 100V102H11V100H13ZM71 100V102H69V100H71ZM33 100V102H31V100H33ZM75 100V102H73V100H75ZM89 100V102H87V100H89ZM17 100V102H15V100H17ZM21 100V102H19V100H21ZM37 100V102H35V100H37ZM29 100V102H27V100H29ZM67 100V102H65V100H67ZM63 100V102H61V100H63ZM59 100V102H57V100H59ZM55 100V102H53V100H55ZM51 100V102H49V100H51ZM93 100V102H91V100H93ZM97 100V102H95V100H97ZM101 100V102H99V100H101ZM41 100V102H39V100H41ZM79 100V102H77V100H79ZM105 100V102H103V100H105ZM109 100V102H107V100H109ZM25 100V102H23V100H25ZM113 100V102H111V100H113ZM117 100V102H115V100H117ZM79 95V97H77V95H79ZM51 95V97H49V95H51ZM13 95V97H11V95H13ZM41 95V97H39V95H41ZM117 95V97H115V95H117ZM89 95V97H87V95H89ZM13 91V93H11V91H13ZM41 91V93H39V91H41ZM51 91V93H49V91H51ZM79 91V93H77V91H79ZM89 91V93H87V91H89ZM117 91V93H115V91H117ZM117 87V89H115V87H117ZM89 87V89H87V87H89ZM41 87V89H39V87H41ZM13 87V89H11V87H13ZM51 87V89H49V87H51ZM79 87V89H77V87H79ZM79 82V84H77V82H79ZM51 82V84H49V82H51ZM75 82V84H73V82H75ZM71 82V84H69V82H71ZM67 82V84H65V82H67ZM63 82V84H61V82H63ZM59 82V84H57V82H59ZM55 82V84H53V82H55ZM17 82V84H15V82H17ZM21 82V84H19V82H21ZM13 82V84H11V82H13ZM41 82V84H39V82H41ZM37 82V84H35V82H37ZM33 82V84H31V82H33ZM29 82V84H27V82H29ZM25 82V84H23V82H25ZM93 82V84H91V82H93ZM97 82V84H95V82H97ZM101 82V84H99V82H101ZM105 82V84H103V82H105ZM109 82V84H107V82H109ZM113 82V84H111V82H113ZM117 82V84H115V82H117ZM89 82V84H87V82H89ZM13 72V74H11V72H13ZM113 72V74H111V72H113ZM71 72V74H69V72H71ZM33 72V74H31V72H33ZM75 72V74H73V72H75ZM89 72V74H87V72H89ZM17 72V74H15V72H17ZM21 72V74H19V72H21ZM37 72V74H35V72H37ZM29 72V74H27V72H29ZM67 72V74H65V72H67ZM63 72V74H61V72H63ZM59 72V74H57V72H59ZM55 72V74H53V72H55ZM51 72V74H49V72H51ZM93 72V74H91V72H93ZM97 72V74H95V72H97ZM101 72V74H99V72H101ZM41 72V74H39V72H41ZM79 72V74H77V72H79ZM117 72V74H115V72H117ZM25 72V74H23V72H25ZM109 72V74H107V72H109ZM105 72V74H103V72H105ZM89 67V69H87V67H89ZM79 67V69H77V67H79ZM51 67V69H49V67H51ZM13 67V69H11V67H13ZM41 67V69H39V67H41ZM117 67V69H115V67H117ZM79 63V65H77V63H79ZM117 63V65H115V63H117ZM89 63V65H87V63H89ZM51 63V65H49V63H51ZM41 63V65H39V63H41ZM13 63V65H11V63H13ZM79 59V61H77V59H79ZM117 59V61H115V59H117ZM89 59V61H87V59H89ZM41 59V61H39V59H41ZM13 59V61H11V59H13ZM51 59V61H49V59H51ZM79 54V56H77V54H79ZM89 54V56H87V54H89ZM117 54V56H115V54H117ZM113 54V56H111V54H113ZM109 54V56H107V54H109ZM105 54V56H103V54H105ZM101 54V56H99V54H101ZM97 54V56H95V54H97ZM93 54V56H91V54H93ZM25 54V56H23V54H25ZM29 54V56H27V54H29ZM33 54V56H31V54H33ZM37 54V56H35V54H37ZM41 54V56H39V54H41ZM13 54V56H11V54H13ZM21 54V56H19V54H21ZM17 54V56H15V54H17ZM55 54V56H53V54H55ZM59 54V56H57V54H59ZM63 54V56H61V54H63ZM67 54V56H65V54H67ZM71 54V56H69V54H71ZM75 54V56H73V54H75ZM51 54V56H49V54H51ZM67 44V46H65V44H67ZM13 44V46H11V44H13ZM25 44V46H23V44H25ZM71 44V46H69V44H71ZM33 44V46H31V44H33ZM75 44V46H73V44H75ZM89 44V46H87V44H89ZM29 44V46H27V44H29ZM21 44V46H19V44H21ZM63 44V46H61V44H63ZM59 44V46H57V44H59ZM55 44V46H53V44H55ZM51 44V46H49V44H51ZM93 44V46H91V44H93ZM97 44V46H95V44H97ZM101 44V46H99V44H101ZM41 44V46H39V44H41ZM79 44V46H77V44H79ZM37 44V46H35V44H37ZM117 44V46H115V44H117ZM113 44V46H111V44H113ZM17 44V46H15V44H17ZM109 44V46H107V44H109ZM105 44V46H103V44H105ZM51 39V41H49V39H51ZM13 39V41H11V39H13ZM41 39V41H39V39H41ZM117 39V41H115V39H117ZM89 39V41H87V39H89ZM79 39V41H77V39H79ZM51 35V37H49V35H51ZM13 35V37H11V35H13ZM41 35V37H39V35H41ZM79 35V37H77V35H79ZM89 35V37H87V35H89ZM117 35V37H115V35H117ZM79 31V33H77V31H79ZM117 31V33H115V31H117ZM89 31V33H87V31H89ZM41 31V33H39V31H41ZM13 31V33H11V31H13ZM51 31V33H49V31H51ZM79 26V28H77V26H79ZM89 26V28H87V26H89ZM117 26V28H115V26H117ZM113 26V28H111V26H113ZM109 26V28H107V26H109ZM105 26V28H103V26H105ZM101 26V28H99V26H101ZM97 26V28H95V26H97ZM93 26V28H91V26H93ZM25 26V28H23V26H25ZM29 26V28H27V26H29ZM33 26V28H31V26H33ZM37 26V28H35V26H37ZM41 26V28H39V26H41ZM13 26V28H11V26H13ZM21 26V28H19V26H21ZM17 26V28H15V26H17ZM55 26V28H53V26H55ZM59 26V28H57V26H59ZM63 26V28H61V26H63ZM67 26V28H65V26H67ZM71 26V28H69V26H71ZM75 26V28H73V26H75ZM51 26V28H49V26H51Z" fill="#3F545F"/>
<path d="M39.2132 78.9828C49.3669 89.1364 65.8291 89.1364 75.9828 78.9828C86.1364 68.8291 86.1364 52.3668 75.9828 42.2132C65.8291 32.0596 49.3668 32.0596 39.2132 42.2132C29.0596 52.3668 29.0596 68.8291 39.2132 78.9828Z" fill="#2B383F" stroke="#3F545F" stroke-width="4"/>
<path d="M94.3675 94.5391L91.5391 97.3675L74.5685 80.397L77.397 77.5685L94.3675 94.5391Z" fill="#3F545F"/>
<path d="M50.1104 51.7072L50.2046 51.7904L57.9975 59.5825L65.7904 51.7904L65.8846 51.7072C66.2769 51.4021 66.8441 51.4299 67.2046 51.7904C67.5951 52.1809 67.5951 52.8141 67.2046 53.2046L59.4125 60.9975L67.2046 68.7904C67.5951 69.1809 67.5951 69.8141 67.2046 70.2046C66.8441 70.5651 66.2769 70.5928 65.8846 70.2878L65.7904 70.2046L57.9975 62.4125L50.2046 70.2046L50.1104 70.2878C49.7181 70.5928 49.1508 70.5651 48.7904 70.2046C48.3998 69.8141 48.3998 69.1809 48.7904 68.7904L56.5825 60.9975L48.7904 53.2046C48.3998 52.8141 48.3998 52.1809 48.7904 51.7904C49.1508 51.4299 49.7181 51.4021 50.1104 51.7072Z" fill="#E1E7EA"/>
</svg>
