<svg xmlns="http://www.w3.org/2000/svg" width="200" height="75" fill="none" viewBox="0 0 200 75">
  <path fill="#E1E7EA" d="M160.232 15.97c-1.522 0-2.829-.511-3.921-1.534-1.091-1.024-1.636-2.25-1.636-3.677 0-1.428.545-2.654 1.636-3.677 1.092-1.023 2.399-1.535 3.921-1.535 1.523 0 2.83.512 3.921 1.535 1.091 1.023 1.637 2.249 1.637 3.677s-.546 2.653-1.637 3.677c-1.091 1.023-2.398 1.535-3.921 1.535Zm-.38 50.977V49.883l-8.223-7.068-3.197 13.423-9.524 9.456-3.132-3.133 8.771-8.771 5.255-28.966-7.613 3.355v9.567h-4.568V25.252l12.486-4.926c1.624-.667 2.779-1.083 3.464-1.25a8.827 8.827 0 0 1 2.093-.25c1.015 0 1.916.203 2.703.607.787.405 1.459 1.012 2.017 1.82l3.198 4.784c1.32 2 3.121 3.737 5.405 5.212 2.284 1.476 3.841 2.213 6.887 2.213v4.284c-3.401 0-5.326-.738-7.991-2.213-2.664-1.476-5.138-3.689-7.422-6.64l-2.969 11.28 6.927 5.998v20.776h-4.567Z"/>
  <path fill="#E1E7EA" fill-rule="evenodd" d="M136.364 1h-6.534v6.5h-1V0h7.534v1Zm0 73h-6.534v-6.5h-1V75h7.534v-1Zm33.904 1h7.534v-7.5h-1V74h-6.534v1Zm0-74V0h7.534v7.5h-1V1h-6.534Z" clip-rule="evenodd"/>
  <path fill="#8B8D8F" d="M135.872 47.204c0 5.641-4.594 10.214-10.261 10.214-5.668 0-10.262-4.573-10.262-10.214 0-5.642 4.594-10.215 10.262-10.215 5.667 0 10.261 4.574 10.261 10.215Zm-19.705 0c0 5.191 4.228 9.4 9.444 9.4 5.215 0 9.443-4.209 9.443-9.4 0-5.192-4.228-9.4-9.443-9.4-5.216 0-9.444 4.208-9.444 9.4Z"/>
  <path fill="#E1E7EA" d="M125.61 50.268c1.7 0 3.078-1.372 3.078-3.064a3.071 3.071 0 0 0-3.078-3.065 3.071 3.071 0 0 0-3.078 3.065 3.071 3.071 0 0 0 3.078 3.064Z"/>
  <path fill="#171C1F" stroke="#E1E7EA" d="m121.975 49.495-14.511 5.778 4.353 2.167-5.003 4.98 1.814 1.805 5.003-4.98 2.539 4.695 5.805-14.445Z"/>
  <path stroke="#E1E7EA" d="M61.098 34.867H25a1.5 1.5 0 0 0-1.5 1.5V57.43a1.5 1.5 0 0 0 1.5 1.5h36.098a1.5 1.5 0 0 0 1.5-1.5V36.367a1.5 1.5 0 0 0-1.5-1.5Z"/>
  <path fill="#E1E7EA" d="m39.543 42.475-3.06 8.423h-1.25l3.523-9.242h.806l-.019.819Zm2.565 8.423-3.066-8.423-.02-.82h.807l3.535 9.243h-1.256Zm-.159-3.421v1.003h-5.192v-1.003h5.192Zm3.751-6.329v9.75h-1.18v-9.75h1.18Zm4.761 2.882v.901h-3.713v-.901h3.713Zm-2.456-1.67h1.174v6.837c0 .233.036.408.108.527a.516.516 0 0 0 .28.235c.113.038.236.057.367.057.098 0 .2-.009.305-.026.11-.02.193-.038.248-.05l.006.958a2.75 2.75 0 0 1-.368.083c-.148.03-.328.044-.54.044a1.83 1.83 0 0 1-.793-.171 1.276 1.276 0 0 1-.578-.572c-.14-.27-.21-.634-.21-1.091v-6.83Z"/>
  <path stroke="#E1E7EA" stroke-width="2" d="M84.865 40.633v11.194m-5.477-5.478h11.194"/>
</svg>
