<svg xmlns="http://www.w3.org/2000/svg" width="200" height="75" fill="none" viewBox="0 0 200 75">
  <g clip-path="url(#a)">
    <path fill="#E1E7EA" fill-rule="evenodd" d="M198.718 5.155c0-2.191-1.667-3.866-3.846-3.866h-30.769c-2.18 0-3.847 1.675-3.847 3.866v25.773c0 2.19 1.667 3.866 3.847 3.866h30.769c2.179 0 3.846-1.675 3.846-3.866V5.155ZM164.103 0h30.769C197.692 0 200 2.32 200 5.155v25.773c0 2.835-2.308 5.155-5.128 5.155h-30.769c-2.821 0-5.129-2.32-5.129-5.155V5.155c0-2.835 2.308-5.155 5.129-5.155Zm-80.77 5.412c0-2.19-1.666-3.866-3.846-3.866h-30.77c-2.179 0-3.845 1.676-3.845 3.866v25.774c0 2.19 1.666 3.865 3.846 3.865h30.77c2.179 0 3.845-1.675 3.845-3.865V5.412ZM48.718.258h30.77c2.82 0 5.127 2.32 5.127 5.154v25.774c0 2.835-2.307 5.154-5.128 5.154h-30.77c-2.82 0-5.127-2.32-5.127-5.154V5.412c0-2.835 2.307-5.154 5.128-5.154Zm-12.82 39.948c2.179 0 3.846 1.675 3.846 3.866v25.773c0 2.191-1.667 3.866-3.847 3.866H5.128c-2.18 0-3.846-1.675-3.846-3.866V44.072c0-2.19 1.667-3.866 3.846-3.866h30.77Zm0-1.289H5.127c-2.82 0-5.128 2.32-5.128 5.155v25.773C0 72.68 2.308 75 5.128 75h30.77c2.82 0 5.128-2.32 5.128-5.155V44.072c0-2.835-2.308-5.155-5.129-5.155Zm43.59 1.29c2.179 0 3.845 1.674 3.845 3.865v25.773c0 2.191-1.666 3.866-3.846 3.866h-30.77c-2.179 0-3.845-1.675-3.845-3.866V44.072c0-2.19 1.666-3.866 3.846-3.866h30.77Zm0-1.29h-30.77c-2.82 0-5.128 2.32-5.128 5.155v25.773c0 2.835 2.307 5.155 5.128 5.155h30.77c2.82 0 5.127-2.32 5.127-5.155V44.072c0-2.835-2.307-5.155-5.128-5.155Zm115.384 1.032c2.179 0 3.846 1.675 3.846 3.865v25.774c0 2.19-1.667 3.866-3.846 3.866h-30.769c-2.18 0-3.847-1.676-3.847-3.866V43.814c0-2.19 1.667-3.865 3.847-3.865h30.769Zm0-1.29h-30.769c-2.821 0-5.129 2.32-5.129 5.155v25.774c0 2.835 2.308 5.154 5.129 5.154h30.769c2.82 0 5.128-2.32 5.128-5.154V43.814c0-2.835-2.308-5.154-5.128-5.154Zm-71.795 1.547c2.179 0 3.846 1.675 3.846 3.866v25.773c0 2.191-1.667 3.866-3.846 3.866h-30.77c-2.179 0-3.845-1.675-3.845-3.866V44.072c0-2.19 1.666-3.866 3.846-3.866h30.769Zm0-1.289h-30.77c-2.82 0-5.127 2.32-5.127 5.155v25.773c0 2.835 2.307 5.155 5.128 5.155h30.769c2.82 0 5.128-2.32 5.128-5.155V44.072c0-2.835-2.308-5.155-5.128-5.155ZM58.974 20.62h10.257l-5.128-5.155-5.129 5.155Zm0 34.794h10.257l-5.128 5.154-5.129-5.154Zm47.436-3.867v10.31l5.128-5.155-5.128-5.155Zm-84.615 0v10.31L16.667 56.7l5.128-5.155Zm151.282-34.793h5.128v-5.155h2.564v5.155h5.128v2.577h-5.128v5.155h-2.564V19.33h-5.128v-2.577Zm0 38.66h12.82v2.577h-12.82v-2.578Z" clip-rule="evenodd"/>
  </g>
  <defs>
    <clipPath id="a">
      <path fill="#fff" d="M0 0h200v75H0z"/>
    </clipPath>
  </defs>
</svg>
