<svg xmlns="http://www.w3.org/2000/svg" width="200" height="79" fill="none" viewBox="0 0 200 79">
  <path fill="#E1E7EA" fill-rule="evenodd" d="M37.5 59.192c0-22.475 5.24-36.717 15.634-45.367C63.552 5.155 79.263 2 100.462 2s36.91 3.155 47.328 11.825c10.394 8.65 15.633 22.892 15.633 45.367a.5.5 0 0 0 1 0c0-22.607-5.269-37.21-15.994-46.136C137.728 4.15 121.708 1 100.462 1S63.196 4.15 52.494 13.056C41.77 21.98 36.5 36.586 36.5 59.192a.5.5 0 0 0 1 0Zm58.192-27.198a4.734 4.734 0 0 1 4.769-4.769 4.734 4.734 0 0 1 4.77 4.77v21.428a4.734 4.734 0 0 1-4.77 4.77 4.734 4.734 0 0 1-4.769-4.77V31.994Zm4.769-6.769a6.734 6.734 0 0 0-6.769 6.77v21.428a6.734 6.734 0 0 0 6.769 6.77 6.734 6.734 0 0 0 6.77-6.77V31.994a6.734 6.734 0 0 0-6.77-6.769Zm.71-17.013 5.355 5.356a1 1 0 1 1-1.414 1.414l-3.65-3.65v9.948a1 1 0 0 1-2 0v-9.948l-3.65 3.65a1 1 0 1 1-1.415-1.414l5.357-5.356.002-.003.706-.706.706.706.003.003Zm-6.774 62.224a1 1 0 0 1 1.414 0l3.651 3.65v-9.949a1 1 0 1 1 2 0v9.949l3.65-3.65a1 1 0 1 1 1.414 1.414l-5.354 5.355-.005.005-.705.704-.705-.705-.004-.004-5.356-5.355a1 1 0 0 1 0-1.414Z" clip-rule="evenodd"/>
</svg>
