<svg xmlns="http://www.w3.org/2000/svg" width="200" height="75" fill="none" viewBox="0 0 200 75">
  <path stroke="#E1E7EA" stroke-miterlimit="10" stroke-width="2" d="M16.538 74c6.373 0 11.539-5.166 11.539-11.538 0-6.373-5.166-11.539-11.539-11.539C10.166 50.923 5 56.09 5 62.462S10.166 74 16.538 74Z"/>
  <path fill="#E1E7EA" d="m125.692 22.77 10.731 6.115-6.115 10.73-1.385-4.846-.346-1.154-1.154.347L17.346 64.654l-.923-.577-.808-2.538.808-1.27L126.5 29.808l1.154-.346-.346-1.154-1.616-5.539Zm-1.846-2.308 2.192 8.077L15.5 59.115l-1.27 2.193 1.155 3.461 1.73 1.154 110.77-30.692 2.077 7.5 8.076-14.192-14.192-8.077Z" opacity=".6"/>
  <path fill="#E1E7EA" d="m195.538 13.846-4.615-4.615v3.461h-8.077V4.615h3.462L181.692 0l-4.615 4.615h3.461v8.077h-8.076V9.231l-4.616 4.615 4.616 4.616V15h8.076v8.077h-3.461l4.615 4.615 4.616-4.615h-3.462V15h8.077v3.462l4.615-4.616Zm-179 52.077a3.462 3.462 0 1 0 0-6.923 3.462 3.462 0 0 0 0 6.923Z"/>
</svg>
