<svg xmlns="http://www.w3.org/2000/svg" width="200" height="75" fill="none" viewBox="0 0 200 75">
  <path fill="#E1E7EA" d="M154.821.893v73.214H45.893V.893H154.82Zm.893-.893H45v75h110.714V0Z"/>
  <path fill="#E1E7EA" d="M100.357 31.25a6.212 6.212 0 0 1 6.25 6.25 6.212 6.212 0 0 1-6.25 6.25 6.211 6.211 0 0 1-6.25-6.25 6.212 6.212 0 0 1 6.25-6.25Zm0-.893c-3.928 0-7.143 3.215-7.143 7.143 0 3.929 3.215 7.143 7.143 7.143 3.929 0 7.143-3.214 7.143-7.143 0-3.928-3.214-7.143-7.143-7.143Z" opacity=".6"/>
  <path fill="#E1E7EA" d="M100.357 40.179a2.68 2.68 0 1 0 0-5.359 2.68 2.68 0 0 0 0 5.359Z"/>
  <path stroke="#E1E7EA" stroke-linecap="round" stroke-miterlimit="10" d="M96.786 27.232h7.143m-7.143-4.464h7.143m-7.143-4.464h7.143m-7.143-4.464h7.143m-7.143-4.465h7.143M96.786 4.91h7.143m-7.143 60.715h7.143m-7.143 4.465h7.143m-7.143-8.93h7.143m-7.143-4.464h7.143m-7.143-4.464h7.143m-7.143-4.464h7.143M90.09 41.071V33.93m-4.465 7.141V33.93m-4.465 7.141V33.93m-4.464 7.141V33.93m-4.464 7.141V33.93m-4.464 7.141V33.93m60.714 7.141V33.93m4.464 7.141V33.93m-8.928 7.141V33.93m-4.464 7.141V33.93m26.785 7.141V33.93m4.465 7.141V33.93m-8.929 7.141V33.93m-4.464 7.141V33.93m-22.322 7.141V33.93m-4.464 7.141V33.93m-47.321 7.141V33.93m-4.464 7.141V33.93m-4.465 7.141V33.93m-4.465 7.141V33.93" opacity=".6"/>
</svg>
