<svg width="39" height="78" viewBox="0 0 39 78" fill="none" xmlns="http://www.w3.org/2000/svg">
<g clip-path="url(#clip0_7228_166)">
<path d="M39 0V3H36.029L34.602 10.608L34.4252 12.6642L32.1863 13.2386L31.8558 13.3291L29.8252 13.9062L28.621 12.224L23.572 6.338L18.427 9.308L20.994 16.604L21.8833 18.4745L20.3548 19.9725L19.9789 20.3489L18.5016 21.8641L16.622 21L9.30801 18.427L6.33801 23.572L12.2202 28.6172L13.888 29.8439L13.3328 31.8385L13.1975 32.3483L12.683 34.4014L10.615 34.601L3 36.029V41.97L10.613 43.398L12.6842 43.6535L13.2616 45.9001L13.9001 48.1813L12.223 49.379L6.33801 54.427L9.30801 59.572L16.6394 56.9928L18.5308 56.1743L20.1636 57.8382L20.3489 58.021L21.8641 59.4984L21 61.377L18.427 68.691L23.572 71.661L28.568 65.836L29.6482 64.0575L32.016 64.7159L32.3483 64.8025L34.4014 65.317L34.601 67.384L36.029 75H39V78H35.1999C34.2909 78 33.5037 77.3886 33.2696 76.5238L33.2341 76.3686L31.6441 67.8886C31.6332 67.8303 31.6248 67.7716 31.6191 67.7126L31.3262 67.6369L31.034 67.5573L30.9261 67.6962L25.3091 74.2451C24.9405 74.6748 24.4227 74.9143 23.889 74.9407L23.7286 74.9422C23.4609 74.9339 23.1926 74.8719 22.9403 74.7531L22.791 74.6751L16.209 70.8749C15.4245 70.422 15.0484 69.5037 15.2731 68.6403L15.3223 68.4792L18.1853 60.3403C18.2058 60.2821 18.2289 60.225 18.2546 60.169L18.0418 59.959L17.8308 59.746L17.6597 59.8147L9.52081 62.6777C9.3606 62.7341 9.1973 62.7689 9.03436 62.7834L8.87167 62.7912C8.2224 62.7958 7.59712 62.4828 7.21533 61.9333L7.12509 61.791L3.32495 55.209C2.87204 54.4245 3.00543 53.4412 3.63174 52.8058L3.75491 52.6909L10.3038 47.0739C10.3486 47.0355 10.3949 46.9992 10.4428 46.9649L10.2864 46.3811L10.1994 46.3704L10.1114 46.3559L1.63141 44.7659C0.73802 44.5984 0.0769501 43.8523 0.0062561 42.9592L0 42.8001V35.1999C0 34.2909 0.611433 33.5037 1.47626 33.2696L1.63141 33.2341L10.1114 31.6441C10.1697 31.6332 10.2284 31.6248 10.2874 31.6191C10.3364 31.4238 10.3886 31.2285 10.4427 31.034L10.3727 30.9824L10.3038 30.9261L3.75491 25.3091C3.06736 24.7194 2.86687 23.7475 3.24686 22.9403L3.32495 22.791L7.12509 16.209C7.46477 15.6206 8.06624 15.262 8.70999 15.2142L8.87167 15.2088C9.03399 15.2099 9.19782 15.2309 9.35971 15.2731L9.52081 15.3223L17.6597 18.1853C17.7178 18.2058 17.775 18.2289 17.8309 18.2546L18.255 17.8299C18.2289 17.775 18.2058 17.7179 18.1853 17.6597L15.3223 9.52081C15.0029 8.61291 15.3755 7.6063 16.209 7.12508L22.791 3.32494C23.0362 3.1834 23.3007 3.09911 23.568 3.06924L23.7286 3.05785C24.3176 3.03975 24.9037 3.28221 25.3091 3.75491L30.9261 10.3038C30.965 10.3491 31.0015 10.3957 31.0356 10.4434C31.2285 10.3886 31.4238 10.3364 31.6198 10.2861C31.6248 10.2284 31.6332 10.1697 31.6441 10.1114L33.2341 1.63142C33.4115 0.685481 34.2374 0 35.1999 0H39ZM39 16V17C26.8497 17 17 26.8497 17 39C17 51.1503 26.8497 61 39 61V62C26.2975 62 16 51.7025 16 39C16 26.2975 26.2975 16 39 16ZM39 25V29C33.4772 29 29 33.4772 29 39C29 44.5228 33.4772 49 39 49V53C31.268 53 25 46.732 25 39C25 31.268 31.268 25 39 25Z" fill="#3F545F"/>
</g>
<defs>
<clipPath id="clip0_7228_166">
<rect width="39" height="78" fill="white"/>
</clipPath>
</defs>
</svg>
