<svg xmlns="http://www.w3.org/2000/svg" width="32" height="32" fill="none" viewBox="0 0 32 32">
  <g class="32x32/Solid/cloud">
    <g class="Primary">
      <path fill="#0B2F41" fill-rule="evenodd" d="M9.576 12.013a8.003 8.003 0 0 1 15.396 2.319A6 6 0 0 1 23 26H10.001a7 7 0 0 1-.424-13.987Z" clip-rule="evenodd"/>
      <path fill="#2FA2DB" d="m9.576 12.013.06.998.632-.038.236-.587-.928-.373Zm15.396 2.319-.996.082.053.649.615.213.329-.944ZM17 6a9.003 9.003 0 0 0-8.351 5.639l1.855.747A7.003 7.003 0 0 1 17 8V6Zm8.97 8.25A9 9 0 0 0 17 6v2a7 7 0 0 1 6.976 6.414l1.993-.165ZM30 20a7.002 7.002 0 0 0-4.699-6.613l-.657 1.89A5.003 5.003 0 0 1 28 20h2Zm-7 7a7 7 0 0 0 7-7h-2a5 5 0 0 1-5 5v2Zm-4 0h4v-2h-4v2Zm0-2h-8v2h8v-2Zm-8 0h-1v2h1v-2Zm-1 0a6 6 0 0 1-6-6H2a8 8 0 0 0 8 8v-2Zm-6-6a6 6 0 0 1 5.636-5.99l-.12-1.996A8 8 0 0 0 2 19h2Z"/>
    </g>
  </g>
</svg>
