<svg xmlns="http://www.w3.org/2000/svg" width="48" height="48" fill="none" viewBox="0 0 48 48">
  <g class="48x48/Solid/nofound">
    <path fill="#A5B7C0" d="M20.833 5c8.744 0 15.834 7.089 15.834 15.833 0 3.611-1.209 6.94-3.244 9.605l8.959 8.959a2.111 2.111 0 0 1-2.985 2.985l-8.96-8.96a15.767 15.767 0 0 1-9.604 3.245C12.089 36.667 5 29.577 5 20.833S12.089 5 20.833 5Zm6.95 8.64a2 2 0 0 0-2.829 0L20.8 17.796l-4.155-4.154a2 2 0 1 0-2.828 2.828l4.155 4.154-4.331 4.331a2 2 0 1 0 2.828 2.828l4.33-4.33 4.332 4.33a2 2 0 1 0 2.828-2.828l-4.331-4.331 4.154-4.154a2 2 0 0 0 0-2.828Z" class="Primary"/>
  </g>
</svg>
