<svg xmlns="http://www.w3.org/2000/svg" width="24" height="24" fill="none" viewBox="0 0 24 24">
  <g class="24x24/Solid/deny">
    <path fill="#EF5350" d="M22 10.771V8.333c0-1.036-.535-2-1.478-2.43C18.794 5.115 15.696 4 12 4 8.304 4 5.206 5.115 3.478 5.903 2.535 6.333 2 7.297 2 8.333v2.438a1 1 0 0 0 1.203.98l4.587-.952a1 1 0 0 0 .775-.77l.578-2.696s.714-.666 2.857-.666c2.143 0 2.857.666 2.857.666l.578 2.696a1 1 0 0 0 .775.77l4.587.952A1 1 0 0 0 22 10.77Z" class="Primary"/>
    <path fill="#fff" fill-rule="evenodd" d="M13 12h-2v3H8.6a.2.2 0 0 0-.12.36l3.4 2.55a.2.2 0 0 0 .24 0l3.4-2.55a.2.2 0 0 0-.12-.36H13v-3Z" class="Secondary" clip-rule="evenodd"/>
  </g>
</svg>
