<svg xmlns="http://www.w3.org/2000/svg" width="24" height="24" fill="none" viewBox="0 0 24 24">
  <g class="24x24/Solid/error">
    <path fill="#F44336" d="M9.05 21.7a3.114 3.114 0 0 1-2.225-.925l-3.9-3.9A3.126 3.126 0 0 1 2 14.65v-5.6a3.113 3.113 0 0 1 .925-2.225l3.9-3.9A3.125 3.125 0 0 1 9.05 2h5.6a3.113 3.113 0 0 1 2.225.925l3.9 3.9A3.125 3.125 0 0 1 21.7 9.05v5.6a3.114 3.114 0 0 1-.925 2.225l-3.9 3.9a3.125 3.125 0 0 1-2.225.925h-5.6Zm2.8-8.175 1.9 1.9a1.1 1.1 0 0 0 .838.337c.325-.008.604-.129.837-.362.233-.233.35-.513.35-.838 0-.324-.117-.604-.35-.837l-1.9-1.875 1.9-1.9c.233-.233.35-.512.35-.837 0-.325-.117-.605-.35-.838a1.143 1.143 0 0 0-.838-.35c-.325 0-.604.117-.837.35l-1.9 1.9-1.9-1.9a1.129 1.129 0 0 0-.825-.35c-.317 0-.592.117-.825.35-.233.233-.35.512-.35.838 0 .325.117.604.35.837l1.875 1.9-1.9 1.9a1.085 1.085 0 0 0-.338.825c.009.317.13.592.363.825.233.233.512.35.837.35.325 0 .605-.117.838-.35l1.875-1.875Z" class="Primary"/>
  </g>
</svg>
