<svg xmlns="http://www.w3.org/2000/svg" width="24" height="24" fill="none" viewBox="0 0 24 24">
  <g class="24x24/Solid/error2">
    <path fill="#F44336" fill-rule="evenodd" d="M9.157 22a3.162 3.162 0 0 1-2.259-.94L2.94 17.103A3.172 3.172 0 0 1 2 14.842V9.158a3.16 3.16 0 0 1 .94-2.259L6.897 2.94A3.173 3.173 0 0 1 9.158 2h5.685a3.16 3.16 0 0 1 2.259.94l3.959 3.958A3.173 3.173 0 0 1 22 9.158v5.685a3.161 3.161 0 0 1-.94 2.259l-3.958 3.959a3.172 3.172 0 0 1-2.26.939H9.158ZM8 10a1 1 0 0 0-1 1v2a1 1 0 0 0 1 1h8a1 1 0 0 0 1-1v-2a1 1 0 0 0-1-1H8Z" class="Primary" clip-rule="evenodd"/>
  </g>
</svg>
