<svg xmlns="http://www.w3.org/2000/svg" width="24" height="24" fill="none" viewBox="0 0 24 24">
  <g class="24x24/Solid/favorite">
    <path fill="#A3B8C2" d="M11.99 19.71c-.214 0-.429-.039-.645-.116a1.517 1.517 0 0 1-.57-.361l-1.437-1.306a65.86 65.86 0 0 1-4.749-4.764C3.196 11.602 2.5 9.931 2.5 8.15c0-1.42.479-2.607 1.436-3.564C4.893 3.629 6.08 3.15 7.5 3.15c.806 0 1.603.186 2.39.558.786.372 1.49.975 2.11 1.811.62-.836 1.324-1.44 2.11-1.811a5.54 5.54 0 0 1 2.39-.558c1.42 0 2.607.479 3.564 1.436.957.957 1.436 2.145 1.436 3.564 0 1.801-.708 3.49-2.125 5.068a63.8 63.8 0 0 1-4.739 4.724l-1.42 1.29a1.51 1.51 0 0 1-.576.362 1.953 1.953 0 0 1-.65.116Z" class="Primary"/>
  </g>
</svg>
