<svg xmlns="http://www.w3.org/2000/svg" width="24" height="24" fill="none" viewBox="0 0 24 24">
  <g class="24x24/Solid/info">
    <path fill="#1E88E5" d="M12 17.375c.39 0 .716-.132.98-.395a1.33 1.33 0 0 0 .395-.98v-3.625c0-.39-.132-.716-.395-.98A1.33 1.33 0 0 0 12 11c-.39 0-.716.132-.98.395a1.33 1.33 0 0 0-.395.98V16c0 .39.132.716.395.98.264.263.59.395.98.395ZM12 9.5c.425 0 .781-.144 1.069-.431.287-.288.431-.644.431-1.069 0-.425-.144-.781-.431-1.069A1.451 1.451 0 0 0 12 6.5c-.425 0-.781.144-1.069.431A1.451 1.451 0 0 0 10.5 8c0 .425.144.781.431 1.069.288.287.644.431 1.069.431Zm0 13.35c-1.517 0-2.933-.284-4.25-.852a10.926 10.926 0 0 1-3.435-2.313 10.926 10.926 0 0 1-2.313-3.435c-.568-1.317-.852-2.733-.852-4.25s.284-2.933.852-4.25a10.927 10.927 0 0 1 2.313-3.435A10.927 10.927 0 0 1 7.75 2.002c1.317-.568 2.733-.852 4.25-.852s2.933.284 4.25.852a10.927 10.927 0 0 1 3.435 2.313 10.928 10.928 0 0 1 2.313 3.435c.568 1.317.852 2.733.852 4.25s-.284 2.933-.852 4.25a10.927 10.927 0 0 1-2.313 3.435 10.926 10.926 0 0 1-3.435 2.313c-1.317.568-2.733.852-4.25.852Z" class="Primary"/>
  </g>
</svg>
