<svg xmlns="http://www.w3.org/2000/svg" width="24" height="24" fill="none" viewBox="0 0 24 24">
  <g class="24x24/Solid/live_preview">
    <path fill="#ffffff" fill-rule="evenodd" d="M5 6h14a1 1 0 0 0 1-1V4H4v1a1 1 0 0 0 1 1Zm15 2a1 1 0 0 0-1-1H5a1 1 0 0 0-1 1v8a1 1 0 0 0 1 1h14a1 1 0 0 0 1-1V8Zm-1 10H5a1 1 0 0 0-1 1v1h16v-1a1 1 0 0 0-1-1Zm-7-7.25a1.25 1.25 0 1 0 0 2.5 1.25 1.25 0 0 0 0-2.5Zm-3.5 0a1.25 1.25 0 1 0 0 2.5 1.25 1.25 0 0 0 0-2.5ZM14.25 12a1.25 1.25 0 1 1 2.5 0 1.25 1.25 0 0 1-2.5 0Z" class="Primary" clip-rule="evenodd"/>
  </g>
</svg>
