<svg xmlns="http://www.w3.org/2000/svg" width="24" height="24" fill="none" viewBox="0 0 24 24">
  <g class="24x24/Solid/microphone_off">
    <path fill="#fff" fill-rule="evenodd" d="M12 3a3 3 0 0 0-3 3h2v1H9v.586L4.707 3.293 3.293 4.707 9 10.414V12a3 3 0 0 0 4.293 2.708l1.103 1.102A4.5 4.5 0 0 1 7.5 12a.5.5 0 0 0-1 0 5.5 5.5 0 0 0 5 5.478V20h-3a.5.5 0 0 0 0 1h7a.5.5 0 1 0 0-1h-3v-2.522a5.469 5.469 0 0 0 2.617-.946l4.176 4.175 1.414-1.414-4.175-4.175A5.48 5.48 0 0 0 17.5 12a.5.5 0 1 0-1 0 4.48 4.48 0 0 1-.69 2.396l-1.102-1.103A2.99 2.99 0 0 0 15 12v-1h-2v-1h2V9h-2V8h2V7h-2V6h2a3 3 0 0 0-3-3Zm-1.586 6H11V8H9.414l1 1Z" class="Primary" clip-rule="evenodd"/>
  </g>
</svg>
