<svg xmlns="http://www.w3.org/2000/svg" width="24" height="24" fill="none" viewBox="0 0 24 24">
  <g class="24x24/Solid/singal1">
    <path fill="#fff" fill-rule="evenodd" d="M6.343 6.343 4.93 4.93A9.969 9.969 0 0 0 2 12a9.969 9.969 0 0 0 2.93 7.072l1.414-1.414A7.975 7.975 0 0 1 4 12c0-2.21.895-4.21 2.343-5.657Zm12.728 12.728A9.97 9.97 0 0 0 22 12c0-2.76-1.119-5.26-2.928-7.07l-1.414 1.414A7.975 7.975 0 0 1 20 12c0 2.21-.895 4.21-2.343 5.657l1.414 1.414Zm-9.9-9.9L7.758 7.758A5.981 5.981 0 0 0 6 12c0 1.657.672 3.158 1.758 4.244l1.415-1.415A3.987 3.987 0 0 1 8 12c0-1.105.448-2.105 1.172-2.828Zm7.072 7.072A5.981 5.981 0 0 0 18 12a5.981 5.981 0 0 0-1.756-4.242l-1.415 1.415A3.987 3.987 0 0 1 16 12a3.987 3.987 0 0 1-1.172 2.828l1.415 1.415ZM14 12a2 2 0 1 1-4 0 2 2 0 0 1 4 0Z" class="Primary" clip-rule="evenodd"/>
  </g>
</svg>
