<svg xmlns="http://www.w3.org/2000/svg" width="24" height="24" fill="none" viewBox="0 0 24 24">
  <g class="24x24/Solid/speed">
    <path fill="#ffffff" fill-rule="evenodd" d="M11.49 6.766V4a8.987 8.987 0 0 0-5.511 2.335l1.93 1.938a6.237 6.237 0 0 1 3.58-1.507Zm.203 4.668c-.846.612-1.058 1.61-.311 2.36.294.294.648.44 1.009.44.477 0 .966-.255 1.341-.753 1.238-1.642 4.718-6.783 4.718-6.783s-5.1 3.521-6.757 4.736Zm6.55 1.089H21a9.034 9.034 0 0 0-1.86-4.999c-.29.426-.936 1.378-1.673 2.45.427.766.7 1.63.777 2.549ZM5.23 7.099 7.164 9.04a6.277 6.277 0 0 0-1.408 3.483H3a9.032 9.032 0 0 1 2.23-5.424Zm.527 6.482a6.29 6.29 0 0 0 1.983 4.087l.035.032a.47.47 0 0 1-.008.699l-1.376 1.204a.466.466 0 0 1-.632-.017A9.046 9.046 0 0 1 3 13.581h2.757Zm10.454 4.087a6.29 6.29 0 0 0 1.983-4.087h2.757a9.046 9.046 0 0 1-2.76 6.005.466.466 0 0 1-.631.018l-1.377-1.205a.47.47 0 0 1-.007-.699l.035-.032ZM12.546 4a8.961 8.961 0 0 1 5.099 1.96c-.408.282-1.346.931-2.412 1.673a6.217 6.217 0 0 0-2.688-.866V4Z" class="Primary" clip-rule="evenodd"/>
  </g>
</svg>
