<svg xmlns="http://www.w3.org/2000/svg" width="24" height="24" fill="none" viewBox="0 0 24 24">
  <g class="24x24/Solid/st_alarm_on">
    <path fill="#fff" d="M22.3 12.5c0-1-.8-1.8-1.8-1.8s-1.8.8-1.8 1.8c0 .5.2 1 .6 1.3-.9 1.6-2.4 2.8-4.3 3.1V16c1.8-1.2 3-3.2 3-5.5C18 6.9 15.1 4 11.5 4S5 6.9 5 10.5c0 2.3 1.2 4.3 3 5.5v3c0 .6.4 1 1 1h5c.6 0 1-.4 1-1v-.1c2.8-.4 5.3-2.3 6.4-4.9.5-.3.9-.8.9-1.5ZM11.5 9c.8 0 1.5.7 1.5 1.5s-.7 1.5-1.5 1.5-1.5-.7-1.5-1.5.7-1.5 1.5-1.5Z" class="Primary"/>
  </g>
</svg>
