<svg xmlns="http://www.w3.org/2000/svg" width="24" height="24" fill="none" viewBox="0 0 24 24">
  <g class="24x24/Solid/st_bell_off">
    <path fill="#fff" fill-rule="evenodd" d="M3.3 4.3c.4-.4 1-.4 1.4 0l16 16c.4.4.4 1 0 1.4-.2.2-.5.3-.7.3-.2 0-.5-.1-.7-.3L15.6 18H5.2c-.9 0-.9-1.3 0-1.3 1.6-.6 2.6-4.7 2.8-6.3L3.3 5.7c-.4-.4-.4-1 0-1.4ZM16 10c0-1.7-1-3.1-2.5-3.7V6c0-.8-.7-1.5-1.5-1.5s-1.5.7-1.5 1.5v.3c-.1.05-.225.1-.35.15a4.9 4.9 0 0 0-.35.15l6.8 6.8c-.4-1.3-.6-2.8-.6-3.4Zm-4 11c1.1 0 2-.9 2-2h-4c0 1.1.9 2 2 2Z" class="Primary" clip-rule="evenodd"/>
  </g>
</svg>
