<svg xmlns="http://www.w3.org/2000/svg" width="24" height="24" fill="none" viewBox="0 0 24 24">
  <g class="24x24/Solid/st_escalator__stop">
    <path fill="#fff" fill-rule="evenodd" d="M4 10c-.3 0-.5-.1-.7-.3-.4-.4-.4-1 0-1.4L4.6 7 3.3 5.7c-.4-.4-.4-1 0-1.4.4-.4 1-.4 1.4 0L6 5.6l1.3-1.3c.4-.4 1-.4 1.4 0 .4.4.4 1 0 1.4L7.4 7l1.3 1.3c.4.4.4 1 0 1.4-.2.2-.4.3-.7.3-.3 0-.5-.1-.7-.3L6 8.4 4.7 9.7c-.2.2-.4.3-.7.3Zm11.5-2h3c1.4 0 2.6 1.1 2.6 2.5S20 13 18.6 13h-2l-6.3 6.3c-.5.4-1.1.7-1.8.7h-3C4.1 20 3 18.9 3 17.5S4.1 15 5.5 15h2l6.2-6.3c.5-.4 1.1-.7 1.8-.7Z" class="Primary" clip-rule="evenodd"/>
  </g>
</svg>
