<svg xmlns="http://www.w3.org/2000/svg" width="24" height="24" fill="none" viewBox="0 0 24 24">
  <g class="24x24/Solid/st_fire">
    <path fill="#fff" d="M18.8 15c.9-2.8-.9-5.6-2-8.6-.1.9-.4 5.1-1.9 3.8 1-2.9-2.6-3.3-2.1-8.6-3.2 2.1-2 7-2.8 7.9.2-.7-1-2.4-3.9-3.6 1.3 2 1.4 3.9.2 6.4-1.4 3.1.1 6.2 3.1 7.6-1.3.6-2.8.9-3.8 1.1h12.9c-1.1-.2-2.5-.5-3.7-1 3-.7 3.3-2.9 4-5Zm-4.4 4.8c-1.1-.5-2-1.3-2.4-2.4-.3 1.1-1.1 1.9-2.2 2.4-1.1-1.9-2.1-4.2-.6-6.3.4.6.9 1.1 1.4 1.6.4-1 1.2-3.3 2-4.2.2.9 1.4 3 1.9 3.8.8.2 1-.8 1.3-1.3 1.6 1.4-.1 4.9-1.4 6.4Z" class="Primary"/>
  </g>
</svg>
