<svg xmlns="http://www.w3.org/2000/svg" width="24" height="24" fill="none" viewBox="0 0 24 24">
  <g class="24x24/Solid/st_heateroff">
    <path fill="#fff" fill-rule="evenodd" d="M2.047 7.225a.972.972 0 0 1 .52-1.187C5.511 4.719 8.688 4 12 4c3.312 0 6.488.719 9.433 2.037a.972.972 0 0 1 .519 1.187L19.07 16.29c-.185.582-.844.861-1.41.633-.433-.175-.873-.33-1.319-.465l.018-.094c.049-.233.122-.428.198-.621l.012-.029c.033-.083.073-.184.103-.278.032-.1.078-.257.078-.436H18l-2-3-2 3-2-3-2 3-2-3-2 3h1.236c-.015.043-.036.096-.067.176l-.008.018c-.08.204-.194.498-.27.863-.044.21-.074.439-.083.685-.157.058-.313.118-.468.18-.567.23-1.226-.05-1.411-.632L2.047 7.225Zm6.336 9.033-.024.106c-.092.44-.111 1.095.325 2.06.552 1.224.595 2.102.417 2.788-.083.318-.207.563-.285.72l-.006.01a1.93 1.93 0 0 0-.07.148l-.002.003A.333.333 0 0 0 8.75 22h-1.5c0-.19.05-.349.093-.456.038-.1.088-.197.122-.266l.006-.011a2.09 2.09 0 0 0 .178-.433c.072-.277.115-.8-.333-1.792-.406-.902-.53-1.662-.508-2.3a15.73 15.73 0 0 1 1.575-.484ZM8.75 15h2.486a6.236 6.236 0 0 1-.067.176l-.008.018a5.682 5.682 0 0 0-.222.658c-.87.062-1.723.199-2.556.406.048-.187.11-.351.174-.515l.012-.029a5.14 5.14 0 0 0 .103-.278c.032-.1.078-.257.078-.436ZM8 15h-.75H8Zm4.526.824a3.36 3.36 0 0 0-.167.54c-.092.44-.111 1.095.325 2.06.552 1.224.595 2.102.417 2.788-.083.318-.207.563-.285.72l-.006.01a1.93 1.93 0 0 0-.07.148l-.002.003A.334.334 0 0 0 12.75 22h-1.5c0-.19.05-.349.092-.456.04-.1.089-.197.123-.266l.006-.011c.078-.155.138-.277.178-.433.072-.277.115-.8-.333-1.792-.564-1.25-.583-2.229-.425-2.985.015-.071.031-.14.048-.205a14.98 14.98 0 0 1 1.587-.028ZM12.75 15h2.486a6.236 6.236 0 0 1-.067.176l-.008.018c-.08.204-.194.498-.27.863l-.008.038a14.92 14.92 0 0 0-2.357-.271l.031-.081.012-.029a5.14 5.14 0 0 0 .103-.278c.032-.1.078-.257.078-.436ZM12 15h-.75.75Zm3.25 0H16h-.75Zm-.367 1.095c.493.097.98.219 1.458.363-.074.438-.063 1.067.343 1.967.552 1.223.595 2.1.417 2.787-.083.318-.207.563-.285.72l-.006.01a1.93 1.93 0 0 0-.07.148l-.002.003A.334.334 0 0 0 16.75 22h-1.5c0-.19.05-.349.092-.456.04-.1.089-.197.123-.266l.006-.011c.078-.155.138-.277.178-.433.072-.277.115-.8-.333-1.792-.554-1.23-.582-2.196-.433-2.947Z" class="Primary" clip-rule="evenodd"/>
    <g class="Secondary" filter="url(#a)">
      <circle cx="12" cy="8.5" r="3.5" fill="#BABABA"/>
    </g>
  </g>
  <defs>
    <filter id="a" width="7" height="8" x="8.5" y="5" class="a" color-interpolation-filters="sRGB" filterUnits="userSpaceOnUse">
      <feFlood flood-opacity="0" result="BackgroundImageFix"/>
      <feBlend in="SourceGraphic" in2="BackgroundImageFix" result="shape"/>
      <feColorMatrix in="SourceAlpha" result="hardAlpha" values="0 0 0 0 0 0 0 0 0 0 0 0 0 0 0 0 0 0 127 0"/>
      <feOffset dy="2"/>
      <feGaussianBlur stdDeviation=".5"/>
      <feComposite in2="hardAlpha" k2="-1" k3="1" operator="arithmetic"/>
      <feColorMatrix values="0 0 0 0 0 0 0 0 0 0 0 0 0 0 0 0 0 0 0.4 0"/>
      <feBlend in2="shape" result="effect1_innerShadow_7587_717"/>
    </filter>
  </defs>
</svg>
