<svg xmlns="http://www.w3.org/2000/svg" width="24" height="24" fill="none" viewBox="0 0 24 24">
  <g class="24x24/Solid/st_hvac_fan_stop">
    <path fill="#fff" fill-rule="evenodd" d="M14 5s-.2 2.2-.9 5.4c-.3-.3-.7-.4-1.1-.3-.4 0-.8.1-1.1.3C10.3 7.3 10 5 10 5c0-1.1.9-2 2-2s2 .9 2 2Zm-4 14s.2-2.2.9-5.4c.3.3.7.4 1.1.4.4 0 .8-.1 1.1-.3.6 3 .9 5.3.9 5.3 0 1.1-.9 2-2 2s-2-.9-2-2Zm9-9s-2.3.3-5.4.9c.2.3.4.7.4 1.1 0 .4-.1.8-.4 1.1 3.2.7 5.4.9 5.4.9 1.1 0 2-.9 2-2s-.9-2-2-2ZM5 10s2.2.2 5.4.9c-.3.3-.4.7-.4 1.1 0 .4.1.8.3 1.1-3 .6-5.3.9-5.3.9-1.1 0-2-.9-2-2s.9-2 2-2Z" class="Primary" clip-rule="evenodd"/>
  </g>
</svg>
