<svg xmlns="http://www.w3.org/2000/svg" width="24" height="24" fill="none" viewBox="0 0 24 24">
  <g class="24x24/Solid/st_heater">
    <path fill="#fff" fill-rule="evenodd" d="M2.047 7.225a.972.972 0 0 1 .52-1.187C5.511 4.719 8.688 4 12 4c3.312 0 6.488.719 9.433 2.037a.972.972 0 0 1 .519 1.187L19.07 16.29c-.185.582-.844.861-1.41.633a15.597 15.597 0 0 0-.964-.353c-.446-1.594-.437-2.745-.327-3.569a9.27 9.27 0 0 1 .218-1.083l.018-.072c.065-.254.145-.573.145-.846H18l-2-3-2 3-2-3-2 3-2-3-2 3h2.017-.767c0 .067-.028.194-.118.554-.08.317-.182.735-.25 1.25-.127.952-.132 2.196.275 3.815-.275.094-.548.195-.817.304-.567.229-1.226-.05-1.411-.633L2.047 7.225ZM8.6 16.206c.036.147.076.299.121.454.524 1.826.54 3.04.394 3.927a6.624 6.624 0 0 1-.258 1.013l-.002.008c-.09.278-.105.35-.105.392h-1.5c0-.305.096-.602.163-.81l.014-.04a5.33 5.33 0 0 0 .208-.808c.104-.625.12-1.611-.356-3.268a14.05 14.05 0 0 1-.122-.455c.473-.16.955-.299 1.443-.413Zm2.388-.357c-.811.055-1.608.175-2.388.357-.348-1.407-.333-2.445-.231-3.205a9.27 9.27 0 0 1 .218-1.083l.018-.072c.065-.254.145-.573.145-.846h3.267-.767c0 .067-.028.194-.118.554-.08.317-.182.735-.25 1.25-.106.795-.127 1.794.106 3.045Zm1.524-.026c.056.265.125.543.209.837.524 1.826.54 3.04.394 3.927a6.75 6.75 0 0 1-.258 1.013l-.002.008c-.09.278-.105.35-.105.392h-1.5c0-.305.096-.602.163-.81l.014-.04c.077-.242.155-.488.208-.808.104-.625.12-1.611-.356-3.268-.124-.433-.22-.841-.291-1.225a14.96 14.96 0 0 1 1.524-.026Zm0 0c-.256-1.214-.235-2.133-.143-2.822a9.27 9.27 0 0 1 .218-1.083l.018-.072c.065-.254.145-.573.145-.846h3.267-.767c0 .067-.028.194-.118.554-.08.317-.182.735-.25 1.25-.114.853-.13 1.941.161 3.324a14.917 14.917 0 0 0-2.53-.305Zm2.531.305c.56.116 1.111.264 1.653.442l.025.09c.524 1.826.54 3.04.394 3.927a6.75 6.75 0 0 1-.258 1.013l-.002.008c-.09.278-.105.35-.105.392h-1.5c0-.305.096-.602.163-.81l.014-.04c.077-.242.155-.488.208-.808.104-.625.12-1.611-.356-3.268-.095-.33-.172-.645-.236-.946Z" class="Primary" clip-rule="evenodd"/>
  </g>
</svg>
