<svg xmlns="http://www.w3.org/2000/svg" width="24" height="24" fill="none" viewBox="0 0 24 24">
  <g class="24x24/Solid/st_lights_off">
    <path fill="#fff" fill-rule="evenodd" d="M3.3 4.3c.4-.4 1-.4 1.4 0l16 16c.4.4.4 1 0 1.4-.2.2-.5.3-.7.3-.2 0-.5-.1-.7-.3l-4.8-4.8v.1h-5c0-.736-.53-1.579-1.101-2.488C7.729 13.446 7 12.287 7 11.1c0-.5.1-1 .2-1.5L3.3 5.7c-.4-.4-.4-1 0-1.4ZM17 11.1C17 8.3 14.8 6 12 6c-.8 0-1.5.2-2.2.5l6.6 6.6c.3-.6.6-1.3.6-2ZM9.5 21l2.5 1 2.5-1v-3h-5v3Z" class="Primary" clip-rule="evenodd"/>
  </g>
</svg>
