<svg xmlns="http://www.w3.org/2000/svg" width="24" height="24" fill="none" viewBox="0 0 24 24">
  <g class="24x24/Solid/st_power_on">
    <path fill="#fff" fill-rule="evenodd" d="M11 10c0 .6.4 1 1 1s1-.4 1-1V4c0-.6-.4-1-1-1s-1 .4-1 1v6Zm-8 2c0 5 4 9 9 9s9-4 9-9c0-3.2-1.7-6.2-4.5-7.9-.5-.2-1.1-.1-1.4.4-.2.5-.1 1.1.4 1.4C17.7 7.2 19 9.5 19 12c0 3.9-3.1 7-7 7s-7-3.1-7-7c0-2.5 1.3-4.8 3.5-6.1.5-.2.6-.8.4-1.3-.3-.5-.9-.7-1.4-.4C4.7 5.8 3 8.8 3 12Z" class="Primary" clip-rule="evenodd"/>
  </g>
</svg>
