<svg xmlns="http://www.w3.org/2000/svg" width="24" height="24" fill="none" viewBox="0 0 24 24">
  <g class="24x24/Solid/st_wipers_on">
    <path fill="#fff" d="M22 7.4c-.1-.3-.3-.5-.6-.6l-1-.4c-5.3-2-11.4-2-16.8 0l-1 .4c-.3.2-.5.4-.6.6-.1.3-.1.6 0 .9l3.5 7.2c.2.5.7.7 1.2.5l.8-.3c.2-.1.5-.1.7-.2l1.8 4.8c.1.4.5.7.9.7.1 0 .2 0 .3-.1.5-.2.8-.8.6-1.3l-1.7-4.5c2.1-.3 4.2-.1 6.1.6l.8.3c.1 0 .2.1.3.1.4 0 .7-.2.9-.6L22 8.3c.1-.3.1-.6 0-.9Zm-4.9 6.4c-1.7-.5-3.4-.8-5.1-.8-.8 0-1.6.1-2.4.2L7.9 8.7c-.1-.6-.7-.8-1.2-.6-.6.1-.8.7-.6 1.2l1.6 4.3c-.2.1-.5.1-.7.2L4.3 8.4c4.9-1.8 10.5-1.8 15.4 0l-2.6 5.4Z" class="Primary"/>
  </g>
</svg>
