<svg xmlns="http://www.w3.org/2000/svg" width="24" height="24" fill="none" viewBox="0 0 24 24">
  <g class="24x24/Solid/stmessage">
    <path fill="#fff" fill-rule="evenodd" d="M6 6c0 .6-.4 1-1 1H1c-.6 0-1-.4-1-1s.4-1 1-1h4c.6 0 1 .4 1 1Zm3.8-1h12.6c1.1 0 1.8.8 1.5 1.8l-2.6 9.3c-.3 1.1-1.4 1.9-2.5 1.9H6.1c-1.1 0-1.8-.8-1.5-1.9l2.6-9.3C7.5 5.8 8.7 5 9.8 5Zm4.1 5.7L21.8 7h-12c-.1 0-.2 0-.3.1l4.4 3.6Zm4.9 5.3c.2 0 .6-.3.6-.4l1.7-6.1-6.9 3.2c-.1.1-.3.1-.4.1-.2 0-.4-.1-.6-.2L8.8 9l-2 7h12ZM4 9c.6 0 1 .4 1 1s-.4 1-1 1H2c-.6 0-1-.4-1-1s.4-1 1-1h2Zm-1.7 4.3c-.2.2-.3.4-.3.7 0 .3.1.5.3.7.2.2.4.3.7.3.3 0 .5-.1.7-.3.2-.2.3-.4.3-.7 0-.3-.1-.5-.3-.7-.4-.4-1-.4-1.4 0Z" class="Primary" clip-rule="evenodd"/>
  </g>
</svg>
