<svg xmlns="http://www.w3.org/2000/svg" width="24" height="24" fill="none" viewBox="0 0 24 24">
  <g class="24x24/Solid/warning">
    <path fill="#FFC107" d="M12 22.75c-.4 0-.792-.08-1.175-.241a3.557 3.557 0 0 1-1.05-.684l-7.6-7.6a3.556 3.556 0 0 1-.684-1.05A3.008 3.008 0 0 1 1.25 12c0-.4.08-.796.238-1.188a3.09 3.09 0 0 1 .687-1.037l7.6-7.6a2.968 2.968 0 0 1 1.05-.704 3.245 3.245 0 0 1 2.363.004c.391.15.737.383 1.037.7l7.6 7.6c.317.3.55.646.7 1.037a3.244 3.244 0 0 1 .004 2.362 2.969 2.969 0 0 1-.704 1.051l-7.6 7.6c-.3.3-.646.53-1.037.688A3.145 3.145 0 0 1 12 22.75Zm0-9.55c.39 0 .716-.132.98-.395a1.33 1.33 0 0 0 .395-.98v-3.25c0-.39-.132-.716-.395-.98A1.33 1.33 0 0 0 12 7.2c-.39 0-.716.132-.98.395a1.33 1.33 0 0 0-.395.98v3.25c0 .39.132.716.395.98.264.263.59.395.98.395Zm0 3.75c.39 0 .716-.132.98-.395a1.33 1.33 0 0 0 .395-.98c0-.39-.132-.716-.395-.98A1.33 1.33 0 0 0 12 14.2c-.39 0-.716.132-.98.395a1.33 1.33 0 0 0-.395.98c0 .39.132.716.395.98.264.263.59.395.98.395Z" class="Primary"/>
  </g>
</svg>
