<svg xmlns="http://www.w3.org/2000/svg" width="24" height="24" fill="none" viewBox="0 0 24 24">
  <g class="24x24/Solid/wiper">
    <path fill="#fff" fill-rule="evenodd" d="M2.566 6.038a.972.972 0 0 0-.519 1.187L4.93 16.29c.185.582.844.861 1.41.633A15.06 15.06 0 0 1 12 15.815c1.976 0 3.878.388 5.66 1.108.567.228 1.226-.05 1.411-.633l2.882-9.066a.972.972 0 0 0-.52-1.187C18.489 4.72 15.313 4 12 4c-3.311 0-6.488.719-9.434 2.038Zm10.347 13.553L7.923 7.615l-1.846.77 4.993 11.982a1 1 0 1 0 1.843-.776Z" class="Primary" clip-rule="evenodd"/>
  </g>
</svg>
