<svg xmlns="http://www.w3.org/2000/svg" width="24" height="24" fill="none" viewBox="0 0 24 24">
  <g class="24x24/Outline/code_blocks">
    <path fill="#B0BEC4" fill-rule="evenodd" d="M14.844 4.743a1 1 0 0 0-1.94-.485l-3.75 15a1 1 0 0 0 1.94.485l3.75-15ZM8.8 8.45a1 1 0 0 0-1.4-.2l-4 3a1 1 0 0 0 0 1.6l4 3a1 1 0 1 0 1.2-1.6l-2.933-2.2L8.6 9.85a1 1 0 0 0 .2-1.4Zm6.4 0a1 1 0 0 1 1.4-.2l4 3a1 1 0 0 1 0 1.6l-4 3a1 1 0 0 1-1.2-1.6l2.933-2.2-2.933-2.2a1 1 0 0 1-.2-1.4Z" class="Primary" clip-rule="evenodd"/>
  </g>
</svg>
