<svg xmlns="http://www.w3.org/2000/svg" width="24" height="24" fill="none" viewBox="0 0 24 24">
  <g class="24x24/Outline/ellipse_horizontal">
    <path fill="#91A7B2" fill-rule="evenodd" d="M18.557 15.385C20.206 14.395 21 13.168 21 12c0-1.168-.794-2.395-2.443-3.385C16.927 7.637 14.61 7 12 7s-4.927.637-6.557 1.615C3.794 9.605 3 10.832 3 12c0 1.168.794 2.396 2.443 3.385C7.073 16.363 9.39 17 12 17s4.927-.637 6.557-1.615ZM12 18c5.523 0 10-2.686 10-6s-4.477-6-10-6S2 8.686 2 12s4.477 6 10 6Z" class="Primary" clip-rule="evenodd"/>
  </g>
</svg>
