<svg xmlns="http://www.w3.org/2000/svg" width="24" height="24" fill="none" viewBox="0 0 24 24">
  <g class="24x24/Outline/ellipse_vertical">
    <path fill="#91A7B2" fill-rule="evenodd" d="M15.385 5.443C14.395 3.794 13.168 3 12 3c-1.168 0-2.395.794-3.385 2.443C7.637 7.073 7 9.39 7 12s.637 4.927 1.615 6.557C9.605 20.206 10.832 21 12 21c1.168 0 2.396-.794 3.385-2.443C16.363 16.927 17 14.61 17 12s-.637-4.927-1.615-6.557ZM18 12c0-5.523-2.686-10-6-10S6 6.477 6 12s2.686 10 6 10 6-4.477 6-10Z" class="Primary" clip-rule="evenodd"/>
  </g>
</svg>
