<svg xmlns="http://www.w3.org/2000/svg" width="24" height="24" fill="none" viewBox="0 0 24 24">
  <g class="24x24/Outline/fisheye">
    <path fill="#fff" fill-rule="evenodd" d="M13.25 6.507a14.163 14.163 0 0 0-8.84 3.09l-.008-.127a8.364 8.364 0 0 1-.027-.584c0-1.506.313-2.94.872-4.242a9.941 9.941 0 0 1 8.731-2.446 13.262 13.262 0 0 1 2.57 4.7 14.21 14.21 0 0 0-3.298-.39Zm8.348 2.717a10.022 10.022 0 0 0-5.984-6.54 14.234 14.234 0 0 1 2.065 4.533 14.223 14.223 0 0 1 3.92 2.007Zm.315 1.538a13.242 13.242 0 0 0-3.992-2.385 14.211 14.211 0 0 1-2.906 11.271c.018 0 .035.002.052.003.02.001.038.003.058.003a10.68 10.68 0 0 0 4.236-.874A9.975 9.975 0 0 0 22 12.016c0-.426-.036-.842-.087-1.254Zm-7.734 9.846c-.476.5-.988.965-1.531 1.392a9.915 9.915 0 0 0 4.771-1.573 11.71 11.71 0 0 1-2.294.228c-.32 0-.633-.022-.946-.047ZM2.134 13.583c.46-.711.986-1.373 1.57-1.982 1.06 4.476 4.671 7.969 9.212 8.838a13.283 13.283 0 0 1-1.98 1.535c-4.504-.477-8.104-3.95-8.802-8.391Zm1.35-3.182a11.775 11.775 0 0 1-.109-1.515c0-.787.08-1.554.228-2.298A9.974 9.974 0 0 0 2 12.026v.008c.453-.582.949-1.128 1.484-1.633ZM13.77 19.56c-4.66-.59-8.394-4.175-9.217-8.767a13.167 13.167 0 0 1 8.696-3.283c1.244 0 2.443.185 3.586.507.187.887.289 1.805.289 2.748 0 3.375-1.275 6.45-3.354 8.795Z" class="Primary" clip-rule="evenodd"/>
  </g>
</svg>
