<svg xmlns="http://www.w3.org/2000/svg" width="24" height="24" fill="none" viewBox="0 0 24 24">
  <g class="24x24/Outline/home">
    <path fill="#B0BEC4" fill-rule="evenodd" d="M19 10.493V18a1 1 0 0 1-1 1H6a1 1 0 0 1-1-1v-7.507a1 1 0 0 1 .397-.798l6-4.533a1 1 0 0 1 1.206 0l6 4.533a1 1 0 0 1 .397.798Zm-16 0A3 3 0 0 1 4.191 8.1l6-4.534a3 3 0 0 1 3.617 0l6 4.534A3 3 0 0 1 21 10.493V18a3 3 0 0 1-3 3H6a3 3 0 0 1-3-3v-7.507ZM9 11a1 1 0 0 1 1-1h4a1 1 0 1 1 0 2h-4a1 1 0 0 1-1-1Zm-1 4a1 1 0 0 1 1-1h6a1 1 0 1 1 0 2H9a1 1 0 0 1-1-1Z" class="Primary" clip-rule="evenodd"/>
  </g>
</svg>
