<svg xmlns="http://www.w3.org/2000/svg" width="24" height="24" fill="none" viewBox="0 0 24 24">
  <g class="24x24/Outline/hotspots">
    <path fill="#fff" class="Primary" fill-rule="evenodd" d="M3.25 12c0-4.914 3.836-8.75 8.75-8.75h8.75V12c0 4.914-3.836 8.75-8.75 8.75S3.25 16.914 3.25 12ZM12 4.75c-4.086 0-7.25 3.164-7.25 7.25s3.164 7.25 7.25 7.25 7.25-3.164 7.25-7.25V4.75H12Z" clip-rule="evenodd"/>
    <path fill="#fff" class="Primary" d="M12 13a1 1 0 1 0 0-2 1 1 0 0 0 0 2Z"/>
    <path fill="#fff" class="Primary" fill-rule="evenodd" d="M15.753 14.936C14.75 15.613 13.42 16 12 16s-2.75-.387-3.753-1.064C7.239 14.256 6.5 13.229 6.5 12c0-1.229.739-2.255 1.747-2.936C9.25 8.387 10.58 8 12 8s2.75.387 3.753 1.064c1.008.68 1.747 1.707 1.747 2.936 0 1.229-.739 2.256-1.747 2.936Zm-.839-1.243C15.647 13.198 16 12.583 16 12c0-.584-.353-1.198-1.086-1.693C14.19 9.82 13.161 9.5 12 9.5c-1.16 0-2.19.319-2.914.807C8.353 10.802 8 11.417 8 12c0 .584.353 1.198 1.086 1.693.724.488 1.753.807 2.914.807 1.16 0 2.19-.319 2.914-.807Z" clip-rule="evenodd"/>
  </g>
</svg>
