<svg xmlns="http://www.w3.org/2000/svg" width="24" height="24" fill="none" viewBox="0 0 24 24">
  <g class="24x24/Outline/link">
    <path fill="#B0BEC4" fill-rule="evenodd" d="M12.296 5.181a4.5 4.5 0 0 1 6.364 6.364l-.848.849a1 1 0 0 1-1.414-1.414l.848-.849a2.5 2.5 0 0 0-3.535-3.535l-.849.848a1 1 0 1 1-1.414-1.414l.848-.849Zm-3.003 9.512a1 1 0 0 1 0-1.414l1.993-1.993 1.992-1.993a1 1 0 1 1 1.415 1.414L12.7 12.7l-1.993 1.993a1 1 0 0 1-1.414 0Zm-4.025 4.012a4.5 4.5 0 0 0 6.364 0l.849-.848a1 1 0 0 0-1.415-1.414l-.848.848a2.5 2.5 0 0 1-3.536-3.535l.849-.849a1 1 0 1 0-1.414-1.414l-.849.848a4.5 4.5 0 0 0 0 6.364Z" class="Primary" clip-rule="evenodd"/>
  </g>
</svg>
