<svg xmlns="http://www.w3.org/2000/svg" width="24" height="24" fill="none" viewBox="0 0 24 24">
  <g class="24x24/Outline/motion">
    <path fill="#fff" fill-rule="evenodd" d="M6.797 20.22c0 .468.317.78.793.78.397 0 .794-.312.635-.937a2.7 2.7 0 0 1 .635-1.718l1.825-2.186c.238-.234.238-.547.158-.78-.079-.235-.317-.391-.555-.47a3.731 3.731 0 0 1-.714-.234c-1.35-.702-1.905-2.342-1.19-3.67l1.19-2.264c.793-1.327 1.904-2.264 3.253-2.733.397-.156.556-.468.556-.859v-.234c0-.312.079-.624.158-.936.159-.391-.159-.86-.555-.938-.397-.156-.873.156-.952.547-.08.39-.16.78-.16 1.17-1.427.626-2.697 1.719-3.57 3.28l-1.27 2.343c-1.03 2.108-.237 4.685 1.826 5.778l-1.111 1.327c-.635.781-.952 1.718-.952 2.733ZM19.413 4.991c0 1.078-.888 1.952-1.984 1.952-1.095 0-1.983-.874-1.983-1.952 0-1.078.888-1.952 1.983-1.952 1.096 0 1.984.874 1.984 1.952Zm1.349 7.263-1.508-1.484-.873-1.718c-.238-.78-.952-1.327-1.745-1.405H14.81c-1.428 0-2.619.703-3.412 2.108l-1.19 2.187c-.238.39-.08.858.317 1.014.397.235.873.079 1.032-.312l1.19-2.186c.397-.703.873-1.093 1.508-1.25-.239.781-.556 1.796-.794 2.5-.317 1.014-.08 2.186.714 2.81.463.399 1.389 1.336 2.041 1.996.243.246.448.454.578.58l.952 3.202c.08.313.396.547.793.547h.238c.397-.156.635-.547.556-.937l-1.032-3.436c0-.078-.08-.234-.159-.312-.079-.078-2.46-3.201-2.46-3.201l1.35-3.358.872 1.796c.04.039.06.078.08.117.02.04.04.078.08.117l1.586 1.562a.864.864 0 0 0 .555.234.865.865 0 0 0 .556-.234c.317-.156.317-.625 0-.937Zm-7.3 3.28c-.08 0-.08-.079-.08-.079l-.317 1.172-2.539 3.123c-.238.312-.238.859.08 1.093.158.156.317.156.476.156.237 0 .476-.078.634-.312l2.698-3.28c.08-.078.159-.234.159-.312l.08-.468a20.636 20.636 0 0 0-.79-.728 11.754 11.754 0 0 1-.401-.366ZM4.02 21c-.477 0-.794-.312-.794-.78 0-1.328.317-2.578.952-3.749C2.75 14.13 2.591 11.24 3.861 8.82L5.13 6.4a11.297 11.297 0 0 1 2.618-3.124c.317-.312.873-.234 1.11.078.318.313.239.86-.079 1.094-.872.78-1.666 1.64-2.221 2.732L5.289 9.6c-1.11 2.108-.952 4.529.476 6.48a.834.834 0 0 1 0 .86c-.635.937-.952 2.108-.952 3.28 0 .468-.397.78-.793.78Z" class="Primary" clip-rule="evenodd"/>
  </g>
</svg>
