<svg xmlns="http://www.w3.org/2000/svg" width="24" height="24" fill="none" viewBox="0 0 24 24">
  <g class="24x24/Outline/object">
    <path fill="#fff" fill-rule="evenodd" d="M8 3H4a1 1 0 0 0-1 1v4h1.5V4.5H8V3Zm8 1.5h3.5V8H21V4a1 1 0 0 0-1-1h-4v1.5ZM21 16h-1.5v3.5H16V21h4a1 1 0 0 0 1-1v-4ZM8 21v-1.5H4.5V16H3v4a1 1 0 0 0 1 1h4Zm4-13.5c2.485 0 4.5 2.249 4.5 3.375 0 .701-.78 1.837-1.969 2.595l.08-1.864c.256-.289.389-.563.389-.731 0-.236-.263-.682-.76-1.082l-.063-.049v.006l-.001.071-.21 4.429.654 5.918a.75.75 0 0 1-1.476.25l-.014-.085-.674-6.083a.464.464 0 0 0-.452-.375.454.454 0 0 0-.447.376l-.011-.001-.676 6.083a.75.75 0 0 1-.74.667l-.088-.005a.75.75 0 0 1-.667-.74l.005-.088.657-5.917-.212-4.429-.002-.078a3.424 3.424 0 0 0-.064.05c-.496.4-.759.846-.759 1.082 0 .168.134.443.39.732l.081 1.887c-1.19-.74-1.971-1.864-1.971-2.619C7.5 9.662 9.515 7.5 12 7.5Zm0-.5a2 2 0 1 0 0-4 2 2 0 0 0 0 4Z" class="Primary" clip-rule="evenodd"/>
  </g>
</svg>
