<svg xmlns="http://www.w3.org/2000/svg" width="24" height="24" fill="none" viewBox="0 0 24 24">
  <g class="24x24/Outline/screenshot">
    <path fill="#fff" fill-rule="evenodd" d="M6.6 8.5h.85l.436-.728L9.25 5.5h5.502l1.363 2.272.437.728H20a.5.5 0 0 1 .5.5v10a.5.5 0 0 1-.5.5H4a.5.5 0 0 1-.5-.5V9a.5.5 0 0 1 .5-.5h2.6ZM8.966 4a1 1 0 0 0-.857.486L6.6 7H4a2 2 0 0 0-2 2v10a2 2 0 0 0 2 2h16a2 2 0 0 0 2-2V9a2 2 0 0 0-2-2h-2.6l-1.509-2.514A1 1 0 0 0 15.034 4H8.966ZM15 13a3 3 0 1 1-6 0 3 3 0 0 1 6 0Zm2 0a5 5 0 1 1-10 0 5 5 0 0 1 10 0Z" class="Primary" clip-rule="evenodd"/>
  </g>
</svg>
