<svg xmlns="http://www.w3.org/2000/svg" width="24" height="24" fill="none" viewBox="0 0 24 24">
  <g class="24x24/Outline/services">
    <path fill="#B0BEC4" fill-rule="evenodd" d="M4.66 11A1.66 1.66 0 0 1 3 9.34V4.66C3 3.742 3.743 3 4.66 3h4.68c.917 0 1.66.743 1.66 1.66v4.68A1.66 1.66 0 0 1 9.34 11H4.66ZM9 8.439V9H5V5h4v3.439ZM17 11a4 4 0 1 1 0-8 4 4 0 0 1 0 8Zm-2-4a2 2 0 1 0 4 0 2 2 0 0 0-4 0ZM5.925 18.95l-.795-2.364 2.12-1.488 2.12 1.488-.795 2.364h-2.65Zm-1.739 1.104a1.32 1.32 0 0 0 1.254.896h3.62a1.32 1.32 0 0 0 1.254-.896l1.118-3.324a1.305 1.305 0 0 0-.49-1.485l-2.928-2.054a1.331 1.331 0 0 0-1.528 0L3.56 15.245a1.305 1.305 0 0 0-.491 1.485l1.118 3.324Zm9.652.946h5.824c1.1 0 1.626-1.183 1.168-2.014l-2.912-5.292a1.33 1.33 0 0 0-2.336 0l-2.912 5.292c-.458.831.067 2.014 1.168 2.014Zm1.553-2h3.164l-1.805-3.28L14.945 19h.446Z" class="Primary" clip-rule="evenodd"/>
  </g>
</svg>
