<svg xmlns="http://www.w3.org/2000/svg" width="24" height="24" fill="none" viewBox="0 0 24 24">
  <g class="24x24/Outline/sp_file_dialog_detailed_view">
    <path fill="#fff" fill-rule="evenodd" d="M5 9V5h4v4H5ZM3 4a1 1 0 0 1 1-1h6a1 1 0 0 1 1 1v6a1 1 0 0 1-1 1H4a1 1 0 0 1-1-1V4Zm2 15v-4h4v4H5Zm-2-5a1 1 0 0 1 1-1h6a1 1 0 0 1 1 1v6a1 1 0 0 1-1 1H4a1 1 0 0 1-1-1v-6Zm12-9v4h4V5h-4Zm-1-2a1 1 0 0 0-1 1v6a1 1 0 0 0 1 1h6a1 1 0 0 0 1-1V4a1 1 0 0 0-1-1h-6Zm1 16v-4h4v4h-4Zm-2-5a1 1 0 0 1 1-1h6a1 1 0 0 1 1 1v6a1 1 0 0 1-1 1h-6a1 1 0 0 1-1-1v-6Z" class="Primary" clip-rule="evenodd"/>
  </g>
</svg>
