<svg xmlns="http://www.w3.org/2000/svg" width="24" height="24" fill="none" viewBox="0 0 24 24">
  <g class="24x24/Outline/unmute">
    <path fill="#ffffff" fill-rule="evenodd" d="M2 8.5a2 2 0 0 1 1.695-1.977L5.672 8.5H4v7h5.389l.287.263L14 19.727v-2.899l2 2v.899c0 1.74-2.069 2.65-3.351 1.474L8.61 17.5H4a2 2 0 0 1-2-2v-7Zm14 8.914-2-2L7.086 8.5l-2-2-1.793-1.793L2.586 4 4 2.586l.707.707L7.914 6.5l1.75 1.749L14 12.586l2 2 4.707 4.707.707.707L20 21.414l-.707-.707L16 17.414Zm-2-13.14v6.897l2 2V4.274c0-1.74-2.069-2.65-3.351-1.474L8.985 6.157l1.416 1.415L14 4.273Zm4.614 11.511 1.419 1.42a8.004 8.004 0 0 0 1.358-8.317 7.999 7.999 0 0 0-1.734-2.595l-1.414 1.414a5.999 5.999 0 0 1 .37 8.078Z" class="Primary" clip-rule="evenodd"/>
  </g>
</svg>
