<?xml version="1.0" encoding="UTF-8" standalone="no"?>
<!-- Created with Inkscape (http://www.inkscape.org/) -->

<svg
   xmlns:dc="http://purl.org/dc/elements/1.1/"
   xmlns:cc="http://creativecommons.org/ns#"
   xmlns:rdf="http://www.w3.org/1999/02/22-rdf-syntax-ns#"
   xmlns:svg="http://www.w3.org/2000/svg"
   xmlns="http://www.w3.org/2000/svg"
   version="1.1"
   width="18"
   height="18"
   id="svg2"
   xml:space="preserve"><metadata
     id="metadata8"><rdf:RDF><cc:Work
         rdf:about=""><dc:format>image/svg+xml</dc:format><dc:type
           rdf:resource="http://purl.org/dc/dcmitype/StillImage" /><dc:title></dc:title></cc:Work></rdf:RDF></metadata><defs
     id="defs6"><clipPath
       id="clipPath16"><path
         d="M 0,256 256,256 256,0 0,0 0,256 z"
         id="path18" /></clipPath></defs><path
     d="M 16,7 2,7 c 0.050298,4.116488 3,8 7,8 4,0 6.954456,-3.883512 7,-8 z"
     id="path26"
     style="fill:#d4d4d4;fill-opacity:1;fill-rule:nonzero;stroke:none" /><path
     d="m 0.99999995,2 0,3.5 C 0.99999995,5.770077 1.230077,6 1.5,6 L 16.529615,6 C 16.795154,6 17,5.770077 17,5.5 L 17,2 z"
     id="path30"
     style="fill:#2ca0da;fill-opacity:1;fill-rule:nonzero;stroke:none" /><path
     d="m 11,12 a 2,2 0 0 1 -4,0 2,2 0 1 1 4,0 z"
     id="path3025"
     style="fill:#2ca0da;fill-opacity:1;stroke:none" /></svg>