<?xml version="1.0" encoding="utf-8"?>
<!-- Generator: Adobe Illustrator 16.0.0, SVG Export Plug-In . SVG Version: 6.00 Build 0)  -->
<!DOCTYPE svg PUBLIC "-//W3C//DTD SVG 1.1//EN" "http://www.w3.org/Graphics/SVG/1.1/DTD/svg11.dtd">
<svg version="1.1"
	 id="svg2" xmlns:dc="http://purl.org/dc/elements/1.1/" xmlns:cc="http://creativecommons.org/ns#" xmlns:rdf="http://www.w3.org/1999/02/22-rdf-syntax-ns#" xmlns:svg="http://www.w3.org/2000/svg"
	 xmlns="http://www.w3.org/2000/svg" xmlns:xlink="http://www.w3.org/1999/xlink" x="0px" y="0px" width="36px" height="36px"
	 viewBox="0.5 20.5 36 36" enable-background="new 0.5 20.5 36 36" xml:space="preserve">
<path fill="#D4D4D4" d="M32.5,52.5h-28c-1.104,0-2-0.895-2-2v-24c0-1.104,0.896-2,2-2h28c1.105,0,2,0.896,2,2v24
	C34.5,51.605,33.605,52.5,32.5,52.5z M6.5,48.5h24v-20h-24V48.5z"/>
<polygon fill="#2CA0DA" points="21.914,47.914 19.086,45.086 23.672,40.5 19.086,35.914 21.914,33.086 29.328,40.5 "/>
<polygon fill="#2CA0DA" points="15.086,43.914 7.672,36.5 15.086,29.086 17.914,31.914 13.328,36.5 17.914,41.086 "/>
</svg>
