<?xml version="1.0" encoding="utf-8"?>
<!-- Generator: Adobe Illustrator 16.0.0, SVG Export Plug-In . SVG Version: 6.00 Build 0)  -->
<!DOCTYPE svg PUBLIC "-//W3C//DTD SVG 1.1//EN" "http://www.w3.org/Graphics/SVG/1.1/DTD/svg11.dtd">
<svg version="1.1"
	 id="svg2" xmlns:svg="http://www.w3.org/2000/svg" xmlns:rdf="http://www.w3.org/1999/02/22-rdf-syntax-ns#" xmlns:cc="http://creativecommons.org/ns#" xmlns:dc="http://purl.org/dc/elements/1.1/"
	 xmlns="http://www.w3.org/2000/svg" xmlns:xlink="http://www.w3.org/1999/xlink" x="0px" y="0px" width="18px" height="18px"
	 viewBox="-2.5 21.5 18 18" enable-background="new -2.5 21.5 18 18" xml:space="preserve">
<polygon fill="#2CA0DA" points="2.5,34.5 7.5,34.5 9.5,31.5 2.5,31.5 2.5,28 -2.5,33 2.5,38 "/>
<polygon fill="#D4D4D4" points="10.5,26.5 5.5,26.5 3.5,29.5 10.5,29.5 10.5,33 15.5,28 10.5,23 "/>
<polygon fill="#2CA0DA" points="9.5,31.499 5.5,31.499 3.5,29.501 7.5,29.501 "/>
<polygon fill-opacity="0.25" points="9.5,31.499 5.5,31.499 3.5,29.501 7.5,29.501 "/>
<g id="g3002">
	<path id="path2990" fill="#BE3938" d="M13.682,37.682c-1.756,1.758-4.604,1.76-6.363,0.002c-1.758-1.756-1.759-4.604-0.002-6.363
		c0,0,0.001-0.002,0.002-0.002c1.758-1.758,4.607-1.756,6.363,0.002C15.438,33.077,15.438,35.925,13.682,37.682z"/>
	
		<rect id="rect3760" x="9.499" y="31.001" transform="matrix(0.7071 0.7071 -0.7071 0.7071 27.4703 2.6807)" fill="#FFFFFF" width="2" height="6.999"/>
	
		<rect id="rect3760-5" x="9.5" y="31" transform="matrix(-0.7071 0.7071 -0.7071 -0.7071 42.319 51.4699)" fill="#FFFFFF" width="2" height="6.999"/>
</g>
</svg>
