<?xml version="1.0" encoding="UTF-8" standalone="no"?>
<!-- Created with Inkscape (http://www.inkscape.org/) -->

<svg
   xmlns:dc="http://purl.org/dc/elements/1.1/"
   xmlns:cc="http://creativecommons.org/ns#"
   xmlns:rdf="http://www.w3.org/1999/02/22-rdf-syntax-ns#"
   xmlns:svg="http://www.w3.org/2000/svg"
   xmlns="http://www.w3.org/2000/svg"
   version="1.1"
   width="18"
   height="18"
   id="svg2"
   xml:space="preserve"><metadata
     id="metadata8"><rdf:RDF><cc:Work
         rdf:about=""><dc:format>image/svg+xml</dc:format><dc:type
           rdf:resource="http://purl.org/dc/dcmitype/StillImage" /><dc:title></dc:title></cc:Work></rdf:RDF></metadata><defs
     id="defs6"><clipPath
       id="clipPath16"><path
         d="M 0,256 256,256 256,0 0,0 0,256 z"
         id="path18" /></clipPath></defs><path
     d="M 9.5,5 C 9.2509295,4.7861275 8.7240884,4.7759112 8.4999999,5 l -5,4.4999999 C 3.056298,9.765679 3,10.236 3,10.5 l 0,5 C 3,15.764462 3.2359996,16 3.4999999,16 L 6.5,16 c 0.2650003,0 0.4999999,-0.235538 0.4999999,-0.5 l 0,-4.5 c 0,-0.265 0.2338459,-0.5 0.5000001,-0.5 l 3,0 c 0.263923,0 0.5,0.235 0.5,0.5 l 0,4.5 c 0,0.264462 0.234389,0.501671 0.5,0.5 l 3.020308,-0.019 C 14.784302,15.979339 15,15.764462 15,15.5 l 0,-5 c 0,-0.264231 0.0043,-0.5666671 -0.5,-1.0000001 z"
     id="path22"
     style="fill:#2ca0da;fill-opacity:1;fill-rule:nonzero;stroke:none" /><path
     d="M 2,8 9,2 16,8"
     id="path3025"
     style="fill:none;stroke:#d4d4d4;stroke-width:2;stroke-linecap:round;stroke-linejoin:round;stroke-miterlimit:4;stroke-opacity:1;stroke-dasharray:none" /></svg>