<?xml version="1.0" encoding="UTF-8" standalone="no"?>
<!-- Created with Inkscape (http://www.inkscape.org/) -->

<svg
   xmlns:dc="http://purl.org/dc/elements/1.1/"
   xmlns:cc="http://creativecommons.org/ns#"
   xmlns:rdf="http://www.w3.org/1999/02/22-rdf-syntax-ns#"
   xmlns:svg="http://www.w3.org/2000/svg"
   xmlns="http://www.w3.org/2000/svg"
   version="1.1"
   width="18"
   height="18"
   id="svg2">
  <defs
     id="defs4" />
  <metadata
     id="metadata7">
    <rdf:RDF>
      <cc:Work
         rdf:about="">
        <dc:format>image/svg+xml</dc:format>
        <dc:type
           rdf:resource="http://purl.org/dc/dcmitype/StillImage" />
        <dc:title></dc:title>
      </cc:Work>
    </rdf:RDF>
  </metadata>
  <rect
     width="6"
     height="4.0000172"
     ry="0.5000174"
     x="1"
     y="2.9999826"
     id="rect2987-4"
     style="fill:#d4d4d4;fill-opacity:1;stroke:none" />
  <rect
     width="6"
     height="4.0000172"
     ry="0.5000174"
     x="8"
     y="2.9999826"
     id="rect2987-4-7"
     style="fill:#d4d4d4;fill-opacity:1;stroke:none" />
  <rect
     width="6"
     height="4.0000172"
     ry="0.5000174"
     x="1"
     y="7.9999828"
     id="rect2987-4-8"
     style="fill:#d4d4d4;fill-opacity:1;stroke:none" />
  <rect
     width="14"
     height="9.9999828"
     ry="1.0566038"
     x="3"
     y="4.9999828"
     id="rect2987"
     style="fill:#2ca0da;fill-opacity:1;stroke:none" />
  <path
     d="m 13,5.4375 c -0.982482,0 -1.883423,0.2756381 -2.5625,0.84375 C 9.770166,6.839539 9.3904,7.567721 9.1875,8.25 8.932237,9.108354 8.990608,9.821499 9,10.46875 8.46137,10.814277 8.03125,11.309872 8.03125,12 l 0,4 c 0,1.077591 0.891159,1.96875 1.96875,1.96875 l 6,0 c 1.077591,0 1.96875,-0.891159 1.96875,-1.96875 l 0,-4 C 17.96875,11.309872 17.53863,10.814277 17,10.46875 17.0094,9.821494 17.06776,9.108349 16.8125,8.25 16.6096,7.567721 16.229834,6.839539 15.5625,6.28125 14.883423,5.7131381 13.982482,5.4375 13,5.4375 z"
     id="path3905"
     style="fill:#ffffff;fill-opacity:1;stroke:none" />
  <rect
     width="8"
     height="6"
     ry="1"
     x="9"
     y="11"
     id="rect3775"
     style="fill:#be3938;fill-opacity:1;stroke:none" />
  <path
     d="M 10.5,11.5 C 10.5,10 10.230402,7 13,7 c 2.769598,0 2.5,3 2.5,4.5"
     id="path3777"
     style="fill:none;stroke:#be3938;stroke-width:1.20000005;stroke-linecap:butt;stroke-linejoin:miter;stroke-miterlimit:4;stroke-opacity:1;stroke-dasharray:none" />
</svg>
