<?xml version="1.0" encoding="utf-8"?>
<!-- Generator: Adobe Illustrator 16.0.0, SVG Export Plug-In . SVG Version: 6.00 Build 0)  -->
<!DOCTYPE svg PUBLIC "-//W3C//DTD SVG 1.1//EN" "http://www.w3.org/Graphics/SVG/1.1/DTD/svg11.dtd">
<svg version="1.1"
	 id="svg2" xmlns:dc="http://purl.org/dc/elements/1.1/" xmlns:cc="http://creativecommons.org/ns#" xmlns:rdf="http://www.w3.org/1999/02/22-rdf-syntax-ns#" xmlns:svg="http://www.w3.org/2000/svg"
	 xmlns="http://www.w3.org/2000/svg" xmlns:xlink="http://www.w3.org/1999/xlink" x="0px" y="0px" width="18px" height="18px"
	 viewBox="0 0 18 18" enable-background="new 0 0 18 18" xml:space="preserve">
<g id="g10" transform="matrix(1.25,0,0,-1.25,0,18)">
	<path id="rect3784-1" fill="#D4D4D4" d="M2.4,8.8c-0.886,0-1.6-0.714-1.6-1.6c0-0.886,0.714-1.6,1.6-1.6H12v3.2H2.4z M3.2,8
		C3.642,8,4,7.642,4,7.2c0-0.442-0.358-0.8-0.8-0.8S2.4,6.758,2.4,7.2C2.4,7.642,2.758,8,3.2,8z"/>
	<path id="rect3784-8" fill="#2CA0DA" d="M2.4,4.8c-0.886,0-1.6-0.714-1.6-1.6c0-0.886,0.714-1.6,1.6-1.6H12
		c0.886,0,1.6,0.714,1.6,1.6c0,0.886-0.714,1.6-1.6,1.6H2.4z M3.2,4C3.642,4,4,3.642,4,3.2c0-0.442-0.358-0.8-0.8-0.8
		S2.4,2.758,2.4,3.2C2.4,3.642,2.758,4,3.2,4z"/>
	<path fill="#FFFFFF" d="M13.678,6.126c-0.03,0.785-0.191,1.888-0.97,2.679C12.135,9.384,11.359,9.68,10.4,9.68
		c-0.959,0-1.734-0.294-2.308-0.876c-0.78-0.788-0.939-1.893-0.971-2.678C6.684,5.841,6.4,5.35,6.4,4.8V1.6C6.4,0.717,7.118,0,8,0
		h4.8c0.883,0,1.6,0.717,1.6,1.6v3.2C14.4,5.35,14.117,5.841,13.678,6.126z"/>
	<path fill="#BE3938" d="M12.884,5.583c0.005,0.879-0.052,1.957-0.748,2.659c-0.416,0.423-1,0.638-1.736,0.638
		c-0.736,0-1.32-0.214-1.738-0.638C7.968,7.54,7.911,6.459,7.914,5.583C7.515,5.538,7.2,5.213,7.2,4.8V1.6
		c0-0.442,0.359-0.8,0.8-0.8h4.8c0.442,0,0.8,0.358,0.8,0.8v3.2C13.6,5.213,13.284,5.538,12.884,5.583z M10.4,7.92
		c0.477,0,0.82-0.117,1.055-0.352c0.428-0.434,0.473-1.267,0.471-1.968H8.874C8.872,6.301,8.917,7.134,9.345,7.568
		C9.58,7.805,9.923,7.92,10.4,7.92z"/>
	<path id="rect3784" fill="#2CA0DA" d="M2.4,12.8c-0.886,0-1.6-0.714-1.6-1.6s0.714-1.6,1.6-1.6H12c0.886,0,1.6,0.714,1.6,1.6
		s-0.714,1.6-1.6,1.6H2.4z M3.2,12C3.642,12,4,11.642,4,11.2s-0.358-0.8-0.8-0.8s-0.8,0.358-0.8,0.8S2.758,12,3.2,12z"/>
</g>
</svg>
