<?xml version="1.0" encoding="UTF-8" standalone="no"?>
<!-- Created with Inkscape (http://www.inkscape.org/) -->

<svg
   xmlns:dc="http://purl.org/dc/elements/1.1/"
   xmlns:cc="http://creativecommons.org/ns#"
   xmlns:rdf="http://www.w3.org/1999/02/22-rdf-syntax-ns#"
   xmlns:svg="http://www.w3.org/2000/svg"
   xmlns="http://www.w3.org/2000/svg"
   version="1.1"
   width="18"
   height="18"
   id="svg2"
   xml:space="preserve"><metadata
     id="metadata8"><rdf:RDF><cc:Work
         rdf:about=""><dc:format>image/svg+xml</dc:format><dc:type
           rdf:resource="http://purl.org/dc/dcmitype/StillImage" /><dc:title></dc:title></cc:Work></rdf:RDF></metadata><defs
     id="defs6"><clipPath
       id="clipPath16"><path
         d="M 0,256 256,256 256,0 0,0 0,256 z"
         id="path18" /></clipPath></defs><g
     transform="matrix(1.25,0,0,-1.25,0,18)"
     id="g10"><path
       d="M 3,2 C 1.892,2 1,2.892 1,4 1,5.108 1.892,6 3,6 L 15,6 C 16.108,6 17,5.108 17,4 17,2.892 16.108,2 15,2 L 3,2 z M 4,3 C 4.5522847,3 5,3.4477153 5,4 5,4.5522847 4.5522847,5 4,5 3.4477153,5 3,4.5522847 3,4 3,3.4477153 3.4477153,3 4,3 z"
       transform="matrix(0.8,0,0,-0.8,0,14.4)"
       id="rect3784"
       style="fill:#2ca0da;fill-opacity:1;stroke:none" /><path
       d="M 2.4,8.8 C 1.5136,8.8 0.8,8.0864 0.8,7.2 0.8,6.3136 1.5136,5.6 2.4,5.6 l 9.6,0 c 0.8864,0 1.6,0.7136 1.6,1.6 0,0.8864 -0.7136,1.6 -1.6,1.6 l -9.6,0 z M 3.2,8 C 3.6418278,8 4,7.641828 4,7.2 4,6.758172 3.6418278,6.4 3.2,6.4 2.7581722,6.4 2.4,6.758172 2.4,7.2 2.4,7.641828 2.7581722,8 3.2,8 z"
       id="rect3784-1"
       style="fill:#d4d4d4;fill-opacity:1;stroke:none" /><path
       d="M 2.4,4.8 C 1.5136,4.8 0.8,4.0864 0.8,3.2 0.8,2.3136 1.5136,1.6 2.4,1.6 l 9.6,0 c 0.8864,0 1.6,0.7136 1.6,1.6 0,0.8864 -0.7136,1.6 -1.6,1.6 l -9.6,0 z M 3.2,4 C 3.6418278,4 4,3.641828 4,3.2 4,2.758172 3.6418278,2.4 3.2,2.4 2.7581722,2.4 2.4,2.758172 2.4,3.2 2.4,3.641828 2.7581722,4 3.2,4 z"
       id="rect3784-8"
       style="fill:#2ca0da;fill-opacity:1;stroke:none" /></g><path
     d="m 13.5,6.09375 c -1.86909,0 -3.40625,1.5371598 -3.40625,3.40625 0,0.894318 0.366304,1.702808 0.9375,2.3125 -1.1740109,0.423311 -1.9375,1.529657 -1.9375,2.6875 l 0,2 c 0,0.401347 0.263239,0.705031 0.4375,0.84375 0.174261,0.138719 0.3190779,0.194994 0.46875,0.25 0.299344,0.110012 0.606076,0.166217 0.96875,0.21875 0.725348,0.105066 1.62368,0.154396 2.53125,0.15625 0.90757,0.0019 1.80374,-0.05186 2.53125,-0.15625 0.363755,-0.05219 0.697368,-0.105587 1,-0.21875 0.151316,-0.05658 0.293958,-0.106907 0.46875,-0.25 0.174792,-0.143093 0.40625,-0.453779 0.40625,-0.84375 l 0,-2 c 0,-1.148899 -0.760678,-2.261653 -1.9375,-2.6875 0.571196,-0.609692 0.9375,-1.418182 0.9375,-2.3125 0,-1.8690902 -1.53716,-3.40625 -3.40625,-3.40625 z"
     id="path3810"
     style="fill:#ffffff;fill-opacity:1;fill-rule:nonzero;stroke:none" /><path
     d="m 17,16.5 c 0,0.771186 -7,0.742585 -7,0 l 0,-2 c 0,-1 0.7563,-2 2,-2 l 3,0 c 1.262364,0 2,1 2,2 z"
     id="path30"
     style="fill:#be3938;fill-opacity:1;fill-rule:nonzero;stroke:none" /><path
     d="m 16,10 a 2,2 0 1 1 -4,0 2,2 0 1 1 4,0 z"
     transform="matrix(1.25,0,0,1.25,-4,-3)"
     id="path3767"
     style="fill:#be3938;fill-opacity:1;stroke:none" /></svg>