<?xml version="1.0" encoding="utf-8"?>
<!-- Generator: Adobe Illustrator 16.0.0, SVG Export Plug-In . SVG Version: 6.00 Build 0)  -->
<!DOCTYPE svg PUBLIC "-//W3C//DTD SVG 1.1//EN" "http://www.w3.org/Graphics/SVG/1.1/DTD/svg11.dtd">
<svg version="1.1"
	 id="svg2" xmlns:dc="http://purl.org/dc/elements/1.1/" xmlns:cc="http://creativecommons.org/ns#" xmlns:rdf="http://www.w3.org/1999/02/22-rdf-syntax-ns#" xmlns:svg="http://www.w3.org/2000/svg"
	 xmlns="http://www.w3.org/2000/svg" xmlns:xlink="http://www.w3.org/1999/xlink" x="0px" y="0px" width="18px" height="18px"
	 viewBox="0 0 18 18" enable-background="new 0 0 18 18" xml:space="preserve">
<g>
	<circle fill="none" cx="4" cy="9" r="1"/>
	<circle fill="none" cx="4" cy="4" r="1"/>
	<circle fill="none" cx="4" cy="14" r="1"/>
	<path fill="#D4D4D4" d="M3,6h12c1.107,0,2-0.893,2-2s-0.893-2-2-2H3C1.892,2,1,2.893,1,4S1.892,6,3,6z M4,3c0.552,0,1,0.447,1,1
		S4.552,5,4,5S3,4.553,3,4S3.448,3,4,3z"/>
	<path fill="#D4D4D4" d="M13,8c1.521,0,2.898,0.617,3.895,1.615C16.957,9.421,17,9.217,17,9c0-1.107-0.893-2-2-2H3
		C1.892,7,1,7.893,1,9s0.892,2,2,2h5.105C9.017,9.221,10.865,8,13,8z M4,10c-0.552,0-1-0.447-1-1s0.448-1,1-1s1,0.447,1,1
		S4.552,10,4,10z"/>
	<path fill="#D4D4D4" d="M7.712,12H3c-1.108,0-2,0.893-2,2s0.892,2,2,2h5.105C7.721,15.249,7.5,14.4,7.5,13.5
		C7.5,12.979,7.577,12.479,7.712,12z M4,15c-0.552,0-1-0.447-1-1s0.448-1,1-1s1,0.447,1,1S4.552,15,4,15z"/>
</g>
<circle fill="#FD991F" cx="13" cy="13.5" r="4.5"/>
<rect x="12" y="10" width="2" height="4"/>
<rect x="12" y="15" width="2" height="2"/>
</svg>
