<?xml version="1.0" encoding="utf-8"?>
<!-- Generator: Adobe Illustrator 16.0.0, SVG Export Plug-In . SVG Version: 6.00 Build 0)  -->
<!DOCTYPE svg PUBLIC "-//W3C//DTD SVG 1.1//EN" "http://www.w3.org/Graphics/SVG/1.1/DTD/svg11.dtd">
<svg version="1.1"
	 id="svg2" xmlns:dc="http://purl.org/dc/elements/1.1/" xmlns:cc="http://creativecommons.org/ns#" xmlns:rdf="http://www.w3.org/1999/02/22-rdf-syntax-ns#" xmlns:svg="http://www.w3.org/2000/svg"
	 xmlns="http://www.w3.org/2000/svg" xmlns:xlink="http://www.w3.org/1999/xlink" x="0px" y="0px" width="18px" height="18px"
	 viewBox="0 0 18 18" enable-background="new 0 0 18 18" xml:space="preserve">
<g id="g10" transform="matrix(1.25,0,0,-1.25,0,18)">
	<g id="g12" transform="matrix(0.06153836,0,0,0.06153836,10.573905,1.9163301)">
		<path id="path14" fill="#FFFFFF" d="M-0.008,0.001l-153.5,58.259l45.456,119.781l153.507-58.259L-0.008,0.001z"/>
	</g>
	<path fill="#2CA0DA" d="M13.294,9.498l-9.166,3.668c-0.248,0.099-0.528-0.028-0.625-0.28l-2.67-7.024
		C0.736,5.608,0.859,5.32,1.107,5.222l9.168-3.669c0.247-0.099,0.527,0.028,0.623,0.28l2.669,7.025
		C13.664,9.112,13.541,9.399,13.294,9.498z M11.581,5.645c-0.337,0.562-0.639,1.183-0.839,1.483
		c-0.233,0.36-0.434,0.329-0.642,0.264C9.959,7.347,7.638,6.638,6.752,6.367l0.797-1.815c0.041-0.091,0-0.198-0.088-0.239
		C7.438,4.302,7.414,4.297,7.39,4.297c-0.067,0-0.131,0.041-0.161,0.106c0,0-1.35,3.052-1.501,3.382
		C5.639,7.98,5.547,8.158,5.079,8.02C4.516,7.855,2.913,7.145,1.927,6.728l2.127,5.707l8.786-3.475L11.581,5.645z"/>
	<path id="path34" fill="#2CA0DA" d="M6.945,7.934c0.666-0.268,1.402,0.03,1.643,0.663c0.241,0.633-0.106,1.362-0.773,1.632
		c-0.666,0.266-1.402-0.033-1.643-0.664C5.929,8.932,6.278,8.201,6.945,7.934"/>
</g>
</svg>
