<?xml version="1.0" encoding="UTF-8" standalone="no"?>
<!-- Created with Inkscape (http://www.inkscape.org/) -->

<svg
   xmlns:dc="http://purl.org/dc/elements/1.1/"
   xmlns:cc="http://creativecommons.org/ns#"
   xmlns:rdf="http://www.w3.org/1999/02/22-rdf-syntax-ns#"
   xmlns:svg="http://www.w3.org/2000/svg"
   xmlns="http://www.w3.org/2000/svg"
   version="1.1"
   width="18"
   height="18"
   id="svg2"
   xml:space="preserve"><metadata
     id="metadata8"><rdf:RDF><cc:Work
         rdf:about=""><dc:format>image/svg+xml</dc:format><dc:type
           rdf:resource="http://purl.org/dc/dcmitype/StillImage" /><dc:title></dc:title></cc:Work></rdf:RDF></metadata><defs
     id="defs6"><clipPath
       id="clipPath16"><path
         d="M 0,256 256,256 256,0 0,0 0,256 z"
         id="path18" /></clipPath></defs><g
     transform="matrix(1.25,0,0,-1.25,0,18)"
     id="g10"><path
       d="m 13.6,2.4 c 0,-1.0033896 -8.8,-0.9864408 -8.8,0 l 0,2.4 c 0,1.3744477 1.425317,2.4 2.8,2.4 l 3.2,0 c 1.374154,0 2.8,-1.0255523 2.8,-2.4 z"
       id="path22-7"
       style="fill:#2ca0da;fill-opacity:1;fill-rule:nonzero;stroke:none" /><path
       d="m 13,5.5 a 3.5,3.5 0 1 1 -7,0 3.5,3.5 0 1 1 7,0 z"
       transform="matrix(0.8,0,0,-0.8,1.6,15.2)"
       id="path3016-5"
       style="fill:#2ca0da;fill-opacity:1;stroke:none" /><path
       d="m 9.6,1.6 c 0,-1.0033898 -8.8,-0.9864407 -8.8,0 l 0,2.4 c 0,1.3744477 1.4253174,2.4 2.8,2.4 l 3.2,0 C 8.174154,6.4 9.6,5.3744477 9.6,4 z"
       id="path22"
       style="fill:#d4d4d4;fill-opacity:1;fill-rule:nonzero;stroke:none" /><path
       d="m 13,5.5 a 3.5,3.5 0 1 1 -7,0 3.5,3.5 0 1 1 7,0 z"
       transform="matrix(0.8,0,0,-0.8,-2.4,14.4)"
       id="path3016"
       style="fill:#d4d4d4;fill-opacity:1;stroke:none" /></g></svg>