<svg xmlns="http://www.w3.org/2000/svg" width="200" height="75" fill="none" viewBox="0 0 200 75">
  <g class="illustrations/200x75/ptz_promo_tracking">
    <path fill="#E1E7EA" d="M135.872 47.204c0 5.641-4.594 10.214-10.261 10.214-5.668 0-10.262-4.573-10.262-10.214 0-5.642 4.594-10.215 10.262-10.215 5.667 0 10.261 4.574 10.261 10.215Zm-19.705 0c0 5.191 4.228 9.4 9.444 9.4 5.215 0 9.443-4.209 9.443-9.4 0-5.192-4.228-9.4-9.443-9.4-5.216 0-9.444 4.208-9.444 9.4Z" class="Primary" opacity=".6"/>
    <path fill="#171C1F" d="m121.975 49.495-14.511 5.778 4.353 2.167-5.003 4.98 1.814 1.805 5.003-4.98 2.539 4.695 5.805-14.445Z" class="Secondary"/>
    <path fill="#E1E7EA" fill-rule="evenodd" d="M129.83 1h6.534V0h-7.534v7.5h1V1Zm0 73h6.534v1h-7.534v-7.5h1V74Zm46.972 1h-6.534v-1h6.534v-6.5h1V75h-1Zm-6.534-75v1h6.534v6.5h1V0h-7.534Zm-13.957 14.436c1.092 1.023 2.399 1.535 3.921 1.535 1.523 0 2.83-.512 3.921-1.535 1.091-1.024 1.637-2.25 1.637-3.677 0-1.428-.546-2.654-1.637-3.677-1.091-1.023-2.398-1.535-3.921-1.535-1.522 0-2.829.512-3.921 1.535-1.091 1.023-1.636 2.249-1.636 3.677s.545 2.653 1.636 3.677Zm3.541 35.447v17.064h4.567V46.171l-6.927-5.997 2.969-11.28c2.284 2.95 4.758 5.163 7.422 6.639 2.665 1.475 4.59 2.213 7.991 2.213v-4.284c-3.046 0-4.603-.737-6.887-2.213-2.284-1.475-4.085-3.213-5.405-5.212l-3.198-4.783c-.558-.81-1.23-1.416-2.017-1.82-.787-.405-1.688-.608-2.703-.608-.71 0-1.408.084-2.093.25-.685.167-1.84.583-3.464 1.25l-12.486 4.926v12.494h4.568V28.18l7.613-3.355-5.255 28.966-8.771 8.771 3.132 3.133 9.524-9.456 3.197-13.423 8.223 7.068ZM25 35.367a1 1 0 0 0-1 1V57.43a1 1 0 0 0 1 1h36.098a1 1 0 0 0 1-1V36.367a1 1 0 0 0-1-1H25Zm-2 1a2 2 0 0 1 2-2h36.098a2 2 0 0 1 2 2V57.43a2 2 0 0 1-2 2H25a2 2 0 0 1-2-2V36.367Zm16.562 5.289h.267l3.535 9.242h-1.256l-.88-2.418h-3.866l-.878 2.418h-1.25l3.522-9.242h.807Zm-1.836 5.82h3.136l-1.57-4.312-1.566 4.313Zm7.974 3.422v-9.75h-1.18v9.75h1.18Zm4.761-5.967v-.901H49.18v-1.67h-1.174v1.67h-1.257v.901h1.257v4.26c0 .457.07.82.21 1.091.143.267.335.457.577.572.241.114.505.171.793.171.212 0 .392-.015.54-.044a2.75 2.75 0 0 0 .368-.083l-.006-.958c-.055.012-.138.03-.248.05a1.932 1.932 0 0 1-.305.026c-.13 0-.254-.02-.368-.057a.516.516 0 0 1-.28-.235c-.071-.119-.107-.294-.107-.527V44.93h1.282Zm33.404.418v-4.716h2v4.716h4.717v2h-4.717v4.478h-2v-4.478h-4.477v-2h4.477Zm41.745 4.92c1.7 0 3.078-1.373 3.078-3.065a3.071 3.071 0 0 0-3.078-3.065 3.071 3.071 0 0 0-3.078 3.065c0 .503.121.978.337 1.396l-16.629 6.622 4.731 2.355-4.866 4.843 2.523 2.511 4.882-4.86 2.727 5.044 6.634-16.51a3.08 3.08 0 0 0 2.739 1.663Zm-12.946 7.034-3.976-1.98 12.388-4.932-4.973 12.375-2.35-4.347-5.125 5.101-1.105-1.1 5.141-5.117Z" class="Primary" clip-rule="evenodd"/>
  </g>
</svg>
