<svg xmlns="http://www.w3.org/2000/svg" width="200" height="75" fill="none" viewBox="0 0 200 75">
  <g class="illustrations/200x75/ptz_promo_drag">
    <path fill="#E1E7EA" d="m125.692 22.77 10.731 6.115-6.115 10.73-1.385-4.846-.346-1.154-1.154.347L17.346 64.654l-.923-.577-.808-2.538.808-1.27L126.5 29.808l1.154-.346-.346-1.154-1.616-5.539Zm-1.846-2.308 2.192 8.077L15.5 59.115l-1.27 2.193 1.155 3.461 1.73 1.154 110.77-30.692 2.077 7.5 8.076-14.192-14.192-8.077Z" class="Primary" opacity=".6"/>
    <path fill="#E1E7EA" fill-rule="evenodd" d="m195.538 13.846-4.615-4.615v3.461h-8.077V4.615h3.462L181.692 0l-4.615 4.615h3.461v8.077h-8.076V9.231l-4.616 4.615 4.616 4.616V15h8.076v8.077h-3.461l4.615 4.615 4.616-4.615h-3.462V15h8.077v3.462l4.615-4.616ZM4 62.462c0-6.925 5.614-12.539 12.538-12.539 6.925 0 12.539 5.614 12.539 12.539C29.077 69.386 23.463 75 16.538 75 9.614 75 4 69.386 4 62.462Zm12.538-10.539C10.718 51.923 6 56.641 6 62.462 6 68.282 10.718 73 16.538 73s10.539-4.718 10.539-10.538-4.718-10.539-10.539-10.539ZM20 62.461a3.462 3.462 0 1 1-6.923 0 3.462 3.462 0 0 1 6.923 0Z" class="Primary" clip-rule="evenodd"/>
  </g>
</svg>
