<?xml version="1.0" encoding="utf-8"?>
<!-- Generator: Adobe Illustrator 19.2.0, SVG Export Plug-In . SVG Version: 6.00 Build 0)  -->
<svg version="1.1" xmlns="http://www.w3.org/2000/svg" xmlns:xlink="http://www.w3.org/1999/xlink" x="0px" y="0px"
	 viewBox="0 0 20 16" style="enable-background:new 0 0 20 16;" xml:space="preserve">
<style type="text/css">
	.st0{fill:none;stroke:#2FA2DB;stroke-width:2;stroke-linecap:round;stroke-linejoin:round;stroke-miterlimit:10;}
	.st1{fill:none;stroke:#2B383F;stroke-linecap:round;stroke-linejoin:round;stroke-miterlimit:10;}
	.st2{fill:#2B383F;}
	.st3{fill:#2FA2DB;}
</style>
<g id="Layer_1">
	<line class="st0" x1="65" y1="8" x2="71" y2="8"/>
	<line class="st0" x1="65" y1="38" x2="71" y2="38"/>
</g>
<g id="Layer_2">
	<polyline class="st1" points="12.5,2.5 2.5,2.5 2.5,13.5 13.5,13.6 13.5,8.5 	"/>
	<polygon class="st1" points="32.5,2.5 32.5,13.5 43.5,13.6 43.5,2.5 	"/>
	<polygon class="st1" points="62.5,2.5 62.5,13.5 73.5,13.6 73.5,2.5 	"/>
</g>
<g id="Layer_3">
	<polyline class="st0" points="5,7.5 8,10.5 15.5,3 	"/>
	<g>
		<path class="st2" d="M8,32c3.3,0,6,2.7,6,6s-2.7,6-6,6s-6-2.7-6-6S4.7,32,8,32 M8,31c-3.9,0-7,3.1-7,7s3.1,7,7,7s7-3.1,7-7
			S11.9,31,8,31L8,31z"/>
	</g>
	<g>
		<circle class="st3" cx="8" cy="38" r="4"/>
	</g>
	<g>
		<path class="st2" d="M38,32c3.3,0,6,2.7,6,6s-2.7,6-6,6s-6-2.7-6-6S34.7,32,38,32 M38,31c-3.9,0-7,3.1-7,7s3.1,7,7,7s7-3.1,7-7
			S41.9,31,38,31L38,31z"/>
	</g>
	<g>
		<path class="st2" d="M68,32c3.3,0,6,2.7,6,6s-2.7,6-6,6s-6-2.7-6-6S64.7,32,68,32 M68,31c-3.9,0-7,3.1-7,7s3.1,7,7,7s7-3.1,7-7
			S71.9,31,68,31L68,31z"/>
	</g>
</g>
</svg>
