<svg xmlns="http://www.w3.org/2000/svg" width="32" height="32" fill="none" viewBox="0 0 32 32">
  <g class="32x32/Solid/organization">
    <path fill="#A5B7C0" fill-rule="evenodd" d="M2 13.495a1 1 0 0 1 .794-.978l6-1.263a1 1 0 0 1 1.206.978V29H2V13.495ZM9 15H3v1h6v-1Zm0 2H3v1h6v-1Zm-6 2h6v1H3v-1Zm3 2H3v1h3v-1Zm24 .883a1 1 0 0 0-.876-.992l-6-.75a1 1 0 0 0-1.124.992V29h8v-7.117ZM29 23h-6v1h6v-1Zm-1 2h-5v1h5v-1Z" class="Secondary" clip-rule="evenodd"/>
    <path fill="#CDD7DC" fill-rule="evenodd" d="M12 3a1 1 0 0 0-1 1v25h10V4a1 1 0 0 0-1-1h-8Zm0 1.996h8v1h-8v-1ZM12 7h8v1h-8V7Zm8 2h-8v1h8V9Zm-8 2h5v1h-5v-1Z" class="Primary" clip-rule="evenodd"/>
  </g>
</svg>
