<svg xmlns="http://www.w3.org/2000/svg" width="32" height="32" fill="none" viewBox="0 0 32 32">
  <g class="32x32/Solid/partner">
    <path fill="#A5B7C0" fill-rule="evenodd" d="M12.25 3.714V6h-1.607V3.143c0-.631.48-1.143 1.071-1.143h8.572c.591 0 1.071.512 1.071 1.143V6H19.75V3.714h-7.5ZM1 27.43V16.275c3.33.838 10.686 2.435 15 2.435s11.67-1.597 15-2.436V27.43c0 .63-.512 1.142-1.143 1.142H2.143A1.143 1.143 0 0 1 1 27.43ZM2.143 7C1.512 7 1 7.512 1 8.143v6.87c3.214.821 10.714 2.464 15 2.464s11.786-1.643 15-2.465V8.14A1.143 1.143 0 0 0 29.857 7H2.143Z" class="Secondary" clip-rule="evenodd"/>
    <path fill="#CDD7DC" d="M16 18c-4.286 0-11.786-1.726-15-2.588v-7.27C1 7.513 1.512 7 2.143 7h27.714C30.488 7 31 7.512 31 8.143v7.269C27.786 16.274 20.286 18 16 18Z" class="Primary"/>
  </g>
</svg>
