<svg xmlns="http://www.w3.org/2000/svg" width="52" height="24" fill="none" viewBox="0 0 52 24">
  <g class="52x24/Solid/calendar">
    <rect width="52" height="24" fill="#212A2F" class="Secondary" rx="2"/>
    <path fill="#171C1F" d="M2 8h2v8H2z" class="Tertiary"/>
    <path fill="#fff" fill-rule="evenodd" d="M23.25 6.5h-.75v.75h-2.25a.75.75 0 0 0-.75.75v9.75c0 .414.336.75.75.75h10.5a.75.75 0 0 0 .75-.75V8a.75.75 0 0 0-.75-.75h-1.5V8h1.5v1.5h-10.5V8h2.25v.75h.75V6.5Zm5.25 2.25V6.5h-.75v.75H24V8h3.75v.75h.75Zm2.25 1.5h-10.5v7.5h10.5v-7.5Z" class="Primary" clip-rule="evenodd"/>
  </g>
</svg>
