<svg xmlns="http://www.w3.org/2000/svg" width="52" height="24" fill="none" viewBox="0 0 52 24">
  <g class="52x24/Solid/live">
    <rect width="52" height="24" fill="#212A2F" class="Secondary" rx="2"/>
    <path fill="#171C1F" d="M2 8h2v8H2z" class="Tertiary"/>
    <path fill="#fff" d="M20.506 14.834V16h-4.283v-1.166h4.283Zm-3.873-7.365V16h-1.47V7.469h1.47Zm6.58 0V16h-1.47V7.469h1.47Zm4.752 6.972 2.244-6.972h1.623L28.773 16h-1.095l.287-1.559ZM25.89 7.47l2.226 6.972.305 1.559H27.32L24.273 7.47h1.618Zm12.481 7.364V16h-4.53v-1.166h4.53Zm-4.113-7.365V16h-1.47V7.469h1.47Zm3.521 3.562v1.149h-3.937v-1.15h3.937Zm.563-3.562V8.64h-4.5V7.469h4.5Z" class="Primary"/>
  </g>
</svg>
