<svg xmlns="http://www.w3.org/2000/svg" width="52" height="24" fill="none" viewBox="0 0 52 24">
  <g class="52x24/Solid/sync">
    <rect width="52" height="24" fill="#212A2F" class="Secondary" rx="2"/>
    <path fill="#171C1F" d="M2 8h2v8H2z" class="Tertiary"/>
    <path fill="#FFFFFF" d="M16.375 13.803a1.25 1.25 0 0 0-.082-.469.916.916 0 0 0-.275-.375 2.269 2.269 0 0 0-.563-.328 7.47 7.47 0 0 0-.914-.334 10.15 10.15 0 0 1-1.125-.416 4.285 4.285 0 0 1-.89-.54 2.305 2.305 0 0 1-.592-.708 1.982 1.982 0 0 1-.211-.932c0-.347.072-.664.216-.949.149-.285.358-.531.627-.738.274-.211.596-.373.967-.487a4.072 4.072 0 0 1 1.23-.175c.633 0 1.178.117 1.635.351.461.234.815.549 1.061.943.25.395.375.83.375 1.307h-1.459c0-.281-.06-.53-.182-.744a1.232 1.232 0 0 0-.539-.516c-.238-.125-.54-.187-.908-.187-.348 0-.637.053-.867.158-.23.106-.402.248-.516.428-.113.18-.17.383-.17.61 0 .16.037.306.112.439.074.129.187.25.34.363.152.11.343.213.574.31.23.098.502.192.814.282.473.14.885.297 1.237.469.351.167.644.359.878.574.235.215.41.459.528.732.117.27.176.576.176.92 0 .36-.073.684-.217.973a2.1 2.1 0 0 1-.621.732c-.266.2-.586.354-.961.463a4.538 4.538 0 0 1-1.243.158 4.56 4.56 0 0 1-1.212-.164 3.577 3.577 0 0 1-1.079-.498 2.574 2.574 0 0 1-.773-.844c-.191-.34-.287-.736-.287-1.19h1.47c0 .278.048.514.141.71.098.195.233.355.405.48.171.121.37.211.597.27.23.059.477.088.739.088.343 0 .63-.05.86-.147.235-.097.411-.234.528-.41.117-.176.176-.379.176-.61Zm3.592-6.334 1.98 4.072 1.98-4.072h1.63l-2.871 5.39V16h-1.483v-3.14l-2.871-5.391h1.635Zm13.289 0V16h-1.47l-3.827-6.111V16h-1.47V7.469h1.47l3.838 6.123V7.469h1.459Zm6.791 5.754h1.465a3.382 3.382 0 0 1-.469 1.494 2.79 2.79 0 0 1-1.12 1.025c-.48.25-1.064.375-1.751.375a3.47 3.47 0 0 1-1.424-.281 3.12 3.12 0 0 1-1.084-.809 3.656 3.656 0 0 1-.691-1.271 5.524 5.524 0 0 1-.235-1.664v-.71c0-.612.08-1.167.24-1.663a3.68 3.68 0 0 1 .704-1.272 3.04 3.04 0 0 1 1.095-.814 3.58 3.58 0 0 1 1.448-.281c.68 0 1.253.125 1.722.375.469.25.832.595 1.09 1.037.262.441.422.947.48 1.517h-1.464a2.708 2.708 0 0 0-.258-.943 1.329 1.329 0 0 0-.574-.598c-.254-.14-.586-.21-.996-.21-.336 0-.63.062-.88.187s-.458.308-.626.55a2.653 2.653 0 0 0-.381.897 5.34 5.34 0 0 0-.123 1.207v.72c0 .43.037.821.111 1.173.078.347.196.646.352.896.16.25.363.444.61.58.245.137.54.205.884.205.418 0 .756-.066 1.014-.199.261-.133.459-.326.591-.58.137-.258.227-.572.27-.943Z" class="Primary"/>
  </g>
</svg>
