<svg xmlns="http://www.w3.org/2000/svg" width="24" height="20" fill="none" viewBox="0 0 24 20">
  <g class="24x20/Solid/audio">
    <path fill="#A5B7C0" fill-rule="evenodd" d="M20 10.08c0 1.937-.424 3.775-1.183 5.426l1.715 1.055A14.942 14.942 0 0 0 22 10.081C22 7.52 21.358 5.108 20.227 3L18.57 4.147A12.945 12.945 0 0 1 20 10.08Zm-2 0c0-1.7-.471-3.289-1.29-4.645l-1.649 1.141A6.968 6.968 0 0 1 16 10.08a6.97 6.97 0 0 1-.78 3.213l1.708 1.05A8.96 8.96 0 0 0 18 10.08Zm-7.625-6.7L5.75 7.08H3a1 1 0 0 0-1 1v4a1 1 0 0 0 1 1h2.75l4.625 3.7A1 1 0 0 0 12 16V4.16a1 1 0 0 0-1.625-.78Z" class="Primary" clip-rule="evenodd"/>
  </g>
</svg>
