<svg xmlns="http://www.w3.org/2000/svg" width="24" height="20" fill="none" viewBox="0 0 24 20">
  <g class="24x20/Solid/camera_edit">
    <path fill="#A5B7C0" fill-rule="evenodd" d="M3 3a1 1 0 0 0-1 1v2a1 1 0 0 0 1 1v3a7 7 0 0 0 8.26 6.887 1.394 1.394 0 0 1-.392-.435L10.03 15H10a5 5 0 0 1-5-5V7h6.445a1.4 1.4 0 0 1 1.271 0h1.164v-.6a1.4 1.4 0 0 1 1.4-1.4h2.2c.184 0 .36.035.52.1V4a1 1 0 0 0-1-1H3Zm6.585 7.043a2 2 0 0 0 0 3.914 1.4 1.4 0 0 1 .696-1.322l.606-.35a5.587 5.587 0 0 1 0-.57l-.606-.35a1.4 1.4 0 0 1-.696-1.322Zm8.295-2.287V6.4a.4.4 0 0 0-.4-.4h-2.2a.4.4 0 0 0-.4.4v1.356a4.495 4.495 0 0 0-1.424.824L12.28 7.9a.4.4 0 0 0-.547.146l-1.1 1.906a.4.4 0 0 0 .147.546l1.174.678a4.523 4.523 0 0 0 0 1.646l-1.175.678a.4.4 0 0 0-.146.546l1.1 1.905a.4.4 0 0 0 .546.147l1.176-.679a4.5 4.5 0 0 0 1.424.824V17.6c0 .22.18.4.4.4h2.2a.4.4 0 0 0 .4-.4v-1.356a4.494 4.494 0 0 0 1.425-.824l1.175.679a.4.4 0 0 0 .546-.146l1.1-1.906a.4.4 0 0 0-.146-.546l-1.175-.678a4.523 4.523 0 0 0 0-1.646l1.175-.678a.4.4 0 0 0 .146-.546l-1.1-1.906a.4.4 0 0 0-.546-.146l-1.175.679a4.494 4.494 0 0 0-1.425-.824Zm-1.5 6.494a2.25 2.25 0 1 0 0-4.5 2.25 2.25 0 0 0 0 4.5Z" class="Primary" clip-rule="evenodd"/>
  </g>
</svg>
