<svg xmlns="http://www.w3.org/2000/svg" width="24" height="20" fill="none" viewBox="0 0 24 20">
  <g class="24x20/Solid/camera_edit">
    <g class="Primary">
      <path fill="#A5B7C0" class="Primary" d="M2 4a1 1 0 0 1 1-1h14a1 1 0 0 1 1 1v1.1a1.38 1.38 0 0 0-.52-.1h-2.2a1.4 1.4 0 0 0-1.4 1.4V7h-1.164a1.4 1.4 0 0 0-1.271 0H5v3a5 5 0 0 0 5 5h.03l.838 1.452c.102.177.236.323.392.435A7 7 0 0 1 3 10V7a1 1 0 0 1-1-1V4Z"/>
      <path fill="#A5B7C0" class="Primary" fill-rule="evenodd" d="M17.88 6.4v1.356a4.494 4.494 0 0 1 1.425.824l1.175-.68a.4.4 0 0 1 .546.147l1.1 1.906a.4.4 0 0 1-.146.546l-1.175.678a4.523 4.523 0 0 1 0 1.646l1.175.678a.4.4 0 0 1 .146.546l-1.1 1.906a.4.4 0 0 1-.546.146l-1.175-.679a4.494 4.494 0 0 1-1.425.824V17.6a.4.4 0 0 1-.4.4h-2.2a.4.4 0 0 1-.4-.4v-1.356a4.496 4.496 0 0 1-1.424-.824l-1.175.679a.4.4 0 0 1-.547-.147l-1.1-1.905a.4.4 0 0 1 .146-.546l1.175-.678a4.523 4.523 0 0 1 0-1.646l-1.174-.678a.4.4 0 0 1-.147-.546l1.1-1.906a.4.4 0 0 1 .546-.146l1.176.679a4.495 4.495 0 0 1 1.424-.824V6.4c0-.22.18-.4.4-.4h2.2a.399.399 0 0 1 .4.4Zm.75 5.6a2.25 2.25 0 1 1-4.5 0 2.25 2.25 0 0 1 4.5 0Z" clip-rule="evenodd"/>
      <path fill="#A5B7C0" class="Primary" d="M8 12a2 2 0 0 1 1.585-1.957 1.4 1.4 0 0 0 .696 1.322l.606.35a5.595 5.595 0 0 0 0 .57l-.606.35a1.4 1.4 0 0 0-.696 1.322A2 2 0 0 1 8 12Z"/>
    </g>
  </g>
</svg>
