<svg xmlns="http://www.w3.org/2000/svg" width="24" height="20" fill="none" viewBox="0 0 24 20">
  <g class="24x20/Solid/mute">
    <path fill="#E1E7EA" fill-rule="evenodd" d="M19 10c0 1.937-.424 3.774-1.183 5.426l1.715 1.055A14.942 14.942 0 0 0 21 10c0-2.56-.642-4.971-1.773-7.08L17.57 4.067A12.945 12.945 0 0 1 19 10Zm-2 0c0-1.7-.471-3.29-1.29-4.645l-1.649 1.141A6.968 6.968 0 0 1 15 10a6.97 6.97 0 0 1-.78 3.213l1.708 1.05A8.96 8.96 0 0 0 17 10ZM9.375 3.3 4.75 7H2a1 1 0 0 0-1 1v4a1 1 0 0 0 1 1h2.75l4.625 3.7A1 1 0 0 0 11 15.92V4.08a1 1 0 0 0-1.625-.78Z" class="Primary" clip-rule="evenodd"/>
  </g>
</svg>
