<svg xmlns="http://www.w3.org/2000/svg" width="24" height="20" fill="none" viewBox="0 0 24 20">
  <g class="24x20/Solid/unmute">
    <path fill="#E1E7EA" fill-rule="evenodd" d="m4.75 7 4.625-3.7A1 1 0 0 1 11 4.08v11.84a1 1 0 0 1-1.625.78L4.75 13H2a1 1 0 0 1-1-1V8a1 1 0 0 1 1-1h2.75Z" class="Primary" clip-rule="evenodd"/>
    <path fill="#EF5350" fill-rule="evenodd" d="m18 11.414 3.293 3.293 1.414-1.414L19.414 10l3.293-3.293-1.414-1.414L18 8.586l-3.293-3.293-1.414 1.414L16.586 10l-3.293 3.293 1.414 1.414L18 11.414Z" class="Secondary" clip-rule="evenodd"/>
  </g>
</svg>
