<svg xmlns="http://www.w3.org/2000/svg" width="24" height="20" fill="none" viewBox="0 0 24 20">
  <g class="24x20/Solid/userinput">
    <path fill="#A5B7C0" fill-rule="evenodd" d="M3 15V5h12v2.106c.254-.106.519-.178.788-.216A3.232 3.232 0 0 1 17 5.884V4a1 1 0 0 0-1-1H2a1 1 0 0 0-1 1v12a1 1 0 0 0 1 1h7.072a3.197 3.197 0 0 1 1.034-1.664L9.77 15H3Zm12.135-5.43a1.206 1.206 0 0 0 .247.357l-.074-.074-.354-.354a1.212 1.212 0 0 0-1.72 1.708L10.026 8a1.212 1.212 0 0 0-1.714 1.714l6.335 6.335-2.218-.452a1.212 1.212 0 1 0-.484 2.375l6.075 1.239c.294.06.586.007.83-.128a1.52 1.52 0 0 0 .603-.37l3.214-3.214a3.636 3.636 0 0 0 0-5.142l-.852-.852-.005-.005-2.571-2.571a1.212 1.212 0 1 0-1.714 1.714l-.429-.429a1.212 1.212 0 0 0-1.961 1.357Z" class="Primary" clip-rule="evenodd"/>
  </g>
</svg>
