<svg xmlns="http://www.w3.org/2000/svg" width="24" height="20" fill="none" viewBox="0 0 24 20">
  <g class="24x20/Solid/userinput">
    <path fill="#A5B7C0" class="Primary" d="M3 5v10h6.77l.336.336c-.494.42-.866.992-1.034 1.664H2a1 1 0 0 1-1-1V4a1 1 0 0 1 1-1h14a1 1 0 0 1 1 1v1.884a3.206 3.206 0 0 0-1.212 1.006 3.2 3.2 0 0 0-.788.216V5H3Z"/>
    <path fill="#A5B7C0" class="Primary" fill-rule="evenodd" d="M15.313 9.853a1.213 1.213 0 0 1 1.783-1.64l.429.429a1.212 1.212 0 0 1 1.714-1.714l2.57 2.571.006.005.852.852a3.636 3.636 0 0 1 0 5.142l-3.214 3.214a1.51 1.51 0 0 1-.603.37 1.208 1.208 0 0 1-.83.128l-6.075-1.239a1.212 1.212 0 1 1 .484-2.375l2.218.452-6.335-6.335A1.212 1.212 0 1 1 10.026 8l3.208 3.208a1.212 1.212 0 0 1 1.72-1.708l.354.354h.005Zm0 0c.022.025.045.05.07.074l.428.429-.503-.503h.005Z" clip-rule="evenodd"/>
  </g>
</svg>
