<?xml version="1.0" encoding="UTF-8" standalone="no"?>
<!-- Created with Inkscape (http://www.inkscape.org/) -->

<svg
   xmlns:dc="http://purl.org/dc/elements/1.1/"
   xmlns:cc="http://creativecommons.org/ns#"
   xmlns:rdf="http://www.w3.org/1999/02/22-rdf-syntax-ns#"
   xmlns:svg="http://www.w3.org/2000/svg"
   xmlns="http://www.w3.org/2000/svg"
   version="1.1"
   width="24"
   height="24"
   id="svg2"
   xml:space="preserve"><metadata
     id="metadata8"><rdf:RDF><cc:Work
         rdf:about=""><dc:format>image/svg+xml</dc:format><dc:type
           rdf:resource="http://purl.org/dc/dcmitype/StillImage" /><dc:title></dc:title></cc:Work></rdf:RDF></metadata><defs
     id="defs6"><clipPath
       id="clipPath16"><path
         d="M 0,256 256,256 256,0 0,0 0,256 z"
         id="path18" /></clipPath></defs><g
     transform="matrix(1.25,0,0,-1.25,0,24)"
     id="g10"><path
       d="M 10.03125,2 C 9.4602316,2 9,2.4602316 9,3.03125 L 9,8.0301731 C 9,8.5847458 8.5741525,9 8,9 L 3.03125,9 C 2.4602316,9 2,9.4602316 2,10.03125 l 0,3.9375 C 2,14.539768 2.4602316,15 3.03125,15 L 8,15 c 0.5797105,0 1,0.438722 1,1 l 0,4.96875 C 9,21.539768 9.4602316,22 10.03125,22 l 3.9375,0 C 14.539768,22 15,21.539768 15,20.96875 L 15,16 c 0,-0.575596 0.420039,-1 1,-1 l 4.96875,0 C 21.539768,15 22,14.539768 22,13.96875 l 0,-3.9375 C 22,9.4602316 21.539768,9 20.96875,9 L 16,9 C 15.419175,9 15,8.5647217 15,8 L 15,3.03125 C 15,2.4602316 14.539768,2 13.96875,2 z"
       transform="matrix(0.8,0,0,-0.8,0,19.2)"
       id="rect3772"
       style="fill:#8abf22;fill-opacity:1;stroke:none" /></g></svg>