<?xml version="1.0" encoding="UTF-8" standalone="no"?>
<!-- Created with Inkscape (http://www.inkscape.org/) -->

<svg
   xmlns:dc="http://purl.org/dc/elements/1.1/"
   xmlns:cc="http://creativecommons.org/ns#"
   xmlns:rdf="http://www.w3.org/1999/02/22-rdf-syntax-ns#"
   xmlns:svg="http://www.w3.org/2000/svg"
   xmlns="http://www.w3.org/2000/svg"
   version="1.1"
   width="24"
   height="24"
   id="svg2"
   xml:space="preserve"><metadata
     id="metadata8"><rdf:RDF><cc:Work
         rdf:about=""><dc:format>image/svg+xml</dc:format><dc:type
           rdf:resource="http://purl.org/dc/dcmitype/StillImage" /><dc:title></dc:title></cc:Work></rdf:RDF></metadata><defs
     id="defs6"><clipPath
       id="clipPath16"><path
         d="M 0,256 256,256 256,0 0,0 0,256 z"
         id="path18" /></clipPath></defs><g
     transform="matrix(1.25,0,0,-1.25,0,23)"
     id="g10"><g
       transform="matrix(0.08133468,0,0,0.08133468,-0.82167851,-2.1547541)"
       id="g12"><g
         clip-path="url(#clipPath16)"
         id="g14"><g
           transform="translate(137.9051,51.2321)"
           id="g20"><path
             d="m 0.06407268,-0.14990357 c -4.91795138,-4.91795133 -14.75385368,-4.91795133 -19.67180568,0 L -103.21291,83.45527 c -4.91795,4.917951 -2.5647,9.835902 4.917956,9.835902 l 49.179513,0 c 6.032898,0 9.835903,3.490423 9.835903,9.835898 l 0,49.17952 c 0,5.66822 4.115586,9.8359 9.835903,9.8359 l 39.3436104,0 c 5.5829106,0 9.8359026,-4.18722 9.8359026,-9.8359 l 0,-49.17952 c 0,-6.032893 3.698811,-9.835898 9.835903,-9.835898 l 49.179513,0 c 6.939293,0 9.835903,-4.917951 4.917952,-9.835902 z"
             id="path22"
             style="fill:#2ca0da;fill-opacity:1;fill-rule:nonzero;stroke:none" /></g></g></g></g></svg>