<?xml version="1.0" encoding="utf-8"?>
<!-- Generator: Adobe Illustrator 23.0.1, SVG Export Plug-In . SVG Version: 6.00 Build 0)  -->
<svg version="1.1" id="clock_1_" xmlns="http://www.w3.org/2000/svg" xmlns:xlink="http://www.w3.org/1999/xlink" x="0px" y="0px"
	 viewBox="0 0 128 128" style="enable-background:new 0 0 128 128;" xml:space="preserve">
<style type="text/css">
	.st0{fill-rule:evenodd;clip-rule:evenodd;fill:#303F47;}
	.st1{fill-rule:evenodd;clip-rule:evenodd;fill:none;stroke:#303F47;stroke-width:2;stroke-linecap:round;stroke-miterlimit:10;}
</style>
<circle class="st0" cx="65" cy="65" r="3"/>
<circle class="st1" cx="65" cy="65" r="54"/>
<line class="st1" x1="65" y1="65" x2="98" y2="46"/>
<line class="st1" x1="65" y1="65" x2="46" y2="50"/>
<line class="st1" x1="65" y1="17" x2="65" y2="21"/>
<line class="st1" x1="65" y1="109" x2="65" y2="113"/>
<line class="st1" x1="41" y1="23.43" x2="43" y2="26.89"/>
<line class="st1" x1="87" y1="103.11" x2="89" y2="106.57"/>
<line class="st1" x1="23.43" y1="41" x2="26.89" y2="43"/>
<line class="st1" x1="103.11" y1="87" x2="106.57" y2="89"/>
<line class="st1" x1="17" y1="65" x2="21" y2="65"/>
<line class="st1" x1="109" y1="65" x2="113" y2="65"/>
<line class="st1" x1="23.43" y1="89" x2="26.89" y2="87"/>
<line class="st1" x1="103.11" y1="43" x2="106.57" y2="41"/>
<line class="st1" x1="41" y1="106.57" x2="43" y2="103.11"/>
<line class="st1" x1="87" y1="26.89" x2="89" y2="23.43"/>
</svg>
