<svg xmlns="http://www.w3.org/2000/svg" width="40" height="40" fill="none" viewBox="0 0 40 40">
  <g class="40x40/Outline/update_checkmark">
    <path fill="#E1E7EA" fill-rule="evenodd" d="M35.5 20c0 8.56-6.94 15.5-15.5 15.5-8.56 0-15.5-6.94-15.5-15.5 0-8.56 6.94-15.5 15.5-15.5 8.56 0 15.5 6.94 15.5 15.5Zm1.5 0c0 9.389-7.611 17-17 17S3 29.389 3 20 10.611 3 20 3s17 7.611 17 17Zm-10.712-3.72a.75.75 0 1 0-1.06-1.06l-7.96 7.959-2.988-2.988a.75.75 0 1 0-1.06 1.06l3.521 3.522a.75.75 0 0 0 1.117-.063l8.43-8.43Z" class="Primary" clip-rule="evenodd"/>
  </g>
</svg>
