<svg xmlns="http://www.w3.org/2000/svg" width="64" height="64" fill="none" viewBox="0 0 64 64">
  <g class="64x64/Solid/audio_off">
    <path fill="#E1E7EA" fill-rule="evenodd" d="M10.414 7.586a2 2 0 1 0-2.828 2.828L18.53 21.36 31 33.828l7.105 7.105 3.3 3.301 4.536 4.535 2.933 2.933 4.712 4.712a2 2 0 1 0 2.828-2.828l-4.272-4.273-2.836-2.836-4.263-4.263-2.858-2.857L31 28.172l-9.738-9.738L10.414 7.586ZM14.514 23 31 39.485v11.441c0 1.815-2.224 2.692-3.462 1.365L17 41H6a2 2 0 0 1-2-2V25a2 2 0 0 1 2-2h8.515Zm27.368 27.367A19.025 19.025 0 0 1 37 51a2 2 0 1 0 0 4 22.95 22.95 0 0 0 8.062-1.453l-3.18-3.18Zm13.031-3.94A22.903 22.903 0 0 0 60 32C60 19.297 49.703 9 37 9a2 2 0 1 0 0 4c10.493 0 19 8.507 19 19 0 4.358-1.467 8.374-3.935 11.58l2.848 2.848Zm-7.144-7.143A12.94 12.94 0 0 0 50 32c0-7.18-5.82-13-13-13a2 2 0 1 0 0 4 9 9 0 0 1 7.865 13.38l2.904 2.904ZM31 22.514v-9.44c0-1.815-2.224-2.692-3.462-1.365l-3.545 3.799L31 22.515Z" class="Primary" clip-rule="evenodd"/>
  </g>
</svg>
