<svg xmlns="http://www.w3.org/2000/svg" width="64" height="64" fill="none" viewBox="0 0 64 64">
  <g class="64x64/Solid/group_default">
    <circle cx="32" cy="32" r="32" fill="#212A2F" class="Primary"/>
    <path fill="#A5B7C0" fill-rule="evenodd" d="M27 18a6 6 0 0 0-6 6v2a6 6 0 0 0 12 0v-2a6 6 0 0 0-6-6Zm-5.56 18c-3.502 0-6.522 2.476-7.23 5.927l-.172.84A1.854 1.854 0 0 0 15.846 45H33v-3c0-1.636.786-3.088 2-4v-1l.001-.144A7.326 7.326 0 0 0 31.56 36H21.441Zm21.756-7H43a7.983 7.983 0 0 0-6.154 2.889 5.953 5.953 0 0 1-1.437-.476A9.953 9.953 0 0 0 37 26v-2a9.954 9.954 0 0 0-1.59-5.413A6 6 0 0 1 44 24v2a5.972 5.972 0 0 1-.802 3Z" class="Secondary" clip-rule="evenodd"/>
    <path fill="#E1E7EA" fill-rule="evenodd" d="M43 36h2a1 1 0 0 1 1 1v4h-4v-4a1 1 0 0 1 1-1Zm-4 5v-4a4 4 0 0 1 4-4h2a4 4 0 0 1 4 4v4h1a1 1 0 0 1 1 1v6a1 1 0 0 1-1 1H38a1 1 0 0 1-1-1v-6a1 1 0 0 1 1-1h1Z" class="Third" clip-rule="evenodd"/>
  </g>
</svg>
