<svg xmlns="http://www.w3.org/2000/svg" width="64" height="64" fill="none" viewBox="0 0 64 64">
  <g class="64x64/Solid/group_default">
    <path fill="#171C1F" d="M6 12a6 6 0 0 1 6-6h40a6 6 0 0 1 6 6v40a6 6 0 0 1-6 6H12a6 6 0 0 1-6-6V12Z" class="Primary"/>
    <path fill="#A5B7C0" fill-rule="evenodd" d="M52 7H12a5 5 0 0 0-5 5v40a5 5 0 0 0 5 5h40a5 5 0 0 0 5-5V12a5 5 0 0 0-5-5ZM12 6a6 6 0 0 0-6 6v40a6 6 0 0 0 6 6h40a6 6 0 0 0 6-6V12a6 6 0 0 0-6-6H12Z" class="Secondary" clip-rule="evenodd"/>
  </g>
</svg>
