<svg xmlns="http://www.w3.org/2000/svg" width="64" height="64" fill="none" viewBox="0 0 64 64">
  <g class="64x64/Solid/group">
    <circle cx="32" cy="32" r="32" fill="#212A2F" class="Primary"/>
    <path fill="#A5B7C0" fill-rule="evenodd" d="M21 24a6 6 0 1 1 12 0v2a6 6 0 1 1-12 0v-2Zm-6.789 17.927c.708-3.451 3.728-5.927 7.23-5.927h10.118c3.502 0 6.522 2.476 7.23 5.927l.172.84A1.854 1.854 0 0 1 37.154 45H15.846a1.854 1.854 0 0 1-1.807-2.233l.172-.84ZM48.154 45h-5.455a5.833 5.833 0 0 0 .18-3.036l-.172-.84A11.42 11.42 0 0 0 40.21 36h2.35c3.502 0 6.522 2.476 7.23 5.927l.172.84A1.854 1.854 0 0 1 48.154 45ZM38 32c-.928 0-1.807-.21-2.59-.587A9.953 9.953 0 0 0 37 26v-2a9.954 9.954 0 0 0-1.59-5.413A6 6 0 0 1 44 24v2a6 6 0 0 1-6 6Z" class="Secondary" clip-rule="evenodd"/>
  </g>
</svg>
