<svg xmlns="http://www.w3.org/2000/svg" width="64" height="64" fill="none" viewBox="0 0 64 64">
  <g class="64x64/Solid/initials">
    <circle cx="32" cy="32" r="32" fill="#212A2F" class="Primary"/>
    <path fill="#2FA2DB" d="M28.648 30.063v2.332H19.59v-2.333h9.058Zm-8.332-7.125V40h-2.941V22.937h2.941Zm10.594 0V40h-2.93V22.937h2.93ZM39.371 40h-3.644l.023-2.332h3.621c1.055 0 1.938-.23 2.648-.691.72-.461 1.258-1.121 1.618-1.98.367-.86.55-1.884.55-3.071V31c0-.922-.105-1.738-.316-2.45-.203-.71-.508-1.308-.914-1.792a3.827 3.827 0 0 0-1.477-1.102c-.578-.25-1.246-.375-2.003-.375h-3.82v-2.343h3.82c1.132 0 2.168.19 3.105.574a6.814 6.814 0 0 1 2.426 1.629 7.235 7.235 0 0 1 1.582 2.554c.367.992.55 2.102.55 3.328v.903c0 1.226-.183 2.336-.55 3.328a7.234 7.234 0 0 1-1.582 2.555 7.094 7.094 0 0 1-2.461 1.629c-.945.374-2.004.562-3.176.562Zm-2.016-17.063V40h-2.94V22.937h2.94Z" class="Secondary"/>
  </g>
</svg>
