<svg xmlns="http://www.w3.org/2000/svg" width="64" height="64" fill="none" viewBox="0 0 64 64">
  <g class="64x64/Solid/audio_on">
    <path fill="#E1E7EA" fill-rule="evenodd" d="M35 11a2 2 0 0 1 2-2c12.703 0 23 10.297 23 23S49.703 55 37 55a2 2 0 1 1 0-4c10.493 0 19-8.507 19-19s-8.507-19-19-19a2 2 0 0 1-2-2Zm-7.462.71L17 23H6a2 2 0 0 0-2 2v14a2 2 0 0 0 2 2h11l10.538 11.29c1.238 1.328 3.462.451 3.462-1.364V13.074c0-1.815-2.224-2.692-3.462-1.365ZM37 19a2 2 0 1 0 0 4 9 9 0 1 1 0 18 2 2 0 1 0 0 4c7.18 0 13-5.82 13-13s-5.82-13-13-13Z" class="Primary" clip-rule="evenodd"/>
  </g>
</svg>
