<svg xmlns="http://www.w3.org/2000/svg" width="64" height="64" fill="none" viewBox="0 0 64 64">
  <g class="64x64/Solid/user_cloud_two">
    <path fill="#A5B7C0" fill-rule="evenodd" d="M16.375 17.878c0-5.455 4.365-9.878 9.75-9.878 5.384 0 9.75 4.423 9.75 9.878v3.293c0 5.456-4.366 9.879-9.75 9.879-5.385 0-9.75-4.423-9.75-9.879v-3.293ZM5.343 47.395c1.15-5.683 6.058-9.76 11.749-9.76h9.969c-.194.486-.38.995-.561 1.53h-2.537c-4.05 0-7.333 4.364-7.333 9.747 0 1.25.177 2.444.5 3.542H8c-1.9 0-3.321-1.779-2.937-3.676l.28-1.383Z" class="Secondary" clip-rule="evenodd"/>
    <path fill="#2FA2DB" d="M44.7 29.372c3.628 0 6.655 2.959 7.35 6.89h1.65c2.485 0 4.5 2.313 4.5 5.166a5.9 5.9 0 0 1-.161 1.37c-1.314-2.215-3.325-3.633-5.58-3.633h-2.46c-1.803-5.102-4.303-8.09-7.85-9.281a6.625 6.625 0 0 1 2.551-.512Z" class="Tertiary"/>
    <path fill="#CDD7DC" fill-rule="evenodd" d="M47.857 42.17h2.185c3.29 0 5.958 3.096 5.958 6.915C56 52.905 53.332 56 50.042 56H26.208c-3.29 0-5.958-3.096-5.958-6.915 0-3.82 2.668-6.915 5.958-6.915h2.185c.92-5.26 4.928-9.22 9.732-9.22 4.804 0 8.812 3.96 9.732 9.22Z" class="Primary" clip-rule="evenodd"/>
  </g>
</svg>
