<svg xmlns="http://www.w3.org/2000/svg" width="64" height="64" fill="none" viewBox="0 0 64 64">
  <g class="64x64/Solid/user_cp">
    <circle cx="32" cy="32" r="32" fill="#212A2F" class="Primary"/>
    <path fill="#E1E7EA" d="M44.264 38.118c.406 0 .736.33.736.736v8.41c0 .406-.33.736-.736.736H31.736a.737.737 0 0 1-.736-.736v-8.41c0-.406.33-.736.736-.736h12.528ZM41.338 33.8c.203 0 .367.165.367.368v1.067l.001 2.059H40.2V35.25h-4.4v2.044h-1.506v-3.126c0-.203.165-.368.368-.368h6.676Z" class="Tertiary"/>
    <path fill="#A5B7C0" d="M28.886 36.692a3.222 3.222 0 0 0-.846 2.187V45H20.3c-.795 0-1.404-.722-1.286-1.524.573-3.9 3.855-6.784 7.718-6.784h2.154Zm1.883 1.427-.07.034a.763.763 0 0 1 .07-.035l.073-.027a.77.77 0 0 0-.073.028ZM30.999 18a6 6 0 0 1 6 6v2.538a6 6 0 0 1-12 0V24a6 6 0 0 1 6-6Z" class="Secondary"/>
  </g>
</svg>
