<?xml version="1.0" encoding="UTF-8"?>
<svg width="20px" height="20px" viewBox="0 0 20 20" version="1.1" xmlns="http://www.w3.org/2000/svg" xmlns:xlink="http://www.w3.org/1999/xlink">
    <title>abdominal</title>
    <g id="Page-1" stroke="none" stroke-width="1" fill="none" fill-rule="evenodd">
        <g id="abdominal">
            <rect id="Rectangle" fill-opacity="0.01" fill="#FFFFFF" fill-rule="nonzero" x="0" y="0" width="20" height="20"></rect>
            <path d="M3.29135833,2.08328333 C4.47379167,3.34132917 5.065,4.97529167 5.065,6.98516667 C5.065,9.99995833 2.49979167,12.3075417 2.07041667,13.9582917 C1.78416667,15.0587917 1.64951667,16.3782083 1.66645833,17.916625" id="Path" stroke="#A5B7C0" stroke-linecap="round"></path>
            <path d="M16.3566667,2.08328333 C15.17425,3.34132917 14.583,4.97529167 14.583,6.98516667 C14.583,9.99995833 17.14825,12.3075417 17.577625,13.9582917 C17.863875,15.0587917 17.9985,16.3782083 17.9815833,17.916625" id="Path" stroke="#A5B7C0" stroke-linecap="round"></path>
            <path d="M2.601725,12.8486667 C5.32054167,14.5694167 7.78954167,15.4298333 10.0087917,15.4298333 C12.228,15.4298333 14.5749583,14.5694167 17.0496667,12.8486667" id="Path" stroke="#A5B7C0" stroke-linecap="round"></path>
            <path d="M10,12.916625 C10.5752917,12.916625 11.0416667,12.45025 11.0416667,11.8749583 C11.0416667,11.2996667 10.5752917,10.8332917 10,10.8332917 C9.42470833,10.8332917 8.95833333,11.2996667 8.95833333,11.8749583 C8.95833333,12.45025 9.42470833,12.916625 10,12.916625 Z" id="Path" fill="#A5B7C0" fill-rule="nonzero"></path>
        </g>
    </g>
</svg>