<?xml version="1.0" encoding="UTF-8"?>
<svg width="20px" height="20px" viewBox="0 0 20 20" version="1.1" xmlns="http://www.w3.org/2000/svg" xmlns:xlink="http://www.w3.org/1999/xlink">
    <title>adjacent-item</title>
    <g id="Page-1" stroke="none" stroke-width="1" fill="none" fill-rule="evenodd">
        <g id="adjacent-item">
            <rect id="Rectangle" fill-opacity="0.01" fill="#FFFFFF" fill-rule="nonzero" x="0" y="0" width="20" height="20"></rect>
            <polygon id="Path" points="5.83333333 12.0833333 17.5 12.0833333 17.5 17.0833333 5.83333333 17.0833333 5.83333333 14.5833333"></polygon>
            <polygon id="Path" points="5.83333333 2.91666667 17.5 2.91666667 17.5 7.91666667 5.83333333 7.91666667 5.83333333 5.41666667"></polygon>
            <path d="M5.83333333,5.41666667 L5.83333333,7.91666667 L17.5,7.91666667 L17.5,2.91666667 L5.83333333,2.91666667 L5.83333333,5.41666667 Z M5.83333333,5.41666667 L2.5,5.41666667 L2.5,14.5833333 L5.83333333,14.5833333 M5.83333333,14.5833333 L5.83333333,17.0833333 L17.5,17.0833333 L17.5,12.0833333 L5.83333333,12.0833333 L5.83333333,14.5833333 Z" id="Shape" stroke="#A5B7C0" stroke-linecap="round" stroke-linejoin="round"></path>
            <polyline id="Path" stroke="#A5B7C0" stroke-linecap="round" stroke-linejoin="round" points="5.83333333 5.41666667 2.5 5.41666667 2.5 14.5833333 5.83333333 14.5833333"></polyline>
            <polygon id="Path" stroke="#A5B7C0" stroke-linecap="round" stroke-linejoin="round" points="5.83333333 12.0833333 17.5 12.0833333 17.5 17.0833333 5.83333333 17.0833333 5.83333333 14.5833333"></polygon>
            <polygon id="Path" stroke="#A5B7C0" stroke-linecap="round" stroke-linejoin="round" points="5.83333333 2.91666667 17.5 2.91666667 17.5 7.91666667 5.83333333 7.91666667 5.83333333 5.41666667"></polygon>
        </g>
    </g>
</svg>