<?xml version="1.0" encoding="UTF-8"?>
<svg width="20px" height="20px" viewBox="0 0 20 20" version="1.1" xmlns="http://www.w3.org/2000/svg" xmlns:xlink="http://www.w3.org/1999/xlink">
    <title>anti-corrosion</title>
    <g id="Page-1" stroke="none" stroke-width="1" fill="none" fill-rule="evenodd">
        <g id="anti-corrosion">
            <rect id="Rectangle" fill-opacity="0.01" fill="#FFFFFF" fill-rule="nonzero" x="0" y="0" width="20" height="20"></rect>
            <path d="M10,17.4982917 C15.5555417,17.5411667 18.3333333,17.086375 18.3333333,16.1339167 C18.3333333,14.7052917 11.83925,7.50108333 10,7.50108333 C8.16075,7.50108333 1.66666667,14.8545833 1.66666667,16.1339167 C1.66666667,16.9868333 4.44445833,17.441625 10,17.4982917 Z" id="Path" stroke="#A5B7C0" stroke-linejoin="round"></path>
            <line x1="8.77504167" y1="12.358875" x2="7.26683333" y2="14.16675" id="Path" stroke="#A5B7C0" stroke-linecap="round"></line>
            <path d="M10.2083333,4.583375 C10.783625,4.583375 11.25,4.11702083 11.25,3.541725 C11.25,2.96642917 10.783625,2.50005833 10.2083333,2.50005833 C9.63304167,2.50005833 9.16666667,2.96642917 9.16666667,3.541725 C9.16666667,4.11702083 9.63304167,4.583375 10.2083333,4.583375 Z" id="Path" fill="#A5B7C0" fill-rule="nonzero"></path>
            <path d="M14.1666667,6.66670833 C14.6269167,6.66670833 15,6.293625 15,5.833375 C15,5.37316667 14.6269167,5.00004167 14.1666667,5.00004167 C13.7064167,5.00004167 13.3333333,5.37316667 13.3333333,5.833375 C13.3333333,6.293625 13.7064167,6.66670833 14.1666667,6.66670833 Z" id="Path" fill="#A5B7C0" fill-rule="nonzero"></path>
            <path d="M5,8.75004167 C5.46025,8.75004167 5.83333333,8.37695833 5.83333333,7.91670833 C5.83333333,7.4565 5.46025,7.083375 5,7.083375 C4.53975,7.083375 4.16666667,7.4565 4.16666667,7.91670833 C4.16666667,8.37695833 4.53975,8.75004167 5,8.75004167 Z" id="Path" fill="#A5B7C0" fill-rule="nonzero"></path>
            <path d="M7.29166667,6.25004167 C7.63683333,6.25004167 7.91666667,5.97025 7.91666667,5.62504167 C7.91666667,5.279875 7.63683333,5.00004167 7.29166667,5.00004167 C6.9465,5.00004167 6.66666667,5.279875 6.66666667,5.62504167 C6.66666667,5.97025 6.9465,6.25004167 7.29166667,6.25004167 Z" id="Path" fill="#A5B7C0" fill-rule="nonzero"></path>
        </g>
    </g>
</svg>