<?xml version="1.0" encoding="UTF-8"?>
<svg width="20px" height="20px" viewBox="0 0 20 20" version="1.1" xmlns="http://www.w3.org/2000/svg" xmlns:xlink="http://www.w3.org/1999/xlink">
    <title>api</title>
    <g id="Page-1" stroke="none" stroke-width="1" fill="none" fill-rule="evenodd">
        <g id="api">
            <rect id="Rectangle" fill-opacity="0.01" fill="#FFFFFF" fill-rule="nonzero" x="0" y="0" width="20" height="20"></rect>
            <path d="M15.4166667,9.16670833 L14.1666667,10.4167083 L9.58333333,5.833375 L10.8333333,4.583375 C11.4583333,3.95834167 13.75,2.9166875 15.4166667,4.583375 C17.0833333,6.25004167 16.0416667,8.54166667 15.4166667,9.16670833 Z" id="Path" stroke="#A5B7C0" stroke-linecap="round" stroke-linejoin="round"></path>
            <line x1="17.5" y1="2.5" x2="15.4166667" y2="4.58333333" id="Path" stroke="#A5B7C0" stroke-linecap="round" stroke-linejoin="round"></line>
            <path d="M4.58333333,10.8332917 L5.83333333,9.58329167 L10.4166667,14.166625 L9.16666667,15.416625 C8.54166667,16.0416667 6.25,17.0833333 4.58333333,15.416625 C2.91666667,13.7499583 3.95833333,11.4583333 4.58333333,10.8332917 Z" id="Path" stroke="#A5B7C0" stroke-linecap="round" stroke-linejoin="round"></path>
            <line x1="9.58333333" y1="13.3333333" x2="11.25" y2="11.6666667" id="Path" stroke="#A5B7C0" stroke-linecap="round" stroke-linejoin="round"></line>
            <line x1="2.5" y1="17.5" x2="4.58333333" y2="15.4166667" id="Path" stroke="#A5B7C0" stroke-linecap="round" stroke-linejoin="round"></line>
            <line x1="6.66666667" y1="10.4166667" x2="8.33333333" y2="8.75" id="Path" stroke="#A5B7C0" stroke-linecap="round" stroke-linejoin="round"></line>
        </g>
    </g>
</svg>