<?xml version="1.0" encoding="UTF-8"?>
<svg width="20px" height="20px" viewBox="0 0 20 20" version="1.1" xmlns="http://www.w3.org/2000/svg" xmlns:xlink="http://www.w3.org/1999/xlink">
    <title>apple-one</title>
    <g id="Page-1" stroke="none" stroke-width="1" fill="none" fill-rule="evenodd">
        <g id="apple-one">
            <rect id="Rectangle" fill-opacity="0.01" fill="#FFFFFF" fill-rule="nonzero" x="0" y="0" width="20" height="20"></rect>
            <path d="M10,17.09175 C11.0129583,17.09175 11.429625,17.6375833 11.9725833,17.7589167 C12.5155417,17.8802917 12.9713333,17.9139583 13.438125,17.7082917 C14.3625,17.3009583 14.926,16.81575 15.60975,16.0910833 C16.8769167,14.7480417 17.5,12.9014583 17.5,10.4285833 C17.5,7.95566667 16.8331667,6.67770833 15.8055833,5.84175 C14.778,5.00583333 14.1820833,4.84566667 12.9395417,5.00583333 C11.6969583,5.16595833 11.020375,6.50104167 10.0034583,6.50104167 C8.98658333,6.50104167 7.74720833,5.184625 6.66895833,5.00583333 C5.59070833,4.827 5,5.00583333 4.06652917,5.84175 C3.13305833,6.67770833 2.5,7.97941667 2.5,10.4285833 C2.5,12.87775 3.14647917,14.69375 4.413625,16.03675 C5.097375,16.7614583 5.6375,17.3009583 6.561875,17.7082917 C7.02866667,17.9139583 7.511125,17.8802917 8.03516667,17.7589167 C8.55925,17.6375833 8.97591667,17.09175 10,17.09175 Z" id="Path" stroke="#A5B7C0"></path>
            <path d="M10.0034583,6.50104167 C10.3305,3.27812917 11.71975,1.66666667 14.1712083,1.66666667 C14.396,2.34494167 14.4540417,3.0014 14.3454167,3.63604167 C14.2937917,3.93753333 14.1336667,4.36745833 13.8649583,4.92579167" id="Path" stroke="#A5B7C0" stroke-linecap="round"></path>
            <path d="M5.92879167,10.8333333 C5.81358333,11.3940417 5.81358333,11.971375 5.92879167,12.56525 C6.04404167,13.159125 6.28941667,13.6174167 6.665,13.940125" id="Path" stroke="#A5B7C0" stroke-linecap="round"></path>
        </g>
    </g>
</svg>