<?xml version="1.0" encoding="UTF-8"?>
<svg width="20px" height="20px" viewBox="0 0 20 20" version="1.1" xmlns="http://www.w3.org/2000/svg" xmlns:xlink="http://www.w3.org/1999/xlink">
    <title>application</title>
    <g id="Page-1" stroke="none" stroke-width="1" fill="none" fill-rule="evenodd">
        <g id="application">
            <rect id="Rectangle" fill-opacity="0.01" fill="#FFFFFF" fill-rule="nonzero" x="0" y="0" width="20" height="20"></rect>
            <polyline id="Path" stroke="#A5B7C0" stroke-linecap="round" stroke-linejoin="round" points="16.6830417 9.16666667 16.6830417 17.5 3.3497125 17.5 3.3497125 9.16666667"></polyline>
            <path d="M2.43429583,5.74025 C1.79698333,7.39070833 3.02627917,9.16666667 4.7955,9.16666667 C6.17620833,9.16666667 7.30316667,8.047375 7.30316667,6.66666667 C7.30316667,8.047375 8.42245833,9.16666667 9.80316667,9.16666667 L10.2275,9.16666667 C11.6082083,9.16666667 12.7275,8.047375 12.7275,6.66666667 C12.7275,8.047375 13.8549167,9.16666667 15.235625,9.16666667 C17.0057917,9.16666667 18.23625,7.38966667 17.5984167,5.73845833 L16.347375,2.5 L3.6855125,2.5 L2.43429583,5.74025 Z" id="Path" stroke="#A5B7C0" stroke-linejoin="round"></path>
        </g>
    </g>
</svg>