<?xml version="1.0" encoding="UTF-8"?>
<svg width="20px" height="20px" viewBox="0 0 20 20" version="1.1" xmlns="http://www.w3.org/2000/svg" xmlns:xlink="http://www.w3.org/1999/xlink">
    <title>apple</title>
    <g id="Page-1" stroke="none" stroke-width="1" fill="none" fill-rule="evenodd">
        <g id="apple">
            <rect id="Rectangle" fill-opacity="0.01" fill="#FFFFFF" fill-rule="nonzero" x="0" y="0" width="20" height="20"></rect>
            <path d="M9.96316667,4.71570833 C9.99733333,3.7859 10.2585833,2.96917917 10.7407083,2.28645417 C11.2252917,1.60027083 12.0263333,1.11282917 13.1229167,0.836625 C13.1302083,0.870391667 13.1377917,0.904179167 13.1456667,0.9378375 L13.1456667,1.11450417 C13.1456667,1.51510417 13.0485,1.9744625 12.8567083,2.47973333 C12.6557083,2.96895833 12.3415833,3.42940833 11.924375,3.8449625 C11.534125,4.211125 11.1731667,4.45354167 10.854125,4.563125 C10.74875,4.59458333 10.604375,4.62554167 10.4299583,4.65341667 C10.2748333,4.67758333 10.1192083,4.69833333 9.96316667,4.71570833 Z" id="Path" fill="#A5B7C0" fill-rule="nonzero"></path>
            <path d="M10.146125,6.09541667 C8.9075,6.09541667 8.04754167,5 6.82575,5 C5.604,5 3.08695417,6.123 3.08695417,10 C3.08695417,13.877 5.322125,16.375 5.57208333,16.6666667 C5.82208333,16.9583333 6.40025,17.708125 7.29595833,17.708125 C8.19170833,17.708125 9.17233333,16.9959167 10.146125,16.9959167 C11.119875,16.9959167 12.3455417,17.708125 13.1457083,17.708125 C13.945875,17.708125 14.275,17.3819167 14.8195833,16.8192917 C15.364125,16.2566667 16.4028333,14.5397083 16.7655833,13.5092083 C16.1680833,13.1535417 14.5844167,12.1879583 14.5844167,10 C14.5844167,8.54133333 15.1174583,7.32958333 16.1835833,6.36466667 C15.4841667,5.454875 14.673,5 13.7500417,5 C12.3655833,5 11.3847083,6.09541667 10.146125,6.09541667 Z" id="Path" stroke="#A5B7C0" stroke-linejoin="round"></path>
        </g>
    </g>
</svg>