<?xml version="1.0" encoding="UTF-8"?>
<svg width="20px" height="20px" viewBox="0 0 20 20" version="1.1" xmlns="http://www.w3.org/2000/svg" xmlns:xlink="http://www.w3.org/1999/xlink">
    <title>arrow-keys</title>
    <g id="Page-1" stroke="none" stroke-width="1" fill="none" fill-rule="evenodd">
        <g id="arrow-keys">
            <rect id="Rectangle" fill-opacity="0.01" fill="#FFFFFF" fill-rule="nonzero" x="0" y="0" width="20" height="20"></rect>
            <polygon id="Path" points="5.83333333 1.66666667 14.1666667 1.66666667 14.1666667 10 5.83333333 10"></polygon>
            <polygon id="Path" points="1.66666667 10 10 10 10 18.3333333 1.66666667 18.3333333"></polygon>
            <polygon id="Path" points="10 10 18.3333333 10 18.3333333 18.3333333 10 18.3333333"></polygon>
            <path d="M10,10 L1.66666667,10 L1.66666667,18.3333333 L10,18.3333333 M10,10 L10,18.3333333 M10,10 L18.3333333,10 L18.3333333,18.3333333 L10,18.3333333 M5.83333333,1.66666667 L14.1666667,1.66666667 L14.1666667,10 L5.83333333,10 L5.83333333,1.66666667 Z" id="Shape" stroke="#A5B7C0" stroke-linecap="round" stroke-linejoin="round"></path>
            <line x1="10" y1="4.16666667" x2="10" y2="7.5" id="Path" stroke="#A5B7C0" stroke-linecap="round" stroke-linejoin="round"></line>
            <polyline id="Path" stroke="#A5B7C0" stroke-linecap="round" stroke-linejoin="round" points="8.33333333 5.83333333 10 4.16666667 11.6666667 5.83333333"></polyline>
            <line x1="4.16666667" y1="14.1666667" x2="7.5" y2="14.1666667" id="Path" stroke="#A5B7C0" stroke-linecap="round" stroke-linejoin="round"></line>
            <polyline id="Path" stroke="#A5B7C0" stroke-linecap="round" stroke-linejoin="round" points="5.83333333 15.8333333 4.16666667 14.1666667 5.83333333 12.5"></polyline>
            <line x1="15.8333333" y1="14.1666667" x2="12.5" y2="14.1666667" id="Path" stroke="#A5B7C0" stroke-linecap="round" stroke-linejoin="round"></line>
            <polyline id="Path" stroke="#A5B7C0" stroke-linecap="round" stroke-linejoin="round" points="14.1666667 12.5 15.8333333 14.1666667 14.1666667 15.8333333"></polyline>
        </g>
    </g>
</svg>