<?xml version="1.0" encoding="UTF-8"?>
<svg width="20px" height="20px" viewBox="0 0 20 20" version="1.1" xmlns="http://www.w3.org/2000/svg" xmlns:xlink="http://www.w3.org/1999/xlink">
    <title>at-sign</title>
    <g id="Page-1" stroke="none" stroke-width="1" fill="none" fill-rule="evenodd">
        <g id="at-sign">
            <rect id="Rectangle" fill-opacity="0.01" fill="#FFFFFF" fill-rule="nonzero" x="0" y="0" width="20" height="20"></rect>
            <path d="M18.3333333,10 C18.3333333,5.397625 14.602375,1.66666667 10,1.66666667 C5.397625,1.66666667 1.66666667,5.397625 1.66666667,10 C1.66666667,14.602375 5.397625,18.3333333 10,18.3333333 L10,18.3333333 C12.0785833,18.3333333 13.9794583,17.5722917 15.439125,16.3137083" id="Path" stroke="#A5B7C0" stroke-linecap="round" stroke-linejoin="round"></path>
            <path d="M10,13.3333333 C11.8409583,13.3333333 13.3333333,11.8409583 13.3333333,10 C13.3333333,8.15904167 11.8409583,6.66666667 10,6.66666667 C8.15904167,6.66666667 6.66666667,8.15904167 6.66666667,10 C6.66666667,11.8409583 8.15904167,13.3333333 10,13.3333333 Z" id="Path" stroke="#A5B7C0" stroke-linejoin="round"></path>
            <path d="M13.3333333,10 C13.3333333,11.3807083 14.452625,12.5 15.8333333,12.5 L15.8333333,12.5 C17.2140417,12.5 18.3333333,11.3807083 18.3333333,10" id="Path" stroke="#A5B7C0" stroke-linecap="round" stroke-linejoin="round"></path>
            <line x1="13.3333333" y1="10.4166667" x2="13.3333333" y2="6.66666667" id="Path" stroke="#A5B7C0" stroke-linecap="round" stroke-linejoin="round"></line>
        </g>
    </g>
</svg>