<?xml version="1.0" encoding="UTF-8"?>
<svg width="20px" height="20px" viewBox="0 0 20 20" version="1.1" xmlns="http://www.w3.org/2000/svg" xmlns:xlink="http://www.w3.org/1999/xlink">
    <title>audit</title>
    <g id="Page-1" stroke="none" stroke-width="1" fill="none" fill-rule="evenodd">
        <g id="audit">
            <rect id="Rectangle" fill-opacity="0.01" fill="#FFFFFF" fill-rule="nonzero" x="0" y="0" width="20" height="20"></rect>
            <path d="M3.33323333,15 L3.33515417,11.6844167 C3.33552917,11.4544167 3.5220375,11.268 3.7520625,11.26775 C5.14120833,11.26775 6.530375,11.26775 7.91954167,11.26775 C8.3035,11.26775 8.30145833,10.9271667 8.30145833,10.1163333 C8.30145833,9.3055 6.259125,8.62254167 6.259125,5.772 C6.259125,2.9214625 8.374875,2.08333333 10.13325,2.08333333 C11.891625,2.08333333 13.8068333,2.9214625 13.8068333,5.772 C13.8068333,8.62254167 11.7752083,9.07575 11.7752083,10.1163333 C11.7752083,11.156875 11.7752083,11.26775 12.1004583,11.26775 C13.483625,11.26775 14.8668333,11.26775 16.2500417,11.26775 C16.480125,11.26775 16.6667083,11.4543333 16.6667083,11.6844167 L16.6667083,15 L3.33323333,15 Z" id="Path" stroke="#A5B7C0" stroke-linejoin="round"></path>
            <line x1="3.33333333" y1="17.5" x2="16.6666667" y2="17.5" id="Path" stroke="#A5B7C0" stroke-linecap="round" stroke-linejoin="round"></line>
        </g>
    </g>
</svg>