<?xml version="1.0" encoding="UTF-8"?>
<svg width="20px" height="20px" viewBox="0 0 20 20" version="1.1" xmlns="http://www.w3.org/2000/svg" xmlns:xlink="http://www.w3.org/1999/xlink">
    <title>baby</title>
    <g id="Page-1" stroke="none" stroke-width="1" fill="none" fill-rule="evenodd">
        <g id="baby">
            <rect id="Rectangle" fill-opacity="0.01" fill="#FFFFFF" fill-rule="nonzero" x="0" y="0" width="20" height="20"></rect>
            <path d="M10,18.166625 C13.5133333,18.166625 16.4835833,15.3829167 17.455625,12.1873333 C17.674125,11.468875 19.1666667,11.468875 19.1666667,9.916625 C19.1666667,8.36433333 17.6599583,8.275 17.416125,7.51995833 C16.4051667,4.389375 13.4670417,1.66660833 10,1.66660833 C6.53104167,1.66660833 3.59155417,4.39191667 2.5821875,7.52520833 C2.33944583,8.27870833 0.833333333,8.33708333 0.833333333,9.916625 C0.833333333,11.496125 2.33010417,11.496125 2.55620833,12.2257917 C3.54029167,15.4015833 6.50075,18.166625 10,18.166625 Z" id="Path" stroke="#A5B7C0"></path>
            <path d="M17.416125,7.51995833 C16.4051667,4.389375 13.4670417,1.66660833 10,1.66660833" id="Path" stroke="#A5B7C0" stroke-linecap="round"></path>
            <path d="M7.95841667,8.999875 C7.95841667,9.34416667 7.865,9.64645833 7.72491667,9.85658333 C7.583875,10.0681667 7.411875,10.1665417 7.25008333,10.1665417 C7.08829167,10.1665417 6.91629167,10.0681667 6.77525,9.85658333 C6.63516667,9.64645833 6.54175,9.34416667 6.54175,8.999875 C6.54175,8.65554167 6.63516667,8.35329167 6.77525,8.14316667 C6.91629167,7.93158333 7.08829167,7.83320833 7.25008333,7.83320833 C7.411875,7.83320833 7.583875,7.93158333 7.72491667,8.14316667 C7.865,8.35329167 7.95841667,8.65554167 7.95841667,8.999875 Z" id="Path" stroke="#A5B7C0" stroke-width="0.5" fill="#A5B7C0" fill-rule="nonzero"></path>
            <path d="M13.4582917,8.999875 C13.4582917,9.34416667 13.364875,9.64645833 13.2247917,9.85658333 C13.08375,10.0681667 12.91175,10.1665417 12.7499583,10.1665417 C12.5881667,10.1665417 12.4161667,10.0681667 12.275125,9.85658333 C12.1350417,9.64645833 12.041625,9.34416667 12.041625,8.999875 C12.041625,8.65554167 12.1350417,8.35329167 12.275125,8.14316667 C12.4161667,7.93158333 12.5881667,7.83320833 12.7499583,7.83320833 C12.91175,7.83320833 13.08375,7.93158333 13.2247917,8.14316667 C13.364875,8.35329167 13.4582917,8.65554167 13.4582917,8.999875 Z" id="Path" stroke="#A5B7C0" stroke-width="0.5" fill="#A5B7C0" fill-rule="nonzero"></path>
            <path d="M7.7075,13.2292917 C8.51204167,13.7708333 9.2775,14.0415833 10.0039167,14.0415833 C10.7295417,14.0415833 11.449,13.7714167 12.16225,13.2310417" id="Path" fill="#A5B7C0"></path>
            <path d="M7.7075,13.2292917 C8.51204167,13.7708333 9.2775,14.0415833 10.0039167,14.0415833 C10.7295417,14.0415833 11.449,13.7714167 12.16225,13.2310417" id="Path" stroke="#A5B7C0" stroke-linecap="round"></path>
            <path d="M13.220125,2.58335417 C13.3318333,3.38897083 13.086125,3.97765417 12.4830417,4.34941667 C11.8799583,4.721125 10.9000833,4.89533333 9.54345833,4.872" id="Path" stroke="#A5B7C0" stroke-linecap="round"></path>
        </g>
    </g>
</svg>