<?xml version="1.0" encoding="UTF-8"?>
<svg width="20px" height="20px" viewBox="0 0 20 20" version="1.1" xmlns="http://www.w3.org/2000/svg" xmlns:xlink="http://www.w3.org/1999/xlink">
    <title>balance-two</title>
    <g id="Page-1" stroke="none" stroke-width="1" fill="none" fill-rule="evenodd">
        <g id="balance-two">
            <rect id="Rectangle" fill-opacity="0.01" fill="#FFFFFF" fill-rule="nonzero" x="0" y="0" width="20" height="20"></rect>
            <polyline id="Path" stroke="#A5B7C0" stroke-linecap="round" stroke-linejoin="round" points="6.66666667 9.16666667 4.16666667 5 1.66666667 9.16666667"></polyline>
            <path d="M4.16666667,11.6666667 C5.547375,11.6666667 6.66666667,10.547375 6.66666667,9.16666667 L1.66666667,9.16666667 C1.66666667,10.547375 2.78595417,11.6666667 4.16666667,11.6666667 Z" id="Path" stroke="#A5B7C0" stroke-linecap="round" stroke-linejoin="round"></path>
            <polyline id="Path" stroke="#A5B7C0" stroke-linecap="round" stroke-linejoin="round" points="18.3333333 9.16666667 15.8333333 5 13.3333333 9.16666667"></polyline>
            <path d="M15.8333333,11.6666667 C17.2140417,11.6666667 18.3333333,10.547375 18.3333333,9.16666667 L13.3333333,9.16666667 C13.3333333,10.547375 14.452625,11.6666667 15.8333333,11.6666667 Z" id="Path" stroke="#A5B7C0" stroke-linecap="round" stroke-linejoin="round"></path>
            <line x1="10" y1="2.5" x2="10" y2="17.5" id="Path" stroke="#A5B7C0" stroke-linecap="round" stroke-linejoin="round"></line>
            <polyline id="Path" stroke="#A5B7C0" stroke-linecap="round" stroke-linejoin="round" points="4.16666667 5 10 5 15.8333333 5"></polyline>
            <polyline id="Path" stroke="#A5B7C0" stroke-linecap="round" stroke-linejoin="round" points="4.16666667 5 10 5 15.8333333 5"></polyline>
            <polyline id="Path" stroke="#A5B7C0" stroke-linecap="round" stroke-linejoin="round" points="15.8333333 17.5 10 17.5 4.16666667 17.5"></polyline>
        </g>
    </g>
</svg>