<?xml version="1.0" encoding="UTF-8"?>
<svg width="20px" height="20px" viewBox="0 0 20 20" version="1.1" xmlns="http://www.w3.org/2000/svg" xmlns:xlink="http://www.w3.org/1999/xlink">
    <title>bar-code</title>
    <g id="Page-1" stroke="none" stroke-width="1" fill="none" fill-rule="evenodd">
        <g id="bar-code">
            <rect id="Rectangle" fill-opacity="0.01" fill="#FFFFFF" x="0" y="0" width="20" height="20"></rect>
            <g id="Group" transform="translate(1.666667, 2.500000)" stroke="#A5B7C0" stroke-linecap="round" stroke-linejoin="round">
                <line x1="0" y1="5.83333333" x2="16.6666667" y2="5.83333333" id="Path"></line>
                <line x1="0.833333333" y1="0" x2="0.833333333" y2="3.33333333" id="Path"></line>
                <line x1="0.833333333" y1="8.33145508" x2="0.833333333" y2="13.3329684" id="Path"></line>
                <line x1="6.83333333" y1="0" x2="6.83333333" y2="3.33333333" id="Path"></line>
                <line x1="6.83333333" y1="8.33333333" x2="6.83333333" y2="15" id="Path"></line>
                <line x1="12.8333333" y1="0" x2="12.8333333" y2="3.33333333" id="Path"></line>
                <line x1="15.8333333" y1="0" x2="15.8333333" y2="3.33333333" id="Path"></line>
                <line x1="12.8333333" y1="8.33333333" x2="12.8333333" y2="11.6666667" id="Path"></line>
                <line x1="3.83333333" y1="0" x2="3.83333333" y2="3.33333333" id="Path"></line>
                <line x1="3.83333333" y1="8.33333333" x2="3.83333333" y2="11.6666667" id="Path"></line>
                <line x1="9.83333333" y1="0" x2="9.83333333" y2="3.33333333" id="Path"></line>
                <line x1="9.83333333" y1="8.33333333" x2="9.83333333" y2="11.6666667" id="Path"></line>
                <line x1="15.8333333" y1="8.33333333" x2="15.8333333" y2="13.3333333" id="Path"></line>
            </g>
        </g>
    </g>
</svg>