<?xml version="1.0" encoding="UTF-8"?>
<svg width="20px" height="20px" viewBox="0 0 20 20" version="1.1" xmlns="http://www.w3.org/2000/svg" xmlns:xlink="http://www.w3.org/1999/xlink">
    <title>birthday-cake</title>
    <g id="Page-1" stroke="none" stroke-width="1" fill="none" fill-rule="evenodd">
        <g id="birthday-cake">
            <rect id="Rectangle" fill-opacity="0.01" fill="#FFFFFF" fill-rule="nonzero" x="0" y="0" width="20" height="20"></rect>
            <polygon id="Path" points="3.33333333 16.6666667 16.6666667 16.6666667 16.6666667 10 3.33333333 10"></polygon>
            <path d="M16.6666667,16.6666667 L3.33333333,16.6666667 M16.6666667,16.6666667 L1.66666667,16.6666667 L3.33333333,16.6666667 M16.6666667,16.6666667 L18.3333333,16.6666667 M16.6666667,16.6666667 L16.6666667,10 L3.33333333,10 L3.33333333,16.6666667" id="Shape" stroke="#A5B7C0" stroke-linecap="round" stroke-linejoin="round"></path>
            <polyline id="Path" stroke="#A5B7C0" stroke-linecap="round" stroke-linejoin="round" points="16.6666667 14.1666667 15 13.3333333 13.3333333 14.1666667 11.6666667 13.3333333 10 14.1666667 8.33333333 13.3333333 6.66666667 14.1666667 5 13.3333333 3.33333333 14.1666667"></polyline>
            <line x1="13.3333333" y1="10" x2="13.3333333" y2="6.25" id="Path" stroke="#A5B7C0" stroke-linecap="round" stroke-linejoin="round"></line>
            <line x1="10" y1="10" x2="10" y2="6.25" id="Path" stroke="#A5B7C0" stroke-linecap="round" stroke-linejoin="round"></line>
            <line x1="6.66666667" y1="10" x2="6.66666667" y2="6.25" id="Path" stroke="#A5B7C0" stroke-linecap="round" stroke-linejoin="round"></line>
            <line x1="13.3333333" y1="4.16666667" x2="13.3333333" y2="3.33333333" id="Path" stroke="#A5B7C0" stroke-linecap="round" stroke-linejoin="round"></line>
            <line x1="10" y1="4.16666667" x2="10" y2="3.33333333" id="Path" stroke="#A5B7C0" stroke-linecap="round" stroke-linejoin="round"></line>
            <line x1="6.66666667" y1="4.16666667" x2="6.66666667" y2="3.33333333" id="Path" stroke="#A5B7C0" stroke-linecap="round" stroke-linejoin="round"></line>
            <line x1="3.33333333" y1="10" x2="3.33333333" y2="16.6666667" id="Path" stroke="#A5B7C0" stroke-linecap="round" stroke-linejoin="round"></line>
            <line x1="16.6666667" y1="10" x2="16.6666667" y2="16.6666667" id="Path" stroke="#A5B7C0" stroke-linecap="round" stroke-linejoin="round"></line>
        </g>
    </g>
</svg>