<?xml version="1.0" encoding="UTF-8"?>
<svg width="20px" height="20px" viewBox="0 0 20 20" version="1.1" xmlns="http://www.w3.org/2000/svg" xmlns:xlink="http://www.w3.org/1999/xlink">
    <title>bitcoin</title>
    <g id="Page-1" stroke="none" stroke-width="1" fill="none" fill-rule="evenodd">
        <g id="bitcoin">
            <rect id="Rectangle" fill-opacity="0.01" fill="#FFFFFF" fill-rule="nonzero" x="0" y="0" width="20" height="20"></rect>
            <circle id="Oval" stroke="#A5B7C0" stroke-linecap="round" stroke-linejoin="round" cx="10" cy="10" r="8.33333333"></circle>
            <path d="M8.33333333,6.66666667 L10.4166667,6.66666667 L11.25,6.66666667 C12.1704583,6.66666667 12.9166667,7.412875 12.9166667,8.33333333 C12.9166667,9.25379167 12.1704583,10 11.25,10 L8.33333333,10 L8.33333333,6.66666667 Z" id="Path"></path>
            <path d="M8.33333333,6.66666667 L8.33333333,10 L11.25,10 C12.1704583,10 12.9166667,9.25379167 12.9166667,8.33333333 L12.9166667,8.33333333 C12.9166667,7.412875 12.1704583,6.66666667 11.25,6.66666667 L10.4166667,6.66666667 M8.33333333,6.66666667 L6.66666667,6.66666667 M8.33333333,6.66666667 L8.33333333,5 M8.33333333,6.66666667 L10.4166667,6.66666667 M10.4166667,6.66666667 L10.4166667,5" id="Shape" stroke="#A5B7C0" stroke-linecap="round" stroke-linejoin="round"></path>
            <path d="M8.33333333,10 L12.0833333,10 C13.0037917,10 13.75,10.7462083 13.75,11.6666667 C13.75,12.587125 13.0037917,13.3333333 12.0833333,13.3333333 L10.4166667,13.3333333 L8.33333333,13.3333333 L8.33333333,10 Z" id="Path"></path>
            <path d="M8.33333333,13.3333333 L8.33333333,10 L12.0833333,10 C13.0037917,10 13.75,10.7462083 13.75,11.6666667 L13.75,11.6666667 C13.75,12.587125 13.0037917,13.3333333 12.0833333,13.3333333 L10.4166667,13.3333333 M8.33333333,13.3333333 L8.33333333,15 M8.33333333,13.3333333 L6.66666667,13.3333333 L10.4166667,13.3333333 M8.33333333,13.3333333 L10.4166667,13.3333333 M10.4166667,13.3333333 L10.4166667,15" id="Shape" stroke="#A5B7C0" stroke-linecap="round" stroke-linejoin="round"></path>
        </g>
    </g>
</svg>