<?xml version="1.0" encoding="UTF-8"?>
<svg width="20px" height="20px" viewBox="0 0 20 20" version="1.1" xmlns="http://www.w3.org/2000/svg" xmlns:xlink="http://www.w3.org/1999/xlink">
    <title>black-eight</title>
    <g id="Page-1" stroke="none" stroke-width="1" fill="none" fill-rule="evenodd">
        <g id="black-eight">
            <rect id="Rectangle" fill-opacity="0.01" fill="#FFFFFF" fill-rule="nonzero" x="0" y="0" width="20" height="20"></rect>
            <path d="M10,18.3333333 C14.602375,18.3333333 18.3333333,14.602375 18.3333333,10 C18.3333333,5.397625 14.602375,1.66666667 10,1.66666667 C5.397625,1.66666667 1.66666667,5.397625 1.66666667,10 C1.66666667,14.602375 5.397625,18.3333333 10,18.3333333 Z" id="Path" stroke="#A5B7C0" stroke-linejoin="round"></path>
            <path d="M10,9.58333333 C11.1505833,9.58333333 12.0833333,8.65058333 12.0833333,7.5 C12.0833333,6.34941667 11.1505833,5.41666667 10,5.41666667 C8.84941667,5.41666667 7.91666667,6.34941667 7.91666667,7.5 C7.91666667,8.65058333 8.84941667,9.58333333 10,9.58333333 Z" id="Path" stroke="#A5B7C0" stroke-linejoin="round"></path>
            <path d="M10,14.5833333 C11.3807083,14.5833333 12.5,13.4640417 12.5,12.0833333 C12.5,10.702625 11.3807083,9.58333333 10,9.58333333 C8.61929167,9.58333333 7.5,10.702625 7.5,12.0833333 C7.5,13.4640417 8.61929167,14.5833333 10,14.5833333 Z" id="Path" stroke="#A5B7C0" stroke-linejoin="round"></path>
        </g>
    </g>
</svg>