<?xml version="1.0" encoding="UTF-8"?>
<svg width="20px" height="20px" viewBox="0 0 20 20" version="1.1" xmlns="http://www.w3.org/2000/svg" xmlns:xlink="http://www.w3.org/1999/xlink">
    <title>bolt-one</title>
    <g id="Page-1" stroke="none" stroke-width="1" fill="none" fill-rule="evenodd">
        <g id="bolt-one">
            <rect id="Rectangle" fill-opacity="0.01" fill="#FFFFFF" fill-rule="nonzero" x="0" y="0" width="20" height="20"></rect>
            <path d="M5,5.11675 C5,5.05225 5.05225,5 5.11675,5 L14.88325,5 C14.94775,5 15,5.05225 15,5.11675 L15,10 C15,12.7614167 12.7614167,15 10,15 C7.23858333,15 5,12.7614167 5,10 L5,5.11675 Z" id="Path" stroke="#A5B7C0"></path>
            <line x1="8.33333333" y1="5" x2="8.33333333" y2="1.66666667" id="Path" stroke="#A5B7C0" stroke-linecap="round" stroke-linejoin="round"></line>
            <line x1="11.6666667" y1="5" x2="11.6666667" y2="1.66666667" id="Path" stroke="#A5B7C0" stroke-linecap="round" stroke-linejoin="round"></line>
            <line x1="9.16666667" y1="11.25" x2="10.8333333" y2="11.25" id="Path" stroke="#A5B7C0" stroke-linecap="round" stroke-linejoin="round"></line>
            <path d="M10,15 L10,17.0833333 C10,17.7737083 10.559625,18.3333333 11.25,18.3333333 L15.8333333,18.3333333" id="Path" stroke="#A5B7C0" stroke-linecap="round" stroke-linejoin="round"></path>
        </g>
    </g>
</svg>