<?xml version="1.0" encoding="UTF-8"?>
<svg width="20px" height="20px" viewBox="0 0 20 20" version="1.1" xmlns="http://www.w3.org/2000/svg" xmlns:xlink="http://www.w3.org/1999/xlink">
    <title>bone</title>
    <g id="Page-1" stroke="none" stroke-width="1" fill="none" fill-rule="evenodd">
        <g id="bone">
            <rect id="Rectangle" fill-opacity="0.01" fill="#FFFFFF" fill-rule="nonzero" x="0" y="0" width="20" height="20"></rect>
            <path d="M18.7132131,6.96995833 C18.7132131,5.20216667 17.2400464,5.20220833 16.2088797,4.171 C15.1776714,3.13981667 15.1776297,1.66666667 13.4098797,1.66666667 C12.2313797,1.66666667 11.2001714,2.99248333 11.2002131,3.87637917 C11.2002131,4.76029167 11.4948381,5.3495 12.0840881,5.93879167 L6.78075474,11.2420833 C6.19154641,10.6528333 5.60225474,10.3581667 4.71837974,10.3582083 C3.83450891,10.3582083 2.50864641,11.389375 2.50866724,12.567875 C2.36133391,14.4829583 4.12915057,14.483 5.01300474,15.366875 C5.89687974,16.2507083 5.89687974,18.0185 7.81196307,17.8712083 C8.99046307,17.8711667 10.0217131,16.5454167 10.0216714,15.6615 C10.0216714,14.7775833 9.72708807,14.188375 9.13779641,13.5990833 L14.4410881,8.29579167 C15.0303381,8.88504167 15.6196297,9.17966667 16.5035047,9.17966667 C17.3873797,9.17966667 18.7132131,8.14841667 18.7132131,6.96995833 Z" id="Path" stroke="#A5B7C0" stroke-linejoin="round"></path>
        </g>
    </g>
</svg>