<?xml version="1.0" encoding="UTF-8"?>
<svg width="20px" height="20px" viewBox="0 0 20 20" version="1.1" xmlns="http://www.w3.org/2000/svg" xmlns:xlink="http://www.w3.org/1999/xlink">
    <title>bookshelf</title>
    <g id="Page-1" stroke="none" stroke-width="1" fill="none" fill-rule="evenodd">
        <g id="bookshelf">
            <rect id="Rectangle" fill-opacity="0.01" fill="#FFFFFF" fill-rule="nonzero" x="0" y="0" width="20" height="20"></rect>
            <path d="M1.66666667,2.5 L16.6666667,2.5 C16.6666667,2.5 18.3333333,3.33333333 18.3333333,5.41666667 C18.3333333,7.5 16.6666667,8.33333333 16.6666667,8.33333333 L1.66666667,8.33333333 C1.66666667,8.33333333 3.33333333,7.5 3.33333333,5.41666667 C3.33333333,3.33333333 1.66666667,2.5 1.66666667,2.5 Z" id="Path" stroke="#A5B7C0" stroke-linecap="round" stroke-linejoin="round"></path>
            <path d="M18.3333333,11.6666667 L3.33333333,11.6666667 C3.33333333,11.6666667 1.66666667,12.5 1.66666667,14.5833333 C1.66666667,16.6666667 3.33333333,17.5 3.33333333,17.5 L18.3333333,17.5 C18.3333333,17.5 16.6666667,16.6666667 16.6666667,14.5833333 C16.6666667,12.5 18.3333333,11.6666667 18.3333333,11.6666667 Z" id="Path" stroke="#A5B7C0" stroke-linecap="round" stroke-linejoin="round"></path>
        </g>
    </g>
</svg>