<?xml version="1.0" encoding="UTF-8"?>
<svg width="20px" height="20px" viewBox="0 0 20 20" version="1.1" xmlns="http://www.w3.org/2000/svg" xmlns:xlink="http://www.w3.org/1999/xlink">
    <title>book-one</title>
    <g id="Page-1" stroke="none" stroke-width="1" fill="none" fill-rule="evenodd">
        <g id="book-one">
            <rect id="Rectangle" fill-opacity="0.01" fill="#FFFFFF" fill-rule="nonzero" x="0" y="0" width="20" height="20"></rect>
            <path d="M2.5,15.4166667 C2.5,12.2069583 2.5,4.58333333 2.5,4.58333333 C2.5,3.20262083 3.6192875,2.08333333 5,2.08333333 L15,2.08333333 L15,12.9166667 C15,12.9166667 7.18025,12.9166667 5,12.9166667 C3.625,12.9166667 2.5,14.0350833 2.5,15.4166667 Z" id="Path" stroke="#A5B7C0" stroke-linejoin="round"></path>
            <path d="M15,12.9166667 C15,12.9166667 5.48070833,12.9166667 5,12.9166667 C3.6192875,12.9166667 2.5,14.0359583 2.5,15.4166667 C2.5,16.797375 3.6192875,17.9166667 5,17.9166667 C5.92045833,17.9166667 11.19825,17.9166667 17.5,17.9166667 L17.5,2.91666667" id="Path" stroke="#A5B7C0" stroke-linecap="round" stroke-linejoin="round"></path>
            <line x1="5.41666667" y1="15.4166667" x2="14.5833333" y2="15.4166667" id="Path" stroke="#A5B7C0" stroke-linecap="round" stroke-linejoin="round"></line>
        </g>
    </g>
</svg>