<?xml version="1.0" encoding="UTF-8"?>
<svg width="20px" height="20px" viewBox="0 0 20 20" version="1.1" xmlns="http://www.w3.org/2000/svg" xmlns:xlink="http://www.w3.org/1999/xlink">
    <title>boxing</title>
    <g id="Page-1" stroke="none" stroke-width="1" fill="none" fill-rule="evenodd">
        <g id="boxing">
            <rect id="Rectangle" fill-opacity="0.01" fill="#FFFFFF" fill-rule="nonzero" x="0" y="0" width="20" height="20"></rect>
            <path d="M15.8333333,15 L15.8333333,17.5 C15.8333333,17.9583333 15.4625,18.3333333 15,18.3333333 L7.08333333,18.3333333 C6.625,18.3333333 6.25,17.9625 6.25,17.5 L6.25,15" id="Path" stroke="#A5B7C0" stroke-linecap="round" stroke-linejoin="round"></path>
            <path d="M4.58333333,6.25 L4.58333333,4.16666667 C4.58333333,2.78595417 5.702625,1.66666667 7.08333333,1.66666667 L11.6666667,1.66666667 L15.8333333,1.66666667 C17.2140417,1.66666667 18.3333333,2.78595417 18.3333333,4.16666667 L18.3333333,12.5 C18.3333333,13.8807083 17.2165833,15 15.8358333,15 C12.9028333,15 8.19158333,15 6.25,15 C3.33333333,15 1.66666667,11.6666667 1.66666667,9.58333333 C1.66666667,7.5 1.66666667,6.25 1.66666667,6.25 L4.58333333,6.25 Z" id="Path" stroke="#A5B7C0" stroke-linecap="round" stroke-linejoin="round"></path>
            <line x1="4.58333333" y1="5.83333333" x2="4.58333333" y2="9.16666667" id="Path" stroke="#A5B7C0" stroke-linecap="round"></line>
        </g>
    </g>
</svg>