<?xml version="1.0" encoding="UTF-8"?>
<svg width="20px" height="20px" viewBox="0 0 20 20" version="1.1" xmlns="http://www.w3.org/2000/svg" xmlns:xlink="http://www.w3.org/1999/xlink">
    <title>boxing-one</title>
    <g id="Page-1" stroke="none" stroke-width="1" fill="none" fill-rule="evenodd">
        <g id="boxing-one">
            <rect id="Rectangle" fill-opacity="0.01" fill="#FFFFFF" fill-rule="nonzero" x="0" y="0" width="20" height="20"></rect>
            <path d="M5.41666667,10.8333333 L6.25,10.8333333 C7.4,10.8333333 8.33333333,9.9 8.33333333,8.75 C8.33333333,7.6 7.4,6.66666667 6.25,6.66666667 L4.58333333,6.66666667 C3.43333333,6.66666667 2.5,7.6 2.5,8.75 L2.5,12.5 C2.5,13.8807083 3.6192875,15 5,15 L15,15 C16.3807083,15 17.5,13.8807083 17.5,12.5 L17.5,10.8333333 C17.5,9.912875 16.7537917,9.16666667 15.8333333,9.16666667 L10,9.16666667" id="Path" stroke="#A5B7C0" stroke-linecap="round" stroke-linejoin="round"></path>
            <path d="M14.1666667,18.3333333 L5.83333333,18.3333333 C5.37083333,18.3333333 5,17.9583333 5,17.5 L5,15 L15,15 L15,17.5 C15,17.9583333 14.625,18.3333333 14.1666667,18.3333333 Z" id="Path" stroke="#A5B7C0" stroke-linecap="round" stroke-linejoin="round"></path>
            <path d="M2.5,8.33333333 C2.08333333,8.33333333 1.66666667,7.5 1.66666667,6.66666667 L1.66666667,5 C1.66666667,3.15833333 3.15833333,1.66666667 5,1.66666667 L15,1.66666667 C16.8416667,1.66666667 18.3333333,3.15833333 18.3333333,5 L18.3333333,6.66666667 C18.3333333,8.04583333 17.2125,9.16666667 15.8333333,9.16666667 L8.29166667,9.16666667" id="Path" stroke="#A5B7C0" stroke-linecap="round" stroke-linejoin="round"></path>
        </g>
    </g>
</svg>