<?xml version="1.0" encoding="UTF-8"?>
<svg width="20px" height="20px" viewBox="0 0 20 20" version="1.1" xmlns="http://www.w3.org/2000/svg" xmlns:xlink="http://www.w3.org/1999/xlink">
    <title>brain</title>
    <g id="Page-1" stroke="none" stroke-width="1" fill="none" fill-rule="evenodd">
        <g id="brain">
            <rect id="Rectangle" fill-opacity="0.01" fill="#FFFFFF" fill-rule="nonzero" x="0" y="0" width="20" height="20"></rect>
            <path d="M7.93166667,18.333375 C7.523375,17.001875 6.90741667,16.00925 6.08379167,15.3555 C4.84833333,14.374875 2.88534583,14.9843333 2.16024167,13.972875 C1.4351375,12.961375 2.66825833,11.1012917 3.100975,10.00375 C3.53369167,8.90625 1.4424125,8.51816667 1.68656667,8.20658333 C1.84934167,7.998875 2.90612917,7.39945833 4.85695833,6.408375 C5.41125,3.247275 7.45866667,1.666725 10.99925,1.666725 C16.3100417,1.666725 18.3333333,6.16920833 18.3333333,9.03291667 C18.3333333,11.8966667 15.883375,14.9817917 12.393375,15.647 C12.0812917,16.1015 12.5314167,16.9969583 13.7436667,18.333375" id="Path" stroke="#A5B7C0" stroke-linecap="round" stroke-linejoin="round"></path>
            <path d="M8.124875,6.04166667 C7.85266667,7.09758333 7.93366667,7.83908333 8.367875,8.26604167 C8.80208333,8.69304167 9.542125,8.97225 10.588,9.10370833 C10.3507083,10.4656667 10.6400417,11.104625 11.4559167,11.0205417 C12.2718333,10.9364583 12.7620417,10.5974167 12.926625,10.0034583 C14.20175,10.3618333 14.8928333,10.0619167 14.999875,9.10370833 C15.1605,7.666375 14.3854167,6.51979167 14.0676667,6.51979167 C13.749875,6.51979167 12.926625,6.481125 12.926625,6.04166667 C12.926625,5.60216667 11.9649583,5.353875 11.0970417,5.353875 C10.229125,5.353875 10.7514583,4.76883333 9.55966667,5 C8.765125,5.15408333 8.286875,5.50129167 8.124875,6.04166667 Z" id="Path" stroke="#A5B7C0" stroke-linejoin="round"></path>
            <path d="M12.7084167,10.6250417 C12.2847083,10.8879583 11.70325,11.3251667 11.4584167,11.6667083 C10.846375,12.5206667 10.3499167,13.040625 10.2412917,13.58675" id="Path" stroke="#A5B7C0" stroke-linecap="round"></path>
        </g>
    </g>
</svg>