<?xml version="1.0" encoding="UTF-8"?>
<svg width="20px" height="20px" viewBox="0 0 20 20" version="1.1" xmlns="http://www.w3.org/2000/svg" xmlns:xlink="http://www.w3.org/1999/xlink">
    <title>brake-pads</title>
    <g id="Page-1" stroke="none" stroke-width="1" fill="none" fill-rule="evenodd">
        <g id="brake-pads">
            <rect id="Rectangle" fill-opacity="0.01" fill="#FFFFFF" fill-rule="nonzero" x="0" y="0" width="20" height="20"></rect>
            <circle id="Oval" stroke="#A5B7C0" stroke-linecap="round" stroke-linejoin="round" cx="10" cy="10" r="6.66666667"></circle>
            <circle id="Oval" stroke="#A5B7C0" stroke-linecap="round" stroke-linejoin="round" cx="10" cy="10" r="1.66666667"></circle>
            <path d="M10,1.66666667 C11.0943333,1.66666667 12.178,1.88221667 13.1890417,2.30100417 C14.2000833,2.71979167 15.11875,3.33362083 15.8925417,4.10744583 C16.666375,4.88125 17.2802083,5.79991667 17.699,6.81095833 C18.1177917,7.822 18.3333333,8.90566667 18.3333333,10 L15.0026667,10 C15.0026667,9.34304167 14.8732917,8.6925 14.621875,8.08554167 C14.3704583,7.478625 14.0019583,6.927125 13.5374167,6.46258333 C13.072875,5.99804167 12.521375,5.62954167 11.9144583,5.378125 C11.3075,5.12670833 10.6569583,4.99733333 10,4.99733333 L10,1.66666667 Z" id="Path" stroke="#A5B7C0" stroke-linecap="round" stroke-linejoin="round"></path>
        </g>
    </g>
</svg>