<?xml version="1.0" encoding="UTF-8"?>
<svg width="20px" height="20px" viewBox="0 0 20 20" version="1.1" xmlns="http://www.w3.org/2000/svg" xmlns:xlink="http://www.w3.org/1999/xlink">
    <title>browser</title>
    <g id="Page-1" stroke="none" stroke-width="1" fill="none" fill-rule="evenodd">
        <g id="browser">
            <rect id="Rectangle" fill-opacity="0.01" fill="#FFFFFF" fill-rule="nonzero" x="0" y="0" width="20" height="20"></rect>
            <polyline id="Path" stroke="#A5B7C0" stroke-linecap="round" stroke-linejoin="round" points="17.9166667 6.66666667 17.9166667 17.5 2.08333333 17.5 2.08333333 6.66666667 2.08333333 6.66666667"></polyline>
            <polygon id="Path" stroke="#A5B7C0" stroke-linejoin="round" points="2.08333333 1.66666667 17.9166667 1.66666667 17.9166667 6.66666667 2.08333333 6.66666667"></polygon>
            <path d="M4.58333333,5 C5.04358333,5 5.41666667,4.62691667 5.41666667,4.16666667 C5.41666667,3.70642917 5.04358333,3.33333333 4.58333333,3.33333333 C4.12309583,3.33333333 3.75,3.70642917 3.75,4.16666667 C3.75,4.62691667 4.12309583,5 4.58333333,5 Z" id="Path" fill="#A5B7C0"></path>
            <path d="M7.08333333,5 C7.54358333,5 7.91666667,4.62691667 7.91666667,4.16666667 C7.91666667,3.70642917 7.54358333,3.33333333 7.08333333,3.33333333 C6.62308333,3.33333333 6.25,3.70642917 6.25,4.16666667 C6.25,4.62691667 6.62308333,5 7.08333333,5 Z" id="Path" fill="#A5B7C0"></path>
            <path d="M9.58333333,5 C10.0435833,5 10.4166667,4.62691667 10.4166667,4.16666667 C10.4166667,3.70642917 10.0435833,3.33333333 9.58333333,3.33333333 C9.12308333,3.33333333 8.75,3.70642917 8.75,4.16666667 C8.75,4.62691667 9.12308333,5 9.58333333,5 Z" id="Path" fill="#A5B7C0"></path>
        </g>
    </g>
</svg>