<?xml version="1.0" encoding="UTF-8"?>
<svg width="20px" height="20px" viewBox="0 0 20 20" version="1.1" xmlns="http://www.w3.org/2000/svg" xmlns:xlink="http://www.w3.org/1999/xlink">
    <title>browser-chrome</title>
    <g id="Page-1" stroke="none" stroke-width="1" fill="none" fill-rule="evenodd">
        <g id="browser-chrome">
            <rect id="Rectangle" fill-opacity="0.01" fill="#FFFFFF" fill-rule="nonzero" x="0" y="0" width="20" height="20"></rect>
            <path d="M10,18.3333333 C14.602375,18.3333333 18.3333333,14.602375 18.3333333,10 C18.3333333,5.397625 14.602375,1.66666667 10,1.66666667 C5.397625,1.66666667 1.66666667,5.397625 1.66666667,10 C1.66666667,14.602375 5.397625,18.3333333 10,18.3333333 Z" id="Path"></path>
            <path d="M10,13.75 C12.0710833,13.75 13.75,12.0710833 13.75,10 C13.75,7.92891667 12.0710833,6.25 10,6.25 C7.92891667,6.25 6.25,7.92891667 6.25,10 C6.25,12.0710833 7.92891667,13.75 10,13.75 Z" id="Path"></path>
            <path d="M10,6.25 L17.4439167,6.25 L10,6.25 Z" id="Path"></path>
            <path d="M7.08333333,17.8086667 L12.351625,12.9166667 L7.08333333,17.8086667 Z" id="Path"></path>
            <path d="M2.5,6.36320833 L7.03129167,12.3133333 L2.5,6.36320833 Z" id="Path"></path>
            <path d="M10,6.25 C12.0710833,6.25 13.75,7.92891667 13.75,10 C13.75,12.0710833 12.0710833,13.75 10,13.75 C7.92891667,13.75 6.25,12.0710833 6.25,10 C6.25,7.92891667 7.92891667,6.25 10,6.25 Z M10,6.25 L17.4439167,6.25 M7.08333333,17.8086667 L12.351625,12.9166667 M2.5,6.36320833 L7.03129167,12.3133333 M10,18.3333333 C14.602375,18.3333333 18.3333333,14.602375 18.3333333,10 C18.3333333,5.397625 14.602375,1.66666667 10,1.66666667 C5.397625,1.66666667 1.66666667,5.397625 1.66666667,10 C1.66666667,14.602375 5.397625,18.3333333 10,18.3333333 Z" id="Shape" stroke="#A5B7C0" stroke-linecap="round" stroke-linejoin="round"></path>
        </g>
    </g>
</svg>