<?xml version="1.0" encoding="UTF-8"?>
<svg width="20px" height="20px" viewBox="0 0 20 20" version="1.1" xmlns="http://www.w3.org/2000/svg" xmlns:xlink="http://www.w3.org/1999/xlink">
    <title>bus</title>
    <g id="Page-1" stroke="none" stroke-width="1" fill="none" fill-rule="evenodd">
        <g id="bus">
            <polygon id="Path" fill-opacity="0.01" fill="#FFFFFF" fill-rule="nonzero" points="20 0 0 0 0 20 20 20"></polygon>
            <path d="M2.5050875,14.16875 L2.5050875,3.3484125 C2.5050875,2.888175 2.87818333,2.51507917 3.33842083,2.51507917 L16.6665833,2.51507917 C17.1268333,2.51507917 17.4999167,2.888175 17.4999167,3.3484125 L17.4999167,14.16875 C17.4999167,14.859125 16.9402917,15.41875 16.2499167,15.41875 L15.418625,15.41875 L15.418625,15.8333333 C15.418625,16.7537917 14.6724167,17.5 13.7519583,17.5 L13.7517917,17.5 C12.8312917,17.5 12.085125,16.7537917 12.085125,15.8333333 L12.085125,15.41875 L7.919875,15.41875 L7.919875,15.834 C7.919875,16.754125 7.174,17.5 6.25391667,17.5 C5.33379167,17.5 4.58791667,16.754125 4.58791667,15.834 L4.58791667,15.41875 L3.7550875,15.41875 C3.06472917,15.41875 2.5050875,14.859125 2.5050875,14.16875 Z" id="Path" stroke="#A5B7C0" stroke-linejoin="round"></path>
            <line x1="17.5" y1="9.58333333" x2="2.5" y2="9.58333333" id="Path" stroke="#A5B7C0" stroke-linecap="round" stroke-linejoin="round"></line>
            <polygon id="Path" stroke="#A5B7C0" stroke-linecap="round" stroke-linejoin="round" points="14.1666667 5.41666667 5.83333333 5.41666667 5.83333333 9.58333333 14.1666667 9.58333333"></polygon>
            <line x1="5.83333333" y1="12.5" x2="6.66666667" y2="12.5" id="Path" stroke="#A5B7C0" stroke-linecap="round" stroke-linejoin="round"></line>
            <line x1="13.3333333" y1="12.5" x2="14.1666667" y2="12.5" id="Path" stroke="#A5B7C0" stroke-linecap="round" stroke-linejoin="round"></line>
        </g>
    </g>
</svg>