<?xml version="1.0" encoding="UTF-8"?>
<svg width="20px" height="20px" viewBox="0 0 20 20" version="1.1" xmlns="http://www.w3.org/2000/svg" xmlns:xlink="http://www.w3.org/1999/xlink">
    <title>bye</title>
    <g id="Page-1" stroke="none" stroke-width="1" fill="none" fill-rule="evenodd">
        <g id="bye">
            <rect id="Rectangle" fill-opacity="0.01" fill="#FFFFFF" fill-rule="nonzero" x="0" y="0" width="20" height="20"></rect>
            <path d="M14.5833333,11.089125 L6.31095833,3.04747917 C5.82783333,2.57785833 5.0555,2.58878333 4.58591667,3.071875 C4.56883333,3.0894125 4.55233333,3.10745417 4.536375,3.12597917 C4.06015,3.67877917 4.09283333,4.50583333 4.61120833,5.01929167 L8.78791667,9.15679167" id="Path" stroke="#A5B7C0" stroke-linecap="round"></path>
            <path d="M8.787875,9.15675 L4.24054167,4.64783333 C3.70146667,4.1133125 2.84170833,4.08406667 2.26755833,4.58070833 C1.73980833,5.03720833 1.68205833,5.835125 2.13856667,6.362875 C2.15587917,6.382875 2.1738125,6.40233333 2.19235,6.42125 L6.77304167,11.0890833" id="Path" stroke="#A5B7C0" stroke-linecap="round" stroke-linejoin="round"></path>
            <path d="M6.77304167,11.0890833 L4.16666667,8.54170833 C3.64069167,8.00433333 2.7804875,7.989375 2.236175,8.50820833 C1.6976875,9.02145833 1.67724167,9.87408333 2.19050417,10.4125833 C2.19286667,10.4150417 2.1952375,10.4175 2.19762083,10.4199583 C6.04329167,14.3935 8.03916667,16.27025 8.78791667,16.8972917 C10,17.9124167 12.389625,18.333375 13.6377083,17.5000417 C14.8857917,16.6667083 16.013875,15.4810417 16.5492917,14.3036667 C16.8680417,13.60275 17.4871667,11.4415 18.406625,7.82 C18.5937917,7.08279167 18.147875,6.33341667 17.4106667,6.14625 C17.401125,6.14383333 17.3915417,6.1415 17.3819583,6.13929167 C16.618125,5.96275 15.8512917,6.42154167 15.6457917,7.17808333 L14.5833333,11.0890833" id="Path" stroke="#A5B7C0" stroke-linecap="round"></path>
            <path d="M13.2149583,5.2775 C12.9183333,4.83441667 12.5792917,4.422125 12.203625,4.0464625 C11.8279583,3.6708 11.4156667,3.33175 10.9725833,3.03512917 C10.752125,2.88754167 10.5240417,2.75045833 10.2890417,2.62459583 C10.0554167,2.49946667 9.81495833,2.385425 9.568375,2.28317917" id="Path" stroke="#A5B7C0" stroke-linecap="round"></path>
            <path d="M2.16415417,14.0734583 C2.43717917,14.5314167 2.7541875,14.9609167 3.109675,15.3557083 C3.4651625,15.7505 3.85913333,16.1106667 4.28608333,16.4300833 C4.4985,16.589 4.719125,16.7378333 4.94720833,16.8758333 C5.17395833,17.013 5.408125,17.1395 5.649,17.2545" id="Path" stroke="#A5B7C0" stroke-linecap="round"></path>
        </g>
    </g>
</svg>