<?xml version="1.0" encoding="UTF-8"?>
<svg width="20px" height="20px" viewBox="0 0 20 20" version="1.1" xmlns="http://www.w3.org/2000/svg" xmlns:xlink="http://www.w3.org/1999/xlink">
    <title>calculator</title>
    <g id="Page-1" stroke="none" stroke-width="1" fill="none" fill-rule="evenodd">
        <g id="calculator">
            <rect id="Rectangle" fill-opacity="0.01" fill="#FFFFFF" fill-rule="nonzero" x="0" y="0" width="20" height="20"></rect>
            <polygon id="Path" fill-opacity="0.01" fill="#FFFFFF" fill-rule="nonzero" points="20 0 0 0 0 20 20 20"></polygon>
            <path d="M16.666875,1.66666667 L3.33362083,1.66666667 C2.87339167,1.66666667 2.50029583,2.03975417 2.5002875,2.49998333 L2.50001667,17.5 C2.50001667,17.9602083 2.87310833,18.3333333 3.33335,18.3333333 L16.666875,18.3333333 C17.127125,18.3333333 17.5002083,17.96025 17.5002083,17.5 L17.5002083,2.5 C17.5002083,2.0397625 17.127125,1.66666667 16.666875,1.66666667 Z" id="Path" stroke="#A5B7C0" stroke-linejoin="round"></path>
            <polygon id="Path" stroke="#A5B7C0" stroke-linejoin="round" points="14.5833333 4.16666667 5.41666667 4.16666667 5.41666667 7.91666667 14.5833333 7.91666667"></polygon>
            <line x1="5" y1="11.6666667" x2="7.91666667" y2="14.5833333" id="Path" stroke="#A5B7C0" stroke-linecap="round" stroke-linejoin="round"></line>
            <line x1="7.91666667" y1="11.6666667" x2="5" y2="14.5833333" id="Path" stroke="#A5B7C0" stroke-linecap="round" stroke-linejoin="round"></line>
            <line x1="11.6666667" y1="14.5833333" x2="15" y2="14.5833333" id="Path" stroke="#A5B7C0" stroke-linecap="round" stroke-linejoin="round"></line>
            <line x1="11.6666667" y1="12.0833333" x2="15" y2="12.0833333" id="Path" stroke="#A5B7C0" stroke-linecap="round" stroke-linejoin="round"></line>
        </g>
    </g>
</svg>