<?xml version="1.0" encoding="UTF-8"?>
<svg width="20px" height="20px" viewBox="0 0 20 20" version="1.1" xmlns="http://www.w3.org/2000/svg" xmlns:xlink="http://www.w3.org/1999/xlink">
    <title>calendar</title>
    <g id="Page-1" stroke="none" stroke-width="1" fill="none" fill-rule="evenodd">
        <g id="calendar">
            <rect id="Rectangle" fill-opacity="0.01" fill="#FFFFFF" fill-rule="nonzero" x="0" y="0" width="20" height="20"></rect>
            <path d="M2.08333333,7.91666667 L17.9166667,7.91666667 L17.9166667,16.6666667 C17.9166667,17.1269167 17.5435833,17.5 17.0833333,17.5 L2.91666667,17.5 C2.45642917,17.5 2.08333333,17.1269167 2.08333333,16.6666667 L2.08333333,7.91666667 Z" id="Path" stroke="#A5B7C0" stroke-linejoin="round"></path>
            <path d="M2.08333333,3.75 C2.08333333,3.2897625 2.45642917,2.91666667 2.91666667,2.91666667 L17.0833333,2.91666667 C17.5435833,2.91666667 17.9166667,3.2897625 17.9166667,3.75 L17.9166667,7.91666667 L2.08333333,7.91666667 L2.08333333,3.75 Z" id="Path" stroke="#A5B7C0" stroke-linejoin="round"></path>
            <line x1="6.66666667" y1="1.66666667" x2="6.66666667" y2="5" id="Path" stroke="#A5B7C0" stroke-linecap="round" stroke-linejoin="round"></line>
            <line x1="13.3333333" y1="1.66666667" x2="13.3333333" y2="5" id="Path" stroke="#A5B7C0" stroke-linecap="round" stroke-linejoin="round"></line>
            <line x1="11.6666667" y1="14.1666667" x2="14.1666667" y2="14.1666667" id="Path" stroke="#A5B7C0" stroke-linecap="round" stroke-linejoin="round"></line>
            <line x1="5.83333333" y1="14.1666667" x2="8.33333333" y2="14.1666667" id="Path" stroke="#A5B7C0" stroke-linecap="round" stroke-linejoin="round"></line>
            <line x1="11.6666667" y1="10.8333333" x2="14.1666667" y2="10.8333333" id="Path" stroke="#A5B7C0" stroke-linecap="round" stroke-linejoin="round"></line>
            <line x1="5.83333333" y1="10.8333333" x2="8.33333333" y2="10.8333333" id="Path" stroke="#A5B7C0" stroke-linecap="round" stroke-linejoin="round"></line>
        </g>
    </g>
</svg>