<?xml version="1.0" encoding="UTF-8"?>
<svg width="20px" height="20px" viewBox="0 0 20 20" version="1.1" xmlns="http://www.w3.org/2000/svg" xmlns:xlink="http://www.w3.org/1999/xlink">
    <title>car</title>
    <g id="Page-1" stroke="none" stroke-width="1" fill="none" fill-rule="evenodd">
        <g id="car">
            <rect id="Rectangle" fill-opacity="0.01" fill="#FFFFFF" fill-rule="nonzero" x="0" y="0" width="20" height="20"></rect>
            <path d="M5.625,13.3333333 C6.20029167,13.3333333 6.66666667,12.8669583 6.66666667,12.2916667 C6.66666667,11.716375 6.20029167,11.25 5.625,11.25 C5.04970833,11.25 4.58333333,11.716375 4.58333333,12.2916667 C4.58333333,12.8669583 5.04970833,13.3333333 5.625,13.3333333 Z" id="Path" fill="#A5B7C0"></path>
            <path d="M14.375,13.3333333 C14.9502917,13.3333333 15.4166667,12.8669583 15.4166667,12.2916667 C15.4166667,11.716375 14.9502917,11.25 14.375,11.25 C13.7997083,11.25 13.3333333,11.716375 13.3333333,12.2916667 C13.3333333,12.8669583 13.7997083,13.3333333 14.375,13.3333333 Z" id="Path" fill="#A5B7C0"></path>
            <path d="M2.91666667,15.4166667 C2.2263125,15.4166667 1.66666667,14.8570417 1.66666667,14.1666667 L1.66666667,10.2957083 C1.66666667,9.34845833 2.202025,8.48254167 3.04941667,8.05925 L3.33355417,7.91729167 L4.29604167,3.78830833 C4.47191667,3.03382083 5.14445833,2.5 5.91916667,2.5 L14.122625,2.5 C14.903125,2.5 15.579125,3.04165833 15.7492083,3.8034 L16.6679583,7.91729167 L16.9514167,8.059 C17.7983333,8.4825 18.3333333,9.348125 18.3333333,10.2950417 L18.3333333,14.1666667 C18.3333333,14.8570417 17.7737083,15.4166667 17.0833333,15.4166667 L16.2512917,15.4166667 L16.2512917,15.8333333 C16.2512917,16.7537917 15.5044583,17.5 14.584,17.5 C13.6635,17.5 12.9166667,16.7537917 12.9166667,15.8333333 L12.9166667,15.4166667 L7.08333333,15.4166667 L7.08333333,15.8334583 C7.08333333,16.753875 6.33720833,17.5 5.41679167,17.5 C4.496375,17.5 3.75022083,16.753875 3.75022083,15.8334583 L3.75022083,15.4166667 L2.91666667,15.4166667 Z" id="Path" stroke="#A5B7C0" stroke-linejoin="round"></path>
            <path d="M5.83333333,9.16666667 L14.1666667,9.16666667 L13.4783333,6.06920833 C13.393625,5.68795833 13.0554583,5.41666667 12.664875,5.41666667 L7.335125,5.41666667 C6.94454167,5.41666667 6.606375,5.68795833 6.52166667,6.06920833 L5.83333333,9.16666667 Z" id="Path" stroke="#A5B7C0" stroke-linejoin="round"></path>
        </g>
    </g>
</svg>