<?xml version="1.0" encoding="UTF-8"?>
<svg width="20px" height="20px" viewBox="0 0 20 20" version="1.1" xmlns="http://www.w3.org/2000/svg" xmlns:xlink="http://www.w3.org/1999/xlink">
    <title>carousel</title>
    <g id="Page-1" stroke="none" stroke-width="1" fill="none" fill-rule="evenodd">
        <g id="carousel">
            <rect id="Rectangle" fill-opacity="0.01" fill="#FFFFFF" fill-rule="nonzero" x="0" y="0" width="20" height="20"></rect>
            <path d="M1.66666667,4.58333333 C1.66666667,4.12309583 2.0397625,3.75 2.5,3.75 L17.5,3.75 C17.96025,3.75 18.3333333,4.12309583 18.3333333,4.58333333 L18.3333333,14.5833333 C18.3333333,15.0435833 17.96025,15.4166667 17.5,15.4166667 L2.5,15.4166667 C2.0397625,15.4166667 1.66666667,15.0435833 1.66666667,14.5833333 L1.66666667,4.58333333 Z" id="Path" stroke="#A5B7C0" stroke-linejoin="round"></path>
            <rect id="Rectangle" stroke="#A5B7C0" stroke-linejoin="round" x="8.33333333" y="7.08333333" width="3.33333333" height="5"></rect>
            <polyline id="Path" stroke="#A5B7C0" stroke-linecap="round" stroke-linejoin="round" points="18.3333333 7.08333333 15 7.08333333 15 12.0833333 18.3333333 12.0833333"></polyline>
            <polyline id="Path" stroke="#A5B7C0" stroke-linecap="round" stroke-linejoin="round" points="1.66666667 7.08333333 5 7.08333333 5 12.0833333 1.66666667 12.0833333"></polyline>
            <line x1="1.66666667" y1="5.41666667" x2="1.66666667" y2="13.75" id="Path" stroke="#A5B7C0" stroke-linecap="round" stroke-linejoin="round"></line>
            <line x1="18.3333333" y1="5.41666667" x2="18.3333333" y2="13.75" id="Path" stroke="#A5B7C0" stroke-linecap="round" stroke-linejoin="round"></line>
        </g>
    </g>
</svg>