<?xml version="1.0" encoding="UTF-8"?>
<svg width="20px" height="20px" viewBox="0 0 20 20" version="1.1" xmlns="http://www.w3.org/2000/svg" xmlns:xlink="http://www.w3.org/1999/xlink">
    <title>cell</title>
    <g id="Page-1" stroke="none" stroke-width="1" fill="none" fill-rule="evenodd">
        <g id="cell">
            <rect id="Rectangle" fill-opacity="0.01" fill="#FFFFFF" fill-rule="nonzero" x="0" y="0" width="20" height="20"></rect>
            <path d="M11.8402083,9.10275 C11.7915833,10.1803333 12.0656667,10.9356667 12.6624583,11.3688333 C13.5577083,12.0185417 15.7655,12.09475 17.51425,9.10275 C19.2630417,6.11075 17.5665833,4.48554167 16.9222083,4.2145 C16.492625,4.03380833 16.0608333,3.96607083 15.6268333,4.01129167" id="Path" stroke="#A5B7C0" stroke-linecap="round"></path>
            <path d="M12.9224167,11.6692083 C12.4138333,12.2582083 12.3579583,12.9656667 12.7547917,13.7916667 C13.3500417,15.0306667 14.8745,14.8078333 15.6365417,15.8399167 C16.1445833,16.5279583 16.337,17.2202083 16.2138333,17.9166667" id="Path" stroke="#A5B7C0" stroke-linecap="round"></path>
            <path d="M3.543475,9.849875 C4.48504167,11.10875 6.73595833,11.273 9.375,10.2627917 C10.4435417,9.85375 11.5757083,9.25220833 12.710375,8.45279167 C13.5657083,7.85020833 14.1854583,7.23516667 14.621625,6.63333333 C16.1930417,4.46504167 15.381625,2.46761667 14.621625,1.83600417 C13.7981667,1.1516875 12.2175,0.870391667 9.375,2.09729583 C8.86570833,2.31712083 8.31591667,2.5853625 7.72270833,2.90837917 C6.55725,3.54299583 5.59733333,4.25970833 4.85925,5 C3.124875,6.73954167 2.61555417,8.60929167 3.543475,9.849875 Z" id="Path" stroke="#A5B7C0"></path>
            <path d="M6.76879167,3.6829875 C6.95175,4.91208333 7.46520833,5.98670833 8.309125,6.906875 C9.15304167,7.82704167 10.1617917,8.414625 11.6666667,8.95833333" id="Path" stroke="#A5B7C0" stroke-linecap="round"></path>
            <path d="M4.15895417,10.4165833 C1.73154583,12.7709583 1.0773,14.5535833 2.19621667,15.7644583 C3.87459167,17.5807083 5.45325,15.261125 7.56941667,15.261125 C8.98016667,15.261125 10.0681667,16.1462917 10.8333333,17.9165833" id="Path" stroke="#A5B7C0" stroke-linecap="round"></path>
            <path d="M14.621625,6.63333333 C14.1854583,7.23516667 13.5657083,7.85016667 12.710375,8.45279167 C11.5757083,9.25220833 10.4435417,9.85375 9.375,10.2627917" id="Path" stroke="#A5B7C0" stroke-linecap="round"></path>
            <path d="M9.37495833,2.09729583 C8.86566667,2.31712083 8.315875,2.5853625 7.72266667,2.908375 C6.55725,3.54299167 5.59729167,4.25970833 4.85920833,5" id="Path" stroke="#A5B7C0" stroke-linecap="round"></path>
        </g>
    </g>
</svg>