<?xml version="1.0" encoding="UTF-8"?>
<svg width="20px" height="20px" viewBox="0 0 20 20" version="1.1" xmlns="http://www.w3.org/2000/svg" xmlns:xlink="http://www.w3.org/1999/xlink">
    <title>chart-scatter</title>
    <g id="Page-1" stroke="none" stroke-width="1" fill="none" fill-rule="evenodd">
        <g id="chart-scatter">
            <rect id="Rectangle" fill-opacity="0.01" fill="#FFFFFF" fill-rule="nonzero" x="0" y="0" width="20" height="20"></rect>
            <polyline id="Path" stroke="#A5B7C0" stroke-linecap="round" stroke-linejoin="round" points="2.5 2.5 2.5 17.5 17.5 17.5"></polyline>
            <path d="M8.33333333,10 C9.25379167,10 10,9.25379167 10,8.33333333 C10,7.412875 9.25379167,6.66666667 8.33333333,6.66666667 C7.412875,6.66666667 6.66666667,7.412875 6.66666667,8.33333333 C6.66666667,9.25379167 7.412875,10 8.33333333,10 Z" id="Path" fill="#A5B7C0"></path>
            <path d="M15.4166667,6.66666667 C16.56725,6.66666667 17.5,5.73391667 17.5,4.58333333 C17.5,3.43274167 16.56725,2.5 15.4166667,2.5 C14.2660833,2.5 13.3333333,3.43274167 13.3333333,4.58333333 C13.3333333,5.73391667 14.2660833,6.66666667 15.4166667,6.66666667 Z" id="Path" fill="#A5B7C0"></path>
            <path d="M6.25,15 C6.940375,15 7.5,14.440375 7.5,13.75 C7.5,13.059625 6.940375,12.5 6.25,12.5 C5.559625,12.5 5,13.059625 5,13.75 C5,14.440375 5.559625,15 6.25,15 Z" id="Path" fill="#A5B7C0"></path>
            <path d="M13.75,13.3333333 C14.440375,13.3333333 15,12.7737083 15,12.0833333 C15,11.3929583 14.440375,10.8333333 13.75,10.8333333 C13.059625,10.8333333 12.5,11.3929583 12.5,12.0833333 C12.5,12.7737083 13.059625,13.3333333 13.75,13.3333333 Z" id="Path" fill="#A5B7C0"></path>
        </g>
    </g>
</svg>