<?xml version="1.0" encoding="UTF-8"?>
<svg width="20px" height="20px" viewBox="0 0 20 20" version="1.1" xmlns="http://www.w3.org/2000/svg" xmlns:xlink="http://www.w3.org/1999/xlink">
    <title>checkerboard</title>
    <g id="Page-1" stroke="none" stroke-width="1" fill="none" fill-rule="evenodd">
        <g id="checkerboard">
            <rect id="Rectangle" fill-opacity="0.01" fill="#FFFFFF" fill-rule="nonzero" x="0" y="0" width="20" height="20"></rect>
            <path d="M7.08333333,1.66666667 L2.91666667,1.66666667 C2.2263125,1.66666667 1.66666667,2.2263125 1.66666667,2.91666667 L1.66666667,7.08333333 L1.66666667,12.9166667 L1.66666667,17.0833333 C1.66666667,17.7737083 2.2263125,18.3333333 2.91666667,18.3333333 L7.08333333,18.3333333 L12.9166667,18.3333333 L17.0833333,18.3333333 C17.7737083,18.3333333 18.3333333,17.7737083 18.3333333,17.0833333 L18.3333333,12.9166667 L18.3333333,7.08333333 L18.3333333,2.91666667 C18.3333333,2.2263125 17.7737083,1.66666667 17.0833333,1.66666667 L12.9166667,1.66666667 L7.08333333,1.66666667 Z" id="Path" stroke="#A5B7C0" stroke-linecap="round" stroke-linejoin="round"></path>
            <line x1="9.58333333" y1="7.08333333" x2="18.3333333" y2="7.08333333" id="Path" stroke="#A5B7C0" stroke-linecap="round" stroke-linejoin="round"></line>
            <line x1="1.66666667" y1="7.08333333" x2="5.41666667" y2="7.08333333" id="Path" stroke="#A5B7C0" stroke-linecap="round" stroke-linejoin="round"></line>
            <line x1="14.5833333" y1="12.9166667" x2="18.3333333" y2="12.9166667" id="Path" stroke="#A5B7C0" stroke-linecap="round" stroke-linejoin="round"></line>
            <line x1="2.5" y1="12.9166667" x2="10.4166667" y2="12.9166667" id="Path" stroke="#A5B7C0" stroke-linecap="round" stroke-linejoin="round"></line>
            <line x1="7.08333333" y1="8.75" x2="7.08333333" y2="18.3333333" id="Path" stroke="#A5B7C0" stroke-linecap="round" stroke-linejoin="round"></line>
            <line x1="12.9166667" y1="1.66666667" x2="12.9166667" y2="11.25" id="Path" stroke="#A5B7C0" stroke-linecap="round" stroke-linejoin="round"></line>
            <line x1="12.9166667" y1="14.5833333" x2="12.9166667" y2="18.3333333" id="Path" stroke="#A5B7C0" stroke-linecap="round" stroke-linejoin="round"></line>
            <line x1="7.08333333" y1="1.66666667" x2="7.08333333" y2="5.41666667" id="Path" stroke="#A5B7C0" stroke-linecap="round" stroke-linejoin="round"></line>
            <path d="M14.5833333,12.9166667 C14.5833333,13.837125 13.837125,14.5833333 12.9166667,14.5833333 C11.9962083,14.5833333 11.25,13.837125 11.25,12.9166667 C11.25,11.9962083 11.9962083,11.25 12.9166667,11.25 C13.837125,11.25 14.5833333,11.9962083 14.5833333,12.9166667 Z" id="Path" stroke="#A5B7C0" stroke-linecap="round" stroke-linejoin="round"></path>
            <path d="M8.75,7.08333333 C8.75,8.00379167 8.00379167,8.75 7.08333333,8.75 C6.162875,8.75 5.41666667,8.00379167 5.41666667,7.08333333 C5.41666667,6.162875 6.162875,5.41666667 7.08333333,5.41666667 C8.00379167,5.41666667 8.75,6.162875 8.75,7.08333333 Z" id="Path" stroke="#A5B7C0" stroke-linecap="round" stroke-linejoin="round"></path>
        </g>
    </g>
</svg>