<?xml version="1.0" encoding="UTF-8"?>
<svg width="20px" height="20px" viewBox="0 0 20 20" version="1.1" xmlns="http://www.w3.org/2000/svg" xmlns:xlink="http://www.w3.org/1999/xlink">
    <title>chest</title>
    <g id="Page-1" stroke="none" stroke-width="1" fill="none" fill-rule="evenodd">
        <g id="chest">
            <rect id="Rectangle" fill-opacity="0.01" fill="#FFFFFF" fill-rule="nonzero" x="0" y="0" width="20" height="20"></rect>
            <path d="M7.082,1.45833333 C7.082,2.40234583 7.082,3.11743333 7.082,3.6035875 C7.082,4.33283333 6.68054167,4.61395833 5.167625,5.00270833 C3.65472083,5.39141667 3.2068,5.62054167 2.8534,6.29145833 C2.6178,6.73870833 2.5,7.42929167 2.5,8.363125 L2.5,15.625" id="Path" stroke="#A5B7C0" stroke-linecap="round"></path>
            <path d="M14.559,8.962 C14.658,10.1606667 14.454875,11.2075417 13.9496667,12.1025833 C13.4444583,12.997625 12.5525,13.542875 11.2738333,13.73825" id="Path" stroke="#A5B7C0" stroke-linecap="round" stroke-linejoin="round"></path>
            <path d="M5.441125,8.962 C5.34166667,10.1606667 5.54566667,11.2075417 6.05320833,12.1025833 C6.56070833,12.997625 7.45991667,13.542875 8.75091667,13.73825" id="Path" stroke="#A5B7C0" stroke-linecap="round" stroke-linejoin="round"></path>
            <path d="M5.41666667,18.130125 C5.97220833,17.4822083 6.25,16.7777083 6.25,16.016625 C6.25,15.2555417 6.25,14.0939583 6.25,12.5319583" id="Path" stroke="#A5B7C0" stroke-linecap="round"></path>
            <path d="M14.5833333,18.130125 C14.0277917,17.4822083 13.75,16.7777083 13.75,16.016625 C13.75,15.2555417 13.75,14.0939583 13.75,12.5319583" id="Path" stroke="#A5B7C0" stroke-linecap="round"></path>
            <path d="M12.9167917,1.45833333 C12.9167917,2.40234583 12.9167917,3.11743333 12.9167917,3.6035875 C12.9167917,4.33283333 13.31825,4.61395833 14.8311667,5.00270833 C16.3440417,5.39141667 16.792,5.62054167 17.145375,6.29145833 C17.381,6.73870833 17.4987917,7.42929167 17.4987917,8.363125 L17.4987917,15.625" id="Path" stroke="#A5B7C0" stroke-linecap="round"></path>
        </g>
    </g>
</svg>