<?xml version="1.0" encoding="UTF-8"?>
<svg width="20px" height="20px" viewBox="0 0 20 20" version="1.1" xmlns="http://www.w3.org/2000/svg" xmlns:xlink="http://www.w3.org/1999/xlink">
    <title>chinese-medicine</title>
    <g id="Page-1" stroke="none" stroke-width="1" fill="none" fill-rule="evenodd">
        <g id="chinese-medicine">
            <rect id="Rectangle" fill-opacity="0.01" fill="#FFFFFF" fill-rule="nonzero" x="0" y="0" width="20" height="20"></rect>
            <path d="M10,17.9166667 C10.3605417,17.9166667 11.187625,17.9166667 12.4812917,17.9166667 C12.515875,16.7762917 12.6830417,16.14925 12.98275,16.0355 C16.111875,14.8482083 18.3333333,11.8475 18.3333333,8.33333333 L1.66666667,8.33333333 C1.66666667,11.7714167 3.79299583,14.7180833 6.81533333,15.955875 C7.13129167,16.0852917 7.36729167,16.738875 7.52333333,17.9166667 C8.78570833,17.9166667 9.61125,17.9166667 10,17.9166667 Z" id="Path" stroke="#A5B7C0" stroke-linejoin="round"></path>
            <path d="M6.01816667,11.259375 C6.16804167,11.7542917 6.36620833,12.1629167 6.61266667,12.48525 C6.853625,12.800375 7.150875,13.092625 7.50445833,13.362" id="Path" stroke="#A5B7C0" stroke-linecap="round"></path>
            <path d="M10.5059167,8.34433333 C12.0708333,5.1145 12.9905417,3.21050417 13.2650417,2.63239583 C13.70225,1.71162917 14.5899583,1.49005833 15.4087917,1.83987083 C16.2275833,2.18968333 16.5589167,3.19095 16.2152083,3.88879583 C16.0029583,4.31979167 15.2820417,5.801875 14.0525417,8.335" id="Path" stroke="#A5B7C0" stroke-linecap="round"></path>
        </g>
    </g>
</svg>