<?xml version="1.0" encoding="UTF-8"?>
<svg width="20px" height="20px" viewBox="0 0 20 20" version="1.1" xmlns="http://www.w3.org/2000/svg" xmlns:xlink="http://www.w3.org/1999/xlink">
    <title>circular-connection</title>
    <g id="Page-1" stroke="none" stroke-width="1" fill="none" fill-rule="evenodd">
        <g id="circular-connection">
            <rect id="Rectangle" fill-opacity="0.01" fill="#FFFFFF" fill-rule="nonzero" x="0" y="0" width="20" height="20"></rect>
            <circle id="Oval" stroke="#A5B7C0" cx="10" cy="10.8333333" r="7.08333333"></circle>
            <path d="M17.9166667,15 C17.9166667,15.559 17.6965,16.0665417 17.3382083,16.4407083 C16.9589583,16.83675 16.4249583,17.0833333 15.8333333,17.0833333 C14.68275,17.0833333 13.75,16.1505833 13.75,15 C13.75,14.1624583 14.2442083,13.440375 14.9569583,13.1094167 C15.2233333,12.9857083 15.5202917,12.9166667 15.8333333,12.9166667 C16.9839167,12.9166667 17.9166667,13.8494167 17.9166667,15 Z" id="Path" stroke="#A5B7C0" stroke-linecap="round" stroke-linejoin="round"></path>
            <path d="M6.25,15 C6.25,15.559 6.02983333,16.0665417 5.67154167,16.4407083 C5.29229167,16.83675 4.75829167,17.0833333 4.16666667,17.0833333 C3.016075,17.0833333 2.08333333,16.1505833 2.08333333,15 C2.08333333,14.1624583 2.57755833,13.440375 3.29027917,13.1094167 C3.55668333,12.9857083 3.8536125,12.9166667 4.16666667,12.9166667 C5.31725,12.9166667 6.25,13.8494167 6.25,15 Z" id="Path" stroke="#A5B7C0" stroke-linecap="round" stroke-linejoin="round"></path>
            <path d="M12.0833333,3.75 C12.0833333,4.309 11.8631667,4.81654167 11.504875,5.19070833 C11.125625,5.58675 10.591625,5.83333333 10,5.83333333 C8.84941667,5.83333333 7.91666667,4.90058333 7.91666667,3.75 C7.91666667,2.9124625 8.410875,2.19035833 9.123625,1.85941667 C9.39,1.73571667 9.68695833,1.66666667 10,1.66666667 C11.1505833,1.66666667 12.0833333,2.59940833 12.0833333,3.75 Z" id="Path" stroke="#A5B7C0" stroke-linecap="round" stroke-linejoin="round"></path>
        </g>
    </g>
</svg>