<?xml version="1.0" encoding="UTF-8"?>
<svg width="20px" height="20px" viewBox="0 0 20 20" version="1.1" xmlns="http://www.w3.org/2000/svg" xmlns:xlink="http://www.w3.org/1999/xlink">
    <title>circle-four-line</title>
    <g id="Page-1" stroke="none" stroke-width="1" fill="none" fill-rule="evenodd">
        <g id="circle-four-line">
            <rect id="Rectangle" fill-opacity="0.01" fill="#FFFFFF" fill-rule="nonzero" x="0" y="0" width="20" height="20"></rect>
            <path d="M16.6666667,5 C17.587125,5 18.3333333,4.25379167 18.3333333,3.33333333 C18.3333333,2.41285833 17.587125,1.66666667 16.6666667,1.66666667 C15.7462083,1.66666667 15,2.41285833 15,3.33333333 C15,4.25379167 15.7462083,5 16.6666667,5 Z" id="Path" stroke="#A5B7C0" stroke-linejoin="round"></path>
            <path d="M16.6666667,18.3333333 C17.587125,18.3333333 18.3333333,17.587125 18.3333333,16.6666667 C18.3333333,15.7462083 17.587125,15 16.6666667,15 C15.7462083,15 15,15.7462083 15,16.6666667 C15,17.587125 15.7462083,18.3333333 16.6666667,18.3333333 Z" id="Path" stroke="#A5B7C0" stroke-linejoin="round"></path>
            <path d="M3.33333333,5 C4.25379167,5 5,4.25379167 5,3.33333333 C5,2.41285833 4.25379167,1.66666667 3.33333333,1.66666667 C2.41285833,1.66666667 1.66666667,2.41285833 1.66666667,3.33333333 C1.66666667,4.25379167 2.41285833,5 3.33333333,5 Z" id="Path" stroke="#A5B7C0" stroke-linejoin="round"></path>
            <path d="M3.33333333,18.3333333 C4.25379167,18.3333333 5,17.587125 5,16.6666667 C5,15.7462083 4.25379167,15 3.33333333,15 C2.41285833,15 1.66666667,15.7462083 1.66666667,16.6666667 C1.66666667,17.587125 2.41285833,18.3333333 3.33333333,18.3333333 Z" id="Path" stroke="#A5B7C0" stroke-linejoin="round"></path>
            <path d="M8.33333333,3.33333333 L11.6666667,3.33333333 L8.33333333,3.33333333 Z" id="Path"></path>
            <line x1="8.33333333" y1="3.33333333" x2="11.6666667" y2="3.33333333" id="Path" stroke="#A5B7C0" stroke-linecap="round" stroke-linejoin="round"></line>
            <path d="M13.3333333,6.66666667 L6.66666667,13.3333333 L13.3333333,6.66666667 Z" id="Path"></path>
            <line x1="13.3333333" y1="6.66666667" x2="6.66666667" y2="13.3333333" id="Path" stroke="#A5B7C0" stroke-linecap="round" stroke-linejoin="round"></line>
            <path d="M16.6666667,8.33333333 L16.6666667,11.6666667 L16.6666667,8.33333333 Z" id="Path"></path>
            <line x1="16.6666667" y1="8.33333333" x2="16.6666667" y2="11.6666667" id="Path" stroke="#A5B7C0" stroke-linecap="round" stroke-linejoin="round"></line>
        </g>
    </g>
</svg>