<?xml version="1.0" encoding="UTF-8"?>
<svg width="20px" height="20px" viewBox="0 0 20 20" version="1.1" xmlns="http://www.w3.org/2000/svg" xmlns:xlink="http://www.w3.org/1999/xlink">
    <title>circles-seven</title>
    <g id="Page-1" stroke="none" stroke-width="1" fill="none" fill-rule="evenodd">
        <g id="circles-seven">
            <rect id="Rectangle" fill-opacity="0.01" fill="#FFFFFF" fill-rule="nonzero" x="0" y="0" width="20" height="20"></rect>
            <path d="M10,5 C10.9204583,5 11.6666667,4.25379167 11.6666667,3.33333333 C11.6666667,2.41285833 10.9204583,1.66666667 10,1.66666667 C9.07954167,1.66666667 8.33333333,2.41285833 8.33333333,3.33333333 C8.33333333,4.25379167 9.07954167,5 10,5 Z" id="Path" stroke="#A5B7C0" stroke-linecap="round" stroke-linejoin="round"></path>
            <path d="M10,11.6666667 C10.9204583,11.6666667 11.6666667,10.9204583 11.6666667,10 C11.6666667,9.07954167 10.9204583,8.33333333 10,8.33333333 C9.07954167,8.33333333 8.33333333,9.07954167 8.33333333,10 C8.33333333,10.9204583 9.07954167,11.6666667 10,11.6666667 Z" id="Path" stroke="#A5B7C0" stroke-linecap="round" stroke-linejoin="round"></path>
            <path d="M14.33025,7.5 C14.7905,8.29716667 15.8097917,8.57029167 16.6069583,8.11004167 C17.404125,7.64979167 17.67725,6.6305 17.217,5.83333333 C16.75675,5.03616667 15.7374583,4.76304167 14.9402917,5.22329167 C14.143125,5.68354167 13.87,6.70283333 14.33025,7.5 Z" id="Path" stroke="#A5B7C0" stroke-linecap="round" stroke-linejoin="round"></path>
            <path d="M14.33025,12.5 C13.87,13.2971667 14.143125,14.3164583 14.9402917,14.7767083 C15.7374583,15.2369583 16.75675,14.9638333 17.217,14.1666667 C17.67725,13.3695 17.404125,12.3502083 16.6069583,11.8899583 C15.8097917,11.4297083 14.7905,11.7028333 14.33025,12.5 Z" id="Path" stroke="#A5B7C0" stroke-linecap="round" stroke-linejoin="round"></path>
            <path d="M10,15 C9.07954167,15 8.33333333,15.7462083 8.33333333,16.6666667 C8.33333333,17.587125 9.07954167,18.3333333 10,18.3333333 C10.9204583,18.3333333 11.6666667,17.587125 11.6666667,16.6666667 C11.6666667,15.7462083 10.9204583,15 10,15 Z" id="Path" stroke="#A5B7C0" stroke-linecap="round" stroke-linejoin="round"></path>
            <path d="M5.66995833,12.5 C5.20970833,11.7028333 4.19041667,11.4297083 3.39324583,11.8899583 C2.59609167,12.3502083 2.32296667,13.3695 2.78320417,14.1666667 C3.24344167,14.9638333 4.26275,15.2369583 5.05991667,14.7767083 C5.85708333,14.3164583 6.13020833,13.2971667 5.66995833,12.5 Z" id="Path" stroke="#A5B7C0" stroke-linecap="round" stroke-linejoin="round"></path>
            <path d="M5.66995833,7.5 C6.13020833,6.70283333 5.85708333,5.68354167 5.05991667,5.22329167 C4.26275,4.76304167 3.24344167,5.03616667 2.78320417,5.83333333 C2.32296667,6.6305 2.59609167,7.64979167 3.39324583,8.11004167 C4.19041667,8.57029167 5.20970833,8.29716667 5.66995833,7.5 Z" id="Path" stroke="#A5B7C0" stroke-linecap="round" stroke-linejoin="round"></path>
        </g>
    </g>
</svg>