<?xml version="1.0" encoding="UTF-8"?>
<svg width="20px" height="20px" viewBox="0 0 20 20" version="1.1" xmlns="http://www.w3.org/2000/svg" xmlns:xlink="http://www.w3.org/1999/xlink">
    <title>circle-four</title>
    <g id="Page-1" stroke="none" stroke-width="1" fill="none" fill-rule="evenodd">
        <g id="circle-four">
            <rect id="Rectangle" fill-opacity="0.01" fill="#FFFFFF" fill-rule="nonzero" x="0" y="0" width="20" height="20"></rect>
            <path d="M10,4.16666667 C10.690375,4.16666667 11.25,3.60702083 11.25,2.91666667 C11.25,2.2263125 10.690375,1.66666667 10,1.66666667 C9.309625,1.66666667 8.75,2.2263125 8.75,2.91666667 C8.75,3.60702083 9.309625,4.16666667 10,4.16666667 Z" id="Path" stroke="#A5B7C0" stroke-linecap="round" stroke-linejoin="round"></path>
            <path d="M10,18.3333333 C10.690375,18.3333333 11.25,17.7737083 11.25,17.0833333 C11.25,16.3929583 10.690375,15.8333333 10,15.8333333 C9.309625,15.8333333 8.75,16.3929583 8.75,17.0833333 C8.75,17.7737083 9.309625,18.3333333 10,18.3333333 Z" id="Path" stroke="#A5B7C0" stroke-linecap="round" stroke-linejoin="round"></path>
            <path d="M2.91666667,11.25 C3.60702083,11.25 4.16666667,10.690375 4.16666667,10 C4.16666667,9.309625 3.60702083,8.75 2.91666667,8.75 C2.2263125,8.75 1.66666667,9.309625 1.66666667,10 C1.66666667,10.690375 2.2263125,11.25 2.91666667,11.25 Z" id="Path" stroke="#A5B7C0" stroke-linecap="round" stroke-linejoin="round"></path>
            <path d="M17.0833333,11.25 C17.7737083,11.25 18.3333333,10.690375 18.3333333,10 C18.3333333,9.309625 17.7737083,8.75 17.0833333,8.75 C16.3929583,8.75 15.8333333,9.309625 15.8333333,10 C15.8333333,10.690375 16.3929583,11.25 17.0833333,11.25 Z" id="Path" stroke="#A5B7C0" stroke-linecap="round" stroke-linejoin="round"></path>
            <path d="M10.0820417,6.559875 C11.36975,6.559875 12.505875,5.91083333 13.1810833,4.92204167 C13.9650833,5.391125 14.6335417,6.03345833 15.1335417,6.79616667 C14.0540833,7.45454167 13.3334167,8.643125 13.3334167,10 C13.3334167,11.3928333 14.09275,12.6082917 15.22,13.255 C14.7520417,14.0122083 14.1209583,14.658 13.3758333,15.1433333 C12.73975,13.9779583 11.5032083,13.1874167 10.0820417,13.1874167 C8.665375,13.1874167 7.43220833,13.9729583 6.79433333,15.13225 C6.03245833,14.632375 5.39079167,13.964375 4.92208333,13.181 C5.910875,12.5057917 6.55991667,11.3696667 6.55991667,10.082 C6.55991667,8.79854167 5.91516667,7.66566667 4.931875,6.98966667 C5.43945833,6.14733333 6.14741667,5.43941667 6.98970833,4.93183333 C7.66570833,5.915125 8.79858333,6.559875 10.0820417,6.559875 Z" id="Path" stroke="#A5B7C0" stroke-linecap="round" stroke-linejoin="round"></path>
        </g>
    </g>
</svg>