<?xml version="1.0" encoding="UTF-8"?>
<svg width="20px" height="20px" viewBox="0 0 20 20" version="1.1" xmlns="http://www.w3.org/2000/svg" xmlns:xlink="http://www.w3.org/1999/xlink">
    <title>circle-three</title>
    <g id="Page-1" stroke="none" stroke-width="1" fill="none" fill-rule="evenodd">
        <g id="circle-three">
            <rect id="Rectangle" fill-opacity="0.01" fill="#FFFFFF" fill-rule="nonzero" x="0" y="0" width="20" height="20"></rect>
            <path d="M13.709875,5.80295833 C13.0193333,7.14945833 11.61725,8.070875 10,8.070875 C8.38270833,8.070875 6.98066667,7.14945833 6.290125,5.80295833 C4.74925,6.94125 3.75,8.77058333 3.75,10.8333333 C3.75,11.1740417 3.7772625,11.508375 3.82972917,11.8342917 C3.9408625,11.8254167 4.05322917,11.820875 4.16665,11.820875 C6.46783333,11.820875 8.33333333,13.686375 8.33333333,15.9875417 C8.33333333,16.2776667 8.30366667,16.5608333 8.24725,16.8342083 C8.80333333,16.996375 9.39154167,17.0833333 10,17.0833333 C10.6084583,17.0833333 11.196625,16.996375 11.75275,16.8342083 C11.6962917,16.5608333 11.6666667,16.2776667 11.6666667,15.9875417 C11.6666667,13.686375 13.532125,11.820875 15.8333333,11.820875 C15.94675,11.820875 16.059125,11.8254167 16.1702917,11.8342917 C16.22275,11.508375 16.25,11.1740417 16.25,10.8333333 C16.25,8.77058333 15.2507083,6.94125 13.709875,5.80295833 Z" id="Path" stroke="#A5B7C0" stroke-linecap="round" stroke-linejoin="round"></path>
            <path d="M10,5.41666667 C10.9204583,5.41666667 11.6666667,4.67045833 11.6666667,3.75 C11.6666667,2.829525 10.9204583,2.08333333 10,2.08333333 C9.07954167,2.08333333 8.33333333,2.829525 8.33333333,3.75 C8.33333333,4.67045833 9.07954167,5.41666667 10,5.41666667 Z" id="Path" stroke="#A5B7C0" stroke-linecap="round" stroke-linejoin="round"></path>
            <path d="M3.75,17.9166667 C4.67045833,17.9166667 5.41666667,17.1704583 5.41666667,16.25 C5.41666667,15.3295417 4.67045833,14.5833333 3.75,14.5833333 C2.829525,14.5833333 2.08333333,15.3295417 2.08333333,16.25 C2.08333333,17.1704583 2.829525,17.9166667 3.75,17.9166667 Z" id="Path" stroke="#A5B7C0" stroke-linecap="round" stroke-linejoin="round"></path>
            <path d="M16.25,17.9166667 C17.1704583,17.9166667 17.9166667,17.1704583 17.9166667,16.25 C17.9166667,15.3295417 17.1704583,14.5833333 16.25,14.5833333 C15.3295417,14.5833333 14.5833333,15.3295417 14.5833333,16.25 C14.5833333,17.1704583 15.3295417,17.9166667 16.25,17.9166667 Z" id="Path" stroke="#A5B7C0" stroke-linecap="round" stroke-linejoin="round"></path>
        </g>
    </g>
</svg>