<?xml version="1.0" encoding="UTF-8"?>
<svg width="20px" height="20px" viewBox="0 0 20 20" version="1.1" xmlns="http://www.w3.org/2000/svg" xmlns:xlink="http://www.w3.org/1999/xlink">
    <title>click-tap</title>
    <g id="Page-1" stroke="none" stroke-width="1" fill="none" fill-rule="evenodd">
        <g id="click-tap">
            <rect id="Rectangle" fill-opacity="0.01" fill="#FFFFFF" x="0" y="0" width="20" height="20"></rect>
            <g id="Group" transform="translate(3.333333, 2.083333)" stroke="#A5B7C0" stroke-linecap="round">
                <g transform="translate(2.916667, 2.916667)" id="Path" stroke-linejoin="round">
                    <path d="M0,5.83333333 L0,1.25 C0,0.559644062 0.559644062,0 1.25,0 C1.94035594,0 2.5,0.559644062 2.5,1.25 L2.5,5.83333333"></path>
                    <path d="M10,5.41666667 L10,8.125 C10,10.7713644 7.85469775,12.9166667 5.20833333,12.9166667 L4.79166667,12.9166667 C2.14530224,12.9166667 0,10.7713644 0,8.125 L0,5.41666667"></path>
                    <path d="M2.5,7.08333333 L2.5,6.29406371 L2.5,5 C2.5,4.30964408 3.05964406,3.75 3.75,3.75 C4.44035592,3.75 5,4.30964408 5,5 L5,6.32575154 L5,7.08333333"></path>
                    <path d="M5,7.08333333 L5,6.29406371 L5,5 C5,4.30964408 5.55964408,3.75 6.25,3.75 C6.94035592,3.75 7.5,4.30964408 7.5,5 L7.5,6.32575154 L7.5,7.08333333"></path>
                    <path d="M7.5,7.08333333 L7.5,6.29406371 L7.5,5 C7.5,4.30964408 8.05964408,3.75 8.75,3.75 C9.44035592,3.75 10,4.30964408 10,5 L10,6.32575154 L10,7.08333333"></path>
                </g>
                <path d="M8.33333333,4.16666667 C8.33333333,3.72870285 8.26576183,3.3065212 8.14047546,2.9099783 C8.00035037,2.46646964 7.78802954,2.05503259 7.51730283,1.68945709 C6.75824671,0.664466425 5.54005392,0 4.16666667,0 C2.79327943,0 1.57508664,0.664466425 0.816030483,1.68945709 C0.545303796,2.05503259 0.332982946,2.46646964 0.192857879,2.9099783 C0.0675714892,3.3065212 0,3.72870285 0,4.16666667" id="Path"></path>
            </g>
        </g>
    </g>
</svg>