<?xml version="1.0" encoding="UTF-8"?>
<svg width="20px" height="20px" viewBox="0 0 20 20" version="1.1" xmlns="http://www.w3.org/2000/svg" xmlns:xlink="http://www.w3.org/1999/xlink">
    <title>close-remind</title>
    <g id="Page-1" stroke="none" stroke-width="1" fill="none" fill-rule="evenodd">
        <g id="close-remind">
            <rect id="Rectangle" fill-opacity="0.01" fill="#FFFFFF" fill-rule="nonzero" x="0" y="0" width="20" height="20"></rect>
            <path d="M17.5,15.8333333 C17.5,15.8333333 15,13.75 15,7.91666667 C15,5.15525 12.7614167,2.91666667 10,2.91666667 C8.94166667,2.91666667 7.96008333,3.24549167 7.15195833,3.80654583 M12.5,15.8333333 L2.5,15.8333333 C2.5,15.8333333 4.8205,13.8995833 4.99020833,8.54166667" id="Shape" stroke="#A5B7C0" stroke-linecap="round" stroke-linejoin="round"></path>
            <path d="M7.5,15.8333333 L12.5,15.8333333 C12.5,17.2140417 11.3807083,18.3333333 10,18.3333333 C8.61929167,18.3333333 7.5,17.2140417 7.5,15.8333333 Z" id="Path" stroke="#A5B7C0"></path>
            <path d="M10,0.833333333 C9.07954167,0.833333333 8.33333333,1.579525 8.33333333,2.5 L11.6666667,2.5 C11.6666667,1.579525 10.9204583,0.833333333 10,0.833333333 Z" id="Path" fill="#A5B7C0"></path>
            <line x1="2.91666667" y1="2.70833333" x2="17.0833333" y2="18.5416667" id="Path" stroke="#A5B7C0" stroke-linecap="round" stroke-linejoin="round"></line>
        </g>
    </g>
</svg>