<?xml version="1.0" encoding="UTF-8"?>
<svg width="20px" height="20px" viewBox="0 0 20 20" version="1.1" xmlns="http://www.w3.org/2000/svg" xmlns:xlink="http://www.w3.org/1999/xlink">
    <title>clothes-turtleneck</title>
    <g id="Page-1" stroke="none" stroke-width="1" fill="none" fill-rule="evenodd">
        <g id="clothes-turtleneck">
            <rect id="Rectangle" fill-opacity="0.01" fill="#FFFFFF" fill-rule="nonzero" x="0" y="0" width="20" height="20"></rect>
            <path d="M15.4166667,9.58333333 L15.4166667,15.4166667 M4.58333333,15.4166667 L4.58333333,18.3333333 L15.4166667,18.3333333 L15.4166667,15.4166667 M4.58333333,15.4166667 L1.66666667,15.4166667 L1.66666667,9.58333333 C1.66666667,8.33333333 2.5,6.875 3.75,5.83333333 C5,4.79166667 7.5,4.16666667 7.5,4.16666667 L12.5,4.16666667 C12.5,4.16666667 15,4.79166667 16.25,5.83333333 C17.5,6.875 18.3333333,8.33333333 18.3333333,9.58333333 L18.3333333,15.4166667 L15.4166667,15.4166667 M4.58333333,15.4166667 L4.58333333,9.58333333" id="Shape" stroke="#A5B7C0" stroke-linecap="round" stroke-linejoin="round"></path>
            <polygon id="Path" stroke="#A5B7C0" stroke-linecap="round" stroke-linejoin="round" points="12.5 4.16666667 7.5 4.16666667 7.5 1.66666667 12.5 1.66666667"></polygon>
        </g>
    </g>
</svg>