<?xml version="1.0" encoding="UTF-8"?>
<svg width="20px" height="20px" viewBox="0 0 20 20" version="1.1" xmlns="http://www.w3.org/2000/svg" xmlns:xlink="http://www.w3.org/1999/xlink">
    <title>clothes-diapers</title>
    <g id="Page-1" stroke="none" stroke-width="1" fill="none" fill-rule="evenodd">
        <g id="clothes-diapers">
            <rect id="Rectangle" fill-opacity="0.01" fill="#FFFFFF" fill-rule="nonzero" x="0" y="0" width="20" height="20"></rect>
            <path d="M2.5,4.58333333 L17.5,4.58333333 L17.5,7.91666667 C17.5,7.91666667 17.5,11.25 15.8333333,12.9166667 C14.1666667,14.5833333 11.600875,15.4166667 11.600875,15.4166667 L8.399125,15.4166667 C8.399125,15.4166667 5.83333333,14.5833333 4.16666667,12.9166667 C2.5,11.25 2.5,7.91666667 2.5,7.91666667 L2.5,4.58333333 Z" id="Path" stroke="#A5B7C0" stroke-linecap="round" stroke-linejoin="round"></path>
            <path d="M8.399125,15.4166667 C8.399125,15.4166667 8.4405,12.4689583 7.08333333,10.8333333 C5.815,9.30479167 2.5,7.91666667 2.5,7.91666667" id="Path" stroke="#A5B7C0" stroke-linecap="round" stroke-linejoin="round"></path>
            <path d="M11.600875,15.4166667 C11.600875,15.4166667 11.5595,12.4689167 12.9166667,10.8333333 C14.185,9.30479167 17.5,7.91666667 17.5,7.91666667" id="Path" stroke="#A5B7C0" stroke-linecap="round" stroke-linejoin="round"></path>
        </g>
    </g>
</svg>