<?xml version="1.0" encoding="UTF-8"?>
<svg width="20px" height="20px" viewBox="0 0 20 20" version="1.1" xmlns="http://www.w3.org/2000/svg" xmlns:xlink="http://www.w3.org/1999/xlink">
    <title>clothes-cardigan</title>
    <g id="Page-1" stroke="none" stroke-width="1" fill="none" fill-rule="evenodd">
        <g id="clothes-cardigan">
            <rect id="Rectangle" fill-opacity="0.01" fill="#FFFFFF" fill-rule="nonzero" x="0" y="0" width="20" height="20"></rect>
            <path d="M15.4166667,7.08333333 L15.4166667,15.4166667 M4.58333333,15.4166667 L4.58333333,18.3333333 L15.4166667,18.3333333 L15.4166667,15.4166667 M4.58333333,15.4166667 L1.66666667,15.4166667 L1.66666667,7.08333333 C1.66666667,5.83333333 2.5,4.375 3.75,3.33333333 C5,2.29166667 6.66666667,1.66666667 6.66666667,1.66666667 L13.3333333,1.66666667 C13.3333333,1.66666667 15,2.29166667 16.25,3.33333333 C17.5,4.375 18.3333333,5.83333333 18.3333333,7.08333333 L18.3333333,15.4166667 L15.4166667,15.4166667 M4.58333333,15.4166667 L4.58333333,7.08333333" id="Shape" stroke="#A5B7C0" stroke-linecap="round" stroke-linejoin="round"></path>
            <line x1="10" y1="7.08333333" x2="10" y2="18.3333333" id="Path" stroke="#A5B7C0" stroke-linecap="round" stroke-linejoin="round"></line>
            <line x1="10" y1="7.08333333" x2="6.66666667" y2="1.66666667" id="Path" stroke="#A5B7C0" stroke-linecap="round" stroke-linejoin="round"></line>
            <line x1="13.3333333" y1="1.66666667" x2="10" y2="7.08333333" id="Path" stroke="#A5B7C0" stroke-linecap="round" stroke-linejoin="round"></line>
        </g>
    </g>
</svg>