<?xml version="1.0" encoding="UTF-8"?>
<svg width="20px" height="20px" viewBox="0 0 20 20" version="1.1" xmlns="http://www.w3.org/2000/svg" xmlns:xlink="http://www.w3.org/1999/xlink">
    <title>clothes-suit</title>
    <g id="Page-1" stroke="none" stroke-width="1" fill="none" fill-rule="evenodd">
        <g id="clothes-suit">
            <rect id="Rectangle" fill-opacity="0.01" fill="#FFFFFF" fill-rule="nonzero" x="0" y="0" width="20" height="20"></rect>
            <path d="M15.4166667,8.75 L15.4166667,15.4166667 M4.58333333,15.4166667 L4.58333333,18.3333333 L15.4166667,18.3333333 L15.4166667,15.4166667 M4.58333333,15.4166667 L1.66666667,15.4166667 L1.66666667,4.16666667 L7.5,1.66666667 L12.5,1.66666667 L18.3333333,4.16666667 L18.3333333,15.4166667 L15.4166667,15.4166667 M4.58333333,15.4166667 L4.58333333,8.75" id="Shape" stroke="#A5B7C0" stroke-linecap="round" stroke-linejoin="round"></path>
            <path d="M12.5,1.66666667 L10,7.5 M10,7.5 L7.5,1.66666667 M10,7.5 L10,15.4166667 L10,18.3333333" id="Shape" stroke="#A5B7C0" stroke-linecap="round" stroke-linejoin="round"></path>
            <line x1="12.5" y1="1.66666667" x2="10" y2="7.5" id="Path" stroke="#A5B7C0" stroke-linecap="round" stroke-linejoin="round"></line>
            <line x1="10" y1="7.5" x2="7.5" y2="1.66666667" id="Path" stroke="#A5B7C0" stroke-linecap="round" stroke-linejoin="round"></line>
            <polyline id="Path" stroke="#A5B7C0" stroke-linecap="round" stroke-linejoin="round" points="7.5 1.66666667 5.83333333 5 7.5 7.29166667 6.66666667 9.58333333 10 15.4166667"></polyline>
            <polyline id="Path" stroke="#A5B7C0" stroke-linecap="round" stroke-linejoin="round" points="12.5 1.66666667 14.5833333 5 12.5 7.29166667 13.3333333 9.58333333 10 15.4166667"></polyline>
        </g>
    </g>
</svg>