<?xml version="1.0" encoding="UTF-8"?>
<svg width="20px" height="20px" viewBox="0 0 20 20" version="1.1" xmlns="http://www.w3.org/2000/svg" xmlns:xlink="http://www.w3.org/1999/xlink">
    <title>clothes-gloves</title>
    <g id="Page-1" stroke="none" stroke-width="1" fill="none" fill-rule="evenodd">
        <g id="clothes-gloves">
            <rect id="Rectangle" fill-opacity="0.01" fill="#FFFFFF" fill-rule="nonzero" x="0" y="0" width="20" height="20"></rect>
            <path d="M14.5833333,11.25 L14.5833333,7.08333333 M14.5833333,7.08333333 L14.5833333,6.66666667 C14.5833333,4.309625 14.5833333,3.13113333 13.8510833,2.3989 C13.118875,1.66666667 11.940375,1.66666667 9.58333333,1.66666667 L7.91666667,1.66666667 C5.559625,1.66666667 4.381125,1.66666667 3.6489,2.3989 C2.91666667,3.13113333 2.91666667,4.309625 2.91666667,6.66666667 L2.91666667,18.3333333 L14.5833333,18.3333333 L14.5833333,15.4166667 C14.5833333,15.4166667 17.5,15.4166667 17.5,12.9166667 C17.5,12.0833333 17.5,10.8333333 17.5,9.58333333 C17.5,7.08333333 14.5833333,7.08333333 14.5833333,7.08333333 Z" id="Shape" stroke="#A5B7C0" stroke-linecap="round" stroke-linejoin="round"></path>
            <line x1="5.83333333" y1="9.58333333" x2="5.83333333" y2="2.08333333" id="Path" stroke="#A5B7C0" stroke-linecap="round" stroke-linejoin="round"></line>
            <line x1="8.75" y1="9.58333333" x2="8.75" y2="2.08333333" id="Path" stroke="#A5B7C0" stroke-linecap="round" stroke-linejoin="round"></line>
            <line x1="11.6666667" y1="9.58333333" x2="11.6666667" y2="2.08333333" id="Path" stroke="#A5B7C0" stroke-linecap="round" stroke-linejoin="round"></line>
        </g>
    </g>
</svg>