<?xml version="1.0" encoding="UTF-8"?>
<svg width="20px" height="20px" viewBox="0 0 20 20" version="1.1" xmlns="http://www.w3.org/2000/svg" xmlns:xlink="http://www.w3.org/1999/xlink">
    <title>clothes-hoodie</title>
    <g id="Page-1" stroke="none" stroke-width="1" fill="none" fill-rule="evenodd">
        <g id="clothes-hoodie">
            <rect id="Rectangle" fill-opacity="0.01" fill="#FFFFFF" fill-rule="nonzero" x="0" y="0" width="20" height="20"></rect>
            <path d="M15.4166667,9.16666667 L15.4166667,15.4166667 M4.58333333,15.4166667 L4.58333333,18.3333333 L15.4166667,18.3333333 L15.4166667,15.4166667 M4.58333333,15.4166667 L1.66666667,15.4166667 L1.66666667,9.16666667 C1.66666667,7.91666667 2.5,6.45833333 3.75,5.41666667 C5,4.375 6.66666667,4.16666667 6.66666667,4.16666667 L10,7.5 M4.58333333,15.4166667 L4.58333333,9.16666667 M15.4166667,15.4166667 L18.3333333,15.4166667 L18.3333333,9.16666667 C18.3333333,7.91666667 17.5,6.45833333 16.25,5.41666667 C15,4.375 13.3333333,4.16666667 13.3333333,4.16666667 L10,7.5 M10,7.5 L10,11.25" id="Shape" stroke="#A5B7C0" stroke-linecap="round" stroke-linejoin="round"></path>
            <path d="M3.75,5.41666667 C5,4.375 6.66666667,4.16666667 6.66666667,4.16666667 L10,7.5 L13.3333333,4.16666667 C13.3333333,4.16666667 15,4.375 16.25,5.41666667 L17.0833333,3.54166667 L16.25,1.66666667 L3.75,1.66666667 L2.91666667,3.54166667 L3.75,5.41666667 Z" id="Path" stroke="#A5B7C0" stroke-linecap="round" stroke-linejoin="round"></path>
        </g>
    </g>
</svg>