<?xml version="1.0" encoding="UTF-8"?>
<svg width="20px" height="20px" viewBox="0 0 20 20" version="1.1" xmlns="http://www.w3.org/2000/svg" xmlns:xlink="http://www.w3.org/1999/xlink">
    <title>clothes-gloves-two</title>
    <g id="Page-1" stroke="none" stroke-width="1" fill="none" fill-rule="evenodd">
        <g id="clothes-gloves-two">
            <rect id="Rectangle" fill-opacity="0.01" fill="#FFFFFF" fill-rule="nonzero" x="0" y="0" width="20" height="20"></rect>
            <path d="M14.1666667,9.16666667 L14.1666667,6.25 M14.1666667,6.25 L14.1666667,6.25 C14.1666667,4.29533333 14.1666667,3.31802917 13.6500417,2.6447625 C13.5170417,2.47143333 13.3619167,2.31628333 13.1885833,2.18328333 C12.5152917,1.66666667 11.538,1.66666667 9.58333333,1.66666667 L9.16666667,1.66666667 C6.809625,1.66666667 5.631125,1.66666667 4.89891667,2.3989 C4.16666667,3.13113333 4.16666667,4.309625 4.16666667,6.66666667 L4.16666667,15.8333333 L14.1666667,15.8333333 L14.1666667,13.3333333 C14.1666667,13.3333333 17.0833333,13.3333333 17.0833333,10.8333333 C17.0833333,10 17.0833333,10 17.0833333,8.75 C17.0833333,6.25 14.1666667,6.25 14.1666667,6.25 Z" id="Shape" stroke="#A5B7C0" stroke-linecap="round" stroke-linejoin="round"></path>
            <path d="M3.75,15.8333333 L14.5833333,15.8333333 C15.2737083,15.8333333 15.8333333,16.3929583 15.8333333,17.0833333 C15.8333333,17.7737083 15.2737083,18.3333333 14.5833333,18.3333333 L3.75,18.3333333 C3.05964583,18.3333333 2.5,17.7737083 2.5,17.0833333 C2.5,16.3929583 3.05964583,15.8333333 3.75,15.8333333 Z" id="Path" stroke="#A5B7C0" stroke-linecap="round" stroke-linejoin="round"></path>
        </g>
    </g>
</svg>