<?xml version="1.0" encoding="UTF-8"?>
<svg width="20px" height="20px" viewBox="0 0 20 20" version="1.1" xmlns="http://www.w3.org/2000/svg" xmlns:xlink="http://www.w3.org/1999/xlink">
    <title>clothes-skates</title>
    <g id="Page-1" stroke="none" stroke-width="1" fill="none" fill-rule="evenodd">
        <g id="clothes-skates">
            <rect id="Rectangle" fill-opacity="0.01" fill="#FFFFFF" fill-rule="nonzero" x="0" y="0" width="20" height="20"></rect>
            <path d="M7.5,1.66666667 L3.33333333,1.66666667 C2.54765833,1.66666667 2.15482083,1.66666667 1.91074583,1.91074583 C1.66666667,2.15482083 1.66666667,2.54765833 1.66666667,3.33333333 L1.66666667,16.6666667 C1.66666667,17.4523333 1.66666667,17.8451667 1.91074583,18.08925 C2.15482083,18.3333333 2.54765833,18.3333333 3.33333333,18.3333333 L5,18.3333333 L6.66666667,16.6666667 L8.33333333,18.3333333 L16.6666667,18.3333333 C17.4523333,18.3333333 17.8451667,18.3333333 18.08925,18.08925 C18.3333333,17.8451667 18.3333333,17.4523333 18.3333333,16.6666667 L18.3333333,13.531125 C18.3333333,11.4512083 18.3333333,10.41125 17.71675,9.704875 C17.1001667,8.9985 16.06975,8.858 14.0089167,8.57695833 L13.4910833,8.506375 C11.43025,8.22533333 10.3998333,8.08483333 9.78325,7.37845833 C9.16666667,6.67208333 9.16666667,5.632125 9.16666667,3.5522125 L9.16666667,3.33333333 C9.16666667,2.54765833 9.16666667,2.15482083 8.92258333,1.91074583 C8.6785,1.66666667 8.28566667,1.66666667 7.5,1.66666667 Z" id="Path" stroke="#A5B7C0" stroke-linecap="round" stroke-linejoin="round"></path>
            <line x1="18.3333333" y1="14.1666667" x2="1.66666667" y2="14.1666667" id="Path" stroke="#A5B7C0" stroke-linecap="round" stroke-linejoin="round"></line>
            <line x1="1.66666667" y1="4.79166667" x2="9.16666667" y2="4.79166667" id="Path" stroke="#A5B7C0" stroke-linecap="round" stroke-linejoin="round"></line>
            <circle id="Oval" stroke="#A5B7C0" stroke-linecap="round" stroke-linejoin="round" cx="6.25" cy="9.58333333" r="1.25"></circle>
        </g>
    </g>
</svg>