<?xml version="1.0" encoding="UTF-8"?>
<svg width="20px" height="20px" viewBox="0 0 20 20" version="1.1" xmlns="http://www.w3.org/2000/svg" xmlns:xlink="http://www.w3.org/1999/xlink">
    <title>cloudy</title>
    <g id="Page-1" stroke="none" stroke-width="1" fill="none" fill-rule="evenodd">
        <g id="cloudy">
            <rect id="Rectangle" fill-opacity="0.01" fill="#FFFFFF" fill-rule="nonzero" x="0" y="0" width="20" height="20"></rect>
            <path d="M3.93939583,12.91425 C2.55934167,11.85875 1.66666667,10.17825 1.66666667,8.28545833 C1.66666667,5.09025 4.2105,2.5 7.3485,2.5 C9.97225,2.5 12.1806667,4.31091667 12.8339583,6.77220833 C13.3480417,6.506625 13.9295833,6.35695833 14.5454583,6.35695833 C16.6374583,6.35695833 18.3333333,8.08379167 18.3333333,10.2139583 C18.3333333,11.7955833 17.3984167,13.1548333 16.060625,13.75" id="Path" stroke="#A5B7C0" stroke-linecap="round" stroke-linejoin="round"></path>
            <path d="M10.8333333,17.5 C12.2140417,17.5 13.3333333,16.3807083 13.3333333,15 C13.3333333,13.6192917 12.2140417,12.5 10.8333333,12.5 C9.452625,12.5 8.33333333,13.6192917 8.33333333,15 C8.33333333,16.3807083 9.452625,17.5 10.8333333,17.5 Z" id="Path" stroke="#A5B7C0" stroke-linejoin="round"></path>
            <path d="M9.26775,6.56558333 C8.815375,6.11316667 8.190375,5.83333333 7.5,5.83333333 C6.11929167,5.83333333 5,6.952625 5,8.33333333 C5,9.02370833 5.27983333,9.64870833 5.73225,10.1010833" id="Path" stroke="#A5B7C0" stroke-linecap="round" stroke-linejoin="round"></path>
        </g>
    </g>
</svg>