<?xml version="1.0" encoding="UTF-8"?>
<svg width="20px" height="20px" viewBox="0 0 20 20" version="1.1" xmlns="http://www.w3.org/2000/svg" xmlns:xlink="http://www.w3.org/1999/xlink">
    <title>clue</title>
    <g id="Page-1" stroke="none" stroke-width="1" fill="none" fill-rule="evenodd">
        <g id="clue">
            <rect id="Rectangle" fill-opacity="0.01" fill="#FFFFFF" fill-rule="nonzero" x="0" y="0" width="20" height="20"></rect>
            <path d="M15.4166667,6.66666667 C16.56725,6.66666667 17.5,5.73391667 17.5,4.58333333 C17.5,3.43274167 16.56725,2.5 15.4166667,2.5 C14.2660833,2.5 13.3333333,3.43274167 13.3333333,4.58333333 C13.3333333,5.73391667 14.2660833,6.66666667 15.4166667,6.66666667 Z" id="Path" stroke="#A5B7C0" stroke-linejoin="round"></path>
            <path d="M4.58333333,17.5 C5.73391667,17.5 6.66666667,16.56725 6.66666667,15.4166667 C6.66666667,14.2660833 5.73391667,13.3333333 4.58333333,13.3333333 C3.43274167,13.3333333 2.5,14.2660833 2.5,15.4166667 C2.5,16.56725 3.43274167,17.5 4.58333333,17.5 Z" id="Path" stroke="#A5B7C0" stroke-linejoin="round"></path>
            <path d="M15.4166667,6.66666667 L15.4166667,14.7934167 C15.4166667,16.2882083 14.204875,17.5 12.7100833,17.5 L12.7100833,17.5 C11.21525,17.5 10.0034583,16.2882083 10.0034583,14.7934167 L10.0034583,5.21008333 C10.0034583,3.7133375 8.790125,2.5 7.29341667,2.5 L7.29341667,2.5 C5.79666667,2.5 4.58333333,3.7133375 4.58333333,5.21008333 L4.58333333,13.3333333" id="Path" stroke="#A5B7C0" stroke-linecap="round" stroke-linejoin="round"></path>
        </g>
    </g>
</svg>