<?xml version="1.0" encoding="UTF-8"?>
<svg width="20px" height="20px" viewBox="0 0 20 20" version="1.1" xmlns="http://www.w3.org/2000/svg" xmlns:xlink="http://www.w3.org/1999/xlink">
    <title>code-brackets</title>
    <g id="Page-1" stroke="none" stroke-width="1" fill="none" fill-rule="evenodd">
        <g id="code-brackets">
            <rect id="Rectangle" fill-opacity="0.01" fill="#FFFFFF" fill-rule="nonzero" x="0" y="0" width="20" height="20"></rect>
            <path d="M6.66666667,1.66666667 C5.83333333,1.66666667 4.58333333,2.08333333 4.58333333,3.75 C4.58333333,5.41666667 4.58333333,6.25 4.58333333,7.5 C4.58333333,8.75 2.5,9.58333333 2.5,9.58333333 C2.5,9.58333333 4.58333333,10.4166667 4.58333333,11.6666667 C4.58333333,12.9166667 4.58333333,14.5833333 4.58333333,16.25 C4.58333333,17.9166667 5.83333333,18.3333333 6.66666667,18.3333333" id="Path" stroke="#A5B7C0" stroke-linecap="round" stroke-linejoin="round"></path>
            <path d="M13.3333333,1.66666667 C14.1666667,1.66666667 15.4166667,2.08333333 15.4166667,3.75 C15.4166667,5.41666667 15.4166667,6.25 15.4166667,7.5 C15.4166667,8.75 17.5,9.58333333 17.5,9.58333333 C17.5,9.58333333 15.4166667,10.4166667 15.4166667,11.6666667 C15.4166667,12.9166667 15.4166667,14.5833333 15.4166667,16.25 C15.4166667,17.9166667 14.1666667,18.3333333 13.3333333,18.3333333" id="Path" stroke="#A5B7C0" stroke-linecap="round" stroke-linejoin="round"></path>
        </g>
    </g>
</svg>