<?xml version="1.0" encoding="UTF-8"?>
<svg width="20px" height="20px" viewBox="0 0 20 20" version="1.1" xmlns="http://www.w3.org/2000/svg" xmlns:xlink="http://www.w3.org/1999/xlink">
    <title>color-card</title>
    <g id="Page-1" stroke="none" stroke-width="1" fill="none" fill-rule="evenodd">
        <g id="color-card">
            <rect id="Rectangle" fill-opacity="0.01" fill="#FFFFFF" fill-rule="nonzero" x="0" y="0" width="20" height="20"></rect>
            <path d="M4.16666667,18.3333333 C5.547375,18.3333333 6.66666667,17.2140417 6.66666667,15.8333333 L6.66666667,9.79779167 L6.66666667,1.66666667 L1.66666667,1.66666667 L1.66666667,15.8333333 C1.66666667,17.2140417 2.78595417,18.3333333 4.16666667,18.3333333 Z" id="Path"></path>
            <path d="M4.16666667,18.3333333 C5.547375,18.3333333 6.66666667,17.2140417 6.66666667,15.8333333 L6.66666667,9.79779167 M4.16666667,18.3333333 C2.78595417,18.3333333 1.66666667,17.2140417 1.66666667,15.8333333 L1.66666667,1.66666667 L6.66666667,1.66666667 L6.66666667,9.79779167 M4.16666667,18.3333333 L18.3333333,18.3333333 L18.3333333,13.3333333 L10.2022083,13.3333333 M2.3989,17.6010833 C3.3752125,18.5774167 4.958125,18.5774167 5.93441667,17.6010833 L10.2022083,13.3333333 M6.66666667,9.79779167 L14.5894583,1.875 L14.7855417,1.66666667 L18.3272083,5.20833333 L10.2022083,13.3333333" id="Shape" stroke="#A5B7C0" stroke-linecap="round" stroke-linejoin="round"></path>
            <polyline id="Path" stroke="#A5B7C0" stroke-linecap="round" stroke-linejoin="round" points="5.93445833 17.6010833 18.3272083 5.20833333 14.7855417 1.66666667 6.66666667 9.79779167"></polyline>
            <polyline id="Path" stroke="#A5B7C0" stroke-linecap="round" stroke-linejoin="round" points="10.2022083 13.3333333 18.3333333 13.3333333 18.3333333 18.3333333 5.20829167 18.3333333"></polyline>
            <polyline id="Path" stroke="#A5B7C0" stroke-linecap="round" stroke-linejoin="round" points="10.2022083 13.3333333 18.3333333 13.3333333 18.3333333 18.3333333 5.20833333 18.3333333"></polyline>
            <path d="M4.16666667,18.3333333 C5.547375,18.3333333 6.66666667,17.2140417 6.66666667,15.8333333 L6.66666667,9.79779167 L6.66666667,1.66666667 L1.66666667,1.66666667 L1.66666667,15.8333333 C1.66666667,17.2140417 2.78595417,18.3333333 4.16666667,18.3333333 Z" id="Path" stroke="#A5B7C0" stroke-linecap="round" stroke-linejoin="round"></path>
        </g>
    </g>
</svg>