<?xml version="1.0" encoding="UTF-8"?>
<svg width="20px" height="20px" viewBox="0 0 20 20" version="1.1" xmlns="http://www.w3.org/2000/svg" xmlns:xlink="http://www.w3.org/1999/xlink">
    <title>color-filter</title>
    <g id="Page-1" stroke="none" stroke-width="1" fill="none" fill-rule="evenodd">
        <g id="color-filter">
            <rect id="Rectangle" fill-opacity="0.01" fill="#FFFFFF" fill-rule="nonzero" x="0" y="0" width="20" height="20"></rect>
            <path d="M10,17.060125 C10.8845833,17.851875 12.05275,18.3332917 13.3333333,18.3332917 C16.09475,18.3332917 18.3333333,16.0947083 18.3333333,13.3332917 C18.3333333,11.0035 16.739875,9.045875 14.5833333,8.49079167" id="Path" stroke="#A5B7C0" stroke-linejoin="round"></path>
            <path d="M5.41666667,8.49079167 C3.26013333,9.045875 1.66666667,11.0035 1.66666667,13.3332917 C1.66666667,16.0947083 3.90524167,18.3332917 6.66666667,18.3332917 C9.42808333,18.3332917 11.6666667,16.0947083 11.6666667,13.3332917 C11.6666667,12.6876667 11.5442917,12.0706667 11.3215,11.504125" id="Path" stroke="#A5B7C0" stroke-linejoin="round"></path>
            <path d="M10,11.6666667 C12.7614167,11.6666667 15,9.42808333 15,6.66666667 C15,3.90524167 12.7614167,1.66666667 10,1.66666667 C7.23858333,1.66666667 5,3.90524167 5,6.66666667 C5,9.42808333 7.23858333,11.6666667 10,11.6666667 Z" id="Path" stroke="#A5B7C0" stroke-linejoin="round"></path>
        </g>
    </g>
</svg>