<?xml version="1.0" encoding="UTF-8"?>
<svg width="20px" height="20px" viewBox="0 0 20 20" version="1.1" xmlns="http://www.w3.org/2000/svg" xmlns:xlink="http://www.w3.org/1999/xlink">
    <title>command</title>
    <g id="Page-1" stroke="none" stroke-width="1" fill="none" fill-rule="evenodd">
        <g id="command">
            <rect id="Rectangle" fill-opacity="0.01" fill="#FFFFFF" fill-rule="nonzero" x="0" y="0" width="20" height="20"></rect>
            <path d="M3.93939583,6.212125 C4.37595833,6.212125 5.13354167,6.212125 6.212125,6.212125 C6.212125,5.09720833 6.212125,4.339625 6.212125,3.93939583 C6.212125,2.6842 5.19458333,1.66666667 3.93939583,1.66666667 C2.6842,1.66666667 1.66666667,2.6842 1.66666667,3.93939583 C1.66666667,5.19458333 2.6842,6.212125 3.93939583,6.212125 Z" id="Path" stroke="#A5B7C0" stroke-linejoin="round"></path>
            <path d="M3.93939583,13.787875 L6.212125,13.787875 L6.212125,16.060625 C6.212125,17.3158333 5.19458333,18.3333333 3.93939583,18.3333333 C2.6842,18.3333333 1.66666667,17.3158333 1.66666667,16.060625 C1.66666667,14.8054167 2.6842,13.787875 3.93939583,13.787875 Z" id="Path" stroke="#A5B7C0" stroke-linejoin="round"></path>
            <rect id="Rectangle" stroke="#A5B7C0" stroke-linecap="round" stroke-linejoin="round" x="6.21216667" y="6.212125" width="7.57575" height="7.57575"></rect>
            <path d="M16.0605833,6.212125 L13.7878333,6.212125 L13.7878333,3.93939583 C13.7878333,2.6842 14.805375,1.66666667 16.0605833,1.66666667 C17.31575,1.66666667 18.3332917,2.6842 18.3332917,3.93939583 C18.3332917,5.19458333 17.31575,6.212125 16.0605833,6.212125 Z" id="Path" stroke="#A5B7C0" stroke-linejoin="round"></path>
            <path d="M16.0605833,13.787875 C17.31575,13.787875 18.3332917,14.8054167 18.3332917,16.060625 C18.3332917,17.3158333 17.31575,18.3333333 16.0605833,18.3333333 C14.805375,18.3333333 13.7878333,17.3158333 13.7878333,16.060625 L13.7878333,13.787875 L16.0605833,13.787875 Z" id="Path" stroke="#A5B7C0" stroke-linejoin="round"></path>
        </g>
    </g>
</svg>