<?xml version="1.0" encoding="UTF-8"?>
<svg width="20px" height="20px" viewBox="0 0 20 20" version="1.1" xmlns="http://www.w3.org/2000/svg" xmlns:xlink="http://www.w3.org/1999/xlink">
    <title>composition</title>
    <g id="Page-1" stroke="none" stroke-width="1" fill="none" fill-rule="evenodd">
        <g id="composition">
            <rect id="Rectangle" fill-opacity="0.01" fill="#FFFFFF" fill-rule="nonzero" x="0" y="0" width="20" height="20"></rect>
            <path d="M16.5950417,9.0775 L9.15358333,16.5189583 C7.731,17.9415833 5.39054167,17.9076667 3.9260625,16.4432083 C2.4616,14.97875 2.42767917,12.6382917 3.85030417,11.2156667 L11.29175,3.77420417" id="Path"></path>
            <path d="M16.5950417,9.0775 L9.15358333,16.5189583 C7.731,17.9415833 5.39054167,17.9076667 3.9260625,16.4432083 C2.4616,14.97875 2.42767917,12.6382917 3.85030417,11.2156667 L11.29175,3.77420417" id="Path" stroke="#A5B7C0" stroke-linecap="round"></path>
            <line x1="3.639325" y1="11.426625" x2="14.5326667" y2="11.139875" id="Path" stroke="#A5B7C0" stroke-linecap="round"></line>
            <path d="M12.2470833,8.71125 C12.5725417,8.38579167 12.5725417,7.85816667 12.2470833,7.53275 C11.9216667,7.20729167 11.3940417,7.20729167 11.0685833,7.53275 C10.7431667,7.85816667 10.7431667,8.38579167 11.0685833,8.71125 C11.3940417,9.03666667 11.9216667,9.03666667 12.2470833,8.71125 Z" id="Path" fill="#A5B7C0" fill-rule="nonzero"></path>
            <path d="M9.88991667,9.88983333 C10.215375,9.56441667 10.215375,9.03675 9.88991667,8.71133333 C9.5645,8.385875 9.03683333,8.385875 8.71141667,8.71133333 C8.38595833,9.03675 8.38595833,9.56441667 8.71141667,9.88983333 C9.03683333,10.2152917 9.5645,10.2152917 9.88991667,9.88983333 Z" id="Path" fill="#A5B7C0" fill-rule="nonzero"></path>
            <line x1="9.81854167" y1="2.30107083" x2="18.0680833" y2="10.5506667" id="Path" stroke="#A5B7C0" stroke-linecap="round"></line>
        </g>
    </g>
</svg>