<?xml version="1.0" encoding="UTF-8"?>
<svg width="20px" height="20px" viewBox="0 0 20 20" version="1.1" xmlns="http://www.w3.org/2000/svg" xmlns:xlink="http://www.w3.org/1999/xlink">
    <title>concern</title>
    <g id="Page-1" stroke="none" stroke-width="1" fill="none" fill-rule="evenodd">
        <g id="concern">
            <rect id="Rectangle" fill-opacity="0.01" fill="#FFFFFF" fill-rule="nonzero" x="0" y="0" width="20" height="20"></rect>
            <path d="M4.524125,4.1074625 C3.016075,5.6155 2.08333333,7.69883333 2.08333333,10 C2.08333333,12.3012083 3.016075,14.3845417 4.524125,15.8925833" id="Path" stroke="#A5B7C0" stroke-linecap="round"></path>
            <path d="M16.3092083,15.8925833 C17.81725,14.3845417 18.75,12.3012083 18.75,10 C18.75,7.69883333 17.81725,5.6155 16.3092083,4.1074625" id="Path" stroke="#A5B7C0" stroke-linecap="round"></path>
            <path d="M14.5414167,14.1248333 C15.5970417,13.0692083 16.2499583,11.610875 16.2499583,10.0000417 C16.2499583,8.38920833 15.5970417,6.930875 14.5414167,5.87525" id="Path" stroke="#A5B7C0" stroke-linecap="round"></path>
            <path d="M6.291875,5.87525 C5.23625,6.930875 4.58333333,8.38920833 4.58333333,10.0000417 C4.58333333,11.610875 5.23625,13.0692083 6.291875,14.1248333" id="Path" stroke="#A5B7C0" stroke-linecap="round"></path>
            <path d="M11.7424167,8.33333333 C12.6210417,8.33333333 13.3333333,9.00491667 13.3333333,9.83333333 C13.3333333,10.91175 12.2727083,11.8333333 11.7424167,12.3333333 C11.388875,12.6666667 10.9469583,13 10.4166667,13.3333333 C9.886375,13 9.44445833,12.6666667 9.09091667,12.3333333 C8.560625,11.8333333 7.5,10.91175 7.5,9.83333333 C7.5,9.00491667 8.21229167,8.33333333 9.09091667,8.33333333 C9.64429167,8.33333333 10.1316667,8.59970833 10.4166667,9.003875 C10.7016667,8.59970833 11.1890417,8.33333333 11.7424167,8.33333333 Z" id="Path" stroke="#A5B7C0" stroke-linejoin="round"></path>
        </g>
    </g>
</svg>