<?xml version="1.0" encoding="UTF-8"?>
<svg width="20px" height="20px" viewBox="0 0 20 20" version="1.1" xmlns="http://www.w3.org/2000/svg" xmlns:xlink="http://www.w3.org/1999/xlink">
    <title>connection-box</title>
    <g id="Page-1" stroke="none" stroke-width="1" fill="none" fill-rule="evenodd">
        <g id="connection-box">
            <rect id="Rectangle" fill-opacity="0.01" fill="#FFFFFF" fill-rule="nonzero" x="0" y="0" width="20" height="20"></rect>
            <path d="M17.9166667,1.66666667 L2.08333333,1.66666667 C1.85321667,1.66666667 1.66666667,1.870175 1.66666667,2.1212125 L1.66666667,6.212125 C1.66666667,6.46316667 1.85321667,6.66666667 2.08333333,6.66666667 L17.9166667,6.66666667 C18.1467917,6.66666667 18.3333333,6.46316667 18.3333333,6.212125 L18.3333333,2.1212125 C18.3333333,1.870175 18.1467917,1.66666667 17.9166667,1.66666667 Z" id="Path" stroke="#A5B7C0" stroke-linejoin="round"></path>
            <path d="M17.9166667,13.3333333 L2.08333333,13.3333333 C1.85321667,13.3333333 1.66666667,13.5368333 1.66666667,13.787875 L1.66666667,17.8787917 C1.66666667,18.1298333 1.85321667,18.3333333 2.08333333,18.3333333 L17.9166667,18.3333333 C18.1467917,18.3333333 18.3333333,18.1298333 18.3333333,17.8787917 L18.3333333,13.787875 C18.3333333,13.5368333 18.1467917,13.3333333 17.9166667,13.3333333 Z" id="Path" stroke="#A5B7C0" stroke-linejoin="round"></path>
            <polyline id="Path" stroke="#A5B7C0" stroke-linecap="round" stroke-linejoin="round" points="5.83333333 6.66666667 5.83333333 10.0034583 14.1666667 10.0071667 14.1666667 13.3333333"></polyline>
            <line x1="7.5" y1="15.8333333" x2="12.5" y2="15.8333333" id="Path" stroke="#A5B7C0" stroke-linecap="round" stroke-linejoin="round"></line>
            <line x1="7.5" y1="4.16666667" x2="12.5" y2="4.16666667" id="Path" stroke="#A5B7C0" stroke-linecap="round" stroke-linejoin="round"></line>
        </g>
    </g>
</svg>