<?xml version="1.0" encoding="UTF-8"?>
<svg width="20px" height="20px" viewBox="0 0 20 20" version="1.1" xmlns="http://www.w3.org/2000/svg" xmlns:xlink="http://www.w3.org/1999/xlink">
    <title>copy-link</title>
    <g id="Page-1" stroke="none" stroke-width="1" fill="none" fill-rule="evenodd">
        <g id="copy-link">
            <polygon id="Path" fill-opacity="0.01" fill="#FFFFFF" fill-rule="nonzero" points="0 0 20 0 20 20 0 20"></polygon>
            <g id="Group">
                <g>
                    <rect id="Rectangle" fill-opacity="0.01" fill="#FFFFFF" fill-rule="nonzero" x="0" y="0" width="20" height="20"></rect>
                    <path d="M5,4.13626667 L5,2.91666667 C5,2.2263125 5.559625,1.66666667 6.25,1.66666667 L17.0833333,1.66666667 C17.7737083,1.66666667 18.3333333,2.2263125 18.3333333,2.91666667 L18.3333333,13.75 C18.3333333,14.440375 17.7737083,15 17.0833333,15 L15.8405833,15" id="Path" stroke="#A5B7C0"></path>
                    <rect id="Rectangle" stroke="#A5B7C0" stroke-linejoin="round" x="1.66666667" y="4.16666667" width="14.1666667" height="14.1666667" rx="1.5"></rect>
                </g>
                <g transform="translate(4.166667, 6.666667)" id="Path" stroke="#A5B7C0" stroke-linecap="round" stroke-linejoin="round">
                    <path d="M3.5165,2.96241667 L5.72170833,0.666791667 C6.32658333,0.0619166667 7.32054167,0.07525 7.94183333,0.696541667 C8.563125,1.31783333 8.57645833,2.31179167 7.971625,2.91666667 L7.17575,3.7595"></path>
                    <path d="M1.44420833,5.31120833 C1.23158333,5.523875 0.791916667,5.94841667 0.791916667,5.94841667 C0.187041667,6.55329167 0.170625,7.63133333 0.791916667,8.252625 C1.41320833,8.87391667 2.40716667,8.88725 3.01204167,8.282375 L5.16379167,6.32891667"></path>
                    <path d="M3.609625,5.13679167 C3.32104167,4.84820833 3.163625,4.47920833 3.138375,4.106125 C3.10933333,3.67604167 3.25595833,3.24058333 3.57983333,2.91666667"></path>
                    <path d="M5.13408333,4.10879167 C5.755375,4.73008333 5.76870833,5.72404167 5.16383333,6.32891667"></path>
                </g>
            </g>
        </g>
    </g>
</svg>