<?xml version="1.0" encoding="UTF-8"?>
<svg width="20px" height="20px" viewBox="0 0 20 20" version="1.1" xmlns="http://www.w3.org/2000/svg" xmlns:xlink="http://www.w3.org/1999/xlink">
    <title>court</title>
    <g id="Page-1" stroke="none" stroke-width="1" fill="none" fill-rule="evenodd">
        <g id="court">
            <rect id="Rectangle" fill-opacity="0.01" fill="#FFFFFF" fill-rule="nonzero" x="0" y="0" width="20" height="20"></rect>
            <path d="M10,15 L18.3333333,15 L18.3333333,5 L1.66666667,5 L1.66666667,15 L10,15 Z M10,15 L10,11.6666667 M10,5 L10,8.33333333" id="Shape" stroke="#A5B7C0" stroke-linecap="round" stroke-linejoin="round"></path>
            <circle id="Oval" stroke="#A5B7C0" stroke-linecap="round" stroke-linejoin="round" cx="10" cy="10" r="1.66666667"></circle>
            <path d="M4.58333333,10 C4.58333333,10.9204583 3.83714167,11.6666667 2.91666667,11.6666667 L1.66666667,11.6666667 L1.66666667,8.33333333 L2.91666667,8.33333333 C3.83714167,8.33333333 4.58333333,9.07954167 4.58333333,10 Z" id="Path" stroke="#A5B7C0" stroke-linecap="round" stroke-linejoin="round"></path>
            <path d="M15.4166667,10 C15.4166667,10.9204583 16.162875,11.6666667 17.0833333,11.6666667 L18.3333333,11.6666667 L18.3333333,8.33333333 L17.0833333,8.33333333 C16.162875,8.33333333 15.4166667,9.07954167 15.4166667,10 Z" id="Path" stroke="#A5B7C0" stroke-linecap="round" stroke-linejoin="round"></path>
        </g>
    </g>
</svg>