<?xml version="1.0" encoding="UTF-8"?>
<svg width="20px" height="20px" viewBox="0 0 20 20" version="1.1" xmlns="http://www.w3.org/2000/svg" xmlns:xlink="http://www.w3.org/1999/xlink">
    <title>cup</title>
    <g id="Page-1" stroke="none" stroke-width="1" fill="none" fill-rule="evenodd">
        <g id="cup">
            <rect id="Rectangle" fill-opacity="0.01" fill="#FFFFFF" fill-rule="nonzero" x="0" y="0" width="20" height="20"></rect>
            <path d="M3.33333333,7.08833333 C3.33333333,6.85545833 3.52212917,6.66666667 3.75502083,6.66666667 L13.745,6.66666667 C13.977875,6.66666667 14.1666667,6.85545833 14.1666667,7.08833333 L14.1666667,12.9166667 C14.1666667,15.9082083 11.7415417,18.3333333 8.75,18.3333333 L8.75,18.3333333 C5.75845833,18.3333333 3.33333333,15.9082083 3.33333333,12.9166667 L3.33333333,7.08833333 Z" id="Path" stroke="#A5B7C0"></path>
            <rect id="Rectangle" stroke="#A5B7C0" stroke-linecap="round" stroke-linejoin="round" x="3.33333333" y="9.58333333" width="10.8333333" height="3.33333333"></rect>
            <line x1="8.75" y1="1.66666667" x2="8.75" y2="4.16666667" id="Path" stroke="#A5B7C0" stroke-linecap="round" stroke-linejoin="round"></line>
            <line x1="5.41666667" y1="2.5" x2="5.41666667" y2="3.33333333" id="Path" stroke="#A5B7C0" stroke-linecap="round" stroke-linejoin="round"></line>
            <line x1="12.0833333" y1="2.5" x2="12.0833333" y2="3.33333333" id="Path" stroke="#A5B7C0" stroke-linecap="round" stroke-linejoin="round"></line>
            <path d="M14.1666667,14.1666667 C15.7775,14.1666667 17.0833333,12.8608333 17.0833333,11.25 C17.0833333,9.63916667 15.7775,8.33333333 14.1666667,8.33333333" id="Path" stroke="#A5B7C0" stroke-linecap="round"></path>
        </g>
    </g>
</svg>