<?xml version="1.0" encoding="UTF-8"?>
<svg width="20px" height="20px" viewBox="0 0 20 20" version="1.1" xmlns="http://www.w3.org/2000/svg" xmlns:xlink="http://www.w3.org/1999/xlink">
    <title>cycle-movement</title>
    <g id="Page-1" stroke="none" stroke-width="1" fill="none" fill-rule="evenodd">
        <g id="cycle-movement">
            <rect id="Rectangle" fill-opacity="0.01" fill="#FFFFFF" fill-rule="nonzero" x="0" y="0" width="20" height="20"></rect>
            <polyline id="Path" stroke="#A5B7C0" stroke-linecap="round" stroke-linejoin="round" points="8.33333333 6.25 10 7.91666667 11.6666667 6.25"></polyline>
            <path d="M10,7.91666667 L10,3.33333333 C10,2.41285833 10.7462083,1.66666667 11.6666667,1.66666667 L16.6666667,1.66666667 C17.587125,1.66666667 18.3333333,2.41285833 18.3333333,3.33333333 L18.3333333,7.91666667" id="Path" stroke="#A5B7C0" stroke-linecap="round" stroke-linejoin="round"></path>
            <polyline id="Path" stroke="#A5B7C0" stroke-linecap="round" stroke-linejoin="round" points="11.6666667 13.75 10 12.0833333 8.33333333 13.75"></polyline>
            <path d="M10,12.0833333 L10,16.6666667 C10,17.587125 9.25379167,18.3333333 8.33333333,18.3333333 L3.33333333,18.3333333 C2.41285833,18.3333333 1.66666667,17.587125 1.66666667,16.6666667 L1.66666667,12.0833333" id="Path" stroke="#A5B7C0" stroke-linecap="round" stroke-linejoin="round"></path>
            <polyline id="Path" stroke="#A5B7C0" stroke-linecap="round" stroke-linejoin="round" points="13.75 8.33333333 12.0833333 10 13.75 11.6666667"></polyline>
            <path d="M12.0833333,10 L16.6666667,10 C17.587125,10 18.3333333,10.7462083 18.3333333,11.6666667 L18.3333333,16.6666667 C18.3333333,17.587125 17.587125,18.3333333 16.6666667,18.3333333 L12.0833333,18.3333333" id="Path" stroke="#A5B7C0" stroke-linecap="round" stroke-linejoin="round"></path>
            <polyline id="Path" stroke="#A5B7C0" stroke-linecap="round" stroke-linejoin="round" points="6.25 11.6666667 7.91666667 10 6.25 8.33333333"></polyline>
            <path d="M7.91666667,10 L3.33333333,10 C2.41285833,10 1.66666667,9.25379167 1.66666667,8.33333333 L1.66666667,3.33333333 C1.66666667,2.41285833 2.41285833,1.66666667 3.33333333,1.66666667 L7.91666667,1.66666667" id="Path" stroke="#A5B7C0" stroke-linecap="round" stroke-linejoin="round"></path>
        </g>
    </g>
</svg>