<?xml version="1.0" encoding="UTF-8"?>
<svg width="20px" height="20px" viewBox="0 0 20 20" version="1.1" xmlns="http://www.w3.org/2000/svg" xmlns:xlink="http://www.w3.org/1999/xlink">
    <title>cycle</title>
    <g id="Page-1" stroke="none" stroke-width="1" fill="none" fill-rule="evenodd">
        <g id="cycle">
            <rect id="Rectangle" fill-opacity="0.01" fill="#FFFFFF" fill-rule="nonzero" x="0" y="0" width="20" height="20"></rect>
            <polyline id="Path" stroke="#A5B7C0" stroke-linecap="round" stroke-linejoin="round" points="5.41666667 14.5833333 2.91666667 14.5833333 2.91666667 17.0833333"></polyline>
            <polyline id="Path" stroke="#A5B7C0" stroke-linecap="round" stroke-linejoin="round" points="17.0833333 17.0833333 14.5833333 17.0833333 14.5833333 14.5833333"></polyline>
            <polyline id="Path" stroke="#A5B7C0" stroke-linecap="round" stroke-linejoin="round" points="14.5833333 5.41666667 17.0833333 5.41666667 17.0833333 2.91666667"></polyline>
            <polyline id="Path" stroke="#A5B7C0" stroke-linecap="round" stroke-linejoin="round" points="2.91666667 2.91666667 5.41666667 2.91666667 5.41666667 5.41666667"></polyline>
            <path d="M5.41666667,3.0391875 C3.15740833,4.52979167 1.66666667,7.09079167 1.66666667,10 C1.66666667,10.4248333 1.69845833,10.84225 1.75979167,11.25" id="Path" stroke="#A5B7C0" stroke-linecap="round" stroke-linejoin="round"></path>
            <path d="M11.2499583,18.2402083 C10.8422083,18.3015417 10.4247917,18.3333333 9.99995833,18.3333333 C7.09075,18.3333333 4.52975,16.8425833 3.03914583,14.5833333" id="Path" stroke="#A5B7C0" stroke-linecap="round" stroke-linejoin="round"></path>
            <path d="M18.2402083,8.75 C18.3015417,9.15775 18.3333333,9.57516667 18.3333333,10 C18.3333333,12.9092083 16.8425833,15.4702083 14.5833333,16.9608333" id="Path" stroke="#A5B7C0" stroke-linecap="round" stroke-linejoin="round"></path>
            <path d="M8.75,1.75979167 C9.15775,1.69845833 9.57516667,1.66666667 10,1.66666667 C12.9092083,1.66666667 15.4702083,3.15740833 16.9608333,5.41666667" id="Path" stroke="#A5B7C0" stroke-linecap="round" stroke-linejoin="round"></path>
        </g>
    </g>
</svg>