<?xml version="1.0" encoding="UTF-8"?>
<svg width="20px" height="20px" viewBox="0 0 20 20" version="1.1" xmlns="http://www.w3.org/2000/svg" xmlns:xlink="http://www.w3.org/1999/xlink">
    <title>dashboard-two</title>
    <g id="Page-1" stroke="none" stroke-width="1" fill="none" fill-rule="evenodd">
        <g id="dashboard-two">
            <rect id="Rectangle" fill-opacity="0.01" fill="#FFFFFF" fill-rule="nonzero" x="0" y="0" width="20" height="20"></rect>
            <path d="M18.3333333,10 C18.3333333,14.602375 14.602375,18.3333333 10,18.3333333 C5.397625,18.3333333 1.66666667,14.602375 1.66666667,10 M18.3333333,10 L16.6666667,10 M18.3333333,10 C18.3333333,7.7015 17.40275,5.62029167 15.8977917,4.1126875 M1.66666667,10 L3.33333333,10 M1.66666667,10 C1.66666667,7.70145833 2.59724583,5.62029167 4.10220417,4.1126875 M10,1.66666667 L10,3.33333333 M10,1.66666667 C12.3038333,1.66666667 14.3893333,2.60157083 15.8977917,4.1126875 M10,1.66666667 C7.69616667,1.66666667 5.61066667,2.60157083 4.10220417,4.1126875 M15.8977917,4.1126875 L14.5938333,5.41666667 M4.10220417,4.1126875 L5.40616667,5.41666667" id="Shape" stroke="#A5B7C0" stroke-linecap="round" stroke-linejoin="round"></path>
            <line x1="10" y1="8.33333333" x2="10" y2="13.3333333" id="Path" stroke="#A5B7C0" stroke-linecap="round" stroke-linejoin="round"></line>
            <path d="M16.605125,15.0817083 C15.0814167,17.05925 12.6895,18.3333333 10,18.3333333 C7.3105,18.3333333 4.91858333,17.05925 3.39487917,15.0817083 C5.34204167,13.969125 7.59679167,13.3333333 10,13.3333333 C12.4032083,13.3333333 14.6579167,13.969125 16.605125,15.0817083 Z" id="Path" stroke="#A5B7C0" stroke-linecap="round" stroke-linejoin="round"></path>
        </g>
    </g>
</svg>