<?xml version="1.0" encoding="UTF-8"?>
<svg width="20px" height="20px" viewBox="0 0 20 20" version="1.1" xmlns="http://www.w3.org/2000/svg" xmlns:xlink="http://www.w3.org/1999/xlink">
    <title>dashboard-car</title>
    <g id="Page-1" stroke="none" stroke-width="1" fill="none" fill-rule="evenodd">
        <g id="dashboard-car">
            <rect id="Rectangle" fill-opacity="0.01" fill="#FFFFFF" fill-rule="nonzero" x="0" y="0" width="20" height="20"></rect>
            <path d="M2.738325,15.595 C1.5438625,14.047 0.833333333,12.1065 0.833333333,10 C0.833333333,4.937375 4.937375,0.833333333 10,0.833333333 C15.062625,0.833333333 19.1666667,4.937375 19.1666667,10 C19.1666667,12.1065 18.456125,14.047 17.2616667,15.595" id="Path" stroke="#A5B7C0" stroke-linecap="round" stroke-linejoin="round"></path>
            <path d="M5.12645833,13.206875 C4.51975,12.2867083 4.16666667,11.1845833 4.16666667,10 C4.16666667,6.77833333 6.77833333,4.16666667 10,4.16666667 C13.2216667,4.16666667 15.8333333,6.77833333 15.8333333,10 C15.8333333,11.1845833 15.48025,12.2867083 14.8735417,13.206875" id="Path" stroke="#A5B7C0" stroke-linecap="round" stroke-linejoin="round"></path>
            <polygon id="Path" stroke="#A5B7C0" stroke-linecap="round" stroke-linejoin="round" points="10 12.5 16.6666667 19.1666667 3.33333333 19.1666667"></polygon>
        </g>
    </g>
</svg>