<?xml version="1.0" encoding="UTF-8"?>
<svg width="20px" height="20px" viewBox="0 0 20 20" version="1.1" xmlns="http://www.w3.org/2000/svg" xmlns:xlink="http://www.w3.org/1999/xlink">
    <title>data-server</title>
    <g id="Page-1" stroke="none" stroke-width="1" fill="none" fill-rule="evenodd">
        <g id="data-server">
            <rect id="Rectangle" fill-opacity="0.01" fill="#FFFFFF" fill-rule="nonzero" x="0" y="0" width="20" height="20"></rect>
            <path d="M17.0833333,1.66666667 L2.91666667,1.66666667 C2.2263125,1.66666667 1.66666667,2.2263125 1.66666667,2.91666667 L1.66666667,17.0833333 C1.66666667,17.7737083 2.2263125,18.3333333 2.91666667,18.3333333 L17.0833333,18.3333333 C17.7737083,18.3333333 18.3333333,17.7737083 18.3333333,17.0833333 L18.3333333,2.91666667 C18.3333333,2.2263125 17.7737083,1.66666667 17.0833333,1.66666667 Z" id="Path" stroke="#A5B7C0" stroke-linecap="round" stroke-linejoin="round"></path>
            <line x1="1.66666667" y1="13.3333333" x2="18.3333333" y2="13.3333333" id="Path" stroke="#A5B7C0" stroke-linecap="round"></line>
            <line x1="4.16666667" y1="15.8333333" x2="4.58333333" y2="15.8333333" id="Path" stroke="#A5B7C0" stroke-linecap="round" stroke-linejoin="round"></line>
            <line x1="10.8333333" y1="15.8333333" x2="15.8333333" y2="15.8333333" id="Path" stroke="#A5B7C0" stroke-linecap="round" stroke-linejoin="round"></line>
            <line x1="18.3333333" y1="15.4166667" x2="18.3333333" y2="11.25" id="Path" stroke="#A5B7C0" stroke-linecap="round" stroke-linejoin="round"></line>
            <line x1="1.66666667" y1="15.4166667" x2="1.66666667" y2="11.25" id="Path" stroke="#A5B7C0" stroke-linecap="round" stroke-linejoin="round"></line>
        </g>
    </g>
</svg>