<?xml version="1.0" encoding="UTF-8"?>
<svg width="20px" height="20px" viewBox="0 0 20 20" version="1.1" xmlns="http://www.w3.org/2000/svg" xmlns:xlink="http://www.w3.org/1999/xlink">
    <title>database-search</title>
    <g id="Page-1" stroke="none" stroke-width="1" fill="none" fill-rule="evenodd">
        <g id="database-search">
            <rect id="Rectangle" fill-opacity="0.01" fill="#FFFFFF" fill-rule="nonzero" x="0" y="0" width="20" height="20"></rect>
            <path d="M14.1666667,5 L14.1666667,8.33333333 L14.1666667,8.75 C12.935375,8.75 11.8288333,9.28408333 11.0660417,10.13325 C10.40325,10.8710833 10,11.8467917 10,12.9166667 C10,13.157875 10.0205,13.3942917 10.0598333,13.6242917 C10.274125,14.8769167 11.047625,15.9387083 12.1142083,16.5435833 C11.0048333,16.879 9.53233333,17.0833333 7.91666667,17.0833333 C4.464875,17.0833333 1.66666667,16.1505833 1.66666667,15 L1.66666667,11.6666667 L1.66666667,8.33333333 L1.66666667,5" id="Path" stroke="#A5B7C0" stroke-linecap="round" stroke-linejoin="round"></path>
            <path d="M18.3333333,12.9166667 C18.3333333,15.2178333 16.4678333,17.0833333 14.1666667,17.0833333 C13.4204583,17.0833333 12.7200417,16.8871667 12.1142083,16.5435833 C11.047625,15.9387083 10.274125,14.8769167 10.0598333,13.6242917 C10.0205,13.3942917 10,13.157875 10,12.9166667 C10,11.8467917 10.40325,10.8710833 11.0660417,10.13325 C11.8288333,9.28408333 12.935375,8.75 14.1666667,8.75 C16.4678333,8.75 18.3333333,10.6155 18.3333333,12.9166667 Z" id="Path" stroke="#A5B7C0" stroke-linecap="round" stroke-linejoin="round"></path>
            <path d="M14.1666667,5 C14.1666667,6.15058333 11.3684583,7.08333333 7.91666667,7.08333333 C4.464875,7.08333333 1.66666667,6.15058333 1.66666667,5 C1.66666667,3.84940833 4.464875,2.91666667 7.91666667,2.91666667 C11.3684583,2.91666667 14.1666667,3.84940833 14.1666667,5 Z" id="Path" stroke="#A5B7C0" stroke-linecap="round" stroke-linejoin="round"></path>
            <path d="M1.66666667,11.6666667 C1.66666667,12.81725 4.464875,13.75 7.91666667,13.75 C8.66958333,13.75 9.391375,13.705625 10.0598333,13.6242917" id="Path" stroke="#A5B7C0" stroke-linecap="round" stroke-linejoin="round"></path>
            <path d="M1.66666667,8.33333333 C1.66666667,9.48391667 4.464875,10.4166667 7.91666667,10.4166667 C9.065125,10.4166667 10.14125,10.3134167 11.0660417,10.13325" id="Path" stroke="#A5B7C0" stroke-linecap="round" stroke-linejoin="round"></path>
            <line x1="15.3451667" y1="14.0951667" x2="17.0832917" y2="15.8332917" id="Path" stroke="#A5B7C0" stroke-linecap="round" stroke-linejoin="round"></line>
            <path d="M15.8333333,12.9166667 C15.8333333,13.3769167 15.6467917,13.7935833 15.3451667,14.0951667 C15.0435833,14.3967917 14.6269167,14.5833333 14.1666667,14.5833333 C13.2462083,14.5833333 12.5,13.837125 12.5,12.9166667 C12.5,11.9962083 13.2462083,11.25 14.1666667,11.25 C15.087125,11.25 15.8333333,11.9962083 15.8333333,12.9166667 Z" id="Path" stroke="#A5B7C0" stroke-linecap="round" stroke-linejoin="round"></path>
        </g>
    </g>
</svg>