<?xml version="1.0" encoding="UTF-8"?>
<svg width="20px" height="20px" viewBox="0 0 20 20" version="1.1" xmlns="http://www.w3.org/2000/svg" xmlns:xlink="http://www.w3.org/1999/xlink">
    <title>data</title>
    <g id="Page-1" stroke="none" stroke-width="1" fill="none" fill-rule="evenodd">
        <g id="data">
            <rect id="Rectangle" fill-opacity="0.01" fill="#FFFFFF" fill-rule="nonzero" x="0" y="0" width="20" height="20"></rect>
            <path d="M18.333375,4.58333333 C18.333375,4.58333333 18.333375,15.0259583 18.333375,15.8333333 C18.333375,17.2140417 14.602375,18.3333333 10,18.3333333 C5.397625,18.3333333 1.66666667,17.2140417 1.66666667,15.8333333 C1.66666667,15.0592917 1.66666667,4.58333333 1.66666667,4.58333333" id="Path" stroke="#A5B7C0" stroke-linecap="round" stroke-linejoin="round"></path>
            <path d="M18.3333333,12.0833333 C18.3333333,13.4640417 14.602375,14.5833333 10,14.5833333 C5.397625,14.5833333 1.66666667,13.4640417 1.66666667,12.0833333" id="Path" stroke="#A5B7C0" stroke-linecap="round" stroke-linejoin="round"></path>
            <path d="M18.3333333,8.33333333 C18.3333333,9.71404167 14.602375,10.8333333 10,10.8333333 C5.397625,10.8333333 1.66666667,9.71404167 1.66666667,8.33333333" id="Path" stroke="#A5B7C0" stroke-linecap="round" stroke-linejoin="round"></path>
            <ellipse id="Oval" stroke="#A5B7C0" stroke-linecap="round" stroke-linejoin="round" cx="10" cy="4.16666667" rx="8.33333333" ry="2.5"></ellipse>
        </g>
    </g>
</svg>