<?xml version="1.0" encoding="UTF-8"?>
<svg width="20px" height="20px" viewBox="0 0 20 20" version="1.1" xmlns="http://www.w3.org/2000/svg" xmlns:xlink="http://www.w3.org/1999/xlink">
    <title>database-network-point</title>
    <g id="Page-1" stroke="none" stroke-width="1" fill="none" fill-rule="evenodd">
        <g id="database-network-point">
            <rect id="Rectangle" fill-opacity="0.01" fill="#FFFFFF" fill-rule="nonzero" x="0" y="0" width="20" height="20"></rect>
            <line x1="10" y1="15" x2="10" y2="12.5" id="Path" stroke="#A5B7C0" stroke-linecap="round" stroke-linejoin="round"></line>
            <line x1="8.33333333" y1="16.6666667" x2="2.5" y2="16.6666667" id="Path" stroke="#A5B7C0" stroke-linecap="round" stroke-linejoin="round"></line>
            <line x1="11.6666667" y1="16.6666667" x2="17.5" y2="16.6666667" id="Path" stroke="#A5B7C0" stroke-linecap="round" stroke-linejoin="round"></line>
            <path d="M11.6666667,16.6666667 C11.6666667,17.587125 10.9204583,18.3333333 10,18.3333333 C9.07954167,18.3333333 8.33333333,17.587125 8.33333333,16.6666667 C8.33333333,15.7462083 9.07954167,15 10,15 C10.9204583,15 11.6666667,15.7462083 11.6666667,16.6666667 Z" id="Path" stroke="#A5B7C0" stroke-linecap="round" stroke-linejoin="round"></path>
            <path d="M15.4166667,7.08333333 C15.4166667,10.074875 12.9915417,12.5 10,12.5 C7.00845833,12.5 4.58333333,10.074875 4.58333333,7.08333333 M15.4166667,7.08333333 C15.4166667,4.09179167 12.9915417,1.66666667 10,1.66666667 C7.00845833,1.66666667 4.58333333,4.09179167 4.58333333,7.08333333 M15.4166667,7.08333333 L4.58333333,7.08333333" id="Shape" stroke="#A5B7C0" stroke-linecap="round" stroke-linejoin="round"></path>
            <path d="M12.0833333,7.08333333 C12.0833333,10.074875 11.1505833,12.5 10,12.5 C8.84941667,12.5 7.91666667,10.074875 7.91666667,7.08333333 C7.91666667,4.09179167 8.84941667,1.66666667 10,1.66666667 C11.1505833,1.66666667 12.0833333,4.09179167 12.0833333,7.08333333 Z" id="Path" stroke="#A5B7C0" stroke-linecap="round" stroke-linejoin="round"></path>
            <line x1="15.4166667" y1="7.08333333" x2="4.58333333" y2="7.08333333" id="Path" stroke="#A5B7C0" stroke-linecap="round" stroke-linejoin="round"></line>
        </g>
    </g>
</svg>