<?xml version="1.0" encoding="UTF-8"?>
<svg width="20px" height="20px" viewBox="0 0 20 20" version="1.1" xmlns="http://www.w3.org/2000/svg" xmlns:xlink="http://www.w3.org/1999/xlink">
    <title>deeplink</title>
    <g id="Page-1" stroke="none" stroke-width="1" fill="none" fill-rule="evenodd">
        <g id="deeplink">
            <rect id="Rectangle" fill-opacity="0.01" fill="#FFFFFF" fill-rule="nonzero" x="0" y="0" width="20" height="20"></rect>
            <path d="M8.75,14.580375 C8.75,14.9194583 8.75,15.19625 8.75,15.4107083 C8.75,15.77975 8.75,16.3333333 8.75,17.0714167 C8.75,17.308125 8.57383333,17.5 8.3565,17.5 L2.06018333,17.5 C1.84285,17.5 1.66666667,17.308125 1.66666667,17.0714167 L1.66666667,2.92857083 C1.66666667,2.69187917 1.84285,2.5 2.06018333,2.5 L8.3565,2.5 C8.57383333,2.5 8.75,2.69187917 8.75,2.92857083 C8.75,3.66666667 8.75,4.22025 8.75,4.58929167 C8.75,4.80375 8.75,5.08054167 8.75,5.419625" id="Path" stroke="#A5B7C0" stroke-linecap="round"></path>
            <path d="M11.25,5.419625 C11.25,5.08054167 11.25,4.80375 11.25,4.58929167 C11.25,4.22025 11.25,3.66666667 11.25,2.92857083 C11.25,2.69187917 11.4261667,2.5 11.6435,2.5 L17.9398333,2.5 C18.1571667,2.5 18.3333333,2.69187917 18.3333333,2.92857083 L18.3333333,17.0714167 C18.3333333,17.308125 18.1571667,17.5 17.9398333,17.5 L11.6435,17.5 C11.4261667,17.5 11.25,17.308125 11.25,17.0714167 C11.25,16.3333333 11.25,15.77975 11.25,15.4107083 C11.25,15.19625 11.25,14.9194583 11.25,14.580375" id="Path" stroke="#A5B7C0" stroke-linecap="round"></path>
            <path d="M5.20833333,15.8333333 C5.66858333,15.8333333 6.04166667,15.46025 6.04166667,15 C6.04166667,14.53975 5.66858333,14.1666667 5.20833333,14.1666667 C4.74808333,14.1666667 4.375,14.53975 4.375,15 C4.375,15.46025 4.74808333,15.8333333 5.20833333,15.8333333 Z" id="Path" fill="#A5B7C0" fill-rule="nonzero"></path>
            <path d="M14.7916667,15.8333333 C15.2519167,15.8333333 15.625,15.46025 15.625,15 C15.625,14.53975 15.2519167,14.1666667 14.7916667,14.1666667 C14.3314167,14.1666667 13.9583333,14.53975 13.9583333,15 C13.9583333,15.46025 14.3314167,15.8333333 14.7916667,15.8333333 Z" id="Path" fill="#A5B7C0" fill-rule="nonzero"></path>
            <line x1="6.66666667" y1="9.79166667" x2="13.3333333" y2="9.79166667" id="Path" stroke="#A5B7C0" stroke-linecap="round"></line>
            <polyline id="Path" stroke="#A5B7C0" stroke-linecap="round" stroke-linejoin="round" points="11.342875 11.780375 12.0057917 11.1175 13.331625 9.79166667 12.0057917 8.46583333 11.342875 7.80291667"></polyline>
        </g>
    </g>
</svg>