<?xml version="1.0" encoding="UTF-8"?>
<svg width="20px" height="20px" viewBox="0 0 20 20" version="1.1" xmlns="http://www.w3.org/2000/svg" xmlns:xlink="http://www.w3.org/1999/xlink">
    <title>dislike-two</title>
    <g id="Page-1" stroke="none" stroke-width="1" fill="none" fill-rule="evenodd">
        <g id="dislike-two">
            <rect id="Rectangle" fill-opacity="0.01" fill="#FFFFFF" fill-rule="nonzero" x="0" y="0" width="20" height="20"></rect>
            <path d="M6.25,3.33333333 C3.71869583,3.33333333 1.66666667,5.385375 1.66666667,7.91666667 C1.66666667,12.5 7.08333333,16.6666667 10,17.6359167 C12.9166667,16.6666667 18.3333333,12.5 18.3333333,7.91666667 C18.3333333,5.385375 16.2812917,3.33333333 13.75,3.33333333 C12.199875,3.33333333 10.8294583,4.102875 10,5.28075 C9.17054167,4.102875 7.800125,3.33333333 6.25,3.33333333 Z" id="Path" stroke="#A5B7C0" stroke-linecap="round" stroke-linejoin="round"></path>
            <path d="M11.6666667,8.33333333 L8.33333333,11.6666667 L11.6666667,8.33333333 Z" id="Path"></path>
            <line x1="11.6666667" y1="8.33333333" x2="8.33333333" y2="11.6666667" id="Path" stroke="#A5B7C0" stroke-linecap="round" stroke-linejoin="round"></line>
            <path d="M8.33333333,8.333375 L11.6666667,11.6666667 L8.33333333,8.333375 Z" id="Path"></path>
            <line x1="8.33333333" y1="8.333375" x2="11.6666667" y2="11.6666667" id="Path" stroke="#A5B7C0" stroke-linecap="round" stroke-linejoin="round"></line>
        </g>
    </g>
</svg>