<?xml version="1.0" encoding="UTF-8"?>
<svg width="20px" height="20px" viewBox="0 0 20 20" version="1.1" xmlns="http://www.w3.org/2000/svg" xmlns:xlink="http://www.w3.org/1999/xlink">
    <title>distortion</title>
    <g id="Page-1" stroke="none" stroke-width="1" fill="none" fill-rule="evenodd">
        <g id="distortion">
            <rect id="Rectangle" fill-opacity="0.01" fill="#FFFFFF" fill-rule="nonzero" x="0" y="0" width="20" height="20"></rect>
            <path d="M1.66666667,7.91666667 L1.66666667,16.6666667 L7.08333333,16.6666667 M1.66666667,7.91666667 L1.66666667,3.33333333 L7.08333333,3.33333333 M1.66666667,7.91666667 C1.66666667,7.91666667 5.41666667,5.41666667 10,7.91666667 C14.5833333,10.4166667 18.3333333,7.91666667 18.3333333,7.91666667 M18.3333333,7.91666667 L18.3333333,3.33333333 L7.08333333,3.33333333 M18.3333333,7.91666667 L18.3333333,16.6666667 L7.08333333,16.6666667 M1.66666667,12.0833333 C1.66666667,12.0833333 5.41666667,9.58333333 10,12.0833333 C14.5833333,14.5833333 18.3333333,12.0833333 18.3333333,12.0833333 M7.08333333,3.33333333 C7.08333333,3.33333333 9.58333333,6.66666667 7.08333333,10 C4.58333333,13.3333333 7.08333333,16.6666667 7.08333333,16.6666667 M12.9166667,3.33333333 C12.9166667,3.33333333 15.4166667,6.66666667 12.9166667,10 C10.4166667,13.3333333 12.9166667,16.6666667 12.9166667,16.6666667" id="Shape" stroke="#A5B7C0" stroke-linecap="round" stroke-linejoin="round"></path>
        </g>
    </g>
</svg>