<?xml version="1.0" encoding="UTF-8"?>
<svg width="20px" height="20px" viewBox="0 0 20 20" version="1.1" xmlns="http://www.w3.org/2000/svg" xmlns:xlink="http://www.w3.org/1999/xlink">
    <title>doc-search</title>
    <g id="Page-1" stroke="none" stroke-width="1" fill="none" fill-rule="evenodd">
        <g id="doc-search">
            <rect id="Rectangle" fill-opacity="0.01" fill="#FFFFFF" fill-rule="nonzero" x="0" y="0" width="20" height="20"></rect>
            <path d="M15.8333333,1.66666667 L4.16666667,1.66666667 C3.70642917,1.66666667 3.33333333,2.0397625 3.33333333,2.5 L3.33333333,17.5 C3.33333333,17.96025 3.70642917,18.3333333 4.16666667,18.3333333 L15.8333333,18.3333333 C16.2935833,18.3333333 16.6666667,17.96025 16.6666667,17.5 L16.6666667,2.5 C16.6666667,2.0397625 16.2935833,1.66666667 15.8333333,1.66666667 Z" id="Path" stroke="#A5B7C0" stroke-linecap="round" stroke-linejoin="round"></path>
            <path d="M11.6666667,6.66666667 C11.6666667,7.24195833 11.4335,7.76279167 11.0564583,8.13979167 C10.6794583,8.51683333 10.158625,8.75 9.58333333,8.75 C8.43275,8.75 7.5,7.81725 7.5,6.66666667 C7.5,5.51608333 8.43275,4.58333333 9.58333333,4.58333333 C10.7339167,4.58333333 11.6666667,5.51608333 11.6666667,6.66666667 Z" id="Path"></path>
            <path d="M12.5,9.58333333 L11.0564583,8.13979167 M11.0564583,8.13979167 C11.4335,7.76279167 11.6666667,7.24195833 11.6666667,6.66666667 C11.6666667,5.51608333 10.7339167,4.58333333 9.58333333,4.58333333 C8.43275,4.58333333 7.5,5.51608333 7.5,6.66666667 C7.5,7.81725 8.43275,8.75 9.58333333,8.75 C10.158625,8.75 10.6794583,8.51683333 11.0564583,8.13979167 Z" id="Shape" stroke="#A5B7C0" stroke-linecap="round" stroke-linejoin="round"></path>
            <line x1="7.08333333" y1="12.5" x2="12.9166667" y2="12.5" id="Path" stroke="#A5B7C0" stroke-linecap="round" stroke-linejoin="round"></line>
            <line x1="7.08333333" y1="15" x2="10" y2="15" id="Path" stroke="#A5B7C0" stroke-linecap="round" stroke-linejoin="round"></line>
        </g>
    </g>
</svg>