<?xml version="1.0" encoding="UTF-8"?>
<svg width="20px" height="20px" viewBox="0 0 20 20" version="1.1" xmlns="http://www.w3.org/2000/svg" xmlns:xlink="http://www.w3.org/1999/xlink">
    <title>double-bed</title>
    <g id="Page-1" stroke="none" stroke-width="1" fill="none" fill-rule="evenodd">
        <g id="double-bed">
            <rect id="Rectangle" fill-opacity="0.01" fill="#FFFFFF" fill-rule="nonzero" x="0" y="0" width="20" height="20"></rect>
            <path d="M3.33333333,5 C3.33333333,4.309625 3.89297917,3.75 4.58333333,3.75 L15.4166667,3.75 C16.1070417,3.75 16.6666667,4.309625 16.6666667,5 L16.6666667,9.58333333 L3.33333333,9.58333333 L3.33333333,5 Z" id="Path" stroke="#A5B7C0" stroke-linecap="round" stroke-linejoin="round"></path>
            <line x1="2.5" y1="14.5833333" x2="2.5" y2="16.25" id="Path" stroke="#A5B7C0" stroke-linecap="round" stroke-linejoin="round"></line>
            <line x1="17.5" y1="14.5833333" x2="17.5" y2="16.25" id="Path" stroke="#A5B7C0" stroke-linecap="round" stroke-linejoin="round"></line>
            <path d="M8.33333333,7.5 L5.83333333,7.5 C5.14295833,7.5 4.58333333,8.059625 4.58333333,8.75 L4.58333333,9.58333333 L9.58333333,9.58333333 L9.58333333,8.75 C9.58333333,8.059625 9.02370833,7.5 8.33333333,7.5 Z" id="Path" stroke="#A5B7C0" stroke-linecap="round" stroke-linejoin="round"></path>
            <path d="M14.1666667,7.5 L11.6666667,7.5 C10.9762917,7.5 10.4166667,8.059625 10.4166667,8.75 L10.4166667,9.58333333 L15.4166667,9.58333333 L15.4166667,8.75 C15.4166667,8.059625 14.8570417,7.5 14.1666667,7.5 Z" id="Path" stroke="#A5B7C0" stroke-linecap="round" stroke-linejoin="round"></path>
            <path d="M1.66666667,10.8333333 C1.66666667,10.1429583 2.2263125,9.58333333 2.91666667,9.58333333 L17.0833333,9.58333333 C17.7737083,9.58333333 18.3333333,10.1429583 18.3333333,10.8333333 L18.3333333,14.5833333 L1.66666667,14.5833333 L1.66666667,10.8333333 Z" id="Path" stroke="#A5B7C0" stroke-linecap="round" stroke-linejoin="round"></path>
        </g>
    </g>
</svg>