<?xml version="1.0" encoding="UTF-8"?>
<svg width="20px" height="20px" viewBox="0 0 20 20" version="1.1" xmlns="http://www.w3.org/2000/svg" xmlns:xlink="http://www.w3.org/1999/xlink">
    <title>drag</title>
    <g id="Page-1" stroke="none" stroke-width="1" fill="none" fill-rule="evenodd">
        <g id="drag">
            <rect id="Rectangle" fill-opacity="0.01" fill="#FFFFFF" fill-rule="nonzero" x="0" y="0" width="20" height="20"></rect>
            <path d="M7.91666667,4.29479167 C7.91666667,5.28604167 7.17045833,6.08958333 6.25,6.08958333 C5.32954167,6.08958333 4.58333333,5.28604167 4.58333333,4.29479167 C4.58333333,3.30355833 5.32954167,2.5 6.25,2.5 C7.17045833,2.5 7.91666667,3.30355833 7.91666667,4.29479167 Z M6.25,11.9229167 C7.17045833,11.9229167 7.91666667,11.119375 7.91666667,10.128125 C7.91666667,9.136875 7.17045833,8.33333333 6.25,8.33333333 C5.32954167,8.33333333 4.58333333,9.136875 4.58333333,10.128125 C4.58333333,11.119375 5.32954167,11.9229167 6.25,11.9229167 Z M6.25,17.75625 C7.17045833,17.75625 7.91666667,16.9527083 7.91666667,15.9614583 C7.91666667,14.9702083 7.17045833,14.1666667 6.25,14.1666667 C5.32954167,14.1666667 4.58333333,14.9702083 4.58333333,15.9614583 C4.58333333,16.9527083 5.32954167,17.75625 6.25,17.75625 Z" id="Shape" fill="#A5B7C0"></path>
            <path d="M15.4166667,4.29479167 C15.4166667,5.28604167 14.6704583,6.08958333 13.75,6.08958333 C12.8295417,6.08958333 12.0833333,5.28604167 12.0833333,4.29479167 C12.0833333,3.30355833 12.8295417,2.5 13.75,2.5 C14.6704583,2.5 15.4166667,3.30355833 15.4166667,4.29479167 Z M13.75,11.9229167 C14.6704583,11.9229167 15.4166667,11.119375 15.4166667,10.128125 C15.4166667,9.136875 14.6704583,8.33333333 13.75,8.33333333 C12.8295417,8.33333333 12.0833333,9.136875 12.0833333,10.128125 C12.0833333,11.119375 12.8295417,11.9229167 13.75,11.9229167 Z M13.75,17.75625 C14.6704583,17.75625 15.4166667,16.9527083 15.4166667,15.9614583 C15.4166667,14.9702083 14.6704583,14.1666667 13.75,14.1666667 C12.8295417,14.1666667 12.0833333,14.9702083 12.0833333,15.9614583 C12.0833333,16.9527083 12.8295417,17.75625 13.75,17.75625 Z" id="Shape" fill="#A5B7C0"></path>
        </g>
    </g>
</svg>