<?xml version="1.0" encoding="UTF-8"?>
<svg width="20px" height="20px" viewBox="0 0 20 20" version="1.1" xmlns="http://www.w3.org/2000/svg" xmlns:xlink="http://www.w3.org/1999/xlink">
    <title>drink</title>
    <g id="Page-1" stroke="none" stroke-width="1" fill="none" fill-rule="evenodd">
        <g id="drink">
            <rect id="Rectangle" fill-opacity="0.01" fill="#FFFFFF" fill-rule="nonzero" x="0" y="0" width="20" height="20"></rect>
            <line x1="4.16666667" y1="6.66666667" x2="15.8333333" y2="6.66666667" id="Path" stroke="#A5B7C0" stroke-linecap="round"></line>
            <path d="M5.89708333,7.559375 C5.862625,7.077 6.24470833,6.66666667 6.72833333,6.66666667 L13.2716667,6.66666667 C13.7552917,6.66666667 14.137375,7.077 14.1029167,7.559375 L13.388625,17.559375 C13.3574583,17.9954583 12.9945833,18.3333333 12.5574167,18.3333333 L7.44258333,18.3333333 C7.00541667,18.3333333 6.64254167,17.9954583 6.611375,17.559375 L5.89708333,7.559375 Z" id="Path" stroke="#A5B7C0"></path>
            <path d="M10,4.16666667 L10,2.5 C10,2.0397625 10.3730833,1.66666667 10.8333333,1.66666667 L12.0833333,1.66666667" id="Path" stroke="#A5B7C0" stroke-linecap="round"></path>
            <path d="M6.13395833,4.863 C6.20091667,4.46116667 6.54858333,4.16666667 6.95595833,4.16666667 L13.0440417,4.16666667 C13.4514167,4.16666667 13.7990833,4.46116667 13.8660417,4.863 L14.1666667,6.66666667 L5.83333333,6.66666667 L6.13395833,4.863 Z" id="Path" stroke="#A5B7C0"></path>
        </g>
    </g>
</svg>