<?xml version="1.0" encoding="UTF-8"?>
<svg width="20px" height="20px" viewBox="0 0 20 20" version="1.1" xmlns="http://www.w3.org/2000/svg" xmlns:xlink="http://www.w3.org/1999/xlink">
    <title>drone</title>
    <g id="Page-1" stroke="none" stroke-width="1" fill="none" fill-rule="evenodd">
        <g id="drone">
            <rect id="Rectangle" fill-opacity="0.01" fill="#FFFFFF" fill-rule="nonzero" x="0" y="0" width="20" height="20"></rect>
            <path d="M4.58333333,4.58333333 L7.91666667,7.91666667 M15.4166667,15.4166667 L12.0833333,12.0833333" id="Shape" stroke="#A5B7C0" stroke-linecap="round" stroke-linejoin="round"></path>
            <path d="M15.4166667,4.58333333 L12.0833333,7.91666667 M4.58333333,15.4166667 L7.91666667,12.0833333" id="Shape" stroke="#A5B7C0" stroke-linecap="round" stroke-linejoin="round"></path>
            <rect id="Rectangle" stroke="#A5B7C0" stroke-linecap="round" stroke-linejoin="round" x="7.91666667" y="7.91666667" width="4.16666667" height="4.16666667"></rect>
            <path d="M15.4166667,7.5 C15.9935417,7.5 16.5574583,7.32895833 17.0370833,7.00845833 C17.5167083,6.68795833 17.8905417,6.23245833 18.1113333,5.6995 C18.3320833,5.16654167 18.3898333,4.58008333 18.2772917,4.01432083 C18.16475,3.44854167 17.8869583,2.92884167 17.4790833,2.52094167 C17.0711667,2.1130375 16.5514583,1.83525 15.9856667,1.7227125 C15.4199167,1.61017083 14.8334583,1.66792917 14.3005,1.8886875 C13.7675417,2.10944167 13.3120417,2.48327917 12.9915417,2.96292083 C12.6710417,3.4425625 12.5,4.00647083 12.5,4.58333333 M15.4166667,12.5 C15.9935417,12.5 16.5574583,12.6710417 17.0370833,12.9915417 C17.5167083,13.3120417 17.8905417,13.7675417 18.1113333,14.3005 C18.3320833,14.8334583 18.3898333,15.4199167 18.2772917,15.9856667 C18.16475,16.5514583 17.8869583,17.0711667 17.4790833,17.4790417 C17.0711667,17.8869583 16.5514583,18.16475 15.9856667,18.2772917 C15.4199167,18.3898333 14.8334583,18.3320833 14.3005,18.1113333 C13.7675417,17.8905417 13.3120417,17.5167083 12.9915417,17.0370833 C12.6710417,16.5574583 12.5,15.9935417 12.5,15.4166667 M4.58333333,7.5 C4.00647083,7.5 3.44256667,7.32895833 2.96292083,7.00845833 C2.48327917,6.68795833 2.10944167,6.23245833 1.8886875,5.6995 C1.66792917,5.16654167 1.61017083,4.58008333 1.7227125,4.01432083 C1.83525,3.44854167 2.1130375,2.92884167 2.52094167,2.52094167 C2.92884167,2.1130375 3.44854167,1.83525 4.01432083,1.7227125 C4.58008333,1.61017083 5.16654167,1.66792917 5.6995,1.8886875 C6.23245833,2.10944167 6.68795833,2.48327917 7.00845833,2.96292083 C7.32895833,3.4425625 7.5,4.00647083 7.5,4.58333333 M4.58333333,12.5 C4.00647083,12.5 3.44256667,12.6710417 2.96292083,12.9915417 C2.48327917,13.3120417 2.10944167,13.7675417 1.8886875,14.3005 C1.66792917,14.8334583 1.61017083,15.4199167 1.7227125,15.9856667 C1.83525,16.5514583 2.1130375,17.0711667 2.52094167,17.4790417 C2.92884167,17.8869583 3.44854167,18.16475 4.01432083,18.2772917 C4.58008333,18.3898333 5.16654167,18.3320833 5.6995,18.1113333 C6.23245833,17.8905417 6.68795833,17.5167083 7.00845833,17.0370833 C7.32895833,16.5574583 7.5,15.9935417 7.5,15.4166667" id="Shape" stroke="#A5B7C0" stroke-linecap="round" stroke-linejoin="round"></path>
        </g>
    </g>
</svg>