<?xml version="1.0" encoding="UTF-8"?>
<svg width="20px" height="20px" viewBox="0 0 20 20" version="1.1" xmlns="http://www.w3.org/2000/svg" xmlns:xlink="http://www.w3.org/1999/xlink">
    <title>dumbbell</title>
    <g id="Page-1" stroke="none" stroke-width="1" fill="none" fill-rule="evenodd">
        <g id="dumbbell">
            <rect id="Rectangle" fill-opacity="0.01" fill="#FFFFFF" fill-rule="nonzero" x="0" y="0" width="20" height="20"></rect>
            <path d="M5.83333333,5.66666667 C5.83333333,5.068375 5.27370833,4.58333333 4.58333333,4.58333333 C3.89297917,4.58333333 3.33333333,5.068375 3.33333333,5.66666667 L3.33333333,14.3333333 C3.33333333,14.931625 3.89297917,15.4166667 4.58333333,15.4166667 C5.27370833,15.4166667 5.83333333,14.931625 5.83333333,14.3333333 L5.83333333,5.66666667 Z" id="Path" stroke="#A5B7C0" stroke-linejoin="round"></path>
            <path d="M16.6666667,5.66666667 C16.6666667,5.068375 16.1070417,4.58333333 15.4166667,4.58333333 C14.7262917,4.58333333 14.1666667,5.068375 14.1666667,5.66666667 L14.1666667,14.3333333 C14.1666667,14.931625 14.7262917,15.4166667 15.4166667,15.4166667 C16.1070417,15.4166667 16.6666667,14.931625 16.6666667,14.3333333 L16.6666667,5.66666667 Z" id="Path" stroke="#A5B7C0" stroke-linejoin="round"></path>
            <path d="M3.33333333,7.77779167 C3.33333333,7.164125 2.7736875,6.66666667 2.08333333,6.66666667 C1.39297917,6.66666667 0.833333333,7.164125 0.833333333,7.77779167 L0.833333333,12.2222083 C0.833333333,12.835875 1.39297917,13.3333333 2.08333333,13.3333333 C2.7736875,13.3333333 3.33333333,12.835875 3.33333333,12.2222083 L3.33333333,7.77779167 Z" id="Path" stroke="#A5B7C0" stroke-linejoin="round"></path>
            <path d="M19.1666667,7.77779167 C19.1666667,7.164125 18.6070417,6.66666667 17.9166667,6.66666667 C17.2262917,6.66666667 16.6666667,7.164125 16.6666667,7.77779167 L16.6666667,12.2222083 C16.6666667,12.835875 17.2262917,13.3333333 17.9166667,13.3333333 C18.6070417,13.3333333 19.1666667,12.835875 19.1666667,12.2222083 L19.1666667,7.77779167 Z" id="Path" stroke="#A5B7C0" stroke-linejoin="round"></path>
            <rect id="Rectangle" stroke="#A5B7C0" stroke-linejoin="round" transform="translate(10.000000, 10.000000) scale(-1, 1) rotate(-180.000000) translate(-10.000000, -10.000000) " x="5.83333333" y="8.75" width="8.33333333" height="2.5"></rect>
        </g>
    </g>
</svg>