<?xml version="1.0" encoding="UTF-8"?>
<svg width="20px" height="20px" viewBox="0 0 20 20" version="1.1" xmlns="http://www.w3.org/2000/svg" xmlns:xlink="http://www.w3.org/1999/xlink">
    <title>edit-movie</title>
    <g id="Page-1" stroke="none" stroke-width="1" fill="none" fill-rule="evenodd">
        <g id="edit-movie">
            <rect id="Rectangle" fill-opacity="0.01" fill="#FFFFFF" fill-rule="nonzero" x="0" y="0" width="20" height="20"></rect>
            <polygon id="Path" points="18.3333333 3.33333333 18.3333333 6.66666667 18.3333333 13.3333333 18.3333333 16.6666667 14.1666667 16.6666667 14.1666667 13.3333333 18.3333333 13.3333333 18.3333333 6.66666667 14.1666667 6.66666667 14.1666667 3.33333333"></polygon>
            <polygon id="Path" points="1.66666667 6.66666667 1.66666667 3.33333333 5.83333333 3.33333333 5.83333333 6.66666667 1.66666667 6.66666667 1.66666667 13.3333333 5.83333333 13.3333333 5.83333333 16.6666667 1.66666667 16.6666667 1.66666667 13.3333333"></polygon>
            <path d="M18.3333333,6.66666667 L18.3333333,3.33333333 L14.1666667,3.33333333 M18.3333333,6.66666667 L18.3333333,13.3333333 M18.3333333,6.66666667 L14.1666667,6.66666667 M1.66666667,6.66666667 L1.66666667,3.33333333 L5.83333333,3.33333333 M1.66666667,6.66666667 L1.66666667,13.3333333 M1.66666667,6.66666667 L5.83333333,6.66666667 M1.66666667,13.3333333 L1.66666667,16.6666667 L5.83333333,16.6666667 M1.66666667,13.3333333 L5.83333333,13.3333333 M18.3333333,13.3333333 L18.3333333,16.6666667 L14.1666667,16.6666667 M18.3333333,13.3333333 L14.1666667,13.3333333 M14.1666667,3.33333333 L14.1666667,6.66666667 M14.1666667,3.33333333 L12.5,3.33333333 M14.1666667,16.6666667 L14.1666667,13.3333333 M14.1666667,16.6666667 L12.5,16.6666667 M5.83333333,3.33333333 L5.83333333,6.66666667 M5.83333333,3.33333333 L7.5,3.33333333 M5.83333333,16.6666667 L5.83333333,13.3333333 M5.83333333,16.6666667 L7.5,16.6666667 M5.83333333,6.66666667 L7.5,6.66666667 M14.1666667,6.66666667 L12.5,6.66666667 M14.1666667,13.3333333 L12.5,13.3333333 M5.83333333,13.3333333 L7.5,13.3333333" id="Shape" stroke="#A5B7C0" stroke-linecap="round" stroke-linejoin="round"></path>
            <line x1="10" y1="1.66666667" x2="10" y2="18.3333333" id="Path" stroke="#A5B7C0" stroke-linecap="round" stroke-linejoin="round" stroke-dasharray="1"></line>
        </g>
    </g>
</svg>