<?xml version="1.0" encoding="UTF-8"?>
<svg width="20px" height="20px" viewBox="0 0 20 20" version="1.1" xmlns="http://www.w3.org/2000/svg" xmlns:xlink="http://www.w3.org/1999/xlink">
    <title>elevator</title>
    <g id="Page-1" stroke="none" stroke-width="1" fill="none" fill-rule="evenodd">
        <g id="elevator">
            <rect id="Rectangle" fill-opacity="0.01" fill="#FFFFFF" fill-rule="nonzero" x="0" y="0" width="20" height="20"></rect>
            <polygon id="Path" points="17.5 17.0833333 17.5 2.91666667 2.5 2.91666667 2.5 17.0833333"></polygon>
            <path d="M17.5,2.91666667 L17.5,17.0833333 M17.5,2.91666667 L1.66666667,2.91666667 L2.5,2.91666667 L2.5,17.0833333 M17.5,2.91666667 L18.3333333,2.91666667 M17.5,17.0833333 L18.3333333,17.0833333 M17.5,17.0833333 L2.5,17.0833333 M2.5,17.0833333 L1.66666667,17.0833333" id="Shape" stroke="#A5B7C0" stroke-linecap="round" stroke-linejoin="round"></path>
            <line x1="10" y1="2.91666667" x2="10" y2="17.0833333" id="Path" stroke="#A5B7C0" stroke-linecap="round" stroke-linejoin="round"></line>
            <line x1="13.75" y1="8.33333333" x2="13.75" y2="11.6666667" id="Path" stroke="#A5B7C0" stroke-linecap="round" stroke-linejoin="round"></line>
            <polyline id="Path" stroke="#A5B7C0" stroke-linecap="round" stroke-linejoin="round" points="12.5 9.58333333 13.75 8.33333333 15 9.58333333"></polyline>
            <line x1="6.25" y1="11.6666667" x2="6.25" y2="8.33333333" id="Path" stroke="#A5B7C0" stroke-linecap="round" stroke-linejoin="round"></line>
            <polyline id="Path" stroke="#A5B7C0" stroke-linecap="round" stroke-linejoin="round" points="5 10.4166667 6.25 11.6666667 7.5 10.4166667"></polyline>
        </g>
    </g>
</svg>