<?xml version="1.0" encoding="UTF-8"?>
<svg width="20px" height="20px" viewBox="0 0 20 20" version="1.1" xmlns="http://www.w3.org/2000/svg" xmlns:xlink="http://www.w3.org/1999/xlink">
    <title>endocrine</title>
    <g id="Page-1" stroke="none" stroke-width="1" fill="none" fill-rule="evenodd">
        <g id="endocrine">
            <rect id="Rectangle" fill-opacity="0.01" fill="#FFFFFF" fill-rule="nonzero" x="0" y="0" width="20" height="20"></rect>
            <path d="M9.64441667,18.3333333 C13.038875,18.3333333 16.6666667,17.9210833 16.6666667,12.5750833 C16.6666667,9.985125 16.0452083,7.87675 14.8023333,6.25 C13.6413333,8.19445833 12.7808333,9.16666667 12.2207917,9.16666667 C11.3807917,9.16666667 12.2207917,6.62945833 11.2494583,4.70475 C10.601875,3.42164167 9.45329167,2.40894167 7.80370833,1.66666667 C8.03308333,3.51537917 7.98345833,4.85641667 7.65479167,5.68975 C7.16175,6.93975 2.97964167,9.12916667 3.35742917,12.8895417 C3.73522083,16.6499583 6.25,18.3333333 9.64441667,18.3333333 Z" id="Path" stroke="#A5B7C0" stroke-linejoin="round"></path>
            <path d="M9.04483333,10.0034583 C7.4595,11.4444167 6.78379167,12.7780833 7.01779167,14.0045417 C7.21920833,15.0603333 8.02029167,15.5735 8.62370833,15.7389583 C9.0915,15.86725 9.90145833,15.939 10.6251667,15.2944583 C11.39175,14.61175 11.0862917,13.6411667 9.97466667,12.4404583 C9.50575,11.9339583 9.19579167,11.121625 9.04483333,10.0034583 Z" id="Path" stroke="#A5B7C0" stroke-linejoin="round"></path>
        </g>
    </g>
</svg>