<?xml version="1.0" encoding="UTF-8"?>
<svg width="20px" height="20px" viewBox="0 0 20 20" version="1.1" xmlns="http://www.w3.org/2000/svg" xmlns:xlink="http://www.w3.org/1999/xlink">
    <title>endpoint-displacement</title>
    <g id="Page-1" stroke="none" stroke-width="1" fill="none" fill-rule="evenodd">
        <g id="endpoint-displacement">
            <rect id="Rectangle" fill-opacity="0.01" fill="#FFFFFF" fill-rule="nonzero" x="0" y="0" width="20" height="20"></rect>
            <path d="M5.83333333,3.75 C5.83333333,4.90058333 4.90058333,5.83333333 3.75,5.83333333 C2.59940833,5.83333333 1.66666667,4.90058333 1.66666667,3.75 C1.66666667,2.59940833 2.59940833,1.66666667 3.75,1.66666667 C4.90058333,1.66666667 5.83333333,2.59940833 5.83333333,3.75 Z" id="Path"></path>
            <path d="M5.83333333,3.75 C5.83333333,4.90058333 4.90058333,5.83333333 3.75,5.83333333 C2.59940833,5.83333333 1.66666667,4.90058333 1.66666667,3.75 C1.66666667,2.59940833 2.59940833,1.66666667 3.75,1.66666667 C4.90058333,1.66666667 5.83333333,2.59940833 5.83333333,3.75 Z M5.83333333,3.75 L10.8333333,3.75 M10.8333333,3.75 L9.16666667,2.08333333 M10.8333333,3.75 L9.16666667,5.41666667" id="Shape" stroke="#A5B7C0" stroke-linecap="round" stroke-linejoin="round"></path>
            <path d="M14.1666667,16.25 C14.1666667,17.4005833 15.0994167,18.3333333 16.25,18.3333333 C17.4005833,18.3333333 18.3333333,17.4005833 18.3333333,16.25 C18.3333333,15.0994167 17.4005833,14.1666667 16.25,14.1666667 C15.0994167,14.1666667 14.1666667,15.0994167 14.1666667,16.25 Z" id="Path"></path>
            <path d="M14.1666667,16.25 C14.1666667,17.4005833 15.0994167,18.3333333 16.25,18.3333333 C17.4005833,18.3333333 18.3333333,17.4005833 18.3333333,16.25 C18.3333333,15.0994167 17.4005833,14.1666667 16.25,14.1666667 C15.0994167,14.1666667 14.1666667,15.0994167 14.1666667,16.25 Z M14.1666667,16.25 L8.75,16.25 M8.75,16.25 L10.4166667,14.5833333 M8.75,16.25 L10.4166667,17.9166667" id="Shape" stroke="#A5B7C0" stroke-linecap="round" stroke-linejoin="round"></path>
            <path d="M14.1666667,3.75 C14.1666667,4.90058333 15.0994167,5.83333333 16.25,5.83333333 C17.4005833,5.83333333 18.3333333,4.90058333 18.3333333,3.75 C18.3333333,2.59940833 17.4005833,1.66666667 16.25,1.66666667 C15.0994167,1.66666667 14.1666667,2.59940833 14.1666667,3.75 Z" id="Path"></path>
            <path d="M16.25,5.83333333 C15.0994167,5.83333333 14.1666667,4.90058333 14.1666667,3.75 C14.1666667,2.59940833 15.0994167,1.66666667 16.25,1.66666667 C17.4005833,1.66666667 18.3333333,2.59940833 18.3333333,3.75 C18.3333333,4.90058333 17.4005833,5.83333333 16.25,5.83333333 Z M16.25,5.83333333 L16.25,10.8333333 M16.25,10.8333333 L17.9166667,9.16666667 M16.25,10.8333333 L14.5833333,9.16666667" id="Shape" stroke="#A5B7C0" stroke-linecap="round" stroke-linejoin="round"></path>
            <path d="M1.66666667,16.25 C1.66666667,15.0994167 2.59940833,14.1666667 3.75,14.1666667 C4.90058333,14.1666667 5.83333333,15.0994167 5.83333333,16.25 C5.83333333,17.4005833 4.90058333,18.3333333 3.75,18.3333333 C2.59940833,18.3333333 1.66666667,17.4005833 1.66666667,16.25 Z" id="Path"></path>
            <path d="M3.75,14.1666667 C2.59940833,14.1666667 1.66666667,15.0994167 1.66666667,16.25 C1.66666667,17.4005833 2.59940833,18.3333333 3.75,18.3333333 C4.90058333,18.3333333 5.83333333,17.4005833 5.83333333,16.25 C5.83333333,15.0994167 4.90058333,14.1666667 3.75,14.1666667 Z M3.75,14.1666667 L3.75,9.16666667 M3.75,9.16666667 L5.41666667,10.8333333 M3.75,9.16666667 L2.08333333,10.8333333" id="Shape" stroke="#A5B7C0" stroke-linecap="round" stroke-linejoin="round"></path>
        </g>
    </g>
</svg>