<?xml version="1.0" encoding="UTF-8"?>
<svg width="20px" height="20px" viewBox="0 0 20 20" version="1.1" xmlns="http://www.w3.org/2000/svg" xmlns:xlink="http://www.w3.org/1999/xlink">
    <title>experiment</title>
    <g id="Page-1" stroke="none" stroke-width="1" fill="none" fill-rule="evenodd">
        <g id="experiment">
            <rect id="Rectangle" fill-opacity="0.01" fill="#FFFFFF" fill-rule="nonzero" x="0" y="0" width="20" height="20"></rect>
            <line x1="5" y1="1.66666667" x2="15" y2="1.66666667" id="Path" stroke="#A5B7C0" stroke-linecap="round"></line>
            <path d="M7.50791667,1.66666667 L7.50791667,6.26608333 L2.61434583,16.3755833 C2.28621667,17.0534583 2.5697375,17.8689583 3.2476125,18.1970833 C3.43284167,18.28675 3.63595833,18.3333333 3.84174583,18.3333333 L16.1614583,18.3333333 C16.9145833,18.3333333 17.5250833,17.7227917 17.5250833,16.9697083 C17.5250833,16.7645 17.4787917,16.562 17.389625,16.3771667 L12.51175,6.26608333 L12.51175,1.66666667 L7.50791667,1.66666667 Z" id="Path" stroke="#A5B7C0" stroke-linejoin="round"></path>
            <path d="M4.56683333,12.4999167 C5.468375,13.058375 6.37054167,13.337625 7.27329167,13.337625 C8.17608333,13.337625 9.0795,13.058375 9.98354167,12.4999167 C10.8786667,11.9472917 11.7776667,11.6709583 12.6804167,11.6709583 C13.5832083,11.6709583 14.4897917,11.9472917 15.4001667,12.4999167" id="Path" stroke="#A5B7C0" stroke-linecap="round"></path>
        </g>
    </g>
</svg>