<?xml version="1.0" encoding="UTF-8"?>
<svg width="20px" height="20px" viewBox="0 0 20 20" version="1.1" xmlns="http://www.w3.org/2000/svg" xmlns:xlink="http://www.w3.org/1999/xlink">
    <title>fan</title>
    <g id="Page-1" stroke="none" stroke-width="1" fill="none" fill-rule="evenodd">
        <g id="fan">
            <rect id="Rectangle" fill-opacity="0.01" fill="#FFFFFF" fill-rule="nonzero" x="0" y="0" width="20" height="20"></rect>
            <path d="M5.839125,11.5647083 L1.6782625,10.21275 C2.24927083,8.455375 3.36197083,6.923875 4.856875,5.83775 C6.35179167,4.75166667 8.15220833,4.16666667 10,4.16666667 C11.8478333,4.16666667 13.6482083,4.75166667 15.143125,5.83775 C16.6380417,6.923875 17.75075,8.455375 18.32175,10.21275 L14.160875,11.5647083 M5.839125,11.5647083 C6.124625,10.6860417 6.681,9.92029167 7.42845833,9.37720833 M5.839125,11.5647083 L10,12.9166667 M7.42845833,9.37720833 C8.17591667,8.83416667 9.07608333,8.54166667 10,8.54166667 M7.42845833,9.37720833 L10,12.9166667 M10,8.54166667 C10.9239167,8.54166667 11.824125,8.83416667 12.5715833,9.37720833 M10,8.54166667 L10,12.9166667 M12.5715833,9.37720833 C13.3190417,9.92029167 13.875375,10.6860417 14.160875,11.5647083 M12.5715833,9.37720833 L10,12.9166667 M14.160875,11.5647083 L10,12.9166667 M10,12.9166667 L10,15" id="Shape" stroke="#A5B7C0" stroke-linecap="round" stroke-linejoin="round"></path>
        </g>
    </g>
</svg>