<?xml version="1.0" encoding="UTF-8"?>
<svg width="20px" height="20px" viewBox="0 0 20 20" version="1.1" xmlns="http://www.w3.org/2000/svg" xmlns:xlink="http://www.w3.org/1999/xlink">
    <title>file-jpg</title>
    <g id="Page-1" stroke="none" stroke-width="1" fill="none" fill-rule="evenodd">
        <g id="file-jpg">
            <rect id="Rectangle" fill-opacity="0.01" fill="#FFFFFF" fill-rule="nonzero" x="0" y="0" width="20" height="20"></rect>
            <polygon id="Path" fill-opacity="0.01" fill="#FFFFFF" fill-rule="nonzero" points="20 0 0 0 0 20 20 20"></polygon>
            <path d="M4.16666667,1.66666667 L12.5,1.66666667 L16.6666667,5.83333333 L16.6666667,17.5 C16.6666667,17.96025 16.2935833,18.3333333 15.8333333,18.3333333 L4.16666667,18.3333333 C3.70642917,18.3333333 3.33333333,17.96025 3.33333333,17.5 L3.33333333,2.5 C3.33333333,2.0397625 3.70642917,1.66666667 4.16666667,1.66666667 Z" id="Path" stroke="#A5B7C0" stroke-linejoin="round"></path>
            <line x1="12.9166667" y1="7.5" x2="8.75" y2="7.5" id="Path" stroke="#A5B7C0" stroke-linecap="round" stroke-linejoin="round"></line>
            <line x1="10.8333333" y1="7.5" x2="10.8333333" y2="12.5" id="Path" stroke="#A5B7C0" stroke-linecap="round" stroke-linejoin="round"></line>
            <path d="M7.5,12.5 C7.5,13.4204583 8.24620833,14.1666667 9.16666667,14.1666667 C10.087125,14.1666667 10.8333333,13.4204583 10.8333333,12.5" id="Path" stroke="#A5B7C0" stroke-linecap="round"></path>
        </g>
    </g>
</svg>