<?xml version="1.0" encoding="UTF-8"?>
<svg width="20px" height="20px" viewBox="0 0 20 20" version="1.1" xmlns="http://www.w3.org/2000/svg" xmlns:xlink="http://www.w3.org/1999/xlink">
    <title>financing-one</title>
    <g id="Page-1" stroke="none" stroke-width="1" fill="none" fill-rule="evenodd">
        <g id="financing-one">
            <rect id="Rectangle" fill-opacity="0.01" fill="#FFFFFF" fill-rule="nonzero" x="0" y="0" width="20" height="20"></rect>
            <path d="M6.25,5.99354167 C7.96891667,6.666625 10.0034583,6.666625 10.0034583,6.666625 C10.0034583,6.666625 12.0333333,6.666625 13.75,5.99354167 C15.6257083,8.18266667 16.9401667,11.0685 17.8040417,13.4989167 C18.6785833,15.9594167 16.7502083,18.3332917 14.1389167,18.3332917 L5.84154167,18.3332917 C3.23671667,18.3332917 1.3107625,15.9702917 2.18092917,13.515125 C3.04078333,11.0890417 4.35616667,8.20225 6.25,5.99354167 Z" id="Path" stroke="#A5B7C0" stroke-linejoin="round"></path>
            <line x1="7.5" y1="11.6666667" x2="12.5" y2="11.6666667" id="Path" stroke="#A5B7C0" stroke-linecap="round" stroke-linejoin="round"></line>
            <line x1="7.5" y1="14.1666667" x2="12.5" y2="14.1666667" id="Path" stroke="#A5B7C0" stroke-linecap="round" stroke-linejoin="round"></line>
            <line x1="10.0034583" y1="11.6666667" x2="10.0034583" y2="15.8333333" id="Path" stroke="#A5B7C0" stroke-linecap="round" stroke-linejoin="round"></line>
            <polyline id="Path" stroke="#A5B7C0" stroke-linecap="round" stroke-linejoin="round" points="12.5 9.16666667 10 11.6666667 7.5 9.16666667"></polyline>
            <path d="M10,6.66666667 C12.9915417,6.66666667 15.4166667,5.547375 15.4166667,4.16666667 C15.4166667,2.78595417 12.9915417,1.66666667 10,1.66666667 C7.00845833,1.66666667 4.58333333,2.78595417 4.58333333,4.16666667 C4.58333333,5.547375 7.00845833,6.66666667 10,6.66666667 Z" id="Path" stroke="#A5B7C0" stroke-linecap="round" stroke-linejoin="round"></path>
        </g>
    </g>
</svg>