<?xml version="1.0" encoding="UTF-8"?>
<svg width="20px" height="20px" viewBox="0 0 20 20" version="1.1" xmlns="http://www.w3.org/2000/svg" xmlns:xlink="http://www.w3.org/1999/xlink">
    <title>fingerprint</title>
    <g id="Page-1" stroke="none" stroke-width="1" fill="none" fill-rule="evenodd">
        <g id="fingerprint">
            <rect id="Rectangle" fill-opacity="0.01" fill="#FFFFFF" fill-rule="nonzero" x="0" y="0" width="20" height="20"></rect>
            <path d="M7.5,17.9166667 L7.5,9.16666667 C7.5,7.78595833 8.61929167,6.66666667 10,6.66666667 C11.3807083,6.66666667 12.5,7.78595833 12.5,9.16666667 L12.5,17.9166667" id="Path" stroke="#A5B7C0" stroke-linecap="round" stroke-linejoin="round"></path>
            <path d="M5,16.6666667 L5,9.16666667 C5,6.40525 7.23858333,4.16666667 10,4.16666667 C12.7614167,4.16666667 15,6.40525 15,9.16666667 L15,16.6666667" id="Path" stroke="#A5B7C0" stroke-linecap="round" stroke-linejoin="round"></path>
            <path d="M2.5,14.5833333 L2.5,9.16666667 C2.5,5.02454167 5.857875,1.66666667 10,1.66666667 C14.142125,1.66666667 17.5,5.02454167 17.5,9.16666667 L17.5,14.5833333" id="Path" stroke="#A5B7C0" stroke-linecap="round" stroke-linejoin="round"></path>
            <line x1="10" y1="18.3333333" x2="10" y2="12.9166667" id="Path" stroke="#A5B7C0" stroke-linecap="round" stroke-linejoin="round"></line>
            <line x1="10" y1="10.2604167" x2="10" y2="9.11458333" id="Path" stroke="#A5B7C0" stroke-linecap="round" stroke-linejoin="round"></line>
        </g>
    </g>
</svg>