<?xml version="1.0" encoding="UTF-8"?>
<svg width="20px" height="20px" viewBox="0 0 20 20" version="1.1" xmlns="http://www.w3.org/2000/svg" xmlns:xlink="http://www.w3.org/1999/xlink">
    <title>fingerprint-two</title>
    <g id="Page-1" stroke="none" stroke-width="1" fill="none" fill-rule="evenodd">
        <g id="fingerprint-two">
            <rect id="Rectangle" fill-opacity="0.01" fill="#FFFFFF" fill-rule="nonzero" x="0" y="0" width="20" height="20"></rect>
            <path d="M7.91666667,18.3333333 L7.91666667,9.16666667 C7.91666667,7.78595833 9.03595833,6.66666667 10.4166667,6.66666667 C11.797375,6.66666667 12.9166667,7.78595833 12.9166667,9.16666667 L12.9166667,18.3333333" id="Path" stroke="#A5B7C0" stroke-linecap="round" stroke-linejoin="round"></path>
            <path d="M5.41666667,18.3333333 L5.41666667,9.16666667 C5.41666667,6.40525 7.65525,4.16666667 10.4166667,4.16666667 C13.1780833,4.16666667 15.4166667,6.40525 15.4166667,9.16666667 L15.4166667,18.3333333" id="Path" stroke="#A5B7C0" stroke-linecap="round" stroke-linejoin="round"></path>
            <path d="M2.91666667,18.3333333 L2.91666667,9.16666667 C2.91666667,5.02454167 6.27454167,1.66666667 10.4166667,1.66666667 C14.5587917,1.66666667 17.9166667,5.02454167 17.9166667,9.16666667 L17.9166667,18.3333333" id="Path" stroke="#A5B7C0" stroke-linecap="round" stroke-linejoin="round"></path>
            <line x1="10.4166667" y1="18.3333333" x2="10.4166667" y2="9.16666667" id="Path" stroke="#A5B7C0" stroke-linecap="round" stroke-linejoin="round"></line>
        </g>
    </g>
</svg>