<?xml version="1.0" encoding="UTF-8"?>
<svg width="20px" height="20px" viewBox="0 0 20 20" version="1.1" xmlns="http://www.w3.org/2000/svg" xmlns:xlink="http://www.w3.org/1999/xlink">
    <title>fire</title>
    <g id="Page-1" stroke="none" stroke-width="1" fill="none" fill-rule="evenodd">
        <g id="fire">
            <rect id="Rectangle" fill-opacity="0.01" fill="#FFFFFF" fill-rule="nonzero" x="0" y="0" width="20" height="20"></rect>
            <path d="M10,18.3333333 C13.431125,18.3333333 16.2499167,15.61425 16.2499167,12.1242083 C16.2499167,11.2674167 16.206375,10.3489583 15.7314583,8.9215 C15.2565417,7.49408333 15.160875,7.30983333 14.6587083,6.42829167 C14.4441667,8.22725 13.29625,8.977 13.004625,9.20108333 C13.004625,8.96795833 12.3102083,6.38995833 11.2573333,4.84745833 C10.22375,3.33333333 8.81808333,2.33996667 7.993875,1.66666667 C7.993875,2.9457375 7.634125,4.84745833 7.11891667,5.81641667 C6.60370833,6.785375 6.50695833,6.82066667 5.86341667,7.54175 C5.21991667,8.26283333 4.92454167,8.48554167 4.38641667,9.36045833 C3.84831667,10.2354167 3.75,11.40075 3.75,12.2575417 C3.75,15.7475833 6.568875,18.3333333 10,18.3333333 Z" id="Path" stroke="#A5B7C0" stroke-linejoin="round"></path>
        </g>
    </g>
</svg>