<?xml version="1.0" encoding="UTF-8"?>
<svg width="20px" height="20px" viewBox="0 0 20 20" version="1.1" xmlns="http://www.w3.org/2000/svg" xmlns:xlink="http://www.w3.org/1999/xlink">
    <title>flip-camera</title>
    <g id="Page-1" stroke="none" stroke-width="1" fill="none" fill-rule="evenodd">
        <g id="flip-camera">
            <rect id="Rectangle" fill-opacity="0.01" fill="#FFFFFF" fill-rule="nonzero" x="0" y="0" width="20" height="20"></rect>
            <polygon id="Path" stroke="#A5B7C0" stroke-linecap="round" stroke-linejoin="round" points="5 4.58333333 7.08333333 4.58333333 7.91666667 2.91666667 12.0833333 2.91666667 12.9166667 4.58333333 15 4.58333333 15 11.25 5 11.25"></polygon>
            <circle id="Oval" stroke="#A5B7C0" stroke-linecap="round" stroke-linejoin="round" cx="10" cy="7.5" r="1.66666667"></circle>
            <path d="M10,15.8333333 C5.397625,15.8333333 1.66666667,13.9678333 1.66666667,11.6666667 C1.66666667,11.0740833 1.91407917,10.510375 2.36007083,10 M10,15.8333333 L8.33333333,14.1666667 M10,15.8333333 L8.33333333,17.5" id="Shape" stroke="#A5B7C0" stroke-linecap="round" stroke-linejoin="round"></path>
            <path d="M13.3333333,15.486625 C16.2765,14.8436667 18.3333333,13.37525 18.3333333,11.6666667 C18.3333333,11.0740833 18.0859167,10.510375 17.6399167,10" id="Path" stroke="#A5B7C0" stroke-linecap="round" stroke-linejoin="round"></path>
        </g>
    </g>
</svg>