<?xml version="1.0" encoding="UTF-8"?>
<svg width="20px" height="20px" viewBox="0 0 20 20" version="1.1" xmlns="http://www.w3.org/2000/svg" xmlns:xlink="http://www.w3.org/1999/xlink">
    <title>fm</title>
    <g id="Page-1" stroke="none" stroke-width="1" fill="none" fill-rule="evenodd">
        <g id="fm">
            <rect id="Rectangle" fill-opacity="0.01" fill="#FFFFFF" fill-rule="nonzero" x="0" y="0" width="20" height="20"></rect>
            <circle id="Oval" stroke="#A5B7C0" stroke-linecap="round" stroke-linejoin="round" cx="10" cy="9.16666667" r="1.66666667"></circle>
            <path d="M8.96825,13.7724583 C9.484125,13.1869583 10.515875,13.1869167 11.03175,13.7724583 C11.547625,14.358 11.0317917,18.067 10.6878333,18.4572917 C10.3439167,18.8475833 9.65608333,18.8475833 9.31216667,18.4572917 C8.96825,18.067 8.452375,14.3579583 8.96825,13.7724583 Z" id="Path" stroke="#A5B7C0" stroke-linecap="round" stroke-linejoin="round"></path>
            <path d="M12.9028333,12.71375 C13.9287083,11.8732083 14.5833333,10.596375 14.5833333,9.16666667 C14.5833333,6.635375 12.5312917,4.58333333 10,4.58333333 C7.46870833,4.58333333 5.41666667,6.635375 5.41666667,9.16666667 C5.41666667,10.596375 6.07129167,11.8732083 7.09716667,12.71375" id="Path" stroke="#A5B7C0" stroke-linecap="round" stroke-linejoin="round"></path>
            <path d="M13.3024167,15.9023333 C15.7886667,14.6810417 17.5,12.1237083 17.5,9.16666667 C17.5,5.02454167 14.142125,1.66666667 10,1.66666667 C5.857875,1.66666667 2.5,5.02454167 2.5,9.16666667 C2.5,12.1237083 4.21133333,14.6810417 6.69758333,15.9023333" id="Path" stroke="#A5B7C0" stroke-linecap="round" stroke-linejoin="round"></path>
        </g>
    </g>
</svg>