<?xml version="1.0" encoding="UTF-8"?>
<svg width="20px" height="20px" viewBox="0 0 20 20" version="1.1" xmlns="http://www.w3.org/2000/svg" xmlns:xlink="http://www.w3.org/1999/xlink">
    <title>four-leaves</title>
    <g id="Page-1" stroke="none" stroke-width="1" fill="none" fill-rule="evenodd">
        <g id="four-leaves">
            <rect id="Rectangle" fill-opacity="0.01" fill="#FFFFFF" fill-rule="nonzero" x="0" y="0" width="20" height="20"></rect>
            <path d="M18.3333333,1.66669167 C18.3333333,1.66669167 13.9957917,0.9171125 12.5,3.33335833 C11.3865833,5.13195833 12.9166667,7.083375 12.9166667,7.083375 M18.3333333,1.66669167 C18.3333333,1.66669167 19.0829167,6.00425 16.6666667,7.50004167 C14.8680833,8.61345833 12.9166667,7.083375 12.9166667,7.083375 M18.3333333,1.66669167 L12.9166667,7.083375 M12.9166667,7.083375 L11.6666667,8.333375" id="Shape" stroke="#A5B7C0" stroke-linecap="round" stroke-linejoin="round"></path>
            <path d="M18.3333333,18.3332917 C18.3333333,18.3332917 13.9957917,19.082875 12.5,16.666625 C11.3865833,14.8680417 12.9166667,12.916625 12.9166667,12.916625 M18.3333333,18.3332917 C18.3333333,18.3332917 19.0829167,13.99575 16.6666667,12.4999583 C14.8680833,11.3865417 12.9166667,12.916625 12.9166667,12.916625 M18.3333333,18.3332917 L12.9166667,12.916625 M12.9166667,12.916625 L11.6666667,11.666625" id="Shape" stroke="#A5B7C0" stroke-linecap="round" stroke-linejoin="round"></path>
            <path d="M1.77652917,1.66669167 C1.77652917,1.66669167 6.11408333,0.9171125 7.609875,3.33335833 C8.72329167,5.13195833 7.19320833,7.083375 7.19320833,7.083375 M1.77652917,1.66669167 C1.77652917,1.66669167 1.02695,6.00425 3.44319583,7.50004167 C5.24179167,8.61345833 7.19320833,7.083375 7.19320833,7.083375 M1.77652917,1.66669167 L7.19320833,7.083375 M7.19320833,7.083375 L8.44320833,8.333375" id="Shape" stroke="#A5B7C0" stroke-linecap="round" stroke-linejoin="round"></path>
            <path d="M1.77652917,18.3332917 C1.77652917,18.3332917 6.11408333,19.082875 7.609875,16.666625 C8.72329167,14.8680417 7.19320833,12.916625 7.19320833,12.916625 M1.77652917,18.3332917 C1.77652917,18.3332917 1.02695,13.99575 3.44319583,12.4999583 C5.24179167,11.3865417 7.19320833,12.916625 7.19320833,12.916625 M1.77652917,18.3332917 L7.19320833,12.916625 M7.19320833,12.916625 L8.44320833,11.666625" id="Shape" stroke="#A5B7C0" stroke-linecap="round" stroke-linejoin="round"></path>
        </g>
    </g>
</svg>