<?xml version="1.0" encoding="UTF-8"?>
<svg width="20px" height="20px" viewBox="0 0 20 20" version="1.1" xmlns="http://www.w3.org/2000/svg" xmlns:xlink="http://www.w3.org/1999/xlink">
    <title>four-round-point-connection</title>
    <g id="Page-1" stroke="none" stroke-width="1" fill="none" fill-rule="evenodd">
        <g id="four-round-point-connection">
            <rect id="Rectangle" fill-opacity="0.01" fill="#FFFFFF" fill-rule="nonzero" x="0" y="0" width="20" height="20"></rect>
            <circle id="Oval" stroke="#A5B7C0" stroke-linecap="round" stroke-linejoin="round" cx="4.16666667" cy="4.16666667" r="2.5"></circle>
            <path d="M2.61807917,6.1295 C2.25867083,6.81354167 1.99155417,7.55366667 1.83329167,8.33333333" id="Path" stroke="#A5B7C0" stroke-linecap="round" stroke-linejoin="round"></path>
            <path d="M6.12954167,2.61815833 C6.813625,2.25874583 7.55375,1.99163333 8.33341667,1.83337083" id="Path" stroke="#A5B7C0" stroke-linecap="round" stroke-linejoin="round"></path>
            <circle id="Oval" stroke="#A5B7C0" stroke-linecap="round" stroke-linejoin="round" cx="15.8333333" cy="4.16666667" r="2.5"></circle>
            <path d="M13.8705417,2.61815833 C13.1864583,2.25874583 12.4463333,1.99163333 11.6666667,1.83337083" id="Path" stroke="#A5B7C0" stroke-linecap="round" stroke-linejoin="round"></path>
            <path d="M17.3817917,6.1295 C17.7412083,6.81354167 18.0083333,7.55366667 18.1665833,8.33333333" id="Path" stroke="#A5B7C0" stroke-linecap="round" stroke-linejoin="round"></path>
            <circle id="Oval" stroke="#A5B7C0" stroke-linecap="round" stroke-linejoin="round" cx="15.8333333" cy="15.8333333" r="2.5"></circle>
            <path d="M17.3817917,13.8705417 C17.7412083,13.1864583 18.0083333,12.4463333 18.1665833,11.6666667" id="Path" stroke="#A5B7C0" stroke-linecap="round" stroke-linejoin="round"></path>
            <path d="M13.8705417,17.3818333 C13.1864583,17.74125 12.4463333,18.008375 11.6666667,18.166625" id="Path" stroke="#A5B7C0" stroke-linecap="round" stroke-linejoin="round"></path>
            <circle id="Oval" stroke="#A5B7C0" stroke-linecap="round" stroke-linejoin="round" cx="4.16666667" cy="15.8333333" r="2.5"></circle>
            <path d="M6.12954167,17.3818333 C6.813625,17.74125 7.55375,18.008375 8.33341667,18.166625" id="Path" stroke="#A5B7C0" stroke-linecap="round" stroke-linejoin="round"></path>
            <path d="M2.61807917,13.8705417 C2.25867083,13.1864583 1.99155417,12.4463333 1.83329167,11.6666667" id="Path" stroke="#A5B7C0" stroke-linecap="round" stroke-linejoin="round"></path>
            <path d="M7.5,10 L12.5,10 M10,12.5 L10,7.5" id="Shape" stroke="#A5B7C0" stroke-linecap="round" stroke-linejoin="round"></path>
        </g>
    </g>
</svg>