<?xml version="1.0" encoding="UTF-8"?>
<svg width="20px" height="20px" viewBox="0 0 20 20" version="1.1" xmlns="http://www.w3.org/2000/svg" xmlns:xlink="http://www.w3.org/1999/xlink">
    <title>four-point-connection</title>
    <g id="Page-1" stroke="none" stroke-width="1" fill="none" fill-rule="evenodd">
        <g id="four-point-connection">
            <rect id="Rectangle" fill-opacity="0.01" fill="#FFFFFF" fill-rule="nonzero" x="0" y="0" width="20" height="20"></rect>
            <polygon id="Path" fill-opacity="0.01" fill="#FFFFFF" fill-rule="nonzero" points="20 0 0 0 0 20 20 20"></polygon>
            <polyline id="Path" stroke="#A5B7C0" stroke-linecap="round" stroke-linejoin="round" points="3.33333333 11.6666667 3.33333333 16.6666667 8.33333333 16.6666667"></polyline>
            <polyline id="Path" stroke="#A5B7C0" stroke-linecap="round" stroke-linejoin="round" points="11.6666667 16.6666667 16.6666667 16.6666667 16.6666667 11.6666667"></polyline>
            <polyline id="Path" stroke="#A5B7C0" stroke-linecap="round" stroke-linejoin="round" points="16.6666667 8.33333333 16.6666667 3.33333333 11.6666667 3.33333333"></polyline>
            <polyline id="Path" stroke="#A5B7C0" stroke-linecap="round" stroke-linejoin="round" points="8.33333333 3.33333333 3.33333333 3.33333333 3.33333333 8.33333333"></polyline>
            <polygon id="Path" stroke="#A5B7C0" stroke-linecap="round" stroke-linejoin="round" points="18.3333333 8.33333333 15 8.33333333 15 11.6666667 18.3333333 11.6666667"></polygon>
            <polygon id="Path" stroke="#A5B7C0" stroke-linecap="round" stroke-linejoin="round" points="5 8.33333333 1.66666667 8.33333333 1.66666667 11.6666667 5 11.6666667"></polygon>
            <polygon id="Path" stroke="#A5B7C0" stroke-linecap="round" stroke-linejoin="round" points="11.6666667 15 8.33333333 15 8.33333333 18.3333333 11.6666667 18.3333333"></polygon>
            <polygon id="Path" stroke="#A5B7C0" stroke-linecap="round" stroke-linejoin="round" points="11.6666667 1.66666667 8.33333333 1.66666667 8.33333333 5 11.6666667 5"></polygon>
            <line x1="10" y1="7.5" x2="10" y2="12.5" id="Path" stroke="#A5B7C0" stroke-linecap="round" stroke-linejoin="round"></line>
            <line x1="7.5" y1="10" x2="12.5" y2="10" id="Path" stroke="#A5B7C0" stroke-linecap="round" stroke-linejoin="round"></line>
            <line x1="11.6666667" y1="3.33333333" x2="16.6666667" y2="8.33333333" id="Path" stroke="#A5B7C0" stroke-linecap="round" stroke-linejoin="round"></line>
            <line x1="8.33333333" y1="3.33333333" x2="3.33333333" y2="8.33333333" id="Path" stroke="#A5B7C0" stroke-linecap="round" stroke-linejoin="round"></line>
            <line x1="8.33333333" y1="16.6666667" x2="3.33333333" y2="11.6666667" id="Path" stroke="#A5B7C0" stroke-linecap="round" stroke-linejoin="round"></line>
            <line x1="16.6666667" y1="11.6666667" x2="12.0833333" y2="16.6666667" id="Path" stroke="#A5B7C0" stroke-linecap="round" stroke-linejoin="round"></line>
        </g>
    </g>
</svg>