<?xml version="1.0" encoding="UTF-8"?>
<svg width="20px" height="20px" viewBox="0 0 20 20" version="1.1" xmlns="http://www.w3.org/2000/svg" xmlns:xlink="http://www.w3.org/1999/xlink">
    <title>gastrointestinal</title>
    <g id="Page-1" stroke="none" stroke-width="1" fill="none" fill-rule="evenodd">
        <g id="gastrointestinal">
            <rect id="Rectangle" fill-opacity="0.01" fill="#FFFFFF" fill-rule="nonzero" x="0" y="0" width="20" height="20"></rect>
            <path d="M9.58329167,2.08328333 C9.10570833,3.9417125 9.10570833,5.32191667 9.58329167,6.22391667 C10.2995833,7.576875 11.9583333,8.325125 9.82254167,10.12975 C7.68675,11.9344167 5.52133333,10.4200833 4.184375,10.4200833 C2.84745,10.4200833 1.676025,11.9255 1.676025,14.166625 C1.676025,15.6607083 1.9506625,16.9107083 2.49994167,17.916625" id="Path" stroke="#A5B7C0" stroke-linecap="round" stroke-linejoin="round"></path>
            <path d="M12.4934167,2.08328333 C11.8928333,4.30370833 12.029625,5.71191667 12.9039167,6.30795833 C14.2153333,7.20204167 14.3158333,5.33475 16.7254167,6.44575 C19.135,7.55675 18.5085,11.4295833 17.1225417,13.4230833 C15.7365417,15.416625 12.778125,17.4310417 10.0035,17.0832833 C7.228875,16.7355 6.19720833,13.3416667 5.84004167,13.3416667 C5.48291667,13.3416667 4.72829167,13.35225 4.58095833,14.757125 C4.48270833,15.6936667 4.76195833,16.7468333 5.41866667,17.916625" id="Path" stroke="#A5B7C0" stroke-linecap="round" stroke-linejoin="round"></path>
            <path d="M14.8519583,11.7874583 C14.6110833,12.5066667 14.2041667,13.057625 13.6311667,13.45825 C13.0582083,13.8589167 12.3309167,14.0950417 11.449375,14.1666667" id="Path" stroke="#A5B7C0" stroke-linecap="round"></path>
        </g>
    </g>
</svg>