<?xml version="1.0" encoding="UTF-8"?>
<svg width="20px" height="20px" viewBox="0 0 20 20" version="1.1" xmlns="http://www.w3.org/2000/svg" xmlns:xlink="http://www.w3.org/1999/xlink">
    <title>germs</title>
    <g id="Page-1" stroke="none" stroke-width="1" fill="none" fill-rule="evenodd">
        <g id="germs">
            <rect id="Rectangle" fill-opacity="0.01" fill="#FFFFFF" fill-rule="nonzero" x="0" y="0" width="20" height="20"></rect>
            <path d="M10,18.333375 C10.5565417,18.333375 10.9849167,16.7707917 11.5109167,16.6667083 C12.0527917,16.5595417 12.6911667,17.9078333 13.18975,17.701125 C13.6970417,17.49075 13.5022083,16.1944583 13.9530833,15.892625 C14.4075417,15.588375 15.50725,16.2779167 15.8925417,15.892625 C16.2778333,15.5073333 15.276625,14.2045 15.580875,13.7500417 C15.88275,13.2991667 17.4907083,13.697125 17.7010417,13.1898333 C17.9077917,12.69125 16.3245833,11.7138333 16.43175,11.1719583 C16.5358333,10.6459583 18.3333333,10.5565833 18.3333333,10.0000417 C18.3333333,9.44354167 16.7707083,8.89975 16.6666667,8.37375 C16.5594583,7.831875 17.9077917,7.308875 17.7010417,6.81029167 C17.4907083,6.303 15.88275,6.70095833 15.580875,6.25004167 C15.276625,5.795625 16.2778333,4.49279167 15.8925417,4.1075 C15.50725,3.72220417 14.2044583,4.56208333 13.75,4.257875 C13.2990833,3.95600417 13.6970417,2.50935833 13.18975,2.29900417 C12.6911667,2.0922625 11.791875,3.29355 11.25,3.18635 C10.724,3.0823 10.5565417,1.666725 10,1.666725 C9.44345833,1.666725 9.21666667,3.0823 8.69070833,3.18635 C8.14879167,3.29355 7.30883333,2.0922625 6.81025,2.29900417 C6.30295833,2.50935833 6.70091667,3.80564167 6.25,4.1075 C5.79554167,4.41170833 4.49275,3.72220417 4.10744167,4.1075 C3.72214583,4.49279167 4.802,5.795625 4.49779167,6.25004167 C4.19591667,6.70095833 2.5093,6.303 2.29894583,6.81029167 C2.09220417,7.308875 3.44053333,8.01641667 3.33333333,8.55829167 C3.22928333,9.08429167 1.66666667,9.44354167 1.66666667,10.0000417 C1.66666667,10.5565833 3.3738375,10.803 3.47789167,11.329 C3.5850875,11.870875 2.09220417,12.69125 2.29894583,13.1898333 C2.5093,13.697125 4.08612083,13.2991667 4.388,13.7500417 C4.69220833,14.2045 3.72214583,15.5073333 4.10744167,15.892625 C4.49275,16.2779167 5.79554167,15.3562083 6.25,15.6604167 C6.70091667,15.9622917 6.30295833,17.49075 6.81025,17.701125 C7.30883333,17.9078333 8.14879167,16.5595417 8.69070833,16.6667083 C9.21666667,16.7707917 9.44345833,18.333375 10,18.333375 Z" id="Path" stroke="#A5B7C0" stroke-linejoin="round"></path>
            <path d="M12.0833333,12.083375 C13.0037917,12.083375 13.75,11.3372083 13.75,10.4167083 C13.75,9.49625 13.0037917,8.75004167 12.0833333,8.75004167 C11.162875,8.75004167 10.4166667,9.49625 10.4166667,10.4167083 C10.4166667,11.3372083 11.162875,12.083375 12.0833333,12.083375 Z" id="Path" stroke="#A5B7C0" stroke-linejoin="round"></path>
            <path d="M6.875,10.833375 C7.45029167,10.833375 7.91666667,10.367 7.91666667,9.79170833 C7.91666667,9.21641667 7.45029167,8.75004167 6.875,8.75004167 C6.29970833,8.75004167 5.83333333,9.21641667 5.83333333,9.79170833 C5.83333333,10.367 6.29970833,10.833375 6.875,10.833375 Z" id="Path" fill="#A5B7C0" fill-rule="nonzero"></path>
        </g>
    </g>
</svg>