<?xml version="1.0" encoding="UTF-8"?>
<svg width="20px" height="20px" viewBox="0 0 20 20" version="1.1" xmlns="http://www.w3.org/2000/svg" xmlns:xlink="http://www.w3.org/1999/xlink">
    <title>gift-box</title>
    <g id="Page-1" stroke="none" stroke-width="1" fill="none" fill-rule="evenodd">
        <g id="gift-box">
            <rect id="Rectangle" fill-opacity="0.01" fill="#FFFFFF" fill-rule="nonzero" x="0" y="0" width="20" height="20"></rect>
            <path d="M1.66666667,2.91666667 C1.66666667,2.2263125 2.2263125,1.66666667 2.91666667,1.66666667 L10,1.66666667 L17.0833333,1.66666667 C17.7737083,1.66666667 18.3333333,2.2263125 18.3333333,2.91666667 L18.3333333,10 L18.3333333,17.0833333 C18.3333333,17.7737083 17.7737083,18.3333333 17.0833333,18.3333333 L10,18.3333333 L2.91666667,18.3333333 C2.2263125,18.3333333 1.66666667,17.7737083 1.66666667,17.0833333 L1.66666667,10 L1.66666667,2.91666667 Z" id="Path" stroke="#A5B7C0" stroke-linecap="round" stroke-linejoin="round"></path>
            <line x1="1.66666667" y1="10" x2="18.3333333" y2="10" id="Path" stroke="#A5B7C0" stroke-linecap="round" stroke-linejoin="round"></line>
            <line x1="10" y1="18.3333333" x2="10" y2="1.66666667" id="Path" stroke="#A5B7C0" stroke-linecap="round" stroke-linejoin="round"></line>
            <line x1="1.66666667" y1="14.1666667" x2="1.66666667" y2="5.83333333" id="Path" stroke="#A5B7C0" stroke-linecap="round" stroke-linejoin="round"></line>
            <line x1="18.3333333" y1="14.1666667" x2="18.3333333" y2="5.83333333" id="Path" stroke="#A5B7C0" stroke-linecap="round" stroke-linejoin="round"></line>
            <line x1="17.0833333" y1="18.3333333" x2="2.91666667" y2="18.3333333" id="Path" stroke="#A5B7C0" stroke-linecap="round" stroke-linejoin="round"></line>
            <line x1="17.0833333" y1="1.66666667" x2="2.91666667" y2="1.66666667" id="Path" stroke="#A5B7C0" stroke-linecap="round" stroke-linejoin="round"></line>
            <path d="M10.0000833,9.99995833 C10.0000833,9.99995833 14.277625,8.079375 14.9285,7.4285 C15.579375,6.777625 15.579375,5.722375 14.9285,5.0715 C14.277625,4.420625 13.222375,4.420625 12.5715,5.0715 C11.920625,5.722375 10.0000833,9.99995833 10.0000833,9.99995833 Z M10.0000833,9.99995833 C10.0000833,9.99995833 5.722375,8.079375 5.0715,7.4285 M10.0000833,9.99995833 C10.0000833,9.99995833 8.079375,5.722375 7.4285,5.0715 M10.0000833,9.99995833 C10.0000833,9.99995833 14.2775417,11.920625 14.9284167,12.5715 M10.0000833,9.99995833 C10.0000833,9.99995833 11.9205417,14.277625 12.5714167,14.9285 M10.0000833,9.99995833 C10.0000833,9.99995833 5.72245833,11.920625 5.07158333,12.5715 C4.42070833,13.222375 4.42070833,14.277625 5.07158333,14.9285 C5.72245833,15.579375 6.77775,15.579375 7.428625,14.9285 C8.0795,14.277625 10.0000833,9.99995833 10.0000833,9.99995833 Z" id="Shape" stroke="#A5B7C0" stroke-linecap="round" stroke-linejoin="round"></path>
        </g>
    </g>
</svg>