<?xml version="1.0" encoding="UTF-8"?>
<svg width="20px" height="20px" viewBox="0 0 20 20" version="1.1" xmlns="http://www.w3.org/2000/svg" xmlns:xlink="http://www.w3.org/1999/xlink">
    <title>github-one</title>
    <g id="Page-1" stroke="none" stroke-width="1" fill="none" fill-rule="evenodd">
        <g id="github-one">
            <rect id="Rectangle" fill-opacity="0.01" fill="#FFFFFF" fill-rule="nonzero" x="0" y="0" width="20" height="20"></rect>
            <path d="M12.2268333,12.698625 C13.228375,12.4904583 14.1371667,12.1295417 14.843625,11.5997083 C16.0500833,10.694875 16.6666667,9.297375 16.6666667,7.91666667 C16.6666667,6.94808333 16.2994583,6.04379167 15.6637083,5.277875 C15.3094583,4.85108333 16.345625,1.66667083 15.425,2.09554583 C14.504375,2.52442083 13.1545,3.4737125 12.4469167,3.26420833 C11.689375,3.03990417 10.863875,2.91667083 10,2.91667083 C9.24966667,2.91667083 8.52829167,3.0096375 7.85525,3.18105 C6.87691667,3.43020417 5.94129167,2.50000417 5,2.09554583 C4.05869167,1.6910875 4.57233333,4.98470833 4.29275,5.33108333 C3.68382917,6.0855 3.33333333,6.970375 3.33333333,7.91666667 C3.33333333,9.297375 4.079525,10.694875 5.28595833,11.5997083 C6.089625,12.2024167 7.0975,12.5865417 8.22504167,12.775875" id="Path" stroke="#A5B7C0" stroke-linecap="round"></path>
            <path d="M8.22508333,12.7758333 C7.742375,13.3071667 7.501,13.8116667 7.501,14.2894167 C7.501,14.767125 7.501,15.9777083 7.501,17.9211667" id="Path" stroke="#A5B7C0" stroke-linecap="round"></path>
            <path d="M12.2267917,12.698625 C12.6842083,13.2989583 12.9129167,13.838 12.9129167,14.3157083 C12.9129167,14.7934583 12.9129167,15.99525 12.9129167,17.9211667" id="Path" stroke="#A5B7C0" stroke-linecap="round"></path>
            <path d="M2.5,13.0065 C2.87452917,13.0522917 3.15230833,13.2245 3.33333333,13.523125 C3.60487083,13.971 4.61425,15.6325417 5.76045833,15.6325417 C6.524625,15.6325417 7.10479167,15.6325417 7.501,15.6325417" id="Path" stroke="#A5B7C0" stroke-linecap="round"></path>
        </g>
    </g>
</svg>