<?xml version="1.0" encoding="UTF-8"?>
<svg width="20px" height="20px" viewBox="0 0 20 20" version="1.1" xmlns="http://www.w3.org/2000/svg" xmlns:xlink="http://www.w3.org/1999/xlink">
    <title>globe</title>
    <g id="Page-1" stroke="none" stroke-width="1" fill="none" fill-rule="evenodd">
        <g id="globe">
            <rect id="Rectangle" fill-opacity="0.01" fill="#FFFFFF" fill-rule="nonzero" x="0" y="0" width="20" height="20"></rect>
            <path d="M15.760875,1.66666667 C17.3448333,3.162025 18.3333333,5.281375 18.3333333,7.63158333 C18.3333333,12.1612917 14.6612917,15.8333333 10.1315833,15.8333333 C7.781375,15.8333333 5.66204167,14.8448333 4.16666667,13.260875" id="Path" stroke="#A5B7C0" stroke-linecap="round" stroke-linejoin="round"></path>
            <path d="M10,13.3333333 C13.2216667,13.3333333 15.8333333,10.7216667 15.8333333,7.5 C15.8333333,4.27833333 13.2216667,1.66666667 10,1.66666667 C6.77833333,1.66666667 4.16666667,4.27833333 4.16666667,7.5 C4.16666667,10.7216667 6.77833333,13.3333333 10,13.3333333 Z" id="Path" stroke="#A5B7C0" stroke-linecap="round" stroke-linejoin="round"></path>
            <line x1="10" y1="15.8333333" x2="10" y2="18.3333333" id="Path" stroke="#A5B7C0" stroke-linecap="round" stroke-linejoin="round"></line>
            <line x1="7.5" y1="18.3333333" x2="12.5" y2="18.3333333" id="Path" stroke="#A5B7C0" stroke-linecap="round" stroke-linejoin="round"></line>
        </g>
    </g>
</svg>