<?xml version="1.0" encoding="UTF-8"?>
<svg width="20px" height="20px" viewBox="0 0 20 20" version="1.1" xmlns="http://www.w3.org/2000/svg" xmlns:xlink="http://www.w3.org/1999/xlink">
    <title>goblet-full</title>
    <g id="Page-1" stroke="none" stroke-width="1" fill="none" fill-rule="evenodd">
        <g id="goblet-full">
            <rect id="Rectangle" fill-opacity="0.01" fill="#FFFFFF" fill-rule="nonzero" x="0" y="0" width="20" height="20"></rect>
            <polyline id="Path" stroke="#A5B7C0" stroke-linecap="round" stroke-linejoin="round" points="13.75 18.3333333 9.58333333 18.3333333 5.41666667 18.3333333"></polyline>
            <line x1="9.58333333" y1="11.6666667" x2="9.58333333" y2="18.3333333" id="Path" stroke="#A5B7C0" stroke-linecap="round" stroke-linejoin="round"></line>
            <path d="M14.5833333,6.66666667 C14.5833333,7.364625 14.4346667,8.03495833 14.1666667,8.64545833 C13.3947917,10.404 11.6330833,11.6666667 9.58333333,11.6666667 C7.607625,11.6666667 5.89958333,10.52075 5.0875,8.85733333 C4.76458333,8.19579167 4.58333333,7.452375 4.58333333,6.66666667 C4.58333333,5.67795833 4.80545833,4.74475 5.0875,3.95833333 C5.57808333,2.5905375 6.25,1.66666667 6.25,1.66666667 L12.9166667,1.66666667 C12.9166667,1.66666667 13.673,2.70662917 14.1666667,4.213375 C14.4058333,4.94329167 14.5833333,5.78279167 14.5833333,6.66666667 Z" id="Path" stroke="#A5B7C0" stroke-linecap="round" stroke-linejoin="round"></path>
            <path d="M14.5833333,6.66666667 C14.5833333,6.66666667 11.6666667,7.91666667 9.58333333,6.66666667 C7.5,5.41666667 4.58333333,6.66666667 4.58333333,6.66666667" id="Path" stroke="#A5B7C0" stroke-linecap="round" stroke-linejoin="round"></path>
            <path d="M14.1666667,4.213375 C14.4058333,4.94329167 14.5833333,5.78279167 14.5833333,6.66666667 C14.5833333,7.364625 14.4346667,8.03495833 14.1666667,8.64545833" id="Path" stroke="#A5B7C0" stroke-linecap="round" stroke-linejoin="round"></path>
            <path d="M5.0875,3.95833333 C4.80545833,4.74475 4.58333333,5.67795833 4.58333333,6.66666667 C4.58333333,7.452375 4.76458333,8.19579167 5.0875,8.85733333" id="Path" stroke="#A5B7C0" stroke-linecap="round" stroke-linejoin="round"></path>
        </g>
    </g>
</svg>