<?xml version="1.0" encoding="UTF-8"?>
<svg width="20px" height="20px" viewBox="0 0 20 20" version="1.1" xmlns="http://www.w3.org/2000/svg" xmlns:xlink="http://www.w3.org/1999/xlink">
    <title>gold-medal-two</title>
    <g id="Page-1" stroke="none" stroke-width="1" fill="none" fill-rule="evenodd">
        <g id="gold-medal-two">
            <rect id="Rectangle" fill-opacity="0.01" fill="#FFFFFF" fill-rule="nonzero" x="0" y="0" width="20" height="20"></rect>
            <path d="M15,13.3333333 C15,11.8525 14.35625,10.5220417 13.3333333,9.6065 C12.44875,8.81475 11.2805833,8.33333333 10,8.33333333 C8.71941667,8.33333333 7.55125,8.81475 6.66666667,9.6065 C5.64375,10.5220417 5,11.8525 5,13.3333333 C5,16.09475 7.23858333,18.3333333 10,18.3333333 C12.7614167,18.3333333 15,16.09475 15,13.3333333 Z" id="Path"></path>
            <path d="M6.66666667,1.66666667 L13.3333333,1.66666667 L13.3333333,8.33333333 L13.3333333,9.6065 C12.44875,8.81475 11.2805833,8.33333333 10,8.33333333 C8.71941667,8.33333333 7.55125,8.81475 6.66666667,9.6065 L6.66666667,8.33333333 L6.66666667,1.66666667 Z" id="Path"></path>
            <path d="M6.66666667,1.66666667 L13.3333333,1.66666667 M6.66666667,1.66666667 L3.33333333,1.66666667 L3.33333333,5.83333333 L6.66666667,8.33333333 M6.66666667,1.66666667 L6.66666667,8.33333333 M13.3333333,1.66666667 L16.6666667,1.66666667 L16.6666667,5.83333333 L13.3333333,8.33333333 M13.3333333,1.66666667 L13.3333333,8.33333333 M6.66666667,9.6065 C7.55125,8.81475 8.71941667,8.33333333 10,8.33333333 C11.2805833,8.33333333 12.44875,8.81475 13.3333333,9.6065 M6.66666667,9.6065 C5.64375,10.5220417 5,11.8525 5,13.3333333 C5,16.09475 7.23858333,18.3333333 10,18.3333333 C12.7614167,18.3333333 15,16.09475 15,13.3333333 C15,11.8525 14.35625,10.5220417 13.3333333,9.6065 M6.66666667,9.6065 L6.66666667,8.33333333 M13.3333333,9.6065 L13.3333333,8.33333333" id="Shape" stroke="#A5B7C0" stroke-linecap="round" stroke-linejoin="round"></path>
            <polyline id="Path" stroke="#A5B7C0" stroke-linecap="round" stroke-linejoin="round" points="13.3333333 1.66666667 16.6666667 1.66666667 16.6666667 5.83333333 13.3333333 8.33333333"></polyline>
            <polyline id="Path" stroke="#A5B7C0" stroke-linecap="round" stroke-linejoin="round" points="6.66666667 1.66666667 3.33333333 1.66666667 3.33333333 5.83333333 6.66666667 8.33333333"></polyline>
            <path d="M15,13.3333333 C15,11.8525 14.35625,10.5220417 13.3333333,9.6065 C12.44875,8.81475 11.2805833,8.33333333 10,8.33333333 C8.71941667,8.33333333 7.55125,8.81475 6.66666667,9.6065 C5.64375,10.5220417 5,11.8525 5,13.3333333 C5,16.09475 7.23858333,18.3333333 10,18.3333333 C12.7614167,18.3333333 15,16.09475 15,13.3333333 Z" id="Path" stroke="#A5B7C0" stroke-linecap="round" stroke-linejoin="round"></path>
            <path d="M6.66666667,1.66666667 L13.3333333,1.66666667 L13.3333333,8.33333333 L13.3333333,9.6065 C12.44875,8.81475 11.2805833,8.33333333 10,8.33333333 C8.71941667,8.33333333 7.55125,8.81475 6.66666667,9.6065 L6.66666667,8.33333333 L6.66666667,1.66666667 Z" id="Path" stroke="#A5B7C0" stroke-linecap="round" stroke-linejoin="round"></path>
            <path d="M10,15.4166667 L10,11.25 L9.16666667,11.6666667 M10,15.4166667 L10.8333333,15.4166667 M10,15.4166667 L9.16666667,15.4166667" id="Shape" stroke="#A5B7C0" stroke-linecap="round" stroke-linejoin="round"></path>
        </g>
    </g>
</svg>