<?xml version="1.0" encoding="UTF-8"?>
<svg width="20px" height="20px" viewBox="0 0 20 20" version="1.1" xmlns="http://www.w3.org/2000/svg" xmlns:xlink="http://www.w3.org/1999/xlink">
    <title>green-new-energy</title>
    <g id="Page-1" stroke="none" stroke-width="1" fill="none" fill-rule="evenodd">
        <g id="green-new-energy">
            <rect id="Rectangle" fill-opacity="0.01" fill="#FFFFFF" fill-rule="nonzero" x="0" y="0" width="20" height="20"></rect>
            <path d="M17.6399167,6.66666667 C16.354,3.72349167 13.4172083,1.66666667 10,1.66666667 C6.58279167,1.66666667 3.64600417,3.72349167 2.360075,6.66666667" id="Path" stroke="#A5B7C0" stroke-linecap="round" stroke-linejoin="round"></path>
            <path d="M10,5.83333333 C8.45720833,7.34575 7.5,9.453375 7.5,11.7845417 C7.5,11.9930417 7.50766667,12.1997917 7.52270833,12.4045 C9.05220833,13.9152917 10,16.013625 10,18.3333333 C10,16.013625 10.9477917,13.9152917 12.4772917,12.4045 C12.4923333,12.1997917 12.5,11.9930417 12.5,11.7845417 C12.5,9.453375 11.5427917,7.34575 10,5.83333333 Z" id="Path" stroke="#A5B7C0" stroke-linecap="round" stroke-linejoin="round"></path>
            <path d="M1.66666667,10 C1.66666667,14.602375 5.397625,18.3333333 10,18.3333333 C10,16.013625 9.05220833,13.9152917 7.52270833,12.4045 C6.01766667,10.9177917 3.9493375,10 1.66666667,10 Z" id="Path" stroke="#A5B7C0" stroke-linecap="round" stroke-linejoin="round"></path>
            <path d="M18.3333333,10 C18.3333333,14.602375 14.602375,18.3333333 10,18.3333333 C10,16.013625 10.9477917,13.9152917 12.4772917,12.4045 C13.9823333,10.9177917 16.0506667,10 18.3333333,10 Z" id="Path" stroke="#A5B7C0" stroke-linecap="round" stroke-linejoin="round"></path>
        </g>
    </g>
</svg>