<?xml version="1.0" encoding="UTF-8"?>
<svg width="20px" height="20px" viewBox="0 0 20 20" version="1.1" xmlns="http://www.w3.org/2000/svg" xmlns:xlink="http://www.w3.org/1999/xlink">
    <title>hair-dryer-one</title>
    <g id="Page-1" stroke="none" stroke-width="1" fill="none" fill-rule="evenodd">
        <g id="hair-dryer-one">
            <rect id="Rectangle" fill-opacity="0.01" fill="#FFFFFF" fill-rule="nonzero" x="0" y="0" width="20" height="20"></rect>
            <g id="Group-2" transform="translate(1.666667, 2.500000)" stroke="#A5B7C0" stroke-width="0.833333333">
                <path d="M2.91666667,1.72429167 C2.91666667,1.69133333 2.941125,1.6635 2.97379167,1.65929167 L11.7009167,0.5332125 C13.89225,0.250466667 15.8333333,1.95720833 15.8333333,4.16666667 L15.8333333,4.16666667 C15.8333333,6.376125 13.8922083,8.082875 11.7009167,7.800125 L2.97379167,6.67404167 C2.941125,6.66983333 2.91666667,6.642 2.91666667,6.60904167 L2.91666667,1.72429167 Z" id="Path"></path>
                <polyline id="Path" stroke-linecap="round" stroke-linejoin="round" points="2.91666667 1.66666667 0 0 0 8.33333333 2.91666667 6.66666667"></polyline>
                <path d="M14.1666667,7.08333333 L11.3775417,13.7075417 C11.04775,14.4907083 10.28075,15 9.43095833,15 L9.43095833,15 C7.92045833,15 6.89820833,13.4604583 7.484375,12.0682917 L9.58333333,7.08333333" id="Path"></path>
                <circle id="Oval" cx="12.9166667" cy="4.16666667" r="3.75"></circle>
            </g>
        </g>
    </g>
</svg>