<?xml version="1.0" encoding="UTF-8"?>
<svg width="20px" height="20px" viewBox="0 0 20 20" version="1.1" xmlns="http://www.w3.org/2000/svg" xmlns:xlink="http://www.w3.org/1999/xlink">
    <title>hair-dryer</title>
    <g id="Page-1" stroke="none" stroke-width="1" fill="none" fill-rule="evenodd">
        <g id="hair-dryer">
            <rect id="Rectangle" fill-opacity="0.01" fill="#FFFFFF" fill-rule="nonzero" x="0" y="0" width="20" height="20"></rect>
            <path d="M7.99708333,8.97658333 L8.96333333,16.70675 C9.07129167,17.5704583 8.39783333,18.3333333 7.52745833,18.3333333 C6.79766667,18.3333333 6.18208333,17.7899167 6.09154167,17.06575 L5.10254167,9.15370833" id="Path" stroke="#A5B7C0" stroke-linecap="round" stroke-linejoin="round"></path>
            <path d="M5.41666667,1.66666667 C3.3456,1.66666667 1.66666667,3.3456 1.66666667,5.41666667 C1.66666667,7.38195833 3.1784625,8.994125 5.10254167,9.15370833 C5.206125,9.16229167 5.310875,9.16666667 5.41666667,9.16666667 C6.07416667,9.16666667 6.97479167,9.09370833 7.99708333,8.97658333 L13.1652083,8.134125 L18.3333333,7.29166667 L18.3333333,3.54166667 L11.875,2.60416667 L5.41666667,1.66666667 Z" id="Path" stroke="#A5B7C0" stroke-linecap="round" stroke-linejoin="round"></path>
            <line x1="15.4166667" y1="3.4169" x2="15.4166667" y2="7.41645833" id="Path" stroke="#A5B7C0" stroke-linecap="round" stroke-linejoin="round"></line>
            <line x1="18.3332917" y1="7.29166667" x2="13.1651667" y2="8.134125" id="Path" stroke="#A5B7C0" stroke-linecap="round" stroke-linejoin="round"></line>
            <line x1="18.3333333" y1="3.54166667" x2="11.875" y2="2.60416667" id="Path" stroke="#A5B7C0" stroke-linecap="round" stroke-linejoin="round"></line>
            <path d="M6.66666667,5.41666667 C6.66666667,6.10704167 6.10704167,6.66666667 5.41666667,6.66666667 C4.72629167,6.66666667 4.16666667,6.10704167 4.16666667,5.41666667 C4.16666667,4.72629167 4.72629167,4.16666667 5.41666667,4.16666667 C6.10704167,4.16666667 6.66666667,4.72629167 6.66666667,5.41666667 Z" id="Path" stroke="#A5B7C0" stroke-linecap="round" stroke-linejoin="round"></path>
        </g>
    </g>
</svg>