<?xml version="1.0" encoding="UTF-8"?>
<svg width="20px" height="20px" viewBox="0 0 20 20" version="1.1" xmlns="http://www.w3.org/2000/svg" xmlns:xlink="http://www.w3.org/1999/xlink">
    <title>halo</title>
    <g id="Page-1" stroke="none" stroke-width="1" fill="none" fill-rule="evenodd">
        <g id="halo">
            <rect id="Rectangle" fill-opacity="0.01" fill="#FFFFFF" fill-rule="nonzero" x="0" y="0" width="20" height="20"></rect>
            <polygon id="Path" fill-opacity="0.01" fill="#FFFFFF" fill-rule="nonzero" points="20 0 0 0 0 20 20 20"></polygon>
            <path d="M10,11.6666667 C10.9204583,11.6666667 11.6666667,10.9204583 11.6666667,10 C11.6666667,9.07954167 10.9204583,8.33333333 10,8.33333333 C9.07954167,8.33333333 8.33333333,9.07954167 8.33333333,10 C8.33333333,10.9204583 9.07954167,11.6666667 10,11.6666667 Z" id="Path" stroke="#A5B7C0" stroke-linecap="round" stroke-linejoin="round"></path>
            <path d="M7.23516667,5.83333333 C6.95508333,6.01954167 6.69483333,6.23325 6.45833333,6.470625 C6.21004167,6.71975 5.987875,6.99491667 5.79629167,7.29166667" id="Path" stroke="#A5B7C0" stroke-linecap="round" stroke-linejoin="round"></path>
            <path d="M5.08229167,10.9082917 C5.02825,10.61375 5,10.3101667 5,10 C5,9.68983333 5.02825,9.38625 5.08229167,9.09170833" id="Path" stroke="#A5B7C0" stroke-linecap="round" stroke-linejoin="round"></path>
            <path d="M7.23516667,14.1666667 C6.95508333,13.9804583 6.69483333,13.76675 6.45833333,13.529375 C6.21004167,13.28025 5.987875,13.0050833 5.79629167,12.7083333" id="Path" stroke="#A5B7C0" stroke-linecap="round" stroke-linejoin="round"></path>
            <path d="M10.98325,14.903375 C10.6653333,14.96675 10.3365417,15 10,15 C9.66341667,15 9.334625,14.96675 9.01670833,14.903375" id="Path" stroke="#A5B7C0" stroke-linecap="round" stroke-linejoin="round"></path>
            <path d="M12.7648333,14.1666667 C13.0449167,13.9804583 13.3051667,13.76675 13.5416667,13.529375 C13.7899583,13.28025 14.012125,13.0050833 14.2037083,12.7083333" id="Path" stroke="#A5B7C0" stroke-linecap="round" stroke-linejoin="round"></path>
            <path d="M14.9177083,10.9082917 C14.97175,10.61375 15,10.3101667 15,10 C15,9.68983333 14.97175,9.38625 14.9177083,9.09170833" id="Path" stroke="#A5B7C0" stroke-linecap="round" stroke-linejoin="round"></path>
            <path d="M12.7648333,5.83333333 C13.0449167,6.01954167 13.3051667,6.23325 13.5416667,6.470625 C13.7899583,6.71975 14.012125,6.99491667 14.2037083,7.29166667" id="Path" stroke="#A5B7C0" stroke-linecap="round" stroke-linejoin="round"></path>
            <path d="M9.01670833,5.09666667 C9.334625,5.03325 9.66341667,5 9.99995833,5 C10.3365417,5 10.6653333,5.03325 10.98325,5.09666667" id="Path" stroke="#A5B7C0" stroke-linecap="round" stroke-linejoin="round"></path>
            <path d="M18.3333333,10 C18.3333333,9.71875 18.3194167,9.44075 18.2921667,9.16666667 C18.2641667,8.8845 18.2220833,8.6065 18.166625,8.33333333 M1.66666667,10 C1.66666667,9.71875 1.6806,9.44075 1.7078125,9.16666667 C1.735825,8.8845 1.7779125,8.6065 1.8333625,8.33333333 M16.1025,15.6749167 C15.9152917,15.876125 15.71825,16.0680833 15.512125,16.25 C15.3276667,16.4128333 15.1359167,16.567625 14.9374167,16.7138333 M3.8975125,15.6749167 C4.08471667,15.876125 4.28175,16.0680833 4.487875,16.25 C4.67233333,16.4128333 4.864125,16.567625 5.06258333,16.7138333 M6.54683333,2.4135625 C6.27370833,2.53809167 6.00845833,2.6769375 5.75208333,2.82914167 C5.514375,2.97025833 5.28429167,3.12285833 5.06258333,3.28617917 M13.4531667,2.4135625 C13.7262917,2.53809167 13.9915417,2.6769375 14.2479167,2.82914167 C14.485625,2.97025833 14.7157083,3.12285833 14.9374167,3.28617917 M10.9360417,1.71865417 C10.6287917,1.68430417 10.3164583,1.66666667 10,1.66666667 C9.68354167,1.66666667 9.37120833,1.68430417 9.06395833,1.71865417 M10.9360417,18.2813333 C11.2495833,18.2462917 11.557875,18.193875 11.8599167,18.125 C12.1487083,18.0591667 12.4318333,17.9783333 12.7083333,17.8833333 M9.06395833,18.2813333 C8.75041667,18.2462917 8.442125,18.193875 8.14008333,18.125 C7.85129167,18.0591667 7.56816667,17.9783333 7.29166667,17.8833333 M3.39789583,4.914375 C3.24010833,5.11891667 3.09161667,5.331 2.95305,5.54995833 C2.82817917,5.74729167 2.71137083,5.95020833 2.60308333,6.15829167 M16.602125,4.914375 C16.759875,5.11891667 16.908375,5.331 17.0469583,5.54995833 C17.1718333,5.74729167 17.288625,5.95020833 17.3969167,6.15829167 M2.60308333,13.8417083 C2.4819875,13.6090417 2.37155,13.3699167 2.2724125,13.125 C2.18145833,12.9002917 2.10002083,12.67075 2.02859583,12.4367917 M17.3969167,13.8417083 C17.518,13.6090417 17.6284583,13.3699167 17.7275833,13.125 C17.8185417,12.9002917 17.9,12.67075 17.9714167,12.4367917" id="Shape" stroke="#A5B7C0" stroke-linecap="round" stroke-linejoin="round"></path>
        </g>
    </g>
</svg>