<?xml version="1.0" encoding="UTF-8"?>
<svg width="20px" height="20px" viewBox="0 0 20 20" version="1.1" xmlns="http://www.w3.org/2000/svg" xmlns:xlink="http://www.w3.org/1999/xlink">
    <title>hand-down</title>
    <g id="Page-1" stroke="none" stroke-width="1" fill="none" fill-rule="evenodd">
        <g id="hand-down">
            <rect id="Rectangle" fill-opacity="0.01" fill="#FFFFFF" fill-rule="nonzero" x="0" y="0" width="20" height="20"></rect>
            <polygon id="Path" stroke="#A5B7C0" stroke-linejoin="round" points="2.93884167 4.16679167 12.1055 4.16679167 12.1055 1.6668 2.93884167 1.6668"></polygon>
            <path d="M12.1054583,4.16679167 C14.8217083,7.13466667 16.3802917,8.85466667 16.7812083,9.32670833 C17.382625,10.0347917 17.1300833,10.835125 15.6250417,10.835125 C14.1199583,10.835125 13.2519583,8.632875 12.1054583,8.632875 C12.098625,8.63145833 12.0981667,11.44775 12.1040833,17.0817917 C12.1047917,17.7723333 11.5455833,18.33275 10.8550417,18.3334583 L10.8537083,18.3334583 C10.1624167,18.3334583 9.60195833,17.7730417 9.60195833,17.08175 L9.60195833,13.7444583 C6.28,13.2407917 4.47391667,12.9629167 4.18379167,12.9107917 C3.74856667,12.8326667 2.93878333,12.41725 2.93878333,11.2217917 C2.93878333,10.4248333 2.93878333,8.35095833 2.93878333,4.16679167 L12.1054583,4.16679167 Z" id="Path" stroke="#A5B7C0" stroke-linejoin="round"></path>
        </g>
    </g>
</svg>