<?xml version="1.0" encoding="UTF-8"?>
<svg width="20px" height="20px" viewBox="0 0 20 20" version="1.1" xmlns="http://www.w3.org/2000/svg" xmlns:xlink="http://www.w3.org/1999/xlink">
    <title>hand-left</title>
    <g id="Page-1" stroke="none" stroke-width="1" fill="none" fill-rule="evenodd">
        <g id="hand-left">
            <rect id="Rectangle" fill-opacity="0.01" fill="#FFFFFF" fill-rule="nonzero" x="0" y="0" width="20" height="20"></rect>
            <polygon id="Path" stroke="#A5B7C0" stroke-linejoin="round" points="18.3333333 17.08325 18.3333333 7.91658333 15.8333333 7.91658333 15.8333333 17.08325"></polygon>
            <path d="M15.8333333,7.91666667 C12.8728333,5.17925 11.1565417,3.60975833 10.6845,3.20819167 C9.976375,2.60584583 9.17608333,2.858775 9.17608333,4.36620833 C9.17608333,5.873625 11.3693333,6.768375 11.3693333,7.91666667 C11.37075,7.9235 8.55375,7.92395833 2.91835,7.91804167 C2.22779167,7.91729167 1.66739583,8.47654167 1.66666667,9.16708333 C1.66666667,9.16754167 1.66666667,9.16795833 1.66666667,9.16841667 C1.66666667,9.85970833 2.2270875,10.420125 2.91840417,10.420125 L5.84020833,10.420125 C6.34308333,13.740375 6.62054167,15.5457917 6.67266667,15.836375 C6.75079167,16.2722917 7.16625,17.0833333 8.36166667,17.0833333 C9.158625,17.0833333 11.6492083,17.0833333 15.8333333,17.0833333 L15.8333333,7.91666667 Z" id="Path" stroke="#A5B7C0" stroke-linejoin="round"></path>
        </g>
    </g>
</svg>