<?xml version="1.0" encoding="UTF-8"?>
<svg width="20px" height="20px" viewBox="0 0 20 20" version="1.1" xmlns="http://www.w3.org/2000/svg" xmlns:xlink="http://www.w3.org/1999/xlink">
    <title>hand-right</title>
    <g id="Page-1" stroke="none" stroke-width="1" fill="none" fill-rule="evenodd">
        <g id="hand-right">
            <rect id="Rectangle" fill-opacity="0.01" fill="#FFFFFF" fill-rule="nonzero" x="0" y="0" width="20" height="20"></rect>
            <polygon id="Path" stroke="#A5B7C0" stroke-linejoin="round" points="4.17775 17.0723333 4.17775 7.90566667 1.67775417 7.90566667 1.67775417 17.0723333"></polygon>
            <path d="M4.17775,7.90566667 C7.145625,5.18941667 8.86558333,3.63084583 9.33766667,3.22990833 C10.04575,2.62849583 10.8460833,2.88103333 10.8460833,4.38608333 C10.8460833,5.89116667 8.64383333,6.75916667 8.64383333,7.90566667 C8.64241667,7.9125 11.4587083,7.91295833 17.09275,7.90704167 C17.7832917,7.90633333 18.3437083,8.46554167 18.3444167,9.15608333 L18.3444167,9.15741667 C18.3444167,9.84875 17.784,10.4091667 17.0926667,10.4091667 L13.7554167,10.4091667 C13.25175,13.731125 12.973875,15.5372083 12.92175,15.8273333 C12.843625,16.2625833 12.4281667,17.0723333 11.23275,17.0723333 C10.4357917,17.0723333 8.36191667,17.0723333 4.17775,17.0723333 L4.17775,7.90566667 Z" id="Path" stroke="#A5B7C0" stroke-linejoin="round"></path>
        </g>
    </g>
</svg>