<?xml version="1.0" encoding="UTF-8"?>
<svg width="20px" height="20px" viewBox="0 0 20 20" version="1.1" xmlns="http://www.w3.org/2000/svg" xmlns:xlink="http://www.w3.org/1999/xlink">
    <title>hand-drag</title>
    <g id="Page-1" stroke="none" stroke-width="1" fill="none" fill-rule="evenodd">
        <g id="hand-drag">
            <rect id="Rectangle" fill-opacity="0.01" fill="#FFFFFF" fill-rule="nonzero" x="0" y="0" width="20" height="20"></rect>
            <path d="M3.99292917,11.3260417 C3.27799583,11.8142917 2.92053333,12.6223333 2.92053333,13.750125 C2.92053333,15.4418333 5.00004167,18.3334583 6.87525,18.3334583 C8.75041667,18.3334583 9.83795833,18.3334583 11.6733333,18.3334583 C13.50875,18.3334583 14.6235417,16.729 14.6235417,15.4418333 C14.6235417,13.71125 14.6235417,11.9807083 14.6235417,10.2501667 C14.6235417,9.50304167 14.019,8.89679167 13.271875,8.89470294 C12.5274583,8.892625 11.9222917,9.49441667 11.9202083,10.2388333 C11.9202083,10.2400833 11.9202083,10.241375 11.9202083,10.242625 L11.9202083,10.284875" id="Path" stroke="#A5B7C0" stroke-linecap="round"></path>
            <path d="M4.5755,12.2689167 L4.5755,3.19274583 C4.5755,2.45242083 5.17566667,1.85227083 5.91595833,1.85227083 C6.65629167,1.85227083 7.25645833,2.45242083 7.25645833,3.19274583 L7.25645833,9.85333333" id="Path" stroke="#A5B7C0" stroke-linecap="round"></path>
            <path d="M7.25645833,10.000125 L7.25645833,8.25325 C7.25645833,7.60791667 7.77958333,7.08483333 8.424875,7.08483333 C9.07016667,7.08483333 9.59329167,7.60791667 9.59329167,8.25325 L9.59329167,10.1780417" id="Path" stroke="#A5B7C0" stroke-linecap="round" stroke-linejoin="round"></path>
            <path d="M9.58333333,10.2743333 L9.58333333,9.08658333 C9.58333333,8.44125 10.1064583,7.91816667 10.75175,7.91816667 C11.3970417,7.91816667 11.9201667,8.44125 11.9201667,9.08658333 L11.9201667,10.4181667" id="Path" stroke="#A5B7C0" stroke-linecap="round" stroke-linejoin="round"></path>
            <line x1="4.58333333" y1="3.33339167" x2="17.0833333" y2="3.33339167" id="Path" stroke="#A5B7C0" stroke-linecap="round"></line>
            <polyline id="Path" stroke="#A5B7C0" stroke-linecap="round" stroke-linejoin="round" points="15 5.208375 15.6944583 4.583375 17.0833333 3.33339167 15.6944583 2.08339167 15 1.45839167"></polyline>
        </g>
    </g>
</svg>