<?xml version="1.0" encoding="UTF-8"?>
<svg width="20px" height="20px" viewBox="0 0 20 20" version="1.1" xmlns="http://www.w3.org/2000/svg" xmlns:xlink="http://www.w3.org/1999/xlink">
    <title>hand-up</title>
    <g id="Page-1" stroke="none" stroke-width="1" fill="none" fill-rule="evenodd">
        <g id="hand-up">
            <rect id="Rectangle" fill-opacity="0.01" fill="#FFFFFF" fill-rule="nonzero" x="0" y="0" width="20" height="20"></rect>
            <polygon id="Path" stroke="#A5B7C0" stroke-linejoin="round" points="17.0833333 15.833375 7.91666667 15.833375 7.91666667 18.333375 17.0833333 18.333375"></polygon>
            <path d="M7.91670833,15.833375 C5.2005,12.8655 3.64189167,11.1455417 3.24095417,10.6735 C2.63954583,9.965375 2.89208333,9.16508333 4.39716667,9.16508333 C5.90220833,9.16508333 6.77020833,11.3673333 7.91670833,11.3673333 C7.92354167,11.36875 7.924,8.55241667 7.91808333,2.91840833 C7.917375,2.22784583 8.47658333,1.66745 9.16716667,1.666725 L9.16845833,1.666725 C9.85979167,1.666725 10.4202083,2.22714583 10.4202083,2.91845833 L10.4202083,6.25570833 C13.7422083,6.75941667 15.54825,7.03729167 15.8384167,7.089375 C16.273625,7.16754167 17.083375,7.58295833 17.083375,8.77841667 C17.083375,9.575375 17.083375,11.64925 17.083375,15.833375 L7.91670833,15.833375 Z" id="Path" stroke="#A5B7C0" stroke-linejoin="round"></path>
        </g>
    </g>
</svg>