<?xml version="1.0" encoding="UTF-8"?>
<svg width="20px" height="20px" viewBox="0 0 20 20" version="1.1" xmlns="http://www.w3.org/2000/svg" xmlns:xlink="http://www.w3.org/1999/xlink">
    <title>headphone-sound</title>
    <g id="Page-1" stroke="none" stroke-width="1" fill="none" fill-rule="evenodd">
        <g id="headphone-sound">
            <rect id="Rectangle" fill-opacity="0.01" fill="#FFFFFF" fill-rule="nonzero" x="0" y="0" width="20" height="20"></rect>
            <path d="M1.66666667,11.6666667 C1.66666667,11.2064167 2.0397625,10.8333333 2.5,10.8333333 L4.16666667,10.8333333 L4.16666667,15.8333333 L2.5,15.8333333 C2.0397625,15.8333333 1.66666667,15.46025 1.66666667,15 L1.66666667,11.6666667 Z" id="Path"></path>
            <path d="M15.8333333,10.8333333 L17.5,10.8333333 C17.96025,10.8333333 18.3333333,11.2064167 18.3333333,11.6666667 L18.3333333,15 C18.3333333,15.46025 17.96025,15.8333333 17.5,15.8333333 L15.8333333,15.8333333 L15.8333333,10.8333333 Z" id="Path"></path>
            <path d="M4.16666667,15 L4.16666667,10 C4.16666667,6.77833333 6.77833333,4.16666667 10,4.16666667 C13.2216667,4.16666667 15.8333333,6.77833333 15.8333333,10 L15.8333333,15 M4.16666667,10.8333333 L2.5,10.8333333 C2.0397625,10.8333333 1.66666667,11.2064167 1.66666667,11.6666667 L1.66666667,15 C1.66666667,15.46025 2.0397625,15.8333333 2.5,15.8333333 L4.16666667,15.8333333 L4.16666667,10.8333333 Z M15.8333333,10.8333333 L17.5,10.8333333 C17.96025,10.8333333 18.3333333,11.2064167 18.3333333,11.6666667 L18.3333333,15 C18.3333333,15.46025 17.96025,15.8333333 17.5,15.8333333 L15.8333333,15.8333333 L15.8333333,10.8333333 Z" id="Shape" stroke="#A5B7C0" stroke-linecap="round" stroke-linejoin="round"></path>
            <polyline id="Path" stroke="#A5B7C0" stroke-linecap="round" stroke-linejoin="round" points="6.66666667 13.3333333 8.33333333 13.3333333 9.16666667 10.8333333 10.8333333 15.8333333 11.6666667 13.3333333 13.3333333 13.3333333"></polyline>
        </g>
    </g>
</svg>