<?xml version="1.0" encoding="UTF-8"?>
<svg width="20px" height="20px" viewBox="0 0 20 20" version="1.1" xmlns="http://www.w3.org/2000/svg" xmlns:xlink="http://www.w3.org/1999/xlink">
    <title>headset</title>
    <g id="Page-1" stroke="none" stroke-width="1" fill="none" fill-rule="evenodd">
        <g id="headset">
            <rect id="Rectangle" fill-opacity="0.01" fill="#FFFFFF" fill-rule="nonzero" x="0" y="0" width="20" height="20"></rect>
            <path d="M17.5,12.5 L17.5,10.1922917 C17.5,5.94395833 14.142125,2.5 10,2.5 C5.857875,2.5 2.5,5.94395833 2.5,10.1922917 L2.5,12.5" id="Path" stroke="#A5B7C0" stroke-linecap="round" stroke-linejoin="round"></path>
            <path d="M14.1666667,13.3333333 C14.1666667,12.412875 14.912875,11.6666667 15.8333333,11.6666667 L17.5,11.6666667 L17.5,17.5 L15.8333333,17.5 C14.912875,17.5 14.1666667,16.7537917 14.1666667,15.8333333 L14.1666667,13.3333333 Z" id="Path" stroke="#A5B7C0" stroke-linejoin="round"></path>
            <path d="M17.5,13.3333333 L18.3333333,13.3333333 C18.7935833,13.3333333 19.1666667,13.7064167 19.1666667,14.1666667 L19.1666667,15 C19.1666667,15.46025 18.7935833,15.8333333 18.3333333,15.8333333 L17.5,15.8333333 L17.5,13.3333333 Z" id="Path" fill="#A5B7C0" fill-rule="nonzero"></path>
            <path d="M2.5,13.3333333 L1.66666667,13.3333333 C1.20642917,13.3333333 0.833333333,13.7064167 0.833333333,14.1666667 L0.833333333,15 C0.833333333,15.46025 1.20642917,15.8333333 1.66666667,15.8333333 L2.5,15.8333333 L2.5,13.3333333 Z" id="Path" fill="#A5B7C0" fill-rule="nonzero"></path>
            <path d="M2.5,11.6666667 L4.16666667,11.6666667 C5.087125,11.6666667 5.83333333,12.412875 5.83333333,13.3333333 L5.83333333,15.8333333 C5.83333333,16.7537917 5.087125,17.5 4.16666667,17.5 L2.5,17.5 L2.5,11.6666667 Z" id="Path" stroke="#A5B7C0" stroke-linejoin="round"></path>
        </g>
    </g>
</svg>