<?xml version="1.0" encoding="UTF-8"?>
<svg width="20px" height="20px" viewBox="0 0 20 20" version="1.1" xmlns="http://www.w3.org/2000/svg" xmlns:xlink="http://www.w3.org/1999/xlink">
    <title>headset-one</title>
    <g id="Page-1" stroke="none" stroke-width="1" fill="none" fill-rule="evenodd">
        <g id="headset-one">
            <rect id="Rectangle" fill-opacity="0.01" fill="#FFFFFF" fill-rule="nonzero" x="0" y="0" width="20" height="20"></rect>
            <path d="M15,13.3333333 C16.8409583,13.3333333 18.3333333,11.8409583 18.3333333,10 C18.3333333,8.15904167 16.8409583,6.66666667 15,6.66666667" id="Path"></path>
            <path d="M15,13.3333333 L15,13.3333333 C16.8409583,13.3333333 18.3333333,11.8409583 18.3333333,10 C18.3333333,8.15904167 16.8409583,6.66666667 15,6.66666667" id="Path" stroke="#A5B7C0" stroke-linejoin="round"></path>
            <path d="M5,6.66666667 C3.15905,6.66666667 1.66666667,8.15904167 1.66666667,10 C1.66666667,11.8409583 3.15905,13.3333333 5,13.3333333" id="Path"></path>
            <path d="M5,6.66666667 C3.15905,6.66666667 1.66666667,8.15904167 1.66666667,10 C1.66666667,11.8409583 3.15905,13.3333333 5,13.3333333 L5,13.3333333" id="Path" stroke="#A5B7C0" stroke-linejoin="round"></path>
            <path d="M5,13.3333333 L5,13.125 L5,12.0833333 L5,10 L5,6.66666667 C5,3.90524167 7.23858333,1.66666667 10,1.66666667 C12.7614167,1.66666667 15,3.90524167 15,6.66666667 L15,13.3333333 C15,16.09475 12.7614167,18.3333333 10,18.3333333" id="Path" stroke="#A5B7C0" stroke-linecap="round" stroke-linejoin="round"></path>
        </g>
    </g>
</svg>