<?xml version="1.0" encoding="UTF-8"?>
<svg width="20px" height="20px" viewBox="0 0 20 20" version="1.1" xmlns="http://www.w3.org/2000/svg" xmlns:xlink="http://www.w3.org/1999/xlink">
    <title>heart</title>
    <g id="Page-1" stroke="none" stroke-width="1" fill="none" fill-rule="evenodd">
        <g id="heart">
            <rect id="Rectangle" fill-opacity="0.01" fill="#FFFFFF" fill-rule="nonzero" x="0" y="0" width="20" height="20"></rect>
            <path d="M6.05820833,8.34108333 C5.35508333,7.47641667 4.69479167,7.29079167 4.07735,7.78420833 C3.15120833,8.52429167 2.88522083,11.104 3.63051667,13.3785833 C4.37583333,15.6531667 5.82504167,18.7507083 8.75066667,18.7507083 C11.6762917,18.7507083 12.3683333,15.63425 13.561875,13.7500417 C14.7554167,11.8658333 15.386875,10.048 14.217,7.78420833" id="Path" stroke="#A5B7C0" stroke-linecap="round" stroke-linejoin="round"></path>
            <path d="M4.58333333,7.51533333 C3.87377917,6.4345 3.318225,5.59608333 2.91665,5.00008333 C2.31429167,4.1061 3.8546125,2.95068333 4.58333333,3.73669583 C5.069125,4.26070833 5.7145,5.0325 6.51941667,6.05204167" id="Path" stroke="#A5B7C0" stroke-linecap="round"></path>
            <path d="M6.25983333,10.6831667 C6.05795833,8.156625 6.22220833,6.5115 6.75258333,5.74779167 C7.548125,4.60229167 9.02629167,4.16795833 10.418125,4.16795833 C11.2468333,4.16795833 12.003625,4.52091667 12.6885417,5.22683333" id="Path" stroke="#A5B7C0" stroke-linecap="round" stroke-linejoin="round"></path>
            <path d="M17.0834583,5.25533333 C17.3274167,6.10383333 16.9289167,6.87904167 15.7018333,7.05458333 C14.4747083,7.230125 13.5547083,7.84716667 12.8911667,8.36625 C12.227625,8.88533333 11.0409583,10.46025 10.8067083,11.2509583 C10.5724167,12.0416667 9.23341667,11.3144583 8.87379167,10.9987917 C8.51416667,10.6830833 8.160625,9.99191667 8.87379167,9.26904167 C9.58691667,8.54616667 9.432625,8.40191667 9.432625,7.66883333 C9.432625,6.93579167 13.3334583,4.51095833 15.530375,4.28920833 C16.0187083,4.26070833 16.8394583,4.40679167 17.0834583,5.25533333 Z" id="Path" stroke="#A5B7C0"></path>
            <line x1="9.58658333" y1="1.666725" x2="9.58658333" y2="3.8595125" id="Path" stroke="#A5B7C0" stroke-linecap="round"></line>
            <path d="M8.46108333,4.46575 C7.20366667,2.88555833 6.18979167,2.00361667 5.4195,1.81992083" id="Path" stroke="#A5B7C0" stroke-linecap="round"></path>
            <line x1="7.08495833" y1="2.928725" x2="7.49766667" y2="1.23398333" id="Path" stroke="#A5B7C0" stroke-linecap="round"></line>
            <path d="M14.8386667,4.46558333 C14.704375,4.92579167 14.704375,5.35729167 14.8386667,5.76004167 C14.9729167,6.16283333 15.260625,6.59433333 15.70175,7.0545" id="Path" stroke="#A5B7C0" stroke-linecap="round"></path>
        </g>
    </g>
</svg>