<?xml version="1.0" encoding="UTF-8"?>
<svg width="20px" height="20px" viewBox="0 0 20 20" version="1.1" xmlns="http://www.w3.org/2000/svg" xmlns:xlink="http://www.w3.org/1999/xlink">
    <title>help</title>
    <g id="Page-1" stroke="none" stroke-width="1" fill="none" fill-rule="evenodd">
        <g id="help">
            <rect id="Rectangle" fill-opacity="0.01" fill="#FFFFFF" fill-rule="nonzero" x="0" y="0" width="20" height="20"></rect>
            <path d="M10,18.3333333 C12.3011667,18.3333333 14.3845,17.4005833 15.8925417,15.8925417 C17.4005833,14.3845 18.3333333,12.3011667 18.3333333,10 C18.3333333,7.69883333 17.4005833,5.6155 15.8925417,4.10744167 C14.3845,2.59940833 12.3011667,1.66666667 10,1.66666667 C7.69883333,1.66666667 5.6155,2.59940833 4.10744167,4.10744167 C2.59940833,5.6155 1.66666667,7.69883333 1.66666667,10 C1.66666667,12.3011667 2.59940833,14.3845 4.10744167,15.8925417 C5.6155,17.4005833 7.69883333,18.3333333 10,18.3333333 Z" id="Path" stroke="#A5B7C0" stroke-linejoin="round"></path>
            <path d="M10,11.9270417 L10,10.260375 C11.3807083,10.260375 12.5,9.14108333 12.5,7.760375 C12.5,6.37966667 11.3807083,5.260375 10,5.260375 C8.61929167,5.260375 7.5,6.37966667 7.5,7.760375" id="Path" stroke="#A5B7C0" stroke-linecap="round" stroke-linejoin="round"></path>
            <path d="M10,15.6770417 C10.5752917,15.6770417 11.0416667,15.2106667 11.0416667,14.635375 C11.0416667,14.0600833 10.5752917,13.5937083 10,13.5937083 C9.42470833,13.5937083 8.95833333,14.0600833 8.95833333,14.635375 C8.95833333,15.2106667 9.42470833,15.6770417 10,15.6770417 Z" id="Path" fill="#A5B7C0"></path>
        </g>
    </g>
</svg>