<?xml version="1.0" encoding="UTF-8"?>
<svg width="20px" height="20px" viewBox="0 0 20 20" version="1.1" xmlns="http://www.w3.org/2000/svg" xmlns:xlink="http://www.w3.org/1999/xlink">
    <title>hockey</title>
    <g id="Page-1" stroke="none" stroke-width="1" fill="none" fill-rule="evenodd">
        <g id="hockey">
            <rect id="Rectangle" fill-opacity="0.01" fill="#FFFFFF" fill-rule="nonzero" x="0" y="0" width="20" height="20"></rect>
            <g id="Group-3" transform="translate(2.500000, 1.666667)" stroke="#A5B7C0" stroke-linecap="round" stroke-linejoin="round" stroke-width="0.833333333">
                <path d="M12.5,7.40148683e-15 L10.0958333,11.4208333 C10.0125,11.8083333 9.675,12.0833333 9.27916667,12.0833333 L1.25,12.0833333 C0.558333333,12.0833333 0,12.6416667 0,13.3333333 L0,13.9791667 C0,15.4291667 1.22916667,16.575 2.67916667,16.4708333 L9.7875,15.9625 C10.9,15.8833333 11.825,15.075 12.0541667,13.9833333 L15,7.40148683e-15 L12.5,7.40148683e-15 Z" id="Path"></path>
                <path d="M3.75,5 C5.59095833,5 7.08333333,4.440375 7.08333333,3.75 C7.08333333,3.059625 5.59095833,2.5 3.75,2.5 C1.90904167,2.5 0.416666667,3.059625 0.416666667,3.75 C0.416666667,4.440375 1.90904167,5 3.75,5 Z" id="Path"></path>
                <path d="M7.08333333,3.75 L7.08333333,6.25 C7.08333333,6.94166667 5.59166667,7.5 3.75,7.5 C1.90833333,7.5 0.416666667,6.94166667 0.416666667,6.25 L0.416666667,3.75" id="Path"></path>
            </g>
        </g>
    </g>
</svg>