<?xml version="1.0" encoding="UTF-8"?>
<svg width="20px" height="20px" viewBox="0 0 20 20" version="1.1" xmlns="http://www.w3.org/2000/svg" xmlns:xlink="http://www.w3.org/1999/xlink">
    <title>honey</title>
    <g id="Page-1" stroke="none" stroke-width="1" fill="none" fill-rule="evenodd">
        <g id="honey">
            <rect id="Rectangle" fill-opacity="0.01" fill="#FFFFFF" fill-rule="nonzero" x="0" y="0" width="20" height="20"></rect>
            <path d="M6.08875,2.01774583 L4.13488333,3.97159583 C3.59534167,4.511125 3.59534167,5.38591667 4.13488333,5.92545833 C4.67441667,6.465 5.54920833,6.465 6.08875,5.92545833 L8.04258333,3.97159583 C8.582125,3.43205417 8.582125,2.5572875 8.04258333,2.01774583 C7.50304167,1.47820417 6.62825,1.47820833 6.08875,2.01774583 Z" id="Path" stroke="#A5B7C0"></path>
            <path d="M10.3220833,5.599875 L7.71691667,8.205 C7.177375,8.74454167 7.177375,9.61929167 7.71691667,10.1588333 C8.25645833,10.698375 9.13125,10.698375 9.67079167,10.1588333 L12.2759167,7.55370833 C12.8154583,7.01416667 12.8154583,6.13941667 12.2759167,5.599875 C11.736375,5.06033333 10.861625,5.06033333 10.3220833,5.599875 Z" id="Path" stroke="#A5B7C0"></path>
            <path d="M11.9502917,7.87933333 L17.6877917,13.6167917 C18.116,14.045 18.02575,14.8295417 17.4862083,15.3690417 C16.9466667,15.9085833 16.162125,15.998875 15.7339167,15.5706667 L9.99645833,9.83316667" id="Path" stroke="#A5B7C0"></path>
            <path d="M9.34516667,2.66904583 L4.78616667,7.22804167 C4.246625,7.76758333 4.246625,8.64233333 4.78616667,9.181875 C5.32570833,9.72141667 6.2005,9.72141667 6.74004167,9.181875 L11.299,4.622875 C11.8385417,4.08335417 11.8385417,3.2085875 11.299,2.66904583 C10.7594583,2.12950417 9.88470833,2.12950417 9.34516667,2.66904583 Z" id="Path" stroke="#A5B7C0"></path>
            <path d="M5.77270833,9.64254167 C6.365875,11.4911667 6.26708333,12.857 5.47641667,13.74 C4.290375,15.0644583 4.47483333,18.3925417 7.154375,18.3925417 C9.83391667,18.3925417 10.621,15.0644583 8.35108333,13.8969583" id="Path" stroke="#A5B7C0" stroke-linecap="round"></path>
        </g>
    </g>
</svg>