<?xml version="1.0" encoding="UTF-8"?>
<svg width="20px" height="20px" viewBox="0 0 20 20" version="1.1" xmlns="http://www.w3.org/2000/svg" xmlns:xlink="http://www.w3.org/1999/xlink">
    <title>i-mac</title>
    <g id="Page-1" stroke="none" stroke-width="1" fill="none" fill-rule="evenodd">
        <g id="i-mac">
            <rect id="Rectangle" fill-opacity="0.01" fill="#FFFFFF" fill-rule="nonzero" x="0" y="0" width="20" height="20"></rect>
            <polygon id="Path" fill-opacity="0.01" fill="#FFFFFF" fill-rule="nonzero" points="20 0 0 0 0 20 20 20"></polygon>
            <polygon id="Path" stroke="#A5B7C0" stroke-linejoin="round" points="1.66666667 2.5 18.3333333 2.5 18.3333333 11.6666667 1.66666667 11.6666667"></polygon>
            <polyline id="Path" stroke="#A5B7C0" stroke-linecap="round" stroke-linejoin="round" points="18.3333333 11.6666667 18.3333333 15 1.66666667 15 1.66666667 11.6666667"></polyline>
            <path d="M5.45454167,7.5 L4.54545833,7.5 C4.33625,7.5 4.16666667,7.66958333 4.16666667,7.87879167 L4.16666667,8.787875 C4.16666667,8.99708333 4.33625,9.16666667 4.54545833,9.16666667 L5.45454167,9.16666667 C5.66375,9.16666667 5.83333333,8.99708333 5.83333333,8.787875 L5.83333333,7.87879167 C5.83333333,7.66958333 5.66375,7.5 5.45454167,7.5 Z" id="Path" fill="#A5B7C0" fill-rule="nonzero"></path>
            <path d="M5.45454167,5 L4.54545833,5 C4.33625,5 4.16666667,5.16958333 4.16666667,5.37879167 L4.16666667,6.287875 C4.16666667,6.49708333 4.33625,6.66666667 4.54545833,6.66666667 L5.45454167,6.66666667 C5.66375,6.66666667 5.83333333,6.49708333 5.83333333,6.287875 L5.83333333,5.37879167 C5.83333333,5.16958333 5.66375,5 5.45454167,5 Z" id="Path" fill="#A5B7C0" fill-rule="nonzero"></path>
            <path d="M8.787875,7.5 L7.87879167,7.5 C7.66958333,7.5 7.5,7.66958333 7.5,7.87879167 L7.5,8.787875 C7.5,8.99708333 7.66958333,9.16666667 7.87879167,9.16666667 L8.787875,9.16666667 C8.99708333,9.16666667 9.16666667,8.99708333 9.16666667,8.787875 L9.16666667,7.87879167 C9.16666667,7.66958333 8.99708333,7.5 8.787875,7.5 Z" id="Path" fill="#A5B7C0" fill-rule="nonzero"></path>
            <path d="M8.787875,5 L7.87879167,5 C7.66958333,5 7.5,5.16958333 7.5,5.37879167 L7.5,6.287875 C7.5,6.49708333 7.66958333,6.66666667 7.87879167,6.66666667 L8.787875,6.66666667 C8.99708333,6.66666667 9.16666667,6.49708333 9.16666667,6.287875 L9.16666667,5.37879167 C9.16666667,5.16958333 8.99708333,5 8.787875,5 Z" id="Path" fill="#A5B7C0" fill-rule="nonzero"></path>
            <path d="M12.1212083,7.5 L11.212125,7.5 C11.0029167,7.5 10.8333333,7.66958333 10.8333333,7.87879167 L10.8333333,8.787875 C10.8333333,8.99708333 11.0029167,9.16666667 11.212125,9.16666667 L12.1212083,9.16666667 C12.3304167,9.16666667 12.5,8.99708333 12.5,8.787875 L12.5,7.87879167 C12.5,7.66958333 12.3304167,7.5 12.1212083,7.5 Z" id="Path" fill="#A5B7C0" fill-rule="nonzero"></path>
            <path d="M12.1212083,5 L11.212125,5 C11.0029167,5 10.8333333,5.16958333 10.8333333,5.37879167 L10.8333333,6.287875 C10.8333333,6.49708333 11.0029167,6.66666667 11.212125,6.66666667 L12.1212083,6.66666667 C12.3304167,6.66666667 12.5,6.49708333 12.5,6.287875 L12.5,5.37879167 C12.5,5.16958333 12.3304167,5 12.1212083,5 Z" id="Path" fill="#A5B7C0" fill-rule="nonzero"></path>
            <path d="M15.4545417,5 L14.5454583,5 C14.33625,5 14.1666667,5.16958333 14.1666667,5.37879167 L14.1666667,6.287875 C14.1666667,6.49708333 14.33625,6.66666667 14.5454583,6.66666667 L15.4545417,6.66666667 C15.66375,6.66666667 15.8333333,6.49708333 15.8333333,6.287875 L15.8333333,5.37879167 C15.8333333,5.16958333 15.66375,5 15.4545417,5 Z" id="Path" fill="#A5B7C0" fill-rule="nonzero"></path>
            <polyline id="Path" stroke="#A5B7C0" stroke-linecap="round" stroke-linejoin="round" points="8.68591667 15 6.66666667 17.5 13.3333333 17.5 11.3140833 15"></polyline>
        </g>
    </g>
</svg>