<?xml version="1.0" encoding="UTF-8"?>
<svg width="20px" height="20px" viewBox="0 0 20 20" version="1.1" xmlns="http://www.w3.org/2000/svg" xmlns:xlink="http://www.w3.org/1999/xlink">
    <title>imbalance</title>
    <g id="Page-1" stroke="none" stroke-width="1" fill="none" fill-rule="evenodd">
        <g id="imbalance">
            <rect id="Rectangle" fill-opacity="0.01" fill="#FFFFFF" fill-rule="nonzero" x="0" y="0" width="20" height="20"></rect>
            <line x1="10" y1="7.91666667" x2="10" y2="1.66666667" id="Path" stroke="#A5B7C0" stroke-linecap="round" stroke-linejoin="round"></line>
            <polyline id="Path" stroke="#A5B7C0" stroke-linecap="round" stroke-linejoin="round" points="5 9.16666667 10 7.91666667 15 6.66666667"></polyline>
            <line x1="11.6666667" y1="12.5" x2="15" y2="6.66666667" id="Path" stroke="#A5B7C0" stroke-linecap="round" stroke-linejoin="round"></line>
            <line x1="18.3333333" y1="12.5" x2="15" y2="6.66666667" id="Path" stroke="#A5B7C0" stroke-linecap="round" stroke-linejoin="round"></line>
            <line x1="8.33333333" y1="15" x2="5" y2="9.16666667" id="Path" stroke="#A5B7C0" stroke-linecap="round" stroke-linejoin="round"></line>
            <line x1="1.66666667" y1="15" x2="5" y2="9.16666667" id="Path" stroke="#A5B7C0" stroke-linecap="round" stroke-linejoin="round"></line>
            <path d="M5,18.3333333 C6.84095833,18.3333333 8.33333333,16.8409583 8.33333333,15 L1.66666667,15 C1.66666667,16.8409583 3.15905,18.3333333 5,18.3333333 Z" id="Path" stroke="#A5B7C0" stroke-linecap="round" stroke-linejoin="round"></path>
            <path d="M15,15.8333333 C16.8409583,15.8333333 18.3333333,14.3409583 18.3333333,12.5 L11.6666667,12.5 C11.6666667,14.3409583 13.1590417,15.8333333 15,15.8333333 Z" id="Path" stroke="#A5B7C0" stroke-linecap="round" stroke-linejoin="round"></path>
        </g>
    </g>
</svg>