<?xml version="1.0" encoding="UTF-8"?>
<svg width="20px" height="20px" viewBox="0 0 20 20" version="1.1" xmlns="http://www.w3.org/2000/svg" xmlns:xlink="http://www.w3.org/1999/xlink">
    <title>index-finger</title>
    <g id="Page-1" stroke="none" stroke-width="1" fill="none" fill-rule="evenodd">
        <g id="index-finger">
            <rect id="Rectangle" fill-opacity="0.01" fill="#FFFFFF" fill-rule="nonzero" x="0" y="0" width="20" height="20"></rect>
            <path d="M5.23575,10.9094167 C4.52304167,11.3976667 4.16666667,12.2056667 4.16666667,13.3334583 C4.16666667,15.0251667 6.23970833,17.9167917 8.10908333,17.9167917 C9.97845833,17.9167917 11.0625833,17.9167917 12.8922917,17.9167917 C14.722,17.9167917 15.8333333,16.312375 15.8333333,15.0251667 C15.8333333,13.2125417 15.8333333,11.399875 15.8333333,9.58725 C15.8333333,8.89691667 15.2737083,8.33725 14.5833333,8.33725 L14.5795417,8.33725 C13.8912917,8.33725 13.3333333,8.89520833 13.3333333,9.58345833" id="Path" stroke="#A5B7C0" stroke-linecap="round"></path>
            <path d="M5.8255,11.8522083 L5.8255,3.33583333 C5.8255,2.6460375 6.38470833,2.08685 7.0745,2.08685 C7.075625,2.08685 7.07679167,2.08685 7.07795833,2.08685 C7.77020833,2.08877083 8.330375,2.65049583 8.330375,3.3427625 L8.330375,9.83004167" id="Path" stroke="#A5B7C0" stroke-linecap="round"></path>
            <path d="M8.330375,9.586875 L8.330375,7.92316667 C8.330375,7.22925 8.89291667,6.66670833 9.58683333,6.66670833 C10.28075,6.66670833 10.8432917,7.22925 10.8432917,7.92316667 L10.8432917,9.586875" id="Path" stroke="#A5B7C0" stroke-linecap="round" stroke-linejoin="round"></path>
            <path d="M10.8333333,9.46495833 L10.8333333,8.33483333 C10.8333333,7.64445833 11.3929583,7.08483333 12.0833333,7.08483333 C12.7737083,7.08483333 13.3333333,7.64445833 13.3333333,8.33483333 L13.3333333,9.58483333" id="Path" stroke="#A5B7C0" stroke-linecap="round" stroke-linejoin="round"></path>
        </g>
    </g>
</svg>