<?xml version="1.0" encoding="UTF-8"?>
<svg width="20px" height="20px" viewBox="0 0 20 20" version="1.1" xmlns="http://www.w3.org/2000/svg" xmlns:xlink="http://www.w3.org/1999/xlink">
    <title>info</title>
    <g id="Page-1" stroke="none" stroke-width="1" fill="none" fill-rule="evenodd">
        <g id="info">
            <rect id="Rectangle" fill-opacity="0.01" fill="#FFFFFF" fill-rule="nonzero" x="0" y="0" width="20" height="20"></rect>
            <path d="M10,18.3333333 C12.3011667,18.3333333 14.3845,17.4005833 15.8925417,15.8925417 C17.4005833,14.3845 18.3333333,12.3011667 18.3333333,10 C18.3333333,7.69883333 17.4005833,5.6155 15.8925417,4.10744167 C14.3845,2.59940833 12.3011667,1.66666667 10,1.66666667 C7.69883333,1.66666667 5.6155,2.59940833 4.10744167,4.10744167 C2.59940833,5.6155 1.66666667,7.69883333 1.66666667,10 C1.66666667,12.3011667 2.59940833,14.3845 4.10744167,15.8925417 C5.6155,17.4005833 7.69883333,18.3333333 10,18.3333333 Z" id="Path" stroke="#A5B7C0" stroke-linejoin="round"></path>
            <path d="M10,4.58333333 C10.5752917,4.58333333 11.0416667,5.04970833 11.0416667,5.625 C11.0416667,6.20029167 10.5752917,6.66666667 10,6.66666667 C9.42470833,6.66666667 8.95833333,6.20029167 8.95833333,5.625 C8.95833333,5.04970833 9.42470833,4.58333333 10,4.58333333 Z" id="Path" fill="#A5B7C0"></path>
            <polyline id="Path" stroke="#A5B7C0" stroke-linecap="round" stroke-linejoin="round" points="10.2083333 14.1666667 10.2083333 8.33333333 9.79166667 8.33333333 9.375 8.33333333"></polyline>
            <line x1="8.75" y1="14.1666667" x2="11.6666667" y2="14.1666667" id="Path" stroke="#A5B7C0" stroke-linecap="round" stroke-linejoin="round"></line>
        </g>
    </g>
</svg>