<?xml version="1.0" encoding="UTF-8"?>
<svg width="20px" height="20px" viewBox="0 0 20 20" version="1.1" xmlns="http://www.w3.org/2000/svg" xmlns:xlink="http://www.w3.org/1999/xlink">
    <title>instagram</title>
    <g id="Page-1" stroke="none" stroke-width="1" fill="none" fill-rule="evenodd">
        <g id="instagram">
            <rect id="Rectangle" fill-opacity="0.01" fill="#FFFFFF" fill-rule="nonzero" x="0" y="0" width="20" height="20"></rect>
            <path d="M14.1666667,2.5 L5.83333333,2.5 C3.99238333,2.5 2.5,3.99238333 2.5,5.83333333 L2.5,14.1666667 C2.5,16.007625 3.99238333,17.5 5.83333333,17.5 L14.1666667,17.5 C16.007625,17.5 17.5,16.007625 17.5,14.1666667 L17.5,5.83333333 C17.5,3.99238333 16.007625,2.5 14.1666667,2.5 Z" id="Path" stroke="#A5B7C0" stroke-linejoin="round"></path>
            <path d="M10,13.3333333 C11.8409583,13.3333333 13.3333333,11.8409583 13.3333333,10 C13.3333333,8.15904167 11.8409583,6.66666667 10,6.66666667 C8.15904167,6.66666667 6.66666667,8.15904167 6.66666667,10 C6.66666667,11.8409583 8.15904167,13.3333333 10,13.3333333 Z" id="Path" stroke="#A5B7C0" stroke-linejoin="round"></path>
            <path d="M14.5833333,6.25 C15.0435833,6.25 15.4166667,5.87691667 15.4166667,5.41666667 C15.4166667,4.95641667 15.0435833,4.58333333 14.5833333,4.58333333 C14.1230833,4.58333333 13.75,4.95641667 13.75,5.41666667 C13.75,5.87691667 14.1230833,6.25 14.5833333,6.25 Z" id="Path" fill="#A5B7C0" fill-rule="nonzero"></path>
        </g>
    </g>
</svg>