<?xml version="1.0" encoding="UTF-8"?>
<svg width="20px" height="20px" viewBox="0 0 20 20" version="1.1" xmlns="http://www.w3.org/2000/svg" xmlns:xlink="http://www.w3.org/1999/xlink">
    <title>instagram-one</title>
    <g id="Page-1" stroke="none" stroke-width="1" fill="none" fill-rule="evenodd">
        <g id="instagram-one">
            <rect id="Rectangle" fill-opacity="0.01" fill="#FFFFFF" fill-rule="nonzero" x="0" y="0" width="20" height="20"></rect>
            <circle id="Oval" stroke="#A5B7C0" cx="3.75" cy="3.33337083" r="1.66666667"></circle>
            <rect id="Rectangle" stroke="#A5B7C0" stroke-linejoin="round" x="2.08333333" y="7.50004167" width="3.33333333" height="10.4166667"></rect>
            <path d="M11.6666667,17.9167083 L8.75,17.9167083 L8.75,12.083375 C8.75,9.55208333 10.8020417,7.50004167 13.3333333,7.50004167 C15.864625,7.50004167 17.9166667,9.55208333 17.9166667,12.083375 L17.9166667,17.9167083 L15,17.9167083 L15,12.00525 C15,11.0847917 14.2537917,10.3385833 13.3333333,10.3385833 C12.412875,10.3385833 11.6666667,11.0847917 11.6666667,12.00525 L11.6666667,17.9167083 Z" id="Path"></path>
            <path d="M8.75,17.9167083 L7.91666667,17.9167083 C7.91666667,18.3769583 8.28975,18.7500417 8.75,18.7500417 L8.75,17.9167083 Z M11.6666667,17.9167083 L11.6666667,18.7500417 C12.1269167,18.7500417 12.5,18.3769583 12.5,17.9167083 L11.6666667,17.9167083 Z M15,17.9167083 L14.1666667,17.9167083 C14.1666667,18.3769583 14.53975,18.7500417 15,18.7500417 L15,17.9167083 Z M17.9166667,17.9167083 L17.9166667,18.7500417 C18.3769167,18.7500417 18.75,18.3769583 18.75,17.9167083 L17.9166667,17.9167083 Z M8.75,18.7500417 L11.6666667,18.7500417 L11.6666667,17.083375 L8.75,17.083375 L8.75,18.7500417 Z M12.5,17.9167083 L12.5,12.00525 L10.8333333,12.00525 L10.8333333,17.9167083 L12.5,17.9167083 Z M14.1666667,12.00525 L14.1666667,17.9167083 L15.8333333,17.9167083 L15.8333333,12.00525 L14.1666667,12.00525 Z M15,18.7500417 L17.9166667,18.7500417 L17.9166667,17.083375 L15,17.083375 L15,18.7500417 Z M18.75,17.9167083 L18.75,12.083375 L17.0833333,12.083375 L17.0833333,17.9167083 L18.75,17.9167083 Z M7.91666667,12.083375 L7.91666667,17.9167083 L9.58333333,17.9167083 L9.58333333,12.083375 L7.91666667,12.083375 Z M18.75,12.083375 C18.75,9.09183333 16.324875,6.66670833 13.3333333,6.66670833 L13.3333333,8.333375 C15.4044167,8.333375 17.0833333,10.0122917 17.0833333,12.083375 L18.75,12.083375 Z M13.3333333,11.1719167 C13.7935833,11.1719167 14.1666667,11.545 14.1666667,12.00525 L15.8333333,12.00525 C15.8333333,10.6245417 14.7140417,9.50525 13.3333333,9.50525 L13.3333333,11.1719167 Z M13.3333333,6.66670833 C10.3417917,6.66670833 7.91666667,9.09183333 7.91666667,12.083375 L9.58333333,12.083375 C9.58333333,10.0122917 11.26225,8.333375 13.3333333,8.333375 L13.3333333,6.66670833 Z M12.5,12.00525 C12.5,11.545 12.8730833,11.1719167 13.3333333,11.1719167 L13.3333333,9.50525 C11.952625,9.50525 10.8333333,10.6245417 10.8333333,12.00525 L12.5,12.00525 Z" id="Shape" fill="#A5B7C0" fill-rule="nonzero"></path>
        </g>
    </g>
</svg>