<?xml version="1.0" encoding="UTF-8"?>
<svg width="20px" height="20px" viewBox="0 0 20 20" version="1.1" xmlns="http://www.w3.org/2000/svg" xmlns:xlink="http://www.w3.org/1999/xlink">
    <title>international</title>
    <g id="Page-1" stroke="none" stroke-width="1" fill="none" fill-rule="evenodd">
        <g id="international">
            <rect id="Rectangle" fill-opacity="0.01" fill="#FFFFFF" fill-rule="nonzero" x="0" y="0" width="20" height="20"></rect>
            <path d="M10,18.3334167 C14.602375,18.3334167 18.3333333,14.6024583 18.3333333,10.0000833 C18.3333333,5.39770833 14.602375,1.66676667 10,1.66676667 C5.397625,1.66676667 1.66666667,5.39770833 1.66666667,10.0000833 C1.66666667,14.6024583 5.397625,18.3334167 10,18.3334167 Z" id="Path" stroke="#A5B7C0"></path>
            <path d="M2.5,12.9106667 C3.59663333,13.3504167 4.38608333,13.3504167 4.86829167,12.9106667 C5.591625,12.2510417 4.96745833,10.2490833 5.9805,9.69695833 C6.9935,9.14483333 8.53691667,11.59225 9.9795,10.7869583 C11.4220417,9.981625 9.84358333,7.83429167 10.8446667,6.96375 C11.84575,6.09320833 13.1475,7.075 13.3750417,5.619375 C13.6025833,4.16376667 12.313375,4.79508333 12.066,3.41955417 C11.9010417,2.50254583 11.9010417,2.02035 12.066,1.9729625" id="Path" stroke="#A5B7C0" stroke-linecap="round"></path>
            <path d="M12.0920833,18.0627083 C11.3112083,17.2635417 11.0300833,16.5207083 11.24875,15.834125 C11.57675,14.8042917 12.1177917,14.8651667 12.3537083,14.2284167 C12.5895833,13.591625 11.9232083,12.6847083 13.4018333,11.9094167 C14.3875833,11.3925417 15.7429583,11.9914167 17.467875,13.706" id="Path" stroke="#A5B7C0" stroke-linecap="round"></path>
        </g>
    </g>
</svg>