<?xml version="1.0" encoding="UTF-8"?>
<svg width="20px" height="20px" viewBox="0 0 20 20" version="1.1" xmlns="http://www.w3.org/2000/svg" xmlns:xlink="http://www.w3.org/1999/xlink">
    <title>iwatch-one</title>
    <g id="Page-1" stroke="none" stroke-width="1" fill="none" fill-rule="evenodd">
        <g id="iwatch-one">
            <rect id="Rectangle" fill-opacity="0.01" fill="#FFFFFF" fill-rule="nonzero" x="0" y="0" width="20" height="20"></rect>
            <rect id="Rectangle" stroke="#A5B7C0" x="5.41666667" y="5" width="9.16666667" height="10" rx="1"></rect>
            <line x1="10" y1="5" x2="10" y2="7.5" id="Path" stroke="#A5B7C0" stroke-linecap="round" stroke-linejoin="round"></line>
            <line x1="10" y1="12.5" x2="10" y2="15" id="Path" stroke="#A5B7C0" stroke-linecap="round" stroke-linejoin="round"></line>
            <line x1="14.5832083" y1="9.97254167" x2="12.0833333" y2="10" id="Path" stroke="#A5B7C0" stroke-linecap="round" stroke-linejoin="round"></line>
            <line x1="7.91666667" y1="10" x2="5.41679167" y2="10.0274583" id="Path" stroke="#A5B7C0" stroke-linecap="round" stroke-linejoin="round"></line>
            <polyline id="Path" stroke="#A5B7C0" stroke-linecap="round" stroke-linejoin="round" points="12.9166667 5 12.9166667 1.66666667 7.08333333 1.66666667 7.08333333 5"></polyline>
            <path d="M12.9166667,15 L12.9166667,17.9166667 C12.9166667,18.1467917 12.730125,18.3333333 12.5,18.3333333 L7.5,18.3333333 C7.269875,18.3333333 7.08333333,18.1467917 7.08333333,17.9166667 L7.08333333,15" id="Path" stroke="#A5B7C0" stroke-linecap="round" stroke-linejoin="round"></path>
            <line x1="2.91666667" y1="8.33333333" x2="2.91666667" y2="11.6666667" id="Path" stroke="#A5B7C0" stroke-linecap="round" stroke-linejoin="round"></line>
            <line x1="17.0833333" y1="8.33333333" x2="17.0833333" y2="11.6666667" id="Path" stroke="#A5B7C0" stroke-linecap="round" stroke-linejoin="round"></line>
        </g>
    </g>
</svg>