<?xml version="1.0" encoding="UTF-8"?>
<svg width="20px" height="20px" viewBox="0 0 20 20" version="1.1" xmlns="http://www.w3.org/2000/svg" xmlns:xlink="http://www.w3.org/1999/xlink">
    <title>keyboard-one</title>
    <g id="Page-1" stroke="none" stroke-width="1" fill="none" fill-rule="evenodd">
        <g id="keyboard-one">
            <rect id="Rectangle" fill-opacity="0.01" fill="#FFFFFF" fill-rule="nonzero" x="0" y="0" width="20" height="20"></rect>
            <rect id="Rectangle" stroke="#A5B7C0" stroke-linejoin="round" x="1.66666667" y="7.5" width="16.6666667" height="10" rx="1"></rect>
            <circle id="Oval" fill="#A5B7C0" fill-rule="nonzero" cx="5.83333333" cy="10" r="1"></circle>
            <circle id="Oval" fill="#A5B7C0" fill-rule="nonzero" cx="6.66666667" cy="12.5" r="1"></circle>
            <circle id="Oval" fill="#A5B7C0" fill-rule="nonzero" cx="4.16666667" cy="12.5" r="1"></circle>
            <circle id="Oval" fill="#A5B7C0" fill-rule="nonzero" cx="8.33333333" cy="10" r="1"></circle>
            <circle id="Oval" fill="#A5B7C0" fill-rule="nonzero" cx="9.16666667" cy="12.5" r="1"></circle>
            <circle id="Oval" fill="#A5B7C0" fill-rule="nonzero" cx="10.8333333" cy="10" r="1"></circle>
            <circle id="Oval" fill="#A5B7C0" fill-rule="nonzero" cx="11.6666667" cy="12.5" r="1"></circle>
            <circle id="Oval" fill="#A5B7C0" fill-rule="nonzero" cx="13.3333333" cy="10" r="1"></circle>
            <circle id="Oval" fill="#A5B7C0" fill-rule="nonzero" cx="14.1666667" cy="12.5" r="1"></circle>
            <circle id="Oval" fill="#A5B7C0" fill-rule="nonzero" cx="15.8333333" cy="10" r="1"></circle>
            <line x1="7.08333333" y1="15" x2="12.9166667" y2="15" id="Path" stroke="#A5B7C0" stroke-linecap="round" stroke-linejoin="round"></line>
            <path d="M13.75,7.5 L13.75,5.46875 C13.75,5.238625 13.9365417,5.05208333 14.1666667,5.05208333 L16.25,5.05208333 C16.480125,5.05208333 16.6666667,4.86554167 16.6666667,4.63541667 L16.6666667,2.5" id="Path" stroke="#A5B7C0" stroke-linecap="round" stroke-linejoin="round"></path>
        </g>
    </g>
</svg>