<?xml version="1.0" encoding="UTF-8"?>
<svg width="20px" height="20px" viewBox="0 0 20 20" version="1.1" xmlns="http://www.w3.org/2000/svg" xmlns:xlink="http://www.w3.org/1999/xlink">
    <title>keyboard</title>
    <g id="Page-1" stroke="none" stroke-width="1" fill="none" fill-rule="evenodd">
        <g id="keyboard">
            <rect id="Rectangle" fill-opacity="0.01" fill="#FFFFFF" fill-rule="nonzero" x="0" y="0" width="20" height="20"></rect>
            <rect id="Rectangle" fill-opacity="0.01" fill="#FFFFFF" fill-rule="nonzero" x="0" y="0" width="20" height="20"></rect>
            <path d="M10,18.3333333 C14.602375,18.3333333 18.3333333,14.602375 18.3333333,10 C18.3333333,5.397625 14.602375,1.66666667 10,1.66666667 C5.397625,1.66666667 1.66666667,5.397625 1.66666667,10 C1.66666667,14.602375 5.397625,18.3333333 10,18.3333333 Z" id="Path" stroke="#A5B7C0" stroke-linejoin="round"></path>
            <path d="M6.25,7.91666667 C6.82529167,7.91666667 7.29166667,7.45029167 7.29166667,6.875 C7.29166667,6.29970833 6.82529167,5.83333333 6.25,5.83333333 C5.67470833,5.83333333 5.20833333,6.29970833 5.20833333,6.875 C5.20833333,7.45029167 5.67470833,7.91666667 6.25,7.91666667 Z" id="Path" fill="#A5B7C0"></path>
            <path d="M6.25,11.25 C6.82529167,11.25 7.29166667,10.783625 7.29166667,10.2083333 C7.29166667,9.63304167 6.82529167,9.16666667 6.25,9.16666667 C5.67470833,9.16666667 5.20833333,9.63304167 5.20833333,10.2083333 C5.20833333,10.783625 5.67470833,11.25 6.25,11.25 Z" id="Path" fill="#A5B7C0"></path>
            <path d="M10,7.91666667 C10.5752917,7.91666667 11.0416667,7.45029167 11.0416667,6.875 C11.0416667,6.29970833 10.5752917,5.83333333 10,5.83333333 C9.42470833,5.83333333 8.95833333,6.29970833 8.95833333,6.875 C8.95833333,7.45029167 9.42470833,7.91666667 10,7.91666667 Z" id="Path" fill="#A5B7C0"></path>
            <path d="M10,11.25 C10.5752917,11.25 11.0416667,10.783625 11.0416667,10.2083333 C11.0416667,9.63304167 10.5752917,9.16666667 10,9.16666667 C9.42470833,9.16666667 8.95833333,9.63304167 8.95833333,10.2083333 C8.95833333,10.783625 9.42470833,11.25 10,11.25 Z" id="Path" fill="#A5B7C0"></path>
            <path d="M13.75,7.91666667 C14.3252917,7.91666667 14.7916667,7.45029167 14.7916667,6.875 C14.7916667,6.29970833 14.3252917,5.83333333 13.75,5.83333333 C13.1747083,5.83333333 12.7083333,6.29970833 12.7083333,6.875 C12.7083333,7.45029167 13.1747083,7.91666667 13.75,7.91666667 Z" id="Path" fill="#A5B7C0"></path>
            <path d="M13.75,11.25 C14.3252917,11.25 14.7916667,10.783625 14.7916667,10.2083333 C14.7916667,9.63304167 14.3252917,9.16666667 13.75,9.16666667 C13.1747083,9.16666667 12.7083333,9.63304167 12.7083333,10.2083333 C12.7083333,10.783625 13.1747083,11.25 13.75,11.25 Z" id="Path" fill="#A5B7C0"></path>
            <line x1="7.08333333" y1="13.75" x2="12.9166667" y2="13.75" id="Path" stroke="#A5B7C0" stroke-linecap="round" stroke-linejoin="round"></line>
        </g>
    </g>
</svg>