<?xml version="1.0" encoding="UTF-8"?>
<svg width="20px" height="20px" viewBox="0 0 20 20" version="1.1" xmlns="http://www.w3.org/2000/svg" xmlns:xlink="http://www.w3.org/1999/xlink">
    <title>knife-fork</title>
    <g id="Page-1" stroke="none" stroke-width="1" fill="none" fill-rule="evenodd">
        <g id="knife-fork">
            <rect id="Rectangle" fill-opacity="0.01" fill="#FFFFFF" fill-rule="nonzero" x="0" y="0" width="20" height="20"></rect>
            <line x1="5.83333333" y1="1.66666667" x2="5.83333333" y2="18.3333333" id="Path" stroke="#A5B7C0" stroke-linecap="round" stroke-linejoin="round"></line>
            <path d="M3.33333333,2.08333333 L3.33333333,6.25 C3.33333333,8.33333333 5.83333333,8.33333333 5.83333333,8.33333333 C5.83333333,8.33333333 8.33333333,8.33333333 8.33333333,6.25 L8.33333333,2.08333333" id="Path" stroke="#A5B7C0" stroke-linecap="round" stroke-linejoin="round"></path>
            <path d="M12.5,5 C12.5,1.66666667 15.8333333,1.66666667 15.8333333,1.66666667 L15.8333333,8.75 L12.5,8.75 L12.5,5 Z" id="Path"></path>
            <path d="M15.8333333,8.75 L12.5,8.75 L12.5,5 C12.5,1.66666667 15.8333333,1.66666667 15.8333333,1.66666667 L15.8333333,8.75 Z M15.8333333,8.75 L15.8333333,18.3333333" id="Shape" stroke="#A5B7C0" stroke-linecap="round" stroke-linejoin="round"></path>
        </g>
    </g>
</svg>