<?xml version="1.0" encoding="UTF-8"?>
<svg width="20px" height="20px" viewBox="0 0 20 20" version="1.1" xmlns="http://www.w3.org/2000/svg" xmlns:xlink="http://www.w3.org/1999/xlink">
    <title>lens-alignment</title>
    <g id="Page-1" stroke="none" stroke-width="1" fill="none" fill-rule="evenodd">
        <g id="lens-alignment">
            <rect id="Rectangle" fill-opacity="0.01" fill="#FFFFFF" fill-rule="nonzero" x="0" y="0" width="20" height="20"></rect>
            <path d="M5,3.33333333 C5,4.25379167 4.25379167,5 3.33333333,5 C2.41285833,5 1.66666667,4.25379167 1.66666667,3.33333333 C1.66666667,2.41285833 2.41285833,1.66666667 3.33333333,1.66666667 C4.25379167,1.66666667 5,2.41285833 5,3.33333333 Z" id="Path"></path>
            <path d="M5,3.33333333 C5,4.25379167 4.25379167,5 3.33333333,5 M5,3.33333333 C5,2.41285833 4.25379167,1.66666667 3.33333333,1.66666667 C2.41285833,1.66666667 1.66666667,2.41285833 1.66666667,3.33333333 C1.66666667,4.25379167 2.41285833,5 3.33333333,5 M5,3.33333333 L7.5,3.33333333 M3.33333333,5 L3.33333333,7.5" id="Shape" stroke="#A5B7C0" stroke-linecap="round" stroke-linejoin="round"></path>
            <path d="M5,16.6666667 C5,15.7462083 4.25379167,15 3.33333333,15 C2.41285833,15 1.66666667,15.7462083 1.66666667,16.6666667 C1.66666667,17.587125 2.41285833,18.3333333 3.33333333,18.3333333 C4.25379167,18.3333333 5,17.587125 5,16.6666667 Z" id="Path"></path>
            <path d="M5,16.6666667 C5,15.7462083 4.25379167,15 3.33333333,15 M5,16.6666667 C5,17.587125 4.25379167,18.3333333 3.33333333,18.3333333 C2.41285833,18.3333333 1.66666667,17.587125 1.66666667,16.6666667 C1.66666667,15.7462083 2.41285833,15 3.33333333,15 M5,16.6666667 L7.5,16.6666667 M3.33333333,15 L3.33333333,12.5" id="Shape" stroke="#A5B7C0" stroke-linecap="round" stroke-linejoin="round"></path>
            <path d="M15,16.6666667 C15,15.7462083 15.7462083,15 16.6666667,15 C17.587125,15 18.3333333,15.7462083 18.3333333,16.6666667 C18.3333333,17.587125 17.587125,18.3333333 16.6666667,18.3333333 C15.7462083,18.3333333 15,17.587125 15,16.6666667 Z" id="Path"></path>
            <path d="M15,16.6666667 C15,15.7462083 15.7462083,15 16.6666667,15 M15,16.6666667 C15,17.587125 15.7462083,18.3333333 16.6666667,18.3333333 C17.587125,18.3333333 18.3333333,17.587125 18.3333333,16.6666667 C18.3333333,15.7462083 17.587125,15 16.6666667,15 M15,16.6666667 L12.5,16.6666667 M16.6666667,15 L16.6666667,12.5" id="Shape" stroke="#A5B7C0" stroke-linecap="round" stroke-linejoin="round"></path>
            <path d="M15,3.33333333 C15,4.25379167 15.7462083,5 16.6666667,5 C17.587125,5 18.3333333,4.25379167 18.3333333,3.33333333 C18.3333333,2.41285833 17.587125,1.66666667 16.6666667,1.66666667 C15.7462083,1.66666667 15,2.41285833 15,3.33333333 Z" id="Path"></path>
            <path d="M15,3.33333333 C15,4.25379167 15.7462083,5 16.6666667,5 M15,3.33333333 C15,2.41285833 15.7462083,1.66666667 16.6666667,1.66666667 C17.587125,1.66666667 18.3333333,2.41285833 18.3333333,3.33333333 C18.3333333,4.25379167 17.587125,5 16.6666667,5 M15,3.33333333 L12.5,3.33333333 M16.6666667,5 L16.6666667,7.5" id="Shape" stroke="#A5B7C0" stroke-linecap="round" stroke-linejoin="round"></path>
            <line x1="7.08333333" y1="10" x2="12.9166667" y2="10" id="Path" stroke="#A5B7C0" stroke-linecap="round" stroke-linejoin="round"></line>
            <line x1="10" y1="12.9166667" x2="10" y2="7.08333333" id="Path" stroke="#A5B7C0" stroke-linecap="round" stroke-linejoin="round"></line>
        </g>
    </g>
</svg>