<?xml version="1.0" encoding="UTF-8"?>
<svg width="20px" height="20px" viewBox="0 0 20 20" version="1.1" xmlns="http://www.w3.org/2000/svg" xmlns:xlink="http://www.w3.org/1999/xlink">
    <title>level-six-title</title>
    <g id="Page-1" stroke="none" stroke-width="1" fill="none" fill-rule="evenodd">
        <g id="level-six-title">
            <rect id="Rectangle" fill-opacity="0.01" fill="#FFFFFF" fill-rule="nonzero" x="0" y="0" width="20" height="20"></rect>
            <line x1="2.5" y1="3.33333333" x2="2.5" y2="16.6666667" id="Path" stroke="#A5B7C0" stroke-linecap="round" stroke-linejoin="round"></line>
            <line x1="10" y1="3.33333333" x2="10" y2="16.6666667" id="Path" stroke="#A5B7C0" stroke-linecap="round" stroke-linejoin="round"></line>
            <line x1="2.91666667" y1="10" x2="9.58333333" y2="10" id="Path" stroke="#A5B7C0" stroke-linecap="round" stroke-linejoin="round"></line>
            <path d="M15.2083333,16.6666667 C16.474,16.6666667 17.5,15.6406667 17.5,14.375 C17.5,13.1093333 16.474,12.0833333 15.2083333,12.0833333 C13.9426667,12.0833333 12.9166667,13.1093333 12.9166667,14.375 C12.9166667,15.6406667 13.9426667,16.6666667 15.2083333,16.6666667 Z" id="Path" stroke="#A5B7C0"></path>
            <path d="M17.33175,10.308 C16.99075,9.39420833 16.1685,8.75 15.2083333,8.75 C13.9426667,8.75 12.9166667,9.86929167 12.9166667,11.25" id="Path" stroke="#A5B7C0" stroke-linecap="round" stroke-linejoin="round"></path>
            <line x1="12.9166667" y1="11.0416667" x2="12.9166667" y2="14.596625" id="Path" stroke="#A5B7C0" stroke-linecap="round" stroke-linejoin="round"></line>
        </g>
    </g>
</svg>