<?xml version="1.0" encoding="UTF-8"?>
<svg width="20px" height="20px" viewBox="0 0 20 20" version="1.1" xmlns="http://www.w3.org/2000/svg" xmlns:xlink="http://www.w3.org/1999/xlink">
    <title>lifebuoy</title>
    <g id="Page-1" stroke="none" stroke-width="1" fill="none" fill-rule="evenodd">
        <g id="lifebuoy">
            <rect id="Rectangle" fill-opacity="0.01" fill="#FFFFFF" fill-rule="nonzero" x="0" y="0" width="20" height="20"></rect>
            <path d="M15.8925417,15.8925417 C19.1469167,12.6381667 19.1469167,7.36183333 15.8925417,4.10744167 C12.6381667,0.853075 7.36183333,0.853075 4.10744167,4.10744167 C0.853075,7.36183333 0.853075,12.6381667 4.10744167,15.8925417 C7.36183333,19.1469167 12.6381667,19.1469167 15.8925417,15.8925417 Z M13.5355417,6.46445833 C15.4881667,8.41708333 15.4881667,11.5829167 13.5355417,13.5355417 C11.5829167,15.4881667 8.41708333,15.4881667 6.46445833,13.5355417 C4.51183333,11.5829167 4.51183333,8.41708333 6.46445833,6.46445833 C8.41708333,4.51183333 11.5829167,4.51183333 13.5355417,6.46445833 Z" id="Shape" stroke="#A5B7C0" stroke-linecap="round" stroke-linejoin="round"></path>
            <line x1="15.8925417" y1="15.8925417" x2="13.5355" y2="13.5355" id="Path" stroke="#A5B7C0" stroke-linecap="round" stroke-linejoin="round"></line>
            <line x1="4.1074625" y1="15.8925417" x2="6.4645" y2="13.5355" id="Path" stroke="#A5B7C0" stroke-linecap="round" stroke-linejoin="round"></line>
            <line x1="4.1074625" y1="4.1074625" x2="6.4645" y2="6.4645" id="Path" stroke="#A5B7C0" stroke-linecap="round" stroke-linejoin="round"></line>
            <line x1="15.8925417" y1="4.1074625" x2="13.5355" y2="6.4645" id="Path" stroke="#A5B7C0" stroke-linecap="round" stroke-linejoin="round"></line>
            <path d="M13.5355417,13.5355417 C15.4881667,11.5829167 15.4881667,8.41708333 13.5355417,6.46445833 C11.5829167,4.51183333 8.41708333,4.51183333 6.46445833,6.46445833 C4.51183333,8.41708333 4.51183333,11.5829167 6.46445833,13.5355417 C8.41708333,15.4881667 11.5829167,15.4881667 13.5355417,13.5355417 Z" id="Path" stroke="#A5B7C0" stroke-linecap="round" stroke-linejoin="round"></path>
        </g>
    </g>
</svg>