<?xml version="1.0" encoding="UTF-8"?>
<svg width="20px" height="20px" viewBox="0 0 20 20" version="1.1" xmlns="http://www.w3.org/2000/svg" xmlns:xlink="http://www.w3.org/1999/xlink">
    <title>list-top</title>
    <g id="Page-1" stroke="none" stroke-width="1" fill="none" fill-rule="evenodd">
        <g id="list-top">
            <rect id="Rectangle" fill-opacity="0.01" fill="#FFFFFF" fill-rule="nonzero" x="0" y="0" width="20" height="20"></rect>
            <path d="M3.33333333,5.83333333 C4.25379167,5.83333333 5,5.087125 5,4.16666667 C5,3.24619167 4.25379167,2.5 3.33333333,2.5 C2.41285833,2.5 1.66666667,3.24619167 1.66666667,4.16666667 C1.66666667,5.087125 2.41285833,5.83333333 3.33333333,5.83333333 Z" id="Path" stroke="#A5B7C0" stroke-linejoin="round"></path>
            <path d="M3.33333333,10.8333333 C3.79357083,10.8333333 4.16666667,10.46025 4.16666667,10 C4.16666667,9.53975 3.79357083,9.16666667 3.33333333,9.16666667 C2.87309583,9.16666667 2.5,9.53975 2.5,10 C2.5,10.46025 2.87309583,10.8333333 3.33333333,10.8333333 Z" id="Path" stroke="#A5B7C0" stroke-linejoin="round"></path>
            <path d="M3.33333333,16.6666667 C3.79357083,16.6666667 4.16666667,16.2935833 4.16666667,15.8333333 C4.16666667,15.3730833 3.79357083,15 3.33333333,15 C2.87309583,15 2.5,15.3730833 2.5,15.8333333 C2.5,16.2935833 2.87309583,16.6666667 3.33333333,16.6666667 Z" id="Path" stroke="#A5B7C0" stroke-linejoin="round"></path>
            <line x1="8.33333333" y1="10" x2="18.3333333" y2="10" id="Path" stroke="#A5B7C0" stroke-linecap="round" stroke-linejoin="round"></line>
            <line x1="8.33333333" y1="15.8333333" x2="18.3333333" y2="15.8333333" id="Path" stroke="#A5B7C0" stroke-linecap="round" stroke-linejoin="round"></line>
            <line x1="8.33333333" y1="4.16666667" x2="18.3333333" y2="4.16666667" id="Path" stroke="#A5B7C0" stroke-linecap="round" stroke-linejoin="round"></line>
        </g>
    </g>
</svg>