<?xml version="1.0" encoding="UTF-8"?>
<svg width="20px" height="20px" viewBox="0 0 20 20" version="1.1" xmlns="http://www.w3.org/2000/svg" xmlns:xlink="http://www.w3.org/1999/xlink">
    <title>lung</title>
    <g id="Page-1" stroke="none" stroke-width="1" fill="none" fill-rule="evenodd">
        <g id="lung">
            <rect id="Rectangle" fill-opacity="0.01" fill="#FFFFFF" fill-rule="nonzero" x="0" y="0" width="20" height="20"></rect>
            <path d="M7.60175,9.27629167 C7.479875,7.2115 6.99054167,6.142375 6.13366667,6.06891667 C4.75008333,5.95029167 2.62927083,8.21191667 2.00052083,11.3902917 C1.37177083,14.5687083 1.68225833,16.845375 2.5049875,16.9990833 C3.32771667,17.1528333 4.52316667,16.25725 5.09033333,16.25725 C5.6575,16.25725 7.62325,16.6908333 7.62325,15.9055 C7.62325,15.5185833 7.62325,14.5795 7.62325,12.5292917" id="Path" stroke="#A5B7C0" stroke-linecap="round"></path>
            <path d="M12.3431667,9.32116667 C12.4605833,7.227 12.9507917,6.14291667 13.8138333,6.06891667 C15.1974583,5.95029167 17.31825,8.21191667 17.947,11.3902917 C18.57575,14.5687083 18.26525,16.845375 17.4425417,16.9990833 C16.6197917,17.1528333 15.4243333,16.25725 14.8572083,16.25725 C14.2900417,16.25725 12.32425,16.6908333 12.32425,15.9055 C12.32425,15.5194583 12.32425,14.5709583 12.32425,12.5292917" id="Path" stroke="#A5B7C0" stroke-linecap="round"></path>
            <path d="M8.564875,2.08334583 L8.564875,8.29608333 C8.54670833,9.250875 7.75,9.72829167 6.17470833,9.72829167" id="Path" stroke="#A5B7C0" stroke-linecap="round"></path>
            <path d="M11.3716667,2.08334583 L11.3716667,8.29608333 C11.3897917,9.250875 12.1865,9.72829167 13.7617917,9.72829167" id="Path" stroke="#A5B7C0" stroke-linecap="round"></path>
            <path d="M6.25,12.5293333 C7.89804167,12.5293333 9.14804167,12.1379583 10,11.3552083 C10.8580833,12.1379583 12.1120833,12.5293333 13.7619167,12.5293333" id="Path" stroke="#A5B7C0" stroke-linecap="round" stroke-linejoin="round"></path>
        </g>
    </g>
</svg>