<?xml version="1.0" encoding="UTF-8"?>
<svg width="20px" height="20px" viewBox="0 0 20 20" version="1.1" xmlns="http://www.w3.org/2000/svg" xmlns:xlink="http://www.w3.org/1999/xlink">
    <title>magic-wand</title>
    <g id="Page-1" stroke="none" stroke-width="1" fill="none" fill-rule="evenodd">
        <g id="magic-wand">
            <rect id="Rectangle" fill-opacity="0.01" fill="#FFFFFF" fill-rule="nonzero" x="0" y="0" width="20" height="20"></rect>
            <path d="M3.15805,14.758625 C2.21792917,13.4094167 1.66666667,11.7690833 1.66666667,10 C1.66666667,5.397625 5.397625,1.66666667 10,1.66666667 C14.602375,1.66666667 18.3333333,5.397625 18.3333333,10 C18.3333333,14.602375 14.602375,18.3333333 10,18.3333333 C8.23091667,18.3333333 6.59058333,17.7820833 5.241375,16.8419583 M3.15805,14.758625 C3.72357083,15.5702083 4.42979167,16.2764167 5.241375,16.8419583 M3.15805,14.758625 L6.66666667,11.25 M5.241375,16.8419583 L8.75,13.3333333 M6.66666667,11.25 L8.33333333,9.58333333 L10.4166667,11.6666667 L8.75,13.3333333 M6.66666667,11.25 L8.75,13.3333333" id="Shape" stroke="#A5B7C0" stroke-linecap="round" stroke-linejoin="round"></path>
            <path d="M7.08333333,5.83333333 L8.75,5.83333333 M7.91666667,5 L7.91666667,6.66666667" id="Shape" stroke="#A5B7C0" stroke-linecap="round" stroke-linejoin="round"></path>
            <path d="M11.6666667,7.08333333 L14.1666667,7.08333333 M12.9166667,5.83333333 L12.9166667,8.33333333" id="Shape" stroke="#A5B7C0" stroke-linecap="round" stroke-linejoin="round"></path>
            <path d="M13.3333333,12.0833333 L15,12.0833333 M14.1666667,11.25 L14.1666667,12.9166667" id="Shape" stroke="#A5B7C0" stroke-linecap="round" stroke-linejoin="round"></path>
        </g>
    </g>
</svg>