<?xml version="1.0" encoding="UTF-8"?>
<svg width="20px" height="20px" viewBox="0 0 20 20" version="1.1" xmlns="http://www.w3.org/2000/svg" xmlns:xlink="http://www.w3.org/1999/xlink">
    <title>mail-download</title>
    <g id="Page-1" stroke="none" stroke-width="1" fill="none" fill-rule="evenodd">
        <g id="mail-download">
            <rect id="Rectangle" fill-opacity="0.01" fill="#FFFFFF" fill-rule="nonzero" x="0" y="0" width="20" height="20"></rect>
            <polyline id="Path" stroke="#A5B7C0" stroke-linecap="round" stroke-linejoin="round" points="4.16666667 7.08333333 1.66666667 7.08333333 1.66666667 17.9166667 18.3333333 17.9166667 18.3333333 7.08333333 15.8333333 7.08333333"></polyline>
            <polygon id="Path" points="15.8333333 2.08333333 4.16666667 2.08333333 4.16666667 8.95833333 10 13.3333333 15.8333333 8.95833333"></polygon>
            <path d="M4.16666667,8.95833333 L10,13.3333333 L15.8333333,8.95833333 M4.16666667,8.95833333 L4.16666667,2.08333333 L15.8333333,2.08333333 L15.8333333,8.95833333 M4.16666667,8.95833333 L1.66666667,7.08333333 M15.8333333,8.95833333 L18.3333333,7.08333333" id="Shape" stroke="#A5B7C0" stroke-linecap="round" stroke-linejoin="round"></path>
            <path d="M7.91666667,7.5 L10,9.58333333 M10,9.58333333 L12.0833333,7.5 M10,9.58333333 L10,5" id="Shape" stroke="#A5B7C0" stroke-linecap="round" stroke-linejoin="round"></path>
        </g>
    </g>
</svg>