<?xml version="1.0" encoding="UTF-8"?>
<svg width="20px" height="20px" viewBox="0 0 20 20" version="1.1" xmlns="http://www.w3.org/2000/svg" xmlns:xlink="http://www.w3.org/1999/xlink">
    <title>mask-one</title>
    <g id="Page-1" stroke="none" stroke-width="1" fill="none" fill-rule="evenodd">
        <g id="mask-one">
            <rect id="Rectangle" fill-opacity="0.01" fill="#FFFFFF" fill-rule="nonzero" x="0" y="0" width="20" height="20"></rect>
            <path d="M3.06905417,6.810125 C2.70237917,7.79266667 2.5,8.87004167 2.5,9.99991667 C2.5,11.1297917 2.70237917,12.207125 3.06905417,13.1896667 M4.69670833,15.8924583 C5.38754167,16.6600417 6.2125,17.2785833 7.12920833,17.7009583 C8.0135,18.108375 8.983125,18.33325 10,18.33325 C11.016875,18.33325 11.9865,18.108375 12.8707917,17.7009583 C13.7875,17.2785833 14.6124583,16.6600417 15.3032917,15.8924583 M16.9309583,13.1896667 C17.297625,12.207125 17.5,11.1297917 17.5,9.99991667 C17.5,8.87004167 17.297625,7.79266667 16.9309583,6.810125 M15.3032917,4.10734167 C14.6124583,3.33974583 13.7875,2.72120417 12.8707917,2.29884583 C11.9865,1.89142917 11.016875,1.66656667 10,1.66656667 C7.92891667,1.66656667 6.05391667,2.59930417 4.69670833,4.10734167" id="Shape" stroke="#A5B7C0" stroke-linecap="round"></path>
            <path d="M7.5,9.58325 C8.190375,9.58325 8.75,9.02358333 8.75,8.33325 C8.75,7.642875 8.190375,7.08325 7.5,7.08325 C6.809625,7.08325 6.25,7.642875 6.25,8.33325 C6.25,9.02358333 6.809625,9.58325 7.5,9.58325 Z" id="Path" stroke="#A5B7C0"></path>
            <path d="M12.5,9.58325 C13.190375,9.58325 13.75,9.02358333 13.75,8.33325 C13.75,7.642875 13.190375,7.08325 12.5,7.08325 C11.809625,7.08325 11.25,7.642875 11.25,8.33325 C11.25,9.02358333 11.809625,9.58325 12.5,9.58325 Z" id="Path" stroke="#A5B7C0"></path>
            <path d="M10,14.58325 C11.1505833,14.58325 12.0833333,14.0235833 12.0833333,13.33325 C12.0833333,12.642875 11.1505833,12.08325 10,12.08325 C8.84941667,12.08325 7.91666667,12.642875 7.91666667,13.33325 C7.91666667,14.0235833 8.84941667,14.58325 10,14.58325 Z" id="Path" stroke="#A5B7C0"></path>
        </g>
    </g>
</svg>