<?xml version="1.0" encoding="UTF-8"?>
<svg width="20px" height="20px" viewBox="0 0 20 20" version="1.1" xmlns="http://www.w3.org/2000/svg" xmlns:xlink="http://www.w3.org/1999/xlink">
    <title>mayura-gesture</title>
    <g id="Page-1" stroke="none" stroke-width="1" fill="none" fill-rule="evenodd">
        <g id="mayura-gesture">
            <rect id="Rectangle" fill-opacity="0.01" fill="#FFFFFF" fill-rule="nonzero" x="0" y="0" width="20" height="20"></rect>
            <path d="M8.74795833,15.0000417 L7.95570833,13.3295417 L10.0846667,13.1554167 C10.9547083,13.1554167 11.66,12.4498333 11.66,11.5794583 C11.66,10.7090833 10.9547083,10.0035417 10.0846667,10.0035417 C8.52354167,10.0035417 7.38379167,10.0035417 6.6655,10.0035417 C5.253625,10.0035417 3.75,11.493375 3.75,12.93425 C3.75,14.3751667 4.07809167,15.2004167 4.436125,15.9745417 C4.79416667,16.748625 5.74866667,18.333375 8.34,18.333375 C9.99416667,18.333375 9.76133333,18.333375 12.064375,18.333375 C14.2512083,18.333375 15.8333333,16.3106667 15.8279167,13.7500417 C15.8245417,12.1540417 15.8255833,9.79291667 15.831002,6.66670833 C15.8322083,5.97845833 15.27525,5.41958333 14.587,5.418375 L14.5848333,5.418375 C13.8967083,5.418375 13.3389167,5.97620833 13.3389167,6.66429167 C13.3389167,6.66516667 13.3389167,6.666 13.3389167,6.66683333 C13.34325,8.80879167 13.3454167,10.0658333 13.3454167,10.4379583 C13.3454167,11.6437083 12.786875,12.0592917 11.66975,11.6846667 M10.8144167,10.0000417 L10.8310452,2.91671667 C10.8326667,2.22798333 10.2756667,1.66834583 9.58691667,1.666725 C9.58595833,1.666725 9.58495833,1.666725 9.584,1.666725 C8.893625,1.666725 8.34,2.22636667 8.34,2.91672083 L8.34,9.60008333" id="Shape" stroke="#A5B7C0" stroke-linecap="round" stroke-linejoin="round"></path>
            <path d="M5.835875,10.0001667 L5.835875,4.16683333 C5.835875,3.47742083 6.39475,2.91855417 7.084125,2.91855417 C7.08470833,2.91855417 7.08529167,2.91855417 7.085875,2.91855417 C7.7765,2.91951667 8.335875,3.47965833 8.335875,4.17029167 L8.335875,10.0001667" id="Path" stroke="#A5B7C0" stroke-linecap="round" stroke-linejoin="round"></path>
            <path d="M10.836375,8.34154167 L10.836375,7.924875 C10.836375,7.2345 11.3960417,6.674875 12.086375,6.674875 C12.77675,6.674875 13.336375,7.2345 13.336375,7.924875 L13.336375,8.34154167" id="Path" stroke="#A5B7C0" stroke-linecap="round" stroke-linejoin="round"></path>
        </g>
    </g>
</svg>