<?xml version="1.0" encoding="UTF-8"?>
<svg width="20px" height="20px" viewBox="0 0 20 20" version="1.1" xmlns="http://www.w3.org/2000/svg" xmlns:xlink="http://www.w3.org/1999/xlink">
    <title>medical-files</title>
    <g id="Page-1" stroke="none" stroke-width="1" fill="none" fill-rule="evenodd">
        <g id="medical-files">
            <rect id="Rectangle" fill-opacity="0.01" fill="#FFFFFF" fill-rule="nonzero" x="0" y="0" width="20" height="20"></rect>
            <path d="M9.58333333,17.5 L7.91666667,17.5 L6.25,17.5 L3.75,17.5 C3.2897625,17.5 2.91666667,17.1269167 2.91666667,16.6666667 L2.91666667,3.33333333 C2.91666667,2.87309583 3.2897625,2.5 3.75,2.5 L15.4166667,2.5 C15.8769167,2.5 16.25,2.87309583 16.25,3.33333333 L16.25,6.25 L16.25,8.125" id="Path" stroke="#A5B7C0" stroke-linecap="round" stroke-linejoin="round"></path>
            <path d="M15.2651667,11.25 C16.2692917,11.25 17.0833333,12.0335 17.0833333,13 C17.0833333,14.2581667 15.8712083,15.3333333 15.2651667,15.9166667 C14.861125,16.3055417 14.3560417,16.6944583 13.75,17.0833333 C13.1439583,16.6944583 12.638875,16.3055417 12.2348333,15.9166667 C11.6287917,15.3333333 10.4166667,14.2581667 10.4166667,13 C10.4166667,12.0335 11.2307083,11.25 12.2348333,11.25 C12.86725,11.25 13.42425,11.5607917 13.75,12.0322917 C14.07575,11.5607917 14.63275,11.25 15.2651667,11.25 Z" id="Path" stroke="#A5B7C0" stroke-linejoin="round"></path>
            <line x1="6.25" y1="5.83333333" x2="12.9166667" y2="5.83333333" id="Path" stroke="#A5B7C0" stroke-linecap="round"></line>
        </g>
    </g>
</svg>