<?xml version="1.0" encoding="UTF-8"?>
<svg width="20px" height="20px" viewBox="0 0 20 20" version="1.1" xmlns="http://www.w3.org/2000/svg" xmlns:xlink="http://www.w3.org/1999/xlink">
    <title>memory-card</title>
    <g id="Page-1" stroke="none" stroke-width="1" fill="none" fill-rule="evenodd">
        <g id="memory-card">
            <g id="Group-7" transform="translate(2.500000, 3.333333)" stroke="#A5B7C0" stroke-linecap="round" stroke-linejoin="round" stroke-width="0.833333333">
                <path d="M14.1666667,13.3333333 L0.833333333,13.3333333 C0.373095833,13.3333333 0,12.96025 0,12.5 L0,4.62733333 C0,4.46279167 0.0487,4.30195833 0.139958333,4.16508333 L2.66929167,0.371083333 C2.82383333,0.13925 3.08404167,0 3.36266667,0 L14.1666667,0 C14.6269167,0 15,0.373095833 15,0.833333333 L15,12.5 C15,12.96025 14.6269167,13.3333333 14.1666667,13.3333333 Z" id="Path"></path>
                <line x1="5" y1="3.33333333" x2="5" y2="0" id="Path"></line>
                <line x1="7.5" y1="3.33333333" x2="7.5" y2="0" id="Path"></line>
                <line x1="10" y1="3.33333333" x2="10" y2="0" id="Path"></line>
                <line x1="12.5" y1="3.33333333" x2="12.5" y2="0" id="Path"></line>
                <polygon id="Path" points="3.75 8.33333333 11.25 8.33333333 11.25 13.3333333 3.75 13.3333333"></polygon>
            </g>
            <rect id="Rectangle" fill-opacity="0.01" fill="#FFFFFF" fill-rule="nonzero" x="0" y="0" width="20" height="20"></rect>
        </g>
    </g>
</svg>