<?xml version="1.0" encoding="UTF-8"?>
<svg width="20px" height="20px" viewBox="0 0 20 20" version="1.1" xmlns="http://www.w3.org/2000/svg" xmlns:xlink="http://www.w3.org/1999/xlink">
    <title>micro-slr-camera</title>
    <g id="Page-1" stroke="none" stroke-width="1" fill="none" fill-rule="evenodd">
        <g id="micro-slr-camera">
            <rect id="Rectangle" fill-opacity="0.01" fill="#FFFFFF" fill-rule="nonzero" x="0" y="0" width="20" height="20"></rect>
            <path d="M18.3333333,10.8333333 C18.3333333,11.9330417 18.029,12.9617083 17.5,13.8396667 C17.00825,14.6557083 16.322375,15.3415833 15.5063333,15.8333333 C14.628375,16.3623333 13.5997083,16.6666667 12.5,16.6666667 C11.4002917,16.6666667 10.371625,16.3623333 9.49366667,15.8333333 C7.79966667,14.8125833 6.66666667,12.9552917 6.66666667,10.8333333 C6.66666667,8.711375 7.79966667,6.85408333 9.49366667,5.83333333 C10.371625,5.30433333 11.4002917,5 12.5,5 C13.5997083,5 14.628375,5.30433333 15.5063333,5.83333333 C16.322375,6.32508333 17.00825,7.01095833 17.5,7.827 C18.029,8.70495833 18.3333333,9.733625 18.3333333,10.8333333 Z" id="Path"></path>
            <path d="M1.66666667,5.83333333 L1.66666667,15.8333333 L9.49366667,15.8333333 C7.79966667,14.8125833 6.66666667,12.9552917 6.66666667,10.8333333 C6.66666667,8.711375 7.79966667,6.85408333 9.49366667,5.83333333 L1.66666667,5.83333333 Z" id="Path"></path>
            <path d="M15.5063333,5.83333333 C14.628375,5.30433333 13.5997083,5 12.5,5 C11.4002917,5 10.371625,5.30433333 9.49366667,5.83333333 M15.5063333,5.83333333 L17.5,5.83333333 L17.5,7.827 M15.5063333,5.83333333 C16.322375,6.32508333 17.00825,7.01095833 17.5,7.827 M9.49366667,5.83333333 L1.66666667,5.83333333 L1.66666667,15.8333333 L9.49366667,15.8333333 M9.49366667,5.83333333 C7.79966667,6.85408333 6.66666667,8.711375 6.66666667,10.8333333 C6.66666667,12.9552917 7.79966667,14.8125833 9.49366667,15.8333333 M15.5063333,15.8333333 C14.628375,16.3623333 13.5997083,16.6666667 12.5,16.6666667 C11.4002917,16.6666667 10.371625,16.3623333 9.49366667,15.8333333 M15.5063333,15.8333333 L17.5,15.8333333 L17.5,13.8396667 M15.5063333,15.8333333 C16.322375,15.3415833 17.00825,14.6557083 17.5,13.8396667 M17.5,7.827 C18.029,8.70495833 18.3333333,9.733625 18.3333333,10.8333333 C18.3333333,11.9330417 18.029,12.9617083 17.5,13.8396667" id="Shape" stroke="#A5B7C0" stroke-linecap="round" stroke-linejoin="round"></path>
            <rect id="Rectangle" stroke="#A5B7C0" stroke-linecap="round" stroke-linejoin="round" x="3.33333333" y="3.75" width="3.75" height="2.08333333"></rect>
            <line x1="4.16666667" y1="9.16666667" x2="4.16666667" y2="12.5" id="Path" stroke="#A5B7C0" stroke-linecap="round" stroke-linejoin="round"></line>
            <path d="M15,10.8333333 C15,12.2140417 13.8807083,13.3333333 12.5,13.3333333 M10,10.8333333 C10,9.452625 11.1192917,8.33333333 12.5,8.33333333" id="Shape" stroke="#A5B7C0" stroke-linecap="round" stroke-linejoin="round"></path>
        </g>
    </g>
</svg>