<?xml version="1.0" encoding="UTF-8"?>
<svg width="20px" height="20px" viewBox="0 0 20 20" version="1.1" xmlns="http://www.w3.org/2000/svg" xmlns:xlink="http://www.w3.org/1999/xlink">
    <title>microscope-one</title>
    <g id="Page-1" stroke="none" stroke-width="1" fill="none" fill-rule="evenodd">
        <g id="microscope-one">
            <rect id="Rectangle" fill-opacity="0.01" fill="#FFFFFF" fill-rule="nonzero" x="0" y="0" width="20" height="20"></rect>
            <path d="M12.0844167,7.655625 L12.5447917,7.19525 L12.76575,6.97429167 C13.6607083,6.07933333 13.6607083,4.62833333 12.76575,3.73339167 L12.76575,3.73339167 C11.8707917,2.8384375 10.4197917,2.8384375 9.52483333,3.73339167 L3.8217,9.43654167 C3.79845417,9.45979167 3.79845417,9.49745833 3.8217,9.52070833 L6.725875,12.4249167 C6.888625,12.587625 7.15241667,12.587625 7.315125,12.4249167 L8.86195833,10.878125 L9.32229167,10.41775" id="Path" stroke="#A5B7C0" stroke-linecap="round"></path>
            <path d="M11.7345417,2.70219167 L12.471125,1.96562083 C13.040625,1.39610833 13.964,1.39610833 14.5335,1.96562083 C15.1030417,2.5351375 15.1030417,3.45850417 14.5335,4.02801667 L13.7969583,4.76458333 L11.7345417,2.70219167 Z" id="Path" stroke="#A5B7C0" stroke-linecap="round" stroke-linejoin="round"></path>
            <polygon id="Path" stroke="#A5B7C0" stroke-linecap="round" stroke-linejoin="round" points="4.368875 10.067875 2.60109167 11.8356667 4.6635 13.8980417 6.43125 12.1302917"></polygon>
            <circle id="Oval" stroke="#A5B7C0" transform="translate(10.850667, 9.184000) rotate(45.000000) translate(-10.850667, -9.184000) " cx="10.8506667" cy="9.184" r="1.875"></circle>
            <path d="M3.19035,7.710875 C2.8649125,7.38541667 2.33727917,7.38541667 2.01184167,7.710875 C1.68640417,8.03629167 1.68640417,8.56395833 2.01184167,8.889375 L3.19035,7.710875 Z M7.60975,14.4872917 C7.93520833,14.81275 8.46283333,14.81275 8.78829167,14.4872917 C9.11370833,14.161875 9.11370833,13.63425 8.78829167,13.3087917 L7.60975,14.4872917 Z M2.01184167,8.889375 L7.60975,14.4872917 L8.78829167,13.3087917 L3.19035,7.710875 L2.01184167,8.889375 Z" id="Shape" fill="#A5B7C0" fill-rule="nonzero"></path>
            <line x1="4.16666667" y1="18.3333333" x2="17.5" y2="18.3333333" id="Path" stroke="#A5B7C0" stroke-linecap="round" stroke-linejoin="round"></line>
            <path d="M12.9166667,9.16666667 C14.5833333,9.16666667 16.25,10.8333333 16.25,13.3333333 C16.25,16 14.0972083,17.4305417 12.9166667,18.3333333" id="Path" stroke="#A5B7C0" stroke-linecap="round" stroke-linejoin="round"></path>
        </g>
    </g>
</svg>