<?xml version="1.0" encoding="UTF-8"?>
<svg width="20px" height="20px" viewBox="0 0 20 20" version="1.1" xmlns="http://www.w3.org/2000/svg" xmlns:xlink="http://www.w3.org/1999/xlink">
    <title>microphone</title>
    <g id="Page-1" stroke="none" stroke-width="1" fill="none" fill-rule="evenodd">
        <g id="microphone">
            <rect id="Rectangle" fill-opacity="0.01" fill="#FFFFFF" fill-rule="nonzero" x="0" y="0" width="20" height="20"></rect>
            <rect id="Rectangle" stroke="#A5B7C0" stroke-linecap="round" stroke-linejoin="round" x="6.66666667" y="1.66666667" width="6.66666667" height="11.6666667" rx="3.33333333"></rect>
            <path d="M4.16666667,8.75 L4.16666667,10 C4.16666667,13.2216667 6.77833333,15.8333333 10,15.8333333 L10,15.8333333 C13.2216667,15.8333333 15.8333333,13.2216667 15.8333333,10 L15.8333333,8.75" id="Path" stroke="#A5B7C0" stroke-linecap="round" stroke-linejoin="round"></path>
            <line x1="10" y1="2.08333333" x2="10" y2="4.58333333" id="Path" stroke="#A5B7C0" stroke-linecap="round" stroke-linejoin="round"></line>
            <line x1="6.66666667" y1="6.66666667" x2="8.75" y2="6.66666667" id="Path" stroke="#A5B7C0" stroke-linecap="round" stroke-linejoin="round"></line>
            <line x1="11.25" y1="6.66666667" x2="13.3333333" y2="6.66666667" id="Path" stroke="#A5B7C0" stroke-linecap="round" stroke-linejoin="round"></line>
            <line x1="6.66666667" y1="9.16666667" x2="8.75" y2="9.16666667" id="Path" stroke="#A5B7C0" stroke-linecap="round" stroke-linejoin="round"></line>
            <line x1="11.25" y1="9.16666667" x2="13.3333333" y2="9.16666667" id="Path" stroke="#A5B7C0" stroke-linecap="round" stroke-linejoin="round"></line>
            <line x1="10" y1="15.8333333" x2="10" y2="18.3333333" id="Path" stroke="#A5B7C0"></line>
            <path d="M6.66666667,17.5 C6.20641667,17.5 5.83333333,17.8730833 5.83333333,18.3333333 C5.83333333,18.7935833 6.20641667,19.1666667 6.66666667,19.1666667 L6.66666667,17.5 Z M13.3333333,19.1666667 C13.7935833,19.1666667 14.1666667,18.7935833 14.1666667,18.3333333 C14.1666667,17.8730833 13.7935833,17.5 13.3333333,17.5 L13.3333333,19.1666667 Z M6.66666667,19.1666667 L13.3333333,19.1666667 L13.3333333,17.5 L6.66666667,17.5 L6.66666667,19.1666667 Z" id="Shape" fill="#A5B7C0" fill-rule="nonzero"></path>
        </g>
    </g>
</svg>