<?xml version="1.0" encoding="UTF-8"?>
<svg width="20px" height="20px" viewBox="0 0 20 20" version="1.1" xmlns="http://www.w3.org/2000/svg" xmlns:xlink="http://www.w3.org/1999/xlink">
    <title>middle-finger</title>
    <g id="Page-1" stroke="none" stroke-width="1" fill="none" fill-rule="evenodd">
        <g id="middle-finger">
            <rect id="Rectangle" fill-opacity="0.01" fill="#FFFFFF" fill-rule="nonzero" x="0" y="0" width="20" height="20"></rect>
            <path d="M6.23825,11.2394583 C4.854625,11.486 4.1628,12.322875 4.1628,13.750125 C4.1628,15.891 6.30991667,18.3334583 8.24604167,18.3334583 C10.1821667,18.3334583 11.3050417,18.3334583 13.2000833,18.3334583 C15.095125,18.3334583 16.246125,16.7290417 16.246125,15.4418333 C16.246125,13.6292083 16.246125,11.8165417 16.246125,10.0039167 C16.246125,9.31358333 15.6865,8.75391667 14.996125,8.75391667 L14.9923333,8.75391667 C14.3040833,8.75391667 13.746125,9.311875 13.746125,10.000125" id="Path" stroke="#A5B7C0" stroke-linecap="round"></path>
            <path d="M6.23829167,12.5167917 L6.23829167,8.7555 C6.23829167,8.0645 6.79845833,7.50433333 7.48945833,7.50433333 C7.489875,7.50433333 7.49029167,7.50433333 7.49075,7.50433333 C8.18266667,7.50504167 8.74316667,8.06616667 8.74316667,8.75808333 L8.74316667,10.42625" id="Path" stroke="#A5B7C0" stroke-linecap="round"></path>
            <path d="M8.74316667,10.0035417 L8.74316667,2.923175 C8.74316667,2.22925833 9.30570833,1.666725 9.999625,1.666725 C10.6935417,1.666725 11.2560833,2.22925833 11.2560833,2.923175 L11.2560833,10.0035417" id="Path" stroke="#A5B7C0" stroke-linecap="round" stroke-linejoin="round"></path>
            <path d="M11.246125,9.881625 L11.246125,8.7515 C11.246125,8.061125 11.8057917,7.5015 12.496125,7.5015 C13.1865,7.5015 13.746125,8.061125 13.746125,8.7515 L13.746125,10.0015" id="Path" stroke="#A5B7C0" stroke-linecap="round" stroke-linejoin="round"></path>
        </g>
    </g>
</svg>