<?xml version="1.0" encoding="UTF-8"?>
<svg width="20px" height="20px" viewBox="0 0 20 20" version="1.1" xmlns="http://www.w3.org/2000/svg" xmlns:xlink="http://www.w3.org/1999/xlink">
    <title>more-three</title>
    <g id="Page-1" stroke="none" stroke-width="1" fill="none" fill-rule="evenodd">
        <g id="more-three">
            <rect id="Rectangle" fill-opacity="0.01" fill="#FFFFFF" fill-rule="nonzero" x="0" y="0" width="20" height="20"></rect>
            <path d="M10,18.3333333 C14.602375,18.3333333 18.3333333,14.602375 18.3333333,10 C18.3333333,5.397625 14.602375,1.66666667 10,1.66666667 C5.397625,1.66666667 1.66666667,5.397625 1.66666667,10 C1.66666667,14.602375 5.397625,18.3333333 10,18.3333333 Z" id="Path" stroke="#A5B7C0" stroke-linejoin="round"></path>
            <path d="M8.95833333,5.83333333 C8.95833333,6.408625 9.42470833,6.875 10,6.875 C10.5752917,6.875 11.0416667,6.408625 11.0416667,5.83333333 C11.0416667,5.25804167 10.5752917,4.79166667 10,4.79166667 C9.42470833,4.79166667 8.95833333,5.25804167 8.95833333,5.83333333 Z M8.95833333,10 C8.95833333,10.5752917 9.42470833,11.0416667 10,11.0416667 C10.5752917,11.0416667 11.0416667,10.5752917 11.0416667,10 C11.0416667,9.42470833 10.5752917,8.95833333 10,8.95833333 C9.42470833,8.95833333 8.95833333,9.42470833 8.95833333,10 Z M10,15.2083333 C9.42470833,15.2083333 8.95833333,14.7419583 8.95833333,14.1666667 C8.95833333,13.591375 9.42470833,13.125 10,13.125 C10.5752917,13.125 11.0416667,13.591375 11.0416667,14.1666667 C11.0416667,14.7419583 10.5752917,15.2083333 10,15.2083333 Z" id="Shape" fill="#A5B7C0"></path>
        </g>
    </g>
</svg>