<?xml version="1.0" encoding="UTF-8"?>
<svg width="20px" height="20px" viewBox="0 0 20 20" version="1.1" xmlns="http://www.w3.org/2000/svg" xmlns:xlink="http://www.w3.org/1999/xlink">
    <title>movie</title>
    <g id="Page-1" stroke="none" stroke-width="1" fill="none" fill-rule="evenodd">
        <g id="movie">
            <rect id="Rectangle" fill-opacity="0.01" fill="#FFFFFF" fill-rule="nonzero" x="0" y="0" width="20" height="20"></rect>
            <path d="M10,18.3333333 C14.602375,18.3333333 18.3333333,14.602375 18.3333333,10 C18.3333333,5.397625 14.602375,1.66666667 10,1.66666667 C5.397625,1.66666667 1.66666667,5.397625 1.66666667,10 C1.66666667,14.602375 5.397625,18.3333333 10,18.3333333 Z" id="Path" stroke="#A5B7C0" stroke-linejoin="round"></path>
            <path d="M10,7.5 C10.690375,7.5 11.25,6.940375 11.25,6.25 C11.25,5.559625 10.690375,5 10,5 C9.309625,5 8.75,5.559625 8.75,6.25 C8.75,6.940375 9.309625,7.5 10,7.5 Z" id="Path" stroke="#A5B7C0" stroke-linejoin="round"></path>
            <path d="M10,15 C10.690375,15 11.25,14.440375 11.25,13.75 C11.25,13.059625 10.690375,12.5 10,12.5 C9.309625,12.5 8.75,13.059625 8.75,13.75 C8.75,14.440375 9.309625,15 10,15 Z" id="Path" stroke="#A5B7C0" stroke-linejoin="round"></path>
            <path d="M6.25,11.25 C6.940375,11.25 7.5,10.690375 7.5,10 C7.5,9.309625 6.940375,8.75 6.25,8.75 C5.559625,8.75 5,9.309625 5,10 C5,10.690375 5.559625,11.25 6.25,11.25 Z" id="Path" stroke="#A5B7C0" stroke-linejoin="round"></path>
            <path d="M13.75,11.25 C14.440375,11.25 15,10.690375 15,10 C15,9.309625 14.440375,8.75 13.75,8.75 C13.059625,8.75 12.5,9.309625 12.5,10 C12.5,10.690375 13.059625,11.25 13.75,11.25 Z" id="Path" stroke="#A5B7C0" stroke-linejoin="round"></path>
            <line x1="10" y1="18.3333333" x2="18.3333333" y2="18.3333333" id="Path" stroke="#A5B7C0" stroke-linecap="round"></line>
        </g>
    </g>
</svg>