<?xml version="1.0" encoding="UTF-8"?>
<svg width="20px" height="20px" viewBox="0 0 20 20" version="1.1" xmlns="http://www.w3.org/2000/svg" xmlns:xlink="http://www.w3.org/1999/xlink">
    <title>multilayer-sphere</title>
    <g id="Page-1" stroke="none" stroke-width="1" fill="none" fill-rule="evenodd">
        <g id="multilayer-sphere">
            <rect id="Rectangle" fill-opacity="0.01" fill="#FFFFFF" fill-rule="nonzero" x="0" y="0" width="20" height="20"></rect>
            <polygon id="Path" fill-opacity="0.01" fill="#FFFFFF" fill-rule="nonzero" points="20 0 0 0 0 20 20 20"></polygon>
            <circle id="Oval" stroke="#A5B7C0" stroke-linejoin="round" cx="10" cy="10" r="8.33333333"></circle>
            <path d="M1.83334167,8.33333333 C2.60545833,12.1370833 5.96841667,15 10,15 C14.0315833,15 17.3945,12.1370833 18.166625,8.33333333" id="Path" stroke="#A5B7C0" stroke-linecap="round" stroke-linejoin="round"></path>
            <path d="M2.360075,6.66666667 C3.646,9.60983333 6.58279167,11.6666667 10,11.6666667 C13.4172083,11.6666667 16.354,9.60983333 17.6399167,6.66666667" id="Path" stroke="#A5B7C0" stroke-linecap="round" stroke-linejoin="round"></path>
            <path d="M3.332725,5 C4.85308333,7.02408333 7.273625,8.33333333 10,8.33333333 C12.726375,8.33333333 15.1469167,7.02408333 16.6729167,5" id="Path" stroke="#A5B7C0" stroke-linecap="round" stroke-linejoin="round"></path>
            <path d="M4.99916667,3.33333333 C6.39208333,4.37983333 8.123625,5 10,5 C11.876375,5 13.6079167,4.37983333 15.0007917,3.33333333" id="Path" stroke="#A5B7C0" stroke-linecap="round" stroke-linejoin="round"></path>
        </g>
    </g>
</svg>