<?xml version="1.0" encoding="UTF-8"?>
<svg width="20px" height="20px" viewBox="0 0 20 20" version="1.1" xmlns="http://www.w3.org/2000/svg" xmlns:xlink="http://www.w3.org/1999/xlink">
    <title>multi-ring</title>
    <g id="Page-1" stroke="none" stroke-width="1" fill="none" fill-rule="evenodd">
        <g id="multi-ring">
            <rect id="Rectangle" fill-opacity="0.01" fill="#FFFFFF" fill-rule="nonzero" x="0" y="0" width="20" height="20"></rect>
            <path d="M12.5,4.16666667 C12.5,2.78595417 11.3807083,1.66666667 10,1.66666667 C8.61929167,1.66666667 7.5,2.78595417 7.5,4.16666667 L7.5,10 C7.5,11.3807083 8.61929167,12.5 10,12.5 C11.3807083,12.5 12.5,11.3807083 12.5,10 L12.5,4.16666667 Z" id="Path" stroke="#A5B7C0" stroke-linecap="round" stroke-linejoin="round"></path>
            <path d="M15.8925417,7.64295833 C16.8688333,6.66666667 16.8688333,5.08375 15.8925417,4.10744167 C14.9162083,3.13112917 13.3332917,3.13112917 12.357,4.10744167 L8.23220833,8.23225 C7.255875,9.20854167 7.255875,10.7914583 8.23220833,11.76775 C9.2085,12.7440833 10.7914167,12.7440833 11.76775,11.76775 L15.8925417,7.64295833 Z" id="Path" stroke="#A5B7C0" stroke-linecap="round" stroke-linejoin="round"></path>
            <path d="M15.8333333,12.5 C17.2140417,12.5 18.3333333,11.3807083 18.3333333,10 C18.3333333,8.61929167 17.2140417,7.5 15.8333333,7.5 L10,7.5 C8.61929167,7.5 7.5,8.61929167 7.5,10 C7.5,11.3807083 8.61929167,12.5 10,12.5 L15.8333333,12.5 Z" id="Path" stroke="#A5B7C0" stroke-linecap="round" stroke-linejoin="round"></path>
            <path d="M12.357,15.8925417 C13.3333333,16.868875 14.91625,16.868875 15.8925417,15.8925417 C16.868875,14.91625 16.868875,13.3333333 15.8925417,12.357 L11.76775,8.23225 C10.7914583,7.25591667 9.20854167,7.25591667 8.23220833,8.23225 C7.25591667,9.20854167 7.25591667,10.7914583 8.23220833,11.76775 L12.357,15.8925417 Z" id="Path" stroke="#A5B7C0" stroke-linecap="round" stroke-linejoin="round"></path>
            <path d="M7.5,15.8333333 C7.5,17.2140417 8.61929167,18.3333333 10,18.3333333 C11.3807083,18.3333333 12.5,17.2140417 12.5,15.8333333 L12.5,10 C12.5,8.61929167 11.3807083,7.5 10,7.5 C8.61929167,7.5 7.5,8.61929167 7.5,10 L7.5,15.8333333 Z" id="Path" stroke="#A5B7C0" stroke-linecap="round" stroke-linejoin="round"></path>
            <path d="M4.10747917,12.3570417 C3.13116667,13.3333333 3.13116667,14.91625 4.10747917,15.8925417 C5.08379167,16.868875 6.66670833,16.868875 7.643,15.8925417 L11.7677917,11.76775 C12.744125,10.7914583 12.744125,9.20854167 11.7677917,8.23225 C10.7915,7.25591667 9.20858333,7.25591667 8.23225,8.23225 L4.10747917,12.3570417 Z" id="Path" stroke="#A5B7C0" stroke-linecap="round" stroke-linejoin="round"></path>
            <path d="M4.16666667,7.5 C2.78595417,7.5 1.66666667,8.61929167 1.66666667,10 C1.66666667,11.3807083 2.78595417,12.5 4.16666667,12.5 L10,12.5 C11.3807083,12.5 12.5,11.3807083 12.5,10 C12.5,8.61929167 11.3807083,7.5 10,7.5 L4.16666667,7.5 Z" id="Path" stroke="#A5B7C0" stroke-linecap="round" stroke-linejoin="round"></path>
            <path d="M7.643,4.10744583 C6.66666667,3.13113333 5.08375,3.13113333 4.10744583,4.10744583 C3.1311375,5.08375 3.1311375,6.66666667 4.10745,7.643 L8.23225,11.76775 C9.20854167,12.7440833 10.7914583,12.7440833 11.76775,11.76775 C12.7440833,10.7914583 12.7440833,9.20854167 11.7677917,8.23225 L7.643,4.10744583 Z" id="Path" stroke="#A5B7C0" stroke-linecap="round" stroke-linejoin="round"></path>
        </g>
    </g>
</svg>