<?xml version="1.0" encoding="UTF-8"?>
<svg width="20px" height="20px" viewBox="0 0 20 20" version="1.1" xmlns="http://www.w3.org/2000/svg" xmlns:xlink="http://www.w3.org/1999/xlink">
    <title>multi-circular</title>
    <g id="Page-1" stroke="none" stroke-width="1" fill="none" fill-rule="evenodd">
        <g id="multi-circular">
            <rect id="Rectangle" fill-opacity="0.01" fill="#FFFFFF" fill-rule="nonzero" x="0" y="0" width="20" height="20"></rect>
            <path d="M10,18.3333333 C14.602375,18.3333333 18.3333333,14.602375 18.3333333,10 C18.3333333,5.397625 14.602375,1.66666667 10,1.66666667 C5.397625,1.66666667 1.66666667,5.397625 1.66666667,10 C1.66666667,14.602375 5.397625,18.3333333 10,18.3333333 Z" id="Path" stroke="#A5B7C0" stroke-linejoin="round"></path>
            <path d="M10,18.3333333 C13.2216667,18.3333333 15.8333333,15.7216667 15.8333333,12.5 C15.8333333,9.27833333 13.2216667,6.66666667 10,6.66666667 C6.77833333,6.66666667 4.16666667,9.27833333 4.16666667,12.5 C4.16666667,15.7216667 6.77833333,18.3333333 10,18.3333333 Z" id="Path" stroke="#A5B7C0" stroke-linejoin="round"></path>
            <path d="M10,18.3333333 C11.8409583,18.3333333 13.3333333,16.8409583 13.3333333,15 C13.3333333,13.1590417 11.8409583,11.6666667 10,11.6666667 C8.15904167,11.6666667 6.66666667,13.1590417 6.66666667,15 C6.66666667,16.8409583 8.15904167,18.3333333 10,18.3333333 Z" id="Path" stroke="#A5B7C0" stroke-linejoin="round"></path>
        </g>
    </g>
</svg>