<?xml version="1.0" encoding="UTF-8"?>
<svg width="20px" height="20px" viewBox="0 0 20 20" version="1.1" xmlns="http://www.w3.org/2000/svg" xmlns:xlink="http://www.w3.org/1999/xlink">
    <title>nasal</title>
    <g id="Page-1" stroke="none" stroke-width="1" fill="none" fill-rule="evenodd">
        <g id="nasal">
            <rect id="Rectangle" fill-opacity="0.01" fill="#FFFFFF" fill-rule="nonzero" x="0" y="0" width="20" height="20"></rect>
            <path d="M7.078125,1.66674167 C7.12833333,4.27091667 6.99358333,6.07775 6.67383333,7.08720833 C6.19425,8.60145833 2.53417917,12.8179167 2.53417917,15.0425833 C2.53417917,17.2672083 5.16104167,18.4955417 6.5795,17.6578333" id="Path" stroke="#A5B7C0" stroke-linecap="round"></path>
            <path d="M13.3341667,1.66674167 C13.2405417,4.27091667 13.3535833,6.07775 13.6732917,7.08720833 C14.152875,8.60145833 17.8995833,12.27075 17.8995833,14.70525 C17.8995833,17.13975 15.1860833,18.4955417 13.767625,17.6578333" id="Path" stroke="#A5B7C0" stroke-linecap="round"></path>
            <path d="M5.419125,14.5140833 C6.131375,14.109 6.75079167,14.109 7.277375,14.5140833 C8.06725,15.12175 8.31508333,16.6667083 10.0035,16.6667083 C11.6919583,16.6667083 12.5196667,14.9345 13.333375,14.5140833 C13.875875,14.2338333 14.4314167,14.2338333 15.0000417,14.5140833" id="Path" stroke="#A5B7C0" stroke-linecap="round"></path>
            <path d="M8.45216667,9.227375 C8.12141667,9.58341667 7.77141667,9.98054167 7.515875,10.6725 C7.32216667,11.197 7.28345833,11.5011667 7.25666667,11.843375" id="Path" stroke="#A5B7C0" stroke-linecap="round"></path>
        </g>
    </g>
</svg>