<?xml version="1.0" encoding="UTF-8"?>
<svg width="20px" height="20px" viewBox="0 0 20 20" version="1.1" xmlns="http://www.w3.org/2000/svg" xmlns:xlink="http://www.w3.org/1999/xlink">
    <title>nests</title>
    <g id="Page-1" stroke="none" stroke-width="1" fill="none" fill-rule="evenodd">
        <g id="nests">
            <rect id="Rectangle" fill-opacity="0.01" fill="#FFFFFF" fill-rule="nonzero" x="0" y="0" width="20" height="20"></rect>
            <path d="M2.082925,13.4640417 L8.34745833,2.47620833 C8.7325,1.65879583 9.42779167,1.2500875 10.4334167,1.2500875 C11.9417917,1.2500875 12.9238333,3.32769583 12.9238333,3.32769583 C12.9238333,3.32769583 13.476875,3.41009583 14.582925,3.57489167 C12.912,3.60222917 11.9457917,3.93840833 11.6843333,4.58341667 C11.2921667,5.55095833 12.707625,6.55458333 12.9238333,7.918375 C13.1400417,9.282125 12.277625,11.5855417 10.2034167,12.7363333 C8.82058333,13.5035417 7.09425,13.7025833 5.02429167,13.3334167 L2.48268333,17.91675" id="Path" stroke="#A5B7C0" stroke-linecap="round" stroke-linejoin="round"></path>
            <path d="M6.226,11.2409167 C7.30054167,9.30358333 8.00704167,8.05966667 8.34554167,7.50908333 C8.85325,6.68316667 10.9477083,6.93216667 10.1952083,8.99354167 C9.69354167,10.36775 8.37045833,11.116875 6.226,11.2409167 Z" id="Path" stroke="#A5B7C0" stroke-linejoin="round"></path>
            <path d="M13.7365833,13.74325 C14.2124583,12.6030417 14.9072917,11.9120833 15.8210833,11.670375 C16.734875,11.4286667 17.56825,11.5758333 18.32125,12.1118333 C17.8522917,13.1934583 17.1571667,13.886875 16.235875,14.1920833 C15.3145417,14.4972917 14.4814583,14.3477083 13.7365833,13.74325 Z" id="Path" stroke="#A5B7C0" stroke-linejoin="round"></path>
            <path d="M11.2439167,14.6309583 C11.55925,15.7650417 12.3945,16.5235 13.7497083,16.906375 C15.1049167,17.28925 16.2206667,17.0705 17.096875,16.2501667 C16.0132083,14.9875 15.0366667,14.294375 14.1672917,14.1708333 C13.2979167,14.0473333 12.3234583,14.2007083 11.2439167,14.6309583 Z" id="Path" stroke="#A5B7C0" stroke-linejoin="round"></path>
        </g>
    </g>
</svg>