<?xml version="1.0" encoding="UTF-8"?>
<svg width="20px" height="20px" viewBox="0 0 20 20" version="1.1" xmlns="http://www.w3.org/2000/svg" xmlns:xlink="http://www.w3.org/1999/xlink">
    <title>neural</title>
    <g id="Page-1" stroke="none" stroke-width="1" fill="none" fill-rule="evenodd">
        <g id="neural">
            <rect id="Rectangle" fill-opacity="0.01" fill="#FFFFFF" fill-rule="nonzero" x="0" y="0" width="20" height="20"></rect>
            <path d="M8.54166667,13.7500417 C9.36083333,13.7500417 9.70433333,12.275875 10.4166667,11.9805 C11.155125,11.6742917 12.25725,12.537 12.81375,11.9805 C13.3702917,11.424 12.6864167,10.1880417 12.992625,9.44958333 C13.288,8.73725 14.5833333,8.52754167 14.5833333,7.708375 C14.5833333,6.88925 13.1091667,6.69133333 12.81375,5.979 C12.5075417,5.24058333 13.3702917,3.99279167 12.81375,3.4362875 C12.25725,2.87977917 10.944,3.74249583 10.2055417,3.4362875 C9.49320833,3.14090833 9.36083333,1.666725 8.54166667,1.666725 C7.7225,1.666725 7.50170833,3.31865 6.789375,3.614025 C6.05091667,3.92023333 4.82608333,2.87977917 4.26958333,3.4362875 C3.71305833,3.99279167 4.57579167,5.09491667 4.26958333,5.833375 C3.9741875,6.54570833 2.5,6.88925 2.5,7.708375 C2.5,8.52754167 3.9741875,8.73725 4.26958333,9.44958333 C4.57579167,10.1880417 3.71305833,11.424 4.26958333,11.9805 C4.82608333,12.537 6.05091667,11.6742917 6.789375,11.9805 C7.50170833,12.275875 7.7225,13.7500417 8.54166667,13.7500417 Z" id="Path" stroke="#A5B7C0" stroke-linejoin="round"></path>
            <path d="M8.33333333,9.16670833 C9.25379167,9.16670833 10,8.42054167 10,7.50004167 C10,6.57958333 9.25379167,5.833375 8.33333333,5.833375 C7.412875,5.833375 6.66666667,6.57958333 6.66666667,7.50004167 C6.66666667,8.42054167 7.412875,9.16670833 8.33333333,9.16670833 Z" id="Path" stroke="#A5B7C0" stroke-linejoin="round"></path>
            <path d="M6.90383333,12.5000417 C6.40045833,15.3329583 6.69841667,17.106 7.79766667,17.8192083 C9.446625,18.8890833 10.6034167,18.0529167 11.207,17.4397083 C11.8105833,16.8265417 13.770625,14.1433333 15.4484583,14.1433333 C17.1262917,14.1433333 17.63125,15.760125 17.47225,16.6433333 C17.36625,17.232125 17.0925,17.6676667 16.651,17.9499167" id="Path" stroke="#A5B7C0" stroke-linecap="round"></path>
        </g>
    </g>
</svg>