<?xml version="1.0" encoding="UTF-8"?>
<svg width="20px" height="20px" viewBox="0 0 20 20" version="1.1" xmlns="http://www.w3.org/2000/svg" xmlns:xlink="http://www.w3.org/1999/xlink">
    <title>nine-points-connected</title>
    <g id="Page-1" stroke="none" stroke-width="1" fill="none" fill-rule="evenodd">
        <g id="nine-points-connected">
            <rect id="Rectangle" fill-opacity="0.01" fill="#FFFFFF" fill-rule="nonzero" x="0" y="0" width="20" height="20"></rect>
            <line x1="11.1785833" y1="15.4881667" x2="15.48825" y2="11.1785" id="Path" stroke="#A5B7C0" stroke-linecap="round" stroke-linejoin="round"></line>
            <line x1="8.82158333" y1="11.1785" x2="4.51191667" y2="15.4881667" id="Path" stroke="#A5B7C0" stroke-linecap="round" stroke-linejoin="round"></line>
            <line x1="11.1785833" y1="8.8215" x2="15.48825" y2="4.51183333" id="Path" stroke="#A5B7C0" stroke-linecap="round" stroke-linejoin="round"></line>
            <line x1="4.51191667" y1="8.8215" x2="8.82158333" y2="4.51183333" id="Path" stroke="#A5B7C0" stroke-linecap="round" stroke-linejoin="round"></line>
            <path d="M5,3.33333333 C5,4.25379167 4.25379167,5 3.33333333,5 C2.41285833,5 1.66666667,4.25379167 1.66666667,3.33333333 C1.66666667,2.41285833 2.41285833,1.66666667 3.33333333,1.66666667 C4.25379167,1.66666667 5,2.41285833 5,3.33333333 Z" id="Path" stroke="#A5B7C0" stroke-linecap="round" stroke-linejoin="round"></path>
            <path d="M11.6666667,3.33333333 C11.6666667,4.25379167 10.9204583,5 10,5 C9.07954167,5 8.33333333,4.25379167 8.33333333,3.33333333 C8.33333333,2.41285833 9.07954167,1.66666667 10,1.66666667 C10.9204583,1.66666667 11.6666667,2.41285833 11.6666667,3.33333333 Z" id="Path" stroke="#A5B7C0" stroke-linecap="round" stroke-linejoin="round"></path>
            <path d="M18.3333333,3.33333333 C18.3333333,4.25379167 17.587125,5 16.6666667,5 C15.7462083,5 15,4.25379167 15,3.33333333 C15,2.41285833 15.7462083,1.66666667 16.6666667,1.66666667 C17.587125,1.66666667 18.3333333,2.41285833 18.3333333,3.33333333 Z" id="Path" stroke="#A5B7C0" stroke-linecap="round" stroke-linejoin="round"></path>
            <path d="M18.3333333,10 C18.3333333,10.9204583 17.587125,11.6666667 16.6666667,11.6666667 C15.7462083,11.6666667 15,10.9204583 15,10 C15,9.07954167 15.7462083,8.33333333 16.6666667,8.33333333 C17.587125,8.33333333 18.3333333,9.07954167 18.3333333,10 Z" id="Path" stroke="#A5B7C0" stroke-linecap="round" stroke-linejoin="round"></path>
            <path d="M18.3333333,16.6666667 C18.3333333,17.587125 17.587125,18.3333333 16.6666667,18.3333333 C15.7462083,18.3333333 15,17.587125 15,16.6666667 C15,15.7462083 15.7462083,15 16.6666667,15 C17.587125,15 18.3333333,15.7462083 18.3333333,16.6666667 Z" id="Path" stroke="#A5B7C0" stroke-linecap="round" stroke-linejoin="round"></path>
            <path d="M11.6666667,16.6666667 C11.6666667,17.587125 10.9204583,18.3333333 10,18.3333333 C9.07954167,18.3333333 8.33333333,17.587125 8.33333333,16.6666667 C8.33333333,15.7462083 9.07954167,15 10,15 C10.9204583,15 11.6666667,15.7462083 11.6666667,16.6666667 Z" id="Path" stroke="#A5B7C0" stroke-linecap="round" stroke-linejoin="round"></path>
            <path d="M5,16.6666667 C5,17.587125 4.25379167,18.3333333 3.33333333,18.3333333 C2.41285833,18.3333333 1.66666667,17.587125 1.66666667,16.6666667 C1.66666667,15.7462083 2.41285833,15 3.33333333,15 C4.25379167,15 5,15.7462083 5,16.6666667 Z" id="Path" stroke="#A5B7C0" stroke-linecap="round" stroke-linejoin="round"></path>
            <path d="M5,10 C5,10.9204583 4.25379167,11.6666667 3.33333333,11.6666667 C2.41285833,11.6666667 1.66666667,10.9204583 1.66666667,10 C1.66666667,9.07954167 2.41285833,8.33333333 3.33333333,8.33333333 C4.25379167,8.33333333 5,9.07954167 5,10 Z" id="Path" stroke="#A5B7C0" stroke-linecap="round" stroke-linejoin="round"></path>
            <path d="M11.6666667,10 C11.6666667,10.9204583 10.9204583,11.6666667 10,11.6666667 C9.07954167,11.6666667 8.33333333,10.9204583 8.33333333,10 C8.33333333,9.07954167 9.07954167,8.33333333 10,8.33333333 C10.9204583,8.33333333 11.6666667,9.07954167 11.6666667,10 Z" id="Path" stroke="#A5B7C0" stroke-linecap="round" stroke-linejoin="round"></path>
        </g>
    </g>
</svg>