<?xml version="1.0" encoding="UTF-8"?>
<svg width="20px" height="20px" viewBox="0 0 20 20" version="1.1" xmlns="http://www.w3.org/2000/svg" xmlns:xlink="http://www.w3.org/1999/xlink">
    <title>nintendo-switch</title>
    <g id="Page-1" stroke="none" stroke-width="1" fill="none" fill-rule="evenodd">
        <g id="nintendo-switch">
            <rect id="Rectangle" fill-opacity="0.01" fill="#FFFFFF" fill-rule="nonzero" x="0" y="0" width="20" height="20"></rect>
            <path d="M2.5,7.5 C2.5,5.14295833 2.5,3.96446667 3.23223333,3.23223333 C3.96446667,2.5 5.14295833,2.5 7.5,2.5 L8.33333333,2.5 L8.33333333,17.5 L7.5,17.5 C5.14295833,17.5 3.96446667,17.5 3.23223333,16.76775 C2.5,16.0355417 2.5,14.8570417 2.5,12.5 L2.5,7.5 Z" id="Path" stroke="#A5B7C0" stroke-linecap="round" stroke-linejoin="round"></path>
            <path d="M17.5,7.5 C17.5,5.14295833 17.5,3.96446667 16.76775,3.23223333 C16.0355417,2.5 14.8570417,2.5 12.5,2.5 L11.6666667,2.5 L11.6666667,17.5 L12.5,17.5 C14.8570417,17.5 16.0355417,17.5 16.76775,16.76775 C17.5,16.0355417 17.5,14.8570417 17.5,12.5 L17.5,7.5 Z" id="Path" stroke="#A5B7C0" stroke-linecap="round" stroke-linejoin="round"></path>
            <line x1="14.5833333" y1="5.41666667" x2="14.5833333" y2="6.25" id="Path" stroke="#A5B7C0" stroke-linecap="round" stroke-linejoin="round"></line>
            <line x1="5.41666667" y1="13.75" x2="5.41666667" y2="14.5833333" id="Path" stroke="#A5B7C0" stroke-linecap="round" stroke-linejoin="round"></line>
        </g>
    </g>
</svg>