<?xml version="1.0" encoding="UTF-8"?>
<svg width="20px" height="20px" viewBox="0 0 20 20" version="1.1" xmlns="http://www.w3.org/2000/svg" xmlns:xlink="http://www.w3.org/1999/xlink">
    <title>notebook</title>
    <g id="Page-1" stroke="none" stroke-width="1" fill="none" fill-rule="evenodd">
        <g id="notebook">
            <rect id="Rectangle" fill-opacity="0.01" fill="#FFFFFF" fill-rule="nonzero" x="0" y="0" width="20" height="20"></rect>
            <path d="M4.16666667,2.5 C4.16666667,2.0397625 4.53975,1.66666667 5,1.66666667 L16.6666667,1.66666667 C17.1269167,1.66666667 17.5,2.0397625 17.5,2.5 L17.5,17.5 C17.5,17.96025 17.1269167,18.3333333 16.6666667,18.3333333 L5,18.3333333 C4.53975,18.3333333 4.16666667,17.96025 4.16666667,17.5 L4.16666667,2.5 Z" id="Path" stroke="#A5B7C0" stroke-linejoin="round"></path>
            <line x1="14.1666667" y1="2.5" x2="14.1666667" y2="17.5" id="Path" stroke="#A5B7C0" stroke-linecap="round" stroke-linejoin="round"></line>
            <line x1="2.5" y1="5.83333333" x2="5.83333333" y2="5.83333333" id="Path" stroke="#A5B7C0" stroke-linecap="round" stroke-linejoin="round"></line>
            <line x1="2.5" y1="10" x2="5.83333333" y2="10" id="Path" stroke="#A5B7C0" stroke-linecap="round" stroke-linejoin="round"></line>
            <line x1="2.5" y1="14.1666667" x2="5.83333333" y2="14.1666667" id="Path" stroke="#A5B7C0" stroke-linecap="round" stroke-linejoin="round"></line>
            <line x1="11.25" y1="1.66666667" x2="16.25" y2="1.66666667" id="Path" stroke="#A5B7C0" stroke-linecap="round" stroke-linejoin="round"></line>
            <line x1="11.25" y1="18.3333333" x2="16.25" y2="18.3333333" id="Path" stroke="#A5B7C0" stroke-linecap="round" stroke-linejoin="round"></line>
        </g>
    </g>
</svg>