<?xml version="1.0" encoding="UTF-8"?>
<svg width="20px" height="20px" viewBox="0 0 20 20" version="1.1" xmlns="http://www.w3.org/2000/svg" xmlns:xlink="http://www.w3.org/1999/xlink">
    <title>notepad</title>
    <g id="Page-1" stroke="none" stroke-width="1" fill="none" fill-rule="evenodd">
        <g id="notepad">
            <rect id="Rectangle" fill-opacity="0.01" fill="#FFFFFF" fill-rule="nonzero" x="0" y="0" width="20" height="20"></rect>
            <path d="M7.5,3.33333333 L4.58333333,3.33333333 C4.35320833,3.33333333 4.16666667,3.51988333 4.16666667,3.75 L4.16666667,17.9166667 C4.16666667,18.1467917 4.35320833,18.3333333 4.58333333,18.3333333 L16.25,18.3333333 C16.480125,18.3333333 16.6666667,18.1467917 16.6666667,17.9166667 L16.6666667,3.75 C16.6666667,3.51988333 16.480125,3.33333333 16.25,3.33333333 L13.3333333,3.33333333" id="Path" stroke="#A5B7C0"></path>
            <path d="M7.5,5.41666667 L7.5,3.33333333 L9.14604167,3.33333333 C9.15741667,3.33333333 9.16666667,3.3241 9.16666667,3.31270833 L9.16666667,2.5 C9.16666667,1.80964583 9.72629167,1.25 10.4166667,1.25 C11.1070417,1.25 11.6666667,1.80964583 11.6666667,2.5 L11.6666667,3.31270833 C11.6666667,3.3241 11.6759167,3.33333333 11.6872917,3.33333333 L13.3333333,3.33333333 L13.3333333,5.41666667 C13.3333333,5.64679167 13.1467917,5.83333333 12.9166667,5.83333333 L7.91666667,5.83333333 C7.68654167,5.83333333 7.5,5.64679167 7.5,5.41666667 Z" id="Path" stroke="#A5B7C0"></path>
        </g>
    </g>
</svg>