<?xml version="1.0" encoding="UTF-8"?>
<svg width="20px" height="20px" viewBox="0 0 20 20" version="1.1" xmlns="http://www.w3.org/2000/svg" xmlns:xlink="http://www.w3.org/1999/xlink">
    <title>nutrition</title>
    <g id="Page-1" stroke="none" stroke-width="1" fill="none" fill-rule="evenodd">
        <g id="nutrition">
            <rect id="Rectangle" fill-opacity="0.01" fill="#FFFFFF" fill-rule="nonzero" x="0" y="0" width="20" height="20"></rect>
            <path d="M10,17.4999583 C10.3605417,17.4999583 11.187625,17.4999583 12.4812917,17.4999583 C12.515875,16.3595833 12.6830417,15.7325417 12.98275,15.6187917 C16.111875,14.4315 18.3333333,11.43075 18.3333333,7.916625 L1.66666667,7.916625 C1.66666667,11.3547083 3.79299583,14.301375 6.81533333,15.5391667 C7.13129167,15.6685833 7.36729167,16.3221667 7.52333333,17.4999583 C8.78570833,17.4999583 9.61125,17.4999583 10,17.4999583 Z" id="Path" stroke="#A5B7C0" stroke-linejoin="round"></path>
            <path d="M6.01808333,10.842625 C6.16791667,11.3375833 6.36608333,11.7462083 6.61258333,12.0685417 C6.8535,12.3836667 7.15079167,12.6759167 7.50433333,12.9452917" id="Path" stroke="#A5B7C0" stroke-linecap="round"></path>
            <path d="M13.4170417,3.3406125 C12.8920417,3.047525 12.3262083,2.81988333 11.7303333,2.66859167 M9.18779167,2.49995 C6.21970833,2.8427 3.81008333,5.04066667 3.125,7.916625 M16.875,7.91516667 C16.5956667,6.74354167 16.0300833,5.68454167 15.2571667,4.81766667" id="Shape" stroke="#A5B7C0" stroke-linecap="round"></path>
        </g>
    </g>
</svg>