<?xml version="1.0" encoding="UTF-8"?>
<svg width="20px" height="20px" viewBox="0 0 20 20" version="1.1" xmlns="http://www.w3.org/2000/svg" xmlns:xlink="http://www.w3.org/1999/xlink">
    <title>ordered-list</title>
    <g id="Page-1" stroke="none" stroke-width="1" fill="none" fill-rule="evenodd">
        <g id="ordered-list">
            <rect id="Rectangle" fill-opacity="0.01" fill="#FFFFFF" fill-rule="nonzero" x="0" y="0" width="20" height="20"></rect>
            <line x1="6.66666667" y1="3.33324583" x2="18.3333333" y2="3.33324583" id="Path" stroke="#A5B7C0" stroke-linecap="round"></line>
            <line x1="6.66666667" y1="9.99991667" x2="18.3333333" y2="9.99991667" id="Path" stroke="#A5B7C0" stroke-linecap="round"></line>
            <line x1="6.66666667" y1="16.6665833" x2="18.3333333" y2="16.6665833" id="Path" stroke="#A5B7C0" stroke-linecap="round"></line>
            <path d="M2.541025,10.7657083 L2.77411667,10.6000417 C3.5078375,10.0864583 3.81136667,9.74583333 3.81136667,9.11116667 C3.81136667,8.329375 3.2583,7.85533333 2.55551667,7.85533333 C1.85273333,7.85533333 1.29967083,8.329375 1.29967083,9.11116667 C1.29967083,9.37520833 1.51370833,9.58925 1.7777375,9.58925 C2.02416667,9.58925 2.22705,9.40279167 2.25300417,9.16329167 L2.25580833,9.11116667 C2.25580833,8.893 2.35089167,8.8115 2.55551667,8.8115 C2.76014167,8.8115 2.855225,8.893 2.855225,9.11116667 C2.855225,9.30254167 2.72586667,9.45895833 2.30764583,9.75883333 L2.129425,9.88420833 C1.466525,10.3492917 1.18855833,10.6584167 1.18855833,11.2222917 L1.18855833,11.66675 C1.18855833,11.9307917 1.40259583,12.1448333 1.66662917,12.1448333 L3.33329583,12.1448333 C3.597325,12.1448333 3.81136667,11.9307917 3.81136667,11.66675 C3.81136667,11.4027083 3.597325,11.1886667 3.33329583,11.1886667 L2.14751667,11.1886667 C2.1652375,11.08375 2.26940833,10.9664583 2.541025,10.7657083 Z" id="Path" fill="#A5B7C0" fill-rule="nonzero"></path>
            <path d="M1.76171667,15.7809167 C1.51915833,16.0865417 1.71763333,16.5310833 2.0929375,16.567625 L2.14287083,16.57 C2.4639125,16.57 2.84674167,16.972 2.84674167,17.3334167 C2.84674167,17.6323333 2.64248333,17.8467917 2.50001667,17.8467917 C2.28184583,17.8467917 2.16320833,17.8032083 2.09749167,17.7249583 L2.07748333,17.6975833 C1.93343333,17.4707083 1.63273333,17.4035417 1.40585833,17.5475833 C1.17897917,17.6916667 1.11183333,17.9923333 1.25588333,18.2192083 C1.51275417,18.6237917 1.948775,18.82 2.50001667,18.82 C3.19087917,18.82 3.81995417,18.1595 3.81995417,17.3334167 C3.81995417,16.7372083 3.45638333,16.1592917 2.9545125,15.8435 L3.71450417,14.8859167 C3.96760833,14.567 3.74049167,14.0967917 3.33335,14.0967917 L1.66668333,14.0967917 C1.3979375,14.0967917 1.180075,14.3146667 1.180075,14.5834167 C1.180075,14.8521667 1.3979375,15.07 1.66668333,15.07 L2.32591667,15.07 L1.76171667,15.7809167 Z" id="Path" fill="#A5B7C0" fill-rule="nonzero"></path>
            <path d="M2.0129375,5.41666667 C2.0129375,5.685625 2.230975,5.90366667 2.49993333,5.90366667 C2.76889167,5.90366667 2.986925,5.685625 2.986925,5.41666667 L2.986925,1.666675 C2.986925,1.22497083 2.446125,1.0114125 2.14433333,1.33394167 L1.311,2.22454167 C1.1272375,2.42093333 1.137475,2.72910833 1.33386667,2.91287083 C1.5132,3.080675 1.78575,3.0867125 1.97165833,2.93695833 L2.0129375,2.8996375 L2.0129375,5.41666667 Z" id="Path" fill="#A5B7C0" fill-rule="nonzero"></path>
        </g>
    </g>
</svg>