<?xml version="1.0" encoding="UTF-8"?>
<svg width="20px" height="20px" viewBox="0 0 20 20" version="1.1" xmlns="http://www.w3.org/2000/svg" xmlns:xlink="http://www.w3.org/1999/xlink">
    <title>pad</title>
    <g id="Page-1" stroke="none" stroke-width="1" fill="none" fill-rule="evenodd">
        <g id="pad">
            <rect id="Rectangle" fill-opacity="0.01" fill="#FFFFFF" fill-rule="nonzero" x="0" y="0" width="20" height="20"></rect>
            <polygon id="Path" fill-opacity="0.01" fill="#FFFFFF" fill-rule="nonzero" points="20 0 0 0 0 20 20 20"></polygon>
            <polygon id="Path" stroke="#A5B7C0" stroke-linejoin="round" points="17.5 1.66666667 2.5 1.66666667 2.5 12.9166667 17.5 12.9166667"></polygon>
            <polyline id="Path" stroke="#A5B7C0" stroke-linecap="round" stroke-linejoin="round" points="17.5 12.9166667 17.5 18.3333333 2.5 18.3333333 2.5 12.9166667"></polyline>
            <path d="M6.66666667,3.75 L5.41666667,3.75 C5.18654167,3.75 5,3.93655 5,4.16666667 L5,5.41666667 C5,5.64679167 5.18654167,5.83333333 5.41666667,5.83333333 L6.66666667,5.83333333 C6.89679167,5.83333333 7.08333333,5.64679167 7.08333333,5.41666667 L7.08333333,4.16666667 C7.08333333,3.93655 6.89679167,3.75 6.66666667,3.75 Z" id="Path" fill="#A5B7C0" fill-rule="nonzero"></path>
            <path d="M6.66666667,6.66666667 L5.41666667,6.66666667 C5.18654167,6.66666667 5,6.85320833 5,7.08333333 L5,8.33333333 C5,8.56345833 5.18654167,8.75 5.41666667,8.75 L6.66666667,8.75 C6.89679167,8.75 7.08333333,8.56345833 7.08333333,8.33333333 L7.08333333,7.08333333 C7.08333333,6.85320833 6.89679167,6.66666667 6.66666667,6.66666667 Z" id="Path" fill="#A5B7C0" fill-rule="nonzero"></path>
            <path d="M10.625,3.75 L9.375,3.75 C9.144875,3.75 8.95833333,3.93655 8.95833333,4.16666667 L8.95833333,5.41666667 C8.95833333,5.64679167 9.144875,5.83333333 9.375,5.83333333 L10.625,5.83333333 C10.855125,5.83333333 11.0416667,5.64679167 11.0416667,5.41666667 L11.0416667,4.16666667 C11.0416667,3.93655 10.855125,3.75 10.625,3.75 Z" id="Path" fill="#A5B7C0" fill-rule="nonzero"></path>
            <path d="M10.625,6.66666667 L9.375,6.66666667 C9.144875,6.66666667 8.95833333,6.85320833 8.95833333,7.08333333 L8.95833333,8.33333333 C8.95833333,8.56345833 9.144875,8.75 9.375,8.75 L10.625,8.75 C10.855125,8.75 11.0416667,8.56345833 11.0416667,8.33333333 L11.0416667,7.08333333 C11.0416667,6.85320833 10.855125,6.66666667 10.625,6.66666667 Z" id="Path" fill="#A5B7C0" fill-rule="nonzero"></path>
            <path d="M11.0416667,15.625 C11.0416667,15.0497083 10.5752917,14.5833333 10,14.5833333 C9.42470833,14.5833333 8.95833333,15.0497083 8.95833333,15.625 C8.95833333,16.2002917 9.42470833,16.6666667 10,16.6666667 C10.5752917,16.6666667 11.0416667,16.2002917 11.0416667,15.625 Z" id="Path" fill="#A5B7C0" fill-rule="nonzero"></path>
            <path d="M14.5833333,3.75 L13.3333333,3.75 C13.1032083,3.75 12.9166667,3.93655 12.9166667,4.16666667 L12.9166667,5.41666667 C12.9166667,5.64679167 13.1032083,5.83333333 13.3333333,5.83333333 L14.5833333,5.83333333 C14.8134583,5.83333333 15,5.64679167 15,5.41666667 L15,4.16666667 C15,3.93655 14.8134583,3.75 14.5833333,3.75 Z" id="Path" fill="#A5B7C0" fill-rule="nonzero"></path>
        </g>
    </g>
</svg>