<?xml version="1.0" encoding="UTF-8"?>
<svg width="20px" height="20px" viewBox="0 0 20 20" version="1.1" xmlns="http://www.w3.org/2000/svg" xmlns:xlink="http://www.w3.org/1999/xlink">
    <title>painted-eggshell</title>
    <g id="Page-1" stroke="none" stroke-width="1" fill="none" fill-rule="evenodd">
        <g id="painted-eggshell">
            <rect id="Rectangle" fill-opacity="0.01" fill="#FFFFFF" fill-rule="nonzero" x="0" y="0" width="20" height="20"></rect>
            <path d="M10,18.33325 C14.2718333,18.33325 16.6666667,15.435625 16.6666667,10.83325 C16.6666667,6.23091667 12.9715,1.66660417 10,1.66660417 C7.0285,1.66660417 3.33333333,6.23091667 3.33333333,10.83325 C3.33333333,15.435625 5.72816667,18.33325 10,18.33325 Z" id="Path" stroke="#A5B7C0"></path>
            <path d="M8.75,15.83325 C9.440375,15.83325 10,15.273625 10,14.58325 C10,13.8929167 9.440375,13.33325 8.75,13.33325 C8.059625,13.33325 7.5,13.8929167 7.5,14.58325 C7.5,15.273625 8.059625,15.83325 8.75,15.83325 Z" id="Path" fill="#A5B7C0" fill-rule="nonzero"></path>
            <path d="M6.66666667,12.361375 C7.12691667,12.361375 7.5,11.9882917 7.5,11.5280417 C7.5,11.0678333 7.12691667,10.6947083 6.66666667,10.6947083 C6.20641667,10.6947083 5.83333333,11.0678333 5.83333333,11.5280417 C5.83333333,11.9882917 6.20641667,12.361375 6.66666667,12.361375 Z" id="Path" fill="#A5B7C0"></path>
        </g>
    </g>
</svg>