<?xml version="1.0" encoding="UTF-8"?>
<svg width="20px" height="20px" viewBox="0 0 20 20" version="1.1" xmlns="http://www.w3.org/2000/svg" xmlns:xlink="http://www.w3.org/1999/xlink">
    <title>parachute</title>
    <g id="Page-1" stroke="none" stroke-width="1" fill="none" fill-rule="evenodd">
        <g id="parachute">
            <rect id="Rectangle" fill-opacity="0.01" fill="#FFFFFF" x="0" y="0" width="20" height="20"></rect>
            <g id="Group" transform="translate(1.666667, 1.666667)" stroke="#A5B7C0" stroke-linejoin="round">
                <path d="M5.30303029,8.33333333 C6.31313133,7.32323233 7.32323233,6.81818183 8.33333333,6.81818183 C9.34343433,6.81818183 10.3535353,7.32323233 11.3636364,8.33333333 C12.5420875,7.32323233 13.4259259,6.81818183 14.0151515,6.81818183 C14.6043771,6.81818183 15.4882155,7.32323233 16.6666667,8.33333333 C16.6666667,3.73096042 12.9357062,0 8.33333333,0 C3.73096042,0 0,3.73096042 0,8.33333333 C1.17845118,7.32323233 2.06228956,6.81818183 2.65151515,6.81818183 C3.24074074,6.81818183 4.12457912,7.32323233 5.30303029,8.33333333 Z" id="Path"></path>
                <polyline id="Path" stroke-linecap="round" points="0 8.33333333 8.33333333 16.6666667 5.30303029 8.33333333"></polyline>
                <polyline id="Path" stroke-linecap="round" points="11.3636364 8.33333333 8.33333333 16.6666667 16.6666667 8.33333333"></polyline>
            </g>
        </g>
    </g>
</svg>