<?xml version="1.0" encoding="UTF-8"?>
<svg width="20px" height="20px" viewBox="0 0 20 20" version="1.1" xmlns="http://www.w3.org/2000/svg" xmlns:xlink="http://www.w3.org/1999/xlink">
    <title>people</title>
    <g id="Page-1" stroke="none" stroke-width="1" fill="none" fill-rule="evenodd">
        <g id="people">
            <rect id="Rectangle" fill-opacity="0.01" fill="#FFFFFF" fill-rule="nonzero" x="0" y="0" width="20" height="20"></rect>
            <path d="M10,8.33333333 C11.6108333,8.33333333 12.9166667,7.0275 12.9166667,5.41666667 C12.9166667,3.8058375 11.6108333,2.5 10,2.5 C8.38916667,2.5 7.08333333,3.8058375 7.08333333,5.41666667 C7.08333333,7.0275 8.38916667,8.33333333 10,8.33333333 Z" id="Path" stroke="#A5B7C0" stroke-linecap="round" stroke-linejoin="round"></path>
            <path d="M2.5,17 L2.5,17.5 L17.5,17.5 L17.5,17 C17.5,15.1331667 17.5,14.19975 17.1367083,13.4867083 C16.817125,12.8595 16.3071667,12.3495417 15.6799583,12.0299583 C14.9669167,11.6666667 14.0335,11.6666667 12.1666667,11.6666667 L7.83333333,11.6666667 C5.9665,11.6666667 5.03308333,11.6666667 4.32004167,12.0299583 C3.692825,12.3495417 3.1828875,12.8595 2.8633125,13.4867083 C2.5,14.19975 2.5,15.1331667 2.5,17 Z" id="Path" stroke="#A5B7C0" stroke-linecap="round" stroke-linejoin="round"></path>
        </g>
    </g>
</svg>