<?xml version="1.0" encoding="UTF-8"?>
<svg width="20px" height="20px" viewBox="0 0 20 20" version="1.1" xmlns="http://www.w3.org/2000/svg" xmlns:xlink="http://www.w3.org/1999/xlink">
    <title>peoples</title>
    <g id="Page-1" stroke="none" stroke-width="1" fill="none" fill-rule="evenodd">
        <g id="peoples">
            <rect id="Rectangle" fill-opacity="0.01" fill="#FFFFFF" fill-rule="nonzero" x="0" y="0" width="20" height="20"></rect>
            <path d="M7.91666667,8.33333333 C9.5275,8.33333333 10.8333333,7.0275 10.8333333,5.41666667 C10.8333333,3.8058375 9.5275,2.5 7.91666667,2.5 C6.30583333,2.5 5,3.8058375 5,5.41666667 C5,7.0275 6.30583333,8.33333333 7.91666667,8.33333333 Z" id="Path" stroke="#A5B7C0" stroke-linecap="round" stroke-linejoin="round"></path>
            <path d="M13.5865417,2.91666667 C14.4335417,3.42704167 15.0000417,4.35570833 15.0000417,5.41666667 C15.0000417,6.477625 14.4335417,7.40629167 13.5865417,7.91666667" id="Path" stroke="#A5B7C0" stroke-linecap="round" stroke-linejoin="round"></path>
            <path d="M1.66666667,17 L1.66666667,17.5 L14.1666667,17.5 L14.1666667,17 C14.1666667,15.1331667 14.1666667,14.19975 13.803375,13.4867083 C13.4837917,12.8595 12.9738333,12.3495417 12.346625,12.0299583 C11.6335833,11.6666667 10.7001667,11.6666667 8.83333333,11.6666667 L7,11.6666667 C5.13316667,11.6666667 4.19975,11.6666667 3.4867,12.0299583 C2.85949167,12.3495417 2.34955417,12.8595 2.02997917,13.4867083 C1.66666667,14.19975 1.66666667,15.1331667 1.66666667,17 Z" id="Path" stroke="#A5B7C0" stroke-linecap="round" stroke-linejoin="round"></path>
            <path d="M18.3332917,17.5 L18.3332917,17 C18.3332917,15.1331667 18.3332917,14.19975 17.97,13.4867083 C17.6504167,12.8595 17.1404583,12.3495417 16.51325,12.0299583" id="Path" stroke="#A5B7C0" stroke-linecap="round" stroke-linejoin="round"></path>
        </g>
    </g>
</svg>