<?xml version="1.0" encoding="UTF-8"?>
<svg width="20px" height="20px" viewBox="0 0 20 20" version="1.1" xmlns="http://www.w3.org/2000/svg" xmlns:xlink="http://www.w3.org/1999/xlink">
    <title>performance</title>
    <g id="Page-1" stroke="none" stroke-width="1" fill="none" fill-rule="evenodd">
        <g id="performance">
            <rect id="Rectangle" fill-opacity="0.01" fill="#FFFFFF" fill-rule="nonzero" x="0" y="0" width="20" height="20"></rect>
            <path d="M10,1.66666667 C5.397625,1.66666667 1.66666667,5.397625 1.66666667,10 C1.66666667,14.602375 5.397625,18.3333333 10,18.3333333 C14.602375,18.3333333 18.3333333,14.602375 18.3333333,10 C18.3333333,8.870125 18.1084583,7.79275 17.7010417,6.81025 C17.5961667,6.55733333 17.4792083,6.31070833 17.350875,6.071125" id="Path" stroke="#A5B7C0" stroke-linecap="round" stroke-linejoin="round"></path>
            <path d="M14.5833333,4.16666667 C15.5037917,4.16666667 16.25,3.60702083 16.25,2.91666667 C16.25,2.2263125 15.5037917,1.66666667 14.5833333,1.66666667 C13.662875,1.66666667 12.9166667,2.2263125 12.9166667,2.91666667 C12.9166667,3.60702083 13.662875,4.16666667 14.5833333,4.16666667 Z" id="Path" stroke="#A5B7C0" stroke-linejoin="round"></path>
            <path d="M10,12.9166667 C11.6108333,12.9166667 12.9166667,11.6108333 12.9166667,10 C12.9166667,8.38916667 11.6108333,7.08333333 10,7.08333333 C8.38916667,7.08333333 7.08333333,8.38916667 7.08333333,10 C7.08333333,11.6108333 8.38916667,12.9166667 10,12.9166667 Z" id="Path" stroke="#A5B7C0" stroke-linejoin="round"></path>
            <line x1="12.9166667" y1="2.70833333" x2="12.9166667" y2="10" id="Path" stroke="#A5B7C0" stroke-linecap="round" stroke-linejoin="round"></line>
        </g>
    </g>
</svg>