<?xml version="1.0" encoding="UTF-8"?>
<svg width="20px" height="20px" viewBox="0 0 20 20" version="1.1" xmlns="http://www.w3.org/2000/svg" xmlns:xlink="http://www.w3.org/1999/xlink">
    <title>period</title>
    <g id="Page-1" stroke="none" stroke-width="1" fill="none" fill-rule="evenodd">
        <g id="period">
            <rect id="Rectangle" fill-opacity="0.01" fill="#FFFFFF" fill-rule="nonzero" x="0" y="0" width="20" height="20"></rect>
            <path d="M3.33315,1.66666667 C5.00091667,3.0569125 5.83475,4.44645833 5.83475,5.83525 C5.83475,7.91845833 4.16648333,8.8515 3.33315,10 C2.49981667,11.1485 2.08536667,12.4712917 2.08536667,14.1680417 C2.08536667,15.2991667 2.50129583,16.687625 3.33315,18.3333333" id="Path" stroke="#A5B7C0" stroke-linecap="round"></path>
            <path d="M16.6680833,1.66666667 C15.0003333,3.0569125 14.1664583,4.44645833 14.1664583,5.83525 C14.1664583,7.91845833 15.83475,8.8515 16.6680833,10 C17.5014167,11.1485 17.9158333,12.4712917 17.9158333,14.1680417 C17.9158333,15.2991667 17.4999167,16.687625 16.6680833,18.3333333" id="Path" stroke="#A5B7C0" stroke-linecap="round"></path>
            <path d="M5.83495833,12.1594167 C6.885625,12.05875 7.758,12.2089167 8.45220833,12.6099583 C9.49345833,13.2115 9.99654167,13.899875 10,14.5655417 C10.0023333,15.0093333 10.0023333,16.2652917 10,18.333375" id="Path" stroke="#A5B7C0" stroke-linecap="round"></path>
            <path d="M14.1682917,12.1594167 C13.1176667,12.05875 12.24525,12.2089167 11.5510833,12.6099583 C10.5097917,13.2115 10.0067083,13.899875 10.00325,14.5655417" id="Path" stroke="#A5B7C0" stroke-linecap="round"></path>
        </g>
    </g>
</svg>