<?xml version="1.0" encoding="UTF-8"?>
<svg width="20px" height="20px" viewBox="0 0 20 20" version="1.1" xmlns="http://www.w3.org/2000/svg" xmlns:xlink="http://www.w3.org/1999/xlink">
    <title>perspective</title>
    <g id="Page-1" stroke="none" stroke-width="1" fill="none" fill-rule="evenodd">
        <g id="perspective">
            <rect id="Rectangle" fill-opacity="0.01" fill="#FFFFFF" fill-rule="nonzero" x="0" y="0" width="20" height="20"></rect>
            <path d="M18.3333333,11.6666667 L18.3333333,15 L12.9166667,16.0833333 M18.3333333,11.6666667 L1.66666667,13.3333333 M18.3333333,11.6666667 L18.3333333,8.33333333 M1.66666667,13.3333333 L1.66666667,18.3333333 L7.08333333,17.25 M1.66666667,13.3333333 L1.66666667,6.66666667 M18.3333333,8.33333333 L18.3333333,5 L12.9166667,3.91666667 M18.3333333,8.33333333 L1.66666667,6.66666667 M1.66666667,6.66666667 L1.66666667,1.66666667 L7.08333333,2.75 M12.9166667,3.91666667 L12.9166667,16.0833333 M12.9166667,3.91666667 L7.08333333,2.75 M12.9166667,16.0833333 L7.08333333,17.25 M7.08333333,2.75 L7.08333333,17.25" id="Shape" stroke="#A5B7C0" stroke-linecap="round" stroke-linejoin="round"></path>
        </g>
    </g>
</svg>