<?xml version="1.0" encoding="UTF-8"?>
<svg width="20px" height="20px" viewBox="0 0 20 20" version="1.1" xmlns="http://www.w3.org/2000/svg" xmlns:xlink="http://www.w3.org/1999/xlink">
    <title>pesticide</title>
    <g id="Page-1" stroke="none" stroke-width="1" fill="none" fill-rule="evenodd">
        <g id="pesticide">
            <rect id="Rectangle" fill-opacity="0.01" fill="#FFFFFF" fill-rule="nonzero" x="0" y="0" width="20" height="20"></rect>
            <path d="M6.25,4.73683333 L6.25,1.66666667 L10,1.66666667 L13.75,1.66666667 L13.75,4.73683333 L16.25,7.28616667 L16.25,8.13595833 L16.25,11.5350833 L16.25,17.5 C16.25,17.96025 15.8769167,18.3333333 15.4166667,18.3333333 L4.58333333,18.3333333 C4.12309583,18.3333333 3.75,17.96025 3.75,17.5 L3.75,11.5350833 L3.75,8.13595833 L3.75,7.28616667 L6.25,4.73683333 Z" id="Path" stroke="#A5B7C0" stroke-linejoin="round"></path>
            <polyline id="Path" stroke="#A5B7C0" stroke-linecap="round" stroke-linejoin="round" points="3.75 9.58333333 7.08333333 9.58333333 7.08333333 14.5833333 3.75 14.5833333"></polyline>
            <line x1="6.25" y1="4.79166667" x2="13.75" y2="4.79166667" id="Path" stroke="#A5B7C0" stroke-linecap="round"></line>
            <line x1="12.9166667" y1="9.58333333" x2="12.9166667" y2="12.0833333" id="Path" stroke="#A5B7C0" stroke-linecap="round"></line>
            <line x1="12.9166667" y1="14.1666667" x2="12.9166667" y2="14.5833333" id="Path" stroke="#A5B7C0" stroke-linecap="round"></line>
        </g>
    </g>
</svg>