<?xml version="1.0" encoding="UTF-8"?>
<svg width="20px" height="20px" viewBox="0 0 20 20" version="1.1" xmlns="http://www.w3.org/2000/svg" xmlns:xlink="http://www.w3.org/1999/xlink">
    <title>phone-missed</title>
    <g id="Page-1" stroke="none" stroke-width="1" fill="none" fill-rule="evenodd">
        <g id="phone-missed">
            <rect id="Rectangle" fill-opacity="0.01" fill="#FFFFFF" fill-rule="nonzero" x="0" y="0" width="19.5918367" height="19.5918367"></rect>
            <path d="M6.52910204,3.54523673 C6.82563265,3.54523673 7.09885714,3.70606122 7.24281633,3.96534286 L8.24134694,5.76404082 C8.37208163,5.99955102 8.3782449,6.28440816 8.2577551,6.52534694 L7.29579592,8.44930612 C7.29579592,8.44930612 7.57457143,9.88253061 8.74126531,11.0492245 C9.908,12.2159184 11.3364082,12.4898776 11.3364082,12.4898776 L13.2600408,11.5280816 C13.5011429,11.4075102 13.7862041,11.4137551 14.0217959,11.5447347 L15.8255918,12.5475918 C16.0846531,12.6916327 16.2452653,12.9646939 16.2452653,13.2610612 L16.2452653,15.3318776 C16.2452653,16.386449 15.2657143,17.1481224 14.2665306,16.8109388 C12.2142857,16.1184898 9.02869388,14.8000408 7.00959184,12.780898 C4.9904898,10.7617959 3.67201224,7.57620408 2.97954694,5.524 C2.64239592,4.52477551 3.40406531,3.54523673 4.45861224,3.54523673 L6.52910204,3.54523673 Z" id="Path" stroke="#A5B7C0" stroke-width="0.979591837" stroke-linejoin="round"></path>
            <line x1="15.8102449" y1="3.79015918" x2="12.3468571" y2="7.25355102" id="Path" stroke="#A5B7C0" stroke-width="0.979591837" stroke-linecap="round" stroke-linejoin="round"></line>
            <line x1="12.3468571" y1="3.79018776" x2="15.8102041" y2="7.25355102" id="Path" stroke="#A5B7C0" stroke-width="0.979591837" stroke-linecap="round" stroke-linejoin="round"></line>
        </g>
    </g>
</svg>