<?xml version="1.0" encoding="UTF-8"?>
<svg width="20px" height="20px" viewBox="0 0 20 20" version="1.1" xmlns="http://www.w3.org/2000/svg" xmlns:xlink="http://www.w3.org/1999/xlink">
    <title>phone-telephone</title>
    <g id="Page-1" stroke="none" stroke-width="1" fill="none" fill-rule="evenodd">
        <g id="phone-telephone">
            <rect id="Rectangle" fill-opacity="0.01" fill="#FFFFFF" fill-rule="nonzero" x="0" y="0" width="20" height="20"></rect>
            <path d="M7.08179167,3.20242917 C7.3845,3.20242917 7.66341667,3.36660417 7.810375,3.6312875 L8.82970833,5.46745833 C8.96316667,5.707875 8.96945833,5.99866667 8.84645833,6.244625 L7.86445833,8.20866667 C7.86445833,8.20866667 8.14904167,9.67175 9.34004167,10.86275 C10.5310833,12.05375 11.98925,12.3334167 11.98925,12.3334167 L13.9529583,11.3515833 C14.1990833,11.2285 14.4900833,11.234875 14.7305833,11.3685833 L16.5719583,12.3923333 C16.8364167,12.539375 17.000375,12.818125 17.000375,13.1206667 L17.000375,15.234625 C17.000375,16.3111667 16.0004167,17.0887083 14.9804167,16.7445 C12.8854167,16.037625 9.63345833,14.6917083 7.57229167,12.6305 C5.511125,10.5693333 4.16517917,7.317375 3.4582875,5.22241667 C3.1141125,4.202375 3.89165,3.20242917 4.96816667,3.20242917 L7.08179167,3.20242917 Z" id="Path" stroke="#A5B7C0" stroke-linejoin="round"></path>
        </g>
    </g>
</svg>