<?xml version="1.0" encoding="UTF-8"?>
<svg width="20px" height="20px" viewBox="0 0 20 20" version="1.1" xmlns="http://www.w3.org/2000/svg" xmlns:xlink="http://www.w3.org/1999/xlink">
    <title>phone-off</title>
    <g id="Page-1" stroke="none" stroke-width="1" fill="none" fill-rule="evenodd">
        <g id="phone-off">
            <rect id="Rectangle" fill-opacity="0.01" fill="#FFFFFF" fill-rule="nonzero" x="0" y="0" width="20" height="20"></rect>
            <path d="M8.10158333,8.958375 C7.92375,8.51358333 7.86445833,8.208625 7.86445833,8.208625 L8.84645833,6.24458333 C8.96941667,5.99866667 8.96316667,5.707875 8.82970833,5.46745833 L7.81033333,3.63127083 C7.66341667,3.3665875 7.3845,3.2024125 7.08175,3.2024125 L4.96816667,3.2024125 C3.8916375,3.2024125 3.1143875,4.20333333 3.45859583,5.22333333 C3.963375,6.71916667 4.79383333,8.80445833 5.97770833,10.6250417 M11.1155,12.0465 C11.6267083,12.263875 11.98925,12.3334167 11.98925,12.3334167 L13.9529583,11.3515417 C14.1990833,11.2285 14.4900833,11.234875 14.7305833,11.3685833 L16.5719583,12.3923333 C16.836375,12.5393333 17.000375,12.818125 17.000375,13.1206667 L17.000375,15.234625 C17.000375,16.311125 15.998875,17.0882083 14.978875,16.744 C13.4175417,16.2170833 11.21425,15.335375 9.34004167,14.0674167" id="Shape" stroke="#A5B7C0" stroke-linecap="round" stroke-linejoin="round"></path>
            <line x1="16.6666667" y1="3.33333333" x2="3.33333333" y2="16.6666667" id="Path" stroke="#A5B7C0" stroke-linecap="round" stroke-linejoin="round"></line>
        </g>
    </g>
</svg>