<?xml version="1.0" encoding="UTF-8"?>
<svg width="20px" height="20px" viewBox="0 0 20 20" version="1.1" xmlns="http://www.w3.org/2000/svg" xmlns:xlink="http://www.w3.org/1999/xlink">
    <title>pie-six</title>
    <g id="Page-1" stroke="none" stroke-width="1" fill="none" fill-rule="evenodd">
        <g id="pie-six">
            <rect id="Rectangle" fill-opacity="0.01" fill="#FFFFFF" fill-rule="nonzero" x="0" y="0" width="20" height="20"></rect>
            <circle id="Oval" stroke="#A5B7C0" stroke-linecap="round" stroke-linejoin="round" cx="10" cy="10" r="8.33333333"></circle>
            <path d="M10,1.66666667 C11.6481667,1.66666667 13.2593333,2.15540833 14.62975,3.0710875 C16.0001667,3.98676667 17.06825,5.28825 17.699,6.81095833 C18.3297083,8.33370833 18.49475,10.00925 18.1732083,11.62575 C17.8516667,13.24225 17.058,14.727125 15.8925417,15.8925417 C14.727125,17.058 13.24225,17.8516667 11.62575,18.1732083 C10.00925,18.49475 8.33370833,18.3297083 6.81095833,17.699 C5.28825,17.06825 3.98676667,16.0001667 3.0710875,14.62975 C2.15540833,13.2593333 1.66666667,11.6481667 1.66666667,10 L10,10 L10,1.66666667 Z" id="Path" stroke="#A5B7C0" stroke-linecap="round" stroke-linejoin="round"></path>
        </g>
    </g>
</svg>