<?xml version="1.0" encoding="UTF-8"?>
<svg width="20px" height="20px" viewBox="0 0 20 20" version="1.1" xmlns="http://www.w3.org/2000/svg" xmlns:xlink="http://www.w3.org/1999/xlink">
    <title>pivot-table</title>
    <g id="Page-1" stroke="none" stroke-width="1" fill="none" fill-rule="evenodd">
        <g id="pivot-table">
            <rect id="Rectangle" fill-opacity="0.01" fill="#FFFFFF" fill-rule="nonzero" x="0" y="0" width="20" height="20"></rect>
            <path d="M17.5001667,1.66666667 L2.50002083,1.66666667 C2.039775,1.66666667 1.6666875,2.039775 1.6666875,2.50002083 L1.6671,17.5000417 C1.6671125,17.96025 2.04020833,18.3333333 2.50043333,18.3333333 L17.5001667,18.3333333 C17.9604167,18.3333333 18.3335,17.96025 18.3335,17.5 L18.3335,2.5 C18.3335,2.0397625 17.9604167,1.66666667 17.5001667,1.66666667 Z" id="Path" stroke="#A5B7C0"></path>
            <polyline id="Path" stroke="#A5B7C0" stroke-linecap="round" stroke-linejoin="round" points="8.337 14.170125 13.9585417 14.170125 13.9585417 8.33679167"></polyline>
            <polyline id="Path" stroke="#A5B7C0" stroke-linecap="round" stroke-linejoin="round" points="10.2083333 16.0416667 9.58333333 15.4166667 8.33333333 14.1666667 9.58333333 12.9166667 10.2083333 12.2916667"></polyline>
            <polyline id="Path" stroke="#A5B7C0" stroke-linecap="round" stroke-linejoin="round" points="12.0833333 10.2083333 12.7083333 9.58333333 13.9583333 8.33333333 15.2083333 9.58333333 15.8333333 10.2083333"></polyline>
            <line x1="5.83333333" y1="1.66666667" x2="5.83333333" y2="18.3333333" id="Path" stroke="#A5B7C0" stroke-linecap="round"></line>
            <line x1="1.66666667" y1="5.84908333" x2="18.3333333" y2="5.83333333" id="Path" stroke="#A5B7C0" stroke-linecap="round"></line>
            <line x1="3.33333333" y1="1.66666667" x2="11.6666667" y2="1.66666667" id="Path" stroke="#A5B7C0" stroke-linecap="round" stroke-linejoin="round"></line>
            <line x1="3.33333333" y1="18.3333333" x2="11.6666667" y2="18.3333333" id="Path" stroke="#A5B7C0" stroke-linecap="round" stroke-linejoin="round"></line>
            <line x1="18.3333333" y1="3.33333333" x2="18.3333333" y2="7.5" id="Path" stroke="#A5B7C0" stroke-linecap="round"></line>
            <line x1="1.66666667" y1="3.33333333" x2="1.66666667" y2="7.5" id="Path" stroke="#A5B7C0" stroke-linecap="round"></line>
        </g>
    </g>
</svg>