<?xml version="1.0" encoding="UTF-8"?>
<svg width="20px" height="20px" viewBox="0 0 20 20" version="1.1" xmlns="http://www.w3.org/2000/svg" xmlns:xlink="http://www.w3.org/1999/xlink">
    <title>plan</title>
    <g id="Page-1" stroke="none" stroke-width="1" fill="none" fill-rule="evenodd">
        <g id="plan">
            <rect id="Rectangle" fill-opacity="0.01" fill="#FFFFFF" fill-rule="nonzero" x="0" y="0" width="20" height="20"></rect>
            <path d="M2.08333333,7.91666667 L17.9166667,7.91666667 L17.9166667,17.0833333 C17.9166667,17.5435833 17.5435833,17.9166667 17.0833333,17.9166667 L2.91666667,17.9166667 C2.45642917,17.9166667 2.08333333,17.5435833 2.08333333,17.0833333 L2.08333333,7.91666667 Z" id="Path" stroke="#A5B7C0" stroke-linejoin="round"></path>
            <path d="M2.08333333,4.16666667 C2.08333333,3.70642917 2.45642917,3.33333333 2.91666667,3.33333333 L17.0833333,3.33333333 C17.5435833,3.33333333 17.9166667,3.70642917 17.9166667,4.16666667 L17.9166667,7.91666667 L2.08333333,7.91666667 L2.08333333,4.16666667 Z" id="Path" stroke="#A5B7C0" stroke-linejoin="round"></path>
            <polyline id="Path" stroke="#A5B7C0" stroke-linecap="round" stroke-linejoin="round" points="6.66666667 12.9166667 9.16666667 15.4166667 14.1666667 10.4166667"></polyline>
            <line x1="6.66666667" y1="2.08333333" x2="6.66666667" y2="5.41666667" id="Path" stroke="#A5B7C0" stroke-linecap="round"></line>
            <line x1="13.3333333" y1="2.08333333" x2="13.3333333" y2="5.41666667" id="Path" stroke="#A5B7C0" stroke-linecap="round"></line>
        </g>
    </g>
</svg>