<?xml version="1.0" encoding="UTF-8"?>
<svg width="20px" height="20px" viewBox="0 0 20 20" version="1.1" xmlns="http://www.w3.org/2000/svg" xmlns:xlink="http://www.w3.org/1999/xlink">
    <title>plastic-surgery</title>
    <g id="Page-1" stroke="none" stroke-width="1" fill="none" fill-rule="evenodd">
        <g id="plastic-surgery">
            <rect id="Rectangle" fill-opacity="0.01" fill="#FFFFFF" fill-rule="nonzero" x="0" y="0" width="20" height="20"></rect>
            <path d="M7.93166667,18.3333333 C7.523375,17.0018333 6.90741667,16.0091667 6.08379167,15.3554583 C4.84833333,14.3748333 2.88534583,14.9842917 2.16024167,13.9727917 C1.4351375,12.9613333 2.66825833,11.1012083 3.100975,10.0037083 C3.53369167,8.90616667 1.4424125,8.51808333 1.68656667,8.20654167 C1.84934167,7.99879167 2.90612917,7.39941667 4.85695833,6.40833333 C5.41125,3.24721667 7.45866667,1.66666667 10.99925,1.66666667 C16.3100417,1.66666667 18.3333333,6.169125 18.3333333,9.032875 C18.3333333,11.8965833 15.883375,14.98175 12.393375,15.6469583 C12.0812917,16.1014167 12.5314167,16.9969167 13.7436667,18.3333333" id="Path" stroke="#A5B7C0" stroke-linecap="round" stroke-linejoin="round"></path>
            <path d="M8.75908333,1.91243333 C8.264125,4.0910125 8.264125,5.786125 8.75908333,6.99783333 C9.50158333,8.81533333 12.7836667,8.53608333 12.7836667,10.2317917 C12.7836667,11.9275 10.8712917,12.2535 11.1264583,13.4299583 C11.2965833,14.21425 11.675,15.2314583 12.261625,16.4815833" id="Path" stroke="#A5B7C0" stroke-linecap="round"></path>
            <path d="M7.08333333,12.7295 C7.18141667,12.7295 8.0835,12.6718333 8.732875,11.9996667 C9.16579167,11.5515417 9.38220833,11.023875 9.38220833,10.4166667" id="Path" stroke="#A5B7C0" stroke-linecap="round"></path>
        </g>
    </g>
</svg>