<?xml version="1.0" encoding="UTF-8"?>
<svg width="20px" height="20px" viewBox="0 0 20 20" version="1.1" xmlns="http://www.w3.org/2000/svg" xmlns:xlink="http://www.w3.org/1999/xlink">
    <title>platte</title>
    <g id="Page-1" stroke="none" stroke-width="1" fill="none" fill-rule="evenodd">
        <g id="platte">
            <rect id="Rectangle" fill-opacity="0.01" fill="#FFFFFF" fill-rule="nonzero" x="0" y="0" width="20" height="20"></rect>
            <path d="M10,18.3333333 C12.483375,18.3333333 10.9732917,14.64 12.5,12.9166667 C13.8026667,11.4462083 18.3333333,12.119 18.3333333,10 C18.3333333,5.397625 14.602375,1.66666667 10,1.66666667 C5.397625,1.66666667 1.66666667,5.397625 1.66666667,10 C1.66666667,14.602375 5.397625,18.3333333 10,18.3333333 Z" id="Path" stroke="#A5B7C0" stroke-linejoin="round"></path>
            <path d="M11.6666667,7.08333333 C12.3570417,7.08333333 12.9166667,6.52370833 12.9166667,5.83333333 C12.9166667,5.14295833 12.3570417,4.58333333 11.6666667,4.58333333 C10.9762917,4.58333333 10.4166667,5.14295833 10.4166667,5.83333333 C10.4166667,6.52370833 10.9762917,7.08333333 11.6666667,7.08333333 Z" id="Path" stroke="#A5B7C0" stroke-linejoin="round"></path>
            <path d="M6.66666667,8.75 C7.35704167,8.75 7.91666667,8.190375 7.91666667,7.5 C7.91666667,6.809625 7.35704167,6.25 6.66666667,6.25 C5.97629167,6.25 5.41666667,6.809625 5.41666667,7.5 C5.41666667,8.190375 5.97629167,8.75 6.66666667,8.75 Z" id="Path" stroke="#A5B7C0" stroke-linejoin="round"></path>
            <path d="M7.08333333,14.1666667 C7.77370833,14.1666667 8.33333333,13.6070417 8.33333333,12.9166667 C8.33333333,12.2262917 7.77370833,11.6666667 7.08333333,11.6666667 C6.39295833,11.6666667 5.83333333,12.2262917 5.83333333,12.9166667 C5.83333333,13.6070417 6.39295833,14.1666667 7.08333333,14.1666667 Z" id="Path" stroke="#A5B7C0" stroke-linejoin="round"></path>
        </g>
    </g>
</svg>