<?xml version="1.0" encoding="UTF-8"?>
<svg width="20px" height="20px" viewBox="0 0 20 20" version="1.1" xmlns="http://www.w3.org/2000/svg" xmlns:xlink="http://www.w3.org/1999/xlink">
    <title>plug</title>
    <g id="Page-1" stroke="none" stroke-width="1" fill="none" fill-rule="evenodd">
        <g id="plug">
            <rect id="Rectangle" fill-opacity="0.01" fill="#FFFFFF" x="0" y="0" width="20" height="20"></rect>
            <g id="Group" transform="translate(2.500000, 1.666667)" stroke="#A5B7C0" stroke-linejoin="round">
                <path d="M0,4.16666667 L15,4.16666667 L15,8.33333333 C13.3333333,11.6666667 10.8333333,13.3333333 7.5,13.3333333 C4.16666667,13.3333333 1.66666667,11.6666667 0,8.33333333 L0,4.16666667 Z" id="Path"></path>
                <polyline id="Path" stroke-linecap="round" points="11.25 12.5 10.8333333 16.6666667 4.16666667 16.6666667 3.75 12.5"></polyline>
                <line x1="6.66666667" y1="8.33333333" x2="8.33333333" y2="8.33333333" id="Path" stroke-linecap="round"></line>
                <line x1="4.16666667" y1="3.33333333" x2="4.16666667" y2="-1.85037171e-16" id="Path" stroke-linecap="round" transform="translate(4.166667, 1.666667) rotate(180.000000) translate(-4.166667, -1.666667) "></line>
                <line x1="10.8333333" y1="3.33333333" x2="10.8333333" y2="-1.85037171e-16" id="Path" stroke-linecap="round" transform="translate(10.833333, 1.666667) rotate(180.000000) translate(-10.833333, -1.666667) "></line>
            </g>
        </g>
    </g>
</svg>