<?xml version="1.0" encoding="UTF-8"?>
<svg width="20px" height="20px" viewBox="0 0 20 20" version="1.1" xmlns="http://www.w3.org/2000/svg" xmlns:xlink="http://www.w3.org/1999/xlink">
    <title>printer-one</title>
    <g id="Page-1" stroke="none" stroke-width="1" fill="none" fill-rule="evenodd">
        <g id="printer-one">
            <rect id="Rectangle" fill-opacity="0.01" fill="#FFFFFF" fill-rule="nonzero" x="0" y="0" width="20" height="20"></rect>
            <path d="M13.3333333,13.75 L17.5,13.75 C17.96025,13.75 18.3333333,13.3769167 18.3333333,12.9166667 L18.3333333,6.25 C18.3333333,5.78975 17.96025,5.41666667 17.5,5.41666667 L13.3333333,5.41666667" id="Path" stroke="#A5B7C0" stroke-linecap="round" stroke-linejoin="round"></path>
            <path d="M6.66666667,13.75 L2.5,13.75 C2.0397625,13.75 1.66666667,13.3769167 1.66666667,12.9166667 L1.66666667,6.25 C1.66666667,5.78975 2.0397625,5.41666667 2.5,5.41666667 L6.66666667,5.41666667" id="Path" stroke="#A5B7C0" stroke-linecap="round" stroke-linejoin="round"></path>
            <polyline id="Path" stroke="#A5B7C0" stroke-linecap="round" stroke-linejoin="round" points="5 5.41666667 5 7.91666667 15 7.91666667 15 5.41666667"></polyline>
            <polyline id="Path" stroke="#A5B7C0" stroke-linecap="round" stroke-linejoin="round" points="6.66666667 5.41666667 6.66666667 2.08333333 13.3333333 2.08333333 13.3333333 5.41666667"></polyline>
            <polyline id="Path" stroke="#A5B7C0" stroke-linecap="round" stroke-linejoin="round" points="6.66666667 12.0833333 6.66666667 17.9166667 13.3333333 17.9166667 13.3333333 12.0833333"></polyline>
            <line x1="9.16666667" y1="14.5833333" x2="10.8333333" y2="14.5833333" id="Path" stroke="#A5B7C0" stroke-linecap="round" stroke-linejoin="round"></line>
            <line x1="5.41666667" y1="11.25" x2="14.5833333" y2="11.25" id="Path" stroke="#A5B7C0" stroke-linecap="round" stroke-linejoin="round"></line>
        </g>
    </g>
</svg>