<?xml version="1.0" encoding="UTF-8"?>
<svg width="20px" height="20px" viewBox="0 0 20 20" version="1.1" xmlns="http://www.w3.org/2000/svg" xmlns:xlink="http://www.w3.org/1999/xlink">
    <title>puzzle</title>
    <g id="Page-1" stroke="none" stroke-width="1" fill="none" fill-rule="evenodd">
        <g id="puzzle">
            <rect id="Rectangle" fill-opacity="0.01" fill="#FFFFFF" x="0" y="0" width="20" height="20"></rect>
            <g id="Group" transform="translate(1.666667, 1.666667)" stroke="#A5B7C0" stroke-linejoin="round">
                <path d="M0,8.33333333 L0,3.33333333 L3.75,3.33333333 L3.75,2.5 C3.75,1.11928812 4.86928812,0 6.25,0 C7.63071187,0 8.75,1.11928812 8.75,2.5 L8.75,3.33333333 L12.5,3.33333333 L12.5,8.33333333 L14.1666667,8.33333333 C15.5473785,8.33333333 16.6666667,9.45262146 16.6666667,10.8333333 C16.6666667,12.2140452 15.5473785,13.3333333 14.1666667,13.3333333 L12.5,13.3333333 L12.5,16.6666667 L0,16.6666667 L0,13.3333333 L1.66666667,13.3333333 C3.04737854,13.3333333 4.16666667,12.2140452 4.16666667,10.8333333 C4.16666667,9.45262146 3.04737854,8.33333333 1.66666667,8.33333333 L0,8.33333333 Z" id="Path"></path>
            </g>
        </g>
    </g>
</svg>