<?xml version="1.0" encoding="UTF-8"?>
<svg width="20px" height="20px" viewBox="0 0 20 20" version="1.1" xmlns="http://www.w3.org/2000/svg" xmlns:xlink="http://www.w3.org/1999/xlink">
    <title>quote</title>
    <g id="Page-1" stroke="none" stroke-width="1" fill="none" fill-rule="evenodd">
        <g id="quote">
            <rect id="Rectangle" fill-opacity="0.01" fill="#FFFFFF" fill-rule="nonzero" x="0" y="0" width="20" height="20"></rect>
            <path d="M7.85554167,3.79832083 C4.71779167,5.81345833 2.9746375,8.15883333 2.62606667,10.8345417 C2.08342083,15 5.8085,17.038875 7.69595833,15.2069583 C9.58341667,13.3750833 8.452,11.0498333 7.08529167,10.41425 C5.71858333,9.778625 4.88279167,10 5.02858333,9.15066667 C5.174375,8.30129167 7.11879167,5.946375 8.82704167,4.84966667 C8.940375,4.75329167 8.9835,4.56629167 8.874375,4.42445833 C8.80258333,4.331125 8.66179167,4.14814583 8.452,3.87546667 C8.26854167,3.637025 8.09279167,3.64594583 7.85554167,3.79832083 Z" id="Path" fill="#A5B7C0"></path>
            <path d="M16.1162083,3.79832083 C12.9785,5.81345833 11.2353333,8.15883333 10.88675,10.8345417 C10.344125,15 14.0692083,17.038875 15.9566667,15.2069583 C17.844125,13.3750833 16.7127083,11.0498333 15.346,10.41425 C13.9792917,9.778625 13.1434583,10 13.2892917,9.15066667 C13.4350833,8.30129167 15.3795,5.946375 17.08775,4.84966667 C17.2010833,4.75329167 17.2442083,4.56629167 17.1350417,4.42445833 C17.0632917,4.331125 16.9225,4.14814583 16.7127083,3.87546667 C16.52925,3.637025 16.3535,3.64594583 16.1162083,3.79832083 Z" id="Path" fill="#A5B7C0"></path>
        </g>
    </g>
</svg>