<?xml version="1.0" encoding="UTF-8"?>
<svg width="20px" height="20px" viewBox="0 0 20 20" version="1.1" xmlns="http://www.w3.org/2000/svg" xmlns:xlink="http://www.w3.org/1999/xlink">
    <title>radiation</title>
    <g id="Page-1" stroke="none" stroke-width="1" fill="none" fill-rule="evenodd">
        <g id="radiation">
            <rect id="Rectangle" fill-opacity="0.01" fill="#FFFFFF" x="0" y="0" width="20" height="20"></rect>
            <g id="Group" transform="translate(1.666667, 2.500000)">
                <circle id="Oval" fill="#A5B7C0" cx="8.33486233" cy="7.5" r="1.25"></circle>
                <path d="M6.26689412,10.6149955 C6.85939717,11.0080986 7.56971046,11.236992 8.33333333,11.236992 C9.09695621,11.236992 9.8072695,11.0080986 10.3997725,10.6149955 L12.9254205,14.451119 C11.608747,15.3246814 10.0302731,15.8333333 8.33333333,15.8333333 C6.63639358,15.8333333 5.05791967,15.3246814 3.74124619,14.451119 L6.26689412,10.6149955 Z M4.58995367,7.701676 L0.0147118184,7.97707558 C0.00495000258,7.81141854 0,7.6444635 0,7.47634908 C0,4.20463075 1.87476649,1.37203036 4.60573813,1.67273602e-14 L6.6559155,4.11199199 C5.42697825,4.72940567 4.58333333,6.00407583 4.58333333,7.47634908 C4.58333333,7.55200058 4.58556083,7.62713033 4.58995367,7.701676 Z M10.0107512,4.11199199 L12.0609285,-1.48029737e-15 C14.7919002,1.37203036 16.6666667,4.20463075 16.6666667,7.47634908 C16.6666667,7.6444635 16.6617167,7.81141854 16.6519548,7.97707558 L12.076713,7.701676 C12.0811058,7.62713033 12.0833333,7.55200058 12.0833333,7.47634908 C12.0833333,6.00407583 11.2396884,4.72940567 10.0107512,4.11199199 Z" id="Shape" stroke="#A5B7C0" stroke-linejoin="round"></path>
            </g>
        </g>
    </g>
</svg>