<?xml version="1.0" encoding="UTF-8"?>
<svg width="20px" height="20px" viewBox="0 0 20 20" version="1.1" xmlns="http://www.w3.org/2000/svg" xmlns:xlink="http://www.w3.org/1999/xlink">
    <title>recent-views-sort</title>
    <g id="Page-1" stroke="none" stroke-width="1" fill="none" fill-rule="evenodd">
        <g id="recent-views-sort">
            <rect id="Rectangle" fill-opacity="0.01" fill="#FFFFFF" fill-rule="nonzero" x="0" y="0" width="20" height="20"></rect>
            <polyline id="Path" stroke="#A5B7C0" stroke-linecap="round" stroke-linejoin="round" points="2.5 2.08333333 2.5 12.5 17.5 12.5 17.5 2.08333333"></polyline>
            <polyline id="Path" stroke="#A5B7C0" stroke-linecap="round" stroke-linejoin="round" points="12.5 15.4166667 10 17.9166667 7.5 15.4166667"></polyline>
            <line x1="10" y1="12.5" x2="10" y2="17.9166667" id="Path" stroke="#A5B7C0" stroke-linecap="round" stroke-linejoin="round"></line>
            <path d="M10,8.75 C11.6875417,8.75 13.2153333,7.91666667 14.5833333,6.25 C13.2153333,4.58333333 11.6875417,3.75 10,3.75 C8.31245833,3.75 6.78466667,4.58333333 5.41666667,6.25 C6.78466667,7.91666667 8.31245833,8.75 10,8.75 Z" id="Path" stroke="#A5B7C0" stroke-linejoin="round"></path>
            <path d="M10,7.5 C10.690375,7.5 11.25,6.940375 11.25,6.25 C11.25,5.559625 10.690375,5 10,5 C9.309625,5 8.75,5.559625 8.75,6.25 C8.75,6.940375 9.309625,7.5 10,7.5 Z" id="Path" fill="#A5B7C0" fill-rule="nonzero"></path>
        </g>
    </g>
</svg>