<?xml version="1.0" encoding="UTF-8"?>
<svg width="20px" height="20px" viewBox="0 0 20 20" version="1.1" xmlns="http://www.w3.org/2000/svg" xmlns:xlink="http://www.w3.org/1999/xlink">
    <title>rectangle-tear</title>
    <g id="Page-1" stroke="none" stroke-width="1" fill="none" fill-rule="evenodd">
        <g id="rectangle-tear">
            <rect id="Rectangle" fill-opacity="0.01" fill="#FFFFFF" fill-rule="nonzero" x="0" y="0" width="20" height="20"></rect>
            <path d="M2.5,3.33333333 L2.5,16.6666667 C2.5,17.1269167 2.87309583,17.5 3.33333333,17.5 L16.6666667,17.5 C17.1269167,17.5 17.5,17.1269167 17.5,16.6666667 L17.5,3.33333333 C17.5,2.87309583 17.1269167,2.5 16.6666667,2.5 L3.33333333,2.5 C2.87309583,2.5 2.5,2.87309583 2.5,3.33333333 Z" id="Path" stroke="#A5B7C0" stroke-linecap="round" stroke-linejoin="round"></path>
            <polyline id="Path" stroke="#A5B7C0" stroke-linecap="round" stroke-linejoin="round" points="11.25 2.5 8.75 5 11.25 7.5 8.75 10 11.25 12.5 8.75 15 11.25 17.5"></polyline>
            <line x1="7.5" y1="2.5" x2="14.1666667" y2="2.5" id="Path" stroke="#A5B7C0" stroke-linecap="round" stroke-linejoin="round"></line>
            <line x1="7.5" y1="17.5" x2="14.1666667" y2="17.5" id="Path" stroke="#A5B7C0" stroke-linecap="round" stroke-linejoin="round"></line>
        </g>
    </g>
</svg>