<?xml version="1.0" encoding="UTF-8"?>
<svg width="20px" height="20px" viewBox="0 0 20 20" version="1.1" xmlns="http://www.w3.org/2000/svg" xmlns:xlink="http://www.w3.org/1999/xlink">
    <title>recycling-pool</title>
    <g id="Page-1" stroke="none" stroke-width="1" fill="none" fill-rule="evenodd">
        <g id="recycling-pool">
            <rect id="Rectangle" fill-opacity="0.01" fill="#FFFFFF" fill-rule="nonzero" x="0" y="0" width="20" height="20"></rect>
            <polyline id="Path" stroke="#A5B7C0" stroke-linecap="round" stroke-linejoin="round" points="8.33333333 6.66666667 10 8.33333333 11.6666667 6.66666667"></polyline>
            <polyline id="Path" stroke="#A5B7C0" stroke-linecap="round" stroke-linejoin="round" points="13.3333333 12.0833333 15 13.75 16.6666667 12.0833333"></polyline>
            <polyline id="Path" stroke="#A5B7C0" stroke-linecap="round" stroke-linejoin="round" points="3.33333333 12.0833333 5 13.75 6.66666667 12.0833333"></polyline>
            <line x1="10" y1="8.33333333" x2="10" y2="1.66666667" id="Path" stroke="#A5B7C0" stroke-linecap="round" stroke-linejoin="round"></line>
            <path d="M15,13.6945417 L15,8.18208333 C15,7.26158333 15.7462083,6.51541667 16.6666667,6.51541667 L18.3333333,6.51541667" id="Path" stroke="#A5B7C0" stroke-linecap="round" stroke-linejoin="round"></path>
            <path d="M5,13.6945417 L5,8.18208333 C5,7.26158333 4.25379167,6.51541667 3.33333333,6.51541667 L1.66666667,6.51541667" id="Path" stroke="#A5B7C0" stroke-linecap="round" stroke-linejoin="round"></path>
            <path d="M1.66666667,15 L1.66666667,16.6666667 C1.66666667,17.587125 2.41285833,18.3333333 3.33333333,18.3333333 L16.6666667,18.3333333 C17.587125,18.3333333 18.3333333,17.587125 18.3333333,16.6666667 L18.3333333,15" id="Path" stroke="#A5B7C0" stroke-linecap="round" stroke-linejoin="round"></path>
        </g>
    </g>
</svg>