<?xml version="1.0" encoding="UTF-8"?>
<svg width="20px" height="20px" viewBox="0 0 20 20" version="1.1" xmlns="http://www.w3.org/2000/svg" xmlns:xlink="http://www.w3.org/1999/xlink">
    <title>reject</title>
    <g id="Page-1" stroke="none" stroke-width="1" fill="none" fill-rule="evenodd">
        <g id="reject">
            <rect id="Rectangle" fill-opacity="0.01" fill="#FFFFFF" x="0" y="0" width="20" height="20"></rect>
            <path d="M7.92079737,17.5 L3.75,17.5 C3.05964406,17.5 2.5,16.9403559 2.5,16.25 L2.5,3.75 C2.5,3.05964406 3.05964406,2.5 3.75,2.5 L3.75,2.5 L16.25,2.5 C16.9403559,2.5 17.5,3.05964406 17.5,3.75 L17.5,7.92932937" id="Path" stroke="#A5B7C0" stroke-linecap="round" stroke-linejoin="round"></path>
            <path d="M17.5,12.0977469 L17.5,17.0833333 C17.5,17.313452 17.313452,17.5 17.0833333,17.5 L12.0987783,17.5" id="Path" stroke="#A5B7C0" stroke-linecap="round" stroke-linejoin="round"></path>
            <line x1="17.5" y1="12.0977469" x2="7.5" y2="12.0977469" id="Path" stroke="#A5B7C0" stroke-linecap="round" stroke-linejoin="round"></line>
            <polyline id="Path" stroke="#A5B7C0" stroke-linecap="round" stroke-linejoin="round" transform="translate(8.333333, 12.083333) scale(-1, 1) translate(-8.333333, -12.083333) " points="7.08333333 9.58333333 9.58333333 12.0833333 7.08333333 14.5833333"></polyline>
        </g>
    </g>
</svg>