<?xml version="1.0" encoding="UTF-8"?>
<svg width="20px" height="20px" viewBox="0 0 20 20" version="1.1" xmlns="http://www.w3.org/2000/svg" xmlns:xlink="http://www.w3.org/1999/xlink">
    <title>remind-disable</title>
    <g id="Page-1" stroke="none" stroke-width="1" fill="none" fill-rule="evenodd">
        <g id="remind-disable">
            <rect id="Rectangle" fill-opacity="0.01" fill="#FFFFFF" fill-rule="nonzero" x="0" y="0" width="20" height="20"></rect>
            <path d="M10,1.66666667 C6.77833333,1.66666667 4.16666667,4.27833333 4.16666667,7.5 L4.16666667,15.8333333 L15.8333333,15.8333333 L15.8333333,7.5 C15.8333333,4.27833333 13.2216667,1.66666667 10,1.66666667 Z" id="Path"></path>
            <path d="M4.16666667,15.8333333 L4.16666667,7.5 C4.16666667,4.27833333 6.77833333,1.66666667 10,1.66666667 C13.2216667,1.66666667 15.8333333,4.27833333 15.8333333,7.5 L15.8333333,15.8333333 M1.66666667,15.8333333 L18.3333333,15.8333333" id="Shape" stroke="#A5B7C0" stroke-linecap="round" stroke-linejoin="round"></path>
            <path d="M10,18.3333333 C11.1505833,18.3333333 12.0833333,17.4005833 12.0833333,16.25 L12.0833333,15.8333333 L7.91666667,15.8333333 L7.91666667,16.25 C7.91666667,17.4005833 8.84941667,18.3333333 10,18.3333333 Z" id="Path" stroke="#A5B7C0" stroke-linecap="round" stroke-linejoin="round"></path>
            <line x1="7.91666667" y1="7.08333333" x2="12.0833333" y2="11.25" id="Path" stroke="#A5B7C0" stroke-linecap="round" stroke-linejoin="round"></line>
            <line x1="12.0833333" y1="7.08333333" x2="7.91666667" y2="11.25" id="Path" stroke="#A5B7C0" stroke-linecap="round" stroke-linejoin="round"></line>
        </g>
    </g>
</svg>