<?xml version="1.0" encoding="UTF-8"?>
<svg width="20px" height="20px" viewBox="0 0 20 20" version="1.1" xmlns="http://www.w3.org/2000/svg" xmlns:xlink="http://www.w3.org/1999/xlink">
    <title>ring</title>
    <g id="Page-1" stroke="none" stroke-width="1" fill="none" fill-rule="evenodd">
        <g id="ring">
            <rect id="Rectangle" fill-opacity="0.01" fill="#FFFFFF" fill-rule="nonzero" x="0" y="0" width="20" height="20"></rect>
            <path d="M9.99995833,4.84125 C10.872,4.84125 11.5789167,4.1306125 11.5789167,3.25396667 C11.5789167,2.377325 10.872,1.66666667 9.99995833,1.66666667 C9.12795833,1.66666667 8.421,2.377325 8.421,3.25396667 C8.421,4.1306125 9.12795833,4.84125 9.99995833,4.84125 Z" id="Path" stroke="#A5B7C0" stroke-linejoin="round"></path>
            <path d="M4.07894583,16.7460833 C4.95095833,16.7460833 5.657875,16.0354167 5.657875,15.1587917 C5.657875,14.282125 4.95095833,13.5714583 4.07894583,13.5714583 C3.20692083,13.5714583 2.5,14.282125 2.5,15.1587917 C2.5,16.0354167 3.20692083,16.7460833 4.07894583,16.7460833 Z" id="Path" stroke="#A5B7C0" stroke-linejoin="round"></path>
            <path d="M15.9210833,16.7460833 C16.793125,16.7460833 17.5000417,16.0354167 17.5000417,15.1587917 C17.5000417,14.282125 16.793125,13.5714583 15.9210833,13.5714583 C15.0490417,13.5714583 14.342125,14.282125 14.342125,15.1587917 C14.342125,16.0354167 15.0490417,16.7460833 15.9210833,16.7460833 Z" id="Path" stroke="#A5B7C0" stroke-linejoin="round"></path>
            <path d="M13.8094167,4.29758333 C16.0183333,5.60954167 17.4999583,8.02766667 17.4999583,10.7936667 C17.4999583,11.034 17.4887917,11.27175 17.4669167,11.5063333 L17.4669167,11.5063333" id="Path" stroke="#A5B7C0" stroke-linecap="round" stroke-linejoin="round"></path>
            <path d="M12.922375,17.7395833 C12.0242917,18.1219167 11.0366667,18.333375 9.99995833,18.333375 C8.96325,18.333375 7.97566667,18.1219167 7.07754167,17.7395833" id="Path" stroke="#A5B7C0" stroke-linecap="round" stroke-linejoin="round"></path>
            <path d="M2.53306667,11.5063333 C2.5111875,11.27175 2.5,11.034 2.5,10.7936667 C2.5,8.02766667 3.981625,5.60954167 6.19054167,4.29758333" id="Path" stroke="#A5B7C0" stroke-linecap="round" stroke-linejoin="round"></path>
        </g>
    </g>
</svg>