<?xml version="1.0" encoding="UTF-8"?>
<svg width="20px" height="20px" viewBox="0 0 20 20" version="1.1" xmlns="http://www.w3.org/2000/svg" xmlns:xlink="http://www.w3.org/1999/xlink">
    <title>ring-one</title>
    <g id="Page-1" stroke="none" stroke-width="1" fill="none" fill-rule="evenodd">
        <g id="ring-one">
            <rect id="Rectangle" fill-opacity="0.01" fill="#FFFFFF" fill-rule="nonzero" x="0" y="0" width="20" height="20"></rect>
            <path d="M9.99995833,4.69695833 C10.83675,4.69695833 11.515125,4.0186125 11.515125,3.18181667 C11.515125,2.345025 10.83675,1.66666667 9.99995833,1.66666667 C9.16316667,1.66666667 8.48479167,2.345025 8.48479167,3.18181667 C8.48479167,4.0186125 9.16316667,4.69695833 9.99995833,4.69695833 Z" id="Path" stroke="#A5B7C0" stroke-linejoin="round"></path>
            <path d="M9.99995833,18.3333333 C10.83675,18.3333333 11.515125,17.655 11.515125,16.8182083 C11.515125,15.9814167 10.83675,15.3030417 9.99995833,15.3030417 C9.16316667,15.3030417 8.48479167,15.9814167 8.48479167,16.8182083 C8.48479167,17.655 9.16316667,18.3333333 9.99995833,18.3333333 Z" id="Path" stroke="#A5B7C0" stroke-linejoin="round"></path>
            <path d="M3.18181667,11.515125 C4.0186125,11.515125 4.69695833,10.83675 4.69695833,9.99995833 C4.69695833,9.16316667 4.0186125,8.48479167 3.18181667,8.48479167 C2.345025,8.48479167 1.66666667,9.16316667 1.66666667,9.99995833 C1.66666667,10.83675 2.345025,11.515125 3.18181667,11.515125 Z" id="Path" stroke="#A5B7C0" stroke-linejoin="round"></path>
            <path d="M16.8182083,11.515125 C17.655,11.515125 18.3333333,10.83675 18.3333333,9.99995833 C18.3333333,9.16316667 17.655,8.48479167 16.8182083,8.48479167 C15.9814167,8.48479167 15.3030417,9.16316667 15.3030417,9.99995833 C15.3030417,10.83675 15.9814167,11.515125 16.8182083,11.515125 Z" id="Path" stroke="#A5B7C0" stroke-linejoin="round"></path>
            <path d="M13.639125,4.23320833 C14.4965,4.775375 15.2245833,5.5035 15.7667917,6.36083333" id="Path" stroke="#A5B7C0" stroke-linecap="round" stroke-linejoin="round"></path>
            <path d="M15.7667917,13.639125 C15.2245833,14.4965 14.4965,15.2245833 13.639125,15.7667917" id="Path" stroke="#A5B7C0" stroke-linecap="round" stroke-linejoin="round"></path>
            <path d="M6.36083333,15.7667917 C5.5035,15.2245833 4.775375,14.4965 4.23320833,13.639125" id="Path" stroke="#A5B7C0" stroke-linecap="round" stroke-linejoin="round"></path>
            <path d="M4.23320833,6.36083333 C4.775375,5.5035 5.5035,4.775375 6.36083333,4.23320833" id="Path" stroke="#A5B7C0" stroke-linecap="round" stroke-linejoin="round"></path>
        </g>
    </g>
</svg>