<?xml version="1.0" encoding="UTF-8"?>
<svg width="20px" height="20px" viewBox="0 0 20 20" version="1.1" xmlns="http://www.w3.org/2000/svg" xmlns:xlink="http://www.w3.org/1999/xlink">
    <title>ripple</title>
    <g id="Page-1" stroke="none" stroke-width="1" fill="none" fill-rule="evenodd">
        <g id="ripple">
            <rect id="Rectangle" fill-opacity="0.01" fill="#FFFFFF" fill-rule="nonzero" x="0" y="0" width="20" height="20"></rect>
            <path d="M1.66666667,15 C1.66666667,15 3.75,13.75 5.83333333,13.75 C8.874,13.75 11.126,16.25 14.1666667,16.25 C16.25,16.25 18.3333333,15 18.3333333,15" id="Path" stroke="#A5B7C0" stroke-linecap="round" stroke-linejoin="round"></path>
            <path d="M1.66666667,10 C1.66666667,10 3.75,8.75 5.83333333,8.75 C8.874,8.75 11.126,11.25 14.1666667,11.25 C16.25,11.25 18.3333333,10 18.3333333,10" id="Path" stroke="#A5B7C0" stroke-linecap="round" stroke-linejoin="round"></path>
            <path d="M1.66666667,5 C1.66666667,5 3.75,3.75 5.83333333,3.75 C8.874,3.75 11.126,6.25 14.1666667,6.25 C16.25,6.25 18.3333333,5 18.3333333,5" id="Path" stroke="#A5B7C0" stroke-linecap="round" stroke-linejoin="round"></path>
        </g>
    </g>
</svg>