<?xml version="1.0" encoding="UTF-8"?>
<svg width="20px" height="20px" viewBox="0 0 20 20" version="1.1" xmlns="http://www.w3.org/2000/svg" xmlns:xlink="http://www.w3.org/1999/xlink">
    <title>rock-gesture</title>
    <g id="Page-1" stroke="none" stroke-width="1" fill="none" fill-rule="evenodd">
        <g id="rock-gesture">
            <rect id="Rectangle" fill-opacity="0.01" fill="#FFFFFF" fill-rule="nonzero" x="0" y="0" width="20" height="20"></rect>
            <path d="M10.0000009,10.4166667 C10.0000009,10.4166667 10.0000009,3.54166667 10.0000009,3.125 C10.0000009,2.59114583 10.2083333,1.66666667 11.25,1.66666667 C12.2916667,1.66666667 12.5000009,2.59114583 12.5000009,3.125 C12.5000009,3.33333333 12.5000009,12.5 12.5000009,12.5 C12.5000009,12.5 14.8762917,10.1237083 15.4166667,9.58333333 C15.9570417,9.04295833 16.6992083,8.78254167 17.2916667,9.375 C17.884125,9.96745833 17.95575,10.5859583 17.2916667,11.25 C16.627625,11.9140417 14.5833333,13.9583333 14.5833333,13.9583333 C14.5833333,13.9583333 12.1224167,18.3333333 10.8333333,18.3333333 C9.54429167,18.3333333 5.41666667,18.3333333 5.41666667,18.3333333 C5.41666667,18.3333333 4.16666667,18.3333333 3.33334167,17.5 C2.50000093,16.6666667 2.50000093,15.625 2.50000093,15.625 C2.50000093,15.625 2.50000093,5.625 2.50000093,5.3255 C2.50000093,5.02604167 2.70834167,4.16666667 3.75000833,4.16666667 C4.79166667,4.16666667 5.00000093,5 5.00000093,5.3255 C5.00000093,5.625 5.00000093,10.4166667 5.00000093,10.4166667" id="Path" stroke="#A5B7C0" stroke-linecap="round" stroke-linejoin="round"></path>
            <rect id="Rectangle" stroke="#A5B7C0" stroke-linejoin="round" x="5" y="7.91666667" width="2.5" height="5" rx="1.25"></rect>
            <rect id="Rectangle" stroke="#A5B7C0" stroke-linejoin="round" x="7.5" y="7.91666667" width="2.5" height="5" rx="1.25"></rect>
        </g>
    </g>
</svg>