<?xml version="1.0" encoding="UTF-8"?>
<svg width="20px" height="20px" viewBox="0 0 20 20" version="1.1" xmlns="http://www.w3.org/2000/svg" xmlns:xlink="http://www.w3.org/1999/xlink">
    <title>rollerskates</title>
    <g id="Page-1" stroke="none" stroke-width="1" fill="none" fill-rule="evenodd">
        <g id="rollerskates">
            <rect id="Rectangle" fill-opacity="0.01" fill="#FFFFFF" fill-rule="nonzero" x="0" y="0" width="20" height="20"></rect>
            <polygon id="Path" stroke="#A5B7C0" stroke-linecap="round" stroke-linejoin="round" points="18.3333333 1.66666667 11.6666667 1.66666667 11.6666667 5 18.3333333 5"></polygon>
            <path d="M18.3333333,5 L18.3333333,14.1666667 C18.3333333,14.6291667 17.9625,15 17.5,15 L3.33333333,15 C2.4125,15 1.66666667,14.2541667 1.66666667,13.3333333 L1.66666667,10.8333333 C1.66666667,8.99166667 3.15833333,7.5 5,7.5 L11.6666667,7.5 L11.6666667,5 L18.3333333,5 Z" id="Path" stroke="#A5B7C0" stroke-linecap="round" stroke-linejoin="round"></path>
            <line x1="5.83333333" y1="10" x2="5.83333333" y2="7.5" id="Path" stroke="#A5B7C0" stroke-linecap="round" stroke-linejoin="round"></line>
            <line x1="8.75" y1="10" x2="8.75" y2="7.5" id="Path" stroke="#A5B7C0" stroke-linecap="round" stroke-linejoin="round"></line>
            <line x1="9.58333333" y1="7.5" x2="5" y2="7.5" id="Path" stroke="#A5B7C0" stroke-linecap="round" stroke-linejoin="round"></line>
            <path d="M3.75,18.3333333 C4.67045833,18.3333333 5.41666667,17.587125 5.41666667,16.6666667 C5.41666667,15.7462083 4.67045833,15 3.75,15 C2.829525,15 2.08333333,15.7462083 2.08333333,16.6666667 C2.08333333,17.587125 2.829525,18.3333333 3.75,18.3333333 Z" id="Path" stroke="#A5B7C0" stroke-linecap="round" stroke-linejoin="round"></path>
            <path d="M8.05416667,18.3333333 C8.974625,18.3333333 9.72083333,17.587125 9.72083333,16.6666667 C9.72083333,15.7462083 8.974625,15 8.05416667,15 C7.13366667,15 6.3875,15.7462083 6.3875,16.6666667 C6.3875,17.587125 7.13366667,18.3333333 8.05416667,18.3333333 Z" id="Path" stroke="#A5B7C0" stroke-linecap="round" stroke-linejoin="round"></path>
            <path d="M12.3625,18.3333333 C13.283,18.3333333 14.0291667,17.587125 14.0291667,16.6666667 C14.0291667,15.7462083 13.283,15 12.3625,15 C11.4420417,15 10.6958333,15.7462083 10.6958333,16.6666667 C10.6958333,17.587125 11.4420417,18.3333333 12.3625,18.3333333 Z" id="Path" stroke="#A5B7C0" stroke-linecap="round" stroke-linejoin="round"></path>
            <path d="M16.6666667,18.3333333 C17.587125,18.3333333 18.3333333,17.587125 18.3333333,16.6666667 C18.3333333,15.7462083 17.587125,15 16.6666667,15 C15.7462083,15 15,15.7462083 15,16.6666667 C15,17.587125 15.7462083,18.3333333 16.6666667,18.3333333 Z" id="Path" stroke="#A5B7C0" stroke-linecap="round" stroke-linejoin="round"></path>
        </g>
    </g>
</svg>