<?xml version="1.0" encoding="UTF-8"?>
<svg width="20px" height="20px" viewBox="0 0 20 20" version="1.1" xmlns="http://www.w3.org/2000/svg" xmlns:xlink="http://www.w3.org/1999/xlink">
    <title>rope-skipping</title>
    <g id="Page-1" stroke="none" stroke-width="1" fill="none" fill-rule="evenodd">
        <g id="rope-skipping">
            <rect id="Rectangle" fill-opacity="0.01" fill="#FFFFFF" fill-rule="nonzero" x="0" y="0" width="20" height="20"></rect>
            <path d="M4.16666667,13.3333333 C4.16666667,13.3333333 4.16666667,6.19416667 4.16666667,4.58333333 C4.16666667,2.97250417 5.4725,1.66666667 7.08333333,1.66666667 C8.69416667,1.66666667 10,2.97250417 10,4.58333333 C10,4.58333333 10,13.8058333 10,15.4166667 C10,17.0275 11.3058333,18.3333333 12.9166667,18.3333333 C14.5275,18.3333333 15.8333333,17.0275 15.8333333,15.4166667 L15.8333333,6.66666667" id="Path" stroke="#A5B7C0" stroke-linecap="round" stroke-linejoin="round"></path>
            <polygon id="Path" points="17.0833333 1.66666667 17.0833333 6.66666667 14.5833333 6.66666667 14.5833333 1.66666667"></polygon>
            <path d="M13.3333333,6.66666667 L14.5833333,6.66666667 M18.3333333,6.66666667 L17.0833333,6.66666667 M17.0833333,6.66666667 L17.0833333,1.66666667 L14.5833333,1.66666667 L14.5833333,6.66666667 M17.0833333,6.66666667 L14.5833333,6.66666667" id="Shape" stroke="#A5B7C0" stroke-linecap="round" stroke-linejoin="round"></path>
            <polygon id="Path" points="2.91666667 18.3333333 2.91666667 13.3333333 5.41666667 13.3333333 5.41666667 18.3333333"></polygon>
            <path d="M6.66666667,13.3333333 L5.41666667,13.3333333 M1.66666667,13.3333333 L2.91666667,13.3333333 M2.91666667,13.3333333 L2.91666667,18.3333333 L5.41666667,18.3333333 L5.41666667,13.3333333 M2.91666667,13.3333333 L5.41666667,13.3333333" id="Shape" stroke="#A5B7C0" stroke-linecap="round" stroke-linejoin="round"></path>
        </g>
    </g>
</svg>