<?xml version="1.0" encoding="UTF-8"?>
<svg width="20px" height="20px" viewBox="0 0 20 20" version="1.1" xmlns="http://www.w3.org/2000/svg" xmlns:xlink="http://www.w3.org/1999/xlink">
    <title>rotating-forward</title>
    <g id="Page-1" stroke="none" stroke-width="1" fill="none" fill-rule="evenodd">
        <g id="rotating-forward">
            <rect id="Rectangle" fill-opacity="0.01" fill="#FFFFFF" fill-rule="nonzero" transform="translate(10.000000, 10.000000) scale(-1, 1) translate(-10.000000, -10.000000) " x="0" y="0" width="20" height="20"></rect>
            <path d="M5.83333333,2.781575 C3.34249167,4.22245833 1.66666667,6.91554167 1.66666667,10.0000417 M5.83333333,2.781575 L5.83333333,5.833375 M5.83333333,2.781575 L2.78151667,2.781575" id="Shape" stroke="#A5B7C0" stroke-linecap="round" stroke-linejoin="round"></path>
            <path d="M2.78151667,14.1666667 C4.222375,16.6575 6.9155,18.3333333 10,18.3333333 M2.78151667,14.1666667 L5.83333333,14.1666667 M2.78151667,14.1666667 L2.78151667,17.2185" id="Shape" stroke="#A5B7C0" stroke-linecap="round" stroke-linejoin="round"></path>
            <path d="M14.1666667,17.2185 C16.6575,15.777625 18.3333333,13.0845 18.3333333,10 M14.1666667,17.2185 L14.1666667,14.1666667 M14.1666667,17.2185 L17.2185,17.2185" id="Shape" stroke="#A5B7C0" stroke-linecap="round" stroke-linejoin="round"></path>
            <path d="M17.2184583,5.83333333 C15.7775833,3.34249583 13.0845,1.66666667 10,1.66666667 M17.2184583,5.83333333 L14.1666667,5.83333333 M17.2184583,5.83333333 L17.2184583,2.78151667" id="Shape" stroke="#A5B7C0" stroke-linecap="round" stroke-linejoin="round"></path>
        </g>
    </g>
</svg>