<?xml version="1.0" encoding="UTF-8"?>
<svg width="20px" height="20px" viewBox="0 0 20 20" version="1.1" xmlns="http://www.w3.org/2000/svg" xmlns:xlink="http://www.w3.org/1999/xlink">
    <title>round-caliper</title>
    <g id="Page-1" stroke="none" stroke-width="1" fill="none" fill-rule="evenodd">
        <g id="round-caliper">
            <rect id="Rectangle" fill-opacity="0.01" fill="#FFFFFF" fill-rule="nonzero" x="0" y="0" width="20" height="20"></rect>
            <circle id="Oval" stroke="#A5B7C0" stroke-linecap="round" stroke-linejoin="round" cx="10" cy="10" r="8.33333333"></circle>
            <circle id="Oval" stroke="#A5B7C0" stroke-linecap="round" stroke-linejoin="round" cx="10" cy="10" r="1.66666667"></circle>
            <path d="M18.3333333,10 C18.3333333,11.4036667 17.9787917,12.7845833 17.3025417,14.014625 C16.6263333,15.2446667 15.650375,16.2839583 14.4652083,17.0360833 L12.679125,14.221625 C13.3902083,13.770375 13.9757917,13.1467917 14.3815417,12.40875 C14.78725,11.67075 15,10.8422083 15,10 L18.3333333,10 Z" id="Path" stroke="#A5B7C0" stroke-linecap="round" stroke-linejoin="round"></path>
            <path d="M5.59304167,17.0727083 C4.40170833,16.3304167 3.41720833,15.2992083 2.73085417,14.0747917 C2.0445,12.850375 1.67854583,11.4724583 1.66695,10.0688333 L5.00016667,10.0412917 C5.007125,10.8834583 5.22670833,11.71025 5.6385,12.444875 C6.05033333,13.1795417 6.64104167,13.79825 7.35583333,14.243625 L5.59304167,17.0727083 Z" id="Path" stroke="#A5B7C0" stroke-linecap="round" stroke-linejoin="round"></path>
            <path d="M6.01758333,2.6798375 C7.25058333,2.00904167 8.63304167,1.66056667 10.0367083,1.66674583 C11.4403333,1.67292917 12.8196667,2.0335625 14.0467083,2.71519167 L12.4280417,5.629125 C11.6917917,5.220125 10.8642083,5.00375 10.022,5.00004167 C9.17983333,4.99633333 8.35033333,5.20541667 7.61054167,5.60791667 L6.01758333,2.6798375 Z" id="Path" stroke="#A5B7C0" stroke-linecap="round" stroke-linejoin="round"></path>
        </g>
    </g>
</svg>