<?xml version="1.0" encoding="UTF-8"?>
<svg width="20px" height="20px" viewBox="0 0 20 20" version="1.1" xmlns="http://www.w3.org/2000/svg" xmlns:xlink="http://www.w3.org/1999/xlink">
    <title>sapling</title>
    <g id="Page-1" stroke="none" stroke-width="1" fill="none" fill-rule="evenodd">
        <g id="sapling">
            <rect id="Rectangle" fill-opacity="0.01" fill="#FFFFFF" fill-rule="nonzero" x="0" y="0" width="20" height="20"></rect>
            <path d="M11.25,3.3333375 C9.297375,5.28595833 9.598,8.76458333 9.598,8.76458333 C9.598,8.76458333 13.047375,9.03595833 15,7.08333333 C16.952625,5.13070833 16.6690833,1.6812875 16.6690833,1.6812875 C16.6690833,1.6812875 13.202625,1.38071667 11.25,3.3333375 Z" id="Path"></path>
            <path d="M9.598,8.76458333 C9.598,8.76458333 9.297375,5.28595833 11.25,3.3333375 C13.202625,1.38071667 16.6690833,1.6812875 16.6690833,1.6812875 C16.6690833,1.6812875 16.952625,5.13070833 15,7.08333333 C13.047375,9.03595833 9.598,8.76458333 9.598,8.76458333 Z M9.598,8.76458333 L12.9166667,5.44591667" id="Shape" stroke="#A5B7C0" stroke-linecap="round" stroke-linejoin="round"></path>
            <path d="M8.33333333,8.75 C9.937125,10.3514167 9.57129167,13.3212917 9.57129167,13.3212917 C9.57129167,13.3212917 6.60379167,13.68475 5,12.0833333 C3.39619583,10.4819167 3.7634125,7.51204167 3.7634125,7.51204167 C3.7634125,7.51204167 6.72954167,7.14858333 8.33333333,8.75 Z" id="Path"></path>
            <path d="M9.57129167,13.3212917 C9.57129167,13.3212917 9.937125,10.3514167 8.33333333,8.75 C6.72954167,7.14858333 3.7634125,7.51204167 3.7634125,7.51204167 C3.7634125,7.51204167 3.39619583,10.4819167 5,12.0833333 C6.60379167,13.68475 9.57129167,13.3212917 9.57129167,13.3212917 Z M9.57129167,13.3212917 L6.66666667,10.4166667" id="Shape" stroke="#A5B7C0" stroke-linecap="round" stroke-linejoin="round"></path>
            <line x1="9.58333333" y1="1.66666667" x2="9.58333333" y2="18.3333333" id="Path" stroke="#A5B7C0" stroke-linecap="round" stroke-linejoin="round"></line>
        </g>
    </g>
</svg>