<?xml version="1.0" encoding="UTF-8"?>
<svg width="20px" height="20px" viewBox="0 0 20 20" version="1.1" xmlns="http://www.w3.org/2000/svg" xmlns:xlink="http://www.w3.org/1999/xlink">
    <title>screenshot-two</title>
    <g id="Page-1" stroke="none" stroke-width="1" fill="none" fill-rule="evenodd">
        <g id="screenshot-two">
            <rect id="Rectangle" fill-opacity="0.01" fill="#FFFFFF" fill-rule="nonzero" x="0" y="0" width="20" height="20"></rect>
            <polyline id="Path" stroke="#A5B7C0" stroke-linecap="round" stroke-linejoin="round" points="1.66666667 10 1.66666667 1.66666667 18.3333333 1.66666667 18.3333333 10"></polyline>
            <path d="M4.16666667,18.3333333 C5.547375,18.3333333 6.66666667,17.2140417 6.66666667,15.8333333 C6.66666667,14.452625 5.547375,13.3333333 4.16666667,13.3333333 C2.78595417,13.3333333 1.66666667,14.452625 1.66666667,15.8333333 C1.66666667,17.2140417 2.78595417,18.3333333 4.16666667,18.3333333 Z" id="Path" stroke="#A5B7C0" stroke-linecap="round" stroke-linejoin="round"></path>
            <path d="M15,5 C8.49604167,13.8609583 6.58529167,16.9502083 5.93441667,17.6010833 C4.958125,18.5774167 3.37519583,18.5774167 2.39888333,17.6010833" id="Path" stroke="#A5B7C0" stroke-linecap="round" stroke-linejoin="round"></path>
            <path d="M15.8333333,18.3333333 C17.2140417,18.3333333 18.3333333,17.2140417 18.3333333,15.8333333 C18.3333333,14.452625 17.2140417,13.3333333 15.8333333,13.3333333 C14.452625,13.3333333 13.3333333,14.452625 13.3333333,15.8333333 C13.3333333,17.2140417 14.452625,18.3333333 15.8333333,18.3333333 Z" id="Path" stroke="#A5B7C0" stroke-linecap="round" stroke-linejoin="round"></path>
            <path d="M17.6010833,17.6010833 C16.6247917,18.5774167 15.041875,18.5774167 14.0655833,17.6010833 C13.4147083,16.9502083 11.5039583,13.8609583 5,5" id="Path" stroke="#A5B7C0" stroke-linecap="round" stroke-linejoin="round"></path>
        </g>
    </g>
</svg>