<?xml version="1.0" encoding="UTF-8"?>
<svg width="20px" height="20px" viewBox="0 0 20 20" version="1.1" xmlns="http://www.w3.org/2000/svg" xmlns:xlink="http://www.w3.org/1999/xlink">
    <title>seal</title>
    <g id="Page-1" stroke="none" stroke-width="1" fill="none" fill-rule="evenodd">
        <g id="seal">
            <rect id="Rectangle" fill-opacity="0.01" fill="#FFFFFF" fill-rule="nonzero" x="0" y="0" width="20" height="20"></rect>
            <path d="M2.08333333,15.4166667 C2.08333333,14.9564167 2.45642917,14.5833333 2.91666667,14.5833333 L17.0833333,14.5833333 C17.5435833,14.5833333 17.9166667,14.9564167 17.9166667,15.4166667 L17.9166667,17.5 C17.9166667,17.96025 17.5435833,18.3333333 17.0833333,18.3333333 L2.91666667,18.3333333 C2.45642917,18.3333333 2.08333333,17.96025 2.08333333,17.5 L2.08333333,15.4166667 Z" id="Path" stroke="#A5B7C0"></path>
            <path d="M2.08333333,12.9166667 C2.08333333,12.4564167 2.45642917,12.0833333 2.91666667,12.0833333 L17.0833333,12.0833333 C17.5435833,12.0833333 17.9166667,12.4564167 17.9166667,12.9166667 L17.9166667,17.5 C17.9166667,17.96025 17.5435833,18.3333333 17.0833333,18.3333333 L2.91666667,18.3333333 C2.45642917,18.3333333 2.08333333,17.96025 2.08333333,17.5 L2.08333333,12.9166667 Z" id="Path" stroke="#A5B7C0"></path>
            <path d="M7.81791667,6.52654167 C7.877125,6.36070833 8.03420833,6.25 8.21029167,6.25 L11.7897083,6.25 C11.9657917,6.25 12.122875,6.36070833 12.1820833,6.52654167 L14.1666667,12.0833333 L5.83333333,12.0833333 L7.81791667,6.52654167 Z" id="Path" stroke="#A5B7C0" stroke-linecap="round" stroke-linejoin="round"></path>
            <rect id="Rectangle" stroke="#A5B7C0" x="6.25" y="1.66666667" width="7.5" height="4.5" rx="2.25"></rect>
        </g>
    </g>
</svg>