<?xml version="1.0" encoding="UTF-8"?>
<svg width="20px" height="20px" viewBox="0 0 20 20" version="1.1" xmlns="http://www.w3.org/2000/svg" xmlns:xlink="http://www.w3.org/1999/xlink">
    <title>server</title>
    <g id="Page-1" stroke="none" stroke-width="1" fill="none" fill-rule="evenodd">
        <g id="server">
            <rect id="Rectangle" fill-opacity="0.01" fill="#FFFFFF" fill-rule="nonzero" x="0" y="0" width="20" height="20"></rect>
            <polygon id="Path" fill-opacity="0.01" fill="#FFFFFF" fill-rule="nonzero" points="20 0 0 0 0 20 20 20"></polygon>
            <polygon id="Path" stroke="#A5B7C0" stroke-linejoin="round" points="18.3333333 1.66666667 1.66666667 1.66666667 1.66666667 8.33333333 18.3333333 8.33333333"></polygon>
            <polygon id="Path" stroke="#A5B7C0" stroke-linejoin="round" points="18.3333333 11.6666667 1.66666667 11.6666667 1.66666667 18.3333333 18.3333333 18.3333333"></polygon>
            <path d="M5.41666667,4.16666667 L4.58333333,4.16666667 C4.35320833,4.16666667 4.16666667,4.35320833 4.16666667,4.58333333 L4.16666667,5.41666667 C4.16666667,5.64679167 4.35320833,5.83333333 4.58333333,5.83333333 L5.41666667,5.83333333 C5.64679167,5.83333333 5.83333333,5.64679167 5.83333333,5.41666667 L5.83333333,4.58333333 C5.83333333,4.35320833 5.64679167,4.16666667 5.41666667,4.16666667 Z" id="Path" fill="#A5B7C0" fill-rule="nonzero"></path>
            <path d="M5.41666667,14.1666667 L4.58333333,14.1666667 C4.35320833,14.1666667 4.16666667,14.3532083 4.16666667,14.5833333 L4.16666667,15.4166667 C4.16666667,15.6467917 4.35320833,15.8333333 4.58333333,15.8333333 L5.41666667,15.8333333 C5.64679167,15.8333333 5.83333333,15.6467917 5.83333333,15.4166667 L5.83333333,14.5833333 C5.83333333,14.3532083 5.64679167,14.1666667 5.41666667,14.1666667 Z" id="Path" fill="#A5B7C0" fill-rule="nonzero"></path>
            <path d="M8.75,4.16666667 L7.91666667,4.16666667 C7.68654167,4.16666667 7.5,4.35320833 7.5,4.58333333 L7.5,5.41666667 C7.5,5.64679167 7.68654167,5.83333333 7.91666667,5.83333333 L8.75,5.83333333 C8.980125,5.83333333 9.16666667,5.64679167 9.16666667,5.41666667 L9.16666667,4.58333333 C9.16666667,4.35320833 8.980125,4.16666667 8.75,4.16666667 Z" id="Path" fill="#A5B7C0" fill-rule="nonzero"></path>
            <path d="M8.75,14.1666667 L7.91666667,14.1666667 C7.68654167,14.1666667 7.5,14.3532083 7.5,14.5833333 L7.5,15.4166667 C7.5,15.6467917 7.68654167,15.8333333 7.91666667,15.8333333 L8.75,15.8333333 C8.980125,15.8333333 9.16666667,15.6467917 9.16666667,15.4166667 L9.16666667,14.5833333 C9.16666667,14.3532083 8.980125,14.1666667 8.75,14.1666667 Z" id="Path" fill="#A5B7C0" fill-rule="nonzero"></path>
        </g>
    </g>
</svg>