<?xml version="1.0" encoding="UTF-8"?>
<svg width="20px" height="20px" viewBox="0 0 20 20" version="1.1" xmlns="http://www.w3.org/2000/svg" xmlns:xlink="http://www.w3.org/1999/xlink">
    <title>setting</title>
    <g id="Page-1" stroke="none" stroke-width="1" fill="none" fill-rule="evenodd">
        <g id="setting">
            <rect id="Rectangle" fill-opacity="0.01" fill="#FFFFFF" fill-rule="nonzero" x="0" y="0" width="20" height="20"></rect>
            <path d="M15.2858333,6.32125 C15.8068333,7.06845833 16.1734583,7.93133333 16.3394583,8.863625 L18.3333333,8.863625 L18.3333333,11.136375 L16.3394583,11.136375 C16.1734583,12.0686667 15.8068333,12.9315417 15.2858333,13.67875 L16.6960833,15.0890417 L15.0890417,16.6960833 L13.67875,15.2858333 C12.9315417,15.8068333 12.0686667,16.1734583 11.136375,16.3394583 L11.136375,18.3333333 L8.863625,18.3333333 L8.863625,16.3394583 C7.93133333,16.1734583 7.06845833,15.8068333 6.32125,15.2858333 L4.91095833,16.6960833 L3.3039125,15.0890417 L4.71416667,13.67875 C4.19316667,12.9315417 3.82655,12.0686667 3.66055417,11.136375 L1.66666667,11.136375 L1.66666667,8.863625 L3.66055417,8.863625 C3.82655,7.93133333 4.19316667,7.06845833 4.71416667,6.32125 L3.3039125,4.91095833 L4.91095833,3.3039125 L6.32125,4.71416667 C7.06845833,4.19316667 7.93133333,3.82655 8.863625,3.66055417 L8.863625,1.66666667 L11.136375,1.66666667 L11.136375,3.66055417 C12.0686667,3.82655 12.9315417,4.19316667 13.67875,4.71416667 L15.0890417,3.3039125 L16.6960833,4.91095833 L15.2858333,6.32125 Z" id="Path" stroke="#A5B7C0" stroke-linejoin="round"></path>
            <path d="M10,12.0833333 C11.1505833,12.0833333 12.0833333,11.1505833 12.0833333,10 C12.0833333,8.84941667 11.1505833,7.91666667 10,7.91666667 C8.84941667,7.91666667 7.91666667,8.84941667 7.91666667,10 C7.91666667,11.1505833 8.84941667,12.0833333 10,12.0833333 Z" id="Path" stroke="#A5B7C0" stroke-linejoin="round"></path>
        </g>
    </g>
</svg>