<?xml version="1.0" encoding="UTF-8"?>
<svg width="20px" height="20px" viewBox="0 0 20 20" version="1.1" xmlns="http://www.w3.org/2000/svg" xmlns:xlink="http://www.w3.org/1999/xlink">
    <title>setting-two</title>
    <g id="Page-1" stroke="none" stroke-width="1" fill="none" fill-rule="evenodd">
        <g id="setting-two">
            <rect id="Rectangle" fill-opacity="0.01" fill="#FFFFFF" fill-rule="nonzero" x="0" y="0" width="20" height="20"></rect>
            <path d="M7.61825,17.988 C6.22195833,17.5722917 4.97908333,16.8005 3.99494583,15.777875 C4.36208333,15.34275 4.58333333,14.7805417 4.58333333,14.1666667 C4.58333333,12.7859583 3.46404583,11.6666667 2.08333333,11.6666667 C1.9998125,11.6666667 1.91724583,11.67075 1.83582917,11.67875 C1.7249125,11.1365 1.66666667,10.5750417 1.66666667,10 C1.66666667,9.12891667 1.80032083,8.28904167 2.04824583,7.49975 C2.05992083,7.49991667 2.07161667,7.5 2.08333333,7.5 C3.46404583,7.5 4.58333333,6.38070833 4.58333333,5 C4.58333333,4.603625 4.49108333,4.22879167 4.32691667,3.89582917 C5.290625,2.9997375 6.466875,2.329125 7.77170833,1.967925 C8.18516667,2.7783625 9.02779167,3.3333375 10,3.3333375 C10.9722083,3.3333375 11.8148333,2.7783625 12.2282917,1.967925 C13.533125,2.329125 14.709375,2.9997375 15.6730833,3.89582917 C15.5089167,4.22879167 15.4166667,4.603625 15.4166667,5 C15.4166667,6.38070833 16.5359583,7.5 17.9166667,7.5 C17.928375,7.5 17.9400833,7.49991667 17.95175,7.49975 C18.1996667,8.28904167 18.3333333,9.12891667 18.3333333,10 C18.3333333,10.5750417 18.2750833,11.1365 18.1641667,11.67875 C18.08275,11.67075 18.0002083,11.6666667 17.9166667,11.6666667 C16.5359583,11.6666667 15.4166667,12.7859583 15.4166667,14.1666667 C15.4166667,14.7805417 15.6379167,15.34275 16.0050417,15.777875 C15.0209167,16.8005 13.7780417,17.5722917 12.38175,17.988 C12.0595,16.9799167 11.115,16.25 10,16.25 C8.885,16.25 7.9405,16.9799167 7.61825,17.988 Z" id="Path" stroke="#A5B7C0" stroke-linejoin="round"></path>
            <path d="M10,12.9166667 C11.6108333,12.9166667 12.9166667,11.6108333 12.9166667,10 C12.9166667,8.38916667 11.6108333,7.08333333 10,7.08333333 C8.38916667,7.08333333 7.08333333,8.38916667 7.08333333,10 C7.08333333,11.6108333 8.38916667,12.9166667 10,12.9166667 Z" id="Path" stroke="#A5B7C0" stroke-linejoin="round"></path>
        </g>
    </g>
</svg>