<?xml version="1.0" encoding="UTF-8"?>
<svg width="20px" height="20px" viewBox="0 0 20 20" version="1.1" xmlns="http://www.w3.org/2000/svg" xmlns:xlink="http://www.w3.org/1999/xlink">
    <title>signal-strength</title>
    <g id="Page-1" stroke="none" stroke-width="1" fill="none" fill-rule="evenodd">
        <g id="signal-strength">
            <rect id="Rectangle" fill-opacity="0.01" fill="#FFFFFF" fill-rule="nonzero" x="0" y="0" width="20" height="20"></rect>
            <path d="M15.8925417,15.8925417 C19.1469167,12.6381667 19.1469167,7.36183333 15.8925417,4.10744167 C12.6381667,0.853075 7.36183333,0.853075 4.10744167,4.10744167 C0.853075,7.36183333 0.853075,12.6381667 4.10744167,15.8925417 M13.5355417,13.5355417 C15.4881667,11.5829167 15.4881667,8.41708333 13.5355417,6.46445833 C11.5829167,4.51183333 8.41708333,4.51183333 6.46445833,6.46445833 C4.51183333,8.41708333 4.51183333,11.5829167 6.46445833,13.5355417" id="Shape" stroke="#A5B7C0" stroke-linecap="round" stroke-linejoin="round"></path>
            <path d="M11.6666667,10 C11.6666667,10.9204583 10.9204583,11.6666667 10,11.6666667 C9.07954167,11.6666667 8.33333333,10.9204583 8.33333333,10 C8.33333333,9.07954167 9.07954167,8.33333333 10,8.33333333 C10.9204583,8.33333333 11.6666667,9.07954167 11.6666667,10 Z" id="Path"></path>
            <path d="M10,11.6666667 C10.9204583,11.6666667 11.6666667,10.9204583 11.6666667,10 C11.6666667,9.07954167 10.9204583,8.33333333 10,8.33333333 C9.07954167,8.33333333 8.33333333,9.07954167 8.33333333,10 C8.33333333,10.9204583 9.07954167,11.6666667 10,11.6666667 Z M10,11.6666667 L10,18.3333333 M10,18.3333333 L11.6666667,18.3333333 M10,18.3333333 L8.33333333,18.3333333" id="Shape" stroke="#A5B7C0" stroke-linecap="round" stroke-linejoin="round"></path>
        </g>
    </g>
</svg>