<?xml version="1.0" encoding="UTF-8"?>
<svg width="20px" height="20px" viewBox="0 0 20 20" version="1.1" xmlns="http://www.w3.org/2000/svg" xmlns:xlink="http://www.w3.org/1999/xlink">
    <title>single-bed</title>
    <g id="Page-1" stroke="none" stroke-width="1" fill="none" fill-rule="evenodd">
        <g id="single-bed">
            <rect id="Rectangle" fill-opacity="0.01" fill="#FFFFFF" fill-rule="nonzero" x="0" y="0" width="20" height="20"></rect>
            <path d="M3.33333333,5 C3.33333333,4.309625 3.89297917,3.75 4.58333333,3.75 L15.4166667,3.75 C16.1070417,3.75 16.6666667,4.309625 16.6666667,5 L16.6666667,9.58333333 L3.33333333,9.58333333 L3.33333333,5 Z" id="Path" stroke="#A5B7C0" stroke-linecap="round" stroke-linejoin="round"></path>
            <line x1="2.5" y1="14.5833333" x2="2.5" y2="16.25" id="Path" stroke="#A5B7C0" stroke-linecap="round" stroke-linejoin="round"></line>
            <line x1="17.5" y1="14.5833333" x2="17.5" y2="16.25" id="Path" stroke="#A5B7C0" stroke-linecap="round" stroke-linejoin="round"></line>
            <path d="M12.0833333,7.5 L7.91666667,7.5 C7.22629167,7.5 6.66666667,8.059625 6.66666667,8.75 L6.66666667,9.58333333 L13.3333333,9.58333333 L13.3333333,8.75 C13.3333333,8.059625 12.7737083,7.5 12.0833333,7.5 Z" id="Path" stroke="#A5B7C0" stroke-linecap="round" stroke-linejoin="round"></path>
            <path d="M1.66666667,10.8333333 C1.66666667,10.1429583 2.2263125,9.58333333 2.91666667,9.58333333 L17.0833333,9.58333333 C17.7737083,9.58333333 18.3333333,10.1429583 18.3333333,10.8333333 L18.3333333,14.5833333 L1.66666667,14.5833333 L1.66666667,10.8333333 Z" id="Path" stroke="#A5B7C0" stroke-linecap="round" stroke-linejoin="round"></path>
        </g>
    </g>
</svg>