<?xml version="1.0" encoding="UTF-8"?>
<svg width="20px" height="20px" viewBox="0 0 20 20" version="1.1" xmlns="http://www.w3.org/2000/svg" xmlns:xlink="http://www.w3.org/1999/xlink">
    <title>six-points</title>
    <g id="Page-1" stroke="none" stroke-width="1" fill="none" fill-rule="evenodd">
        <g id="six-points">
            <rect id="Rectangle" fill-opacity="0.01" fill="#FFFFFF" fill-rule="nonzero" x="0" y="0" width="20" height="20"></rect>
            <path d="M9.99995833,10 L5.625,12.525875 M9.99995833,10 L14.3749167,12.525875 M9.99995833,10 L9.99995833,5" id="Shape" stroke="#A5B7C0" stroke-linecap="round" stroke-linejoin="round"></path>
            <path d="M5.83333333,6.66666667 C5.83333333,7.587125 5.087125,8.33333333 4.16666667,8.33333333 C3.24619167,8.33333333 2.5,7.587125 2.5,6.66666667 C2.5,5.74620833 3.24619167,5 4.16666667,5 C5.087125,5 5.83333333,5.74620833 5.83333333,6.66666667 Z" id="Path" stroke="#A5B7C0" stroke-linecap="round" stroke-linejoin="round"></path>
            <path d="M5.83333333,13.3333333 C5.83333333,14.2537917 5.087125,15 4.16666667,15 C3.24619167,15 2.5,14.2537917 2.5,13.3333333 C2.5,12.412875 3.24619167,11.6666667 4.16666667,11.6666667 C5.087125,11.6666667 5.83333333,12.412875 5.83333333,13.3333333 Z" id="Path" stroke="#A5B7C0" stroke-linecap="round" stroke-linejoin="round"></path>
            <path d="M11.6666667,16.6666667 C11.6666667,17.587125 10.9204583,18.3333333 10,18.3333333 C9.07954167,18.3333333 8.33333333,17.587125 8.33333333,16.6666667 C8.33333333,15.7462083 9.07954167,15 10,15 C10.9204583,15 11.6666667,15.7462083 11.6666667,16.6666667 Z" id="Path" stroke="#A5B7C0" stroke-linecap="round" stroke-linejoin="round"></path>
            <path d="M17.5,13.3333333 C17.5,14.2537917 16.7537917,15 15.8333333,15 C14.912875,15 14.1666667,14.2537917 14.1666667,13.3333333 C14.1666667,12.412875 14.912875,11.6666667 15.8333333,11.6666667 C16.7537917,11.6666667 17.5,12.412875 17.5,13.3333333 Z" id="Path" stroke="#A5B7C0" stroke-linecap="round" stroke-linejoin="round"></path>
            <path d="M17.5,6.66666667 C17.5,7.587125 16.7537917,8.33333333 15.8333333,8.33333333 C14.912875,8.33333333 14.1666667,7.587125 14.1666667,6.66666667 C14.1666667,5.74620833 14.912875,5 15.8333333,5 C16.7537917,5 17.5,5.74620833 17.5,6.66666667 Z" id="Path" stroke="#A5B7C0" stroke-linecap="round" stroke-linejoin="round"></path>
            <path d="M11.6666667,3.33333333 C11.6666667,4.25379167 10.9204583,5 10,5 C9.07954167,5 8.33333333,4.25379167 8.33333333,3.33333333 C8.33333333,2.41285833 9.07954167,1.66666667 10,1.66666667 C10.9204583,1.66666667 11.6666667,2.41285833 11.6666667,3.33333333 Z" id="Path" stroke="#A5B7C0" stroke-linecap="round" stroke-linejoin="round"></path>
        </g>
    </g>
</svg>