<?xml version="1.0" encoding="UTF-8"?>
<svg width="20px" height="20px" viewBox="0 0 20 20" version="1.1" xmlns="http://www.w3.org/2000/svg" xmlns:xlink="http://www.w3.org/1999/xlink">
    <title>speaker</title>
    <g id="Page-1" stroke="none" stroke-width="1" fill="none" fill-rule="evenodd">
        <g id="speaker">
            <rect id="Rectangle" fill-opacity="0.01" fill="#FFFFFF" fill-rule="nonzero" x="0" y="0" width="20" height="20"></rect>
            <polygon id="Path" fill-opacity="0.01" fill="#FFFFFF" fill-rule="nonzero" points="20 0 0 0 0 20 20 20"></polygon>
            <path d="M15.8333333,0.833333333 L4.16666667,0.833333333 C3.70642917,0.833333333 3.33333333,1.20642917 3.33333333,1.66666667 L3.33333333,18.3333333 C3.33333333,18.7935833 3.70642917,19.1666667 4.16666667,19.1666667 L15.8333333,19.1666667 C16.2935833,19.1666667 16.6666667,18.7935833 16.6666667,18.3333333 L16.6666667,1.66666667 C16.6666667,1.20642917 16.2935833,0.833333333 15.8333333,0.833333333 Z" id="Path" stroke="#A5B7C0" stroke-linejoin="round"></path>
            <path d="M10,15.8333333 C11.3807083,15.8333333 12.5,14.7140417 12.5,13.3333333 C12.5,11.952625 11.3807083,10.8333333 10,10.8333333 C8.61929167,10.8333333 7.5,11.952625 7.5,13.3333333 C7.5,14.7140417 8.61929167,15.8333333 10,15.8333333 Z" id="Path" stroke="#A5B7C0" stroke-linejoin="round"></path>
            <path d="M10,7.5 C10.9204583,7.5 11.6666667,6.75379167 11.6666667,5.83333333 C11.6666667,4.912875 10.9204583,4.16666667 10,4.16666667 C9.07954167,4.16666667 8.33333333,4.912875 8.33333333,5.83333333 C8.33333333,6.75379167 9.07954167,7.5 10,7.5 Z" id="Path" stroke="#A5B7C0" stroke-linejoin="round"></path>
        </g>
    </g>
</svg>