<?xml version="1.0" encoding="UTF-8"?>
<svg width="20px" height="20px" viewBox="0 0 20 20" version="1.1" xmlns="http://www.w3.org/2000/svg" xmlns:xlink="http://www.w3.org/1999/xlink">
    <title>sperm</title>
    <g id="Page-1" stroke="none" stroke-width="1" fill="none" fill-rule="evenodd">
        <g id="sperm">
            <rect id="Rectangle" fill-opacity="0.01" fill="#FFFFFF" fill-rule="nonzero" x="0" y="0" width="20" height="20"></rect>
            <path d="M7.59891667,10.19775 C8.37216667,10.7391667 8.56970833,11.312 9.10241667,11.6850417 C9.68566667,12.0934167 10.3304583,12.31025 10.8395417,12.1080833 C11.8007917,11.726375 12.4961667,10.4795 13.3443333,9.26820833 C14.9942083,6.91195833 14.9915,3.27453333 13.45275,2.19708333 C11.914,1.1196375 8.51808333,2.37732083 6.86820833,4.73358333 C6.062,5.885 5.006125,7.41904167 5.06966667,8.068 C5.12320833,8.614375 5.30691667,8.91875 5.885375,9.43241667 C6.46383333,9.94608333 6.77370833,9.61991667 7.59891667,10.19775 Z" id="Path" stroke="#A5B7C0"></path>
            <path d="M5.67395833,9.29870833 C4.19870833,10.9227083 4.00389167,12.15675 5.08945833,13.0007917 C6.17504167,13.8448333 7.53825,13.428875 9.179,11.7529583" id="Path" stroke="#A5B7C0" stroke-linecap="round"></path>
            <path d="M5.09941667,13.0114167 C3.8090875,14.42275 3.57175833,15.7389167 4.38745833,16.9599583 C5.61095833,18.7915417 8.03491667,18.6914167 9.21833333,17.3261667 C10.40175,15.9609167 12.6284167,12.5778333 15.07625,13.2732917 C17.5240833,13.96875 17.1085417,16.64325 15.4675,16.92425" id="Path" stroke="#A5B7C0" stroke-linecap="round"></path>
        </g>
    </g>
</svg>