<?xml version="1.0" encoding="UTF-8"?>
<svg width="20px" height="20px" viewBox="0 0 20 20" version="1.1" xmlns="http://www.w3.org/2000/svg" xmlns:xlink="http://www.w3.org/1999/xlink">
    <title>sphere</title>
    <g id="Page-1" stroke="none" stroke-width="1" fill="none" fill-rule="evenodd">
        <g id="sphere">
            <rect id="Rectangle" fill-opacity="0.01" fill="#FFFFFF" fill-rule="nonzero" x="0" y="0" width="20" height="20"></rect>
            <polygon id="Path" fill-opacity="0.01" fill="#FFFFFF" fill-rule="nonzero" points="20 0 0 0 0 20 20 20"></polygon>
            <path d="M10,13.3333333 C14.602375,13.3333333 18.3333333,11.8409583 18.3333333,10 C18.3333333,8.15904167 14.602375,6.66666667 10,6.66666667 C5.397625,6.66666667 1.66666667,8.15904167 1.66666667,10 C1.66666667,11.8409583 5.397625,13.3333333 10,13.3333333 Z" id="Path" stroke="#A5B7C0" stroke-linecap="round" stroke-linejoin="round"></path>
            <path d="M13.3333333,10 C13.3333333,14.602375 11.8409583,18.3333333 10,18.3333333 C8.15904167,18.3333333 6.66666667,14.602375 6.66666667,10 C6.66666667,5.397625 8.15904167,1.66666667 10,1.66666667 C11.8409583,1.66666667 13.3333333,5.397625 13.3333333,10 Z" id="Path" stroke="#A5B7C0" stroke-linecap="round" stroke-linejoin="round"></path>
            <circle id="Oval" stroke="#A5B7C0" stroke-linejoin="round" cx="10" cy="10" r="8.33333333"></circle>
        </g>
    </g>
</svg>