<?xml version="1.0" encoding="UTF-8"?>
<svg width="20px" height="20px" viewBox="0 0 20 20" version="1.1" xmlns="http://www.w3.org/2000/svg" xmlns:xlink="http://www.w3.org/1999/xlink">
    <title>spikedshoes</title>
    <g id="Page-1" stroke="none" stroke-width="1" fill="none" fill-rule="evenodd">
        <g id="spikedshoes">
            <rect id="Rectangle" fill-opacity="0.01" fill="#FFFFFF" fill-rule="nonzero" x="0" y="0" width="20" height="20"></rect>
            <polygon id="Path" stroke="#A5B7C0" stroke-linecap="round" stroke-linejoin="round" points="18.3333333 2.5 11.6666667 2.5 11.6666667 5.83333333 18.3333333 5.83333333"></polygon>
            <path d="M18.3333333,5.83333333 L18.3333333,15 C18.3333333,15.4625 17.9625,15.8333333 17.5,15.8333333 L3.33333333,15.8333333 C2.4125,15.8333333 1.66666667,15.0875 1.66666667,14.1666667 L1.66666667,11.6666667 C1.66666667,9.825 3.15833333,8.33333333 5,8.33333333 L11.6666667,8.33333333 L11.6666667,5.83333333 L18.3333333,5.83333333 Z" id="Path" stroke="#A5B7C0" stroke-linecap="round" stroke-linejoin="round"></path>
            <line x1="5.83333333" y1="10.8333333" x2="5.83333333" y2="8.33333333" id="Path" stroke="#A5B7C0" stroke-linecap="round" stroke-linejoin="round"></line>
            <line x1="8.75" y1="10.8333333" x2="8.75" y2="8.33333333" id="Path" stroke="#A5B7C0" stroke-linecap="round" stroke-linejoin="round"></line>
            <line x1="6.25" y1="17.5" x2="6.25" y2="15.8333333" id="Path" stroke="#A5B7C0" stroke-linecap="round" stroke-linejoin="round"></line>
            <line x1="3.33333333" y1="17.5" x2="3.33333333" y2="15.8333333" id="Path" stroke="#A5B7C0" stroke-linecap="round" stroke-linejoin="round"></line>
            <line x1="9.16666667" y1="17.5" x2="9.16666667" y2="15.8333333" id="Path" stroke="#A5B7C0" stroke-linecap="round" stroke-linejoin="round"></line>
            <line x1="14.1666667" y1="17.5" x2="14.1666667" y2="15.8333333" id="Path" stroke="#A5B7C0" stroke-linecap="round" stroke-linejoin="round"></line>
            <line x1="17.0833333" y1="17.5" x2="17.0833333" y2="15.8333333" id="Path" stroke="#A5B7C0" stroke-linecap="round" stroke-linejoin="round"></line>
            <line x1="9.58333333" y1="8.33333333" x2="5" y2="8.33333333" id="Path" stroke="#A5B7C0" stroke-linecap="round" stroke-linejoin="round"></line>
        </g>
    </g>
</svg>