<?xml version="1.0" encoding="UTF-8"?>
<svg width="20px" height="20px" viewBox="0 0 20 20" version="1.1" xmlns="http://www.w3.org/2000/svg" xmlns:xlink="http://www.w3.org/1999/xlink">
    <title>split-cells</title>
    <g id="Page-1" stroke="none" stroke-width="1" fill="none" fill-rule="evenodd">
        <g id="split-cells">
            <rect id="Rectangle" fill-opacity="0.01" fill="#FFFFFF" fill-rule="nonzero" x="0" y="0" width="20" height="20"></rect>
            <path d="M1.66666667,5.83333333 L1.66666667,2.08333333 C1.66666667,1.85321667 1.85321667,1.66666667 2.08333333,1.66666667 L7.91666667,1.66666667 C8.14679167,1.66666667 8.33333333,1.85321667 8.33333333,2.08333333 L8.33333333,17.9166667 C8.33333333,18.1467917 8.14679167,18.3333333 7.91666667,18.3333333 L2.08333333,18.3333333 C1.85321667,18.3333333 1.66666667,18.1467917 1.66666667,17.9166667 L1.66666667,14.1666667" id="Path" stroke="#A5B7C0" stroke-linecap="round"></path>
            <path d="M18.3333333,14.1666667 L18.3333333,17.9166667 C18.3333333,18.1467917 18.1467917,18.3333333 17.9166667,18.3333333 L12.0833333,18.3333333 C11.8532083,18.3333333 11.6666667,18.1467917 11.6666667,17.9166667 L11.6666667,2.08333333 C11.6666667,1.85321667 11.8532083,1.66666667 12.0833333,1.66666667 L17.9166667,1.66666667 C18.1467917,1.66666667 18.3333333,1.85321667 18.3333333,2.08333333 L18.3333333,5.83333333" id="Path" stroke="#A5B7C0" stroke-linecap="round"></path>
            <line x1="11.6666667" y1="10" x2="18.3333333" y2="10.0055" id="Path" stroke="#A5B7C0" stroke-linecap="round"></line>
            <line x1="1.66666667" y1="10.0055" x2="8.33333333" y2="10" id="Path" stroke="#A5B7C0" stroke-linecap="round"></line>
            <polyline id="Path" stroke="#A5B7C0" stroke-linecap="round" stroke-linejoin="round" points="16.3447917 11.9907917 17.0077083 11.327875 18.3335417 10.0020417 17.0077083 8.67620833 16.3447917 8.01333333"></polyline>
            <polyline id="Path" stroke="#A5B7C0" stroke-linecap="round" stroke-linejoin="round" points="3.64807083 11.99425 2.98515833 11.3313333 1.65933333 10.0055 2.98515833 8.67970833 3.64807083 8.01679167"></polyline>
        </g>
    </g>
</svg>