<?xml version="1.0" encoding="UTF-8"?>
<svg width="20px" height="20px" viewBox="0 0 20 20" version="1.1" xmlns="http://www.w3.org/2000/svg" xmlns:xlink="http://www.w3.org/1999/xlink">
    <title>stamp</title>
    <g id="Page-1" stroke="none" stroke-width="1" fill="none" fill-rule="evenodd">
        <g id="stamp">
            <rect id="Rectangle" fill-opacity="0.01" fill="#FFFFFF" fill-rule="nonzero" x="0" y="0" width="20" height="20"></rect>
            <polygon id="Path" stroke="#A5B7C0" stroke-linecap="round" stroke-linejoin="round" points="1.66666667 3.33333333 3.33333333 1.66666667 5 2.91666667 6.66666667 1.66666667 8.33333333 2.91666667 10 1.66666667 11.6666667 2.91666667 13.3333333 1.66666667 15 2.91666667 16.6666667 1.66666667 18.3333333 3.33333333 17.0833333 5 18.3333333 6.66666667 17.0833333 8.33333333 18.3333333 10 17.0833333 11.6666667 18.3333333 13.3333333 17.0833333 15 18.3333333 16.6666667 16.6666667 18.3333333 15 17.0833333 13.3333333 18.3333333 11.6666667 17.0833333 10 18.3333333 8.33333333 17.0833333 6.66666667 18.3333333 5 17.0833333 3.33333333 18.3333333 1.66666667 16.6666667 2.91666667 15 1.66666667 13.3333333 2.91666667 11.6666667 1.66666667 10 2.91666667 8.33333333 1.66666667 6.66666667 2.91666667 5"></polygon>
            <circle id="Oval" stroke="#A5B7C0" stroke-linecap="round" stroke-linejoin="round" cx="10" cy="10" r="4.16666667"></circle>
        </g>
    </g>
</svg>