<?xml version="1.0" encoding="UTF-8"?>
<svg width="20px" height="20px" viewBox="0 0 20 20" version="1.1" xmlns="http://www.w3.org/2000/svg" xmlns:xlink="http://www.w3.org/1999/xlink">
    <title>stethoscope</title>
    <g id="Page-1" stroke="none" stroke-width="1" fill="none" fill-rule="evenodd">
        <g id="stethoscope">
            <rect id="Rectangle" fill-opacity="0.01" fill="#FFFFFF" fill-rule="nonzero" x="0" y="0" width="20" height="20"></rect>
            <path d="M4.18858333,2.91666667 L1.66666667,2.91666667 C1.66666667,2.91666667 1.66666667,6.66666667 1.66666667,8.75 C1.66666667,10.8333333 3.33333333,13.3333333 6.66666667,13.3333333 C10,13.3333333 11.6666667,10.8333333 11.6666667,8.75 C11.6666667,6.66666667 11.6666667,2.91666667 11.6666667,2.91666667 L9.14475,2.91666667 M4.18858333,1.66666667 L4.18858333,4.16666667 M9.14475,1.66666667 L9.14475,4.16666667" id="Shape" stroke="#A5B7C0" stroke-linecap="round" stroke-linejoin="round"></path>
            <circle id="Oval" stroke="#A5B7C0" stroke-linecap="round" stroke-linejoin="round" cx="16.6666667" cy="7.91666667" r="1.66666667"></circle>
            <path d="M6.66666667,13.3333333 C6.66666667,16.09475 8.90525,18.3333333 11.6666667,18.3333333 C14.4280833,18.3333333 16.6666667,16.09475 16.6666667,13.3333333 L16.6666667,9.58333333" id="Path" stroke="#A5B7C0" stroke-linecap="round" stroke-linejoin="round"></path>
        </g>
    </g>
</svg>