<?xml version="1.0" encoding="UTF-8"?>
<svg width="20px" height="20px" viewBox="0 0 20 20" version="1.1" xmlns="http://www.w3.org/2000/svg" xmlns:xlink="http://www.w3.org/1999/xlink">
    <title>sun-one</title>
    <g id="Page-1" stroke="none" stroke-width="1" fill="none" fill-rule="evenodd">
        <g id="sun-one">
            <rect id="Rectangle" fill-opacity="0.01" fill="#FFFFFF" fill-rule="nonzero" x="0" y="0" width="20" height="20"></rect>
            <path d="M10,15.4166667 C12.9915417,15.4166667 15.4166667,12.9915417 15.4166667,10 C15.4166667,7.00845833 12.9915417,4.58333333 10,4.58333333 C7.00845833,4.58333333 4.58333333,7.00845833 4.58333333,10 C4.58333333,12.9915417 7.00845833,15.4166667 10,15.4166667 Z" id="Path" stroke="#A5B7C0" stroke-linejoin="round"></path>
            <path d="M10,2.5 C10.5752917,2.5 11.0416667,2.03362917 11.0416667,1.45833333 C11.0416667,0.8830375 10.5752917,0.416666667 10,0.416666667 C9.42470833,0.416666667 8.95833333,0.8830375 8.95833333,1.45833333 C8.95833333,2.03362917 9.42470833,2.5 10,2.5 Z" id="Path" fill="#A5B7C0" fill-rule="nonzero"></path>
            <path d="M16.0416667,5 C16.6169583,5 17.0833333,4.533625 17.0833333,3.95833333 C17.0833333,3.3830375 16.6169583,2.91666667 16.0416667,2.91666667 C15.466375,2.91666667 15,3.3830375 15,3.95833333 C15,4.533625 15.466375,5 16.0416667,5 Z" id="Path" fill="#A5B7C0" fill-rule="nonzero"></path>
            <path d="M18.5416667,11.0416667 C19.1169583,11.0416667 19.5833333,10.5752917 19.5833333,10 C19.5833333,9.42470833 19.1169583,8.95833333 18.5416667,8.95833333 C17.966375,8.95833333 17.5,9.42470833 17.5,10 C17.5,10.5752917 17.966375,11.0416667 18.5416667,11.0416667 Z" id="Path" fill="#A5B7C0" fill-rule="nonzero"></path>
            <path d="M16.0416667,17.0833333 C16.6169583,17.0833333 17.0833333,16.6169583 17.0833333,16.0416667 C17.0833333,15.466375 16.6169583,15 16.0416667,15 C15.466375,15 15,15.466375 15,16.0416667 C15,16.6169583 15.466375,17.0833333 16.0416667,17.0833333 Z" id="Path" fill="#A5B7C0" fill-rule="nonzero"></path>
            <path d="M10,19.5833333 C10.5752917,19.5833333 11.0416667,19.1169583 11.0416667,18.5416667 C11.0416667,17.966375 10.5752917,17.5 10,17.5 C9.42470833,17.5 8.95833333,17.966375 8.95833333,18.5416667 C8.95833333,19.1169583 9.42470833,19.5833333 10,19.5833333 Z" id="Path" fill="#A5B7C0" fill-rule="nonzero"></path>
            <path d="M3.95833333,17.0833333 C4.533625,17.0833333 5,16.6169583 5,16.0416667 C5,15.466375 4.533625,15 3.95833333,15 C3.3830375,15 2.91666667,15.466375 2.91666667,16.0416667 C2.91666667,16.6169583 3.3830375,17.0833333 3.95833333,17.0833333 Z" id="Path" fill="#A5B7C0" fill-rule="nonzero"></path>
            <path d="M1.45833333,11.0416667 C2.03362917,11.0416667 2.5,10.5752917 2.5,10 C2.5,9.42470833 2.03362917,8.95833333 1.45833333,8.95833333 C0.8830375,8.95833333 0.416666667,9.42470833 0.416666667,10 C0.416666667,10.5752917 0.8830375,11.0416667 1.45833333,11.0416667 Z" id="Path" fill="#A5B7C0" fill-rule="nonzero"></path>
            <path d="M3.95833333,5 C4.533625,5 5,4.533625 5,3.95833333 C5,3.3830375 4.533625,2.91666667 3.95833333,2.91666667 C3.3830375,2.91666667 2.91666667,3.3830375 2.91666667,3.95833333 C2.91666667,4.533625 3.3830375,5 3.95833333,5 Z" id="Path" fill="#A5B7C0" fill-rule="nonzero"></path>
        </g>
    </g>
</svg>