<?xml version="1.0" encoding="UTF-8"?>
<svg width="20px" height="20px" viewBox="0 0 20 20" version="1.1" xmlns="http://www.w3.org/2000/svg" xmlns:xlink="http://www.w3.org/1999/xlink">
    <title>sun</title>
    <g id="Page-1" stroke="none" stroke-width="1" fill="none" fill-rule="evenodd">
        <g id="sun">
            <rect id="Rectangle" fill-opacity="0.01" fill="#FFFFFF" fill-rule="nonzero" x="0" y="0" width="20" height="20"></rect>
            <path d="M10,1.25 L10,2.5625 L10,1.25 Z" id="Path" fill="#A5B7C0"></path>
            <line x1="10" y1="1.25" x2="10" y2="2.5625" id="Path" stroke="#A5B7C0" stroke-linecap="round" stroke-linejoin="round"></line>
            <path d="M16.1871667,3.81281667 L15.259125,4.740875 L16.1871667,3.81281667 Z" id="Path" fill="#A5B7C0"></path>
            <line x1="16.1871667" y1="3.81281667" x2="15.259125" y2="4.740875" id="Path" stroke="#A5B7C0" stroke-linecap="round" stroke-linejoin="round"></line>
            <path d="M18.75,10 L17.4375,10 L18.75,10 Z" id="Path" fill="#A5B7C0"></path>
            <line x1="18.75" y1="10" x2="17.4375" y2="10" id="Path" stroke="#A5B7C0" stroke-linecap="round" stroke-linejoin="round"></line>
            <path d="M16.1871667,16.1871667 L15.259125,15.259125 L16.1871667,16.1871667 Z" id="Path" fill="#A5B7C0"></path>
            <line x1="16.1871667" y1="16.1871667" x2="15.259125" y2="15.259125" id="Path" stroke="#A5B7C0" stroke-linecap="round" stroke-linejoin="round"></line>
            <path d="M10,18.75 L10,17.4375 L10,18.75 Z" id="Path" fill="#A5B7C0"></path>
            <line x1="10" y1="18.75" x2="10" y2="17.4375" id="Path" stroke="#A5B7C0" stroke-linecap="round" stroke-linejoin="round"></line>
            <path d="M3.81281667,16.1871667 L4.740875,15.259125 L3.81281667,16.1871667 Z" id="Path" fill="#A5B7C0"></path>
            <line x1="3.81281667" y1="16.1871667" x2="4.740875" y2="15.259125" id="Path" stroke="#A5B7C0" stroke-linecap="round" stroke-linejoin="round"></line>
            <path d="M1.25,10 L2.5625,10 L1.25,10 Z" id="Path" fill="#A5B7C0"></path>
            <line x1="1.25" y1="10" x2="2.5625" y2="10" id="Path" stroke="#A5B7C0" stroke-linecap="round" stroke-linejoin="round"></line>
            <path d="M3.81281667,3.81281667 L4.740875,4.740875 L3.81281667,3.81281667 Z" id="Path" fill="#A5B7C0"></path>
            <line x1="3.81281667" y1="3.81281667" x2="4.740875" y2="4.740875" id="Path" stroke="#A5B7C0" stroke-linecap="round" stroke-linejoin="round"></line>
            <path d="M10,15 C12.7614167,15 15,12.7614167 15,10 C15,7.23858333 12.7614167,5 10,5 C7.23858333,5 5,7.23858333 5,10 C5,12.7614167 7.23858333,15 10,15 Z" id="Path" stroke="#A5B7C0" stroke-linejoin="round"></path>
        </g>
    </g>
</svg>