<?xml version="1.0" encoding="UTF-8"?>
<svg width="20px" height="20px" viewBox="0 0 20 20" version="1.1" xmlns="http://www.w3.org/2000/svg" xmlns:xlink="http://www.w3.org/1999/xlink">
    <title>sunny</title>
    <g id="Page-1" stroke="none" stroke-width="1" fill="none" fill-rule="evenodd">
        <g id="sunny">
            <rect id="Rectangle" fill-opacity="0.01" fill="#FFFFFF" fill-rule="nonzero" x="0" y="0" width="20" height="20"></rect>
            <path d="M12.8260833,10.2355 C14.386875,10.2355 15.6521667,8.97020833 15.6521667,7.40941667 C15.6521667,5.848625 14.386875,4.58333333 12.8260833,4.58333333 C11.43075,4.58333333 10.2715833,5.59458333 10.0415,6.92416667" id="Path" stroke="#A5B7C0" stroke-linecap="round" stroke-linejoin="round"></path>
            <path d="M13.75,2.91666667 C14.21025,2.91666667 14.5833333,2.54357083 14.5833333,2.08333333 C14.5833333,1.62309583 14.21025,1.25 13.75,1.25 C13.28975,1.25 12.9166667,1.62309583 12.9166667,2.08333333 C12.9166667,2.54357083 13.28975,2.91666667 13.75,2.91666667 Z" id="Path" fill="#A5B7C0" fill-rule="nonzero"></path>
            <path d="M17.5,5 C17.96025,5 18.3333333,4.62691667 18.3333333,4.16666667 C18.3333333,3.70642917 17.96025,3.33333333 17.5,3.33333333 C17.03975,3.33333333 16.6666667,3.70642917 16.6666667,4.16666667 C16.6666667,4.62691667 17.03975,5 17.5,5 Z" id="Path" fill="#A5B7C0" fill-rule="nonzero"></path>
            <path d="M18.3333333,8.75 C18.7935833,8.75 19.1666667,8.37691667 19.1666667,7.91666667 C19.1666667,7.45641667 18.7935833,7.08333333 18.3333333,7.08333333 C17.8730833,7.08333333 17.5,7.45641667 17.5,7.91666667 C17.5,8.37691667 17.8730833,8.75 18.3333333,8.75 Z" id="Path" fill="#A5B7C0" fill-rule="nonzero"></path>
            <path d="M9.16666667,4.16666667 C9.62691667,4.16666667 10,3.79357083 10,3.33333333 C10,2.87309583 9.62691667,2.5 9.16666667,2.5 C8.70641667,2.5 8.33333333,2.87309583 8.33333333,3.33333333 C8.33333333,3.79357083 8.70641667,4.16666667 9.16666667,4.16666667 Z" id="Path" fill="#A5B7C0" fill-rule="nonzero"></path>
            <path d="M3.93939583,16.66425 C2.55934167,15.60875 1.66666667,13.92825 1.66666667,12.0354583 C1.66666667,8.84025 4.2105,6.25 7.3485,6.25 C9.97225,6.25 12.1806667,8.06091667 12.8339583,10.5222083 C13.3480417,10.256625 13.9295833,10.1069583 14.5454583,10.1069583 C16.6374583,10.1069583 18.3333333,11.8337917 18.3333333,13.9639583 C18.3333333,15.5455833 17.3984167,16.9048333 16.060625,17.5" id="Path" stroke="#A5B7C0" stroke-linecap="round" stroke-linejoin="round"></path>
            <path d="M9.26775,10.3155833 C8.815375,9.86316667 8.190375,9.58333333 7.5,9.58333333 C6.11929167,9.58333333 5,10.702625 5,12.0833333 C5,12.7737083 5.27983333,13.3987083 5.73225,13.8510833" id="Path" stroke="#A5B7C0" stroke-linecap="round" stroke-linejoin="round"></path>
        </g>
    </g>
</svg>