<?xml version="1.0" encoding="UTF-8"?>
<svg width="20px" height="20px" viewBox="0 0 20 20" version="1.1" xmlns="http://www.w3.org/2000/svg" xmlns:xlink="http://www.w3.org/1999/xlink">
    <title>surveillance-cameras-one</title>
    <g id="Page-1" stroke="none" stroke-width="1" fill="none" fill-rule="evenodd">
        <g id="surveillance-cameras-one">
            <rect id="Rectangle" fill-opacity="0.01" fill="#FFFFFF" fill-rule="nonzero" x="0" y="0" width="20" height="20"></rect>
            <line x1="2.5" y1="10.8333333" x2="2.5" y2="17.5" id="Path" stroke="#A5B7C0" stroke-linecap="round" stroke-linejoin="round"></line>
            <polyline id="Path" stroke="#A5B7C0" stroke-linecap="round" stroke-linejoin="round" points="2.5 13.75 5.41666667 13.75 7.08333333 11.25"></polyline>
            <path d="M2.91666667,8.33333333 L13.9472917,15.6870833 C14.08125,15.776375 14.2547083,15.7805 14.39275,15.6976667 L18.3333333,13.3333333" id="Path" stroke="#A5B7C0" stroke-linecap="round" stroke-linejoin="round"></path>
            <path d="M2.94917917,5.29945833 C2.72203333,5.14804167 2.69944583,4.82270833 2.9034875,4.64133333 L6.011625,1.87855833 C6.15229167,1.7535125 6.35933333,1.73830417 6.51679167,1.84145417 L17.7935833,9.22970833 C18.0466667,9.39554167 18.0442083,9.76733333 17.7889583,9.92975 L13.979,12.3542917 C13.8397917,12.442875 13.6614583,12.4409583 13.5241667,12.3494583 L2.94917917,5.29945833 Z" id="Path" stroke="#A5B7C0"></path>
        </g>
    </g>
</svg>