<?xml version="1.0" encoding="UTF-8"?>
<svg width="20px" height="20px" viewBox="0 0 20 20" version="1.1" xmlns="http://www.w3.org/2000/svg" xmlns:xlink="http://www.w3.org/1999/xlink">
    <title>swallow</title>
    <g id="Page-1" stroke="none" stroke-width="1" fill="none" fill-rule="evenodd">
        <g id="swallow">
            <rect id="Rectangle" fill-opacity="0.01" fill="#FFFFFF" fill-rule="nonzero" x="0" y="0" width="20" height="20"></rect>
            <path d="M3.74959167,13.880625 L10.014125,2.8927875 C10.3991667,2.075375 11.0944583,1.66666667 12.1000833,1.66666667 C13.6084583,1.66666667 14.5905,3.744275 14.5905,3.744275 C14.5905,3.744275 15.1435417,3.82667083 16.2495917,3.99147083 C14.5786667,4.01880833 13.6124583,4.355 13.351,5 C12.9588333,5.96754167 14.3742917,6.97116667 14.5905,8.33495833 C14.8067083,9.69870833 13.9442917,12.002125 11.8700833,13.1529167 C10.48725,13.920125 8.76091667,14.119125 6.69095833,13.75 L4.14935,18.3333333" id="Path" stroke="#A5B7C0" stroke-linecap="round" stroke-linejoin="round"></path>
            <path d="M7.89266667,11.6575 C8.96720833,9.72016667 9.67370833,8.47620833 10.0122083,7.925625 C10.5199167,7.09975 12.614375,7.34875 11.861875,9.410125 C11.3602083,10.7843333 10.037125,11.5334583 7.89266667,11.6575 Z" id="Path" stroke="#A5B7C0" stroke-linejoin="round"></path>
        </g>
    </g>
</svg>