<?xml version="1.0" encoding="UTF-8"?>
<svg width="20px" height="20px" viewBox="0 0 20 20" version="1.1" xmlns="http://www.w3.org/2000/svg" xmlns:xlink="http://www.w3.org/1999/xlink">
    <title>swimming-pool</title>
    <g id="Page-1" stroke="none" stroke-width="1" fill="none" fill-rule="evenodd">
        <g id="swimming-pool">
            <rect id="Rectangle" fill-opacity="0.01" fill="#FFFFFF" x="0" y="0" width="20" height="20"></rect>
            <g id="Group-13" transform="translate(1.000000, 1.000000)" stroke="#A5B7C0" stroke-linecap="round" stroke-linejoin="round">
                <path d="M14.4,10.35 L14.4,1.8 C14.4,0.8055 15.2055,0 16.2,0 L18,0" id="Path"></path>
                <path d="M2.7,10.35 L2.7,1.8 C2.7,0.8055 3.5055,0 4.5,0 L6.3,0" id="Path"></path>
                <line x1="2.7" y1="3.6" x2="14.4" y2="3.6" id="Path"></line>
                <line x1="2.7" y1="7.2" x2="14.4" y2="7.2" id="Path"></line>
                <path d="M0,13.5 L1.125,14.10813 C1.845,14.49729 2.655,14.49729 3.375,14.10813 C4.095,13.718925 4.905,13.718925 5.625,14.10813 C6.345,14.49729 7.155,14.49729 7.875,14.10813 C8.595,13.718925 9.405,13.718925 10.125,14.10813 C10.845,14.49729 11.655,14.49729 12.375,14.10813 C13.095,13.718925 13.905,13.718925 14.625,14.10813 C15.345,14.49729 16.155,14.49729 16.875,14.10813 L18,13.5" id="Path"></path>
                <path d="M0,16.2 L1.125,16.80813 C1.845,17.19729 2.655,17.19729 3.375,16.80813 C4.095,16.418925 4.905,16.418925 5.625,16.80813 C6.345,17.19729 7.155,17.19729 7.875,16.80813 C8.595,16.418925 9.405,16.418925 10.125,16.80813 C10.845,17.19729 11.655,17.19729 12.375,16.80813 C13.095,16.418925 13.905,16.418925 14.625,16.80813 C15.345,17.19729 16.155,17.19729 16.875,16.80813 L18,16.2" id="Path"></path>
            </g>
        </g>
    </g>
</svg>