<?xml version="1.0" encoding="UTF-8"?>
<svg width="20px" height="20px" viewBox="0 0 20 20" version="1.1" xmlns="http://www.w3.org/2000/svg" xmlns:xlink="http://www.w3.org/1999/xlink">
    <title>switch-contrast</title>
    <g id="Page-1" stroke="none" stroke-width="1" fill="none" fill-rule="evenodd">
        <g id="switch-contrast">
            <rect id="Rectangle" fill-opacity="0.01" fill="#FFFFFF" fill-rule="nonzero" x="0" y="0" width="20" height="20"></rect>
            <path d="M12.5,4.16666667 L16.6666667,4.16666667 C17.4523333,4.16666667 17.8451667,4.16666667 18.08925,4.41075 C18.3333333,4.65483333 18.3333333,5.04766667 18.3333333,5.83333333 L18.3333333,14.1666667 C18.3333333,14.9523333 18.3333333,15.3451667 18.08925,15.58925 C17.8451667,15.8333333 17.4523333,15.8333333 16.6666667,15.8333333 L12.5,15.8333333" id="Path" stroke="#A5B7C0" stroke-linecap="round" stroke-linejoin="round"></path>
            <path d="M7.5,4.16666667 L3.33333333,4.16666667 C2.54765833,4.16666667 2.15482083,4.16666667 1.91074583,4.41075 C1.66666667,4.65483333 1.66666667,5.04766667 1.66666667,5.83333333 L1.66666667,14.1666667 C1.66666667,14.9523333 1.66666667,15.3451667 1.91074583,15.58925 C2.15482083,15.8333333 2.54765833,15.8333333 3.33333333,15.8333333 L7.5,15.8333333" id="Path" stroke="#A5B7C0" stroke-linecap="round" stroke-linejoin="round"></path>
            <line x1="10" y1="2.5" x2="10" y2="17.5" id="Path" stroke="#A5B7C0" stroke-linecap="round" stroke-linejoin="round"></line>
        </g>
    </g>
</svg>