<?xml version="1.0" encoding="UTF-8"?>
<svg width="20px" height="20px" viewBox="0 0 20 20" version="1.1" xmlns="http://www.w3.org/2000/svg" xmlns:xlink="http://www.w3.org/1999/xlink">
    <title>switch-button</title>
    <g id="Page-1" stroke="none" stroke-width="1" fill="none" fill-rule="evenodd">
        <g id="switch-button">
            <rect id="Rectangle" fill-opacity="0.01" fill="#FFFFFF" fill-rule="nonzero" x="0" y="0" width="20" height="20"></rect>
            <rect id="Rectangle" stroke="#A5B7C0" stroke-linejoin="round" x="1.66666667" y="1.66666667" width="16.6666667" height="6.66666667" rx="3.33333333"></rect>
            <rect id="Rectangle" stroke="#A5B7C0" stroke-linejoin="round" x="1.66666667" y="11.6666667" width="16.6666667" height="6.66666667" rx="3.33333333"></rect>
            <path d="M15,5.83333333 C15.46025,5.83333333 15.8333333,5.46025 15.8333333,5 C15.8333333,4.53975 15.46025,4.16666667 15,4.16666667 C14.53975,4.16666667 14.1666667,4.53975 14.1666667,5 C14.1666667,5.46025 14.53975,5.83333333 15,5.83333333 Z" id="Path" stroke="#A5B7C0" stroke-linejoin="round"></path>
            <path d="M5,15.8333333 C5.46025,15.8333333 5.83333333,15.46025 5.83333333,15 C5.83333333,14.53975 5.46025,14.1666667 5,14.1666667 C4.53975,14.1666667 4.16666667,14.53975 4.16666667,15 C4.16666667,15.46025 4.53975,15.8333333 5,15.8333333 Z" id="Path" stroke="#A5B7C0" stroke-linejoin="round"></path>
        </g>
    </g>
</svg>