<?xml version="1.0" encoding="UTF-8"?>
<svg width="20px" height="20px" viewBox="0 0 20 20" version="1.1" xmlns="http://www.w3.org/2000/svg" xmlns:xlink="http://www.w3.org/1999/xlink">
    <title>tape</title>
    <g id="Page-1" stroke="none" stroke-width="1" fill="none" fill-rule="evenodd">
        <g id="tape">
            <rect id="Rectangle" fill-opacity="0.01" fill="#FFFFFF" fill-rule="nonzero" x="0" y="0" width="20" height="20"></rect>
            <path d="M1.66666667,5 C1.66666667,4.53975 2.0397625,4.16666667 2.5,4.16666667 L4.16666667,4.16666667 L15.8333333,4.16666667 L17.5,4.16666667 C17.96025,4.16666667 18.3333333,4.53975 18.3333333,5 L18.3333333,15 C18.3333333,15.46025 17.96025,15.8333333 17.5,15.8333333 L2.5,15.8333333 C2.0397625,15.8333333 1.66666667,15.46025 1.66666667,15 L1.66666667,5 Z" id="Path" stroke="#A5B7C0" stroke-linejoin="round"></path>
            <path d="M5.945875,4.16666667 C5.23933333,4.16666667 4.853375,4.99070833 5.30566667,5.5335 L6.000125,6.36683333 C6.15845833,6.55683333 6.393,6.66666667 6.64029167,6.66666667 L10,6.66666667 L13.3597083,6.66666667 C13.607,6.66666667 13.8415417,6.55683333 13.999875,6.36683333 L14.6943333,5.5335 C15.146625,4.99070833 14.7606667,4.16666667 14.054125,4.16666667 L5.945875,4.16666667 Z" id="Path" stroke="#A5B7C0" stroke-linecap="round" stroke-linejoin="round"></path>
            <polyline id="Path" stroke="#A5B7C0" stroke-linecap="round" stroke-linejoin="round" points="2.5 4.16666667 2.5 4.16666667 4.16666667 4.16666667 15.8333333 4.16666667 17.5 4.16666667"></polyline>
            <path d="M13.75,12.9166667 C14.6704583,12.9166667 15.4166667,12.1704583 15.4166667,11.25 C15.4166667,10.3295417 14.6704583,9.58333333 13.75,9.58333333 C12.8295417,9.58333333 12.0833333,10.3295417 12.0833333,11.25 C12.0833333,12.1704583 12.8295417,12.9166667 13.75,12.9166667 Z" id="Path" stroke="#A5B7C0" stroke-linejoin="round"></path>
            <path d="M6.25,12.9166667 C7.17045833,12.9166667 7.91666667,12.1704583 7.91666667,11.25 C7.91666667,10.3295417 7.17045833,9.58333333 6.25,9.58333333 C5.32954167,9.58333333 4.58333333,10.3295417 4.58333333,11.25 C4.58333333,12.1704583 5.32954167,12.9166667 6.25,12.9166667 Z" id="Path" stroke="#A5B7C0" stroke-linejoin="round"></path>
        </g>
    </g>
</svg>