<?xml version="1.0" encoding="UTF-8"?>
<svg width="20px" height="20px" viewBox="0 0 20 20" version="1.1" xmlns="http://www.w3.org/2000/svg" xmlns:xlink="http://www.w3.org/1999/xlink">
    <title>taxi</title>
    <g id="Page-1" stroke="none" stroke-width="1" fill="none" fill-rule="evenodd">
        <g id="taxi">
            <g id="Group" transform="translate(1.666667, 4.583333)">
                <path d="M0,10 L0,6.96235796 C0,6.01511175 0.53535945,5.14922175 1.38275085,4.72589775 L1.66688588,4.58395487 L2.62936034,1.28830654 C2.8052328,0.533819867 3.47779836,0 4.25251204,0 L12.4559623,0 C13.2364684,0 13.9124394,0.541659058 14.0825585,1.30339995 L15.0013106,4.58395487 L15.284737,4.72567379 C16.1316771,5.149161 16.6666667,6.01480808 16.6666667,6.96172362 L16.6666667,10 C16.6666667,10.6903559 16.1070226,11.25 15.4166667,11.25 L14.584644,11.25 L14.584644,11.6666667 C14.584644,12.5871412 13.8384519,13.3333333 12.9179773,13.3333333 C11.9961921,13.3333333 11.25,12.5871412 11.25,11.6666667 L11.25,11.25 L5.41666667,11.25 L5.41666667,11.6667763 C5.41666667,12.5871903 4.67052367,13.3333333 3.75010961,13.3333333 C2.82969556,13.3333333 2.08355255,12.5871903 2.08355255,11.6667763 L2.08355255,11.25 L1.25,11.25 C0.559644062,11.25 0,10.6903559 0,10 Z" id="Path" stroke="#A5B7C0" stroke-linejoin="round"></path>
                <circle id="Oval" fill="#A5B7C0" cx="3.95833333" cy="8.125" r="1.04166667"></circle>
                <circle id="Oval" fill="#A5B7C0" cx="12.7083333" cy="8.125" r="1.04166667"></circle>
            </g>
            <rect id="Rectangle" fill-opacity="0.01" fill="#FFFFFF" x="0" y="0" width="20" height="20"></rect>
            <path d="M7.5,4.58333333 L12.5,4.58333333 L12.0870077,2.51837197 C12.0361702,2.26418444 11.8332635,2.08333333 11.5989142,2.08333333 L8.40108579,2.08333333 C8.16673646,2.08333333 7.96382979,2.26418444 7.91299229,2.51837197 L7.5,4.58333333 Z" id="Path" stroke="#A5B7C0" stroke-linecap="round" stroke-linejoin="round"></path>
            <line x1="6.25" y1="9.58333333" x2="13.75" y2="9.58333333" id="Path" stroke="#A5B7C0" stroke-linecap="round" stroke-linejoin="round"></line>
        </g>
    </g>
</svg>