<?xml version="1.0" encoding="UTF-8"?>
<svg width="20px" height="20px" viewBox="0 0 20 20" version="1.1" xmlns="http://www.w3.org/2000/svg" xmlns:xlink="http://www.w3.org/1999/xlink">
    <title>tea-drink</title>
    <g id="Page-1" stroke="none" stroke-width="1" fill="none" fill-rule="evenodd">
        <g id="tea-drink">
            <rect id="Rectangle" fill-opacity="0.01" fill="#FFFFFF" fill-rule="nonzero" x="0" y="0" width="20" height="20"></rect>
            <path d="M0.833333333,8.33333333 C0.833333333,13.3959583 3.33333333,17.5 8.33333333,17.5 C13.3333333,17.5 15.8333333,13.3959583 15.8333333,8.33333333 L0.833333333,8.33333333 Z" id="Path" stroke="#A5B7C0" stroke-linecap="round" stroke-linejoin="round"></path>
            <line x1="8.33333333" y1="5.83333333" x2="8.33333333" y2="2.5" id="Path" stroke="#A5B7C0" stroke-linecap="round" stroke-linejoin="round"></line>
            <line x1="12.5" y1="5.83333333" x2="12.5" y2="4.16666667" id="Path" stroke="#A5B7C0" stroke-linecap="round" stroke-linejoin="round"></line>
            <line x1="4.16666667" y1="5.83333333" x2="4.16666667" y2="4.16666667" id="Path" stroke="#A5B7C0" stroke-linecap="round" stroke-linejoin="round"></line>
            <path d="M15.0793333,12.7595417 C15.49175,11.6829167 15.735,10.4739167 15.8090417,9.18795833 C15.9528333,9.17391667 16.1000833,9.16666667 16.25,9.16666667 C17.8608333,9.16666667 19.1666667,10.006125 19.1666667,11.0416667 C19.1666667,12.0772083 17.8608333,12.9166667 16.25,12.9166667 C15.833625,12.9166667 15.4376667,12.8605833 15.0793333,12.7595417 Z" id="Path" stroke="#A5B7C0" stroke-linecap="round" stroke-linejoin="round"></path>
        </g>
    </g>
</svg>