<?xml version="1.0" encoding="UTF-8"?>
<svg width="20px" height="20px" viewBox="0 0 20 20" version="1.1" xmlns="http://www.w3.org/2000/svg" xmlns:xlink="http://www.w3.org/1999/xlink">
    <title>teeth</title>
    <g id="Page-1" stroke="none" stroke-width="1" fill="none" fill-rule="evenodd">
        <g id="teeth">
            <rect id="Rectangle" fill-opacity="0.01" fill="#FFFFFF" fill-rule="nonzero" x="0" y="0" width="20" height="20"></rect>
            <path d="M5.4655,2.08333333 L5.83441667,2.08333333 C7.778625,2.3707875 8.305875,3.47427083 10.000125,3.47427083 C11.6943333,3.47427083 12.2214167,2.37085417 14.16575,2.08333333 L14.375125,2.08333333 C16.56125,2.08333333 18.3334583,3.8555375 18.3334583,6.04166667 L18.3334583,6.30245833 C18.3334583,7.51195833 17.0454583,8.89304167 16.6667917,10.2012083 C16.2645833,11.5905833 15.9890417,12.7260417 15.9081667,13.9142917 C15.7186667,16.6979583 14.7695833,17.9166667 13.750125,17.9166667 C12.2277083,17.9166667 10.8757083,11.677125 10.026125,11.677125 C9.17654167,11.677125 7.49066667,17.9166667 6.250125,17.9166667 C5.493,17.9166667 4.51220833,17.4689167 4.143975,13.9142917 C3.9974625,12.5 3.75050833,11.6419583 3.33345,10.2012083 C2.966875,8.934875 1.72999583,7.42129167 1.66678333,6.06295833 C1.56915417,3.96497083 3.19075833,2.18507917 5.28875,2.08745 C5.347625,2.0847125 5.40654167,2.08333333 5.4655,2.08333333 Z" id="Path" stroke="#A5B7C0"></path>
            <line x1="6.451" y1="5.19308333" x2="13.3335417" y2="7.41195833" id="Path" stroke="#A5B7C0" stroke-linecap="round"></line>
            <line x1="6.451" y1="7.41191667" x2="13.3335417" y2="5.193" id="Path" stroke="#A5B7C0" stroke-linecap="round"></line>
        </g>
    </g>
</svg>