<?xml version="1.0" encoding="UTF-8"?>
<svg width="20px" height="20px" viewBox="0 0 20 20" version="1.1" xmlns="http://www.w3.org/2000/svg" xmlns:xlink="http://www.w3.org/1999/xlink">
    <title>three-d-glasses</title>
    <g id="Page-1" stroke="none" stroke-width="1" fill="none" fill-rule="evenodd">
        <g id="three-d-glasses">
            <rect id="Rectangle" fill-opacity="0.01" fill="#FFFFFF" fill-rule="nonzero" x="0" y="0" width="20" height="20"></rect>
            <line x1="8.16666667" y1="14.375" x2="11.8333333" y2="14.375" id="Path" stroke="#A5B7C0" stroke-linecap="round"></line>
            <polyline id="Path" stroke="#A5B7C0" stroke-linecap="round" stroke-linejoin="round" points="0.959525 11.412875 4.14915417 3.98408333 6.22883333 2.91666667"></polyline>
            <polyline id="Path" stroke="#A5B7C0" stroke-linecap="round" stroke-linejoin="round" points="19.0852917 11.513875 15.8542083 3.98408333 13.7745 2.91666667"></polyline>
            <path d="M1.41694167,11.1665833 L7.79875,11.1665833 C8.09654167,11.1665833 8.33795833,11.408 8.33795833,11.7057917 C8.33795833,11.72 8.33741667,11.7342083 8.33629167,11.748375 L7.949875,16.62825 C7.92766667,16.9086667 7.693625,17.1249167 7.41233333,17.1249167 L1.80335833,17.1249167 C1.52206667,17.1249167 1.28802917,16.9086667 1.265825,16.62825 L0.879408333,11.748375 C0.8559,11.4515 1.07750417,11.1917917 1.374375,11.16825 C1.3885375,11.1671667 1.4027375,11.1665833 1.41694167,11.1665833 Z" id="Path" stroke="#A5B7C0"></path>
            <path d="M12.20125,11.1665833 L18.5830833,11.1665833 C18.880875,11.1665833 19.1222917,11.408 19.1222917,11.7057917 C19.1222917,11.72 19.1217083,11.7342083 19.120625,11.748375 L18.7341667,16.62825 C18.712,16.9086667 18.4779583,17.1249167 18.1966667,17.1249167 L12.5876667,17.1249167 C12.306375,17.1249167 12.0723333,16.9086667 12.050125,16.62825 L11.6637083,11.748375 C11.6402083,11.4515 11.8618333,11.1917917 12.1587083,11.16825 C12.1728333,11.1671667 12.1870417,11.1665833 12.20125,11.1665833 Z" id="Path" stroke="#A5B7C0"></path>
        </g>
    </g>
</svg>