<?xml version="1.0" encoding="UTF-8"?>
<svg width="20px" height="20px" viewBox="0 0 20 20" version="1.1" xmlns="http://www.w3.org/2000/svg" xmlns:xlink="http://www.w3.org/1999/xlink">
    <title>tiktok</title>
    <g id="Page-1" stroke="none" stroke-width="1" fill="none" fill-rule="evenodd">
        <g id="tiktok">
            <rect id="Rectangle" fill-opacity="0.01" fill="#FFFFFF" fill-rule="nonzero" x="0" y="0" width="20" height="20"></rect>
            <path d="M8.89929167,7.975 C6.44566667,7.856625 4.74016667,8.73141667 3.78275833,10.599375 C2.34664167,13.4012917 3.53354583,17.9860833 8.324625,17.9860833 C13.1156667,17.9860833 13.2542917,13.3564583 13.2542917,12.8714583 C13.2542917,12.5480833 13.2542917,10.7402083 13.2542917,7.44775 C14.2790417,8.09683333 15.1430417,8.48754167 15.84625,8.619875 C16.5495,8.75225 16.9965833,8.81091667 17.1874583,8.795875 L17.1874583,6.097625 C16.537,6.01920833 15.9745,5.86975 15.4999583,5.64925 C14.788125,5.31845833 13.3766667,4.4005 13.3766667,3.05505833 C13.377625,3.0616375 13.377625,2.71457917 13.3766667,2.01387917 L10.4107917,2.01387917 C10.402,8.60391667 10.402,12.2230833 10.4107917,12.8714583 C10.4240417,13.8439583 9.66958333,15.204375 8.13991667,15.204375 C6.61020833,15.204375 5.85575,13.8450833 5.85575,12.9682917 C5.85575,12.4315417 6.04008333,11.6535417 6.80220833,11.0774167 C7.25416667,10.7357917 7.88145833,10.599375 8.89929167,10.599375 C8.89929167,10.2845417 8.89929167,9.40975 8.89929167,7.975 Z" id="Path" stroke="#A5B7C0" stroke-linejoin="round"></path>
        </g>
    </g>
</svg>