<?xml version="1.0" encoding="UTF-8"?>
<svg width="20px" height="20px" viewBox="0 0 20 20" version="1.1" xmlns="http://www.w3.org/2000/svg" xmlns:xlink="http://www.w3.org/1999/xlink">
    <title>timeline</title>
    <g id="Page-1" stroke="none" stroke-width="1" fill="none" fill-rule="evenodd">
        <g id="timeline">
            <rect id="Rectangle" fill-opacity="0.01" fill="#FFFFFF" fill-rule="nonzero" x="0" y="0" width="20" height="20"></rect>
            <polygon id="Path" fill-opacity="0.01" fill="#FFFFFF" fill-rule="nonzero" points="20 0 0 0 0 20 20 20"></polygon>
            <path d="M5.41666667,5 C5.41666667,5.92045833 6.162875,6.66666667 7.08333333,6.66666667 C8.00379167,6.66666667 8.75,5.92045833 8.75,5 C8.75,4.079525 8.00379167,3.33333333 7.08333333,3.33333333 C6.162875,3.33333333 5.41666667,4.079525 5.41666667,5 Z" id="Path" stroke="#A5B7C0" stroke-linejoin="round"></path>
            <path d="M12.9166667,10 C12.9166667,10.9204583 13.662875,11.6666667 14.5833333,11.6666667 C15.5037917,11.6666667 16.25,10.9204583 16.25,10 C16.25,9.07954167 15.5037917,8.33333333 14.5833333,8.33333333 C13.662875,8.33333333 12.9166667,9.07954167 12.9166667,10 Z" id="Path" stroke="#A5B7C0" stroke-linejoin="round"></path>
            <path d="M5.41666667,15 C5.41666667,15.9204583 6.162875,16.6666667 7.08333333,16.6666667 C8.00379167,16.6666667 8.75,15.9204583 8.75,15 C8.75,14.0795417 8.00379167,13.3333333 7.08333333,13.3333333 C6.162875,13.3333333 5.41666667,14.0795417 5.41666667,15 Z" id="Path" stroke="#A5B7C0" stroke-linejoin="round"></path>
            <line x1="1.66666667" y1="15" x2="5.41666667" y2="15" id="Path" stroke="#A5B7C0" stroke-linecap="round"></line>
            <line x1="8.75" y1="15" x2="18.3333333" y2="15" id="Path" stroke="#A5B7C0" stroke-linecap="round"></line>
            <line x1="1.66666667" y1="5" x2="5.41666667" y2="5" id="Path" stroke="#A5B7C0" stroke-linecap="round"></line>
            <line x1="8.75" y1="5" x2="18.3333333" y2="5" id="Path" stroke="#A5B7C0" stroke-linecap="round"></line>
            <line x1="1.66666667" y1="1.66666667" x2="1.66666667" y2="18.3333333" id="Path" stroke="#A5B7C0" stroke-linecap="round" stroke-linejoin="round"></line>
            <line x1="1.66666667" y1="10" x2="12.9166667" y2="10" id="Path" stroke="#A5B7C0" stroke-linecap="round"></line>
            <line x1="16.25" y1="10" x2="18.3333333" y2="10" id="Path" stroke="#A5B7C0" stroke-linecap="round"></line>
        </g>
    </g>
</svg>