<?xml version="1.0" encoding="UTF-8"?>
<svg width="20px" height="20px" viewBox="0 0 20 20" version="1.1" xmlns="http://www.w3.org/2000/svg" xmlns:xlink="http://www.w3.org/1999/xlink">
    <title>topbuzz</title>
    <g id="Page-1" stroke="none" stroke-width="1" fill="none" fill-rule="evenodd">
        <g id="topbuzz">
            <rect id="Rectangle" fill-opacity="0.01" fill="#FFFFFF" fill-rule="nonzero" x="0" y="0" width="20" height="20"></rect>
            <path d="M7.87695833,7.57004167 L4.30204167,6.81016667 C4.0697,6.76079167 3.92137917,6.532375 3.97076667,6.30004167 L4.77558333,2.51365417 C4.82495833,2.28130417 5.053375,2.13298333 5.28570833,2.18237083 L17.48625,4.77566667 C17.718625,4.82508333 17.8669583,5.05345833 17.8175417,5.28579167 L17.01275,9.07220833 C16.9633333,9.30454167 16.7349583,9.452875 16.5025833,9.40345833 L12.9582917,8.65008333 C12.7969167,8.61579167 12.7012083,8.66920833 12.6712083,8.810375 C12.3036667,10.539625 11.7522917,13.1335417 11.0171667,16.592125 C10.9677917,16.8244583 10.739375,16.9727917 10.5070417,16.9234167 L6.72066667,16.1185833 C6.48829167,16.0692083 6.33995833,15.8407917 6.389375,15.6084583 C7.12470833,12.1489583 7.67620833,9.55429167 8.043875,7.82454167 C8.07358333,7.68483333 8.01795833,7.6 7.87695833,7.57004167 Z" id="Path" stroke="#A5B7C0" stroke-linejoin="round"></path>
        </g>
    </g>
</svg>