<?xml version="1.0" encoding="UTF-8"?>
<svg width="20px" height="20px" viewBox="0 0 20 20" version="1.1" xmlns="http://www.w3.org/2000/svg" xmlns:xlink="http://www.w3.org/1999/xlink">
    <title>toxins</title>
    <g id="Page-1" stroke="none" stroke-width="1" fill="none" fill-rule="evenodd">
        <g id="toxins">
            <rect id="Rectangle" fill-opacity="0.01" fill="#FFFFFF" fill-rule="nonzero" x="0" y="0" width="20" height="20"></rect>
            <path d="M14.149125,18.333375 C14.149125,18.333375 14.1593333,16.8872083 14.149125,16.5667083 C14.3780833,16.4440833 14.6003333,16.3105 14.815125,16.1667167 C15.246875,15.8777083 15.6485833,15.5473333 16.0145833,15.1813333 C17.44725,13.7486667 18.3333333,11.7695 18.3333333,9.583375 C18.3333333,5.211125 14.7889167,1.66671667 10.4166667,1.66671667 C6.04441667,1.66671667 2.5,5.211125 2.5,9.583375 C2.5,11.7695 3.38610417,13.7486667 4.81875,15.1813333 C5.18475,15.5473333 5.58645833,15.8777083 6.01820833,16.1667167 C6.233,16.3105 6.43945833,16.4440833 6.66845833,16.5667083 C6.66845833,16.670125 6.66845833,17.259 6.66845833,18.333375 C11.6555417,18.333375 14.149125,18.333375 14.149125,18.333375 Z" id="Path" stroke="#A5B7C0" stroke-linejoin="round"></path>
            <path d="M7.5,11.2500417 C8.42045833,11.2500417 9.16666667,10.503875 9.16666667,9.583375 L7.5,7.91670833 C6.57954167,7.91670833 5.83333333,8.66291667 5.83333333,9.583375 C5.83333333,10.503875 6.57954167,11.2500417 7.5,11.2500417 Z" id="Path" stroke="#A5B7C0" stroke-linejoin="round"></path>
            <path d="M13.3333333,11.2500417 C12.412875,11.2500417 11.6666667,10.503875 11.6666667,9.583375 L13.3333333,7.91670833 C14.2537917,7.91670833 15,8.66291667 15,9.583375 C15,10.503875 14.2537917,11.2500417 13.3333333,11.2500417 Z" id="Path" stroke="#A5B7C0" stroke-linejoin="round"></path>
            <polyline id="Path" stroke="#A5B7C0" stroke-linecap="round" stroke-linejoin="round" points="9.16666667 14.1667083 10.3907917 12.9167083 11.6666667 14.1235"></polyline>
        </g>
    </g>
</svg>