<?xml version="1.0" encoding="UTF-8"?>
<svg width="20px" height="20px" viewBox="0 0 20 20" version="1.1" xmlns="http://www.w3.org/2000/svg" xmlns:xlink="http://www.w3.org/1999/xlink">
    <title>traditional-chinese-medicine</title>
    <g id="Page-1" stroke="none" stroke-width="1" fill="none" fill-rule="evenodd">
        <g id="traditional-chinese-medicine">
            <rect id="Rectangle" fill-opacity="0.01" fill="#FFFFFF" fill-rule="nonzero" x="0" y="0" width="20" height="20"></rect>
            <path d="M10,17.916625 C10.3605417,17.916625 11.187625,17.916625 12.4812917,17.916625 C12.515875,16.77625 12.6830417,16.1492083 12.98275,16.0354583 C16.111875,14.8481667 18.3333333,11.8474167 18.3333333,8.33329167 L1.66666667,8.33329167 C1.66666667,11.771375 3.79299583,14.7180417 6.81533333,15.9558333 C7.13129167,16.08525 7.36729167,16.7388333 7.52333333,17.916625 C8.78570833,17.916625 9.61125,17.916625 10,17.916625 Z" id="Path" stroke="#A5B7C0" stroke-linejoin="round"></path>
            <path d="M6.01808333,11.2592917 C6.16791667,11.75425 6.36608333,12.162875 6.61258333,12.4852083 C6.8535,12.8003333 7.15079167,13.0925833 7.50433333,13.3619583" id="Path" stroke="#A5B7C0" stroke-linecap="round"></path>
            <path d="M10.5057917,8.34429167 C12.0707083,5.11441667 12.9904167,3.21045417 13.2649167,2.63234167 C13.702125,1.71157917 14.5898333,1.49000833 15.4086667,1.83982083 C16.2274583,2.18962917 16.5587917,3.1909 16.2150833,3.88874167 C16.0028333,4.31975 15.2819167,5.80183333 14.0524167,8.33495833" id="Path" stroke="#A5B7C0" stroke-linecap="round"></path>
        </g>
    </g>
</svg>