<?xml version="1.0" encoding="UTF-8"?>
<svg width="20px" height="20px" viewBox="0 0 20 20" version="1.1" xmlns="http://www.w3.org/2000/svg" xmlns:xlink="http://www.w3.org/1999/xlink">
    <title>treadmill-one</title>
    <g id="Page-1" stroke="none" stroke-width="1" fill="none" fill-rule="evenodd">
        <g id="treadmill-one">
            <rect id="Rectangle" fill-opacity="0.01" fill="#FFFFFF" fill-rule="nonzero" x="0" y="0" width="20" height="20"></rect>
            <path d="M11.6666667,5.83333333 C12.81725,5.83333333 13.75,4.90058333 13.75,3.75 C13.75,2.59940833 12.81725,1.66666667 11.6666667,1.66666667 C10.5160833,1.66666667 9.58333333,2.59940833 9.58333333,3.75 C9.58333333,4.90058333 10.5160833,5.83333333 11.6666667,5.83333333 Z" id="Path" stroke="#A5B7C0"></path>
            <polyline id="Path" stroke="#A5B7C0" stroke-linecap="round" stroke-linejoin="round" points="3.75 8.75 6.25 6.66666667 9.58333333 7.91666667 8.33333333 10.4166667 11.25 12.9166667 12.0833333 15.8333333"></polyline>
            <polyline id="Path" stroke="#A5B7C0" stroke-linecap="round" stroke-linejoin="round" points="8.33333333 10.4166667 6.25 13.75 2.91666667 13.3333333"></polyline>
            <polyline id="Path" stroke="#A5B7C0" stroke-linecap="round" stroke-linejoin="round" points="1.66666667 18.3333333 15.8333333 18.3333333 17.5 14.5833333"></polyline>
            <polyline id="Path" stroke="#A5B7C0" stroke-linecap="round" stroke-linejoin="round" points="9.58333333 7.91666667 12.9166667 10 15.4166667 9.16666667"></polyline>
        </g>
    </g>
</svg>