<?xml version="1.0" encoding="UTF-8"?>
<svg width="20px" height="20px" viewBox="0 0 20 20" version="1.1" xmlns="http://www.w3.org/2000/svg" xmlns:xlink="http://www.w3.org/1999/xlink">
    <title>tree</title>
    <g id="Page-1" stroke="none" stroke-width="1" fill="none" fill-rule="evenodd">
        <g id="tree">
            <rect id="Rectangle" fill-opacity="0.01" fill="#FFFFFF" fill-rule="nonzero" x="0" y="0" width="20" height="20"></rect>
            <path d="M5.43533333,5.83333333 C5.645875,3.49729167 7.60916667,1.66666667 10,1.66666667 C12.3908333,1.66666667 14.354125,3.49729167 14.5646667,5.83333333 L14.5833333,5.83333333 C16.6544167,5.83333333 18.3333333,7.51225 18.3333333,9.58333333 C18.3333333,11.6544167 16.6544167,13.3333333 14.5833333,13.3333333 L5.41666667,13.3333333 C3.3456,13.3333333 1.66666667,11.6544167 1.66666667,9.58333333 C1.66666667,7.51225 3.3456,5.83333333 5.41666667,5.83333333 L5.43533333,5.83333333 Z" id="Path" stroke="#A5B7C0" stroke-linecap="round" stroke-linejoin="round"></path>
            <line x1="10" y1="11.6666667" x2="12.0833333" y2="9.58333333" id="Path" stroke="#A5B7C0" stroke-linecap="round" stroke-linejoin="round"></line>
            <line x1="10" y1="10.4166667" x2="7.5" y2="7.91666667" id="Path" stroke="#A5B7C0" stroke-linecap="round" stroke-linejoin="round"></line>
            <line x1="10" y1="18.3333333" x2="10" y2="7.5" id="Path" stroke="#A5B7C0" stroke-linecap="round" stroke-linejoin="round"></line>
        </g>
    </g>
</svg>