<?xml version="1.0" encoding="UTF-8"?>
<svg width="20px" height="20px" viewBox="0 0 20 20" version="1.1" xmlns="http://www.w3.org/2000/svg" xmlns:xlink="http://www.w3.org/1999/xlink">
    <title>triangle-ruler</title>
    <g id="Page-1" stroke="none" stroke-width="1" fill="none" fill-rule="evenodd">
        <g id="triangle-ruler">
            <rect id="Rectangle" fill-opacity="0.01" fill="#FFFFFF" fill-rule="nonzero" x="0" y="0" width="20" height="20"></rect>
            <polygon id="Path" stroke="#A5B7C0" stroke-linecap="round" stroke-linejoin="round" points="18.3333333 18.3333333 1.66666667 1.66666667 1.66666667 18.3333333"></polygon>
            <polygon id="Path" points="5.41666667 14.5833333 10.4166667 14.5833333 5.41666667 9.58333333"></polygon>
            <polygon id="Path" points="5.41666667 14.5833333 10.4166667 14.5833333 5.41666667 9.58333333"></polygon>
            <polygon id="Path" points="5.41666667 14.5833333 10.4166667 14.5833333 5.41666667 9.58333333"></polygon>
            <polygon id="Path" points="5.41666667 14.5833333 10.4166667 14.5833333 5.41666667 9.58333333"></polygon>
            <polygon id="Path" stroke="#A5B7C0" stroke-linecap="round" stroke-linejoin="round" points="5.41666667 14.5833333 10.4166667 14.5833333 5.41666667 9.58333333"></polygon>
            <polygon id="Path" stroke="#A5B7C0" stroke-linecap="round" stroke-linejoin="round" points="5.41666667 14.5833333 10.4166667 14.5833333 5.41666667 9.58333333"></polygon>
            <polygon id="Path" stroke="#A5B7C0" stroke-linecap="round" stroke-linejoin="round" points="5.41666667 14.5833333 10.4166667 14.5833333 5.41666667 9.58333333"></polygon>
            <polygon id="Path" stroke="#A5B7C0" stroke-linecap="round" stroke-linejoin="round" points="5.41666667 14.5833333 10.4166667 14.5833333 5.41666667 9.58333333"></polygon>
            <line x1="12.5" y1="18.3333333" x2="12.5" y2="17.0833333" id="Path" stroke="#A5B7C0" stroke-linecap="round" stroke-linejoin="round"></line>
            <line x1="10" y1="18.3333333" x2="10" y2="17.0833333" id="Path" stroke="#A5B7C0" stroke-linecap="round" stroke-linejoin="round"></line>
            <line x1="7.5" y1="18.3333333" x2="7.5" y2="17.0833333" id="Path" stroke="#A5B7C0" stroke-linecap="round" stroke-linejoin="round"></line>
            <line x1="5" y1="18.3333333" x2="5" y2="17.0833333" id="Path" stroke="#A5B7C0" stroke-linecap="round" stroke-linejoin="round"></line>
            <line x1="1.66666667" y1="15" x2="2.91666667" y2="15" id="Path" stroke="#A5B7C0" stroke-linecap="round" stroke-linejoin="round"></line>
            <line x1="1.66666667" y1="12.5" x2="2.91666667" y2="12.5" id="Path" stroke="#A5B7C0" stroke-linecap="round" stroke-linejoin="round"></line>
            <line x1="1.66666667" y1="10" x2="2.91666667" y2="10" id="Path" stroke="#A5B7C0" stroke-linecap="round" stroke-linejoin="round"></line>
            <line x1="1.66666667" y1="7.5" x2="2.91666667" y2="7.5" id="Path" stroke="#A5B7C0" stroke-linecap="round" stroke-linejoin="round"></line>
        </g>
    </g>
</svg>