<?xml version="1.0" encoding="UTF-8"?>
<svg width="20px" height="20px" viewBox="0 0 20 20" version="1.1" xmlns="http://www.w3.org/2000/svg" xmlns:xlink="http://www.w3.org/1999/xlink">
    <title>trumpet</title>
    <g id="Page-1" stroke="none" stroke-width="1" fill="none" fill-rule="evenodd">
        <g id="trumpet">
            <g id="Group-9" transform="translate(2.500000, 2.500000)" stroke="#A5B7C0" stroke-width="0.833333333">
                <path d="M10.8333333,9.16666667 L13.3333333,9.16666667 L13.3333333,13.75 C13.3333333,14.440375 12.7737083,15 12.0833333,15 C11.3929583,15 10.8333333,14.440375 10.8333333,13.75 L10.8333333,9.16666667 Z" id="Path"></path>
                <path d="M9.58333333,2.5 L13.75,2.5 C14.440375,2.5 15,3.059625 15,3.75 L15,7.91666667 C15,8.60704167 14.440375,9.16666667 13.75,9.16666667 L9.16666667,9.16666667" id="Path" stroke-linecap="round"></path>
                <path d="M3.33333333,3.33333333 L2.5,3.33333333 C1.1192875,3.33333333 0,4.452625 0,5.83333333 C0,7.21404167 1.1192875,8.33333333 2.5,8.33333333 L3.33333333,8.33333333" id="Path" stroke-linejoin="round"></path>
                <path d="M3.416,11.25 C3.37033333,11.25 3.33333333,11.213 3.33333333,11.1673333 L3.33333333,0.0826833333 C3.33333333,0.0370208333 3.37033333,0 3.416,0 L4.79166667,0 C7.89825,0 10.4166667,2.51841667 10.4166667,5.625 C10.4166667,8.73158333 7.89825,11.25 4.79166667,11.25 L3.416,11.25 Z" id="Path"></path>
            </g>
            <rect id="Rectangle" fill-opacity="0.01" fill="#FFFFFF" fill-rule="nonzero" x="0" y="0" width="20" height="20"></rect>
        </g>
    </g>
</svg>