<?xml version="1.0" encoding="UTF-8"?>
<svg width="20px" height="20px" viewBox="0 0 20 20" version="1.1" xmlns="http://www.w3.org/2000/svg" xmlns:xlink="http://www.w3.org/1999/xlink">
    <title>twitter</title>
    <g id="Page-1" stroke="none" stroke-width="1" fill="none" fill-rule="evenodd">
        <g id="twitter">
            <rect id="Rectangle" fill-opacity="0.01" fill="#FFFFFF" fill-rule="nonzero" x="0" y="0" width="20" height="20"></rect>
            <path d="M2.08333333,14.9009167 C2.887025,15.34525 8.70475,18.698875 12.841625,16.1141667 C16.9784583,13.5294583 16.75025,9.076375 16.75025,7.03583333 C17.125,6.25075 17.9166667,5.851625 17.9166667,3.72658333 C17.1390417,4.44491667 16.366125,4.68933333 15.5979167,4.45983333 C14.8452917,3.31232083 13.8097917,2.80477917 12.4914167,2.937225 C10.513875,3.13589167 9.790375,5.07604167 10.0032917,7.586125 C6.954125,9.12808333 4.563125,6.46833333 3.33090833,4.45983333 C2.91919583,6.041625 2.52220833,7.94066667 3.33090833,10.0414583 C3.87004167,11.4419583 5.16604167,12.626 7.21891667,13.5935833 C5.13845833,14.7211667 3.42659167,15.1569167 2.08333333,14.9009167 Z" id="Path" stroke="#A5B7C0" stroke-linejoin="round"></path>
        </g>
    </g>
</svg>