<?xml version="1.0" encoding="UTF-8"?>
<svg width="20px" height="20px" viewBox="0 0 20 20" version="1.1" xmlns="http://www.w3.org/2000/svg" xmlns:xlink="http://www.w3.org/1999/xlink">
    <title>two-fingers</title>
    <g id="Page-1" stroke="none" stroke-width="1" fill="none" fill-rule="evenodd">
        <g id="two-fingers">
            <rect id="Rectangle" fill-opacity="0.01" fill="#FFFFFF" fill-rule="nonzero" x="0" y="0" width="20" height="20"></rect>
            <path d="M5.23575,11.3260833 C4.52304167,11.8143333 4.16666667,12.6223333 4.16666667,13.750125 C4.16666667,15.4418333 6.23970833,18.3334583 8.10908333,18.3334583 C9.97845833,18.3334583 11.0625833,18.3334583 12.8922917,18.3334583 C14.722,18.3334583 15.8333333,16.7290417 15.8333333,15.4418333 C15.8333333,13.6292083 15.8333333,11.8165417 15.8333333,10.0039167 C15.8333333,9.31358333 15.2737083,8.75391667 14.5833333,8.75391667 L14.5795417,8.75391667 C13.8912917,8.75391667 13.3333333,9.311875 13.3333333,10.000125" id="Path" stroke="#A5B7C0" stroke-linecap="round"></path>
            <path d="M5.8255,12.268875 L5.8255,4.58583333 C5.8255,3.8960375 6.38470833,3.33685 7.0745,3.33685 C7.075625,3.33685 7.07679167,3.33685 7.07795833,3.33685 C7.77020833,3.33877083 8.330375,3.90049583 8.330375,4.59275 L8.330375,10.2467083" id="Path" stroke="#A5B7C0" stroke-linecap="round"></path>
            <path d="M8.330375,10.0035417 L8.330375,2.923175 C8.330375,2.22925833 8.89291667,1.666725 9.58683333,1.666725 C10.28075,1.666725 10.8432917,2.22925833 10.8432917,2.923175 L10.8432917,10.0035417" id="Path" stroke="#A5B7C0" stroke-linecap="round" stroke-linejoin="round"></path>
            <path d="M10.8333333,9.881625 L10.8333333,8.7515 C10.8333333,8.061125 11.3929583,7.5015 12.0833333,7.5015 C12.7737083,7.5015 13.3333333,8.061125 13.3333333,8.7515 L13.3333333,10.0015" id="Path" stroke="#A5B7C0" stroke-linecap="round" stroke-linejoin="round"></path>
        </g>
    </g>
</svg>