<?xml version="1.0" encoding="UTF-8"?>
<svg width="20px" height="20px" viewBox="0 0 20 20" version="1.1" xmlns="http://www.w3.org/2000/svg" xmlns:xlink="http://www.w3.org/1999/xlink">
    <title>umbrella</title>
    <g id="Page-1" stroke="none" stroke-width="1" fill="none" fill-rule="evenodd">
        <g id="umbrella">
            <rect id="Rectangle" fill-opacity="0.01" fill="#FFFFFF" x="0" y="0" width="20" height="20"></rect>
            <g id="Group" transform="translate(1.666667, 1.250000)" stroke="#A5B7C0" stroke-linejoin="round">
                <path d="M5.30303029,10 C6.31313133,8.989899 7.32323233,8.4848485 8.33333333,8.4848485 C9.34343433,8.4848485 10.3535353,8.989899 11.3636364,10 C12.5420875,8.989899 13.4259259,8.4848485 14.0151515,8.4848485 C14.6043771,8.4848485 15.4882155,8.989899 16.6666667,10 C16.6666667,5.39762708 12.9357062,1.66666667 8.33333333,1.66666667 C3.73096042,1.66666667 0,5.39762708 0,10 C1.17845118,8.989899 2.06228956,8.4848485 2.65151515,8.4848485 C3.24074074,8.4848485 4.12457912,8.989899 5.30303029,10 Z" id="Path"></path>
                <path d="M8.33333333,8.75 L8.33333333,14.8140112 C8.33333333,16.069909 9.36910217,17.0880154 10.625,17.0880154 C11.8808978,17.0880154 12.9166667,16.069909 12.9166667,14.8140112" id="Path" stroke-linecap="round"></path>
                <line x1="8.33333333" y1="0" x2="8.33333333" y2="1.66666667" id="Path" stroke-linecap="round"></line>
            </g>
        </g>
    </g>
</svg>