<?xml version="1.0" encoding="UTF-8"?>
<svg width="20px" height="20px" viewBox="0 0 20 20" version="1.1" xmlns="http://www.w3.org/2000/svg" xmlns:xlink="http://www.w3.org/1999/xlink">
    <title>upside-down-face</title>
    <g id="Page-1" stroke="none" stroke-width="1" fill="none" fill-rule="evenodd">
        <g id="upside-down-face">
            <rect id="Rectangle" fill-opacity="0.01" fill="#FFFFFF" fill-rule="nonzero" transform="translate(10.000000, 10.000000) rotate(-180.000000) translate(-10.000000, -10.000000) " x="1.48029737e-15" y="-1.48029737e-15" width="20" height="20"></rect>
            <path d="M10,1.66666667 C5.397625,1.66666667 1.66666667,5.397625 1.66666667,10 C1.66666667,14.602375 5.397625,18.3333333 10,18.3333333 C14.602375,18.3333333 18.3333333,14.602375 18.3333333,10 C18.3333333,5.397625 14.602375,1.66666667 10,1.66666667 Z" id="Path" stroke="#A5B7C0" stroke-linejoin="round"></path>
            <line x1="7.08333333" y1="12.5" x2="7.08333333" y2="12.0833333" id="Path" stroke="#A5B7C0" stroke-linecap="round" stroke-linejoin="round"></line>
            <line x1="12.9166667" y1="12.5" x2="12.9166667" y2="12.0833333" id="Path" stroke="#A5B7C0" stroke-linecap="round" stroke-linejoin="round"></line>
            <path d="M7.08333333,7.08333333 C7.08333333,7.08333333 7.91666667,5.41666667 10,5.41666667 C12.0833333,5.41666667 12.9166667,7.08333333 12.9166667,7.08333333" id="Path" stroke="#A5B7C0" stroke-linecap="round" stroke-linejoin="round"></path>
        </g>
    </g>
</svg>