<?xml version="1.0" encoding="UTF-8"?>
<svg width="20px" height="20px" viewBox="0 0 20 20" version="1.1" xmlns="http://www.w3.org/2000/svg" xmlns:xlink="http://www.w3.org/1999/xlink">
    <title>uterus</title>
    <g id="Page-1" stroke="none" stroke-width="1" fill="none" fill-rule="evenodd">
        <g id="uterus">
            <rect id="Rectangle" fill-opacity="0.01" fill="#FFFFFF" fill-rule="nonzero" x="0" y="0" width="20" height="20"></rect>
            <path d="M13.3334167,7.5 C12.9488333,10 12.0834167,12.2916667 10.2084167,12.2916667 C8.33341667,12.2916667 7.70841667,10.2083333 7.08341667,7.5 C6.45841667,4.79166667 7.08341667,2.5 10.2084167,2.5 C13.3334167,2.5 13.7180417,5 13.3334167,7.5 Z" id="Path" stroke="#A5B7C0"></path>
            <path d="M13.5416667,5.20833333 C14.2708333,4.52841667 15.0136667,4.304 16.1835417,4.37679167 C17.9383333,4.486 18.3333333,5.68666667 18.3333333,7.48183333 M18.3333333,7.48183333 C18.3333333,9.277 17.6452083,10.909375 16.2745417,10.5400417 C14.9038333,10.1707083 15.0955,8.71233333 15.7365833,8.02858333 C16.3776667,7.34483333 17.498875,7.06620833 18.3333333,7.48183333 Z" id="Shape" stroke="#A5B7C0" stroke-linecap="round"></path>
            <path d="M6.875,5 C6.137875,4.35666667 5.26679167,4.30420833 4.202875,4.377 C2.60697917,4.48616667 1.6666625,5.70516667 1.6666625,7.50033333 M1.6666625,7.50033333 C1.6666625,9.2955 2.87355,10.9095417 4.12012083,10.5402083 C5.36670833,10.170875 5.19241667,8.71254167 4.609375,8.02879167 C4.0263375,7.34504167 2.42554583,7.08470833 1.6666625,7.50033333 Z" id="Shape" stroke="#A5B7C0" stroke-linecap="round"></path>
            <line x1="8.33333333" y1="11.25" x2="8.33333333" y2="17.9166667" id="Path" stroke="#A5B7C0" stroke-linecap="round" stroke-linejoin="round"></line>
            <line x1="12.0833333" y1="11.25" x2="12.0833333" y2="17.9166667" id="Path" stroke="#A5B7C0" stroke-linecap="round" stroke-linejoin="round"></line>
        </g>
    </g>
</svg>