<?xml version="1.0" encoding="UTF-8"?>
<svg width="20px" height="20px" viewBox="0 0 20 20" version="1.1" xmlns="http://www.w3.org/2000/svg" xmlns:xlink="http://www.w3.org/1999/xlink">
    <title>vacuum-cleaner</title>
    <g id="Page-1" stroke="none" stroke-width="1" fill="none" fill-rule="evenodd">
        <g id="vacuum-cleaner">
            <rect id="Rectangle" fill-opacity="0.01" fill="#FFFFFF" fill-rule="nonzero" x="0" y="0" width="20" height="20"></rect>
            <path d="M16.6666667,14.1666667 C16.6666667,14.6269167 16.2935833,15 15.8333333,15 C15.3730833,15 15,14.6269167 15,14.1666667 L16.6666667,14.1666667 Z M11.6666667,9.28570833 C11.6666667,9.74595833 11.2935833,10.1190417 10.8333333,10.1190417 C10.3730833,10.1190417 10,9.74595833 10,9.28570833 L11.6666667,9.28570833 Z M15,14.1666667 L15,4.16666667 L16.6666667,4.16666667 L16.6666667,14.1666667 L15,14.1666667 Z M11.6666667,4.16666667 L11.6666667,9.28570833 L10,9.28570833 L10,4.16666667 L11.6666667,4.16666667 Z M13.3333333,2.5 C12.412875,2.5 11.6666667,3.24619167 11.6666667,4.16666667 L10,4.16666667 C10,2.32571667 11.492375,0.833333333 13.3333333,0.833333333 L13.3333333,2.5 Z M15,4.16666667 C15,3.24619167 14.2537917,2.5 13.3333333,2.5 L13.3333333,0.833333333 C15.1742917,0.833333333 16.6666667,2.32571667 16.6666667,4.16666667 L15,4.16666667 Z" id="Shape" fill="#A5B7C0" fill-rule="nonzero"></path>
            <polygon id="Path" stroke="#A5B7C0" stroke-linecap="round" stroke-linejoin="round" points="13.6458333 14.1666667 18.0208333 14.1666667 18.3333333 16.6666667 13.3333333 16.6666667"></polygon>
            <path d="M4.16666667,16.6666667 L10.786,16.6666667 C10.812125,16.6666667 10.8333333,16.6454583 10.8333333,16.6193333 L10.8333333,9.68941667 C10.8333333,6.63929167 8.36070833,4.16666667 5.31058333,4.16666667 L5.31058333,4.16666667 C3.98845,4.16666667 2.91666667,5.23845833 2.91666667,6.56058333 L2.91666667,12.0833333" id="Path" stroke="#A5B7C0" stroke-linecap="round" stroke-linejoin="round"></path>
            <circle id="Oval" stroke="#A5B7C0" cx="4.16666667" cy="14.1666667" r="2.5"></circle>
            <line x1="5.83333333" y1="4.16666667" x2="5.83333333" y2="12.0833333" id="Path" stroke="#A5B7C0" stroke-linecap="round" stroke-linejoin="round"></line>
        </g>
    </g>
</svg>