<?xml version="1.0" encoding="UTF-8"?>
<svg width="20px" height="20px" viewBox="0 0 20 20" version="1.1" xmlns="http://www.w3.org/2000/svg" xmlns:xlink="http://www.w3.org/1999/xlink">
    <title>vertical-timeline</title>
    <g id="Page-1" stroke="none" stroke-width="1" fill="none" fill-rule="evenodd">
        <g id="vertical-timeline">
            <rect id="Rectangle" fill-opacity="0.01" fill="#FFFFFF" fill-rule="nonzero" x="0" y="0" width="20" height="20"></rect>
            <line x1="1.66666667" y1="2.08333333" x2="18.3333333" y2="2.08333333" id="Path" stroke="#A5B7C0" stroke-linecap="round"></line>
            <line x1="1.66666667" y1="17.9166667" x2="18.3333333" y2="17.9166667" id="Path" stroke="#A5B7C0" stroke-linecap="round"></line>
            <line x1="3.33333333" y1="15" x2="3.33333333" y2="17.9166667" id="Path" stroke="#A5B7C0" stroke-linecap="round"></line>
            <polygon id="Path" stroke="#A5B7C0" stroke-linejoin="round" points="5 11.6666667 1.66666667 11.6666667 1.66666667 15 5 15"></polygon>
            <polygon id="Path" stroke="#A5B7C0" stroke-linejoin="round" points="11.6666667 8.33333333 8.33333333 8.33333333 8.33333333 11.6666667 11.6666667 11.6666667"></polygon>
            <polygon id="Path" stroke="#A5B7C0" stroke-linejoin="round" points="18.3333333 5 15 5 15 8.33333333 18.3333333 8.33333333"></polygon>
            <line x1="16.6666667" y1="8.33333333" x2="16.6666667" y2="17.9166667" id="Path" stroke="#A5B7C0" stroke-linecap="round"></line>
            <line x1="3.33333333" y1="5" x2="3.33333333" y2="5.41666667" id="Path" stroke="#A5B7C0" stroke-linecap="round"></line>
            <line x1="3.33333333" y1="8.33333333" x2="3.33333333" y2="8.75" id="Path" stroke="#A5B7C0" stroke-linecap="round"></line>
            <line x1="9.58333333" y1="5" x2="9.58333333" y2="5.41666667" id="Path" stroke="#A5B7C0" stroke-linecap="round"></line>
            <line x1="10" y1="11.6666667" x2="10" y2="17.9166667" id="Path" stroke="#A5B7C0" stroke-linecap="round"></line>
        </g>
    </g>
</svg>