<?xml version="1.0" encoding="UTF-8"?>
<svg width="20px" height="20px" viewBox="0 0 20 20" version="1.1" xmlns="http://www.w3.org/2000/svg" xmlns:xlink="http://www.w3.org/1999/xlink">
    <title>video</title>
    <g id="Page-1" stroke="none" stroke-width="1" fill="none" fill-rule="evenodd">
        <g id="video">
            <rect id="Rectangle" fill-opacity="0.01" fill="#FFFFFF" fill-rule="nonzero" x="0" y="0" width="20" height="20"></rect>
            <rect id="Rectangle" fill-opacity="0.01" fill="#FFFFFF" fill-rule="nonzero" x="0" y="0" width="20" height="20"></rect>
            <path d="M1.66666667,4.16666667 C1.66666667,3.70642917 2.0397625,3.33333333 2.5,3.33333333 L17.5,3.33333333 C17.96025,3.33333333 18.3333333,3.70642917 18.3333333,4.16666667 L18.3333333,15.8333333 C18.3333333,16.2935833 17.96025,16.6666667 17.5,16.6666667 L2.5,16.6666667 C2.0397625,16.6666667 1.66666667,16.2935833 1.66666667,15.8333333 L1.66666667,4.16666667 Z" id="Path" stroke="#A5B7C0" stroke-linejoin="round"></path>
            <line x1="15" y1="3.33333333" x2="15" y2="16.6666667" id="Path" stroke="#A5B7C0" stroke-linecap="round" stroke-linejoin="round"></line>
            <line x1="5" y1="3.33333333" x2="5" y2="16.6666667" id="Path" stroke="#A5B7C0" stroke-linecap="round" stroke-linejoin="round"></line>
            <line x1="15.8333333" y1="7.5" x2="18.3333333" y2="7.5" id="Path" stroke="#A5B7C0" stroke-linecap="round" stroke-linejoin="round"></line>
            <line x1="15.8333333" y1="12.5" x2="18.3333333" y2="12.5" id="Path" stroke="#A5B7C0" stroke-linecap="round" stroke-linejoin="round"></line>
            <line x1="1.66666667" y1="7.5" x2="4.16666667" y2="7.5" id="Path" stroke="#A5B7C0" stroke-linecap="round" stroke-linejoin="round"></line>
            <line x1="1.66666667" y1="6.66666667" x2="1.66666667" y2="8.33333333" id="Path" stroke="#A5B7C0" stroke-linecap="round" stroke-linejoin="round"></line>
            <line x1="3.75" y1="3.33333333" x2="6.25" y2="3.33333333" id="Path" stroke="#A5B7C0" stroke-linecap="round" stroke-linejoin="round"></line>
            <line x1="3.75" y1="16.6666667" x2="6.25" y2="16.6666667" id="Path" stroke="#A5B7C0" stroke-linecap="round" stroke-linejoin="round"></line>
            <line x1="13.75" y1="3.33333333" x2="16.25" y2="3.33333333" id="Path" stroke="#A5B7C0" stroke-linecap="round" stroke-linejoin="round"></line>
            <line x1="13.75" y1="16.6666667" x2="16.25" y2="16.6666667" id="Path" stroke="#A5B7C0" stroke-linecap="round" stroke-linejoin="round"></line>
            <line x1="1.66666667" y1="12.5" x2="4.16666667" y2="12.5" id="Path" stroke="#A5B7C0" stroke-linecap="round" stroke-linejoin="round"></line>
            <line x1="1.66666667" y1="11.6666667" x2="1.66666667" y2="13.3333333" id="Path" stroke="#A5B7C0" stroke-linecap="round" stroke-linejoin="round"></line>
            <line x1="18.3333333" y1="11.6666667" x2="18.3333333" y2="13.3333333" id="Path" stroke="#A5B7C0" stroke-linecap="round" stroke-linejoin="round"></line>
            <line x1="18.3333333" y1="6.66666667" x2="18.3333333" y2="8.33333333" id="Path" stroke="#A5B7C0" stroke-linecap="round" stroke-linejoin="round"></line>
            <polygon id="Path" stroke="#A5B7C0" stroke-linejoin="round" points="8.75 7.91666667 12.0833333 10 8.75 12.0833333"></polygon>
        </g>
    </g>
</svg>