<?xml version="1.0" encoding="UTF-8"?>
<svg width="20px" height="20px" viewBox="0 0 20 20" version="1.1" xmlns="http://www.w3.org/2000/svg" xmlns:xlink="http://www.w3.org/1999/xlink">
    <title>vigo</title>
    <g id="Page-1" stroke="none" stroke-width="1" fill="none" fill-rule="evenodd">
        <g id="vigo">
            <rect id="Rectangle" fill-opacity="0.01" fill="#FFFFFF" fill-rule="nonzero" x="0" y="0" width="20" height="20"></rect>
            <path d="M10,18.3854167 C13.9695417,18.3854167 17.1875,15.21225 17.1875,11.298 C17.1875,10.3370417 17.0561667,9.42254167 16.775125,8.55154167 C16.612875,8.04870833 16.4815833,7.80858333 16.28875,7.34570833 C16.0959167,6.88283333 15.839375,6.492 15.54725,6.098875 C15.255125,5.70579167 14.686,4.932875 14.292,4.77766667 C14.292,5.386875 13.0952083,7.51445833 12.63575,7.621375 C12.1762917,7.72829167 12.9752917,5.38433333 11.9574583,3.781025 C10.9395833,2.17769583 9.293875,1.12520417 9.293875,1.84567083 C9.293875,2.5661375 8.83845833,3.775875 8.37970833,4.375625 C7.921,4.97533333 7.177125,5.49058333 6.65904167,5.73258333 C6.14095833,5.97458333 6.32854167,4.52095833 5.939625,4.77766667 C5.54766667,5.03641667 4.99054167,5.75720833 4.69758333,6.20958333 C3.67200417,7.793375 2.8125,9.34083333 2.8125,11.298 C2.8125,15.21225 6.03045833,18.3854167 10,18.3854167 Z" id="Path" stroke="#A5B7C0" stroke-linejoin="round"></path>
            <path d="M8.03975,9.88854167 L8.03975,13.5290833 C8.03975,13.9611667 8.39004167,14.3115 8.82216667,14.3115 C8.96716667,14.3115 9.10929167,14.2712083 9.23270833,14.1951667 L12.726625,12.0418333 C12.9105833,11.9285 12.9677917,11.6875 12.8544167,11.5035417 C12.822375,11.4515417 12.778625,11.4077917 12.726625,11.37575 L9.23270833,9.22245833 C8.86483333,8.99575 8.38279167,9.11016667 8.15608333,9.47804167 C8.08004167,9.60145833 8.03975,9.74358333 8.03975,9.88854167 Z" id="Path" stroke="#A5B7C0" stroke-linejoin="round"></path>
        </g>
    </g>
</svg>