<?xml version="1.0" encoding="UTF-8"?>
<svg width="20px" height="20px" viewBox="0 0 20 20" version="1.1" xmlns="http://www.w3.org/2000/svg" xmlns:xlink="http://www.w3.org/1999/xlink">
    <title>volleyball</title>
    <g id="Page-1" stroke="none" stroke-width="1" fill="none" fill-rule="evenodd">
        <g id="volleyball">
            <rect id="Rectangle" fill-opacity="0.01" fill="#FFFFFF" x="0" y="0" width="20" height="20"></rect>
            <g id="Group-15" transform="translate(1.000000, 1.000000)" stroke="#A5B7C0" stroke-linejoin="round">
                <path d="M12.5807149,17.3738713 C17.1806149,15.4200832 19.3244935,10.1104428 17.3750935,5.51542849 C15.4256935,0.920368962 10.1111673,-1.23242604 5.5157911,0.721371105 C0.920433005,2.67516825 -1.23251128,7.98479515 0.721421576,12.5798094 C2.67535443,17.174869 7.98533872,19.3276594 12.5807149,17.3738713 Z" id="Path"></path>
                <path d="M5.42857205,0.904761819 C4.75280539,4.07608801 6.3048792,7.32703325 9.04761967,9.04761896" id="Path" stroke-linecap="round"></path>
                <path d="M3.61904824,16.2857142 C6.77214348,15.2633332 8.93000062,12.3590475 9.04761967,9.04761896" id="Path" stroke-linecap="round"></path>
                <path d="M18.0952387,9.49999991 C15.6297625,7.38624991 11.5357149,7.42054039 9.04761967,9.04761896" id="Path" stroke-linecap="round"></path>
                <path d="M5.880953,5.42857134 C5.880953,5.42857134 11.1104768,1.58785706 16.7380959,4.52380944" id="Path"></path>
                <path d="M7.23809586,13.1190475 C7.23809586,13.1190475 1.62404824,10.8661904 1.35714348,4.52380944" id="Path"></path>
                <path d="M13.5714292,8.14285706 C13.5714292,8.14285706 14.2771435,14.7023809 8.920953,18.1088094" id="Path"></path>
            </g>
        </g>
    </g>
</svg>