<?xml version="1.0" encoding="UTF-8"?>
<svg width="20px" height="20px" viewBox="0 0 20 20" version="1.1" xmlns="http://www.w3.org/2000/svg" xmlns:xlink="http://www.w3.org/1999/xlink">
    <title>volume-small</title>
    <g id="Page-1" stroke="none" stroke-width="1" fill="none" fill-rule="evenodd">
        <g id="volume-small">
            <rect id="Rectangle" fill-opacity="0.01" fill="#FFFFFF" fill-rule="nonzero" x="0" y="0" width="20" height="20"></rect>
            <path d="M10,2.5 L10,17.5 C7.08333333,17.5 4.91604167,13.6829583 4.91604167,13.6829583 L2.5,13.6829583 C2.0397625,13.6829583 1.66666667,13.309875 1.66666667,12.849625 L1.66666667,7.08783333 C1.66666667,6.62758333 2.0397625,6.2545 2.5,6.2545 L4.91604167,6.2545 C4.91604167,6.2545 7.08333333,2.5 10,2.5 Z" id="Path" stroke="#A5B7C0" stroke-linejoin="round"></path>
            <path d="M13.3333333,6.25 L13.3333333,6.25 C13.593,6.481875 13.828375,6.74154167 14.0350417,7.0245 C14.641125,7.85433333 15,8.88429167 15,10 C15,11.1060417 14.6472917,12.1277917 14.05075,12.953875 C13.8403333,13.2452083 13.599625,13.5122083 13.3333333,13.75" id="Path" stroke="#A5B7C0" stroke-linecap="round" stroke-linejoin="round"></path>
        </g>
    </g>
</svg>