<?xml version="1.0" encoding="UTF-8"?>
<svg width="20px" height="20px" viewBox="0 0 20 20" version="1.1" xmlns="http://www.w3.org/2000/svg" xmlns:xlink="http://www.w3.org/1999/xlink">
    <title>vr-glasses</title>
    <g id="Page-1" stroke="none" stroke-width="1" fill="none" fill-rule="evenodd">
        <g id="vr-glasses">
            <rect id="Rectangle" fill-opacity="0.01" fill="#FFFFFF" fill-rule="nonzero" x="0" y="0" width="20" height="20"></rect>
            <polygon id="Path" stroke="#A5B7C0" stroke-linecap="round" stroke-linejoin="round" points="0.833333333 5 19.1666667 5 19.1666667 15 12.5 15 10 12.5 7.5 15 0.833333333 15"></polygon>
            <path d="M5.41666667,11.6666667 C6.337125,11.6666667 7.08333333,10.9204583 7.08333333,10 C7.08333333,9.07954167 6.337125,8.33333333 5.41666667,8.33333333 C4.49620833,8.33333333 3.75,9.07954167 3.75,10 C3.75,10.9204583 4.49620833,11.6666667 5.41666667,11.6666667 Z" id="Path" stroke="#A5B7C0" stroke-linecap="round" stroke-linejoin="round"></path>
            <path d="M14.5833333,11.6666667 C15.5037917,11.6666667 16.25,10.9204583 16.25,10 C16.25,9.07954167 15.5037917,8.33333333 14.5833333,8.33333333 C13.662875,8.33333333 12.9166667,9.07954167 12.9166667,10 C12.9166667,10.9204583 13.662875,11.6666667 14.5833333,11.6666667 Z" id="Path" stroke="#A5B7C0" stroke-linecap="round" stroke-linejoin="round"></path>
        </g>
    </g>
</svg>