<?xml version="1.0" encoding="UTF-8"?>
<svg width="20px" height="20px" viewBox="0 0 20 20" version="1.1" xmlns="http://www.w3.org/2000/svg" xmlns:xlink="http://www.w3.org/1999/xlink">
    <title>water</title>
    <g id="Page-1" stroke="none" stroke-width="1" fill="none" fill-rule="evenodd">
        <g id="water">
            <rect id="Rectangle" fill-opacity="0.01" fill="#FFFFFF" fill-rule="nonzero" x="0" y="0" width="20" height="20"></rect>
            <path d="M3.75,12.0833333 C4.90058333,12.0833333 5.83333333,11.1505833 5.83333333,10 C5.83333333,11.1505833 6.76608333,12.0833333 7.91666667,12.0833333 C9.06725,12.0833333 10,11.1505833 10,10 C10,11.1505833 10.93275,12.0833333 12.0833333,12.0833333 C13.2339167,12.0833333 14.1666667,11.1505833 14.1666667,10 C14.1666667,11.1505833 15.0994167,12.0833333 16.25,12.0833333 C17.4005833,12.0833333 18.3333333,11.1505833 18.3333333,10 C18.3333333,14.602375 14.602375,18.3333333 10,18.3333333 C5.397625,18.3333333 1.66666667,14.602375 1.66666667,10 C1.66666667,11.1505833 2.59940833,12.0833333 3.75,12.0833333 Z" id="Path" stroke="#A5B7C0" stroke-linecap="round" stroke-linejoin="round"></path>
            <path d="M11.6666667,5.41666667 C11.6666667,6.337125 10.9204583,7.08333333 10,7.08333333 C9.07954167,7.08333333 8.33333333,6.337125 8.33333333,5.41666667 C8.33333333,4.49620833 10,1.66666667 10,1.66666667 C10,1.66666667 11.6666667,4.49620833 11.6666667,5.41666667 Z" id="Path" stroke="#A5B7C0" stroke-linecap="round" stroke-linejoin="round"></path>
        </g>
    </g>
</svg>