<?xml version="1.0" encoding="UTF-8"?>
<svg width="20px" height="20px" viewBox="0 0 20 20" version="1.1" xmlns="http://www.w3.org/2000/svg" xmlns:xlink="http://www.w3.org/1999/xlink">
    <title>wechat</title>
    <g id="Page-1" stroke="none" stroke-width="1" fill="none" fill-rule="evenodd">
        <g id="wechat">
            <rect id="Rectangle" fill-opacity="0.01" fill="#FFFFFF" fill-rule="nonzero" x="0" y="0" width="20" height="20"></rect>
            <path d="M15.4155833,9.04633333 C15.3514167,5.41995833 12.3917083,2.5 8.75,2.5 C5.06808333,2.5 2.08333333,5.48475 2.08333333,9.16666667 C2.08333333,10.9042083 2.74804583,12.4865 3.83705,13.6730833 L3.33767917,16.677375 L6.30208333,15.404125 C7.60820833,15.8384167 8.84083333,15.947 10,15.7298333" id="Path"></path>
            <path d="M15.4155833,9.04633333 C15.3514167,5.41995833 12.3917083,2.5 8.75,2.5 C5.06808333,2.5 2.08333333,5.48475 2.08333333,9.16666667 C2.08333333,10.9042083 2.74804583,12.4865 3.83705,13.6730833 L3.33767917,16.677375 L6.30208333,15.404125 C7.60820833,15.8384167 8.84083333,15.947 10,15.7298333" id="Path" stroke="#A5B7C0" stroke-linecap="round" stroke-linejoin="round"></path>
            <path d="M6.30208333,8.52779167 C6.81983333,8.52779167 7.23958333,8.10495833 7.23958333,7.58333333 C7.23958333,7.06175 6.81983333,6.638875 6.30208333,6.638875 C5.78433333,6.638875 5.36458333,7.06175 5.36458333,7.58333333 C5.36458333,8.10495833 5.78433333,8.52779167 6.30208333,8.52779167 Z" id="Path" fill="#A5B7C0" fill-rule="nonzero"></path>
            <path d="M10.0520833,8.52779167 C10.5698333,8.52779167 10.9895833,8.10495833 10.9895833,7.58333333 C10.9895833,7.06175 10.5698333,6.638875 10.0520833,6.638875 C9.53433333,6.638875 9.11458333,7.06175 9.11458333,7.58333333 C9.11458333,8.10495833 9.53433333,8.52779167 10.0520833,8.52779167 Z" id="Path" fill="#A5B7C0" fill-rule="nonzero"></path>
            <path d="M16.15075,16.6372083 C15.4222917,17.17925 14.5194583,17.5 13.5416667,17.5 C11.1254167,17.5 9.16666667,15.54125 9.16666667,13.125 C9.16666667,10.70875 11.1254167,8.75 13.5416667,8.75 C15.9579167,8.75 17.9166667,10.70875 17.9166667,13.125 C17.9166667,13.7915417 17.767625,14.4232917 17.501,14.9886667" id="Path"></path>
            <path d="M16.15075,16.6372083 C15.4222917,17.17925 14.5194583,17.5 13.5416667,17.5 C11.1254167,17.5 9.16666667,15.54125 9.16666667,13.125 C9.16666667,10.70875 11.1254167,8.75 13.5416667,8.75 C15.9579167,8.75 17.9166667,10.70875 17.9166667,13.125 C17.9166667,13.7915417 17.767625,14.4232917 17.501,14.9886667" id="Path" stroke="#A5B7C0" stroke-linecap="round" stroke-linejoin="round"></path>
            <polyline id="Path" points="17.501 14.9886667 17.9166667 17.5 16.15075 16.6372083"></polyline>
            <polyline id="Path" stroke="#A5B7C0" stroke-linecap="round" stroke-linejoin="round" points="17.501 14.9886667 17.9166667 17.5 16.15075 16.6372083"></polyline>
            <path d="M14.8697917,12.8332917 C14.4814583,12.8332917 14.1666667,12.5161667 14.1666667,12.1249583 C14.1666667,11.73375 14.4814583,11.416625 14.8697917,11.416625 C15.258125,11.416625 15.5729167,11.73375 15.5729167,12.1249583 C15.5729167,12.5161667 15.258125,12.8332917 14.8697917,12.8332917 Z" id="Path" fill="#A5B7C0" fill-rule="nonzero"></path>
            <path d="M12.0572917,12.8332917 C11.6689583,12.8332917 11.3541667,12.5161667 11.3541667,12.1249583 C11.3541667,11.73375 11.6689583,11.416625 12.0572917,11.416625 C12.445625,11.416625 12.7604167,11.73375 12.7604167,12.1249583 C12.7604167,12.5161667 12.445625,12.8332917 12.0572917,12.8332917 Z" id="Path" fill="#A5B7C0" fill-rule="nonzero"></path>
        </g>
    </g>
</svg>