<?xml version="1.0" encoding="UTF-8"?>
<svg width="20px" height="20px" viewBox="0 0 20 20" version="1.1" xmlns="http://www.w3.org/2000/svg" xmlns:xlink="http://www.w3.org/1999/xlink">
    <title>weibo</title>
    <g id="Page-1" stroke="none" stroke-width="1" fill="none" fill-rule="evenodd">
        <g id="weibo">
            <rect id="Rectangle" fill-opacity="0.01" fill="#FFFFFF" fill-rule="nonzero" x="0" y="0" width="20" height="20"></rect>
            <path d="M5.234,6.83791667 C3.84057917,8.19204167 0.901245833,12.1442083 3.06761667,14.9715833 C5.234,17.7989167 11.3674583,16.7082917 13.8994583,14.7164167 C16.4315,12.7245 16.1815417,11.4937083 15.6325833,10.9514167 C15.0835833,10.4090833 13.481375,10.957125 13.0329167,10.2192083 C12.5844583,9.48129167 13.8314167,7.63795833 12.76875,7.05466667 C11.7060417,6.471375 9.87104167,8.57545833 9.04216667,8.02875 C8.21333333,7.48204167 9.95433333,5.69704167 9.04216667,5.18270833 C8.13004167,4.66833333 6.62741667,5.48379167 5.234,6.83791667 Z" id="Path" stroke="#A5B7C0" stroke-linejoin="round"></path>
            <path d="M18.074375,6.881625 C17.9763333,5.57704167 17.4161667,4.40133333 16.5570417,3.51784583 C15.7185,2.6554875 14.5952083,2.07148333 13.3389167,1.91765" id="Path" stroke="#A5B7C0" stroke-linecap="round"></path>
            <path d="M15.5382917,7.05466667 C15.4844583,6.37145833 15.1769583,5.75575 14.7053333,5.29304167 C14.245,4.84145833 13.6282917,4.53558333 12.938625,4.45504167" id="Path" stroke="#A5B7C0" stroke-linecap="round"></path>
        </g>
    </g>
</svg>