<?xml version="1.0" encoding="UTF-8"?>
<svg width="20px" height="20px" viewBox="0 0 20 20" version="1.1" xmlns="http://www.w3.org/2000/svg" xmlns:xlink="http://www.w3.org/1999/xlink">
    <title>weixin-mini-app</title>
    <g id="Page-1" stroke="none" stroke-width="1" fill="none" fill-rule="evenodd">
        <g id="weixin-mini-app">
            <rect id="Rectangle" fill-opacity="0.01" fill="#FFFFFF" fill-rule="nonzero" x="0" y="0" width="20" height="20"></rect>
            <circle id="Oval" stroke="#A5B7C0" stroke-linecap="round" stroke-linejoin="round" cx="10" cy="10" r="8.33333333"></circle>
            <path d="M12.0833333,10 C12.495375,10 12.8981667,9.87783333 13.2407917,9.64891667 C13.583375,9.41995833 13.8504167,9.09458333 14.0080833,8.71391667 C14.16575,8.33325 14.2070417,7.914375 14.126625,7.51025 C14.04625,7.10608333 13.8478333,6.734875 13.5564583,6.44354167 C13.265125,6.15216667 12.8939167,5.95375 12.4897917,5.873375 C12.085625,5.79295833 11.66675,5.83425 11.2860833,5.99191667 C10.9054167,6.14958333 10.5800417,6.416625 10.351125,6.75925 C10.1221667,7.10183333 10,7.504625 10,7.91666667 L10,12.0833333 C10,12.495375 9.87783333,12.8981667 9.64891667,13.2407917 C9.41995833,13.583375 9.094625,13.8504167 8.71391667,14.0080833 C8.33325,14.16575 7.914375,14.2070417 7.51025,14.126625 C7.10608333,14.04625 6.734875,13.8478333 6.44354167,13.5564583 C6.15216667,13.265125 5.95375,12.8939167 5.873375,12.4897917 C5.79295833,12.085625 5.83425,11.66675 5.99191667,11.2860833 C6.14958333,10.9054167 6.416625,10.5800417 6.75925,10.351125 C7.10183333,10.1221667 7.504625,10 7.91666667,10" id="Path" stroke="#A5B7C0" stroke-linecap="round" stroke-linejoin="round"></path>
        </g>
    </g>
</svg>