<?xml version="1.0" encoding="UTF-8"?>
<svg width="20px" height="20px" viewBox="0 0 20 20" version="1.1" xmlns="http://www.w3.org/2000/svg" xmlns:xlink="http://www.w3.org/1999/xlink">
    <title>whirlwind</title>
    <g id="Page-1" stroke="none" stroke-width="1" fill="none" fill-rule="evenodd">
        <g id="whirlwind">
            <rect id="Rectangle" fill-opacity="0.01" fill="#FFFFFF" fill-rule="nonzero" x="0" y="0" width="20" height="20"></rect>
            <circle id="Oval" stroke="#A5B7C0" stroke-linecap="round" stroke-linejoin="round" cx="10" cy="10" r="2.08333333"></circle>
            <path d="M9.79166667,18.3333333 C6.91516667,18.3333333 4.58333333,16.0015 4.58333333,13.125 C4.58333333,10.2485 6.91516667,7.91666667 9.79166667,7.91666667" id="Path" stroke="#A5B7C0" stroke-linecap="round" stroke-linejoin="round"></path>
            <path d="M18.3333333,9.79166667 C18.3333333,12.6681667 16.0015,15 13.125,15 C10.2485,15 7.91666667,12.6681667 7.91666667,9.79166667" id="Path" stroke="#A5B7C0" stroke-linecap="round" stroke-linejoin="round"></path>
            <path d="M9.79166667,12.0833333 C12.6681667,12.0833333 15,9.7515 15,6.875 C15,3.99851667 12.6681667,1.66666667 9.79166667,1.66666667" id="Path" stroke="#A5B7C0" stroke-linecap="round" stroke-linejoin="round"></path>
            <path d="M12.0833333,9.79166667 C12.0833333,6.91516667 9.7515,4.58333333 6.875,4.58333333 C3.99851667,4.58333333 1.66666667,6.91516667 1.66666667,9.79166667" id="Path" stroke="#A5B7C0" stroke-linecap="round" stroke-linejoin="round"></path>
        </g>
    </g>
</svg>