<?xml version="1.0" encoding="UTF-8"?>
<svg width="20px" height="20px" viewBox="0 0 20 20" version="1.1" xmlns="http://www.w3.org/2000/svg" xmlns:xlink="http://www.w3.org/1999/xlink">
    <title>windmill-two</title>
    <g id="Page-1" stroke="none" stroke-width="1" fill="none" fill-rule="evenodd">
        <g id="windmill-two">
            <rect id="Rectangle" fill-opacity="0.01" fill="#FFFFFF" fill-rule="nonzero" x="0" y="0" width="20" height="20"></rect>
            <path d="M10,10 C12.3011667,10 14.1666667,8.1345 14.1666667,5.83333333 C14.1666667,3.53214583 12.3011667,1.66666667 10,1.66666667 L10,10 Z" id="Path" stroke="#A5B7C0" stroke-linejoin="round"></path>
            <path d="M10,10 C10,12.3011667 11.8655,14.1666667 14.1666667,14.1666667 C16.4678333,14.1666667 18.3333333,12.3011667 18.3333333,10 L10,10 Z" id="Path" stroke="#A5B7C0" stroke-linejoin="round"></path>
            <path d="M10,10 C10,7.69883333 8.1345,5.83333333 5.83333333,5.83333333 C3.53214583,5.83333333 1.66666667,7.69883333 1.66666667,10 L10,10 Z" id="Path" stroke="#A5B7C0" stroke-linejoin="round"></path>
            <path d="M10,10 C7.69883333,10 5.83333333,11.8655 5.83333333,14.1666667 C5.83333333,16.4678333 7.69883333,18.3333333 10,18.3333333 L10,10 Z" id="Path" stroke="#A5B7C0" stroke-linejoin="round"></path>
        </g>
    </g>
</svg>