<?xml version="1.0" encoding="UTF-8"?>
<svg width="20px" height="20px" viewBox="0 0 20 20" version="1.1" xmlns="http://www.w3.org/2000/svg" xmlns:xlink="http://www.w3.org/1999/xlink">
    <title>wingsuit-flying</title>
    <g id="Page-1" stroke="none" stroke-width="1" fill="none" fill-rule="evenodd">
        <g id="wingsuit-flying">
            <rect id="Rectangle" fill-opacity="0.01" fill="#FFFFFF" fill-rule="nonzero" x="0" y="0" width="20" height="20"></rect>
            <path d="M10,5.83333333 C11.1505833,5.83333333 12.0833333,4.90058333 12.0833333,3.75 C12.0833333,2.59940833 11.1505833,1.66666667 10,1.66666667 C8.84941667,1.66666667 7.91666667,2.59940833 7.91666667,3.75 C7.91666667,4.90058333 8.84941667,5.83333333 10,5.83333333 Z" id="Path" stroke="#A5B7C0"></path>
            <path d="M10,8.33333333 C6.37083333,8.33333333 3.33333333,11.3666667 3.33333333,15 L6.25,15 L6.25,18.3333333 L13.75,18.3333333 L13.75,15 L16.6666709,15 C16.6708333,11.3708333 13.6291667,8.33333333 10,8.33333333 Z" id="Path" stroke="#A5B7C0" stroke-linecap="round" stroke-linejoin="round"></path>
            <line x1="6.25" y1="15" x2="6.25" y2="9.58333333" id="Path" stroke="#A5B7C0" stroke-linecap="round" stroke-linejoin="round"></line>
            <line x1="13.75" y1="15" x2="13.75" y2="9.58333333" id="Path" stroke="#A5B7C0" stroke-linecap="round" stroke-linejoin="round"></line>
            <line x1="10" y1="18.3333333" x2="10" y2="8.33333333" id="Path" stroke="#A5B7C0" stroke-linecap="round" stroke-linejoin="round"></line>
        </g>
    </g>
</svg>