<?xml version="1.0" encoding="UTF-8"?>
<svg width="20px" height="20px" viewBox="0 0 20 20" version="1.1" xmlns="http://www.w3.org/2000/svg" xmlns:xlink="http://www.w3.org/1999/xlink">
    <title>world</title>
    <g id="Page-1" stroke="none" stroke-width="1" fill="none" fill-rule="evenodd">
        <g id="world">
            <rect id="Rectangle" fill-opacity="0.01" fill="#FFFFFF" fill-rule="nonzero" x="0" y="0" width="20" height="20"></rect>
            <path d="M10,18.3333333 C14.602375,18.3333333 18.3333333,14.602375 18.3333333,10 C18.3333333,5.397625 14.602375,1.66666667 10,1.66666667 C5.397625,1.66666667 1.66666667,5.397625 1.66666667,10 C1.66666667,14.602375 5.397625,18.3333333 10,18.3333333 Z" id="Path" stroke="#A5B7C0"></path>
            <path d="M1.66666667,8.6835 C2.92285417,8.09033333 3.85194167,8.00770833 4.45391667,8.43558333 C5.35691667,9.07745833 5.470125,11.6933333 7.52395833,10.443125 C9.57779167,9.19291667 6.64445833,8.6835 7.28125,6.87245833 C7.91804167,5.06141667 10.0034583,6.46820833 10.2107917,4.48445833 C10.3489583,3.161925 8.767,2.6558875 5.46483333,2.9663375" id="Path" stroke="#A5B7C0"></path>
            <path d="M15.0000417,3.33333333 C12.6190417,5.41191667 11.7874583,6.667125 12.5052917,7.098875 C13.582,7.74654167 14.038875,6.83470833 15.3527917,7.098875 C16.6667083,7.36308333 16.3822083,9.14404167 15.691125,9.14404167 C15.0000417,9.14404167 11.4208333,8.68825 11.601125,10.7770833 C11.781375,12.865875 13.93425,13.175125 13.93425,14.342125 C13.93425,15.120125 13.4579167,16.3108333 12.5052917,17.91425" id="Path" stroke="#A5B7C0" stroke-linecap="round"></path>
            <path d="M2.5435875,13.7193333 C2.923375,13.5536667 3.2088625,13.43225 3.40004583,13.355 C5.003,12.7074167 6.19241667,12.55475 6.96820833,12.8970833 C8.34008333,13.5024583 7.81266667,14.7250417 8.242375,15.1754583 C8.67204167,15.625875 9.74504167,15.4948333 9.74504167,16.3516667 C9.74504167,16.9229167 9.55316667,17.5682083 9.16941667,18.2875417" id="Path" stroke="#A5B7C0" stroke-linecap="round"></path>
        </g>
    </g>
</svg>