<?xml version="1.0" encoding="UTF-8"?>
<svg width="20px" height="20px" viewBox="0 0 20 20" version="1.1" xmlns="http://www.w3.org/2000/svg" xmlns:xlink="http://www.w3.org/1999/xlink">
    <title>xiaodu</title>
    <g id="Page-1" stroke="none" stroke-width="1" fill="none" fill-rule="evenodd">
        <g id="xiaodu">
            <rect id="Rectangle" fill-opacity="0.01" fill="#FFFFFF" fill-rule="nonzero" x="0" y="0" width="20" height="20"></rect>
            <path d="M1.72632083,8.78354167 C1.87425,7.20579167 1.9482125,6.41691667 2.7733125,5.57295833 C3.5984125,4.729 4.50633333,4.623125 6.32225,4.411375 C7.50154167,4.273875 8.804375,4.16666667 10,4.16666667 C11.195625,4.16666667 12.4984583,4.273875 13.67775,4.411375 C15.4936667,4.623125 16.4015833,4.729 17.2267083,5.57295833 C18.0517917,6.41691667 18.12575,7.20579167 18.2736667,8.78354167 C18.311,9.18170833 18.3333333,9.590875 18.3333333,10 C18.3333333,10.409125 18.311,10.8182917 18.2736667,11.2164583 C18.12575,12.7942083 18.0517917,13.5830833 17.2267083,14.4270417 C16.4015833,15.271 15.4936667,15.376875 13.67775,15.588625 C12.4984583,15.726125 11.195625,15.8333333 10,15.8333333 C8.804375,15.8333333 7.50154167,15.726125 6.32225,15.588625 C4.50633333,15.376875 3.5984125,15.271 2.7733125,14.4270417 C1.9482125,13.5830833 1.87425,12.7942083 1.72632083,11.2164583 C1.6889875,10.8182917 1.66666667,10.409125 1.66666667,10 C1.66666667,9.590875 1.6889875,9.18170833 1.72632083,8.78354167 Z" id="Path" stroke="#A5B7C0" stroke-linecap="round" stroke-linejoin="round"></path>
            <line x1="6.66666667" y1="7.91666667" x2="6.66666667" y2="12.0833333" id="Path" stroke="#A5B7C0" stroke-linecap="round" stroke-linejoin="round"></line>
            <polyline id="Path" stroke="#A5B7C0" stroke-linecap="round" stroke-linejoin="round" points="13.75 7.91666667 11.6666667 10 13.75 12.0833333"></polyline>
        </g>
    </g>
</svg>