<?xml version="1.0" encoding="UTF-8"?>
<svg width="20px" height="20px" viewBox="0 0 20 20" version="1.1" xmlns="http://www.w3.org/2000/svg" xmlns:xlink="http://www.w3.org/1999/xlink">
    <title>xigua</title>
    <g id="Page-1" stroke="none" stroke-width="1" fill="none" fill-rule="evenodd">
        <g id="xigua">
            <rect id="Rectangle" fill-opacity="0.01" fill="#FFFFFF" fill-rule="nonzero" x="0" y="0" width="20" height="20"></rect>
            <path d="M10.0000417,17.6389167 C14.218875,17.6389167 17.6389167,14.2188333 17.6389167,10 C17.6389167,5.78116667 14.218875,2.36112083 10.0000417,2.36112083 C5.78120833,2.36112083 2.36114583,5.78116667 2.36114583,10 C2.36114583,11.0357083 2.8362625,11.53625 3.58914167,11.9769583 C4.34204167,12.4176667 5.75841667,12.3445 6.721875,13.2089167 C7.68529167,14.0733333 7.75033333,15.4794583 7.949875,16.1626667 C8.149375,16.8459167 8.96433333,17.6389167 10.0000417,17.6389167 Z" id="Path" stroke="#A5B7C0" stroke-linejoin="round"></path>
            <path d="M8.13566667,7.7255 C7.91133333,8.27054167 7.79916667,8.91108333 7.79916667,9.647125 C7.79916667,10.3470417 7.8735,11.04 8.02216667,11.726 L8.02216667,11.726 C8.17108333,12.4132083 8.848875,12.8495417 9.53608333,12.700625 C9.56104167,12.6952083 9.58583333,12.6890833 9.61041667,12.6821667 C10.36025,12.47175 11.01325,12.1962917 11.569375,11.8558333 C12.0893333,11.5375 12.5738333,11.1355417 13.0228333,10.6500417 L13.0228333,10.6500417 C13.50025,10.1337917 13.46875,9.32829167 12.9525417,8.850875 C12.9377917,8.83725 12.9227083,8.82395833 12.9073333,8.81104167 C12.3795417,8.367375 11.8270833,7.96891667 11.25,7.615625 C10.6475,7.24670833 10.057375,7.024125 9.479625,6.947875 L9.479625,6.947875 C8.907125,6.87229167 8.35545833,7.1915 8.13566667,7.7255 Z" id="Path" stroke="#A5B7C0" stroke-linejoin="round"></path>
        </g>
    </g>
</svg>