<?xml version="1.0" encoding="UTF-8"?>
<svg width="20px" height="20px" viewBox="0 0 20 20" version="1.1" xmlns="http://www.w3.org/2000/svg" xmlns:xlink="http://www.w3.org/1999/xlink">
    <title>youtube</title>
    <g id="Page-1" stroke="none" stroke-width="1" fill="none" fill-rule="evenodd">
        <g id="youtube">
            <rect id="Rectangle" fill-opacity="0.01" fill="#FFFFFF" fill-rule="nonzero" x="0" y="0" width="20" height="20"></rect>
            <path d="M4.60975,4.33933333 C6.91941667,4.22420833 8.715875,4.16666667 9.99908333,4.16666667 C11.2824167,4.16666667 13.0795,4.22425 15.3903333,4.339375 L15.3903333,4.339375 C16.6412083,4.40170833 17.6529167,5.37995833 17.75725,6.628 C17.8629167,7.89216667 17.91575,9.00558333 17.91575,9.96825 C17.91575,10.94275 17.861625,12.0716667 17.7533333,13.3550833 L17.7533333,13.3550833 C17.6493333,14.587625 16.659625,15.5588333 15.4252917,15.6395417 C13.4497083,15.76875 11.6409583,15.8333333 9.99908333,15.8333333 C8.35741667,15.8333333 6.54933333,15.76875 4.57483333,15.639625 L4.57483333,15.639625 C3.34095,15.5589167 2.35144167,14.5882917 2.24693333,13.35625 C2.13725417,12.06325 2.08241667,10.9339167 2.08241667,9.96825 C2.08241667,9.01420833 2.13594583,7.90041667 2.243,6.62683333 L2.24300417,6.62683333 C2.347875,5.37929167 3.35937083,4.40166667 4.60975,4.33933333 Z" id="Path" stroke="#A5B7C0" stroke-linejoin="round"></path>
            <path d="M8.75,8.1705 L8.75,11.835875 C8.75,12.0330833 8.90991667,12.193 9.107125,12.193 C9.17716667,12.193 9.24566667,12.1724167 9.30408333,12.1337917 L12.0530833,10.3169167 C12.217625,10.2081667 12.2628333,9.98658333 12.1540833,9.82204167 C12.1280833,9.78270833 12.0945417,9.748875 12.0554167,9.72258333 L9.30641667,7.874125 C9.14275,7.76408333 8.92083333,7.80754167 8.81075,7.97125 C8.77116667,8.03016667 8.75,8.09954167 8.75,8.1705 Z" id="Path" stroke="#A5B7C0" stroke-linejoin="round"></path>
        </g>
    </g>
</svg>