<?xml version="1.0" encoding="UTF-8"?>
<svg width="20px" height="20px" viewBox="0 0 20 20" version="1.1" xmlns="http://www.w3.org/2000/svg" xmlns:xlink="http://www.w3.org/1999/xlink">
    <title>zip</title>
    <g id="Page-1" stroke="none" stroke-width="1" fill="none" fill-rule="evenodd">
        <g id="zip">
            <rect id="Rectangle" fill-opacity="0.01" fill="#FFFFFF" fill-rule="nonzero" x="0" y="0" width="20" height="20"></rect>
            <path d="M1.9285875,5.31191667 L10,2.08333333 L18.0714167,5.31191667 C18.2295833,5.37516667 18.3333333,5.528375 18.3333333,5.69875 L18.3333333,17.5 C18.3333333,17.730125 18.1467917,17.9166667 17.9166667,17.9166667 L2.08333333,17.9166667 C1.85321667,17.9166667 1.66666667,17.730125 1.66666667,17.5 L1.66666667,5.69875 C1.66666667,5.528375 1.77039583,5.37516667 1.9285875,5.31191667 Z" id="Path" stroke="#A5B7C0" stroke-linejoin="round"></path>
            <line x1="10" y1="9.16666667" x2="10" y2="13.3333333" id="Path" stroke="#A5B7C0" stroke-linecap="round"></line>
            <path d="M13.75,11.25 C14.440375,11.25 15,10.783625 15,10.2083333 C15,9.63304167 14.440375,9.16666667 13.75,9.16666667 C13.375,9.16666667 13,9.16666667 12.625,9.16666667 C12.5559583,9.16666667 12.5,9.222625 12.5,9.29166667 C12.5,9.59720833 12.5,9.90279167 12.5,10.2083333 C12.5,10.783625 13.059625,11.25 13.75,11.25 Z" id="Path" stroke="#A5B7C0"></path>
            <line x1="12.5" y1="9.16666667" x2="12.5" y2="13.3333333" id="Path" stroke="#A5B7C0" stroke-linecap="round"></line>
            <polyline id="Path" stroke="#A5B7C0" stroke-linecap="round" stroke-linejoin="round" points="5 9.16666667 7.50191667 9.16666667 5 13.3330417 7.50191667 13.3330417"></polyline>
        </g>
    </g>
</svg>