<svg xmlns="http://www.w3.org/2000/svg" width="64" height="64" fill="none" viewBox="0 0 64 64">
  <g class="64x64/Outline/backup">
    <path fill="#53707F" d="M32 3c5.835 0 11.196.793 15.133 2.102 1.963.652 3.627 1.451 4.821 2.386C53.136 8.414 54 9.592 54 11v42.044c0 1.404-.867 2.578-2.048 3.497-1.194.93-2.858 1.723-4.821 2.371C43.195 60.212 37.834 61 32 61s-11.195-.788-15.13-2.088c-1.964-.648-3.628-1.442-4.822-2.371C10.867 55.622 10 54.448 10 53.044V11c0-1.408.864-2.586 2.046-3.512 1.194-.935 2.858-1.734 4.821-2.386C20.804 3.792 26.165 3 32 3Zm19.954 40.512c-1.194.935-2.858 1.734-4.821 2.386-.267.089-.54.173-.82.256C43.688 51.4 38.265 55 32 55c-6.265 0-11.688-3.6-14.314-8.845a27.878 27.878 0 0 1-.819-.257c-1.963-.652-3.627-1.451-4.821-2.386L12 43.474v9.57c0 .516.319 1.174 1.276 1.919.945.735 2.372 1.44 4.22 2.05C21.182 58.23 26.321 59 32 59s10.818-.77 14.504-1.987c1.848-.61 3.275-1.315 4.22-2.05.957-.745 1.276-1.403 1.276-1.92v-9.57l-.046.039ZM32 24.882c-7.797 0-14.117 6.321-14.117 14.118 0 7.797 6.32 14.117 14.117 14.117 7.797 0 14.117-6.32 14.117-14.117 0-7.797-6.32-14.117-14.117-14.117ZM24 39.5c0 4.221 3.278 7.5 7.5 7.5 2.568 0 4.749-1.18 6.095-3.076h-2.637v-2h6v6h-2v-2.485C37.232 47.64 34.571 49 31.5 49c-5.326 0-9.5-4.174-9.5-9.5h2ZM12 40l.004.1c.039.508.378 1.135 1.275 1.837.806.631 1.962 1.238 3.43 1.785A15.994 15.994 0 0 1 16 39c0-3.17.921-6.125 2.512-8.611a30.034 30.034 0 0 1-1.645-.49c-1.963-.653-3.627-1.452-4.821-2.387L12 27.474V40Zm39.954-12.488c-1.194.935-2.858 1.734-4.821 2.386a29.96 29.96 0 0 1-1.646.49A15.925 15.925 0 0 1 48 39c0 1.644-.25 3.23-.71 4.722 1.469-.547 2.625-1.154 3.43-1.785.898-.702 1.237-1.329 1.276-1.837L52 40V27.474l-.046.038ZM31.501 30c5.326 0 9.5 4.174 9.5 9.5h-2c0-4.221-3.279-7.5-7.5-7.5-2.587 0-4.784 1.197-6.127 3.118H28v2h-6v-6h2v2.496C25.725 31.382 28.405 30 31.501 30Zm20.453-15.488c-1.194.935-2.858 1.734-4.821 2.386C43.196 18.208 37.835 19 32 19c-5.835 0-11.196-.793-15.133-2.102-1.963-.652-3.627-1.451-4.821-2.386L12 14.474V24l.004.1c.039.508.378 1.135 1.275 1.837.945.74 2.371 1.45 4.219 2.064.713.237 1.48.454 2.296.654A15.965 15.965 0 0 1 32 23c4.892 0 9.27 2.195 12.205 5.654.816-.2 1.584-.416 2.297-.653 1.847-.614 3.274-1.324 4.219-2.064.897-.702 1.236-1.329 1.275-1.837L52 24v-9.526l-.046.038ZM32 5c-5.678 0-10.817.774-14.502 1.999-1.848.614-3.274 1.324-4.219 2.064C12.322 9.812 12 10.474 12 11c0 .525.322 1.188 1.28 1.938.944.74 2.37 1.449 4.218 2.063C21.183 16.226 26.322 17 32 17c5.678 0 10.817-.774 14.502-1.999 1.847-.614 3.274-1.324 4.219-2.063C51.678 12.188 52 11.524 52 11c0-.525-.322-1.188-1.28-1.938-.944-.74-2.37-1.449-4.218-2.063C42.817 5.774 37.678 5 32 5Z" class="Primary"/>
  </g>
</svg>
