<svg xmlns="http://www.w3.org/2000/svg" width="64" height="64" fill="none" viewBox="0 0 64 64">
  <g class="64x64/Outline/cloud_off">
    <path fill="#53707F" d="M54.879 8.293a1 1 0 1 1 1.414 1.414L8.21 57.79a1 1 0 0 1-1.414-1.414L54.879 8.293Zm-4.65 11.477a17.386 17.386 0 0 1 1.682 5.91C57.201 27.51 61 32.533 61 38.444c0 7.456-6.044 13.5-13.5 13.5h-29c-.146 0-.292-.002-.438-.006l1.995-1.994H47.5c6.153 0 11.177-4.832 11.485-10.908l.015-.592c0-5.032-3.234-9.314-7.742-10.872l-1.21-.418-.127-1.273a15.398 15.398 0 0 0-1.198-4.604l1.507-1.506ZM34.5 9.943a17.42 17.42 0 0 1 10.637 3.605l-1.428 1.428a15.429 15.429 0 0 0-9.209-3.033h-1c-6.54 0-12.14 4.052-14.415 9.79l-.458 1.155-1.24.1C10.454 23.553 5 29.362 5 36.443c0 4.685 2.387 8.81 6.01 11.232l-1.44 1.44C5.596 46.307 3 41.678 3 36.442c0-8.131 6.261-14.8 14.226-15.448C19.793 14.521 26.112 9.943 33.5 9.943h1Z" class="Primary"/>
  </g>
</svg>
