<svg xmlns="http://www.w3.org/2000/svg" width="64" height="64" fill="none" viewBox="0 0 64 64">
  <g class="64x64/Outline/dashboard">
    <path fill="#53707F" fill-rule="evenodd" d="M57 7H36v16h21V7ZM36 5a2 2 0 0 0-2 2v16a2 2 0 0 0 2 2h21a2 2 0 0 0 2-2V7a2 2 0 0 0-2-2H36ZM7 7h21v26H7V7ZM5 7a2 2 0 0 1 2-2h21a2 2 0 0 1 2 2v26a2 2 0 0 1-2 2H7a2 2 0 0 1-2-2V7Zm31 24h21v26H36V31Zm-2 0a2 2 0 0 1 2-2h21a2 2 0 0 1 2 2v26a2 2 0 0 1-2 2H36a2 2 0 0 1-2-2V31ZM7 41h21v16H7V41Zm-2 0a2 2 0 0 1 2-2h21a2 2 0 0 1 2 2v16a2 2 0 0 1-2 2H7a2 2 0 0 1-2-2V41Z" class="Primary" clip-rule="evenodd"/>
  </g>
</svg>
