<svg xmlns="http://www.w3.org/2000/svg" width="64" height="64" viewBox="0 0 64 64" fill="none">
<g>
<path id="Primary" fill-rule="evenodd" clip-rule="evenodd" d="M19.1213 56.7071L7.29289 44.8787C7.10536 44.6911 7 44.4368 7 44.1716V19.8284C7 19.5632 7.10536 19.3089 7.29289 19.1213L19.1213 7.29289C19.3089 7.10536 19.5632 7 19.8284 7H44.1716C44.4368 7 44.6911 7.10536 44.8787 7.29289L56.7071 19.1213C56.8946 19.3089 57 19.5632 57 19.8284V44.1716C57 44.4368 56.8946 44.6911 56.7071 44.8787L44.8787 56.7071C44.6911 56.8946 44.4368 57 44.1716 57H19.8284C19.5632 57 19.3089 56.8946 19.1213 56.7071ZM6 19.8284C6 19.298 6.21071 18.7893 6.58579 18.4142L18.4142 6.58579C18.7893 6.21071 19.298 6 19.8284 6H44.1716C44.702 6 45.2107 6.21071 45.5858 6.58579L57.4142 18.4142C57.7893 18.7893 58 19.298 58 19.8284V44.1716C58 44.702 57.7893 45.2107 57.4142 45.5858L45.5858 57.4142C45.2107 57.7893 44.702 58 44.1716 58H19.8284C19.298 58 18.7893 57.7893 18.4142 57.4142L6.58579 45.5858C6.21071 45.2107 6 44.702 6 44.1716V19.8284ZM42.5858 45.4143C42.1953 45.8048 41.5621 45.8048 41.1716 45.4143L32 36.2427L22.8284 45.4143C22.4379 45.8048 21.8048 45.8048 21.4142 45.4143L18.5858 42.5859C18.1953 42.1953 18.1953 41.5622 18.5858 41.1716L27.7574 32.0001L18.5858 22.8285C18.1953 22.438 18.1953 21.8048 18.5858 21.4143L21.4142 18.5859C21.8048 18.1953 22.4379 18.1953 22.8284 18.5859L32 27.7574L41.1716 18.5859C41.5621 18.1953 42.1953 18.1953 42.5858 18.5859L45.4142 21.4143C45.8048 21.8048 45.8048 22.438 45.4142 22.8285L36.2427 32.0001L45.4142 41.1716C45.8048 41.5622 45.8048 42.1953 45.4142 42.5859L42.5858 45.4143Z" fill="#EF5350" class="Primary"/>
</g>
</svg>