<svg xmlns="http://www.w3.org/2000/svg" width="64" height="64" fill="none" viewBox="0 0 64 64">
  <g class="64x64/Outline/events">
    <path fill="#53707F" d="M33.985 6.59a4 4 0 0 1 1.488 1.488L60.58 52.016A4 4 0 0 1 57.107 58H6.893a4 4 0 0 1-3.473-5.984L28.527 8.078a4 4 0 0 1 5.458-1.489Zm-3.639 2.347-.082.133L5.155 53.008a2 2 0 0 0 1.587 2.986l.15.006h50.214a2 2 0 0 0 1.81-2.854l-.073-.138L33.736 9.07a2 2 0 0 0-.593-.65l-.15-.094a2 2 0 0 0-2.647.611ZM33 45a2 2 0 0 1 2 2v2a2 2 0 0 1-2 2h-2a2 2 0 0 1-2-2v-2a2 2 0 0 1 2-2h2Zm-.102-24a2 2 0 0 1 1.997 2.1l-.8 16a2 2 0 0 1-1.998 1.9h-.195a2 2 0 0 1-1.997-1.9l-.8-16a2 2 0 0 1 1.898-2.098l.1-.002h1.794Z" class="Primary"/>
  </g>
</svg>
