<svg xmlns="http://www.w3.org/2000/svg" width="64" height="64" fill="none" viewBox="0 0 64 64">
  <g class="64x64/Outline/info">
    <path fill="#A5B7C0" fill-rule="evenodd" d="M32 61c16.016 0 29-12.984 29-29S48.016 3 32 3 3 15.984 3 32s12.984 29 29 29Zm28-29c0 15.464-12.536 28-28 28S4 47.464 4 32 16.536 4 32 4s28 12.536 28 28ZM29.23 18.231a1 1 0 0 1 1-1h3.54a1 1 0 0 1 1 1v3.538a1 1 0 0 1-1 1h-3.54a1 1 0 0 1-1-1v-3.538Zm0 10.154a1 1 0 0 1 1-1h3.54a1 1 0 0 1 1 1v17.384a1 1 0 0 1-1 1h-3.54a1 1 0 0 1-1-1V28.385Z" class="Primary" clip-rule="evenodd"/>
  </g>
</svg>
