<svg xmlns="http://www.w3.org/2000/svg" width="64" height="64" fill="none" viewBox="0 0 64 64">
  <g class="64x64/Outline/integrations">
    <path fill="#53707F" fill-rule="evenodd" d="M35 6h21a2 2 0 0 1 2 2v23H33V8a2 2 0 0 1 2-2Zm-2 52V33h25v23a2 2 0 0 1-2 2H33Zm23 2H8a4 4 0 0 1-4-4V35a4 4 0 0 1 4-4h23V8a4 4 0 0 1 4-4h21a4 4 0 0 1 4 4v48a4 4 0 0 1-4 4ZM31 33v25H8a2 2 0 0 1-2-2V35a2 2 0 0 1 2-2h23ZM6.608 15.086 15.093 6.6a2 2 0 0 1 2.828 0l8.486 8.485a2 2 0 0 1 0 2.828L17.92 26.4a2 2 0 0 1-2.828 0l-8.485-8.485a2 2 0 0 1 0-2.828Zm-1.415 4.242a4 4 0 0 1 0-5.656l8.486-8.486a4 4 0 0 1 5.656 0l8.486 8.486a4 4 0 0 1 0 5.656l-8.486 8.486a4 4 0 0 1-5.656 0l-8.486-8.486Z" class="Primary" clip-rule="evenodd"/>
  </g>
</svg>
