<svg xmlns="http://www.w3.org/2000/svg" width="64" height="64" fill="none" viewBox="0 0 64 64">
  <g class="64x64/Outline/layout">
    <path fill="#53707F" fill-rule="evenodd" d="M8 8h31a1 1 0 0 1 1 1v27a1 1 0 0 1-1 1H8a1 1 0 0 1-1-1V9a1 1 0 0 1 1-1ZM5 9a3 3 0 0 1 3-3h31a3 3 0 0 1 3 3v27a3 3 0 0 1-3 3H8a3 3 0 0 1-3-3V9Zm3 35h11a1 1 0 0 1 1 1v9a1 1 0 0 1-1 1H8a1 1 0 0 1-1-1v-9a1 1 0 0 1 1-1Zm-3 1a3 3 0 0 1 3-3h11a3 3 0 0 1 3 3v9a3 3 0 0 1-3 3H8a3 3 0 0 1-3-3v-9ZM57 8h-9a1 1 0 0 0-1 1v9a1 1 0 0 0 1 1h9a1 1 0 0 0 1-1V9a1 1 0 0 0-1-1Zm-9-2a3 3 0 0 0-3 3v9a3 3 0 0 0 3 3h9a3 3 0 0 0 3-3V9a3 3 0 0 0-3-3h-9Zm0 20h9a1 1 0 0 1 1 1v9a1 1 0 0 1-1 1h-9a1 1 0 0 1-1-1v-9a1 1 0 0 1 1-1Zm-3 1a3 3 0 0 1 3-3h9a3 3 0 0 1 3 3v9a3 3 0 0 1-3 3h-9a3 3 0 0 1-3-3v-9Zm12 17h-9a1 1 0 0 0-1 1v9a1 1 0 0 0 1 1h9a1 1 0 0 0 1-1v-9a1 1 0 0 0-1-1Zm-9-2a3 3 0 0 0-3 3v9a3 3 0 0 0 3 3h9a3 3 0 0 0 3-3v-9a3 3 0 0 0-3-3h-9Zm-20 2h11a1 1 0 0 1 1 1v9a1 1 0 0 1-1 1H28a1 1 0 0 1-1-1v-9a1 1 0 0 1 1-1Zm-3 1a3 3 0 0 1 3-3h11a3 3 0 0 1 3 3v9a3 3 0 0 1-3 3H28a3 3 0 0 1-3-3v-9Z" class="Primary" clip-rule="evenodd"/>
  </g>
</svg>
