<svg xmlns="http://www.w3.org/2000/svg" width="64" height="64" fill="none" viewBox="0 0 64 64">
  <g class="64x64/Outline/maintenance">
    <path fill="#53707F" d="M55.696 53.85c0-.825-.307-1.56-.92-2.205l-16.369-16.21-4.392 4.393 16.32 16.18c.575.599 1.262.916 2.06.954l.16.003c.867 0 1.607-.313 2.22-.938.614-.625.921-1.35.921-2.176ZM9.218 19.217c0-1.189.466-2.238 1.303-3.049l7.44-7.454c1.017-1.019 2.197-1.761 3.536-2.16 1.191-.355 2.454-.524 3.775-.524a9.8 9.8 0 0 1 3.083.47 9.98 9.98 0 0 1 2.44 1.211l.332.23.095.068.085.079a3.407 3.407 0 0 1 1.117 2.169l.014.175.006.188c.003.939-.391 1.752-1.007 2.366l-.002.002-4.814 4.79.362.362c.753.755 1.19 1.726 1.19 2.829 0 .476-.083.928-.237 1.348l4.539 4.533 5.79-5.75a11.206 11.206 0 0 1-.696-3.924c0-3.028 1.13-5.679 3.298-7.858C43.04 7.135 45.692 6 48.727 6c.473 0 .932.027 1.375.087.322.043.638.103.943.184l.302.086.145.046.137.069c.903.447 1.536 1.251 1.71 2.288a3.058 3.058 0 0 1-.871 2.713L49.265 14.7l1.907 1.902 3.06-3.085.008-.007c.76-.758 1.75-1.06 2.764-.94a3.18 3.18 0 0 1 2.51 1.734l.07.137.05.148c.154.465.257.943.305 1.43.041.412.061.843.061 1.289 0 3.052-1.15 5.71-3.361 7.872-2.203 2.151-4.874 3.265-7.917 3.265a14.38 14.38 0 0 1-2.084-.136l-.269-.043a9.963 9.963 0 0 1-.639-.138l-5.843 5.838L56.188 50.23l.018.017.017.018c.938.984 1.473 2.203 1.473 3.585 0 1.384-.537 2.604-1.493 3.578-.985 1.003-2.238 1.536-3.647 1.536-1.408 0-2.651-.538-3.628-1.536L32.596 41.25 16.338 57.491l-.008.007c-.999.987-2.256 1.538-3.687 1.5-1.383-.037-2.597-.591-3.557-1.57a5.073 5.073 0 0 1-1.493-3.634c0-1.397.52-2.645 1.508-3.63l16.2-16.165-4.762-4.726a3.87 3.87 0 0 1-1.797.162v2.027c0 .62-.15 1.294-.574 1.9-.424.604-1.006.974-1.585 1.187-.563.206-1.212.3-1.893.156a3.354 3.354 0 0 1-1.678-.929l-8.01-7.99a3.347 3.347 0 0 1-.933-1.679 3.408 3.408 0 0 1 .158-1.895l.087-.218a3.229 3.229 0 0 1 1.104-1.366c.605-.422 1.279-.571 1.897-.571v2l-.215.013c-.483.062-.815.339-.997.832-.207.564-.103 1.053.312 1.467l8.01 7.991c.363.363.783.487 1.261.373l.209-.062c.565-.207.847-.61.847-1.21v-5.709l1.13 1.126c.428.398.905.597 1.43.597.46 0 .872-.153 1.238-.457l.154-.14.135-.135 7.308 7.253L10.514 51.58l-.216.236a2.995 2.995 0 0 0-.705 1.979l.014.318c.068.73.37 1.368.907 1.915.537.547 1.16.864 1.872.95l.31.022c.735.02 1.396-.214 1.982-.7l.247-.223 30.257-30.225c.467.198.98.347 1.538.446.418.074.898.12 1.44.14l.562.01c2.35 0 4.406-.791 6.17-2.37l.348-.327C57.08 21.954 58 19.806 58 17.31c0-.195-.004-.383-.013-.565l-.038-.525a4.55 4.55 0 0 0-.139-.751l-.074-.247a1.167 1.167 0 0 0-.807-.637l-.16-.027c-.444-.053-.817.07-1.117.37l-3.51 3.54a1.396 1.396 0 0 1-.995.41c-.33 0-.611-.104-.843-.313l-.097-.097-2.804-2.797a1.339 1.339 0 0 1 0-1.93l3.646-3.675c.24-.24.352-.519.334-.836l-.016-.14a1.064 1.064 0 0 0-.5-.755l-.126-.07a5.397 5.397 0 0 0-.907-.195A8.307 8.307 0 0 0 48.727 8c-2.484 0-4.632.91-6.442 2.729l-.329.344c-1.591 1.744-2.387 3.778-2.387 6.102 0 .832.101 1.627.303 2.383.202.756.47 1.412.803 1.968l-8.203 8.145-7.106-7.095.201-.201c.353-.35.552-.752.596-1.209l.01-.198c0-.54-.202-1.012-.606-1.416l-1.777-1.78 6.235-6.203c.3-.299.44-.64.417-1.021a1.383 1.383 0 0 0-.378-.879l-.106-.106a8.427 8.427 0 0 0-1.947-1.066l-.28-.099a7.647 7.647 0 0 0-2.129-.363l-.33-.006c-1.15 0-2.22.147-3.205.44l-.365.123c-.843.313-1.618.825-2.326 1.534l-7.44 7.454c-.479.453-.718.998-.718 1.636 0 .637.226 1.184.68 1.636l1.208 1.205h-5.79v-2h1.98a4.445 4.445 0 0 1-.078-.841Z" class="Primary (Stroke)"/>
  </g>
</svg>
