<svg xmlns="http://www.w3.org/2000/svg" width="64" height="64" fill="none" viewBox="0 0 64 64">
  <g class="64x64/Outline/maintenance">
    <path fill="#A3B8C2" d="M49.409 54.707 34.467 39.87l4.403-4.441 14.942 14.942c.608.64.913 1.37.913 2.191 0 .822-.305 1.543-.913 2.164-.61.621-1.343.932-2.202.932s-1.593-.317-2.201-.95Zm-39.487.02a3.063 3.063 0 0 1-.913-2.221 3 3 0 0 1 .913-2.202L27.397 32.83l-7.246-7.209-.134.134c-.4.396-.86.593-1.38.593-.522 0-.995-.197-1.42-.593l-1.118-1.12v5.676c0 .595-.28.996-.841 1.202-.56.205-1.046.102-1.458-.31l-7.942-7.941c-.412-.412-.515-.898-.309-1.458.206-.56.607-.84 1.202-.84h5.742l-1.197-1.198a2.217 2.217 0 0 1-.676-1.626c0-.634.238-1.176.713-1.626l7.377-7.409c.802-.805 1.692-1.354 2.669-1.646.977-.292 2.036-.438 3.177-.438.884 0 1.696.122 2.438.367.742.244 1.479.63 2.209 1.158.297.272.457.598.48.978.022.38-.116.719-.413 1.016l-6.183 6.165 1.762 1.768c.4.402.6.871.6 1.407 0 .537-.2 1.003-.6 1.4l-.2.2 7.047 7.051 8.133-8.095c-.33-.553-.596-1.205-.796-1.956-.2-.752-.3-1.541-.3-2.369 0-2.464.898-4.6 2.693-6.407 1.795-1.808 3.925-2.712 6.389-2.712.391 0 .757.023 1.096.069.34.046.64.11.9.193.351.175.558.449.62.822.063.373-.043.696-.315.968l-3.614 3.653a1.332 1.332 0 0 0 0 1.918l2.78 2.78c.247.273.557.409.931.409s.703-.136.987-.409l3.481-3.519c.298-.297.666-.42 1.107-.367.44.052.76.272.959.66.108.326.179.657.212.992.033.335.05.696.05 1.084 0 2.48-.912 4.614-2.736 6.4-1.825 1.787-3.98 2.68-6.465 2.68-.77 0-1.432-.049-1.985-.147a7.047 7.047 0 0 1-1.524-.444l-30.003 30.04c-.64.635-1.377.94-2.21.918-.834-.022-1.556-.344-2.164-.965Z" class="Primary"/>
  </g>
</svg>
