<svg xmlns="http://www.w3.org/2000/svg" width="64" height="64" fill="none" viewBox="0 0 64 64">
  <g class="64x64/Outline/no_maps">
    <path fill="#53707F" d="M54 6a4 4 0 0 1 4 4v44a4 4 0 0 1-3.794 3.995L54 58H10l-.206-.005a4.001 4.001 0 0 1-3.79-3.789L6 54V10a4 4 0 0 1 4-4h44ZM8.07 9.483A2 2 0 0 0 8 10v44a2 2 0 0 0 2 2h44c.207 0 .407-.032.595-.09L41.928 43.241A14.941 14.941 0 0 1 32 47c-8.284 0-15-6.716-15-15 0-3.782 1.4-7.237 3.71-9.875L8.07 9.483Zm38.416 18.618A15 15 0 0 1 47 32a14.94 14.94 0 0 1-3.664 9.822L55.95 54.435c.031-.14.05-.285.05-.435V37.614l-9.514-9.513ZM16 42c.413 0 .785.25.941.63l4.984 9.972A1.013 1.013 0 0 1 20.982 54a1.02 1.02 0 0 1-.539-.154L16 51.077l-4.443 2.769a1.02 1.02 0 0 1-1.195-.084 1.013 1.013 0 0 1-.287-1.16l4.984-9.971c.156-.381.528-.63.941-.631Zm-2.54 8.303L16 48.72l2.54 1.582L16 45.22l-2.54 5.082ZM32 19c-7.18 0-13 5.82-13 13s5.82 13 13 13 13-5.82 13-13-5.82-13-13-13Zm5.293 6.293a1 1 0 1 1 1.414 1.414L33.414 32l5.293 5.293a1 1 0 1 1-1.414 1.414L32 33.414l-5.293 5.293a1 1 0 1 1-1.414-1.414L30.586 32l-5.293-5.293a1 1 0 1 1 1.414-1.414L32 30.586l5.293-5.293Zm6.063-3.15L56 34.785V10c0-.154-.02-.304-.053-.448l-12.59 12.59ZM28.08 17.519A15.014 15.014 0 0 1 32 17c3.804 0 7.277 1.416 9.92 3.75L54.585 8.087A2 2 0 0 0 54 8H37.6l-9.52 9.519ZM10 8a2 2 0 0 0-.517.07l12.61 12.608L34.772 8H10Z" class="Primary"/>
  </g>
</svg>
