<svg xmlns="http://www.w3.org/2000/svg" width="64" height="64" fill="none" viewBox="0 0 64 64">
  <g class="64x64/Outline/nodevices">
    <path fill="#53707F" fill-rule="evenodd" d="M6 10h52v12H6V10Zm2 14H6a2 2 0 0 1-2-2V10a2 2 0 0 1 2-2h52a2 2 0 0 1 2 2v12a2 2 0 0 1-2 2h-3v8.5C55 45.479 44.479 56 31.5 56S8 45.479 8 32.5V24Zm45 0H10v8.5C10 44.374 19.626 54 31.5 54S53 44.374 53 32.5V24Zm-43-9a1 1 0 0 1 1-1h2a1 1 0 0 1 1 1v2a1 1 0 0 1-1 1h-2a1 1 0 0 1-1-1v-2Zm7-1a1 1 0 0 0-1 1v2a1 1 0 0 0 1 1h2a1 1 0 0 0 1-1v-2a1 1 0 0 0-1-1h-2Zm5 1a1 1 0 0 1 1-1h2a1 1 0 0 1 1 1v2a1 1 0 0 1-1 1h-2a1 1 0 0 1-1-1v-2Zm16.707 16.293a1 1 0 0 0-1.414 0L32 36.586l-5.293-5.293a1 1 0 0 0-1.414 1.414L30.586 38l-5.293 5.293a1 1 0 0 0 1.414 1.414L32 39.414l5.293 5.293a1 1 0 0 0 1.414-1.414L33.414 38l5.293-5.293a1 1 0 0 0 0-1.414Z" class="Primary" clip-rule="evenodd"/>
  </g>
</svg>
