<svg xmlns="http://www.w3.org/2000/svg" width="64" height="64" fill="none" viewBox="0 0 64 64">
  <g class="64x64/Outline/nosettings">
    <path fill="#53707F" fill-rule="evenodd" d="M28.546 5a3 3 0 0 0-2.992 2.79l-.19 2.705a22.378 22.378 0 0 0-4.218 1.792l-2.081-1.81a3 3 0 0 0-4.09.144l-4.573 4.574a3 3 0 0 0-.143 4.09l1.87 2.152a22.373 22.373 0 0 0-1.702 4.15l-2.637.186A3 3 0 0 0 5 28.766v6.468a3 3 0 0 0 2.79 2.993l2.637.185a22.37 22.37 0 0 0 1.702 4.151l-1.87 2.153a3 3 0 0 0 .143 4.089l4.574 4.574a3 3 0 0 0 4.089.143l2.081-1.808a22.329 22.329 0 0 0 4.218 1.79l.19 2.706A3 3 0 0 0 28.546 59h6.47a3 3 0 0 0 2.992-2.79l.18-2.572c1.54-.44 3.01-1.039 4.395-1.778l1.914 1.662a3 3 0 0 0 4.089-.143l4.574-4.574a3 3 0 0 0 .143-4.09l-1.6-1.841a22.374 22.374 0 0 0 1.87-4.462l2.637-.185A3 3 0 0 0 59 35.234v-6.468a3 3 0 0 0-2.79-2.993l-2.637-.185a22.374 22.374 0 0 0-1.87-4.462l1.6-1.842-1.51-1.312 1.51 1.312a3 3 0 0 0-.143-4.089l-4.574-4.574a3 3 0 0 0-4.09-.143l-1.913 1.662a22.363 22.363 0 0 0-4.395-1.778l-.18-2.572A3 3 0 0 0 35.015 5h-6.469Zm23.247 12.972-2.55 2.936A20.384 20.384 0 0 1 52 27.483l4.069.285a1 1 0 0 1 .93.998v6.468a1 1 0 0 1-.93.998l-4.07.285a20.384 20.384 0 0 1-2.757 6.575l2.55 2.936a1 1 0 0 1-.048 1.363l-4.574 4.574a1 1 0 0 1-1.363.047l-2.989-2.596a20.38 20.38 0 0 1-6.524 2.633l-.282 4.021a1 1 0 0 1-.998.93h-6.469a1 1 0 0 1-.997-.93l-.29-4.12a20.385 20.385 0 0 1-6.332-2.695l-3.174 2.758a1 1 0 0 1-1.363-.048l-4.574-4.574a1 1 0 0 1-.048-1.363l2.804-3.228A20.38 20.38 0 0 1 12 36.518l-4.069-.286a1 1 0 0 1-.93-.998v-6.468a1 1 0 0 1 .93-.998l4.07-.285a20.38 20.38 0 0 1 2.572-6.283l-2.804-3.228a1 1 0 0 1 .048-1.363l4.574-4.574a1 1 0 0 1 1.363-.047l3.174 2.757a20.386 20.386 0 0 1 6.333-2.694l.289-4.121a1 1 0 0 1 .997-.93h6.47a1 1 0 0 1 .997.93l.282 4.02a20.38 20.38 0 0 1 6.524 2.634l2.99-2.596a1 1 0 0 1 1.362.047l4.574 4.574a1 1 0 0 1 .048 1.363ZM45 32c0 7.18-5.82 13-13 13s-13-5.82-13-13 5.82-13 13-13 13 5.82 13 13ZM32 47c8.284 0 15-6.716 15-15 0-8.284-6.716-15-15-15-8.284 0-15 6.716-15 15 0 8.284 6.716 15 15 15Zm6.707-21.707a1 1 0 0 0-1.414 0L32 30.586l-5.293-5.293a1 1 0 0 0-1.414 1.414L30.586 32l-5.293 5.293a1 1 0 0 0 1.414 1.414L32 33.414l5.293 5.293a1 1 0 0 0 1.414-1.414L33.414 32l5.293-5.293a1 1 0 0 0 0-1.414Z" class="Primary" clip-rule="evenodd"/>
  </g>
</svg>
