<svg xmlns="http://www.w3.org/2000/svg" width="64" height="64" fill="none" viewBox="0 0 64 64">
  <g class="64x64/Outline/noservices">
    <path fill="#53707F" fill-rule="evenodd" d="M8.732 8.732A2.5 2.5 0 0 1 10.5 8h14a2.5 2.5 0 0 1 2.5 2.5V14h2v-3.5A4.5 4.5 0 0 0 24.5 6h-14A4.5 4.5 0 0 0 6 10.5v14a4.5 4.5 0 0 0 4.5 4.5H14v-2h-3.5A2.5 2.5 0 0 1 8 24.5v-14a2.5 2.5 0 0 1 .732-1.768ZM53.5 29H50v-2h3.5a2.5 2.5 0 0 0 2.5-2.5v-14A2.5 2.5 0 0 0 53.5 8h-14a2.5 2.5 0 0 0-2.5 2.5V14h-2v-3.5A4.5 4.5 0 0 1 39.5 6h14a4.5 4.5 0 0 1 4.5 4.5v14a4.5 4.5 0 0 1-4.5 4.5ZM35 53.5V50h2v3.5a2.5 2.5 0 0 0 2.5 2.5h14a2.5 2.5 0 0 0 2.5-2.5v-14a2.5 2.5 0 0 0-2.5-2.5H50v-2h3.5a4.5 4.5 0 0 1 4.5 4.5v14a4.5 4.5 0 0 1-4.5 4.5h-14a4.5 4.5 0 0 1-4.5-4.5ZM10.5 35H14v2h-3.5A2.5 2.5 0 0 0 8 39.5v14a2.5 2.5 0 0 0 2.5 2.5h14a2.5 2.5 0 0 0 2.5-2.5V50h2v3.5a4.5 4.5 0 0 1-4.5 4.5h-14A4.5 4.5 0 0 1 6 53.5v-14a4.5 4.5 0 0 1 4.5-4.5ZM45 32c0 7.18-5.82 13-13 13s-13-5.82-13-13 5.82-13 13-13 13 5.82 13 13Zm2 0c0 8.284-6.716 15-15 15-8.284 0-15-6.716-15-15 0-8.284 6.716-15 15-15 8.284 0 15 6.716 15 15Zm-21.707-6.707a1 1 0 0 1 1.414 0L32 30.586l5.293-5.293a1 1 0 0 1 1.414 1.414L33.414 32l5.293 5.293a1 1 0 0 1-1.414 1.414L32 33.414l-5.293 5.293a1 1 0 1 1-1.414-1.414L30.586 32l-5.293-5.293a1 1 0 0 1 0-1.414Z" class="Primary" clip-rule="evenodd"/>
  </g>
</svg>
