<svg xmlns="http://www.w3.org/2000/svg" width="64" height="64" fill="none" viewBox="0 0 64 64">
  <g class="64x64/Outline/noserver">
    <path fill="#53707F" d="M17.032 42c.471.703.99 1.371 1.553 2H7.5a1 1 0 0 0-1 1v10a1 1 0 0 0 1 1h49a1 1 0 0 0 1-1V45a1 1 0 0 0-1-1H45.415a18.074 18.074 0 0 0 1.553-2H56.5a3 3 0 0 1 3 3v10a3 3 0 0 1-3 3h-49a3 3 0 0 1-3-3V45a3 3 0 0 1 3-3h9.532Zm2.468 7h-10v-2h10v2ZM32 16c8.837 0 16 7.163 16 16s-7.163 16-16 16-16-7.163-16-16 7.163-16 16-16Zm0 2c-7.732 0-14 6.268-14 14s6.268 14 14 14 14-6.268 14-14-6.268-14-14-14Zm-16.128 6c-.32.646-.604 1.313-.847 2H7.5a1 1 0 0 0-1 1v10a1 1 0 0 0 1 1h7.525c.243.687.526 1.354.847 2H7.5a3 3 0 0 1-3-3V27a3 3 0 0 1 3-3h8.372ZM56.5 24a3 3 0 0 1 3 3v10a3 3 0 0 1-3 3h-8.372c.32-.646.604-1.313.847-2H56.5a1 1 0 0 0 1-1V27a1 1 0 0 0-1-1h-7.525a17.868 17.868 0 0 0-.847-2H56.5Zm-19.207 1.293a1 1 0 1 1 1.414 1.414L33.414 32l5.293 5.293a1 1 0 1 1-1.414 1.414L32 33.414l-5.293 5.293a1 1 0 1 1-1.414-1.414L30.586 32l-5.293-5.293a1 1 0 1 1 1.414-1.414L32 30.586l5.293-5.293ZM14.25 29c-.11.655-.185 1.323-.222 2H9.5v-2h4.75ZM56.5 6a3 3 0 0 1 3 3v10a3 3 0 0 1-3 3h-9.532a18.127 18.127 0 0 0-1.553-2H56.5a1 1 0 0 0 1-1V9a1 1 0 0 0-1-1h-49a1 1 0 0 0-1 1v10a1 1 0 0 0 1 1h11.085a18.074 18.074 0 0 0-1.553 2H7.5a3 3 0 0 1-3-3V9a3 3 0 0 1 3-3h49Zm-37 7h-10v-2h10v2Z" class="Primary"/>
  </g>
</svg>
