<svg xmlns="http://www.w3.org/2000/svg" width="64" height="64" fill="none" viewBox="0 0 64 64">
  <g class="64x64/Outline/nosite">
    <path fill="#53707F" fill-rule="evenodd" d="m32 3.662 27.664 24.59-1.328 1.495L32 6.338 5.664 29.748l-1.328-1.495L32 3.663ZM32 58c7.732 0 14-6.268 14-14s-6.268-14-14-14-14 6.268-14 14 6.268 14 14 14Zm7.752 0C44.671 55.27 48 50.024 48 44c0-8.837-7.163-16-16-16s-16 7.163-16 16c0 6.024 3.33 11.27 8.248 14l.125.069A15.93 15.93 0 0 0 32 60c2.813 0 5.456-.726 7.752-2ZM55 32 32 11.5 9 32v24a4 4 0 0 0 4 4h6.998a20.114 20.114 0 0 1-2.28-2H13a2 2 0 0 1-2-2V32.897l21-18.718 21 18.718V56a2 2 0 0 1-2 2h-4.717a20.114 20.114 0 0 1-2.281 2H51a4 4 0 0 0 4-4V32Zm-29.707 5.293a1 1 0 0 1 1.414 0L32 42.586l5.293-5.293a1 1 0 0 1 1.414 1.414L33.414 44l5.293 5.293a1 1 0 0 1-1.414 1.414L32 45.414l-5.293 5.293a1 1 0 0 1-1.414-1.414L30.586 44l-5.293-5.293a1 1 0 0 1 0-1.414Z" class="Primary" clip-rule="evenodd"/>
  </g>
</svg>
