<svg xmlns="http://www.w3.org/2000/svg" width="64" height="64" fill="none" viewBox="0 0 64 64">
  <g class="64x64/Outline/notification">
    <path fill="#53707F" d="M37.157 53c0 1.375-.49 2.552-1.47 3.531-.978.98-2.155 1.469-3.53 1.469s-2.552-.49-3.532-1.469c-.979-.98-1.468-2.156-1.468-3.531h10Zm-5-46a4 4 0 0 1 4 4v.475c7.458 1.799 13 8.514 13 16.525v21.007H53a1 1 0 1 1 0 2H11a1 1 0 0 1 0-2h4.157V28c0-8.011 5.54-14.728 13-16.526V11a4 4 0 0 1 4-4Zm0 6c-8.285 0-15 6.716-15 15v21h30V28c0-8.284-6.716-15-15-15Z" class="Primary"/>
  </g>
</svg>
