<svg xmlns="http://www.w3.org/2000/svg" width="64" height="64" fill="none" viewBox="0 0 64 64">
  <g class="64x64/Outline/openfolder">
    <path fill="#53707F" d="M50.764 24a5 5 0 0 1 4.932 4.178L58 42.003V20a3 3 0 0 0-2.824-2.995L55 17H35.172l-3.829-3.828a4 4 0 0 0-2.602-1.166L28.515 12H13a4 4 0 0 0-3.995 3.8L9 16v8h41.764Zm0 2H5.541a1 1 0 0 0-.999 1.048l.013.116 4 24a1 1 0 0 0 .866.829l.12.007H56.46a1 1 0 0 0 .999-1.048l-.013-.116-3.721-22.33a3 3 0 0 0-2.777-2.5L50.764 26ZM9.541 54a3 3 0 0 1-2.959-2.507l-4-24A3 3 0 0 1 5.542 24H7v-8a6 6 0 0 1 6-6h15.515a6 6 0 0 1 4.242 1.757L36 15h19a5 5 0 0 1 5 5v31a3 3 0 0 1-3 3H9.541Z" class="Primary"/>
  </g>
</svg>
