<svg xmlns="http://www.w3.org/2000/svg" width="64" height="64" fill="none" viewBox="0 0 64 64">
  <g class="64x64/Outline/perpetual">
    <path fill="#53707F" d="M46 5a2 2 0 0 1 2 2v14.03c1.468.09 2.882.38 4.218.841C58.49 24.034 63 29.99 63 37.001c0 8.5-6.63 15.453-15 15.969V57a2 2 0 0 1-2 2H2a1 1 0 0 1-1-1V22.766a1 1 0 0 1 .815-.984L20 18.375V7a2 2 0 0 1 2-2h24ZM3 23.596V57h17V20.41L3 23.595ZM22 57h24v-4.031C37.63 52.452 31 45.5 31 37c0-.167.003-.33.008-.49v-.002c.25-8.277 6.785-14.971 14.992-15.478V7H22v50Zm25.001-34c-7.586 0-13.765 6.035-13.994 13.567a15.96 15.96 0 0 0-.007.434C33 44.732 39.27 51 47.001 51S61 44.732 61 37.001c0-6.132-3.943-11.346-9.435-13.24A13.964 13.964 0 0 0 47.001 23ZM52 33c2.206 0 4 1.794 4 4s-1.794 4-4 4c-2.028 0-3.566-1.232-5-2.603C45.566 39.767 44.028 41 42 41c-2.206 0-4-1.794-4-4s1.794-4 4-4c2.028 0 3.566 1.232 5 2.603C48.434 34.233 49.972 33 52 33Zm-10 2c-1.103 0-2 .897-2 2s.897 2 2 2c1.275 0 2.41-.9 3.566-2-1.155-1.1-2.29-2-3.566-2Zm10 0c-1.275 0-2.41.9-3.566 2 1.155 1.1 2.29 2 3.566 2 1.103 0 2-.897 2-2s-.897-2-2-2Zm-41 1H6v-2h5v2Zm6-4H6v-2h11v2Zm0-4H6v-2h11v2Zm18-8H25v-2h10v2Zm8-4H25v-2h18v2Zm0-4H25v-2h18v2Z" class="Primary"/>
  </g>
</svg>
