<svg xmlns="http://www.w3.org/2000/svg" width="64" height="64" fill="none" viewBox="0 0 64 64">
  <g class="64x64/Outline/time">
    <path fill="#53707F" d="M32 4c15.464 0 28 12.536 28 28S47.464 60 32 60 4 47.464 4 32 16.536 4 32 4Zm0 2C17.64 6 6 17.64 6 32s11.64 26 26 26 26-11.64 26-26S46.36 6 32 6Zm13.588 11.977c.452-.425 1.126-.445 1.505-.042.378.402.318 1.073-.134 1.499L35.555 30.167a4 4 0 1 1-7.187.158l-.013-.01-5.826-5.484a1 1 0 1 1 1.37-1.456l5.736 5.4A3.981 3.981 0 0 1 32 28a3.98 3.98 0 0 1 2.223.675l11.365-10.698ZM32 30a2 2 0 1 0 0 4 2 2 0 0 0 0-4Z" class="Primary"/>
  </g>
</svg>
