<svg xmlns="http://www.w3.org/2000/svg" width="64" height="64" fill="none" viewBox="0 0 64 64">
  <g class="64x64/Outline/warning">
    <path fill="#FFCA28" fill-rule="evenodd" d="M3.31 31.253 31.253 3.31a1.057 1.057 0 0 1 1.494 0l27.944 27.943a1.057 1.057 0 0 1 0 1.494L32.746 60.691a1.057 1.057 0 0 1-1.494 0L3.31 32.746a1.057 1.057 0 0 1 0-1.494Zm-.708 2.201a2.057 2.057 0 0 1 0-2.908L30.546 2.602a2.057 2.057 0 0 1 2.908 0l27.944 27.944a2.057 2.057 0 0 1 0 2.908L33.454 61.398a2.057 2.057 0 0 1-2.908 0L2.602 33.454ZM29 18a1 1 0 0 1 1-1h4a1 1 0 0 1 1 1v17a1 1 0 0 1-1 1h-4a1 1 0 0 1-1-1V18Zm0 23a1 1 0 0 1 1-1h4a1 1 0 0 1 1 1v4a1 1 0 0 1-1 1h-4a1 1 0 0 1-1-1v-4Z" class="Primary" clip-rule="evenodd"/>
  </g>
</svg>
