<?xml version="1.0" encoding="UTF-8" standalone="no"?>
<!-- Created with Inkscape (http://www.inkscape.org/) -->

<svg
   xmlns:dc="http://purl.org/dc/elements/1.1/"
   xmlns:cc="http://creativecommons.org/ns#"
   xmlns:rdf="http://www.w3.org/1999/02/22-rdf-syntax-ns#"
   xmlns:svg="http://www.w3.org/2000/svg"
   xmlns="http://www.w3.org/2000/svg"
   version="1.1"
   width="70"
   height="27"
   id="svg2"
   xml:space="preserve"><metadata
     id="metadata8"><rdf:RDF><cc:Work
         rdf:about=""><dc:format>image/svg+xml</dc:format><dc:type
           rdf:resource="http://purl.org/dc/dcmitype/StillImage" /><dc:title></dc:title></cc:Work></rdf:RDF></metadata><defs
     id="defs6"><clipPath
       id="clipPath16"><path
         d="M 0,85 224,85 224,0 0,0 0,85 z"
         id="path18" /></clipPath></defs><path
     d="m 70,0 0,23 c 0,2.216 -1.784,4 -4,4 L 4,27 C 1.784,27 0,25.216 0,23 L 0,0 z"
     id="rect3785"
     style="fill:#a5ce39;fill-opacity:1;stroke:none" /><path
     d="M 64.835823,17.972359 C 65.189186,17.436563 64.952597,17 64.313641,17 l -5.624797,0 c -0.641384,0 -0.878272,0.436563 -0.524603,0.972359 l 2.696828,4.082457 c 0.350946,0.535796 0.929702,0.535796 1.283066,0 l 2.691688,-4.082457 z"
     id="path30"
     style="fill:#212a2f;fill-opacity:1;fill-rule:nonzero;stroke:none" /><g
     transform="matrix(0.89314279,0,0,0.89314279,3.3090725,-28.230514)"
     id="g3017"><path
       d="m 53.121627,49.082854 c -0.461429,2.254592 -2.199369,3.436876 -3.815541,3.798404 -1.334677,0.278296 -2.670307,0.228476 -3.9723,-0.20182 -1.868421,-0.617835 -3.0035,-2.108955 -3.043166,-4.094153 -0.04252,-2.122601 -0.02824,-4.246788 -0.01015,-6.370023 0.0089,-1.087162 0.664482,-1.77481 1.619954,-1.783061 0.977685,-0.0082 1.645975,0.705101 1.653591,1.812572 0.01363,1.943311 -0.0076,3.886622 0.01079,5.829615 0.01556,1.611387 1.391162,2.59764 2.877839,2.070559 0.836157,-0.2967 1.327379,-0.911363 1.346419,-1.804004 0.03776,-1.7618 0.02888,-3.524869 0.0403,-5.287303 0.0023,-0.340492 -0.01015,-0.682253 0.0165,-1.021158 0.06823,-0.868207 0.59245,-1.463195 1.375613,-1.588222 1.126119,-0.02002 1.797882,0.698765 1.900155,1.301993 z"
       id="path34-4"
       style="fill:#212b31;fill-opacity:1;fill-rule:nonzero;stroke:none" /><path
       d="m 22.711733,41.723564 c 0.282103,-0.865986 0.81553,-1.303897 1.667236,-1.290252 0.964992,0.01523 1.607896,0.724458 1.639311,1.84843 0.02539,0.920883 0.0063,1.843035 0.0067,2.76487 0,3.486155 3.05e-4,6.972627 -0.0013,10.458782 0,0.219908 0.0038,0.442672 -0.02634,0.659406 -0.144067,1.044323 -0.809184,1.633917 -1.763704,1.576481 -0.883438,-0.05331 -1.51238,-0.75746 -1.528881,-1.762435 -0.01872,-1.141742 -0.0051,-2.28412 -0.0054,-3.42618 0,-0.17326 0,-0.346521 0,-0.605777 -0.682253,0.461076 -1.317225,0.831397 -2.049298,0.976415 -1.822727,0.361436 -3.372552,-0.17802 -4.638052,-1.497466 -2.428504,-2.531635 -2.300621,-7.321687 0.194839,-9.800646 1.578067,-1.567595 4.759271,-1.966793 6.504887,0.09837"
       id="path38-1"
       style="fill:#212b31;fill-opacity:1;fill-rule:nonzero;stroke:none" /><path
       d="m 26.76054,41.851573 c 0.231649,-1.008148 0.89518,-1.531737 1.817649,-1.434318 0.883122,0.09329 1.464465,0.801251 1.467955,1.81289 0.007,1.960446 -0.0086,3.920893 0.0098,5.881022 0.0146,1.559345 1.263279,2.469439 2.759159,2.041364 0.866937,-0.248149 1.338168,-0.873284 1.444155,-1.915703 0.0971,-1.477792 0.01206,-2.957488 0.04316,-4.435915 0.01428,-0.65877 -0.04665,-1.319128 0.03586,-1.97663 0.198647,-0.943413 0.827589,-1.460656 1.714518,-1.410836 0.894862,0.05014 1.544748,0.737468 1.558393,1.79385 0.02888,2.202567 0.08599,4.410211 -0.02824,6.607384 -0.09647,1.857315 -1.111914,3.205955 -2.899417,3.823156 -1.889366,0.652424 -3.78476,0.650203 -5.622083,-0.251006 -1.467003,-0.719698 -2.182259,-1.929983 -2.301574,-3.528994 -0.05839,-2.335527 -0.05997,-4.670737 6.35e-4,-7.006264"
       id="path42"
       style="fill:#212b31;fill-opacity:1;fill-rule:nonzero;stroke:none" /><path
       d="m 41.575969,43.995847 c 0,2.383444 0.01175,4.766887 -0.0047,7.150331 -0.0083,1.24297 -1.002754,2.007728 -2.125457,1.675804 -0.646078,-0.191031 -0.990061,-0.653694 -1.111597,-1.287396 -0.05236,-0.272267 -0.04855,-0.557861 -0.04887,-0.837743 -0.0025,-4.466379 -0.0019,-8.932757 -0.0013,-13.399135 0,-0.180241 -6.34e-4,-0.361118 0.01364,-0.540408 0.08155,-1.024014 0.752383,-1.659937 1.708173,-1.625031 0.901843,0.033 1.559979,0.726996 1.565691,1.713248 0.01333,2.383444 0.0044,4.766887 0.0044,7.15033"
       id="path46"
       style="fill:#212b31;fill-opacity:1;fill-rule:nonzero;stroke:none" /><path
       d="M 22.699389,46.624489 C 22.684792,47.480955 22.498838,48.289504 22,49 c -0.918027,1.308339 -2.699818,1.342928 -3.678138,0.0787 -1.001167,-1.293108 -0.997041,-3.530581 0.0083,-4.828131 0.985618,-1.27153 2.816595,-1.226469 3.7324,0.103131 0.468058,0.679397 0.644809,1.451137 0.636876,2.270792"
       id="path50"
       style="fill:#a5ce39;fill-opacity:1;fill-rule:nonzero;stroke:none" /></g></svg>