<svg xmlns="http://www.w3.org/2000/svg" width="16" height="16" fill="none" viewBox="0 0 16 16">
  <g class="16x16/Outline/cloud_offline">
    <path fill="#EF5350" fill-rule="evenodd" d="M6.375 12.004h-1.45l1.383-1H12.1a1.9 1.9 0 0 0 0-3.8h-.535l1.258-.909a2.901 2.901 0 0 1-.723 5.71H6.375Zm1.625-8c.726 0 1.384.276 1.874.724l.823-.595A3.766 3.766 0 0 0 8 3.004a3.75 3.75 0 0 0-3.512 2.4H4.3a3.3 3.3 0 0 0-2.65 5.268l.811-.586A2.3 2.3 0 0 1 4.3 6.404h.938l.098-.373A2.743 2.743 0 0 1 8 4.004Zm5.826-.927L1.191 12.21l.618.786 12.635-9.133-.618-.786Z" class="Primary" clip-rule="evenodd"/>
  </g>
</svg>
