<svg xmlns="http://www.w3.org/2000/svg" width="16" height="16" fill="none" viewBox="0 0 16 16">
  <path fill="#E5E9EB" d="M8.01 14a6.24 6.24 0 0 1-.804-.052 6.007 6.007 0 0 1-3.442-1.713 5.972 5.972 0 0 1-1.707-3.438 5.934 5.934 0 0 1 1.164-4.43 5.96 5.96 0 0 1 3.963-2.31A5.996 5.996 0 0 1 13.94 7.17c.135.94.041 1.912-.272 2.808a1.92 1.92 0 0 1-1.803 1.265h-.02a1.947 1.947 0 0 1-1.742-1.098l-.072-.15-.123.11a2.835 2.835 0 0 1-1.915.741 2.824 2.824 0 0 1-1.71-.57 2.81 2.81 0 0 1-1.1-1.868 2.802 2.802 0 0 1 .545-2.097 2.814 2.814 0 0 1 2.268-1.125c.619 0 1.211.197 1.707.571l.197.148v-.254a.468.468 0 0 1 .938 0V9.3a1.01 1.01 0 0 0 1.004 1.005h.022a.979.979 0 0 0 .916-.635v-.003c.11-.32.19-.652.234-.99a5.001 5.001 0 0 0-.997-3.73 5.025 5.025 0 0 0-3.35-1.935 5.074 5.074 0 0 0-3.27.674C3.011 5.124 2.234 8.23 3.67 10.615a5.063 5.063 0 0 0 1.883 1.816c.75.413 1.601.632 2.46.632.913 0 1.81-.248 2.598-.72a.471.471 0 0 1 .698.514.466.466 0 0 1-.212.288A5.964 5.964 0 0 1 8.023 14H8.01Zm-.007-7.875c-1.049 0-1.9.849-1.9 1.895s.851 1.895 1.9 1.895c1.046 0 1.9-.852 1.9-1.895a1.898 1.898 0 0 0-1.9-1.895Z"/>
</svg>
