<svg xmlns="http://www.w3.org/2000/svg" width="16" height="16" fill="none" viewBox="0 0 16 16">
  <g class="16x16/Outline/emergency">
    <path fill="#E1E7EA" d="M8.8 2.4a.8.8 0 0 1 .8.8V4h-.4a2.4 2.4 0 0 1 1.92.96L12.8 7.2h1.6A1.6 1.6 0 0 1 16 8.8v.8a1.6 1.6 0 0 1-1.6 1.6h-.04a2 2 0 0 1-3.92 0H6.36a2 2 0 0 1-3.92 0H1.6A1.6 1.6 0 0 1 0 9.6V7.733a1.6 1.6 0 0 1 .32-.96L2.16 4.32A.8.8 0 0 1 2.8 4H8v-.8a.8.8 0 0 1 .8-.8ZM7.2 4.8H2.8L.96 7.253a.8.8 0 0 0-.153.377L.8 7.733V9.6a.8.8 0 0 0 .707.795l.093.005h.84a2 2 0 0 1 3.92 0h4.08a2 2 0 0 1 3.92 0h.04a.8.8 0 0 0 .795-.707L15.2 9.6v-.8a.8.8 0 0 0-.707-.795L14.4 8H7.2V4.8Zm-2.4.8v.8h.8v.8h-.8V8H4v-.8h-.8v-.8H4v-.8h.8Zm4.4-.8H8v2.4h3.8l-1.32-1.76a1.6 1.6 0 0 0-1.143-.634L9.2 4.8Zm-5.987 5.824a1.21 1.21 0 0 0-.013.176l.007.128.007.053.003.019-.003-.012.005.027.003.015.002.009.002.012.014.056-.003-.011.003.012v.002l.007.022.02.066a1.2 1.2 0 0 0 2.307-.15l.002-.01.005-.023.004-.027-.003.012.004-.019.003-.027.002-.012-.002.012.008-.062A1.39 1.39 0 0 0 5.6 10.8l-.007-.132a1.175 1.175 0 0 0-.006-.044l-.007-.043.003.022-.011-.064-.009-.034-.003-.01v.001l-.002-.006-.003-.015a1.188 1.188 0 0 0-.02-.063l.007.022-.01-.031a1.2 1.2 0 0 0-2.304.137l-.008.041-.004.022-.003.02v.001Zm8 0a1.213 1.213 0 0 0-.013.176l.007.128.007.053.003.019-.003-.012.005.027.003.015.002.009.002.012.014.056-.003-.011.003.012v.002l.007.022.02.066a1.2 1.2 0 0 0 2.307-.15l.002-.01.005-.023.004-.027-.003.012.004-.019.003-.027.002-.012-.002.012.008-.062a1.39 1.39 0 0 0 .003-.092l-.007-.132a1.264 1.264 0 0 0-.006-.044l-.007-.043.003.022-.011-.064-.008-.034-.004-.01v.001l-.002-.006-.002-.015a1.207 1.207 0 0 0-.02-.063l.006.022-.01-.031a1.2 1.2 0 0 0-2.304.137l-.008.041-.004.022-.003.02v.001Z" class="Primary"/>
  </g>
</svg>
