<svg xmlns="http://www.w3.org/2000/svg" width="16" height="16" fill="none" viewBox="0 0 16 16">
  <g class="16x16/Outline/error">
    <path fill="#EF5350" fill-rule="evenodd" d="M3 8V5.828a1 1 0 0 1 .293-.707L5.12 3.293A1 1 0 0 1 5.828 3h4.344a1 1 0 0 1 .707.293l1.828 1.828a1 1 0 0 1 .293.707v4.344a1 1 0 0 1-.293.707l-1.828 1.828a1 1 0 0 1-.707.293H5.828a1 1 0 0 1-.707-.293L3.293 10.88A1 1 0 0 1 3 10.172V8ZM2 5.828a2 2 0 0 1 .586-1.414l1.828-1.828A2 2 0 0 1 5.828 2h4.344a2 2 0 0 1 1.414.586l1.828 1.828A2 2 0 0 1 14 5.828v4.344a2 2 0 0 1-.586 1.414l-1.828 1.828a2 2 0 0 1-1.414.586H5.828a2 2 0 0 1-1.414-.586l-1.828-1.828A2 2 0 0 1 2 10.172V5.828Zm3.846.018a.5.5 0 0 1 .707 0L8 7.293l1.448-1.447a.5.5 0 1 1 .707.707L8.707 8l1.448 1.447a.5.5 0 1 1-.707.707L8 8.707l-1.447 1.447a.5.5 0 0 1-.707-.707L7.293 8 5.846 6.553a.5.5 0 0 1 0-.707Z" class="Primary" clip-rule="evenodd"/>
  </g>
</svg>
