<svg xmlns="http://www.w3.org/2000/svg" width="16" height="16" fill="none" viewBox="0 0 16 16">
  <g class="16x16/Outline/future" clip-path="url(#a)">
    <path fill="#E1E7EA" d="M14.5 8a6.5 6.5 0 0 0-1.904-4.596l.708-.708a7.5 7.5 0 0 1 1.758 7.83l-.133.344a7.498 7.498 0 0 1-3.722 3.91l-.337.149a7.502 7.502 0 0 1-5.396.133l-.344-.133a7.499 7.499 0 0 1-2.434-1.625l.708-.708A6.499 6.499 0 0 0 14.5 8ZM.5 8a7.5 7.5 0 0 1 12.804-5.304l-.708.708a6.5 6.5 0 0 0-9.193 9.192l-.353.353-.354.355A7.5 7.5 0 0 1 .5 8Zm7-3.733a.5.5 0 0 1 1 0V7.74l3.058 2.186a.5.5 0 0 1-.581.813L7.709 8.407A.5.5 0 0 1 7.5 8V4.267Z" class="Primary (Stroke)"/>
  </g>
  <defs>
    <clipPath id="a">
      <path fill="#ffffff" d="M0 0h16v16H0z"/>
    </clipPath>
  </defs>
</svg>
