<svg xmlns="http://www.w3.org/2000/svg" width="16" height="16" fill="none" viewBox="0 0 16 16">
  <g class="16x16/Outline/key">
    <path fill="#E1E7EA" fill-rule="evenodd" d="M10.144 10.296a4.136 4.136 0 0 0-1.29-2.997L10.6 5.601l.902.877a.98.98 0 0 0 1.358 0l1.359-1.321a.916.916 0 0 0 0-1.321l-.902-.878.679-.66a.458.458 0 0 0 0-.661.49.49 0 0 0-.68 0L8.093 6.718a4.391 4.391 0 0 0-2.271-.627c-2.387 0-4.322 1.883-4.322 4.205S3.435 14.5 5.822 14.5s4.322-1.882 4.322-4.204Zm-4.322 3.27c1.856 0 3.361-1.464 3.361-3.27s-1.505-3.27-3.361-3.27c-1.857 0-3.362 1.464-3.362 3.27s1.505 3.27 3.362 3.27Zm6.36-7.748-.88-.861 1.358-1.321.88.86-1.359 1.322Z" class="Primary" clip-rule="evenodd"/>
  </g>
</svg>
