<svg xmlns="http://www.w3.org/2000/svg" width="16" height="16" fill="none" viewBox="0 0 16 16">
  <g class="16x16/Outline/missed_call">
    <path fill="#EF5350" fill-rule="evenodd" d="M2.674 3.138a.503.503 0 0 0-.454.894l5.5 2.81a.498.498 0 0 0 .482-.015l4.21-2.504-.37 1.537a.5.5 0 1 0 .972.236l.65-2.694a.502.502 0 0 0-.345-.599l-2.65-.782a.502.502 0 0 0-.282.963l1.548.456-4.006 2.383-5.255-2.685Zm-.573 6.517-.451.273c-.659.394-.851 1.213-.419 1.827l.913 1.297c.681.967 2.076 1.236 3.117.613l1.054-.631c.741-.444 1.025-1.602.72-2.34.301-.066.624-.103.965-.103.34 0 .664.037.964.103-.304.738-.02 1.895.72 2.339l1.055.631c1.041.623 2.436.354 3.117-.613l.913-1.297c.432-.614.24-1.433-.419-1.827l-.449-.272C12.245 8.651 10.475 7.578 8 7.578c-2.474 0-4.244 1.073-5.9 2.077Zm11.279.796.43.258a.37.37 0 0 1 .122.535l-.913 1.296c-.378.538-1.156.69-1.739.341l-1.054-.631c-.389-.233-.499-1.012-.247-1.37l.16-.228a.412.412 0 0 0-.185-.633A5.358 5.358 0 0 0 8 9.66c-.713 0-1.377.132-1.955.359a.412.412 0 0 0-.185.633l.16.229c.253.358.143 1.137-.246 1.37l-1.054.631c-.582.349-1.361.196-1.74-.34l-.912-1.297a.369.369 0 0 1 .123-.535l.432-.26C4.308 9.432 5.835 8.51 8 8.51c2.166 0 3.694.923 5.38 1.942Z" class="Primary" clip-rule="evenodd"/>
  </g>
</svg>
