<svg xmlns="http://www.w3.org/2000/svg" width="16" height="16" fill="none" viewBox="0 0 16 16">
  <g class="16x16/Outline/motion">
    <path fill="#E1E7EA" fill-rule="evenodd" d="M9.5 4a1 1 0 1 0 0-2 1 1 0 0 0 0 2Zm.135 6.809V14h.96v-3.886L9.14 8.993l.623-2.11c.48.552 1 .966 1.559 1.242.56.276.964.414 1.678.414v-.802c-.64 0-.967-.138-1.446-.414-.48-.276-.858-.6-1.135-.974l-.672-.895a1.123 1.123 0 0 0-.424-.34A1.35 1.35 0 0 0 8.756 5c-.15 0-.296.016-.44.047a6.485 6.485 0 0 0-.727.233l-2.622.922v2.337h.959v-1.79l1.599-.627-1.167 4.927-3.182-.534-.176.748 4.237.734.671-2.51 1.727 1.322Z" class="Primary" clip-rule="evenodd"/>
  </g>
</svg>
