<svg xmlns="http://www.w3.org/2000/svg" width="16" height="16" fill="none" viewBox="0 0 16 16">
  <g class="16x16/Outline/person">
    <path fill="#E1E7EA" d="M2.4 11.2v2.4h2.4v.8H2.4a.8.8 0 0 1-.8-.8v-2.4h.8Zm12 0v2.4a.8.8 0 0 1-.8.8h-2.4v-.8h2.4v-2.4h.8ZM8 5.2c1.96 0 2.8 1.32 2.8 3.2a.4.4 0 0 1-.8 0c0-.967-.242-1.688-.8-2.076V12.4a.4.4 0 0 1-.8 0V9.6a.4.4 0 1 0-.8 0v2.8a.4.4 0 0 1-.8 0V6.323C6.243 6.711 6 7.433 6 8.4a.4.4 0 0 1-.8 0c0-1.88.84-3.2 2.8-3.2Zm5.6-3.6a.8.8 0 0 1 .8.8v2.4h-.8V2.4h-2.4v-.8h2.4Zm-8.8 0v.8H2.4v2.4h-.8V2.4a.8.8 0 0 1 .8-.8h2.4ZM8 3.2a.8.8 0 1 1 0 1.6.8.8 0 0 1 0-1.6Z" class="Primary"/>
  </g>
</svg>
