<svg xmlns="http://www.w3.org/2000/svg" width="16" height="16" fill="none" viewBox="0 0 16 16">
  <g class="16x16/Outline/soft_trigger">
    <path fill="#E5E9EB" fill-rule="evenodd" d="M4.005 3.928a.5.5 0 1 1-1 0C3.005 2.264 4.49 1 6.205 1c1.713 0 3.2 1.264 3.2 2.928a.5.5 0 1 1-1 0C8.404 2.914 7.467 2 6.204 2c-1.264 0-2.2.914-2.2 1.928Zm1.3 7.553a.5.5 0 0 0 .5-.5V3.928c0-.123.127-.31.4-.31.271 0 .399.187.399.31v5.718a.5.5 0 1 0 1 0V7.244a.51.51 0 0 0 0-.026c0-.122.128-.309.4-.309.273 0 .4.187.4.31v2.427a.5.5 0 1 0 1 0V8.027c0-.122.128-.309.4-.309s.4.187.4.31v1.618a.5.5 0 0 0 1 0v-.813c.002-.122.13-.306.4-.306.272 0 .4.188.4.31v3.71a2.11 2.11 0 0 1-.602 1.454H5.416c-.887-.437-1.411-1.258-1.411-2.119V9.646c0-.122.128-.31.4-.31h.4v1.645a.5.5 0 0 0 .5.5Zm2.7-5.572c-.137 0-.272.02-.401.056V3.928c0-.772-.678-1.31-1.4-1.31-.722 0-1.4.538-1.4 1.31v4.409h-.4c-.721 0-1.4.537-1.4 1.309v2.236c0 1.328.834 2.508 2.096 3.075a.5.5 0 0 0 .205.044h6.299a.5.5 0 0 0 .334-.128c.675-.607 1.066-1.442 1.066-2.326v-3.71c0-.772-.678-1.31-1.4-1.31a1.48 1.48 0 0 0-.472.078c-.194-.538-.747-.887-1.328-.887a1.48 1.48 0 0 0-.472.078c-.194-.538-.746-.887-1.328-.887Z" class="Primary" clip-rule="evenodd"/>
  </g>
</svg>
