<svg xmlns="http://www.w3.org/2000/svg" width="16" height="16" fill="none" viewBox="0 0 16 16">
  <g class="16x16/Outline/storage">
    <path fill="#E1E7EA" fill-rule="evenodd" d="M2.878 3.279A1.5 1.5 0 0 1 4.362 2h7.276a1.5 1.5 0 0 1 1.484 1.279l.862 5.774c.01.073.016.147.016.221V12.5a1.5 1.5 0 0 1-1.5 1.5h-9A1.5 1.5 0 0 1 2 12.5V9.274a1.5 1.5 0 0 1 .016-.221l.862-5.774ZM4.362 3a.5.5 0 0 0-.495.426L3.035 9h9.93l-.832-5.574A.5.5 0 0 0 11.638 3H4.362ZM13 10H3v2.5a.5.5 0 0 0 .5.5h9a.5.5 0 0 0 .5-.5V10ZM9.5 6c0 .552-.672 1-1.5 1s-1.5-.448-1.5-1S7.172 5 8 5s1.5.448 1.5 1Z" class="Primary" clip-rule="evenodd"/>
  </g>
</svg>
