<svg xmlns="http://www.w3.org/2000/svg" width="16" height="16" fill="none" viewBox="0 0 16 16">
  <g class="16x16/Outline/things">
    <path fill="#E1E7EA" d="M14.4 3.2v1.6h-.8v.8a.8.8 0 0 1-.8.8h-2.4v.8a1.6 1.6 0 0 1-1.6 1.6H7.2l-.543 2.714A1.6 1.6 0 0 1 5.088 12.8H3.2a1.6 1.6 0 0 1-1.37-.773l1.115-4.465a.8.8 0 0 0-.494-.942l-.089-.028L1.6 6.4V4a.8.8 0 0 1 .8-.8h12Zm-8 3.2H3.442l.05.069c.225.332.325.745.255 1.161l-.026.125-1.017 4.071.016.014a.796.796 0 0 0 .375.153L3.2 12h1.888a.8.8 0 0 0 .76-.552l.025-.091.527-2.639V6.4Zm3.2 0H7.2V8h1.6a.8.8 0 0 0 .795-.707L9.6 7.2v-.8ZM3.2 4h-.8v1.6h10.4V4H5.6v.8h-.8V4H4v.8h-.8V4Z" class="Primary"/>
  </g>
</svg>
