<svg xmlns="http://www.w3.org/2000/svg" width="16" height="16" fill="none" viewBox="0 0 16 16">
  <g class="16x16/Outline/vehicle">
    <path fill="#E1E7EA" d="M4.4 12.8a2 2 0 0 1-1.96-1.6H0V2.4h10.4V4h4C15.467 5.244 16 6.311 16 7.2v2.4a1.6 1.6 0 0 1-1.6 1.6h-.04a2 2 0 0 1-3.92 0H6.36a2 2 0 0 1-1.96 1.6Zm6.84-1.692v.002l.007.022.02.066a1.2 1.2 0 0 0 2.307-.15l.002-.01.005-.023.004-.027-.003.012.004-.019.003-.027.002-.012-.002.012.008-.062a1.39 1.39 0 0 0 .003-.092l-.007-.132a1.264 1.264 0 0 0-.006-.044l-.007-.043.003.022-.011-.064-.008-.034-.004-.01v.001l-.002-.006-.002-.015a1.207 1.207 0 0 0-.02-.063l.006.022-.01-.031a1.2 1.2 0 0 0-2.304.137l-.008.041-.004.022-.003.02v.001l-.01.087-.003.089.007.128.007.053.003.019-.003-.012.005.027.003.015.002.009.002.012.014.056v.001ZM4.4 9.6a1.2 1.2 0 0 0-1.187 1.023l.015-.083a1.1 1.1 0 0 0-.02.128l.005-.045a1.21 1.21 0 0 0-.013.177l.007.128a1.208 1.208 0 0 0 .019.12l-.012-.067c.005.04.013.077.023.115l-.011-.048c.01.046.022.09.036.134l-.025-.086a1.2 1.2 0 0 0 2.35-.115l-.013.066c.009-.039.015-.079.02-.12l-.008.054c.01-.059.014-.12.014-.181l-.007-.132a1.196 1.196 0 0 0-.021-.129l.015.084a1.193 1.193 0 0 0-.024-.118l.009.034a1.193 1.193 0 0 0-.036-.128l.027.094A1.2 1.2 0 0 0 4.4 9.6Zm5.2-6.4H.8v7.2h1.64a2 2 0 0 1 3.92 0H9.6V3.2Zm2.8 1.6h-2v5.6h.04a2 2 0 0 1 3.92 0h.04a.8.8 0 0 0 .795-.707L15.2 9.6v-2h-2.8V4.8Zm1.624 0H13.2v2l1.951.001c-.12-.521-.462-1.158-1.042-1.896l-.085-.105Z" class="Primary"/>
  </g>
</svg>
