<svg xmlns="http://www.w3.org/2000/svg" width="16" height="16" fill="none" viewBox="0 0 16 16">
  <g class="16x16/Outline/warning">
    <path fill="#FFCA28" fill-rule="evenodd" d="M7.699 2.715 2.786 7.628a.526.526 0 0 0 0 .744L7.7 13.285a.526.526 0 0 0 .744 0l4.913-4.913a.527.527 0 0 0 0-.744L8.443 2.715a.526.526 0 0 0-.744 0Zm-5.62 4.206a1.526 1.526 0 0 0 0 2.158l4.913 4.913a1.526 1.526 0 0 0 2.158 0l4.913-4.913a1.526 1.526 0 0 0 0-2.158L9.15 2.008a1.526 1.526 0 0 0-2.158 0L2.079 6.921ZM8.71 9.979a.693.693 0 1 1-1.387 0 .693.693 0 0 1 1.387 0ZM8 4.5a.5.5 0 0 0-.5.5v3a.5.5 0 0 0 1 0V5a.5.5 0 0 0-.5-.5Z" class="Primary" clip-rule="evenodd"/>
  </g>
</svg>
