<svg xmlns="http://www.w3.org/2000/svg" width="20" height="20" fill="none" viewBox="0 0 20 20">
  <g class="20x20/Outline/airtransport" clip-path="url(#a)">
    <path fill="#A5B7C0" d="M9.243 4.535a.5.5 0 0 1 .282.012l.087.04 2.473 1.417 1.145-.452a6.338 6.338 0 0 1 5.53.422 1.723 1.723 0 0 1-.175 3.064 20.608 20.608 0 0 1-3.325 1.14l-1.871.466-2.594 4.044a1 1 0 0 1-.6.43l-1.42.355a1 1 0 0 1-1.197-1.266l.709-2.29-5.976 1.49a1 1 0 0 1-1.212-.729l-.11-.444a1 1 0 0 1 .407-1.069l.678-.462L.03 8.532l1.62-1.144 3.06 1.534 4.033-1.596-1.547-1.493a.5.5 0 0 1 .149-.819l.077-.026 1.82-.453Zm2.731 6.462-2.553.637-.888 2.869 1.42-.355 2.021-3.15ZM1.737 8.55l-.19.134 2.058 2.187-1.647 1.12.111.445 12.949-3.228a19.604 19.604 0 0 0 3.164-1.085.722.722 0 0 0 .074-1.286 5.336 5.336 0 0 0-1.197-.515L15.66 7.497l-.643-.766.738-.62a5.336 5.336 0 0 0-1.915.281l-.243.09-.403.158-3.661 1.45.001-.001-4.87 1.927L1.736 8.55Zm7.551-2.996-.748.186 1.225 1.183 1.13-.448-1.607-.921Z" class="Primary"/>
  </g>
  <defs>
    <clipPath id="a" class="a">
      <path fill="#fff" d="M0 0h20v20H0z"/>
    </clipPath>
  </defs>
</svg>
