<svg xmlns="http://www.w3.org/2000/svg" width="20" height="20" fill="none" viewBox="0 0 20 20">
  <g class="20x20/Outline/angle">
    <path fill="#A5B7C0" d="M13.708 3.036a.75.75 0 0 1 .99 1.127l-8.156 7.168a4.806 4.806 0 0 1 1.594 4.214H18a.75.75 0 0 1 0 1.5H3.355a2.106 2.106 0 0 1-1.39-3.688l11.743-10.32ZM2.956 14.484a.606.606 0 0 0 .4 1.06h3.261a3.313 3.313 0 0 0-1.214-3.213l-2.447 2.153Zm7.695-5.149a.75.75 0 0 1 1.053.127 8.853 8.853 0 0 1 1.77 3.997.75.75 0 1 1-1.479.249 7.354 7.354 0 0 0-1.47-3.32.75.75 0 0 1 .126-1.053Z" class="Primary"/>
  </g>
</svg>
