<svg xmlns="http://www.w3.org/2000/svg" width="20" height="20" fill="none" viewBox="0 0 20 20">
  <g class="20x20/Outline/audit_trail">
    <path fill="#698796" d="M13.212 2a1 1 0 0 1 1 1v2.5h-1.5v-2H8.5v3.25A1.75 1.75 0 0 1 6.75 8.5H3.5v8h9.212V15h1.5v2a1 1 0 0 1-.897.995l-.103.005H3a1 1 0 0 1-.994-.898L2 17V6.831a1 1 0 0 1 .296-.709L6.152 2.29c.188-.186.442-.29.705-.29h6.355Zm.045 5.008C15.899 7.163 18 9.66 18 10.3l-.007.067C17.86 11.122 15.676 13.6 13 13.6l-.257-.007C10.101 13.438 8 10.939 8 10.3 8 9.64 10.239 7 13 7l.257.008ZM13 8.5c-.911 0-1.834.447-2.584 1.063a5.184 5.184 0 0 0-.74.737c.176.218.426.48.74.738.75.615 1.673 1.062 2.584 1.062s1.834-.447 2.584-1.062c.314-.257.563-.52.738-.738a5.181 5.181 0 0 0-.738-.738C14.834 8.947 13.911 8.5 13 8.5Zm.007 1.05a.75.75 0 1 1 0 1.501.75.75 0 0 1 0-1.5ZM3.539 7H6.75A.25.25 0 0 0 7 6.75V3.562L3.54 7Z" class="Primary"/>
  </g>
</svg>
