<svg xmlns="http://www.w3.org/2000/svg" width="20" height="20" fill="none" viewBox="0 0 20 20">
  <g class="20x20/Outline/bus">
    <path fill="#A5B7C0" d="M16 3a4 4 0 0 1 3.995 3.8L20 7v6a1 1 0 0 1-1 1h-1.05a2.5 2.5 0 0 1-4.9 0h-5.1a2.5 2.5 0 0 1-4.9 0H1a1 1 0 0 1-1-1V4a1 1 0 0 1 1-1h15ZM5.5 12a1.5 1.5 0 0 0-1.484 1.28l.02-.105a1.49 1.49 0 0 0-.027.164l.007-.06A1.62 1.62 0 0 0 4 13.5l.008.16a1.516 1.516 0 0 0 .024.15l-.018-.102c.008.056.019.111.033.166l-.015-.064c.012.056.027.11.044.164l-.03-.1a1.5 1.5 0 0 0 2.94-.166l-.018.101c.01-.049.018-.099.024-.15l-.006.049c.01-.068.014-.138.014-.208l-.008-.16a1.536 1.536 0 0 0-.027-.166l.019.106c-.007-.05-.017-.1-.03-.149l.01.043a1.487 1.487 0 0 0-.044-.159l.034.116A1.5 1.5 0 0 0 5.5 12Zm10 0a1.5 1.5 0 0 0-1.484 1.28l.02-.105a1.438 1.438 0 0 0-.027.164l.007-.06A1.51 1.51 0 0 0 14 13.5l.008.16a1.546 1.546 0 0 0 .024.15l-.018-.102c.008.056.019.111.033.166l-.015-.064c.012.056.027.11.044.164l-.03-.1a1.5 1.5 0 0 0 2.94-.166l-.018.101c.01-.049.018-.099.024-.15l-.006.049c.01-.068.014-.138.014-.208l-.009-.16a1.45 1.45 0 0 0-.026-.166l.019.106c-.007-.05-.017-.1-.03-.149l.01.043a1.484 1.484 0 0 0-.044-.159l.034.116A1.5 1.5 0 0 0 15.5 12Zm.5-8H1v9h2.05a2.5 2.5 0 0 1 4.9 0h5.1a2.5 2.5 0 0 1 4.9 0H19V9h-1.5a.5.5 0 0 1-.5-.5v-3a.5.5 0 0 1 .5-.5h.736c-.55-.614-1.35-1-2.236-1ZM5 5a1 1 0 0 1 1 1v2a1 1 0 0 1-1 1H3a1 1 0 0 1-1-1V6a1 1 0 0 1 1-1h2Zm5 0a1 1 0 0 1 1 1v2a1 1 0 0 1-1 1H8a1 1 0 0 1-1-1V6a1 1 0 0 1 1-1h2Zm5 0a1 1 0 0 1 1 1v2a1 1 0 0 1-1 1h-2a1 1 0 0 1-1-1V6a1 1 0 0 1 1-1h2Zm3.83 1H18v2h1v-.975l-.004-.176A2.99 2.99 0 0 0 18.83 6ZM5 6H3v2h2V6Zm5 0H8v2h2V6Zm5 0h-2v2h2V6Z" class="Primary"/>
  </g>
</svg>
