<svg xmlns="http://www.w3.org/2000/svg" width="20" height="20" fill="none" viewBox="0 0 20 20">
  <g class="20x20/Outline/car">
    <path fill="#A5B7C0" d="M11.5 4a3 3 0 0 1 2.4 1.2L16 8h2a2 2 0 0 1 2 2v1a2 2 0 0 1-2 2h-.05a2.5 2.5 0 0 1-4.9 0h-5.1a2.5 2.5 0 0 1-4.9 0H2a2 2 0 0 1-2-2V9.5A1.5 1.5 0 0 1 1.5 8h1a1 1 0 0 0 .8-.4l1.8-2.4A3 3 0 0 1 7.5 4h4Zm-6 7a1.5 1.5 0 0 0-1.484 1.28l.02-.105a1.406 1.406 0 0 0-.027.16l.007-.055c-.01.072-.016.145-.016.22l.008.16a1.496 1.496 0 0 0 .024.15l-.015-.083c.007.048.017.096.029.143l-.014-.06c.012.057.027.113.046.168l-.032-.108a1.5 1.5 0 0 0 2.937-.143l-.015.082c.01-.049.018-.099.024-.15l-.009.068c.011-.074.017-.15.017-.227l-.009-.165a1.541 1.541 0 0 0-.026-.16l.019.105c-.007-.05-.017-.1-.03-.149l.01.043a1.487 1.487 0 0 0-.044-.159l.034.116A1.5 1.5 0 0 0 5.5 11Zm10 0a1.5 1.5 0 0 0-1.484 1.28l.02-.105a1.406 1.406 0 0 0-.027.16l.007-.055a1.51 1.51 0 0 0-.016.22l.008.16a1.639 1.639 0 0 0 .024.15l-.015-.083c.007.048.017.096.029.143l-.014-.06c.012.057.027.113.046.168l-.032-.108a1.5 1.5 0 0 0 2.937-.143l-.015.082c.01-.049.018-.099.024-.15l-.009.068c.011-.074.017-.15.017-.227l-.009-.165a1.693 1.693 0 0 0-.026-.16l.019.105c-.007-.05-.017-.1-.03-.149l.01.043a1.484 1.484 0 0 0-.044-.159l.034.116A1.5 1.5 0 0 0 15.5 11ZM18 9H1.5a.5.5 0 0 0-.492.41L1 9.5V11a1 1 0 0 0 .883.993L2 12h1.05a2.5 2.5 0 0 1 4.9 0h5.1a2.5 2.5 0 0 1 4.9 0H18a1 1 0 0 0 .993-.883L19 11v-1a1 1 0 0 0-.883-.993L18 9ZM9 5H7.5a2 2 0 0 0-1.492.668L5.9 5.8 4.249 8H9V5Zm2.5 0H10v3h4.75L13.1 5.8a2 2 0 0 0-1.43-.793L11.5 5Z" class="Primary"/>
  </g>
</svg>
