<svg xmlns="http://www.w3.org/2000/svg" width="20" height="20" fill="none" viewBox="0 0 20 20">
  <g class="20x20/Outline/card_view">
    <path fill="#698796" fill-rule="evenodd" d="M4.5 7.5v-3h3v3h-3ZM3 4a1 1 0 0 1 1-1h4a1 1 0 0 1 1 1v4a1 1 0 0 1-1 1H4a1 1 0 0 1-1-1V4Zm1.5 11.5v-3h3v3h-3ZM3 12a1 1 0 0 1 1-1h4a1 1 0 0 1 1 1v4a1 1 0 0 1-1 1H4a1 1 0 0 1-1-1v-4Zm9.5-7.5v3h3v-3h-3ZM12 3a1 1 0 0 0-1 1v4a1 1 0 0 0 1 1h4a1 1 0 0 0 1-1V4a1 1 0 0 0-1-1h-4Zm.5 12.5v-3h3v3h-3ZM11 12a1 1 0 0 1 1-1h4a1 1 0 0 1 1 1v4a1 1 0 0 1-1 1h-4a1 1 0 0 1-1-1v-4Z" class="Primary" clip-rule="evenodd"/>
  </g>
</svg>
