<svg xmlns="http://www.w3.org/2000/svg" width="20" height="20" fill="none" viewBox="0 0 20 20">
  <g class="20x20/Outline/certificate_text">
    <path fill="#698796" d="M11 9.5a2 2 0 0 1 1.528 3.287L13 17.5l-2-1.071L9 17.5l.47-4.713A2 2 0 0 1 11 9.5ZM15 2a1 1 0 0 1 1 1v12l-.005.102a1 1 0 0 1-.893.893L15 16h-1v-1.5h.5v-11h-9v11H8V16H5l-.103-.005a1 1 0 0 1-.892-.893L4 15V3a1 1 0 0 1 1-1h10Zm-4.818 13.731.345-.184.473-.253.473.253.344.184-.222-2.231h-1.19l-.223 2.231ZM11 10.5a1 1 0 1 0 0 2 1 1 0 0 0 0-2ZM11 8H7V7h4v1Zm2-2H7V5h6v1Z" class="Primary"/>
  </g>
</svg>
