<svg xmlns="http://www.w3.org/2000/svg" width="20" height="20" fill="none" viewBox="0 0 20 20">
  <g class="20x20/Outline/cloud_offline">
    <path fill="#EF5350" fill-rule="evenodd" d="M10 5.274a3.252 3.252 0 0 0-3.148 2.437l-.145.563H5.5A2.75 2.75 0 0 0 3.319 12.7l-1.217.878A4.25 4.25 0 0 1 5.5 6.774h.083a4.751 4.751 0 0 1 7.943-1.433l-1.228.885A3.24 3.24 0 0 0 10 5.274Zm-4.273 10 2.08-1.5H15a2.25 2.25 0 1 0 0-4.5h-.95l1.909-1.376a3.752 3.752 0 0 1-.96 7.376H5.728ZM17.172 4 1.62 15.21l.928 1.18L18.1 5.177 17.172 4Z" class="Primary" clip-rule="evenodd"/>
  </g>
</svg>
