<svg xmlns="http://www.w3.org/2000/svg" width="20" height="20" fill="none" viewBox="0 0 20 20">
  <g class="20x20/Outline/color">
    <path fill="#A5B7C0" d="M6.719 2c.895 0 1.662.546 1.988 1.322l.166-.165.53-.53 8.681 8.68-1.07.357.151.29 1.3 2.501c.183.351.285.754.285 1.178 0 1.258-.935 2.417-2.25 2.417s-2.25-1.159-2.25-2.417c0-.424.102-.827.284-1.178l1.236-2.376-.659.22-5.209 5.209a1.688 1.688 0 0 1-2.385 0l-5.304-5.304a1.687 1.687 0 0 1 0-2.386l2.35-2.35V4.156C4.563 2.966 5.528 2 6.719 2Zm9.146 13.146a1.056 1.056 0 0 0-.115.487c0 .582.408.917.75.917s.75-.335.75-.917a1.08 1.08 0 0 0-.067-.377l-.048-.11-.635-1.22-.635 1.22Zm-6.99-9.869v5.442h-1.5V6.777L3.273 10.88a.188.188 0 0 0 0 .265l5.304 5.303a.188.188 0 0 0 .265 0l5.46-5.46.168-.055.838-.28L9.403 4.75l-.528.528ZM6.719 3.5a.656.656 0 0 0-.656.656v1.812l1.312-1.313v-.499a.656.656 0 0 0-.656-.656Z" class="Primary"/>
  </g>
</svg>
