<svg xmlns="http://www.w3.org/2000/svg" width="20" height="20" fill="none" viewBox="0 0 20 20">
  <g class="20x20/Outline/coordinates">
    <path fill="#A5B7C0" d="M16.985 15.265a.75.75 0 1 0 .781-1.28L10.75 9.701V2.625a.75.75 0 0 0-1.5 0v7.076l-7.015 4.284a.749.749 0 1 0 .78 1.28L10 11l6.985 4.265ZM3.169 6.812a.626.626 0 1 0 .662-1.063.626.626 0 0 0-.662 1.063Zm12.707-.2a.625.625 0 1 0 1.061-.662.625.625 0 0 0-1.06.662ZM5.293 8.124a.625.625 0 1 0 .662-1.06.625.625 0 0 0-.662 1.06Zm8.49-.2a.625.625 0 1 0 1.06-.662.625.625 0 0 0-1.06.663ZM7.418 9.438a.625.625 0 1 0 .662-1.061.625.625 0 0 0-.662 1.06Zm4.208-.2a.625.625 0 1 0 1.061-.662.625.625 0 0 0-1.06.662ZM10 13.157a.625.625 0 1 0 0-1.251.625.625 0 0 0 0 1.25Zm0 2.405a.625.625 0 1 0 0-1.25.625.625 0 0 0 0 1.25ZM10 18a.625.625 0 1 0 0-1.25.625.625 0 0 0 0 1.25Z" class="Primary"/>
  </g>
</svg>
