<svg xmlns="http://www.w3.org/2000/svg" width="20" height="20" fill="none" viewBox="0 0 20 20">
  <g class="20x20/Outline/creategroup">
    <path fill="#698796" fill-rule="evenodd" d="M9.626.85a.75.75 0 0 1 .749 0l6.5 3.744a.75.75 0 0 1 0 1.3l-6.5 3.744a.75.75 0 0 1-.75 0l-6.5-3.744a.75.75 0 0 1 0-1.3L9.626.85ZM5.003 5.244 10 8.122l4.998-2.878L10 2.365 5.003 5.244Zm-2.13 3.76a.75.75 0 0 1 1.04-.215L10 12.797l6.088-4.008a.75.75 0 1 1 .825 1.253L10 14.592l-6.912-4.55a.75.75 0 0 1-.214-1.039Zm1.04 4.492a.75.75 0 0 0-.825 1.253L10 19.3l6.913-4.55a.75.75 0 0 0-.825-1.253L10 17.504l-6.088-4.008Z" class="Primary" clip-rule="evenodd"/>
  </g>
</svg>
