<svg xmlns="http://www.w3.org/2000/svg" width="20" height="20" fill="none" viewBox="0 0 20 20">
  <g class="20x20/Outline/earth">
    <path fill="#698796" d="M10 2a8 8 0 1 1 0 16 8 8 0 0 1 0-16ZM8.281 13c.156.79.369 1.485.618 2.056.268.61.547 1.01.782 1.237a.973.973 0 0 0 .249.186c.046.021.067.021.07.021.003 0 .024 0 .07-.021a.972.972 0 0 0 .25-.186c.233-.226.513-.627.78-1.237.25-.57.463-1.267.619-2.056H8.28Zm-4.048 0a6.52 6.52 0 0 0 3.5 3.093c-.427-.83-.764-1.888-.977-3.093H4.233Zm9.011 0c-.213 1.205-.551 2.263-.977 3.093a6.52 6.52 0 0 0 3.5-3.093h-2.523Zm.194-4.5a18.16 18.16 0 0 1 0 3h2.886a6.515 6.515 0 0 0 0-3h-2.887Zm-5.37 0a16.589 16.589 0 0 0 0 3h3.865a16.593 16.593 0 0 0 0-3H8.067Zm-4.392 0a6.515 6.515 0 0 0 0 3h2.886a18.148 18.148 0 0 1 0-3H3.676Zm8.59-4.594c.427.83.765 1.889.978 3.094h2.523a6.52 6.52 0 0 0-3.5-3.094ZM9.93 3.521a.974.974 0 0 0-.25.186c-.234.226-.513.627-.78 1.237-.25.57-.463 1.267-.619 2.056h3.438a10.06 10.06 0 0 0-.618-2.056c-.268-.61-.548-1.01-.782-1.237a.973.973 0 0 0-.249-.186C10.024 3.5 10.003 3.5 10 3.5c-.003 0-.024 0-.07.021Zm-2.198.385A6.521 6.521 0 0 0 4.233 7h2.523c.213-1.205.55-2.264.976-3.094Z" class="Primary"/>
  </g>
</svg>
