<svg xmlns="http://www.w3.org/2000/svg" width="20" height="20" fill="none" viewBox="0 0 20 20">
  <g class="20x20/Outline/earth">
    <path fill="#698796" fill-rule="evenodd" d="M12.687 13a9.578 9.578 0 0 1-.753 2.21C11.264 16.55 10.522 17 10 17s-1.263-.449-1.934-1.79A9.576 9.576 0 0 1 7.313 13h5.374Zm1.022 0c-.3 1.486-.818 2.75-1.474 3.636A7.021 7.021 0 0 0 16.326 13H13.71Zm-5.944 3.636A7.022 7.022 0 0 1 3.674 13H6.29c.3 1.486.818 2.75 1.474 3.636ZM7.135 12h5.73c.087-.631.135-1.302.135-2s-.048-1.369-.135-2h-5.73A14.633 14.633 0 0 0 7 10c0 .698.048 1.369.135 2ZM6.126 8C6.044 8.64 6 9.31 6 10s.044 1.36.126 2H3.29A7.001 7.001 0 0 1 3 10c0-.695.101-1.366.29-2h2.836Zm1.187-1h5.374a9.578 9.578 0 0 0-.753-2.21c-.666-1.33-1.402-1.784-1.923-1.79H9.99c-.521.006-1.257.459-1.923 1.79A9.575 9.575 0 0 0 7.313 7Zm.452-3.636C7.109 4.25 6.592 5.514 6.29 7H3.674a7.022 7.022 0 0 1 4.09-3.636ZM9.982 2A8 8 0 1 0 10 2m2.235 1.364c.656.886 1.174 2.15 1.474 3.636h2.617a7.022 7.022 0 0 0-4.09-3.636ZM13.874 8h2.836c.189.634.29 1.305.29 2 0 .695-.101 1.366-.29 2h-2.836c.082-.64.126-1.31.126-2s-.044-1.36-.126-2Z" class="Primary" clip-rule="evenodd"/>
  </g>
</svg>
