<svg xmlns="http://www.w3.org/2000/svg" width="20" height="20" fill="none" viewBox="0 0 20 20">
  <g class="20x20/Outline/eye_open">
    <path fill="#698796" fill-rule="evenodd" d="m17.52 9.827-.002.004.001-.004Zm-.435-.382c.167.227.283.415.356.555-.073.14-.19.328-.356.555a10.223 10.223 0 0 1-1.678 1.74C13.932 13.517 12.01 14.5 10 14.5c-2.01 0-3.932-.983-5.407-2.205a10.226 10.226 0 0 1-1.678-1.74A4.472 4.472 0 0 1 2.56 10c.073-.14.19-.328.356-.555.378-.513.952-1.138 1.678-1.74C6.068 6.483 7.99 5.5 10 5.5s3.932.983 5.407 2.205c.727.602 1.3 1.227 1.678 1.74ZM2.48 9.827l.001.004a.043.043 0 0 1-.001-.004Zm0 .347.001-.005-.001.005Zm15.037-.005.001.005-.001-.005ZM19 10c0 1.2-4.03 6-9 6s-9-4.8-9-6c0-1.2 4.03-6 9-6s9 4.8 9 6Zm-8.95 1.8a1.75 1.75 0 1 0 0-3.5 1.75 1.75 0 0 0 0 3.5Z" class="Primary" clip-rule="evenodd"/>
  </g>
</svg>
