<svg xmlns="http://www.w3.org/2000/svg" width="20" height="20" fill="none" viewBox="0 0 20 20">
  <g class="20x20/Outline/eye_closed">
    <path fill="#698796" fill-rule="evenodd" d="M16.67 5.9a.75.75 0 0 1 .432.968 6.919 6.919 0 0 1-1.44 2.251l1.268 1.258a.75.75 0 0 1-1.056 1.064l-1.34-1.328a8.315 8.315 0 0 1-1.827 1.01l.741 2.017a.75.75 0 1 1-1.408.517l-.777-2.115c-.417.076-.84.117-1.262.117a6.64 6.64 0 0 1-1.261-.12l-.778 2.118a.75.75 0 1 1-1.408-.517l.752-2.047a8.002 8.002 0 0 1-1.76-1.059l-1.418 1.407a.75.75 0 0 1-1.056-1.065l1.372-1.36A11.181 11.181 0 0 1 2.95 6.972a.75.75 0 0 1 1.302-.746C5.549 8.492 7.629 10.16 10 10.16c2.439 0 4.899-1.73 5.7-3.826a.75.75 0 0 1 .968-.433Z" class="Primary" clip-rule="evenodd"/>
  </g>
</svg>
