<svg xmlns="http://www.w3.org/2000/svg" width="20" height="20" fill="none" viewBox="0 0 20 20">
  <g class="20x20/Outline/favorite">
    <path fill="#A3B8C2" d="M9.992 15.945a1.34 1.34 0 0 1-.475-.085 1.368 1.368 0 0 1-.434-.27l-.988-.9c-1.52-1.348-2.846-2.65-3.979-3.909-1.133-1.258-1.7-2.588-1.7-3.99 0-1.099.378-2.02 1.131-2.762.754-.741 1.69-1.112 2.807-1.112.647 0 1.287.148 1.92.444.634.296 1.209.799 1.726 1.51.545-.711 1.129-1.214 1.752-1.51a4.36 4.36 0 0 1 1.887-.444c1.118 0 2.055.37 2.81 1.112.756.742 1.134 1.663 1.134 2.763 0 1.417-.58 2.76-1.74 4.025a55.406 55.406 0 0 1-3.938 3.864l-.996.909a1.354 1.354 0 0 1-.917.355Zm-.508-9.913c-.381-.687-.842-1.197-1.382-1.531A3.264 3.264 0 0 0 6.354 4c-.815 0-1.495.264-2.039.792C3.772 5.319 3.5 5.989 3.5 6.8c0 .65.209 1.322.626 2.016.417.695.94 1.393 1.571 2.093.63.7 1.315 1.381 2.054 2.041.739.66 1.432 1.28 2.08 1.856a.246.246 0 0 0 .169.064c.064 0 .12-.021.168-.064.649-.577 1.343-1.195 2.081-1.856.739-.66 1.424-1.34 2.054-2.04a13.66 13.66 0 0 0 1.571-2.094c.417-.694.626-1.367.626-2.016 0-.811-.272-1.48-.816-2.008C15.142 4.264 14.461 4 13.646 4c-.625 0-1.211.167-1.758.5-.547.335-1.011.845-1.393 1.532a.418.418 0 0 1-.204.23.648.648 0 0 1-.292.07.708.708 0 0 1-.301-.07.412.412 0 0 1-.214-.23Z" class="Primary"/>
  </g>
</svg>
