<svg xmlns="http://www.w3.org/2000/svg" width="20" height="20" fill="none" viewBox="0 0 20 20">
  <g class="20x20/Outline/gate">
    <path fill="#B0B9C4" d="M17.833 14c.236 0 .434-.08.594-.24.16-.16.24-.357.24-.593V6.5a.806.806 0 0 0-.24-.594.806.806 0 0 0-.594-.24.806.806 0 0 0-.593.24.806.806 0 0 0-.24.594v6.667c0 .236.08.434.24.593.16.16.357.24.593.24Zm-2.5 1.667c.236 0 .434-.08.594-.24.16-.16.24-.358.24-.594v-7.5a3.21 3.21 0 0 0-.98-2.354A3.21 3.21 0 0 0 12.834 4h-5a3.21 3.21 0 0 0-2.354.98 3.21 3.21 0 0 0-.98 2.352v7.5c0 .236.08.434.24.594.16.16.357.24.593.24h10ZM2.833 14c.236 0 .434-.08.594-.24.16-.16.24-.357.24-.593V6.5a.806.806 0 0 0-.24-.594.806.806 0 0 0-.594-.24.806.806 0 0 0-.593.24A.806.806 0 0 0 2 6.5v6.667c0 .236.08.434.24.593.16.16.357.24.593.24ZM14.5 14h-3.333v-3.333H12c.236 0 .434-.08.594-.24.16-.16.24-.358.24-.594a.806.806 0 0 0-.24-.593A.807.807 0 0 0 12 9h-.833V5.667h1.666c.459 0 .851.163 1.177.49a1.6 1.6 0 0 1 .49 1.176V14Zm-5 0H6.167V7.333c0-.458.163-.85.49-1.177.326-.326.718-.49 1.176-.49H9.5V9h-.833a.806.806 0 0 0-.594.24.806.806 0 0 0-.24.593c0 .236.08.434.24.594.16.16.358.24.594.24H9.5V14Z" class="Primary"/>
  </g>
</svg>
