<svg xmlns="http://www.w3.org/2000/svg" width="20" height="20" fill="none" viewBox="0 0 20 20">
  <g class="20x20/Outline/link">
    <path fill="#A3B8C2" d="M6.34 14.308c-1.192 0-2.205-.417-3.04-1.25-.835-.834-1.252-1.853-1.252-3.058 0-1.219.441-2.242 1.323-3.068.882-.826 1.925-1.24 3.13-1.24h8.361c.863 0 1.597.302 2.2.906.604.604.906 1.337.906 2.2 0 .891-.323 1.631-.968 2.221a3.274 3.274 0 0 1-2.284.885H6.904c-.529 0-.978-.185-1.349-.556C5.185 10.978 5 10.528 5 10c0-.557.199-1.013.597-1.37a2.02 2.02 0 0 1 1.39-.534h7.503a.6.6 0 0 1 .44.182.598.598 0 0 1 .182.44.6.6 0 0 1-.182.439.599.599 0 0 1-.44.183H6.904a.637.637 0 0 0-.469.192.637.637 0 0 0-.191.468c0 .184.064.34.191.468a.637.637 0 0 0 .469.192h7.958c.518 0 .957-.18 1.32-.543a1.8 1.8 0 0 0 .542-1.32c0-.517-.184-.957-.553-1.319a1.856 1.856 0 0 0-1.35-.542H6.355c-.855 0-1.576.297-2.163.89-.587.595-.887 1.318-.901 2.17a2.8 2.8 0 0 0 .928 2.184c.633.59 1.375.884 2.224.884h8.046a.6.6 0 0 1 .44.182.598.598 0 0 1 .182.44.6.6 0 0 1-.182.439.599.599 0 0 1-.44.183H6.34Z" class="Primary"/>
  </g>
</svg>
