<svg xmlns="http://www.w3.org/2000/svg" width="20" height="20" fill="none" viewBox="0 0 20 20">
  <g class="20x20/Outline/local">
    <path fill="#698796" fill-rule="evenodd" d="M15.76 4.094 13.66 2 12.6 3.057l1.04 1.037H11a1 1 0 0 0-1 1v.818H6.4C4.5 5.912 3 7.518 3 9.424s1.6 3.51 3.5 3.51h1c1.4 0 2.5 1.104 2.5 2.509v1.508c0 1.399 1.5 1.399 1.5 0v-1.508c0-1.906-1.5-3.972-4-4.01h-1c-2.686 0-2.686-4.019 0-4.019H10v.664a1 1 0 0 0 1 1h5a1 1 0 0 0 1-1V5.094a1 1 0 0 0-1-1h-.24Zm-4.26 1.5v1.984h4V5.594h-4Z" class="Primary" clip-rule="evenodd"/>
  </g>
</svg>
