<svg xmlns="http://www.w3.org/2000/svg" width="20" height="20" fill="none" viewBox="0 0 20 20">
  <g class="20x20/Outline/logout">
    <path fill="#698796" fill-rule="evenodd" d="M8.415 3.805c-.016.016-.056.065-.056.195v3a.75.75 0 0 1-1.5 0V4c0-.47.16-.92.495-1.255.334-.335.784-.495 1.255-.495h7.996c.47 0 .92.16 1.255.495.335.334.495.785.495 1.255v12c0 .47-.16.92-.495 1.255-.334.335-.784.495-1.255.495H8.61c-.47 0-.92-.16-1.255-.495-.335-.334-.495-.785-.495-1.255v-3a.75.75 0 0 1 1.5 0v3c0 .13.04.18.056.195.015.015.064.055.194.055h7.996c.13 0 .18-.04.194-.055.016-.016.056-.065.056-.195V4c0-.13-.04-.18-.056-.195-.015-.015-.064-.055-.194-.055H8.61c-.13 0-.18.04-.194.055ZM5.34 7.47a.75.75 0 0 0-1.06 0L1.75 10l2.53 2.53a.75.75 0 0 0 1.06-1.06l-.719-.72h9.436v-1.5H4.62l.72-.72a.75.75 0 0 0 0-1.06Z" class="Primary" clip-rule="evenodd"/>
  </g>
</svg>
