<svg xmlns="http://www.w3.org/2000/svg" width="20" height="20" fill="none" viewBox="0 0 20 20">
  <g class="20x20/Outline/moon">
    <path fill="#A5B7C0" fill-rule="evenodd" d="M10.22 16.25c-3.563 0-6.47-2.837-6.47-6.25 0-2.647 1.748-4.947 4.195-5.847a6.292 6.292 0 0 0-1.19 3.669c0 3.566 2.995 6.413 6.599 6.413a6.7 6.7 0 0 0 1.78-.239 6.454 6.454 0 0 1-4.913 2.254ZM2.25 10c0 4.287 3.625 7.75 7.97 7.75 3.477 0 6.429-2.221 7.489-5.272a.75.75 0 0 0-1.172-.836 5.14 5.14 0 0 1-3.183 1.094c-2.824 0-5.099-2.224-5.099-4.914 0-1.738.965-3.303 2.397-4.18a.75.75 0 0 0-.364-1.39h-.002a.998.998 0 0 0-.065-.002C5.875 2.25 2.25 5.713 2.25 10Z" class="Primary" clip-rule="evenodd"/>
  </g>
</svg>
