<svg xmlns="http://www.w3.org/2000/svg" width="20" height="20" fill="none" viewBox="0 0 20 20">
  <g class="20x20/Outline/more_vert">
    <path fill="#A3B8C2" d="M9.996 15.391c-.3 0-.554-.107-.764-.32a1.055 1.055 0 0 1-.315-.768c0-.299.106-.554.32-.764a1.05 1.05 0 0 1 .767-.315c.3 0 .554.107.764.32.21.213.315.469.315.768 0 .3-.106.554-.32.764a1.05 1.05 0 0 1-.767.315Zm0-4.308c-.3 0-.554-.106-.764-.32a1.055 1.055 0 0 1-.315-.767c0-.3.106-.554.32-.764a1.05 1.05 0 0 1 .767-.315c.3 0 .554.106.764.32.21.212.315.468.315.767 0 .3-.106.554-.32.764a1.05 1.05 0 0 1-.767.315Zm0-4.307c-.3 0-.554-.107-.764-.32a1.055 1.055 0 0 1-.315-.768c0-.3.106-.554.32-.764a1.05 1.05 0 0 1 .767-.315c.3 0 .554.107.764.32.21.213.315.469.315.768 0 .299-.106.553-.32.764a1.05 1.05 0 0 1-.767.315Z" class="Primary"/>
  </g>
</svg>
