<svg xmlns="http://www.w3.org/2000/svg" width="20" height="20" fill="none" viewBox="0 0 20 20">
  <g class="20x20/Outline/no_list">
    <path fill="#698796" fill-rule="evenodd" d="m18 3.892 1.498-1.331-.996-1.122-2.037 1.811-1.688 1.5-2.812 2.5-1.688 1.5-2.812 2.5-1.688 1.5-2.812 2.5-.965.858-1.498 1.331.996 1.122 2.037-1.811 1.688-1.5 2.812-2.5 1.688-1.5 2.812-2.5 1.688-1.5 2.812-2.5.965-.858ZM11 16.75H5.793l1.687-1.5H11v1.5Zm7-4h-7.707l1.688-1.5H18v1.5Zm0-4h-3.207l1.688-1.5H18v1.5ZM2 3.25h12.207l-1.687 1.5H2v-1.5Zm0 4h7.707L8.02 8.75H2v-1.5Zm0 4h3.207l-1.687 1.5H2v-1.5Z" class="Primary" clip-rule="evenodd"/>
  </g>
</svg>
