<svg xmlns="http://www.w3.org/2000/svg" width="20" height="20" fill="none" viewBox="0 0 20 20">
  <g class="20x20/Outline/orientation">
    <path fill="#A5B7C0" d="M10 2a8 8 0 1 1 0 16 8 8 0 0 1 0-16Zm0 1.5a6.5 6.5 0 1 0 0 13 6.5 6.5 0 0 0 0-13ZM13.516 6a.486.486 0 0 1 .406.749l-2.768 4.262a.483.483 0 0 1-.142.142l-4.263 2.769a.485.485 0 0 1-.672-.671l2.769-4.263a.483.483 0 0 1 .142-.141l4.263-2.769A.485.485 0 0 1 13.516 6ZM10 9.242a.758.758 0 1 0 0 1.517.758.758 0 0 0 0-1.517Z" class="Primary"/>
  </g>
</svg>
