<svg xmlns="http://www.w3.org/2000/svg" width="20" height="20" fill="none" viewBox="0 0 20 20">
  <g class="20x20/Outline/pin">
    <path fill="#698796" d="M13.84 3.425a1.679 1.679 0 0 1 2.058-.136l.114.078a6.13 6.13 0 0 1 1.62 1.618l.079.116a1.674 1.674 0 0 1-.137 2.055l-4.298 4.824.01.008a2.05 2.05 0 0 1 .38 1.98l-.53 1.576a1.031 1.031 0 0 1-1.701.404l-2.5-2.497-5.025 4.412a.55.55 0 0 1-.75-.023.544.544 0 0 1-.023-.746l4.435-5.004-2.494-2.491a1.026 1.026 0 0 1 .404-1.702l1.58-.527a2.054 2.054 0 0 1 1.841.272l.104.079 4.833-4.296Zm1.214 1.104a.179.179 0 0 0-.218.018L9.05 9.687l-.99-.802a.554.554 0 0 0-.524-.093l-.857.286 2.953 2.95 2.323 2.32.288-.858a.548.548 0 0 0-.079-.5l-.948-.953 5.237-5.879.032-.05a.171.171 0 0 0-.015-.163l-.078-.115a4.63 4.63 0 0 0-1.224-1.223l-.115-.078Z" class="Primary"/>
  </g>
</svg>
