<svg xmlns="http://www.w3.org/2000/svg" width="20" height="20" fill="none" viewBox="0 0 20 20">
  <g class="20x20/Outline/pin">
    <path fill="#698796" d="m14.538 2.779.107.078a5.943 5.943 0 0 1 1.512 1.618l.073.115a1.77 1.77 0 0 1-.127 2.056l-4.011 4.824.008.008c.431.544.57 1.294.355 1.98l-.494 1.576c-.168.538-.712.83-1.214.651a.947.947 0 0 1-.374-.247l-2.334-2.497-4.69 4.412a.488.488 0 0 1-.7-.023.572.572 0 0 1-.021-.747l4.14-5.003-2.329-2.492a1.08 1.08 0 0 1 .003-1.452.956.956 0 0 1 .375-.248l1.473-.529a1.817 1.817 0 0 1 1.816.351l4.511-4.295a1.486 1.486 0 0 1 1.92-.136Zm-7.83 5.02-.116.034-1.473.528 2.287 2.448 1.36 1.449-.004.002 2.29 2.451.494-1.577a1.084 1.084 0 0 0-.151-.954l-.08-.096L7.574 8.08a.916.916 0 0 0-.865-.28Zm6.618-4.178-.073.06-4.458 4.243 2.627 2.812 3.965-4.771a.684.684 0 0 0 .095-.71l-.045-.085-.073-.115a4.98 4.98 0 0 0-1.053-1.188l-.208-.16-.107-.079a.572.572 0 0 0-.67-.007Z" class="Primary"/>
  </g>
</svg>
