<svg xmlns="http://www.w3.org/2000/svg" width="20" height="20" fill="none" viewBox="0 0 20 20">
  <g class="20x20/Outline/plugin">
    <path fill="#E1E7EA" fill-rule="evenodd" d="M4.667 4.4v1.4H3.333C2.597 5.8 2 6.427 2 7.2v8.4c0 .773.597 1.4 1.333 1.4h13.334c.736 0 1.333-.627 1.333-1.4V7.2c0-.773-.597-1.4-1.333-1.4h-1.334V4.4c0-.773-.597-1.4-1.333-1.4h-1.333c-.737 0-1.334.627-1.334 1.4v1.4H8.667V4.4c0-.773-.597-1.4-1.334-1.4H6c-.736 0-1.333.627-1.333 1.4Zm2.666 0H6v1.4h1.333V4.4Zm5.334 1.4H14V4.4h-1.333v1.4ZM3.333 7.2v8.4h13.334V7.2H3.333Z" class="Primary" clip-rule="evenodd"/>
  </g>
</svg>
