<svg xmlns="http://www.w3.org/2000/svg" width="20" height="20" fill="none" viewBox="0 0 20 20">
  <g class="20x20/Outline/question">
    <path fill="#698796" fill-rule="evenodd" d="M16.5 10a6.5 6.5 0 1 1-13 0 6.5 6.5 0 0 1 13 0Zm1.5 0a8 8 0 1 1-16 0 8 8 0 0 1 16 0Zm-8.672 1.45h1.402c.006-.258.044-.471.112-.64a1.36 1.36 0 0 1 .386-.508c.218-.202.415-.391.59-.567.18-.179.321-.37.425-.576.108-.208.162-.452.162-.732 0-.42-.092-.773-.274-1.06a1.682 1.682 0 0 0-.786-.654c-.342-.147-.75-.22-1.226-.22-.43 0-.818.072-1.167.215-.345.14-.621.363-.83.669-.205.303-.312.696-.322 1.181h1.655c.007-.188.041-.34.103-.454a.618.618 0 0 1 .24-.258.66.66 0 0 1 .321-.083c.14 0 .256.027.347.083a.475.475 0 0 1 .21.239c.049.107.073.246.073.415a.87.87 0 0 1-.088.386c-.058.12-.143.239-.254.356-.11.117-.242.24-.395.366a1.88 1.88 0 0 0-.41.489 1.888 1.888 0 0 0-.215.595c-.04.218-.059.47-.059.757Zm.054.898a.764.764 0 0 0-.254.585.78.78 0 0 0 .254.591c.17.157.389.235.66.235.27 0 .49-.079.658-.235a.78.78 0 0 0 .254-.59.765.765 0 0 0-.254-.586c-.169-.16-.389-.24-.659-.24s-.49.08-.659.24Z" class="Primary" clip-rule="evenodd"/>
  </g>
</svg>
