<svg xmlns="http://www.w3.org/2000/svg" width="20" height="20" fill="none" viewBox="0 0 20 20">
  <g class="20x20/Outline/rapid_review">
    <path fill="#698796" fill-rule="evenodd" d="M8.375 1.75a.75.75 0 0 0 0 1.5h.845v1.97a6.52 6.52 0 0 0-2.106.618L5.476 3.936a.75.75 0 1 0-1.137.979l1.502 1.743A6.367 6.367 0 0 0 3.5 11.587C3.5 15.129 6.41 18 10 18s6.5-2.871 6.5-6.413c0-1.952-.884-3.7-2.278-4.876l1.547-1.796a.75.75 0 1 0-1.136-.98l-1.671 1.941a6.522 6.522 0 0 0-2.242-.664V3.25h.905a.75.75 0 0 0 0-1.5h-3.25Zm5.474 8.198a.75.75 0 0 1-.458.957l-3.033 1.069a.75.75 0 0 1-.499-1.415l3.034-1.07a.75.75 0 0 1 .956.459ZM15 11.587c0 2.694-2.22 4.913-5 4.913s-5-2.219-5-4.913c0-2.695 2.22-4.914 5-4.914s5 2.22 5 4.914Z" class="Primary" clip-rule="evenodd"/>
  </g>
</svg>
