<svg xmlns="http://www.w3.org/2000/svg" width="20" height="20" fill="none" viewBox="0 0 20 20">
  <g class="20x20/Outline/reload">
    <path fill="#698796" fill-rule="evenodd" d="m17.166 5.918-.963 1.415A6.759 6.759 0 0 0 3.147 8.337l1.478.26A5.259 5.259 0 0 1 14.64 7.444l-1.202-.818-.845 1.24 2.838 1.932a.75.75 0 0 0 1.043-.198l1.932-2.838-1.24-.844ZM2.62 14.282l.949-1.394a6.759 6.759 0 0 0 12.976-1.225l-1.478-.26a5.259 5.259 0 0 1-9.926 1.35l1.207.822.844-1.24-2.838-1.933a.75.75 0 0 0-1.042.198L1.38 13.438l1.24.844Z" class="Primary" clip-rule="evenodd"/>
  </g>
</svg>
