<svg xmlns="http://www.w3.org/2000/svg" width="20" height="20" fill="none" viewBox="0 0 20 20">
  <g class="20x20/Outline/send_email">
    <path fill="#698796" fill-rule="evenodd" d="M2.5 2.75A1.75 1.75 0 0 0 .75 4.5v11c0 .966.784 1.75 1.75 1.75h15a.75.75 0 0 0 0-1.5h-15a.25.25 0 0 1-.25-.25V5.16l7.25 5.8 7.25-5.8V7.3a.75.75 0 0 0 1.5 0V4.5a1.75 1.75 0 0 0-1.75-1.75h-14Zm12.987 1.5H3.513L9.5 9.04l5.987-4.79Zm3.508 5.45H15v1.5h3.995V9.7Zm.005 3h-6v1.5h6v-1.5Z" class="Primary" clip-rule="evenodd"/>
  </g>
</svg>
