<svg xmlns="http://www.w3.org/2000/svg" width="20" height="20" fill="none" viewBox="0 0 20 20">
  <g class="20x20/Outline/shield">
    <path fill="#698796" fill-rule="evenodd" d="M6 3.285C7.698 2.7 10 1 10 1s2.302 1.701 4 2.285c1.5.515 4 .664 4 .664v8.808a4 4 0 0 1-2.328 3.633L10 19l-5.672-2.61A4 4 0 0 1 2 12.757V3.949s2.5-.15 4-.664Zm10.376 2.013.124.015v7.444a2.5 2.5 0 0 1-1.455 2.27L10 17.35l-5.045-2.321A2.5 2.5 0 0 1 3.5 12.757V5.313l.124-.015c.83-.104 1.96-.284 2.863-.595C7.511 4.352 8.634 3.7 9.44 3.191c.202-.128.39-.251.561-.364.17.113.359.236.561.364.805.51 1.928 1.16 2.952 1.512.904.31 2.032.491 2.863.595Zm-6.91 7.645 4.185-4.534L12.55 7.39l-3.2 3.466-1.758-1.524-.982 1.134 2.857 2.476Z" class="Primary" clip-rule="evenodd"/>
  </g>
</svg>
