<svg xmlns="http://www.w3.org/2000/svg" width="20" height="20" fill="none" viewBox="0 0 20 20">
  <g class="20x20/Outline/skipped_disabled">
    <path fill="#698796" fill-rule="evenodd" d="M16.75 8.686V4h1.5v11h-1.5v-4.286l-5.747 3.558-.736.456a.5.5 0 0 1-.764-.425v-3.748L3.5 14.273l-.737.456A.5.5 0 0 1 2 14.303V5.098a.5.5 0 0 1 .763-.426l6.74 4.172V5.098a.5.5 0 0 1 .764-.426l6.483 4.014ZM3.5 12.507 8.035 9.7 3.5 6.893v5.614ZM15.539 9.7l-4.536 2.807V6.893L15.54 9.7Z" class="Primary" clip-rule="evenodd"/>
  </g>
</svg>
