<svg xmlns="http://www.w3.org/2000/svg" width="20" height="20" fill="none" viewBox="0 0 20 20">
  <g class="20x20/Outline/soft_trigger">
    <path fill="#E1E7EA" fill-rule="evenodd" d="M5.2 5.346c0 .315-.269.57-.6.57-.331 0-.6-.255-.6-.57C4 3.445 5.784 2 7.84 2s3.84 1.445 3.84 3.346c0 .315-.269.57-.6.57-.331 0-.6-.255-.6-.57 0-1.159-1.123-2.203-2.64-2.203-1.517 0-2.64 1.044-2.64 2.203Zm1.56 8.631c.331 0 .6-.256.6-.571v-8.06c0-.14.153-.354.48-.354.326 0 .48.214.48.354v6.535c0 .315.268.57.6.57.33 0 .6-.255.6-.57V9.105c0-.14.153-.353.48-.353.327 0 .48.214.48.353v2.774c0 .316.269.572.6.572.331 0 .6-.256.6-.572V10.03c0-.14.153-.354.48-.354.327 0 .48.214.48.354v1.85c0 .316.269.572.6.572.331 0 .6-.256.6-.572v-.928c.003-.14.156-.35.48-.35.327 0 .48.214.48.354v4.24c0 .6-.252 1.191-.723 1.661H6.894c-1.065-.5-1.694-1.437-1.694-2.42V11.88c0-.14.153-.353.48-.353h.48v1.879c0 .315.269.571.6.571ZM10 7.61c-.164 0-.326.022-.48.064V5.346c0-.882-.814-1.497-1.68-1.497-.867 0-1.68.615-1.68 1.497v5.038h-.48c-.866 0-1.68.614-1.68 1.496v2.556c0 1.517 1 2.865 2.514 3.514.077.033.161.05.246.05h7.56a.618.618 0 0 0 .401-.146c.81-.694 1.279-1.648 1.279-2.658v-4.24c0-.882-.814-1.497-1.68-1.497-.194 0-.386.031-.567.09-.232-.616-.896-1.014-1.593-1.014-.194 0-.386.03-.567.089-.232-.616-.896-1.014-1.593-1.014Z" class="Primary" clip-rule="evenodd"/>
  </g>
</svg>
