<svg xmlns="http://www.w3.org/2000/svg" width="20" height="20" fill="none" viewBox="0 0 20 20">
  <g class="20x20/Outline/sos">
    <path fill="#B0B9C4" d="M11.417 14.333c.458 0 .85-.163 1.177-.49.326-.326.49-.718.49-1.176v-5c0-.459-.164-.851-.49-1.177A1.605 1.605 0 0 0 11.417 6h-2.5c-.459 0-.851.163-1.177.49-.327.326-.49.718-.49 1.177v5c0 .458.163.85.49 1.177.326.326.718.49 1.177.49h2.5Zm4.583 0h2.5c.236 0 .434-.08.594-.24a.803.803 0 0 0 .24-.593.807.807 0 0 0-.24-.594.807.807 0 0 0-.594-.24H16V11h1.667c.458 0 .85-.163 1.177-.49.326-.326.49-.718.49-1.177V7.667c0-.459-.164-.851-.49-1.177A1.605 1.605 0 0 0 17.667 6h-2.5a.806.806 0 0 0-.594.24.806.806 0 0 0-.24.593c0 .236.08.434.24.594.16.16.358.24.594.24h2.5v1.666H16c-.458 0-.85.164-1.177.49-.327.326-.49.719-.49 1.177v1.667c0 .458.163.85.49 1.177.326.326.719.49 1.177.49Zm-13.333 0h2.5c.236 0 .434-.08.593-.24A.803.803 0 0 0 6 13.5a.807.807 0 0 0-.24-.594.806.806 0 0 0-.593-.24h-2.5V11h1.666c.459 0 .851-.163 1.177-.49.327-.326.49-.718.49-1.177V7.667c0-.459-.163-.851-.49-1.177A1.605 1.605 0 0 0 4.333 6h-2.5a.806.806 0 0 0-.593.24.806.806 0 0 0-.24.593c0 .236.08.434.24.594.16.16.357.24.593.24h2.5v1.666H2.667c-.459 0-.851.164-1.177.49-.327.326-.49.719-.49 1.177v1.667c0 .458.163.85.49 1.177.326.326.718.49 1.177.49Zm8.75-1.666h-2.5v-5h2.5v5Z" class="Primary"/>
  </g>
</svg>
