<svg xmlns="http://www.w3.org/2000/svg" width="20" height="20" fill="none" viewBox="0 0 20 20">
  <g class="20x20/Outline/stopwatch">
    <path fill="#E1E7EA" fill-rule="evenodd" d="M7.667 2.066c0-.312.26-.566.583-.566h3.5c.322 0 .583.254.583.566a.575.575 0 0 1-.583.567h-1.199v2.289c1.026.078 1.99.37 2.844.831l1.76-2.012a.595.595 0 0 1 .823-.065c.245.203.275.56.067.799L14.37 6.389C15.973 7.635 17 9.55 17 11.7c0 3.755-3.134 6.799-7 6.799s-7-3.044-7-6.8c0-2.18 1.057-4.12 2.7-5.365l-1.628-1.86a.555.555 0 0 1 .067-.799.595.595 0 0 1 .822.065l1.724 1.97a7.107 7.107 0 0 1 2.7-.784V2.633H8.25a.575.575 0 0 1-.583-.567Zm8.166 9.635c0 3.129-2.611 5.666-5.833 5.666S4.167 14.83 4.167 11.7 6.778 6.033 10 6.033s5.833 2.537 5.833 5.667Zm-2.253-.94a.562.562 0 0 0 .353-.724.588.588 0 0 0-.746-.343l-3.266 1.133a.562.562 0 0 0-.354.724.588.588 0 0 0 .746.343l3.267-1.133Z" class="Primary" clip-rule="evenodd"/>
  </g>
</svg>
