<svg xmlns="http://www.w3.org/2000/svg" width="20" height="20" fill="none" viewBox="0 0 20 20">
  <g class="20x20/Outline/streets">
    <path fill="#A5B7C0" fill-rule="evenodd" d="M4.399 18.055a.75.75 0 0 0 .856-.625L7.541 2.802A.75.75 0 0 0 6.06 2.57L3.773 17.198a.75.75 0 0 0 .626.857Zm11.202 0a.75.75 0 0 0 .626-.857L13.94 2.57a.75.75 0 0 0-1.482.232l2.286 14.628a.75.75 0 0 0 .856.625ZM10.75 5.428a.75.75 0 0 1-1.5 0V3.599a.75.75 0 1 1 1.5 0v1.829ZM10 11.663a.75.75 0 0 0 .75-.75V9.085a.75.75 0 0 0-1.5 0v1.828c0 .415.336.75.75.75Zm.75 4.736a.75.75 0 0 1-1.5 0V14.57a.75.75 0 0 1 1.5 0v1.83Z" class="Primary" clip-rule="evenodd"/>
  </g>
</svg>
