<svg xmlns="http://www.w3.org/2000/svg" width="20" height="20" fill="none" viewBox="0 0 20 20">
  <g class="20x20/Outline/sun">
    <path fill="#A5B7C0" fill-rule="evenodd" d="M10 1c.415 0 .752.337.752.752V3.15a.752.752 0 0 1-1.504 0V1.752c0-.415.337-.752.752-.752ZM3.537 3.537a.752.752 0 0 1 1.063 0l.989.989a.752.752 0 0 1-1.063 1.063l-.989-.988a.752.752 0 0 1 0-1.064Zm10.874 10.874a.752.752 0 0 1 1.063 0l.989.989a.752.752 0 1 1-1.064 1.063l-.988-.989a.752.752 0 0 1 0-1.063Zm2.44-5.163a.752.752 0 1 0 0 1.504h1.397a.752.752 0 1 0 0-1.504H16.85ZM1 10c0-.415.337-.752.752-.752H3.15a.752.752 0 0 1 0 1.504H1.752A.752.752 0 0 1 1 10Zm15.463-5.4a.752.752 0 1 0-1.064-1.063l-.988.989a.752.752 0 0 0 1.063 1.063l.989-.988ZM5.589 14.412a.752.752 0 0 1 0 1.063l-.989.989A.752.752 0 1 1 3.537 15.4l.989-.989a.752.752 0 0 1 1.063 0Zm5.163 2.44a.752.752 0 0 0-1.504 0v1.397a.752.752 0 1 0 1.504 0V16.85ZM6.557 10a3.442 3.442 0 1 1 6.885 0 3.442 3.442 0 0 1-6.885 0ZM10 5.054a4.946 4.946 0 1 0 0 9.892 4.946 4.946 0 0 0 0-9.892Z" class="Primary" clip-rule="evenodd"/>
  </g>
</svg>
