<svg xmlns="http://www.w3.org/2000/svg" width="20" height="20" fill="none" viewBox="0 0 20 20">
  <g class="20x20/Outline/to_search">
    <path fill="#698796" fill-rule="evenodd" d="M14.199 8.849A4.349 4.349 0 0 1 6.854 12H4.922a5.844 5.844 0 0 0 4.928 2.697 5.823 5.823 0 0 0 3.571-1.216l3.697 3.696 1.06-1.06-3.696-3.697A5.849 5.849 0 1 0 4.741 6h1.823a4.349 4.349 0 0 1 7.634 2.849Zm-2.536-.263-2.15-2.444-1.126.99 1.055 1.2H2.35v1.5h6.987l-.952.988 1.081 1.04 2.174-2.259a.75.75 0 0 0 .023-1.015Z" class="Primary" clip-rule="evenodd"/>
  </g>
</svg>
