<svg xmlns="http://www.w3.org/2000/svg" width="48" height="48" fill="none" viewBox="0 0 48 48">
  <g class="48x48/Outline/add_block">
    <path fill="#49626E" d="M36.25 33.25H31a1.45 1.45 0 0 1-1.069-.434 1.464 1.464 0 0 1-.431-1.075A1.463 1.463 0 0 1 31 30.25h5.25V25c0-.425.145-.781.434-1.069a1.465 1.465 0 0 1 1.075-.431A1.463 1.463 0 0 1 39.25 25v5.25h5.25c.425 0 .781.145 1.069.434.287.289.431.647.431 1.075a1.463 1.463 0 0 1-1.5 1.491h-5.25v5.25c0 .425-.145.781-.434 1.069a1.465 1.465 0 0 1-1.075.431 1.463 1.463 0 0 1-1.491-1.5v-5.25ZM5 42c-.8 0-1.5-.3-2.1-.9-.6-.6-.9-1.3-.9-2.1V8.25c0-.8.3-1.5.9-2.1.6-.6 1.3-.9 2.1-.9h30.75c.8 0 1.5.3 2.1.9.6.6.9 1.3.9 2.1V19c0 .425-.145.781-.434 1.069a1.465 1.465 0 0 1-1.075.431A1.463 1.463 0 0 1 35.75 19v-3.75H5V39h26.75c.425 0 .781.145 1.069.434.287.289.431.647.431 1.075A1.463 1.463 0 0 1 31.75 42H5Zm0-29.75h30.75v-4H5v4Z" class="Primary"/>
  </g>
</svg>
