<svg xmlns="http://www.w3.org/2000/svg" width="48" height="48" fill="none" viewBox="0 0 48 48">
  <g class="48x48/Outline/future">
    <path fill="#DAE2E7" fill-rule="evenodd" d="M40 24c0 8.837-7.163 16-16 16S8 32.837 8 24 15.163 8 24 8s16 7.163 16 16Zm4 0c0 11.046-8.954 20-20 20S4 35.046 4 24 12.954 4 24 4s20 8.954 20 20Zm-25.5-2a2.5 2.5 0 1 0 0-5 2.5 2.5 0 0 0 0 5ZM32 19.5a2.5 2.5 0 1 1-5 0 2.5 2.5 0 0 1 5 0Zm-14 12a274.59 274.59 0 0 1 1.413 1.415v.001l-.003.002-.002.002-.002.003.005-.005.049-.045c.05-.046.132-.119.245-.21.227-.184.567-.436.997-.69C21.575 31.46 22.723 31 24 31c1.277 0 2.424.46 3.299.974.43.253.77.505.996.689a5.776 5.776 0 0 1 .294.255l-.002-.003L30 31.5a274.59 274.59 0 0 0 1.413-1.415v-.001l-.003-.003-.005-.005-.014-.013a10.014 10.014 0 0 0-.16-.15c-.1-.092-.24-.214-.417-.357a12.194 12.194 0 0 0-1.488-1.03C28.076 27.791 26.223 27 24 27c-2.223 0-4.076.79-5.326 1.526a12.12 12.12 0 0 0-1.488 1.03 9.778 9.778 0 0 0-.539.47l-.022.021-.016.016-.014.013-.005.005-.003.004L18 31.5Z" class="Primary" clip-rule="evenodd"/>
  </g>
</svg>
