<svg xmlns="http://www.w3.org/2000/svg" width="48" height="48" fill="none" viewBox="0 0 48 48">
  <g class="48x48/Outline/re_centre">
    <path fill="#B0B9C4" d="M2 24a2 2 0 0 0 2 2h2.11c.923 8.343 7.547 14.966 15.89 15.889V45a2 2 0 1 0 4 0v-3.111c8.343-.923 14.966-7.546 15.889-15.889H44a2 2 0 1 0 0-4h-2.111C40.966 13.657 34.343 7.034 26 6.111V3a2 2 0 1 0-4 0v3.111C13.657 7.034 7.033 13.657 6.11 22H4a2 2 0 0 0-2 2Zm11 2a2 2 0 1 0 0-4h-2.857C11.02 15.869 15.869 11.02 22 10.143V12a2 2 0 1 0 4 0v-1.857c6.131.877 10.98 5.726 11.856 11.857H35a2 2 0 1 0 0 4h2.856C36.98 32.131 32.131 36.98 26 37.857V36a2 2 0 1 0-4 0v1.857C15.869 36.98 11.02 32.131 10.143 26H13Zm8-2a3 3 0 1 0 6 0 3 3 0 0 0-6 0Z" class="Primary"/>
  </g>
</svg>
