<svg xmlns="http://www.w3.org/2000/svg" width="48" height="48" fill="none" viewBox="0 0 48 48">
  <g class="48x48/Outline/sound">
    <path fill="#A5B7C0" fill-rule="evenodd" d="M33.492 7.314C37.565 11.988 40 17.976 40 24.5c0 6.524-2.435 12.512-6.508 17.186l3.016 2.628C41.178 38.954 44 32.046 44 24.5c0-7.546-2.822-14.455-7.492-19.814l-3.016 2.628ZM13.175 19H9v10h5.25l1.027.711L22 34.366v-21.04l-7.837 5.039-.988.635ZM7 15a2 2 0 0 0-2 2v14a2 2 0 0 0 2 2h6l9.862 6.827c1.326.919 3.138-.03 3.138-1.644V9.663c0-1.582-1.75-2.538-3.081-1.682L12 15H7Zm26 9.5a17.42 17.42 0 0 0-4.038-11.182l3.076-2.557A21.42 21.42 0 0 1 37 24.5a21.42 21.42 0 0 1-4.962 13.74l-3.076-2.558A17.42 17.42 0 0 0 33 24.5Z" class="Primary" clip-rule="evenodd"/>
  </g>
</svg>
