<svg width="20" height="20" viewBox="0 0 20 20" fill="none" xmlns="http://www.w3.org/2000/svg">
<path fill-rule="evenodd" clip-rule="evenodd" d="M6.44444 2H3C2.44772 2 2 2.44772 2 3V6.44445H3.5V3.5H6.44444V2ZM13.5556 3.5H16.5V6.44445H18V3C18 2.44772 17.5523 2 17 2H13.5556V3.5ZM18 13.5556H16.5V16.5H13.5556V18H17C17.5523 18 18 17.5523 18 17V13.5556ZM6.44444 18V16.5H3.5V13.5556H2V17C2 17.5523 2.44772 18 3 18H6.44444ZM10 6C12.2091 6 14 7.99871 14 9C14 9.62317 13.3064 10.6326 12.2499 11.3062L12.3207 9.64982C12.5482 9.39324 12.6667 9.1491 12.6667 9C12.6667 8.79059 12.433 8.39372 11.9918 8.03818L11.9354 7.99465L11.9354 8C11.9354 8.02104 11.9349 8.04207 11.9339 8.06308L11.7474 12L12.3293 17.26C12.3698 17.626 12.106 17.9555 11.74 17.996C11.4002 18.0336 11.0918 17.8088 11.0171 17.4835L11.004 17.4067L10.4053 12C10.3677 11.8108 10.2024 11.6667 10.0033 11.6667C9.80429 11.6667 9.63892 11.8108 9.60597 12.0005L9.596 12L8.99592 17.407C8.95817 17.7468 8.67126 17.9984 8.33748 18.0001L8.25971 17.9959C7.91991 17.9582 7.66828 17.6713 7.66662 17.3375L7.67074 17.2597L8.25528 12H8.2543L8.0666 8.0635L8.06492 7.99358C8.04582 8.00824 8.02691 8.02311 8.00821 8.03818C7.56703 8.39372 7.33333 8.79059 7.33333 9C7.33333 9.14923 7.45201 9.39366 7.67987 9.65049L7.75209 11.3279C6.69453 10.67 6 9.67142 6 9C6 7.92185 7.79086 6 10 6ZM10 5.55556C10.9818 5.55556 11.7778 4.75962 11.7778 3.77778C11.7778 2.79594 10.9818 2 10 2C9.01816 2 8.22222 2.79594 8.22222 3.77778C8.22222 4.75962 9.01816 5.55556 10 5.55556Z" fill="#A5B7C0"/>
</svg>
