<svg width="20" height="20" viewBox="0 0 20 20" fill="none" xmlns="http://www.w3.org/2000/svg">
<path d="M11.2995 13.1416C11.229 13.1416 11.229 13.0722 11.229 13.0722L10.9468 14.1133L8.68983 16.8895C8.47823 17.1671 8.47823 17.653 8.76036 17.8612C8.90142 18 9.04249 18 9.18355 18C9.39514 18 9.60674 17.9306 9.7478 17.7224L12.1459 14.8073C12.2164 14.7379 12.2869 14.5991 12.2869 14.5297L12.3575 14.1133C11.9343 13.6968 11.5111 13.3498 11.2995 13.1416Z" fill="#A5B7C0"/>
<path d="M17.7885 10.2265L16.4484 8.90776L15.6725 7.38082C15.4609 6.68675 14.8261 6.20091 14.1208 6.1315H13.0628H12.4986C11.229 6.1315 10.1711 6.75616 9.46574 8.00548L8.40777 9.94886C8.19617 10.2959 8.33724 10.7123 8.68989 10.8511C9.04255 11.0594 9.46574 10.9205 9.6068 10.5735L10.6648 8.63013C11.0174 8.00548 11.4406 7.65844 12.0049 7.51963C11.7933 8.21369 11.5112 9.11598 11.2996 9.74064C11.0174 10.6429 11.229 11.684 11.9343 12.2393C12.4986 12.7251 13.8387 14.1132 14.2619 14.5297L15.1083 17.3754C15.1788 17.653 15.4609 17.8612 15.8136 17.8612C15.8841 17.8612 15.9546 17.8612 16.0252 17.8612C16.3778 17.7224 16.5894 17.3754 16.5189 17.0283L15.602 13.9744C15.602 13.905 15.5314 13.7662 15.4609 13.6968C15.3904 13.6274 13.2744 10.8511 13.2744 10.8511L14.4735 7.86666L15.2493 9.46301C15.3199 9.53242 15.3199 9.60183 15.3904 9.67123L16.801 11.0594C16.9421 11.1982 17.1537 11.2676 17.2947 11.2676C17.4358 11.2676 17.6474 11.1982 17.7885 11.0594C18.0706 10.9205 18.0706 10.5041 17.7885 10.2265Z" fill="#A5B7C0"/>
<path d="M14.8261 5.50585C15.7999 5.50585 16.5894 4.72899 16.5894 3.77068C16.5894 2.81238 15.7999 2.03552 14.8261 2.03552C13.8523 2.03552 13.0628 2.81238 13.0628 3.77068C13.0628 4.72899 13.8523 5.50585 14.8261 5.50585Z" fill="#A5B7C0"/>
<path opacity="0.3" d="M2.90627 18C2.48308 18 2.20095 17.7224 2.20095 17.306C2.20095 16.126 2.48308 15.0155 3.04733 13.9744C1.77776 11.8922 1.6367 9.32421 2.7652 7.17261L3.89371 5.02101C4.52849 3.9105 5.30433 3.00822 6.22124 2.24474C6.50337 1.96712 6.99709 2.03653 7.20868 2.31415C7.49081 2.59178 7.42028 3.07762 7.13815 3.28584C6.36231 3.97991 5.65699 4.74338 5.16327 5.71507L4.03477 7.86667C3.04733 9.74065 3.18839 11.8922 4.45796 13.6274C4.59902 13.8356 4.59902 14.1827 4.45796 14.3909C3.89371 15.2238 3.61158 16.2649 3.61158 17.306C3.61158 17.7224 3.25892 18 2.90627 18Z" fill="#A5B7C0"/>
<path opacity="0.6" d="M6.08013 18C5.65694 18 5.37482 17.7224 5.37482 17.3059C5.37482 16.4037 5.65694 15.5708 6.2212 14.8767L7.20864 13.6968C5.37482 12.7251 4.6695 10.4347 5.58641 8.56072L6.71492 6.47852C7.49076 5.09039 8.61927 4.1187 9.88883 3.56345C9.88883 3.21642 9.95936 2.86938 10.0299 2.52235C10.1004 2.17532 10.5236 1.89769 10.8763 2.03651C11.2289 2.10591 11.5111 2.52235 11.37 2.86938C11.2995 3.14701 11.2289 3.42464 11.2289 3.70226C11.2289 3.77167 11.2289 3.84107 11.2289 3.91048C11.2289 4.25751 11.0879 4.53514 10.7352 4.67395C9.53617 5.09039 8.54873 5.92327 7.84342 7.10318L6.78545 9.11597C6.15066 10.2959 6.64438 11.7534 7.84342 12.3781C7.98448 12.4475 8.19608 12.5169 8.4782 12.5863C8.6898 12.6557 8.90139 12.7945 8.97192 13.0027C9.04245 13.211 9.04245 13.4886 8.83086 13.6968L7.20864 15.6402C6.85598 16.0566 6.64438 16.6119 6.64438 17.1671C6.78545 17.7224 6.43279 18 6.08013 18Z" fill="#A5B7C0"/>
</svg>
