<svg width="20" height="20" viewBox="0 0 20 20" fill="none" xmlns="http://www.w3.org/2000/svg">
<path fill-rule="evenodd" clip-rule="evenodd" d="M10 2C7.73054 2 5.83159 3.72233 5.61074 5.98102L5.08749 11.3325C5.03461 11.8733 4.65895 12.328 4.1378 12.482L3.43408 12.6899C3.17666 12.766 3 13.0024 3 13.2708V14H5H17V13.2708C17 13.0024 16.8233 12.766 16.5659 12.6899L15.8622 12.482C15.3411 12.328 14.9654 11.8733 14.9125 11.3325L14.3893 5.98102C14.1684 3.72233 12.2695 2 10 2ZM10 18C11.1429 18 12.2857 16.9169 12.2857 16.2857C12.2857 15.7058 11.4218 15.7091 10.3023 15.7135C10.2034 15.7139 10.1025 15.7143 10 15.7143C9.89753 15.7143 9.79664 15.7139 9.69774 15.7135C8.57824 15.7091 7.71429 15.7058 7.71429 16.2857C7.71429 16.9169 8.85714 18 10 18Z" fill="#A5B7C0"/>
</svg>
