<svg width="20" height="20" viewBox="0 0 20 20" fill="none" xmlns="http://www.w3.org/2000/svg">
<g clip-path="url(#clip0_3_1508)">
<path fill-rule="evenodd" clip-rule="evenodd" d="M6.15803 1.76088C3.82075 2.85077 2.69218 5.53654 3.54945 7.96879L5.58058 13.7315C5.78585 14.3139 5.61733 14.9626 5.15455 15.3715L4.52965 15.9235C4.30107 16.1255 4.23266 16.4538 4.36157 16.7303L4.71175 17.4812L6.77153 16.5207L19.1302 10.7578L18.78 10.0068C18.6511 9.73039 18.3556 9.57176 18.054 9.61706L17.2294 9.74088C16.6187 9.83258 16.0134 9.5447 15.6992 9.01309L12.5903 3.75296C11.2782 1.53283 8.49532 0.670985 6.15803 1.76088ZM13.842 18.2391C15.019 17.6902 15.6758 16.0259 15.3727 15.3759C15.0942 14.7786 14.206 15.197 13.0552 15.7391C12.9535 15.787 12.8498 15.8358 12.7443 15.885C12.6387 15.9343 12.5346 15.9823 12.4326 16.0294C11.2775 16.5625 10.3861 16.974 10.6647 17.5713C10.9678 18.2213 12.6649 18.7879 13.842 18.2391Z" fill="#3A911E"/>
</g>
<defs>
<clipPath id="clip0_3_1508">
<rect width="20" height="20" fill="white"/>
</clipPath>
</defs>
</svg>
