<?xml version="1.0" encoding="utf-8"?>
<!-- Generator: Adobe Illustrator 19.2.0, SVG Export Plug-In . SVG Version: 6.00 Build 0)  -->
<svg version="1.1" id="Layer_1" xmlns="http://www.w3.org/2000/svg" xmlns:xlink="http://www.w3.org/1999/xlink" x="0px" y="0px"
	 viewBox="0 0 20 20" enable-background="new 0 0 20 20" xml:space="preserve">
<path fill="#A5B7C0" d="M17,3H3C2.45,3,2,3.45,2,4v2c0,0.55,0.45,1,1,1v2c0,3.859,3.14,7,7,7c3.859,0,7-3.141,7-7V7
	c0.55,0,1-0.45,1-1V4C18,3.45,17.55,3,17,3z M15,9c0,2.757-2.243,5-5,5s-5-2.243-5-5V7h10V9z"/>
<circle fill="#A5B7C0" cx="10" cy="11" r="1.7"/>
</svg>
