<?xml version="1.0" encoding="utf-8"?>
<!-- Generator: Adobe Illustrator 19.2.0, SVG Export Plug-In . SVG Version: 6.00 Build 0)  -->
<svg version="1.1" id="Layer_1" xmlns="http://www.w3.org/2000/svg" xmlns:xlink="http://www.w3.org/1999/xlink" x="0px" y="0px"
	 viewBox="0 0 20 20" enable-background="new 0 0 20 20" xml:space="preserve">
<path fill="#A5B7C0" d="M17,3H3C2.45,3,2,3.45,2,4v2c0,0.55,0.45,1,1,1v2c0,3.859,3.14,7,7,7c0.17,0,0.336-0.014,0.503-0.025
	c0.008-0.806,0.396-1.521,0.997-1.974v-0.256C11.023,13.896,10.526,14,10,14c-2.757,0-5-2.243-5-5V7h10v1.621
	C15.322,8.547,15.655,8.5,16,8.5c0.345,0,0.678,0.047,1,0.121V7c0.55,0,1-0.45,1-1V4C18,3.45,17.55,3,17,3z"/>
<path fill="#CF2727" d="M19,19c0.55,0,1-0.45,1-1v-2c0-0.55-0.45-1-1-1v-2c0-1.654-1.346-3-3-3s-3,1.346-3,3v2c-0.55,0-1,0.45-1,1v2
	c0,0.55,0.45,1,1,1H19z M16,12c0.551,0,1,0.449,1,1v2h-2v-2C15,12.449,15.449,12,16,12z"/>
<circle fill="#A5B7C0" cx="10" cy="11" r="1.7"/>
</svg>
