<?xml version="1.0" encoding="utf-8"?>
<!-- Generator: Adobe Illustrator 23.0.1, SVG Export Plug-In . SVG Version: 6.00 Build 0)  -->
<svg version="1.1" id="Layer_5" xmlns="http://www.w3.org/2000/svg" xmlns:xlink="http://www.w3.org/1999/xlink" x="0px" y="0px"
	 viewBox="0 0 20 20" style="enable-background:new 0 0 20 20;" xml:space="preserve">
<style type="text/css">
	.st0{fill:none;}
	.st1{fill:#A5B7C0;}
</style>
<path class="st0" d="M2,13h15V4H2V13z M3,5h13v7H3V5z"/>
<path class="st1" d="M17,3H2C1.45,3,1,3.45,1,4v9c0,0.55,0.45,1,1,1h5v2H5c-0.28,0-0.5,0.22-0.5,0.5C4.5,16.78,4.72,17,5,17h9
	c0.28,0,0.5-0.22,0.5-0.5c0-0.28-0.22-0.5-0.5-0.5h-2v-2h5c0.55,0,1-0.45,1-1V4C18,3.45,17.55,3,17,3z M17,13H2V4h15V13z"/>
<rect x="3" y="5" class="st1" width="13" height="7"/>
</svg>
