<?xml version="1.0" encoding="utf-8"?>
<!-- Generator: Adobe Illustrator 23.0.1, SVG Export Plug-In . SVG Version: 6.00 Build 0)  -->
<svg version="1.1" id="Layer_1" xmlns="http://www.w3.org/2000/svg" xmlns:xlink="http://www.w3.org/1999/xlink" x="0px" y="0px"
	 viewBox="0 0 20 20" style="enable-background:new 0 0 20 20;" xml:space="preserve">
<style type="text/css">
	.st0{fill:#A5B7C0;}
</style>
<g>
	<path class="st0" d="M12,11.5c0,0.28-0.22,0.5-0.5,0.5h-10C1.23,12,1,11.78,1,11.5v-8C1,3.23,1.23,3,1.5,3h10
		C11.78,3,12,3.23,12,3.5V11.5z"/>
</g>
<g>
	<path class="st0" d="M6,16.5C6,16.78,5.77,17,5.5,17h-4C1.23,17,1,16.78,1,16.5v-3C1,13.22,1.23,13,1.5,13h4
		C5.77,13,6,13.22,6,13.5V16.5z"/>
</g>
<g>
	<path class="st0" d="M12,16.5c0,0.28-0.22,0.5-0.5,0.5h-4C7.23,17,7,16.78,7,16.5v-3C7,13.22,7.23,13,7.5,13h4
		c0.28,0,0.5,0.22,0.5,0.5V16.5z"/>
</g>
<g>
	<path class="st0" d="M18,6.5C18,6.77,17.78,7,17.5,7h-4C13.22,7,13,6.77,13,6.5v-3C13,3.23,13.22,3,13.5,3h4
		C17.78,3,18,3.23,18,3.5V6.5z"/>
</g>
<g>
	<path class="st0" d="M18,11.5c0,0.28-0.22,0.5-0.5,0.5h-4c-0.28,0-0.5-0.22-0.5-0.5v-3C13,8.23,13.22,8,13.5,8h4
		C17.78,8,18,8.23,18,8.5V11.5z"/>
</g>
<g>
	<path class="st0" d="M18,16.5c0,0.28-0.22,0.5-0.5,0.5h-4c-0.28,0-0.5-0.22-0.5-0.5v-3c0-0.28,0.22-0.5,0.5-0.5h4
		c0.28,0,0.5,0.22,0.5,0.5V16.5z"/>
</g>
</svg>
