<?xml version="1.0" encoding="utf-8"?>
<!-- Generator: Adobe Illustrator 23.0.1, SVG Export Plug-In . SVG Version: 6.00 Build 0)  -->
<svg version="1.1" id="Layer_1" xmlns="http://www.w3.org/2000/svg" xmlns:xlink="http://www.w3.org/1999/xlink" x="0px" y="0px"
	 viewBox="0 0 20 20" style="enable-background:new 0 0 20 20;" xml:space="preserve">
<style type="text/css">
	.st0{fill:#A5B7C0;}
	.st1{fill:#E1E7EA;}
</style>
<path class="st0" d="M8.31,11.79c0.64-0.78,1.6-1.29,2.69-1.29c0.34,0,0.68,0.05,1,0.15V3.5C12,3.22,11.78,3,11.5,3h-10
	C1.22,3,1,3.22,1,3.5v6.17C1.8,8.95,2.84,8.5,4,8.5C6.06,8.5,7.78,9.9,8.31,11.79z"/>
<path class="st0" d="M13.5,7h4C17.78,7,18,6.77,18,6.5v-3C18,3.22,17.78,3,17.5,3h-4C13.22,3,13,3.22,13,3.5v3
	C13,6.77,13.22,7,13.5,7z"/>
<path class="st0" d="M15.22,8H13.5C13.22,8,13,8.22,13,8.5v1.7l0.7-0.35C13.97,9.07,14.52,8.42,15.22,8z"/>
<path class="st1" d="M17,15c-0.41,0-0.78,0.12-1.1,0.33L13.24,14l2.66-1.33C16.22,12.88,16.59,13,17,13c1.11,0,2-0.9,2-2
	s-0.89-2-2-2c-1.06,0-1.92,0.83-1.99,1.88l-2.91,1.46C11.79,12.12,11.41,12,11,12c-1.1,0-2,0.9-2,2s0.9,2,2,2
	c0.41,0,0.79-0.12,1.1-0.33l2.91,1.46C15.08,18.17,15.94,19,17,19c1.11,0,2-0.9,2-2S18.11,15,17,15z"/>
<path class="st1" d="M8,16c0-0.55-0.45-1-1-1v-1.5V13c0-1.65-1.35-3-3-3s-3,1.35-3,3v0.5V15c-0.55,0-1,0.45-1,1v2c0,0.55,0.45,1,1,1
	h6c0.55,0,1-0.45,1-1V16z M5,13v2H3v-2c0-0.55,0.45-1,1-1S5,12.45,5,13z"/>
</svg>
