<?xml version="1.0" encoding="utf-8"?>
<!-- Generator: Adobe Illustrator 23.0.1, SVG Export Plug-In . SVG Version: 6.00 Build 0)  -->
<svg version="1.1" id="Layer_1" xmlns="http://www.w3.org/2000/svg" xmlns:xlink="http://www.w3.org/1999/xlink" x="0px" y="0px"
	 viewBox="0 0 20 20" style="enable-background:new 0 0 20 20;" xml:space="preserve">
<style type="text/css">
	.st0{fill:#A5B7C0;}
	.st1{fill:#E1E7EA;}
</style>
<path class="st0" d="M2,15c0,0.55,0.45,1,1,1h5.14c-0.21-0.3-0.36-0.64-0.47-1H2z"/>
<path class="st0" d="M17,5c0-0.55-0.45-1-1-1v3.65c0.32-0.1,0.65-0.15,1-0.15V5z"/>
<path class="st0" d="M12.99,10h-2.98C10,10,10,10,10,10.01v0.65c0.32-0.1,0.65-0.16,1-0.16c0.37,0,0.73,0.06,1.07,0.17L13,10.2
	L12.99,10C13,10,13,10,12.99,10z"/>
<path class="st0" d="M1,13V3h13v6.23c0.25-0.43,0.59-0.81,1-1.09V3c0-0.55-0.45-1-1-1H1C0.45,2,0,2.45,0,3v10c0,0.55,0.45,1,1,1h6.5
	c0-0.35,0.07-0.68,0.16-1H1z"/>
<path class="st0" d="M10.01,4C10,4,10,4,10.01,4L10,5.99C10,6,10,6,10.01,6h2.98C13,6,13,6,13,5.99V4.01C13,4,13,4,12.99,4H10.01z"
	/>
<path class="st0" d="M2.01,10C2,10,2,10,2.01,10L2,11.99C2,12,2,12,2.01,12h2.98C5,12,5,12,5,11.99v-1.98C5,10,5,10,4.99,10H2.01z"
	/>
<path class="st0" d="M10.01,7C10,7,10,7,10.01,7L10,8.99C10,9,10,9,10.01,9h2.98C13,9,13,9,13,8.99V7.01C13,7,13,7,12.99,7H10.01z"
	/>
<path class="st0" d="M2.01,4C2,4,2,4,2.01,4L2,8.99C2,9,2,9,2.01,9h6.98C9,9,9,9,9,8.99V4.01C9,4,9,4,8.99,4H2.01z"/>
<path class="st0" d="M11,17.5c-0.65,0-1.25-0.19-1.77-0.5H4c0,0.55,0.45,1,1,1h8.41l-1.34-0.67C11.73,17.44,11.37,17.5,11,17.5z"/>
<path class="st0" d="M8.99,10H6.01C6,10,6,10,6,10.01v1.98C6,12,6,12,6.01,12h2.13c0.24-0.34,0.53-0.63,0.86-0.86L8.99,10
	C9,10,9,10,8.99,10z"/>
<path class="st0" d="M19,14.14v-0.28c-0.07,0.05-0.13,0.1-0.2,0.14C18.87,14.04,18.93,14.09,19,14.14z"/>
<path class="st0" d="M19,7c0-0.55-0.45-1-1-1v1.66c0.36,0.11,0.7,0.26,1,0.47V7z"/>
<path class="st1" d="M17,15c-0.41,0-0.78,0.12-1.1,0.33L13.24,14l2.66-1.33C16.22,12.88,16.59,13,17,13c1.11,0,2-0.9,2-2
	s-0.89-2-2-2c-1.06,0-1.92,0.83-1.99,1.88l-2.91,1.46C11.79,12.12,11.41,12,11,12c-1.1,0-2,0.9-2,2s0.9,2,2,2
	c0.41,0,0.79-0.12,1.1-0.33l2.91,1.46C15.08,18.17,15.94,19,17,19c1.11,0,2-0.9,2-2S18.11,15,17,15z"/>
</svg>
