<?xml version="1.0" encoding="utf-8"?>
<!-- Generator: Adobe Illustrator 23.0.1, SVG Export Plug-In . SVG Version: 6.00 Build 0)  -->
<svg version="1.1" id="Layer_1" xmlns="http://www.w3.org/2000/svg" xmlns:xlink="http://www.w3.org/1999/xlink" x="0px" y="0px"
	 viewBox="0 0 20 20" style="enable-background:new 0 0 20 20;" xml:space="preserve">
<style type="text/css">
	.st0{fill:#A5B7C0;}
	.st1{fill:#E1E7EA;}
</style>
<path class="st0" d="M12,9.67V3.5C12,3.22,11.78,3,11.5,3h-10C1.22,3,1,3.22,1,3.5v8C1,11.77,1.22,12,1.5,12h9.12
	C10.83,11.08,11.32,10.28,12,9.67z"/>
<path class="st0" d="M5.5,13h-4C1.23,13,1,13.22,1,13.5v3C1,16.78,1.23,17,1.5,17h4C5.77,17,6,16.78,6,16.5v-3
	C6,13.22,5.77,13,5.5,13z"/>
<path class="st0" d="M10.5,14v-1h-3C7.23,13,7,13.22,7,13.5v3C7,16.78,7.23,17,7.5,17h2v-1C9.5,15.18,9.89,14.46,10.5,14z"/>
<path class="st0" d="M13.5,7h4C17.78,7,18,6.77,18,6.5v-3C18,3.23,17.78,3,17.5,3h-4C13.22,3,13,3.23,13,3.5v3
	C13,6.77,13.22,7,13.5,7z"/>
<path class="st0" d="M18,9.67V8.5C18,8.23,17.78,8,17.5,8h-4C13.22,8,13,8.23,13,8.5v0.49c0.61-0.3,1.28-0.49,2-0.49
	C16.16,8.5,17.2,8.95,18,9.67z"/>
<path class="st1" d="M18,19c0.55,0,1-0.45,1-1v-2c0-0.55-0.45-1-1-1v-1.5V13c0-1.65-1.35-3-3-3s-3,1.35-3,3v0.5V15
	c-0.55,0-1,0.45-1,1v2c0,0.55,0.45,1,1,1H18z M16,13v2h-2v-2c0-0.55,0.45-1,1-1S16,12.45,16,13z"/>
</svg>
