<?xml version="1.0" encoding="utf-8"?>
<!-- Generator: Adobe Illustrator 23.0.1, SVG Export Plug-In . SVG Version: 6.00 Build 0)  -->
<svg version="1.1" id="Layer_1" xmlns="http://www.w3.org/2000/svg" xmlns:xlink="http://www.w3.org/1999/xlink" x="0px" y="0px"
	 viewBox="0 0 20 20" style="enable-background:new 0 0 20 20;" xml:space="preserve">
<style type="text/css">
	.st0{fill:#A5B7C0;}
</style>
<path class="st0" d="M17,3L17,3H2C1.45,3,1,3.45,1,4v12c0,0.55,0.45,1,1,1h15c0.55,0,1-0.45,1-1V4C18,3.45,17.55,3,17,3z M17,16H2V4
	h15V16z"/>
<rect x="3" y="5" class="st0" width="8.33" height="6.33"/>
<rect x="12.33" y="5" class="st0" width="3.77" height="2.67"/>
<rect x="12.33" y="8.67" class="st0" width="3.77" height="2.67"/>
<rect x="12.33" y="12.33" class="st0" width="3.67" height="2.67"/>
<rect x="7.67" y="12.33" class="st0" width="3.67" height="2.67"/>
<rect x="3" y="12.33" class="st0" width="3.67" height="2.67"/>
</svg>
