<?xml version="1.0" encoding="utf-8"?>
<!-- Generator: Adobe Illustrator 19.2.0, SVG Export Plug-In . SVG Version: 6.00 Build 0)  -->
<svg version="1.1" id="Layer_1" xmlns="http://www.w3.org/2000/svg" xmlns:xlink="http://www.w3.org/1999/xlink" x="0px" y="0px"
	 viewBox="0 0 20 20" enable-background="new 0 0 20 20" xml:space="preserve">
<path fill="#A5B7C0" d="M4.5,7.25c0.173,0,0.337,0.037,0.495,0.091C4.981,7.228,4.966,7.117,4.951,7h10.098
	c-0.016,0.123-0.031,0.239-0.046,0.358c0.159-0.054,0.324-0.092,0.497-0.092c0.564,0,1.066,0.307,1.427,0.807
	c0.044-0.344,0.091-0.706,0.141-1.086C17.587,6.95,18,6.528,18,6V4c0-0.552-0.448-1-1-1H3C2.448,3,2,3.448,2,4v2
	c0,0.528,0.413,0.95,0.932,0.986C2.981,7.362,3.028,7.72,3.072,8.06C3.432,7.558,3.935,7.25,4.5,7.25z"/>
<path fill="#A5B7C0" d="M11.5,14.001V13c0-0.001,0-0.002,0-0.003l-5.612-0.003l-0.111-0.006l-0.052,0.005
	c-0.033-0.251-0.063-0.482-0.093-0.714C5.312,12.577,4.924,12.75,4.5,12.75c-0.31,0-0.598-0.1-0.858-0.266
	c0.033,0.25,0.065,0.5,0.101,0.771c0.138,1.05,1.106,1.814,2.189,1.739h4.793C10.899,14.602,11.161,14.257,11.5,14.001z"/>
<ellipse fill="#A5B7C0" cx="4.5" cy="10" rx="1.25" ry="2"/>
<path fill="#A5B7C0" d="M16.333,8.534c-0.222-0.319-0.511-0.518-0.833-0.518c-0.393,0-0.74,0.297-0.969,0.751
	C14.994,8.606,15.483,8.5,16,8.5C16.114,8.5,16.221,8.525,16.333,8.534z"/>
<circle fill="#A5B7C0" cx="10.031" cy="10.016" r="2"/>
<path fill="#CF2727" d="M19,19c0.55,0,1-0.45,1-1v-2c0-0.55-0.45-1-1-1v-2c0-1.654-1.346-3-3-3s-3,1.346-3,3v2c-0.55,0-1,0.45-1,1v2
	c0,0.55,0.45,1,1,1H19z M17,15h-2v-2c0-0.551,0.449-1,1-1c0.551,0,1,0.449,1,1V15z"/>
</svg>
