<?xml version="1.0" encoding="utf-8"?>
<!-- Generator: Adobe Illustrator 19.2.0, SVG Export Plug-In . SVG Version: 6.00 Build 0)  -->
<svg version="1.1" id="Layer_20" xmlns="http://www.w3.org/2000/svg" xmlns:xlink="http://www.w3.org/1999/xlink" x="0px" y="0px"
	 viewBox="0 0 20 20" enable-background="new 0 0 20 20" xml:space="preserve">
<path fill="none" d="M10.031,8.016c1.105,0,2,0.895,2,2c0,1.105-0.895,2-2,2c-1.105,0-2-0.895-2-2
	C8.031,8.911,8.927,8.016,10.031,8.016z"/>
<path fill="#A5B7C0" d="M17,3H3C2.448,3,2,3.448,2,4v2c0,0.528,0.413,0.95,0.932,0.986C2.981,7.362,3.028,7.72,3.072,8.06
	C3.432,7.558,3.935,7.25,4.5,7.25c0.173,0,0.337,0.037,0.495,0.091C4.981,7.228,4.966,7.117,4.951,7h10.098
	c-0.016,0.123-0.031,0.239-0.046,0.358c0.159-0.054,0.324-0.092,0.497-0.092c0.564,0,1.066,0.307,1.427,0.807
	c0.044-0.344,0.091-0.706,0.141-1.086C17.587,6.95,18,6.528,18,6V4C18,3.448,17.552,3,17,3z"/>
<path fill="#A5B7C0" d="M14.337,12.26c-0.039,0.24-0.077,0.479-0.122,0.739l-8.326-0.005l-0.111-0.006l-0.052,0.005
	c-0.033-0.251-0.063-0.482-0.093-0.714C5.312,12.577,4.924,12.75,4.5,12.75c-0.31,0-0.598-0.1-0.858-0.266
	c0.033,0.25,0.065,0.5,0.101,0.771c0.138,1.05,1.106,1.814,2.189,1.739h8.135C14.12,14.998,14.171,15,14.223,15
	c1.014,0,1.903-0.745,2.034-1.745c0.035-0.265,0.067-0.509,0.099-0.754c-0.259,0.165-0.546,0.264-0.855,0.264
	C15.062,12.766,14.663,12.577,14.337,12.26z"/>
<ellipse fill="#A5B7C0" cx="4.5" cy="10" rx="1.25" ry="2"/>
<ellipse fill="#A5B7C0" cx="15.5" cy="10.016" rx="1.25" ry="2"/>
<circle fill="#A5B7C0" cx="10.031" cy="10.016" r="2"/>
</svg>
