<?xml version="1.0" encoding="UTF-8" standalone="no"?>
<!-- Created with Inkscape (http://www.inkscape.org/) -->

<svg
   xmlns:dc="http://purl.org/dc/elements/1.1/"
   xmlns:cc="http://creativecommons.org/ns#"
   xmlns:rdf="http://www.w3.org/1999/02/22-rdf-syntax-ns#"
   xmlns:svg="http://www.w3.org/2000/svg"
   xmlns="http://www.w3.org/2000/svg"
   version="1.1"
   width="70"
   height="27"
   id="svg2"
   xml:space="preserve"><metadata
     id="metadata8"><rdf:RDF><cc:Work
         rdf:about=""><dc:format>image/svg+xml</dc:format><dc:type
           rdf:resource="http://purl.org/dc/dcmitype/StillImage" /><dc:title></dc:title></cc:Work></rdf:RDF></metadata><defs
     id="defs6"><clipPath
       id="clipPath16"><path
         d="M 0,85 224,85 224,0 0,0 0,85 z"
         id="path18" /></clipPath></defs><path
     d="m 70,0 0,23 c 0,2.216 -1.784,4 -4,4 L 4,27 C 1.784,27 0,25.216 0,23 L 0,0 z"
     id="rect3785"
     style="fill:#ffffff;fill-opacity:1;stroke:none" /><rect
     width="68"
     height="31"
     ry="4"
     x="1"
     y="-5.0000005"
     id="rect3779"
     style="fill:#212a2f;fill-opacity:1;stroke:none" /><path
     d="M 64.835823,17.972359 C 65.189186,17.436563 64.952597,17 64.313641,17 l -5.624797,0 c -0.641384,0 -0.878272,0.436563 -0.524603,0.972359 l 2.696828,4.082457 c 0.350946,0.535796 0.929702,0.535796 1.283066,0 l 2.691688,-4.082457 z"
     id="path30"
     style="fill:#ffffff;fill-opacity:1;fill-rule:nonzero;stroke:none" /><path
     d="M 50.754271,15.607483 C 50.342149,17.621156 48.78992,18.677104 47.346448,19 c -1.192057,0.248558 -2.384966,0.204062 -3.547831,-0.180254 -1.668767,-0.551815 -2.682555,-1.883598 -2.717982,-3.656663 -0.03798,-1.895786 -0.02522,-3.792988 -0.0091,-5.6893401 0.0079,-0.9709909 0.593478,-1.5851588 1.446851,-1.5925281 0.873212,-0.00732 1.47009,0.6297559 1.476893,1.6188856 0.01217,1.7356546 -0.0068,3.4713086 0.0096,5.2066786 0.0139,1.439199 1.242506,2.320063 2.570321,1.849305 0.746807,-0.264996 1.185539,-0.813977 1.202544,-1.611233 0.03373,-1.573539 0.02579,-3.148212 0.03599,-4.722317 0.0021,-0.3041078 -0.0091,-0.6093492 0.01474,-0.9120398 0.06094,-0.7754328 0.529142,-1.306842 1.228618,-1.418509 1.005786,-0.017881 1.605766,0.6240969 1.69711,1.1628657 z"
     id="path34-4"
     style="fill:#ffffff;fill-opacity:1;fill-rule:nonzero;stroke:none" /><path
     d="m 23.593893,9.0345864 c 0.251958,-0.7734492 0.728385,-1.1645662 1.48908,-1.1523793 0.861876,0.013603 1.436081,0.6470444 1.464139,1.6509119 0.02268,0.82248 0.0056,1.646093 0.006,2.469424 0,3.113634 2.72e-4,6.227551 -0.0012,9.341185 0,0.19641 0.0034,0.39537 -0.02353,0.588944 -0.128672,0.93273 -0.722717,1.459321 -1.575239,1.408023 -0.789037,-0.04761 -1.350772,-0.67652 -1.365509,-1.574106 -0.01672,-1.019739 -0.0046,-2.040046 -0.0048,-3.060068 0,-0.154746 0,-0.309493 0,-0.541046 -0.60935,0.411807 -1.17647,0.742557 -1.830316,0.872078 -1.627955,0.322814 -3.01217,-0.158997 -4.142443,-1.337451 -2.169001,-2.261111 -2.054783,-6.539312 0.174019,-8.7533759 1.40944,-1.4000862 4.250709,-1.756627 5.809793,0.087859"
     id="path38-1"
     style="fill:#ffffff;fill-opacity:1;fill-rule:nonzero;stroke:none" /><path
     d="m 27.210056,9.1489167 c 0.206895,-0.9004201 0.799523,-1.3680599 1.62342,-1.2810508 0.788754,0.083321 1.307976,0.7156315 1.311093,1.6191696 0.0063,1.7509585 -0.0077,3.5019175 0.0088,5.2525925 0.01304,1.392718 1.128289,2.205562 2.464323,1.823229 0.774299,-0.221632 1.195175,-0.779967 1.289837,-1.710996 0.08672,-1.319879 0.01077,-2.641459 0.03855,-3.961905 0.01275,-0.588376 -0.04167,-1.17817 0.03203,-1.7654132 0.17742,-0.8426025 0.739155,-1.3045744 1.531309,-1.260078 0.79924,0.044782 1.379681,0.6586642 1.391868,1.6021642 0.02579,1.967207 0.0768,3.938948 -0.02522,5.901337 -0.08616,1.658848 -0.993098,2.863376 -2.589593,3.414625 -1.687474,0.582707 -3.380331,0.580724 -5.021323,-0.224185 -1.310243,-0.642793 -1.949069,-1.72375 -2.055634,-3.151895 -0.05215,-2.085959 -0.05356,-4.171635 5.67e-4,-6.2575943"
     id="path42"
     style="fill:#ffffff;fill-opacity:1;fill-rule:nonzero;stroke:none" /><path
     d="m 40.442349,11.06406 c 0,2.128755 0.01049,4.25751 -0.0042,6.386266 -0.0074,1.11015 -0.895603,1.793188 -1.898337,1.496732 -0.57704,-0.170618 -0.884266,-0.583842 -0.992815,-1.149828 -0.04676,-0.243173 -0.04336,-0.49825 -0.04365,-0.748224 -0.0022,-3.989114 -0.0017,-7.9782277 -0.0012,-11.967341 0,-0.160981 -5.66e-4,-0.32253 0.01218,-0.4826615 0.07284,-0.9145907 0.671985,-1.4825608 1.525642,-1.4513847 0.805475,0.029474 1.393284,0.6493112 1.398386,1.5301751 0.0119,2.1287558 0.0039,4.2575107 0.0039,6.3862661"
     id="path46"
     style="fill:#ffffff;fill-opacity:1;fill-rule:nonzero;stroke:none" /><path
     d="m 23.582868,13.411812 c -0.01304,0.764947 -0.179121,1.487096 -0.624654,2.121671 -0.819929,1.168533 -2.411323,1.199426 -3.285103,0.07029 -0.894185,-1.15493 -0.8905,-3.153313 0.0074,-4.31221 0.880297,-1.135658 2.515621,-1.095412 3.333566,0.09211 0.418042,0.606799 0.575906,1.296073 0.568821,2.028142"
     id="path50"
     style="fill:#212a2f;fill-opacity:1;fill-rule:nonzero;stroke:none" /></svg>