<?xml version="1.0" encoding="utf-8"?>
<!-- Generator: Adobe Illustrator 23.0.4, SVG Export Plug-In . SVG Version: 6.00 Build 0)  -->
<svg version="1.1" id="Layer_4" xmlns="http://www.w3.org/2000/svg" xmlns:xlink="http://www.w3.org/1999/xlink" x="0px" y="0px"
	 viewBox="0 0 20 20" style="enable-background:new 0 0 20 20;" xml:space="preserve">
<style type="text/css">
	.st0{fill:#A5B7C0;}
</style>
<path class="st0" d="M17,3L17,3H2C1.4,3,1,3.5,1,4v12c0,0.5,0.4,1,1,1h15c0.5,0,1-0.5,1-1V4C18,3.5,17.5,3,17,3z M17,16H2V4h15V16z"
	/>
<path class="st0" d="M4,9.5v2C4,12.3,4.7,13,5.5,13H7v-1H5.5C5.2,12,5,11.8,5,11.5v-2C5,9.2,5.2,9,5.5,9H7V8H5.5C4.7,8,4,8.7,4,9.5z
	"/>
<path class="st0" d="M13.5,8H12v5h1v-2h0.5c0.8,0,1.5-0.7,1.5-1.5C15,8.7,14.3,8,13.5,8z M13.5,10H13V9h0.5C13.8,9,14,9.2,14,9.5
	C14,9.8,13.8,10,13.5,10z"/>
<path class="st0" d="M9.5,11c0.8,0,1.5-0.7,1.5-1.5S10.3,8,9.5,8H8v1h1.5C9.8,9,10,9.2,10,9.5S9.8,10,9.5,10C8.7,10,8,10.7,8,11.5
	V13h3v-1H9v-0.5C9,11.2,9.2,11,9.5,11z"/>
</svg>
