<svg width="20" height="20" viewBox="0 0 20 20" fill="none" xmlns="http://www.w3.org/2000/svg">
<path fill-rule="evenodd" clip-rule="evenodd" d="M3 3C2.44772 3 2 3.44772 2 4V6C2 6.55228 2.44772 7 3 7V10C3 13.6749 5.83179 16.6883 9.43228 16.9773C9.30342 16.5976 9.32378 16.1624 9.54756 15.7646L9.97768 15C7.22652 14.9879 5 12.754 5 10V7H15V8.60411C15.3245 8.71715 15.6158 8.94394 15.8074 9.28447L16.8945 11.2172C16.9639 10.8219 17 10.4152 17 10V7C17.5523 7 18 6.55228 18 6V4C18 3.44772 17.5523 3 17 3H3ZM11.9399 11.5115C11.7219 10.6431 10.9361 10 10 10C8.89543 10 8 10.8954 8 12C8 13.1046 8.89543 14 10 14C10.2053 14 10.4034 13.9691 10.5899 13.9116L11.9399 11.5115Z" fill="#A5B7C0"/>
<path fill-rule="evenodd" clip-rule="evenodd" d="M14.9358 9.77471C14.7446 9.43488 14.2554 9.43488 14.0642 9.77471L10.4191 16.2548C10.2317 16.5881 10.4725 17 10.8549 17H18.1451C18.5275 17 18.7683 16.5881 18.5809 16.2548L14.9358 9.77471ZM14 11.5H15V14.5H14V11.5ZM14 15H15V16H14V15Z" fill="#F8A400"/>
</svg>
