<?xml version="1.0" encoding="utf-8"?>
<!-- Generator: Adobe Illustrator 19.2.0, SVG Export Plug-In . SVG Version: 6.00 Build 0)  -->
<svg version="1.1" id="Layer_1" xmlns="http://www.w3.org/2000/svg" xmlns:xlink="http://www.w3.org/1999/xlink" x="0px" y="0px"
	 viewBox="0 0 20 20" enable-background="new 0 0 20 20" xml:space="preserve">
<path fill="#A5B7C0" d="M17,3H3C2.45,3,2,3.45,2,4v2c0,0.55,0.45,1,1,1v2c0,3.629,2.777,6.621,6.318,6.966
	c0.062-0.259,0.169-0.508,0.371-0.71L10.945,14l-0.087-0.087C10.578,13.962,10.294,14,10,14c-2.757,0-5-2.243-5-5V7h10v2
	c0,0.294-0.038,0.578-0.087,0.858L15,9.945l1.256-1.256c0.211-0.21,0.473-0.318,0.744-0.377V7c0.55,0,1-0.45,1-1V4
	C18,3.45,17.55,3,17,3z"/>
<path fill="#A5B7C0" d="M8.3,11c0,0.811,0.571,1.489,1.332,1.658c-0.511-0.59-0.503-1.475,0.058-2.035l1.113-1.113
	C10.562,9.38,10.292,9.3,10,9.3C9.062,9.3,8.3,10.061,8.3,11z"/>
<polygon fill="#CF2727" points="15,15.934 17.316,18.25 19.25,16.316 16.934,14 19.25,11.684 17.316,9.75 15,12.066 12.684,9.75 
	10.75,11.684 13.066,14 10.75,16.316 12.684,18.25 "/>
</svg>
