<?xml version="1.0" encoding="utf-8"?>
<!-- Generator: Adobe Illustrator 19.2.0, SVG Export Plug-In . SVG Version: 6.00 Build 0)  -->
<svg version="1.1" id="Layer_1" xmlns="http://www.w3.org/2000/svg" xmlns:xlink="http://www.w3.org/1999/xlink" x="0px" y="0px"
	 viewBox="0 0 20 20" enable-background="new 0 0 20 20" xml:space="preserve">
<path fill="#A5B7C0" d="M13.842,12.161C12.924,13.274,11.552,14,10,14c-2.757,0-5-2.243-5-5V7h8.884
	c0.004-0.005,0.007-0.011,0.012-0.016C14.18,6.676,14.58,6.5,15,6.5h2.846C17.935,6.351,18,6.186,18,6V4c0-0.55-0.45-1-1-1H3
	C2.45,3,2,3.45,2,4v2c0,0.55,0.45,1,1,1v2c0,3.859,3.14,7,7,7c1.552,0,2.983-0.514,4.145-1.373c-0.072-0.156-0.125-0.323-0.14-0.503
	L13.842,12.161z"/>
<circle fill="#A5B7C0" cx="10" cy="11" r="1.7"/>
<circle fill="#F8A500" cx="16.5" cy="17" r="1.7"/>
<polygon fill="#F8A500" points="15,8 15.498,13.976 15.5,14 17.5,14 17.502,13.976 18,8 "/>
</svg>
