<svg width="20" height="20" viewBox="0 0 20 20" fill="none" xmlns="http://www.w3.org/2000/svg">
<path fill-rule="evenodd" clip-rule="evenodd" d="M1 3C0.447715 3 0 3.44771 0 4V5.42857C0 5.98086 0.447716 6.42857 1 6.42857L1 9C1 12.3137 3.68629 15 7 15C10.3137 15 13 12.3137 13 9V6.42857C13.5523 6.42857 14 5.98086 14 5.42857V4C14 3.44772 13.5523 3 13 3H1ZM3 6.42857H11V9C11 11.2091 9.20914 13 7 13C4.79086 13 3 11.2091 3 9V6.42857ZM9 10C9 11.1046 8.10457 12 7 12C5.89543 12 5 11.1046 5 10C5 8.89543 5.89543 8 7 8C8.10457 8 9 8.89543 9 10ZM8.03889 15.9234C11.4122 15.4216 14 12.513 14 9V7.16101C14.5978 6.8152 15 6.16885 15 5.42857V4C15.5523 4 16 4.44772 16 5V6.42857C16 6.98086 15.5523 7.42857 15 7.42857V10C15 13.3137 12.3137 16 9 16C8.67285 16 8.35183 15.9738 8.03889 15.9234ZM10.0389 16.9234C13.4122 16.4216 16 13.513 16 10V8.16101C16.5978 7.8152 17 7.16885 17 6.42857V5C17.5523 5 18 5.44772 18 6V7.42857C18 7.98086 17.5523 8.42857 17 8.42857V11C17 14.3137 14.3137 17 11 17C10.6729 17 10.3518 16.9738 10.0389 16.9234Z" fill="#A5B7C0"/>
</svg>
