<svg width="20" height="20" viewBox="0 0 20 20" fill="none" xmlns="http://www.w3.org/2000/svg">
<path fill-rule="evenodd" clip-rule="evenodd" d="M10.7071 3.29289L10 2.58578L9.29289 3.29289L1.29289 11.2929L2.70711 12.7071L10 5.41421L15.1438 10.5581L16.409 9.29289C16.4601 9.24176 16.5154 9.19732 16.5738 9.15958L10.7071 3.29289ZM11.2139 10.2557L10.409 11.0607C10.0185 11.4512 10.0185 12.0843 10.409 12.4749L11.818 13.8839L10.409 15.2929C10.0185 15.6834 10.0185 16.3166 10.409 16.7071L10.7019 17H6C4.89543 17 4 16.1046 4 15C4 13.8954 4.89543 13 6 13H7C7 11.3431 8.34315 10 10 10C10.4321 10 10.8428 10.0913 11.2139 10.2557Z" fill="#A5B7C0"/>
<path fill-rule="evenodd" clip-rule="evenodd" d="M15 12.1161L12.8839 10L11.1161 11.7678L13.2322 13.8839L11.1161 16L12.8839 17.7678L15 15.6517L17.1161 17.7678L18.8839 16L16.7678 13.8839L18.8839 11.7678L17.1161 10L15 12.1161Z" fill="#C22626"/>
</svg>
