<svg width="20" height="20" viewBox="0 0 20 20" fill="none" xmlns="http://www.w3.org/2000/svg">
<path fill-rule="evenodd" clip-rule="evenodd" d="M10.7071 3.29289L10 2.58578L9.29289 3.29289L1.29289 11.2929L2.70711 12.7071L10 5.41421L12.8247 8.23895C13.1857 8.08512 13.5829 8 14 8H15C15.152 8 15.3014 8.01131 15.4473 8.03313L10.7071 3.29289ZM11.5 17H14C15.1046 17 16 16.1046 16 15C16 13.8954 15.1046 13 14 13H13.5H13C13 12.1175 12.619 11.3241 12.0125 10.7751C12.0042 10.849 12 10.924 12 11V13H11.5C11.2239 13 11 13.2239 11 13.5V16.5C11 16.7761 11.2239 17 11.5 17ZM11.1051 10.2101C11.0366 10.4618 11 10.7266 11 11V12.0854C10.4174 12.2913 10 12.8469 10 13.5V16.5C10 16.6753 10.0301 16.8436 10.0854 17H6C4.89543 17 4 16.1046 4 15C4 13.8954 4.89543 13 6 13H7C7 11.3431 8.34315 10 10 10C10.3902 10 10.7631 10.0745 11.1051 10.2101ZM13.6215 9.03576L15.0948 10.509C15.2949 10.5474 15.4526 10.7051 15.491 10.9052L17 12.4142V11C17 9.89543 16.1046 9 15 9H14C13.8706 9 13.7441 9.01229 13.6215 9.03576Z" fill="#A5B7C0"/>
<path fill-rule="evenodd" clip-rule="evenodd" d="M14 10.5H15C15.2761 10.5 15.5 10.7239 15.5 11V13H13.5V11C13.5 10.7239 13.7239 10.5 14 10.5ZM12 13V11C12 9.89543 12.8954 9 14 9H15C16.1046 9 17 9.89543 17 11V13H17.5C17.7761 13 18 13.2239 18 13.5V16.5C18 16.7761 17.7761 17 17.5 17H11.5C11.2239 17 11 16.7761 11 16.5V13.5C11 13.2239 11.2239 13 11.5 13H12Z" fill="#C22626"/>
</svg>
