<svg width="20" height="20" viewBox="0 0 20 20" fill="none" xmlns="http://www.w3.org/2000/svg">
<path fill-rule="evenodd" clip-rule="evenodd" d="M10.7071 3.29289L10 2.58578L9.29289 3.29289L1.29289 11.2929L2.70711 12.7071L10 5.41421L13.492 8.90624C14.1718 8.28631 15.3168 8.41238 15.8074 9.28447L17.5743 12.4257L18.7071 11.2929L10.7071 3.29289ZM12.2309 10.9942L9.54756 15.7646C9.31931 16.1704 9.30268 16.6149 9.44018 17H6C4.89543 17 4 16.1046 4 15C4 13.8954 4.89543 13 6 13H7C7 11.3431 8.34315 10 10 10C10.8857 10 11.6818 10.3838 12.2309 10.9942Z" fill="#A5B7C0"/>
<path fill-rule="evenodd" clip-rule="evenodd" d="M14.9358 9.77474C14.7446 9.43491 14.2554 9.43491 14.0642 9.77474L10.4191 16.2549C10.2317 16.5882 10.4725 17 10.8549 17H18.1451C18.5275 17 18.7684 16.5882 18.5809 16.2549L14.9358 9.77474ZM14 11.5H15V14.5H14V11.5ZM14 15H15V16H14V15Z" fill="#F8A400"/>
</svg>
