<svg width="20" height="20" viewBox="0 0 20 20" fill="none" xmlns="http://www.w3.org/2000/svg">
<path fill-rule="evenodd" clip-rule="evenodd" d="M2 5C2 4.44772 2.44772 4 3 4H17C17.5523 4 18 4.44772 18 5V9.5H15.937C15.715 8.63739 14.9319 8 14 8C12.8954 8 12 8.89543 12 10C12 11.1046 12.8954 12 14 12C14.9319 12 15.715 11.3626 15.937 10.5H18V15C18 15.5523 17.5523 16 17 16H3C2.44772 16 2 15.5523 2 15V11.5H3.40167C3.92015 12.3964 4.8888 13 6 13C7.65685 13 9 11.6569 9 10C9 8.34315 7.65685 7 6 7C4.8888 7 3.92015 7.60357 3.40167 8.5H2V5ZM6 12C5.06808 12 4.28503 11.3626 4.06301 10.5H2V9.5H4.06301C4.28503 8.63739 5.06808 8 6 8C7.10457 8 8 8.89543 8 10C8 11.1046 7.10457 12 6 12Z" fill="#A5B7C0"/>
</svg>
