<svg width="20" height="20" viewBox="0 0 20 20" fill="none" xmlns="http://www.w3.org/2000/svg">
<path fill-rule="evenodd" clip-rule="evenodd" d="M15 12.1161L12.8839 10L11.1161 11.7678L13.2322 13.8839L11.1161 16L12.8839 17.7678L15 15.6517L17.1161 17.7678L18.8839 16L16.7677 13.8839L18.8839 11.7678L17.1161 10L15 12.1161Z" fill="#C22626"/>
<path fill-rule="evenodd" clip-rule="evenodd" d="M3 4V16H10.1161C10.1161 16.2559 10.2137 16.5118 10.409 16.7071L10.7019 17H2.5C2.22386 17 2 16.7761 2 16.5V3.5C2 3.22386 2.22386 3 2.5 3H17.5C17.7761 3 18 3.22386 18 3.5V9.46968L17.8232 9.29289C17.5984 9.06805 17.2931 8.97266 17 9.00672V4H3ZM16 9.70189V9.25H14C13.8723 9.25 13.7488 9.28252 13.6401 9.342L15 10.7019L16 9.70189ZM11.1287 10.341L10.624 9.58397L8.62404 6.58397C8.48494 6.37533 8.25076 6.25 8 6.25C7.74924 6.25 7.51506 6.37533 7.37596 6.58397L5.59861 9.25H4V10.75H6C6.25076 10.75 6.48494 10.6247 6.62404 10.416L8 8.35208L9.37596 10.416L10.138 11.5591C10.1768 11.3764 10.2671 11.2025 10.409 11.0607L11.1287 10.341Z" fill="#A5B7C0"/>
</svg>
