<svg width="20" height="20" viewBox="0 0 20 20" fill="none" xmlns="http://www.w3.org/2000/svg">
<path fill-rule="evenodd" clip-rule="evenodd" d="M3 4V16H17V4H3ZM2.5 3C2.22386 3 2 3.22386 2 3.5V16.5C2 16.7761 2.22386 17 2.5 17H17.5C17.7761 17 18 16.7761 18 16.5V3.5C18 3.22386 17.7761 3 17.5 3H2.5Z" fill="#A5B7C0"/>
<path d="M6 10V10.75C6.25076 10.75 6.48494 10.6247 6.62404 10.416L6 10ZM8 7L8.62404 6.58397C8.48494 6.37533 8.25076 6.25 8 6.25C7.74924 6.25 7.51506 6.37533 7.37596 6.58397L8 7ZM12 13L11.376 13.416C11.5151 13.6247 11.7492 13.75 12 13.75C12.2508 13.75 12.4849 13.6247 12.624 13.416L12 13ZM14 10V9.25C13.7492 9.25 13.5151 9.37533 13.376 9.58397L14 10ZM4 10.75H6V9.25H4V10.75ZM6.62404 10.416L8.62404 7.41603L7.37596 6.58397L5.37596 9.58397L6.62404 10.416ZM7.37596 7.41603L9.37596 10.416L10.624 9.58397L8.62404 6.58397L7.37596 7.41603ZM9.37596 10.416L11.376 13.416L12.624 12.584L10.624 9.58397L9.37596 10.416ZM12.624 13.416L14.624 10.416L13.376 9.58397L11.376 12.584L12.624 13.416ZM14 10.75H16V9.25H14V10.75Z" fill="#A5B7C0"/>
</svg>
