<svg xmlns="http://www.w3.org/2000/svg" width="20" height="20" fill="none" viewBox="0 0 20 20">
  <g class="20x20/Solid/integration_proxied">
    <path fill="#A5B7C0" fill-rule="evenodd" d="M10.998 2a.5.5 0 0 0-.5.5V9a.5.5 0 0 0 .5.5h6.5a.5.5 0 0 0 .5-.5V2.5a.5.5 0 0 0-.5-.5h-6.5ZM2 11a.5.5 0 0 1 .5-.5H9c.07 0 .137.014.197.04-.124.19-.197.416-.197.66v2.6c0 .261.083.503.225.7a1.194 1.194 0 0 0-.225.7v2.6c0 .068.006.135.017.2H2.5a.5.5 0 0 1-.5-.5V11Zm.108-4.99a.368.368 0 0 1 0-.52L5.49 2.108a.368.368 0 0 1 .52 0L9.392 5.49a.368.368 0 0 1 0 .52L6.01 9.392a.368.368 0 0 1-.52 0L2.108 6.01Z" class="Primary" clip-rule="evenodd"/>
    <path fill="#E1E7EA" fill-rule="evenodd" d="M10 11.2c0-.11.09-.2.2-.2h7.6c.11 0 .2.09.2.2v2.6a.2.2 0 0 1-.2.2h-7.6a.2.2 0 0 1-.2-.2v-2.6Zm0 4c0-.11.09-.2.2-.2h7.6c.11 0 .2.09.2.2v2.6a.2.2 0 0 1-.2.2h-7.6a.2.2 0 0 1-.2-.2v-2.6Zm3-3.7h-2v1h2v-1Z" class="Secondary" clip-rule="evenodd"/>
  </g>
</svg>
