<svg width="20" height="20" viewBox="0 0 20 20" fill="none" xmlns="http://www.w3.org/2000/svg">
<path fill-rule="evenodd" clip-rule="evenodd" d="M0 2.5C0 2.22386 0.223858 2 0.5 2H13.5C13.7761 2 14 2.22386 14 2.5V5H0V2.5ZM0 6H14V13.5C14 13.7761 13.7761 14 13.5 14H0.5C0.223857 14 0 13.7761 0 13.5V6ZM6 3H5V4H6V3ZM1 3H2V4H1V3ZM4 3H3V4H4V3ZM2 15H15V8H16V15V16H15H2V15ZM16 7H15V4H16V7ZM17 17H4V18H17H18V17V10H17V17ZM18 6V9H17V6H18ZM3.46967 9.46973L5.46967 7.46973L6.53033 8.53039L5.06066 10.0001L6.53033 11.4697L5.46967 12.5304L3.46967 10.5304C3.17678 10.2375 3.17678 9.76262 3.46967 9.46973ZM10.5303 9.46973L8.53033 7.46973L7.46967 8.53039L8.93934 10.0001L7.46967 11.4697L8.53033 12.5304L10.5303 10.5304C10.8232 10.2375 10.8232 9.76262 10.5303 9.46973Z" fill="#A5B7C0"/>
</svg>
