<svg width="20" height="20" viewBox="0 0 20 20" fill="none" xmlns="http://www.w3.org/2000/svg">
<path fill-rule="evenodd" clip-rule="evenodd" d="M15 12.1161L12.8839 10L11.1161 11.7678L13.2322 13.8839L11.1161 16L12.8839 17.7678L15 15.6517L17.1161 17.7678L18.8839 16L16.7677 13.8839L18.8839 11.7678L17.1161 10L15 12.1161Z" fill="#C22626"/>
<path fill-rule="evenodd" clip-rule="evenodd" d="M2 5C2 4.44772 2.44772 4 3 4H17C17.5523 4 18 4.44772 18 5V9.46968L17.8232 9.29289C17.4327 8.90237 16.7995 8.90237 16.409 9.29289L15 10.7019L14.3132 10.0151L17 8L13 5L13 7H10C8.89543 7 8 7.89543 8 9H12.883C12.6274 9.00022 12.3718 9.09785 12.1768 9.29289L10.4697 11H7V9L3 12L7 15V13H10C10.2757 13 10.5384 12.9442 10.7774 12.8433L11.818 13.8839L10.409 15.2929C10.2137 15.4882 10.1161 15.7441 10.1161 16H3C2.44772 16 2 15.5523 2 15V5ZM12.8847 9C12.9232 9.00003 12.9617 9.00227 13 9.00673V9H12.8847Z" fill="#A5B7C0"/>
</svg>
