<svg width="20" height="20" viewBox="0 0 20 20" fill="none" xmlns="http://www.w3.org/2000/svg">
<path fill-rule="evenodd" clip-rule="evenodd" d="M14 10.5H15C15.2761 10.5 15.5 10.7239 15.5 11V13H13.5V11C13.5 10.7239 13.7239 10.5 14 10.5ZM12 13V11C12 9.89543 12.8954 9 14 9H15C16.1046 9 17 9.89543 17 11V13H17.5C17.7761 13 18 13.2239 18 13.5V16.5C18 16.7761 17.7761 17 17.5 17H11.5C11.2239 17 11 16.7761 11 16.5V13.5C11 13.2239 11.2239 13 11.5 13H12Z" fill="#C22626"/>
<path fill-rule="evenodd" clip-rule="evenodd" d="M2 5C2 4.44772 2.44772 4 3 4H17C17.5523 4 18 4.44772 18 5V11C18 9.88138 17.3878 8.90575 16.4801 8.38993L17 8L13 5L13 7H10C8.89543 7 8 7.89543 8 9H11.7639C11.2889 9.53076 11 10.2316 11 11L7 11V9L3 12L7 15V13H10C10.0288 13 10.0575 12.9994 10.086 12.9982C10.0303 13.1551 10 13.324 10 13.5V16H3C2.44772 16 2 15.5523 2 15V5Z" fill="#A5B7C0"/>
</svg>
