<svg width="20" height="20" viewBox="0 0 20 20" fill="none" xmlns="http://www.w3.org/2000/svg">
<path fill-rule="evenodd" clip-rule="evenodd" d="M10.5 3C10.7761 3 11 3.22386 11 3.5V10.5C11 10.7761 10.7761 11 10.5 11H2.5C2.22386 11 2 10.7761 2 10.5V3.5C2 3.22386 2.22386 3 2.5 3H10.5ZM12 10.5V9H17.5C17.7761 9 18 9.22386 18 9.5V16.5C18 16.7761 17.7761 17 17.5 17H9.5C9.22386 17 9 16.7761 9 16.5V12H10.5C11.3284 12 12 11.3284 12 10.5ZM15.5 5C15.5 4.72386 15.2761 4.5 15 4.5H12V5.5H14.5V8H15.5V5ZM5.5 12V14.5H8V15.5H5C4.72386 15.5 4.5 15.2761 4.5 15V12H5.5Z" fill="#A5B7C0"/>
</svg>
