<svg width="20" height="20" viewBox="0 0 20 20" fill="none" xmlns="http://www.w3.org/2000/svg">
<path fill-rule="evenodd" clip-rule="evenodd" d="M6.12602 6C6.57006 4.27477 8.13616 3 10 3C11.8638 3 13.4299 4.27477 13.874 6H15C16.6569 6 18 7.34315 18 9C18 9.35064 17.9398 9.68722 17.8293 10C17.4175 8.83482 16.3062 8 15 8H14C12.3431 8 11 9.34315 11 11V12H5C3.34315 12 2 10.6569 2 9C2 7.34315 3.34315 6 5 6H6.12602ZM10.0854 13H8.5C8.22386 13 8 13.2239 8 13.5V16.5C8 16.7761 8.22386 17 8.5 17H10.0854C10.0301 16.8436 10 16.6753 10 16.5V13.5C10 13.3247 10.0301 13.1564 10.0854 13ZM2.5 17C2.22386 17 2 16.7761 2 16.5V13.5C2 13.2239 2.22386 13 2.5 13H6.5C6.77614 13 7 13.2239 7 13.5V16.5C7 16.7761 6.77614 17 6.5 17H2.5Z" fill="#A5B7C0"/>
<path fill-rule="evenodd" clip-rule="evenodd" d="M14 10.5H15C15.2761 10.5 15.5 10.7239 15.5 11V13H13.5V11C13.5 10.7239 13.7239 10.5 14 10.5ZM12 13V11C12 9.89543 12.8954 9 14 9H15C16.1046 9 17 9.89543 17 11V13H17.5C17.7761 13 18 13.2239 18 13.5V16.5C18 16.7761 17.7761 17 17.5 17H11.5C11.2239 17 11 16.7761 11 16.5V13.5C11 13.2239 11.2239 13 11.5 13H12Z" fill="#E1E7EA"/>
</svg>
