<svg width="20" height="20" viewBox="0 0 20 20" fill="none" xmlns="http://www.w3.org/2000/svg">
<path fill-rule="evenodd" clip-rule="evenodd" d="M2 11C2 9.34315 3.34315 8 5 8C6.65685 8 8 9.34315 8 11V13H8.5C8.77614 13 9 13.2239 9 13.5V16.5C9 16.7761 8.77614 17 8.5 17H5H1.5C1.22386 17 1 16.7761 1 16.5V13.5C1 13.2239 1.22386 13 1.5 13H2V11ZM6 11V13H4V11C4 10.4477 4.44772 10 5 10C5.55228 10 6 10.4477 6 11ZM10 10.4667C10 10.2089 10.2089 10 10.4667 10H17.5333C17.7911 10 18 10.2089 18 10.4667V13C18 15.2091 16.2091 17 14 17C11.7909 17 10 15.2091 10 13V10.4667ZM15.5 14.5C15.5 15.3284 14.8284 16 14 16C13.1716 16 12.5 15.3284 12.5 14.5C12.5 13.6716 13.1716 13 14 13C14.8284 13 15.5 13.6716 15.5 14.5Z" fill="#E1E7EA"/>
<path fill-rule="evenodd" clip-rule="evenodd" d="M2.5 3C2.22386 3 2 3.22386 2 3.5V6.99963C2.83566 6.37194 3.87439 6 5 6C6.78055 6 8.34373 6.93071 9.22956 8.33219C9.59324 8.12095 10.0158 8 10.4667 8H13V3.5C13 3.22386 12.7761 3 12.5 3H2.5ZM18 7.5C18 7.77614 17.7761 8 17.5 8H14.5C14.2239 8 14 7.77614 14 7.5V3.5C14 3.22386 14.2239 3 14.5 3H17.5C17.7761 3 18 3.22386 18 3.5V7.5Z" fill="#A5B7C0"/>
</svg>
