<svg width="20" height="20" viewBox="0 0 20 20" fill="none" xmlns="http://www.w3.org/2000/svg">
<path fill-rule="evenodd" clip-rule="evenodd" d="M18 10C18 8.34315 16.6569 7 15 7H14.9C14.4367 4.71776 12.419 3 10 3C7.58104 3 5.56329 4.71776 5.10002 7H5C3.34315 7 2 8.34315 2 10C2 11.6569 3.34315 13 5 13H7H13H15C16.6569 13 18 11.6569 18 10ZM15.6782 6.05726C15.2468 4.79637 14.4077 3.72473 13.3178 3H17.5C17.7761 3 18 3.22386 18 3.5V7.35418C17.4089 6.68444 16.597 6.21417 15.6782 6.05726ZM4.3218 6.05726C4.75317 4.79637 5.59233 3.72473 6.68216 3H2.5C2.22386 3 2 3.22386 2 3.5V7.35418C2.59112 6.68444 3.40302 6.21417 4.3218 6.05726ZM2 16.5V12.6458C2.73294 13.4762 3.80531 14 5 14H7L7 16.5C7 16.7761 6.77614 17 6.5 17H2.5C2.22386 17 2 16.7761 2 16.5ZM8 16.5V14H12V16.5C12 16.7761 11.7761 17 11.5 17H8.5C8.22386 17 8 16.7761 8 16.5ZM13 16.5V14H15C16.1947 14 17.2671 13.4762 18 12.6458V16.5C18 16.7761 17.7761 17 17.5 17H13.5C13.2239 17 13 16.7761 13 16.5Z" fill="#A5B7C0"/>
</svg>
