<svg width="20" height="20" viewBox="0 0 20 20" fill="none" xmlns="http://www.w3.org/2000/svg">
<path fill-rule="evenodd" clip-rule="evenodd" d="M15 7C16.6569 7 18 8.34315 18 10C18 11.6569 16.6569 13 15 13H13H9.91465C9.764 12.5738 9.42621 12.236 9 12.0854V11C9 9.34315 7.65685 8 6 8H5C3.5135 8 2.27952 9.08114 2.04148 10.5C2.0142 10.3374 2 10.1704 2 10C2 8.34315 3.34315 7 5 7H5.10002C5.56329 4.71776 7.58104 3 10 3C12.419 3 14.4367 4.71776 14.9 7H15ZM9.91465 17H11.5C11.7761 17 12 16.7761 12 16.5V14H10V16.5C10 16.6753 9.96992 16.8436 9.91465 17ZM13.3178 3C14.4077 3.72473 15.2468 4.79637 15.6782 6.05726C16.597 6.21417 17.4089 6.68444 18 7.35418V3.5C18 3.22386 17.7761 3 17.5 3H13.3178ZM6.68216 3C5.59233 3.72473 4.75317 4.79637 4.3218 6.05726C3.40302 6.21417 2.59112 6.68444 2 7.35418V3.5C2 3.22386 2.22386 3 2.5 3H6.68216ZM13 14V16.5C13 16.7761 13.2239 17 13.5 17H17.5C17.7761 17 18 16.7761 18 16.5V12.6458C17.2671 13.4762 16.1947 14 15 14H13Z" fill="#A5B7C0"/>
<path fill-rule="evenodd" clip-rule="evenodd" d="M5 10.5H6C6.27614 10.5 6.5 10.7239 6.5 11V13H4.5V11C4.5 10.7239 4.72386 10.5 5 10.5ZM3 13V11C3 9.89543 3.89543 9 5 9H6C7.10457 9 8 9.89543 8 11V13H8.5C8.77614 13 9 13.2239 9 13.5V16.5C9 16.7761 8.77614 17 8.5 17H2.5C2.22386 17 2 16.7761 2 16.5V13.5C2 13.2239 2.22386 13 2.5 13H3Z" fill="#E1E7EA"/>
</svg>
