<?xml version="1.0" encoding="utf-8"?>
<!-- Generator: Adobe Illustrator 23.0.1, SVG Export Plug-In . SVG Version: 6.00 Build 0)  -->
<svg version="1.1" xmlns="http://www.w3.org/2000/svg" xmlns:xlink="http://www.w3.org/1999/xlink" x="0px" y="0px"
	 viewBox="0 0 20 20" style="enable-background:new 0 0 20 20;" xml:space="preserve">
<style type="text/css">
	.st0{display:none;}
	.st1{display:inline;fill:#A5B7C0;}
	.st2{display:inline;}
	.st3{fill:#A5B7C0;}
	.st4{fill:#CF2727;}
	.st5{fill:#E1E7EA;}
	.st6{display:inline;fill:#CF2727;}
	.st7{display:inline;fill:none;stroke:#E1E7EA;stroke-width:2;stroke-linecap:round;stroke-linejoin:round;stroke-miterlimit:10;}
	.st8{fill:none;}
	.st9{fill:#FFFFFF;}
</style>
<g id="layout" class="st0">
</g>
<g id="layout_1_" class="st0">
	<path class="st1" d="M12,11.3c0,0.39-0.31,0.7-0.7,0.7H1.7C1.31,12,1,11.69,1,11.3V3.7C1,3.31,1.31,3,1.7,3h9.6
		C11.69,3,12,3.31,12,3.7V11.3z"/>
	<path class="st1" d="M6,16.3C6,16.69,5.69,17,5.3,17H1.7C1.31,17,1,16.69,1,16.3v-2.6C1,13.31,1.31,13,1.7,13h3.6
		C5.69,13,6,13.31,6,13.7V16.3z"/>
	<path class="st1" d="M12,16.3c0,0.39-0.31,0.7-0.7,0.7H7.7C7.31,17,7,16.69,7,16.3v-2.6C7,13.31,7.31,13,7.7,13h3.6
		c0.39,0,0.7,0.31,0.7,0.7V16.3z"/>
	<path class="st1" d="M18,6.3C18,6.69,17.68,7,17.3,7h-3.6C13.32,7,13,6.69,13,6.3V3.7C13,3.31,13.32,3,13.7,3h3.6
		C17.68,3,18,3.31,18,3.7V6.3z"/>
	<path class="st1" d="M18,11.3c0,0.38-0.32,0.7-0.7,0.7h-3.6c-0.38,0-0.7-0.32-0.7-0.7V8.7C13,8.31,13.32,8,13.7,8h3.6
		C17.68,8,18,8.31,18,8.7V11.3z"/>
	<path class="st1" d="M18,16.3c0,0.38-0.32,0.7-0.7,0.7h-3.6c-0.38,0-0.7-0.32-0.7-0.7v-2.6c0-0.38,0.32-0.7,0.7-0.7h3.6
		c0.38,0,0.7,0.32,0.7,0.7V16.3z"/>
</g>
<g id="layout_locked" class="st0">
	<g class="st2">
		<path class="st3" d="M12,9.67V4c0-0.55-0.45-1-1-1H2C1.45,3,1,3.45,1,4v7c0,0.55,0.45,1,1,1h8.62C10.83,11.08,11.32,10.28,12,9.67
			z"/>
		<path class="st3" d="M5,13H2c-0.55,0-1,0.45-1,1v2c0,0.55,0.45,1,1,1h3c0.55,0,1-0.45,1-1v-2C6,13.45,5.55,13,5,13z"/>
		<path class="st3" d="M10.5,14v-1H8c-0.55,0-1,0.45-1,1v2c0,0.55,0.45,1,1,1h1.5v-1C9.5,15.18,9.89,14.46,10.5,14z"/>
		<path class="st3" d="M14,7h3c0.55,0,1-0.45,1-1V4c0-0.55-0.45-1-1-1h-3c-0.55,0-1,0.45-1,1v2C13,6.55,13.45,7,14,7z"/>
		<path class="st3" d="M18,9.67V9c0-0.55-0.45-1-1-1h-3c-0.55,0-0.99,0.44-1,0.99c0.6-0.3,1.28-0.49,2-0.49
			C16.16,8.5,17.2,8.95,18,9.67z"/>
		<path class="st4" d="M18,19c0.55,0,1-0.45,1-1v-2c0-0.55-0.45-1-1-1v-1v-1c0-1.65-1.35-3-3-3s-3,1.35-3,3v1v1c-0.55,0-1,0.45-1,1
			v2c0,0.55,0.45,1,1,1H18z M16,13v2h-2v-2c0-0.55,0.45-1,1-1S16,12.45,16,13z"/>
	</g>
</g>
<g id="videowall" class="st0">
	<rect x="2" y="5" class="st1" width="5" height="3"/>
	<rect x="12" y="5" class="st1" width="5" height="3"/>
	<rect x="2" y="13" class="st1" width="5" height="3"/>
	<rect x="12" y="13" class="st1" width="5" height="3"/>
	<path class="st1" d="M8,4v5H1V4H8 M8,3H1C0.45,3,0,3.45,0,4v5c0,0.55,0.45,1,1,1h7c0.55,0,1-0.45,1-1V4C9,3.45,8.55,3,8,3L8,3z"/>
	<path class="st1" d="M8,12v5H1v-5H8 M8,11H1c-0.55,0-1,0.45-1,1v5c0,0.55,0.45,1,1,1h7c0.55,0,1-0.45,1-1v-5C9,11.45,8.55,11,8,11
		L8,11z"/>
	<path class="st1" d="M18,4v5h-7V4H18 M18,3h-7c-0.55,0-1,0.45-1,1v5c0,0.55,0.45,1,1,1h7c0.55,0,1-0.45,1-1V4C19,3.45,18.55,3,18,3
		L18,3z"/>
	<path class="st1" d="M18,12v5h-7v-5H18 M18,11h-7c-0.55,0-1,0.45-1,1v5c0,0.55,0.45,1,1,1h7c0.55,0,1-0.45,1-1v-5
		C19,11.45,18.55,11,18,11L18,11z"/>
</g>
<g id="matrix" class="st0">
	<path class="st1" d="M8,8c0,0.55-0.45,1-1,1H2C1.45,9,1,8.55,1,8V5c0-0.55,0.45-1,1-1h5c0.55,0,1,0.45,1,1V8z"/>
	<path class="st1" d="M8,16c0,0.55-0.45,1-1,1H2c-0.55,0-1-0.45-1-1v-3c0-0.55,0.45-1,1-1h5c0.55,0,1,0.45,1,1V16z"/>
	<path class="st1" d="M18,8c0,0.55-0.45,1-1,1h-5c-0.55,0-1-0.45-1-1V5c0-0.55,0.45-1,1-1h5c0.55,0,1,0.45,1,1V8z"/>
	<path class="st1" d="M18,16c0,0.55-0.45,1-1,1h-5c-0.55,0-1-0.45-1-1v-3c0-0.55,0.45-1,1-1h5c0.55,0,1,0.45,1,1V16z"/>
</g>
<g id="screen" class="st0">
	<path class="st1" d="M17,4v12H2V4H17 M17,3H2C1.45,3,1,3.45,1,4v12c0,0.55,0.45,1,1,1h15c0.55,0,1-0.45,1-1V4C18,3.45,17.55,3,17,3
		L17,3z"/>
	<rect x="3" y="5" class="st1" width="13" height="10"/>
</g>
<g id="screen_controlled" class="st0">
	<g class="st2">
		<path class="st3" d="M2,16V4h15v1.82c0.37,0.16,0.7,0.39,1,0.66V4c0-0.55-0.45-1-1-1H2C1.45,3,1,3.45,1,4v12c0,0.55,0.45,1,1,1
			h7.5v-1H2z"/>
		<path class="st3" d="M11.75,9.25c0-2.07,1.68-3.75,3.75-3.75c0.17,0,0.34,0.03,0.5,0.05V5H3v10h6.56c0.29-1.41,1.65-2.5,3.33-3.07
			C12.19,11.25,11.75,10.3,11.75,9.25z"/>
		<circle class="st5" cx="15.5" cy="9.25" r="2.25"/>
		<path class="st5" d="M20,17v-1.45c0-1.32-2.25-2.55-4.5-2.55S11,14.23,11,15.55c0,0.09,0,1.45,0,1.45h6H20z"/>
	</g>
</g>
<g id="screen_offline" class="st0">
	<g class="st2">
		<path class="st3" d="M9.95,16H2V4h15v5.29c0.1-0.02,0.21-0.04,0.32-0.04c0.24,0,0.47,0.06,0.68,0.17V4c0-0.55-0.45-1-1-1H2
			C1.45,3,1,3.45,1,4v12c0,0.55,0.45,1,1,1h7.31c0.06-0.27,0.17-0.53,0.38-0.74L9.95,16z"/>
		<path class="st3" d="M3,5v10h7.94l-1.26-1.25c-0.59-0.59-0.59-1.54,0-2.12l1.93-1.93c0.28-0.28,0.66-0.44,1.06-0.44
			c0.4,0,0.78,0.16,1.06,0.44L15,10.95l1-1V5H3z"/>
		<polygon class="st4" points="19.25,17.32 16.93,15 19.25,12.68 17.32,10.75 15,13.07 12.68,10.75 10.75,12.68 13.07,15 
			10.75,17.32 12.68,19.25 15,16.93 17.32,19.25 		"/>
	</g>
	<g>
		<path class="st6" d="M17.32,20c-0.19,0-0.38-0.07-0.53-0.22L15,17.99l-1.79,1.79C13.07,19.93,12.88,20,12.68,20
			s-0.38-0.07-0.53-0.22l-1.93-1.93c-0.29-0.29-0.29-0.77,0-1.06L12.01,15l-1.79-1.79c-0.29-0.29-0.29-0.77,0-1.06l1.93-1.93
			C12.3,10.07,12.49,10,12.68,10s0.38,0.07,0.53,0.22L15,12.01l1.79-1.79c0.15-0.15,0.34-0.22,0.53-0.22s0.38,0.07,0.53,0.22
			l1.93,1.93c0.29,0.29,0.29,0.77,0,1.06L17.99,15l1.79,1.79c0.29,0.29,0.29,0.77,0,1.06l-1.93,1.93C17.7,19.93,17.51,20,17.32,20z"
			/>
		<path class="st2" d="M17.32,10.75l1.93,1.93L16.93,15l2.32,2.32l-1.93,1.93L15,16.93l-2.32,2.32l-1.93-1.93L13.07,15l-2.32-2.32
			l1.93-1.93L15,13.07L17.32,10.75 M17.32,9.25c-0.38,0-0.77,0.15-1.06,0.44L15,10.95l-1.26-1.26c-0.29-0.29-0.68-0.44-1.06-0.44
			c-0.38,0-0.77,0.15-1.06,0.44l-1.93,1.93c-0.59,0.59-0.59,1.54,0,2.12L10.95,15l-1.26,1.26c-0.59,0.59-0.59,1.54,0,2.12l1.93,1.93
			c0.29,0.29,0.68,0.44,1.06,0.44c0.38,0,0.77-0.15,1.06-0.44L15,19.05l1.26,1.26c0.29,0.29,0.68,0.44,1.06,0.44
			c0.38,0,0.77-0.15,1.06-0.44l1.93-1.93c0.59-0.59,0.59-1.54,0-2.12L19.05,15l1.26-1.26c0.59-0.59,0.59-1.54,0-2.12l-1.93-1.93
			C18.08,9.4,17.7,9.25,17.32,9.25L17.32,9.25z"/>
	</g>
</g>
<g id="screen_locked" class="st0">
	<g class="st2">
		<path class="st3" d="M2,16V4h15v4.99c0.36,0.18,0.7,0.41,1,0.68V4c0-0.55-0.45-1-1-1H2C1.45,3,1,3.45,1,4v12c0,0.55,0.45,1,1,1
			h7.5v-1H2z"/>
		<path class="st3" d="M3,5v10h6.72c0.17-0.39,0.44-0.74,0.78-1v-1c0-2.48,2.02-4.5,4.5-4.5c0.34,0,0.68,0.05,1,0.12V5H3z"/>
		<path class="st4" d="M18,19c0.55,0,1-0.45,1-1v-2c0-0.55-0.45-1-1-1v-2c0-1.65-1.35-3-3-3s-3,1.35-3,3v2c-0.55,0-1,0.45-1,1v2
			c0,0.55,0.45,1,1,1H18z M14,13c0-0.55,0.45-1,1-1s1,0.45,1,1v2h-2V13z"/>
	</g>
	<g>
		<path class="st6" d="M12,19.75c-0.96,0-1.75-0.79-1.75-1.75v-2c0-0.7,0.41-1.3,1-1.58V13c0-2.07,1.68-3.75,3.75-3.75
			s3.75,1.68,3.75,3.75v1.42c0.59,0.28,1,0.88,1,1.58v2c0,0.96-0.79,1.75-1.75,1.75H12z M15.25,14.25V13c0-0.14-0.11-0.25-0.25-0.25
			s-0.25,0.11-0.25,0.25v1.25H15.25z"/>
		<path class="st2" d="M15,10c1.65,0,3,1.35,3,3v2c0.55,0,1,0.45,1,1v2c0,0.55-0.45,1-1,1h-6c-0.55,0-1-0.45-1-1v-2
			c0-0.55,0.45-1,1-1v-2C12,11.35,13.35,10,15,10 M14,15h2v-2c0-0.55-0.45-1-1-1s-1,0.45-1,1V15 M15,8.5c-2.48,0-4.5,2.02-4.5,4.5v1
			c-0.61,0.46-1,1.18-1,2v2c0,1.38,1.12,2.5,2.5,2.5h6c1.38,0,2.5-1.12,2.5-2.5v-2c0-0.82-0.39-1.54-1-2v-1
			C19.5,10.52,17.48,8.5,15,8.5L15,8.5z"/>
	</g>
</g>
<g id="screen_controlled_1_" class="st0">
	<g class="st2">
		<path class="st3" d="M2,16V4h15v1.82c0.37,0.16,0.7,0.39,1,0.66V4c0-0.55-0.45-1-1-1H2C1.45,3,1,3.45,1,4v12c0,0.55,0.45,1,1,1
			h7.5v-1H2z"/>
		<path class="st3" d="M11.75,9.25c0-2.07,1.68-3.75,3.75-3.75c0.17,0,0.34,0.03,0.5,0.05V5H3v10h6.56c0.29-1.41,1.65-2.5,3.33-3.07
			C12.19,11.25,11.75,10.3,11.75,9.25z"/>
		<circle class="st5" cx="15.5" cy="9.25" r="2.25"/>
		<path class="st5" d="M20,17v-1.45c0-1.32-2.25-2.55-4.5-2.55S11,14.23,11,15.55c0,0.09,0,1.45,0,1.45h6H20z"/>
	</g>
	<g id="Layer_10">
		<g class="st2">
			<g>
				<circle class="st5" cx="15.5" cy="9.25" r="3"/>
				<path d="M15.5,7c1.24,0,2.25,1.01,2.25,2.25c0,1.24-1.01,2.25-2.25,2.25s-2.25-1.01-2.25-2.25C13.25,8.01,14.26,7,15.5,7
					 M15.5,5.5c-2.07,0-3.75,1.68-3.75,3.75c0,2.07,1.68,3.75,3.75,3.75s3.75-1.68,3.75-3.75C19.25,7.18,17.57,5.5,15.5,5.5
					L15.5,5.5z"/>
			</g>
			<g>
				<path class="st5" d="M10.25,17.75v-2.2c0-1.95,2.77-3.3,5.25-3.3s5.25,1.36,5.25,3.3v2.2H10.25z"/>
				<path d="M15.5,13c2.25,0,4.5,1.23,4.5,2.55V17h-9c0,0,0-1.35,0-1.45C11,14.23,13.25,13,15.5,13 M15.5,11.5c-2.9,0-6,1.63-6,4.05
					V17v1.5H11h9h1.5V17v-1.45C21.5,13.13,18.4,11.5,15.5,11.5L15.5,11.5z"/>
			</g>
		</g>
	</g>
</g>
<g id="Layer_11" class="st0">
	<g class="st2">
		<path class="st3" d="M12,11.5c0,0.28-0.22,0.5-0.5,0.5h-10C1.23,12,1,11.78,1,11.5v-8C1,3.23,1.23,3,1.5,3h10
			C11.78,3,12,3.23,12,3.5V11.5z"/>
	</g>
	<g class="st2">
		<path class="st3" d="M6,16.5C6,16.78,5.77,17,5.5,17h-4C1.23,17,1,16.78,1,16.5v-3C1,13.22,1.23,13,1.5,13h4
			C5.77,13,6,13.22,6,13.5V16.5z"/>
	</g>
	<g class="st2">
		<path class="st3" d="M12,16.5c0,0.28-0.22,0.5-0.5,0.5h-4C7.23,17,7,16.78,7,16.5v-3C7,13.22,7.23,13,7.5,13h4
			c0.28,0,0.5,0.22,0.5,0.5V16.5z"/>
	</g>
	<g class="st2">
		<path class="st3" d="M18,6.5C18,6.77,17.78,7,17.5,7h-4C13.22,7,13,6.77,13,6.5v-3C13,3.23,13.22,3,13.5,3h4
			C17.78,3,18,3.23,18,3.5V6.5z"/>
	</g>
	<g class="st2">
		<path class="st3" d="M18,11.5c0,0.28-0.22,0.5-0.5,0.5h-4c-0.28,0-0.5-0.22-0.5-0.5v-3C13,8.23,13.22,8,13.5,8h4
			C17.78,8,18,8.23,18,8.5V11.5z"/>
	</g>
	<g class="st2">
		<path class="st3" d="M18,16.5c0,0.28-0.22,0.5-0.5,0.5h-4c-0.28,0-0.5-0.22-0.5-0.5v-3c0-0.28,0.22-0.5,0.5-0.5h4
			c0.28,0,0.5,0.22,0.5,0.5V16.5z"/>
	</g>
	<g class="st2">
		<path class="st5" d="M17,19.75c-1.29,0-2.39-0.9-2.67-2.13l-2.22-1.11c-0.35,0.16-0.73,0.24-1.11,0.24
			c-1.52,0-2.75-1.23-2.75-2.75s1.23-2.75,2.75-2.75c0.39,0,0.76,0.08,1.11,0.24l2.22-1.11c0.28-1.22,1.38-2.13,2.67-2.13
			c1.52,0,2.75,1.23,2.75,2.75s-1.23,2.75-2.75,2.75c-0.39,0-0.76-0.08-1.11-0.24L14.91,14l0.97,0.49c0.35-0.16,0.73-0.24,1.11-0.24
			c1.52,0,2.75,1.23,2.75,2.75S18.52,19.75,17,19.75z"/>
		<path d="M17,9c1.11,0,2,0.9,2,2c0,1.1-0.89,2-2,2c-0.41,0-0.78-0.12-1.1-0.33L13.24,14l2.66,1.33C16.22,15.12,16.59,15,17,15
			c1.11,0,2,0.9,2,2s-0.89,2-2,2c-1.06,0-1.92-0.83-1.99-1.88l-2.91-1.46C11.79,15.88,11.41,16,11,16c-1.1,0-2-0.9-2-2s0.9-2,2-2
			c0.41,0,0.79,0.12,1.1,0.33l2.91-1.46C15.08,9.83,15.94,9,17,9 M17,7.5c-1.52,0-2.82,0.98-3.3,2.35l-1.63,0.81
			c-0.34-0.11-0.71-0.17-1.07-0.17c-1.93,0-3.5,1.57-3.5,3.5s1.57,3.5,3.5,3.5c0.37,0,0.73-0.06,1.07-0.17l1.63,0.81
			c0.48,1.37,1.78,2.35,3.3,2.35c1.93,0,3.5-1.57,3.5-3.5c0-1.27-0.68-2.39-1.7-3c1.02-0.61,1.7-1.73,1.7-3
			C20.5,9.07,18.93,7.5,17,7.5L17,7.5z"/>
	</g>
</g>
<g id="Layer_21" class="st0">
	<g class="st2">
		<path class="st3" d="M11,10.5c0.34,0,0.68,0.05,1,0.15V3.5C12,3.23,11.78,3,11.5,3h-10C1.23,3,1,3.23,1,3.5v8
			C1,11.78,1.23,12,1.5,12h6.64C8.77,11.1,9.81,10.5,11,10.5z"/>
		<path class="st3" d="M5.5,13h-4C1.23,13,1,13.22,1,13.5v3C1,16.78,1.23,17,1.5,17h4C5.77,17,6,16.78,6,16.5v-3
			C6,13.22,5.77,13,5.5,13z"/>
		<path class="st3" d="M7.5,14c0-0.35,0.07-0.68,0.16-1H7.5C7.23,13,7,13.22,7,13.5v3C7,16.78,7.23,17,7.5,17h1.73
			C8.2,16.39,7.5,15.28,7.5,14z"/>
		<path class="st3" d="M13.5,7h4C17.78,7,18,6.77,18,6.5v-3C18,3.23,17.78,3,17.5,3h-4C13.22,3,13,3.23,13,3.5v3
			C13,6.77,13.22,7,13.5,7z"/>
		<path class="st3" d="M15.22,8H13.5C13.22,8,13,8.23,13,8.5v1.7l0.7-0.35C13.97,9.07,14.52,8.42,15.22,8z"/>
		<path class="st5" d="M17,15c-0.41,0-0.78,0.12-1.1,0.33L13.24,14l2.66-1.33C16.22,12.88,16.59,13,17,13c1.11,0,2-0.9,2-2
			c0-1.1-0.89-2-2-2c-1.06,0-1.92,0.83-1.99,1.88l-2.91,1.46C11.79,12.12,11.41,12,11,12c-1.1,0-2,0.9-2,2s0.9,2,2,2
			c0.41,0,0.79-0.12,1.1-0.33l2.91,1.46C15.08,18.17,15.94,19,17,19c1.11,0,2-0.9,2-2S18.11,15,17,15z"/>
	</g>
</g>
<g id="Layer_19" class="st0">
	<g class="st2">
		<path class="st3" d="M12,11.5c0,0.27-0.23,0.5-0.5,0.5h-10C1.23,12,1,11.77,1,11.5v-8C1,3.22,1.23,3,1.5,3h10
			C11.77,3,12,3.22,12,3.5V11.5z"/>
	</g>
	<g class="st2">
		<path class="st3" d="M6,16.5C6,16.78,5.77,17,5.5,17h-4C1.23,17,1,16.78,1,16.5v-3C1,13.22,1.23,13,1.5,13h4
			C5.77,13,6,13.22,6,13.5V16.5z"/>
	</g>
	<g class="st2">
		<path class="st3" d="M12,16.5c0,0.28-0.22,0.5-0.5,0.5h-4C7.23,17,7,16.78,7,16.5v-3C7,13.22,7.23,13,7.5,13h4
			c0.28,0,0.5,0.22,0.5,0.5V16.5z"/>
	</g>
	<g class="st2">
		<path class="st3" d="M18,6.5C18,6.77,17.78,7,17.5,7h-4C13.22,7,13,6.77,13,6.5v-3C13,3.23,13.22,3,13.5,3h4
			C17.78,3,18,3.23,18,3.5V6.5z"/>
	</g>
	<g class="st2">
		<path class="st3" d="M18,11.5c0,0.28-0.22,0.5-0.5,0.5h-4c-0.28,0-0.5-0.22-0.5-0.5v-3C13,8.23,13.22,8,13.5,8h4
			C17.78,8,18,8.23,18,8.5V11.5z"/>
	</g>
	<g class="st2">
		<path class="st3" d="M18,16.5c0,0.28-0.22,0.5-0.5,0.5h-4c-0.28,0-0.5-0.22-0.5-0.5v-3c0-0.28,0.22-0.5,0.5-0.5h4
			c0.28,0,0.5,0.22,0.5,0.5V16.5z"/>
	</g>
	<g class="st2">
		<path class="st5" d="M16,8c1.1,0,2,0.9,2,2s-0.9,2-2,2s-2-0.9-2-2S14.9,8,16,8 M16,6c-2.21,0-4,1.79-4,4s1.79,4,4,4s4-1.79,4-4
			S18.21,6,16,6L16,6z"/>
	</g>
	<g class="st2">
		<path class="st5" d="M16,8.5c0.83,0,1.5,0.67,1.5,1.5s-0.67,1.5-1.5,1.5c-0.83,0-1.5-0.67-1.5-1.5S15.17,8.5,16,8.5 M16,6.5
			c-1.93,0-3.5,1.57-3.5,3.5s1.57,3.5,3.5,3.5s3.5-1.57,3.5-3.5S17.93,6.5,16,6.5L16,6.5z"/>
	</g>
	<polyline class="st7" points="14,19 16,19 16,13 	"/>
	<line class="st7" x1="14" y1="16" x2="16" y2="16"/>
</g>
<g id="Layer_18" class="st0">
	<path class="st1" d="M12,11.5c0,0.27-0.23,0.5-0.5,0.5h-10C1.23,12,1,11.77,1,11.5v-8C1,3.22,1.23,3,1.5,3h10
		C11.77,3,12,3.22,12,3.5V11.5z"/>
	<path class="st1" d="M6,16.5C6,16.78,5.77,17,5.5,17h-4C1.23,17,1,16.78,1,16.5v-3C1,13.22,1.23,13,1.5,13h4
		C5.77,13,6,13.22,6,13.5V16.5z"/>
	<path class="st1" d="M12,16.5c0,0.28-0.22,0.5-0.5,0.5h-4C7.23,17,7,16.78,7,16.5v-3C7,13.22,7.23,13,7.5,13h4
		c0.28,0,0.5,0.22,0.5,0.5V16.5z"/>
	<path class="st1" d="M18,6.5C18,6.77,17.78,7,17.5,7h-4C13.22,7,13,6.77,13,6.5v-3C13,3.23,13.22,3,13.5,3h4
		C17.78,3,18,3.23,18,3.5V6.5z"/>
	<path class="st1" d="M18,11.5c0,0.28-0.22,0.5-0.5,0.5h-4c-0.28,0-0.5-0.22-0.5-0.5v-3C13,8.23,13.22,8,13.5,8h4
		C17.78,8,18,8.23,18,8.5V11.5z"/>
	<path class="st1" d="M18,16.5c0,0.28-0.22,0.5-0.5,0.5h-4c-0.28,0-0.5-0.22-0.5-0.5v-3c0-0.28,0.22-0.5,0.5-0.5h4
		c0.28,0,0.5,0.22,0.5,0.5V16.5z"/>
	<g class="st2">
		<path class="st5" d="M14,20.75c-0.96,0-1.75-0.79-1.75-1.75c0-0.64,0.34-1.19,0.85-1.5c-0.51-0.31-0.85-0.86-0.85-1.5
			c0-0.96,0.79-1.75,1.75-1.75h0.25v-0.39c-1.52-0.68-2.5-2.17-2.5-3.86c0-2.34,1.91-4.25,4.25-4.25s4.25,1.91,4.25,4.25
			c0,1.69-0.98,3.18-2.5,3.86V19c0,0.96-0.79,1.75-1.75,1.75H14z M16,9.25c-0.41,0-0.75,0.34-0.75,0.75s0.34,0.75,0.75,0.75
			s0.75-0.34,0.75-0.75S16.41,9.25,16,9.25z"/>
		<path d="M16,6.5c1.93,0,3.5,1.57,3.5,3.5c0,1.58-1.06,2.91-2.5,3.34V19c0,0.55-0.45,1-1,1h-2c-0.55,0-1-0.45-1-1s0.45-1,1-1h1v-1
			h-1c-0.55,0-1-0.45-1-1c0-0.55,0.45-1,1-1h1v-1.66c-1.44-0.43-2.5-1.75-2.5-3.34C12.5,8.07,14.07,6.5,16,6.5 M16,11.5
			c0.83,0,1.5-0.67,1.5-1.5S16.83,8.5,16,8.5c-0.83,0-1.5,0.67-1.5,1.5S15.17,11.5,16,11.5 M16,5c-2.76,0-5,2.24-5,5
			c0,1.52,0.67,2.89,1.78,3.82c-0.76,0.43-1.28,1.25-1.28,2.18c0,0.56,0.19,1.08,0.5,1.5c-0.31,0.42-0.5,0.94-0.5,1.5
			c0,1.38,1.12,2.5,2.5,2.5h2c1.38,0,2.5-1.12,2.5-2.5v-4.68c1.53-0.87,2.5-2.5,2.5-4.32C21,7.24,18.76,5,16,5L16,5z"/>
	</g>
</g>
<g id="Layer_20" class="st0">
	<g class="st2">
		<path class="st3" d="M12,7.03V3.5C12,3.22,11.78,3,11.5,3h-10C1.22,3,1,3.22,1,3.5v8C1,11.77,1.22,12,1.5,12h9.92
			C11.15,11.38,11,10.71,11,10C11,8.88,11.38,7.86,12,7.03z"/>
		<path class="st3" d="M5.5,13h-4C1.23,13,1,13.22,1,13.5v3C1,16.78,1.23,17,1.5,17h4C5.77,17,6,16.78,6,16.5v-3
			C6,13.22,5.77,13,5.5,13z"/>
		<path class="st3" d="M12,14.53V13.5c0-0.28-0.22-0.5-0.5-0.5h-4C7.23,13,7,13.22,7,13.5v3C7,16.78,7.23,17,7.5,17h4
			c0.07,0,0.14-0.02,0.2-0.04c-0.12-0.3-0.2-0.62-0.2-0.96C11.5,15.45,11.7,14.95,12,14.53z"/>
		<path class="st3" d="M18,5.42V3.5C18,3.23,17.78,3,17.5,3h-4C13.22,3,13,3.23,13,3.5v2.53C13.84,5.39,14.87,5,16,5
			C16.71,5,17.39,5.15,18,5.42z"/>
		<path class="st5" d="M16,6.5c-1.93,0-3.5,1.57-3.5,3.5c0,1.58,1.06,2.91,2.5,3.34V15h-1c-0.55,0-1,0.45-1,1s0.45,1,1,1h1v1h-1
			c-0.55,0-1,0.45-1,1s0.45,1,1,1h2c0.55,0,1-0.45,1-1v-5.66c1.44-0.43,2.5-1.75,2.5-3.34C19.5,8.07,17.93,6.5,16,6.5z M16,8.5
			c0.83,0,1.5,0.67,1.5,1.5s-0.67,1.5-1.5,1.5s-1.5-0.67-1.5-1.5S15.17,8.5,16,8.5z"/>
	</g>
</g>
<g id="layouts">
	<g>
		<g>
			<path class="st3" d="M2.01,4C2,4,2,4,2.01,4L2,8.99C2,9,2,9,2.01,9h6.98C9,9,9,9,9,8.99V4.01C9,4,9,4,8.99,4H2.01z M2.01,10
				C2,10,2,10,2.01,10L2,11.99C2,12,2,12,2.01,12h2.98C5,12,5,12,5,11.99v-1.98C5,10,5,10,4.99,10H2.01z M6.01,10C6,10,6,10,6.01,10
				L6,11.99C6,12,6,12,6.01,12h2.98C9,12,9,12,9,11.99v-1.98C9,10,9,10,8.99,10H6.01z M10.01,4C10,4,10,4,10.01,4L10,5.99
				C10,6,10,6,10.01,6h2.98C13,6,13,6,13,5.99V4.01C13,4,13,4,12.99,4H10.01z M10.01,7C10,7,10,7,10.01,7L10,8.99C10,9,10,9,10.01,9
				h2.98C13,9,13,9,13,8.99V7.01C13,7,13,7,12.99,7H10.01z M10.01,10C10,10,10,10,10.01,10L10,11.99c0,0,0,0.01,0.01,0.01h2.98
				c0,0,0.01,0,0.01-0.01v-1.98C13,10,13,10,12.99,10H10.01z M15,13V3c0-0.55-0.45-1-1-1h0H1C0.45,2,0,2.45,0,3v10
				c0,0.55,0.45,1,1,1h13C14.55,14,15,13.55,15,13z M1,3h13v10H1V3z M16,16c0.55,0,1-0.45,1-1V5c0-0.55-0.45-1-1-1v1v10H3H2
				c0,0.55,0.45,1,1,1H16L16,16z M18,6v1v10H5H4c0,0.55,0.45,1,1,1h13h0c0.55,0,1-0.45,1-1V7C19,6.45,18.55,6,18,6z"/>
		</g>
	</g>
</g>
<g id="Layer_22" class="st0">
	<g class="st2">
		<g>
			<path class="st3" d="M2.01,4.5C2,4.5,2,4.5,2.01,4.5L2,9.49C2,9.5,2,9.5,2.01,9.5h6.98C9,9.5,9,9.5,9,9.49V4.51
				C9,4.5,9,4.5,8.99,4.5H2.01z M2.01,10.5C2,10.5,2,10.5,2.01,10.5L2,12.49c0,0,0,0.01,0.01,0.01h2.98C5,12.5,5,12.5,5,12.49v-1.98
				c0-0.01,0-0.01-0.01-0.01H2.01z M6.01,10.5C6,10.5,6,10.5,6.01,10.5L6,12.49c0,0,0,0.01,0.01,0.01h2.98C9,12.5,9,12.5,9,12.49
				v-1.98c0-0.01,0-0.01-0.01-0.01H6.01z M10.01,4.5C10,4.5,10,4.5,10.01,4.5L10,6.49c0,0.01,0,0.01,0.01,0.01h2.98
				c0,0,0.01,0,0.01-0.01V4.51c0-0.01,0-0.01-0.01-0.01H10.01z M10.01,7.5C10,7.5,10,7.5,10.01,7.5L10,9.49c0,0.01,0,0.01,0.01,0.01
				h2.98c0,0,0.01,0,0.01-0.01V7.51c0-0.01,0-0.01-0.01-0.01H10.01z M10.01,10.5C10,10.5,10,10.5,10.01,10.5L10,12.49
				c0,0,0,0.01,0.01,0.01h2.98c0,0,0.01,0,0.01-0.01v-1.98c0-0.01,0-0.01-0.01-0.01H10.01z M15,13.5v-10c0-0.55-0.45-1-1-1H1
				c-0.55,0-1,0.45-1,1v10c0,0.55,0.45,1,1,1h13C14.55,14.5,15,14.05,15,13.5z M1,3.5h13v10H1V3.5z M17,15.5v-10c0-0.55-0.45-1-1-1
				v11H2c0,0.55,0.45,1,1,1h13C16.55,16.5,17,16.05,17,15.5z M18,6.5v11H4c0,0.55,0.45,1,1,1h13c0.55,0,1-0.45,1-1v-10
				C19,6.95,18.55,6.5,18,6.5z"/>
		</g>
	</g>
	<g class="st2">
		<path class="st5" d="M17,19.75c-1.29,0-2.39-0.9-2.67-2.13l-2.22-1.11c-0.35,0.16-0.73,0.24-1.11,0.24
			c-1.52,0-2.75-1.23-2.75-2.75s1.23-2.75,2.75-2.75c0.39,0,0.76,0.08,1.11,0.24l2.22-1.11c0.28-1.22,1.38-2.13,2.67-2.13
			c1.52,0,2.75,1.23,2.75,2.75s-1.23,2.75-2.75,2.75c-0.39,0-0.76-0.08-1.11-0.24L14.91,14l0.97,0.49c0.35-0.16,0.73-0.24,1.11-0.24
			c1.52,0,2.75,1.23,2.75,2.75S18.52,19.75,17,19.75z"/>
		<path d="M17,9c1.11,0,2,0.9,2,2c0,1.1-0.89,2-2,2c-0.41,0-0.78-0.12-1.1-0.33L13.24,14l2.66,1.33C16.22,15.12,16.59,15,17,15
			c1.11,0,2,0.9,2,2s-0.89,2-2,2c-1.06,0-1.92-0.83-1.99-1.88l-2.91-1.46C11.79,15.88,11.41,16,11,16c-1.1,0-2-0.9-2-2s0.9-2,2-2
			c0.41,0,0.79,0.12,1.1,0.33l2.91-1.46C15.08,9.83,15.94,9,17,9 M17,7.5c-1.52,0-2.82,0.98-3.3,2.35l-1.63,0.81
			c-0.34-0.11-0.71-0.17-1.07-0.17c-1.93,0-3.5,1.57-3.5,3.5s1.57,3.5,3.5,3.5c0.37,0,0.73-0.06,1.07-0.17l1.63,0.81
			c0.48,1.37,1.78,2.35,3.3,2.35c1.93,0,3.5-1.57,3.5-3.5c0-1.27-0.68-2.39-1.7-3c1.02-0.61,1.7-1.73,1.7-3
			C20.5,9.07,18.93,7.5,17,7.5L17,7.5z"/>
	</g>
</g>
<g id="Layer_23" class="st0">
	<g class="st2">
		<path class="st8" d="M12.07,17.33c-0.34,0.11-0.71,0.17-1.07,0.17h1.41L12.07,17.33z"/>
		<path class="st8" d="M5,12.49C5,12.5,5,12.5,5,12.49L2.01,12.5C2,12.5,2,12.5,2,12.49v-1.98c0-0.01,0-0.01,0.01-0.01h2.98
			C5,10.5,5,10.5,5,10.51V12.49z M9,9.49C9,9.5,9,9.5,9,9.49L2.01,9.5C2,9.5,2,9.5,2,9.49V4.51C2,4.5,2,4.5,2.01,4.5h6.98
			C9,4.5,9,4.5,9,4.51V9.49z M13,9.49C13,9.5,13,9.5,13,9.49L10.01,9.5C10,9.5,10,9.5,10,9.49V7.51c0-0.01,0-0.01,0.01-0.01h2.98
			c0,0,0.01,0,0.01,0.01V9.49z M13,6.49C13,6.5,13,6.5,13,6.49L10.01,6.5C10,6.5,10,6.5,10,6.49V4.51c0-0.01,0-0.01,0.01-0.01h2.98
			c0,0,0.01,0,0.01,0.01V6.49z"/>
		<path class="st3" d="M2.01,4.5C2,4.5,2,4.5,2.01,4.5L2,9.49C2,9.5,2,9.5,2.01,9.5h6.98C9,9.5,9,9.5,9,9.49V4.51
			C9,4.5,9,4.5,8.99,4.5H2.01z"/>
		<path class="st3" d="M12.41,17.5H11H4c0,0.55,0.45,1,1,1h8.86c-0.06-0.12-0.11-0.23-0.15-0.35L12.41,17.5z"/>
		<path class="st3" d="M10.01,7.5C10,7.5,10,7.5,10.01,7.5L10,9.49c0,0.01,0,0.01,0.01,0.01h2.98c0,0,0.01,0,0.01-0.01V7.51
			c0-0.01,0-0.01-0.01-0.01H10.01z"/>
		<path class="st3" d="M2.01,10.5C2,10.5,2,10.5,2.01,10.5L2,12.49c0,0,0,0.01,0.01,0.01h2.98C5,12.5,5,12.5,5,12.49v-1.98
			c0-0.01,0-0.01-0.01-0.01H2.01z"/>
		<path class="st3" d="M10,10.51v0.15c0.32-0.1,0.65-0.16,1-0.16L10,10.51C10,10.5,10,10.5,10,10.51z"/>
		<path class="st3" d="M7.85,15.5H2c0,0.55,0.45,1,1,1h5.56C8.27,16.21,8.03,15.87,7.85,15.5z"/>
		<path class="st3" d="M17,5.5c0-0.55-0.45-1-1-1v3.15c0.32-0.1,0.65-0.15,1-0.15V5.5z"/>
		<path class="st3" d="M10.01,4.5C10,4.5,10,4.5,10.01,4.5L10,6.49c0,0.01,0,0.01,0.01,0.01h2.98c0,0,0.01,0,0.01-0.01V4.51
			c0-0.01,0-0.01-0.01-0.01H10.01z"/>
		<path class="st3" d="M7.55,13.5H1v-10h13v5.73c0.25-0.43,0.59-0.81,1-1.09V3.5c0-0.55-0.45-1-1-1H1c-0.55,0-1,0.45-1,1v10
			c0,0.55,0.45,1,1,1h6.55C7.53,14.34,7.5,14.17,7.5,14S7.53,13.66,7.55,13.5z"/>
		<path class="st3" d="M8.99,10.5H6.01C6,10.5,6,10.5,6,10.51v1.98c0,0,0,0.01,0.01,0.01h1.84c0.26-0.55,0.66-1.02,1.15-1.36
			L8.99,10.5C9,10.5,9,10.5,8.99,10.5z"/>
		<path class="st3" d="M12.07,10.67l0.34-0.17H11C11.37,10.5,11.73,10.56,12.07,10.67z"/>
		<path class="st3" d="M19,7.5c0-0.55-0.45-1-1-1v1.16c0.36,0.11,0.7,0.26,1,0.47V7.5z"/>
		<path class="st3" d="M19,14.14v-0.28c-0.07,0.05-0.13,0.1-0.2,0.14C18.87,14.04,18.93,14.09,19,14.14z"/>
		<path class="st5" d="M17,15c-0.41,0-0.78,0.12-1.1,0.33L13.24,14l2.66-1.33C16.22,12.88,16.59,13,17,13c1.11,0,2-0.9,2-2
			c0-1.1-0.89-2-2-2c-1.06,0-1.92,0.83-1.99,1.88l-2.91,1.46C11.79,12.12,11.41,12,11,12c-1.1,0-2,0.9-2,2s0.9,2,2,2
			c0.41,0,0.79-0.12,1.1-0.33l2.91,1.46C15.08,18.17,15.94,19,17,19c1.11,0,2-0.9,2-2S18.11,15,17,15z"/>
	</g>
</g>
<g id="layout_tour" class="st0">
	<path class="st1" d="M15,5v10H4V5H15 M15,4H4C3.45,4,3,4.45,3,5v10c0,0.55,0.45,1,1,1h11c0.55,0,1-0.45,1-1V5C16,4.45,15.55,4,15,4
		L15,4z"/>
	<g class="st2">
		<path class="st3" d="M1.5,17.5c-0.55,0-1-0.45-1-1v-8c0-0.55,0.45-1,1-1h10c0.55,0,1,0.45,1,1v8c0,0.55-0.45,1-1,1H1.5z"/>
		<path class="st9" d="M11.5,8C11.77,8,12,8.23,12,8.5v8c0,0.27-0.23,0.5-0.5,0.5h-10C1.23,17,1,16.77,1,16.5v-8
			C1,8.23,1.23,8,1.5,8H11.5 M11.5,7h-10C0.67,7,0,7.67,0,8.5v8C0,17.33,0.67,18,1.5,18h10c0.83,0,1.5-0.67,1.5-1.5v-8
			C13,7.67,12.33,7,11.5,7L11.5,7z"/>
	</g>
	<g class="st2">
		<path class="st3" d="M7.5,12.5c-0.55,0-1-0.45-1-1v-8c0-0.55,0.45-1,1-1h10c0.55,0,1,0.45,1,1v8c0,0.55-0.45,1-1,1H7.5z"/>
		<path class="st9" d="M17.5,3C17.78,3,18,3.22,18,3.5v8c0,0.28-0.22,0.5-0.5,0.5h-10C7.22,12,7,11.78,7,11.5v-8
			C7,3.22,7.22,3,7.5,3H17.5 M17.5,2h-10C6.67,2,6,2.67,6,3.5v8C6,12.33,6.67,13,7.5,13h10c0.83,0,1.5-0.67,1.5-1.5v-8
			C19,2.67,18.33,2,17.5,2L17.5,2z"/>
	</g>
</g>
<g id="Layer_17" class="st0">
	<g class="st2">
		<path class="st3" d="M15,15h-2v1h2c0.55,0,1-0.45,1-1v-2h-1V15z"/>
		<path class="st3" d="M4,5h2V4H4C3.45,4,3,4.45,3,5v2h1V5z"/>
		<path class="st3" d="M1.5,8C1.22,8,1,8.22,1,8.5v8C1,16.77,1.22,17,1.5,17h10c0.27,0,0.5-0.23,0.5-0.5V13H7.5
			C6.67,13,6,12.33,6,11.5V8H1.5z"/>
		<path class="st3" d="M17.5,3h-10C7.22,3,7,3.22,7,3.5v8C7,11.78,7.22,12,7.5,12h10c0.28,0,0.5-0.22,0.5-0.5v-8
			C18,3.22,17.78,3,17.5,3z"/>
	</g>
</g>
</svg>
