<svg width="20" height="20" viewBox="0 0 20 20" fill="none" xmlns="http://www.w3.org/2000/svg">
<path fill-rule="evenodd" clip-rule="evenodd" d="M16.5 9V8H14.5V9.25V10.5V12.208C13.617 12.5938 13 13.4748 13 14.5C13 15.8807 14.1193 17 15.5 17C16.8807 17 18 15.8807 18 14.5C18 13.4748 17.383 12.5938 16.5 12.208V11H18V9H16.5ZM16.5 14.5C16.5 15.0523 16.0523 15.5 15.5 15.5C14.9477 15.5 14.5 15.0523 14.5 14.5C14.5 13.9477 14.9477 13.5 15.5 13.5C16.0523 13.5 16.5 13.9477 16.5 14.5Z" fill="white"/>
<path fill-rule="evenodd" clip-rule="evenodd" d="M2 3.5C2 3.22386 2.22386 3 2.5 3H12.5C12.7761 3 13 3.22386 13 3.5V11.5C13 11.7761 12.7761 12 12.5 12H2.5C2.22386 12 2 11.7761 2 11.5V3.5ZM17.5 7C17.7761 7 18 6.77614 18 6.5V3.5C18 3.22386 17.7761 3 17.5 3H14.5C14.2239 3 14 3.22386 14 3.5V6.5C14 6.77614 14.2239 7 14.5 7H17.5ZM2.5 17C2.22386 17 2 16.7761 2 16.5V13.5C2 13.2239 2.22386 13 2.5 13H6.5C6.77614 13 7 13.2239 7 13.5V16.5C7 16.7761 6.77614 17 6.5 17H2.5ZM8 16.5C8 16.7761 8.22386 17 8.5 17H12.5C12.6531 17 12.7901 16.9312 12.8818 16.8228C12.3332 16.2049 12 15.3913 12 14.5C12 13.9629 12.1209 13.4544 12.3369 13H8.5C8.22386 13 8 13.2239 8 13.5V16.5Z" fill="#A5B7C0"/>
</svg>
