<?xml version="1.0" encoding="utf-8"?>
<!-- Generator: Adobe Illustrator 23.0.1, SVG Export Plug-In . SVG Version: 6.00 Build 0)  -->
<svg version="1.1" id="Layer_1" xmlns="http://www.w3.org/2000/svg" xmlns:xlink="http://www.w3.org/1999/xlink" x="0px" y="0px"
	 viewBox="0 0 20 20" style="enable-background:new 0 0 20 20;" xml:space="preserve">
<style type="text/css">
	.st0{fill:#A5B7C0;}
	.st1{fill:#E1E7EA;}
</style>
<path class="st0" d="M2,16V4h15v1.12c0.14,0.03,0.28,0.06,0.43,0.1c0.2,0.06,0.38,0.14,0.57,0.22V4c0-0.55-0.45-1-1-1H2
	C1.45,3,1,3.45,1,4v12c0,0.55,0.45,1,1,1h9.72c-0.14-0.31-0.22-0.64-0.22-1H2z"/>
<path class="st0" d="M3,5v6.33h8.21C11.09,10.89,11,10.45,11,10c0-0.6,0.12-1.18,0.33-1.74V5H3z"/>
<path class="st0" d="M12.33,6.63C13.28,5.59,14.61,5,16,5h-3.67V6.63z"/>
<path class="st0" d="M16,5c0.03,0,0.07,0,0.1,0.01V5H16z"/>
<path class="st0" d="M12.79,13.81c-0.16-0.14-0.32-0.29-0.46-0.45v0.79C12.47,14.02,12.63,13.9,12.79,13.81z"/>
<rect x="7.67" y="12.33" class="st0" width="3.67" height="2.67"/>
<rect x="3" y="12.33" class="st0" width="3.67" height="2.67"/>
<path class="st1" d="M19.5,10c0-1.19-0.6-2.23-1.5-2.87c-0.3-0.21-0.64-0.36-1-0.47c-0.29-0.09-0.59-0.14-0.9-0.15
	c-0.03,0-0.07-0.01-0.1-0.01c-1.03,0-1.95,0.46-2.59,1.17c-0.26,0.29-0.49,0.63-0.64,1C12.6,9.08,12.5,9.53,12.5,10
	c0,0.48,0.11,0.93,0.28,1.34c0.15,0.37,0.37,0.7,0.63,0.99c0.42,0.46,0.97,0.82,1.58,1.01V15h-1c-0.55,0-1,0.45-1,1
	c0,0.55,0.45,1,1,1h1v1h-1c-0.55,0-1,0.45-1,1s0.45,1,1,1h2c0.55,0,1-0.45,1-1v-2v-1v-2.66c0.36-0.11,0.7-0.27,1-0.48
	C18.91,12.23,19.5,11.19,19.5,10z M17,11.11c-0.27,0.24-0.61,0.39-1,0.39c-0.24,0-0.46-0.06-0.66-0.16
	c-0.49-0.25-0.84-0.75-0.84-1.34c0-0.58,0.34-1.08,0.82-1.33c0.2-0.1,0.43-0.17,0.68-0.17c0.39,0,0.73,0.15,1,0.39
	c0.3,0.27,0.5,0.67,0.5,1.11S17.3,10.84,17,11.11z"/>
</svg>
