<svg width="20" height="20" viewBox="0 0 20 20" fill="none" xmlns="http://www.w3.org/2000/svg">
<path fill-rule="evenodd" clip-rule="evenodd" d="M2 3.5C2 3.22386 2.22386 3 2.5 3H12.5C12.7761 3 13 3.22386 13 3.5V8H10.4667C9.10436 8 8 9.10436 8 10.4667V12H2.5C2.22386 12 2 11.7761 2 11.5V3.5ZM8.0124 13.3889C8.00428 13.4246 8 13.4618 8 13.5V16.5C8 16.7761 8.22386 17 8.5 17H9.52779C8.65847 16.0287 8.10091 14.7726 8.0124 13.3889ZM17.5 8C17.7761 8 18 7.77614 18 7.5V3.5C18 3.22386 17.7761 3 17.5 3H14.5C14.2239 3 14 3.22386 14 3.5V7.5C14 7.77614 14.2239 8 14.5 8H17.5ZM2.5 17C2.22386 17 2 16.7761 2 16.5V13.5C2 13.2239 2.22386 13 2.5 13H6.5C6.77614 13 7 13.2239 7 13.5V16.5C7 16.7761 6.77614 17 6.5 17H2.5Z" fill="#A5B7C0"/>
<path fill-rule="evenodd" clip-rule="evenodd" d="M10.4667 10C10.2089 10 10 10.2089 10 10.4667V13C10 15.2091 11.7909 17 14 17C16.2091 17 18 15.2091 18 13V10.4667C18 10.2089 17.7911 10 17.5333 10H10.4667ZM14 16C14.8284 16 15.5 15.3284 15.5 14.5C15.5 13.6716 14.8284 13 14 13C13.1716 13 12.5 13.6716 12.5 14.5C12.5 15.3284 13.1716 16 14 16Z" fill="#E1E7EA"/>
</svg>
