<?xml version="1.0" encoding="utf-8"?>
<!-- Generator: Adobe Illustrator 23.0.1, SVG Export Plug-In . SVG Version: 6.00 Build 0)  -->
<svg version="1.1" id="Layer_1" xmlns="http://www.w3.org/2000/svg" xmlns:xlink="http://www.w3.org/1999/xlink" x="0px" y="0px"
	 viewBox="0 0 20 20" style="enable-background:new 0 0 20 20;" xml:space="preserve">
<style type="text/css">
	.st0{fill:#A5B7C0;}
	.st1{fill:#E1E7EA;}
</style>
<path class="st0" d="M11,10.5c0.34,0,0.68,0.05,1,0.15V3.5C12,3.23,11.78,3,11.5,3h-10C1.23,3,1,3.23,1,3.5v8
	C1,11.78,1.23,12,1.5,12h6.64C8.77,11.1,9.81,10.5,11,10.5z"/>
<path class="st0" d="M5.5,13h-4C1.23,13,1,13.22,1,13.5v3C1,16.78,1.23,17,1.5,17h4C5.77,17,6,16.78,6,16.5v-3
	C6,13.22,5.77,13,5.5,13z"/>
<path class="st0" d="M7.5,14c0-0.35,0.07-0.68,0.16-1H7.5C7.23,13,7,13.22,7,13.5v3C7,16.78,7.23,17,7.5,17h1.73
	C8.2,16.39,7.5,15.28,7.5,14z"/>
<path class="st0" d="M13.5,7h4C17.78,7,18,6.77,18,6.5v-3C18,3.23,17.78,3,17.5,3h-4C13.22,3,13,3.23,13,3.5v3
	C13,6.77,13.22,7,13.5,7z"/>
<path class="st0" d="M15.22,8H13.5C13.22,8,13,8.23,13,8.5v1.7l0.7-0.35C13.97,9.07,14.52,8.42,15.22,8z"/>
<path class="st1" d="M17,15c-0.41,0-0.78,0.12-1.1,0.33L13.24,14l2.66-1.33C16.22,12.88,16.59,13,17,13c1.11,0,2-0.9,2-2
	s-0.89-2-2-2c-1.06,0-1.92,0.83-1.99,1.88l-2.91,1.46C11.79,12.12,11.41,12,11,12c-1.1,0-2,0.9-2,2s0.9,2,2,2
	c0.41,0,0.79-0.12,1.1-0.33l2.91,1.46C15.08,18.17,15.94,19,17,19c1.11,0,2-0.9,2-2S18.11,15,17,15z"/>
</svg>
