<svg width="20" height="20" viewBox="0 0 20 20" fill="none" xmlns="http://www.w3.org/2000/svg">
<path fill-rule="evenodd" clip-rule="evenodd" d="M10 3C8.13616 3 6.57006 4.27477 6.12602 6H5C3.34315 6 2 7.34315 2 9C2 10.6569 3.34315 12 5 12H15C16.6569 12 18 10.6569 18 9C18 7.34315 16.6569 6 15 6H13.874C13.4299 4.27477 11.8638 3 10 3ZM2 16.5C2 16.7761 2.22386 17 2.5 17H6.5C6.77614 17 7 16.7761 7 16.5V13.5C7 13.2239 6.77614 13 6.5 13H2.5C2.22386 13 2 13.2239 2 13.5V16.5ZM8 16.5C8 16.7761 8.22386 17 8.5 17H12.5C12.7761 17 13 16.7761 13 16.5V13.5C13 13.2239 12.7761 13 12.5 13H8.5C8.22386 13 8 13.2239 8 13.5V16.5ZM14 13.5C14 13.2239 14.2239 13 14.5 13H17.5C17.7761 13 18 13.2239 18 13.5V16.5C18 16.7761 17.7761 17 17.5 17H14.5C14.2239 17 14 16.7761 14 16.5V13.5Z" fill="#A5B7C0"/>
</svg>
