<svg width="20" height="20" viewBox="0 0 20 20" fill="none" xmlns="http://www.w3.org/2000/svg">
<path fill-rule="evenodd" clip-rule="evenodd" d="M2.16561 3C1.55273 3 1.08405 3.5463 1.17724 4.15206L2.60732 13.4476L3.84049 8.51493C4.06307 7.62459 4.86304 7 5.78077 7H17V6C17 5.44772 16.5523 5 16 5H9L8.27639 3.55279C8.107 3.214 7.76074 3 7.38197 3H2.16561ZM17 8H5.78077C5.3219 8 4.92192 8.3123 4.81063 8.75746L3.31063 14.7575C3.15284 15.3886 3.6302 16 4.28077 16H16C16.5523 16 17 15.5523 17 15V8Z" fill="#A5B7C0"/>
<path d="M4.81062 8.75746C4.92192 8.3123 5.3219 8 5.78077 8H17.7192C18.3698 8 18.8471 8.61139 18.6894 9.24254L17.1894 15.2425C17.0781 15.6877 16.6781 16 16.2192 16H4.28077C3.63019 16 3.15284 15.3886 3.31062 14.7575L4.81062 8.75746Z" fill="#A5B7C0"/>
</svg>
