<svg width="20" height="20" viewBox="0 0 20 20" fill="none" xmlns="http://www.w3.org/2000/svg">
<path fill-rule="evenodd" clip-rule="evenodd" d="M9 5.5H11C11.2761 5.5 11.5 5.72386 11.5 6V9H8.5V6C8.5 5.72386 8.72386 5.5 9 5.5ZM7 9V6C7 4.89543 7.89543 4 9 4H11C12.1046 4 13 4.89543 13 6V9H14C14.5523 9 15 9.44772 15 10V15C15 15.5523 14.5523 16 14 16H6C5.44772 16 5 15.5523 5 15V10C5 9.44772 5.44772 9 6 9H7ZM10.5 12.8662C10.7989 12.6933 11 12.3701 11 12C11 11.4477 10.5523 11 10 11C9.44772 11 9 11.4477 9 12C9 12.3701 9.2011 12.6933 9.5 12.8662V14H10.5V12.8662Z" fill="#E1E7EA"/>
</svg>
