<svg width="20" height="20" viewBox="0 0 20 20" fill="none" xmlns="http://www.w3.org/2000/svg">
<path fill-rule="evenodd" clip-rule="evenodd" d="M3 4V7.5H7V4H3ZM2 7.5V8.5V11.5V12.5V16.5C2 16.7761 2.22386 17 2.5 17H7H8H12H13H17.5C17.7761 17 18 16.7761 18 16.5V12.5V11.5V8.5V7.5V3.5C18 3.22386 17.7761 3 17.5 3H13H12H8H7H2.5C2.22386 3 2 3.22386 2 3.5V7.5ZM17 11.5V8.5H13V11.5H17ZM12 11.5V8.5H8V11.5H12ZM8 12.5H12V16H8V12.5ZM7 11.5V8.5H3V11.5H7ZM3 12.5H7V16H3V12.5ZM13 12.5H17V16H13V12.5ZM17 4V7.5H13V4H17ZM12 4V7.5H8V4H12Z" fill="#A5B7C0"/>
</svg>
