<svg width="20" height="20" viewBox="0 0 20 20" fill="none" xmlns="http://www.w3.org/2000/svg">
<path fill-rule="evenodd" clip-rule="evenodd" d="M3 16V4H17V16H3ZM2 3.5C2 3.22386 2.22386 3 2.5 3H17.5C17.7761 3 18 3.22386 18 3.5V16.5C18 16.7761 17.7761 17 17.5 17H2.5C2.22386 17 2 16.7761 2 16.5V3.5ZM8.72361 7.3618C8.39116 7.19558 8 7.43733 8 7.80902V12.191C8 12.5627 8.39116 12.8044 8.72361 12.6382L13.1056 10.4472C13.4741 10.263 13.4741 9.73705 13.1056 9.55279L8.72361 7.3618Z" fill="#A5B7C0"/>
</svg>
