<svg width="20" height="20" viewBox="0 0 20 20" fill="none" xmlns="http://www.w3.org/2000/svg">
<path fill-rule="evenodd" clip-rule="evenodd" d="M8 1.58578L8.70711 2.29289L14 7.58578L15.7071 9.29289L15.8536 9.43934L15.6464 9.64645L14.6464 10.6464L14.4393 10.8536L14.2929 10.7071L14 10.4142L8 4.41421L1.70711 10.7071L0.292892 9.29289L7.29289 2.29289L8 1.58578ZM3 10.9832C3 10.8464 3.05597 10.7157 3.1549 10.6213L8 6L12.8404 10.4993C12.9422 10.5939 13 10.7266 13 10.8655V14H3V10.9832ZM5 16V15H14V11.7181L14.8404 12.4993C14.9422 12.5939 15 12.7265 15 12.8655V16H5ZM15.1464 11.5607L16 12.4142L16.2929 12.7071L16.4393 12.8536L16.6464 12.6465L17.6464 11.6465L17.8536 11.4393L17.7071 11.2929L16.5607 10.1464L16.3536 10.3536L16 10.7071L15.3536 11.3536L15.1464 11.5607ZM7 17V18H17V14.8655C17 14.7266 16.9422 14.5939 16.8404 14.4993L16 13.7181V17H7ZM18.2929 14.7071L17.1464 13.5607L17.3536 13.3536L18.3536 12.3536L18.5607 12.1465L19.7071 13.2929L18.2929 14.7071Z" fill="#A5B7C0"/>
</svg>
