<svg width="20" height="20" viewBox="0 0 20 20" fill="none" xmlns="http://www.w3.org/2000/svg">
<path fill-rule="evenodd" clip-rule="evenodd" d="M15 12.1161L12.8839 10L11.1161 11.7678L13.2322 13.8839L11.1161 16L12.8839 17.7678L15 15.6517L17.1161 17.7678L18.8839 16L16.7677 13.8839L18.8839 11.7678L17.1161 10L15 12.1161Z" fill="#C22626"/>
<path fill-rule="evenodd" clip-rule="evenodd" d="M3 4V16H10.1161C10.1161 16.2559 10.2137 16.5118 10.409 16.7071L10.7019 17H2.5C2.22386 17 2 16.7761 2 16.5V3.5C2 3.22386 2.22386 3 2.5 3H17.5C17.7761 3 18 3.22386 18 3.5V9.46968L17.8232 9.29289C17.5984 9.06805 17.2931 8.97266 17 9.00672V4H3ZM16 9.70189V5H4V15H10.7019L11.818 13.8839L10.409 12.4749C10.0185 12.0843 10.0185 11.4512 10.409 11.0607L12.1768 9.29289C12.5673 8.90237 13.2005 8.90237 13.591 9.29289L15 10.7019L16 9.70189Z" fill="#A5B7C0"/>
</svg>
