<svg width="20" height="20" viewBox="0 0 20 20" fill="none" xmlns="http://www.w3.org/2000/svg">
<path fill-rule="evenodd" clip-rule="evenodd" d="M14 13C15.1046 13 16 12.1046 16 11C16 9.89543 15.1046 9 14 9C12.8954 9 12 9.89543 12 11C12 12.1046 12.8954 13 14 13ZM12 15C10.8954 15 10 15.8954 10 17H18C18 15.8954 17.1046 15 16 15H12Z" fill="#D9D9D9"/>
<path fill-rule="evenodd" clip-rule="evenodd" d="M3 4V16H9.17071C9.06015 16.3128 9 16.6494 9 17H2.5C2.22386 17 2 16.7761 2 16.5V3.5C2 3.22386 2.22386 3 2.5 3H17.5C17.7761 3 18 3.22386 18 3.5V14.7639C17.7115 14.5056 17.3726 14.3024 17 14.1707V11V4H3ZM16 8.76389V5H4V15H9.76389C10.3132 14.3863 11.1115 14 12 14H14H16V13.2361C15.4692 13.7111 14.7684 14 14 14C12.3431 14 11 12.6569 11 11C11 9.34315 12.3431 8 14 8C14.7684 8 15.4692 8.28885 16 8.76389Z" fill="#A5B7C0"/>
</svg>
