<svg width="20" height="20" viewBox="0 0 20 20" fill="none" xmlns="http://www.w3.org/2000/svg">
<path fill-rule="evenodd" clip-rule="evenodd" d="M3 4V16H10V16.5C10 16.6753 10.0301 16.8436 10.0854 17H2.5C2.22386 17 2 16.7761 2 16.5V3.5C2 3.22386 2.22386 3 2.5 3H17.5C17.7761 3 18 3.22386 18 3.5V11C18 10.1115 17.6137 9.31321 17 8.76389V4H3ZM16 8.17071V5H4V15H10V13.5C10 12.8469 10.4174 12.2913 11 12.0854V11C11 9.34315 12.3431 8 14 8H15C15.3506 8 15.6872 8.06015 16 8.17071Z" fill="#A5B7C0"/>
<path fill-rule="evenodd" clip-rule="evenodd" d="M14 10.5H15C15.2761 10.5 15.5 10.7239 15.5 11V13H13.5V11C13.5 10.7239 13.7239 10.5 14 10.5ZM12 13V11C12 9.89543 12.8954 9 14 9H15C16.1046 9 17 9.89543 17 11V13H17.5C17.7761 13 18 13.2239 18 13.5V16.5C18 16.7761 17.7761 17 17.5 17H11.5C11.2239 17 11 16.7761 11 16.5V13.5C11 13.2239 11.2239 13 11.5 13H12Z" fill="#E1E7EA"/>
</svg>
