<?xml version="1.0" encoding="UTF-8"?>
<svg width="31px" height="32px" viewBox="0 0 31 32" version="1.1" xmlns="http://www.w3.org/2000/svg" xmlns:xlink="http://www.w3.org/1999/xlink">
    <title>search</title>
    <g id="search" stroke="none" stroke-width="1" fill="none" fill-rule="evenodd">
        <path d="M18.2426407,10.7573593 C20.4334169,12.9481356 20.5758782,16.4115716 18.6700245,18.7678642 L23,23.0986734 L22.0986734,24 L17.7678642,19.6700245 C15.4115716,21.5758782 11.9481356,21.4334169 9.75735932,19.2426407 C7.41421357,16.899495 7.41421357,13.1005051 9.75735932,10.7573593 C12.1005051,8.41421358 15.8994949,8.41421358 18.2426407,10.7573593 Z M10.5287485,11.5287485 C8.61162929,13.4458678 8.61162929,16.5541322 10.5287485,18.4712515 C12.3186714,20.2611743 15.1469234,20.3799316 17.0746277,18.8275232 L17.8275232,18.0746277 C19.3799315,16.1469234 19.2611743,13.3186714 17.4712515,11.5287485 C15.5541322,9.6116293 12.4458678,9.6116293 10.5287485,11.5287485 Z" id="Combined-Shape" fill="#91A7B2" fill-rule="nonzero"></path>
    </g>
</svg>