<svg width="20" height="20" viewBox="0 0 20 20" fill="none" xmlns="http://www.w3.org/2000/svg">
<path fill-rule="evenodd" clip-rule="evenodd" d="M15 12.1161L12.8839 10L11.1161 11.7678L13.2322 13.8839L11.1161 16L12.8839 17.7678L15 15.6517L17.1161 17.7678L18.8839 16L16.7678 13.8839L18.8839 11.7678L17.1161 10L15 12.1161Z" fill="#C22626"/>
<path fill-rule="evenodd" clip-rule="evenodd" d="M2 3.5C2 3.22386 2.22386 3 2.5 3H17.5C17.7761 3 18 3.22386 18 3.5V6.5C18 6.77614 17.7761 7 17.5 7H2.5C2.22386 7 2 6.77614 2 6.5V3.5ZM3 4H6V5H3V4ZM2 8.5C2 8.22386 2.22386 8 2.5 8H17.5C17.7761 8 18 8.22386 18 8.5V9.46968L17.8232 9.29289C17.4327 8.90237 16.7995 8.90237 16.409 9.29289L15 10.7019L13.591 9.29289C13.2005 8.90237 12.5673 8.90237 12.1768 9.29289L10.409 11.0607C10.1542 11.3154 10.0657 11.6734 10.1433 12H2.5C2.22386 12 2 11.7761 2 11.5V8.5ZM10.9341 13H2.5C2.22386 13 2 13.2239 2 13.5V16.5C2 16.7761 2.22386 17 2.5 17H10.7019L10.409 16.7071C10.0185 16.3166 10.0185 15.6834 10.409 15.2929L11.818 13.8839L10.9341 13ZM3 9H6V10H3V9ZM6 14H3V15H6V14Z" fill="#A5B7C0"/>
</svg>
