<svg width="20" height="20" viewBox="0 0 20 20" fill="none" xmlns="http://www.w3.org/2000/svg">
<path fill-rule="evenodd" clip-rule="evenodd" d="M14 13C15.1046 13 16 12.1046 16 11C16 9.89543 15.1046 9 14 9C12.8954 9 12 9.89543 12 11C12 12.1046 12.8954 13 14 13ZM12 15C10.8954 15 10 15.8954 10 17H18C18 15.8954 17.1046 15 16 15H12Z" fill="#E1E7EA"/>
<path fill-rule="evenodd" clip-rule="evenodd" d="M2 3.5C2 3.22386 2.22386 3 2.5 3H17.5C17.7761 3 18 3.22386 18 3.5V6.5C18 6.77614 17.7761 7 17.5 7H2.5C2.22386 7 2 6.77614 2 6.5V3.5ZM3 4H6V5H3V4ZM2 8.5C2 8.22386 2.22386 8 2.5 8H14C12.3431 8 11 9.34315 11 11C11 11.3506 11.0602 11.6872 11.1707 12H2.5C2.22386 12 2 11.7761 2 11.5V8.5ZM11.7639 13H2.5C2.22386 13 2 13.2239 2 13.5V16.5C2 16.7761 2.22386 17 2.5 17H9C9 15.3431 10.3431 14 12 14H14H16C16.7684 14 17.4692 14.2889 18 14.7639V13.5C18 13.2239 17.7761 13 17.5 13H16.2361C15.6868 13.6137 14.8885 14 14 14C13.1115 14 12.3132 13.6137 11.7639 13ZM16.8293 12C16.9398 11.6872 17 11.3506 17 11C17 9.34315 15.6569 8 14 8H17.5C17.7761 8 18 8.22386 18 8.5V11.5C18 11.7761 17.7761 12 17.5 12H16.8293ZM3 9H6V10H3V9ZM6 14H3V15H6V14Z" fill="#A5B7C0"/>
</svg>
