<svg width="20" height="20" viewBox="0 0 20 20" fill="none" xmlns="http://www.w3.org/2000/svg">
<path fill-rule="evenodd" clip-rule="evenodd" d="M14 10.5H15C15.2761 10.5 15.5 10.7239 15.5 11V13H13.5V11C13.5 10.7239 13.7239 10.5 14 10.5ZM12 13V11C12 9.89543 12.8954 9 14 9H15C16.1046 9 17 9.89543 17 11V13H17.5C17.7761 13 18 13.2239 18 13.5V16.5C18 16.7761 17.7761 17 17.5 17H11.5C11.2239 17 11 16.7761 11 16.5V13.5C11 13.2239 11.2239 13 11.5 13H12Z" fill="#C22626"/>
<path fill-rule="evenodd" clip-rule="evenodd" d="M2 3.5C2 3.22386 2.22386 3 2.5 3H17.5C17.7761 3 18 3.22386 18 3.5V6.5C18 6.77614 17.7761 7 17.5 7H2.5C2.22386 7 2 6.77614 2 6.5V3.5ZM3 4H6V5H3V4ZM2 8.5C2 8.22386 2.22386 8 2.5 8H14C12.3431 8 11 9.34315 11 11V12H2.5C2.22386 12 2 11.7761 2 11.5V8.5ZM10.0854 13H2.5C2.22386 13 2 13.2239 2 13.5V16.5C2 16.7761 2.22386 17 2.5 17H10.0854C10.0301 16.8436 10 16.6753 10 16.5V13.5C10 13.3247 10.0301 13.1564 10.0854 13ZM18 11V8.5C18 8.22386 17.7761 8 17.5 8H15C16.6569 8 18 9.34315 18 11ZM3 9H6V10H3V9ZM6 14H3V15H6V14Z" fill="#A5B7C0"/>
</svg>
