<svg width="20" height="20" viewBox="0 0 20 20" fill="none" xmlns="http://www.w3.org/2000/svg">
<path fill-rule="evenodd" clip-rule="evenodd" d="M0 3.5C0 3.22386 0.223858 3 0.5 3H13.5C13.7761 3 14 3.22386 14 3.5V5.5C14 5.77614 13.7761 6 13.5 6H0.5C0.223857 6 0 5.77614 0 5.5V3.5ZM0.933333 4H3.55833V5H0.933333V4ZM0 7.5C0 7.22386 0.223858 7 0.5 7H13.5C13.7761 7 14 7.22386 14 7.5V9.5C14 9.77614 13.7761 10 13.5 10H0.5C0.223857 10 0 9.77614 0 9.5V7.5ZM0.933333 8H3.55833V9H0.933333V8ZM0.5 11C0.223858 11 0 11.2239 0 11.5V13.5C0 13.7761 0.223857 14 0.5 14H13.5C13.7761 14 14 13.7761 14 13.5V11.5C14 11.2239 13.7761 11 13.5 11H0.5ZM3.55833 12H0.933333V13H3.55833V12ZM15 15H2V16H15H16V15V13H15V15ZM15 12H16V9H15V12ZM15 8H16V5H15V8ZM4 17H17V15H18V17V18H17H4V17ZM18 14V11H17V14H18ZM17 10H18V7H17V10Z" fill="#A5B7C0"/>
</svg>
