<svg width="20" height="20" viewBox="0 0 20 20" fill="none" xmlns="http://www.w3.org/2000/svg">
<path fill-rule="evenodd" clip-rule="evenodd" d="M14.9358 9.77477C14.7446 9.43494 14.2554 9.43494 14.0642 9.77477L10.4191 16.2549C10.2316 16.5882 10.4725 17 10.8549 17H18.1451C18.5275 17 18.7683 16.5882 18.5809 16.2549L14.9358 9.77477ZM14 11.5H15V14.5H14V11.5ZM14 15H15V16H14V15Z" fill="#F8A400"/>
<path fill-rule="evenodd" clip-rule="evenodd" d="M2 3.5C2 3.22386 2.22386 3 2.5 3H17.5C17.7761 3 18 3.22386 18 3.5V6.5C18 6.77614 17.7761 7 17.5 7H2.5C2.22386 7 2 6.77614 2 6.5V3.5ZM3 4H6V5H3V4ZM2 8.5C2 8.22386 2.22386 8 2.5 8H17.5C17.7761 8 18 8.22386 18 8.5V11.5C18 11.7761 17.7761 12 17.5 12H17.3348L15.8074 9.28447C15.2339 8.26499 13.7661 8.265 13.1926 9.28448L11.6652 12H2.5C2.22386 12 2 11.7761 2 11.5V8.5ZM11.1027 13H2.5C2.22386 13 2 13.2239 2 13.5V16.5C2 16.7761 2.22386 17 2.5 17H9.44018C9.30268 16.6149 9.31931 16.1704 9.54756 15.7646L11.1027 13ZM3 9H6V10H3V9ZM6 14H3V15H6V14Z" fill="#A5B7C0"/>
</svg>
