<svg width="20" height="20" viewBox="0 0 20 20" fill="none" xmlns="http://www.w3.org/2000/svg">
<path fill-rule="evenodd" clip-rule="evenodd" d="M15 12.1161L12.8839 10L11.1161 11.7678L13.2322 13.8839L11.1161 16L12.8839 17.7678L15 15.6517L17.1161 17.7678L18.8839 16L16.7677 13.8839L18.8839 11.7678L17.1161 10L15 12.1161Z" fill="#C22626"/>
<path fill-rule="evenodd" clip-rule="evenodd" d="M3 5V13.25V15V16H4H10.1161C10.1161 16.2559 10.2137 16.5118 10.409 16.7071L10.7019 17H2.5C2.22386 17 2 16.7761 2 16.5V14.25V3.5C2 3.22386 2.22386 3 2.5 3H17.5C17.7761 3 18 3.22386 18 3.5V9.46968L17.8232 9.29289C17.5984 9.06805 17.2931 8.97266 17 9.00672V5V4H16H4H3V5ZM15.6627 10.0392L14.3006 9.18786C14.1205 9.07532 13.889 9.08878 13.7232 9.22142L13.61 9.31196L15 10.7019L15.6627 10.0392ZM10.1626 12.0699L9.28549 12.7716C9.11547 12.9076 8.87697 12.918 8.6958 12.7972L6.29434 11.1962C6.11796 11.0786 5.88659 11.0851 5.71699 11.2123L4 12.5V15H10.7019L11.818 13.8839L10.409 12.4749C10.2916 12.3574 10.2094 12.218 10.1626 12.0699ZM7.5 9C8.32843 9 9 8.32843 9 7.5C9 6.67157 8.32843 6 7.5 6C6.67157 6 6 6.67157 6 7.5C6 8.32843 6.67157 9 7.5 9Z" fill="#A5B7C0"/>
</svg>
