<svg width="20" height="20" viewBox="0 0 20 20" fill="none" xmlns="http://www.w3.org/2000/svg">
<path fill-rule="evenodd" clip-rule="evenodd" d="M3 13.25V5V4H4H16H17V5V10.875V15V16H16H4H3V15V13.25ZM4 12.5L5.71699 11.2123C5.88659 11.0851 6.11796 11.0786 6.29434 11.1962L8.6958 12.7972C8.87697 12.918 9.11547 12.9076 9.28549 12.7716L13.7232 9.22142C13.889 9.08878 14.1205 9.07532 14.3006 9.18786L16 10.25V15H4V12.5ZM2 14.25V3.5C2 3.22386 2.22386 3 2.5 3H17.5C17.7761 3 18 3.22386 18 3.5V11.7771V16.5C18 16.7761 17.7761 17 17.5 17H2.5C2.22386 17 2 16.7761 2 16.5V14.25ZM9 7.5C9 8.32843 8.32843 9 7.5 9C6.67157 9 6 8.32843 6 7.5C6 6.67157 6.67157 6 7.5 6C8.32843 6 9 6.67157 9 7.5Z" fill="#A5B7C0"/>
</svg>
