<svg width="20" height="20" viewBox="0 0 20 20" fill="none" xmlns="http://www.w3.org/2000/svg">
<path fill-rule="evenodd" clip-rule="evenodd" d="M14.9358 9.77471C14.7446 9.43488 14.2554 9.43488 14.0642 9.77471L10.4191 16.2548C10.2316 16.5881 10.4725 17 10.8549 17H18.1451C18.5275 17 18.7683 16.5881 18.5809 16.2548L14.9358 9.77471ZM14 11.5H15V14.5H14V11.5ZM14 15H15V16H14V15Z" fill="#F8A400"/>
<path fill-rule="evenodd" clip-rule="evenodd" d="M8 3C6.34315 3 5 4.34315 5 6V7C5 8.65685 6.34315 10 8 10C8.76835 10 9.46924 9.71115 10 9.23611C10.0415 9.19897 10.082 9.16069 10.1213 9.12132C10.6642 8.57843 11 7.82843 11 7V6C11 5.1115 10.6137 4.31321 10 3.76389C9.46924 3.28885 8.76835 3 8 3ZM12 6V7C12 8.08099 11.5712 9.06183 10.8744 9.78169C11.222 9.92247 11.6019 10 12 10C12.2991 10 12.588 9.95622 12.8606 9.87472L13.1926 9.28451C13.4954 8.74624 14.0475 8.49218 14.5856 8.52229C14.8489 8.07603 15 7.55566 15 7V6C15 4.34315 13.6569 3 12 3C11.6019 3 11.222 3.07753 10.8744 3.21831C11.5712 3.93818 12 4.91901 12 6ZM11.524 12.251L9.54756 15.7646C9.50409 15.8419 9.4683 15.9206 9.43979 16H2.65044C2.25286 16 1.94835 15.6525 2.00733 15.266C2.29383 13.3888 3.93459 12 5.86598 12H10.134C10.6216 12 11.0906 12.0885 11.524 12.251Z" fill="#A5B7C0" class="primary"/>
</svg>
