<svg width="20" height="20" viewBox="0 0 20 20" fill="none" xmlns="http://www.w3.org/2000/svg">
<path fill-rule="evenodd" clip-rule="evenodd" d="M14.9358 9.77471C14.7446 9.43488 14.2554 9.43488 14.0642 9.77471L10.4191 16.2548C10.2316 16.5881 10.4725 17 10.8549 17H18.1451C18.5275 17 18.7683 16.5881 18.5809 16.2548L14.9358 9.77471ZM14 11.5H15V14.5H14V11.5ZM14 15H15V16H14V15Z" fill="#FBBC05"/>
<path fill-rule="evenodd" clip-rule="evenodd" d="M7 6C7 4.34315 8.34315 3 10 3C11.6569 3 13 4.34315 13 6V7C13 8.65685 11.6569 10 10 10C8.34315 10 7 8.65685 7 7V6ZM7.86598 12C5.93459 12 4.29383 13.3888 4.00733 15.266C3.94835 15.6525 4.25286 16 4.65044 16H9.43979C9.4683 15.9206 9.50409 15.8419 9.54756 15.7646L11.6652 12H7.86598Z" fill="#A5B7C0"/>
</svg>
