<svg width="20" height="20" viewBox="0 0 20 20" fill="none" xmlns="http://www.w3.org/2000/svg">
<path fill-rule="evenodd" clip-rule="evenodd" d="M5 6C5 4.34315 6.34315 3 8 3C8.76835 3 9.46924 3.28885 10 3.76389C10.6137 4.31321 11 5.1115 11 6V7C11 7.82843 10.6642 8.57843 10.1213 9.12132C10.082 9.16069 10.0415 9.19897 10 9.23611C9.46924 9.71115 8.76835 10 8 10C6.34315 10 5 8.65685 5 7V6ZM12 7V6C12 4.91901 11.5712 3.93818 10.8744 3.21831C11.222 3.07753 11.6019 3 12 3C13.6569 3 15 4.34315 15 6V7C15 8.65685 13.6569 10 12 10C11.6019 10 11.222 9.92247 10.8744 9.78169C11.5712 9.06183 12 8.08099 12 7ZM2.00733 15.266C2.29383 13.3888 3.93459 12 5.86598 12H10.134C12.0654 12 13.7062 13.3888 13.9927 15.266C14.0516 15.6525 13.7471 16 13.3496 16H2.65044C2.25286 16 1.94835 15.6525 2.00733 15.266ZM14.8708 16H17.3496C17.7471 16 18.0516 15.6525 17.9927 15.266C17.7062 13.3888 16.0654 12 14.134 12H13.1192C14.0935 12.7377 14.7856 13.8333 14.9812 15.1152C15.0294 15.4311 14.9849 15.7335 14.8708 16Z" fill="#A5B7C0" class="primary"/>
</svg>
