<svg width="20" height="20" viewBox="0 0 20 20" fill="none" xmlns="http://www.w3.org/2000/svg">
<path fill-rule="evenodd" clip-rule="evenodd" d="M3 10.5V16H9.5V10.5H3ZM2 10.5V9.5V3.5C2 3.22386 2.22386 3 2.5 3H9.5H10.5H17.5C17.7761 3 18 3.22386 18 3.5V9.5V10.5V16.5C18 16.7761 17.7761 17 17.5 17H10.5H9.5H2.5C2.22386 17 2 16.7761 2 16.5V10.5ZM17 9.5V4H10.5V9.5H17ZM10.5 10.5H17V16H10.5V10.5ZM9.5 9.5V4H3V9.5H9.5ZM4 5H8.5V8.5H4V5ZM4 11.5H8.5V15H4V11.5ZM16 11.5H11.5V15H16V11.5ZM11.5 5H16V8.5H11.5V5Z" fill="#A5B7C0"/>
</svg>
