<?xml version="1.0" encoding="utf-8"?>
<!-- Generator: Adobe Illustrator 24.3.0, SVG Export Plug-In . SVG Version: 6.00 Build 0)  -->
<svg version="1.1" id="Layer_1" xmlns="http://www.w3.org/2000/svg" xmlns:xlink="http://www.w3.org/1999/xlink" x="0px" y="0px"
	 viewBox="0 0 20 20" style="enable-background:new 0 0 20 20;" xml:space="preserve">
<style type="text/css">
	.st0{fill:#A5B7C0;}
	.st1{fill:#E1E7EA;}
</style>
<path class="st0" d="M10.71,16H2V4h15v5.5h1V4c0-0.55-0.45-1-1-1H2C1.45,3,1,3.45,1,4v12c0,0.55,0.45,1,1,1h8.71
	c0.08-0.18,0.18-0.34,0.3-0.5C10.9,16.34,10.79,16.18,10.71,16z"/>
<path class="st0" d="M9.86,8.64l1.49,1.49C11.8,9.74,12.37,9.5,13,9.5h0.27l-2.14-2.14L9.86,8.64z"/>
<path class="st0" d="M10.66,14.16c0.09-0.24,0.21-0.46,0.36-0.66c-0.19-0.26-0.34-0.55-0.42-0.86l-0.73,0.73L10.66,14.16z"/>
<polygon class="st0" points="7.86,5.36 4.23,9 7.86,12.64 9.14,11.36 6.77,9 9.14,6.64 "/>
<path class="st1" d="M13,11c-0.55,0-1,0.45-1,1s0.45,1,1,1h6c0.55,0,1-0.45,1-1s-0.45-1-1-1H13z"/>
<path class="st1" d="M19,17h-2h-4c-0.55,0-1,0.45-1,1s0.45,1,1,1h6c0.55,0,1-0.45,1-1S19.55,17,19,17z"/>
<path class="st1" d="M19,14h-6c-0.31,0-0.57,0.15-0.76,0.37C12.1,14.54,12,14.76,12,15s0.1,0.46,0.24,0.63
	C12.43,15.85,12.69,16,13,16h4h2c0.31,0,0.57-0.15,0.76-0.37C19.9,15.46,20,15.24,20,15s-0.1-0.46-0.24-0.63
	C19.57,14.15,19.31,14,19,14z"/>
</svg>
