<svg width="20" height="20" viewBox="0 0 20 20" fill="none" xmlns="http://www.w3.org/2000/svg">
<path fill-rule="evenodd" clip-rule="evenodd" d="M10 10.2C10 10.0895 10.0895 10 10.2 10H17.8C17.9105 10 18 10.0895 18 10.2V12.8C18 12.9105 17.9105 13 17.8 13H10.2C10.0895 13 10 12.9105 10 12.8V10.2ZM10 14.2C10 14.0895 10.0895 14 10.2 14H17.8C17.9105 14 18 14.0895 18 14.2V16.8C18 16.9105 17.9105 17 17.8 17H10.2C10.0895 17 10 16.9105 10 16.8V14.2ZM13 10.5H11V11.5H13V10.5Z" fill="#D9D9D9"/>
<path fill-rule="evenodd" clip-rule="evenodd" d="M2.5 3C2.22386 3 2 3.22386 2 3.5V6H18V3.5C18 3.22386 17.7761 3 17.5 3H2.5ZM18 7H2V16.5C2 16.7761 2.22386 17 2.5 17H9.01659C9.00568 16.935 9 16.8681 9 16.8V14.2C9 13.9388 9.08348 13.697 9.22521 13.5C9.08348 13.303 9 13.0612 9 12.8V10.2C9 9.53726 9.53726 9 10.2 9H17.8C17.8681 9 17.935 9.00568 18 9.01659V7ZM7 4H8V5H7V4ZM4 4H3V5H4V4ZM5 4H6V5H5V4Z" fill="#A5B7C0"/>
</svg>
