<svg width="40" height="32" viewBox="0 0 40 32" fill="#263137" xmlns="http://www.w3.org/2000/svg">
<path fill-rule="evenodd" clip-rule="evenodd" d="M13.8845 19.6973C16.5879 19.6973 18.769 17.5207 18.769 14.8486C18.769 12.1766 16.5879 10 13.8845 10C11.1811 10 9 12.1766 9 14.8486C9 17.5207 11.1811 19.6973 13.8845 19.6973ZM13.8845 20.6973C15.3289 20.6973 16.6518 20.18 17.6758 19.3218L21.3781 23.0015L22.083 22.2922L18.3851 18.6168C19.2486 17.599 19.769 16.2842 19.769 14.8486C19.769 11.6185 17.1344 9 13.8845 9C10.6346 9 8 11.6185 8 14.8486C8 18.0788 10.6346 20.6973 13.8845 20.6973ZM23.2427 14.3546L27.2672 18.3546L27.6197 18.705L27.9722 18.3546L31.9967 14.3546L31.2918 13.6454L27.6197 17.295L23.9476 13.6454L23.2427 14.3546Z" fill="#B8B8BD"/>
</svg>
