<svg xmlns="http://www.w3.org/2000/svg" width="28" height="28" fill="none" viewBox="0 0 28 28">
  <g class="28x28/Solid/edit">
    <path fill="#E1E7EA" fill-rule="evenodd" d="M21.574 5.41a1.4 1.4 0 0 0-1.98 0l-1.956 1.955-.005.006.503.503.952.972 1.015.994.526.526.862-.862 1.098-1.1a1.4 1.4 0 0 0 0-1.98L21.574 5.41ZM17.642 9.1l-.87-.869-.861.862.006.007a1.429 1.429 0 0 0-.127.113l-9.935 9.932-.756 1.939c-.443 1.136.677 2.256 1.813 1.813l1.94-.756 9.934-9.932c.04-.041.078-.084.113-.128l.007.007.862-.862-.87-.87a1.405 1.405 0 0 0-.112-.127L17.77 9.213a1.412 1.412 0 0 0-.128-.113Z" class="Primary" clip-rule="evenodd"/>
  </g>
</svg>
