<?xml version="1.0" encoding="UTF-8"?>
<svg width="20px" height="20px" viewBox="0 0 20 20" version="1.1" xmlns="http://www.w3.org/2000/svg" xmlns:xlink="http://www.w3.org/1999/xlink">
    <title>analytics</title>
    <g id="analytics" stroke="none" stroke-width="1" fill="none" fill-rule="evenodd">
        <path d="M15.6464466,3.64644661 L16.3535534,4.35355339 L4.35355339,16.3535534 L3.64644661,15.6464466 L15.6464466,3.64644661 Z M14.0972237,10.6424158 L15.5114373,14.8850564 C15.7720233,15.6668145 15.0282842,16.4105535 14.2465262,16.1499675 L10.0038855,14.7357539 C9.29865139,14.5006759 9.08735602,13.6056143 9.61300648,13.0799639 L12.4414336,10.2515367 C12.9670841,9.72588628 13.8621457,9.93718165 14.0972237,10.6424158 Z M13.1485404,10.9586435 L10.3201133,13.7870707 L14.562754,15.2012842 L13.1485404,10.9586435 Z M3.83589606,5.73933739 C3.57531005,4.95757936 4.3190491,4.21384031 5.10080713,4.47442632 L5.10080713,4.47442632 L9.34344781,5.88863988 C10.0486819,6.12371792 10.2599773,7.0187795 9.73432683,7.54442996 L9.73432683,7.54442996 L6.9058997,10.3728571 C6.38024924,10.8985076 5.48518766,10.6872122 5.25010962,9.98197807 L5.25010962,9.98197807 Z M4.78457936,5.42310962 L6.19879292,9.66575031 L9.02722005,6.83732318 L4.78457936,5.42310962 Z" fill="#A1B7C1" fill-rule="nonzero"></path>
    </g>
</svg>