<?xml version="1.0" encoding="UTF-8"?>
<svg width="20px" height="20px" viewBox="0 0 20 20" version="1.1" xmlns="http://www.w3.org/2000/svg" xmlns:xlink="http://www.w3.org/1999/xlink">
    <title>input</title>
    <g id="input" stroke="none" stroke-width="1" fill="none" fill-rule="evenodd">
        <path d="M5.80879437,15.6071076 C6.72483618,16.2929344 7.8145047,16.7595379 8.99999177,16.92911 L9.00004872,17.9381123 C7.53937147,17.7559775 6.2009834,17.1800602 5.09447025,16.3199461 L5.80879437,15.6071076 Z M14.1922034,15.6063605 L14.9055298,16.3199461 C13.7990324,17.1800479 12.4606668,17.7559611 11.000014,17.9381045 L11.0010101,16.9289666 C12.1865396,16.7592134 13.2762131,16.2924023 14.1922034,15.6063605 Z M2.0618955,11.000014 L3.07103341,11.0010101 C3.24078665,12.1865396 3.70759773,13.2762131 4.3936395,14.1922034 L3.68005389,14.9055298 C2.8199521,13.7990324 2.24403895,12.4606668 2.0618955,11.000014 Z M17.9381045,11.000014 C17.7559611,12.4606668 17.1800479,13.7990324 16.3199461,14.9055298 L15.6063605,14.1922034 C16.2924023,13.2762131 16.7592134,12.1865396 16.9289666,11.0010101 L17.9381045,11.000014 Z M12.031992,13.4461664 L12.7574478,14.1715651 C12.2324853,14.5192689 11.6380748,14.7705306 10.9994789,14.9000876 L10.9997565,13.8740452 C11.3668772,13.7795796 11.7136031,13.6343059 12.031992,13.4461664 Z M7.96893972,13.4467167 C8.28678273,13.6344177 8.6328482,13.7794067 8.99923866,13.8737865 L8.9988136,14.8997409 C8.36086564,14.7700826 7.76704677,14.5189589 7.24255219,14.1715651 L7.96893972,13.4467167 Z M6.12621352,11.0007613 C6.22068549,11.3675098 6.36586574,11.7138936 6.55383363,12.031992 L5.8284349,12.7574478 C5.48091149,12.2327576 5.22973008,11.6386914 5.10011406,11.0004726 L6.12621352,11.0007613 Z M14.8998859,11.0004726 C14.7702699,11.6386914 14.5190885,12.2327576 14.1715651,12.7574478 L13.4461664,12.031992 C13.6341343,11.7138936 13.7793145,11.3675098 13.8737865,11.0007613 L14.8998859,11.0004726 Z M10,8 C11.1045695,8 12,8.8954305 12,10 C12,11.1045695 11.1045695,12 10,12 C8.8954305,12 8,11.1045695 8,10 C8,8.8954305 8.8954305,8 10,8 Z M16.3199461,5.09447025 C17.1800602,6.2009834 17.7559775,7.53937147 17.9381123,9.00004872 L16.92911,8.99999177 C16.7595379,7.8145047 16.2929344,6.72483618 15.6071076,5.80879437 L16.3199461,5.09447025 Z M14.1715651,7.24255219 C14.5191402,7.76732038 14.7703446,8.36148521 14.8999437,8.99981203 L13.8740452,9.00024347 C13.7796718,8.63348091 13.6345892,8.28707327 13.4467167,7.96893972 L14.1715651,7.24255219 Z M3.68005389,5.09447025 L4.3936395,5.80779665 C3.70740448,6.72404492 3.24052368,7.81407427 3.07089004,8.99999177 L2.06188768,9.00004872 C2.24402246,7.53937147 2.81993978,6.2009834 3.68005389,5.09447025 Z M5.8284349,7.24255219 L6.55388232,7.96792566 C6.36571915,8.2863371 6.22042851,8.63309118 6.12595483,9.00024347 L5.10005628,8.99981203 C5.22965541,8.36148521 5.48085984,7.76732038 5.8284349,7.24255219 Z M8.9988136,5.10025909 L8.99923866,6.12621352 C8.63245852,6.22069364 8.28604661,6.36589081 7.96792566,6.55388232 L7.24255219,5.8284349 C7.76704677,5.48104106 8.36086564,5.22991739 8.9988136,5.10025909 Z M10.9994789,5.09991237 C11.6380748,5.2294694 12.2324853,5.48073114 12.7574478,5.8284349 L12.031992,6.55383363 C11.7136031,6.36569409 11.3668772,6.22042036 10.9997565,6.12595483 L10.9994789,5.09991237 Z M9.00004872,2.06188768 L8.99999177,3.07089004 C7.81407427,3.24052368 6.72404492,3.70740448 5.80779665,4.3936395 L5.09447025,3.68005389 C6.2009834,2.81993978 7.53937147,2.24402246 9.00004872,2.06188768 Z M11.000014,2.0618955 C12.4606668,2.24403895 13.7990324,2.8199521 14.9055298,3.68005389 L14.1922034,4.3936395 C13.2762131,3.70759773 12.1865396,3.24078665 11.0010101,3.07103341 L11.000014,2.0618955 Z" fill="#A5B7C0"></path>
    </g>
</svg>