<?xml version="1.0" encoding="UTF-8"?>
<svg width="20px" height="20px" viewBox="0 0 20 20" version="1.1" xmlns="http://www.w3.org/2000/svg" xmlns:xlink="http://www.w3.org/1999/xlink">
    <title>stream</title>
    <g id="stream" stroke="none" stroke-width="1" fill="none" fill-rule="evenodd">
        <path d="M15,3 C16.1045695,3 17,3.8954305 17,5 L17,14 C17,15.1045695 16.1045695,16 15,16 L5,16 C3.8954305,16 3,15.1045695 3,14 L3,5 C3,3.8954305 3.8954305,3 5,3 L15,3 Z M15,4 L5,4 C4.48716416,4 4.06449284,4.38604019 4.00672773,4.88337887 L4,5 L4,6 L11,6 L11,7 L4,7 L4,12 L7,12 L7,13 L4,13 L4,14 C4,14.5128358 4.38604019,14.9355072 4.88337887,14.9932723 L5,15 L15,15 C15.5128358,15 15.9355072,14.6139598 15.9932723,14.1166211 L16,14 L16,13 L9,13 L9,12 L16,12 L16,10 L12,10 L12,9 L16,9 L16,7 L14,7 L14,6 L16,6 L16,5 C16,4.48716416 15.6139598,4.06449284 15.1166211,4.00672773 L15,4 Z M11,9 L11,10 L6,10 L6,9 L11,9 Z" fill="#A1B7C1" fill-rule="nonzero"></path>
    </g>
</svg>