<?xml version="1.0" encoding="UTF-8"?>
<svg width="20px" height="20px" viewBox="0 0 20 20" version="1.1" xmlns="http://www.w3.org/2000/svg" xmlns:xlink="http://www.w3.org/1999/xlink">
    <title>trigger</title>
    <g id="trigger" stroke="none" stroke-width="1" fill="none" fill-rule="evenodd">
        <path d="M8.5,4 C9.32842712,4 10,4.67157288 10,5.5 L10.0002925,8.08524952 C10.1565993,8.03003963 10.3247916,8 10.5,8 C11.0316901,8 11.4987694,8.27663152 11.7651617,8.69381822 C11.9811524,8.57007794 12.2323924,8.5 12.5,8.5 C13.0316901,8.5 13.4987694,8.77663152 13.7651617,9.19381822 C13.9811524,9.07007794 14.2323924,9 14.5,9 C15.3284271,9 16,9.67157288 16,10.5 L16,15 C15.9650879,16.1458785 15.8101276,17.2236277 15,18 C13.9565217,19 8,19 7,18 C6.67857143,17.6785714 6.25382653,17.098852 5.79218294,16.3770727 L5.47968294,15.8761161 C5.37418003,15.7029656 5.26758382,15.5240753 5.16062318,15.3407207 L4.83937682,14.7785395 L4.52031706,14.1972258 C4.36206268,13.9030612 4.20626822,13.6045918 4.05539359,13.3061224 L3.76093294,12.7104592 C3.6654519,12.5127551 3.5728863,12.3163265 3.48396501,12.122449 L3.22886297,11.5497449 C3.14795918,11.3622449 3.07142857,11.1785714 3,11 C4.77756587,9.57794731 5.70887083,10.1781285 6.70039281,11.5424147 L6.89976869,11.8250872 C6.93322134,11.873773 6.96680806,11.9232147 7.00056239,11.9733655 L7,5.5 C7,4.67157288 7.67157288,4 8.5,4 Z M9,5.5 C9,5.22385763 8.77614237,5 8.5,5 C8.25454011,5 8.05039163,5.17687516 8.00805567,5.41006335 L8,5.49991312 L8.00056239,11.9732786 C8.00064816,12.9604537 6.72217002,13.3506862 6.17096661,12.5317299 L6.04866993,12.3516734 L5.82307345,12.0318996 C5.25204045,11.2500764 4.90832384,11.0312024 4.3804552,11.2719312 L4.232,11.348 L4.26658137,11.4257261 C4.35168639,11.6166115 4.44105043,11.8110055 4.53382913,12.007452 L4.82156491,12.6014924 L5.12472261,13.1991101 L5.43823614,13.7915679 C5.49106994,13.8893955 5.54412413,13.986644 5.59729319,14.0831314 L5.91684154,14.6514669 C5.97004787,14.7441819 6.02315798,14.8357718 6.07606632,14.9260545 L6.39025077,15.4506087 C6.85536256,16.2095426 7.28703299,16.8331085 7.60832074,17.188609 L7.70710678,17.2928932 C7.76524404,17.3510305 7.92525715,17.4132613 8.16200816,17.4725006 L8.42340744,17.5304803 C8.47092685,17.5398899 8.52034512,17.5491508 8.57154586,17.5582302 L8.89920887,17.6102663 C8.95707397,17.6184885 9.01648878,17.6264636 9.07733692,17.6341588 L9.4586947,17.6767087 L9.86886623,17.7109664 C10.2211298,17.7356221 10.5975888,17.75 10.9836957,17.75 C11.294582,17.75 11.599397,17.7407835 11.8907459,17.7243553 L12.3167453,17.6945549 C12.3857539,17.6887703 12.4536897,17.6825975 12.5204372,17.676068 L12.9057392,17.6328605 C12.9672716,17.6250293 13.0273846,17.616904 13.0859628,17.6085158 L13.4180889,17.5552844 L13.7078318,17.4972497 C14.018985,17.4273256 14.2322828,17.3506648 14.3080946,17.2780118 C14.7476565,16.856765 14.937851,16.260636 14.9907298,15.2280453 L15,15 L15,10.5 C15,10.2238576 14.7761424,10 14.5,10 C14.4417169,10 14.3864706,10.0095859 14.3354568,10.0278117 L14.2622603,10.0615123 C14.1783283,10.1095966 14.0902331,10.1441992 14.0005312,10.1659491 L14,12 L13,12 L13.0008506,9.83882112 C12.9984811,9.83600723 12.996125,9.83317765 12.9937824,9.83033242 L12.9223337,9.7320013 C12.8303388,9.58793161 12.673382,9.5 12.5,9.5 C12.4417169,9.5 12.3864706,9.50958587 12.3354568,9.52781173 L12.2622603,9.56151228 C12.1783283,9.60959657 12.0902331,9.64419925 12.0005312,9.66594907 L12,12 L11,12 L11.0008506,9.33882112 C10.9984811,9.33600723 10.996125,9.33317765 10.9937824,9.33033242 L10.9223337,9.2320013 C10.8303388,9.08793161 10.673382,9 10.5,9 L10.4144379,9.00712695 L10.3333421,9.02815882 C10.2222203,9.06740867 10.1101727,9.08587719 10.0007567,9.08608034 L10,12 L9,12 L9,5.5 Z M8.5,1.5 C10.709139,1.5 12.5,3.290861 12.5,5.5 C12.5,5.77614237 12.2761424,6 12,6 C11.7238576,6 11.5,5.77614237 11.5,5.5 C11.5,3.84314575 10.1568542,2.5 8.5,2.5 C6.84314575,2.5 5.5,3.84314575 5.5,5.5 C5.5,5.77614237 5.27614237,6 5,6 C4.72385763,6 4.5,5.77614237 4.5,5.5 C4.5,3.290861 6.290861,1.5 8.5,1.5 Z" fill="#A5B7C0" fill-rule="nonzero"></path>
    </g>
</svg>