<?xml version="1.0" encoding="UTF-8"?>
<svg width="20px" height="20px" viewBox="0 0 20 20" version="1.1" xmlns="http://www.w3.org/2000/svg" xmlns:xlink="http://www.w3.org/1999/xlink">
    <title>turnoff</title>
    <g id="turnoff" stroke="none" stroke-width="1" fill="none" fill-rule="evenodd">
        <path d="M7.01702332,4.71588302 C7.1739368,4.94311148 7.11693524,5.25452005 6.88970678,5.41143352 C5.40504034,6.43667555 4.5,8.12681938 4.5,9.97161469 C4.5,13.0253845 6.96296352,15.5 10,15.5 C13.0370365,15.5 15.5,13.0253845 15.5,9.97161469 C15.5,8.14485142 14.6127032,6.46922116 13.1519746,5.44050129 C12.9262017,5.28150052 12.8720723,4.96957989 13.0310731,4.74380708 C13.1900739,4.51803426 13.5019945,4.46390483 13.7277673,4.6229056 C15.451953,5.83716541 16.5,7.81636702 16.5,9.97161469 C16.5,13.5766154 13.5903805,16.5 10,16.5 C6.40961948,16.5 3.5,13.5766154 3.5,9.97161469 C3.5,7.79506118 4.56898548,5.79875325 6.32147282,4.58856648 C6.54870128,4.431653 6.86010985,4.48865456 7.01702332,4.71588302 Z M10,2.5 C10.2454599,2.5 10.4496084,2.67687516 10.4919443,2.91012437 L10.5,3 L10.5,8 C10.5,8.27614237 10.2761424,8.5 10,8.5 C9.75454011,8.5 9.55039163,8.32312484 9.50805567,8.08987563 L9.5,8 L9.5,3 C9.5,2.72385763 9.72385763,2.5 10,2.5 Z" fill="#A1B7C1" fill-rule="nonzero"></path>
    </g>
</svg>