<svg width="30" height="30" viewBox="0 0 30 30" fill="none" xmlns="http://www.w3.org/2000/svg">
<path fill-rule="evenodd" clip-rule="evenodd" d="M17.4842 11.319C17.4842 9.37542 19.0598 7.7998 21.0034 7.7998C22.947 7.7998 24.5226 9.37542 24.5226 11.319V12.4921C24.5226 14.4357 22.947 16.0113 21.0034 16.0113C19.0598 16.0113 17.4842 14.4357 17.4842 12.4921V11.319ZM16.8475 17.8141C17.8394 18.6912 18.5369 19.9478 18.74 21.3989C18.783 21.7067 18.6851 21.9981 18.502 22.2037H27.2788C27.7452 22.2037 28.1024 21.796 28.0333 21.3427C27.6972 19.1405 25.7724 17.5113 23.5068 17.5113H18.5C17.9198 17.5113 17.362 17.6182 16.8475 17.8141Z" fill="white"/>
<path fill-rule="evenodd" clip-rule="evenodd" d="M9.13848 7.7998C7.19486 7.7998 5.61925 9.37542 5.61925 11.319V12.4921C5.61925 14.4357 7.19486 16.0113 9.13848 16.0113C11.0821 16.0113 12.6577 14.4357 12.6577 12.4921V11.319C12.6577 9.37542 11.0821 7.7998 9.13848 7.7998ZM2.1086 21.3427C2.44469 19.1405 4.36943 17.5113 6.6351 17.5113H11.6418C13.9075 17.5113 15.8322 19.1405 16.1683 21.3427C16.2375 21.796 15.8803 22.2037 15.4139 22.2037H2.86302C2.39663 22.2037 2.03942 21.796 2.1086 21.3427Z" fill="white"/>
</svg>
