<svg xmlns="http://www.w3.org/2000/svg" width="30" height="30" fill="none" viewBox="0 0 30 30">
  <g class="30x30/Solid/bookmarks_shared">
    <path fill="#fff" fill-rule="evenodd" d="M5.62 11.319a3.52 3.52 0 0 1 7.038 0v1.173a3.52 3.52 0 0 1-7.039 0V11.32Zm1.015 6.192c-2.266 0-4.19 1.63-4.526 3.832a.754.754 0 0 0 .754.86h12.55a.754.754 0 0 0 .755-.86c-.336-2.203-2.26-3.832-4.526-3.832H6.635ZM21.003 7.8a3.52 3.52 0 0 0-3.519 3.519v1.173a3.52 3.52 0 0 0 7.039 0V11.32a3.52 3.52 0 0 0-3.52-3.52ZM18.74 21.399c-.203-1.451-.9-2.708-1.892-3.585a4.637 4.637 0 0 1 1.652-.303h5.007c2.265 0 4.19 1.63 4.526 3.832a.754.754 0 0 1-.754.86h-8.777a1 1 0 0 0 .238-.804Z" class="Primary" clip-rule="evenodd"/>
  </g>
</svg>
