<svg xmlns="http://www.w3.org/2000/svg" width="56" height="56" fill="none" viewBox="0 0 56 56">
  <g class="56x56/Outline/audit_trail">
    <path fill="#E1E7EA" fill-rule="evenodd" d="M18.25 8.503c.038-.002.077-.003.115-.003H35a2.5 2.5 0 0 1 2.5 2.5v6H39v-6a4 4 0 0 0-4-4H18.365a4 4 0 0 0-2.697 1.047l-7.366 6.728A4 4 0 0 0 7 17.728V45a4 4 0 0 0 4 4h24a4 4 0 0 0 4-4v-6h-1.5v6a2.5 2.5 0 0 1-2.5 2.5H11A2.5 2.5 0 0 1 8.5 45V18.25h8a1.75 1.75 0 0 0 1.75-1.75V8.503Zm-1.5.589a1.35 1.35 0 0 0-.07.062l-1.012-1.107 1.011 1.107-7.365 6.728a2.499 2.499 0 0 0-.615.868H16.5a.25.25 0 0 0 .25-.25V9.092Zm33.127 18.661c.057.117.088.198.105.247-.017.05-.048.13-.105.247-.13.266-.342.617-.646 1.03-.606.822-1.509 1.803-2.642 2.743-2.29 1.897-5.335 3.48-8.59 3.48-3.253 0-6.299-1.583-8.588-3.48-1.134-.94-2.036-1.92-2.642-2.744a6.972 6.972 0 0 1-.646-1.03 2.256 2.256 0 0 1-.106-.246c.018-.05.049-.13.106-.247.13-.266.342-.617.646-1.03.606-.822 1.508-1.803 2.642-2.743 2.29-1.897 5.335-3.48 8.589-3.48 3.254 0 6.3 1.583 8.589 3.48 1.133.94 2.036 1.92 2.642 2.744.304.412.516.763.646 1.03ZM51.5 28c0 1.8-6.044 9-13.5 9s-13.5-7.2-13.5-9c0-1.8 6.044-9 13.5-9s13.5 7.2 13.5 9Zm-13.25 2a1.75 1.75 0 1 0 0-3.5 1.75 1.75 0 0 0 0 3.5Z" class="Primary" clip-rule="evenodd"/>
  </g>
</svg>
