<svg xmlns="http://www.w3.org/2000/svg" width="56" height="56" fill="none" viewBox="0 0 56 56">
  <g class="56x56/Outline/device_list">
    <path fill="#E1E7EA" fill-rule="evenodd" d="M8.714 11.979H47a.5.5 0 0 1 .5.5v6.482a.5.5 0 0 1-.5.5H8.714a.5.5 0 0 1-.5-.5v-6.482a.5.5 0 0 1 .5-.5Zm-2 .5a2 2 0 0 1 2-2H47a2 2 0 0 1 2 2v6.482a2 2 0 0 1-2 2h-1.02v3.501l8.695 2.743a1.75 1.75 0 0 1 1.137 2.212l-.94 2.883a1.75 1.75 0 0 1-2.135 1.142l-.314-.088-1.093 3.35c-2.29 7.018-9.788 10.897-16.838 8.714a18.076 18.076 0 0 1-6.635 1.253 18.08 18.08 0 0 1-6.501-1.201c-7 2.069-14.396-1.805-16.668-8.765l-1.093-3.35-.313.087A1.75 1.75 0 0 1 1.147 32.3l-.94-2.883a1.75 1.75 0 0 1 1.136-2.212l8.392-2.647v-3.597h-1.02a2 2 0 0 1-2-2v-6.482Zm3.02 13.652-7.94 2.505a.25.25 0 0 0-.162.316l.94 2.882a.25.25 0 0 0 .306.163l6.92-1.935a18.365 18.365 0 0 1-.063-1.513V26.13Zm.251 5.436L5.041 32.95l1.073 3.29c1.822 5.583 7.355 8.932 12.99 8.181-4.745-2.623-8.19-7.312-9.119-12.854ZM45.98 28.55v-2.514l8.244 2.6a.25.25 0 0 1 .162.317l-.94 2.882a.25.25 0 0 1-.305.163l-7.217-2.018c.037-.472.056-.949.056-1.43Zm-9.307 15.837c4.736-2.642 8.165-7.347 9.07-12.9l5.235 1.464-1.074 3.29c-1.848 5.663-7.513 9.027-13.232 8.146Zm7.807-23.399H11.235v7.562c0 9.18 7.442 16.622 16.622 16.622S44.48 37.73 44.48 28.55v-7.561ZM30 35.25a1.75 1.75 0 1 1-3.5 0 1.75 1.75 0 0 1 3.5 0Z" class="Primary" clip-rule="evenodd"/>
  </g>
</svg>
