<svg xmlns="http://www.w3.org/2000/svg" width="56" height="56" fill="none" viewBox="0 0 56 56">
  <g class="56x56/Outline/event_rules">
    <path fill="#E1E7EA" fill-rule="evenodd" d="M31.273 13.696V9.99c0-1.813-1.41-3.24-3.06-3.24h-.428c-1.648 0-3.059 1.427-3.059 3.24v3.707A12.2 12.2 0 0 1 28 13.251c1.133 0 2.23.155 3.273.446Zm-8.047.527V9.989c0-2.575 2.018-4.74 4.56-4.74h.428c2.541 0 4.56 2.165 4.56 4.74v4.234c4.557 1.943 7.752 6.584 7.767 11.974v.038c0 7.801 1.294 11.842 2.502 13.906.601 1.026 1.18 1.563 1.574 1.839a2.4 2.4 0 0 0 .445.252c.047.02.079.03.093.034l.007.002A.75.75 0 0 1 45 43.75H34.38c.015.184.023.37.023.557 0 3.658-2.87 6.443-6.404 6.443s-6.404-2.785-6.404-6.443c0-.188.007-.373.022-.557H11a.75.75 0 0 1-.162-1.482l.007-.002a.979.979 0 0 0 .093-.034 2.4 2.4 0 0 0 .445-.252c.393-.276.973-.813 1.574-1.84 1.208-2.063 2.501-6.104 2.501-13.905 0-5.406 3.2-10.065 7.768-12.012Zm-.101 29.527a5.41 5.41 0 0 0-.03.557c0 2.823 2.193 4.943 4.905 4.943s4.904-2.12 4.904-4.943c0-.188-.01-.374-.029-.557h-9.75Zm18.624-2.851c-1.394-2.38-2.703-6.71-2.707-14.622l-.001-.037v-.005c0-6.37-4.97-11.485-11.041-11.485-6.073 0-11.042 5.116-11.042 11.485 0 7.938-1.31 12.28-2.707 14.664a8.76 8.76 0 0 1-.96 1.351h29.417a8.835 8.835 0 0 1-.96-1.351Zm-29.827-19.48a.75.75 0 0 0 .87-.607c.54-3.027 2.226-5.694 4.886-7.286a.75.75 0 0 0-.77-1.287c-3.07 1.838-4.984 4.9-5.592 8.309a.75.75 0 0 0 .606.87Zm31.525-.607a.75.75 0 1 0 1.476-.264c-.608-3.408-2.521-6.471-5.591-8.309a.75.75 0 0 0-.77 1.287c2.66 1.592 4.344 4.259 4.885 7.286Z" class="Primary" clip-rule="evenodd"/>
  </g>
</svg>
