<svg xmlns="http://www.w3.org/2000/svg" width="56" height="56" fill="none" viewBox="0 0 56 56">
  <g class="56x56/Outline/integrations">
    <path fill="#E1E7EA" fill-rule="evenodd" d="M33.75 6A2.75 2.75 0 0 0 31 8.75v13a2.75 2.75 0 0 0 2.75 2.75h13a2.75 2.75 0 0 0 2.75-2.75v-13A2.75 2.75 0 0 0 46.75 6h-13ZM32.5 8.75c0-.69.56-1.25 1.25-1.25h13c.69 0 1.25.56 1.25 1.25v13c0 .69-.56 1.25-1.25 1.25h-13c-.69 0-1.25-.56-1.25-1.25v-13ZM8.75 14A2.75 2.75 0 0 0 6 16.75v30a2.75 2.75 0 0 0 2.75 2.75h30a2.75 2.75 0 0 0 2.75-2.75v-13A2.75 2.75 0 0 0 38.75 31H24.5V16.75A2.75 2.75 0 0 0 21.75 14h-13ZM23 31V16.75c0-.69-.56-1.25-1.25-1.25h-13c-.69 0-1.25.56-1.25 1.25V31H23Zm1.5 17h14.25c.69 0 1.25-.56 1.25-1.25v-13c0-.69-.56-1.25-1.25-1.25H24.5V48ZM23 48V32.5H7.5v14.25c0 .69.56 1.25 1.25 1.25H23Z" class="Primary" clip-rule="evenodd"/>
  </g>
</svg>
