<svg width="20" height="20" viewBox="0 0 20 20" fill="none" xmlns="http://www.w3.org/2000/svg">
<path fill-rule="evenodd" clip-rule="evenodd" d="M17.5432 9.45887C17.7409 9.6827 17.8742 9.86711 17.9522 10C17.8742 10.1329 17.7409 10.3173 17.5432 10.5411C17.1473 10.9894 16.551 11.5304 15.7956 12.0522C14.2776 13.1008 12.223 14 10 14C7.77698 14 5.72244 13.1008 4.20438 12.0522C3.44902 11.5304 2.85268 10.9894 2.45677 10.5411C2.25908 10.3173 2.12579 10.1329 2.04775 10C2.12579 9.8671 2.25908 9.6827 2.45677 9.45887C2.85268 9.01063 3.44902 8.46956 4.20438 7.94779C5.72244 6.8992 7.77698 6 10 6C12.223 6 14.2776 6.8992 15.7956 7.94779C16.551 8.46956 17.1473 9.01063 17.5432 9.45887ZM19 10C19 11 14.9706 15 10 15C5.02944 15 1 11 1 10C1 9 5.02944 5 10 5C14.9706 5 19 9 19 10ZM8.5 10C8.5 9.17157 9.17157 8.5 10 8.5C10.8284 8.5 11.5 9.17157 11.5 10C11.5 10.8284 10.8284 11.5 10 11.5C9.17157 11.5 8.5 10.8284 8.5 10ZM10 7.5C8.61929 7.5 7.5 8.61929 7.5 10C7.5 11.3807 8.61929 12.5 10 12.5C11.3807 12.5 12.5 11.3807 12.5 10C12.5 8.61929 11.3807 7.5 10 7.5Z" fill="#698796"/>
</svg>
