<svg width="24" height="20" viewBox="0 0 24 20" fill="none" xmlns="http://www.w3.org/2000/svg">
<path fill-rule="evenodd" clip-rule="evenodd" d="M19 10C19 11.9367 18.5765 13.7745 17.817 15.4259L19.5315 16.4809C20.4727 14.5192 21 12.3212 21 10C21 7.43937 20.3584 5.02859 19.2271 2.91968L17.5701 4.06682C18.4841 5.84559 19 7.86256 19 10ZM17 10C17 8.30033 16.5288 6.71071 15.71 5.3546L14.0612 6.49606C14.6582 7.52656 15 8.72337 15 10C15 11.1582 14.7187 12.2506 14.2208 13.2128L15.9281 14.2634C16.6119 12.9945 17 11.5426 17 10ZM9.3753 3.29976L4.75 7H2C1.44772 7 1 7.44772 1 8V10V12C1 12.5523 1.44772 13 2 13H4.75L9.37531 16.7002C10.0301 17.2241 11 16.7579 11 15.9194V12V8V4.08062C11 3.24212 10.0301 2.77595 9.3753 3.29976Z" fill="#E1E7EA"/>
</svg>
