<svg width="20" height="20" viewBox="0 0 20 20" fill="none" xmlns="http://www.w3.org/2000/svg">
<path fill-rule="evenodd" clip-rule="evenodd" d="M12.5 12C14.433 12 16 10.433 16 8.5C16 6.567 14.433 5 12.5 5C10.567 5 9 6.567 9 8.5C9 10.433 10.567 12 12.5 12ZM12.5 13C13.5625 13 14.539 12.6318 15.3088 12.016L18.6464 15.3536L19.3536 14.6464L16.016 11.3088C16.6318 10.539 17 9.56251 17 8.5C17 6.01472 14.9853 4 12.5 4C10.0147 4 8 6.01472 8 8.5C8 10.9853 10.0147 13 12.5 13ZM3.96069 6.65373L3.61443 6.29304L2.89304 6.98557L3.23931 7.34627L4.82689 9H1H0.5V10H1H4.82689L3.23931 11.6537L2.89304 12.0144L3.61443 12.707L3.96069 12.3463L6.36069 9.84627C6.54644 9.65278 6.54644 9.34722 6.36069 9.15373L3.96069 6.65373Z" fill="#698796"/>
</svg>
