<svg width="24" height="20" viewBox="0 0 24 20" fill="none" xmlns="http://www.w3.org/2000/svg">
<path fill-rule="evenodd" clip-rule="evenodd" d="M4.75 7L9.3753 3.29976C10.0301 2.77595 11 3.24212 11 4.08063V8V12V15.9194C11 16.7579 10.0301 17.2241 9.37531 16.7002L4.75 13H2C1.44772 13 1 12.5523 1 12V10V8C1 7.44772 1.44772 7 2 7H4.75Z" fill="#E1E7EA"/>
<path fill-rule="evenodd" clip-rule="evenodd" d="M18 11.4142L21.2929 14.7071L22.7071 13.2929L19.4142 10L22.7071 6.70711L21.2929 5.29289L18 8.58579L14.7071 5.29289L13.2929 6.70711L16.5858 10L13.2929 13.2929L14.7071 14.7071L18 11.4142Z" fill="#F02C2C"/>
</svg>
