<?xml version="1.0" encoding="UTF-8" standalone="no"?>
<svg
   xmlns:dc="http://purl.org/dc/elements/1.1/"
   xmlns:cc="http://creativecommons.org/ns#"
   xmlns:rdf="http://www.w3.org/1999/02/22-rdf-syntax-ns#"
   xmlns:svg="http://www.w3.org/2000/svg"
   xmlns="http://www.w3.org/2000/svg"
   xml:space="preserve"
   id="svg2"
   height="24"
   width="56"
   version="1.1"><metadata
     id="metadata8"><rdf:RDF><cc:Work
         rdf:about=""><dc:format>image/svg+xml</dc:format><dc:type
           rdf:resource="http://purl.org/dc/dcmitype/StillImage" /><dc:title></dc:title></cc:Work></rdf:RDF></metadata><defs
     id="defs6"><clipPath
       id="clipPath16"><path
         id="path18"
         d="M 0,85 224,85 224,0 0,0 0,85 Z" /></clipPath></defs><g
     transform="translate(-7.6833358,2.5)"
     id="g4142"><path
       d="m 37.415166,16.660873 c -0.227776,-0.04822 -0.441912,-0.08692 -0.652241,-0.139585 -0.372436,-0.09358 -0.614173,-0.327072 -0.687771,-0.707123 -0.04156,-0.213184 -0.07232,-0.432078 -0.07327,-0.648751 -0.0057,-1.769235 0.0076,-3.538788 -0.01013,-5.308023 C 35.986954,9.367575 35.933384,8.87205 35.83948,8.391118 35.707509,7.71445 35.408671,7.105988 34.830664,6.6926263 34.014094,6.1085925 33.112504,6.0819438 32.188391,6.3772925 31.335971,6.6494825 30.764441,7.2148 30.16042,7.849593 c -0.07011,0.07391 -0.139267,0.148783 -0.24237,0.259183 0,-0.571662 0,-1.08876 0,-1.6058573 0,-0.2931287 -0.07232,-0.339445 -0.34674,-0.2471287 -0.914279,0.3070862 -1.829194,0.6122687 -2.745694,0.911741 -0.346423,0.11325 -0.348961,0.105325 -0.307403,0.468878 9.52e-4,0.0057 0.0054,0.01112 3.17e-4,9.51e-4 0.222701,-0.02062 0.43874,-0.05202 0.655413,-0.05837 0.440327,-0.01333 0.68238,0.176701 0.760737,0.608461 0.04315,0.238564 0.07075,0.483155 0.0717,0.725207 0.0057,1.894545 0.0045,3.789088 0.0016,5.683315 -7.11e-4,0.293449 -0.01308,0.587211 -0.03402,0.879704 -0.04473,0.628448 -0.317872,0.946321 -0.933947,1.093836 -0.155765,0.03744 -0.315653,0.05774 -0.475222,0.08629 l 0,0.344203 4.929557,0 0,-0.337224 C 31.243124,16.613921 31.002339,16.57966 30.768853,16.518433 30.36945,16.413427 30.094722,16.173595 30.02493,15.747228 30.003993,15.618747 30,15.486776 30,15.356391 l 0,-5.660692 c 0,0 -0.02019,-0.69764 0.05985,-0.836261 0.118962,-0.251254 0.38447,-0.44072 0.612247,-0.635504 0.558655,-0.477444 1.096561,-0.78675 1.860152,-0.709028 0.52598,0.05361 0.93934,0.278535 1.189323,0.76042 0.193833,0.373389 0.27928,0.65663 0.282977,1.192179 L 34,14.700343 c 0,0.243004 -0.0044,0.487277 -0.03224,0.728695 -0.07646,0.668421 -0.37181,1.010086 -0.987886,1.155063 -0.131971,0.03109 -0.267749,0.04537 -0.412726,0.06916 -0.0082,0.112618 -0.01617,0.223018 -0.02537,0.344837 l 4.873406,0 z"
       id="path34"
       style="fill:#ffffff;fill-opacity:1;fill-rule:nonzero;stroke:none" /><path
       d="m 44.45121,2.0000062 -2.428218,0 c -0.03791,0.1541725 -0.03791,0.2451588 0.165229,0.25906 0.42745,0.029375 0.53297,0.2454763 0.31498,0.6081613 C 42.381564,3.0697362 42.249511,3.2659262 42.11935,3.4630663 41.949065,3.721495 41.775621,3.9777112 41.593015,4.251305 41.518765,4.15178 41.452426,4.077545 41.402826,3.9935075 41.170304,3.5979675 40.927671,3.207165 40.718211,2.7996188 c -0.147853,-0.2881263 -0.05086,-0.452725 0.266012,-0.5276 0.105837,-0.024963 0.216093,-0.030013 0.327301,-0.04455 l 0,-0.2246237 -3.210772,0 0,0.2135675 c 0.626484,0.0338 0.744326,0.1544875 1.232118,0.8097212 0.0076,0.00988 0.01423,0.020537 0.02117,0.03095 0.482104,0.73927 0.962314,1.48012 1.448843,2.2168612 0.06414,0.097313 0.06666,0.1642825 -0.0012,0.2615887 C 40.211807,6.382535 39.628605,7.234275 39.040349,8.08254 38.786026,8.449333 38.494426,8.766524 38,8.758625 l 0,0.241369 2.256354,0 c -0.0048,-0.08656 -0.0086,-0.157649 -0.012,-0.221466 -0.151329,-0.02149 -0.28307,-0.02685 -0.406914,-0.06065 -0.203774,-0.05529 -0.257165,-0.171865 -0.171549,-0.366162 0.05719,-0.130161 0.125424,-0.257163 0.201561,-0.377216 0.403756,-0.634382 0.810987,-1.2662375 1.218218,-1.8984087 0.02149,-0.033487 0.0515,-0.061925 0.08783,-0.1048875 0.351944,0.5415 0.693777,1.0675192 1.03561,1.5932212 0.132374,0.203458 0.27233,0.402176 0.394279,0.611636 0.157963,0.272013 0.05814,0.490635 -0.245478,0.555717 -0.09509,0.02021 -0.193662,0.02528 -0.295707,0.03823 l 0,0.229046 3.110622,0 c 0.02338,-0.220518 0.02306,-0.218305 -0.167127,-0.247055 -0.06666,-0.0099 -0.133637,-0.02874 -0.196507,-0.05307 C 44.500531,8.579829 44.2718,8.356779 44.094881,8.091084 43.39605,7.040625 42.711119,5.9813213 42.013235,4.9305463 c -0.07708,-0.1162625 -0.06855,-0.1886088 0.0064,-0.29476 0.39333,-0.5591925 0.780025,-1.1231225 1.1683,-1.6857888 0.248002,-0.3588938 0.587309,-0.5828862 1.009387,-0.6824025 0.08214,-0.0196 0.167443,-0.025913 0.254007,-0.038538 L 44.451299,2 Z"
       id="path38"
       style="fill:#2ca0da;fill-opacity:1;fill-rule:nonzero;stroke:none" /></g></svg>