<svg xmlns="http://www.w3.org/2000/svg" width="39" height="78" fill="none" viewBox="0 0 39 78">
  <g class="illustrations/39x78/settings" clip-path="url(#a)">
    <path fill="#3F545F" d="M39 0v3h-2.971l-1.427 7.608-.177 2.056-2.239.575-.33.09-2.03.577-1.205-1.682-5.049-5.886-5.145 2.97 2.567 7.296.89 1.87-1.53 1.498-.375.377-1.477 1.515-1.88-.864-7.314-2.573-2.97 5.145 5.882 5.045 1.668 1.227-.555 1.994-.136.51-.514 2.053-2.068.2L3 36.029v5.941l7.613 1.428 2.071.255.578 2.247.638 2.281-1.677 1.198-5.885 5.048 2.97 5.145 7.331-2.58 1.892-.818 1.633 1.664.185.183 1.515 1.477L21 61.377l-2.573 7.314 5.145 2.97 4.996-5.825 1.08-1.778 2.368.658.332.087 2.053.514.2 2.067L36.029 75H39v3h-3.8a2 2 0 0 1-1.93-1.476l-.036-.155-1.59-8.48a2.009 2.009 0 0 1-.025-.176l-.293-.076-.292-.08-.108.14-5.617 6.548c-.369.43-.886.67-1.42.696l-.16.001a1.993 1.993 0 0 1-.789-.189l-.149-.078-6.582-3.8a2 2 0 0 1-.936-2.235l.05-.16 2.862-8.14c.02-.058.044-.115.07-.171l-.213-.21-.211-.213-.171.069-8.14 2.863c-.16.056-.323.09-.486.105l-.162.008a2.001 2.001 0 0 1-1.657-.858l-.09-.142-3.8-6.582a2 2 0 0 1 .307-2.403l.123-.115 6.549-5.617c.045-.038.09-.075.139-.11l-.157-.583-.087-.01-.088-.015-8.48-1.59a2 2 0 0 1-1.625-1.807L0 42.8v-7.6a2 2 0 0 1 1.476-1.93l.155-.036 8.48-1.59c.059-.01.117-.02.176-.025.05-.195.102-.39.156-.585l-.07-.052-.07-.056-6.548-5.617a2 2 0 0 1-.508-2.369l.078-.149 3.8-6.582a2 2 0 0 1 1.585-.995l.162-.005c.162 0 .326.022.488.064l.16.05 8.14 2.862c.058.02.115.044.17.07l.425-.425a1.754 1.754 0 0 1-.07-.17l-2.863-8.14a2 2 0 0 1 .887-2.395l6.582-3.8a1.99 1.99 0 0 1 .777-.256l.16-.011a1.999 1.999 0 0 1 1.581.697l5.617 6.549c.039.045.076.092.11.14.192-.055.388-.108.584-.158.005-.058.013-.116.024-.175l1.59-8.48A2 2 0 0 1 35.2 0H39Zm0 16v1c-12.15 0-22 9.85-22 22s9.85 22 22 22v1c-12.703 0-23-10.297-23-23s10.297-23 23-23Zm0 9v4c-5.523 0-10 4.477-10 10s4.477 10 10 10v4c-7.732 0-14-6.268-14-14s6.268-14 14-14Z" class="Primary"/>
  </g>
  <defs>
    <clipPath id="a" class="a">
      <path fill="#fff" d="M0 0h39v78H0z"/>
    </clipPath>
  </defs>
</svg>
