<svg width="20" height="20" viewBox="0 0 20 20" fill="none" xmlns="http://www.w3.org/2000/svg">
<path fill-rule="evenodd" clip-rule="evenodd" d="M7.32142 5.50001V1H5.82142V5.50001H3C2.44772 5.50001 2 5.94773 2 6.50002V12.75C2 14.9592 3.79086 16.75 6 16.75H9.25V19H10.75V16.75H14C16.2091 16.75 18 14.9592 18 12.75V6.50001C18 5.94773 17.5523 5.50001 17 5.50001H14.1786V1H12.6786V5.50001H7.32142ZM3.5 7.00001V12.75C3.5 14.1307 4.61929 15.25 6 15.25H14C15.3807 15.25 16.5 14.1307 16.5 12.75V7.00001H3.5ZM10.0072 13.625C10.6975 13.625 11.2572 13.0654 11.2572 12.375C11.2572 11.6846 10.6975 11.125 10.0072 11.125C9.31682 11.125 8.75718 11.6846 8.75718 12.375C8.75718 13.0654 9.31682 13.625 10.0072 13.625Z" fill="#698796"/>
</svg>
