<svg width="20" height="20" viewBox="0 0 20 20" fill="none" xmlns="http://www.w3.org/2000/svg">
<path fill-rule="evenodd" clip-rule="evenodd" d="M7.75 6V2H6.25V6H4C3.44772 6 3 6.44772 3 7V12C3 14.2091 4.79086 16 7 16H9.25V18H10.75V16H13C15.2091 16 17 14.2091 17 12V7C17 6.44772 16.5523 6 16 6H13.75V2H12.25V6H7.75ZM4.5 7.5V12C4.5 13.3807 5.61929 14.5 7 14.5H13C14.3807 14.5 15.5 13.3807 15.5 12V7.5H4.5ZM10 13C10.5523 13 11 12.5523 11 12C11 11.4477 10.5523 11 10 11C9.44772 11 9 11.4477 9 12C9 12.5523 9.44772 13 10 13Z" fill="#698796"/>
</svg>
