<svg width="20" height="20" viewBox="0 0 20 20" fill="none" xmlns="http://www.w3.org/2000/svg">
<path fill-rule="evenodd" clip-rule="evenodd" d="M15.5565 1.70711C15.166 1.31658 14.5328 1.31658 14.1423 1.70711L12.4379 3.41145L12.4383 3.4118L12.4341 3.41598L13.0923 4.07413L14.5001 5.5L15.9887 6.97061L16.6767 7.65862L17.3827 6.95264L17.3824 6.95229L18.3849 5.94975C18.7754 5.55923 18.7754 4.92606 18.3849 4.53554L15.5565 1.70711ZM12.3449 4.73483L11.7301 4.12L11.0529 4.79723C11.0446 4.80492 11.0365 4.81277 11.0285 4.82079L2.79423 13.0551L2.30001 16.6655C2.21026 17.3212 2.77071 17.8817 3.42639 17.7919L7.03687 17.2977L15.2664 9.06822L15.2668 9.06862L15.9727 8.36264L15.3571 7.74702C15.3309 7.71304 15.3023 7.68036 15.2711 7.64922L12.4427 4.82079C12.4116 4.78965 12.3789 4.761 12.3449 4.73483Z" fill="#879FAB"/>
</svg>
