<svg width="24" height="20" viewBox="0 0 24 20" fill="none" xmlns="http://www.w3.org/2000/svg">
<path d="M3 4V5.16895C3 5.4713 3.1368 5.75742 3.37212 5.94726L7.29455 9.11157C7.52987 9.30141 7.66667 9.58753 7.66667 9.88988V16.207C7.66667 16.99 8.52594 17.4693 9.19216 17.0578L11.8588 15.4107C12.1538 15.2285 12.3333 14.9066 12.3333 14.5599V9.88988C12.3333 9.58753 12.4701 9.30141 12.7055 9.11157L16.6279 5.94726C16.8632 5.75742 17 5.4713 17 5.16895V4C17 3.44772 16.5523 3 16 3H4C3.44772 3 3 3.44772 3 4Z" stroke="#698796" stroke-width="1.5"/>
<path d="M16.6 11.8C16.3528 11.4704 16.588 11 17 11H21C21.412 11 21.6472 11.4704 21.4 11.8L19.4 14.4667C19.2 14.7333 18.8 14.7333 18.6 14.4667L16.6 11.8Z" fill="#698796"/>
</svg>
