<svg width="24" height="20" viewBox="0 0 24 20" fill="none" xmlns="http://www.w3.org/2000/svg">
<path d="M16.6 11.8C16.3528 11.4704 16.588 11 17 11H21C21.412 11 21.6472 11.4704 21.4 11.8L19.4 14.4667C19.2 14.7333 18.8 14.7333 18.6 14.4667L16.6 11.8Z" fill="#698796"/>
<circle cx="14.5" cy="5.5" r="5.5" fill="#DF2020"/>
<path d="M15.4453 2.3125V8H14.1289V3.79688L12.832 4.17578V3.17578L15.3242 2.3125H15.4453Z" fill="white"/>
<path fill-rule="evenodd" clip-rule="evenodd" d="M8.86958 2.25H4C3.0335 2.25 2.25 3.0335 2.25 4V5.16895C2.25 5.69806 2.48939 6.19877 2.90121 6.53099L6.82364 9.6953C6.88247 9.74276 6.91667 9.81429 6.91667 9.88988V16.207C6.91667 17.5773 8.42039 18.416 9.58628 17.6959L12.2529 16.0488C12.7691 15.73 13.0833 15.1666 13.0833 14.5599V11.8452C12.5564 11.728 12.0535 11.5469 11.5833 11.3105V14.5599C11.5833 14.6466 11.5384 14.7271 11.4647 14.7726L8.79804 16.4197C8.63148 16.5226 8.41667 16.4028 8.41667 16.207V9.88988C8.41667 9.36076 8.17727 8.86006 7.76546 8.52784L3.84303 5.36352C3.7842 5.31606 3.75 5.24453 3.75 5.16895V4C3.75 3.86193 3.86193 3.75 4 3.75H8.23829C8.38623 3.21955 8.59976 2.71645 8.86958 2.25Z" fill="#698796"/>
</svg>
