<svg width="20" height="20" viewBox="0 0 20 20" fill="none" xmlns="http://www.w3.org/2000/svg">
<path fill-rule="evenodd" clip-rule="evenodd" d="M8 10C9.65685 10 11 8.65685 11 7C11 5.34315 9.65685 4 8 4C6.34315 4 5 5.34315 5 7C5 8.65685 6.34315 10 8 10ZM2.00733 15.266C2.29383 13.3888 3.93459 12 5.86598 12H10.134C10.4249 12 10.7091 12.0315 10.9832 12.0914C10.4094 12.302 10 12.8532 10 13.5V16H2.65044C2.25286 16 1.94835 15.6525 2.00733 15.266ZM14.8293 8C14.9398 7.68722 15 7.35064 15 7C15 5.34315 13.6569 4 12 4C11.6019 4 11.222 4.07753 10.8744 4.21831C11.5712 4.93818 12 5.91901 12 7C12 8.08099 11.5712 9.06182 10.8744 9.78169C10.9833 9.82579 11.0953 9.86368 11.2101 9.89492C11.6501 8.78494 12.7334 8 14 8H14.8293Z" fill="#A5B7C0"/>
<path fill-rule="evenodd" clip-rule="evenodd" d="M14 10.5H15C15.2761 10.5 15.5 10.7239 15.5 11V13H13.5V11C13.5 10.7239 13.7239 10.5 14 10.5ZM12 13V11C12 9.89543 12.8954 9 14 9H15C16.1046 9 17 9.89543 17 11V13H17.5C17.7761 13 18 13.2239 18 13.5V16.5C18 16.7761 17.7761 17 17.5 17H11.5C11.2239 17 11 16.7761 11 16.5V13.5C11 13.2239 11.2239 13 11.5 13H12Z" fill="#E1E7EA"/>
</svg>
