<svg width="64" height="64" viewBox="0 0 64 64" fill="none" xmlns="http://www.w3.org/2000/svg">
<circle cx="32" cy="32" r="32" fill="#212A2F"/>
<path fill-rule="evenodd" clip-rule="evenodd" d="M28 43C28 39.6863 30.6863 37 34 37H36.5C37.3284 37 38 37.6716 38 38.5C38 39.3284 37.3284 40 36.5 40H34C32.3431 40 31 41.3431 31 43C31 44.6569 32.3431 46 34 46H36.5C37.3284 46 38 46.6716 38 47.5C38 48.3284 37.3284 49 36.5 49H34C30.6863 49 28 46.3137 28 43ZM51 43C51 39.6863 48.3137 37 45 37H42.5C41.6716 37 41 37.6716 41 38.5C41 39.3284 41.6716 40 42.5 40H45C46.6569 40 48 41.3431 48 43C48 44.6569 46.6569 46 45 46H42.5C41.6716 46 41 46.6716 41 47.5C41 48.3284 41.6716 49 42.5 49H45C48.3137 49 51 46.3137 51 43ZM36 41.5C35.1716 41.5 34.5 42.1716 34.5 43C34.5 43.8284 35.1716 44.5 36 44.5H43C43.8284 44.5 44.5 43.8284 44.5 43C44.5 42.1716 43.8284 41.5 43 41.5H36Z" fill="#E1E7EA"/>
<path fill-rule="evenodd" clip-rule="evenodd" d="M26.9999 18C23.6862 18 21 20.6862 21 23.9999V25.9998C21 29.3134 23.6862 31.9997 26.9999 31.9997C30.3135 31.9997 32.9997 29.3134 32.9997 25.9998V23.9999C32.9997 20.6862 30.3135 18 26.9999 18ZM21.441 36C17.9389 36 14.9188 38.476 14.211 41.9273L14.0387 42.7675C13.8024 43.9198 14.677 45 15.8462 45H24.2C24.0689 44.3538 24 43.6849 24 43C24 40.2745 25.0903 37.8038 26.8586 36H21.441ZM35.4091 31.413C36.1934 31.7891 37.072 31.9997 37.9999 31.9997C41.3135 31.9997 43.9997 29.3134 43.9997 25.9998V23.9999C43.9997 20.6862 41.3135 18 37.9999 18C37.072 18 36.1934 18.2106 35.4091 18.5866C36.4155 20.1469 36.9995 22.0052 36.9995 23.9999V25.9998C36.9995 27.9945 36.4155 29.8528 35.4091 31.413Z" fill="#A5B7C0"/>
</svg>
