<svg width="64" height="64" viewBox="0 0 64 64" fill="none" xmlns="http://www.w3.org/2000/svg">
<circle cx="32" cy="32" r="32" fill="#212A2F"/>
<path d="M14.2124 40.9273C14.9245 37.476 17.9636 35 21.4877 35H31.669C35.193 35 38.2321 37.476 38.9443 40.9273L39.1177 41.7675C39.3554 42.9198 38.4754 44 37.2988 44H15.8578C14.6812 44 13.8012 42.9198 14.039 41.7675L14.2124 40.9273Z" fill="#A5B7C0"/>
<path fill-rule="evenodd" clip-rule="evenodd" d="M36.5783 22.9999V24.9998C36.5783 27.0054 35.9879 28.873 34.9714 30.4385C35.7391 30.7985 36.5961 30.9997 37.5001 30.9997C40.7931 30.9997 43.4626 28.3302 43.4626 25.0372V22.9625C43.4626 19.6695 40.7931 17 37.5001 17C36.5961 17 35.7391 17.2012 34.9714 17.5612C35.9879 19.1266 36.5783 20.9943 36.5783 22.9999ZM32.0514 20.5375C32.3899 21.2888 32.5783 22.1223 32.5783 22.9999V24.9998C32.5783 25.8773 32.3899 26.7108 32.0514 27.4621C31.7211 26.7213 31.5376 25.9007 31.5376 25.0372V22.9625C31.5376 22.099 31.7211 21.2784 32.0514 20.5375ZM26.8573 44C25.6817 44 24.8019 42.9215 25.038 41.7698L25.2089 40.9363C25.89 37.6149 28.726 35.1941 32.0775 35.0111C35.4256 35.1939 38.2597 37.6101 38.9442 40.9273L39.1176 41.7675C39.3553 42.9198 38.4753 44 37.2987 44H26.8573ZM42.8565 44C43.1727 43.0582 43.2536 42.0183 43.035 40.9592L42.8616 40.119C42.4602 38.1733 41.578 36.4291 40.3546 35H42.5134C46.0409 35 49.0819 37.4807 49.7905 40.9363L49.9615 41.7698C50.1976 42.9215 49.3178 44 48.1422 44H42.8565Z" fill="#A5B7C0"/>
<path d="M20.5786 22.9999C20.5786 19.6862 23.2648 17 26.5785 17C29.8921 17 32.5783 19.6862 32.5783 22.9999V24.9998C32.5783 28.3134 29.8921 30.9997 26.5785 30.9997C23.2648 30.9997 20.5786 28.3134 20.5786 24.9998V22.9999Z" fill="#A5B7C0"/>
<path fill-rule="evenodd" clip-rule="evenodd" d="M28.5 47.5C28.5 44.1863 31.1863 41.5 34.5 41.5H37C37.8284 41.5 38.5 42.1716 38.5 43C38.5 43.8284 37.8284 44.5 37 44.5H34.5C32.8431 44.5 31.5 45.8431 31.5 47.5C31.5 49.1569 32.8431 50.5 34.5 50.5H37C37.8284 50.5 38.5 51.1716 38.5 52C38.5 52.8284 37.8284 53.5 37 53.5H34.5C31.1863 53.5 28.5 50.8137 28.5 47.5ZM51.5 47.5C51.5 44.1863 48.8137 41.5 45.5 41.5H43C42.1716 41.5 41.5 42.1716 41.5 43C41.5 43.8284 42.1716 44.5 43 44.5H45.5C47.1569 44.5 48.5 45.8431 48.5 47.5C48.5 49.1569 47.1569 50.5 45.5 50.5H43C42.1716 50.5 41.5 51.1716 41.5 52C41.5 52.8284 42.1716 53.5 43 53.5H45.5C48.8137 53.5 51.5 50.8137 51.5 47.5ZM36.5 46C35.6716 46 35 46.6716 35 47.5C35 48.3284 35.6716 49 36.5 49H43.5C44.3284 49 45 48.3284 45 47.5C45 46.6716 44.3284 46 43.5 46H36.5Z" fill="#E1E7EA"/>
</svg>
