<svg width="20" height="20" viewBox="0 0 20 20" fill="none" xmlns="http://www.w3.org/2000/svg">
<path fill-rule="evenodd" clip-rule="evenodd" d="M8 10C9.65685 10 11 8.65685 11 7C11 5.34315 9.65685 4 8 4C6.34315 4 5 5.34315 5 7C5 8.65685 6.34315 10 8 10ZM2.00733 15.266C2.29383 13.3888 3.93459 12 5.86598 12H10.134C10.4433 12 10.7451 12.0356 11.0352 12.1031C10.1086 12.7328 9.5 13.7953 9.5 15C9.5 15.3475 9.55064 15.6831 9.64494 16H2.65044C2.25286 16 1.94835 15.6525 2.00733 15.266ZM11.8819 16H10.708C10.5742 15.6938 10.5 15.3556 10.5 15C10.5 13.8799 11.2366 12.9319 12.2518 12.6139C12.6116 12.8426 12.9314 13.1284 13.1975 13.4595C13.1369 13.4856 13.0701 13.5 13 13.5C12.1716 13.5 11.5 14.1716 11.5 15C11.5 15.3842 11.6444 15.7346 11.8819 16ZM14 15.3623C14 15.4094 13.9947 15.4555 13.9846 15.5H13C12.7239 15.5 12.5 15.2761 12.5 15C12.5 14.7239 12.7239 14.5 13 14.5H13.7923C13.8843 14.7438 13.9521 15 13.9927 15.266C13.9976 15.2983 14 15.3303 14 15.3619C14 15.362 14 15.3622 14 15.3623ZM15 15.4053C15.0006 15.3797 15.0006 15.354 15 15.3282V14.5H16C16.2761 14.5 16.5 14.7239 16.5 15C16.5 15.2761 16.2761 15.5 16 15.5H15V15.4053ZM16.0623 12.5008C17.0737 13.0665 17.8096 14.0666 17.9927 15.266C18.0516 15.6525 17.7471 16 17.3496 16H17.1181C17.3556 15.7346 17.5 15.3842 17.5 15C17.5 14.1716 16.8284 13.5 16 13.5C15.7239 13.5 15.5 13.2761 15.5 13C15.5 12.7239 15.7239 12.5 16 12.5C16.0208 12.5 16.0416 12.5003 16.0623 12.5008ZM10.8744 9.78169C11.222 9.92247 11.6019 10 12 10C13.6569 10 15 8.65685 15 7C15 5.34315 13.6569 4 12 4C11.6019 4 11.222 4.07753 10.8744 4.21831C11.5712 4.93818 12 5.91901 12 7C12 8.08099 11.5712 9.06182 10.8744 9.78169Z" fill="#A5B7C0"/>
<path fill-rule="evenodd" clip-rule="evenodd" d="M13 13.5C12.1716 13.5 11.5 14.1716 11.5 15C11.5 15.8284 12.1716 16.5 13 16.5C13.2761 16.5 13.5 16.7239 13.5 17C13.5 17.2761 13.2761 17.5 13 17.5C11.6193 17.5 10.5 16.3807 10.5 15C10.5 13.6193 11.6193 12.5 13 12.5C13.2761 12.5 13.5 12.7239 13.5 13C13.5 13.2761 13.2761 13.5 13 13.5ZM16 13.5C16.8284 13.5 17.5 14.1716 17.5 15C17.5 15.8284 16.8284 16.5 16 16.5C15.7239 16.5 15.5 16.7239 15.5 17C15.5 17.2761 15.7239 17.5 16 17.5C17.3807 17.5 18.5 16.3807 18.5 15C18.5 13.6193 17.3807 12.5 16 12.5C15.7239 12.5 15.5 12.7239 15.5 13C15.5 13.2761 15.7239 13.5 16 13.5ZM13 14.5C12.7239 14.5 12.5 14.7239 12.5 15C12.5 15.2761 12.7239 15.5 13 15.5H16C16.2761 15.5 16.5 15.2761 16.5 15C16.5 14.7239 16.2761 14.5 16 14.5H13Z" fill="#E1E7EA"/>
</svg>
