<svg width="20" height="20" viewBox="0 0 20 20" fill="none" xmlns="http://www.w3.org/2000/svg">
<path d="M11 3V5.1C12.1 5.3 13 5.9 13.7 6.7L15.5 5.6L16.5 7.3L14.7 8.4C14.9 8.9 15 9.4 15 10C15 10.6 14.9 11.1 14.7 11.6L16.5 12.7L15.5 14.4L13.7 13.3C13 14.1 12.1 14.7 11 14.9V17H9V14.9C7.9 14.7 7 14.1 6.3 13.3L4.5 14.4L3.5 12.7L5.3 11.6C5.2 11.1 5 10.6 5 10C5 9.4 5.1 8.9 5.3 8.4L3.5 7.4L4.5 5.7L6.3 6.8C7 5.9 7.9 5.3 9 5.1V3H11ZM10 13C11.6 13 13 11.7 13 10C13 8.3 11.7 7 10 7C8.3 7 7 8.3 7 10C7 11.7 8.4 13 10 13ZM11 2H9C8.5 2 8 2.4 8 3V4.3C7.3 4.6 6.7 5 6.1 5.4L5 4.8C4.8 4.7 4.7 4.6 4.5 4.6C4.4 4.6 4.3 4.6 4.2 4.6C4 4.7 3.8 4.9 3.6 5.1L2.6 6.8C2.4 7.3 2.5 8 3 8.2L4.2 8.9C4.1 9.3 4 9.6 4 10C4 10.4 4 10.7 4.1 11.1L3 11.8C2.8 11.9 2.6 12.2 2.5 12.4C2.4 12.7 2.5 12.9 2.6 13.2L3.6 14.9C3.7 15.1 3.9 15.3 4.2 15.4C4.3 15.4 4.4 15.4 4.5 15.4C4.7 15.4 4.8 15.4 5 15.3L6.2 14.6C6.7 15 7.3 15.4 8 15.7V17C8 17.6 8.4 18 9 18H11C11.5 18 12 17.6 12 17V15.7C12.7 15.5 13.3 15.1 13.9 14.6L15.1 15.3C15.3 15.4 15.4 15.4 15.6 15.4C15.7 15.4 15.8 15.4 15.9 15.4C16.2 15.3 16.4 15.2 16.5 14.9L17.5 13.2C17.6 13 17.7 12.7 17.6 12.4C17.5 12.1 17.4 11.9 17.1 11.8L15.9 11.1C16 10.7 16 10.4 16 10C16 9.6 16 9.3 15.9 8.9L17 8.2C17.5 7.9 17.6 7.3 17.4 6.8L16.4 5.1C16.3 4.9 16.1 4.7 15.8 4.6C15.7 4.6 15.6 4.6 15.5 4.6C15.3 4.6 15.2 4.6 15 4.7L13.8 5.4C13.3 5 12.7 4.6 12 4.3V3C12 2.4 11.5 2 11 2ZM10 12C8.9 12 8 11.1 8 10C8 8.9 8.9 8 10 8C11.1 8 12 8.9 12 10C12 11.1 11.1 12 10 12Z" fill="#698796"/>
</svg>
