<svg width="64" height="64" viewBox="0 0 64 64" fill="none" xmlns="http://www.w3.org/2000/svg">
<path fill-rule="evenodd" clip-rule="evenodd" d="M28.5463 5C26.971 5 25.664 6.2185 25.5537 7.78999L25.3638 10.4952C23.8872 10.9504 22.4756 11.5533 21.1465 12.2865L19.0648 10.4778C17.8756 9.44454 16.0898 9.50712 14.9759 10.6211L10.4018 15.1952C9.28781 16.3091 9.22522 18.0949 10.2585 19.2841L12.129 21.437C11.4306 22.7484 10.8579 24.1375 10.4274 25.5879L7.78999 25.773C6.2185 25.8833 5 27.1903 5 28.7656V35.2344C5 36.8097 6.2185 38.1167 7.78999 38.227L10.4274 38.4121C10.8579 39.8626 11.4306 41.2516 12.129 42.563L10.2585 44.7159C9.22524 45.9051 9.28783 47.6909 10.4018 48.8048L14.9759 53.3789C16.0898 54.4929 17.8756 54.5555 19.0648 53.5222L21.1465 51.7135C22.4756 52.4467 23.8872 53.0496 25.3638 53.5048L25.5537 56.21C25.664 57.7815 26.971 59 28.5463 59H35.0151C36.5904 59 37.8974 57.7815 38.0077 56.21L38.1882 53.6378C39.7273 53.1984 41.1988 52.5994 42.5835 51.8601L44.4966 53.5222C45.6858 54.5555 47.4716 54.4929 48.5855 53.3789L53.1596 48.8048C54.2736 47.6909 54.3361 45.9051 53.3029 44.7159L51.7023 42.8737C52.4776 41.4717 53.1079 39.9777 53.5726 38.4121L56.21 38.227C57.7815 38.1167 59 36.8097 59 35.2344V28.7656C59 27.1903 57.7815 25.8833 56.21 25.773L53.5726 25.5879C53.1079 24.0223 52.4776 22.5283 51.7023 21.1263L53.3029 19.2841L51.7932 17.9724L53.3029 19.2841C54.3362 18.0949 54.2736 16.3091 53.1596 15.1952L48.5855 10.6211C47.4716 9.50712 45.6858 9.44453 44.4966 10.4778L42.5835 12.14C41.1988 11.4006 39.7273 10.8016 38.1882 10.3622L38.0077 7.78999C37.8974 6.2185 36.5904 5 35.0151 5H28.5463ZM51.7932 17.9724L49.2428 20.9077C50.5212 22.8909 51.4668 25.1088 52.0006 27.4825L56.07 27.7681C56.5938 27.8048 57 28.2405 57 28.7656V35.2344C57 35.7595 56.5938 36.1952 56.07 36.2319L52.0006 36.5175C51.4668 38.8912 50.5212 41.1091 49.2428 43.0923L51.7932 46.0276C52.1376 46.424 52.1167 47.0193 51.7454 47.3906L47.1713 51.9647C46.8 52.336 46.2047 52.3569 45.8083 52.0125L42.8195 49.4156C40.8439 50.6455 38.6438 51.5486 36.2948 52.0494L36.0126 56.07C35.9759 56.5938 35.5402 57 35.0151 57H28.5463C28.0212 57 27.5855 56.5938 27.5488 56.07L27.2596 51.9492C24.9774 51.4089 22.8428 50.4872 20.9268 49.255L17.7531 52.0125C17.3567 52.3569 16.7614 52.336 16.3901 51.9647L11.816 47.3906C11.4447 47.0193 11.4238 46.424 11.7682 46.0276L14.5724 42.8002C13.3875 40.8922 12.5072 38.7753 11.9994 36.5175L7.93 36.2319C7.40617 36.1952 7 35.7595 7 35.2344V28.7656C7 28.2405 7.40617 27.8048 7.93 27.7681L11.9994 27.4825C12.5072 25.2247 13.3875 23.1078 14.5724 21.1998L11.7682 17.9724C11.4238 17.576 11.4447 16.9807 11.816 16.6094L16.3901 12.0353C16.7614 11.664 17.3567 11.6431 17.7531 11.9875L20.9267 14.745C22.8428 13.5128 24.9774 12.5911 27.2596 12.0508L27.5488 7.93C27.5855 7.40617 28.0212 7 28.5463 7H35.0151C35.5402 7 35.9759 7.40617 36.0126 7.93L36.2948 11.9506C38.6438 12.4514 40.8439 13.3545 42.8195 14.5844L45.8083 11.9875C46.2047 11.6431 46.8 11.664 47.1713 12.0353L51.7454 16.6094C52.1167 16.9807 52.1376 17.576 51.7932 17.9724ZM45 32C45 39.1797 39.1797 45 32 45C24.8203 45 19 39.1797 19 32C19 24.8203 24.8203 19 32 19C39.1797 19 45 24.8203 45 32ZM32 47C40.2843 47 47 40.2843 47 32C47 23.7157 40.2843 17 32 17C23.7157 17 17 23.7157 17 32C17 40.2843 23.7157 47 32 47ZM38.7071 25.2929C38.3166 24.9024 37.6834 24.9024 37.2929 25.2929L32 30.5858L26.7071 25.2929C26.3166 24.9024 25.6834 24.9024 25.2929 25.2929C24.9024 25.6834 24.9024 26.3166 25.2929 26.7071L30.5858 32L25.2929 37.2929C24.9024 37.6834 24.9024 38.3166 25.2929 38.7071C25.6834 39.0976 26.3166 39.0976 26.7071 38.7071L32 33.4142L37.2929 38.7071C37.6834 39.0976 38.3166 39.0976 38.7071 38.7071C39.0976 38.3166 39.0976 37.6834 38.7071 37.2929L33.4142 32L38.7071 26.7071C39.0976 26.3166 39.0976 25.6834 38.7071 25.2929Z" fill="#53707F" class="primary"/>
</svg>
