<svg width="64" height="64" viewBox="0 0 64 64" fill="none" xmlns="http://www.w3.org/2000/svg">
<path fill-rule="evenodd" clip-rule="evenodd" d="M8 53V11C8 10.4477 8.44772 10 9 10H55C55.5523 10 56 10.4477 56 11V15.416C54.2341 16.1876 53 17.9497 53 20C53 22.0503 54.2341 23.8124 56 24.584V27.416C54.2341 28.1876 53 29.9497 53 32C53 34.0503 54.2341 35.8124 56 36.584V39.416C54.2341 40.1876 53 41.9497 53 44C53 46.0503 54.2341 47.8124 56 48.584V53C56 53.5523 55.5523 54 55 54H9C8.44772 54 8 53.5523 8 53ZM58 11V15V17C56.3431 17 55 18.3431 55 20C55 21.6569 56.3431 23 58 23V25V27V29C56.3431 29 55 30.3431 55 32C55 33.6569 56.3431 35 58 35V37V39V41C56.3431 41 55 42.3431 55 44C55 45.6569 56.3431 47 58 47V49V53C58 54.6569 56.6569 56 55 56H9C7.34314 56 6 54.6569 6 53V11C6 9.34315 7.34315 8 9 8H55C56.6569 8 58 9.34315 58 11ZM38.1715 32.4386C39.319 30.9278 40 29.0434 40 27C40 22.0294 35.9706 18 31 18C26.0294 18 22 22.0294 22 27C22 29.0434 22.681 30.9278 23.8285 32.4386C24.7127 30.9561 26.3278 30 28.1231 30H33.8769C35.6722 30 37.2873 30.9561 38.1715 32.4386ZM38.9352 34.6179C40.8333 32.6412 42 29.9568 42 27C42 20.9249 37.0751 16 31 16C24.9249 16 20 20.9249 20 27C20 29.9568 21.1667 32.6412 23.0648 34.6179L23.0299 34.7575L23.2584 34.8146C25.2461 36.7838 27.981 38 31 38C34.019 38 36.7539 36.7838 38.7416 34.8146L38.9701 34.7575L38.9352 34.6179ZM36.6946 33.9697C36.2666 32.7975 35.147 32 33.8769 32H28.1231C26.853 32 25.7334 32.7975 25.3054 33.9697C26.8567 35.2387 28.8395 36 31 36C33.1605 36 35.1433 35.2387 36.6946 33.9697ZM27 24C27 21.7909 28.7909 20 31 20C33.2091 20 35 21.7909 35 24V25C35 27.2091 33.2091 29 31 29C28.7909 29 27 27.2091 27 25V24ZM31 22C29.8954 22 29 22.8954 29 24V25C29 26.1046 29.8954 27 31 27C32.1046 27 33 26.1046 33 25V24C33 22.8954 32.1046 22 31 22ZM41 42V44H21V42H41ZM39 48V46H23V48H39Z" fill="#53707F"/>
</svg>
