<svg width="20" height="20" viewBox="0 0 20 20" fill="none" xmlns="http://www.w3.org/2000/svg">
<path fill-rule="evenodd" clip-rule="evenodd" d="M10.7317 3.03716C10.5645 3.01958 10.3981 3.00805 10.2326 3.00238C7.89247 2.92224 5.7472 4.01524 4.4112 5.78378L4.70307 3.00681L3.70855 2.90229L3.29044 6.88037C3.26157 7.155 3.4608 7.40103 3.73543 7.4299L7.7128 7.84794L7.81732 6.85341L5.07918 6.56562C6.28905 4.83416 8.37829 3.79531 10.6272 4.03168C13.9219 4.37796 16.3123 7.33012 15.9659 10.6258C15.6195 13.9216 12.6675 16.3122 9.37287 15.9659C6.46865 15.6607 4.26708 13.3306 4.02329 10.5253L3.02464 10.5858C3.29714 13.8707 5.87042 16.6033 9.26834 16.9605C13.1125 17.3645 16.5563 14.5752 16.9604 10.7304C17.3469 7.05279 14.8124 3.74157 11.2272 3.10691C11.0641 3.07805 10.8989 3.05473 10.7317 3.03716Z" fill="#698796"/>
</svg>
