<svg width="20" height="20" viewBox="0 0 20 20" fill="none" xmlns="http://www.w3.org/2000/svg">
<path fill-rule="evenodd" clip-rule="evenodd" d="M8.19344 4.49442L5.88427 3.02958L6.68778 1.76294L10.5932 4.24037L11.2265 4.64213L10.8247 5.27545L8.34731 9.18084L7.08067 8.37734L8.63344 5.92958C6.39656 6.53097 4.75 8.57317 4.75 11C4.75 13.8994 7.10051 16.25 10 16.25C12.8995 16.25 15.25 13.8994 15.25 11C15.25 9.92548 14.928 8.92849 14.3755 8.09741L15.6245 7.2669C16.3357 8.33643 16.75 9.62094 16.75 11C16.75 14.7279 13.7279 17.75 10 17.75C6.27208 17.75 3.25 14.7279 3.25 11C3.25 7.89775 5.34272 5.28434 8.19344 4.49442Z" fill="#698796"/>
</svg>
