<svg width="20" height="20" viewBox="0 0 20 20" fill="none" xmlns="http://www.w3.org/2000/svg">
<path fill-rule="evenodd" clip-rule="evenodd" d="M10 17C13.866 17 17 13.866 17 10C17 6.13401 13.866 3 10 3C6.13401 3 3 6.13401 3 10C3 13.866 6.13401 17 10 17ZM10 18C14.4183 18 18 14.4183 18 10C18 5.58172 14.4183 2 10 2C5.58172 2 2 5.58172 2 10C2 14.4183 5.58172 18 10 18Z" fill="#698796"/>
<path fill-rule="evenodd" clip-rule="evenodd" d="M9.99992 10.7069L12.1464 12.8533L12.8535 12.1462L10.707 9.99979L12.8535 7.85335L12.1464 7.14624L9.99992 9.29269L7.85347 7.14624L7.14636 7.85335L9.29281 9.99979L7.14636 12.1462L7.85347 12.8533L9.99992 10.7069Z" fill="#698796"/>
</svg>
