<?xml version="1.0" encoding="UTF-8"?>
<svg width="20" height="20" fill="none" version="1.1" viewBox="0 0 20 20" xmlns="http://www.w3.org/2000/svg">
 <path d="m9.5 5c-2.2592 0-4.2005 1.3627-5.0469 3.3105-1.4411 0.60478-2.4531 2.0287-2.4531 3.6895 0 2.2091 1.7909 4 4 4h3.5 0.5c0.0868 0 0.17231-0.002413 0.25781-0.007812 0.0798 0.005399 0.16099 0.007812 0.24219 0.007812h4c1.933 0 3.5-1.567 3.5-3.5 0-1.8331-1.4089-3.3378-3.2031-3.4883-0.6489-2.3148-2.7748-4.0117-5.2969-4.0117zm0 2c1.6021 0 2.9579 1.0787 3.3711 2.5527l0.375 1.3359 1.3828 0.11719c0.7669 0.0643 1.3711 0.70954 1.3711 1.4941 0 0.8284-0.6716 1.5-1.5 1.5h-4c-0.0358 0-0.070869-0.001506-0.10547-0.003906l-0.13086-0.007813-0.13281 0.007813c-0.0431 0.0028-0.086559 0.003906-0.13086 0.003906h-0.5-3.5c-1.1046 0-2-0.8954-2-2 0-0.8273 0.50208-1.5417 1.2266-1.8457l0.74023-0.31055 0.32031-0.73633c0.54043-1.2437 1.7783-2.1074 3.2129-2.1074z" fill="#e1e7ea"/>
</svg>
