<svg width="64" height="64" viewBox="0 0 64 64" fill="none" xmlns="http://www.w3.org/2000/svg">
<circle cx="32" cy="32" r="32" fill="#212A2F"/>
<path fill-rule="evenodd" clip-rule="evenodd" d="M44 49C47.866 49 51 45.866 51 42C51 38.134 47.866 35 44 35C40.134 35 37 38.134 37 42C37 45.866 40.134 49 44 49ZM44 37.25C44.6904 37.25 45.25 37.8096 45.25 38.5V42.1534L47.656 43.5425C48.2538 43.8876 48.4587 44.6521 48.1135 45.25C47.7683 45.8479 47.0038 46.0527 46.406 45.7075L43.392 43.9674C43.3618 43.9506 43.3324 43.9326 43.3039 43.9134C42.9388 43.6692 42.7401 43.2603 42.75 42.8442V38.5C42.75 37.8096 43.3097 37.25 44 37.25Z" fill="#E1E7EA"/>
<path fill-rule="evenodd" clip-rule="evenodd" d="M26 23.9999C26 20.6862 28.6862 18 31.9999 18C35.3135 18 37.9997 20.6862 37.9997 23.9999V25.9998C37.9997 29.3134 35.3135 31.9997 31.9999 31.9997C28.6862 31.9997 26 29.3134 26 25.9998V23.9999ZM19.211 41.9273C19.9188 38.476 22.9389 36 26.441 36H34.7789C33.6538 37.7256 33 39.7864 33 42C33 43.04 33.1443 44.0463 33.4141 45H20.8462C19.677 45 18.8024 43.9198 19.0387 42.7675L19.211 41.9273Z" fill="#A5B7C0"/>
</svg>
