<svg width="20" height="20" viewBox="0 0 20 20" fill="none" xmlns="http://www.w3.org/2000/svg">
<path fill-rule="evenodd" clip-rule="evenodd" d="M14 18C16.2091 18 18 16.2091 18 14C18 11.7909 16.2091 10 14 10C11.7909 10 10 11.7909 10 14C10 16.2091 11.7909 18 14 18ZM14 11.5C14.2761 11.5 14.5 11.7239 14.5 12V14.2113L15.982 15.067C16.2212 15.2051 16.3031 15.5109 16.165 15.75C16.027 15.9891 15.7212 16.0711 15.482 15.933L13.7581 14.9377C13.7413 14.9284 13.7251 14.9182 13.7096 14.9071C13.6487 14.8638 13.6 14.8086 13.565 14.7467C13.5321 14.6888 13.5104 14.6238 13.5029 14.5545C13.5005 14.5331 13.4996 14.5115 13.5 14.4899V12C13.5 11.7239 13.7238 11.5 14 11.5Z" fill="#E1E7EA" class="secondary"/>
<path fill-rule="evenodd" clip-rule="evenodd" d="M7 6C7 4.34315 8.34315 3 10 3C11.6569 3 13 4.34315 13 6V7C13 8.65685 11.6569 10 10 10C8.34315 10 7 8.65685 7 7V6ZM7.86598 12C5.93459 12 4.29383 13.3888 4.00733 15.266C3.94835 15.6525 4.25286 16 4.65044 16H9.41604C9.14845 15.3875 9 14.7111 9 14C9 13.2889 9.14845 12.6125 9.41604 12H7.86598Z" fill="#A5B7C0" class="primary"/>
</svg>
