<svg width="64" height="64" viewBox="0 0 64 64" fill="none" xmlns="http://www.w3.org/2000/svg">
<circle cx="32" cy="32" r="32" fill="#212A2F"/>
<rect x="24.0005" y="17" width="11.9997" height="13.9997" rx="5.99986" fill="#A5B7C0"/>
<path fill-rule="evenodd" clip-rule="evenodd" d="M24.0145 44C24.0049 43.8346 24 43.6678 24 43.5C24 39.3479 26.9771 35.8911 30.9132 35.1479C30.9461 35.0983 30.9794 35.049 31.013 35H24.9095C21.3855 35 18.3464 37.476 17.6342 40.9273L17.4609 41.7675C17.2231 42.9198 18.1031 44 19.2797 44H24.0145Z" fill="#A5B7C0"/>
<path fill-rule="evenodd" clip-rule="evenodd" d="M32.5 47H33H42.5H43H48C50.2091 47 52 45.2091 52 43C52 40.7909 50.2091 39 48 39H47.85C47.1551 35.5766 44.1284 33 40.5 33C37.2345 33 34.4564 35.087 33.4268 38H32.5C30.0147 38 28 40.0147 28 42.5C28 44.9853 30.0147 47 32.5 47Z" fill="#E1E7EA"/>
<path fill-rule="evenodd" clip-rule="evenodd" d="M32.5 47H33H42.5H43H48C50.2091 47 52 45.2091 52 43C52 40.7909 50.2091 39 48 39H47.85C47.1551 35.5766 44.1284 33 40.5 33C37.2345 33 34.4564 35.087 33.4268 38H32.5C30.0147 38 28 40.0147 28 42.5C28 44.9853 30.0147 47 32.5 47Z" fill="#E1E7EA"/>
</svg>
