<svg width="64" height="64" viewBox="0 0 64 64" fill="none" xmlns="http://www.w3.org/2000/svg">
<circle cx="32" cy="32" r="32" fill="#212A2F"/>
<rect x="24.0005" y="17" width="11.9997" height="13.9997" rx="5.99986" fill="#A5B7C0"/>
<path fill-rule="evenodd" clip-rule="evenodd" d="M28.5 41.5C28.5 38.1863 31.1863 35.5 34.5 35.5H37C37.8284 35.5 38.5 36.1716 38.5 37C38.5 37.8284 37.8284 38.5 37 38.5H34.5C32.8431 38.5 31.5 39.8431 31.5 41.5C31.5 43.1569 32.8431 44.5 34.5 44.5H37C37.8284 44.5 38.5 45.1716 38.5 46C38.5 46.8284 37.8284 47.5 37 47.5H34.5C31.1863 47.5 28.5 44.8137 28.5 41.5ZM51.5 41.5C51.5 38.1863 48.8137 35.5 45.5 35.5H43C42.1716 35.5 41.5 36.1716 41.5 37C41.5 37.8284 42.1716 38.5 43 38.5H45.5C47.1569 38.5 48.5 39.8431 48.5 41.5C48.5 43.1569 47.1569 44.5 45.5 44.5H43C42.1716 44.5 41.5 45.1716 41.5 46C41.5 46.8284 42.1716 47.5 43 47.5H45.5C48.8137 47.5 51.5 44.8137 51.5 41.5ZM36.5 40C35.6716 40 35 40.6716 35 41.5C35 42.3284 35.6716 43 36.5 43H43.5C44.3284 43 45 42.3284 45 41.5C45 40.6716 44.3284 40 43.5 40H36.5Z" fill="#E1E7EA"/>
<path fill-rule="evenodd" clip-rule="evenodd" d="M28.5719 35C26.977 36.6993 26.0002 38.9856 26.0002 41.5C26.0002 42.3652 26.1159 43.2034 26.3326 44H19.2797C18.1031 44 17.2231 42.9198 17.4609 41.7675L17.6342 40.9273C18.3464 37.476 21.3855 35 24.9095 35H28.5719Z" fill="#A5B7C0"/>
</svg>
