<svg width="20" height="20" viewBox="0 0 20 20" fill="none" xmlns="http://www.w3.org/2000/svg">
<path fill-rule="evenodd" clip-rule="evenodd" d="M13 7C13 8.65685 11.6569 10 10 10C8.34315 10 7 8.65685 7 7C7 5.34315 8.34315 4 10 4C11.6569 4 13 5.34315 13 7ZM7.86598 12C5.93459 12 4.29383 13.3888 4.00733 15.266C3.94835 15.6525 4.25286 16 4.65044 16H9.64494C9.55064 15.6831 9.5 15.3475 9.5 15C9.5 13.7268 10.1798 12.6124 11.1962 12H7.86598ZM15.7923 14.5H15V15.5H15.9846C16.0015 15.4256 16.005 15.3467 15.9927 15.266C15.9521 15 15.8843 14.7438 15.7923 14.5ZM11.8819 16C11.6444 15.7346 11.5 15.3842 11.5 15C11.5 14.1716 12.1716 13.5 13 13.5C13.2761 13.5 13.5 13.2761 13.5 13C13.5 12.7239 13.2761 12.5 13 12.5C11.6193 12.5 10.5 13.6193 10.5 15C10.5 15.3556 10.5742 15.6938 10.708 16H11.8819ZM13 14.5C12.7239 14.5 12.5 14.7239 12.5 15C12.5 15.2761 12.7239 15.5 13 15.5H14V14.5H13Z" fill="#A5B7C0" class="primary"/>
<path fill-rule="evenodd" clip-rule="evenodd" d="M13 13.5C12.1716 13.5 11.5 14.1716 11.5 15C11.5 15.8284 12.1716 16.5 13 16.5C13.2761 16.5 13.5 16.7239 13.5 17C13.5 17.2761 13.2761 17.5 13 17.5C11.6193 17.5 10.5 16.3807 10.5 15C10.5 13.6193 11.6193 12.5 13 12.5C13.2761 12.5 13.5 12.7239 13.5 13C13.5 13.2761 13.2761 13.5 13 13.5ZM16 13.5C16.8284 13.5 17.5 14.1716 17.5 15C17.5 15.8284 16.8284 16.5 16 16.5C15.7239 16.5 15.5 16.7239 15.5 17C15.5 17.2761 15.7239 17.5 16 17.5C17.3807 17.5 18.5 16.3807 18.5 15C18.5 13.6193 17.3807 12.5 16 12.5C15.7239 12.5 15.5 12.7239 15.5 13C15.5 13.2761 15.7239 13.5 16 13.5ZM13 14.5C12.7239 14.5 12.5 14.7239 12.5 15C12.5 15.2761 12.7239 15.5 13 15.5H16C16.2761 15.5 16.5 15.2761 16.5 15C16.5 14.7239 16.2761 14.5 16 14.5H13Z" fill="#E1E7EA" class="secondary"/>
</svg>
