<svg width="64" height="64" viewBox="0 0 64 64" fill="none" xmlns="http://www.w3.org/2000/svg">
<circle cx="32" cy="32" r="32" fill="#212A2F"/>
<path fill-rule="evenodd" clip-rule="evenodd" d="M26 23.9999C26 20.6862 28.6862 18 31.9999 18C35.3135 18 37.9997 20.6862 37.9997 23.9999V25.9998C37.9997 29.3134 35.3135 31.9997 31.9999 31.9997C28.6862 31.9997 26 29.3134 26 25.9998V23.9999ZM19.211 41.9273C19.9188 38.476 22.9389 36 26.441 36H26.8586C25.0903 37.8038 24 40.2745 24 43C24 43.6849 24.0689 44.3538 24.2 45H20.8462C19.677 45 18.8024 43.9198 19.0387 42.7675L19.211 41.9273Z" fill="#A5B7C0"/>
<path fill-rule="evenodd" clip-rule="evenodd" d="M28 43C28 39.6863 30.6863 37 34 37H36.5C37.3284 37 38 37.6716 38 38.5C38 39.3284 37.3284 40 36.5 40H34C32.3431 40 31 41.3431 31 43C31 44.6569 32.3431 46 34 46H36.5C37.3284 46 38 46.6716 38 47.5C38 48.3284 37.3284 49 36.5 49H34C30.6863 49 28 46.3137 28 43ZM51 43C51 39.6863 48.3137 37 45 37H42.5C41.6716 37 41 37.6716 41 38.5C41 39.3284 41.6716 40 42.5 40H45C46.6569 40 48 41.3431 48 43C48 44.6569 46.6569 46 45 46H42.5C41.6716 46 41 46.6716 41 47.5C41 48.3284 41.6716 49 42.5 49H45C48.3137 49 51 46.3137 51 43ZM36 41.5C35.1716 41.5 34.5 42.1716 34.5 43C34.5 43.8284 35.1716 44.5 36 44.5H43C43.8284 44.5 44.5 43.8284 44.5 43C44.5 42.1716 43.8284 41.5 43 41.5H36Z" fill="#E1E7EA"/>
</svg>
