<svg width="20" height="20" viewBox="0 0 20 20" fill="none" xmlns="http://www.w3.org/2000/svg">
<path fill-rule="evenodd" clip-rule="evenodd" d="M7 6C7 4.34315 8.34315 3 10 3C11.6569 3 13 4.34315 13 6V7C13 8.65685 11.6569 10 10 10C8.34315 10 7 8.65685 7 7V6ZM4.00733 15.266C4.29383 13.3888 5.93459 12 7.86598 12H9.72887C9.65763 12.1303 9.59325 12.2649 9.53617 12.4032C8.05996 12.4755 7 13.7693 7 15.2C7 15.4742 7.03895 15.7435 7.1123 16H4.65044C4.25286 16 3.94835 15.6525 4.00733 15.266ZM10.9295 12H12.134C12.6773 12 13.1975 12.1099 13.6711 12.3096C13.1396 12.5727 12.6974 12.9887 12.4017 13.5H12.25C11.0074 13.5 10 14.5074 10 15.75C10 15.7931 10.0012 15.836 10.0036 15.8787C10.0012 15.9189 10 15.9594 10 16H8.17324C8.06235 15.759 8 15.4874 8 15.2C8 14.2059 8.74619 13.4 9.66667 13.4H10.2778C10.3776 12.8689 10.6073 12.3888 10.9295 12Z" fill="#A5B7C0" class="primary"/>
<path fill-rule="evenodd" clip-rule="evenodd" d="M15.7222 13.4H16.3333C17.2538 13.4 18 14.2059 18 15.2C18 16.1941 17.2538 17 16.3333 17H13H9.66667C8.74619 17 8 16.1941 8 15.2C8 14.2059 8.74619 13.4 9.66667 13.4H10.2778C10.5352 12.0307 11.6561 11 13 11C14.3439 11 15.4648 12.0307 15.7222 13.4Z" fill="#E1E7EA" class="secondary"/>
</svg>
