<svg width="129" height="73" viewBox="0 0 129 73" fill="none" xmlns="http://www.w3.org/2000/svg">
<path d="M109.517 19.3186C108.302 19.3186 107.259 18.9103 106.389 18.0936C105.518 17.2769 105.082 16.2988 105.082 15.1593C105.082 14.0198 105.518 13.0417 106.389 12.225C107.259 11.4083 108.302 11 109.517 11C110.733 11 111.776 11.4083 112.646 12.225C113.517 13.0417 113.953 14.0198 113.953 15.1593C113.953 16.2988 113.517 17.2769 112.646 18.0936C111.776 18.9103 110.733 19.3186 109.517 19.3186ZM109.214 60V46.3826L102.652 40.7419L100.1 51.4535L92.5 59L90 56.5L97 49.5L101.194 26.3837L95.1183 29.0616V36.6965H91.473V26.7256L101.437 22.7942C102.733 22.2624 103.654 21.93 104.201 21.7971C104.748 21.6641 105.305 21.5977 105.872 21.5977C106.682 21.5977 107.401 21.7591 108.029 22.082C108.657 22.4048 109.193 22.8891 109.639 23.5349L112.191 27.3523C113.244 28.9477 114.682 30.3341 116.504 31.5116C118.327 32.6891 119.57 33.2779 122 33.2779V36.6965C119.286 36.6965 117.75 36.1078 115.623 34.9302C113.497 33.7527 111.522 31.9864 109.7 29.6314L107.33 38.6337L112.859 43.4198V60H109.214Z" fill="white"/>
<path fill-rule="evenodd" clip-rule="evenodd" d="M90.0228 4H84.2922V9.70001H83.2922V4V3H84.2922H90.0228V4ZM90.0228 69H84.2922V63.3H83.2922V69V70H84.2922H90.0228V69ZM120.311 70H126.041H127.041V69V63.3H126.041V69H120.311V70ZM120.311 4V3H126.041H127.041V4V9.70001H126.041V4H120.311Z" fill="white"/>
<path d="M89.5833 45.1687C89.5833 50.2083 85.4793 54.2937 80.4167 54.2937C75.3541 54.2937 71.25 50.2083 71.25 45.1687C71.25 40.1291 75.3541 36.0437 80.4167 36.0437C85.4793 36.0437 89.5833 40.1291 89.5833 45.1687ZM71.9806 45.1687C71.9806 49.8067 75.7575 53.5665 80.4167 53.5665C85.0758 53.5665 88.8528 49.8067 88.8528 45.1687C88.8528 40.5307 85.0758 36.7709 80.4167 36.7709C75.7575 36.7709 71.9806 40.5307 71.9806 45.1687Z" fill="#8B8D8F"/>
<ellipse cx="80.4165" cy="45.1688" rx="2.75" ry="2.7375" fill="white"/>
<path d="M77.1689 47.2152L64.2052 52.377L68.0943 54.3127L63.625 58.7618L65.2455 60.3748L69.7148 55.9258L71.9834 60.1199L77.1689 47.2152Z" fill="#171C1F" stroke="white"/>
<rect x="0.5" y="34.5" width="31" height="19" rx="1.5" stroke="white"/>
<path d="M12.4941 39.5767L9.43457 48H8.18408L11.707 38.7578H12.5132L12.4941 39.5767ZM15.0586 48L11.9927 39.5767L11.9736 38.7578H12.7798L16.3154 48H15.0586ZM14.8999 44.5786V45.5815H9.70752V44.5786H14.8999ZM18.6514 38.25V48H17.4707V38.25H18.6514ZM23.4121 41.1318V42.0332H19.6987V41.1318H23.4121ZM20.9556 39.4624H22.1299V46.2988C22.1299 46.5316 22.1659 46.7072 22.2378 46.8257C22.3097 46.9442 22.4028 47.0225 22.5171 47.0605C22.6313 47.0986 22.7541 47.1177 22.8853 47.1177C22.9826 47.1177 23.0841 47.1092 23.1899 47.0923C23.3 47.0711 23.3825 47.0542 23.4375 47.0415L23.4438 48C23.3507 48.0296 23.228 48.0571 23.0757 48.0825C22.9276 48.1121 22.7477 48.127 22.5361 48.127C22.2484 48.127 21.9839 48.0698 21.7427 47.9556C21.5015 47.8413 21.3089 47.6509 21.165 47.3843C21.0254 47.1134 20.9556 46.7495 20.9556 46.2925V39.4624Z" fill="white"/>
<line x1="50" y1="39" x2="50" y2="49" stroke="white" stroke-width="2"/>
<line x1="45" y1="44" x2="55" y2="44" stroke="white" stroke-width="2"/>
</svg>
