<svg width="202" height="75" viewBox="0 0 202 75" fill="none" xmlns="http://www.w3.org/2000/svg">
<path d="M36.567 40.2061C38.7577 40.2061 40.433 41.8814 40.433 44.0721V69.8453C40.433 72.0361 38.7577 73.7113 36.567 73.7113H5.63914C3.44842 73.7113 1.77316 72.0361 1.77316 69.8453V44.0721C1.77316 41.8814 3.44842 40.2061 5.63914 40.2061H36.567ZM36.567 38.9175H5.63914C2.80409 38.9175 0.484497 41.2371 0.484497 44.0721V69.8453C0.484497 72.6804 2.80409 75 5.63914 75H36.567C39.4021 75 41.7216 72.6804 41.7216 69.8453V44.0721C41.7216 41.2371 39.4021 38.9175 36.567 38.9175Z" fill="#E1E7EA"/>
<path d="M80.3815 40.2061C82.5722 40.2061 84.2474 41.8814 84.2474 44.0721V69.8453C84.2474 72.0361 82.5722 73.7113 80.3815 73.7113H49.4536C47.2629 73.7113 45.5876 72.0361 45.5876 69.8453V44.0721C45.5876 41.8814 47.2629 40.2061 49.4536 40.2061H80.3815ZM80.3815 38.9175H49.4536C46.6185 38.9175 44.299 41.2371 44.299 44.0721V69.8453C44.299 72.6804 46.6185 75 49.4536 75H80.3815C83.2165 75 85.5361 72.6804 85.5361 69.8453V44.0721C85.5361 41.2371 83.2165 38.9175 80.3815 38.9175Z" fill="#E1E7EA"/>
<path d="M80.3815 1.54635C82.5722 1.54635 84.2474 3.22161 84.2474 5.41233V31.1856C84.2474 33.3763 82.5722 35.0515 80.3815 35.0515H49.4536C47.2629 35.0515 45.5876 33.3763 45.5876 31.1856V5.41233C45.5876 3.22161 47.2629 1.54635 49.4536 1.54635H80.3815ZM80.3815 0.25769H49.4536C46.6185 0.25769 44.299 2.57728 44.299 5.41233V31.1856C44.299 34.0206 46.6185 36.3402 49.4536 36.3402H80.3815C83.2165 36.3402 85.5361 34.0206 85.5361 31.1856V5.41233C85.5361 2.57728 83.2165 0.25769 80.3815 0.25769Z" fill="#E1E7EA"/>
<path d="M196.361 39.9485C198.552 39.9485 200.227 41.6237 200.227 43.8144V69.5877C200.227 71.7784 198.552 73.4536 196.361 73.4536H165.433C163.242 73.4536 161.567 71.7784 161.567 69.5877V43.8144C161.567 41.6237 163.242 39.9485 165.433 39.9485H196.361ZM196.361 38.6598H165.433C162.598 38.6598 160.278 40.9794 160.278 43.8144V69.5877C160.278 72.4227 162.598 74.7423 165.433 74.7423H196.361C199.196 74.7423 201.516 72.4227 201.516 69.5877V43.8144C201.516 40.9794 199.196 38.6598 196.361 38.6598Z" fill="#E1E7EA"/>
<path d="M196.361 1.28866C198.552 1.28866 200.227 2.96392 200.227 5.15464V30.9279C200.227 33.1186 198.552 34.7938 196.361 34.7938H165.433C163.242 34.7938 161.567 33.1186 161.567 30.9279V5.15464C161.567 2.96392 163.242 1.28866 165.433 1.28866H196.361ZM196.361 0H165.433C162.598 0 160.278 2.31959 160.278 5.15464V30.9279C160.278 33.7629 162.598 36.0825 165.433 36.0825H196.361C199.196 36.0825 201.516 33.7629 201.516 30.9279V5.15464C201.516 2.31959 199.196 0 196.361 0Z" fill="#E1E7EA"/>
<path d="M124.196 40.2061C126.387 40.2061 128.062 41.8814 128.062 44.0721V69.8453C128.062 72.0361 126.387 73.7113 124.196 73.7113H93.2681C91.0774 73.7113 89.4021 72.0361 89.4021 69.8453V44.0721C89.4021 41.8814 91.0774 40.2061 93.2681 40.2061H124.196ZM124.196 38.9175H93.2681C90.4331 38.9175 88.1135 41.2371 88.1135 44.0721V69.8453C88.1135 72.6804 90.4331 75 93.2681 75H124.196C127.031 75 129.351 72.6804 129.351 69.8453V44.0721C129.351 41.2371 127.031 38.9175 124.196 38.9175Z" fill="#E1E7EA"/>
<path d="M70.0722 20.6186H59.7629L64.9175 15.464L70.0722 20.6186Z" fill="#E1E7EA"/>
<path d="M59.7629 55.4125H70.0722L64.9175 60.5671L59.7629 55.4125Z" fill="#E1E7EA"/>
<path d="M107.443 61.8557V51.5464L112.598 56.701L107.443 61.8557Z" fill="#E1E7EA"/>
<path d="M22.3917 51.5464V61.8557L17.2371 56.701L22.3917 51.5464Z" fill="#E1E7EA"/>
<path d="M187.34 16.7526H174.454V19.3299H187.34V16.7526Z" fill="#E1E7EA"/>
<path d="M179.608 11.598V24.4846H182.186V11.598H179.608Z" fill="#E1E7EA"/>
<path d="M187.34 55.4125H174.454V57.9898H187.34V55.4125Z" fill="#E1E7EA"/>
</svg>
