<svg width="129" height="78" viewBox="0 0 129 78" fill="none" xmlns="http://www.w3.org/2000/svg">
<path d="M1 58.6923C1 13.6099 22.0165 1 64.4615 1C106.907 1 127.923 13.6099 127.923 58.6923" stroke="#E1E7EA" stroke-miterlimit="10" stroke-linecap="round"/>
<path d="M64.4614 8.4176V20.7802" stroke="#E1E7EA" stroke-width="2" stroke-miterlimit="10" stroke-linecap="round"/>
<path d="M64.4616 58.6923C61.2473 58.6923 58.6924 56.1373 58.6924 52.923V31.4945C58.6924 28.2802 61.2473 25.7252 64.4616 25.7252C67.6759 25.7252 70.2308 28.2802 70.2308 31.4945V52.923C70.2308 56.1373 67.6759 58.6923 64.4616 58.6923Z" stroke="#E1E7EA" stroke-width="2" stroke-miterlimit="10" stroke-linecap="round"/>
<path d="M59.1045 13.7747L64.4616 8.4176L69.8188 13.7747" stroke="#E1E7EA" stroke-width="2" stroke-miterlimit="10" stroke-linecap="round"/>
<path d="M64.4614 8.4176V20.7802" stroke="#E1E7EA" stroke-width="2" stroke-miterlimit="10" stroke-linecap="round"/>
<path d="M59.1045 13.7747L64.4616 8.4176L69.8188 13.7747" stroke="#E1E7EA" stroke-width="2" stroke-miterlimit="10" stroke-linecap="round"/>
<path d="M64.4614 76V63.6373" stroke="#E1E7EA" stroke-width="2" stroke-miterlimit="10" stroke-linecap="round"/>
<path d="M69.8188 70.6428L64.4616 76L59.1045 70.6428" stroke="#E1E7EA" stroke-width="2" stroke-miterlimit="10" stroke-linecap="round"/>
<path d="M64.4614 76V63.6373" stroke="#E1E7EA" stroke-width="2" stroke-miterlimit="10" stroke-linecap="round"/>
<path d="M69.8188 70.6428L64.4616 76L59.1045 70.6428" stroke="#E1E7EA" stroke-width="2" stroke-miterlimit="10" stroke-linecap="round"/>
</svg>
