<svg width="108" height="73" viewBox="0 0 108 73" fill="none" xmlns="http://www.w3.org/2000/svg">
<path d="M106.893 0.869048V72.131H0.869048V0.869048H106.893ZM107.762 0H0V73H107.762V0Z" fill="#E1E7EA"/>
<g opacity="0.6">
<path d="M53.8808 30.4167C57.2701 30.4167 59.9642 33.1107 59.9642 36.5C59.9642 39.8893 57.2701 42.5833 53.8808 42.5833C50.4916 42.5833 47.7975 39.8893 47.7975 36.5C47.7975 33.1107 50.4916 30.4167 53.8808 30.4167ZM53.8808 29.5476C50.057 29.5476 46.9285 32.6762 46.9285 36.5C46.9285 40.3238 50.057 43.4524 53.8808 43.4524C57.7047 43.4524 60.8332 40.3238 60.8332 36.5C60.8332 32.6762 57.7047 29.5476 53.8808 29.5476Z" fill="#E1E7EA"/>
</g>
<path d="M53.8811 39.1071C55.321 39.1071 56.4882 37.9399 56.4882 36.5C56.4882 35.0601 55.321 33.8928 53.8811 33.8928C52.4412 33.8928 51.2739 35.0601 51.2739 36.5C51.2739 37.9399 52.4412 39.1071 53.8811 39.1071Z" fill="#E1E7EA"/>
<path opacity="0.6" d="M50.4048 26.506H57.3572" stroke="#E1E7EA" stroke-miterlimit="10" stroke-linecap="round"/>
<path opacity="0.6" d="M50.4048 22.1608H57.3572" stroke="#E1E7EA" stroke-miterlimit="10" stroke-linecap="round"/>
<path opacity="0.6" d="M50.4048 17.8154H57.3572" stroke="#E1E7EA" stroke-miterlimit="10" stroke-linecap="round"/>
<path opacity="0.6" d="M50.4048 13.4702H57.3572" stroke="#E1E7EA" stroke-miterlimit="10" stroke-linecap="round"/>
<path opacity="0.6" d="M50.4048 9.125H57.3572" stroke="#E1E7EA" stroke-miterlimit="10" stroke-linecap="round"/>
<path opacity="0.6" d="M50.4048 4.77979H57.3572" stroke="#E1E7EA" stroke-miterlimit="10" stroke-linecap="round"/>
<path opacity="0.6" d="M50.4048 63.875H57.3572" stroke="#E1E7EA" stroke-miterlimit="10" stroke-linecap="round"/>
<path opacity="0.6" d="M50.4048 68.2202H57.3572" stroke="#E1E7EA" stroke-miterlimit="10" stroke-linecap="round"/>
<path opacity="0.6" d="M50.4048 59.5298H57.3572" stroke="#E1E7EA" stroke-miterlimit="10" stroke-linecap="round"/>
<path opacity="0.6" d="M50.4048 55.1846H57.3572" stroke="#E1E7EA" stroke-miterlimit="10" stroke-linecap="round"/>
<path opacity="0.6" d="M50.4048 50.8392H57.3572" stroke="#E1E7EA" stroke-miterlimit="10" stroke-linecap="round"/>
<path opacity="0.6" d="M50.4048 46.494H57.3572" stroke="#E1E7EA" stroke-miterlimit="10" stroke-linecap="round"/>
<path opacity="0.6" d="M43.887 39.9762V33.0238" stroke="#E1E7EA" stroke-miterlimit="10" stroke-linecap="round"/>
<path opacity="0.6" d="M39.5417 39.9762V33.0238" stroke="#E1E7EA" stroke-miterlimit="10" stroke-linecap="round"/>
<path opacity="0.6" d="M35.1965 39.9762V33.0238" stroke="#E1E7EA" stroke-miterlimit="10" stroke-linecap="round"/>
<path opacity="0.6" d="M30.8511 39.9762V33.0238" stroke="#E1E7EA" stroke-miterlimit="10" stroke-linecap="round"/>
<path opacity="0.6" d="M26.5059 39.9762V33.0238" stroke="#E1E7EA" stroke-miterlimit="10" stroke-linecap="round"/>
<path opacity="0.6" d="M22.1606 39.9762V33.0238" stroke="#E1E7EA" stroke-miterlimit="10" stroke-linecap="round"/>
<path opacity="0.6" d="M81.2559 39.9762V33.0238" stroke="#E1E7EA" stroke-miterlimit="10" stroke-linecap="round"/>
<path opacity="0.6" d="M85.6011 39.9762V33.0238" stroke="#E1E7EA" stroke-miterlimit="10" stroke-linecap="round"/>
<path opacity="0.6" d="M76.9106 39.9762V33.0238" stroke="#E1E7EA" stroke-miterlimit="10" stroke-linecap="round"/>
<path opacity="0.6" d="M72.5654 39.9762V33.0238" stroke="#E1E7EA" stroke-miterlimit="10" stroke-linecap="round"/>
<path opacity="0.6" d="M98.637 39.9762V33.0238" stroke="#E1E7EA" stroke-miterlimit="10" stroke-linecap="round"/>
<path opacity="0.6" d="M102.982 39.9762V33.0238" stroke="#E1E7EA" stroke-miterlimit="10" stroke-linecap="round"/>
<path opacity="0.6" d="M94.2917 39.9762V33.0238" stroke="#E1E7EA" stroke-miterlimit="10" stroke-linecap="round"/>
<path opacity="0.6" d="M89.9465 39.9762V33.0238" stroke="#E1E7EA" stroke-miterlimit="10" stroke-linecap="round"/>
<path opacity="0.6" d="M68.2202 39.9762V33.0238" stroke="#E1E7EA" stroke-miterlimit="10" stroke-linecap="round"/>
<path opacity="0.6" d="M63.875 39.9762V33.0238" stroke="#E1E7EA" stroke-miterlimit="10" stroke-linecap="round"/>
<path opacity="0.6" d="M17.8154 39.9762V33.0238" stroke="#E1E7EA" stroke-miterlimit="10" stroke-linecap="round"/>
<path opacity="0.6" d="M13.4702 39.9762V33.0238" stroke="#E1E7EA" stroke-miterlimit="10" stroke-linecap="round"/>
<path opacity="0.6" d="M9.125 39.9762V33.0238" stroke="#E1E7EA" stroke-miterlimit="10" stroke-linecap="round"/>
<path opacity="0.6" d="M4.77979 39.9762V33.0238" stroke="#E1E7EA" stroke-miterlimit="10" stroke-linecap="round"/>
</svg>
