<?xml version="1.0" encoding="utf-8"?>
<!-- Generator: Adobe Illustrator 24.2.3, SVG Export Plug-In . SVG Version: 6.00 Build 0)  -->
<svg version="1.1" id="Layer_1" xmlns="http://www.w3.org/2000/svg" xmlns:xlink="http://www.w3.org/1999/xlink" x="0px" y="0px"
	 viewBox="0 0 240 120" style="enable-background:new 0 0 240 120;" xml:space="preserve">
<style type="text/css">
	.st0{fill:#E1E7EA;}
</style>
<g>
	<path class="st0" d="M70,62.2c1.7,0,3,1.3,3,3v20c0,1.7-1.3,3-3,3H46c-1.7,0-3-1.3-3-3v-20c0-1.7,1.3-3,3-3H70 M70,61.2H46
		c-2.2,0-4,1.8-4,4v20c0,2.2,1.8,4,4,4h24c2.2,0,4-1.8,4-4v-20C74,63,72.2,61.2,70,61.2L70,61.2z"/>
</g>
<g>
	<path class="st0" d="M104,62.2c1.7,0,3,1.3,3,3v20c0,1.7-1.3,3-3,3H80c-1.7,0-3-1.3-3-3v-20c0-1.7,1.3-3,3-3H104 M104,61.2H80
		c-2.2,0-4,1.8-4,4v20c0,2.2,1.8,4,4,4h24c2.2,0,4-1.8,4-4v-20C108,63,106.2,61.2,104,61.2L104,61.2z"/>
</g>
<g>
	<path class="st0" d="M104,32.2c1.7,0,3,1.3,3,3v20c0,1.7-1.3,3-3,3H80c-1.7,0-3-1.3-3-3v-20c0-1.7,1.3-3,3-3H104 M104,31.2H80
		c-2.2,0-4,1.8-4,4v20c0,2.2,1.8,4,4,4h24c2.2,0,4-1.8,4-4v-20C108,33,106.2,31.2,104,31.2L104,31.2z"/>
</g>
<g>
	<path class="st0" d="M194,62c1.7,0,3,1.3,3,3v20c0,1.7-1.3,3-3,3h-24c-1.7,0-3-1.3-3-3V65c0-1.7,1.3-3,3-3H194 M194,61h-24
		c-2.2,0-4,1.8-4,4v20c0,2.2,1.8,4,4,4h24c2.2,0,4-1.8,4-4V65C198,62.8,196.2,61,194,61L194,61z"/>
</g>
<g>
	<path class="st0" d="M194,32c1.7,0,3,1.3,3,3v20c0,1.7-1.3,3-3,3h-24c-1.7,0-3-1.3-3-3V35c0-1.7,1.3-3,3-3H194 M194,31h-24
		c-2.2,0-4,1.8-4,4v20c0,2.2,1.8,4,4,4h24c2.2,0,4-1.8,4-4V35C198,32.8,196.2,31,194,31L194,31z"/>
</g>
<g>
	<path class="st0" d="M138,62.2c1.7,0,3,1.3,3,3v20c0,1.7-1.3,3-3,3h-24c-1.7,0-3-1.3-3-3v-20c0-1.7,1.3-3,3-3H138 M138,61.2h-24
		c-2.2,0-4,1.8-4,4v20c0,2.2,1.8,4,4,4h24c2.2,0,4-1.8,4-4v-20C142,63,140.2,61.2,138,61.2L138,61.2z"/>
</g>
<polygon class="st0" points="96,47 88,47 92,43 "/>
<polygon class="st0" points="88,74 96,74 92,78 "/>
<polygon class="st0" points="125,79 125,71 129,75 "/>
<polygon class="st0" points="59,71 59,79 55,75 "/>
<rect x="177" y="44" class="st0" width="10" height="2"/>
<rect x="177" y="44" transform="matrix(6.123234e-17 -1 1 6.123234e-17 137 227)" class="st0" width="10" height="2"/>
<rect x="177" y="74" class="st0" width="10" height="2"/>
</svg>
