<svg width="200" height="75" viewBox="0 0 200 75" fill="none" xmlns="http://www.w3.org/2000/svg">
<path d="M16.5385 74C22.911 74 28.0769 68.8341 28.0769 62.4616C28.0769 56.089 22.911 50.9231 16.5385 50.9231C10.1659 50.9231 5 56.089 5 62.4616C5 68.8341 10.1659 74 16.5385 74Z" stroke="#E1E7EA" stroke-width="2" stroke-miterlimit="10"/>
<g opacity="0.6">
<path d="M125.692 22.7694L136.423 28.8848L130.308 39.6155L128.923 34.7694L128.577 33.6155L127.423 33.9617L17.3462 64.654L16.4231 64.0771L15.6154 61.5386L16.4231 60.2694L126.5 29.8078L127.654 29.4617L127.308 28.3078L125.692 22.7694ZM123.846 20.4617L126.038 28.5386L15.5 59.1155L14.2308 61.3078L15.3846 64.7694L17.1154 65.9232L127.885 35.2309L129.962 42.7309L138.038 28.5386L123.846 20.4617Z" fill="#E1E7EA"/>
</g>
<path d="M195.538 13.8462L190.923 9.23077V12.6923H182.846V4.61538H186.308L181.692 0L177.077 4.61538H180.538V12.6923H172.462V9.23077L167.846 13.8462L172.462 18.4615V15H180.538V23.0769H177.077L181.692 27.6923L186.308 23.0769H182.846V15H190.923V18.4615L195.538 13.8462Z" fill="#E1E7EA"/>
<path d="M16.5384 65.9231C18.4502 65.9231 20 64.3733 20 62.4615C20 60.5498 18.4502 59 16.5384 59C14.6267 59 13.0769 60.5498 13.0769 62.4615C13.0769 64.3733 14.6267 65.9231 16.5384 65.9231Z" fill="#E1E7EA"/>
</svg>
