<svg width="156" height="59" viewBox="0 0 156 59" fill="none" xmlns="http://www.w3.org/2000/svg">
<path d="M28 31.2C29.7 31.2 31 32.4999 31 34.1999V54.1999C31 55.8999 29.7 57.1999 28 57.1999H4C2.3 57.1999 1 55.8999 1 54.1999V34.1999C1 32.4999 2.3 31.2 4 31.2H28ZM28 30.2H4C1.8 30.2 0 31.9999 0 34.1999V54.1999C0 56.3999 1.8 58.1999 4 58.1999H28C30.2 58.1999 32 56.3999 32 54.1999V34.1999C32 31.9999 30.2 30.2 28 30.2Z" fill="#E1E7EA"/>
<path d="M62 31.2C63.7 31.2 65 32.4999 65 34.1999V54.1999C65 55.8999 63.7 57.1999 62 57.1999H38C36.3 57.1999 35 55.8999 35 54.1999V34.1999C35 32.4999 36.3 31.2 38 31.2H62ZM62 30.2H38C35.8 30.2 34 31.9999 34 34.1999V54.1999C34 56.3999 35.8 58.1999 38 58.1999H62C64.2 58.1999 66 56.3999 66 54.1999V34.1999C66 31.9999 64.2 30.2 62 30.2Z" fill="#E1E7EA"/>
<path d="M62 1.19995C63.7 1.19995 65 2.49995 65 4.19995V24.2C65 25.9 63.7 27.2 62 27.2H38C36.3 27.2 35 25.9 35 24.2V4.19995C35 2.49995 36.3 1.19995 38 1.19995H62ZM62 0.199951H38C35.8 0.199951 34 1.99995 34 4.19995V24.2C34 26.4 35.8 28.2 38 28.2H62C64.2 28.2 66 26.4 66 24.2V4.19995C66 1.99995 64.2 0.199951 62 0.199951Z" fill="#E1E7EA"/>
<path d="M152 31C153.7 31 155 32.3 155 34V54C155 55.7 153.7 57 152 57H128C126.3 57 125 55.7 125 54V34C125 32.3 126.3 31 128 31H152ZM152 30H128C125.8 30 124 31.8 124 34V54C124 56.2 125.8 58 128 58H152C154.2 58 156 56.2 156 54V34C156 31.8 154.2 30 152 30Z" fill="#E1E7EA"/>
<path d="M152 1C153.7 1 155 2.3 155 4V24C155 25.7 153.7 27 152 27H128C126.3 27 125 25.7 125 24V4C125 2.3 126.3 1 128 1H152ZM152 0H128C125.8 0 124 1.8 124 4V24C124 26.2 125.8 28 128 28H152C154.2 28 156 26.2 156 24V4C156 1.8 154.2 0 152 0Z" fill="#E1E7EA"/>
<path d="M96 31.2C97.7 31.2 99 32.4999 99 34.1999V54.1999C99 55.8999 97.7 57.1999 96 57.1999H72C70.3 57.1999 69 55.8999 69 54.1999V34.1999C69 32.4999 70.3 31.2 72 31.2H96ZM96 30.2H72C69.8 30.2 68 31.9999 68 34.1999V54.1999C68 56.3999 69.8 58.1999 72 58.1999H96C98.2 58.1999 100 56.3999 100 54.1999V34.1999C100 31.9999 98.2 30.2 96 30.2Z" fill="#E1E7EA"/>
<path d="M54 16H46L50 12L54 16Z" fill="#E1E7EA"/>
<path d="M46 43H54L50 47L46 43Z" fill="#E1E7EA"/>
<path d="M83 48V40L87 44L83 48Z" fill="#E1E7EA"/>
<path d="M17 40V48L13 44L17 40Z" fill="#E1E7EA"/>
<path d="M145 13H135V15H145V13Z" fill="#E1E7EA"/>
<path d="M139 9V19H141V9H139Z" fill="#E1E7EA"/>
<path d="M145 43H135V45H145V43Z" fill="#E1E7EA"/>
</svg>
