<?xml version="1.0" encoding="utf-8"?>
<!-- Generator: Adobe Illustrator 24.2.3, SVG Export Plug-In . SVG Version: 6.00 Build 0)  -->
<svg version="1.1" id="Layer_1" xmlns="http://www.w3.org/2000/svg" xmlns:xlink="http://www.w3.org/1999/xlink" x="0px" y="0px"
	 viewBox="0 0 240 120" style="enable-background:new 0 0 240 120;" xml:space="preserve">
<style type="text/css">
	.st0{fill:none;stroke:#E1E7EA;stroke-linecap:round;stroke-miterlimit:10;}
	.st1{fill:none;stroke:#E1E7EA;stroke-width:2;stroke-linecap:round;stroke-miterlimit:10;}
</style>
<path class="st0" d="M43,86c0-54.7,25.5-70,77-70l0,0c51.5,0,77,15.3,77,70"/>
<line class="st1" x1="120" y1="25" x2="120" y2="40"/>
<path class="st1" d="M120,86L120,86c-3.9,0-7-3.1-7-7V53c0-3.9,3.1-7,7-7h0c3.9,0,7,3.1,7,7v26C127,82.9,123.9,86,120,86z"/>
<polyline class="st1" points="113.5,31.5 120,25 126.5,31.5 "/>
<line class="st1" x1="120" y1="25" x2="120" y2="40"/>
<polyline class="st1" points="113.5,31.5 120,25 126.5,31.5 "/>
<line class="st1" x1="120" y1="107" x2="120" y2="92"/>
<polyline class="st1" points="126.5,100.5 120,107 113.5,100.5 "/>
<line class="st1" x1="120" y1="107" x2="120" y2="92"/>
<polyline class="st1" points="126.5,100.5 120,107 113.5,100.5 "/>
</svg>
