<svg width="200" height="76" viewBox="0 0 200 76" fill="none" xmlns="http://www.w3.org/2000/svg">
<rect x="50.5" y="0.5" width="99" height="57" stroke="white" stroke-opacity="0.5"/>
<line x1="50" y1="1" x2="62" y2="1" stroke="#E1E7EA" stroke-width="2"/>
<line x1="51" y1="58" x2="51" y2="46" stroke="#E1E7EA" stroke-width="2"/>
<line y1="-1" x2="12" y2="-1" transform="matrix(4.37114e-08 -1 -1 -4.37114e-08 148 58)" stroke="#E1E7EA" stroke-width="2"/>
<line y1="-1" x2="12" y2="-1" transform="matrix(-1 0 0 1 150 2)" stroke="#E1E7EA" stroke-width="2"/>
<line x1="51" y1="4.37114e-08" x2="51" y2="12" stroke="#E1E7EA" stroke-width="2"/>
<line x1="50" y1="57" x2="62" y2="57" stroke="#E1E7EA" stroke-width="2"/>
<line y1="-1" x2="12" y2="-1" transform="matrix(-1 0 0 1 150 58)" stroke="#E1E7EA" stroke-width="2"/>
<line y1="-1" x2="12" y2="-1" transform="matrix(4.37114e-08 1 1 -4.37114e-08 150 0)" stroke="#E1E7EA" stroke-width="2"/>
<path d="M150.889 58.8714L163.853 64.0333L159.964 65.969L164.433 70.418L162.812 72.0311L158.343 67.5821L156.074 71.7761L150.889 58.8714Z" fill="#171C1F" stroke="#E1E7EA"/>
</svg>
