<svg width="156" height="75" viewBox="0 0 156 75" fill="none" xmlns="http://www.w3.org/2000/svg">
<path d="M137.831 15.9706C136.308 15.9706 135.002 15.4589 133.91 14.4356C132.819 13.4123 132.274 12.1867 132.274 10.7587C132.274 9.33083 132.819 8.10521 133.91 7.08188C135.002 6.05854 136.308 5.54688 137.831 5.54688C139.354 5.54688 140.661 6.05854 141.752 7.08188C142.843 8.10521 143.389 9.33083 143.389 10.7587C143.389 12.1867 142.843 13.4123 141.752 14.4356C140.661 15.4589 139.354 15.9706 137.831 15.9706ZM137.45 66.947V49.8835L129.228 42.8153L126.031 56.2376L116.507 65.6939L113.375 62.5612L122.146 53.7898L127.401 24.8236L119.788 28.1792V37.7462H115.22V25.252L127.706 20.3257C129.33 19.6594 130.484 19.2429 131.17 19.0763C131.855 18.9097 132.553 18.8264 133.263 18.8264C134.278 18.8264 135.179 19.0287 135.966 19.4333C136.753 19.8379 137.425 20.4447 137.983 21.2539L141.181 26.0374C142.5 28.0364 144.302 29.7737 146.586 31.2492C148.87 32.7247 150.427 33.4625 153.473 33.4625V37.7462C150.072 37.7462 148.147 37.0085 145.482 35.533C142.818 34.0575 140.343 31.8442 138.059 28.8932L135.09 40.1737L142.018 46.1709V66.947H137.45Z" fill="#E1E7EA"/>
<path fill-rule="evenodd" clip-rule="evenodd" d="M113.963 1H107.428V7.50001H106.428V1V0H107.428H113.963V1ZM113.963 74H107.428V67.5H106.428V74V75H107.428H113.963V74ZM147.867 75H154.401H155.401V74V67.5H154.401V74H147.867V75ZM147.867 1V0H154.401H155.401V1V7.50001H154.401V1H147.867Z" fill="#E1E7EA"/>
<path d="M113.471 47.2038C113.471 52.8452 108.877 57.4184 103.209 57.4184C97.5423 57.4184 92.9482 52.8452 92.9482 47.2038C92.9482 41.5625 97.5423 36.9893 103.209 36.9893C108.877 36.9893 113.471 41.5625 113.471 47.2038ZM93.766 47.2038C93.766 52.3956 97.994 56.6043 103.209 56.6043C108.425 56.6043 112.653 52.3956 112.653 47.2038C112.653 42.0121 108.425 37.8033 103.209 37.8033C97.994 37.8033 93.766 42.0121 93.766 47.2038Z" fill="#8B8D8F"/>
<ellipse cx="103.209" cy="47.2039" rx="3.07836" ry="3.06437" fill="#E1E7EA"/>
<path d="M99.5739 49.4946L85.0624 55.2728L89.4159 57.4396L84.4129 62.4199L86.2268 64.2255L91.2298 59.2453L93.7693 63.9401L99.5739 49.4946Z" fill="#171C1F" stroke="#E1E7EA"/>
<path d="M17.1421 42.4747L14.0825 50.8981H12.832L16.355 41.6559H17.1611L17.1421 42.4747ZM19.7065 50.8981L16.6406 42.4747L16.6216 41.6559H17.4277L20.9634 50.8981H19.7065ZM19.5479 47.4767V48.4796H14.3555V47.4767H19.5479ZM23.2993 41.1481V50.8981H22.1187V41.1481H23.2993ZM28.0601 44.0299V44.9313H24.3467V44.0299H28.0601ZM25.6035 42.3605H26.7778V49.1969C26.7778 49.4296 26.8138 49.6053 26.8857 49.7238C26.9577 49.8422 27.0508 49.9205 27.165 49.9586C27.2793 49.9967 27.402 50.0157 27.5332 50.0157C27.6305 50.0157 27.7321 50.0073 27.8379 49.9904C27.9479 49.9692 28.0304 49.9523 28.0854 49.9396L28.0918 50.8981C27.9987 50.9277 27.876 50.9552 27.7236 50.9806C27.5755 51.0102 27.3957 51.025 27.1841 51.025C26.8963 51.025 26.6318 50.9679 26.3906 50.8536C26.1494 50.7394 25.9569 50.549 25.813 50.2823C25.6733 50.0115 25.6035 49.6476 25.6035 49.1906V42.3605Z" fill="#E1E7EA"/>
<rect x="1.09888" y="34.8674" width="39.098" height="24.0613" rx="1.5" stroke="#E1E7EA"/>
<line x1="62.4641" y1="40.6326" x2="62.4641" y2="51.8266" stroke="#E1E7EA" stroke-width="2"/>
<line x1="56.9866" y1="46.349" x2="68.1806" y2="46.349" stroke="#E1E7EA" stroke-width="2"/>
</svg>
