<?xml version="1.0" encoding="utf-8"?>
<!-- Generator: Adobe Illustrator 24.2.3, SVG Export Plug-In . SVG Version: 6.00 Build 0)  -->
<svg version="1.1" id="Layer_1" xmlns="http://www.w3.org/2000/svg" xmlns:xlink="http://www.w3.org/1999/xlink" x="0px" y="0px"
	 viewBox="0 0 240 120" style="enable-background:new 0 0 240 120;" xml:space="preserve">
<style type="text/css">
	.st0{fill:#E1E7EA;}
	.st1{opacity:0.6;}
	.st2{opacity:0.6;fill:none;stroke:#E1E7EA;stroke-linecap:round;stroke-miterlimit:10;}
</style>
<g>
	<path class="st0" d="M181,19v82H59V19H181 M182,18H58v84h124V18L182,18z"/>
</g>
<g class="st1">
	<path class="st0" d="M120,53c3.9,0,7,3.1,7,7s-3.1,7-7,7s-7-3.1-7-7S116.1,53,120,53 M120,52c-4.4,0-8,3.6-8,8s3.6,8,8,8s8-3.6,8-8
		S124.4,52,120,52L120,52z"/>
</g>
<circle class="st0" cx="120" cy="60" r="3"/>
<line class="st2" x1="116" y1="48.5" x2="124" y2="48.5"/>
<line class="st2" x1="116" y1="43.5" x2="124" y2="43.5"/>
<line class="st2" x1="116" y1="38.5" x2="124" y2="38.5"/>
<line class="st2" x1="116" y1="33.5" x2="124" y2="33.5"/>
<line class="st2" x1="116" y1="28.5" x2="124" y2="28.5"/>
<line class="st2" x1="116" y1="23.5" x2="124" y2="23.5"/>
<line class="st2" x1="116" y1="91.5" x2="124" y2="91.5"/>
<line class="st2" x1="116" y1="96.5" x2="124" y2="96.5"/>
<line class="st2" x1="116" y1="86.5" x2="124" y2="86.5"/>
<line class="st2" x1="116" y1="81.5" x2="124" y2="81.5"/>
<line class="st2" x1="116" y1="76.5" x2="124" y2="76.5"/>
<line class="st2" x1="116" y1="71.5" x2="124" y2="71.5"/>
<line class="st2" x1="108.5" y1="64" x2="108.5" y2="56"/>
<line class="st2" x1="103.5" y1="64" x2="103.5" y2="56"/>
<line class="st2" x1="98.5" y1="64" x2="98.5" y2="56"/>
<line class="st2" x1="93.5" y1="64" x2="93.5" y2="56"/>
<line class="st2" x1="88.5" y1="64" x2="88.5" y2="56"/>
<line class="st2" x1="83.5" y1="64" x2="83.5" y2="56"/>
<line class="st2" x1="151.5" y1="64" x2="151.5" y2="56"/>
<line class="st2" x1="156.5" y1="64" x2="156.5" y2="56"/>
<line class="st2" x1="146.5" y1="64" x2="146.5" y2="56"/>
<line class="st2" x1="141.5" y1="64" x2="141.5" y2="56"/>
<line class="st2" x1="171.5" y1="64" x2="171.5" y2="56"/>
<line class="st2" x1="176.5" y1="64" x2="176.5" y2="56"/>
<line class="st2" x1="166.5" y1="64" x2="166.5" y2="56"/>
<line class="st2" x1="161.5" y1="64" x2="161.5" y2="56"/>
<line class="st2" x1="136.5" y1="64" x2="136.5" y2="56"/>
<line class="st2" x1="131.5" y1="64" x2="131.5" y2="56"/>
<line class="st2" x1="78.5" y1="64" x2="78.5" y2="56"/>
<line class="st2" x1="73.5" y1="64" x2="73.5" y2="56"/>
<line class="st2" x1="68.5" y1="64" x2="68.5" y2="56"/>
<line class="st2" x1="63.5" y1="64" x2="63.5" y2="56"/>
</svg>
