<svg width="128" height="78" viewBox="0 0 128 78" fill="none" xmlns="http://www.w3.org/2000/svg">
<path d="M0.538452 58.6923C0.538452 13.6099 21.5549 1 64 1C106.445 1 127.462 13.6099 127.462 58.6923" stroke="#E1E7EA" stroke-miterlimit="10" stroke-linecap="round"/>
<path d="M64 8.4176V20.7802" stroke="#E1E7EA" stroke-width="2" stroke-miterlimit="10" stroke-linecap="round"/>
<path d="M63.9999 58.6923C60.7857 58.6923 58.2307 56.1373 58.2307 52.923V31.4945C58.2307 28.2802 60.7857 25.7252 63.9999 25.7252C67.2142 25.7252 69.7692 28.2802 69.7692 31.4945V52.923C69.7692 56.1373 67.2142 58.6923 63.9999 58.6923Z" stroke="#E1E7EA" stroke-width="2" stroke-miterlimit="10" stroke-linecap="round"/>
<path d="M58.6428 13.7747L64 8.4176L69.3571 13.7747" stroke="#E1E7EA" stroke-width="2" stroke-miterlimit="10" stroke-linecap="round"/>
<path d="M64 8.4176V20.7802" stroke="#E1E7EA" stroke-width="2" stroke-miterlimit="10" stroke-linecap="round"/>
<path d="M58.6428 13.7747L64 8.4176L69.3571 13.7747" stroke="#E1E7EA" stroke-width="2" stroke-miterlimit="10" stroke-linecap="round"/>
<path d="M64 76V63.6373" stroke="#E1E7EA" stroke-width="2" stroke-miterlimit="10" stroke-linecap="round"/>
<path d="M69.3571 70.6428L64 76L58.6428 70.6428" stroke="#E1E7EA" stroke-width="2" stroke-miterlimit="10" stroke-linecap="round"/>
<path d="M64 76V63.6373" stroke="#E1E7EA" stroke-width="2" stroke-miterlimit="10" stroke-linecap="round"/>
<path d="M69.3571 70.6428L64 76L58.6428 70.6428" stroke="#E1E7EA" stroke-width="2" stroke-miterlimit="10" stroke-linecap="round"/>
</svg>
