<svg width="200" height="75" viewBox="0 0 200 75" fill="none" xmlns="http://www.w3.org/2000/svg">
<path d="M160.232 15.9706C158.71 15.9706 157.403 15.4589 156.311 14.4356C155.22 13.4123 154.675 12.1867 154.675 10.7587C154.675 9.33083 155.22 8.10521 156.311 7.08188C157.403 6.05854 158.71 5.54688 160.232 5.54688C161.755 5.54688 163.062 6.05854 164.153 7.08188C165.244 8.10521 165.79 9.33083 165.79 10.7587C165.79 12.1867 165.244 13.4123 164.153 14.4356C163.062 15.4589 161.755 15.9706 160.232 15.9706ZM159.852 66.947V49.8834L151.629 42.8153L148.432 56.2376L138.908 65.6939L135.776 62.5612L144.547 53.7898L149.802 24.8236L142.189 28.1792V37.7462H137.621V25.252L150.107 20.3257C151.731 19.6594 152.886 19.2429 153.571 19.0763C154.256 18.9097 154.954 18.8264 155.664 18.8264C156.679 18.8264 157.58 19.0287 158.367 19.4333C159.154 19.8379 159.826 20.4447 160.384 21.2539L163.582 26.0374C164.902 28.0364 166.703 29.7737 168.987 31.2492C171.271 32.7247 172.828 33.4625 175.874 33.4625V37.7462C172.473 37.7462 170.548 37.0085 167.883 35.533C165.219 34.0575 162.745 31.8442 160.461 28.8932L157.492 40.1737L164.419 46.1709V66.947H159.852Z" fill="#E1E7EA"/>
<path fill-rule="evenodd" clip-rule="evenodd" d="M136.364 1H129.83V7.50001H128.83V1V0H129.83H136.364V1ZM136.364 74H129.83V67.5H128.83V74V75H129.83H136.364V74ZM170.268 75H176.802H177.802V74V67.5H176.802V74H170.268V75ZM170.268 1V0H176.802H177.802V1V7.50001H176.802V1H170.268Z" fill="#E1E7EA"/>
<path d="M135.872 47.2038C135.872 52.8452 131.278 57.4184 125.611 57.4184C119.943 57.4184 115.349 52.8452 115.349 47.2038C115.349 41.5625 119.943 36.9893 125.611 36.9893C131.278 36.9893 135.872 41.5625 135.872 47.2038ZM116.167 47.2038C116.167 52.3955 120.395 56.6043 125.611 56.6043C130.826 56.6043 135.054 52.3955 135.054 47.2038C135.054 42.0121 130.826 37.8033 125.611 37.8033C120.395 37.8033 116.167 42.0121 116.167 47.2038Z" fill="#8B8D8F"/>
<ellipse cx="125.61" cy="47.2039" rx="3.07836" ry="3.06437" fill="#E1E7EA"/>
<path d="M121.975 49.4946L107.464 55.2728L111.817 57.4396L106.814 62.4199L108.628 64.2255L113.631 59.2453L116.17 63.9401L121.975 49.4946Z" fill="#171C1F" stroke="#E1E7EA"/>
<rect x="23.5" y="34.8674" width="39.098" height="24.0613" rx="1.5" stroke="#E1E7EA"/>
<path d="M39.5432 42.4747L36.4836 50.8981H35.2332L38.7561 41.6559H39.5623L39.5432 42.4747ZM42.1077 50.8981L39.0417 42.4747L39.0227 41.6559H39.8289L43.3645 50.8981H42.1077ZM41.949 47.4767V48.4796H36.7566V47.4767H41.949ZM45.7004 41.1481V50.8981H44.5198V41.1481H45.7004ZM50.4612 44.0299V44.9313H46.7478V44.0299H50.4612ZM48.0046 42.3605H49.179V49.1969C49.179 49.4296 49.2149 49.6053 49.2869 49.7238C49.3588 49.8422 49.4519 49.9205 49.5662 49.9586C49.6804 49.9967 49.8031 50.0157 49.9343 50.0157C50.0317 50.0157 50.1332 50.0073 50.239 49.9904C50.349 49.9692 50.4316 49.9523 50.4866 49.9396L50.4929 50.8981C50.3998 50.9277 50.2771 50.9552 50.1248 50.9806C49.9766 51.0102 49.7968 51.025 49.5852 51.025C49.2974 51.025 49.033 50.9679 48.7917 50.8536C48.5505 50.7394 48.358 50.549 48.2141 50.2823C48.0745 50.0115 48.0046 49.6476 48.0046 49.1906V42.3605Z" fill="#E1E7EA"/>
<line x1="84.8652" y1="40.6326" x2="84.8652" y2="51.8266" stroke="#E1E7EA" stroke-width="2"/>
<line x1="79.3877" y1="46.349" x2="90.5817" y2="46.349" stroke="#E1E7EA" stroke-width="2"/>
</svg>
