<?xml version="1.0" encoding="utf-8"?>
<!-- Generator: Adobe Illustrator 24.2.3, SVG Export Plug-In . SVG Version: 6.00 Build 0)  -->
<svg version="1.1" id="Layer_1" xmlns="http://www.w3.org/2000/svg" xmlns:xlink="http://www.w3.org/1999/xlink" x="0px" y="0px"
	 viewBox="0 0 240 120" style="enable-background:new 0 0 240 120;" xml:space="preserve">
<style type="text/css">
	.st0{fill:none;stroke:#E1E7EA;stroke-width:2;stroke-miterlimit:10;}
	.st1{opacity:0.6;}
	.st2{fill:#E1E7EA;}
</style>
<circle class="st0" cx="41" cy="82" r="10"/>
<g class="st1">
	<path class="st2" d="M135.6,47.6l9.3,5.3l-5.3,9.3l-1.2-4.2l-0.3-1l-1,0.3L41.7,83.9l-0.8-0.5l-0.7-2.2l0.7-1.1l95.4-26.4l1-0.3
		l-0.3-1L135.6,47.6 M134,45.6l1.9,7L40.1,79.1L39,81l1,3l1.5,1l96-26.6l1.8,6.5l7-12.3L134,45.6L134,45.6z"/>
</g>
<polygon class="st2" points="210,39 206,35 206,38 199,38 199,31 202,31 198,27 194,31 197,31 197,38 190,38 190,35 186,39 190,43 
	190,40 197,40 197,47 194,47 198,51 202,47 199,47 199,40 206,40 206,43 "/>
<circle class="st2" cx="41" cy="82" r="3"/>
</svg>
