<svg width="200" height="78" viewBox="0 0 200 78" fill="none" xmlns="http://www.w3.org/2000/svg">
<path d="M37 58.6923C37 13.6099 58.0165 1 100.462 1C142.907 1 163.923 13.6099 163.923 58.6923" stroke="#E1E7EA" stroke-miterlimit="10" stroke-linecap="round"/>
<path d="M100.462 8.4176V20.7802" stroke="#E1E7EA" stroke-width="2" stroke-miterlimit="10" stroke-linecap="round"/>
<path d="M100.461 58.6923C97.2472 58.6923 94.6923 56.1373 94.6923 52.923V31.4945C94.6923 28.2802 97.2472 25.7252 100.461 25.7252C103.676 25.7252 106.231 28.2802 106.231 31.4945V52.923C106.231 56.1373 103.676 58.6923 100.461 58.6923Z" stroke="#E1E7EA" stroke-width="2" stroke-miterlimit="10" stroke-linecap="round"/>
<path d="M95.1044 13.7747L100.462 8.4176L105.819 13.7747" stroke="#E1E7EA" stroke-width="2" stroke-miterlimit="10" stroke-linecap="round"/>
<path d="M100.462 8.4176V20.7802" stroke="#E1E7EA" stroke-width="2" stroke-miterlimit="10" stroke-linecap="round"/>
<path d="M95.1044 13.7747L100.462 8.4176L105.819 13.7747" stroke="#E1E7EA" stroke-width="2" stroke-miterlimit="10" stroke-linecap="round"/>
<path d="M100.462 76V63.6373" stroke="#E1E7EA" stroke-width="2" stroke-miterlimit="10" stroke-linecap="round"/>
<path d="M105.819 70.6428L100.462 76L95.1044 70.6428" stroke="#E1E7EA" stroke-width="2" stroke-miterlimit="10" stroke-linecap="round"/>
<path d="M100.462 76V63.6373" stroke="#E1E7EA" stroke-width="2" stroke-miterlimit="10" stroke-linecap="round"/>
<path d="M105.819 70.6428L100.462 76L95.1044 70.6428" stroke="#E1E7EA" stroke-width="2" stroke-miterlimit="10" stroke-linecap="round"/>
</svg>
