<svg width="200" height="75" viewBox="0 0 200 75" fill="none" xmlns="http://www.w3.org/2000/svg">
<path d="M154.821 0.892857V74.1071H45.8929V0.892857H154.821ZM155.714 0H45V75H155.714V0Z" fill="#E1E7EA"/>
<g opacity="0.6">
<path d="M100.357 31.25C103.839 31.25 106.607 34.0179 106.607 37.5C106.607 40.9822 103.839 43.75 100.357 43.75C96.8749 43.75 94.1071 40.9822 94.1071 37.5C94.1071 34.0179 96.8749 31.25 100.357 31.25ZM100.357 30.3572C96.4285 30.3572 93.2142 33.5715 93.2142 37.5C93.2142 41.4286 96.4285 44.6429 100.357 44.6429C104.286 44.6429 107.5 41.4286 107.5 37.5C107.5 33.5715 104.286 30.3572 100.357 30.3572Z" fill="#E1E7EA"/>
</g>
<path d="M100.357 40.1786C101.836 40.1786 103.036 38.9793 103.036 37.5C103.036 36.0206 101.836 34.8214 100.357 34.8214C98.8778 34.8214 97.6786 36.0206 97.6786 37.5C97.6786 38.9793 98.8778 40.1786 100.357 40.1786Z" fill="#E1E7EA"/>
<path opacity="0.6" d="M96.7858 27.2322H103.929" stroke="#E1E7EA" stroke-miterlimit="10" stroke-linecap="round"/>
<path opacity="0.6" d="M96.7858 22.7678H103.929" stroke="#E1E7EA" stroke-miterlimit="10" stroke-linecap="round"/>
<path opacity="0.6" d="M96.7858 18.3036H103.929" stroke="#E1E7EA" stroke-miterlimit="10" stroke-linecap="round"/>
<path opacity="0.6" d="M96.7858 13.8392H103.929" stroke="#E1E7EA" stroke-miterlimit="10" stroke-linecap="round"/>
<path opacity="0.6" d="M96.7858 9.375H103.929" stroke="#E1E7EA" stroke-miterlimit="10" stroke-linecap="round"/>
<path opacity="0.6" d="M96.7858 4.91077H103.929" stroke="#E1E7EA" stroke-miterlimit="10" stroke-linecap="round"/>
<path opacity="0.6" d="M96.7858 65.625H103.929" stroke="#E1E7EA" stroke-miterlimit="10" stroke-linecap="round"/>
<path opacity="0.6" d="M96.7858 70.0892H103.929" stroke="#E1E7EA" stroke-miterlimit="10" stroke-linecap="round"/>
<path opacity="0.6" d="M96.7858 61.1608H103.929" stroke="#E1E7EA" stroke-miterlimit="10" stroke-linecap="round"/>
<path opacity="0.6" d="M96.7858 56.6964H103.929" stroke="#E1E7EA" stroke-miterlimit="10" stroke-linecap="round"/>
<path opacity="0.6" d="M96.7858 52.2322H103.929" stroke="#E1E7EA" stroke-miterlimit="10" stroke-linecap="round"/>
<path opacity="0.6" d="M96.7858 47.7678H103.929" stroke="#E1E7EA" stroke-miterlimit="10" stroke-linecap="round"/>
<path opacity="0.6" d="M90.0892 41.0714V33.9286" stroke="#E1E7EA" stroke-miterlimit="10" stroke-linecap="round"/>
<path opacity="0.6" d="M85.625 41.0714V33.9286" stroke="#E1E7EA" stroke-miterlimit="10" stroke-linecap="round"/>
<path opacity="0.6" d="M81.1608 41.0714V33.9286" stroke="#E1E7EA" stroke-miterlimit="10" stroke-linecap="round"/>
<path opacity="0.6" d="M76.6964 41.0714V33.9286" stroke="#E1E7EA" stroke-miterlimit="10" stroke-linecap="round"/>
<path opacity="0.6" d="M72.2322 41.0714V33.9286" stroke="#E1E7EA" stroke-miterlimit="10" stroke-linecap="round"/>
<path opacity="0.6" d="M67.7678 41.0714V33.9286" stroke="#E1E7EA" stroke-miterlimit="10" stroke-linecap="round"/>
<path opacity="0.6" d="M128.482 41.0714V33.9286" stroke="#E1E7EA" stroke-miterlimit="10" stroke-linecap="round"/>
<path opacity="0.6" d="M132.946 41.0714V33.9286" stroke="#E1E7EA" stroke-miterlimit="10" stroke-linecap="round"/>
<path opacity="0.6" d="M124.018 41.0714V33.9286" stroke="#E1E7EA" stroke-miterlimit="10" stroke-linecap="round"/>
<path opacity="0.6" d="M119.554 41.0714V33.9286" stroke="#E1E7EA" stroke-miterlimit="10" stroke-linecap="round"/>
<path opacity="0.6" d="M146.339 41.0714V33.9286" stroke="#E1E7EA" stroke-miterlimit="10" stroke-linecap="round"/>
<path opacity="0.6" d="M150.804 41.0714V33.9286" stroke="#E1E7EA" stroke-miterlimit="10" stroke-linecap="round"/>
<path opacity="0.6" d="M141.875 41.0714V33.9286" stroke="#E1E7EA" stroke-miterlimit="10" stroke-linecap="round"/>
<path opacity="0.6" d="M137.411 41.0714V33.9286" stroke="#E1E7EA" stroke-miterlimit="10" stroke-linecap="round"/>
<path opacity="0.6" d="M115.089 41.0714V33.9286" stroke="#E1E7EA" stroke-miterlimit="10" stroke-linecap="round"/>
<path opacity="0.6" d="M110.625 41.0714V33.9286" stroke="#E1E7EA" stroke-miterlimit="10" stroke-linecap="round"/>
<path opacity="0.6" d="M63.3036 41.0714V33.9286" stroke="#E1E7EA" stroke-miterlimit="10" stroke-linecap="round"/>
<path opacity="0.6" d="M58.8392 41.0714V33.9286" stroke="#E1E7EA" stroke-miterlimit="10" stroke-linecap="round"/>
<path opacity="0.6" d="M54.375 41.0714V33.9286" stroke="#E1E7EA" stroke-miterlimit="10" stroke-linecap="round"/>
<path opacity="0.6" d="M49.9108 41.0714V33.9286" stroke="#E1E7EA" stroke-miterlimit="10" stroke-linecap="round"/>
</svg>
