<svg width="180" height="66" viewBox="0 0 180 66" fill="none" xmlns="http://www.w3.org/2000/svg">
<path d="M11 65C16.5228 65 21 60.5228 21 55C21 49.4772 16.5228 45 11 45C5.47715 45 1 49.4772 1 55C1 60.5228 5.47715 65 11 65Z" stroke="#E1E7EA" stroke-width="2" stroke-miterlimit="10"/>
<g opacity="0.6">
<path d="M105.6 20.6001L114.9 25.9001L109.6 35.2001L108.4 31.0001L108.1 30.0001L107.1 30.3001L11.7 56.9001L10.9 56.4001L10.2 54.2001L10.9 53.1001L106.3 26.7001L107.3 26.4001L107 25.4001L105.6 20.6001ZM104 18.6001L105.9 25.6001L10.1 52.1001L9 54.0001L10 57.0001L11.5 58.0001L107.5 31.4001L109.3 37.9001L116.3 25.6001L104 18.6001Z" fill="#E1E7EA"/>
</g>
<path d="M180 12L176 8V11H169V4H172L168 0L164 4H167V11H160V8L156 12L160 16V13H167V20H164L168 24L172 20H169V13H176V16L180 12Z" fill="#E1E7EA"/>
<path d="M11 58C12.6569 58 14 56.6569 14 55C14 53.3431 12.6569 52 11 52C9.34315 52 8 53.3431 8 55C8 56.6569 9.34315 58 11 58Z" fill="#E1E7EA"/>
</svg>
