<svg width="240" height="120" viewBox="0 0 240 120" fill="none" xmlns="http://www.w3.org/2000/svg">
<g clip-path="url(#clip0_1995_24467)">
<path fill-rule="evenodd" clip-rule="evenodd" d="M142.635 22.0059H135.386V29.2166H134.386V22.0059V21.0059H135.386H142.635V22.0059ZM142.635 102.114H135.386V94.9028H134.386V102.114V103.114H135.386H142.635V102.114ZM179.752 103.114H187H188V102.114V94.9028H187V102.114H179.752V103.114ZM179.752 22.0059V21.0059H187H188V22.0059V29.2166H187V22.0059H179.752Z" fill="white"/>
<path d="M168.017 93V76.0476L159.815 69.0255L156.625 82.3604L147.125 91.7551L144 88.6428L152.75 79.9285L157.992 51.1511L150.398 54.4849V63.9895H145.841V51.5767L158.296 46.6825C159.916 46.0205 161.068 45.6068 161.752 45.4412C162.435 45.2757 163.131 45.193 163.84 45.193C164.853 45.193 165.751 45.394 166.536 45.7959C167.321 46.1978 167.992 46.8007 168.549 47.6046L171.738 52.3569C173.055 54.343 174.852 56.069 177.13 57.5349C179.409 59.0007 180.962 59.7337 184 59.7337V63.9895C180.608 63.9895 178.687 63.2566 176.029 61.7907C173.371 60.3248 170.903 58.1259 168.625 55.1942L165.663 66.4011L172.574 72.3593V93H168.017Z" fill="white"/>
<ellipse cx="136.443" cy="70.7285" rx="2.75" ry="2.7375" fill="white"/>
<path d="M145.61 70.7284C145.61 75.768 141.506 79.8534 136.443 79.8534C131.381 79.8534 127.277 75.768 127.277 70.7284C127.277 65.6888 131.381 61.6034 136.443 61.6034C141.506 61.6034 145.61 65.6888 145.61 70.7284ZM128.007 70.7284C128.007 75.3663 131.784 79.1262 136.443 79.1262C141.102 79.1262 144.879 75.3663 144.879 70.7284C144.879 66.0904 141.102 62.3306 136.443 62.3306C131.784 62.3306 128.007 66.0904 128.007 70.7284Z" fill="#8B8D8F"/>
<path d="M133.196 72.7749L120.232 77.9367L124.121 79.8724L119.652 84.3214L121.272 85.9345L125.741 81.4855L128.01 85.6796L133.196 72.7749Z" fill="#171C1F" stroke="white"/>
<circle cx="168.5" cy="37.5" r="5.5" fill="white"/>
<path d="M64.5076 67.9274L61.448 76.3507H60.1975L63.7205 67.1085H64.5266L64.5076 67.9274ZM67.072 76.3507L64.0061 67.9274L63.9871 67.1085H64.7932L68.3289 76.3507H67.072ZM66.9133 72.9293V73.9323H61.7209V72.9293H66.9133ZM70.6648 66.6007V76.3507H69.4841V66.6007H70.6648ZM75.4255 69.4825V70.3839H71.7122V69.4825H75.4255ZM72.969 67.8131H74.1433V74.6495C74.1433 74.8823 74.1793 75.0579 74.2512 75.1764C74.3232 75.2949 74.4163 75.3732 74.5305 75.4113C74.6448 75.4493 74.7675 75.4684 74.8987 75.4684C74.996 75.4684 75.0976 75.4599 75.2034 75.443C75.3134 75.4218 75.3959 75.4049 75.4509 75.3922L75.4573 76.3507C75.3642 76.3803 75.2415 76.4078 75.0891 76.4332C74.941 76.4628 74.7611 76.4777 74.5496 76.4777C74.2618 76.4777 73.9973 76.4205 73.7561 76.3063C73.5149 76.192 73.3223 76.0016 73.1785 75.735C73.0388 75.4642 72.969 75.1002 72.969 74.6432V67.8131Z" fill="white"/>
<rect x="47.4985" y="59.7164" width="41.0299" height="25.2687" rx="1.5" stroke="white"/>
<line x1="106" y1="65" x2="106" y2="79" stroke="white" stroke-width="2"/>
<line x1="99" y1="72" x2="113" y2="72" stroke="white" stroke-width="2"/>
</g>
<defs>
<clipPath id="clip0_1995_24467">
<rect width="240" height="88" fill="white" transform="translate(0 18.5)"/>
</clipPath>
</defs>
</svg>
