<svg width="112" height="75" viewBox="0 0 112 75" fill="none" xmlns="http://www.w3.org/2000/svg">
<path d="M110.464 0.892857V74.1071H1.53568V0.892857H110.464ZM111.357 0H0.642822V75H111.357V0Z" fill="#E1E7EA"/>
<g opacity="0.6">
<path d="M55.9999 31.25C59.4821 31.25 62.2499 34.0179 62.2499 37.5C62.2499 40.9822 59.4821 43.75 55.9999 43.75C52.5178 43.75 49.7499 40.9822 49.7499 37.5C49.7499 34.0179 52.5178 31.25 55.9999 31.25ZM55.9999 30.3572C52.0713 30.3572 48.8571 33.5715 48.8571 37.5C48.8571 41.4286 52.0713 44.6429 55.9999 44.6429C59.9285 44.6429 63.1428 41.4286 63.1428 37.5C63.1428 33.5715 59.9285 30.3572 55.9999 30.3572Z" fill="#E1E7EA"/>
</g>
<path d="M56 40.1786C57.4793 40.1786 58.6786 38.9793 58.6786 37.5C58.6786 36.0206 57.4793 34.8214 56 34.8214C54.5206 34.8214 53.3214 36.0206 53.3214 37.5C53.3214 38.9793 54.5206 40.1786 56 40.1786Z" fill="#E1E7EA"/>
<path opacity="0.6" d="M52.4286 27.2322H59.5714" stroke="#E1E7EA" stroke-miterlimit="10" stroke-linecap="round"/>
<path opacity="0.6" d="M52.4286 22.7678H59.5714" stroke="#E1E7EA" stroke-miterlimit="10" stroke-linecap="round"/>
<path opacity="0.6" d="M52.4286 18.3036H59.5714" stroke="#E1E7EA" stroke-miterlimit="10" stroke-linecap="round"/>
<path opacity="0.6" d="M52.4286 13.8392H59.5714" stroke="#E1E7EA" stroke-miterlimit="10" stroke-linecap="round"/>
<path opacity="0.6" d="M52.4286 9.375H59.5714" stroke="#E1E7EA" stroke-miterlimit="10" stroke-linecap="round"/>
<path opacity="0.6" d="M52.4286 4.91077H59.5714" stroke="#E1E7EA" stroke-miterlimit="10" stroke-linecap="round"/>
<path opacity="0.6" d="M52.4286 65.625H59.5714" stroke="#E1E7EA" stroke-miterlimit="10" stroke-linecap="round"/>
<path opacity="0.6" d="M52.4286 70.0892H59.5714" stroke="#E1E7EA" stroke-miterlimit="10" stroke-linecap="round"/>
<path opacity="0.6" d="M52.4286 61.1608H59.5714" stroke="#E1E7EA" stroke-miterlimit="10" stroke-linecap="round"/>
<path opacity="0.6" d="M52.4286 56.6964H59.5714" stroke="#E1E7EA" stroke-miterlimit="10" stroke-linecap="round"/>
<path opacity="0.6" d="M52.4286 52.2322H59.5714" stroke="#E1E7EA" stroke-miterlimit="10" stroke-linecap="round"/>
<path opacity="0.6" d="M52.4286 47.7678H59.5714" stroke="#E1E7EA" stroke-miterlimit="10" stroke-linecap="round"/>
<path opacity="0.6" d="M45.7321 41.0714V33.9286" stroke="#E1E7EA" stroke-miterlimit="10" stroke-linecap="round"/>
<path opacity="0.6" d="M41.2678 41.0714V33.9286" stroke="#E1E7EA" stroke-miterlimit="10" stroke-linecap="round"/>
<path opacity="0.6" d="M36.8036 41.0714V33.9286" stroke="#E1E7EA" stroke-miterlimit="10" stroke-linecap="round"/>
<path opacity="0.6" d="M32.3392 41.0714V33.9286" stroke="#E1E7EA" stroke-miterlimit="10" stroke-linecap="round"/>
<path opacity="0.6" d="M27.875 41.0714V33.9286" stroke="#E1E7EA" stroke-miterlimit="10" stroke-linecap="round"/>
<path opacity="0.6" d="M23.4106 41.0714V33.9286" stroke="#E1E7EA" stroke-miterlimit="10" stroke-linecap="round"/>
<path opacity="0.6" d="M84.125 41.0714V33.9286" stroke="#E1E7EA" stroke-miterlimit="10" stroke-linecap="round"/>
<path opacity="0.6" d="M88.5892 41.0714V33.9286" stroke="#E1E7EA" stroke-miterlimit="10" stroke-linecap="round"/>
<path opacity="0.6" d="M79.6606 41.0714V33.9286" stroke="#E1E7EA" stroke-miterlimit="10" stroke-linecap="round"/>
<path opacity="0.6" d="M75.1964 41.0714V33.9286" stroke="#E1E7EA" stroke-miterlimit="10" stroke-linecap="round"/>
<path opacity="0.6" d="M101.982 41.0714V33.9286" stroke="#E1E7EA" stroke-miterlimit="10" stroke-linecap="round"/>
<path opacity="0.6" d="M106.446 41.0714V33.9286" stroke="#E1E7EA" stroke-miterlimit="10" stroke-linecap="round"/>
<path opacity="0.6" d="M97.5178 41.0714V33.9286" stroke="#E1E7EA" stroke-miterlimit="10" stroke-linecap="round"/>
<path opacity="0.6" d="M93.0536 41.0714V33.9286" stroke="#E1E7EA" stroke-miterlimit="10" stroke-linecap="round"/>
<path opacity="0.6" d="M70.7321 41.0714V33.9286" stroke="#E1E7EA" stroke-miterlimit="10" stroke-linecap="round"/>
<path opacity="0.6" d="M66.2678 41.0714V33.9286" stroke="#E1E7EA" stroke-miterlimit="10" stroke-linecap="round"/>
<path opacity="0.6" d="M18.9464 41.0714V33.9286" stroke="#E1E7EA" stroke-miterlimit="10" stroke-linecap="round"/>
<path opacity="0.6" d="M14.4821 41.0714V33.9286" stroke="#E1E7EA" stroke-miterlimit="10" stroke-linecap="round"/>
<path opacity="0.6" d="M10.0178 41.0714V33.9286" stroke="#E1E7EA" stroke-miterlimit="10" stroke-linecap="round"/>
<path opacity="0.6" d="M5.55359 41.0714V33.9286" stroke="#E1E7EA" stroke-miterlimit="10" stroke-linecap="round"/>
</svg>
