<svg width="200" height="75" viewBox="0 0 200 75" fill="none" xmlns="http://www.w3.org/2000/svg">
<path d="M35.8974 40.2061C38.0769 40.2061 39.7436 41.8814 39.7436 44.0721V69.8453C39.7436 72.0361 38.0769 73.7113 35.8974 73.7113H5.12821C2.94872 73.7113 1.28205 72.0361 1.28205 69.8453V44.0721C1.28205 41.8814 2.94872 40.2061 5.12821 40.2061H35.8974ZM35.8974 38.9175H5.12821C2.30769 38.9175 0 41.2371 0 44.0721V69.8453C0 72.6804 2.30769 75 5.12821 75H35.8974C38.7179 75 41.0256 72.6804 41.0256 69.8453V44.0721C41.0256 41.2371 38.7179 38.9175 35.8974 38.9175Z" fill="#E1E7EA"/>
<path d="M79.4872 40.2061C81.6666 40.2061 83.3333 41.8814 83.3333 44.0721V69.8453C83.3333 72.0361 81.6666 73.7113 79.4872 73.7113H48.7179C46.5384 73.7113 44.8718 72.0361 44.8718 69.8453V44.0721C44.8718 41.8814 46.5384 40.2061 48.7179 40.2061H79.4872ZM79.4872 38.9175H48.7179C45.8974 38.9175 43.5897 41.2371 43.5897 44.0721V69.8453C43.5897 72.6804 45.8974 75 48.7179 75H79.4872C82.3077 75 84.6154 72.6804 84.6154 69.8453V44.0721C84.6154 41.2371 82.3077 38.9175 79.4872 38.9175Z" fill="#E1E7EA"/>
<path d="M79.4872 1.54635C81.6666 1.54635 83.3333 3.22161 83.3333 5.41233V31.1856C83.3333 33.3763 81.6666 35.0515 79.4872 35.0515H48.7179C46.5384 35.0515 44.8718 33.3763 44.8718 31.1856V5.41233C44.8718 3.22161 46.5384 1.54635 48.7179 1.54635H79.4872ZM79.4872 0.25769H48.7179C45.8974 0.25769 43.5897 2.57728 43.5897 5.41233V31.1856C43.5897 34.0206 45.8974 36.3402 48.7179 36.3402H79.4872C82.3077 36.3402 84.6154 34.0206 84.6154 31.1856V5.41233C84.6154 2.57728 82.3077 0.25769 79.4872 0.25769Z" fill="#E1E7EA"/>
<path d="M194.872 39.9485C197.051 39.9485 198.718 41.6237 198.718 43.8144V69.5877C198.718 71.7784 197.051 73.4536 194.872 73.4536H164.103C161.923 73.4536 160.256 71.7784 160.256 69.5877V43.8144C160.256 41.6237 161.923 39.9485 164.103 39.9485H194.872ZM194.872 38.6598H164.103C161.282 38.6598 158.974 40.9794 158.974 43.8144V69.5877C158.974 72.4227 161.282 74.7423 164.103 74.7423H194.872C197.692 74.7423 200 72.4227 200 69.5877V43.8144C200 40.9794 197.692 38.6598 194.872 38.6598Z" fill="#E1E7EA"/>
<path d="M194.872 1.28866C197.051 1.28866 198.718 2.96392 198.718 5.15464V30.9279C198.718 33.1186 197.051 34.7938 194.872 34.7938H164.103C161.923 34.7938 160.256 33.1186 160.256 30.9279V5.15464C160.256 2.96392 161.923 1.28866 164.103 1.28866H194.872ZM194.872 0H164.103C161.282 0 158.974 2.31959 158.974 5.15464V30.9279C158.974 33.7629 161.282 36.0825 164.103 36.0825H194.872C197.692 36.0825 200 33.7629 200 30.9279V5.15464C200 2.31959 197.692 0 194.872 0Z" fill="#E1E7EA"/>
<path d="M123.077 40.2061C125.256 40.2061 126.923 41.8814 126.923 44.0721V69.8453C126.923 72.0361 125.256 73.7113 123.077 73.7113H92.3077C90.1282 73.7113 88.4616 72.0361 88.4616 69.8453V44.0721C88.4616 41.8814 90.1282 40.2061 92.3077 40.2061H123.077ZM123.077 38.9175H92.3077C89.4872 38.9175 87.1795 41.2371 87.1795 44.0721V69.8453C87.1795 72.6804 89.4872 75 92.3077 75H123.077C125.897 75 128.205 72.6804 128.205 69.8453V44.0721C128.205 41.2371 125.897 38.9175 123.077 38.9175Z" fill="#E1E7EA"/>
<path d="M69.2308 20.6186H58.9744L64.1026 15.464L69.2308 20.6186Z" fill="#E1E7EA"/>
<path d="M58.9744 55.4125H69.2308L64.1026 60.5671L58.9744 55.4125Z" fill="#E1E7EA"/>
<path d="M106.41 61.8557V51.5464L111.538 56.701L106.41 61.8557Z" fill="#E1E7EA"/>
<path d="M21.7948 51.5464V61.8557L16.6666 56.701L21.7948 51.5464Z" fill="#E1E7EA"/>
<path d="M185.897 16.7526H173.077V19.3299H185.897V16.7526Z" fill="#E1E7EA"/>
<path d="M178.205 11.598V24.4846H180.769V11.598H178.205Z" fill="#E1E7EA"/>
<path d="M185.897 55.4125H173.077V57.9898H185.897V55.4125Z" fill="#E1E7EA"/>
</svg>
