<svg width="209" height="76" viewBox="0 0 209 76" fill="none" xmlns="http://www.w3.org/2000/svg">
<path d="M13.2692 75C19.6418 75 24.8077 69.8341 24.8077 63.4616C24.8077 57.089 19.6418 51.9231 13.2692 51.9231C6.89672 51.9231 1.73077 57.089 1.73077 63.4616C1.73077 69.8341 6.89672 75 13.2692 75Z" stroke="#E1E7EA" stroke-width="2" stroke-miterlimit="10"/>
<g opacity="0.6">
<path d="M122.423 23.7694L133.154 29.8848L127.038 40.6155L125.654 35.7694L125.308 34.6155L124.154 34.9617L14.0769 65.654L13.1539 65.0771L12.3462 62.5386L13.1539 61.2694L123.231 30.8078L124.385 30.4617L124.038 29.3078L122.423 23.7694ZM120.577 21.4617L122.769 29.5386L12.2308 60.1155L10.9615 62.3078L12.1154 65.7694L13.8462 66.9232L124.615 36.2309L126.692 43.7309L134.769 29.5386L120.577 21.4617Z" fill="#E1E7EA"/>
</g>
<path d="M208.269 13.8462L203.654 9.23077V12.6923H195.577V4.61538H199.038L194.423 0L189.808 4.61538H193.269V12.6923H185.192V9.23077L180.577 13.8462L185.192 18.4615V15H193.269V23.0769H189.808L194.423 27.6923L199.038 23.0769H195.577V15H203.654V18.4615L208.269 13.8462Z" fill="#E1E7EA"/>
<path d="M13.2692 66.9231C15.181 66.9231 16.7308 65.3733 16.7308 63.4615C16.7308 61.5498 15.181 60 13.2692 60C11.3575 60 9.80768 61.5498 9.80768 63.4615C9.80768 65.3733 11.3575 66.9231 13.2692 66.9231Z" fill="#E1E7EA"/>
</svg>
