<svg width="32" height="32" viewBox="0 0 32 32" fill="none" xmlns="http://www.w3.org/2000/svg">
<path fill-rule="evenodd" clip-rule="evenodd" d="M19 21V19L27 11L29 13L21 21H19ZM19.8232 19.1768L20.8232 20.1768L21.1768 19.8232L20.1768 18.8232L19.8232 19.1768Z" fill="#A5B7C0"/>
<path fill-rule="evenodd" clip-rule="evenodd" d="M2 10C2 9.44772 2.44772 9 3 9H17C17.5523 9 18 9.44772 18 10V12C18 12.5523 17.5523 13 17 13V16C17 19.866 13.866 23 10 23C6.13401 23 3 19.866 3 16V13C2.44772 13 2 12.5523 2 12V10ZM5 13H15V16C15 18.7614 12.7614 21 10 21C7.23858 21 5 18.7614 5 16V13ZM10 19C11.1046 19 12 18.1046 12 17C12 15.8954 11.1046 15 10 15C8.89543 15 8 15.8954 8 17C8 18.1046 8.89543 19 10 19Z" fill="#A5B7C0"/>
</svg>
