<svg width="24" height="20" viewBox="0 0 24 20" fill="none" xmlns="http://www.w3.org/2000/svg">
<path d="M2 4C2 3.44772 2.44772 3 3 3H17C17.5523 3 18 3.44772 18 4V5.09965C17.8393 5.03536 17.6639 5 17.4803 5H15.2803C14.5071 5 13.8803 5.6268 13.8803 6.4V7H12.7162C12.3046 6.78981 11.8324 6.80276 11.4446 7H5V10C5 12.7614 7.23858 15 10 15L10.0295 14.9999L10.8681 16.4524C10.97 16.6289 11.1045 16.7749 11.2597 16.887C10.851 16.9612 10.43 17 10 17C6.13401 17 3 13.866 3 10V7C2.44772 7 2 6.55228 2 6V4Z" fill="#A5B7C0"/>
<path fill-rule="evenodd" clip-rule="evenodd" d="M17.8803 6.4L17.8802 7.75607C18.4069 7.94222 18.8886 8.22363 19.3045 8.57959L20.48 7.90094C20.6713 7.79048 20.9159 7.85603 21.0264 8.04735L22.1264 9.95258C22.2368 10.1439 22.1713 10.3885 21.98 10.499L20.8051 11.1773C20.8544 11.444 20.8802 11.719 20.8802 12C20.8802 12.2809 20.8544 12.5559 20.8051 12.8226L21.98 13.5009C22.1713 13.6114 22.2368 13.856 22.1264 14.0473L21.0264 15.9526C20.9159 16.1439 20.6713 16.2094 20.48 16.099L19.3045 15.4203C18.8885 15.7763 18.4069 16.0577 17.8802 16.2438V17.6C17.8802 17.8209 17.7011 18 17.4802 18H15.2803C15.0593 18 14.8803 17.8209 14.8803 17.6V16.2439C14.3536 16.0577 13.8719 15.7763 13.4559 15.4203L12.2805 16.0989C12.0892 16.2093 11.8446 16.1438 11.7341 15.9524L10.6341 14.0472C10.5237 13.8559 10.5892 13.6113 10.7805 13.5008L11.9553 12.8226C11.906 12.5559 11.8803 12.2809 11.8803 12C11.8803 11.719 11.906 11.444 11.9553 11.1773L10.7806 10.499C10.5892 10.3886 10.5237 10.144 10.6341 9.95264L11.7341 8.04741C11.8446 7.85609 12.0892 7.79054 12.2805 7.901L13.4559 8.5796C13.8719 8.22361 14.3536 7.94219 14.8803 7.75604V6.4C14.8803 6.17909 15.0594 6 15.2803 6H17.4803C17.5976 6 17.7032 6.05054 17.7763 6.13105C17.7955 6.15214 17.8125 6.17528 17.8268 6.20011C17.8329 6.21071 17.8386 6.22163 17.8438 6.23282C17.8672 6.28369 17.8803 6.34032 17.8803 6.4ZM18.6302 12C18.6302 13.2426 17.6229 14.2499 16.3803 14.2499C15.1376 14.2499 14.1303 13.2426 14.1303 12C14.1303 10.7573 15.1376 9.74999 16.3803 9.74999C17.6229 9.74999 18.6302 10.7573 18.6302 12Z" fill="#A5B7C0"/>
<path d="M8 12C8 11.0379 8.67935 10.2345 9.58452 10.0432C9.54407 10.564 9.79802 11.0865 10.2806 11.3651L10.8875 11.7155C10.8827 11.8098 10.8803 11.9046 10.8803 12C10.8803 12.0953 10.8827 12.1901 10.8875 12.2843L10.2806 12.6348C9.79796 12.9134 9.54402 13.436 9.58453 13.9568C8.67935 13.7655 8 12.9621 8 12Z" fill="#A5B7C0"/>
</svg>
