<svg width="24" height="20" viewBox="0 0 24 20" fill="none" xmlns="http://www.w3.org/2000/svg">
<path fill-rule="evenodd" clip-rule="evenodd" d="M2 3H12C13.1046 3 14 3.89543 14 5V8H11C10.4477 8 10 8.44772 10 9V11C10 11.5523 10.4477 12 11 12H14V15C14 16.1046 13.1046 17 12 17H2V3ZM3 4H7V5H3V4ZM9 4H13V5H9V4ZM7 15H3V16H7V15ZM9 16V15H13V16H9Z" fill="#A5B7C0"/>
<path d="M17 7.04025C17 6.62099 17.485 6.38791 17.8123 6.64981L21.512 9.6095C21.7622 9.80966 21.7622 10.1902 21.512 10.3904L17.8123 13.3501C17.485 13.612 17 13.3789 17 12.9596V10.9999H11.5C11.2239 10.9999 11 10.7761 11 10.4999V9.49993C11 9.22379 11.2239 8.99993 11.5 8.99993H17V7.04025Z" fill="#A5B7C0"/>
</svg>
