<svg width="32" height="32" viewBox="0 0 32 32" fill="none" xmlns="http://www.w3.org/2000/svg">
<path fill-rule="evenodd" clip-rule="evenodd" d="M23 16C23 17.9367 22.5765 19.7745 21.817 21.4259L23.5315 22.4809C24.4727 20.5192 25 18.3212 25 16C25 13.4394 24.3584 11.0286 23.2271 8.91968L21.5701 10.0668C22.4841 11.8456 23 13.8626 23 16ZM21 16C21 14.3003 20.5288 12.7107 19.71 11.3546L18.0612 12.4961C18.6582 13.5266 19 14.7234 19 16C19 17.1582 18.7187 18.2506 18.2208 19.2128L19.9281 20.2634C20.6119 18.9945 21 17.5426 21 16ZM13.3753 9.29976L8.75 13H6C5.44772 13 5 13.4477 5 14V16V18C5 18.5523 5.44772 19 6 19H8.75L13.3753 22.7002C14.0301 23.2241 15 22.7579 15 21.9194V18V14V10.0806C15 9.24212 14.0301 8.77595 13.3753 9.29976Z" fill="#A5B7C0"/>
</svg>
