<svg width="24" height="20" viewBox="0 0 24 20" fill="none" xmlns="http://www.w3.org/2000/svg">
<path d="M2 4C2 2.89543 2.89543 2 4 2H9C10.1046 2 11 2.89543 11 4V16.5993C11 17.0692 10.4106 17.2796 10.113 16.9159L7.27396 13.4459C6.87385 12.9569 6.12615 12.9569 5.72604 13.4459L2.88698 16.9159C2.58942 17.2796 2 17.0692 2 16.5993V4Z" fill="#A5B7C0"/>
<path fill-rule="evenodd" clip-rule="evenodd" d="M13 13V15H15L23 7L21 5L13 13ZM14.8232 14.1768L13.8232 13.1768L14.1768 12.8232L15.1768 13.8232L14.8232 14.1768Z" fill="#A5B7C0"/>
</svg>
