<svg width="24" height="20" viewBox="-2 -2 24 20" fill="none" xmlns="http://www.w3.org/2000/svg">
<path fill-rule="evenodd" clip-rule="evenodd" d="M18 8C18 9.93672 17.5765 11.7745 16.817 13.4259L18.5315 14.4809C19.4727 12.5192 20 10.3212 20 8C20 5.43937 19.3584 3.02859 18.2271 0.919678L16.5701 2.06682C17.4841 3.84559 18 5.86256 18 8ZM16 8C16 6.30033 15.5288 4.71071 14.71 3.3546L13.0612 4.49606C13.6582 5.52656 14 6.72337 14 8C14 9.15815 13.7187 10.2506 13.2208 11.2128L14.9281 12.2634C15.6119 10.9945 16 9.54255 16 8ZM8.3753 1.29976L3.75 5H1C0.447715 5 0 5.44772 0 6V8V10C0 10.5523 0.447715 11 1 11H3.75L8.37531 14.7002C9.03007 15.2241 10 14.7579 10 13.9194V10V6V2.08062C10 1.24212 9.03007 0.775946 8.3753 1.29976Z" fill="#A5B7C0"/>
</svg>
