<svg width="32" height="32" viewBox="0 0 32 32" fill="none" xmlns="http://www.w3.org/2000/svg">
<path fill-rule="evenodd" clip-rule="evenodd" d="M19 21V19L27 11L29 13L21 21H19ZM19.8232 19.1768L20.8232 20.1768L21.1768 19.8232L20.1768 18.8232L19.8232 19.1768Z" fill="#A5B7C0"/>
<path fill-rule="evenodd" clip-rule="evenodd" d="M15.4559 15.3H13.5V16.7H15.4559C15.1411 19.1778 13.1778 21.1411 10.7 21.4559V19.5H9.3V21.4559C6.82219 21.1411 4.85886 19.1778 4.54413 16.7H6.5V15.3H4.54413C4.85886 12.8222 6.82219 10.8589 9.3 10.5441V12.5L10.7 12.5V10.5441C13.1778 10.8589 15.1411 12.8222 15.4559 15.3ZM10 23C13.866 23 17 19.866 17 16C17 12.134 13.866 9 10 9C6.13401 9 3 12.134 3 16C3 19.866 6.13401 23 10 23Z" fill="#A5B7C0"/>
</svg>
