<svg width="24" height="20" viewBox="0 0 24 20" fill="none" xmlns="http://www.w3.org/2000/svg">
<path d="M3 5V15H9.77022L10.1064 15.3362C9.6116 15.7562 9.24017 16.3284 9.07176 17H2C1.44772 17 1 16.5523 1 16V4C1 3.44772 1.44772 3 2 3H16C16.5523 3 17 3.44772 17 4V5.88433C16.6783 6.03756 16.3769 6.24733 16.1106 6.51365C15.9916 6.63259 15.884 6.75853 15.7876 6.89016C15.5189 6.92811 15.254 7.00013 15 7.10621V5H3Z" fill="#A5B7C0"/>
<path fill-rule="evenodd" clip-rule="evenodd" d="M15.3133 9.85258C15.2395 9.76547 15.1801 9.67041 15.1348 9.57047C15.1348 9.57046 15.1348 9.57047 15.1348 9.57047C14.9328 9.12408 15.0153 8.58039 15.3822 8.21345C15.8556 7.74014 16.623 7.74014 17.0963 8.21345L17.5248 8.64194C17.0515 8.16862 17.0515 7.40122 17.5248 6.9279C17.9981 6.45458 18.7655 6.45458 19.2388 6.9279L21.8099 9.49896L21.8152 9.50429L22.6669 10.356C24.0869 11.776 24.0869 14.0782 22.6669 15.4981L19.4531 18.7119C19.2778 18.8872 19.0703 19.0105 18.8497 19.082C18.6059 19.2174 18.3143 19.2697 18.0196 19.2097L11.9447 17.9712C11.2888 17.8375 10.8655 17.1974 10.9992 16.5415C11.1329 15.8856 11.773 15.4623 12.4289 15.596L14.6468 16.0482L8.31185 9.71322C7.83853 9.2399 7.83853 8.4725 8.31185 7.99919C8.78517 7.52587 9.55257 7.52587 10.0259 7.99919L13.2339 11.2072C12.7664 10.7335 12.7683 9.97039 13.2397 9.49901C13.713 9.02569 14.4804 9.02569 14.9537 9.49901L15.3078 9.8531L15.3133 9.85258ZM15.3133 9.85258C15.335 9.87817 15.3581 9.90335 15.3822 9.92749L15.8108 10.356L15.3078 9.8531L15.3133 9.85258Z" fill="#A5B7C0"/>
</svg>
