<svg width="33" height="32" viewBox="0 0 33 32" fill="none" xmlns="http://www.w3.org/2000/svg">
<path fill-rule="evenodd" clip-rule="evenodd" d="M7.10449 9V19H13.8747L14.2109 19.3362C13.7161 19.7562 13.3447 20.3284 13.1763 21H6.10449C5.55221 21 5.10449 20.5523 5.10449 20V8C5.10449 7.44772 5.55221 7 6.10449 7H20.1045C20.6568 7 21.1045 7.44772 21.1045 8V9.88433C20.7828 10.0376 20.4814 10.2473 20.2151 10.5137C20.0961 10.6326 19.9885 10.7585 19.8921 10.8902C19.6233 10.9281 19.3585 11.0001 19.1045 11.1062V9H7.10449ZM19.1045 14.5453L19.0582 14.499C18.5849 14.0257 17.8175 14.0257 17.3442 14.499C16.8728 14.9704 16.8709 15.7335 17.3384 16.2072L14.1304 12.9992C13.6571 12.5259 12.8897 12.5259 12.4163 12.9992C11.943 13.4725 11.943 14.2399 12.4163 14.7132L16.4872 18.7841L16.4872 18.7841L18.7513 21.0482L18.515 21H18.5152L16.5334 20.596C16.2117 20.5304 15.8938 20.5988 15.6376 20.7629C15.5364 20.8278 15.4447 20.9076 15.3663 21H15.3664C15.2386 21.1505 15.1459 21.3344 15.1037 21.5415C14.97 22.1974 15.3933 22.8375 16.0492 22.9712L22.1241 24.2097C22.4188 24.2697 22.7103 24.2174 22.9542 24.082C23.1748 24.0105 23.3823 23.8872 23.5576 23.7119L26.7714 20.4981C28.1913 19.0782 28.1913 16.776 26.7714 15.356L25.9197 14.5043L25.9144 14.499L23.3433 11.9279C22.87 11.4546 22.1026 11.4546 21.6293 11.9279C21.156 12.4012 21.156 13.1686 21.6293 13.6419L21.2008 13.2135C21.1699 13.1826 21.1377 13.1537 21.1045 13.1268V13.1268C20.8514 12.9223 20.5352 12.8347 20.2281 12.8639C19.9575 12.8897 19.6939 13.0062 19.4867 13.2134C19.4285 13.2717 19.3774 13.3344 19.3335 13.4004C19.2978 13.4541 19.2669 13.5099 19.2407 13.5674C19.2269 13.5977 19.2144 13.6285 19.2032 13.6596C19.1986 13.6725 19.1942 13.6854 19.19 13.6984C19.171 13.7575 19.1566 13.8178 19.1469 13.8787C19.0883 14.2467 19.1996 14.6365 19.4809 14.9216L19.1045 14.5452V14.5453ZM21.6293 13.6419L21.6293 13.642L21.6293 13.642L21.6293 13.6419Z" fill="#A5B7C0"/>
</svg>
