<svg width="32" height="32" viewBox="0 0 32 32" fill="none" xmlns="http://www.w3.org/2000/svg">
<path fill-rule="evenodd" clip-rule="evenodd" d="M6 10C6 9.44772 6.44772 9 7 9H25C25.5523 9 26 9.44772 26 10V22C26 22.5523 25.5523 23 25 23H7C6.44772 23 6 22.5523 6 22V10ZM10 10H7V11H10V10ZM15 10H12V11H15V10ZM17 10H20V11H17V10ZM25 10H22V11H25V10ZM7 21H10V22H7V21ZM15 21H12V22H15V21ZM17 21H20V22H17V21ZM25 21H22V22H25V21ZM14.7236 13.3618C14.3912 13.1956 14 13.4373 14 13.809V18.191C14 18.5627 14.3912 18.8044 14.7236 18.6382L19.1056 16.4472C19.4741 16.263 19.4741 15.737 19.1056 15.5528L14.7236 13.3618Z" fill="#A5B7C0"/>
</svg>
