<svg width="24" height="20" viewBox="0 0 24 20" fill="none" xmlns="http://www.w3.org/2000/svg">
<path fill-rule="evenodd" clip-rule="evenodd" d="M4 3C2.89543 3 2 3.89543 2 5V15C2 16.1046 2.89543 17 4 17H20C21.1046 17 22 16.1046 22 15V5C22 3.89543 21.1046 3 20 3H4ZM8 4H4V5H8V4ZM14 4H10V5H14V4ZM16 4H20V5H16V4ZM8 15H4V16H8V15ZM10 15H14V16H10V15ZM20 15H16V16H20V15ZM10 7.8831C10 7.49445 10.424 7.25439 10.7572 7.45435L14.2854 9.57125C14.6091 9.76546 14.6091 10.2345 14.2854 10.4287L10.7572 12.5457C10.424 12.7456 10 12.5056 10 12.1169V7.8831Z" fill="#A5B7C0"/>
</svg>
