<svg xmlns="http://www.w3.org/2000/svg" width="20" height="20" fill="none" viewBox="0 0 20 20">
  <g class="20x20/Outline/analytics">
    <path fill="#E5E9EB" fill-rule="evenodd" d="M9.393 2.107a.607.607 0 1 1 1.214 0V3.35a6.68 6.68 0 0 1 6.044 6.044h1.242a.607.607 0 0 1 0 1.214H16.65a6.68 6.68 0 0 1-6.044 6.044v1.242a.607.607 0 0 1-1.214 0v-1.242a6.68 6.68 0 0 1-6.044-6.044H2.107a.607.607 0 0 1 0-1.214H3.35A6.68 6.68 0 0 1 9.394 3.35V2.107Zm6.038 7.286H14.25a.607.607 0 0 0 0 1.214h1.181a5.467 5.467 0 0 1-4.824 4.824v-1.18a.607.607 0 0 0-1.214 0v1.18a5.467 5.467 0 0 1-4.824-4.824H5.75a.607.607 0 0 0 0-1.214H4.57a5.467 5.467 0 0 1 4.823-4.824V5.75a.607.607 0 1 0 1.214 0V4.57a5.466 5.466 0 0 1 4.824 4.823Z" class="Primary" clip-rule="evenodd"/>
  </g>
</svg>
