<svg xmlns="http://www.w3.org/2000/svg" width="20" height="20" fill="none" viewBox="0 0 20 20">
  <g class="20x20/Outline/animal">
    <path fill="#A5B7C0" d="m11.242 8.388.37.37a3.924 3.924 0 0 1 .252 5.27 3.138 3.138 0 1 1-6.16.66l-.392-.392a3.139 3.139 0 1 1 .66-6.16 3.923 3.923 0 0 1 5.27.252Zm-4.604.554a1.046 1.046 0 0 1-.943.203 2.092 2.092 0 1 0-.617 4.11l.177-.003c.254-.014.503.065.702.22l.095.085.391.391c.18.18.288.42.305.67v.127a2.092 2.092 0 1 0 4.146-.273l-.039-.167c-.09-.329-.014-.68.203-.943a2.878 2.878 0 0 0-.065-3.735l-.121-.129-.37-.37a2.876 2.876 0 0 0-3.864-.186Zm10.522 2.405c.925.925.384 2.206-.74 3.33-1.123 1.123-2.404 1.664-3.329.74-.925-.925-.384-2.206.74-3.33 1.123-1.123 2.404-1.664 3.329-.74Zm-2.59 1.48c-.897.897-1.07 1.52-.74 1.85.331.33.953.157 1.85-.74.898-.898 1.07-1.52.74-1.85-.33-.33-.952-.157-1.85.74Zm2.96-7.028c.924.925.384 2.206-.74 3.33-1.123 1.123-2.404 1.664-3.329.739-.925-.925-.384-2.205.74-3.329 1.123-1.124 2.404-1.665 3.329-.74Zm-2.59 1.48c-.897.897-1.07 1.519-.74 1.85.331.33.953.157 1.85-.74.898-.898 1.07-1.52.74-1.85-.33-.33-.952-.158-1.85.74ZM14.2 2.47c.926.925.385 2.206-.739 3.33-1.123 1.123-2.404 1.664-3.329.739-.925-.925-.384-2.205.74-3.329 1.123-1.124 2.404-1.664 3.329-.74Zm-5.178 0c.925.925.384 2.206-.74 3.33-1.123 1.123-2.404 1.664-3.328.739-.925-.925-.384-2.205.74-3.329 1.123-1.124 2.404-1.664 3.328-.74Zm2.59 1.48c-.898.897-1.07 1.519-.74 1.85.33.33.952.157 1.85-.74.897-.898 1.07-1.52.739-1.85-.33-.33-.952-.158-1.85.74Zm-5.179 0c-.897.897-1.07 1.519-.74 1.85.33.33.952.157 1.85-.74.897-.898 1.07-1.52.74-1.85-.33-.33-.952-.158-1.85.74Z" class="Primary"/>
  </g>
</svg>
