<svg xmlns="http://www.w3.org/2000/svg" width="20" height="20" fill="none" viewBox="0 0 20 20">
  <g class="20x20/Outline/audit_trail">
    <mask id="a" class="a">
      <path fill-rule="evenodd" d="M3.5 15.429V16.5h9.212V15h1.5v2a1 1 0 0 1-1 1H3a1 1 0 0 1-1-1V6.831a1 1 0 0 1 .295-.71l3.857-3.83A1 1 0 0 1 6.857 2h6.355a1 1 0 0 1 1 1v2.5h-1.5v-2H8.5v3.25A1.75 1.75 0 0 1 6.75 8.5H3.5v6.929ZM3.54 7 7 3.563V6.75a.25.25 0 0 1-.25.25H3.54Zm13.02 2.948-.008.02a.134.134 0 0 1 .008-.02Zm-.236.352a5.195 5.195 0 0 0-.741-.738C14.834 8.947 13.911 8.5 13 8.5s-1.834.447-2.584 1.062c-.315.258-.566.52-.741.738.175.218.426.48.741.738.75.615 1.673 1.062 2.584 1.062s1.834-.447 2.584-1.062c.314-.258.566-.52.741-.738Zm-6.887-.352.01.02a.113.113 0 0 1-.01-.02Zm0 .704s.002-.007.01-.02a.126.126 0 0 1-.01.02Zm7.115-.02.008.02-.008-.02ZM13 13.6c2.761 0 5-2.64 5-3.3 0-.66-2.239-3.3-5-3.3s-5 2.64-5 3.3c0 .66 2.239 3.3 5 3.3Zm.757-3.3a.75.75 0 1 1-1.5 0 .75.75 0 0 1 1.5 0Z" clip-rule="evenodd"/>
    </mask>
    <path class="Primary" fill="#698796" fill-rule="evenodd" d="M3.5 15.429V16.5h9.212V15h1.5v2a1 1 0 0 1-1 1H3a1 1 0 0 1-1-1V6.831a1 1 0 0 1 .295-.71l3.857-3.83A1 1 0 0 1 6.857 2h6.355a1 1 0 0 1 1 1v2.5h-1.5v-2H8.5v3.25A1.75 1.75 0 0 1 6.75 8.5H3.5v6.929ZM3.54 7 7 3.563V6.75a.25.25 0 0 1-.25.25H3.54Zm13.02 2.948-.008.02a.134.134 0 0 1 .008-.02Zm-.236.352a5.195 5.195 0 0 0-.741-.738C14.834 8.947 13.911 8.5 13 8.5s-1.834.447-2.584 1.062c-.315.258-.566.52-.741.738.175.218.426.48.741.738.75.615 1.673 1.062 2.584 1.062s1.834-.447 2.584-1.062c.314-.258.566-.52.741-.738Zm-6.887-.352.01.02a.113.113 0 0 1-.01-.02Zm0 .704s.002-.007.01-.02a.126.126 0 0 1-.01.02Zm7.115-.02.008.02-.008-.02ZM13 13.6c2.761 0 5-2.64 5-3.3 0-.66-2.239-3.3-5-3.3s-5 2.64-5 3.3c0 .66 2.239 3.3 5 3.3Zm.757-3.3a.75.75 0 1 1-1.5 0 .75.75 0 0 1 1.5 0Z" clip-rule="evenodd"/>
    <path class="Primary" fill="#698796" d="M3.5 16.5H2V18h1.5v-1.5Zm9.212 0V18h1.5v-1.5h-1.5Zm0-1.5v-1.5h-1.5V15h1.5Zm1.5 0h1.5v-1.5h-1.5V15ZM2.295 6.122l1.057 1.064-1.057-1.064ZM6.152 2.29 7.21 3.355 6.152 2.29Zm8.06 3.209V7h1.5V5.5h-1.5Zm-1.5 0h-1.5V7h1.5V5.5Zm0-2h1.5V2h-1.5v1.5ZM8.5 3.5V2H7v1.5h1.5Zm-5 5V7H2v1.5h1.5ZM7 3.563h1.5V-.041l-2.557 2.54L7 3.563ZM3.54 7 2.482 5.936-.099 8.5H3.54V7Zm13.013 2.969-1.403-.533 2.75 1.194-1.346-.661Zm-.969-.407.951-1.16-.951 1.16Zm.741.738 1.169.94.756-.94-.756-.94-1.169.94Zm-5.909-.738.951 1.16-.951-1.16Zm-.741.738-1.17-.94-.755.94.756.94 1.169-.94Zm.741.738.951-1.16-.951 1.16Zm5.168 0-.952-1.16.952 1.16Zm-6.146-1.09-.55 1.396h.003l.547-1.396Zm.01.02L8.1 10.63l2.748-1.194-1.402.533Zm0 .663 1.401.533L8.101 9.97l1.346.661Zm7.105 0 1.346-.66-2.749 1.193 1.403-.533ZM5 16.5v-1.071H2V16.5h3Zm7.712-1.5H3.5v3h9.212v-3Zm-1.5 0v1.5h3V15h-3Zm3-1.5h-1.5v3h1.5v-3Zm1.5 3.5v-2h-3v2h3Zm-2.5 2.5a2.5 2.5 0 0 0 2.5-2.5h-3a.5.5 0 0 1 .5-.5v3ZM3 19.5h10.212v-3H3v3ZM.5 17A2.5 2.5 0 0 0 3 19.5v-3a.5.5 0 0 1 .5.5h-3Zm0-1.571V17h3v-1.571h-3Zm0-8.598v8.598h3V6.83h-3Zm.738-1.774A2.5 2.5 0 0 0 .5 6.831h3a.5.5 0 0 1-.148.355L1.238 5.057Zm3.857-3.83-3.857 3.83 2.114 2.129L7.21 3.355 5.095 1.226ZM6.857.5a2.5 2.5 0 0 0-1.762.726L7.21 3.355a.5.5 0 0 1-.352.145v-3Zm6.355 0H6.857v3h6.355v-3Zm2.5 2.5a2.5 2.5 0 0 0-2.5-2.5v3a.5.5 0 0 1-.5-.5h3Zm0 2.5V3h-3v2.5h3Zm-3 1.5h1.5V4h-1.5v3Zm-1.5-3.5v2h3v-2h-3ZM8.5 5h4.212V2H8.5v3ZM10 6.75V3.5H7v3.25h3ZM6.75 10A3.25 3.25 0 0 0 10 6.75H7a.25.25 0 0 1-.25.25v3ZM3.5 10h3.25V7H3.5v3ZM5 15.429V8.5H2v6.929h3Zm.943-12.93-3.46 3.437 2.114 2.128 3.46-3.437L5.943 2.5ZM8.5 6.75V3.563h-3V6.75h3ZM6.75 8.5A1.75 1.75 0 0 0 8.5 6.75h-3c0-.69.56-1.25 1.25-1.25v3Zm-3.21 0h3.21v-3H3.54v3Zm13.566 2.846c-.322.126-.996.227-1.562-.296a1.492 1.492 0 0 1-.452-1.397c.02-.102.047-.179.05-.19a1.436 1.436 0 0 1 .064-.156L17.9 10.63a1.76 1.76 0 0 0 .081-.194c.004-.012.032-.09.052-.19.002-.01.05-.215.02-.472-.011-.089-.063-.55-.473-.927-.566-.523-1.24-.422-1.562-.296l1.089 2.795Zm.849-.845c-.006.016-.015.04-.029.07a1.455 1.455 0 0 1-.337.471 1.5 1.5 0 0 1-.483.304l-1.089-2.795a1.5 1.5 0 0 0-.867.885l2.805 1.065Zm-3.323.22c.237.195.415.383.524.52l2.338-1.881a6.69 6.69 0 0 0-.959-.957l-1.903 2.319ZM13 10c.443 0 1.039.235 1.632.722l1.903-2.32C15.63 7.66 14.38 7 13 7v3Zm-1.633.722C11.961 10.235 12.557 10 13 10V7c-1.38 0-2.63.659-3.536 1.402l1.903 2.32Zm-.523.518c.109-.136.287-.324.524-.518l-1.904-2.32a6.69 6.69 0 0 0-.958.958l2.338 1.88Zm.524-1.362a3.708 3.708 0 0 1-.524-.518l-2.338 1.88c.242.3.566.636.958.957l1.903-2.319ZM13 10.6c-.443 0-1.04-.235-1.633-.722l-1.903 2.32C10.37 12.94 11.62 13.6 13 13.6v-3Zm1.632-.722c-.593.487-1.19.722-1.632.722v3c1.38 0 2.63-.659 3.535-1.402l-1.903-2.32Zm.524-.518a3.656 3.656 0 0 1-.524.518l1.903 2.32c.393-.322.717-.657.959-.958l-2.338-1.88Zm-6.265 1.985a1.499 1.499 0 0 1-.846-.844l2.804-1.065a1.73 1.73 0 0 0-.141-.286 1.49 1.49 0 0 0-.722-.598L8.89 11.345Zm1.903-2.038a1.235 1.235 0 0 1 .064.156c.003.011.03.088.05.19a1.496 1.496 0 0 1-.458 1.403c-.571.522-1.245.413-1.562.288l1.1-2.791c-.316-.125-.99-.234-1.561.288a1.496 1.496 0 0 0-.478.932c-.03.257.017.463.019.472a1.553 1.553 0 0 0 .133.385l2.693-1.323ZM8.89 9.255c.32-.125.994-.231 1.563.292a1.494 1.494 0 0 1 .455 1.4c-.02.102-.047.179-.05.19a1.435 1.435 0 0 1-.064.156L8.1 9.97a1.773 1.773 0 0 0-.081.194c-.004.012-.032.09-.052.19-.002.01-.05.215-.02.472.011.09.064.552.476.93.57.523 1.244.417 1.562.292L8.89 9.255Zm-.845.844a1.245 1.245 0 0 1 .124-.247 1.497 1.497 0 0 1 .721-.597l1.096 2.793a1.5 1.5 0 0 0 .863-.884L8.045 10.1Zm7.161 1.194a1.193 1.193 0 0 1-.028-.062c-.004-.01-.02-.046-.036-.094-.003-.011-.03-.088-.051-.19-.002-.009-.05-.216-.019-.474.011-.09.066-.557.485-.935.574-.518 1.246-.404 1.558-.28l-1.107 2.788c.312.123.984.237 1.558-.28.42-.379.474-.845.485-.935.031-.26-.017-.466-.019-.475-.02-.102-.048-.18-.052-.192a1.584 1.584 0 0 0-.08-.194l-2.694 1.323Zm1.91-2.036a1.5 1.5 0 0 1 .839.842l-2.804 1.065a1.725 1.725 0 0 0 .14.286 1.492 1.492 0 0 0 .717.596l1.107-2.789ZM16.5 10.3c0-.268.09-.407.052-.331-.015.032-.06.111-.149.23-.175.236-.454.54-.819.839-.75.615-1.673 1.062-2.584 1.062v3c1.85 0 3.427-.873 4.487-1.743.54-.443.993-.923 1.324-1.368a4.56 4.56 0 0 0 .433-.695c.096-.195.256-.56.256-.994h-3ZM13 8.5c.911 0 1.834.447 2.584 1.062.365.3.644.604.82.839.088.119.133.198.148.23.038.076-.052-.063-.052-.331h3c0-.433-.16-.799-.256-.994a4.561 4.561 0 0 0-.433-.695 7.969 7.969 0 0 0-1.324-1.368C16.427 6.373 14.85 5.5 13 5.5v3Zm-3.5 1.8c0 .268-.09.407-.053.331.016-.032.061-.111.15-.23.175-.236.454-.54.819-.839C11.166 8.947 12.089 8.5 13 8.5v-3c-1.85 0-3.427.873-4.487 1.743-.54.443-.993.923-1.324 1.368a4.566 4.566 0 0 0-.433.695c-.096.195-.256.56-.256.994h3Zm3.5 1.8c-.911 0-1.834-.447-2.584-1.062a4.982 4.982 0 0 1-.82-.839 1.658 1.658 0 0 1-.149-.23c-.037-.076.053.063.053.331h-3c0 .433.16.799.256.994.117.238.269.474.433.695.331.445.784.925 1.324 1.368 1.06.87 2.637 1.743 4.487 1.743v-3Zm.007.45a2.25 2.25 0 0 0 2.25-2.25h-3a.75.75 0 0 1 .75-.75v3Zm-2.25-2.25a2.25 2.25 0 0 0 2.25 2.25v-3a.75.75 0 0 1 .75.75h-3Zm2.25-2.25a2.25 2.25 0 0 0-2.25 2.25h3a.75.75 0 0 1-.75.75v-3Zm2.25 2.25a2.25 2.25 0 0 0-2.25-2.25v3a.75.75 0 0 1-.75-.75h3Z" mask="url(#a)"/>
  </g>
</svg>
