<svg width="20" height="20" viewBox="0 0 20 20" fill="none" xmlns="http://www.w3.org/2000/svg">
<path fill-rule="evenodd" clip-rule="evenodd" d="M14.9132 12.1398C14.946 12.4861 15.1075 12.7986 15.3539 13.024C15.5018 13.1592 15.6802 13.263 15.8799 13.3239L16.5669 13.5334C16.8242 13.6118 17 13.8492 17 14.1182V14.524H3V14.1182C3 13.8492 3.17579 13.6118 3.43308 13.5334L4.1201 13.3239C4.31976 13.263 4.49824 13.1592 4.64611 13.024C4.89253 12.7986 5.05395 12.4861 5.08676 12.1398L5.62274 6.4822C5.83662 4.22464 7.73233 2.50003 10 2.50003C12.2677 2.50003 14.1634 4.22464 14.3773 6.4822L14.9132 12.1398ZM13.4199 12.2812C13.4444 12.5395 13.503 12.7887 13.5917 13.024H6.40827C6.49697 12.7887 6.55561 12.5395 6.58007 12.2812L7.11605 6.62367C7.25697 5.13628 8.50595 4.00003 10 4.00003C11.494 4.00003 12.743 5.13628 12.8839 6.62367L13.4199 12.2812ZM9.96423 17.5C11.0892 17.5 12.2142 16.551 12.2142 15.998C12.2142 15.4899 11.3638 15.4928 10.2618 15.4967C10.1644 15.497 10.0651 15.4974 9.96423 15.4974C9.86337 15.4974 9.76405 15.497 9.6667 15.4967C8.56469 15.4928 7.71423 15.4899 7.71423 15.998C7.71423 16.551 8.83923 17.5 9.96423 17.5Z" fill="#7B929D"/>
</svg>
