<svg xmlns="http://www.w3.org/2000/svg" width="20" height="20" fill="none" viewBox="0 0 20 20">
  <g class="20x20/Outline/bike">
    <path fill="#A5B7C0" d="M14.474 4.842a.5.5 0 0 1-.233.596l-.083.036-1.026.342 1.406 4.22a3 3 0 1 1-.948.316l-.539-1.616-3.66 4.576-.018.022a.487.487 0 0 1-.033.033l.05-.055a.497.497 0 0 1-.183.143l-.016.007a.498.498 0 0 1-.043.015l.059-.022a.5.5 0 0 1-.102.034l-.015.003-.026.004a.49.49 0 0 1-.048.004H7.958a3 3 0 1 1-1.583-3.167l.537-.717-.867-1.91A.498.498 0 0 1 6 7.5H5a.5.5 0 0 1-.09-.992L5 6.5h3a.5.5 0 0 1 .09.992L8 7.5h-.951l.548 1.205L7.6 8.7a.5.5 0 0 1 .214-.164l.088-.026 4.756-.952-.632-1.9a.5.5 0 0 1 .233-.596l.083-.036 1.5-.5a.5.5 0 0 1 .632.316ZM5 11a2 2 0 1 0 1.937 2.501L5 13.5a.5.5 0 0 1-.446-.727L4.6 12.7l1.163-1.55A1.994 1.994 0 0 0 5 11Zm10 0-.139.005.613 1.837a.5.5 0 0 1-.233.596l-.083.036a.5.5 0 0 1-.596-.233l-.036-.083-.613-1.837A2 2 0 1 0 15 11Zm-7.616-.346-.168.224L6 12.5h2.223l-.839-1.846Zm4.367-1.895-3.465.693-.218.29 1.05 2.309 2.633-3.292Z" class="Primary"/>
  </g>
</svg>
