<svg xmlns="http://www.w3.org/2000/svg" width="20" height="20" fill="none" viewBox="0 0 20 20">
  <g class="20x20/Outline/call">
    <path fill="#E5E9EB" fill-rule="evenodd" d="m13.423 16.644-.436 1.185-.615-.292C10.114 16.47 7.7 15.328 5.91 12.602 4.12 9.875 3.976 7.117 3.841 4.537a75.851 75.851 0 0 0-.038-.7l1.22.007.036.668c.142 2.625.27 5.003 1.836 7.39 1.565 2.384 3.646 3.372 5.941 4.462l.587.28Zm-3.52-5.326c.56-.89 1.991-1.45 2.996-.968l1.43.686c1.412.678 2.135 2.417 1.604 3.896l-.71 1.982c-.338.94-1.343 1.344-2.236.915l.436-1.185a.466.466 0 0 0 .655-.267l.711-1.982c.295-.821-.107-1.794-.897-2.173l-1.43-.686c-.527-.253-1.431.213-1.627.76l-.126.35c-.123.343-.501.486-.804.272a7.017 7.017 0 0 1-1.792-1.884 7.302 7.302 0 0 1-1.034-2.422.544.544 0 0 1 .536-.682l.357.005c.56.009 1.305-.7 1.27-1.303l-.094-1.637c-.052-.904-.776-1.647-1.618-1.66l-2.03-.03c-.28-.003-.494.238-.477.54l-1.219-.007C3.744 2.815 4.471 1.986 5.433 2l2.032.03c1.516.022 2.81 1.355 2.902 2.972l.095 1.637c.066 1.15-.953 2.334-1.953 2.555a6.064 6.064 0 0 0 1.395 2.124Z" class="Primary" clip-rule="evenodd"/>
  </g>
</svg>
