<svg xmlns="http://www.w3.org/2000/svg" width="20" height="20" fill="none" viewBox="0 0 20 20">
  <g class="20x20/Outline/certificate_text">
    <path fill="#698796" d="M15 2a1 1 0 0 1 1 1v12a1 1 0 0 1-1 1h-2v2l-2-1-2 1v-2H5a1 1 0 0 1-1-1V3a1 1 0 0 1 1-1h10Zm-4 12c-.35 0-.687-.06-1-.17v2.55l1-.498 1 .5v-2.553c-.312.11-.649.171-1 .171Zm3-3a3.046 3.046 0 0 1-.164.98 2.982 2.982 0 0 1-.698 1.124l-.017.017a2.978 2.978 0 0 1-.112.107l-.008.007L13 15h2V3H5v12h4v-1.764l-.015-.014a3.084 3.084 0 0 1-.114-.108l.13.122A2.996 2.996 0 0 1 8 11a3 3 0 0 1 6 0Zm-3-2a2 2 0 0 0-1.962 2.392l-.013-.074c.008.052.019.104.031.155l-.018-.081.03.129-.012-.048c.014.055.03.11.047.164l-.034-.116c.014.055.031.109.05.162l-.016-.046a1.984 1.984 0 0 0 .223.459l-.051-.084c.029.05.06.098.093.145l-.042-.061c.03.044.06.086.092.128l-.05-.067c.03.04.06.08.092.119l-.042-.052.09.11-.048-.058c.367.442.92.724 1.54.724a1.995 1.995 0 0 0 1.553-.739l-.086.098a1.81 1.81 0 0 0 .107-.125l-.021.027a1.97 1.97 0 0 0 .11-.149l-.09.122a1.59 1.59 0 0 0 .096-.132l-.006.01c.062-.092.116-.19.162-.291l.017-.04-.017.04c.02-.045.039-.09.055-.137l-.038.097c.02-.047.038-.095.054-.144l-.016.046a1.72 1.72 0 0 0 .052-.163l-.036.117a2.01 2.01 0 0 0 .048-.164l-.012.047c.011-.042.021-.085.03-.128l-.018.08c.012-.05.022-.102.03-.154l-.012.074a2 2 0 0 0-1.812-2.386L11 9Zm1-3v1H6V6h6Zm2-2v1H6V4h8Z" class="Primary"/>
  </g>
</svg>
