<svg xmlns="http://www.w3.org/2000/svg" width="20" height="20" fill="none" viewBox="0 0 20 20">
  <g class="20x20/Outline/compare">
    <path fill="#698796" fill-rule="evenodd" d="M9.5 3.5V6H11c.182 0 .353.049.5.134V5.5h1.751c.607 0 1.067.117 1.38.35.314.232.471.571.471 1.02 0 .245-.063.462-.188.65a1.095 1.095 0 0 1-.526.408c.257.064.458.193.604.388.15.195.224.433.224.714 0 .481-.154.845-.46 1.092-.307.248-.745.373-1.312.378H12v2h4.5v-9h-7ZM8 3v3H3a1 1 0 0 0-1 1v10a1 1 0 0 0 1 1h8a1 1 0 0 0 1-1v-3h5a1 1 0 0 0 1-1V3a1 1 0 0 0-1-1H9a1 1 0 0 0-1 1Zm4.53 6.672v-1.35h.945c.473.008.71.24.71.698a.597.597 0 0 1-.206.48c-.135.115-.323.172-.566.172h-.883Zm.763-2.077h-.763v-1.26h.721c.284 0 .492.05.622.15.133.099.2.262.2.488 0 .405-.26.613-.78.622ZM3.5 7.5v9h7v-9h-7Zm2.535 5.97h1.927l.37 1.03H9.5l-1.996-5H6.485l-1.985 5h1.169l.366-1.03Zm1.63-.835H6.332l.663-1.871.67 1.871Z" class="Primary" clip-rule="evenodd"/>
  </g>
</svg>
