<svg xmlns="http://www.w3.org/2000/svg" width="20" height="20" fill="none" viewBox="0 0 20 20">
  <g class="20x20/Outline/copy">
    <path fill="#698796" fill-rule="evenodd" d="M4.5 1.75A1.75 1.75 0 0 0 2.75 3.5v8c0 .966.784 1.75 1.75 1.75h7a1.75 1.75 0 0 0 1.75-1.75v-8a1.75 1.75 0 0 0-1.75-1.75h-7ZM4.25 3.5a.25.25 0 0 1 .25-.25h7a.25.25 0 0 1 .25.25v8a.25.25 0 0 1-.25.25h-7a.25.25 0 0 1-.25-.25v-8ZM14.7 8.25h.8a.25.25 0 0 1 .25.25v8a.25.25 0 0 1-.25.25h-7a.25.25 0 0 1-.25-.25v-2h-1.5v2c0 .966.784 1.75 1.75 1.75h7a1.75 1.75 0 0 0 1.75-1.75v-8a1.75 1.75 0 0 0-1.75-1.75h-.8v1.5Z" class="Primary" clip-rule="evenodd"/>
  </g>
</svg>
