<svg xmlns="http://www.w3.org/2000/svg" width="20" height="20" fill="none" viewBox="0 0 20 20">
  <g class="20x20/Outline/default">
    <path fill="#A5B7C0" d="M7.5 15.5v2h-1v-2h1Zm2 0v2h-1v-2h1Zm2 0v2h-1v-2h1Zm2 0v2h-1v-2h1Zm0-10a1 1 0 0 1 1 1v7a1 1 0 0 1-1 1h-7a1 1 0 0 1-1-1v-7a1 1 0 0 1 1-1h7Zm0 1h-7v7h7v-7Zm4 6v1h-2v-1h2Zm-13 0v1h-2v-1h2Zm13-2v1h-2v-1h2Zm-13 0v1h-2v-1h2Zm13-2v1h-2v-1h2Zm-13 0v1h-2v-1h2Zm13-2v1h-2v-1h2Zm-13 0v1h-2v-1h2Zm3-4v2h-1v-2h1Zm2 0v2h-1v-2h1Zm2 0v2h-1v-2h1Zm2 0v2h-1v-2h1Z" class="Primary"/>
  </g>
</svg>
