<svg xmlns="http://www.w3.org/2000/svg" width="20" height="20" fill="none" viewBox="0 0 20 20">
  <g class="20x20/Outline/difference">
    <path fill="#698796" d="M11.25 9.5h1.5V8h1.5V6.5h-1.5V5h-1.5v1.5h-1.5V8h1.5v1.5Zm-1.5 3h4.5V11h-4.5v1.5ZM7.5 16a1.44 1.44 0 0 1-1.052-.448A1.44 1.44 0 0 1 6 14.5v-12c0-.403.15-.753.448-1.052A1.44 1.44 0 0 1 7.5 1H14l4 4v9.5c0 .403-.15.754-.448 1.052A1.44 1.44 0 0 1 16.5 16h-9Zm0-1.5h9V5.625L13.375 2.5H7.5v12Zm-3 4.5a1.44 1.44 0 0 1-1.052-.448A1.44 1.44 0 0 1 3 17.5V6h1.5v11.5h9V19h-9Z" class="Primary"/>
  </g>
</svg>
