<svg xmlns="http://www.w3.org/2000/svg" width="20" height="20" fill="none" viewBox="0 0 20 20">
  <g class="20x20/Outline/edit">
    <path fill="#698796" fill-rule="evenodd" d="m12.888 5.039 1.327-1.328 2.075 2.076-1.327 1.327-2.075-2.075Zm-1.061 1.06-7.449 7.449-.691 2.767 2.767-.692 7.448-7.448-2.075-2.076Zm3.136 3.136-7.742 7.743-3.979.994a1 1 0 0 1-1.213-1.212l.995-3.98L13.508 2.298a1 1 0 0 1 1.414 0l2.782 2.782a1 1 0 0 1 0 1.415l-1.68 1.68-1.061 1.061Z" class="Primary" clip-rule="evenodd"/>
  </g>
</svg>
