<svg xmlns="http://www.w3.org/2000/svg" width="20" height="20" fill="none" viewBox="0 0 20 20">
  <g class="20x20/Outline/email">
    <path fill="#E1E7EA" d="M10.014 18c-.359 0-.72-.023-1.073-.069a8.01 8.01 0 0 1-4.589-2.284 7.964 7.964 0 0 1-2.277-4.584 7.912 7.912 0 0 1 1.553-5.906 7.947 7.947 0 0 1 5.284-3.082 7.994 7.994 0 0 1 9.008 6.819 7.952 7.952 0 0 1-.362 3.744 2.561 2.561 0 0 1-2.405 1.687h-.027a2.596 2.596 0 0 1-2.322-1.464l-.096-.2-.164.148a3.78 3.78 0 0 1-2.553.988 3.766 3.766 0 0 1-2.28-.762 3.746 3.746 0 0 1-1.467-2.49 3.736 3.736 0 0 1 .727-2.796 3.752 3.752 0 0 1 3.023-1.5c.826 0 1.615.263 2.277.762l.263.197V6.87a.624.624 0 0 1 1.25 0v4.863c0 .735.602 1.335 1.339 1.338h.03c.54 0 1.033-.338 1.22-.846v-.003c.148-.427.253-.87.313-1.32a6.669 6.669 0 0 0-1.33-4.974 6.7 6.7 0 0 0-4.467-2.58 6.765 6.765 0 0 0-4.36.9c-3.18 1.916-4.217 6.057-2.302 9.237a6.75 6.75 0 0 0 2.51 2.421c1 .552 2.135.844 3.28.844a6.731 6.731 0 0 0 3.464-.962.627.627 0 0 1 .931.686.622.622 0 0 1-.283.384A7.951 7.951 0 0 1 10.03 18h-.016Zm-.01-10.5a2.531 2.531 0 0 0-2.533 2.526 2.531 2.531 0 0 0 2.533 2.527 2.535 2.535 0 0 0 2.533-2.527A2.531 2.531 0 0 0 10.004 7.5Z" class="Primary"/>
  </g>
</svg>
