<svg xmlns="http://www.w3.org/2000/svg" width="20" height="20" fill="none" viewBox="0 0 20 20">
  <g class="20x20/Outline/emergency">
    <path fill="#A5B7C0" d="M11 3a1 1 0 0 1 1 1v1h-.5a3 3 0 0 1 2.4 1.2L16 9h2a2 2 0 0 1 2 2v1a2 2 0 0 1-2 2h-.05a2.5 2.5 0 0 1-4.9 0h-5.1a2.5 2.5 0 0 1-4.9 0H2a2 2 0 0 1-2-2V9.667a2 2 0 0 1 .4-1.2L2.7 5.4a1 1 0 0 1 .8-.4H10V4a1 1 0 0 1 1-1ZM9 6H3.5L1.2 9.067a1 1 0 0 0-.192.47L1 9.668V12a1 1 0 0 0 .883.993L2 13h1.05a2.5 2.5 0 0 1 4.9 0h5.1a2.5 2.5 0 0 1 4.9 0H18a1 1 0 0 0 .993-.883L19 12v-1a1 1 0 0 0-.883-.993L18 10H9V6ZM6 7v.999L7 8v1l-1-.001V10H5V8.999L4 9V8l1-.001V7h1Zm5.5-1H10v3h4.75L13.1 6.8a2 2 0 0 0-1.43-.793L11.5 6Zm-7.484 7.28c-.01.072-.016.145-.016.22l.008.16.009.067.004.023-.003-.015.006.034.003.018.003.012.003.015.017.07-.004-.014.004.015.001.003.008.027.025.082a1.5 1.5 0 0 0 2.884-.188l.002-.011.006-.03.005-.033-.003.015.005-.023.003-.034h.001l.002-.016-.003.016.01-.078c.003-.038.004-.076.004-.115l-.009-.165a1.541 1.541 0 0 0-.007-.055v-.001l-.009-.052.004.027-.014-.08-.01-.043-.005-.012.001.001-.003-.008-.004-.018a1.466 1.466 0 0 0-.024-.079l.007.027-.011-.038a1.5 1.5 0 0 0-2.88.17l-.011.053-.005.027-.004.026Zm10 0c-.01.072-.016.145-.016.22l.008.16.009.067.004.023-.003-.015.006.034.003.018.003.012.003.015.017.07-.004-.014.004.015.001.003.008.027.025.082a1.5 1.5 0 0 0 2.884-.188l.002-.011.006-.03.005-.033-.003.015.005-.023.003-.034h.001l.002-.016-.003.016.01-.078A1.55 1.55 0 0 0 17 13.5l-.009-.165a1.693 1.693 0 0 0-.007-.055v-.001l-.009-.052.004.027-.014-.08-.01-.043-.005-.012.001.001-.003-.008-.004-.018a1.465 1.465 0 0 0-.024-.079l.007.027-.011-.038a1.5 1.5 0 0 0-2.88.17l-.011.053-.005.027-.004.026Z" class="Primary"/>
  </g>
</svg>
