<svg xmlns="http://www.w3.org/2000/svg" width="20" height="20" fill="none" viewBox="0 0 20 20">
  <g class="20x20/Outline/error">
    <path fill="#EF5350" fill-rule="evenodd" d="M3.5 6.828v6.344a.5.5 0 0 0 .146.353l2.829 2.829a.5.5 0 0 0 .353.146h6.344a.5.5 0 0 0 .353-.146l2.829-2.829a.5.5 0 0 0 .146-.353V6.828a.5.5 0 0 0-.146-.353l-2.829-2.829a.5.5 0 0 0-.353-.146H6.828a.5.5 0 0 0-.353.146L3.646 6.475a.5.5 0 0 0-.146.353Zm-.914-1.414A2 2 0 0 0 2 6.828v6.344a2 2 0 0 0 .586 1.414l2.828 2.828A2 2 0 0 0 6.828 18h6.344a2 2 0 0 0 1.414-.586l2.828-2.828A2 2 0 0 0 18 13.172V6.828a2 2 0 0 0-.586-1.414l-2.828-2.828A2 2 0 0 0 13.172 2H6.828a2 2 0 0 0-1.414.586L2.586 5.414ZM8.939 10 6.733 7.794l1.06-1.061L10 8.939l2.206-2.206 1.061 1.06L11.061 10l2.206 2.206-1.06 1.061L10 11.061l-2.206 2.206-1.061-1.06L8.939 10Z" class="Primary" clip-rule="evenodd"/>
  </g>
</svg>
