<svg xmlns="http://www.w3.org/2000/svg" width="20" height="20" fill="none" viewBox="0 0 20 20">
  <g class="20x20/Outline/event_rules">
    <path fill="#698796" fill-rule="evenodd" d="M14.913 12.14a1.373 1.373 0 0 0 .967 1.184l.687.21a.611.611 0 0 1 .433.584v.406H3v-.406c0-.269.176-.506.433-.585l.687-.21a1.372 1.372 0 0 0 .967-1.183l.536-5.658a4.397 4.397 0 0 1 8.754 0l.536 5.658Zm-1.493.141c.024.258.083.508.172.743H6.408c.089-.235.148-.484.172-.743l.536-5.657a2.897 2.897 0 0 1 5.768 0l.536 5.657ZM9.964 17.5c1.125 0 2.25-.949 2.25-1.502 0-.508-.85-.505-1.952-.501h-.595c-1.102-.004-1.953-.007-1.953.501 0 .553 1.125 1.502 2.25 1.502Z" class="Primary" clip-rule="evenodd"/>
  </g>
</svg>
