<svg xmlns="http://www.w3.org/2000/svg" width="20" height="20" fill="none" viewBox="0 0 20 20">
  <g class="20x20/Outline/export">
    <path fill="#698796" fill-rule="evenodd" d="M4.5 4.25a.25.25 0 0 0-.25.25v11.005c0 .138.112.25.25.25h10.982a.25.25 0 0 0 .25-.25v-5.07a.75.75 0 1 1 1.5 0v5.07a1.75 1.75 0 0 1-1.75 1.75H4.5a1.75 1.75 0 0 1-1.75-1.75V4.5c0-.966.784-1.75 1.75-1.75h5.058a.75.75 0 1 1 0 1.5H4.5Zm7.304-.738a.75.75 0 0 1 .75-.75h4.7v4.71a.75.75 0 1 1-1.498 0v-2.07L9.67 11.496l-1.06-1.061 6.163-6.173h-2.22a.75.75 0 0 1-.75-.75Z" class="Primary" clip-rule="evenodd"/>
  </g>
</svg>
