<svg xmlns="http://www.w3.org/2000/svg" width="20" height="20" fill="none" viewBox="0 0 20 20">
  <g class="20x20/Outline/face">
    <path fill="#A5B7C0" d="M8.714 1.5c2.094 0 3.525.236 4.245.794a2 2 0 0 1 3.036 1.556L16 4l.001 4.268a2 2 0 0 1 0 3.464L16 12a6 6 0 0 1-12 0l-.001-.268a2 2 0 0 1-.001-3.463l.001-1.018-.112.013-.181.018-.134.007-.104-.003-.09-.01-.145-.033c-.499-.12-.733-.516-.733-1.105C2.5 3.788 4.87 1.5 8.714 1.5Zm4.175 4.632-.123.08c-1.76 1.125-3.543 1.517-5.33 1.16l-.268-.058-.31-.069a6.566 6.566 0 0 0-1.856-.102L5 11v1a5 5 0 0 0 9.995.217L15 12V7a2.99 2.99 0 0 1-2.111-.868Zm-.557 7.494a.5.5 0 0 1 .042.706C11.69 15.1 10.892 15.5 10 15.5c-.892 0-1.69-.4-2.374-1.168a.5.5 0 0 1 .748-.664c.502.565 1.036.832 1.626.832.59 0 1.124-.267 1.626-.832a.5.5 0 0 1 .706-.042ZM8 9.5a.5.5 0 0 1 .09.992L8 10.5H7a.5.5 0 0 1-.09-.992L7 9.5h1Zm5 0a.5.5 0 0 1 .09.992L13 10.5h-1a.5.5 0 0 1-.09-.992L12 9.5h1Zm-4.286-7c-1.936 0-3.396.637-4.271 1.525l-.132.14a3.572 3.572 0 0 0-.3.386 2.889 2.889 0 0 0-.506 1.433l-.005.154-.004.102c-.003.02-.007.03-.015.034l.014.003.014.002.068.004.1-.005.322-.035.703-.078c.101-.01.2-.018.298-.024l.05-.004a7.432 7.432 0 0 1 1.999.126l.354.079.263.057c1.492.288 2.987-.038 4.504-.993l.134-.088.134-.087.062-.043V3.379l-.001-.011-.007-.055a.357.357 0 0 0-.005-.02l-.009-.025-.003-.008.002.007-.007-.016.003.005-.011-.022-.001-.001-.007-.014-.004-.007-.026-.038a.531.531 0 0 0-.068-.072l.013.012-.015-.014-.011-.009-.024-.02-.017-.013-.056-.04c-.333-.214-.996-.381-2.01-.463l-.237-.017-.485-.024-.529-.013-.27-.001ZM14 3a.995.995 0 0 0-.519.145c.007.035.01.07.014.106l.005.128v1.944a2 2 0 0 0 1.35.672L15 6V4a1 1 0 0 0-1-1Z" class="Primary"/>
  </g>
</svg>
