<svg xmlns="http://www.w3.org/2000/svg" width="20" height="20" fill="none" viewBox="0 0 20 20">
  <g class="20x20/Outline/fan">
    <path fill="#E5E9EB" fill-rule="evenodd" d="M12.375 9.219a2.505 2.505 0 0 0-1.75-1.64V3.125H11c1.893 0 3.375 1.454 3.375 3.185 0 1.28-.809 2.408-2 2.909Zm.046 1.406a2.505 2.505 0 0 1-1.64 1.75c.501 1.191 1.628 2 2.91 2 1.73 0 3.184-1.482 3.184-3.375v-.375h-4.454Zm-3.046 1.796a2.505 2.505 0 0 1-1.75-1.64c-1.191.502-2 1.628-2 2.91 0 1.73 1.482 3.184 3.375 3.184h.375v-4.454ZM7.579 9.375a2.505 2.505 0 0 1 1.64-1.75c-.501-1.191-1.628-2-2.91-2-1.73 0-3.184 1.482-3.184 3.375v.375h4.454Zm8.046-3.065a4.319 4.319 0 0 1-1.283 3.065H17.5c.345 0 .625.28.625.625v1c0 2.525-1.957 4.625-4.434 4.625a4.319 4.319 0 0 1-3.066-1.283V17.5c0 .345-.28.625-.625.625H9c-2.525 0-4.625-1.957-4.625-4.434 0-1.197.491-2.273 1.283-3.066H2.5A.625.625 0 0 1 1.875 10V9c0-2.525 1.957-4.625 4.435-4.625 1.196 0 2.272.491 3.065 1.283V2.5c0-.345.28-.625.625-.625h1c2.525 0 4.625 1.957 4.625 4.435ZM10 11.25a1.25 1.25 0 1 1 0-2.5 1.25 1.25 0 0 1 0 2.5Z" class="Primary" clip-rule="evenodd"/>
  </g>
</svg>
