<svg xmlns="http://www.w3.org/2000/svg" width="20" height="20" fill="none" viewBox="0 0 20 20">
  <g class="20x20/Outline/folder">
    <path fill="#698796" fill-rule="evenodd" d="M17.417 17.75c.736 0 1.333-.597 1.333-1.333v-9.84c0-.757-.636-1.302-1.333-1.302H11.52l-1.598-2.45-.008-.011a1.343 1.343 0 0 0-1.098-.564H2.583c-.697 0-1.333.544-1.333 1.302v12.87c0 .772.649 1.328 1.36 1.328h14.807Zm0-1.5Zm-.75 0H2.75V3.75h5.985l1.611 2.472.008.011a1.29 1.29 0 0 0 1.056.542h5.84v9.475h-.583Z" class="Primary" clip-rule="evenodd"/>
  </g>
</svg>
