<svg xmlns="http://www.w3.org/2000/svg" width="20" height="20" fill="none" viewBox="0 0 20 20">
  <g class="20x20/Outline/image_hide">
    <path fill="#698796" fill-rule="evenodd" d="m18.381 3.554 1.117-.993-.996-1.122L16.746 3 15.06 4.5 2.755 15.436l-1.136 1.01-1.117.993.996 1.122L3.254 17l7.122-6.33 6.869-6.106 1.136-1.01ZM17 17H5.512l1.687-1.5H17a.5.5 0 0 0 .5-.5v-4.066l-2.43 2.126a1.75 1.75 0 0 1-2.123.14l-1.713-1.143a.249.249 0 0 0-.116-.04l1.182-1.051 1.479.985a.25.25 0 0 0 .303-.02l3.418-2.99V6.344L19 5.01V15a2 2 0 0 1-2 2ZM5.654 10.853l3.282-2.918a2.501 2.501 0 1 0-3.282 2.918ZM3 4.5h9.8L14.489 3H3a2 2 0 0 0-2 2v9.99l1.5-1.334V5a.5.5 0 0 1 .5-.5Zm3.5 5a1 1 0 1 0 0-2 1 1 0 0 0 0 2Z" class="Primary" clip-rule="evenodd"/>
  </g>
</svg>
