<svg xmlns="http://www.w3.org/2000/svg" width="20" height="20" fill="none" viewBox="0 0 20 20">
  <g class="20x20/Outline/image">
    <path fill="#698796" fill-rule="evenodd" d="M17 4.5H3a.5.5 0 0 0-.5.5v10a.5.5 0 0 0 .5.5h1.94a.751.751 0 0 1 .055-.055l4.923-4.475a1.75 1.75 0 0 1 2.148-.16l1.713 1.141a.25.25 0 0 0 .303-.02l3.418-2.99V5a.5.5 0 0 0-.5-.5Zm.5 6.434-2.43 2.126a1.75 1.75 0 0 1-2.123.14l-1.713-1.143a.25.25 0 0 0-.307.023L7.165 15.5H17a.5.5 0 0 0 .5-.5v-4.066ZM3 3a2 2 0 0 0-2 2v10a2 2 0 0 0 2 2h14a2 2 0 0 0 2-2V5a2 2 0 0 0-2-2H3Zm3.5 6.5a1 1 0 1 0 0-2 1 1 0 0 0 0 2Zm0 1.5a2.5 2.5 0 1 0 0-5 2.5 2.5 0 0 0 0 5Z" class="Primary" clip-rule="evenodd"/>
  </g>
</svg>
