<svg xmlns="http://www.w3.org/2000/svg" width="20" height="20" fill="none" viewBox="0 0 20 20">
  <g class="20x20/Outline/import">
    <path fill="#698796" fill-rule="evenodd" d="m2.647 3.715 6.047 5.98H6.498a.75.75 0 0 0 0 1.502h4.692V6.494a.75.75 0 1 0-1.498 0v2.079L3.699 2.646 2.647 3.715Zm13.103.807a.25.25 0 0 0-.25-.25h-5.046a.75.75 0 0 1 0-1.5H15.5c.966 0 1.75.784 1.75 1.75v10.982a1.75 1.75 0 0 1-1.75 1.75H4.544a1.75 1.75 0 0 1-1.75-1.75v-5.058a.75.75 0 0 1 1.5 0v5.059c0 .138.112.25.25.25H15.5a.25.25 0 0 0 .25-.25V4.521Z" class="Primary" clip-rule="evenodd"/>
  </g>
</svg>
