<svg xmlns="http://www.w3.org/2000/svg" width="20" height="20" fill="none" viewBox="0 0 20 20">
  <g class="20x20/Outline/key">
    <path fill="#E1E7EA" fill-rule="evenodd" d="M12.639 12.825a5.09 5.09 0 0 0-1.588-3.687L13.2 7.047l1.11 1.08c.462.45 1.21.45 1.672 0l1.672-1.626a1.128 1.128 0 0 0 0-1.626l-1.11-1.08.835-.813a.564.564 0 0 0 0-.814.603.603 0 0 0-.836 0l-6.428 6.254a5.405 5.405 0 0 0-2.796-.771C4.382 7.65 2 9.968 2 12.825 2 15.683 4.382 18 7.32 18c2.937 0 5.319-2.317 5.319-5.175Zm-5.32 4.025c2.285 0 4.138-1.802 4.138-4.025 0-2.222-1.853-4.024-4.138-4.024s-4.137 1.802-4.137 4.024c0 2.223 1.852 4.025 4.137 4.025Zm7.827-9.536-1.082-1.06 1.672-1.625 1.082 1.059-1.672 1.626Z" class="Primary" clip-rule="evenodd"/>
  </g>
</svg>
