<svg xmlns="http://www.w3.org/2000/svg" width="20" height="20" fill="none" viewBox="0 0 20 20">
  <g class="20x20/Outline/loading">
    <path fill="#698796" fill-rule="evenodd" d="M10.05 2.45c-2.753 0-5.179 1.436-6.458 3.564l-.007.011c-.563.976-.913 1.973-1.03 2.989a.75.75 0 1 0 1.49.172c.09-.782.362-1.583.836-2.405C5.887 5.11 7.82 3.95 10.05 3.95c3.351 0 6 2.59 6 5.75a.75.75 0 0 0 1.5 0c0-4.04-3.374-7.25-7.5-7.25Zm-5.743 9.519a.75.75 0 1 0-1.452.375c.227.88.674 1.61 1.206 2.202a.75.75 0 0 0 1.115-1.004 3.743 3.743 0 0 1-.869-1.573Zm11.724.84a.75.75 0 0 1 .515.928 1.395 1.395 0 0 1-.173.364 3.25 3.25 0 0 1-.175.242 9.01 9.01 0 0 1-.143.176l-.008.01-.056.068-.003.004a.75.75 0 1 1-1.226-.864c.037-.053.089-.116.122-.156l.007-.008.006-.007.12-.149c.043-.053.074-.097.095-.129l.007-.01a.75.75 0 0 1 .912-.468Zm-.904.455-.002.003.002-.003Zm-1.566 2.34c.25.33.185.8-.145 1.05-.341.258-.803.398-1.11.491l-.051.016a.75.75 0 0 1-.439-1.434c.392-.12.592-.191.694-.269a.75.75 0 0 1 1.05.145Zm-7.298-.002a.75.75 0 0 1 1.036-.23 3.745 3.745 0 0 0 1.708.559.75.75 0 1 1-.13 1.494 5.24 5.24 0 0 1-2.385-.788.75.75 0 0 1-.229-1.035Z" class="Primary" clip-rule="evenodd"/>
  </g>
</svg>
