<svg xmlns="http://www.w3.org/2000/svg" width="20" height="20" fill="none" viewBox="0 0 20 20">
  <g class="20x20/Outline/login">
    <path fill="#698796" fill-rule="evenodd" d="M8.305 3.805c-.015.016-.055.065-.055.195v3a.75.75 0 0 1-1.5 0V4c0-.47.16-.92.495-1.255.334-.335.785-.495 1.255-.495h8c.47 0 .92.16 1.255.495.335.334.495.785.495 1.255v12c0 .47-.16.92-.495 1.255-.334.335-.785.495-1.255.495h-8c-.47 0-.92-.16-1.255-.495-.335-.334-.495-.785-.495-1.255v-3a.75.75 0 0 1 1.5 0v3c0 .13.04.18.055.195.016.015.065.055.195.055h8c.13 0 .18-.04.195-.055.015-.016.055-.065.055-.195V4c0-.13-.04-.18-.055-.195-.016-.015-.065-.055-.195-.055h-8c-.13 0-.18.04-.195.055ZM10.47 7.47a.75.75 0 0 1 1.06 0L14.06 10l-2.53 2.53a.75.75 0 1 1-1.06-1.06l.72-.72H1.75v-1.5h9.44l-.72-.72a.75.75 0 0 1 0-1.06Z" class="Primary" clip-rule="evenodd"/>
  </g>
</svg>
