<svg xmlns="http://www.w3.org/2000/svg" width="20" height="20" fill="none" viewBox="0 0 20 20">
  <g class="20x20/Outline/logout">
    <path fill="#698796" fill-rule="evenodd" d="M11.69 3.805c.015.016.055.065.055.195v3a.75.75 0 0 0 1.5 0V4c0-.47-.16-.92-.494-1.255-.335-.335-.785-.495-1.255-.495H3.499c-.47 0-.92.16-1.255.495C1.91 3.079 1.75 3.53 1.75 4v12c0 .47.16.92.494 1.255.335.335.785.495 1.255.495h7.997c.47 0 .92-.16 1.255-.495.334-.334.494-.785.494-1.255v-3a.75.75 0 0 0-1.5 0v3c0 .13-.04.18-.055.195-.015.015-.065.055-.194.055H3.499c-.129 0-.179-.04-.194-.055-.015-.016-.055-.065-.055-.195V4c0-.13.04-.18.055-.195.015-.015.065-.055.194-.055h7.997c.13 0 .179.04.194.055Zm3.074 3.665a.75.75 0 0 1 1.06 0l2.53 2.53-2.53 2.53a.75.75 0 1 1-1.06-1.06l.72-.72H6.047v-1.5h9.435l-.72-.72a.75.75 0 0 1 0-1.06Z" class="Primary" clip-rule="evenodd"/>
  </g>
</svg>
