<svg xmlns="http://www.w3.org/2000/svg" width="20" height="20" fill="none" viewBox="0 0 20 20">
  <g class="20x20/Outline/missed_call">
    <path fill="#EF5350" fill-rule="evenodd" d="M3.343 3.923a.624.624 0 0 0-.84.274.628.628 0 0 0 .273.843L9.65 8.553c.19.097.418.09.602-.02l5.263-3.13-.464 1.922a.625.625 0 1 0 1.215.295l.812-3.367a.627.627 0 0 0-.43-.75l-3.313-.977a.628.628 0 0 0-.353 1.203l1.935.571L9.91 7.278 3.342 3.923Zm-.717 8.146-.564.34c-.823.493-1.064 1.517-.523 2.285l1.141 1.62c.852 1.21 2.595 1.546 3.896.767l1.318-.79c.926-.554 1.281-2.002.9-2.923.376-.083.78-.13 1.206-.13.425 0 .83.047 1.205.13-.38.921-.025 2.368.9 2.923l1.319.789c1.301.78 3.044.442 3.896-.767l1.14-1.62c.542-.768.3-1.792-.522-2.285l-.561-.338c-2.07-1.256-4.283-2.598-7.377-2.598-3.093 0-5.305 1.342-7.374 2.597Zm14.099.994.536.324a.46.46 0 0 1 .154.668l-1.14 1.62c-.474.672-1.447.862-2.175.427l-1.318-.79c-.485-.29-.623-1.265-.308-1.713l.2-.284a.515.515 0 0 0-.231-.792A6.698 6.698 0 0 0 10 12.075c-.892 0-1.72.165-2.443.448a.515.515 0 0 0-.232.792l.2.286c.316.447.178 1.422-.307 1.712l-1.318.79c-.728.435-1.701.245-2.174-.427l-1.141-1.62a.46.46 0 0 1 .154-.668l.538-.325h.001C5.385 11.79 7.294 10.636 10 10.636c2.707 0 4.617 1.154 6.725 2.427Z" class="Primary" clip-rule="evenodd"/>
  </g>
</svg>
