<svg xmlns="http://www.w3.org/2000/svg" width="20" height="20" fill="none" viewBox="0 0 20 20">
  <g class="20x20/Outline/motion">
    <path fill="#E1E7EA" fill-rule="evenodd" d="M11.834 4.667a1.333 1.333 0 1 0 0-2.667 1.333 1.333 0 0 0 0 2.667Zm.18 9.078V18h1.279v-5.18l-1.94-1.496.831-2.813c.64.736 1.333 1.288 2.079 1.656.746.368 1.285.552 2.237.552V9.65c-.853 0-1.289-.184-1.928-.552-.64-.368-1.144-.801-1.514-1.3l-.895-1.193a1.497 1.497 0 0 0-.565-.454 1.8 1.8 0 0 0-.757-.15c-.199 0-.394.02-.586.061a8.818 8.818 0 0 0-.97.312L5.789 7.602v3.116h1.279V8.332L9.2 7.496l-1.557 6.57-4.242-.713-.234.997 5.649.98.895-3.348 2.303 1.763Z" class="Primary" clip-rule="evenodd"/>
  </g>
</svg>
