<svg xmlns="http://www.w3.org/2000/svg" width="20" height="20" fill="none" viewBox="0 0 20 20">
  <g class="20x20/Outline/network">
    <g class="Primary">
      <path fill="#E1E7EA" fill-rule="evenodd" d="M5.036 7.353h1.178c.651 0 1.179-.543 1.179-1.213V3.713c0-.67-.528-1.213-1.179-1.213H2.68c-.651 0-1.179.543-1.179 1.213V6.14c0 .67.528 1.213 1.179 1.213h1.178v9.706h1.179V7.353Zm1.178-3.64H2.68V6.14h3.535V3.713Z" clip-rule="evenodd"/>
      <path fill="#E1E7EA" d="M16.821 14.633h-4.714v1.213h1.768c.325 0 .59.271.59.606a.598.598 0 0 1-.59.607H7.982a.598.598 0 0 1-.59-.607c0-.335.265-.606.59-.606H9.75v-1.213H6.214v-1.214h10.607V3.713h-8.25V2.5h8.25c.651 0 1.179.543 1.179 1.213v9.706c0 .67-.528 1.213-1.179 1.213Z"/>
    </g>
  </g>
</svg>
