<svg xmlns="http://www.w3.org/2000/svg" width="20" height="20" fill="none" viewBox="0 0 20 20">
  <g class="20x20/Outline/pin">
    <path fill="#698796" d="m15.393 2.779.114.078a6.13 6.13 0 0 1 1.62 1.62l.078.115a1.676 1.676 0 0 1-.136 2.057l-4.296 4.827.009.009a2.05 2.05 0 0 1 .38 1.98l-.529 1.578a1.03 1.03 0 0 1-1.701.404l-2.5-2.499-5.022 4.415a.549.549 0 0 1-.75-.023.545.545 0 0 1-.023-.747l4.434-5.007-2.494-2.493a1.027 1.027 0 0 1 .405-1.702l1.578-.529a2.051 2.051 0 0 1 1.944.351l4.832-4.298a1.676 1.676 0 0 1 2.056-.136ZM7.007 7.803l-.124.033-1.578.529 2.45 2.45 1.455 1.45-.003.002 2.452 2.453.529-1.578c.11-.329.047-.687-.161-.955l-.085-.096-4.008-4.008a1.024 1.024 0 0 0-.927-.28Zm7.088-4.18-.078.059-4.775 4.246 2.813 2.813 4.247-4.774a.65.65 0 0 0 .102-.71l-.049-.085-.078-.115a5.109 5.109 0 0 0-1.127-1.19l-.223-.16-.114-.078a.648.648 0 0 0-.718-.007Z" class="Primary"/>
  </g>
</svg>
