<svg xmlns="http://www.w3.org/2000/svg" width="20" height="20" fill="none" viewBox="0 0 20 20">
  <g class="20x20/Outline/plugins">
    <path fill="#698796" fill-rule="evenodd" d="M13.112 5.947V3.824a1.324 1.324 0 0 0-2.647 0v2.123H5.947v4.518H3.824a1.324 1.324 0 0 0 0 2.647h2.123V16.5h1.87v-.875a3.353 3.353 0 1 1 6.707 0v.875H16.5V5.947h-3.388ZM13.024 18v-2.375a1.853 1.853 0 1 0-3.706 0V18h-3.87a1 1 0 0 1-1-1v-2.388h-.624a2.824 2.824 0 1 1 0-5.647h.623V5.447a1 1 0 0 1 1-1h3.518v-.623a2.824 2.824 0 0 1 5.647 0v.623H17a1 1 0 0 1 1 1V17a1 1 0 0 1-1 1h-3.976Z" class="Primary" clip-rule="evenodd"/>
  </g>
</svg>
