<svg xmlns="http://www.w3.org/2000/svg" width="20" height="20" fill="none" viewBox="0 0 20 20">
  <g class="20x20/Outline/plugins">
    <g class="Primary">
      <mask id="a" fill="#fff" class="a">
        <path fill-rule="evenodd" d="M11.788 1a2.824 2.824 0 0 1 2.824 2.824v.623H17a1 1 0 0 1 1 1V17a1 1 0 0 1-1 1h-3.976v-2.375a1.853 1.853 0 1 0-3.706 0V18h-3.87a1 1 0 0 1-1-1v-2.388h-.624a2.824 2.824 0 1 1 0-5.647h.623V5.447a1 1 0 0 1 1-1h3.518v-.623A2.824 2.824 0 0 1 11.788 1Z" clip-rule="evenodd"/>
      </mask>
      <path fill="#698796" d="M14.612 4.447h-1.5v1.5h1.5v-1.5ZM13.024 18h-1.5v1.5h1.5V18Zm-3.706 0v1.5h1.5V18h-1.5Zm-4.87-3.388h1.5v-1.5h-1.5v1.5Zm0-5.647v1.5h1.5v-1.5h-1.5Zm4.517-4.518v1.5h1.5v-1.5h-1.5Zm7.147-.623A4.324 4.324 0 0 0 11.788-.5v3c.731 0 1.324.593 1.324 1.324h3Zm0 .623v-.623h-3v.623h3Zm.888-1.5h-2.388v3H17v-3Zm2.5 2.5a2.5 2.5 0 0 0-2.5-2.5v3a.5.5 0 0 1-.5-.5h3ZM19.5 17V5.447h-3V17h3ZM17 19.5a2.5 2.5 0 0 0 2.5-2.5h-3a.5.5 0 0 1 .5-.5v3Zm-3.976 0H17v-3h-3.976v3Zm-1.5-3.875V18h3v-2.375h-3Zm-.353-.353c.195 0 .353.158.353.353h3a3.353 3.353 0 0 0-3.353-3.353v3Zm-.353.353c0-.195.158-.353.353-.353v-3a3.353 3.353 0 0 0-3.353 3.353h3Zm0 2.375v-2.375h-3V18h3Zm-5.37 1.5h3.87v-3h-3.87v3Zm-2.5-2.5a2.5 2.5 0 0 0 2.5 2.5v-3a.5.5 0 0 1 .5.5h-3Zm0-2.388V17h3v-2.388h-3Zm.876 1.5h.623v-3h-.623v3ZM-.5 11.788a4.324 4.324 0 0 0 4.324 4.324v-3A1.323 1.323 0 0 1 2.5 11.788h-3Zm4.324-4.323A4.324 4.324 0 0 0-.5 11.788h3c0-.73.593-1.323 1.324-1.323v-3Zm.623 0h-.623v3h.623v-3Zm-1.5-2.018v3.518h3V5.447h-3Zm2.5-2.5a2.5 2.5 0 0 0-2.5 2.5h3a.5.5 0 0 1-.5.5v-3Zm3.518 0H5.447v3h3.518v-3Zm-1.5.877v.623h3v-.623h-3ZM11.788-.5a4.324 4.324 0 0 0-4.323 4.324h3c0-.731.592-1.324 1.323-1.324v-3Z" mask="url(#a)"/>
    </g>
  </g>
</svg>
