<svg xmlns="http://www.w3.org/2000/svg" width="20" height="20" fill="none" viewBox="0 0 20 20">
  <g class="20x20/Outline/print">
    <path fill="#698796" fill-rule="evenodd" d="M7.02 2.25a1.56 1.56 0 0 0-1.562 1.558v2.054h-.631a.75.75 0 0 0-.11.008A2.316 2.316 0 0 0 2.75 8.174v4.518c0 .63.251 1.231.697 1.675a2.38 2.38 0 0 0 1.644.69L5 16.051a1.56 1.56 0 0 0 1.556 1.699h6.888a1.567 1.567 0 0 0 1.48-1.06c.07-.205.096-.423.076-.64l-.09-.993a2.382 2.382 0 0 0 2.159-1.458 2.35 2.35 0 0 0 .181-.907V8.174c0-1.133-.812-2.132-1.966-2.304a.75.75 0 0 0-.11-.008h-.632V3.808a1.56 1.56 0 0 0-1.563-1.558H7.021Zm6.022 3.612H6.958V3.808a.06.06 0 0 1 .063-.058h5.958a.06.06 0 0 1 .063.058v2.054Zm-7.917 7.696h.103l.14-1.53a.75.75 0 0 1 .23-1.465h8.735a.75.75 0 0 1 .297 1.44l.142 1.555h.103a.883.883 0 0 0 .809-.536.858.858 0 0 0 .066-.33V8.174a.82.82 0 0 0-.642-.812H4.891a.82.82 0 0 0-.641.812v4.518a.86.86 0 0 0 .255.61.88.88 0 0 0 .62.256Zm1.369 2.63.377-4.125h6.258l.208 2.267a.73.73 0 0 0 .008.094l.161 1.764a.05.05 0 0 1-.002.021.056.056 0 0 1-.012.02.066.066 0 0 1-.048.02H6.556a.06.06 0 0 1-.062-.062ZM12.8 8.5a.5.5 0 0 0 0 1h1.5a.5.5 0 1 0 0-1h-1.5Z" class="Primary" clip-rule="evenodd"/>
  </g>
</svg>
