<svg xmlns="http://www.w3.org/2000/svg" width="20" height="20" fill="none" viewBox="0 0 20 20">
  <g class="20x20/Outline/settings">
    <path fill="#698796" fill-rule="evenodd" d="M8.986 1.25A1.75 1.75 0 0 0 7.236 3v.849c-.422.191-.82.424-1.19.694L4.943 3.94a1.81 1.81 0 0 0-2.398.642L1.503 6.289a1.694 1.694 0 0 0 .637 2.382l1.164.636a6.823 6.823 0 0 0-.002 1.358l-1.131.618a1.694 1.694 0 0 0-.638 2.382l1.042 1.707a1.809 1.809 0 0 0 2.398.642l1.05-.574c.384.283.8.526 1.24.723v.841c0 .967.783 1.75 1.75 1.75h2a1.75 1.75 0 0 0 1.75-1.75v-.835a6.71 6.71 0 0 0 1.288-.755l1.006.55a1.809 1.809 0 0 0 2.398-.642l1.041-1.707a1.694 1.694 0 0 0-.637-2.382l-1.118-.611a6.846 6.846 0 0 0-.016-1.398l1.103-.603a1.694 1.694 0 0 0 .638-2.382l-1.042-1.707a1.809 1.809 0 0 0-2.398-.642l-1.103.603a6.739 6.739 0 0 0-1.187-.674V3a1.75 1.75 0 0 0-1.75-1.75h-2ZM8.736 3a.25.25 0 0 1 .25-.25h2a.25.25 0 0 1 .25.25v1.864l.504.174a5.242 5.242 0 0 1 1.634.924l.392.326 1.98-1.082a.31.31 0 0 1 .398.107l1.041 1.707c.036.059.04.114.027.16a.2.2 0 0 1-.103.125l-2.05 1.12.109.54a5.275 5.275 0 0 1 .024 1.94l-.092.53 2.04 1.114a.2.2 0 0 1 .102.125.2.2 0 0 1-.026.16l-1.042 1.707a.31.31 0 0 1-.398.107l-1.906-1.042-.394.345a5.244 5.244 0 0 1-1.713 1.002l-.5.177v1.874a.25.25 0 0 1-.25.25h-2a.25.25 0 0 1-.25-.25v-1.878l-.5-.177a5.246 5.246 0 0 1-1.673-.973l-.393-.34-1.944 1.062a.31.31 0 0 1-.398-.107l-1.041-1.707a.201.201 0 0 1-.027-.16.2.2 0 0 1 .103-.125l2.06-1.126-.097-.532a5.286 5.286 0 0 1 .005-1.906l.099-.534-2.098-1.146a.2.2 0 0 1-.103-.125.2.2 0 0 1 .027-.16l1.042-1.707a.31.31 0 0 1 .399-.106l1.992 1.088.393-.336a5.244 5.244 0 0 1 1.631-.95l.496-.179V3Zm-.986 7a2.25 2.25 0 1 1 4.5 0 2.25 2.25 0 0 1-4.5 0ZM10 6.25a3.75 3.75 0 1 0 0 7.5 3.75 3.75 0 0 0 0-7.5Z" class="Primary" clip-rule="evenodd"/>
  </g>
</svg>
