<svg xmlns="http://www.w3.org/2000/svg" width="20" height="20" fill="none" viewBox="0 0 20 20">
  <g class="20x20/Outline/shopping_cart">
    <path fill="#698796" fill-rule="evenodd" d="M2 3.5h3.228l.384 2.435.1.633H15.98l-1.528 5.044a1.25 1.25 0 0 1-1.196.888H5.298v.004A2.75 2.75 0 1 0 7.898 14h2.147a2.75 2.75 0 1 0 4.646-.403 2.748 2.748 0 0 0 1.198-1.55l1.82-6.012.293-.967H6.994L6.61 2.633 6.51 2H2v1.5ZM12.486 14h.017a1.25 1.25 0 1 1-.017 0Zm-8.287 1.25A1.25 1.25 0 0 1 5.44 14h.018A1.25 1.25 0 1 1 4.2 15.25ZM8.996 8.3a.75.75 0 0 0-.75-.75H3.749a.75.75 0 1 0 0 1.5h4.497a.75.75 0 0 0 .75-.75Zm-2 2.5a.75.75 0 0 0-.75-.75H3.75a.75.75 0 1 0 0 1.5h2.498a.75.75 0 0 0 .75-.75Z" class="Primary" clip-rule="evenodd"/>
  </g>
</svg>
