<svg xmlns="http://www.w3.org/2000/svg" width="20" height="20" fill="none" viewBox="0 0 20 20">
  <g class="20x20/Outline/star">
    <path fill="#E5E9EB" fill-rule="evenodd" d="m11.414 8.669-1.33-2.985-1.33 2.985-3.25.343 2.427 2.187-.678 3.197 2.831-1.633 2.83 1.633-.677-3.197 2.427-2.187-3.25-.343Zm5.638-.913a.5.5 0 0 1 .283.868l-3.452 3.11.964 4.545a.5.5 0 0 1-.739.537l-4.024-2.321-4.025 2.321a.5.5 0 0 1-.738-.537l.964-4.544-3.452-3.11a.5.5 0 0 1 .283-.87l4.62-.487 1.891-4.243a.5.5 0 0 1 .914 0l1.891 4.243 4.62.488Z" class="Primary" clip-rule="evenodd"/>
  </g>
</svg>
