<svg xmlns="http://www.w3.org/2000/svg" width="20" height="20" fill="none" viewBox="0 0 20 20">
  <g class="20x20/Outline/star_crossed">
    <path fill="#E5E9EB" fill-rule="evenodd" d="m18.203 1.639-17.5 15.5.994 1.123 17.5-15.5-.994-1.123ZM6.059 16.816a.5.5 0 0 1-.75-.418l2.852-2.526 1.174-.676.749-.433.75.433 2.08 1.2-.498-2.35-.18-.847.643-.579 1.785-1.608-.907-.096 1.522-1.348.883.094.028.003.31.032.552.059a.5.5 0 0 1 .283.868l-.413.373-.232.208-.02.019-2.787 2.51.779 3.67.005.027.065.304.115.544a.5.5 0 0 1-.739.537l-.481-.278-.27-.155-.024-.014-3.249-1.874-3.25 1.874-.023.014-.27.155-.482.278Zm4.025-11.132.578 1.298 1.178-1.043-.935-2.097-.011-.025-.127-.284-.226-.508a.5.5 0 0 0-.914 0l-.226.508-.127.284-.011.025-1.527 3.426-3.73.394-.028.003-.31.032-.552.059a.5.5 0 0 0-.283.868l.413.373.232.208.02.019 2.297 2.069 1.13-1-1.421-1.281 2.39-.252.86-.091.352-.79.978-2.195Z" class="Primary" clip-rule="evenodd"/>
  </g>
</svg>
