<svg xmlns="http://www.w3.org/2000/svg" width="20" height="20" fill="none" viewBox="0 0 20 20">
  <g class="20x20/Outline/storage_network">
    <path fill="#698796" fill-rule="evenodd" d="M1.75 16.52h7.5v-2.665H5c-.8 0-1.5-.69-1.5-1.48V4.48C3.5 3.69 4.2 3 5 3h4c.684 0 1.012.56 1.319 1.084.269.46.521.89.981.89H15c.8 0 1.5.69 1.5 1.48v5.921c0 .79-.7 1.48-1.5 1.48h-4.25v2.665h7.5a.75.75 0 0 1 0 1.5H1.75a.75.75 0 1 1 0-1.5ZM5 6.6V4.974c0-.296.2-.494.5-.494h2.9c.473 0 .762.46 1.06.935.322.51.654 1.039 1.24 1.039h3.8c.3 0 .5.197.5.493v4.935c0 .296-.2.493-.5.493h-9c-.3 0-.5-.197-.5-.493V8a.74.74 0 0 0 .24.04h2.52a.74.74 0 0 0 0-1.48H5.24A.739.739 0 0 0 5 6.6Z" class="Primary" clip-rule="evenodd"/>
  </g>
</svg>
