<svg xmlns="http://www.w3.org/2000/svg" width="20" height="20" fill="none" viewBox="0 0 20 20">
  <g class="20x20/Outline/storage">
    <g class="Primary">
      <path fill="#E1E7EA" d="M10.212 8.836c1.169 0 2.116-.626 2.116-1.399s-.947-1.399-2.116-1.399c-1.168 0-2.115.626-2.115 1.399s.947 1.399 2.115 1.399Z"/>
      <path fill="#E1E7EA" fill-rule="evenodd" d="M5.482 2.5c-.935 0-1.728.69-1.857 1.616l-1.119 8.012a.624.624 0 0 0-.006.086v3.412c0 1.035.84 1.874 1.875 1.874h11.251a1.874 1.874 0 0 0 1.875-1.874v-3.412c0-.019 0-.038-.003-.058l-.74-7.955A1.875 1.875 0 0 0 14.89 2.5H5.48Zm-.62 1.789a.625.625 0 0 1 .62-.539h9.409c.323 0 .592.246.622.567l.677 7.272H3.843l1.02-7.3Zm-1.112 8.55h12.501v2.787c0 .345-.28.624-.625.624H4.375a.625.625 0 0 1-.625-.624v-2.787Z" clip-rule="evenodd"/>
    </g>
  </g>
</svg>
