<svg xmlns="http://www.w3.org/2000/svg" width="20" height="20" fill="none" viewBox="0 0 20 20">
  <g class="20x20/Outline/storage">
    <path fill="#E1E7EA" fill-rule="evenodd" d="M3.608 3.992A1.75 1.75 0 0 1 5.34 2.5h9.323a1.75 1.75 0 0 1 1.73 1.492l1.09 7.297c.013.086.02.172.02.259v4.203a1.75 1.75 0 0 1-1.75 1.75H4.25a1.75 1.75 0 0 1-1.75-1.75v-4.203c0-.087.006-.173.02-.259l1.088-7.297ZM5.34 4a.25.25 0 0 0-.247.213L4.004 11.5h11.993l-1.088-7.287A.25.25 0 0 0 14.662 4H5.339Zm10.662 9H4v2.751c0 .138.112.25.25.25h11.5a.25.25 0 0 0 .25-.25V13Zm-4.2-5.75c0 .69-.807 1.25-1.8 1.25-.995 0-1.801-.56-1.801-1.25S9.006 6 10 6s1.8.56 1.8 1.25Z" class="Primary" clip-rule="evenodd"/>
  </g>
</svg>
