<svg xmlns="http://www.w3.org/2000/svg" width="20" height="20" fill="none" viewBox="0 0 20 20">
  <g class="20x20/Outline/storage_local">
    <path fill="#E5E9EB" fill-rule="evenodd" d="M3.87 10.731 5.21 4.5h9.578l1.342 6.231H3.869Zm-1.604.321L3.83 3.79A1 1 0 0 1 4.808 3h10.384a1 1 0 0 1 .978.79l1.564 7.262a.996.996 0 0 1 .266.68V16a1 1 0 0 1-1 1H3a1 1 0 0 1-1-1v-4.269c0-.262.1-.5.266-.679ZM3.5 12.287V15.5h13v-3.213h-13Zm9.411 1.725c0-.289.234-.522.523-.522h1.621a.522.522 0 0 1 0 1.044h-1.621a.522.522 0 0 1-.523-.522Z" class="Primary" clip-rule="evenodd"/>
  </g>
</svg>
