<svg xmlns="http://www.w3.org/2000/svg" width="20" height="20" fill="none" viewBox="0 0 20 20">
  <g class="20x20/Outline/things">
    <path fill="#A5B7C0" d="M18 4v2h-1v1a1 1 0 0 1-1 1h-3v1a2 2 0 0 1-2 2H9l-.678 3.392A2 2 0 0 1 6.36 16H4a1.999 1.999 0 0 1-1.712-.966L3.68 9.452a1 1 0 0 0-.617-1.177l-.111-.035L2 8V5a1 1 0 0 1 1-1h15ZM8 8H4.302l.063.086c.282.415.406.932.319 1.452l-.033.156-1.271 5.089.02.018a.996.996 0 0 0 .469.19L4 15h2.36a1 1 0 0 0 .951-.69l.03-.114L8 10.898V8Zm4 0H9v2h2a1 1 0 0 0 .993-.883L12 9V8ZM4 5H3v2h13V5H7v1H6V5H5v1H4V5Z" class="Primary"/>
  </g>
</svg>
