<svg xmlns="http://www.w3.org/2000/svg" width="20" height="20" fill="none" viewBox="0 0 20 20">
  <g class="20x20/Outline/train">
    <path fill="#A5B7C0" d="M20 15v1H0v-1h20ZM11.78 3a7.016 7.016 0 0 1 6.72 5l.728 2.425A2 2 0 0 1 17.312 13H16a1 1 0 0 1-1.993.117L14 13.008l-.007.109a1 1 0 0 1-1.986 0L12 13H5a1 1 0 0 1-1.993.117L3 13.008a1 1 0 0 1-1.993.109L1 13v-1h16.312a.999.999 0 0 0 .985-1.174l-.027-.113-.214-.713H11a1 1 0 0 1-1-1V8a1 1 0 0 1 1-1h5.986a6.017 6.017 0 0 0-5.206-3H1V3h10.78ZM8 7a1 1 0 0 1 1 1v1a1 1 0 0 1-1 1H1V9h7V8H1V7h7Zm9.28 1H11v1h6.612l-.333-1Z" class="Primary"/>
  </g>
</svg>
