<svg xmlns="http://www.w3.org/2000/svg" width="20" height="20" fill="none" viewBox="0 0 20 20">
  <g class="20x20/Outline/upload">
    <path fill="#698796" fill-rule="evenodd" d="M10 5.75a3.252 3.252 0 0 0-3.148 2.437l-.145.563H5.5a2.75 2.75 0 0 0 0 5.5h2.2v1.5H5.5a4.25 4.25 0 0 1 0-8.5h.083a4.751 4.751 0 0 1 9.108 1H15a3.75 3.75 0 1 1 0 7.5h-2.8v-1.5H15a2.25 2.25 0 0 0 0-4.5h-1.75V9A3.25 3.25 0 0 0 10 5.75Zm.75 11.45a.75.75 0 0 1-1.5 0v-5.84l-1.41 1.466a.75.75 0 1 1-1.08-1.04l2.7-2.806a.75.75 0 0 1 1.08 0l2.6 2.706a.75.75 0 0 1-1.08 1.04l-1.31-1.363V17.2Z" class="Primary" clip-rule="evenodd"/>
  </g>
</svg>
