<svg xmlns="http://www.w3.org/2000/svg" width="20" height="20" fill="none" viewBox="0 0 20 20">
  <g class="20x20/Outline/vehicle">
    <path fill="#A5B7C0" d="M5.5 16a2.5 2.5 0 0 1-2.45-2H0V3h13v2h5c1.333 1.556 2 2.889 2 4v3a2 2 0 0 1-2 2h-.05a2.5 2.5 0 0 1-4.9 0h-5.1a2.5 2.5 0 0 1-2.45 2Zm8.55-2.115.001.003.008.027.025.082a1.5 1.5 0 0 0 2.884-.188l.002-.011.006-.03.005-.033-.003.015.005-.023.003-.034h.001l.002-.016-.003.016.01-.078A1.55 1.55 0 0 0 17 13.5l-.009-.165a1.693 1.693 0 0 0-.007-.055v-.001l-.009-.052.004.027-.014-.08-.01-.043-.005-.012.001.001-.003-.008-.004-.018a1.465 1.465 0 0 0-.024-.079l.007.027-.011-.038a1.5 1.5 0 0 0-2.88.17l-.011.053-.005.027-.004.026-.012.109A1.52 1.52 0 0 0 14 13.5l.008.16.009.067.004.023-.003-.015.006.034.003.018.003.012.003.015.017.07v.001ZM5.5 12a1.5 1.5 0 0 0-1.484 1.279l.02-.104a1.406 1.406 0 0 0-.027.16l.007-.056c-.01.072-.016.146-.016.221l.008.16a1.496 1.496 0 0 0 .024.15l-.015-.083c.007.048.017.096.029.143l-.014-.06c.012.057.027.113.046.168l-.032-.108a1.5 1.5 0 0 0 2.937-.143l-.015.082c.01-.049.018-.099.024-.15l-.009.068c.011-.074.017-.15.017-.227l-.009-.165a1.524 1.524 0 0 0-.026-.16l.019.104c-.008-.05-.017-.1-.03-.148l.01.043a1.49 1.49 0 0 0-.044-.16l.034.117A1.5 1.5 0 0 0 5.5 12ZM12 4H1v9h2.05a2.5 2.5 0 0 1 4.9 0H12V4Zm3.5 2H13v7h.05a2.5 2.5 0 0 1 4.9 0H18a1 1 0 0 0 .993-.883L19 12V9.5h-3.5V6Zm2.03 0H16.5v2.5l2.44.001c-.15-.651-.578-1.447-1.304-2.37L17.53 6Z" class="Primary"/>
  </g>
</svg>
