<?xml version="1.0" encoding="UTF-8" standalone="no"?>
<!-- Created with Inkscape (http://www.inkscape.org/) -->

<svg
   xmlns:dc="http://purl.org/dc/elements/1.1/"
   xmlns:cc="http://creativecommons.org/ns#"
   xmlns:rdf="http://www.w3.org/1999/02/22-rdf-syntax-ns#"
   xmlns:svg="http://www.w3.org/2000/svg"
   xmlns="http://www.w3.org/2000/svg"
   version="1.1"
   width="18"
   height="18"
   id="svg2"
   xml:space="preserve"><metadata
     id="metadata8"><rdf:RDF><cc:Work
         rdf:about=""><dc:format>image/svg+xml</dc:format><dc:type
           rdf:resource="http://purl.org/dc/dcmitype/StillImage" /><dc:title></dc:title></cc:Work></rdf:RDF></metadata><defs
     id="defs6"><clipPath
       id="clipPath16"><path
         d="M 0,256 256,256 256,0 0,0 0,256 z"
         id="path18" /></clipPath></defs><g
     transform="matrix(1.25,0,0,-1.25,0,18)"
     id="g10"><g
       transform="matrix(0.06153873,0,0,0.06153873,-0.6769726,-0.28493286)"
       id="g12"
       style="fill:#d4d4d4;fill-opacity:1"><g
         clip-path="url(#clipPath16)"
         id="g14"
         style="fill:#d4d4d4;fill-opacity:1"><g
           transform="translate(228.9217,98.1596)"
           id="g20"
           style="fill:#d4d4d4;fill-opacity:1"><path
             d="M -9.9218506,-2.5298582 C -22.921794,3.9701134 -16.421822,10.470085 -68.421595,10.470085 -69.625595,10.635085 -70.762,7.352 -71.443,6.404 c -9.978539,-15.4338299 -22.966476,-22.111603 -42.4784,-21.933801 0.07,10.5329995 -0.072,21.9658577 0,32.499858 0,6.499971 -90.9996,6.499971 -90.9996,12.999943 0,6.499972 90.9996,6.499972 91.0566,13.416 -0.056,10.589 -0.015,21.494802 -0.057,32.083802 19.499927,0 32.499861,-6.499972 41.2074,-20.623802 1.176,-1.58 2.164405,-5.643085 4.292405,-5.376085 51.999773,0 45.499801,6.499972 58.4997444,12.999944 7.4159489,1.061386 13.0110359,0.05297 12.9999433,-6.499972 -0.018,-14.72 -0.042,-37.279774 0,-51.9997736 0,-6.4999716 -1.7334755,-7.9607465 -12.9999433,-6.4999716 z"
             id="path22"
             style="fill:#d4d4d4;fill-opacity:1;fill-rule:nonzero;stroke:none" /></g></g></g></g></svg>