<svg width="24" height="24" viewBox="0 0 24 24" fill="none" xmlns="http://www.w3.org/2000/svg">
<path fill-rule="evenodd" clip-rule="evenodd" d="M3.61032 19.9997C2.77402 19.9997 2 19.3451 2 18.4223V5.55184C2 4.64324 2.7619 4.00006 3.5833 4.00006H9.81807C10.3235 4.00006 10.8168 4.23852 11.1207 4.66957L11.1311 4.68435L11.141 4.69949L12.6579 7.02528H18.4216C19.243 7.02528 20.0049 7.66846 20.0049 8.57705V10.0474V11.0474H18.0049V10.0474V9.02528H12.4128C11.9246 9.02528 11.4471 8.79508 11.1526 8.37718L11.1422 8.36248L11.1324 8.34742L9.60147 6.00006H4V17.9997H10.9999H11.9999V19.9997H10.9999H3.61032ZM18 23V20H14.9998V18H18V15H20V18H22.9998V20H20V23H18Z" fill="white"/>
</svg>
