<svg width="24" height="24" viewBox="0 0 24 24" fill="none" xmlns="http://www.w3.org/2000/svg">
<path fill-rule="evenodd" clip-rule="evenodd" d="M3.61638 18.4996C3.03114 18.4996 2.49997 18.0476 2.49997 17.4223V5.5518C2.49997 4.94062 3.0189 4.50003 3.58909 4.50003H7.86612C8.21621 4.50003 8.5556 4.6636 8.7636 4.95573L8.76365 4.9558L9.9419 6.61116L9.94191 6.61117C9.94217 6.61154 9.94482 6.61501 9.95216 6.61869C9.95954 6.62239 9.96972 6.62524 9.98175 6.62524H16.5555C17.1257 6.62524 17.6446 7.06583 17.6446 7.67702V10.1828H19.0163C20.0468 10.1828 20.8404 11.219 20.3511 12.2062L20.2055 12.5H19.0894L19.4551 11.7621C19.5675 11.5354 19.4147 11.1828 19.0163 11.1828H7.04404C6.8356 11.1828 6.66864 11.2983 6.60103 11.4436L6.60102 11.4437L3.78393 17.4996H14.5V18.4996H3.61638ZM3.49997 15.7391L5.6943 11.0219L5.69431 11.0219C5.93741 10.4993 6.47445 10.1828 7.04404 10.1828H16.6446V7.67702C16.6446 7.67373 16.6441 7.66475 16.6302 7.65178C16.6158 7.6383 16.5906 7.62524 16.5555 7.62524H9.98175C9.64901 7.62524 9.32564 7.46985 9.1272 7.19104L9.12719 7.19103L7.94901 5.53575L7.94895 5.53568C7.93831 5.52079 7.90989 5.50003 7.86612 5.50003H3.58909C3.55396 5.50003 3.52872 5.51309 3.51432 5.52657C3.50048 5.53953 3.49997 5.54852 3.49997 5.5518V15.7391ZM18.5 19.501V17.501H16.5V16.501H18.5V14.501H19.5V16.501H21.5V17.501H19.5V19.501H18.5Z" fill="white"/>
</svg>
