<svg width="24" height="24" viewBox="0 0 24 24" fill="none" xmlns="http://www.w3.org/2000/svg">
<path fill-rule="evenodd" clip-rule="evenodd" d="M5 9V5H9V9H5ZM3 4C3 3.44772 3.44772 3 4 3H10C10.5523 3 11 3.44772 11 4V10C11 10.5523 10.5523 11 10 11H4C3.44772 11 3 10.5523 3 10V4ZM5 19V15H9V19H5ZM3 14C3 13.4477 3.44772 13 4 13H10C10.5523 13 11 13.4477 11 14V20C11 20.5523 10.5523 21 10 21H4C3.44772 21 3 20.5523 3 20V14ZM15 5V9H19V5H15ZM14 3C13.4477 3 13 3.44772 13 4V10C13 10.5523 13.4477 11 14 11H20C20.5523 11 21 10.5523 21 10V4C21 3.44772 20.5523 3 20 3H14ZM14.9999 19V15H18.9999V19H14.9999ZM12.9999 14C12.9999 13.4477 13.4477 13 13.9999 13H19.9999C20.5522 13 20.9999 13.4477 20.9999 14V20C20.9999 20.5523 20.5522 21 19.9999 21H13.9999C13.4477 21 12.9999 20.5523 12.9999 20V14Z" fill="white"/>
</svg>
