<svg width="64" height="64" viewBox="0 0 64 64" fill="none" xmlns="http://www.w3.org/2000/svg">
<path fill-rule="evenodd" clip-rule="evenodd" d="M32 61C48.0163 61 61 48.0163 61 32C61 15.9837 48.0163 3 32 3C15.9837 3 3 15.9837 3 32C3 48.0163 15.9837 61 32 61ZM60 32C60 47.464 47.464 60 32 60C16.536 60 4 47.464 4 32C4 16.536 16.536 4 32 4C47.464 4 60 16.536 60 32ZM30.6 16.4331C25.3533 16.4331 21.1 20.6864 21.1 25.9331H26.1C26.1 23.4478 28.1147 21.4331 30.6 21.4331H33.4C35.8853 21.4331 37.9 23.4478 37.9 25.9331C37.9 28.4184 35.8853 30.4331 33.4 30.4331H32C30.6193 30.4331 29.5 31.5524 29.5 32.9331V38.5331H34.5V35.3701C39.2285 34.8249 42.9 30.8078 42.9 25.9331C42.9 20.6864 38.6467 16.4331 33.4 16.4331H30.6ZM29.2 42.2664H34.8V47.8664H29.2V42.2664Z" fill="#A5B7C0"/>
</svg>
