<svg width="64" height="64" viewBox="0 0 64 64" fill="none" xmlns="http://www.w3.org/2000/svg">
<path fill-rule="evenodd" clip-rule="evenodd" d="M50 7H14C10.134 7 7 10.134 7 14V50C7 53.866 10.134 57 14 57H50C53.866 57 57 53.866 57 50V14C57 10.134 53.866 7 50 7ZM8 14C8 10.6863 10.6863 8 14 8H50C53.3137 8 56 10.6863 56 14V50C56 53.3137 53.3137 56 50 56H14C10.6863 56 8 53.3137 8 50V14ZM29.2308 18.231C29.2308 17.6787 29.6785 17.231 30.2308 17.231H33.7692C34.3215 17.231 34.7692 17.6787 34.7692 18.231V21.7694C34.7692 22.3217 34.3215 22.7694 33.7692 22.7694H30.2308C29.6785 22.7694 29.2308 22.3217 29.2308 21.7694V18.231ZM29.2308 28.3846C29.2308 27.8323 29.6785 27.3846 30.2308 27.3846H33.7692C34.3215 27.3846 34.7692 27.8323 34.7692 28.3846V45.7692C34.7692 46.3215 34.3215 46.7692 33.7692 46.7692H30.2308C29.6785 46.7692 29.2308 46.3215 29.2308 45.7692V28.3846Z" fill="#A5B7C0"/>
</svg>
