<svg width="64" height="64" viewBox="0 0 64 64" fill="none" xmlns="http://www.w3.org/2000/svg">
<path fill-rule="evenodd" clip-rule="evenodd" d="M32 61C48.0163 61 61 48.0163 61 32C61 15.9837 48.0163 3 32 3C15.9837 3 3 15.9837 3 32C3 48.0163 15.9837 61 32 61ZM60 32C60 47.464 47.464 60 32 60C16.536 60 4 47.464 4 32C4 16.536 16.536 4 32 4C47.464 4 60 16.536 60 32ZM42.5858 45.4143C42.1953 45.8048 41.5621 45.8048 41.1716 45.4143L32 36.2427L22.8284 45.4143C22.4379 45.8048 21.8048 45.8048 21.4142 45.4143L18.5858 42.5859C18.1953 42.1953 18.1953 41.5622 18.5858 41.1716L27.7574 32.0001L18.5858 22.8285C18.1953 22.438 18.1953 21.8048 18.5858 21.4143L21.4142 18.5859C21.8048 18.1953 22.4379 18.1953 22.8284 18.5859L32 27.7574L41.1716 18.5859C41.5621 18.1953 42.1953 18.1953 42.5858 18.5859L45.4142 21.4143C45.8048 21.8048 45.8048 22.438 45.4142 22.8285L36.2427 32.0001L45.4142 41.1716C45.8048 41.5622 45.8048 42.1953 45.4142 42.5859L42.5858 45.4143Z" fill="#C22626"/>
</svg>
