<svg width="64" height="64" viewBox="0 0 64 64" fill="none" xmlns="http://www.w3.org/2000/svg">
<path fill-rule="evenodd" clip-rule="evenodd" d="M60.546 50.7747L35.0498 5.77145C33.7091 3.40512 30.2999 3.40513 28.9593 5.77145L3.463 50.7747C2.14113 53.1079 3.8266 56 6.50825 56H57.5008C60.1825 56 61.8679 53.1079 60.546 50.7747ZM29.8294 6.26438C30.7869 4.57415 33.2221 4.57415 34.1797 6.26438L59.676 51.2677C60.6202 52.9342 59.4163 55 57.5008 55H6.50825C4.59279 55 3.38888 52.9342 4.33307 51.2677L29.8294 6.26438ZM29 21C29 20.4477 29.4477 20 30 20H34C34.5523 20 35 20.4477 35 21V38C35 38.5523 34.5523 39 34 39H30C29.4477 39 29 38.5523 29 38V21ZM29 44C29 43.4477 29.4477 43 30 43H34C34.5523 43 35 43.4477 35 44V48C35 48.5523 34.5523 49 34 49H30C29.4477 49 29 48.5523 29 48V44Z" fill="#FBBC05"/>
</svg>
