<svg xmlns="http://www.w3.org/2000/svg" width="256" height="256" fill="none" viewBox="0 0 256 256">
  <g class="256x256/Outline/adding_devices_placeholder">
    <path fill="#303F47" fill-rule="evenodd" d="M184 26c3.5 0 19.7 1.4 34.8 3.5C247.6 33.7 250 37.1 250 40v47.9c0 .6-.3 1.1-.7 1.5l-9.2 8.1c-1.4 1.4-6.2 5.5-12.1 6.3V124c0 54-44 98-98 98s-98-44-98-98v-20.2c-5.6-.7-13.5-3.9-16.1-6.3l-9.2-8c-.5-.4-.7-.9-.7-1.5V40c0-2.9 2.4-6.3 31.2-10.5C52.3 27.4 68.5 26 72 26h112ZM72 30c-3.1 0-18.1 1.3-32.5 3.2-25 3.5-28.9 6.4-29.5 7v44.2c1.5-.5 3.4-1 6-1.5 4.7-.9 11.2-1.7 19.2-2.5C49.5 78.9 64.5 78 68 78h120c3.5 0 18.6.9 32.8 2.2 8.1.9 14.5 1.7 19.2 2.6 2.5.5 4.5 1 6 1.5V40.2c-.5-.6-4.5-3.5-29.5-7-14.4-1.9-29.4-3.2-32.5-3.2H72Zm-36 94c0 51.8 42.2 94 94 94s94-42.2 94-94v-20h-44v51.7c0 27.7-22.4 50.3-50 50.3s-50-22.6-50-50.3V104H36v20Zm140-20H84v51.7c0 25.5 20.6 46.3 46 46.3s46-20.8 46-46.3V104Zm50-4c4.2 0 8.6-2.8 11.4-5.4l7.4-6.5c-8.6-3-47.4-6.1-56.8-6.1H68c-7.9 0-47.9 3-56.8 6.1l7.4 6.5c1.8 1.8 10.3 5.4 15.4 5.4h192Zm-70 58c0 14.3-11.7 26-26 26s-26-11.7-26-26 11.7-26 26-26 26 11.7 26 26Zm-4 0c0-12.1-9.9-22-22-22s-22 9.9-22 22 9.9 22 22 22 22-9.9 22-22Z" class="Primary" clip-rule="evenodd"/>
  </g>
</svg>
