<?xml version="1.0" encoding="UTF-8" standalone="no"?>
<!-- Created with Inkscape (http://www.inkscape.org/) -->

<svg
   xmlns:dc="http://purl.org/dc/elements/1.1/"
   xmlns:cc="http://creativecommons.org/ns#"
   xmlns:rdf="http://www.w3.org/1999/02/22-rdf-syntax-ns#"
   xmlns:svg="http://www.w3.org/2000/svg"
   xmlns="http://www.w3.org/2000/svg"
   version="1.1"
   width="18"
   height="18"
   id="svg2"
   xml:space="preserve"><metadata
     id="metadata8"><rdf:RDF><cc:Work
         rdf:about=""><dc:format>image/svg+xml</dc:format><dc:type
           rdf:resource="http://purl.org/dc/dcmitype/StillImage" /><dc:title></dc:title></cc:Work></rdf:RDF></metadata><defs
     id="defs6"><clipPath
       id="clipPath16"><path
         d="M 0,256 256,256 256,0 0,0 0,256 z"
         id="path18" /></clipPath></defs><g
     transform="matrix(1.25,0,0,-1.25,0,18)"
     id="g10"><path
       d="M 4,2 C 2.892,2 2,2.892 2,4 2,5.108 2.892,6 4,6 L 14,6 C 15.108,6 16,5.108 16,4 16,2.892 15.108,2 14,2 z M 4,3 C 4.5522847,3 5,3.4477153 5,4 5,4.5522847 4.5522847,5 4,5 3.4477153,5 3,4.5522847 3,4 3,3.4477153 3.4477153,3 4,3 z"
       transform="matrix(0.8,0,0,-0.8,0,14.4)"
       id="rect3784"
       style="fill:#d4d4d4;fill-opacity:1;stroke:none" /><path
       d="M 3.2,8.8 C 2.3136,8.8 1.6,8.0864 1.6,7.2 1.6,6.3136 2.3136,5.6 3.2,5.6 l 8,0 c 0.8864,0 1.6,0.7136 1.6,1.6 0,0.8864 -0.7136,1.6 -1.6,1.6 z M 3.2,8 C 3.6418278,8 4,7.641828 4,7.2 4,6.758172 3.6418278,6.4 3.2,6.4 2.7581722,6.4 2.4,6.758172 2.4,7.2 2.4,7.641828 2.7581722,8 3.2,8 z"
       id="rect3784-1"
       style="fill:#d4d4d4;fill-opacity:1;stroke:none" /><path
       d="M 3.2,4.8 C 2.3136,4.8 1.6,4.0864 1.6,3.2 1.6,2.3136 2.3136,1.6 3.2,1.6 l 8,0 c 0.8864,0 1.6,0.7136 1.6,1.6 0,0.8864 -0.7136,1.6 -1.6,1.6 z M 3.2,4 C 3.6418278,4 4,3.641828 4,3.2 4,2.758172 3.6418278,2.4 3.2,2.4 2.7581722,2.4 2.4,2.758172 2.4,3.2 2.4,3.641828 2.7581722,4 3.2,4 z"
       id="rect3784-8"
       style="fill:#d4d4d4;fill-opacity:1;stroke:none" /></g></svg>