<?xml version="1.0" encoding="UTF-8" standalone="no"?>
<!-- Created with Inkscape (http://www.inkscape.org/) -->

<svg
   xmlns:dc="http://purl.org/dc/elements/1.1/"
   xmlns:cc="http://creativecommons.org/ns#"
   xmlns:rdf="http://www.w3.org/1999/02/22-rdf-syntax-ns#"
   xmlns:svg="http://www.w3.org/2000/svg"
   xmlns="http://www.w3.org/2000/svg"
   version="1.1"
   width="18"
   height="18"
   id="svg2"
   xml:space="preserve"><metadata
     id="metadata8"><rdf:RDF><cc:Work
         rdf:about=""><dc:format>image/svg+xml</dc:format><dc:type
           rdf:resource="http://purl.org/dc/dcmitype/StillImage" /><dc:title></dc:title></cc:Work></rdf:RDF></metadata><defs
     id="defs6"><clipPath
       id="clipPath16"><path
         d="M 0,256 256,256 256,0 0,0 0,256 z"
         id="path18" /></clipPath></defs><g
     transform="matrix(1.25,0,0,-1.25,0,18)"
     id="g10"><path
       d="M 8.5625,2 C 8.2968366,2 8.0949231,2.1792413 8.03125,2.4375 L 7.75,3.53125 7.6875,3.75 7.5,3.8125 C 7.1210578,3.9293463 6.7539616,4.0818837 6.40625,4.28125 L 6.1875,4.375 6,4.28125 4.9375,3.59375 C 4.8469713,3.5405125 4.7301345,3.53125 4.625,3.53125 4.4724807,3.53125 4.32725,3.57792 4.21875,3.6875 L 3.53125,4.375 C 3.3351827,4.5723463 3.3084905,4.8677313 3.46875,5.09375 l 0.75,1.03125 0.125,0.21875 L 4.25,6.53125 C 4.1042787,6.8183172 3.9703077,7.1372596 3.875,7.46875 L 3.8125,7.6875 3.59375,7.71875 2.4375,8 C 2.1777596,8.063673 2,8.2956923 2,8.5625 l 0,0.96875 c 0,0.2832307 0.1923846,0.515856 0.46875,0.5625 l 1.125,0.1875 0.21875,0.03125 0.09375,0.25 c 0.1072211,0.351548 0.2357598,0.685135 0.40625,1 L 4.40625,11.75 4.3125,11.9375 3.59375,13.0625 c -0.136702,0.226019 -0.094644,0.529952 0.09375,0.71875 l 0.6875,0.6875 c 0.1097788,0.1085 0.252452,0.15625 0.40625,0.15625 0.1187987,0 0.244202,-0.02584 0.34375,-0.09375 l 1,-0.75 0.1875,-0.125 0.21875,0.125 c 0.299923,0.158913 0.6089711,0.275519 0.9375,0.375 l 0.21875,0.0625 0.0625,0.21875 0.28125,1.125 C 8.0923654,15.820087 8.2959616,16 8.5625,16 l 0.96875,0 c 0.2811441,0 0.514712,-0.192788 0.5625,-0.46875 l 0.1875,-1.03125 0.03125,-0.25 0.25,-0.0625 c 0.369587,-0.10298 0.688164,-0.242221 1,-0.40625 l 0.21875,-0.09375 0.1875,0.125 0.71875,0.53125 c 0.09827,0.06966 0.222462,0.09375 0.34375,0.09375 0.152588,0 0.29775,-0.04856 0.40625,-0.15625 l 0.6875,-0.6875 c 0.188394,-0.189673 0.202231,-0.49024 0.0625,-0.71875 L 13.75,12.125 13.625,11.9375 13.75,11.75 c 0.226423,-0.37975 0.406058,-0.79626 0.53125,-1.21875 L 14.34375,10.3125 14.5625,10.25 15.53125,10.09375 C 15.807615,10.046769 16,9.8132019 16,9.53125 L 16,8.5625 C 16,8.2950866 15.82224,8.0932404 15.5625,8.03125 l -1,-0.25 L 14.34375,7.71875 14.28125,7.5 C 14.171475,7.1064519 14.035644,6.7280961 13.84375,6.375 l -0.125,-0.21875 0.125,-0.1875 0.5,-0.6875 C 14.506568,5.0522687 14.480347,4.76375 14.28125,4.5625 L 13.59375,3.875 C 13.484438,3.7673125 13.340894,3.71875 13.1875,3.71875 c -0.104662,0 -0.218539,0.038425 -0.3125,0.09375 L 12.125,4.25 11.9375,4.375 11.75,4.25 C 11.375365,4.0383175 10.949904,3.9000475 10.53125,3.78125 L 10.3125,3.6875 10.28125,3.46875 l -0.1875,-1 C 10.04724,2.19124 9.8115191,2 9.53125,2 L 8.5625,2 z M 9,6 c 1.656238,0 3,1.3441476 3,3 0,1.656173 -1.343762,3 -3,3 C 7.3454321,12 6,10.656173 6,9 6,7.3441476 7.3454321,6 9,6 z"
       transform="matrix(0.8,0,0,-0.8,0,14.4)"
       id="path22"
       style="fill:#212a2f;fill-opacity:1;fill-rule:nonzero;stroke:none" /></g></svg>