<?xml version="1.0" encoding="utf-8"?>
<!-- Generator: Adobe Illustrator 25.2.1, SVG Export Plug-In . SVG Version: 6.00 Build 0)  -->
<svg version="1.1" xmlns="http://www.w3.org/2000/svg" xmlns:xlink="http://www.w3.org/1999/xlink" x="0px" y="0px"
	 viewBox="0 0 96 96" style="enable-background:new 0 0 96 96;" xml:space="preserve">
<style type="text/css">
	.st0{fill-rule:evenodd;clip-rule:evenodd;fill:none;stroke:#A5B7C0;stroke-width:3;stroke-linecap:round;stroke-miterlimit:100;}
</style>
<g>
	<circle class="st0" cx="6" cy="20" r="3.5"/>
	<circle class="st0" cx="18" cy="20" r="3.5"/>
	<circle class="st0" cx="42" cy="20" r="3.5"/>
	<circle class="st0" cx="66" cy="20" r="3.5"/>
	<circle class="st0" cx="6" cy="34" r="3.5"/>
	<circle class="st0" cx="30" cy="34" r="3.5"/>
	<circle class="st0" cx="42" cy="34" r="3.5"/>
	<circle class="st0" cx="90" cy="34" r="3.5"/>
	<circle class="st0" cx="30" cy="48" r="3.5"/>
	<circle class="st0" cx="42" cy="48" r="3.5"/>
	<circle class="st0" cx="54" cy="48" r="3.5"/>
	<circle class="st0" cx="78" cy="48" r="3.5"/>
	<circle class="st0" cx="90" cy="48" r="3.5"/>
	<circle class="st0" cx="6" cy="62" r="3.5"/>
	<circle class="st0" cx="66" cy="62" r="3.5"/>
	<circle class="st0" cx="90" cy="62" r="3.5"/>
	<circle class="st0" cx="6" cy="76" r="3.5"/>
	<circle class="st0" cx="30" cy="76" r="3.5"/>
	<circle class="st0" cx="54" cy="76" r="3.5"/>
	<circle class="st0" cx="66" cy="76" r="3.5"/>
	<circle class="st0" cx="78" cy="76" r="3.5"/>
</g>
<g>
	<line class="st0" x1="54" y1="16.5" x2="54" y2="23.5"/>
	<line class="st0" x1="30" y1="16.5" x2="30" y2="23.5"/>
	<line class="st0" x1="78" y1="16.5" x2="78" y2="23.5"/>
	<line class="st0" x1="78" y1="30.5" x2="78" y2="37.5"/>
	<line class="st0" x1="66" y1="30.5" x2="66" y2="37.5"/>
	<line class="st0" x1="54" y1="30.5" x2="54" y2="37.5"/>
	<line class="st0" x1="18" y1="30.5" x2="18" y2="37.5"/>
	<line class="st0" x1="18" y1="45" x2="18" y2="52"/>
	<line class="st0" x1="18" y1="58.5" x2="18" y2="65.5"/>
	<line class="st0" x1="18" y1="72.5" x2="18" y2="79.5"/>
	<line class="st0" x1="42" y1="72.5" x2="42" y2="79.5"/>
	<line class="st0" x1="90" y1="72.5" x2="90" y2="79.5"/>
	<line class="st0" x1="30" y1="58.5" x2="30" y2="65.5"/>
	<line class="st0" x1="42" y1="58.5" x2="42" y2="65.5"/>
	<line class="st0" x1="54" y1="58.5" x2="54" y2="65.5"/>
	<line class="st0" x1="78" y1="58.5" x2="78" y2="65.5"/>
	<line class="st0" x1="66" y1="45" x2="66" y2="52"/>
	<line class="st0" x1="6" y1="45" x2="6" y2="52"/>
	<line class="st0" x1="90" y1="16.5" x2="90" y2="23.5"/>
</g>
</svg>
