<svg width="24" height="24" viewBox="0 0 24 24" fill="none" xmlns="http://www.w3.org/2000/svg">
<path fill-rule="evenodd" clip-rule="evenodd" d="M12.2065 16.413C10.8214 16.413 9.69851 15.2901 9.69851 13.905V7.96832C9.69851 6.88124 10.5798 6 11.6668 6C12.7509 6 13.6303 6.87635 13.6351 7.95927C13.6351 7.96227 13.6351 7.96527 13.6351 7.96828C13.6351 8.06338 13.6283 8.15692 13.6153 8.24843C13.5289 8.85251 13.1667 9.36912 12.6551 9.66768C12.6371 9.67815 12.6196 9.68914 12.6025 9.7006C12.374 9.82431 12.1184 9.90408 11.8469 9.92854C11.2968 9.9781 10.8911 10.4642 10.9407 11.0142C10.9902 11.5643 11.4763 11.97 12.0264 11.9205C12.4498 11.8823 12.854 11.7777 13.2286 11.6173C14.1055 12.0088 14.7145 12.8866 14.7145 13.905C14.7145 15.2901 13.5916 16.413 12.2065 16.413ZM14.8889 10.2852C15.9956 11.1049 16.7145 12.4189 16.7145 13.905C16.7145 16.3947 14.6962 18.413 12.2065 18.413C11.2751 18.413 10.4097 18.1305 9.69121 17.6466C9.57067 19.5803 7.96413 21.1114 6 21.1114C5.44772 21.1114 5 20.6637 5 20.1114C5 19.5591 5.44772 19.1114 6 19.1114C6.93803 19.1114 7.69847 18.351 7.69847 17.4129V13.6351L7.69851 13.6261V7.96832C7.69851 5.77665 9.47523 4 11.6668 4C13.8584 4 15.6351 5.77665 15.6351 7.96832C15.6351 8.10847 15.6279 8.24686 15.6137 8.38315C15.5404 9.08854 15.2824 9.73892 14.8889 10.2852Z" fill="white"/>
</svg>
