<?xml version="1.0" encoding="UTF-8"?>
<svg width="24px" height="24px" viewBox="0 0 24 24" version="1.1" xmlns="http://www.w3.org/2000/svg" xmlns:xlink="http://www.w3.org/1999/xlink">
    <!-- Generator: Sketch 63.1 (92452) - https://sketch.com -->
    <title>cloud</title>
    <desc>Created with Sketch.</desc>
    <g id="cloud" stroke="none" stroke-width="1" fill="none" fill-rule="evenodd">
        <g id="Group" transform="translate(0.000000, 4.000000)" fill="#E1E7EA">
            <path d="M6,16 C2.6862915,16 0,13.3137085 0,10 C0,7.01856888 2.17457352,4.54503662 5.02416932,4.07895446 C6.3960054,1.64479672 9.00592127,0 12,0 C15.7492028,0 18.8960308,2.5790732 19.7631239,6.05985952 C22.1622161,6.42515651 24,8.49795954 24,11 C24,13.7614237 21.7614237,16 19,16 L6,16 L6,16 Z" id="Combined-Shape" fill-opacity="0.6"></path>
            <path d="M12,0 C15.7492028,0 18.8960308,2.5790732 19.7631239,6.05985952 C22.1622161,6.42515651 24,8.49795954 24,11 C24,13.7614237 21.7614237,16 19,16 L6,16 C2.6862915,16 0,13.3137085 0,10 C0,7.01856888 2.17457352,4.54503662 5.02416932,4.07895446 C6.3960054,1.64479672 9.00592127,0 12,0 Z M12,2 C9.89192296,2 7.97697135,3.09502431 6.89261309,4.84748014 L6.76651775,5.0609025 L6.29492672,5.89768394 L5.34700119,6.05272739 C3.42970342,6.36632214 2,8.03352388 2,10 C2,12.1421954 3.68396847,13.8910789 5.80035966,13.9951047 L6,14 L19,14 C20.6568542,14 22,12.6568542 22,11 C22,9.57353121 20.9971157,8.35868399 19.634251,8.06847873 L19.4620645,8.03707049 L18.1445696,7.83646256 L17.8224325,6.54330205 C17.1625147,3.89418298 14.7703852,2 12,2 Z" id="Combined-Shape" fill-rule="nonzero"></path>
        </g>
    </g>
</svg>