<svg width="24" height="24" viewBox="0 0 24 24" fill="none" xmlns="http://www.w3.org/2000/svg">
<path fill-rule="evenodd" clip-rule="evenodd" d="M7 5V3.5C7 3.22386 7.22386 3 7.5 3C7.77614 3 8 3.22386 8 3.5V5H10V3.5C10 3.22386 10.2239 3 10.5 3C10.7761 3 11 3.22386 11 3.5V5H13V3.5C13 3.22386 13.2239 3 13.5 3C13.7761 3 14 3.22386 14 3.5V5H16V3.5C16 3.22386 16.2239 3 16.5 3C16.7761 3 17 3.22386 17 3.5V5H18C18.5523 5 19 5.44772 19 6V7H20.5C20.7761 7 21 7.22386 21 7.5C21 7.77614 20.7761 8 20.5 8H19V10H20.5C20.7761 10 21 10.2239 21 10.5C21 10.7761 20.7761 11 20.5 11H19V13H20.5C20.7761 13 21 13.2239 21 13.5C21 13.7761 20.7761 14 20.5 14H19V16H20.5C20.7761 16 21 16.2239 21 16.5C21 16.7761 20.7761 17 20.5 17H19V18C19 18.5523 18.5523 19 18 19H17V20.5C17 20.7761 16.7761 21 16.5 21C16.2239 21 16 20.7761 16 20.5V19H14V20.5C14 20.7761 13.7761 21 13.5 21C13.2239 21 13 20.7761 13 20.5V19H11V20.5C11 20.7761 10.7761 21 10.5 21C10.2239 21 10 20.7761 10 20.5V19H8V20.5C8 20.7761 7.77614 21 7.5 21C7.22386 21 7 20.7761 7 20.5V19H6C5.44772 19 5 18.5523 5 18V17H3.5C3.22386 17 3 16.7761 3 16.5C3 16.2239 3.22386 16 3.5 16H5V14H3.5C3.22386 14 3 13.7761 3 13.5C3 13.2239 3.22386 13 3.5 13H5V11H3.5C3.22386 11 3 10.7761 3 10.5C3 10.2239 3.22386 10 3.5 10H5V8H3.5C3.22386 8 3 7.77614 3 7.5C3 7.22386 3.22386 7 3.5 7L5 7V6C5 5.44772 5.44772 5 6 5H7ZM7 8C7 7.44772 7.44772 7 8 7H16C16.5523 7 17 7.44772 17 8V16C17 16.5523 16.5523 17 16 17H8C7.44772 17 7 16.5523 7 16V8ZM9 8C8.44772 8 8 8.44772 8 9V15C8 15.5523 8.44772 16 9 16H15C15.5523 16 16 15.5523 16 15V9C16 8.44772 15.5523 8 15 8H9Z" fill="white"/>
</svg>
