<?xml version="1.0" encoding="UTF-8"?>
<svg width="24px" height="24px" viewBox="0 0 24 24" version="1.1" xmlns="http://www.w3.org/2000/svg" xmlns:xlink="http://www.w3.org/1999/xlink">
    <!-- Generator: Sketch 63.1 (92452) - https://sketch.com -->
    <title>Preview</title>
    <desc>Created with Sketch.</desc>
    <g id="Preview" stroke="none" stroke-width="1" fill="none" fill-rule="evenodd">
        <path d="M19,7 C19.5522847,7 20,7.44771525 20,8 L20,17 C20,17.5522847 19.5522847,18 19,18 L5,18 C4.44771525,18 4,17.5522847 4,17 L4,8 C4,7.44771525 4.44771525,7 5,7 L19,7 Z M8,11 C7.17157288,11 6.5,11.6715729 6.5,12.5 C6.5,13.3284271 7.17157288,14 8,14 C8.82842712,14 9.5,13.3284271 9.5,12.5 C9.5,11.6715729 8.82842712,11 8,11 Z M12,11 C11.1715729,11 10.5,11.6715729 10.5,12.5 C10.5,13.3284271 11.1715729,14 12,14 C12.8284271,14 13.5,13.3284271 13.5,12.5 C13.5,11.6715729 12.8284271,11 12,11 Z M16,11 C15.1715729,11 14.5,11.6715729 14.5,12.5 C14.5,13.3284271 15.1715729,14 16,14 C16.8284271,14 17.5,13.3284271 17.5,12.5 C17.5,11.6715729 16.8284271,11 16,11 Z" id="Combined-Shape" fill="#FFFFFF"></path>
        <path d="M5,19 L19,19 C19.5522847,19 20,19.4477153 20,20 L20,21 L20,21 L4,21 L4,20 C4,19.4477153 4.44771525,19 5,19 Z" id="Rectangle" fill="#FFFFFF"></path>
        <path d="M5,4 L19,4 C19.5522847,4 20,4.44771525 20,5 L20,6 L20,6 L4,6 L4,5 C4,4.44771525 4.44771525,4 5,4 Z" id="Rectangle" fill="#FFFFFF" transform="translate(12.000000, 5.000000) scale(1, -1) translate(-12.000000, -5.000000) "></path>
    </g>
</svg>