<?xml version="1.0" encoding="utf-8"?>
<!-- Generator: Adobe Illustrator 19.2.0, SVG Export Plug-In . SVG Version: 6.00 Build 0)  -->
<svg version="1.1" id="Layer_50" xmlns="http://www.w3.org/2000/svg" xmlns:xlink="http://www.w3.org/1999/xlink" x="0px" y="0px"
	 viewBox="0 0 48 48" style="enable-background:new 0 0 48 48;" xml:space="preserve">
<style type="text/css">
	.st0{opacity:0.3;fill:#FFFFFF;}
	.st1{opacity:0.6;fill:#FFFFFF;}
	.st2{fill:#FFFFFF;}
</style>
<path class="st0" d="M11.4,34.4l0.6-0.9C9.3,31,7.9,27,8.8,23.1c0.1-0.2,0.6-2.4,1.4-4.8c1.7-4.9,5-8.2,9-10.3
	c0.1-0.7,0.2-1.4,0.4-2h-3.1c0,0,0,0.1,0,0.1C12.1,8.8,9,12.6,7.3,17.4c-0.8,2.4-1.3,4.6-1.4,5c-0.9,4.1,0,8.2,2.4,11.4
	c-1.5,2.5-2.1,5.4-1.8,8.2h3C9.2,39.4,9.8,36.7,11.4,34.4z"/>
<path class="st1" d="M21.3,32.6l0.3-1.7c0-0.3,0.1-0.5,0.2-0.8l-3.2-0.7c-2.2-0.5-3.5-2.6-3-4.8c0-0.1,0.5-2,1.2-4.1
	c1.5-4.4,5.4-6.8,9.7-7.9C26.2,11.8,26,10.9,26,10c0-1.5,0.4-2.8,1.1-4h-3.3C23.3,7.2,23,8.6,23,10c0,0.2,0,0.4,0,0.6
	c-4,1.6-7.5,4.4-9.1,9c-0.7,2.1-1.2,4.1-1.2,4.4c-0.9,3.7,1.4,7.4,5.1,8.4l-3.2,4.4c-1.1,1.6-1.5,3.5-1.2,5.2h3.1
	c-0.3-1.1-0.2-2.4,0.6-3.5L21.3,32.6z"/>
<path class="st2" d="M25.1,34.2l-4.7,6.6l3.3,2.3l5-7c0.2-0.2,0.3-0.5,0.3-0.8L29,35c-0.9-1-2.3-2.2-3.5-3.3L25.1,34.2z"/>
<circle class="st2" cx="34" cy="10" r="4"/>
<path class="st2" d="M32.1,28.1c0-0.1,0.1-0.2,0.1-0.4l0.7-3l0.8-3.4c0.3,0.5,0.5,1.1,0.8,1.8c0.2,0.7,0.5,1.2,0.8,1.7
	c1,1.7,3.3,3.4,3.5,3.6l2.4-3.2c-0.6-0.4-2-1.6-2.5-2.4c-0.1-0.2-0.3-0.7-0.4-1.1C37.5,19.8,36.1,16,32,16c-1.6,0-9.5,0.3-11.4,5.9
	c-0.6,1.8-1,3.6-1.1,3.7l3.9,0.9c0,0,0.4-1.7,0.9-3.3c0.4-1.2,1.8-2,3.4-2.5l-0.6,2.5l-0.8,3.2c-0.3,1.4,0.3,2.7,1.5,3.4
	c1.3,1.2,3.8,3.6,4.6,4.5c0.6,0.8,1.8,4.9,2.6,8.2l3.9-0.9c-0.6-2.4-2.1-8.1-3.4-9.8C34.9,30.9,33.3,29.4,32.1,28.1z"/>
</svg>
