<?xml version="1.0" encoding="utf-8"?>
<!-- Generator: Adobe Illustrator 23.0.1, SVG Export Plug-In . SVG Version: 6.00 Build 0)  -->
<svg version="1.1" id="Layer_3" xmlns="http://www.w3.org/2000/svg" xmlns:xlink="http://www.w3.org/1999/xlink" x="0px" y="0px"
	 viewBox="0 0 48 48" style="enable-background:new 0 0 48 48;" xml:space="preserve">
<style type="text/css">
	.st0{fill:#FFFFFF;}
</style>
<path class="st0" d="M42,27.3c0-0.8-0.5-1.4-1.4-1.8c0,0-9.9-4.9-10.4-5.1c-1-0.5-1.3-0.7-2.2-1.7c-0.2-0.3-8.2-8.9-8.2-8.9
	c-1-1-2.8-1.3-4.3-0.6l-8,4c-0.8,0.4-1.4,1.1-1.6,1.9c0,0.2,0,0.4,0,0.7c0,0,0,0.1,0,0.1v10c0,0,0,0,0,0c0,1.6,0.6,2.7,1.8,3.3
	c0.1,0,0.5,0.2,1.1,0.5c0.3,0.1,0.6,0.3,1,0.5c0.6,0.3,1.3,0.6,2,1c5.8,2.8,15.5,7.6,15.6,7.7l0,0c0,0,0,0,0,0
	c0.7,0.3,1.5,0.5,2.4,0.5c0.8,0,1.7-0.2,2.4-0.5l8.3-4.1c1-0.6,1.4-1.4,1.4-2.8c0,0,0,0,0,0c0-2.4,0-4.2,0-4.8
	C42,27.4,42,27.4,42,27.3z M8.5,15.1l8-4c0.3-0.1,0.6-0.2,0.9-0.2c0.4,0,0.8,0.1,1,0.3c0,0,8,8.6,8.2,8.9c1,1.1,1.5,1.5,2.7,2.1
	c0.5,0.2,10.4,5.1,10.4,5.1c0,0,0.1,0,0.1,0.1c0,0-0.1,0-0.1,0.1l-8.2,4c-0.8,0.4-2.2,0.4-3,0c0,0-8.9-4.4-9.7-4.8
	c-1.1-0.5-1.5-0.9-2.2-1.7c-0.6-0.7-8.5-9.2-8.5-9.2C8,15.6,8,15.6,8,15.6C8,15.4,8.2,15.2,8.5,15.1z M39.6,33.2l-8.2,4
	c-0.8,0.4-2.2,0.4-3,0c-0.8-0.4-19-9.4-19.8-9.7C8.5,27.4,8,27.2,8,25.9v-7.3c2.3,2.5,6.7,7.2,7.1,7.7c0.9,1,1.5,1.5,2.8,2.1
	c0.8,0.4,9.7,4.8,9.7,4.8c0.7,0.3,1.5,0.5,2.4,0.5s1.7-0.2,2.4-0.5l7.6-3.7c0,0.7,0,1.7,0,2.7c0,0,0,0,0,0l0,0
	C40,33,39.8,33.1,39.6,33.2z"/>
<path class="st0" d="M19.6,25.2c0.2,0.4,0.5,0.6,0.9,0.6c0.1,0,0.3,0,0.4-0.1l5-2.5c0.5-0.2,0.7-0.8,0.4-1.3
	c-0.2-0.5-0.8-0.7-1.3-0.4l-5,2.5C19.6,24.1,19.4,24.7,19.6,25.2z"/>
<path class="st0" d="M30,29.5c2.3,0,4-1.1,4-2.5s-1.7-2.5-4-2.5s-4,1.1-4,2.5S27.7,29.5,30,29.5z M30,26.5c1,0,1.7,0.3,1.9,0.5
	c-0.2,0.2-0.9,0.5-1.9,0.5c-1,0-1.7-0.3-1.9-0.5C28.3,26.8,29,26.5,30,26.5z"/>
<path class="st0" d="M18.9,21c0.2,0.2,0.5,0.3,0.7,0.3c0.2,0,0.5-0.1,0.7-0.3c0.4-0.4,0.4-1,0.1-1.4l-3.8-4.1
	c-0.4-0.4-1-0.4-1.4-0.1c-0.4,0.4-0.4,1-0.1,1.4L18.9,21z"/>
</svg>
