<?xml version="1.0" encoding="UTF-8"?>
<svg width="24px" height="24px" viewBox="0 0 24 24" version="1.1" xmlns="http://www.w3.org/2000/svg" xmlns:xlink="http://www.w3.org/1999/xlink">
    <!-- Generator: Sketch 63.1 (92452) - https://sketch.com -->
    <title>Security</title>
    <desc>Created with Sketch.</desc>
    <g id="Security" stroke="none" stroke-width="1" fill="none" fill-rule="evenodd">
        <path d="M18,10 C19.1045695,10 20,10.8954305 20,12 L20,19 C20,20.1045695 19.1045695,21 18,21 L6,21 C4.8954305,21 4,20.1045695 4,19 L4,12 C4,10.8954305 4.8954305,10 6,10 L18,10 Z M15.0088053,13 L11.2991195,16.9105268 L8.99119474,14.4775923 L8,15.5224077 L11.2991195,19 L16,14.0448155 L15.0088053,13 Z" id="Combined-Shape" fill="#FFFFFF"></path>
        <path d="M13,4 L11,4 C9.8954305,4 8.8954305,4.44771525 8.17157288,5.17157288 C7.44771525,5.8954305 7,6.8954305 7,8 L7,12 L17,12 L17,8 C17,6.8954305 16.5522847,5.8954305 15.8284271,5.17157288 C15.1045695,4.44771525 14.1045695,4 13,4 Z" id="Rectangle" stroke="#FFFFFF" stroke-width="2"></path>
    </g>
</svg>