<?xml version="1.0" encoding="UTF-8"?>
<svg width="24px" height="24px" viewBox="0 0 24 24" version="1.1" xmlns="http://www.w3.org/2000/svg" xmlns:xlink="http://www.w3.org/1999/xlink">
    <title>Time</title>
    <g id="Time" stroke="none" stroke-width="1" fill="none" fill-rule="evenodd">
        <path d="M12.3478328,20.9136222 C12.128867,21.0287926 11.871133,21.0287926 11.6521672,20.9136222 C11.4368172,20.8003537 11.0752829,20.5898221 10.6155564,20.2875668 C9.85324319,19.7863706 9.09106447,19.2050856 8.37671864,18.5475628 C6.2800353,16.617661 5,14.4295488 5,12 L5,5.45454545 C5,5.07910829 5.24289796,4.75184939 5.58913896,4.6607925 L11.8113612,3.02442886 C11.9352145,2.99185705 12.0647855,2.99185705 12.1886388,3.02442886 L18.410861,4.6607925 C18.757102,4.75184939 19,5.07910829 19,5.45454545 L19,12 C19,14.4295488 17.7199647,16.617661 15.6232814,18.5475628 C14.9089355,19.2050856 14.1467568,19.7863706 13.3844436,20.2875668 C12.9247171,20.5898221 12.5631828,20.8003537 12.3478328,20.9136222 Z M12.5400008,18.8531411 C13.2111631,18.4014841 13.882455,17.8774609 14.5061215,17.2898882 C16.2343198,15.6617071 17.25,13.8846086 17.25,12.0429791 L17.25,6.21318959 L12,4.8 C11.8892995,14.3324721 11.8892995,19.1324721 12,19.2 C12.1660507,19.0987082 12.3471531,18.9829174 12.5400008,18.8531411 Z" id="Shape" fill="#FFFFFF" fill-rule="nonzero"></path>
    </g>
</svg>