<?xml version="1.0" encoding="UTF-8"?>
<svg width="24px" height="24px" viewBox="0 0 24 24" version="1.1" xmlns="http://www.w3.org/2000/svg" xmlns:xlink="http://www.w3.org/1999/xlink">
    <!-- Generator: Sketch 63.1 (92452) - https://sketch.com -->
    <title>Time</title>
    <desc>Created with Sketch.</desc>
    <g id="Time" stroke="none" stroke-width="1" fill="none" fill-rule="evenodd">
        <path d="M12,3 C16.9705627,3 21,7.02943725 21,12 C21,16.9705627 16.9705627,21 12,21 C7.02943725,21 3,16.9705627 3,12 C3,7.02943725 7.02943725,3 12,3 Z M12,4.28571429 C7.73951764,4.28571429 4.28571429,7.73951764 4.28571429,12 C4.28571429,16.2604824 7.73951764,19.7142857 12,19.7142857 C16.2604824,19.7142857 19.7142857,16.2604824 19.7142857,12 C19.7142857,7.73951764 16.2604824,4.28571429 12,4.28571429 Z M12,5.57142857 C15.550402,5.57142857 18.4285714,8.44959804 18.4285714,12 C18.4285714,15.550402 15.550402,18.4285714 12,18.4285714 C8.44959804,18.4285714 5.57142857,15.550402 5.57142857,12 C5.57142857,8.44959804 8.44959804,5.57142857 12,5.57142857 Z M12.3236793,8 L11,8 L11,11.8773823 L11.0129748,12.0047673 C11.0471788,12.170884 11.1474187,12.3191956 11.2947171,12.4150785 L11.2947171,12.4150785 L15.2657549,15 L16,13.9246076 L12.3236793,11.5310028 L12.3236793,8 Z" id="Combined-Shape" fill="#FFFFFF"></path>
    </g>
</svg>