<svg width="24" height="24" viewBox="0 0 24 24" fill="none" xmlns="http://www.w3.org/2000/svg">
<path fill-rule="evenodd" clip-rule="evenodd" d="M11.4898 6.76631V4C9.38495 4.12503 7.46168 4.98873 5.97904 6.33539L7.90971 8.27334C8.88591 7.42675 10.1258 6.87908 11.4898 6.76631ZM11.6928 11.4336C10.8468 12.0464 10.6346 13.0432 11.3818 13.7932C11.6756 14.0882 12.03 14.2335 12.3907 14.2335C12.8682 14.2335 13.357 13.9792 13.7325 13.4809C14.9699 11.8391 18.4499 6.69835 18.4499 6.69835C18.4499 6.69835 13.3492 10.2195 11.6928 11.4336ZM18.2436 12.5227H21C20.8922 10.6462 20.2155 8.92303 19.1402 7.52404C18.8509 7.95046 18.2041 8.9019 17.4668 9.97492C17.8944 10.7397 18.1673 11.6032 18.2436 12.5227ZM5.22987 7.09897L7.16353 9.03996C6.37486 9.99943 5.86458 11.2002 5.75613 12.5228H3C3.12084 10.4559 3.94412 8.56932 5.22987 7.09897ZM5.7567 13.5814C5.89024 15.1917 6.62681 16.6301 7.73975 17.6677L7.77489 17.7002C7.98051 17.889 7.97734 18.215 7.76729 18.3989L6.39091 19.6035C6.20793 19.7637 5.93418 19.7551 5.75906 19.5863C4.16731 18.052 3.13531 15.9374 3 13.5814H5.7567ZM16.2108 17.6677C17.3237 16.6301 18.0603 15.1917 18.1938 13.5814H20.9505C20.8152 15.9374 19.7832 18.052 18.1915 19.5863C18.0164 19.7551 17.7426 19.7637 17.5596 19.6035L16.1833 18.3989C15.9732 18.215 15.97 17.889 16.1757 17.7002L16.2108 17.6677ZM12.5455 4C14.4686 4.11129 16.23 4.82698 17.6446 5.96088C17.2373 6.24233 16.2991 6.89148 15.2333 7.63322C14.4351 7.15413 13.5222 6.84835 12.5455 6.76684V4Z" fill="white"/>
</svg>
