<svg width="64" height="64" viewBox="0 0 64 64" fill="none" xmlns="http://www.w3.org/2000/svg">
<path fill-rule="evenodd" clip-rule="evenodd" d="M56.5257 11H7.4743L31.3217 33.013C31.7048 33.3666 32.2952 33.3666 32.6783 33.013L56.5257 11ZM6 12.3609L6 44.5858L22.7569 27.8289L6 12.3609ZM7.41421 46H56.5858L39.7723 29.1865L34.0348 34.4826C32.8856 35.5434 31.1143 35.5434 29.9652 34.4826L24.2277 29.1865L7.41421 46ZM58 44.5857V12.3609L41.2431 27.8288L58 44.5857ZM4 11C4 9.89543 4.89543 9 6 9H58C59.1046 9 60 9.89543 60 11V46C60 47.1046 59.1046 48 58 48H6C4.89543 48 4 47.1046 4 46V11ZM12 50C12.5523 50 13 50.4477 13 51V55C13 55.5523 12.5523 56 12 56C11.4477 56 11 55.5523 11 55V51C11 50.4477 11.4477 50 12 50ZM23 51C23 50.4477 22.5523 50 22 50C21.4477 50 21 50.4477 21 51V57C21 57.5523 21.4477 58 22 58C22.5523 58 23 57.5523 23 57V51ZM32 50C32.5523 50 33 50.4477 33 51V59C33 59.5523 32.5523 60 32 60C31.4477 60 31 59.5523 31 59V51C31 50.4477 31.4477 50 32 50ZM43 51C43 50.4477 42.5523 50 42 50C41.4477 50 41 50.4477 41 51V57C41 57.5523 41.4477 58 42 58C42.5523 58 43 57.5523 43 57V51ZM52 50C52.5523 50 53 50.4477 53 51V55C53 55.5523 52.5523 56 52 56C51.4477 56 51 55.5523 51 55V51C51 50.4477 51.4477 50 52 50Z" fill="#53707F"/>
</svg>
