<svg width="64" height="64" viewBox="0 0 64 64" fill="none" xmlns="http://www.w3.org/2000/svg">
<path d="M48 5C50.2091 5 52 6.79086 52 9V59L32 47.9107L12 59V9C12 6.79086 13.7909 5 16 5H48ZM48 7H16C14.9456 7 14.0818 7.81588 14.0055 8.85074L14 9V55.603L32 45.6239L50 55.604V9C50 7.94564 49.1841 7.08183 48.1493 7.00549L48 7ZM26.737 18.2258L26.8384 18.3154L32 23.477L37.1616 18.3154L37.263 18.2258C37.6855 17.8973 38.2964 17.9272 38.6846 18.3154C39.0751 18.7059 39.103 19.3218 38.7683 19.7445L38.6846 19.8384L33.523 25L38.6846 30.1616C39.1051 30.5821 39.1051 31.264 38.6846 31.6846C38.2964 32.0728 37.6855 32.1027 37.263 31.7742L37.1616 31.6846L32 26.523L26.8384 31.6846L26.737 31.7742C26.3145 32.1027 25.7036 32.0728 25.3154 31.6846C24.9249 31.2941 24.897 30.6782 25.2317 30.2555L25.3154 30.1616L30.477 25L25.3154 19.8384C24.8949 19.4179 24.8949 18.736 25.3154 18.3154C25.7036 17.9272 26.3145 17.8973 26.737 18.2258Z" fill="#53707F"/>
</svg>
