<svg width="64" height="64" viewBox="0 0 64 64" fill="none" xmlns="http://www.w3.org/2000/svg">
<path fill-rule="evenodd" clip-rule="evenodd" d="M28.534 10C24.6648 10 21.5283 13.1366 21.5283 17.0057V20.4943C21.5283 24.3634 24.6648 27.5 28.534 27.5C32.4031 27.5 35.5397 24.3634 35.5397 20.4943V17.0057C35.5397 13.1366 32.4031 10 28.534 10ZM19.5283 17.0057C19.5283 12.032 23.5603 8 28.534 8C30.0105 8 31.4041 8.35536 32.6338 8.98522C32.6006 8.96822 32.5673 8.95142 32.5339 8.93482C33.739 8.33643 35.0971 8 36.5338 8C41.5075 8 45.5394 12.032 45.5394 17.0056V20.4944C45.5394 25.468 41.5075 29.5 36.5338 29.5C35.0971 29.5 33.739 29.1636 32.5339 28.5652C32.5339 28.5652 32.5339 28.5652 32.5339 28.5652C31.3288 29.1636 29.9707 29.5 28.534 29.5C23.5603 29.5 19.5283 25.468 19.5283 20.4943V17.0057ZM34.5338 27.2104C35.1676 27.3988 35.8389 27.5 36.5338 27.5C40.4029 27.5 43.5394 24.3635 43.5394 20.4944V17.0056C43.5394 13.1365 40.4029 10 36.5338 10C35.8389 10 35.1676 10.1012 34.5338 10.2896C36.3785 11.9387 37.5397 14.3366 37.5397 17.0057V20.4943C37.5397 23.1634 36.3785 25.5613 34.5338 27.2104ZM8.81612 42.6211C9.91462 36.9848 14.8522 32.9167 20.5945 32.9167H35.406H43.4057C49.148 32.9167 54.0856 36.9848 55.1841 42.6211L55.9629 46.6174C56.2036 47.8523 55.258 49 53.9999 49L48 49H46V47H46.0002L45.2213 43.0037C44.3059 38.3068 40.1913 34.9167 35.406 34.9167H20.5945C15.8092 34.9167 11.6946 38.3068 10.7792 43.0037L10.0003 47H18V49H10.0003C8.74222 49 7.79658 47.8522 8.03725 46.6174L8.81612 42.6211ZM48.0378 47H53.9999L53.221 43.0037C52.3056 38.3068 48.191 34.9167 43.4057 34.9167H42.0397C44.6427 36.6447 46.5512 39.3724 47.1844 42.6211L48.0378 47ZM28 49V47H28.0003V49H28ZM37.2929 42.2929C37.6834 41.9024 38.3166 41.9024 38.7071 42.2929C39.0976 42.6834 39.0976 43.3166 38.7071 43.7071L33.4142 49L38.7071 54.2929C39.0976 54.6834 39.0976 55.3166 38.7071 55.7071C38.3166 56.0976 37.6834 56.0976 37.2929 55.7071L32 50.4142L26.7071 55.7071C26.3166 56.0976 25.6834 56.0976 25.2929 55.7071C24.9024 55.3166 24.9024 54.6834 25.2929 54.2929L30.5858 49L25.2929 43.7071C24.9024 43.3166 24.9024 42.6834 25.2929 42.2929C25.6834 41.9024 26.3166 41.9024 26.7071 42.2929L32 47.5858L37.2929 42.2929Z" fill="#53707F"/>
</svg>
