<svg xmlns="http://www.w3.org/2000/svg" width="200" height="75" fill="none" viewBox="0 0 200 75">
  <g class="illustrations/200x75/ptz_promo_scroll">
    <path fill="#E1E7EA" d="M99.751 59.99c.533 0 .965.431.965.964v9.605l3.523-3.524a.965.965 0 0 1 1.366 1.365l-5.854 5.855-5.856-5.855a.965.965 0 1 1 1.366-1.365l3.524 3.525v-9.606c0-.533.433-.965.966-.965Zm-.001-36.602a6.5 6.5 0 0 1 6.535 6.535V50.61a6.5 6.5 0 0 1-6.535 6.535 6.501 6.501 0 0 1-6.535-6.535V29.923c0-3.636 2.9-6.535 6.535-6.535ZM99.751 0c20.511 0 35.977 3.04 46.309 11.639 10.354 8.616 15.44 22.716 15.44 44.542a.482.482 0 0 1-.965 0c0-21.699-5.059-35.449-15.094-43.8C135.384 4.01 120.216.966 99.751.966 79.285.966 64.116 4.01 54.059 12.38c-10.035 8.351-15.093 22.101-15.093 43.8a.483.483 0 0 1-.966 0c0-21.826 5.087-35.926 15.441-44.542C63.773 3.04 79.24 0 99.751 0Zm-.001 25.318a4.57 4.57 0 0 0-4.605 4.605V50.61a4.57 4.57 0 0 0 4.605 4.605 4.57 4.57 0 0 0 4.604-4.605V29.923a4.57 4.57 0 0 0-4.604-4.605Zm5.854-13.185a.965.965 0 1 1-1.365 1.365l-3.523-3.523v9.604a.966.966 0 1 1-1.93 0V9.974l-3.525 3.524a.965.965 0 1 1-1.365-1.365l5.855-5.855 5.853 5.855Z" class="Primary"/>
  </g>
</svg>
