<svg xmlns="http://www.w3.org/2000/svg" width="200" height="75" fill="none" viewBox="0 0 200 75">
  <g class="illustrations/200x75/ptz_promo_tracking">
    <path fill="#E1E7EA" d="M135.872 47.204c0 5.641-4.594 10.214-10.261 10.214-5.668 0-10.262-4.573-10.262-10.214 0-5.642 4.594-10.215 10.262-10.215 5.667 0 10.261 4.574 10.261 10.215Zm-19.705 0c0 5.191 4.228 9.4 9.444 9.4 5.215 0 9.443-4.209 9.443-9.4 0-5.192-4.228-9.4-9.443-9.4-5.216 0-9.444 4.208-9.444 9.4Z" class="Secondary" opacity=".6"/>
    <path fill="#171C1F" d="m121.975 49.495-14.511 5.778 4.353 2.167-5.003 4.98 1.814 1.805 5.003-4.98 2.539 4.695 5.805-14.445Z" class="Tertiary"/>
    <path fill="#E1E7EA" d="M129.83 74h6.534v1h-7.534v-7.5h1V74Zm47.972 1h-7.534v-1h6.534v-6.5h1V75Zm-22.138-56.174c1.015 0 1.916.203 2.703.608.787.404 1.459 1.01 2.017 1.82l3.198 4.783c1.32 2 3.121 3.736 5.405 5.212 2.284 1.476 3.841 2.214 6.887 2.214v4.283c-3.401 0-5.326-.737-7.991-2.213-2.664-1.475-5.138-3.689-7.422-6.64l-2.969 11.28 6.927 5.998v20.776h-4.567V49.884l-8.223-7.069-3.197 13.422-9.524 9.457-3.132-3.133 8.771-8.771 5.255-28.967-7.613 3.356v9.567h-4.568V25.252l12.486-4.926c1.624-.666 2.779-1.083 3.464-1.25a8.827 8.827 0 0 1 2.093-.25ZM125.61 44.14c1.7 0 3.078 1.372 3.078 3.064a3.072 3.072 0 0 1-3.078 3.065 3.079 3.079 0 0 1-2.738-1.667l-6.636 16.513-2.726-5.044-4.882 4.86-2.523-2.511 4.866-4.843-4.731-2.355 16.631-6.623a3.044 3.044 0 0 1-.34-1.395 3.072 3.072 0 0 1 3.079-3.064Zm-16.922 11.183 3.975 1.98-5.141 5.117 1.106 1.1 5.125-5.101 2.351 4.347 4.972-12.375-12.388 4.932Zm-47.59-20.956a2 2 0 0 1 2 2V57.43a2 2 0 0 1-2 2H25a2 2 0 0 1-2-2V36.367a2 2 0 0 1 2-2h36.098Zm-36.098 1a1 1 0 0 0-1 1V57.43a1 1 0 0 0 1 1h36.098a1 1 0 0 0 1-1V36.367a1 1 0 0 0-1-1H25Zm60.865 9.982h4.717v2h-4.717v4.477h-2V47.35h-4.477v-2h4.477v-4.716h2v4.716ZM49.18 44.03h1.282v.902H49.18v4.265c0 .233.036.408.108.527a.517.517 0 0 0 .28.235c.114.038.236.057.368.057.097 0 .199-.009.304-.026.11-.02.192-.038.247-.05l.007.958c-.093.03-.216.057-.368.082-.148.03-.328.045-.54.045-.288 0-.552-.057-.793-.172a1.277 1.277 0 0 1-.578-.57c-.14-.272-.21-.636-.21-1.093v-4.258h-1.256v-.902h1.257v-1.67h1.174v1.67Zm-5.815 6.868h-1.257l-.88-2.419h-3.865l-.879 2.42h-1.25l3.523-9.243h1.073l3.535 9.242Zm2.336 0h-1.18v-9.75h1.18v9.75Zm-7.973-3.421h3.135l-1.57-4.314-1.565 4.314Zm122.505-41.93c1.523 0 2.83.512 3.921 1.535 1.091 1.023 1.637 2.249 1.637 3.677s-.546 2.653-1.637 3.676c-1.091 1.024-2.398 1.536-3.921 1.536-1.522 0-2.829-.512-3.921-1.536-1.091-1.023-1.636-2.248-1.636-3.676s.545-2.654 1.636-3.677c1.092-1.023 2.399-1.535 3.921-1.535ZM136.364 1h-6.534v6.5h-1V0h7.534v1Zm41.438 6.5h-1V1h-6.534V0h7.534v7.5Z" class="Primary"/>
  </g>
</svg>
