<svg xmlns="http://www.w3.org/2000/svg" width="200" height="75" fill="none" viewBox="0 0 200 75">
  <g class="illustrations/200x75/ptz_promo_hold_shift">
    <path fill="#DAE0E7" d="M190 65h-86V10h86v55Zm-85-1h84V11h-84v53Zm45-42.5a.5.5 0 0 1 .5.5v3.012a10 10 0 0 1 9.487 9.488H163a.5.5 0 0 1 0 1h-3.013a10 10 0 0 1-9.486 9.487V48a.5.5 0 0 1-1 0v-3.013a10 10 0 0 1-9.488-9.487H137a.5.5 0 0 1 0-1h3.013a10 10 0 0 1 9.487-9.488V22a.5.5 0 0 1 .5-.5Zm.5 7.5a.5.5 0 0 1-1 0v-2.986a9 9 0 0 0-8.485 8.486H144a.5.5 0 0 1 0 1h-2.985a8.999 8.999 0 0 0 8.486 8.485V41a.5.5 0 0 1 1 0v2.985a8.999 8.999 0 0 0 8.484-8.485H156a.5.5 0 0 1 0-1h2.985a9 9 0 0 0-8.485-8.486V29Z" class="Secondary" opacity=".6"/>
    <path fill="#171C1F" d="m146.426 38.005-14.511 5.779 4.353 2.166-5.003 4.98 1.814 1.806 5.003-4.98 2.54 4.695 5.804-14.446Z" class="Tertiary"/>
    <path fill="#DAE0E7" d="M106 63h10v2h-12V53h2v10Zm84 2h-12v-2h10V53h2v12Zm-49.312-11.373-2.727-5.044-4.882 4.86-2.522-2.512 4.866-4.844-4.731-2.355 16.634-6.623-6.638 16.518Zm-7.55-9.793 3.976 1.98-5.139 5.117 1.104 1.1 5.125-5.101 2.351 4.344 4.972-12.374-12.389 4.934ZM64 25a2 2 0 0 1 2 2v21a2 2 0 0 1-1.796 1.99L64 50H12l-.204-.01A2 2 0 0 1 10 48V27a2 2 0 0 1 2-2h52Zm-52 1a1 1 0 0 0-1 1v21a1 1 0 0 0 1 1h52a1 1 0 0 0 1-1V27a1 1 0 0 0-1-1H12Zm11.076 4.5c.293 0 .578.126.78.345l4.92 5.31c.3.322.383.797.213 1.208-.17.412-.56.677-.993.677h-1.99v5.345c0 .615-.485 1.115-1.08 1.115h-3.7c-.595 0-1.08-.5-1.08-1.115V38.04h-1.99c-.433 0-.823-.265-.993-.677a1.141 1.141 0 0 1 .213-1.209l4.92-5.31c.203-.218.487-.344.78-.344ZM86 37h5v2h-5v5h-2v-5h-5v-2h5v-5h2v5Zm-67.843-.075h2.53c.298 0 .54.25.54.557v5.904l3.699-.001v-5.903a.55.55 0 0 1 .54-.557h2.53l-4.92-5.31-4.919 5.31Zm18.354-3.915c.694 0 1.282.133 1.764.4.487.262.857.607 1.11 1.034.254.423.382.877.382 1.359h-1.22c0-.347-.073-.655-.22-.921a1.532 1.532 0 0 0-.674-.635c-.3-.156-.681-.234-1.142-.234-.436 0-.796.065-1.08.196a1.427 1.427 0 0 0-.634.533 1.453 1.453 0 0 0-.203.769c0 .194.04.372.12.533.084.156.214.302.388.437.177.136.402.261.672.375.275.115.603.225.984.33.524.149.977.314 1.358.496.38.182.694.386.94.615.25.224.434.48.552.768.123.284.184.606.184.965 0 .377-.076.717-.229 1.022a2.23 2.23 0 0 1-.653.781 3.161 3.161 0 0 1-1.022.501 4.732 4.732 0 0 1-1.32.172c-.428 0-.849-.06-1.263-.178a3.766 3.766 0 0 1-1.124-.533 2.796 2.796 0 0 1-.806-.876 2.433 2.433 0 0 1-.299-1.219h1.219c0 .317.062.59.184.819.123.224.29.41.502.558.215.148.46.258.73.33.275.068.56.102.856.102.428 0 .79-.06 1.086-.178.296-.118.52-.288.673-.508.157-.22.234-.48.234-.78a1.5 1.5 0 0 0-.101-.571 1.09 1.09 0 0 0-.343-.457 2.69 2.69 0 0 0-.673-.388 9.418 9.418 0 0 0-1.079-.374 9.917 9.917 0 0 1-1.237-.451 4.332 4.332 0 0 1-.946-.577 2.281 2.281 0 0 1-.603-.744 2.107 2.107 0 0 1-.21-.958 2.253 2.253 0 0 1 .858-1.79c.279-.228.61-.406.996-.533.385-.127.815-.19 1.289-.19Zm21.1 2.5h1.282v.902H57.61v4.266c0 .232.036.408.108.526a.517.517 0 0 0 .28.236c.113.038.236.056.367.056.098 0 .2-.008.305-.025a7.42 7.42 0 0 0 .248-.051l.006.959c-.093.03-.216.057-.368.082a2.8 2.8 0 0 1-.54.045c-.287 0-.552-.058-.793-.172a1.277 1.277 0 0 1-.578-.571c-.14-.271-.21-.635-.21-1.092v-4.259H55.18v-.901h1.256v-1.67h1.175v1.67Zm-15.26.823.012-.017a2.545 2.545 0 0 1 2.012-.932c.339 0 .643.046.914.14.27.088.502.232.692.431.195.199.343.457.445.775.101.313.152.696.152 1.148v4.5h-1.18v-4.513c0-.36-.054-.647-.16-.863a.975.975 0 0 0-.463-.476 1.666 1.666 0 0 0-.749-.152 1.74 1.74 0 0 0-.8.184 1.913 1.913 0 0 0-.616.507c-.1.127-.185.267-.26.416v4.898h-1.174v-9.75h1.175v3.704Zm7.261 6.046h-1.18V35.51h1.18v6.868Zm4.716-9.884a3.278 3.278 0 0 1 .813.102l-.064.959a1.938 1.938 0 0 0-.304-.045 4.337 4.337 0 0 0-.33-.013c-.25 0-.466.05-.648.152a.957.957 0 0 0-.406.432c-.093.19-.14.426-.14.705v.724h1.46v.901h-1.46v5.967h-1.174v-5.967H50.99v-.901h1.086v-.724c0-.495.09-.912.267-1.25.182-.343.442-.602.78-.775.339-.178.74-.267 1.206-.267ZM150 33a2 2 0 1 1 0 4 2 2 0 0 1 0-4Zm-100.966.01c.224 0 .396.065.515.196a.68.68 0 0 1 .183.482.665.665 0 0 1-.183.47c-.119.127-.29.19-.515.19-.228 0-.402-.063-.52-.19a.691.691 0 0 1-.171-.47c0-.19.056-.35.17-.482.12-.131.293-.196.521-.196ZM116 12h-10v10h-2V10h12v2Zm74 10h-2V12h-10v-2h12v12Z" class="Primary"/>
  </g>
</svg>
