<svg xmlns="http://www.w3.org/2000/svg" width="16" height="16" fill="none" viewBox="0 0 16 16">
  <g class="16x16/Outline/airtransport" clip-path="url(#a)">
    <path fill="#E1E7EA" d="M7.394 3.628a.4.4 0 0 1 .226.01l.07.031 1.978 1.134.916-.362a5.07 5.07 0 0 1 4.424.338 1.378 1.378 0 0 1-.14 2.452c-.867.382-1.754.686-2.66.912l-1.497.372-2.075 3.236a.8.8 0 0 1-.48.344l-1.136.283a.8.8 0 0 1-.958-1.013l.567-1.832-4.78 1.192a.8.8 0 0 1-.97-.582l-.088-.356a.8.8 0 0 1 .325-.855l.543-.37L.024 6.826 1.32 5.91l2.449 1.227 3.226-1.276-1.237-1.194a.4.4 0 0 1 .118-.655l.063-.021 1.455-.363Zm2.185 5.17-2.042.509-.71 2.295 1.136-.283 1.616-2.521ZM1.39 6.84l-.152.107 1.647 1.75-1.317.897.088.355 10.36-2.583a15.684 15.684 0 0 0 2.53-.868.578.578 0 0 0 .06-1.028 4.267 4.267 0 0 0-.958-.413l-1.119.94-.514-.612.59-.496a4.269 4.269 0 0 0-1.532.225l-.194.071-.323.127-2.929 1.16h.001l-3.896 1.54L1.389 6.84Zm6.042-2.397-.599.15.98.945.904-.358-1.285-.737Z" class="Primary"/>
  </g>
  <defs>
    <clipPath id="a" class="a">
      <path fill="#fff" d="M0 0h16v16H0z"/>
    </clipPath>
  </defs>
</svg>
