<svg xmlns="http://www.w3.org/2000/svg" width="16" height="16" fill="none" viewBox="0 0 16 16">
  <g class="16x16/Outline/analytics">
    <path fill="#E1E7EA" d="M13.509 5.126c.823 0 1.491-.7 1.491-1.563S14.332 2 13.509 2c-.824 0-1.491.7-1.491 1.563 0 .359.115.69.309.953l-3.325 5.776L6.63 7.378c.098-.208.152-.442.152-.689 0-.863-.667-1.563-1.49-1.563-.824 0-1.492.7-1.492 1.563 0 .32.092.618.25.866l-2.953 4.534a.607.607 0 0 0 .133.806c.243.184.58.12.75-.142l2.958-4.544a1.43 1.43 0 0 0 .889-.06l3.324 4.085 4.104-7.13c.083.015.167.022.254.022Z" class="Primary"/>
  </g>
</svg>
