<svg xmlns="http://www.w3.org/2000/svg" width="16" height="16" fill="none" viewBox="0 0 16 16">
  <g class="16x16/Outline/analytics">
    <path fill="#E5E9EB" fill-rule="evenodd" d="M7.5 1.5a.5.5 0 0 1 1 0v1.022A5.501 5.501 0 0 1 13.477 7.5H14.5a.5.5 0 1 1 0 1h-1.023A5.501 5.501 0 0 1 8.5 13.478V14.5a.5.5 0 1 1-1 0v-1.022A5.502 5.502 0 0 1 2.522 8.5H1.5a.5.5 0 0 1 0-1h1.022A5.502 5.502 0 0 1 7.5 2.522V1.5Zm4.973 6H11.5a.5.5 0 0 0 0 1h.973A4.502 4.502 0 0 1 8.5 12.473V11.5a.5.5 0 0 0-1 0v.973A4.502 4.502 0 0 1 3.527 8.5H4.5a.5.5 0 0 0 0-1h-.973A4.502 4.502 0 0 1 7.5 3.527V4.5a.5.5 0 0 0 1 0v-.973A4.502 4.502 0 0 1 12.473 7.5Z" class="Primary" clip-rule="evenodd"/>
  </g>
</svg>
