<svg xmlns="http://www.w3.org/2000/svg" width="16" height="16" fill="none" viewBox="0 0 16 16">
  <g class="16x16/Outline/animal">
    <path fill="#E1E7EA" d="m8.993 6.71.296.297a3.139 3.139 0 0 1 .203 4.216 2.51 2.51 0 1 1-4.93.527l-.312-.313a2.51 2.51 0 1 1 .528-4.928 3.138 3.138 0 0 1 4.215.202Zm-3.682.444a.837.837 0 0 1-.755.162 1.673 1.673 0 0 0-1.629 2.798c.308.307.712.477 1.135.49l.142-.003a.837.837 0 0 1 .562.177l.075.067.314.314c.144.144.23.335.243.536v.101a1.674 1.674 0 1 0 3.317-.219l-.03-.133a.837.837 0 0 1 .161-.754 2.302 2.302 0 0 0-.051-2.988l-.098-.104-.295-.295a2.302 2.302 0 0 0-3.091-.15Zm8.417 1.924c.74.74.307 1.764-.592 2.663-.899.899-1.923 1.332-2.663.592-.74-.74-.307-1.764.592-2.663.899-.899 1.923-1.332 2.663-.592Zm-2.071 1.184c-.718.718-.857 1.215-.592 1.48.264.263.761.125 1.48-.593.717-.718.855-1.215.591-1.48-.264-.263-.761-.125-1.48.593Zm2.367-5.623c.74.74.307 1.765-.592 2.664-.899.898-1.923 1.331-2.663.591-.74-.74-.307-1.764.592-2.663.898-.899 1.923-1.331 2.663-.592Zm-2.071 1.184c-.718.718-.857 1.215-.592 1.48.264.264.761.126 1.48-.592.717-.718.855-1.216.591-1.48s-.762-.126-1.48.592Zm-.592-3.847c.74.74.307 1.765-.592 2.663-.899.9-1.924 1.332-2.663.592-.74-.74-.307-1.764.591-2.663.9-.899 1.924-1.332 2.664-.592Zm-4.143 0c.74.74.307 1.765-.592 2.663-.899.9-1.923 1.332-2.663.592-.74-.74-.307-1.764.592-2.663.899-.899 1.923-1.332 2.663-.592ZM9.289 3.16c-.718.718-.856 1.215-.592 1.48.265.264.762.125 1.48-.592.718-.718.856-1.216.592-1.48s-.762-.126-1.48.592Zm-4.142 0c-.718.718-.857 1.215-.592 1.48.264.264.761.125 1.48-.592.717-.718.855-1.216.591-1.48s-.762-.126-1.48.592Z" class="Primary"/>
  </g>
</svg>
