<svg xmlns="http://www.w3.org/2000/svg" width="16" height="16" fill="none" viewBox="0 0 16 16">
  <g class="16x16/Outline/bike">
    <path fill="#E1E7EA" d="M11.58 3.874a.4.4 0 0 1-.187.477l-.067.028-.82.274 1.124 3.375a2.4 2.4 0 1 1-.758.253l-.431-1.292-2.929 3.66-.014.018a.387.387 0 0 1-.026.027l.04-.044a.404.404 0 0 1-.146.114l-.013.006a.412.412 0 0 1-.034.012l.047-.018a.403.403 0 0 1-.082.027l-.012.002-.02.004a.386.386 0 0 1-.039.003h-.846A2.4 2.4 0 1 1 5.1 8.267l.43-.573-.694-1.527A.398.398 0 0 1 4.8 6H4a.4.4 0 0 1-.072-.794L4 5.2h2.4a.4.4 0 0 1 .072.794L6.4 6h-.76l.438.964.002-.004a.4.4 0 0 1 .171-.131l.07-.021 3.806-.762-.506-1.52a.4.4 0 0 1 .186-.477l.067-.028 1.2-.4a.4.4 0 0 1 .505.253ZM4 8.8a1.6 1.6 0 1 0 1.55 2H4a.4.4 0 0 1-.357-.582l.037-.058.93-1.24A1.595 1.595 0 0 0 4 8.8Zm8 0-.111.004.49 1.47a.4.4 0 0 1-.186.477l-.066.029a.4.4 0 0 1-.478-.187l-.028-.066-.49-1.47A1.599 1.599 0 0 0 12 12a1.6 1.6 0 1 0 0-3.2Zm-6.093-.277-.134.18L4.8 10h1.778l-.67-1.477Zm3.494-1.516-2.772.555-.175.231.84 1.848 2.107-2.634Z" class="Primary"/>
  </g>
</svg>
