<svg xmlns="http://www.w3.org/2000/svg" width="16" height="16" fill="none" viewBox="0 0 16 16">
  <g class="16x16/Outline/bus">
    <path fill="#E1E7EA" d="M12.8 2.4a3.2 3.2 0 0 1 3.196 3.04L16 5.6v4.8a.8.8 0 0 1-.8.8h-.84a2 2 0 0 1-3.92 0H6.36a2 2 0 0 1-3.92 0H.8a.8.8 0 0 1-.8-.8V3.2a.8.8 0 0 1 .8-.8h12ZM4.4 9.6a1.2 1.2 0 0 0-1.187 1.024l.015-.084c-.01.043-.016.087-.021.132l.006-.048a1.208 1.208 0 0 0-.013.176l.007.128a1.226 1.226 0 0 0 .019.12l-.015-.082c.007.045.015.09.027.133l-.012-.051c.009.045.02.088.035.131l-.023-.08a1.2 1.2 0 0 0 2.35-.133l-.014.082c.009-.04.015-.08.02-.12l-.005.038A1.21 1.21 0 0 0 5.6 10.8l-.007-.128a1.205 1.205 0 0 0-.021-.133l.015.085a1.195 1.195 0 0 0-.024-.119l.009.034a1.183 1.183 0 0 0-.036-.127l.027.093A1.2 1.2 0 0 0 4.4 9.6Zm8 0a1.2 1.2 0 0 0-1.187 1.024l.015-.084c-.01.043-.016.087-.021.132l.006-.048a1.204 1.204 0 0 0-.013.176l.007.128a1.226 1.226 0 0 0 .019.12l-.015-.082c.007.045.015.09.027.133l-.012-.051c.009.045.02.088.035.131l-.023-.08a1.2 1.2 0 0 0 2.35-.133l-.014.082c.009-.04.015-.08.02-.12l-.005.038c.007-.054.011-.11.011-.166l-.007-.129a1.222 1.222 0 0 0-.021-.132l.015.085a1.2 1.2 0 0 0-.024-.119l.009.034a1.197 1.197 0 0 0-.036-.127l.027.093A1.2 1.2 0 0 0 12.4 9.6Zm.4-6.4H.8v7.2h1.64a2 2 0 0 1 3.92 0h4.08a2 2 0 0 1 3.92 0h.84V7.2H14a.4.4 0 0 1-.4-.4V4.4c0-.22.18-.4.4-.4h.589c-.44-.492-1.08-.8-1.789-.8ZM4 4a.8.8 0 0 1 .8.8v1.6a.8.8 0 0 1-.8.8H2.4a.8.8 0 0 1-.8-.8V4.8a.8.8 0 0 1 .8-.8H4Zm4 0a.8.8 0 0 1 .8.8v1.6a.8.8 0 0 1-.8.8H6.4a.8.8 0 0 1-.8-.8V4.8a.8.8 0 0 1 .8-.8H8Zm4 0a.8.8 0 0 1 .8.8v1.6a.8.8 0 0 1-.8.8h-1.6a.8.8 0 0 1-.8-.8V4.8a.8.8 0 0 1 .8-.8H12Zm3.064.8H14.4v1.6h.8v-.78l-.003-.14a2.386 2.386 0 0 0-.133-.68ZM4 4.8H2.4v1.6H4V4.8Zm4 0H6.4v1.6H8V4.8Zm4 0h-1.6v1.6H12V4.8Z" class="Primary"/>
  </g>
</svg>
