<svg xmlns="http://www.w3.org/2000/svg" width="16" height="16" fill="none" viewBox="0 0 16 16">
  <g class="16x16/Outline/call">
    <path fill="#E5E9EB" fill-rule="evenodd" d="m10.819 13.398-.355.963a91.57 91.57 0 0 0-.499-.237c-1.835-.867-3.797-1.795-5.25-4.01C3.26 7.9 3.143 5.658 3.033 3.561l-.03-.568.99.005.03.543c.115 2.133.22 4.065 1.491 6.004 1.272 1.938 2.963 2.74 4.828 3.626l.477.227Zm-2.86-4.327c.455-.724 1.617-1.178 2.434-.787l1.162.558c1.147.55 1.735 1.964 1.303 3.165l-.577 1.61c-.274.764-1.091 1.092-1.817.744l.355-.963a.379.379 0 0 0 .532-.217l.578-1.61c.239-.667-.087-1.458-.729-1.766l-1.162-.557c-.428-.206-1.163.173-1.322.618l-.102.283c-.1.28-.408.396-.654.222a5.703 5.703 0 0 1-1.456-1.53 5.934 5.934 0 0 1-.84-1.969.442.442 0 0 1 .436-.554l.29.005c.455.006 1.06-.57 1.032-1.06l-.077-1.33c-.042-.734-.63-1.338-1.314-1.348l-1.65-.024c-.229-.003-.402.193-.388.437l-.99-.005c-.048-.83.542-1.504 1.325-1.493l1.65.024c1.231.018 2.282 1.101 2.358 2.415l.077 1.33c.054.934-.774 1.897-1.587 2.076A4.927 4.927 0 0 0 7.96 9.07Z" class="Primary" clip-rule="evenodd"/>
  </g>
</svg>
