<svg xmlns="http://www.w3.org/2000/svg" width="16" height="16" fill="none" viewBox="0 0 16 16">
  <g class="16x16/Outline/face">
    <path fill="#E1E7EA" d="M6.971 1.2c1.675 0 2.82.189 3.396.636a1.6 1.6 0 0 1 2.429 1.245l.004.119v3.415a1.6 1.6 0 0 1 0 2.77V9.6a4.8 4.8 0 1 1-9.6 0v-.215a1.6 1.6 0 0 1-.002-2.77l.001-.814-.09.01-.144.014-.108.006-.082-.002-.072-.009-.117-.025C2.187 5.698 2 5.382 2 4.91 2 3.031 3.896 1.2 6.971 1.2Zm3.34 3.705-.098.065c-1.408.9-2.835 1.213-4.264.928l-.214-.047-.248-.055a5.252 5.252 0 0 0-1.485-.081L4 8.8v.8a4 4 0 0 0 7.996.174L12 9.6v-4a2.393 2.393 0 0 1-1.689-.695Zm-.445 5.996a.4.4 0 0 1 .033.565c-.546.614-1.186.934-1.899.934-.713 0-1.353-.32-1.899-.934a.4.4 0 1 1 .598-.532c.402.452.83.666 1.301.666.472 0 .9-.214 1.301-.666a.4.4 0 0 1 .565-.033ZM6.4 7.6a.4.4 0 0 1 .072.794L6.4 8.4h-.8a.4.4 0 0 1-.072-.794L5.6 7.6h.8Zm4 0a.4.4 0 0 1 .072.794L10.4 8.4h-.8a.4.4 0 0 1-.072-.794L9.6 7.6h.8ZM6.971 2c-1.549 0-2.716.51-3.417 1.22l-.105.112a3.002 3.002 0 0 0-.24.309 2.311 2.311 0 0 0-.405 1.147L2.8 4.91l-.003.082c-.003.016-.006.024-.012.027l.01.002.012.002.055.003.079-.003.258-.029.563-.062c.08-.008.16-.014.238-.02l.04-.002a5.945 5.945 0 0 1 1.599.1l.283.063.211.046c1.193.23 2.39-.03 3.603-.794l.108-.07.107-.07L10 4.15V2.694l-.006-.044a.24.24 0 0 0-.004-.016l-.007-.02-.003-.006.002.006-.006-.013.002.004-.008-.018h-.001l-.006-.012-.003-.005-.021-.031a.42.42 0 0 0-.054-.058l.01.01-.011-.01-.01-.008-.019-.017-.013-.01-.045-.031C9.53 2.243 9 2.109 8.188 2.044L8 2.03l-.387-.019-.424-.01L6.971 2Zm4.229.4a.796.796 0 0 0-.415.116.883.883 0 0 1 .01.085l.005.102V4.26a1.6 1.6 0 0 0 1.08.537L12 4.8V3.2a.8.8 0 0 0-.8-.8Z" class="Primary"/>
  </g>
</svg>
