<svg xmlns="http://www.w3.org/2000/svg" width="16" height="16" fill="none" viewBox="0 0 16 16">
  <g class="16x16/Outline/image">
    <path fill="#E5E9EB" fill-rule="evenodd" d="M13 3H3a1 1 0 0 0-1 1v7.266L6.505 8.27a1.5 1.5 0 0 1 1.538-.074l1.797.96a.5.5 0 0 0 .532-.038l3.432-2.52A.499.499 0 0 1 14 6.51V4a1 1 0 0 0-1-1Zm1 4.694-3.037 2.229a1.5 1.5 0 0 1-1.594.114l-1.797-.96a.5.5 0 0 0-.513.024L2.087 12.41A1 1 0 0 0 3 13h10a1 1 0 0 0 1-1V7.694ZM3 2a2 2 0 0 0-2 2v8a2 2 0 0 0 2 2h10a2 2 0 0 0 2-2V4a2 2 0 0 0-2-2H3Zm1.798 4.5c.467 0 .798-.361.798-.75S5.265 5 4.798 5C4.332 5 4 5.361 4 5.75s.332.75.798.75Zm0 1c.993 0 1.798-.784 1.798-1.75S5.791 4 4.798 4 3 4.784 3 5.75 3.805 7.5 4.798 7.5Z" class="Primary" clip-rule="evenodd"/>
  </g>
</svg>
