<svg xmlns="http://www.w3.org/2000/svg" width="16" height="16" fill="none" viewBox="0 0 16 16">
  <g class="16x16/Outline/input_signal">
    <path fill="#E5E9EB" d="M7.888 14.302c-.65 0-1.19-.505-1.232-1.155l-.33-5.073H4.53l-.172 2.975a1.35 1.35 0 0 1-1.347 1.27 1.361 1.361 0 0 1-1.337-1.158l-.439-3.084H.421A.422.422 0 0 1 0 7.657c0-.232.19-.422.421-.422h3.316L4.01 2.53a1.402 1.402 0 0 1 1.305-1.316c.031-.003.063-.003.095-.003.733 0 1.347.575 1.396 1.308l.309 4.72h1.712l.47-5.05c.06-.642.572-1.14 1.218-1.185.028-.004.06-.004.091-.004.688 0 1.26.537 1.309 1.221l.35 5.004h3.313c.231 0 .421.189.421.42 0 .232-.19.422-.421.422h-.916l-.42 3.558a1.263 1.263 0 0 1-.408.793 1.3 1.3 0 0 1-.832.326h-.017c-.663 0-1.221-.52-1.267-1.183l-.245-3.494h-1.88l-.474 5.112a1.233 1.233 0 0 1-1.147 1.12l-.084.003Zm-.39-1.21a.4.4 0 0 0 .393.368.38.38 0 0 0 .263-.102.382.382 0 0 0 .127-.253l.47-5.031H7.17l.327 5.017Zm5.06-1.583a.428.428 0 0 0 .425.396h.006a.45.45 0 0 0 .281-.108.415.415 0 0 0 .133-.26l.411-3.463h-1.495l.239 3.435Zm-10.053-.47a.512.512 0 0 0 .47.435h.032c.267 0 .491-.21.505-.478l.172-2.926H2.088l.417 2.969Zm8.913-3.81-.344-4.948a.467.467 0 0 0-.425-.439l-.042-.003a.466.466 0 0 0-.467.424l-.463 4.962h1.74v.003Zm-5.148 0-.305-4.664a.558.558 0 0 0-.53-.523h-.031a.559.559 0 0 0-.558.53l-.27 4.66H6.27v-.004Z" class="Primary"/>
  </g>
</svg>
