<svg xmlns="http://www.w3.org/2000/svg" width="16" height="16" fill="none" viewBox="0 0 16 16">
  <g class="16x16/Outline/key">
    <path fill="#E1E7EA" fill-rule="evenodd" d="M10.309 10.472a4.454 4.454 0 0 0-1.39-3.227L10.8 5.416l.972.945a1.055 1.055 0 0 0 1.462 0l1.463-1.423a.987.987 0 0 0 0-1.423l-.971-.945.73-.711a.494.494 0 0 0 0-.712.527.527 0 0 0-.73 0L8.1 6.62a4.73 4.73 0 0 0-2.446-.674C3.084 5.945 1 7.972 1 10.472S3.084 15 5.654 15c2.571 0 4.655-2.027 4.655-4.528Zm-4.655 3.522c2 0 3.62-1.577 3.62-3.522 0-1.945-1.62-3.521-3.62-3.521-1.999 0-3.62 1.576-3.62 3.521 0 1.945 1.621 3.522 3.62 3.522Zm6.849-8.344-.731-.712 1.462-1.423.732.712-1.463 1.423Z" class="Primary" clip-rule="evenodd"/>
  </g>
</svg>
