<svg xmlns="http://www.w3.org/2000/svg" width="16" height="16" fill="none" viewBox="0 0 16 16">
  <g class="16x16/Outline/lock_disabled">
    <path fill="#fff" fill-rule="evenodd" d="M1.384 1.384a.4.4 0 0 1 .566 0L4.426 3.86a3.277 3.277 0 0 1 6.465.749v1.988h1.287c.581 0 1.052.472 1.052 1.053v5.015l1.386 1.386a.4.4 0 0 1-.565.565l-1.161-1.16a1.05 1.05 0 0 1-.712.277H3.053A1.053 1.053 0 0 1 2 12.68V7.65c0-.581.472-1.053 1.053-1.053H4.34V4.905L1.384 1.95a.4.4 0 0 1 0-.566Zm3.658 4.223v.99h.99l-.99-.99ZM6.734 7.3H3.053a.35.35 0 0 0-.35.351v5.03a.35.35 0 0 0 .35.351h9.125a.35.35 0 0 0 .214-.073l-5.658-5.66Zm5.794 4.664L7.865 7.299h4.313a.35.35 0 0 1 .35.351v4.313ZM7.163 6.597 5.045 4.48a2.574 2.574 0 0 1 5.144.13v1.988H7.163Zm.452 2.34a.35.35 0 0 1 .351.351v1.755a.35.35 0 1 1-.702 0V9.288a.35.35 0 0 1 .351-.35Z" class="Primary" clip-rule="evenodd"/>
  </g>
</svg>
