<svg xmlns="http://www.w3.org/2000/svg" width="16" height="16" fill="none" viewBox="0 0 16 16">
  <g class="16x16/Outline/plus">
    <path fill="#D9D9D9" fill-rule="evenodd" d="M3.714 3h8.572c.394 0 .714.32.714.714v8.572c0 .394-.32.714-.714.714H3.714A.714.714 0 0 1 3 12.286V3.714C3 3.32 3.32 3 3.714 3Zm8.572-1H3.714C2.768 2 2 2.768 2 3.714v8.572C2 13.233 2.768 14 3.714 14h8.572c.947 0 1.714-.768 1.714-1.714V3.714C14 2.768 13.232 2 12.286 2ZM7.5 5h1v2.5H11v1H8.5V11h-1V8.5H5v-1h2.5V5Z" class="Primary" clip-rule="evenodd"/>
  </g>
</svg>
