<svg xmlns="http://www.w3.org/2000/svg" width="20" height="22" fill="none" viewBox="0 0 20 22">
  <g class="16x16/Outline/server" filter="url(#a)">
    <g class="Primary">
      <path fill="#E1E7EA" d="M6.5 10a.5.5 0 0 0 0 1h2a.5.5 0 0 0 0-1h-2Z"/>
      <path fill="#E1E7EA" fill-rule="evenodd" d="M4 3a1 1 0 0 1 1-1h10a1 1 0 0 1 1 1v10a1 1 0 0 1-1 1H5a1 1 0 0 1-1-1V3Zm1 0h10v2H5V3Zm10 3v2H5V6h10ZM5 13V9h10v4H5Z" clip-rule="evenodd"/>
    </g>
  </g>
  <defs>
    <filter id="a" width="24" height="24" x="-2" y="0" class="a" color-interpolation-filters="sRGB" filterUnits="userSpaceOnUse">
      <feFlood flood-opacity="0" result="BackgroundImageFix"/>
      <feColorMatrix in="SourceAlpha" result="hardAlpha" values="0 0 0 0 0 0 0 0 0 0 0 0 0 0 0 0 0 0 127 0"/>
      <feOffset dy="4"/>
      <feGaussianBlur stdDeviation="2"/>
      <feComposite in2="hardAlpha" operator="out"/>
      <feColorMatrix values="0 0 0 0 0 0 0 0 0 0 0 0 0 0 0 0 0 0 0.25 0"/>
      <feBlend in2="BackgroundImageFix" result="effect1_dropShadow_1883_177"/>
      <feBlend in="SourceGraphic" in2="effect1_dropShadow_1883_177" result="shape"/>
    </filter>
  </defs>
</svg>
