<svg xmlns="http://www.w3.org/2000/svg" width="16" height="16" fill="none" viewBox="0 0 16 16">
  <g class="16x16/Outline/stopwatch">
    <path fill="#E1E7EA" fill-rule="evenodd" d="M6.333 2.424A.42.42 0 0 1 6.75 2h2.5c.23 0 .417.19.417.424a.42.42 0 0 1-.417.424h-.856v1.714a4.905 4.905 0 0 1 2.03.622l1.259-1.506a.411.411 0 0 1 .587-.049.43.43 0 0 1 .048.598L11.12 5.66A5.116 5.116 0 0 1 13 9.637c0 2.811-2.239 5.09-5 5.09s-5-2.279-5-5.09c0-1.633.755-3.086 1.929-4.017L3.766 4.227a.43.43 0 0 1 .047-.598.412.412 0 0 1 .588.049l1.231 1.474a4.904 4.904 0 0 1 1.928-.586V2.848h-.81a.42.42 0 0 1-.417-.424Zm5.834 7.213c0 2.343-1.866 4.242-4.167 4.242-2.301 0-4.167-1.9-4.167-4.242C3.833 7.294 5.7 5.395 8 5.395c2.301 0 4.167 1.9 4.167 4.242Zm-1.61-.703a.426.426 0 0 0 .252-.543.415.415 0 0 0-.532-.256l-2.334.848a.426.426 0 0 0-.252.542c.077.22.316.336.533.257l2.333-.848Z" class="Primary" clip-rule="evenodd"/>
  </g>
</svg>
