<svg xmlns="http://www.w3.org/2000/svg" width="16" height="16" fill="none" viewBox="0 0 16 16">
  <g class="16x16/Outline/storage">
    <path fill="#E1E7EA" class="Primary" d="M8.17 7.069c.934 0 1.692-.501 1.692-1.12 0-.618-.758-1.119-1.692-1.119-.935 0-1.693.501-1.693 1.12 0 .618.758 1.119 1.693 1.119Z"/>
    <path fill="#E1E7EA" class="Primary" fill-rule="evenodd" d="M4.385 2A1.5 1.5 0 0 0 2.9 3.293l-.895 6.41A.5.5 0 0 0 2 9.77v2.73A1.5 1.5 0 0 0 3.5 14h9.001a1.5 1.5 0 0 0 1.5-1.5V9.77c0-.015 0-.03-.002-.046l-.593-6.364A1.5 1.5 0 0 0 11.913 2H4.385ZM3.89 3.43A.5.5 0 0 1 4.385 3h7.528a.5.5 0 0 1 .498.454l.541 5.817H3.075l.815-5.84ZM3 10.272h10.001v2.23a.5.5 0 0 1-.5.5H3.5a.5.5 0 0 1-.5-.5v-2.23Z" clip-rule="evenodd"/>
  </g>
</svg>
