<svg xmlns="http://www.w3.org/2000/svg" width="16" height="16" fill="none" viewBox="0 0 16 16">
  <g class="16x16/Outline/train">
    <path fill="#E1E7EA" d="M16 12v.8H0V12h16ZM9.424 2.4a5.613 5.613 0 0 1 5.376 4l.582 1.94a1.6 1.6 0 0 1-1.532 2.06H12.8a.8.8 0 0 1-1.595.093l-.005-.087-.005.087a.8.8 0 0 1-1.59 0L9.6 10.4H4a.8.8 0 0 1-1.595.093l-.005-.087a.8.8 0 0 1-1.595.087L.8 10.4v-.8h13.05a.8.8 0 0 0 .787-.939l-.021-.09L14.445 8H8.8a.8.8 0 0 1-.8-.8v-.8a.8.8 0 0 1 .8-.8h4.789a4.814 4.814 0 0 0-4.165-2.4H.8v-.8h8.624ZM6.4 5.6a.8.8 0 0 1 .8.8v.8a.8.8 0 0 1-.8.8H.8v-.8h5.6v-.8H.8v-.8h5.6Zm7.423.8H8.8v.8h5.29l-.267-.8Z" class="Primary"/>
  </g>
</svg>
