<svg xmlns="http://www.w3.org/2000/svg" width="16" height="16" fill="none" viewBox="0 0 16 16">
  <g class="16x16/Outline/update">
    <path fill="#E5E9EB" fill-rule="evenodd" d="m14.175 4.619-.951 1.417c-.567-1.979-2.197-3.566-4.34-3.95-3.005-.537-5.86 1.498-6.387 4.529l.985.176c.434-2.5 2.781-4.157 5.23-3.72 1.702.305 3.016 1.543 3.513 3.11l-1.34-.926-.556.829 2.368 1.635a.49.49 0 0 0 .69-.13L15 5.19l-.825-.57ZM1.829 11.55l.933-1.39c.616 1.887 2.208 3.383 4.28 3.753 3.006.538 5.86-1.497 6.387-4.528l-.985-.176c-.434 2.5-2.78 4.157-5.23 3.72-1.647-.295-2.93-1.465-3.463-2.96l1.368.945.557-.829L3.307 8.45a.492.492 0 0 0-.69.13l-1.613 2.401.824.57Z" class="Primary" clip-rule="evenodd"/>
  </g>
</svg>
