<svg width="52" height="24" viewBox="0 0 52 24" fill="none" xmlns="http://www.w3.org/2000/svg">
<rect width="52" height="24" rx="2" fill="#212A2F"/>
<rect x="2" y="8" width="2" height="8" fill="#171C1F"/>
<path fill-rule="evenodd" clip-rule="evenodd" d="M23.25 6.5H22.5V7.25H20.25C19.8358 7.25 19.5 7.58579 19.5 8V17.75C19.5 18.1642 19.8358 18.5 20.25 18.5H30.75C31.1642 18.5 31.5 18.1642 31.5 17.75V8C31.5 7.58579 31.1642 7.25 30.75 7.25H29.25V8H30.75V9.5H20.25V8H22.5V8.75H23.25V8V7.25V6.5ZM28.5 8.75V8V7.25V6.5H27.75V7.25H24V8H27.75V8.75H28.5ZM30.75 10.25H20.25V17.75H30.75V10.25Z" fill="#e1e7ea"/>
</svg>
