<svg width="52" height="24" viewBox="0 0 52 24" fill="none" xmlns="http://www.w3.org/2000/svg">
<rect width="52" height="24" rx="2" fill="#212A2F"/>
<rect x="2" y="8" width="2" height="8" fill="#171C1F"/>
<path d="M20.5059 14.834V16H16.2227V14.834H20.5059ZM16.6328 7.46875V16H15.1621V7.46875H16.6328Z" fill="#ffffff"/>
<path d="M23.2129 7.46875V16H21.7422V7.46875H23.2129Z" fill="#ffffff"/>
<path d="M27.9648 14.4414L30.209 7.46875H31.832L28.7734 16H27.6777L27.9648 14.4414ZM25.8906 7.46875L28.1172 14.4414L28.4219 16H27.3203L24.2734 7.46875H25.8906Z" fill="#ffffff"/>
<path d="M38.3711 14.834V16H33.8418V14.834H38.3711ZM34.2578 7.46875V16H32.7871V7.46875H34.2578ZM37.7793 11.0312V12.1797H33.8418V11.0312H37.7793ZM38.3418 7.46875V8.64062H33.8418V7.46875H38.3418Z" fill="#ffffff"/>
</svg>
