<svg width="24" height="24" viewBox="0 0 24 24" fill="none" xmlns="http://www.w3.org/2000/svg">
<path fill-rule="evenodd" clip-rule="evenodd" d="M17.25 12C17.25 13.4525 16.9324 14.8309 16.3628 16.0694L17.6486 16.8607C18.3546 15.3894 18.75 13.7409 18.75 12C18.75 10.0795 18.2688 8.27144 17.4203 6.68976L16.1776 7.55011C16.8631 8.88419 17.25 10.3969 17.25 12ZM15.75 12C15.75 10.7252 15.3966 9.53302 14.7825 8.51595L13.5459 9.37204C13.9937 10.1449 14.25 11.0425 14.25 12C14.25 12.8686 14.0391 13.688 13.6656 14.4096L14.9461 15.1976C15.4589 14.2459 15.75 13.1569 15.75 12ZM10.0315 6.97482L6.5625 9.75H4.5C4.08579 9.75 3.75 10.0858 3.75 10.5V12V13.5C3.75 13.9142 4.08579 14.25 4.5 14.25H6.5625L10.0315 17.0252C10.5226 17.418 11.25 17.0684 11.25 16.4395V13.5V10.5V7.56047C11.25 6.93159 10.5225 6.58196 10.0315 6.97482Z" fill="#A5B7C0"/>
</svg>
