<svg width="52" height="24" viewBox="0 0 52 24" fill="none" xmlns="http://www.w3.org/2000/svg">
<rect width="52" height="24" rx="2" fill="#212A2F"/>
<rect x="2" y="8" width="2" height="8" fill="#171C1F"/>
<path d="M16.375 13.8027C16.375 13.627 16.3477 13.4707 16.293 13.334C16.2422 13.1973 16.1504 13.0723 16.0176 12.959C15.8848 12.8457 15.6973 12.7363 15.4551 12.6309C15.2168 12.5215 14.9121 12.4102 14.541 12.2969C14.1348 12.1719 13.7598 12.0332 13.416 11.8809C13.0762 11.7246 12.7793 11.5449 12.5254 11.3418C12.2715 11.1348 12.0742 10.8984 11.9336 10.6328C11.793 10.3633 11.7227 10.0527 11.7227 9.70117C11.7227 9.35352 11.7949 9.03711 11.9395 8.75195C12.0879 8.4668 12.2969 8.2207 12.5664 8.01367C12.8398 7.80273 13.1621 7.64062 13.5332 7.52734C13.9043 7.41016 14.3145 7.35156 14.7637 7.35156C15.3965 7.35156 15.9414 7.46875 16.3984 7.70312C16.8594 7.9375 17.2129 8.25195 17.459 8.64648C17.709 9.04102 17.834 9.47656 17.834 9.95312H16.375C16.375 9.67188 16.3145 9.42383 16.1934 9.20898C16.0762 8.99023 15.8965 8.81836 15.6543 8.69336C15.416 8.56836 15.1133 8.50586 14.7461 8.50586C14.3984 8.50586 14.1094 8.55859 13.8789 8.66406C13.6484 8.76953 13.4766 8.91211 13.3633 9.0918C13.25 9.27148 13.1934 9.47461 13.1934 9.70117C13.1934 9.86133 13.2305 10.0078 13.3047 10.1406C13.3789 10.2695 13.4922 10.3906 13.6445 10.5039C13.7969 10.6133 13.9883 10.7168 14.2188 10.8145C14.4492 10.9121 14.7207 11.0059 15.0332 11.0957C15.5059 11.2363 15.918 11.3926 16.2695 11.5645C16.6211 11.7324 16.9141 11.9238 17.1484 12.1387C17.3828 12.3535 17.5586 12.5977 17.6758 12.8711C17.793 13.1406 17.8516 13.4473 17.8516 13.791C17.8516 14.1504 17.7793 14.4746 17.6348 14.7637C17.4902 15.0488 17.2832 15.293 17.0137 15.4961C16.748 15.6953 16.4277 15.8496 16.0527 15.959C15.6816 16.0645 15.2676 16.1172 14.8105 16.1172C14.4004 16.1172 13.9961 16.0625 13.5977 15.9531C13.2031 15.8438 12.8438 15.6777 12.5195 15.4551C12.1953 15.2285 11.9375 14.9473 11.7461 14.6113C11.5547 14.2715 11.459 13.875 11.459 13.4219H12.9297C12.9297 13.6992 12.9766 13.9355 13.0703 14.1309C13.168 14.3262 13.3027 14.4863 13.4746 14.6113C13.6465 14.7324 13.8457 14.8223 14.0723 14.8809C14.3027 14.9395 14.5488 14.9688 14.8105 14.9688C15.1543 14.9688 15.4414 14.9199 15.6719 14.8223C15.9062 14.7246 16.082 14.5879 16.1992 14.4121C16.3164 14.2363 16.375 14.0332 16.375 13.8027Z" fill="#ffffff"/>
<path d="M19.9668 7.46875L21.9473 11.541L23.9277 7.46875H25.5566L22.6855 12.8594V16H21.2031V12.8594L18.332 7.46875H19.9668Z" fill="#ffffff"/>
<path d="M33.2559 7.46875V16H31.7852L27.959 9.88867V16H26.4883V7.46875H27.959L31.7969 13.5918V7.46875H33.2559Z" fill="#ffffff"/>
<path d="M40.0469 13.2227H41.5117C41.4648 13.7812 41.3086 14.2793 41.043 14.7168C40.7773 15.1504 40.4043 15.4922 39.9238 15.7422C39.4434 15.9922 38.8594 16.1172 38.1719 16.1172C37.6445 16.1172 37.1699 16.0234 36.748 15.8359C36.3262 15.6445 35.9648 15.375 35.6641 15.0273C35.3633 14.6758 35.1328 14.252 34.9727 13.7559C34.8164 13.2598 34.7383 12.7051 34.7383 12.0918V11.3828C34.7383 10.7695 34.8184 10.2148 34.9785 9.71875C35.1426 9.22266 35.377 8.79883 35.6816 8.44727C35.9863 8.0918 36.3516 7.82031 36.7773 7.63281C37.207 7.44531 37.6895 7.35156 38.2246 7.35156C38.9043 7.35156 39.4785 7.47656 39.9473 7.72656C40.416 7.97656 40.7793 8.32227 41.0371 8.76367C41.2988 9.20508 41.459 9.71094 41.5176 10.2812H40.0527C40.0137 9.91406 39.9277 9.59961 39.7949 9.33789C39.666 9.07617 39.4746 8.87695 39.2207 8.74023C38.9668 8.59961 38.6348 8.5293 38.2246 8.5293C37.8887 8.5293 37.5957 8.5918 37.3457 8.7168C37.0957 8.8418 36.8867 9.02539 36.7188 9.26758C36.5508 9.50977 36.4238 9.80859 36.3379 10.1641C36.2559 10.5156 36.2148 10.918 36.2148 11.3711V12.0918C36.2148 12.5215 36.252 12.9121 36.3262 13.2637C36.4043 13.6113 36.5215 13.9102 36.6777 14.1602C36.8379 14.4102 37.041 14.6035 37.2871 14.7402C37.5332 14.877 37.8281 14.9453 38.1719 14.9453C38.5898 14.9453 38.9277 14.8789 39.1855 14.7461C39.4473 14.6133 39.6445 14.4199 39.7773 14.166C39.9141 13.9082 40.0039 13.5938 40.0469 13.2227Z" fill="#ffffff"/>
</svg>
