<svg width="24" height="24" viewBox="0 0 24 24" fill="none" xmlns="http://www.w3.org/2000/svg">
<path fill-rule="evenodd" clip-rule="evenodd" d="M6.8125 9.94095L10.2815 7.16577C10.7725 6.77291 11.5 7.12254 11.5 7.75142V10.6909V13.6909V16.6305C11.5 17.2594 10.7726 17.609 10.2815 17.2161L6.8125 14.4409H4.75C4.33579 14.4409 4 14.1052 4 13.6909V12.1909V10.6909C4 10.2767 4.33579 9.94095 4.75 9.94095H6.8125Z" fill="#698796"/>
<path fill-rule="evenodd" clip-rule="evenodd" d="M16.75 13.2516L14.2803 15.7213L13.2197 14.6606L15.6893 12.1909L13.2197 9.72127L14.2803 8.66061L16.75 11.1303L19.2197 8.66061L20.2803 9.72127L17.8107 12.1909L20.2803 14.6606L19.2197 15.7213L16.75 13.2516Z" fill="#c22626"/>
</svg>
