<?xml version="1.0" encoding="UTF-8" standalone="no"?>
<!-- Created with Inkscape (http://www.inkscape.org/) -->

<svg
   xmlns:dc="http://purl.org/dc/elements/1.1/"
   xmlns:cc="http://creativecommons.org/ns#"
   xmlns:rdf="http://www.w3.org/1999/02/22-rdf-syntax-ns#"
   xmlns:svg="http://www.w3.org/2000/svg"
   xmlns="http://www.w3.org/2000/svg"
   version="1.1"
   width="18"
   height="18"
   id="svg2"
   xml:space="preserve"><metadata
     id="metadata8"><rdf:RDF><cc:Work
         rdf:about=""><dc:format>image/svg+xml</dc:format><dc:type
           rdf:resource="http://purl.org/dc/dcmitype/StillImage" /><dc:title></dc:title></cc:Work></rdf:RDF></metadata><defs
     id="defs6"><clipPath
       id="clipPath16"><path
         d="m 0,256 255.997,0 0,-256 L 0,0 0,256 z"
         id="path18" /></clipPath></defs><g
     transform="matrix(1.25,0,0,-1.25,0,18)"
     id="g10"><g
       transform="matrix(0.05384617,0,0,0.05384617,0.31769527,0.25729725)"
       id="g12"
       style="fill:#d4d4d4;fill-opacity:1"><g
         clip-path="url(#clipPath16)"
         id="g14"
         style="fill:#d4d4d4;fill-opacity:1"><g
           transform="translate(23.9999,182.4047)"
           id="g20"
           style="fill:#d4d4d4;fill-opacity:1"><path
             d="M 0,0.84642766 C 3.115,11.356358 11.901,16.526189 21.281,20.961686 c 12.956,6.12675 26.875,9.340892 41.068,11.551506 21.146,3.293093 42.418,3.948478 63.751,2.266736 19.692,-1.553327 39.086,-4.653324 57.271,-12.397133 5.38,-2.290516 10.366,-5.499901 15.305,-8.613215 2.144,-1.351671 3.925,-3.372994 5.504,-5.3553178 5.153,-6.4701371 5.065,-13.4501232 -0.097,-19.9231142 -4.544,-5.696803 -10.763,-9.321867 -17.369,-12.399035 -12.999,-6.055409 -26.888,-9.319013 -41.076,-11.542945 -19.178,-3.005827 -38.493,-3.80199 -57.875,-2.668147 -20.263,1.185209 -40.235,4.019817 -59.232,11.206216 -5.122,1.937617 -10.084,4.400303 -14.812,7.10745 C 7.211,-16.080372 1.982,-11.133124 0,-3.7907259 l 0,4.63715356 z"
             id="path22"
             style="fill:#d4d4d4;fill-opacity:1;fill-rule:nonzero;stroke:none" /></g><g
           transform="translate(221.3013,146.6718)"
           id="g24"
           style="fill:#d4d4d4;fill-opacity:1"><path
             d="m -8.528,-12.48 c -11.876314,-18.565773 -34.954857,-40.522083 -53.430831,-57.083 -0.993,-0.794 -1.392,-1.596 -1.4,-2.887 -0.031,-5.135 0.23,-10.325 -0.414,-15.394 -1.574,-10.909763 -17.116277,-19.04076 -29.714277,-19.03476 -12.943002,0.006 -27.415852,8.624045 -29.714272,19.14876 -0.628,4.935 -0.392,9.991 -0.381,14.991 0.003,1.531 -0.495,2.441 -1.663,3.366 -17.062,13.515 -28.93762,27.997 -42.99162,44.662 -6.001,7.116 -11.221,14.891 -16.774,22.383 -0.557,0.75 -0.96,1.614 -1.638,2.772 57.73709,-23.224991 131.300896,-25.761772 186.222,-0.224"
             id="path26"
             style="fill:#d4d4d4;fill-opacity:1;fill-rule:nonzero;stroke:none" /></g></g></g></g></svg>