<svg width="24" height="24" viewBox="0 0 24 24" fill="none" xmlns="http://www.w3.org/2000/svg">
<path fill-rule="evenodd" clip-rule="evenodd" d="M7 3.79688H4.07175C3.44209 3.79688 2.9055 4.01862 2.462 4.46212C2.0185 4.90562 1.79675 5.44221 1.79675 6.07187V9.00012H4.07175V6.07187H7V3.79688ZM17 6.07187H19.9283V9.00012H22.2033V6.07187C22.2033 5.44221 21.9815 4.90562 21.538 4.46212C21.0945 4.01862 20.5579 3.79688 19.9283 3.79688H17V6.07187ZM22.2033 16.0001H19.9283V17.9284H19.388L15.3898 13.9301C15.6231 13.5801 15.7941 13.211 15.9028 12.8229C16.0114 12.4349 16.0658 12.0159 16.0658 11.5659C16.0658 10.3159 15.6283 9.25338 14.7533 8.37838C13.8783 7.50338 12.8158 7.06588 11.5658 7.06588C10.3158 7.06588 9.25325 7.50338 8.37825 8.37838C7.50325 9.25338 7.06575 10.3159 7.06575 11.5659C7.06575 12.8159 7.50325 13.8784 8.37825 14.7534C9.25325 15.6284 10.3158 16.0659 11.5658 16.0659C11.9908 16.0659 12.4035 16.0095 12.804 15.8969C13.2047 15.7842 13.58 15.6152 13.93 15.3899L18.7375 20.2034H19.9283C20.5579 20.2034 21.0945 19.9816 21.538 19.5381C21.9815 19.0946 22.2033 18.558 22.2033 17.9284V16.0001ZM4.07175 16.0001H1.79675V17.9284C1.79675 18.558 2.0185 19.0946 2.462 19.5381C2.9055 19.9816 3.44209 20.2034 4.07175 20.2034H7V17.9284H4.07175V16.0001ZM13.2733 13.2734C12.8086 13.7379 12.2398 13.9701 11.567 13.9701C10.894 13.9701 10.3238 13.7379 9.8565 13.2734C9.38917 12.8087 9.1555 12.24 9.1555 11.5671C9.1555 10.8941 9.38917 10.324 9.8565 9.85663C10.3238 9.38929 10.894 9.15562 11.567 9.15562C12.2398 9.15562 12.8086 9.38929 13.2733 9.85663C13.7378 10.324 13.97 10.8941 13.97 11.5671C13.97 12.24 13.7378 12.8087 13.2733 13.2734Z" fill="white"/>
</svg>