<svg width="24" height="24" viewBox="0 0 24 24" fill="none" xmlns="http://www.w3.org/2000/svg">
<path fill-rule="evenodd" clip-rule="evenodd" d="M10.5 16C13.5376 16 16 13.5376 16 10.5C16 7.46243 13.5376 5 10.5 5C7.46243 5 5 7.46243 5 10.5C5 13.5376 7.46243 16 10.5 16ZM10.5 18C12.2105 18 13.7873 17.4274 15.0491 16.4633L15.2929 16.7071L19.2929 20.7071C19.6834 21.0976 20.3166 21.0976 20.7071 20.7071C21.0976 20.3166 21.0976 19.6834 20.7071 19.2929L16.7071 15.2929L16.4633 15.0491C17.4274 13.7873 18 12.2105 18 10.5C18 6.35786 14.6421 3 10.5 3C6.35786 3 3 6.35786 3 10.5C3 14.6421 6.35786 18 10.5 18ZM11.75 10.5C11.75 11.1904 11.1904 11.75 10.5 11.75C9.80964 11.75 9.25 11.1904 9.25 10.5C9.25 9.80964 9.80964 9.25 10.5 9.25C11.1904 9.25 11.75 9.80964 11.75 10.5ZM13.75 10.5C13.75 12.2949 12.2949 13.75 10.5 13.75C8.70507 13.75 7.25 12.2949 7.25 10.5C7.25 8.70507 8.70507 7.25 10.5 7.25C12.2949 7.25 13.75 8.70507 13.75 10.5Z" fill="white" class="Primary"/>
</svg>
