<?xml version="1.0" encoding="utf-8"?>
<!-- Generator: Adobe Illustrator 16.0.0, SVG Export Plug-In . SVG Version: 6.00 Build 0)  -->
<!DOCTYPE svg PUBLIC "-//W3C//DTD SVG 1.1//EN" "http://www.w3.org/Graphics/SVG/1.1/DTD/svg11.dtd">
<svg version="1.1" xmlns="http://www.w3.org/2000/svg" xmlns:xlink="http://www.w3.org/1999/xlink" x="0px" y="0px" width="48px"
	 height="48px" viewBox="0 0 48 48" enable-background="new 0 0 48 48" xml:space="preserve">
<g id="Layer_2">
	<rect fill="#2CA0DA" width="48" height="48"/>
</g>
<g id="Layer_6">
	<polygon fill="#FFFFFF" points="40,32 40,28 28,28 28,40 32,40 32,34.828 37.586,40.414 40.414,37.586 34.828,32 	"/>
	<polygon fill="#FFFFFF" points="16,13.172 10.414,7.586 7.585,10.414 13.172,16 8,16 8,20 20,20 20,8 16,8 	"/>
	<polygon fill="#FFFFFF" points="8,32 13.172,32 7.586,37.586 10.414,40.414 16,34.828 16,40 20,40 20,28 8,28 	"/>
	<polygon fill="#FFFFFF" points="40,16 34.828,16 40.414,10.414 37.586,7.586 32,13.172 32,8 28,8 28,20 40,20 	"/>
</g>
</svg>
