<?xml version="1.0" encoding="UTF-8" standalone="no"?>
<!-- Created with Inkscape (http://www.inkscape.org/) -->

<svg
   xmlns:dc="http://purl.org/dc/elements/1.1/"
   xmlns:cc="http://creativecommons.org/ns#"
   xmlns:rdf="http://www.w3.org/1999/02/22-rdf-syntax-ns#"
   xmlns:svg="http://www.w3.org/2000/svg"
   xmlns="http://www.w3.org/2000/svg"
   version="1.1"
   width="24"
   height="24"
   id="svg2"
   xml:space="preserve"><metadata
     id="metadata8"><rdf:RDF><cc:Work
         rdf:about=""><dc:format>image/svg+xml</dc:format><dc:type
           rdf:resource="http://purl.org/dc/dcmitype/StillImage" /><dc:title></dc:title></cc:Work></rdf:RDF></metadata><defs
     id="defs6"><clipPath
       id="clipPath18"><path
         d="m 0,256 255.997,0 0,-256 L 0,0 0,256 z"
         id="path20" /></clipPath></defs><path
     d="M 5.3980538,18.1085 C 5.7694957,17.697355 6.1423592,17.233526 6.5608001,16.664234 6.4024635,16.471122 6.2926417,16.245035 6.2415684,16.006251 6.218448,15.894913 6.2101096,15.778932 6.2153211,15.657835 5.2504244,15.299658 4.1709681,14.679672 3.2025656,13.931008 c 0.344626,1.559583 1.101629,2.999111 2.1954882,4.177492 m 6.5921502,2.887962 c 0.613732,0 1.233149,-0.06528 1.839965,-0.191501 2.397032,-0.498889 4.439963,-1.915485 5.758395,-3.990729 -0.324065,-1.103334 -0.77747,-2.172652 -1.348469,-3.177346 -0.03686,0.0126 -0.07494,0.02473 -0.116538,0.03335 -0.10035,0.02028 -0.201828,0.03118 -0.30445,0.03118 -0.256125,0 -0.507605,-0.06576 -0.732555,-0.190269 -1.423431,1.305732 -3.160681,2.199752 -5.031725,2.589576 -0.703656,0.146587 -1.430337,0.220402 -2.1565438,0.220402 -0.2554613,0 -0.5084587,-0.0081 -0.7605088,-0.02653 -0.1966179,0.462028 -0.5986661,0.79481 -1.09149,0.898567 -0.1020525,0.02198 -0.2056198,0.03231 -0.3079559,0.03231 -0.1736869,0 -0.3438684,-0.03004 -0.5078903,-0.08765 C 6.7831917,17.746817 6.3831334,18.244 5.983454,18.68414 c 1.6614454,1.49098 3.7893726,2.312322 6.00675,2.312322 M 6.4563794,14.874584 c 0.2243813,-0.347753 0.5721346,-0.589475 0.9678341,-0.671912 0.097789,-0.02018 0.1978497,-0.03117 0.2979119,-0.03117 0.124035,0 0.2479753,0.01554 0.3720106,0.04671 C 9.0976929,12.282544 9.7428841,10.206259 10.011895,8.0456412 9.521061,7.8610575 9.1571046,7.4411 9.0509783,6.93122 9.029942,6.828595 9.020467,6.7202 9.0235945,6.6030812 7.8008674,6.285935 6.5444078,6.1249437 5.2910749,6.1249437 l -0.1137075,0.00123 C 3.6126679,7.9487063 2.829323,10.349245 3.02632,12.723253 c 1.0045046,0.930879 2.2465615,1.710718 3.4300594,2.151331 M 17.21465,10.772519 c 0.101487,-0.04493 0.193775,-0.07494 0.286067,-0.09343 0.102625,-0.02187 0.208748,-0.03344 0.313737,-0.03344 0.167243,0 0.334487,0.02832 0.496046,0.0831 C 18.889552,9.7586488 19.348735,8.4690238 19.581646,7.1631963 17.945974,4.5954013 15.047115,3 12.005269,3 c -0.409533,0 -0.822478,0.027775 -1.228601,0.083662 0.08661,0.614205 0.139575,1.27522 0.166107,2.06425 0.554888,0.145925 0.981668,0.5951613 1.099354,1.1604725 0.03696,0.16895 0.04264,0.3443425 0.01848,0.5224838 1.98295,0.9448137 3.716695,2.2702562 5.154043,3.9416517 m 2.920747,5.053693 C 20.977496,14.046323 21.210497,12.092178 20.80788,10.15831 20.678727,9.5428713 20.475665,8.9257288 20.201159,8.3178713 19.903531,9.38482 19.473246,10.420688 18.993404,11.210855 c 0.158051,0.192734 0.266452,0.415409 0.314871,0.650119 0.10035,0.481643 -0.03686,0.974088 -0.365661,1.336338 0.474157,0.83404 0.875541,1.717636 1.192783,2.628901 M 9.2560294,5.816325 C 9.456722,5.4951038 9.7650567,5.2586875 10.124654,5.1536975 10.101913,4.4200063 10.054252,3.80002 9.9744666,3.2232413 8.4779909,3.5657838 7.0977804,4.288485 5.9572065,5.3243525 7.062247,5.3693525 8.1696561,5.5343313 9.2560294,5.816325 M 9.9176133,15.5067 c -0.2243814,0 -0.4484783,-0.0069 -0.6690695,-0.02189 -0.0038,-0.03345 -0.00804,-0.0669 -0.015256,-0.100441 -0.061116,-0.290616 -0.2053355,-0.551857 -0.4175881,-0.76411 1.0551989,-2.03952 1.7314693,-4.2243 2.0094823,-6.4961612 0.01031,-0.00238 0.02189,-0.0035 0.03459,-0.00638 0.342636,-0.070888 0.650592,-0.2612413 0.874404,-0.5386851 1.841007,0.8807188 3.512496,2.1600138 4.844856,3.7069013 -0.252618,0.349518 -0.34491,0.782077 -0.258398,1.199666 0.03345,0.160895 0.09229,0.313167 0.17416,0.454542 -1.305827,1.189183 -2.895352,2.007114 -4.607208,2.366996 -0.644812,0.133795 -1.306965,0.199556 -1.9699694,0.199556"
     id="path24"
     style="fill:#ffffff;fill-opacity:1;fill-rule:nonzero;stroke:none" /></svg>