<?xml version="1.0" encoding="utf-8"?>
<!-- Generator: Adobe Illustrator 16.0.0, SVG Export Plug-In . SVG Version: 6.00 Build 0)  -->
<!DOCTYPE svg PUBLIC "-//W3C//DTD SVG 1.1//EN" "http://www.w3.org/Graphics/SVG/1.1/DTD/svg11.dtd">
<svg version="1.1" xmlns="http://www.w3.org/2000/svg" xmlns:xlink="http://www.w3.org/1999/xlink" x="0px" y="0px" width="48px"
	 height="48px" viewBox="0 0 48 48" enable-background="new 0 0 48 48" xml:space="preserve">
<g id="Layer_2">
	<rect fill="#212A2F" width="48" height="48"/>
</g>
<g id="Layer_4">
	<path fill="#FFFFFF" d="M27.487,37.724c-0.762,0.799-1.581,1.542-2.451,2.224c2.804-0.18,5.408-1.072,7.635-2.513
		C31.483,37.671,30.257,37.8,29,37.8C28.489,37.8,27.988,37.764,27.487,37.724z"/>
	<path fill="#FFFFFF" d="M39.861,21.996c-1.872-1.624-4.029-2.917-6.387-3.81C33.685,19.428,33.8,20.7,33.8,22
		c0,5.362-1.865,10.294-4.975,14.191C28.885,36.192,28.941,36.2,29,36.2c2.406,0,4.696-0.501,6.777-1.396
		C38.392,31.956,40,28.17,40,24C40,23.319,39.943,22.654,39.861,21.996z"/>
	<path fill="#FFFFFF" d="M10.726,23.337c-0.934,0.972-1.774,2.03-2.511,3.165c1.117,7.094,6.877,12.643,14.083,13.405
		c1.134-0.718,2.191-1.539,3.167-2.452C18.201,36.066,12.423,30.487,10.726,23.337z"/>
	<path fill="#FFFFFF" d="M39.357,19.539c-1.392-4.797-4.963-8.654-9.575-10.445c1.497,2.173,2.631,4.614,3.305,7.239
		C35.354,17.077,37.464,18.166,39.357,19.539z"/>
	<path fill="#FFFFFF" d="M11.857,20.136C15.747,17.05,20.66,15.2,26,15.2c1.816,0,3.582,0.22,5.276,0.623
		c-0.852-2.791-2.269-5.334-4.111-7.507C26.142,8.11,25.084,8,24,8c-4.17,0-7.956,1.608-10.804,4.223
		C12.301,14.304,11.8,16.594,11.8,19C11.8,19.384,11.832,19.759,11.857,20.136z"/>
	<path fill="#FFFFFF" d="M10.374,21.42C10.271,20.625,10.2,19.821,10.2,19c0-1.257,0.129-2.483,0.365-3.671
		C8.949,17.828,8,20.801,8,24c0,0.01,0.001,0.02,0.001,0.028C8.725,23.099,9.518,22.227,10.374,21.42z"/>
	<path fill="#FFFFFF" d="M12.086,22.044c1.317,7.335,7.291,13.062,14.748,14.005C30.16,32.304,32.2,27.391,32.2,22
		c0-1.506-0.163-2.973-0.463-4.39C29.909,17.095,27.99,16.8,26,16.8C20.674,16.8,15.813,18.789,12.086,22.044z"/>
</g>
</svg>
