<?xml version="1.0" encoding="UTF-8" standalone="no"?>
<!-- Created with Inkscape (http://www.inkscape.org/) -->

<svg
   xmlns:dc="http://purl.org/dc/elements/1.1/"
   xmlns:cc="http://creativecommons.org/ns#"
   xmlns:rdf="http://www.w3.org/1999/02/22-rdf-syntax-ns#"
   xmlns:svg="http://www.w3.org/2000/svg"
   xmlns="http://www.w3.org/2000/svg"
   version="1.1"
   width="24"
   height="24"
   id="svg2"
   xml:space="preserve"><metadata
     id="metadata8"><rdf:RDF><cc:Work
         rdf:about=""><dc:format>image/svg+xml</dc:format><dc:type
           rdf:resource="http://purl.org/dc/dcmitype/StillImage" /><dc:title></dc:title></cc:Work></rdf:RDF></metadata><defs
     id="defs6"><clipPath
       id="clipPath18"><path
         d="m 0,256 255.997,0 0,-256 L 0,0 0,256 z"
         id="path20" /></clipPath></defs><g
     transform="matrix(1.25,0,0,-1.25,0,24)"
     id="g10"><path
       d="m 0,0 19.199775,0 0,19.2 L 0,19.2 0,0 z"
       id="path12"
       style="fill:#2ca0da;fill-opacity:1;fill-rule:nonzero;stroke:none" /><path
       d="M 4.318443,4.7132002 C 4.6155966,5.0421161 4.9138874,5.413179 5.2486401,5.8686124 5.1219708,6.0231021 5.0341134,6.2039717 4.9932547,6.394999 4.9747584,6.4840694 4.9680877,6.5768541 4.9722569,6.6737323 4.2003395,6.9602734 3.3367745,7.4562623 2.5620525,8.0551936 2.8377533,6.8075272 3.4433557,5.6559051 4.318443,4.7132002 M 9.5921629,2.4028304 c 0.4909861,0 0.9865191,0.052228 1.4719721,0.1532008 1.917626,0.3991108 3.551971,1.5323882 4.606716,3.1925828 -0.259252,0.8826676 -0.621976,1.7381218 -1.078775,2.5418769 -0.02949,-0.010077 -0.05995,-0.019785 -0.09323,-0.026683 -0.08028,-0.016222 -0.161463,-0.02494 -0.24356,-0.02494 -0.2049,0 -0.406084,0.052607 -0.586044,0.1522153 C 12.530497,7.3464973 11.140697,6.6312816 9.6438615,6.319422 9.0809371,6.2021524 8.4995923,6.1431007 7.9186266,6.1431007 c -0.2043691,0 -0.406767,0.00644 -0.6084071,0.021225 C 7.1529252,5.7947032 6.8312866,5.5284778 6.4370275,5.4454718 c -0.081642,-0.017587 -0.1644958,-0.02585 -0.2463647,-0.02585 -0.1389495,0 -0.2750947,0.02403 -0.4063122,0.070118 C 5.4265534,5.0025461 5.1065067,4.6047998 4.7867632,4.252688 6.1159195,3.0599037 7.8182613,2.4028304 9.5921629,2.4028304 m -4.4270594,4.897502 c 0.1795051,0.2782026 0.4577077,0.47158 0.7742673,0.5375297 0.078231,0.016146 0.1582798,0.02494 0.2383295,0.02494 0.099228,0 0.1983803,-0.012432 0.2976085,-0.037372 0.8028455,1.5485344 1.3189985,3.2095629 1.5342074,4.9380569 -0.3926674,0.147667 -0.6838325,0.483633 -0.7687336,0.891537 -0.016829,0.0821 -0.024409,0.168816 -0.021907,0.262511 -0.9781817,0.253717 -1.9833494,0.38251 -2.9860157,0.38251 l -0.090966,-9.86e-4 C 2.8901343,12.841035 2.2634584,10.920604 2.421056,9.021398 3.2246597,8.2766946 4.2183052,7.6528232 5.1651035,7.3003324 M 13.77172,10.581985 c 0.08119,0.03594 0.15502,0.05995 0.228854,0.07474 0.0821,0.0175 0.166998,0.02675 0.250989,0.02675 0.133795,0 0.26759,-0.02266 0.396837,-0.06648 0.463242,0.776086 0.830588,1.807786 1.016917,2.852448 C 14.356779,15.523679 12.037692,16.8 9.6042155,16.8 c -0.3276269,0 -0.6579829,-0.02222 -0.9828812,-0.06693 0.069287,-0.491364 0.1116603,-1.020176 0.1328853,-1.6514 0.4439111,-0.11674 0.7853346,-0.476129 0.8794839,-0.928378 0.029564,-0.13516 0.034112,-0.275474 0.014782,-0.417987 C 11.234846,12.979454 12.621842,11.9191 13.77172,10.581984 m 2.336598,-4.0429543 c 0.673677,1.4239117 0.860078,2.9872283 0.537984,4.5343223 -0.10332,0.492351 -0.26577,0.986065 -0.485375,1.472351 C 15.922825,11.692144 15.578597,10.86345 15.194723,10.231316 15.321164,10.077129 15.407885,9.8989888 15.44662,9.7112209 15.5269,9.3259067 15.41713,8.9319507 15.154091,8.64215 15.533417,7.9749187 15.854524,7.2680417 16.108318,6.5390297 M 7.4048235,14.54694 c 0.1605541,0.256977 0.4072219,0.44611 0.6949,0.530102 -0.018193,0.586953 -0.056322,1.082942 -0.1201502,1.544365 -1.1971806,-0.274034 -2.301349,-0.852195 -3.2138081,-1.680889 0.8840324,-0.036 1.7699597,-0.167983 2.6390583,-0.393578 M 7.9340906,6.7946404 c -0.1795051,0 -0.3587826,0.00553 -0.5352556,0.017511 -0.00304,0.026759 -0.00643,0.053517 -0.012205,0.080353 -0.048893,0.2324924 -0.1642684,0.4414853 -0.3340705,0.6112875 0.8441591,1.6316163 1.3851759,3.3794401 1.6075863,5.1969291 0.00825,0.0019 0.017511,0.0028 0.027669,0.0051 0.2741089,0.05671 0.5204736,0.208993 0.6995238,0.430948 C 10.860144,12.432194 12.197335,11.408758 13.263223,10.171248 13.061129,9.8916336 12.987295,9.5455861 13.056505,9.2115156 13.083264,9.0827996 13.130338,8.9609819 13.195833,8.8478815 12.151171,7.8965348 10.879551,7.2421904 9.5100664,6.9542847 8.9942168,6.8472488 8.4644947,6.7946404 7.9340906,6.7946404"
       id="path24"
       style="fill:#ffffff;fill-opacity:1;fill-rule:nonzero;stroke:none" /></g></svg>