<?xml version="1.0" encoding="utf-8"?>
<!-- Generator: Adobe Illustrator 16.0.0, SVG Export Plug-In . SVG Version: 6.00 Build 0)  -->
<!DOCTYPE svg PUBLIC "-//W3C//DTD SVG 1.1//EN" "http://www.w3.org/Graphics/SVG/1.1/DTD/svg11.dtd">
<svg version="1.1" id="Layer_6" xmlns="http://www.w3.org/2000/svg" xmlns:xlink="http://www.w3.org/1999/xlink" x="0px" y="0px"
	 width="48px" height="48px" viewBox="0 0 48 48" enable-background="new 0 0 48 48" xml:space="preserve">
<polygon fill="#FFFFFF" points="20,12 20,8 8,8 8,20 12,20 12,14.828 17.586,20.414 20.414,17.586 14.828,12 "/>
<polygon fill="#FFFFFF" points="36,33.172 30.414,27.586 27.586,30.414 33.172,36 28,36 28,40 40,40 40,28 36,28 "/>
<polygon fill="#FFFFFF" points="28,8 28,12 33.172,12 27.586,17.586 30.414,20.414 36,14.828 36,20 40,20 40,8 "/>
<polygon fill="#FFFFFF" points="17.586,27.586 12,33.172 12,28 8,28 8,40 20,40 20,36 14.828,36 20.414,30.414 "/>
</svg>
