<?xml version="1.0" encoding="UTF-8" standalone="no"?>
<!-- Created with Inkscape (http://www.inkscape.org/) -->

<svg
   xmlns:dc="http://purl.org/dc/elements/1.1/"
   xmlns:cc="http://creativecommons.org/ns#"
   xmlns:rdf="http://www.w3.org/1999/02/22-rdf-syntax-ns#"
   xmlns:svg="http://www.w3.org/2000/svg"
   xmlns="http://www.w3.org/2000/svg"
   version="1.1"
   width="24"
   height="24"
   id="svg2"
   xml:space="preserve"><metadata
     id="metadata8"><rdf:RDF><cc:Work
         rdf:about=""><dc:format>image/svg+xml</dc:format><dc:type
           rdf:resource="http://purl.org/dc/dcmitype/StillImage" /><dc:title></dc:title></cc:Work></rdf:RDF></metadata><defs
     id="defs6"><clipPath
       id="clipPath18"><path
         d="M 0,256 256,256 256,0 0,0 0,256 z"
         id="path20" /></clipPath></defs><g
     transform="matrix(1.25,0,0,-1.25,0,24)"
     id="g10"><path
       d="M 9.6,15.2 C 6.5166811,15.2 4,12.683319 4,9.6 4,6.5166808 6.5166811,4 9.6,4 c 3.083319,0 5.6,2.5166808 5.6,5.6 0,3.083319 -2.516681,5.6 -5.6,5.6 z m 0,-1.6 c 2.218614,0 4,-1.781385 4,-4 0,-2.2186144 -1.781386,-4 -4,-4 z"
       id="path3003"
       style="font-size:medium;font-style:normal;font-variant:normal;font-weight:normal;font-stretch:normal;text-indent:0;text-align:start;text-decoration:none;line-height:normal;letter-spacing:normal;word-spacing:normal;text-transform:none;direction:ltr;block-progression:tb;writing-mode:lr-tb;text-anchor:start;baseline-shift:baseline;color:#000000;fill:#ffffff;fill-opacity:1;stroke:none;stroke-width:2;marker:none;visibility:visible;display:inline;overflow:visible;enable-background:accumulate;font-family:Sans;-inkscape-font-specification:Sans" /><path
       d="m 12,3 0,2.5"
       transform="matrix(0.8,0,0,-0.8,0,19.2)"
       id="path3775"
       style="fill:none;stroke:#ffffff;stroke-width:2;stroke-linecap:round;stroke-linejoin:miter;stroke-miterlimit:4;stroke-opacity:1;stroke-dasharray:none" /><path
       d="m 9.6,4.4 0,-2"
       id="path3775-6"
       style="fill:none;stroke:#ffffff;stroke-width:1.60000002;stroke-linecap:round;stroke-linejoin:miter;stroke-miterlimit:4;stroke-opacity:1;stroke-dasharray:none" /><path
       d="m 16.8,9.6 -2,0"
       id="path3775-63"
       style="fill:none;stroke:#ffffff;stroke-width:1.60000002;stroke-linecap:round;stroke-linejoin:miter;stroke-miterlimit:4;stroke-opacity:1;stroke-dasharray:none" /><path
       d="m 4.4,9.6 -2,0"
       id="path3775-5"
       style="fill:none;stroke:#ffffff;stroke-width:1.60000002;stroke-linecap:round;stroke-linejoin:miter;stroke-miterlimit:4;stroke-opacity:1;stroke-dasharray:none" /><path
       d="M 4.5088312,14.691169 5.9230447,13.276955"
       id="path3775-2"
       style="fill:none;stroke:#ffffff;stroke-width:1.60000002;stroke-linecap:round;stroke-linejoin:miter;stroke-miterlimit:4;stroke-opacity:1;stroke-dasharray:none" /><path
       d="M 13.276955,5.9230447 14.691169,4.5088312"
       id="path3775-6-8"
       style="fill:none;stroke:#ffffff;stroke-width:1.60000002;stroke-linecap:round;stroke-linejoin:miter;stroke-miterlimit:4;stroke-opacity:1;stroke-dasharray:none" /><path
       d="M 14.691169,14.691169 13.276955,13.276955"
       id="path3775-63-6"
       style="fill:none;stroke:#ffffff;stroke-width:1.60000002;stroke-linecap:round;stroke-linejoin:miter;stroke-miterlimit:4;stroke-opacity:1;stroke-dasharray:none" /><path
       d="M 5.9230447,5.9230447 4.5088312,4.5088312"
       id="path3775-5-9"
       style="fill:none;stroke:#ffffff;stroke-width:1.60000002;stroke-linecap:round;stroke-linejoin:miter;stroke-miterlimit:4;stroke-opacity:1;stroke-dasharray:none" /></g></svg>