<?xml version="1.0" encoding="utf-8"?>
<!-- Generator: Adobe Illustrator 16.0.0, SVG Export Plug-In . SVG Version: 6.00 Build 0)  -->
<!DOCTYPE svg PUBLIC "-//W3C//DTD SVG 1.1//EN" "http://www.w3.org/Graphics/SVG/1.1/DTD/svg11.dtd">
<svg version="1.1" xmlns="http://www.w3.org/2000/svg" xmlns:xlink="http://www.w3.org/1999/xlink" x="0px" y="0px" width="48px"
	 height="48px" viewBox="0 0 48 48" enable-background="new 0 0 48 48" xml:space="preserve">
<g id="Layer_2">
	<rect fill="#212A2F" width="48" height="48"/>
</g>
<g id="Layer_3">
	<path fill-rule="evenodd" clip-rule="evenodd" fill="#FFFFFF" d="M23.999,8C26.208,8,28,9.775,28,11.966
		c0,1.719-1.106,11.787-2.651,16.023c-0.913,0-1.536,0.026-2.7-0.005C21.104,23.748,20,13.683,20,11.966C20,9.775,21.791,8,23.999,8
		z"/>
	<path fill-rule="evenodd" clip-rule="evenodd" fill="#FFFFFF" d="M24,32c2.208,0,4,1.79,4,4s-1.792,4-4,4c-2.209,0-4-1.79-4-4
		S21.791,32,24,32z"/>
</g>
</svg>
