<?xml version="1.0" encoding="UTF-8" standalone="no"?>
<!-- Created with Inkscape (http://www.inkscape.org/) -->

<svg
   xmlns:dc="http://purl.org/dc/elements/1.1/"
   xmlns:cc="http://creativecommons.org/ns#"
   xmlns:rdf="http://www.w3.org/1999/02/22-rdf-syntax-ns#"
   xmlns:svg="http://www.w3.org/2000/svg"
   xmlns="http://www.w3.org/2000/svg"
   version="1.1"
   width="24"
   height="24"
   id="svg2"
   xml:space="preserve"><metadata
     id="metadata8"><rdf:RDF><cc:Work
         rdf:about=""><dc:format>image/svg+xml</dc:format><dc:type
           rdf:resource="http://purl.org/dc/dcmitype/StillImage" /><dc:title></dc:title></cc:Work></rdf:RDF></metadata><defs
     id="defs6"><clipPath
       id="clipPath18"><path
         d="M 0,256 256,256 256,0 0,0 0,256 z"
         id="path20" /></clipPath></defs><g
     transform="matrix(1.25,0,0,-1.25,0,24)"
     id="g10"><path
       d="m 0,0 19.2,0 0,19.2 L 0,19.2 0,0 z"
       id="path12"
       style="fill:#212a2f;fill-opacity:1;fill-rule:nonzero;stroke:none" /><g
       transform="matrix(0.075,0,0,0.075,9.595665,7.30587)"
       id="g22"><path
         d="m 18.074,14.641 c 7.921,36.061 12.553246,65.021302 12.705,85.280733 0.159798,21.333337 -9.387867,37.333337 -30.7212,37.333337 -21.333333,0 -30.930497,-16 -30.930497,-37.333337 0,-20.26 5.051697,-49.219733 12.885697,-85.280733 2.288,-10.094 7.378133,-16.0526 18.0448,-16.0526 10.666667,0 15.7562,5.9586 18.0162,16.0526 z"
         id="path24"
         style="fill:#ffffff;fill-opacity:1;fill-rule:nonzero;stroke:none" /></g><path
       d="m 15,19 a 3,3 0 1 1 -6,0 3,3 0 1 1 6,0 z"
       transform="matrix(0.8,0,0,-0.8,0,19.2)"
       id="path3016"
       style="fill:#ffffff;fill-opacity:1;stroke:none" /></g></svg>