<?xml version="1.0" encoding="UTF-8" standalone="no"?>
<!-- Created with Inkscape (http://www.inkscape.org/) -->

<svg
   xmlns:dc="http://purl.org/dc/elements/1.1/"
   xmlns:cc="http://creativecommons.org/ns#"
   xmlns:rdf="http://www.w3.org/1999/02/22-rdf-syntax-ns#"
   xmlns:svg="http://www.w3.org/2000/svg"
   xmlns="http://www.w3.org/2000/svg"
   version="1.1"
   width="24"
   height="24"
   id="svg2"
   xml:space="preserve"><metadata
     id="metadata8"><rdf:RDF><cc:Work
         rdf:about=""><dc:format>image/svg+xml</dc:format><dc:type
           rdf:resource="http://purl.org/dc/dcmitype/StillImage" /><dc:title></dc:title></cc:Work></rdf:RDF></metadata><defs
     id="defs6"><clipPath
       id="clipPath18"><path
         d="M 0,256 256,256 256,0 0,0 0,256 z"
         id="path20" /></clipPath></defs><path
     d="M 0,24 24,24 24,0 0,0 0,24 z"
     id="path12"
     style="fill:#2ca0da;fill-opacity:1;fill-rule:nonzero;stroke:none" /><path
     d="M 13.689019,13.495069 C 14.431612,10.114351 14.865885,7.3993222 14.880112,5.5000005 14.895093,3.5000002 14,2.0000002 12,2.0000002 c -2.0000002,0 -2.8997343,1.5 -2.8997343,3.5000003 0,1.899375 0.4735966,4.6143505 1.2080343,7.9950685 0.2145,0.946313 0.6917,1.504932 1.6917,1.504932 1,0 1.477144,-0.558619 1.689019,-1.504932 z"
     id="path24"
     style="fill:#ffffff;fill-opacity:1;fill-rule:nonzero;stroke:none" /><path
     d="m 15,19 a 3,3 0 0 1 -6,0 3,3 0 1 1 6,0 z"
     id="path3016"
     style="fill:#ffffff;fill-opacity:1;stroke:none" /></svg>