<?xml version="1.0" encoding="UTF-8" standalone="no"?>
<!-- Created with Inkscape (http://www.inkscape.org/) -->

<svg
   xmlns:dc="http://purl.org/dc/elements/1.1/"
   xmlns:cc="http://creativecommons.org/ns#"
   xmlns:rdf="http://www.w3.org/1999/02/22-rdf-syntax-ns#"
   xmlns:svg="http://www.w3.org/2000/svg"
   xmlns="http://www.w3.org/2000/svg"
   version="1.1"
   width="24"
   height="24"
   id="svg2"
   xml:space="preserve"><metadata
     id="metadata8"><rdf:RDF><cc:Work
         rdf:about=""><dc:format>image/svg+xml</dc:format><dc:type
           rdf:resource="http://purl.org/dc/dcmitype/StillImage" /><dc:title></dc:title></cc:Work></rdf:RDF></metadata><defs
     id="defs6"><clipPath
       id="clipPath18"><path
         d="M 0,256 256,256 256,0 0,0 0,256 z"
         id="path20" /></clipPath></defs><path
     d="m 0,23.983219 24,0 L 24,0 0,0 0,23.983219 z"
     id="path12"
     style="fill:#2ca0da;fill-opacity:1;fill-rule:nonzero;stroke:none" /><path
     d="m 5.5,10 0,-7.5 9.5,0 3.5,4 0,3.5"
     id="path3007"
     style="fill:none;stroke:#ffffff;stroke-width:1px;stroke-linecap:butt;stroke-linejoin:round;stroke-opacity:1" /><path
     d="m 14.5,2.5 0,4.5 4,0 -4,-4.5"
     id="path3777"
     style="fill:#ffffff;fill-opacity:1;stroke:#ffffff;stroke-width:1px;stroke-linecap:butt;stroke-linejoin:round;stroke-opacity:1" /><path
     d="M 5,9 C 3.892,9 3,9.892 3,11 l 0,4 c 0,1.108 0.892,2 2,2 l 14,0 c 1.108,0 2,-0.892 2,-2 l 0,-4 C 21,9.892 20.108,9 19,9 L 5,9 z m 11.21875,1.4375 c 0.344073,5e-6 0.628903,0.04069 0.875,0.125 0.24609,0.08204 0.460934,0.224614 0.625,0.375 0.164058,0.150395 0.288407,0.323897 0.375,0.53125 0.08658,0.207361 0.13118,0.439131 0.15625,0.6875 l -1.15625,0 c -0.01823,-0.123043 -0.02377,-0.248043 -0.0625,-0.34375 -0.03646,-0.0957 -0.08789,-0.183915 -0.15625,-0.25 -0.06608,-0.06608 -0.149742,-0.09082 -0.25,-0.125 -0.09798,-0.03418 -0.236005,-0.0625 -0.375,-0.0625 -0.143557,4e-6 -0.256513,0.03223 -0.375,0.09375 -0.116213,0.06153 -0.230471,0.155928 -0.3125,0.28125 -0.08203,0.123051 -0.141929,0.281905 -0.1875,0.46875 -0.0433,0.186852 -0.0625,0.405602 -0.0625,0.65625 l 0,0.28125 c -10e-7,0.496747 0.08138,0.87435 0.25,1.125 0.170897,0.248373 0.447914,0.375001 0.8125,0.375 0.0957,10e-7 0.174802,-0.01986 0.25,-0.03125 0.07519,-0.01367 0.130531,-0.04199 0.1875,-0.0625 0.05696,-0.02051 0.11751,-0.03743 0.15625,-0.0625 0.04101,-0.02506 0.06868,-0.03971 0.09375,-0.0625 l 0,-0.78125 -0.84375,0 0,-0.8125 2.03125,0 0,2.03125 c -0.06381,0.07064 -0.136072,0.170248 -0.25,0.25 -0.113936,0.07975 -0.273441,0.150391 -0.4375,0.21875 C 17.398434,15.412109 17.216468,15.456706 17,15.5 c -0.214196,0.04557 -0.449873,0.0625 -0.71875,0.0625 -0.332684,0 -0.637372,-0.04915 -0.90625,-0.15625 -0.268882,-0.107096 -0.496095,-0.263672 -0.6875,-0.46875 -0.191407,-0.205077 -0.332683,-0.451496 -0.4375,-0.75 -0.102539,-0.30078 -0.15625,-0.643878 -0.15625,-1.03125 l 0,-0.28125 c 0,-0.387367 0.05143,-0.730465 0.15625,-1.03125 0.104817,-0.300777 0.25065,-0.544918 0.4375,-0.75 0.189127,-0.207352 0.427733,-0.361649 0.6875,-0.46875 0.259764,-0.107091 0.533852,-0.187495 0.84375,-0.1875 z m -4.8125,0.03125 c 0.316729,5e-6 0.608395,0.04232 0.875,0.15625 0.266598,0.113937 0.49609,0.288091 0.6875,0.5 0.193681,0.211918 0.330399,0.446944 0.4375,0.75 0.10937,0.303063 0.156245,0.650719 0.15625,1.03125 l 0,0.21875 c -5e-6,0.380536 -0.04916,0.696942 -0.15625,1 -0.107101,0.303061 -0.243819,0.569337 -0.4375,0.78125 -0.19141,0.211914 -0.420902,0.386068 -0.6875,0.5 -0.264326,0.111654 -0.558271,0.15625 -0.875,0.15625 -0.321291,0 -0.606122,-0.0446 -0.875,-0.15625 -0.266603,-0.113932 -0.493816,-0.288086 -0.6875,-0.5 C 9.6523431,14.694337 9.4820958,14.428061 9.375,14.125 9.2679034,13.821942 9.2187498,13.505536 9.21875,13.125 l 0,-0.21875 c -2e-7,-0.380531 0.051432,-0.728187 0.15625,-1.03125 0.1070959,-0.303056 0.2460931,-0.538082 0.4375,-0.75 0.193684,-0.211909 0.452147,-0.386063 0.71875,-0.5 0.2666,-0.113927 0.553709,-0.156245 0.875,-0.15625 z m -5.625,0.0625 1.21875,0 0,4.03125 2.09375,0 0,0.9375 -3.3125,0 0,-4.96875 z m 5.40625,0.875 c -0.210633,0.04828 -0.380372,0.181888 -0.5,0.375 -0.157228,0.255212 -0.250001,0.630537 -0.25,1.125 l 0,0.21875 c -10e-7,0.487632 0.08821,0.862957 0.25,1.125 0.161782,0.262045 0.399737,0.375001 0.71875,0.375 0.305336,10e-7 0.523435,-0.115233 0.6875,-0.375 0.164059,-0.262043 0.249997,-0.635089 0.25,-1.125 l 0,-0.21875 c -3e-6,-0.494463 -0.08366,-0.869788 -0.25,-1.125 -0.164065,-0.257483 -0.379886,-0.374996 -0.6875,-0.375 -0.08032,10e-7 -0.148539,-0.01609 -0.21875,0 z"
     id="rect3779"
     style="fill:#ffffff;fill-opacity:1;stroke:none" /><path
     d="m 18.5,16 0,5.5 -13,0 0,-5.5"
     id="path3007-1"
     style="fill:none;stroke:#ffffff;stroke-width:1px;stroke-linecap:butt;stroke-linejoin:round;stroke-opacity:1" /></svg>