<?xml version="1.0" encoding="utf-8"?>
<!-- Generator: Adobe Illustrator 16.0.0, SVG Export Plug-In . SVG Version: 6.00 Build 0)  -->
<!DOCTYPE svg PUBLIC "-//W3C//DTD SVG 1.1//EN" "http://www.w3.org/Graphics/SVG/1.1/DTD/svg11.dtd">
<svg version="1.1" xmlns="http://www.w3.org/2000/svg" xmlns:xlink="http://www.w3.org/1999/xlink" x="0px" y="0px" width="48px"
	 height="48px" viewBox="0 0 48 48" enable-background="new 0 0 48 48" xml:space="preserve">
<g id="Layer_2">
	<rect fill="#2CA0DA" width="48" height="48"/>
</g>
<g id="Layer_4">
	<path fill="#FFFFFF" d="M24,8C15.178,8,8,15.178,8,24s7.178,16,16,16s16-7.178,16-16S32.822,8,24,8z M26,35.819V32h-4v3.819
		c-5.015-0.847-8.973-4.805-9.819-9.819H16v-4h-3.819c0.847-5.015,4.805-8.973,9.819-9.819V16h4v-3.819
		c5.015,0.847,8.973,4.805,9.819,9.819H32v4h3.819C34.973,31.015,31.015,34.973,26,35.819z"/>
</g>
</svg>
