<?xml version="1.0" encoding="UTF-8" standalone="no"?>
<!-- Created with Inkscape (http://www.inkscape.org/) -->

<svg
   xmlns:dc="http://purl.org/dc/elements/1.1/"
   xmlns:cc="http://creativecommons.org/ns#"
   xmlns:rdf="http://www.w3.org/1999/02/22-rdf-syntax-ns#"
   xmlns:svg="http://www.w3.org/2000/svg"
   xmlns="http://www.w3.org/2000/svg"
   version="1.1"
   width="24"
   height="24"
   id="svg2"
   xml:space="preserve"><metadata
     id="metadata8"><rdf:RDF><cc:Work
         rdf:about=""><dc:format>image/svg+xml</dc:format><dc:type
           rdf:resource="http://purl.org/dc/dcmitype/StillImage" /><dc:title></dc:title></cc:Work></rdf:RDF></metadata><defs
     id="defs6"><clipPath
       id="clipPath18"><path
         d="M 0,256 256,256 256,0 0,0 0,256 z"
         id="path20" /></clipPath><clipPath
       id="clipPath18-4"><path
         d="M 0,256 256,256 256,0 0,0 0,256 z"
         id="path20-2" /></clipPath></defs><path
     d="M 0,24 24,24 24,0 0,0 0,24 z"
     id="path12"
     style="fill:#212a2f;fill-opacity:1;fill-rule:nonzero;stroke:none" /><path
     d="M 3,7 C 2.446,7 2,7.446 2,8 l 0,10 c 0,0.554 0.446,1 1,1 l 18,0 c 0.554,0 1,-0.446 1,-1 L 22,8 C 22,7.446 21.554,7 21,7 L 3,7 z m 9,1 c 2.761424,0 5,2.238576 5,5 0,2.761424 -2.238576,5 -5,5 C 9.2385763,18 7,15.761424 7,13 7,10.238576 9.2385763,8 12,8 z"
     id="rect3807"
     style="fill:#ffffff;fill-opacity:1;stroke:none" /><path
     d="m 15,13 a 3,3 0 0 1 -6,0 3,3 0 1 1 6,0 z"
     id="path3007-4"
     style="fill:#ffffff;fill-opacity:1;stroke:none" /><path
     d="m 5.5,5 2,0 C 7.777,5 8,5.223 8,5.5 l 0,1 C 8,6.8342034 8.2240339,7 8.5,7 l -4,0 C 4.7950339,7 5,6.8469153 5,6.5 l 0,-1 C 5,5.223 5.223,5 5.5,5 z"
     id="rect3809"
     style="fill:#ffffff;fill-opacity:1;stroke:none" /></svg>