<?xml version="1.0" encoding="utf-8"?>
<!-- Generator: Adobe Illustrator 16.0.0, SVG Export Plug-In . SVG Version: 6.00 Build 0)  -->
<!DOCTYPE svg PUBLIC "-//W3C//DTD SVG 1.1//EN" "http://www.w3.org/Graphics/SVG/1.1/DTD/svg11.dtd">
<svg version="1.1" xmlns="http://www.w3.org/2000/svg" xmlns:xlink="http://www.w3.org/1999/xlink" x="0px" y="0px" width="48px"
	 height="48px" viewBox="0 0 48 48" enable-background="new 0 0 48 48" xml:space="preserve">
<g id="Layer_2">
	<rect fill="#2CA0DA" width="48" height="48"/>
</g>
<g id="Layer_5">
	<polygon fill="#FFFFFF" points="8,18 4,18 4,8 14,8 14,12 8,12 	"/>
	<polygon fill="#FFFFFF" points="44,18 40,18 40,12 34,12 34,8 44,8 	"/>
	<polygon fill="#FFFFFF" points="44,40 34,40 34,36 40,36 40,30 44,30 	"/>
	<polygon fill="#FFFFFF" points="14,40 4,40 4,30 8,30 8,36 14,36 	"/>
	<path fill="#FFFFFF" d="M36,16h-4l-2.5-4h-11L16,16h-4c-1.104,0-2,0.895-2,2v14c0,1.105,0.894,2,1.997,2h24
		C37.104,34,38,33.105,38,32V18C38,16.895,37.106,16,36,16z M24,32.15c-4.494,0-8.15-3.656-8.15-8.15s3.656-8.15,8.15-8.15
		s8.15,3.656,8.15,8.15S28.494,32.15,24,32.15z"/>
	<path fill="#FFFFFF" d="M24,18.65c-2.95,0-5.35,2.399-5.35,5.35s2.399,5.35,5.35,5.35s5.35-2.399,5.35-5.35S26.95,18.65,24,18.65z"
		/>
</g>
</svg>
