<?xml version="1.0" encoding="UTF-8" standalone="no"?>
<!-- Created with Inkscape (http://www.inkscape.org/) -->

<svg
   xmlns:dc="http://purl.org/dc/elements/1.1/"
   xmlns:cc="http://creativecommons.org/ns#"
   xmlns:rdf="http://www.w3.org/1999/02/22-rdf-syntax-ns#"
   xmlns:svg="http://www.w3.org/2000/svg"
   xmlns="http://www.w3.org/2000/svg"
   version="1.1"
   width="24"
   height="24"
   id="svg2"
   xml:space="preserve"><metadata
     id="metadata8"><rdf:RDF><cc:Work
         rdf:about=""><dc:format>image/svg+xml</dc:format><dc:type
           rdf:resource="http://purl.org/dc/dcmitype/StillImage" /><dc:title></dc:title></cc:Work></rdf:RDF></metadata><defs
     id="defs6"><clipPath
       id="clipPath18"><path
         d="M 0,256 256,256 256,0 0,0 0,256 z"
         id="path20" /></clipPath></defs><path
     d="M 0,24 24,24 24,0 0,0 0,24 z"
     id="path12"
     style="fill:#2ca0da;fill-opacity:1;fill-rule:nonzero;stroke:none" /><path
     d="M 17,10 A 6,6 0 0 1 5,10 6,6 0 1 1 17,10 z"
     id="path3003"
     style="fill:none;stroke:#ffffff;stroke-width:1.99999988;stroke-miterlimit:4;stroke-opacity:1;stroke-dasharray:none" /><path
     d="m 16.842364,13.89912 2.682234,3.613256 c 0.825532,1.11208 0.594846,2.671962 -0.517234,3.497494 -1.11208,0.825532 -2.671963,0.594846 -3.497495,-0.517233 L 12.827635,16.87938 C 12.002103,15.767301 12.88792,15.325533 14,14.5 c 1.11208,-0.825532 2.016832,-1.71296 2.842364,-0.60088 z"
     id="rect3773"
     style="fill:#ffffff;fill-opacity:1;stroke:none" /></svg>