<?xml version="1.0" encoding="utf-8"?>
<!-- Generator: Adobe Illustrator 16.0.0, SVG Export Plug-In . SVG Version: 6.00 Build 0)  -->
<!DOCTYPE svg PUBLIC "-//W3C//DTD SVG 1.1//EN" "http://www.w3.org/Graphics/SVG/1.1/DTD/svg11.dtd">
<svg version="1.1" xmlns="http://www.w3.org/2000/svg" xmlns:xlink="http://www.w3.org/1999/xlink" x="0px" y="0px" width="48px"
	 height="48px" viewBox="0 0 48 48" enable-background="new 0 0 48 48" xml:space="preserve">
<g id="Layer_2">
	<rect fill="#212A2F" width="48" height="48"/>
</g>
<g id="Layer_3">
	<path fill="#FFFFFF" d="M40.768,37.232l-9.119-9.119c1.608-2.303,2.56-5.098,2.56-8.113c0-7.835-6.374-14.209-14.208-14.209
		S5.792,12.165,5.792,20S12.166,34.209,20,34.209c3.016,0,5.811-0.951,8.113-2.561l9.119,9.119L40.768,37.232z M20,30.209
		c-5.629,0-10.208-4.58-10.208-10.209S14.371,9.791,20,9.791S30.208,14.371,30.208,20S25.629,30.209,20,30.209z"/>
</g>
</svg>
