<svg width="10" height="14" viewBox="0 0 10 14" fill="none" xmlns="http://www.w3.org/2000/svg">
<g clip-path="url(#clip0_382_0)">
<path d="M7 0C8.10457 0 9 0.89543 9 2V6C9.55229 6 10 6.44772 10 7V13C10 13.5523 9.55229 14 9 14H1C0.447715 14 0 13.5523 0 13V7C0 6.44772 0.447715 6 1 6V2C1 0.89543 1.89543 0 3 0H7ZM5 8.5C4.44772 8.5 4 8.94771 4 9.5C4 9.82897 4.15885 10.1208 4.40402 10.3031L4.49987 10.3661L4.5 11.5H5.5L5.50111 10.3656C5.7994 10.1925 6 9.86968 6 9.5C6 8.94771 5.55228 8.5 5 8.5ZM7 2H3V6H7V2Z" fill="#3A4D57" class="Primary"/>
</g>
</svg>
