<svg width="16" height="16" viewBox="0 0 16 16" fill="none" xmlns="http://www.w3.org/2000/svg">
<path fill-rule="evenodd" clip-rule="evenodd" d="M8 15C11.866 15 15 11.866 15 8C15 4.13401 11.866 1 8 1C4.13401 1 1 4.13401 1 8C1 11.866 4.13401 15 8 15ZM7.21004 10.0466H8.3907C8.3907 9.73345 8.4309 9.44146 8.51131 9.17062C8.59171 8.89979 8.74829 8.65646 8.98103 8.44064C9.25187 8.18674 9.50789 7.92014 9.7491 7.64084C9.99031 7.36154 10.1871 7.0632 10.3394 6.74582C10.496 6.4242 10.5743 6.07297 10.5743 5.69211C10.5743 5.19699 10.4748 4.76958 10.276 4.40988C10.0771 4.04595 9.78719 3.76665 9.40633 3.57199C9.0297 3.37733 8.57267 3.28 8.03523 3.28C7.54858 3.28 7.10847 3.37098 6.71492 3.55295C6.32137 3.73491 6.00821 3.99728 5.77547 4.34006C5.54695 4.68283 5.42846 5.09331 5.42 5.5715H6.59431C6.59855 5.27528 6.66837 5.03618 6.80379 4.85422C6.9392 4.66802 7.11694 4.53049 7.33699 4.44162C7.55704 4.35275 7.78979 4.30832 8.03523 4.30832C8.33146 4.30832 8.57902 4.36545 8.77791 4.47971C8.98103 4.59396 9.13338 4.75689 9.23494 4.96848C9.34073 5.18006 9.39363 5.43185 9.39363 5.72385C9.39363 6.01161 9.34285 6.25917 9.24129 6.46652C9.13972 6.66965 9.00642 6.86008 8.84138 7.03781C8.68058 7.21131 8.50284 7.39751 8.30818 7.59641C8.04158 7.87147 7.82788 8.11691 7.66707 8.33273C7.50626 8.54855 7.38989 8.78765 7.31795 9.05002C7.25024 9.30816 7.21427 9.64035 7.21004 10.0466ZM7.33699 11.5764C7.2185 11.7076 7.15926 11.8684 7.15926 12.0588C7.15926 12.2408 7.2185 12.3973 7.33699 12.5285C7.45548 12.6597 7.62687 12.7253 7.85115 12.7253C8.07967 12.7253 8.25317 12.6597 8.37166 12.5285C8.49015 12.3973 8.54939 12.2408 8.54939 12.0588C8.54939 11.8684 8.49015 11.7076 8.37166 11.5764C8.25317 11.4452 8.07967 11.3796 7.85115 11.3796C7.62687 11.3796 7.45548 11.4452 7.33699 11.5764Z" fill="#49626F" class="primary"/>
</svg>
