<svg width="16" height="16" viewBox="0 0 16 16" fill="none" xmlns="http://www.w3.org/2000/svg">
<path d="M7.99999 2.4C4.87999 2.4 2.39999 4.88 2.39999 8C2.39999 11.12 4.87999 13.6 7.99999 13.6C11.12 13.6 13.6 11.12 13.6 8C13.6 4.88 11.12 2.4 7.99999 2.4Z" fill="#707070"/>
<path d="M8 10.16C7.84 10.16 7.68 10.24 7.6 10.32C7.52 10.4 7.44 10.56 7.44 10.72C7.44 10.88 7.52 11.04 7.6 11.12C7.68 11.2 7.84 11.28 8 11.28C8.16 11.28 8.32 11.2 8.4 11.12C8.48 11.04 8.56 10.88 8.56 10.72C8.56 10.56 8.48 10.4 8.4 10.32C8.32 10.24 8.16 10.16 8 10.16Z" fill="black"/>
<path d="M9.44001 5.2C9.12001 4.88 8.64001 4.72 8.08001 4.72C7.52001 4.72 7.12001 4.88 6.72001 5.2C6.48001 5.44 6.24001 5.84 6.24001 6.32V6.4C6.24001 6.4 6.24001 6.4 6.32001 6.4H7.12001C7.2 6.4 7.20001 6.4 7.20001 6.32C7.20001 6.08 7.28001 5.92 7.44001 5.76C7.60001 5.68 7.84001 5.6 8.16001 5.6C8.40001 5.6 8.64001 5.68 8.80001 5.84C8.96001 6 9.04001 6.24 9.04001 6.48C9.04001 6.8 8.96 7.04 8.72 7.28L8.16001 7.84C7.92001 8.08 7.76001 8.32 7.68001 8.56C7.60001 8.8 7.6 9.04 7.52 9.36V9.44C7.52 9.44 7.52001 9.44 7.60001 9.44H8.40001C8.48001 9.44 8.48001 9.44 8.48001 9.36C8.48001 8.96 8.56001 8.64 8.80001 8.4L9.28001 7.92C9.76001 7.44 10 6.88 10 6.4C9.92001 5.92 9.76001 5.52 9.44001 5.2Z" fill="black"/>
</svg>
