<svg width="20" height="20" viewBox="0 0 20 20" fill="none" xmlns="http://www.w3.org/2000/svg">
<path fill-rule="evenodd" clip-rule="evenodd" d="M10 3.49988C8.0547 3.49988 6.42693 4.97609 6.23742 6.91214L5.7893 11.4901C5.74396 11.9533 5.42215 12.3426 4.97579 12.4744L4.3721 12.6525C4.15145 12.7176 4 12.9202 4 13.1503V13.4745H5.71429H16V13.1503C16 12.9202 15.8486 12.7176 15.6279 12.6525L15.0242 12.4744C14.5779 12.3426 14.256 11.9533 14.2107 11.4901L13.7626 6.91214C13.5731 4.97609 11.9453 3.49988 10 3.49988ZM9.99999 16.4999C10.9796 16.4999 11.9592 15.5726 11.9592 15.0321C11.9592 14.5356 11.2186 14.5385 10.2591 14.5422C10.1743 14.5426 10.0878 14.5429 9.99999 14.5429C9.91215 14.5429 9.82567 14.5426 9.7409 14.5422C8.78133 14.5385 8.0408 14.5356 8.0408 15.0321C8.0408 15.5726 9.02039 16.4999 9.99999 16.4999Z" fill="#91A7B2"/>
</svg>
