<svg width="20" height="20" viewBox="0 0 20 20" fill="none" xmlns="http://www.w3.org/2000/svg">
<path fill-rule="evenodd" clip-rule="evenodd" d="M6 3H7V4V5V6H6V5H4V16H16V5H15V4H16C16.5523 4 17 4.44772 17 5V16C17 16.5523 16.5523 17 16 17H4C3.44772 17 3 16.5523 3 16V5C3 4.44772 3.44772 4 4 4H6V3ZM14 4V3H13V4H8V5H13V6H14V5V4Z" fill="#698796"/>
<rect x="6" y="7" width="2" height="2" fill="#698796"/>
<rect x="9" y="7" width="2" height="2" fill="#698796"/>
<rect x="12" y="7" width="2" height="2" fill="#698796"/>
<rect x="6" y="10" width="2" height="2" fill="#698796"/>
<rect x="6" y="13" width="2" height="2" fill="#698796"/>
<rect x="9" y="13" width="2" height="2" fill="#698796"/>
<rect x="12" y="13" width="2" height="2" fill="#698796"/>
<rect x="9" y="10" width="2" height="2" fill="#698796"/>
<rect x="12" y="10" width="2" height="2" fill="#698796"/>
</svg>
