<svg xmlns="http://www.w3.org/2000/svg" width="64" height="64" fill="none" viewBox="0 0 64 64">
  <g class="64x64/Outline/notification_off">
    <path fill="#53707F" d="M37.231 53.503c0 1.374-.485 2.55-1.454 3.53-.97.977-2.136 1.467-3.497 1.467-1.362 0-2.528-.49-3.498-1.468-.97-.978-1.454-2.155-1.454-3.529h9.903ZM55.81 5.793a.984.984 0 0 1 1.4 0c.387.39.387 1.023 0 1.414L8.19 56.67a.984.984 0 0 1-1.4 0 1.006 1.006 0 0 1 0-1.413L55.81 5.792ZM47.837 21.02a17.066 17.066 0 0 1 1.279 6.5v20.992h3.806c.547 0 .99.448.99 1 0 .551-.443 1-.99 1h-34.31l1.988-2.006h26.535V27.52c0-1.735-.294-3.401-.832-4.951l1.534-1.548ZM32.28 6.534c2.187 0 3.961 1.79 3.961 3.998v.474a16.728 16.728 0 0 1 6.852 3.496l-1.406 1.418a14.713 14.713 0 0 0-9.407-3.39c-8.204 0-14.856 6.712-14.856 14.99v12.884l-1.98 1.998V27.52c0-8.005 5.487-14.717 12.874-16.515v-.473c0-2.208 1.774-3.998 3.962-3.998Z" class="Primary"/>
  </g>
</svg>
