<svg xmlns="http://www.w3.org/2000/svg" width="400" height="400" fill="none" viewBox="0 0 400 400">
  <g class="400x400/Outline/videowall_server_placeholder">
    <path fill="#263137" fill-rule="evenodd" d="M88 121a5 5 0 0 1 5-5h214a5 5 0 0 1 5 5v158a5 5 0 0 1-5 5H93a5 5 0 0 1-5-5V121Zm6 82.015V278h212v-75h-17a3 3 0 1 1 0-6h17v-75H94v75.015h18.854l8.119-9.883c1.698-2.068 4.909-1.917 6.406.301l11.213 16.611 15.853-24.439c1.755-2.707 5.829-2.328 7.055.656l14.018 34.11 13.07-66.189c.879-4.454 7.323-4.231 7.893.273l11.195 88.469 11.527-53.306c.721-3.334 5.016-4.294 7.087-1.584l11.452 14.981H254.5a3 3 0 1 1 0 6h-17.746a3.998 3.998 0 0 1-3.178-1.571l-9.424-12.327-13.083 60.503c-.951 4.397-7.313 4.12-7.878-.343l-11.111-87.806-11.963 60.58c-.767 3.889-6.117 4.412-7.624.745l-15.092-36.724-15.42 23.772c-1.559 2.405-5.067 2.437-6.671.061l-11.404-16.892-7.316 8.906-.9 1.096H94Z" class="Primary" clip-rule="evenodd"/>
  </g>
</svg>
