<svg xmlns="http://www.w3.org/2000/svg" width="400" height="400" fill="none" viewBox="0 0 400 400">
  <g class="400x400/Outline/videowall_webpage_placeholder">
    <path fill="#263137" fill-rule="evenodd" d="M93 116a5 5 0 0 0-5 5v158a5 5 0 0 0 5 5h214a5 5 0 0 0 5-5V121a5 5 0 0 0-5-5H93Zm1 162V122h212v156H94Zm124.84-128.034a2.999 2.999 0 1 0-5.68-1.932l-32.852 96.565a3 3 0 1 0 5.68 1.932l32.852-96.565Zm9.039 14.913a2.998 2.998 0 0 1 4.242 0l30 30 2.122 2.121-2.122 2.121-30 30a2.998 2.998 0 0 1-4.242 0 2.998 2.998 0 0 1 0-4.242L255.757 197l-27.878-27.879a2.998 2.998 0 0 1 0-4.242Zm-61 0a2.998 2.998 0 0 1 4.242 0 2.998 2.998 0 0 1 0 4.242L143.243 197l27.878 27.879a2.998 2.998 0 0 1 0 4.242 2.998 2.998 0 0 1-4.242 0l-30-30-2.122-2.121 2.122-2.121 30-30Z" class="Primary" clip-rule="evenodd"/>
  </g>
</svg>
