<?xml version="1.0" encoding="utf-8"?>
<!-- Generator: Adobe Illustrator 19.2.0, SVG Export Plug-In . SVG Version: 6.00 Build 0)  -->
<svg version="1.1" id="Layer_1" xmlns="http://www.w3.org/2000/svg" xmlns:xlink="http://www.w3.org/1999/xlink" x="0px" y="0px"
	 viewBox="0 0 24 24" style="enable-background:new 0 0 24 24;" xml:space="preserve">
<style type="text/css">
	.st0{fill:#FFFFFF;}
</style>
<path class="st0" d="M20,19h-1V4c0-0.6-0.4-1-1-1H6C5.4,3,5,3.4,5,4v15v0H4c-0.6,0-1,0.4-1,1s0.4,1,1,1h2.6l7.6,2.9
	C14.5,24,14.8,24,15,24c0.4,0,0.8-0.1,1.1-0.4c0.5-0.4,0.9-1,0.9-1.6v-1h3c0.6,0,1-0.4,1-1S20.6,19,20,19z M15,22l-8-3V5l8,3V22z"/>
<polygon class="st0" points="14,13.6 12,12.9 12,14.9 14,15.6 "/>
</svg>
