<?xml version="1.0" encoding="utf-8"?>
<!-- Generator: Adobe Illustrator 19.2.0, SVG Export Plug-In . SVG Version: 6.00 Build 0)  -->
<svg version="1.1" id="Layer_1" xmlns="http://www.w3.org/2000/svg" xmlns:xlink="http://www.w3.org/1999/xlink" x="0px" y="0px"
	 viewBox="0 0 24 24" style="enable-background:new 0 0 24 24;" xml:space="preserve">
<style type="text/css">
	.st0{fill:#FFFFFF;}
</style>
<path class="st0" d="M18.5,8h-3c-0.7,0-1.3,0.3-1.8,0.7L7.5,15h-2C4.1,15,3,16.1,3,17.5S4.1,20,5.5,20h3c0.7,0,1.3-0.3,1.8-0.7
	l6.3-6.3h2c1.4,0,2.5-1.1,2.5-2.5S19.9,8,18.5,8z"/>
<path class="st0" d="M3.7,10.7L7,7.4V9c0,0.6,0.4,1,1,1s1-0.4,1-1V4H4C3.4,4,3,4.4,3,5s0.4,1,1,1h1.6L2.3,9.3c-0.4,0.4-0.4,1,0,1.4
	C2.5,10.9,2.7,11,3,11S3.5,10.9,3.7,10.7z"/>
</svg>
