<?xml version="1.0" encoding="utf-8"?>
<!-- Generator: Adobe Illustrator 19.2.0, SVG Export Plug-In . SVG Version: 6.00 Build 0)  -->
<svg version="1.1" id="Layer_1" xmlns="http://www.w3.org/2000/svg" xmlns:xlink="http://www.w3.org/1999/xlink" x="0px" y="0px"
	 viewBox="0 0 24 24" style="enable-background:new 0 0 24 24;" xml:space="preserve">
<style type="text/css">
	.st0{fill:#FFFFFF;}
</style>
<path class="st0" d="M13.1,10.4C13.8,7.2,14,5,14,5c0-1.1-0.9-2-2-2c-1.1,0-2,0.9-2,2c0,0,0.3,2.3,0.9,5.4c0.3-0.2,0.7-0.3,1.1-0.3
	C12.4,10,12.8,10.1,13.1,10.4z"/>
<path class="st0" d="M10.9,13.6C10.2,16.8,10,19,10,19c0,1.1,0.9,2,2,2c1.1,0,2-0.9,2-2c0,0-0.3-2.3-0.9-5.3
	C12.8,13.9,12.4,14,12,14C11.6,14,11.2,13.9,10.9,13.6z"/>
<path class="st0" d="M19,10c0,0-2.3,0.3-5.4,0.9c0.2,0.3,0.4,0.7,0.4,1.1c0,0.4-0.1,0.8-0.4,1.1C16.8,13.8,19,14,19,14
	c1.1,0,2-0.9,2-2C21,10.9,20.1,10,19,10z"/>
<path class="st0" d="M10.4,10.9C7.2,10.2,5,10,5,10c-1.1,0-2,0.9-2,2c0,1.1,0.9,2,2,2c0,0,2.3-0.3,5.3-0.9C10.1,12.8,10,12.4,10,12
	C10,11.6,10.1,11.2,10.4,10.9z"/>
</svg>
