<?xml version="1.0" encoding="utf-8"?>
<!-- Generator: Adobe Illustrator 19.2.0, SVG Export Plug-In . SVG Version: 6.00 Build 0)  -->
<svg version="1.1" id="Layer_1" xmlns="http://www.w3.org/2000/svg" xmlns:xlink="http://www.w3.org/1999/xlink" x="0px" y="0px"
	 viewBox="0 0 24 24" style="enable-background:new 0 0 24 24;" xml:space="preserve">
<style type="text/css">
	.st0{fill-rule:evenodd;clip-rule:evenodd;fill:#FFFFFF;}
	.st1{fill:#FFFFFF;}
</style>
<path class="st0" d="M9,6c0,3.1,0,9,0,12c-3.3,0-6-2.7-6-6S5.7,6,9,6z"/>
<path class="st0" d="M10,6h1c0.6,0,1,0.4,1,1v10c0,0.6-0.4,1-1,1h-1V6z"/>
<path class="st1" d="M21,9h-6c-0.6,0-1-0.4-1-1s0.4-1,1-1h6c0.6,0,1,0.4,1,1S21.6,9,21,9z"/>
<path class="st1" d="M21,13h-6c-0.6,0-1-0.4-1-1s0.4-1,1-1h6c0.6,0,1,0.4,1,1S21.6,13,21,13z"/>
<path class="st1" d="M21,17h-6c-0.6,0-1-0.4-1-1s0.4-1,1-1h6c0.6,0,1,0.4,1,1S21.6,17,21,17z"/>
</svg>
