<?xml version="1.0" encoding="utf-8"?>
<!-- Generator: Adobe Illustrator 19.2.0, SVG Export Plug-In . SVG Version: 6.00 Build 0)  -->
<svg version="1.1" id="Layer_1" xmlns="http://www.w3.org/2000/svg" xmlns:xlink="http://www.w3.org/1999/xlink" x="0px" y="0px"
	 viewBox="0 0 24 24" style="enable-background:new 0 0 24 24;" xml:space="preserve">
<style type="text/css">
	.st0{fill:#FFFFFF;}
</style>
<path class="st0" d="M17,11.1C17,8.3,14.8,6,12,6c-0.8,0-1.5,0.2-2.2,0.5l6.6,6.6C16.7,12.5,17,11.8,17,11.1z"/>
<polygon class="st0" points="9.5,21 12,22 14.5,21 14.5,18 9.5,18 "/>
<path class="st0" d="M4.7,4.3c-0.4-0.4-1-0.4-1.4,0s-0.4,1,0,1.4l3.9,3.9C7.1,10.1,7,10.6,7,11.1c0,2.2,2.5,4.3,2.5,5.9
	c0.5,0,1.9,0,2.5,0c0.6,0,1.8,0,2.5,0c0,0,0-0.1,0-0.1l4.8,4.8c0.2,0.2,0.5,0.3,0.7,0.3s0.5-0.1,0.7-0.3c0.4-0.4,0.4-1,0-1.4
	L4.7,4.3z"/>
</svg>
