<?xml version="1.0" encoding="utf-8"?>
<!-- Generator: Adobe Illustrator 19.2.0, SVG Export Plug-In . SVG Version: 6.00 Build 0)  -->
<svg version="1.1" id="Layer_1" xmlns="http://www.w3.org/2000/svg" xmlns:xlink="http://www.w3.org/1999/xlink" x="0px" y="0px"
	 viewBox="0 0 24 24" style="enable-background:new 0 0 24 24;" xml:space="preserve">
<style type="text/css">
	.st0{fill:#FFFFFF;}
</style>
<path class="st0" d="M21,12h-2c-0.6,0-1,0.4-1,1v1H3c-0.6,0-1,0.4-1,1c0,0.6,0.4,1,1,1h15v5c0,0.6,0.4,1,1,1h2c0.6,0,1-0.4,1-1v-8
	C22,12.4,21.6,12,21,12z"/>
<path class="st0" d="M9,12c2.8,0,5-2.2,5-5s-2.2-5-5-5S4,4.2,4,7S6.2,12,9,12z M6,6h6v2H6V6z"/>
</svg>
