<?xml version="1.0" encoding="utf-8"?>
<!-- Generator: Adobe Illustrator 19.2.0, SVG Export Plug-In . SVG Version: 6.00 Build 0)  -->
<svg version="1.1" id="Layer_1" xmlns="http://www.w3.org/2000/svg" xmlns:xlink="http://www.w3.org/1999/xlink" x="0px" y="0px"
	 viewBox="0 0 24 24" style="enable-background:new 0 0 24 24;" xml:space="preserve">
<style type="text/css">
	.st0{fill:#FFFFFF;}
</style>
<path class="st0" d="M22.4,5H9.8C8.7,5,7.5,5.8,7.2,6.8l-2.6,9.3C4.3,17.2,5,18,6.1,18h12.7c1.1,0,2.2-0.8,2.5-1.9l2.6-9.3
	C24.2,5.8,23.5,5,22.4,5z M21.8,7L21.8,7l-7.9,3.7L9.5,7.1C9.6,7,9.7,7,9.8,7H21.8z M19.4,15.6c0,0.1-0.4,0.4-0.6,0.4l-12,0l2-7
	l4.4,3.6c0.2,0.1,0.4,0.2,0.6,0.2c0.1,0,0.3,0,0.4-0.1l6.9-3.2L19.4,15.6z"/>
<path class="st0" d="M5,10c0-0.6-0.4-1-1-1H2c-0.6,0-1,0.4-1,1s0.4,1,1,1h2C4.6,11,5,10.6,5,10z"/>
<path class="st0" d="M2.3,13.3C2.1,13.5,2,13.7,2,14s0.1,0.5,0.3,0.7C2.5,14.9,2.7,15,3,15c0.3,0,0.5-0.1,0.7-0.3
	C3.9,14.5,4,14.3,4,14s-0.1-0.5-0.3-0.7C3.3,12.9,2.7,12.9,2.3,13.3z"/>
<path class="st0" d="M5,7c0.6,0,1-0.4,1-1S5.6,5,5,5H1C0.4,5,0,5.4,0,6s0.4,1,1,1H5z"/>
</svg>
