<?xml version="1.0" encoding="utf-8"?>
<!-- Generator: Adobe Illustrator 19.2.0, SVG Export Plug-In . SVG Version: 6.00 Build 0)  -->
<svg version="1.1" id="Layer_1" xmlns="http://www.w3.org/2000/svg" xmlns:xlink="http://www.w3.org/1999/xlink" x="0px" y="0px"
	 viewBox="0 0 24 24" style="enable-background:new 0 0 24 24;" xml:space="preserve">
<style type="text/css">
	.st0{fill:#FFFFFF;}
</style>
<path class="st0" d="M18,7h-3.8C14.7,6.5,15,5.8,15,5c0-1.7-1.3-3-3-3S9,3.3,9,5c0,0.8,0.3,1.5,0.8,2H6C4.9,7,4,7.9,4,9v2.9
	C4.5,11.3,5.3,11,6.1,11c1.7,0,3,1.3,3,3s-1.3,3-3,3c-0.8,0-1.6-0.3-2.1-0.9V19c0,1.1,0.9,2,2,2h12c1.1,0,2-0.9,2-2V9
	C20,7.9,19.1,7,18,7z"/>
</svg>
