<svg xmlns="http://www.w3.org/2000/svg" width="24" height="24" fill="none" viewBox="0 0 24 24">
  <g class="24x24/Solid/airtransport">
    <path fill="#B0B9C4" fill-rule="evenodd" d="M11.636 5.032a.633.633 0 0 0-.346-.014l-2.23.537-.095.03a.583.583 0 0 0-.182.97l1.896 1.767-4.942 1.888-3.752-1.815L0 9.748l2.505 2.57-.831.548a1.164 1.164 0 0 0-.5 1.265l.136.526c.164.634.83 1.02 1.486.862l7.323-1.764-.869 2.71a1.145 1.145 0 0 0-.018.637c.164.635.829 1.02 1.485.863l1.741-.42c.303-.073.566-.255.735-.509l3.178-4.787 2.293-.552a25.859 25.859 0 0 0 4.075-1.349 2.09 2.09 0 0 0 .972-.837c.589-.972.25-2.221-.757-2.79a7.886 7.886 0 0 0-1.032-.488l-2.775 2.316-.801-.896 2.179-1.818a8.023 8.023 0 0 0-4.349.386l-1.402.535-3.03-1.678-.108-.046Z" class="Primary" clip-rule="evenodd"/>
  </g>
</svg>
