<svg xmlns="http://www.w3.org/2000/svg" width="24" height="24" fill="none" viewBox="0 0 24 24">
  <g class="24x24/Solid/allow">
    <path fill="#4CAF50" d="M6.788 2.869 5.064 4.593c-.733.733-1.035 1.792-.673 2.763.665 1.78 2.067 4.759 4.68 7.372 2.613 2.613 5.593 4.015 7.372 4.68.97.362 2.03.06 2.763-.673l1.724-1.724a1 1 0 0 0-.158-1.543l-3.917-2.571a1 1 0 0 0-1.092-.004l-2.315 1.498s-.976-.033-2.491-1.549c-1.516-1.515-1.55-2.491-1.55-2.491l1.499-2.315a1 1 0 0 0-.004-1.092l-2.57-3.917a1 1 0 0 0-1.544-.158Z" class="Primary"/>
  </g>
</svg>
