<svg xmlns="http://www.w3.org/2000/svg" width="24" height="24" fill="none" viewBox="0 0 24 24">
  <g class="24x24/Solid/animal">
    <path fill="#B0B9C4" d="m13.397 10.187.416.416a4.414 4.414 0 0 1 .284 5.93 3.53 3.53 0 1 1-6.93.741l-.441-.44a3.531 3.531 0 1 1 .742-6.93 4.413 4.413 0 0 1 5.929.283Zm6.658 3.329c1.04 1.04.432 2.481-.832 3.745-1.264 1.264-2.705 1.873-3.745.832-1.04-1.04-.432-2.48.832-3.745 1.264-1.264 2.705-1.872 3.745-.832Zm.416-6.242c1.04 1.04.432 2.481-.832 3.745-1.264 1.264-2.705 1.873-3.745.832-1.04-1.04-.432-2.48.832-3.745 1.264-1.264 2.705-1.872 3.745-.832ZM16.726 3.53c1.04 1.04.432 2.481-.832 3.745-1.264 1.264-2.705 1.873-3.745.832-1.04-1.04-.432-2.48.832-3.745 1.264-1.264 2.705-1.872 3.745-.832Zm-5.826 0c1.04 1.04.432 2.481-.832 3.745-1.264 1.264-2.705 1.873-3.745.832-1.04-1.04-.432-2.48.832-3.745C8.42 3.097 9.86 2.49 10.9 3.53Z" class="Primary"/>
  </g>
</svg>
