<svg xmlns="http://www.w3.org/2000/svg" width="24" height="24" fill="none" viewBox="0 0 24 24">
  <g class="24x24/Solid/beta_features">
    <path fill="#ffffff" fill-rule="evenodd" d="M12.207 16.413a2.508 2.508 0 0 1-2.508-2.508V7.968a1.968 1.968 0 0 1 3.936-.009v.01a1.968 1.968 0 0 1-.98 1.7.975.975 0 0 0-.053.032 1.952 1.952 0 0 1-.755.228 1 1 0 1 0 .18 1.992 3.953 3.953 0 0 0 1.202-.304 2.505 2.505 0 0 1-1.022 4.796Zm2.682-6.128a4.493 4.493 0 0 1 1.826 3.62 4.508 4.508 0 0 1-7.024 3.742A3.699 3.699 0 0 1 6 21.11a1 1 0 1 1 0-2c.938 0 1.698-.76 1.698-1.698V7.968a3.968 3.968 0 1 1 7.19 2.317Z" class="Primary" clip-rule="evenodd"/>
  </g>
</svg>
