<svg xmlns="http://www.w3.org/2000/svg" width="24" height="24" fill="none" viewBox="0 0 24 24">
  <g class="24x24/Solid/bike">
    <path fill="#B0B9C4" fill-rule="evenodd" d="M17.593 4.446a.665.665 0 0 1-.292.778l-.103.047-1.283.446 1.758 5.503.008-.001a.684.684 0 0 0 .021.081l1.027 3.135h-.979a.64.64 0 0 0-.625.652c0 .36.28.652.625.652h1.875a.639.639 0 0 0 .625-.652.67.67 0 0 0-.106-.363l-1.136-3.47C20.716 11.62 22 13.197 22 15.087 22 17.248 20.321 19 18.25 19c-2.071 0-3.75-1.752-3.75-3.913 0-1.496.805-2.797 1.988-3.455l-.674-2.107-4.576 5.97a.59.59 0 0 1-.019.023l-.003.004a.631.631 0 0 1-.041.044l.001-.002a.659.659 0 0 1-.167.117.612.612 0 0 1-.128.044l-.019.004-.031.005a.613.613 0 0 1-.06.005h-.021l-1.302.001C9.15 17.59 7.608 19 5.75 19 3.679 19 2 17.248 2 15.087c0-2.161 1.679-3.913 3.75-3.913.147 0 .292.009.434.026l-2.6 3.47a.671.671 0 0 0 .108.916c.07.057.149.096.23.118a.603.603 0 0 0 .203.035H6a.639.639 0 0 0 .625-.652.64.64 0 0 0-.625-.652h-.653l2.12-2.828.002.001.671-.935-1.084-2.49A.674.674 0 0 1 7 7.913H5.75a.639.639 0 0 1-.625-.652c0-.32.221-.586.513-.642l.112-.01H9.5a.64.64 0 0 1 .625.652c0 .32-.221.586-.513.642l-.112.01H8.311l.685 1.572L9 9.478a.629.629 0 0 1 .268-.214l.11-.034 5.945-1.241-.79-2.478a.665.665 0 0 1 .291-.778l.103-.047 1.875-.652a.62.62 0 0 1 .79.412Zm-8.863 7.58-.21.293L7 14.435h2.779L8.73 12.027Zm5.459-2.47-4.332.903-.272.378 1.313 3.012 3.29-4.294Z" class="Primary" clip-rule="evenodd"/>
  </g>
</svg>
