<svg xmlns="http://www.w3.org/2000/svg" width="24" height="24" fill="none" viewBox="0 0 24 24">
  <g class="24x24/Solid/bus">
    <path fill="#B0B9C4" fill-rule="evenodd" d="M22.995 9.8C22.88 7.684 20.956 6 18.6 6H2.1C1.492 6 1 6.448 1 7v9c0 .552.492 1 1.1 1h2.255a2.285 2.285 0 0 0-.055-.5c0-1.38 1.231-2.5 2.75-2.5s2.75 1.12 2.75 2.5a2.3 2.3 0 0 1-.055.5h5.61a2.297 2.297 0 0 0-.055-.5c0-1.38 1.231-2.5 2.75-2.5s2.75 1.12 2.75 2.5a2.3 2.3 0 0 1-.055.5H21.9c.608 0 1.1-.448 1.1-1v-6l-.005-.2ZM3.2 7c-.608 0-1.1.448-1.1 1v2c0 .552.492 1 1.1 1h2.2c.608 0 1.1-.448 1.1-1V8c0-.552-.492-1-1.1-1H3.2Zm5.5 0c-.608 0-1.1.448-1.1 1v2c0 .552.492 1 1.1 1h2.2c.607 0 1.1-.448 1.1-1V8c0-.552-.492-1-1.1-1H8.7Zm4.4 1c0-.552.492-1 1.1-1h2.2c.608 0 1.1.448 1.1 1v2c0 .552-.492 1-1.1 1h-2.2c-.607 0-1.1-.448-1.1-1V8Zm5.5-.702c0-.165.147-.298.328-.298 1.642.054 2.947 1.268 2.972 2.758V11h-3.3V7.298ZM8.7 16.5c0 .828-.739 1.5-1.65 1.5-.911 0-1.65-.672-1.65-1.5S6.14 15 7.05 15c.911 0 1.65.672 1.65 1.5Zm11 0c0 .828-.739 1.5-1.65 1.5-.911 0-1.65-.672-1.65-1.5s.739-1.5 1.65-1.5c.911 0 1.65.672 1.65 1.5Z" class="Primary" clip-rule="evenodd"/>
  </g>
</svg>
