<svg width="25" height="24" viewBox="0 0 25 24" fill="none" xmlns="http://www.w3.org/2000/svg">
  <g class="24x24/Solid/cancel">
    <path d="M6.22611 21.0995C5.77597 21.0995 5.39549 20.9412 5.08466 20.6245C4.77382 20.3078 4.61841 19.9303 4.61841 19.4918V6.90726C4.61841 6.46879 4.77382 6.09122 5.08466 5.77455C5.39549 5.45789 5.77597 5.29955 6.22611 5.29955H8.41073V3.45338C8.41073 3.2625 8.47404 3.10324 8.60066 2.97561C8.72727 2.84799 8.88528 2.78418 9.07468 2.78418C9.26408 2.78418 9.42385 2.84799 9.55398 2.97561C9.6841 3.10324 9.74916 3.2625 9.74916 3.45338V5.29955H15.3261V3.43416C15.3261 3.24967 15.3878 3.09522 15.5112 2.97081C15.6346 2.84639 15.7878 2.78418 15.9708 2.78418C16.1538 2.78418 16.3087 2.84639 16.4356 2.97081C16.5626 3.09522 16.626 3.24967 16.626 3.43416V5.29955H18.8107C19.2608 5.29955 19.6413 5.45789 19.9521 5.77455C20.2629 6.09122 20.4184 6.46879 20.4184 6.90726V19.4918C20.4184 19.9303 20.2629 20.3078 19.9521 20.6245C19.6413 20.9412 19.2608 21.0995 18.8107 21.0995H6.22611ZM6.22611 19.7995H18.8107C18.8876 19.7995 18.9581 19.7675 19.0222 19.7034C19.0863 19.6393 19.1184 19.5687 19.1184 19.4918V11.1073H5.91838V19.4918C5.91838 19.5687 5.95043 19.6393 6.01453 19.7034C6.07865 19.7675 6.14918 19.7995 6.22611 19.7995ZM12.5237 14.4765C12.3086 14.4765 12.1232 14.4003 11.9674 14.2481C11.8117 14.0958 11.7338 13.9122 11.7338 13.6971C11.7338 13.4821 11.8099 13.2967 11.9622 13.1409C12.1144 12.9851 12.2981 12.9073 12.5131 12.9073C12.7282 12.9073 12.9136 12.9834 13.0693 13.1356C13.2251 13.2879 13.303 13.4715 13.303 13.6866C13.303 13.9016 13.2269 14.087 13.0746 14.2428C12.9223 14.3986 12.7387 14.4765 12.5237 14.4765ZM8.62366 14.4765C8.40861 14.4765 8.2232 14.4003 8.06743 14.2481C7.91167 14.0958 7.83378 13.9122 7.83378 13.6971C7.83378 13.4821 7.90991 13.2967 8.06216 13.1409C8.21443 12.9851 8.39807 12.9073 8.61311 12.9073C8.82816 12.9073 9.01357 12.9834 9.16933 13.1356C9.3251 13.2879 9.40298 13.4715 9.40298 13.6866C9.40298 13.9016 9.32686 14.087 9.17461 14.2428C9.02234 14.3986 8.83869 14.4765 8.62366 14.4765ZM16.4237 14.4765C16.2086 14.4765 16.0232 14.4003 15.8674 14.2481C15.7117 14.0958 15.6338 13.9122 15.6338 13.6971C15.6338 13.4821 15.7099 13.2967 15.8622 13.1409C16.0144 12.9851 16.1981 12.9073 16.4131 12.9073C16.6282 12.9073 16.8136 12.9834 16.9693 13.1356C17.1251 13.2879 17.203 13.4715 17.203 13.6866C17.203 13.9016 17.1269 14.087 16.9746 14.2428C16.8223 14.3986 16.6387 14.4765 16.4237 14.4765ZM12.5237 17.9995C12.3086 17.9995 12.1232 17.9234 11.9674 17.7711C11.8117 17.6189 11.7338 17.4352 11.7338 17.2202C11.7338 17.0051 11.8099 16.8197 11.9622 16.664C12.1144 16.5082 12.2981 16.4303 12.5131 16.4303C12.7282 16.4303 12.9136 16.5064 13.0693 16.6587C13.2251 16.811 13.303 16.9946 13.303 17.2097C13.303 17.4247 13.2269 17.6101 13.0746 17.7659C12.9223 17.9216 12.7387 17.9995 12.5237 17.9995ZM8.62366 17.9995C8.40861 17.9995 8.2232 17.9234 8.06743 17.7711C7.91167 17.6189 7.83378 17.4352 7.83378 17.2202C7.83378 17.0051 7.90991 16.8197 8.06216 16.664C8.21443 16.5082 8.39807 16.4303 8.61311 16.4303C8.82816 16.4303 9.01357 16.5064 9.16933 16.6587C9.3251 16.811 9.40298 16.9946 9.40298 17.2097C9.40298 17.4247 9.32686 17.6101 9.17461 17.7659C9.02234 17.9216 8.83869 17.9995 8.62366 17.9995ZM16.4237 17.9995C16.2086 17.9995 16.0232 17.9234 15.8674 17.7711C15.7117 17.6189 15.6338 17.4352 15.6338 17.2202C15.6338 17.0051 15.7099 16.8197 15.8622 16.664C16.0144 16.5082 16.1981 16.4303 16.4131 16.4303C16.6282 16.4303 16.8136 16.5064 16.9693 16.6587C17.1251 16.811 17.203 16.9946 17.203 17.2097C17.203 17.4247 17.1269 17.6101 16.9746 17.7659C16.8223 17.9216 16.6387 17.9995 16.4237 17.9995Z" fill="#A3B1C2" class="Primary"/>
  </g>
</svg>
