<svg xmlns="http://www.w3.org/2000/svg" width="24" height="24" fill="none" viewBox="0 0 24 24">
  <g class="24x24/Solid/camera_edit">
    <path fill="#A5B7C0" d="M17.48 8a.4.4 0 0 1 .4.4v1.356a4.5 4.5 0 0 1 1.425.824l1.175-.679a.4.4 0 0 1 .546.146l1.1 1.905a.4.4 0 0 1-.146.547l-1.175.679a4.528 4.528 0 0 1 0 1.644l1.175.679a.4.4 0 0 1 .146.546l-1.1 1.905a.4.4 0 0 1-.546.147l-1.175-.68a4.499 4.499 0 0 1-1.425.825V19.6a.4.4 0 0 1-.4.4h-2.2a.4.4 0 0 1-.4-.4v-1.356a4.493 4.493 0 0 1-1.424-.824l-1.176.679a.4.4 0 0 1-.546-.147l-1.1-1.905a.4.4 0 0 1 .146-.546l1.175-.679a4.529 4.529 0 0 1 0-1.644l-1.175-.679a.4.4 0 0 1-.146-.546l1.1-1.905a.4.4 0 0 1 .546-.147l1.176.68a4.496 4.496 0 0 1 1.424-.825V8.4c0-.22.18-.4.4-.4h2.2ZM17 5a1 1 0 0 1 1 1v1.1a1.38 1.38 0 0 0-.52-.1h-2.2a1.4 1.4 0 0 0-1.4 1.4V9h-1.164a1.4 1.4 0 0 0-1.272 0H5v3a5 5 0 0 0 5 5h.03l.838 1.452c.102.177.237.323.392.435A7 7 0 0 1 3 12V9a1 1 0 0 1-1-1V6a1 1 0 0 1 1-1h14Zm-.62 6.75a2.25 2.25 0 1 0 0 4.5 2.25 2.25 0 0 0 0-4.5Zm-6.795.293a1.4 1.4 0 0 0 .695 1.322l.608.35a5.584 5.584 0 0 0 0 .57l-.608.35a1.4 1.4 0 0 0-.695 1.322 2.001 2.001 0 0 1 0-3.914Z" class="Primary"/>
  </g>
</svg>
