<svg xmlns="http://www.w3.org/2000/svg" width="24" height="24" fill="none" viewBox="0 0 24 24">
  <g class="24x24/Solid/car">
    <path fill="#B0B9C4" fill-rule="evenodd" d="M16.68 7.44A3.6 3.6 0 0 0 13.8 6H9a3.6 3.6 0 0 0-2.88 1.44l-2.16 2.88a1.2 1.2 0 0 1-.96.48H1.8A1.8 1.8 0 0 0 0 12.6v1.8a2.4 2.4 0 0 0 2.4 2.4h1.26a3 3 0 1 1 5.88 0h6.12a3 3 0 1 1 5.88 0h.06a2.4 2.4 0 0 0 2.4-2.4v-1.2a2.4 2.4 0 0 0-2.4-2.4h-2.4l-2.52-3.36ZM9 7.2h1.8v3.6H5.099L7.08 8.16l.13-.159A2.4 2.4 0 0 1 9 7.2Zm3 0h1.8l.205.009a2.4 2.4 0 0 1 1.715.951l1.98 2.64H12V7.2Zm-3.6 9a1.8 1.8 0 1 1-3.6 0 1.8 1.8 0 0 1 3.6 0Zm12 0a1.8 1.8 0 1 1-3.6 0 1.8 1.8 0 0 1 3.6 0Z" class="Primary" clip-rule="evenodd"/>
  </g>
</svg>
