<svg xmlns="http://www.w3.org/2000/svg" width="24" height="24" fill="none" viewBox="0 0 24 24">
  <g class="24x24/Solid/default">
    <path fill="#B0B9C4" d="M9 21v-2.4H7.8V21H9Zm2.4 0v-2.4h-1.2V21h1.2Zm2.4 0v-2.4h-1.2V21h1.2Zm2.4 0v-2.4H15V21h1.2Zm1.2-13.2a1.2 1.2 0 0 0-1.2-1.2H7.8a1.2 1.2 0 0 0-1.2 1.2v8.4a1.2 1.2 0 0 0 1.2 1.2h8.4a1.2 1.2 0 0 0 1.2-1.2V7.8Zm3.6 8.4V15h-2.4v1.2H21Zm-15.6 0V15H3v1.2h2.4ZM21 13.8v-1.2h-2.4v1.2H21Zm-15.6 0v-1.2H3v1.2h2.4ZM21 11.4v-1.2h-2.4v1.2H21Zm-15.6 0v-1.2H3v1.2h2.4ZM21 9V7.8h-2.4V9H21ZM5.4 9V7.8H3V9h2.4ZM9 5.4V3H7.8v2.4H9Zm2.4 0V3h-1.2v2.4h1.2Zm2.4 0V3h-1.2v2.4h1.2Zm2.4 0V3H15v2.4h1.2Z" class="Primary"/>
  </g>
</svg>
