<svg xmlns="http://www.w3.org/2000/svg" width="24" height="24" fill="none" viewBox="0 0 24 24">
  <g class="24x24/Solid/delete">
    <path fill="#B0BEC4" fill-rule="evenodd" d="M9.857 4.232V5.84h4.286V4.232H9.857Zm-.536-1.607c-.591 0-1.07.48-1.07 1.071V5.84H5.303a.804.804 0 1 0 0 1.607h13.392a.804.804 0 1 0 0-1.607H15.75V3.696c0-.591-.48-1.071-1.071-1.071H9.32Zm-3.75 6.43v10.32a2 2 0 0 0 2 2h8.858a2 2 0 0 0 2-2V9.055H5.57Zm7.5 10.713v-9.107h1.608v9.107H13.07Zm-3.75 0v-9.107h1.608v9.107H9.32Z" class="Primary" clip-rule="evenodd"/>
  </g>
</svg>
