<svg xmlns="http://www.w3.org/2000/svg" width="24" height="24" fill="none" viewBox="0 0 24 24">
  <g class="24x24/Solid/delete">
    <path fill="#B0B9C4" d="M18.429 19.376a2 2 0 0 1-2 2H7.57a2 2 0 0 1-2-2V9.054h12.86v10.322ZM9.32 10.661v9.108h1.608V10.66H9.32Zm3.75 0v9.108h1.608V10.66H13.07Zm1.608-8.036c.591 0 1.07.48 1.071 1.071V5.84h2.946a.804.804 0 0 1 0 1.607H5.304a.804.804 0 0 1 0-1.607H8.25V3.696c0-.591.48-1.07 1.071-1.071h5.358ZM9.857 5.839h4.286V4.232H9.857V5.84Z" class="Primary"/>
  </g>
</svg>
