<svg xmlns="http://www.w3.org/2000/svg" width="24" height="24" fill="none" viewBox="0 0 24 24">
  <g class="24x24/Solid/developer_settings">
    <path fill="#B0B9C4" d="M13.476 3c.804 0 1.533.566 1.676 1.396l.16.923c.07.404.537.713 1.019.538l.906-.328a1.714 1.714 0 0 1 2.053.724l1.475 2.469a1.663 1.663 0 0 1-.398 2.158l-.747.594a.66.66 0 0 0 0 1.052l.747.594c.65.517.83 1.434.398 2.158l-1.475 2.47a1.714 1.714 0 0 1-2.053.723l-.906-.328c-.482-.175-.95.134-1.02.538l-.159.922A1.694 1.694 0 0 1 13.476 21h-2.95a1.695 1.695 0 0 1-1.678-1.396l-.16-.923c-.07-.404-.536-.713-1.018-.538l-.906.328a1.714 1.714 0 0 1-2.053-.724l-1.476-2.469a1.663 1.663 0 0 1 .399-2.158l.747-.594a.66.66 0 0 0 0-1.052l-.747-.594a1.664 1.664 0 0 1-.399-2.158l1.476-2.47a1.714 1.714 0 0 1 2.053-.723l.906.328c.482.175.949-.135 1.018-.538l.16-.923A1.695 1.695 0 0 1 10.525 3h2.95Zm-.47 5.019a.75.75 0 0 0-.909.545l-1.62 6.501a.75.75 0 0 0 1.454.364l1.622-6.501a.75.75 0 0 0-.546-.91Zm-3.2 1.476a.751.751 0 0 0-1.06-.05l-2.118 1.926a.85.85 0 0 0 0 1.258l2.118 1.926a.75.75 0 0 0 1.009-1.11L8.165 12l1.59-1.445a.75.75 0 0 0 .05-1.06Zm5.45-.05a.75.75 0 0 0-1.01 1.11L15.837 12l-1.59 1.445a.75.75 0 1 0 1.01 1.11l2.118-1.926a.85.85 0 0 0 0-1.258l-2.118-1.926Z" class="Primary"/>
  </g>
</svg>
