<svg xmlns="http://www.w3.org/2000/svg" width="24" height="24" fill="none" viewBox="0 0 24 24">
  <g class="24x24/Solid/door">
    <path fill="#ffffff" d="M9 13c.283 0 .52-.096.713-.287A.968.968 0 0 0 10 12a.968.968 0 0 0-.287-.713A.967.967 0 0 0 9 11a.967.967 0 0 0-.713.287A.968.968 0 0 0 8 12c0 .283.096.52.287.713.192.191.43.287.713.287Zm6 0c.283 0 .52-.096.713-.287A.968.968 0 0 0 16 12a.968.968 0 0 0-.287-.713A.968.968 0 0 0 15 11a.968.968 0 0 0-.713.287A.968.968 0 0 0 14 12c0 .283.096.52.287.713.192.191.43.287.713.287ZM3 21v-2h1V5c0-.55.196-1.02.588-1.413A1.926 1.926 0 0 1 6 3h5.5v16h1V3H18c.55 0 1.02.196 1.413.587.39.393.587.863.587 1.413v14h1v2H3Z" class="Primary"/>
  </g>
</svg>
