<svg xmlns="http://www.w3.org/2000/svg" width="24" height="24" fill="none" viewBox="0 0 24 24">
  <g class="24x24/Solid/emergency">
    <path fill="#B0B9C4" fill-rule="evenodd" d="M13.2 4c.663 0 1.2.56 1.2 1.25v1.302A3.58 3.58 0 0 1 16.68 8l2.52 3.5h2.4c1.325 0 2.4 1.12 2.4 2.5v1.25c0 1.38-1.075 2.5-2.4 2.5h-.06c.04-.202.06-.41.06-.625 0-1.726-1.343-3.125-3-3.125s-3 1.4-3 3.125c0 .214.02.423.06.625H9.54c.04-.202.06-.41.06-.625C9.6 15.399 8.257 14 6.6 14s-3 1.4-3 3.125c0 .214.02.423.06.625H2.4c-1.325 0-2.4-1.12-2.4-2.5v-2.917c0-.54.168-1.067.48-1.5L3.24 7c.227-.315.582-.5.96-.5H12V5.25c0-.69.537-1.25 1.2-1.25Zm.6 3.75h-3v3.75h6.9l-1.98-2.75a2.378 2.378 0 0 0-1.715-.99l-.205-.01ZM7.2 8.999V7.75H6v1.249L4.8 9v1.25l1.2-.001V11.5h1.2v-1.251l1.2.001V9l-1.2-.001Zm1.2 8.126C8.4 18.16 7.594 19 6.6 19s-1.8-.84-1.8-1.875c0-1.035.806-1.875 1.8-1.875s1.8.84 1.8 1.875Zm12 0c0 1.035-.806 1.875-1.8 1.875s-1.8-.84-1.8-1.875c0-1.035.806-1.875 1.8-1.875s1.8.84 1.8 1.875Z" class="Primary" clip-rule="evenodd"/>
  </g>
</svg>
