<svg xmlns="http://www.w3.org/2000/svg" width="24" height="24" fill="none" viewBox="0 0 24 24">
  <g class="24x24/Solid/face">
    <path fill="#B0B9C4" fill-rule="evenodd" d="M5.269 4.422C6.433 3.012 8.374 2 10.949 2l.361.002.704.02.645.038.314.027c1.35.13 2.232.396 2.674.736l.075.063.008.007c.248-.12.678-.187.936-.187.831 0 2.19.702 2.19 1.569v3.02l-.224-.01c-.783-.06-2.127-.432-2.669-.998l-.06.051-.178.138-.179.14c-1.785 1.242-4.172 2.165-6.34 1.603-1.032-.272-2.062-.405-3.13-.324L6.01 7.9c-.13.01-.262.024-.396.039l-.936.123-.429.056-.132.007-.09-.006-.02-.003c-.006-.002-.009-.013-.006-.02a.16.16 0 0 0 .008-.039l.006-.161.006-.244c.04-.779.269-1.676.673-2.394.11-.196.233-.387.369-.572l.03-.041.176-.223Zm-.124 5.868c-.607.326-1.03 1.074-1.03 1.943 0 .868.422 1.615 1.028 1.941v1.332C5.143 19.091 8.213 22 12 22c3.687 0 6.695-2.757 6.85-6.213l.007-.282V14.23c.666-.29 1.143-1.075 1.143-1.997 0-.922-.477-1.707-1.143-1.997V9.01c-1.13 0-2.152-.548-2.895-1.245l-.169.105c-2.413 1.46-4.859 1.97-7.309 1.507L8.117 9.3l-.426-.089a9.497 9.497 0 0 0-2.545-.132l-.001 1.211Zm9.52 6.41a.6.6 0 0 1 .048.83c-.78.904-1.694 1.374-2.713 1.374-1.02 0-1.932-.47-2.713-1.374a.6.6 0 0 1 .048-.83.56.56 0 0 1 .806.048c.574.665 1.185.98 1.859.98.674 0 1.285-.315 1.859-.98a.56.56 0 0 1 .806-.048Zm-4.95-4.855a.58.58 0 0 1 .57.588.584.584 0 0 1-.468.58l-.103.009H8.571a.58.58 0 0 1-.57-.589c0-.288.201-.529.468-.578l.102-.01h1.143Zm5.713 0a.58.58 0 0 1 .572.588.584.584 0 0 1-.469.58l-.103.009h-1.142a.58.58 0 0 1-.572-.589c0-.288.202-.529.469-.578l.103-.01h1.143Z" class="Primary" clip-rule="evenodd"/>
  </g>
</svg>
