<svg xmlns="http://www.w3.org/2000/svg" width="24" height="24" fill="none" viewBox="0 0 24 24">
  <g class="24x24/Solid/hidden">
    <path fill="#E5E8EB" fill-rule="evenodd" d="M12 23c6.075 0 11-4.925 11-11S18.075 1 12 1 1 5.925 1 12s4.925 11 11 11Zm-5.293-4.293-1.414-1.414 12-12 1.414 1.414-1.678 1.678-1.583 1.583-5.478 5.478-1.412 1.413-1.849 1.848ZM9.46 17.37c.798.387 1.653.63 2.541.63 3.635 0 6.704-4.062 7.678-5.501a.882.882 0 0 0 0-.998 19.185 19.185 0 0 0-1.937-2.413l-1.877 1.876a4.004 4.004 0 0 1-4.9 4.9L9.459 17.37Zm3.577-9.235a4 4 0 0 0-4.9 4.9L6.26 14.912A19.194 19.194 0 0 1 4.322 12.5a.882.882 0 0 1 0-.998C5.296 10.061 8.365 6 12 6c.888 0 1.743.243 2.541.63l-1.505 1.505Z" class="Primary" clip-rule="evenodd"/>
  </g>
</svg>
