<svg xmlns="http://www.w3.org/2000/svg" width="24" height="24" fill="none" viewBox="0 0 24 24">
  <g class="24x24/Solid/interface">
    <path fill="#ffffff" fill-rule="evenodd" d="M4 19.059c0 .52.394.941.881.941h5.488c.486 0 .881-.421.881-.941v-2.724c0-.52-.395-.94-.881-.94H4.88c-.487 0-.881.42-.881.94v2.724Zm.881-5.159c-.487 0-.881-.439-.881-.959v-8c0-.52.394-.941.881-.941h5.488c.486 0 .881.421.881.941v8c0 .52-.395.959-.881.959H4.88Zm7.869-8.959c0-.52.395-.941.881-.941h5.488c.486 0 .881.421.881.941v2.724c0 .52-.395.94-.881.94H13.63c-.486 0-.881-.42-.881-.94V4.94Zm.881 5.159c-.486 0-.881.439-.881.959v8c0 .52.395.941.881.941h5.488c.486 0 .881-.421.881-.941v-8c0-.52-.395-.959-.881-.959H13.63Z" class="Primary" clip-rule="evenodd"/>
  </g>
</svg>
