<svg xmlns="http://www.w3.org/2000/svg" width="24" height="24" fill="none" viewBox="0 0 24 24">
  <g class="24x24/Solid/interface">
    <path fill="#B0B9C4" d="M10.37 15.395c.486 0 .88.42.88.94v2.724c0 .52-.394.94-.88.941H4.88c-.486 0-.88-.422-.88-.941v-2.724c0-.52.394-.94.88-.94h5.49Zm8.75-5.295c.486 0 .88.439.88.959v8c0 .52-.394.94-.88.941h-5.49c-.486 0-.88-.422-.88-.941v-8c0-.52.394-.96.88-.96h5.49ZM10.37 4c.486 0 .88.422.88.941v8c0 .52-.394.96-.88.96H4.88c-.486 0-.88-.44-.88-.96v-8c0-.52.394-.94.88-.941h5.49Zm8.75 0c.486 0 .88.422.88.941v2.724c0 .52-.395.94-.88.94h-5.49c-.486 0-.88-.42-.88-.94V4.941c0-.52.394-.94.88-.941h5.49Z" class="Primary"/>
  </g>
</svg>
