<svg xmlns="http://www.w3.org/2000/svg" width="24" height="24" fill="none" viewBox="0 0 24 24">
  <g class="24x24/Solid/license">
    <path fill="#B0B9C4" fill-rule="evenodd" d="M22.8 6A1.2 1.2 0 0 1 24 7.2v9.6a1.2 1.2 0 0 1-1.2 1.2H1.2A1.2 1.2 0 0 1 0 16.8V7.2A1.2 1.2 0 0 1 1.2 6h21.6Zm-6 9.6H18V8.4h-2.4v1.2h1.2v6ZM6 15.6h3.6V8.4H6v7.2Zm4.8 0h3.6V8.4h-3.6v7.2Zm-3.6-6h1.2v4.8H7.2V9.6Zm4.8 0h1.2v4.8H12V9.6ZM4.8 12a1.2 1.2 0 1 0-2.4 0 1.2 1.2 0 0 0 2.4 0Zm16.8 0a1.2 1.2 0 1 0-2.4 0 1.2 1.2 0 0 0 2.4 0Z" class="Primary" clip-rule="evenodd"/>
  </g>
</svg>
