<svg xmlns="http://www.w3.org/2000/svg" width="24" height="24" fill="none" viewBox="0 0 24 24">
  <g class="24x24/Solid/live_preview">
    <path fill="#B0B9C4" d="M19 18a1 1 0 0 1 1 1v1H4v-1a1 1 0 0 1 1-1h14Zm0-11a1 1 0 0 1 1 1v8a1 1 0 0 1-1 1H5a1 1 0 0 1-1-1V8a1 1 0 0 1 1-1h14ZM8.5 10.75a1.25 1.25 0 1 0 0 2.5 1.25 1.25 0 0 0 0-2.5Zm3.5 0a1.25 1.25 0 1 0 0 2.5 1.25 1.25 0 0 0 0-2.5Zm3.5 0a1.25 1.25 0 1 0 0 2.5 1.25 1.25 0 0 0 0-2.5ZM20 5a1 1 0 0 1-1 1H5a1 1 0 0 1-1-1V4h16v1Z" class="Primary"/>
  </g>
</svg>
