<svg xmlns="http://www.w3.org/2000/svg" width="24" height="24" fill="none" viewBox="0 0 24 24">
  <g class="24x24/Solid/memory">
    <path fill="#ffffff" d="M9 15V9h6v6H9Zm0 6v-2H7c-.55 0-1.02-.196-1.412-.587A1.926 1.926 0 0 1 5 17v-2H3v-2h2v-2H3V9h2V7c0-.55.196-1.02.588-1.412A1.926 1.926 0 0 1 7 5h2V3h2v2h2V3h2v2h2c.55 0 1.02.196 1.413.588.391.391.587.862.587 1.412v2h2v2h-2v2h2v2h-2v2c0 .55-.196 1.02-.587 1.413A1.926 1.926 0 0 1 17 19h-2v2h-2v-2h-2v2H9Zm8-4V7H7v10h10Z" class="Primary"/>
  </g>
</svg>
