<svg xmlns="http://www.w3.org/2000/svg" width="24" height="24" fill="none" viewBox="0 0 24 24">
  <g class="24x24/Solid/mic">
    <path fill="#B0B9C4" d="M11.905 14.105a2.436 2.436 0 0 1-1.789-.737 2.436 2.436 0 0 1-.737-1.79V6.527c0-.701.246-1.298.737-1.79A2.436 2.436 0 0 1 11.906 4c.701 0 1.298.246 1.789.737.491.491.737 1.088.737 1.79v5.052a2.44 2.44 0 0 1-.737 1.79 2.436 2.436 0 0 1-1.79.736Zm-.842 5.053V17.41a5.725 5.725 0 0 1-3.315-1.642c-.92-.912-1.478-2.02-1.674-3.326a.735.735 0 0 1 .19-.61.765.765 0 0 1 .589-.253c.238 0 .438.08.6.242.161.162.27.361.326.6a4.05 4.05 0 0 0 1.463 2.421 4.112 4.112 0 0 0 2.663.947 4.075 4.075 0 0 0 2.674-.957 4.106 4.106 0 0 0 1.453-2.41c.056-.24.165-.44.326-.6a.815.815 0 0 1 .6-.243c.239 0 .435.084.59.253a.735.735 0 0 1 .189.61 5.875 5.875 0 0 1-1.663 3.305c-.912.927-2.021 1.481-3.327 1.663v1.748c0 .238-.08.438-.242.6a.815.815 0 0 1-.6.242.815.815 0 0 1-.6-.242.815.815 0 0 1-.242-.6Z" class="Primary"/>
  </g>
</svg>
