<svg xmlns="http://www.w3.org/2000/svg" width="24" height="24" fill="none" viewBox="0 0 24 24">
  <g class="24x24/Solid/motion">
    <path fill="#B0B9C4" d="M13.382 15.456s.001.078.08.078c.238.234.714.625 1.19 1.093l-.08.469c0 .078-.078.234-.157.312l-2.699 3.28c-.158.234-.396.312-.634.312-.16 0-.318 0-.477-.156-.317-.235-.317-.78-.08-1.093l2.54-3.124.317-1.17Zm3.254-7.809c.794.079 1.507.626 1.745 1.407l.873 1.717 1.508 1.484c.317.312.317.78 0 .936a.865.865 0 0 1-.556.235.866.866 0 0 1-.555-.235l-1.587-1.561c-.08-.078-.079-.157-.158-.235L17.033 9.6l-1.349 3.358c.031.041 2.381 3.124 2.46 3.201.08.078.158.235.158.313l1.032 3.435c.079.39-.159.78-.555.937h-.238c-.397 0-.715-.235-.794-.547l-.953-3.201c-.476-.469-1.983-2.03-2.618-2.576-.793-.625-1.031-1.797-.714-2.812.238-.703.555-1.717.793-2.498-.634.156-1.11.546-1.507 1.249l-1.19 2.187c-.159.39-.635.546-1.032.312-.397-.156-.555-.625-.317-1.016l1.19-2.186c.793-1.405 1.984-2.109 3.412-2.109h1.825Zm.793-4.607c1.096 0 1.985.874 1.985 1.952 0 1.078-.89 1.952-1.985 1.952-1.095 0-1.983-.874-1.983-1.952 0-1.078.888-1.952 1.983-1.952Z" class="Primary"/>
    <path fill="#B0B9C4" d="M4.01 21c-.472 0-.786-.314-.786-.784a7.87 7.87 0 0 1 .942-3.764c-1.413-2.353-1.57-5.254-.314-7.685l1.257-2.43A11.307 11.307 0 0 1 7.7 3.2c.315-.314.864-.236 1.1.078.314.314.236.863-.079 1.098-.863.784-1.649 1.647-2.199 2.744L5.266 9.551c-1.1 2.118-.943 4.548.471 6.509a.848.848 0 0 1 0 .862c-.628.941-.942 2.118-.942 3.294 0 .47-.393.784-.786.784Z" class="Primary" opacity=".3"/>
    <path fill="#B0B9C4" d="M8.006 21c-.476 0-.793-.312-.793-.78 0-1.016.317-1.953.952-2.734l1.111-1.327c-2.063-1.093-2.857-3.67-1.825-5.778l1.27-2.343c.872-1.561 2.142-2.654 3.57-3.28 0-.39.08-.78.16-1.17.079-.39.555-.703.952-.547.396.078.714.547.555.937-.08.312-.159.625-.159.937v.234c0 .39-.158.703-.555.86-1.35.468-2.46 1.405-3.254 2.732L8.8 11.005c-.714 1.328-.159 2.968 1.19 3.67.159.078.397.156.714.235.239.078.477.234.556.468.08.234.08.547-.159.78l-1.825 2.187a2.702 2.702 0 0 0-.635 1.718c.159.625-.238.937-.635.937Z" class="Primary" opacity=".6"/>
  </g>
</svg>
