<svg xmlns="http://www.w3.org/2000/svg" width="24" height="24" fill="none" viewBox="0 0 24 24">
  <g class="24x24/Solid/notifications">
    <path fill="#ffffff" d="M4 18.075v-1.688h2.08v-6.059c0-1.262.418-2.387 1.252-3.376.834-.989 1.724-1.635 3.071-1.939V4.44c0-.4.155-.74.466-1.02.31-.28.687-.42 1.131-.42.444 0 .82.14 1.131.42.31.28.466.62.466 1.02v.573c1.35.304 2.242.95 3.074 1.936.832.988 1.248 2.114 1.248 3.38v6.058H20v1.688H4ZM12.006 21a2.06 2.06 0 0 1-1.427-.534c-.396-.355-.594-.766-.594-1.266h4.035c0 .501-.197.913-.591 1.268a2.054 2.054 0 0 1-1.423.532Z" class="Primary"/>
  </g>
</svg>
