<svg xmlns="http://www.w3.org/2000/svg" width="24" height="24" fill="none" viewBox="0 0 24 24">
  <g class="24x24/Solid/notification_new">
    <path fill="#B0B9C4" d="M14 20c0 .55-.196 1.02-.588 1.412A1.925 1.925 0 0 1 12 22c-.55 0-1.02-.196-1.412-.588A1.925 1.925 0 0 1 10 20h4ZM12 2c.417 0 .77.146 1.063.438.291.291.437.645.437 1.062v.318A5 5 0 0 0 18 11v6h1a1 1 0 1 1 0 2H5a1 1 0 1 1 0-2h1v-7c0-1.383.417-2.612 1.25-3.688.833-1.074 1.917-1.778 3.25-2.112v-.7c0-.417.146-.77.438-1.063A1.447 1.447 0 0 1 12 2Zm6 1.5a2.5 2.5 0 1 1 0 5 2.5 2.5 0 0 1 0-5Z" class="Primary"/>
  </g>
</svg>
