<svg xmlns="http://www.w3.org/2000/svg" width="24" height="24" fill="none" viewBox="0 0 24 24">
  <g class="24x24/Solid/object">
    <path fill="#B0B9C4" fill-rule="evenodd" d="M8 3H4.125C3.504 3 3 3.504 3 4.125V8h1.688V4.687H8V3Zm8 1.687h3.313V8H21V4.125C21 3.504 20.496 3 19.875 3H16v1.687ZM21 16h-1.688v3.312H16V21h3.875c.621 0 1.125-.504 1.125-1.125V16ZM8 21v-1.688H4.687V16H3v3.875C3 20.496 3.504 21 4.125 21H8Zm4-13.5c2.485 0 4.5 2.249 4.5 3.375 0 .701-.78 1.837-1.969 2.595l.08-1.864c.256-.289.389-.563.389-.731 0-.236-.263-.682-.76-1.082l-.063-.049v.006l-.001.07-.21 4.43.654 5.917a.75.75 0 0 1-1.476.252l-.014-.087-.674-6.082a.464.464 0 0 0-.452-.375.454.454 0 0 0-.447.376l-.011-.001-.676 6.083a.75.75 0 0 1-.74.667l-.088-.005a.75.75 0 0 1-.667-.74l.005-.088.657-5.917-.212-4.429-.002-.078a3.391 3.391 0 0 0-.064.05c-.496.4-.759.846-.759 1.082 0 .168.133.443.39.732l.081 1.887c-1.19-.74-1.971-1.864-1.971-2.619C7.5 9.662 9.515 7.5 12 7.5Zm0-.5a2 2 0 1 0 0-4 2 2 0 0 0 0 4Z" class="Primary" clip-rule="evenodd"/>
  </g>
</svg>
