<svg xmlns="http://www.w3.org/2000/svg" width="24" height="24" fill="none" viewBox="0 0 24 24">
  <g class="24x24/Solid/person">
    <path fill="#B0B9C4" d="M20 3a1 1 0 0 1 1 1v16a1 1 0 0 1-1 1H4a1 1 0 0 1-1-1V4a1 1 0 0 1 1-1h16ZM4.125 18.89c0 .544.44.985.984.985h2.954v-.984H5.108v-2.953h-.984v2.953Zm14.766 0h-2.953v.985h2.953c.543 0 .984-.44.984-.984v-2.953h-.984v2.953ZM12 8.063c-2.755 0-3.938 1.858-3.938 4.5a.562.562 0 1 0 1.126 0c0-1.36.34-2.373 1.124-2.92v8.546a.562.562 0 1 0 1.126 0V14.25a.562.562 0 1 1 1.124 0v3.938a.562.562 0 1 0 1.126 0V9.643c.784.546 1.124 1.56 1.124 2.92a.562.562 0 1 0 1.126 0c0-2.643-1.183-4.5-3.938-4.5ZM5.11 4.126a.984.984 0 0 0-.985.984v2.954h.984V5.108h2.954v-.984H5.108Zm10.828.984h2.953v2.954h.984V5.108a.984.984 0 0 0-.984-.984h-2.953v.984ZM12 5.25a1.125 1.125 0 1 0 0 2.25 1.125 1.125 0 0 0 0-2.25Z" class="Primary"/>
  </g>
</svg>
