<svg xmlns="http://www.w3.org/2000/svg" width="24" height="24" fill="none" viewBox="0 0 24 24">
  <g class="24x24/Solid/right_panel_close">
    <path fill="#A3B8C2" d="M7.952 14.5c0 .21.092.352.276.429.184.077.35.04.5-.108l2.19-2.191a.862.862 0 0 0 .269-.63.867.867 0 0 0-.272-.633L8.727 9.18c-.149-.149-.315-.186-.5-.11-.183.075-.275.218-.275.43v5Zm-2.644 6a1.74 1.74 0 0 1-1.277-.531 1.74 1.74 0 0 1-.531-1.277V5.308c0-.497.177-.923.531-1.277A1.74 1.74 0 0 1 5.308 3.5h13.384c.497 0 .923.177 1.277.531.354.354.531.78.531 1.277v13.384c0 .497-.177.923-.531 1.277a1.74 1.74 0 0 1-1.277.531H5.308ZM14.5 19V5H5.308a.294.294 0 0 0-.212.096.294.294 0 0 0-.096.212v13.384c0 .077.032.148.096.212a.294.294 0 0 0 .212.096H14.5Z" class="Primary"/>
  </g>
</svg>
