<svg xmlns="http://www.w3.org/2000/svg" width="24" height="24" fill="none" viewBox="0 0 24 24">
  <g class="24x24/Solid/security">
    <path fill="#B0B9C4" d="M12 3c.21 0 .422.039.639.116L18.877 5.3c.343.12.616.318.818.592.203.274.305.583.305.925v4.296c0 2.17-.674 4.17-2.023 5.994-1.348 1.826-3.14 3.098-5.378 3.818a.997.997 0 0 1-.291.062 4.039 4.039 0 0 1-.616 0 .997.997 0 0 1-.29-.062c-2.239-.72-4.031-1.992-5.38-3.818C4.674 15.282 4 13.284 4 11.113V6.817c0-.342.102-.651.305-.925.202-.274.475-.472.818-.592l6.238-2.184A1.93 1.93 0 0 1 12 3Zm4.747 6.335a1 1 0 0 0-1.412-.082l-3.827 3.408-1.843-1.641a1 1 0 0 0-1.33 1.494l2.508 2.233a1 1 0 0 0 1.33 0l4.492-4a1 1 0 0 0 .082-1.412Z" class="Primary"/>
  </g>
</svg>
