<svg xmlns="http://www.w3.org/2000/svg" width="24" height="24" fill="none" viewBox="0 0 24 24">
  <g class="24x24/Solid/security">
    <path fill="#ffffff" fill-rule="evenodd" d="M11.692 20.987a4.041 4.041 0 0 0 .616 0 .99.99 0 0 0 .29-.062c2.239-.72 4.032-1.992 5.38-3.818C19.326 15.282 20 13.284 20 11.114V6.817c0-.342-.101-.65-.304-.925a1.685 1.685 0 0 0-.82-.592l-6.238-2.184A1.891 1.891 0 0 0 12 3a1.9 1.9 0 0 0-.639.116L5.123 5.3c-.343.12-.616.318-.819.592A1.518 1.518 0 0 0 4 6.817v4.297c0 2.17.674 4.168 2.022 5.993 1.348 1.826 3.141 3.098 5.38 3.818a.99.99 0 0 0 .29.062Zm.481-6.24a1 1 0 0 1-1.33 0l-2.508-2.234a1 1 0 1 1 1.33-1.493l1.843 1.641 3.827-3.408a1 1 0 1 1 1.33 1.494l-4.492 4Z" class="Primary" clip-rule="evenodd"/>
  </g>
</svg>
