<svg xmlns="http://www.w3.org/2000/svg" width="24" height="24" fill="none" viewBox="0 0 24 24">
  <g class="24x24/Solid/shared">
    <path fill="#A3B1C2" d="M17.399 2.65c.763 0 1.413.267 1.948.802a2.65 2.65 0 0 1 .803 1.947c0 .763-.267 1.413-.802 1.948a2.651 2.651 0 0 1-1.948.803c-.365 0-.711-.062-1.037-.185a1.973 1.973 0 0 1-.836-.603L9.23 11.217c.04.146.07.278.09.395.02.116.029.245.029.386 0 .141-.01.27-.03.388-.02.118-.05.25-.09.397l3.587 2.195a5.99 5.99 0 0 0-.565 1.298L8.473 13.96c-.23.28-.51.482-.836.605a2.916 2.916 0 0 1-1.037.184 2.653 2.653 0 0 1-1.948-.801A2.65 2.65 0 0 1 3.85 12c0-.763.267-1.413.802-1.948A2.651 2.651 0 0 1 6.6 9.25c.36 0 .705.066 1.034.198.329.131.608.328.839.59l6.296-3.855a4.184 4.184 0 0 1-.089-.396 2.318 2.318 0 0 1-.03-.387c0-.764.267-1.413.801-1.947A2.652 2.652 0 0 1 17.4 2.65Z" class="Primary"/>
    <path fill="#4CAF50" d="m17.41 18.37-.6-.6a.57.57 0 0 0-.42-.17.57.57 0 0 0-.585.59.589.589 0 0 0 .175.42l.98.98a.625.625 0 0 0 .9 0l2.11-2.11a.565.565 0 0 0 .17-.415.564.564 0 0 0-.17-.415.57.57 0 0 0-.42-.17.57.57 0 0 0-.42.17l-1.72 1.72Zm.59 3.97a4.245 4.245 0 0 1-1.7-.34 4.374 4.374 0 0 1-1.374-.926 4.374 4.374 0 0 1-.925-1.374 4.245 4.245 0 0 1-.341-1.7c0-.607.114-1.173.34-1.7.228-.527.537-.985.926-1.374a4.37 4.37 0 0 1 1.374-.925 4.245 4.245 0 0 1 1.7-.341c.607 0 1.173.114 1.7.34.527.228.985.536 1.374.926.39.39.698.848.925 1.374.227.527.341 1.093.341 1.7s-.114 1.173-.34 1.7a4.37 4.37 0 0 1-.926 1.374 4.37 4.37 0 0 1-1.374.925 4.245 4.245 0 0 1-1.7.341Z" class="Secondary"/>
  </g>
</svg>
