<svg xmlns="http://www.w3.org/2000/svg" width="24" height="24" fill="none" viewBox="0 0 24 24">
  <g class="24x24/Solid/share">
    <path fill="#B0B9C4" d="M15.875 21.125A2.893 2.893 0 0 0 18 22c.833 0 1.542-.292 2.125-.875A2.893 2.893 0 0 0 21 19c0-.833-.292-1.542-.875-2.125A2.893 2.893 0 0 0 18 16c-.383 0-.75.07-1.1.212-.35.142-.667.338-.95.588L8.9 12.7c.033-.1.058-.212.075-.337a2.742 2.742 0 0 0 0-.726A1.838 1.838 0 0 0 8.9 11.3l7.05-4.1c.283.25.6.446.95.587A2.9 2.9 0 0 0 18 8c.833 0 1.542-.292 2.125-.875A2.893 2.893 0 0 0 21 5c0-.833-.292-1.542-.875-2.125A2.893 2.893 0 0 0 18 2c-.833 0-1.542.292-2.125.875A2.893 2.893 0 0 0 15 5c0 .117.008.237.025.362s.042.238.075.338L8.05 9.8c-.283-.25-.6-.446-.95-.588A2.904 2.904 0 0 0 6 9c-.833 0-1.542.292-2.125.875A2.893 2.893 0 0 0 3 12c0 .833.292 1.542.875 2.125A2.893 2.893 0 0 0 6 15c.383 0 .75-.07 1.1-.213.35-.141.667-.337.95-.587l7.05 4.1c-.033.1-.058.212-.075.337A2.737 2.737 0 0 0 15 19c0 .833.292 1.542.875 2.125Z" class="Primary"/>
  </g>
</svg>
