<svg xmlns="http://www.w3.org/2000/svg" width="24" height="24" fill="none" viewBox="0 0 24 24">
  <g class="24x24/Solid/singal1">
    <path fill="#ffffff" d="M4.95 17.05c-.95-.95-1.68-2.03-2.188-3.238A9.733 9.733 0 0 1 2 10c0-1.333.254-2.604.763-3.812A10.062 10.062 0 0 1 4.95 2.95l1.2 1.2a8.362 8.362 0 0 0-1.813 2.688A8.062 8.062 0 0 0 3.7 10c0 1.1.212 2.154.638 3.162A8.362 8.362 0 0 0 6.15 15.85l-1.2 1.2Zm2.3-2.3a6.549 6.549 0 0 1-1.45-2.175A6.749 6.749 0 0 1 5.3 10c0-.9.167-1.758.5-2.575A6.55 6.55 0 0 1 7.25 5.25l1.2 1.2a4.812 4.812 0 0 0-1.087 1.638A5.133 5.133 0 0 0 7 10c0 .667.12 1.304.362 1.912A4.812 4.812 0 0 0 8.45 13.55l-1.2 1.2ZM11 21v-8.7c-.45-.2-.813-.508-1.088-.925A2.445 2.445 0 0 1 9.5 10c0-.7.242-1.292.725-1.775C10.708 7.742 11.3 7.5 12 7.5s1.292.242 1.775.725c.483.483.725 1.075.725 1.775 0 .5-.137.958-.412 1.375A2.492 2.492 0 0 1 13 12.3V21h-2Zm5.75-6.25-1.2-1.2a4.813 4.813 0 0 0 1.087-1.638A5.132 5.132 0 0 0 17 10c0-.667-.12-1.304-.363-1.912A4.813 4.813 0 0 0 15.55 6.45l1.2-1.2a6.55 6.55 0 0 1 1.45 2.175c.333.817.5 1.675.5 2.575 0 .9-.167 1.758-.5 2.575a6.549 6.549 0 0 1-1.45 2.175Zm2.3 2.3-1.2-1.2a8.362 8.362 0 0 0 1.813-2.688A8.062 8.062 0 0 0 20.3 10c0-1.1-.213-2.154-.637-3.162A8.362 8.362 0 0 0 17.85 4.15l1.2-1.2c.95.95 1.68 2.03 2.188 3.238A9.733 9.733 0 0 1 22 10a9.733 9.733 0 0 1-.762 3.813 10.062 10.062 0 0 1-2.188 3.237Z" class="Primary"/>
  </g>
</svg>
