<svg xmlns="http://www.w3.org/2000/svg" width="24" height="24" fill="none" viewBox="0 0 24 24">
  <g class="24x24/Solid/sound">
    <path fill="#A5B7C0" fill-rule="evenodd" d="M17.25 12a9.73 9.73 0 0 1-.887 4.07l1.286.79A11.205 11.205 0 0 0 18.75 12a11.2 11.2 0 0 0-1.33-5.31l-1.242.86A9.708 9.708 0 0 1 17.25 12Zm-1.5 0a6.719 6.719 0 0 0-.967-3.484l-1.237.856c.448.773.704 1.67.704 2.628 0 .869-.21 1.688-.584 2.41l1.28.788A6.721 6.721 0 0 0 15.75 12Zm-5.719-5.025L6.563 9.75H4.5a.75.75 0 0 0-.75.75v3c0 .414.336.75.75.75h2.063l3.468 2.775a.75.75 0 0 0 1.219-.585V7.56a.75.75 0 0 0-1.219-.585Z" class="Primary" clip-rule="evenodd"/>
  </g>
</svg>
