<svg xmlns="http://www.w3.org/2000/svg" width="24" height="24" fill="none" viewBox="0 0 24 24">
  <g class="24x24/Solid/speed">
    <path fill="#B0B9C4" d="M5.757 13.581c.133 1.61.87 3.05 1.983 4.087l.034.032a.47.47 0 0 1-.006.698L6.39 19.604a.467.467 0 0 1-.632-.018A9.046 9.046 0 0 1 3 13.58h2.757Zm15.193 0a9.045 9.045 0 0 1-2.759 6.005.466.466 0 0 1-.631.018l-1.376-1.206a.469.469 0 0 1-.008-.698l.035-.032a6.292 6.292 0 0 0 1.983-4.087h2.756Zm-2.5-6.883s-3.48 5.14-4.718 6.782c-.375.499-.864.753-1.341.753-.361 0-.715-.145-1.01-.44-.746-.75-.534-1.747.311-2.36 1.657-1.213 6.758-4.735 6.758-4.735ZM7.163 9.04a6.277 6.277 0 0 0-1.407 3.483H3a9.033 9.033 0 0 1 2.23-5.424L7.162 9.04Zm11.978-1.516A9.033 9.033 0 0 1 21 12.523h-2.757a6.278 6.278 0 0 0-.776-2.548 543.786 543.786 0 0 0 1.674-2.45Zm-7.65-.757a6.237 6.237 0 0 0-3.58 1.506L5.978 6.335A8.988 8.988 0 0 1 11.49 4v2.767ZM12.545 4a8.96 8.96 0 0 1 5.099 1.96c-.408.282-1.346.931-2.412 1.673a6.217 6.217 0 0 0-2.687-.866V4Z" class="Primary"/>
  </g>
</svg>
