<svg xmlns="http://www.w3.org/2000/svg" width="24" height="24" fill="none" viewBox="0 0 24 24">
  <g class="24x24/Solid/st_alarm_off">
    <path fill="#ffffff" d="M19.95 17.25 7.85 5a8.555 8.555 0 0 1 1.988-.75A9.201 9.201 0 0 1 12 4c1.233 0 2.396.233 3.488.7a8.917 8.917 0 0 1 2.862 1.938 9.305 9.305 0 0 1 1.938 2.887c.474 1.1.712 2.292.712 3.575 0 .75-.092 1.47-.275 2.162a9.454 9.454 0 0 1-.775 1.988ZM21.25 8 17 3.75l1.4-1.4 4.25 4.25-1.4 1.4Zm-.75 15.4-3.15-3.15c-.75.55-1.58.98-2.488 1.288A8.845 8.845 0 0 1 12 22a8.778 8.778 0 0 1-3.487-.7 9.235 9.235 0 0 1-2.863-1.9 8.932 8.932 0 0 1-1.937-2.825A8.558 8.558 0 0 1 3 13.1a8.98 8.98 0 0 1 .463-2.912A8.442 8.442 0 0 1 4.8 7.7l-.85-.85-1.2 1.2-1.4-1.4 1.2-1.2L.7 3.6l1.4-1.4L21.9 22l-1.4 1.4Z" class="Primary"/>
  </g>
</svg>
