<svg xmlns="http://www.w3.org/2000/svg" width="24" height="24" fill="none" viewBox="0 0 24 24">
  <g class="24x24/Solid/st_alarm_off">
    <path fill="#fff" fill-rule="evenodd" d="M3.3 5.7c-.4-.4-.4-1 0-1.4.4-.4 1-.4 1.4-.1l16 16c.4.4.4 1 0 1.4-.2.2-.5.3-.7.3-.2 0-.5-.1-.7-.3l-3-3c-.324.13-.606.175-.873.218A5.121 5.121 0 0 0 15 18.9v.1c0 .6-.4 1-1 1H9c-.6 0-1-.4-1-1v-3c-1.8-1.2-3-3.2-3-5.5 0-.9.2-1.8.5-2.6L3.3 5.7ZM18 10.5C18 6.9 15.1 4 11.5 4c-1.2 0-2.4.3-3.3.9l8.9 8.9c.6-.9.9-2.1.9-3.3Zm3.4 3.5c.5-.3.9-.9.9-1.5 0-1-.8-1.8-1.8-1.8s-1.8.8-1.8 1.8c0 .5.2 1 .6 1.3-.3.5-.6.9-.9 1.3l1.4 1.4c.7-.7 1.2-1.5 1.6-2.5Z" class="Primary" clip-rule="evenodd"/>
  </g>
</svg>
