<svg xmlns="http://www.w3.org/2000/svg" width="24" height="24" fill="none" viewBox="0 0 24 24">
  <g class="24x24/Solid/st_alarm_on">
    <path fill="#ffffff" d="m10.95 16.55 5.65-5.65-1.425-1.425L10.95 13.7l-2.125-2.125L7.4 13l3.55 3.55ZM12 22a8.73 8.73 0 0 1-3.513-.712 9.149 9.149 0 0 1-2.85-1.925 9.15 9.15 0 0 1-1.925-2.85A8.707 8.707 0 0 1 3 13c0-1.25.237-2.42.712-3.513a9.148 9.148 0 0 1 1.925-2.85 9.148 9.148 0 0 1 2.85-1.925A8.707 8.707 0 0 1 12 4c1.25 0 2.42.237 3.512.712a9.15 9.15 0 0 1 2.85 1.925 9.149 9.149 0 0 1 1.926 2.85A8.707 8.707 0 0 1 21 13c0 1.25-.238 2.42-.712 3.512a9.15 9.15 0 0 1-1.925 2.85 9.15 9.15 0 0 1-2.85 1.926A8.707 8.707 0 0 1 12 22ZM5.6 2.35 7 3.75 2.75 8l-1.4-1.4L5.6 2.35Zm12.8 0 4.25 4.25-1.4 1.4L17 3.75l1.4-1.4Z" class="Primary"/>
  </g>
</svg>
