<svg xmlns="http://www.w3.org/2000/svg" width="24" height="24" fill="none" viewBox="0 0 24 24">
  <g class="24x24/Solid/st_bell_off">
    <path fill="#ffffff" d="M4 19v-2h2v-7c0-.55.07-1.092.213-1.625A6.1 6.1 0 0 1 6.85 6.85L10 10H7.2L1.4 4.2l1.4-1.4 18.4 18.4-1.4 1.4-3.65-3.6H4Zm14-3.85-9.8-9.8a6.59 6.59 0 0 1 1.075-.7c.383-.2.792-.35 1.225-.45v-.7c0-.417.146-.77.438-1.063A1.447 1.447 0 0 1 12 2c.417 0 .77.146 1.063.438.291.291.437.645.437 1.062v.7c1.333.333 2.417 1.037 3.25 2.112C17.583 7.388 18 8.617 18 10v5.15ZM12 22c-.55 0-1.02-.196-1.412-.587A1.926 1.926 0 0 1 10 20h4c0 .55-.196 1.02-.588 1.413A1.926 1.926 0 0 1 12 22Z" class="Primary"/>
  </g>
</svg>
