<svg xmlns="http://www.w3.org/2000/svg" width="24" height="24" fill="none" viewBox="0 0 24 24">
  <g class="24x24/Solid/st_door_opened">
    <path fill="#ffffff" d="M3 21v-2h2V5c0-.55.196-1.02.588-1.413A1.926 1.926 0 0 1 7 3h10c.55 0 1.02.196 1.413.587.39.393.587.863.587 1.413v14h2v2H3Zm12-2h2V5h-4.5V3.9a2.988 2.988 0 0 1 1.8 1.025c.467.55.7 1.192.7 1.925V19Zm-4-6c.283 0 .52-.096.713-.287A.968.968 0 0 0 12 12a.968.968 0 0 0-.287-.713A.968.968 0 0 0 11 11a.968.968 0 0 0-.713.287A.968.968 0 0 0 10 12c0 .283.096.52.287.713.192.191.43.287.713.287Z" class="Primary"/>
  </g>
</svg>
