<svg xmlns="http://www.w3.org/2000/svg" width="24" height="24" fill="none" viewBox="0 0 24 24">
  <g class="24x24/Solid/st_escalator__stop">
    <path fill="#ffffff" d="M19 3c.55 0 1.02.196 1.412.588C20.804 3.98 21 4.45 21 5v14c0 .55-.196 1.02-.588 1.412A1.925 1.925 0 0 1 19 21H5c-.55 0-1.02-.196-1.412-.588A1.925 1.925 0 0 1 3 19V5c0-.55.196-1.02.588-1.412A1.925 1.925 0 0 1 5 3h14ZM9.7 15H8c-.417 0-.77.146-1.063.438A1.447 1.447 0 0 0 6.5 16.5c0 .417.146.77.438 1.063.291.291.645.437 1.062.437h3.3l5-9H18c.417 0 .77-.146 1.063-.438.291-.291.437-.645.437-1.062 0-.417-.146-.77-.438-1.063A1.447 1.447 0 0 0 18 6h-3.3l-5 9ZM7.5 7.5 6 6 5 7l1.5 1.5L5 10l1 1 1.5-1.482L9 11l1-1-1.482-1.5L10 7 9 6 7.5 7.5Z" class="Primary"/>
  </g>
</svg>
