<svg xmlns="http://www.w3.org/2000/svg" width="24" height="24" fill="none" viewBox="0 0 24 24">
  <g class="24x24/Solid/st_elevator_up">
    <path fill="#ffffff" d="M7 18h3v-4h1v-2.5c0-.55-.196-1.02-.588-1.412A1.926 1.926 0 0 0 9 9.5H8c-.55 0-1.02.196-1.412.588A1.926 1.926 0 0 0 6 11.5V14h1v4Zm1.5-9.5c.35 0 .646-.12.887-.363.242-.241.363-.537.363-.887s-.12-.646-.363-.888A1.207 1.207 0 0 0 8.5 6c-.35 0-.646.12-.888.362a1.207 1.207 0 0 0-.362.888c0 .35.12.646.362.887.242.242.538.363.888.363ZM13 11h5l-2.5-4-2.5 4ZM5 21c-.55 0-1.02-.196-1.413-.587A1.926 1.926 0 0 1 3 19V5c0-.55.196-1.02.587-1.413A1.926 1.926 0 0 1 5 3h14c.55 0 1.02.196 1.413.587.39.393.587.863.587 1.413v14c0 .55-.196 1.02-.587 1.413A1.926 1.926 0 0 1 19 21H5Z" class="Primary"/>
  </g>
</svg>
