<svg xmlns="http://www.w3.org/2000/svg" width="24" height="24" fill="none" viewBox="0 0 24 24">
  <g class="24x24/Solid/st_fire">
    <path fill="#ffffff" d="M4 14c0-1.75.417-3.308 1.25-4.675S7 6.808 8 5.875c1-.933 1.917-1.646 2.75-2.138L12 3v3.3c0 .617.208 1.104.625 1.463.417.358.883.537 1.4.537.283 0 .554-.058.813-.175.258-.117.495-.308.712-.575L16 7c1.2.7 2.167 1.67 2.9 2.912.733 1.242 1.1 2.605 1.1 4.088 0 1.467-.358 2.804-1.075 4.012a8.086 8.086 0 0 1-2.825 2.863c.283-.4.504-.837.662-1.313.159-.475.238-.979.238-1.512a4.8 4.8 0 0 0-.375-1.887 4.957 4.957 0 0 0-1.075-1.588L12 11.1l-3.525 3.475a5.093 5.093 0 0 0-1.1 1.6A4.709 4.709 0 0 0 7 18.05c0 .533.08 1.037.237 1.512.159.476.38.913.663 1.313a8.086 8.086 0 0 1-2.825-2.863C4.358 16.805 4 15.467 4 14Zm8-.1 2.125 2.075c.283.283.5.6.65.95.15.35.225.725.225 1.125 0 .817-.292 1.512-.875 2.087-.583.575-1.292.863-2.125.863s-1.542-.288-2.125-.863A2.823 2.823 0 0 1 9 18.05c0-.383.075-.754.225-1.113a2.98 2.98 0 0 1 .65-.962L12 13.9Z" class="Primary"/>
  </g>
</svg>
