<svg xmlns="http://www.w3.org/2000/svg" width="24" height="24" fill="none" viewBox="0 0 24 24">
  <g class="24x24/Solid/st_fullscreen_enter">
    <path fill="#ffffff" d="M3 21v-6h2v2.6l3.1-3.1 1.4 1.4L6.4 19H9v2H3Zm12 0v-2h2.6l-3.1-3.1 1.4-1.4 3.1 3.1V15h2v6h-6ZM8.1 9.5 5 6.4V9H3V3h6v2H6.4l3.1 3.1-1.4 1.4Zm7.8 0-1.4-1.4L17.6 5H15V3h6v6h-2V6.4l-3.1 3.1ZM12 14c-.55 0-1.02-.196-1.412-.588A1.926 1.926 0 0 1 10 12c0-.55.196-1.02.588-1.412A1.926 1.926 0 0 1 12 10c.55 0 1.02.196 1.412.588.392.391.588.862.588 1.412 0 .55-.196 1.02-.588 1.412A1.926 1.926 0 0 1 12 14Z" class="Primary"/>
  </g>
</svg>
