<svg xmlns="http://www.w3.org/2000/svg" width="24" height="24" fill="none" viewBox="0 0 24 24">
  <g class="24x24/Solid/st_hvac_fan_start">
    <path fill="#ffffff" d="M10.6 22c-.85 0-1.496-.254-1.938-.762A2.575 2.575 0 0 1 8 19.5c0-.433.096-.854.287-1.262.192-.409.488-.746.888-1.013.367-.233.662-.533.887-.9a3.54 3.54 0 0 0 .463-1.175l-.3-.15a1.54 1.54 0 0 1-.275-.175l-2.3.825c-.283.1-.558.183-.825.25-.267.067-.542.1-.825.1-1.05 0-1.98-.458-2.788-1.375C2.404 13.708 2 12.367 2 10.6c0-.85.254-1.496.763-1.938C3.27 8.221 3.841 8 4.474 8c.433 0 .858.096 1.275.287.417.192.758.488 1.025.888.233.367.533.662.9.887.367.226.758.38 1.175.463l.15-.3c.05-.1.108-.192.175-.275l-.825-2.3a9.153 9.153 0 0 1-.25-.825 3.287 3.287 0 0 1-.1-.8c0-1.067.458-2.004 1.375-2.813C10.292 2.404 11.633 2 13.4 2c.85 0 1.496.254 1.938.763.441.508.662 1.079.662 1.712 0 .433-.096.858-.287 1.275a2.444 2.444 0 0 1-.888 1.025 2.774 2.774 0 0 0-.887.9 3.54 3.54 0 0 0-.463 1.175l.3.15c.1.05.192.108.275.175l2.3-.85c.283-.1.554-.18.813-.237A3.68 3.68 0 0 1 17.975 8c1.35 0 2.358.558 3.025 1.675.667 1.117 1 2.358 1 3.725 0 .85-.267 1.496-.8 1.938-.533.441-1.125.662-1.775.662-.417 0-.82-.096-1.213-.287a2.507 2.507 0 0 1-.987-.888 2.774 2.774 0 0 0-.9-.887 3.568 3.568 0 0 0-1.175-.463l-.15.3c-.05.1-.108.192-.175.275l.825 2.3c.1.267.183.52.25.762s.1.496.1.763c.017 1.083-.433 2.042-1.35 2.875-.917.833-2.267 1.25-4.05 1.25Zm1.4-8.5c.417 0 .77-.146 1.063-.438.291-.291.437-.645.437-1.062 0-.417-.146-.77-.438-1.063A1.446 1.446 0 0 0 12 10.5c-.417 0-.77.146-1.063.438A1.446 1.446 0 0 0 10.5 12c0 .417.146.77.438 1.063.291.291.645.437 1.062.437Z" class="Primary"/>
  </g>
</svg>
