<svg xmlns="http://www.w3.org/2000/svg" width="24" height="24" fill="none" viewBox="0 0 24 24">
  <g class="24x24/Solid/st_hvac_temp_down">
    <path fill="#ffffff" d="m11 17.85-2.575 2.525a.933.933 0 0 1-.688.275.894.894 0 0 1-.687-.3.894.894 0 0 1-.3-.688c0-.274.1-.512.3-.712L11 15v-2H9l-3.975 3.975a.933.933 0 0 1-.688.275.973.973 0 0 1-.712-.3.933.933 0 0 1-.275-.688c0-.274.092-.504.275-.687L6.15 13H2.975a.927.927 0 0 1-.7-.287A.99.99 0 0 1 2 12a.97.97 0 0 1 .288-.713A.967.967 0 0 1 3 11h3.15L3.625 8.45a.933.933 0 0 1-.275-.687c0-.276.1-.513.3-.713a.933.933 0 0 1 .688-.275c.274 0 .512.092.712.275L9 11h2V9L7.025 5.05a.933.933 0 0 1-.275-.688c0-.274.1-.512.3-.712a.933.933 0 0 1 .688-.275c.274 0 .504.092.687.275L11 6.15V3a.97.97 0 0 1 .287-.712A.968.968 0 0 1 12 2a.97.97 0 0 1 .713.288A.968.968 0 0 1 13 3v3.15l2.55-2.5a.933.933 0 0 1 .688-.275c.274 0 .512.092.712.275.183.2.275.438.275.712a.933.933 0 0 1-.275.688L13 9v2h2l3.95-3.95a.933.933 0 0 1 .688-.275c.274 0 .512.1.712.3a.933.933 0 0 1 .275.688.933.933 0 0 1-.275.687L17.85 11H21a.97.97 0 0 1 .712.287c.192.192.288.43.288.713s-.096.52-.288.713A.968.968 0 0 1 21 13h-3.15l2.5 2.575a.933.933 0 0 1 .275.688.933.933 0 0 1-.275.687c-.2.2-.438.3-.713.3a.894.894 0 0 1-.687-.3L15 13h-2v2l3.95 3.975a.933.933 0 0 1 .275.688c0 .274-.1.512-.3.712a.933.933 0 0 1-.688.275.933.933 0 0 1-.687-.275L13 17.85v3.175a.927.927 0 0 1-.287.7A.991.991 0 0 1 12 22a.968.968 0 0 1-.713-.288A.968.968 0 0 1 11 21v-3.15Z" class="Primary"/>
  </g>
</svg>
