<svg xmlns="http://www.w3.org/2000/svg" width="24" height="24" fill="none" viewBox="0 0 24 24">
  <g class="24x24/Solid/st_hvac_fan_stop">
    <path fill="#ffffff" d="M22 13.4c0 .85-.267 1.496-.8 1.938-.533.441-1.125.662-1.775.662-.1 0-.2-.004-.3-.012-.1-.009-.2-.03-.3-.063L8.1 5.2c.217-.9.77-1.658 1.662-2.275C10.654 2.308 11.867 2 13.4 2c.85 0 1.496.254 1.938.763.441.508.662 1.079.662 1.712 0 .433-.096.858-.287 1.275a2.444 2.444 0 0 1-.888 1.025 2.774 2.774 0 0 0-.887.9 3.54 3.54 0 0 0-.463 1.175l.3.15c.1.05.192.108.275.175l2.3-.85c.283-.1.554-.18.813-.237A3.68 3.68 0 0 1 17.975 8c1.35 0 2.358.558 3.025 1.675.667 1.117 1 2.358 1 3.725Zm-1.525 9.9-4.55-4.575c-.217.9-.77 1.67-1.663 2.313-.891.641-2.112.962-3.662.962-.85 0-1.496-.254-1.938-.762A2.575 2.575 0 0 1 8 19.5c0-.433.096-.854.287-1.262.192-.409.488-.746.888-1.013.367-.233.662-.533.887-.9a3.54 3.54 0 0 0 .463-1.175l-.3-.15a1.54 1.54 0 0 1-.275-.175l-2.3.825c-.283.1-.558.183-.825.25-.267.067-.542.1-.825.1-1.05 0-1.98-.458-2.788-1.375C2.404 13.708 2 12.367 2 10.6c0-.85.254-1.496.762-1.938C3.271 8.221 3.842 8 4.475 8a3.53 3.53 0 0 1 .825.1L.675 3.5 2.1 2.075l19.8 19.8-1.425 1.425Z" class="Primary"/>
  </g>
</svg>
