<svg xmlns="http://www.w3.org/2000/svg" width="24" height="24" fill="none" viewBox="0 0 24 24">
  <g class="24x24/Solid/st_heater">
    <path fill="#ffffff" d="M8.72 16.66c.525 1.826.542 3.04.395 3.927-.071.432-.18.767-.258 1.013l-.002.007c-.09.28-.105.352-.105.393h-1.5c0-.305.096-.602.163-.81l.014-.04c.077-.242.156-.489.209-.808.103-.626.119-1.612-.357-3.269a14.096 14.096 0 0 1-.122-.455c.474-.16.955-.298 1.443-.412.037.147.076.299.12.454Zm3.795-.836c.056.264.121.543.205.836.525 1.826.542 3.04.395 3.927-.071.432-.18.767-.258 1.013l-.002.007c-.09.28-.105.352-.105.393h-1.5c0-.305.096-.602.163-.81l.014-.04c.077-.242.156-.489.209-.808.103-.626.119-1.612-.357-3.269-.124-.432-.22-.84-.29-1.223a15.024 15.024 0 0 1 1.526-.026Zm2.529.304c.56.116 1.11.264 1.652.442l.024.09c.525 1.826.542 3.04.395 3.927-.071.432-.18.767-.258 1.013l-.002.007c-.09.28-.105.352-.105.393h-1.5c0-.305.096-.602.163-.81l.014-.04c.077-.242.156-.489.209-.808.103-.626.119-1.612-.357-3.269-.094-.33-.172-.644-.235-.945ZM14 11h1.25c0 .067-.028.194-.118.554-.08.316-.182.735-.25 1.249-.114.853-.13 1.942.162 3.325a14.927 14.927 0 0 0-2.529-.304c-.256-1.215-.238-2.133-.146-2.823a9.27 9.27 0 0 1 .218-1.083l.018-.072c.065-.255.145-.573.145-.846H14l-2-3-2 3h1.25c0 .067-.028.194-.118.554-.08.316-.182.735-.25 1.249-.106.795-.127 1.795.106 3.047a14.95 14.95 0 0 0-2.388.356c-.347-1.407-.332-2.445-.231-3.205a9.27 9.27 0 0 1 .218-1.083l.018-.072c.065-.255.145-.573.145-.846H10L8 8l-2 3h1.25c0 .067-.028.194-.118.554-.08.316-.182.735-.25 1.249-.127.952-.132 2.196.275 3.815-.275.094-.548.195-.818.304-.567.229-1.226-.05-1.411-.633l-2.88-9.064a.973.973 0 0 1 .52-1.188A22.96 22.96 0 0 1 12 4c3.31 0 6.486.718 9.43 2.036.453.202.67.716.52 1.188l-2.882 9.066c-.185.582-.844.861-1.411.633a15.546 15.546 0 0 0-.962-.353c-.445-1.593-.437-2.745-.327-3.569a9.27 9.27 0 0 1 .218-1.083l.018-.072c.065-.255.145-.573.145-.846H18l-2-3-2 3Z" class="Primary"/>
  </g>
</svg>
