<svg xmlns="http://www.w3.org/2000/svg" width="24" height="24" fill="none" viewBox="0 0 24 24">
  <g class="24x24/Solid/st_heateroff">
    <path fill="#ffffff" d="M8.36 16.364c-.093.44-.112 1.095.323 2.06.552 1.224.595 2.102.417 2.788-.084.326-.211.575-.29.73a2.192 2.192 0 0 0-.07.148.345.345 0 0 0 .01-.09h-1.5c0-.19.05-.348.093-.456.04-.105.093-.209.128-.277a2.14 2.14 0 0 0 .178-.433c.072-.277.115-.8-.333-1.792-.407-.902-.528-1.663-.506-2.3a15.32 15.32 0 0 1 1.575-.485c-.01.035-.018.07-.026.107Zm4.166-.539a3.389 3.389 0 0 0-.167.54c-.092.439-.111 1.094.324 2.06.552 1.223.595 2.101.417 2.787-.084.326-.211.575-.29.73a2.183 2.183 0 0 0-.07.148.349.349 0 0 0 .01-.09h-1.5c0-.19.05-.348.093-.456.04-.105.093-.209.127-.277a2.09 2.09 0 0 0 .18-.433c.071-.277.114-.8-.334-1.792-.564-1.25-.584-2.229-.426-2.985.015-.071.033-.14.05-.204a15.018 15.018 0 0 1 1.586-.028Zm2.358.27c.493.097.98.219 1.459.364-.075.437-.065 1.067.34 1.966.552 1.223.596 2.101.417 2.787-.084.326-.211.575-.29.73a2.183 2.183 0 0 0-.07.148.349.349 0 0 0 .01-.09h-1.5c0-.19.05-.348.093-.456.04-.105.093-.209.127-.277a2.09 2.09 0 0 0 .18-.433c.071-.277.114-.8-.334-1.792-.554-1.23-.582-2.196-.432-2.947ZM12 4c3.31 0 6.486.718 9.43 2.036.453.202.67.716.52 1.188l-2.882 9.066c-.185.582-.844.861-1.411.633-.432-.174-.87-.33-1.315-.464l.016-.095a3.73 3.73 0 0 1 .198-.62c.035-.09.08-.203.115-.307.032-.1.078-.258.078-.437H18l-2-3-2 3h1.235a6.689 6.689 0 0 1-.074.194c-.08.204-.194.498-.27.863l-.007.038a14.92 14.92 0 0 0-2.358-.27l.031-.082c.035-.089.08-.202.115-.306.032-.1.078-.258.078-.437H14l-2-3-2 3h1.235a6.689 6.689 0 0 1-.074.194 5.74 5.74 0 0 0-.22.658c-.87.062-1.724.198-2.556.405.047-.187.108-.35.172-.514.035-.089.08-.202.115-.306.032-.1.078-.258.078-.437H10l-2-3-2 3h1.235a6.663 6.663 0 0 1-.074.194c-.08.204-.194.498-.27.863-.045.21-.072.438-.08.684-.159.058-.316.118-.472.18-.567.23-1.226-.05-1.411-.632l-2.88-9.064a.973.973 0 0 1 .52-1.188A22.96 22.96 0 0 1 12 4Z" class="Primary"/>
    <g class="Secondary" filter="url(#a)">
      <circle cx="12" cy="8.5" r="3.5" fill="#BABABA"/>
    </g>
  </g>
  <defs>
    <filter id="a" width="7" height="8" x="8.5" y="5" class="a" color-interpolation-filters="sRGB" filterUnits="userSpaceOnUse">
      <feFlood flood-opacity="0" result="BackgroundImageFix"/>
      <feBlend in="SourceGraphic" in2="BackgroundImageFix" result="shape"/>
      <feColorMatrix in="SourceAlpha" result="hardAlpha" values="0 0 0 0 0 0 0 0 0 0 0 0 0 0 0 0 0 0 127 0"/>
      <feOffset dy="2"/>
      <feGaussianBlur stdDeviation=".5"/>
      <feComposite in2="hardAlpha" k2="-1" k3="1" operator="arithmetic"/>
      <feColorMatrix values="0 0 0 0 0 0 0 0 0 0 0 0 0 0 0 0 0 0 0.4 0"/>
      <feBlend in2="shape" result="effect1_innerShadow_19044_84"/>
    </filter>
  </defs>
</svg>
