<svg xmlns="http://www.w3.org/2000/svg" width="24" height="24" fill="none" viewBox="0 0 24 24">
  <g class="24x24/Solid/st_hvac_temp_down">
    <path fill="#fff" d="m20.3 15.6-1.4-.8.4-.1c.5-.1.9-.7.7-1.2-.1-.5-.7-.8-1.2-.7l-2.3.6-.5-.2v-2.3l.5-.3 2.3.6h.3c.4 0 .8-.3 1-.7.1-.5-.2-1.1-.7-1.2l-.4-.1 1.4-.8c.5-.3.6-.9.4-1.4-.3-.5-.9-.6-1.4-.4l-1.4.8V7c.1-.5-.2-1.1-.7-1.2-.5-.1-1.1.2-1.2.7l-.6 2.3-.5.3-2-1.2v-.5l1.7-1.7c.4-.4.4-1 0-1.4-.4-.4-1-.4-1.4 0l-.3.3V3c0-.6-.4-1-1-1s-1 .4-1 1v1.6l-.3-.3c-.4-.4-1-.4-1.4 0-.4.4-.4 1 0 1.4L11 7.4v.5L9 9.1l-.5-.3-.6-2.3c-.1-.5-.7-.8-1.2-.7-.6.1-.9.7-.7 1.2l.1.4-1.4-.8c-.5-.2-1.1-.1-1.4.4-.2.5-.1 1.1.4 1.4l1.4.8-.4.1c-.6.1-.9.7-.7 1.2.1.4.5.7 1 .7h.3l2.3-.6.4.2v2.3l-.5.3-2.3-.6c-.5-.1-1.1.2-1.2.7-.1.5.2 1.1.7 1.2l.4.1-1.4.8c-.5.3-.6.9-.4 1.4.2.3.5.5.9.5.2 0 .3 0 .5-.1l1.4-.8-.1.4c-.1.5.2 1.1.7 1.2H7c.4 0 .8-.3 1-.7l.6-2.3.4-.3 2 1.2v.5l-1.7 1.7c-.4.4-.4 1 0 1.4.4.4 1 .4 1.4 0l.3-.3V21c0 .6.4 1 1 1s1-.4 1-1v-1.6l.3.3c.2.2.5.3.7.3.2 0 .5-.1.7-.3.4-.4.4-1 0-1.4L13 16.6V16l2-1.2.5.3.6 2.3c.1.4.5.7 1 .7h.3c.5-.1.9-.7.7-1.2l-.1-.4 1.4.8c.2.1.3.1.5.1.3 0 .7-.2.9-.5.1-.4 0-1-.5-1.3ZM14 13.1l-2 1.2-2-1.2v-2.3l2-1.2 2 1.2v2.3Z" class="Primary"/>
  </g>
</svg>
