<svg xmlns="http://www.w3.org/2000/svg" width="24" height="24" fill="none" viewBox="0 0 24 24">
  <g class="24x24/Solid/st_lights2_off">
    <path fill="#ffffff" d="M3.3 4.3c.4-.4 1-.4 1.4 0l16 16c.4.4.4 1 0 1.4-.2.2-.5.3-.7.3-.2 0-.5-.1-.7-.3L12 14.4V17c0 .6-.4 1-1 1h-1v-5.6l-1-1V18c-3.3 0-6-2.7-6-6 0-1.8.8-3.4 2.1-4.5L3.3 5.7c-.4-.4-.4-1 0-1.4ZM21 15c.6 0 1 .4 1 1s-.4 1-1 1h-.8l-2-2H21Zm0-4c.6 0 1 .4 1 1s-.4 1-1 1h-4.8l-1.8-1.8c.2-.1.4-.2.6-.2h6Zm0-4c.6 0 1 .4 1 1s-.4 1-1 1h-6c-.6 0-1-.4-1-1s.4-1 1-1h6ZM11 6c.6 0 1 .4 1 1v1.8l-2-2V6h1Z" class="Primary"/>
  </g>
</svg>
