<svg xmlns="http://www.w3.org/2000/svg" width="24" height="24" fill="none" viewBox="0 0 24 24">
  <g class="24x24/Solid/st_lights_off">
    <path fill="#ffffff" d="M12 22c-.55 0-1.02-.196-1.412-.587A1.926 1.926 0 0 1 10 20h4c0 .55-.196 1.02-.588 1.413A1.926 1.926 0 0 1 12 22Zm5.45-7.4L6.85 4.05a7.902 7.902 0 0 1 2.338-1.5A7.202 7.202 0 0 1 12 2c2.083 0 3.854.73 5.313 2.188C18.77 5.646 19.5 7.417 19.5 9.5c0 1.183-.208 2.196-.625 3.037-.417.842-.892 1.53-1.425 2.063Zm3.75 6.6-1.425 1.425L13.15 16h-4.9a7.662 7.662 0 0 1-2.737-2.75A7.278 7.278 0 0 1 4.5 9.5a7.249 7.249 0 0 1 .25-1.9L1.4 4.2l1.4-1.4 18.4 18.4ZM16.15 17v2H8v-2h8.15Z" class="Primary"/>
  </g>
</svg>
