<svg xmlns="http://www.w3.org/2000/svg" width="24" height="24" fill="none" viewBox="0 0 24 24">
  <g class="24x24/Solid/st_lights_on">
    <path fill="#fff" fill-rule="evenodd" d="M13 4c0 .6-.4 1-1 1s-1-.4-1-1V1c0-.6.4-1 1-1s1 .4 1 1v3Zm-1 2c-2.8 0-5 2.3-5 5.1 0 1.187.728 2.346 1.399 3.412C8.97 15.422 9.5 16.264 9.5 17h5c0-.678.511-1.5 1.072-2.4C16.25 13.51 17 12.305 17 11.1 17 8.3 14.8 6 12 6ZM9.5 21l2.5 1 2.5-1v-3h-5v3ZM19 10h3c.6 0 1 .4 1 1s-.4 1-1 1h-3c-.6 0-1-.4-1-1s.4-1 1-1ZM6 11c0-.6-.4-1-1-1H2c-.6 0-1 .4-1 1s.4 1 1 1h3c.6 0 1-.4 1-1Zm10.9-3.9c.3 0 .5-.1.7-.3l2.1-2.1c.4-.4.4-1 0-1.4-.4-.4-1-.4-1.4 0l-2.1 2.1c-.4.4-.4 1 0 1.4.2.2.5.3.7.3ZM4.2 17.3l2.1-2.1c.4-.3 1-.4 1.4 0 .4.4.4 1 0 1.4l-2.1 2.1c-.2.2-.5.3-.7.3-.2 0-.5-.1-.7-.3-.4-.4-.4-1 0-1.4Zm13.6-1.9c-.4-.4-1-.4-1.4 0-.4.4-.4 1 0 1.4l2.2 2.2c.2.2.5.3.7.3.2 0 .5-.1.7-.3.4-.4.4-1 0-1.4l-2.2-2.2ZM6.9 6.9c-.2 0-.5-.1-.7-.3L4 4.4c-.4-.4-.4-1 0-1.4.4-.4 1-.4 1.4 0l2.2 2.2c.4.4.4 1 0 1.4-.2.2-.5.3-.7.3Z" class="Primary" clip-rule="evenodd"/>
  </g>
</svg>
