<svg xmlns="http://www.w3.org/2000/svg" width="24" height="24" fill="none" viewBox="0 0 24 24">
  <g class="24x24/Solid/st_message">
    <path fill="#ffffff" d="M22.4 5c1.1 0 1.8.8 1.5 1.8l-2.6 9.3c-.3 1.1-1.4 1.9-2.5 1.9H6.1c-1.1 0-1.8-.8-1.5-1.9l2.6-9.3C7.5 5.8 8.7 5 9.8 5h12.6ZM6.8 16h12c.2 0 .6-.3.6-.4l1.7-6.1-6.9 3.2c-.1.1-.3.1-.4.1-.2 0-.4-.1-.6-.2L8.8 9l-2 7Zm-4.5-2.7c.4-.4 1-.4 1.4 0 .2.2.3.4.3.7 0 .3-.1.5-.3.7-.2.2-.4.3-.7.3-.3 0-.5-.1-.7-.3-.2-.2-.3-.4-.3-.7 0-.3.1-.5.3-.7ZM4 9c.6 0 1 .4 1 1s-.4 1-1 1H2c-.6 0-1-.4-1-1s.4-1 1-1h2Zm5.8-2c-.1 0-.2 0-.3.1l4.4 3.6L21.8 7h-12ZM5 5c.6 0 1 .4 1 1s-.4 1-1 1H1c-.6 0-1-.4-1-1s.4-1 1-1h4Z" class="Primary"/>
  </g>
</svg>
