<svg xmlns="http://www.w3.org/2000/svg" width="24" height="24" fill="none" viewBox="0 0 24 24">
  <g class="24x24/Solid/st_microphone_off">
    <path fill="#ffffff" d="M17.75 14.95 16.3 13.5c.233-.383.408-.783.525-1.2.117-.417.175-.85.175-1.3h2c0 .733-.108 1.43-.325 2.088a7.331 7.331 0 0 1-.925 1.862Zm-2.95-3L9 6.15V5c0-.833.292-1.542.875-2.125A2.893 2.893 0 0 1 12 2c.833 0 1.542.292 2.125.875S15 4.167 15 5v6c0 .183-.02.35-.063.5-.041.15-.087.3-.137.45ZM11 21v-3.1c-1.733-.233-3.167-1.004-4.3-2.312C5.567 14.279 5 12.75 5 11h2c0 1.383.488 2.563 1.463 3.537C9.438 15.512 10.617 16 12 16a4.919 4.919 0 0 0 3-1l1.425 1.425a7.468 7.468 0 0 1-1.588.962A6.463 6.463 0 0 1 13 17.9V21h-2Zm8.8 1.6L1.4 4.2l1.4-1.4 18.4 18.4-1.4 1.4Z" class="Primary"/>
  </g>
</svg>
