<svg xmlns="http://www.w3.org/2000/svg" width="24" height="24" fill="none" viewBox="0 0 24 24">
  <g class="24x24/Solid/st_puzzle">
    <path fill="#ffffff" d="M8.8 21H5c-.55 0-1.02-.196-1.413-.587A1.926 1.926 0 0 1 3 19v-3.8c.8 0 1.5-.254 2.1-.762.6-.509.9-1.155.9-1.938 0-.783-.3-1.43-.9-1.938A3.15 3.15 0 0 0 3 9.8V6c0-.55.196-1.02.587-1.412A1.926 1.926 0 0 1 5 4h4c0-.7.242-1.292.725-1.775.483-.483 1.075-.725 1.775-.725s1.292.242 1.775.725C13.758 2.708 14 3.3 14 4h4c.55 0 1.02.196 1.413.588.391.391.587.862.587 1.412v4c.7 0 1.292.242 1.775.725.483.483.725 1.075.725 1.775s-.242 1.292-.725 1.775C21.292 14.758 20.7 15 20 15v4c0 .55-.196 1.02-.587 1.413A1.926 1.926 0 0 1 18 21h-3.8c0-.833-.262-1.542-.787-2.125C12.886 18.292 12.25 18 11.5 18s-1.387.292-1.912.875C9.063 19.458 8.8 20.167 8.8 21Z" class="Primary"/>
  </g>
</svg>
