<svg xmlns="http://www.w3.org/2000/svg" width="24" height="24" fill="none" viewBox="0 0 24 24">
  <g class="24x24/Solid/st_press">
    <path fill="#ffffff" d="M10.475 22a2.944 2.944 0 0 1-2.35-1.15l-5.45-6.925.475-.5c.333-.35.733-.558 1.2-.625.467-.067.9.025 1.3.275L7.5 14.2V6c0-.283.096-.52.287-.713A.968.968 0 0 1 8.5 5c.283 0 .525.096.725.287.2.192.3.43.3.713v5H17c.833 0 1.542.292 2.125.875S20 13.167 20 14v4c0 1.1-.392 2.042-1.175 2.825C18.042 21.608 17.1 22 16 22h-5.525Zm-6.3-13.5A4.935 4.935 0 0 1 3.5 6c0-1.383.487-2.563 1.463-3.538C5.937 1.487 7.117 1 8.5 1s2.563.488 3.537 1.462C13.012 3.438 13.5 4.617 13.5 6a4.934 4.934 0 0 1-.675 2.5l-1.725-1c.133-.233.233-.47.3-.713.067-.241.1-.504.1-.787 0-.833-.292-1.542-.875-2.125A2.893 2.893 0 0 0 8.5 3c-.833 0-1.542.292-2.125.875A2.893 2.893 0 0 0 5.5 6c0 .283.033.546.1.787.067.242.167.48.3.713l-1.725 1Z" class="Primary"/>
  </g>
</svg>
