<svg xmlns="http://www.w3.org/2000/svg" width="24" height="24" fill="none" viewBox="0 0 24 24">
  <g class="24x24/Solid/st_siren">
    <path fill="#fff" fill-rule="evenodd" d="M12 5c.6 0 1-.4 1-1V1c0-.6-.4-1-1-1s-1 .4-1 1v3c0 .6.4 1 1 1Zm6 11-.8-7.3C17.1 7.2 15.6 6 14 6h-4C8.4 6 6.9 7.2 6.8 8.7L6 16c-.6 0-1 .4-1 1v2c0 .6.4 1 1 1h12c.6 0 1-.4 1-1v-2c0-.6-.4-1-1-1ZM8.8 8.9c0-.4.5-.9 1.2-.9h4c.7 0 1.2.5 1.3.9L16 16H8l.8-7.1ZM23 10h-3c-.6 0-1 .4-1 1s.4 1 1 1h3c.6 0 1-.4 1-1s-.4-1-1-1ZM1 10h3c.6 0 1 .4 1 1s-.4 1-1 1H1c-.6 0-1-.4-1-1s.4-1 1-1Zm17.7-4.3c-.2.2-.4.3-.7.3-.2 0-.5-.1-.7-.3-.4-.4-.4-1 0-1.4l2-2c.4-.4 1-.4 1.4 0 .4.4.4 1 0 1.4l-2 2Zm-13.4 0c.2.2.4.3.7.3.3 0 .5-.1.7-.3.4-.4.4-1 0-1.4l-2-2c-.4-.4-1-.4-1.4 0-.4.4-.4 1 0 1.4l2 2ZM9.1 15l.6-5.9c.05 0 .1-.025.15-.05.05-.025.1-.05.15-.05h2l-2.9 6Z" class="Primary" clip-rule="evenodd"/>
  </g>
</svg>
