<svg xmlns="http://www.w3.org/2000/svg" width="24" height="24" fill="none" viewBox="0 0 24 24">
  <g class="24x24/Solid/st_wiper">
    <path fill="#ffffff" d="M12.914 19.594a1 1 0 1 1-1.837.79l-1.8-4.32a14.91 14.91 0 0 1 2.069-.235l1.568 3.765ZM12 4c3.31 0 6.486.718 9.43 2.036.453.202.67.716.52 1.188l-2.882 9.066c-.185.582-.844.861-1.411.633a15.057 15.057 0 0 0-6.313-1.094L7.923 7.615l-1.846.77 3.2 7.68a15.16 15.16 0 0 0-2.938.857c-.567.229-1.226-.05-1.411-.633l-2.88-9.064a.973.973 0 0 1 .52-1.188A22.96 22.96 0 0 1 12 4Z" class="Primary"/>
  </g>
</svg>
