<svg xmlns="http://www.w3.org/2000/svg" width="24" height="24" fill="none" viewBox="0 0 24 24">
  <g class="24x24/Solid/st_wipers_wash">
    <path fill="#ffffff" d="M12 19c.6 0 1 .4 1 1v1c0 .6-.4 1-1 1s-1-.4-1-1v-1c0-.6.4-1 1-1ZM10.9 5.7c.4-.2.8-.2 1.1.1.3-.2.7-.3 1.1-.1.5.3.7.9.4 1.4-.2.3-.3.7-.4 1 2.5.1 5 .5 7.3 1.4l1 .4c.3.1.5.3.4.5.1.3.1.5 0 .8l-3.5 7.2c-.2.4-.5.6-.9.6-.1 0-.2-.1-.3-.1l-.8-.3c-2.8-1-5.9-1-8.8 0l-.8.3c-.5.2-1 0-1.2-.5L2 11.2c-.1-.2-.1-.5 0-.8.1-.2.3-.4.6-.5l1-.4c2.3-.9 4.8-1.3 7.3-1.4-.1-.4-.2-.7-.4-1-.3-.5-.1-1.1.4-1.4Zm8.8 5.6c-4.9-1.8-10.5-1.8-15.4 0l2.6 5.5c1.7-.5 3.4-.8 5.1-.8 1.7 0 3.4.3 5.1.8l2.6-5.5ZM12 11c.6 0 1 .4 1 1v2c0 .6-.4 1-1 1s-1-.4-1-1v-2c0-.6.4-1 1-1Zm8-6.1c.4-.3 1-.3 1.4.1.7.7 1.2 1.6 1.4 2.6.2.5-.2 1-.8 1.2h-.2c-.5 0-.9-.3-1-.8-.1-.6-.4-1.2-.9-1.7-.3-.4-.3-1 .1-1.4ZM2.4 4.8c.4-.4 1-.4 1.4 0 .4.4.4 1 0 1.4-.4.5-.8 1.1-1 1.7-.1.4-.5.7-.9.6h-.3c-.5-.1-.8-.7-.7-1.2.3-1 .9-1.8 1.5-2.5ZM6.8 3c.8 0 1.6.1 2.3.5.5.2.8.8.6 1.3-.1.4-.5.6-.9.6-.2 0-.3-.1-.4-.1-.5-.2-1.1-.3-1.6-.3h-.4c-.6.1-1-.3-1.1-.9-.1-.6.4-1 .9-1.1h.6Zm8 .4c.9-.4 1.9-.5 2.9-.4.6.1 1 .5.9 1.1-.1.6-.5 1-1.1.9-.6 0-1.3 0-1.9.2-.2.1-.3.1-.4.1-.4 0-.8-.2-1-.6-.2-.5.1-1.1.6-1.3Z" class="Primary"/>
  </g>
</svg>
