<svg xmlns="http://www.w3.org/2000/svg" width="24" height="24" fill="none" viewBox="0 0 24 24">
  <g class="24x24/Solid/star">
    <path fill="#FFCA28" d="M11.539 3.106a.5.5 0 0 1 .922 0l2.073 4.964a.5.5 0 0 0 .42.306l5.363.437a.5.5 0 0 1 .285.877l-4.082 3.505a.5.5 0 0 0-.16.495l1.241 5.235a.5.5 0 0 1-.746.542l-4.595-2.799a.5.5 0 0 0-.52 0l-4.595 2.799a.5.5 0 0 1-.746-.542L7.64 13.69a.5.5 0 0 0-.16-.495L3.398 9.69a.5.5 0 0 1 .285-.877l5.363-.437a.5.5 0 0 0 .42-.306l2.073-4.964Z" class="Primary"/>
  </g>
</svg>
