<svg xmlns="http://www.w3.org/2000/svg" width="24" height="24" fill="none" viewBox="0 0 24 24">
  <g class="24x24/Solid/success">
    <path fill="#4CAF50" d="m10.525 12.925-1.5-1.5A1.427 1.427 0 0 0 7.975 11c-.417 0-.767.142-1.05.425a1.39 1.39 0 0 0-.413 1.05c.009.417.155.767.438 1.05l2.45 2.45c.323.317.7.475 1.13.475.43 0 .803-.158 1.12-.475l5.275-5.275c.283-.283.425-.63.425-1.037 0-.409-.142-.755-.425-1.038a1.426 1.426 0 0 0-1.05-.425c-.417 0-.767.142-1.05.425l-4.3 4.3ZM12 22.85c-1.517 0-2.933-.284-4.25-.852a10.926 10.926 0 0 1-3.435-2.313 10.926 10.926 0 0 1-2.313-3.435c-.568-1.317-.852-2.733-.852-4.25s.284-2.933.852-4.25a10.927 10.927 0 0 1 2.313-3.435A10.927 10.927 0 0 1 7.75 2.002c1.317-.568 2.733-.852 4.25-.852s2.933.284 4.25.852a10.927 10.927 0 0 1 3.435 2.313 10.928 10.928 0 0 1 2.313 3.435c.568 1.317.852 2.733.852 4.25s-.284 2.933-.852 4.25a10.927 10.927 0 0 1-2.313 3.435 10.926 10.926 0 0 1-3.435 2.313c-1.317.568-2.733.852-4.25.852Z" class="Primary"/>
  </g>
</svg>
