<svg xmlns="http://www.w3.org/2000/svg" width="24" height="24" fill="none" viewBox="0 0 24 24">
  <g class="24x24/Solid/things">
    <path fill="#B0B9C4" fill-rule="evenodd" d="M4.125 5H21v2.167h-1.125V8.25c0 .598-.504 1.083-1.125 1.083h-4.2L3 9.334v-3.25C3 5.484 3.504 5 4.125 5Zm2.25 1.083H5.25v1.084h1.125V6.083Zm1.125 0h1.125v1.084H7.5V6.083Zm2.469 4.334H4.135l.723.947c.232.333.334.746.265 1.162l-.029.132L3.563 17.4l.315.263.016.011c.229.166.5.274.792.311l.018.002.184.012h2.674c.737 0 1.38-.46 1.604-1.121l.005-.016.036-.132.762-2.557v-3.757Zm5.625 0h-4.5v3.25h2.812c.866 0 1.579-.628 1.676-1.437l.002-.015.01-.158v-1.64Z" class="Primary" clip-rule="evenodd"/>
  </g>
</svg>
