<svg xmlns="http://www.w3.org/2000/svg" width="24" height="24" fill="none" viewBox="0 0 24 24">
  <g class="24x24/Solid/train">
    <path fill="#B0B9C4" fill-rule="evenodd" d="m22.275 9.385-.001-.004.001.003H13.65v1.077h8.97l.345 1.077H13.65c-.635 0-1.15-.482-1.15-1.077V9.384c0-.595.515-1.077 1.15-1.077h8.182C20.512 5.707 17.694 4 14.547 4H2.15v4.307h8.05c.635 0 1.15.482 1.15 1.077v1.077c0 .595-.515 1.077-1.15 1.077H2.15v3.231c0 .595.515 1.077 1.15 1.077.632 0 1.145-.477 1.15-1.068.005.59.518 1.068 1.15 1.068.635 0 1.15-.482 1.15-1.076h8.05c0 .594.515 1.076 1.15 1.076.632 0 1.145-.477 1.15-1.068.005.59.518 1.068 1.15 1.068.635 0 1.15-.482 1.15-1.076h1.509c.224 0 .447-.031.66-.091 1.218-.342 1.908-1.543 1.543-2.682l-.837-2.612ZM10.2 10.46H2.15V9.384h8.05v1.077ZM24 16.923V18H1v-1.077h23Z" class="Primary" clip-rule="evenodd"/>
  </g>
</svg>
