<svg xmlns="http://www.w3.org/2000/svg" width="24" height="24" fill="none" viewBox="0 0 24 24">
  <g class="24x24/Solid/truck">
    <path fill="#B0B9C4" fill-rule="evenodd" d="M8.95 16.154c-.231-1.053-1.24-1.847-2.45-1.847-1.21 0-2.219.793-2.45 1.847H3c-.552 0-1-.413-1-.923V6.923C2 6.413 2.448 6 3 6h11v7.385h1V7.846h4.54c.292 0 .571.117.755.327C21.432 9.469 22 10.59 22 11.539v2.769c0 1.02-.895 1.846-2 1.846h-.05c-.231-1.053-1.24-1.847-2.45-1.847-1.21 0-2.219.794-2.45 1.847h-6.1ZM18 8.77h-1v2.77h3v-.924h-2V8.77ZM8 16.615C8 17.38 7.328 18 6.5 18S5 17.38 5 16.615c0-.764.672-1.384 1.5-1.384s1.5.62 1.5 1.384Zm11 0C19 17.38 18.33 18 17.5 18c-.828 0-1.5-.62-1.5-1.385 0-.764.672-1.384 1.5-1.384.829 0 1.5.62 1.5 1.384Z" class="Primary" clip-rule="evenodd"/>
  </g>
</svg>
