<svg xmlns="http://www.w3.org/2000/svg" width="24" height="24" fill="none" viewBox="0 0 24 24">
  <g class="24x24/Solid/vehicle">
    <path fill="#B0B9C4" fill-rule="evenodd" d="M8.645 16.846c-.254-1.229-1.364-2.154-2.695-2.154-1.33 0-2.44.925-2.695 2.154H2.1c-.608 0-1.1-.482-1.1-1.077V6.077C1 5.482 1.492 5 2.1 5h12.1v8.615h1.1V7.154h4.994c.321 0 .628.136.83.38C22.374 9.049 23 10.358 23 11.462v3.231c0 1.19-.985 2.154-2.2 2.154h-.055c-.254-1.229-1.364-2.154-2.695-2.154-1.33 0-2.44.925-2.695 2.155h-6.71ZM18.6 8.231h-1.1v3.23h3.3v-1.076h-2.2V8.23Zm-11 9.154C7.6 18.277 6.861 19 5.95 19c-.911 0-1.65-.723-1.65-1.615 0-.893.739-1.616 1.65-1.616.911 0 1.65.723 1.65 1.616Zm12.1 0c0 .892-.738 1.615-1.65 1.615-.911 0-1.65-.723-1.65-1.615 0-.893.739-1.616 1.65-1.616.912 0 1.65.723 1.65 1.616Z" class="Primary" clip-rule="evenodd"/>
  </g>
</svg>
