 <svg width="32" height="32" viewBox="0 0 32 32" fill="none" xmlns="http://www.w3.org/2000/svg">
<rect width="32" height="32" rx="2" fill="#212A2F" class="secondary"/>
<path fill-rule="evenodd" clip-rule="evenodd" d="M14 11.8014V19.9283C14 20.5756 14.7285 20.9549 15.2588 20.5837L21.0637 16.5203C21.5187 16.2018 21.5187 15.528 21.0637 15.2095L15.2588 11.146C14.7285 10.7749 14 11.1542 14 11.8014ZM25.2 11.8649C25.2 11.4231 24.8418 11.0649 24.4 11.0649H22.8C22.3582 11.0649 22 11.4231 22 11.8649V19.8649C22 20.3067 22.3582 20.6649 22.8 20.6649H24.4C24.8418 20.6649 25.2 20.3067 25.2 19.8649V11.8649ZM6 19.9284V11.8014C6 11.1542 6.72855 10.7749 7.25877 11.146L13.0637 15.2095C13.5187 15.528 13.5187 16.2018 13.0637 16.5203L7.25877 20.5837C6.72855 20.9549 6 20.5756 6 19.9284Z" fill="#E1E7EA" class="primary"/>
</svg>
