<svg width="32" height="32" viewBox="0 0 32 32" fill="none" xmlns="http://www.w3.org/2000/svg">
<rect width="32" height="32" rx="2" fill="#212A2F"/>
<path fill-rule="evenodd" clip-rule="evenodd" d="M17.2 11.8014V19.9283C17.2 20.5756 16.4715 20.9549 15.9412 20.5837L10.1363 16.5203C9.68129 16.2018 9.68129 15.528 10.1363 15.2095L15.9412 11.146C16.4715 10.7749 17.2 11.1542 17.2 11.8014ZM6 11.8649C6 11.4231 6.35817 11.0649 6.8 11.0649H8.4C8.84183 11.0649 9.2 11.4231 9.2 11.8649V19.8649C9.2 20.3067 8.84183 20.6649 8.4 20.6649H6.8C6.35817 20.6649 6 20.3067 6 19.8649V11.8649ZM25.2 19.9283V11.8014C25.2 11.1542 24.4715 10.7749 23.9412 11.146L18.1363 15.2095C17.6813 15.528 17.6813 16.2018 18.1363 16.5203L23.9412 20.5837C24.4715 20.9549 25.2 20.5756 25.2 19.9283Z" fill="#E1E7EA"/>
</svg>
