<svg width="32" height="32" viewBox="0 0 32 32" fill="none" xmlns="http://www.w3.org/2000/svg">
<rect width="32" height="32" rx="2" fill="#212A2F"/>
<path fill-rule="evenodd" clip-rule="evenodd" d="M10 20.0635V11.9365C10 11.2893 10.7285 10.91 11.2588 11.2811L17.0637 15.3446C17.5187 15.6631 17.5187 16.3369 17.0637 16.6554L11.2588 20.7189C10.7285 21.09 10 20.7107 10 20.0635ZM20.4 11.2C20.8418 11.2 21.2 11.5582 21.2 12V20C21.2 20.4418 20.8418 20.8 20.4 20.8H18.8C18.3582 20.8 18 20.4418 18 20V12C18 11.5582 18.3582 11.2 18.8 11.2H20.4Z" fill="#E1E7EA"/>
</svg>
