<svg width="32" height="32" viewBox="0 0 32 32" fill="none" xmlns="http://www.w3.org/2000/svg">
<rect width="32" height="32" rx="2" fill="#212A2F" class="secondary"/>
<path fill-rule="evenodd" clip-rule="evenodd" d="M21.6 20.0635V11.9365C21.6 11.2893 20.8715 10.91 20.3412 11.2811L14.5363 15.3446C14.0813 15.6631 14.0813 16.3369 14.5363 16.6554L20.3412 20.7189C20.8715 21.09 21.6 20.7107 21.6 20.0635ZM11.2 11.2C10.7582 11.2 10.4 11.5582 10.4 12V20C10.4 20.4418 10.7582 20.8 11.2 20.8H12.8C13.2418 20.8 13.6 20.4418 13.6 20V12C13.6 11.5582 13.2418 11.2 12.8 11.2H11.2Z" fill="#E1E7EA" class="primary"/>
</svg>
