<?xml version="1.0" encoding="utf-8"?>
<!-- Generator: Adobe Illustrator 19.2.0, SVG Export Plug-In . SVG Version: 6.00 Build 0)  -->
<svg version="1.1" id="Layer_1" xmlns="http://www.w3.org/2000/svg" xmlns:xlink="http://www.w3.org/1999/xlink" x="0px" y="0px"
	 viewBox="0 0 16 16" style="enable-background:new 0 0 16 16;" xml:space="preserve">
<style type="text/css">
	.st0{fill:#698796;}
</style>
<polygon class="st0" points="3.2,10.9 4.2,10.9 3.7,9.7 "/>
<path class="st0" d="M6.9,9.6H6.5v0.7h0.4c0.2,0,0.4-0.1,0.4-0.3C7.3,9.7,7.2,9.6,6.9,9.6z"/>
<path class="st0" d="M1,2v12h14V2H1z M4.7,12l-0.3-0.6H3L2.8,12H2l1.2-3h0.9l1.4,3H4.7z M7.6,12c-0.3-0.6-0.5-1.2-0.9-1.2H6.5V12
	H5.7V9h1.4c0.6,0,1,0.4,1,0.9c0,0.3-0.2,0.6-0.5,0.7C7.9,10.8,8,11.1,8.4,12H7.6z M12,12h-0.8v-1.9L10.4,11h-0.1l-0.8-0.9V12H8.7V9
	h0.7l1,1.1l1-1.1H12V12z M14,12h-1.5v-1.5H14V12z"/>
</svg>
