<?xml version="1.0" encoding="utf-8"?>
<!-- Generator: Adobe Illustrator 19.2.0, SVG Export Plug-In . SVG Version: 6.00 Build 0)  -->
<svg version="1.1" id="Layer_1" xmlns="http://www.w3.org/2000/svg" xmlns:xlink="http://www.w3.org/1999/xlink" x="0px" y="0px"
	 viewBox="0 0 16 16" style="enable-background:new 0 0 16 16;" xml:space="preserve">
<style type="text/css">
	.st0{fill:#698796;}
</style>
<path class="st0" d="M14,5c-0.5,0-1,0.5-1,1v4c0,0.5,0.5,1,1,1s1-0.5,1-1V6C15,5.5,14.5,5,14,5z"/>
<path class="st0" d="M2,5C1.5,5,1,5.5,1,6v4c0,0.5,0.5,1,1,1s1-0.5,1-1V6C3,5.5,2.5,5,2,5z"/>
<path class="st0" d="M11,5H5C4.5,5,4,5.5,4,6v6c0,0.5,0.5,1,1,1v2c0,0.5,0.5,1,1,1s1-0.5,1-1v-2h2v2c0,0.5,0.5,1,1,1s1-0.5,1-1v-2
	c0.5,0,1-0.5,1-1V6C12,5.5,11.5,5,11,5z"/>
<path class="st0" d="M8,0C5.8,0,4,1.8,4,4c1.7,0,6.3,0,8,0C12,1.8,10.2,0,8,0z M6.5,3C6.2,3,6,2.8,6,2.5S6.2,2,6.5,2S7,2.2,7,2.5
	S6.8,3,6.5,3z M9.5,3C9.2,3,9,2.8,9,2.5S9.2,2,9.5,2S10,2.2,10,2.5S9.8,3,9.5,3z"/>
</svg>
