<?xml version="1.0" encoding="utf-8"?>
<!-- Generator: Adobe Illustrator 19.2.0, SVG Export Plug-In . SVG Version: 6.00 Build 0)  -->
<svg version="1.1" xmlns="http://www.w3.org/2000/svg" xmlns:xlink="http://www.w3.org/1999/xlink" x="0px" y="0px"
	 viewBox="0 0 48 48" style="enable-background:new 0 0 48 48;" xml:space="preserve">
<style type="text/css">
	.st0{fill:none;}
	.st1{fill:#C3CFD5;}
</style>
<path class="st0" d="M30,15H18H6H2v25h44V15h-4H30z M22,38c-0.6,0-1-0.4-1-1c0-0.6,0.4-1,1-1c0.6,0,1,0.4,1,1C23,37.6,22.6,38,22,38
	z M26,38c-0.6,0-1-0.4-1-1c0-0.6,0.4-1,1-1c0.6,0,1,0.4,1,1C27,37.6,26.6,38,26,38z M30,38c-0.6,0-1-0.4-1-1c0-0.6,0.4-1,1-1
	c0.6,0,1,0.4,1,1C31,37.6,30.6,38,30,38z M35,37c0,0.6-0.4,1-1,1s-1-0.4-1-1v-1c0-0.6,0.4-1,1-1s1,0.4,1,1V37z M35,19H5
	c-0.6,0-1-0.4-1-1s0.4-1,1-1h30c0.6,0,1,0.4,1,1S35.6,19,35,19z M39,37c0,0.6-0.4,1-1,1s-1-0.4-1-1v-2c0-0.6,0.4-1,1-1s1,0.4,1,1V37
	z M43,37c0,0.6-0.4,1-1,1s-1-0.4-1-1v-4c0-0.6,0.4-1,1-1s1,0.4,1,1V37z M44,18c0,0.6-0.4,1-1,1h-3c-0.6,0-1-0.4-1-1s0.4-1,1-1h3
	C43.6,17,44,17.4,44,18z"/>
<rect x="32" y="10" class="st0" width="8" height="3"/>
<rect x="8" y="10" class="st0" width="8" height="3"/>
<path class="st1" d="M46,13h-4v-3c0-1.1-0.9-2-2-2h-8c-1.1,0-2,0.9-2,2v3H18v-3c0-1.1-0.9-2-2-2H8c-1.1,0-2,0.9-2,2v3H2
	c-1.1,0-2,0.9-2,2v25c0,1.1,0.9,2,2,2h44c1.1,0,2-0.9,2-2V15C48,13.9,47.1,13,46,13z M32,10h8v3h-8L32,10z M8,10h8v3H8V10z M46,40H2
	V15h4h12h12h12h4V40z"/>
<path class="st1" d="M35,17H5c-0.6,0-1,0.4-1,1s0.4,1,1,1h30c0.6,0,1-0.4,1-1S35.6,17,35,17z"/>
<path class="st1" d="M39,18c0,0.6,0.4,1,1,1h3c0.6,0,1-0.4,1-1s-0.4-1-1-1h-3C39.4,17,39,17.4,39,18z"/>
<path class="st1" d="M42,32c-0.6,0-1,0.4-1,1v4c0,0.6,0.4,1,1,1s1-0.4,1-1v-4C43,32.4,42.6,32,42,32z"/>
<path class="st1" d="M34,35c-0.6,0-1,0.4-1,1v1c0,0.6,0.4,1,1,1s1-0.4,1-1v-1C35,35.4,34.6,35,34,35z"/>
<path class="st1" d="M38,34c-0.6,0-1,0.4-1,1v2c0,0.6,0.4,1,1,1s1-0.4,1-1v-2C39,34.4,38.6,34,38,34z"/>
<circle class="st1" cx="30" cy="37" r="1"/>
<circle class="st1" cx="26" cy="37" r="1"/>
<circle class="st1" cx="22" cy="37" r="1"/>
</svg>
