<?xml version="1.0" encoding="utf-8"?>
<!-- Generator: Adobe Illustrator 19.2.0, SVG Export Plug-In . SVG Version: 6.00 Build 0)  -->
<svg version="1.1" id="Layer_1" xmlns="http://www.w3.org/2000/svg" xmlns:xlink="http://www.w3.org/1999/xlink" x="0px" y="0px"
	 viewBox="0 0 16 16" style="enable-background:new 0 0 16 16;" xml:space="preserve">
<style type="text/css">
	.st0{fill:#698796;}
</style>
<path class="st0" d="M5.9,13.6c0.6-0.1,0.6-0.7,0.4-0.9s-1.4-1.1-1.8-1.5C4.4,11,4.2,11,4.1,10.8c-0.2-0.4-0.3-1-0.1-1.5
	c0-0.1,0.1,0,0,0.1c-0.2,0.9,0.4,1.7,0.6,1.3c0.1-0.3,0-0.8,0.1-1.1c0.1-0.7,0.7-2,1-2.1C5.2,6.7,6.1,6.1,6.1,5.4
	C6.1,5,6.5,6,6.9,6.2s0.9-0.4,1.6-0.8C8.7,5.3,9,5.2,9,5.1C8.9,4.7,8.1,5.6,7.3,5.6C7,5.7,6.9,5.6,6.7,5.4C6.3,5,6.7,5.3,7.3,5.2
	c0.3,0,0.4-0.1,0.6-0.2c0.4,0,0.7-0.2,1-0.3C9.1,4.6,9.1,4.5,9,4.4c0,0-0.1,0-0.2,0.1C8.7,4.7,8,4.9,7.8,4.9C7.6,5,7.3,5.1,7,5.1
	C6.4,5,6.5,4.8,6.1,4.6C6,4.5,6,4.3,6.2,4.1c0.1,0,0.3-0.1,0.4-0.3c0,0,0.2-0.2,0.3-0.3c0,0,0-0.7-0.3-0.7S6.2,3,6.2,3.3
	c0,0.2,0.1,0.4,0.2,0.4c0.2,0,0,0.2-0.1,0.2C6.2,4,6,3.4,6,3.1s0.2-0.8,0.5-0.8S7.1,2.7,7,3.4c0,0.1,0.5-0.1,0.7,0.1
	c0.1,0.1-0.4-1.2,0.8-1.3c0.3,0.1,0.6,0.2,0.8,0.9c0,0.1,0.1,0.6-0.1,0.7C9,3.9,8.9,3.8,9,3.6s0-0.8-0.5-0.8S8.1,3.7,8.2,3.7
	C8.3,3.8,8.7,4,8.9,4c0.8,0.2,0.2,0.6,0.3,1.1c0.1,0.6,0.5,0.5,0.9,2.1c0.1,0.1,0.4,0.2,0.7,1.4c0.3,1.1-0.1,1.9,0.5,1.9
	c0.1,0,0.4-0.1,0.4-0.4c0.2-0.8-0.1-1.8-0.5-2.5c-0.2-0.4-0.4-0.7-0.5-0.7c0.4,0.2,0.9,1,1.1,1.6c0.2,0.8,0.3,1.1,0,1.9
	c0.1,0.1,0.5,0.2,0.5,0.4c-0.4-0.3-1.5-0.3-1.5,0.4c-0.2,0-0.3,0-0.5,0.2c-0.4,0.5,0,1.6-0.1,2.2c0,0.5-0.2,1-0.3,1.5
	c-0.3,0-0.2-0.2-0.2-0.5c0.1-0.2,0.2-0.5,0.2-0.8s0-0.4-0.1-0.5c-0.1,0-0.2,0-0.3,0.3c-0.3,0.5-1,0.7-1.6,0.8s-1.2,0-1.5-0.3
	c-0.1-0.1-0.3,0-0.3,0.1c0,0,0.1,0.1,0.2,0.3c0.1,0.3,0.3,0.6-0.1,0.8C6.5,14.2,6.2,14.2,5.9,13.6L5.9,13.6z M5.7,13.6
	c0.2,0.3,1,1.8-0.4,2c-0.5,0.1-1.2-0.3-1.9-0.4C2.8,15,2.1,15,1.8,14.9c-0.2-0.1-0.3-0.1-0.3-0.2c-0.1-0.2,0.3-0.6,0.3-0.9
	c0-0.3-0.1-0.4-0.2-0.7c-0.1-0.2-0.1-0.4,0-0.5s0.2-0.1,0.4-0.1c0.3,0,0.6,0,0.7-0.1C3,12.2,3.1,11.9,3,11.5c0,0.4-0.1,0.6-0.5,0.8
	c-0.3,0.2-0.8,0-1,0.2c-0.3,0.2,0.1,0.9,0.1,1.3c0,0.3-0.4,0.7-0.2,1.1c0.2,0.3,0.9,0.4,1.7,0.6c1.1,0.2,1.8,0.6,2.3,0.7
	c0.8,0,0.9-0.7,2.1-0.8c0.3,0,0.7,0,1,0c0.4,0,0.8,0,1.2,0c0.8,0,0.5,0.4,1,0.7c0.4,0.2,1.2,0.1,1.4,0c0.3-0.2,0.9-0.8,1.4-1.1
	c0.6-0.3,2.2-0.9,1.1-1.6c-0.3-0.2-0.9-0.3-0.9-1.5c-0.2,0.2-0.2,1.3,0.4,1.5c0.7,0.2,1.2,0.6-0.2,1.1c-0.9,0.3-1,0.4-1.7,1
	s-1.8,0.4-1.6-0.9c0.1-0.6,0.2-1.2,0-1.7c-0.1-0.3-0.1-0.6-0.1-0.9c0.1-0.5,0.4-0.6,0.6-0.2c0.2,0.3,0.2,0.6,0.8,0.7
	c0.9,0,1.1-0.9,1.4-0.9c0.2,0,0.4-0.6,0.2-1.4C13.2,9,12.7,7.5,12,6.7c-0.6-0.6-1-1.2-1.2-2c-0.2-0.7-0.3-1.3-0.3-1.9
	c0.1-0.8-0.4-1.9-1.1-2.4C9,0.2,8.3,0,7.7,0C7.4,0,7,0.1,6.8,0.2c-1,0.6-1.2,1.4-1.2,2.3s0,1.8,0.1,2.8C5.6,5.7,5,6.5,4.7,7
	C4.1,7.5,3.9,8.5,3.5,9.3C3.4,9.8,3.1,10,3,10.6c0,0.2,0,0.6,0.2,0.5C3.8,10.6,4.6,11.8,5.7,13.6L5.7,13.6z M8.8,1.2
	c0,0.1-0.2,0.2-0.1,0.2C8.8,1.5,8.8,1.3,9,1.2c0,0,0.3,0,0.3-0.1c0,0-0.1-0.1-0.2-0.2c0,0.1-0.1,0-0.1,0C8.8,0.9,8.9,1.1,8.8,1.2
	L8.8,1.2z M9.9,4.8C10,4.7,10,4.9,10.2,5c0.1,0.1,0.3,0,0.3,0.2c0,0.1-0.1,0.3-0.2,0.2C10.1,5.4,9.7,5,9.9,4.8L9.9,4.8z M7.1,3.7
	c-0.3,0-0.3,0.2-0.2,0.2C6.9,3.8,6.9,3.7,7.1,3.7L7.1,3.7z M6.6,3.1C6.6,3.1,6.7,3.1,6.6,3.1c0.1,0.2,0.1,0.3,0.2,0.3l0,0
	C6.8,3.2,6.7,3,6.6,3.1C6.5,3,6.5,3.2,6.6,3.1L6.6,3.1z M8.6,3c0.1,0,0.1,0.1,0.2,0.3h0.1C8.9,3.1,8.7,3,8.6,3C8.5,3,8.6,3,8.6,3
	L8.6,3z M7.6,3.7c0.3-0.1,0.3,0.1,0.3,0.1C7.7,3.8,7.7,3.7,7.6,3.7L7.6,3.7z M4.5,8.1c-0.1,0,0-0.1,0.1-0.2c0.1-0.1,0.1-0.3,0.1-0.3
	c0.1,0,0,0.1,0,0.3C4.6,8,4.5,8.1,4.5,8.1L4.5,8.1z"/>
</svg>
