<?xml version="1.0" encoding="utf-8"?>
<!-- Generator: Adobe Illustrator 19.2.0, SVG Export Plug-In . SVG Version: 6.00 Build 0)  -->
<svg version="1.1" xmlns="http://www.w3.org/2000/svg" xmlns:xlink="http://www.w3.org/1999/xlink" x="0px" y="0px"
	 viewBox="0 0 48 48" style="enable-background:new 0 0 48 48;" xml:space="preserve">
<style type="text/css">
	.st0{fill:none;}
	.st1{fill:#C3CFD5;}
</style>
<circle class="st0" cx="23.5" cy="30.5" r="3"/>
<path class="st0" d="M32.5,30.1c0,4.9-4,8.9-9,8.9c-5,0-9-4-9-8.9c0-0.8,0-6.9,0-10.1h-9v3c0,9.9,8.1,18,18,18c9.9,0,18-8.1,18-18
	v-3h-9C32.5,23.2,32.5,29.5,32.5,30.1z"/>
<path class="st0" d="M23.5,37c3.9,0,7-3.1,7-6.9v-10h-14v10C16.5,33.9,19.6,37,23.5,37z M23.5,25.5c2.8,0,5,2.2,5,5c0,2.8-2.2,5-5,5
	c-2.8,0-5-2.2-5-5C18.5,27.7,20.7,25.5,23.5,25.5z"/>
<polygon class="st0" points="2,10 2,18 3.5,18 43.5,18 46,18 46,10 "/>
<path class="st1" d="M46,8H2c-1.1,0-2,0.9-2,2v8c0,1.1,0.9,2,2,2h1.5c0,0.9,0,2,0,3c0,11,9,20,20,20c11,0,20-9,20-20c0-0.9,0-2,0-3
	H46c1.1,0,2-0.9,2-2v-8C48,8.9,47.1,8,46,8z M41.5,23c0,9.9-8.1,18-18,18c-9.9,0-18-8.1-18-18v-3h9c0,3.2,0,9.3,0,10.1
	c0,4.9,4,8.9,9,8.9c5,0,9-4,9-8.9c0-0.6,0-6.9,0-10.1h9V23z M30.5,20.1v10c0,3.8-3.1,6.9-7,6.9c-3.9,0-7-3.1-7-6.9v-10H30.5z
	 M43.5,18h-40H2v-8h44l0,8H43.5z"/>
<path class="st1" d="M23.5,35.5c2.8,0,5-2.2,5-5c0-2.8-2.2-5-5-5c-2.8,0-5,2.2-5,5C18.5,33.3,20.7,35.5,23.5,35.5z M23.5,27.5
	c1.7,0,3,1.3,3,3s-1.3,3-3,3c-1.7,0-3-1.3-3-3S21.8,27.5,23.5,27.5z"/>
</svg>
