<?xml version="1.0" encoding="utf-8"?>
<!-- Generator: Adobe Illustrator 19.2.0, SVG Export Plug-In . SVG Version: 6.00 Build 0)  -->
<svg version="1.1" xmlns="http://www.w3.org/2000/svg" xmlns:xlink="http://www.w3.org/1999/xlink" x="0px" y="0px"
	 viewBox="0 0 48 48" style="enable-background:new 0 0 48 48;" xml:space="preserve">
<style type="text/css">
	.st0{fill:none;}
	.st1{fill:#C3CFD5;}
</style>
<path class="st0" d="M17,24.4c0-0.6-2.1-1.9-5-1.9s-5,1.3-5,1.9V25h10V24.4z"/>
<circle class="st0" cx="12" cy="17.5" r="2"/>
<path class="st0" d="M2,10v28l44,0l0-28H2z M23,13h19c0.6,0,1,0.4,1,1s-0.4,1-1,1H23c-0.6,0-1-0.4-1-1S22.4,13,23,13z M5,24.4
	c0-1.8,2.1-3.1,4.7-3.6C8.7,20,8,18.8,8,17.5c0-2.2,1.8-4,4-4s4,1.8,4,4c0,1.3-0.7,2.5-1.7,3.2c2.5,0.5,4.7,1.9,4.7,3.6V26
	c0,0.6-0.4,1-1,1H6c-0.6,0-1-0.4-1-1V24.4z M43,34c0,1.1-0.9,2-2,2H7c-1.1,0-2-0.9-2-2v-2c0-1.1,0.9-2,2-2h34c1.1,0,2,0.9,2,2V34z
	 M22,26c0-0.6,0.4-1,1-1h8c0.6,0,1,0.4,1,1s-0.4,1-1,1h-8C22.4,27,22,26.6,22,26z M42,23H23c-0.6,0-1-0.4-1-1s0.4-1,1-1h19
	c0.6,0,1,0.4,1,1S42.6,23,42,23z M42,19H23c-0.6,0-1-0.4-1-1s0.4-1,1-1h19c0.6,0,1,0.4,1,1S42.6,19,42,19z"/>
<rect x="7" y="32" class="st0" width="34" height="2"/>
<path class="st1" d="M46,8H2c-1.1,0-2,0.9-2,2v28c0,1.1,0.9,2,2,2h44c1.1,0,2-0.9,2-2V10C48,8.9,47.1,8,46,8z M2,38V10h44l0,28L2,38
	z"/>
<path class="st1" d="M41,30H7c-1.1,0-2,0.9-2,2v2c0,1.1,0.9,2,2,2h34c1.1,0,2-0.9,2-2v-2C43,30.9,42.1,30,41,30z M7,34v-2h34l0,2
	L7,34z"/>
<path class="st1" d="M6,27h12c0.6,0,1-0.4,1-1v-1.6c0-1.8-2.1-3.1-4.7-3.6c1-0.7,1.7-1.9,1.7-3.2c0-2.2-1.8-4-4-4s-4,1.8-4,4
	c0,1.3,0.7,2.5,1.7,3.2C7.1,21.3,5,22.6,5,24.4V26C5,26.6,5.4,27,6,27z M12,15.5c1.1,0,2,0.9,2,2s-0.9,2-2,2s-2-0.9-2-2
	S10.9,15.5,12,15.5z M7,24.4c0-0.6,2.1-1.9,5-1.9s5,1.3,5,1.9V25H7V24.4z"/>
<path class="st1" d="M23,15h19c0.6,0,1-0.4,1-1s-0.4-1-1-1H23c-0.6,0-1,0.4-1,1S22.4,15,23,15z"/>
<path class="st1" d="M42,17H23c-0.6,0-1,0.4-1,1s0.4,1,1,1h19c0.6,0,1-0.4,1-1S42.6,17,42,17z"/>
<path class="st1" d="M42,21H23c-0.6,0-1,0.4-1,1s0.4,1,1,1h19c0.6,0,1-0.4,1-1S42.6,21,42,21z"/>
<path class="st1" d="M31,27c0.6,0,1-0.4,1-1s-0.4-1-1-1h-8c-0.6,0-1,0.4-1,1s0.4,1,1,1H31z"/>
</svg>
