<?xml version="1.0" encoding="utf-8"?>
<!-- Generator: Adobe Illustrator 19.2.0, SVG Export Plug-In . SVG Version: 6.00 Build 0)  -->
<svg version="1.1" id="Layer_1" xmlns="http://www.w3.org/2000/svg" xmlns:xlink="http://www.w3.org/1999/xlink" x="0px" y="0px"
	 viewBox="0 0 16 16" style="enable-background:new 0 0 16 16;" xml:space="preserve">
<style type="text/css">
	.st0{fill:#698796;}
</style>
<path class="st0" d="M11.2,3.9C9.8,3.8,8.7,4.6,8.1,4.6S6.5,3.9,5.5,3.9c-1.4,0-2.6,0.8-3.3,2C0.8,8.4,1.8,12,3.2,14
	c0.7,1,1.5,2.1,2.5,2c1,0,1.4-0.7,2.6-0.7s1.6,0.7,2.6,0.6c1.1,0,1.8-1,2.4-2c0.8-1.1,1.1-2.2,1.1-2.3c0,0-2.1-0.8-2.1-3.2
	c0-2,1.6-3,1.7-3C13.1,4.1,11.7,3.9,11.2,3.9"/>
<path class="st0" d="M10.3,2.6C10.9,1.9,11.2,1,11.1,0c-0.8,0-1.8,0.5-2.4,1.2C8.3,1.8,7.9,2.8,8,3.7C8.9,3.8,9.8,3.2,10.3,2.6"/>
</svg>
