<svg style="display:none;">
    <style type="text/css">
        .st1 {
        fill: red;
        }
        .st0 {
        fill: green;
        }

        svg {
        background-color: transparent;
        fill: red;
        width: 24px;
        height: 24px;
        }
    </style>

    <symbol id="user">
        <circle class="st0" cx="10" cy="6.5" r="3.5"/>
        <path class="st0" d="M10,12c-3.5,0-7,1.5-7,3.2C3,15.3,3,17,3,17h14v-1.8C17,13.5,13.5,12,10,12z"/>
    </symbol>
    <symbol id="system_other">
        <path class="st0" d="M14,16H6v-5.2l-2,2V17c0,0.5,0.5,1,1,1h10c0.5,0,1-0.5,1-1v-4.2l-2-2V16z"/>
        <polygon class="st0" points="1.3,11.3 2.7,12.7 10,5.4 17.3,12.7 18.7,11.3 10,2.6 	"/>
    </symbol>
    <symbol id="system_current">
        <path class="st0" d="M4,12.8V17c0,0.5,0.5,1,1,1h10c0.5,0,1-0.5,1-1v-4.2l-6-6L4,12.8z"/>
        <polygon class="st0" points="1.3,11.3 2.7,12.7 10,5.4 17.3,12.7 18.7,11.3 10,2.6 	"/>
    </symbol>
</svg>

