<svg width="64" height="64" viewBox="0 0 64 64" fill="none" xmlns="http://www.w3.org/2000/svg">
    <path d="M33 8C35.9738 8 38.4422 10.1634 38.9174 13.0022L38.917 13.0003L38.9223 13.0322C38.9539 13.2265 38.976 13.4239 38.9884 13.6239C38.9899 13.6475 38.9912 13.6708 38.9923 13.6942C38.9974 13.7953 39 13.8973 39 14V24C39 25.5102 38.4421 26.89 37.5211 27.9447L55.3824 37.4706C56.5716 38.1049 57.3098 39.2541 57.4685 40.4965L57.4893 40.3036L57.499 40.1107L57.4994 46.1103C57.4833 46.7106 57.3312 47.3164 57.0294 47.8824C56.6559 48.5826 56.0826 49.1559 55.3824 49.5294L33.8824 60.9961C32.7059 61.6235 31.2941 61.6235 30.1176 60.9961L8.61765 49.5294C7.33634 48.846 6.57865 47.565 6.50511 46.2136L6.5 46V40L6.50648 40.2257C6.51075 40.3008 6.51715 40.3756 6.52562 40.4501L6.53166 40.4892C6.5917 40.0221 6.73584 39.5578 6.97059 39.1176C7.34406 38.4174 7.91739 37.8441 8.61765 37.4706L26.4784 27.9441C25.5577 26.8895 25 25.5099 25 24V14C25 13.6813 25.0248 13.3684 25.0727 13.0632L25.083 13C25.556 10.1649 28.0252 8 31 8H33ZM56.4994 43.998L56.3141 44.1329L56.0877 44.2783L55.8529 44.4118L34.327 55.8918L34.0906 56.0086C33.4749 56.2921 32.8166 56.4437 32.1558 56.4643L32.0653 56.4661H31.9218L31.8458 56.4637C31.1772 56.4436 30.5126 56.289 29.8933 56.0012L29.6471 55.8784L8.12256 44.3983L7.90045 44.2712L7.69939 44.1424L7.499 44.001L7.49971 45.9761L7.50364 46.1592C7.55682 47.1366 8.0788 48.0284 8.91653 48.5482L9.08823 48.6471L30.5882 60.1137C31.4118 60.5529 32.389 60.5822 33.233 60.2016L33.4118 60.1137L54.9118 48.6471C55.437 48.367 55.867 47.937 56.1471 47.4118C56.3322 47.0647 56.4451 46.693 56.4845 46.3281L56.4994 46.1103V43.998ZM36.762 28.6744C36.2397 29.0952 35.6455 29.4303 35.0007 29.6583L35 38C35 39.1046 34.1046 40 33 40H31C29.8954 40 29 39.1046 29 38L28.999 35.627L28.9987 36.1186C27.7739 36.6852 27 37.5744 27 38.5C27 40.0511 29.1733 41.5 32 41.5C34.8267 41.5 37 40.0511 37 38.5C37 37.5742 36.2257 36.6847 35.0003 36.1181L35.0008 34.2977C39.0575 35.1262 42 37.5897 42 40.5C42 44.0899 37.5228 47 32 47C26.4772 47 22 44.0899 22 40.5C22 37.5897 24.9425 35.1262 28.9992 34.2977L28.999 34.359L29.0003 29.6587C28.3553 29.4308 27.761 29.0957 27.2386 28.6749L9.08823 38.3529C8.56304 38.633 8.13304 39.063 7.85294 39.5882C7.10212 40.996 7.58717 42.7332 8.92956 43.5562L9.08823 43.6471L30.5882 55.1137C31.4118 55.5529 32.389 55.5822 33.233 55.2016L33.4118 55.1137L54.9118 43.6471C55.437 43.367 55.867 42.937 56.1471 42.4118C56.8979 41.004 56.4128 39.2668 55.0704 38.4438L54.9118 38.3529L36.762 28.6744ZM36.2092 35.6495L36.3253 35.7278C37.3624 36.4468 38 37.4238 38 38.5C38 40.7091 35.3137 42.5 32 42.5C28.6863 42.5 26 40.7091 26 38.5C26 37.3841 26.6855 36.3749 27.791 35.6493C24.922 36.5955 23 38.4631 23 40.5C23 43.4246 26.9621 46 32 46C37.0379 46 41 43.4246 41 40.5C41 38.4631 39.078 36.5955 36.2092 35.6495ZM25.9992 23.3165L26 24C26 25.297 26.4984 26.4993 27.3335 27.4006L27.3893 27.4587C27.6346 27.7148 27.907 27.9448 28.2017 28.1442C28.4874 28.3385 28.7962 28.5038 29.1237 28.6364L29.3335 28.7158L30.0003 28.9515L30 38C30 38.5128 30.386 38.9355 30.8834 38.9933L31 39H33C33.5128 39 33.9355 38.614 33.9933 38.1166L34 37.9999L34.0007 28.9512L34.6673 28.7155C34.9936 28.6002 35.3028 28.4528 35.5918 28.2776L35.7852 28.153C36.085 27.9516 36.3617 27.7186 36.6106 27.4588L36.6669 27.4002C37.4526 26.552 37.9402 25.4372 37.9949 24.2278L38 24L38.0002 23.3175C36.9253 24.9344 35.0871 26 33 26H31C28.9125 26 27.074 24.9339 25.9992 23.3165ZM30.499 18.98L30.4994 24.9753C30.5933 24.9846 30.6878 24.9913 30.7831 24.9954L31 25H31.5L31.499 18.999L30.9798 18.9998L30.7131 18.9942L30.499 18.98ZM33.3117 18.9931L33 19H32.499L32.5 25H33C33.1686 25 33.3353 24.9917 33.4997 24.9753L33.4998 18.9823C33.4373 18.9868 33.3746 18.9904 33.3117 18.9931ZM28.4984 18.5391L28.4987 24.3303C28.8125 24.512 29.1478 24.6605 29.4999 24.7711L29.4996 18.8385C29.1561 18.7633 28.8216 18.6629 28.4984 18.5391ZM34.4995 18.8384L34.4996 24.7712C34.8514 24.6607 35.1866 24.5124 35.5001 24.331L35.5003 18.5393C35.1771 18.663 34.8428 18.7633 34.4995 18.8384ZM36.5002 18.0626L36.4999 23.5708C36.9078 23.171 37.2475 22.7017 37.4999 22.1823L37.5005 17.3617C37.1887 17.6233 36.8541 17.858 36.5002 18.0626ZM26.4985 17.3607L26.4982 22.1784C26.7506 22.699 27.0906 23.1692 27.4991 23.5698L27.4988 18.0622C27.1449 17.8575 26.8102 17.6225 26.4985 17.3607ZM33 9H31C28.3112 9 26.1182 11.1223 26.0046 13.7831L26 14L25.999 15.3162C27.0313 16.8698 28.7681 17.9148 30.7535 17.995L31 18H33C35.0867 18 36.9247 16.9347 37.9997 15.3183L38 14C38 11.3112 35.8777 9.11818 33.2169 9.00462L33 9Z" fill="#698796"/>
    <path fill-rule="evenodd" clip-rule="evenodd" d="M40.4711 7.81597L44.3682 5.56597L43.8971 4.75L48.1782 5.16506L46.3971 9.08013L45.8682 8.16405L41.9711 10.414L40.4711 7.81597Z" fill="#A5B7C0"/>
    <path fill-rule="evenodd" clip-rule="evenodd" d="M20.3993 16.816L16.5022 19.066L16.0311 18.25L14.25 22.1651L18.5311 22.5801L18.0022 21.664L21.8993 19.414L20.3993 16.816Z" fill="#A5B7C0"/>
</svg>
