<?xml version="1.0" encoding="UTF-8"?>
<svg width="64px" height="64px" viewBox="0 0 64 64" version="1.1" xmlns="http://www.w3.org/2000/svg" xmlns:xlink="http://www.w3.org/1999/xlink">
    <title>joy1</title>
    <g id="joy1" stroke="none" stroke-width="1" fill="none" fill-rule="evenodd">
        <path d="M33,8 C35.9737605,8 38.4422322,10.1633984 38.9174083,13.0021884 L38.9169856,13.0003332 L38.9223484,13.032169 C38.9538553,13.2264514 38.9760325,13.4238622 38.9884055,13.6239269 C38.9898604,13.647494 38.9911686,13.6708445 38.9923428,13.6942313 C38.9974214,13.7952685 39,13.8973331 39,14 L39,24 C39,25.51016 38.4420819,26.8900112 37.5211206,27.9446788 L55.3823529,37.4705882 C56.5716225,38.1048653 57.3097946,39.2540831 57.4685082,40.4964844 L57.4892713,40.3035685 L57.499,40.110745 L57.4993584,46.110292 C57.4832684,46.7106101 57.3312296,47.3164445 57.0294118,47.8823529 C56.655942,48.5826088 56.0826088,49.155942 55.3823529,49.5294118 L33.8823529,60.9960784 C32.7058824,61.6235294 31.2941176,61.6235294 30.1176471,60.9960784 L8.61764706,49.5294118 C7.33633596,48.8460458 6.57864823,47.564949 6.50511355,46.213576 L6.5,46 L6.5,40 L6.50647561,40.2257395 C6.51075496,40.3007937 6.51714592,40.3756254 6.52562085,40.4501443 L6.53166057,40.4891774 C6.59170088,40.0221019 6.73584102,39.5577981 6.97058824,39.1176471 C7.34405802,38.4173912 7.91739122,37.844058 8.61764706,37.4705882 L26.4784164,27.9441485 C25.5577311,26.8895487 25,25.5099069 25,24 L25,14 C25,13.6813205 25.0248446,13.3684439 25.0727027,13.0632012 L25.083,13 C25.5560313,10.1649206 28.0251935,8 31,8 L33,8 Z M56.4993584,43.998 L56.3141061,44.1328978 L56.0876627,44.2783198 L55.8529412,44.4117647 L34.3269494,55.8918094 L34.0905938,56.0086467 C33.4748924,56.2921111 32.8166051,56.4436926 32.1557942,56.4642524 L32.0653186,56.4661338 L31.9218075,56.4660587 L31.8457771,56.4636952 C31.1772005,56.4436308 30.5126034,56.2889766 29.8933393,56.0012147 L29.6470588,55.8784314 L8.12255971,44.398255 L7.90044621,44.2712356 L7.69938689,44.1424118 L7.499,44.001 L7.4997135,45.9760643 L7.50363634,46.1592416 C7.55682099,47.1366347 8.07880399,48.0284035 8.91652632,48.5481539 L9.08823529,48.6470588 L30.5882353,60.1137255 C31.4117647,60.5529412 32.3890196,60.5822222 33.2330458,60.2015686 L33.4117647,60.1137255 L54.9117647,48.6470588 C55.4369566,48.3669565 55.8669565,47.9369566 56.1470588,47.4117647 C56.3321561,47.0647074 56.4451007,46.693009 56.4845321,46.3281412 L56.4993584,46.110292 L56.4993584,43.998 Z M36.7619909,28.6743908 C36.2397471,29.0952305 35.6455196,29.4303415 35.0006859,29.6583461 L35,38 C35,39.1045695 34.1045695,40 33,40 L31,40 C29.8954305,40 29,39.1045695 29,38 L28.999,35.627 L28.9986638,36.1185819 C27.7738768,36.6852263 27,37.5744117 27,38.5 C27,40.0511162 29.1733257,41.5 32,41.5 C34.8266743,41.5 37,40.0511162 37,38.5 C37,37.5741577 36.2256983,36.6847382 35.0003275,36.1181154 L35.0008043,34.2977357 C39.0574959,35.1261685 42,37.5897252 42,40.5 C42,44.0898509 37.5228475,47 32,47 C26.4771525,47 22,44.0898509 22,40.5 C22,37.5897252 24.9425041,35.1261685 28.9991957,34.2977357 L28.999,34.359 L29.0003218,29.6587023 C28.3553424,29.4307764 27.7609727,29.0957022 27.2385994,28.6748664 L9.08823529,38.3529412 C8.56304341,38.6330435 8.13304351,39.0630434 7.85294118,39.5882353 C7.10212269,40.99602 7.58716586,42.7332428 8.92956035,43.5562271 L9.08823529,43.6470588 L30.5882353,55.1137255 C31.4117647,55.5529412 32.3890196,55.5822222 33.2330458,55.2015686 L33.4117647,55.1137255 L54.9117647,43.6470588 C55.4369566,43.3669565 55.8669565,42.9369566 56.1470588,42.4117647 C56.8978773,41.00398 56.4128341,39.2667572 55.0704397,38.4437729 L54.9117647,38.3529412 L36.7619909,28.6743908 Z M36.2092167,35.6495083 L36.3253414,35.727796 C37.3624252,36.4467813 38,37.4237528 38,38.5 C38,40.709139 35.3137085,42.5 32,42.5 C28.6862915,42.5 26,40.709139 26,38.5 C26,37.3840677 26.685461,36.3748673 27.7909994,35.6493215 C24.9219965,36.5955204 23,38.4630622 23,40.5 C23,43.4246028 26.9621495,46 32,46 C37.0378505,46 41,43.4246028 41,40.5 C41,38.4630622 39.0780035,36.5955204 36.2092167,35.6495083 Z M25.9991589,23.3165298 L26,24 C26,25.2970102 26.4984177,26.4993363 27.3334829,27.4005537 L27.3892999,27.458745 C27.6346479,27.7148034 27.9069663,27.9448137 28.2016905,28.1442112 C28.4874182,28.338477 28.7961619,28.503823 29.1236614,28.6363519 L29.3335138,28.7158433 L30.0003491,28.9514928 L30,38 C30,38.5128358 30.3860402,38.9355072 30.8833789,38.9932723 L31,39 L33,39 C33.5128358,39 33.9355072,38.6139598 33.9932723,38.1165553 L34,37.9999178 L34.000744,28.951241 L34.6673246,28.715547 C34.993621,28.6001729 35.3028445,28.4528188 35.5917667,28.2776048 L35.7852217,28.1530359 C36.0849539,27.9516239 36.3616855,27.7186222 36.6106476,27.4587998 L36.6668821,27.4001602 C37.4526239,26.5519923 37.9402157,25.4372043 37.9948606,24.2278251 L38,24 L38.0001724,23.3175358 C36.925275,24.9343767 35.0870823,26 33,26 L31,26 C28.9124848,26 27.0739626,24.9339347 25.9991589,23.3165298 Z M30.499,18.98 L30.4994415,24.9752569 C30.593259,24.9845823 30.6878395,24.9913144 30.7831104,24.9953805 L31,25 L31.5,25 L31.499,18.999 L30.9798327,18.9997966 L30.713078,18.9942112 L30.499,18.98 Z M33.311694,18.9931449 L33,19 L32.499,19 L32.5,25 L33,25 C33.1686495,25 33.3353488,24.9916502 33.499707,24.9753415 L33.4997838,18.9823378 C33.4372927,18.9867679 33.3745923,18.9903737 33.311694,18.9931449 Z M28.4984152,18.5390825 L28.4987227,24.3303499 C28.8124648,24.5119636 29.1477724,24.6604595 29.4998644,24.7710563 L29.4996493,18.8384512 C29.1561056,18.7632974 28.8216434,18.6628518 28.4984152,18.5390825 Z M34.4994772,18.838448 L34.499582,24.7712301 C34.8514493,24.6607491 35.1865579,24.5124187 35.5001364,24.3310101 L35.5003185,18.5393018 C35.1771176,18.6629881 34.8427762,18.7633497 34.4994772,18.838448 Z M36.5002355,18.0625781 L36.4998838,23.5708303 C36.9078118,23.1709571 37.2475121,22.7017393 37.4999064,22.1822554 L37.5005284,17.3616575 C37.1887348,17.6233066 36.8540704,17.8580423 36.5002355,18.0625781 Z M26.4985145,17.3607304 L26.4982059,22.1783657 C26.7505797,22.6989572 27.0905955,23.1691645 27.4990802,23.5698145 L27.4988076,18.0621948 C27.1448728,17.8574578 26.8102228,17.6225219 26.4985145,17.3607304 Z M33,9 L31,9 C28.3112453,9 26.1181819,11.1223067 26.0046195,13.7831104 L26,14 L25.999015,15.3162009 C27.0312884,16.8698488 28.7681306,17.9147883 30.7534608,17.9950269 L31,18 L33,18 C35.0867495,18 36.9246887,16.9347166 37.9996581,15.3183093 L38,14 C38,11.3112453 35.8776933,9.11818189 33.2168896,9.00461951 L33,9 Z" id="base" fill="#698796" fill-rule="nonzero"></path>
        <path d="M21.5524952,24 L24,25.5483236 L20.5964432,27.6974806 L21.6361149,28.3487403 L16,29 L17.1491108,25.509248 L18.1340629,26.1344573 L21.5524952,24 Z M42.4475048,24 L45.8659371,26.1344573 L46.8508892,25.509248 L48,29 L42.3638851,28.3487403 L43.4035568,27.6974806 L40,25.5483236 L42.4475048,24 Z M48,10 L46.9293733,13.4516764 L45.8659371,12.8655427 L42.4475048,15 L40,13.4516764 L43.4035568,11.3025194 L42.3638851,10.6512597 L48,10 Z M16,10 L21.6361149,10.6512597 L20.5964432,11.3025194 L24,13.4516764 L21.5524952,15 L18.1340629,12.8655427 L17.10443,13.4516764 L16,10 Z" id="arrow" fill="#A5B7C0"></path>
    </g>
</svg>