<?xml version="1.0" encoding="UTF-8"?>
<svg width="20px" height="20px" viewBox="0 0 20 20" version="1.1" xmlns="http://www.w3.org/2000/svg" xmlns:xlink="http://www.w3.org/1999/xlink">
    <title>reset</title>
    <g id="reset" stroke="none" stroke-width="1" fill="none" fill-rule="evenodd">
        <path d="M12,13 L12,14 L11,14 L11,13 L12,13 Z M10,13 L10,14 L9,14 L9,13 L10,13 Z M8,13 L8,14 L7,14 L7,13 L8,13 Z M6,10 L2,6.5 L6,3 L6,6 L14.16,6 C16.2807734,6 18,7.790861 18,10 C18,12.1421954 16.3833903,13.8910789 14.3516547,13.9951047 L14.16,14 L13,14 L13,13 L14.16,13 C15.7505801,13 17.04,11.6568542 17.04,10 C17.04,8.40231912 15.8410368,7.09633912 14.3292219,7.00509269 L14.16,7 L6,7 L6,10 Z" id="Combined-Shape" fill="#FFFFFF" fill-rule="nonzero"></path>
    </g>
</svg>