<?xml version="1.0" encoding="UTF-8"?>
<svg width="64px" height="64px" viewBox="0 0 64 64" version="1.1" xmlns="http://www.w3.org/2000/svg" xmlns:xlink="http://www.w3.org/1999/xlink">
    <title>jojy2</title>
    <g id="jojy2" stroke="none" stroke-width="1" fill="none" fill-rule="evenodd">
        <path d="M35,7 C42.1797017,7 48,12.8202983 48,20 L48,43 C48,50.7319865 41.7319865,57 34,57 L30,57 C22.2680135,57 16,50.7319865 16,43 L16,20 C16,12.8202983 21.8202983,7 29,7 L35,7 Z M34,49 L29,49 L29.0001337,48.9648454 C23.5425672,48.57973 18.9486395,45.0664847 17.0003933,40.2071523 L17,43 C17,50.0771346 22.6551918,55.8334283 29.6931438,55.9964496 L30,56 L34,56 C41.0771346,56 46.8334283,50.3448082 46.9964496,43.3068562 L47,43 L47.0013466,40.2028105 C44.9362964,45.3584968 39.8934075,49 34,49 Z M32,31.9996586 L30,31.9996586 L30,48 L32,47.9996586 L32,31.9996586 Z M35.0004038,31.9670028 C34.7795935,31.9816099 34.5575646,31.991417 34.3344269,31.9963249 L34,32 L33,31.9996586 L33,47.9996586 L34,48 C34.3367149,48 34.6704398,47.9871986 35.0007147,47.962056 L35.0004038,31.9670028 Z M27.0004703,31.6992899 L27.0001784,47.6521785 C27.6494875,47.8055467 28.3176086,47.9102249 29.0004752,47.9621465 L29.0002008,31.9671271 C28.3209136,31.9222915 27.6532824,31.8320436 27.0004703,31.6992899 Z M38.0010425,31.4589686 C37.3502045,31.638922 36.6822644,31.7760209 36.0006316,31.8671834 L36.0010472,47.8469419 C36.6868269,47.7409924 37.3549093,47.581446 38.0008803,47.3727168 L38.0010425,31.4589686 Z M23.9998178,30.7501923 L24.000474,46.5358258 C24.6378905,46.8680098 25.3062881,47.148913 26.0001957,47.3730645 L26.0001823,31.45968 C25.3128911,31.2697516 24.6447765,31.0320367 23.9998178,30.7501923 Z M41.0011569,30.2674057 C40.3599607,30.6062528 39.6917855,30.8998696 39.0010783,31.1442361 L39.0004694,47.0034775 C39.7004551,46.7115372 40.36945,46.3601524 41.0011479,45.9556292 L41.0011569,30.2674057 Z M20.9998325,29.000237 L21.0000673,44.3809202 C21.6125019,44.9686337 22.282369,45.4969554 23.0004096,45.9566264 L22.999858,30.268281 C22.2989263,29.8978694 21.6303293,29.4734219 20.9998325,29.000237 Z M44.0011061,28.1797751 C43.3783376,28.7365768 42.7092089,29.2417342 42.0006475,29.6889851 L42.0004998,45.2472937 C42.7346644,44.6732876 43.4055671,44.022102 44.0010037,43.305941 L44.0011061,28.1797751 Z M17.9999669,26.0033526 L18,40 C18.4989824,41.2052182 19.177529,42.318166 20.0000117,43.3071621 L19.9999587,28.180527 C19.2648347,27.5232074 18.5943974,26.794015 17.9999669,26.0033526 Z M46.0005989,26.00335 C45.6878649,26.4192953 45.3541101,26.8181822 45.0009923,27.198512 L45.0010031,41.929783 C45.386458,41.3191583 45.7224777,40.6742093 46.0034411,40.0005568 L46,40 L46.0005989,26.00335 Z M35,8 L29,8 C22.4745433,8 17.1656072,13.2085444 17.0037999,19.6950252 L17,20 L16.9995177,22.2047575 C19.0264134,27.2630609 23.9198139,30.8633007 29.6702968,30.996194 L30,31 L34,31 C36.5504148,31 38.9415456,30.3180235 41.0009807,29.1264733 L41,29 L41.2145464,29.0003681 C43.8120349,27.4354061 45.8599849,25.050942 47.0004753,22.2048793 L47,20 C47,13.4745433 41.7914556,8.16560725 35.3049748,8.00379986 L35,8 Z M32,13 C36.418278,13 40,15.6862915 40,19 C40,22.3137085 36.418278,25 32,25 C27.581722,25 24,22.3137085 24,19 C24,15.6862915 27.581722,13 32,13 Z M32,14 C28.081722,14 25,16.3112915 25,19 C25,21.6887085 28.081722,24 32,24 C35.918278,24 39,21.6887085 39,19 C39,16.3112915 35.918278,14 32,14 Z" id="base" fill="#698796" fill-rule="nonzero"></path>
        <path d="M54,22 L57,25.5 L54.9891151,25.5008865 C54.6104785,34.198461 44.4022296,41 32,41 C19.5977704,41 9.38952155,34.198461 9.01088487,25.5008865 L7,25.5 L10,22 L13,25.5 L11.0134184,25.5006175 C11.4110029,32.9090318 20.5947145,39 32,39 C43.4052855,39 52.5889971,32.9090318 52.9865816,25.5006175 L51,25.5 L54,22 Z" id="arrow" fill="#A5B7C0" fill-rule="nonzero"></path>
    </g>
</svg>