<?xml version="1.0" encoding="utf-8"?>
<!-- Generator: Adobe Illustrator 23.0.4, SVG Export Plug-In . SVG Version: 6.00 Build 0)  -->
<svg version="1.1" id="Layer_1" xmlns="http://www.w3.org/2000/svg" xmlns:xlink="http://www.w3.org/1999/xlink" x="0px" y="0px"
	 viewBox="0 0 256 256" style="enable-background:new 0 0 256 256;" xml:space="preserve">
<style type="text/css">
	.st0{fill:#303F47;}
</style>
<path class="st0" d="M130,184c14.3,0,26-11.7,26-26s-11.7-26-26-26s-26,11.7-26,26S115.7,184,130,184z M130,136c12.1,0,22,9.9,22,22
	s-9.9,22-22,22s-22-9.9-22-22S117.9,136,130,136z"/>
<path class="st0" d="M218.8,29.5C203.7,27.4,187.5,26,184,26H72c-3.5,0-19.7,1.4-34.8,3.5C8.4,33.7,6,37.1,6,40v48
	c0,0.6,0.2,1.1,0.7,1.5l9.2,8c2.6,2.4,10.5,5.6,16.1,6.3V124c0,54,44,98,98,98s98-44,98-98v-20.2c5.9-0.8,10.7-4.9,12.1-6.3l9.2-8.1
	c0.4-0.4,0.7-0.9,0.7-1.5V40C250,37.1,247.6,33.7,218.8,29.5z M39.5,33.2C53.9,31.3,68.9,30,72,30h112c3.1,0,18.1,1.3,32.5,3.2
	c25,3.5,29,6.4,29.5,7v44.1c-1.5-0.5-3.5-1-6-1.5c-4.7-0.9-11.1-1.7-19.2-2.6C206.6,78.9,191.5,78,188,78H68
	c-3.5,0-18.5,0.9-32.8,2.4c-8,0.8-14.5,1.6-19.2,2.5c-2.6,0.5-4.5,1-6,1.5V40.2C10.6,39.6,14.5,36.7,39.5,33.2z M130,218
	c-51.8,0-94-42.2-94-94v-20h44v51.7c0,27.7,22.4,50.3,50,50.3s50-22.6,50-50.3V104h44v20C224,175.8,181.8,218,130,218z M84,104h92
	v51.7c0,25.5-20.6,46.3-46,46.3s-46-20.8-46-46.3V104z M237.4,94.6c-2.8,2.6-7.2,5.4-11.4,5.4H34c-5.1,0-13.6-3.6-15.4-5.4l-7.4-6.5
	C20.1,85,60.1,82,68,82h120c9.4,0,48.2,3.1,56.8,6.1L237.4,94.6z"/>
</svg>
