<?xml version="1.0" encoding="UTF-8"?>
<svg width="128px" height="128px" viewBox="0 0 128 128" version="1.1" xmlns="http://www.w3.org/2000/svg" xmlns:xlink="http://www.w3.org/1999/xlink">
    <title>backup</title>
    <g id="backup" stroke="none" stroke-width="1" fill="none" fill-rule="evenodd">
        <path d="M64,9 L64.7299566,9.00157092 L65.093836,9.00353093 L65.093836,9.00353093 L65.4569681,9.00627072 L66.9017989,9.02497916 L67.61944,9.0389489 L67.61944,9.0389489 L68.3337793,9.05596972 L69.7521959,9.09908679 L70.8066781,9.13928902 L70.8066781,9.13928902 L71.8528285,9.18615925 L73.2342151,9.25891187 L73.5770802,9.27891578 L73.5770802,9.27891578 L73.9189304,9.29964113 L75.2759592,9.38970828 L76.6158578,9.49112396 L77.9379129,9.60373257 L79.2414113,9.72737849 L80.5256397,9.86190615 L80.8436023,9.8972201 L80.8436023,9.8972201 L81.1603047,9.933202 L82.4142907,10.0837605 L83.0334333,10.1629842 L83.0334333,10.1629842 L83.6472234,10.2448117 L84.8583896,10.4162001 L85.4555873,10.5057221 L85.4555873,10.5057221 L86.047076,10.59777 L87.2125693,10.7893658 C99.2663248,12.8430481 107.405416,16.5129967 107.968767,21.0005669 L108,21 L108,108 L107.968641,108.000431 C107.404209,112.487548 99.265431,116.157104 87.2125693,118.210634 L86.047076,118.40223 C85.6546731,118.464433 85.2584046,118.524965 84.8583896,118.5838 L83.6472234,118.755188 C83.2398339,118.810604 82.8288167,118.864296 82.4142907,118.91624 L81.1603047,119.066798 C80.9495923,119.091008 80.7380323,119.114774 80.5256397,119.138094 L79.2414113,119.272622 L77.9379129,119.396267 L76.6158578,119.508876 L75.2759592,119.610292 L73.9189304,119.700359 C73.6913711,119.714416 73.4631277,119.727993 73.2342151,119.741088 L71.8528285,119.813841 C71.158239,119.847296 70.4578944,119.876349 69.7521959,119.900913 L68.3337793,119.94403 C67.8586735,119.95639 67.3813071,119.966729 66.9017989,119.975021 L65.4569681,119.993729 C64.9732953,119.997901 64.4875996,120 64,120 C63.5124004,120 63.0267047,119.997901 62.5430319,119.993729 L61.0982011,119.975021 C60.6186929,119.966729 60.1413265,119.95639 59.6662207,119.94403 L58.2478041,119.900913 C57.5421056,119.876349 56.841761,119.847296 56.1471715,119.813841 L54.7657849,119.741088 C54.5368723,119.727993 54.3086289,119.714416 54.0810696,119.700359 L52.7240408,119.610292 L51.3841422,119.508876 L50.0620871,119.396267 L48.7585887,119.272622 L47.4743603,119.138094 L46.2101152,118.99284 C45.5831074,118.917558 44.9638608,118.838311 44.3527766,118.755188 L43.1416104,118.5838 C42.7415954,118.524965 42.3453269,118.464433 41.952924,118.40223 L40.7874307,118.210634 C28.7348974,116.15716 20.5962343,112.487748 20.031405,108.000798 L20,108 L20,21 L20.0312334,21.0005669 C20.5868666,16.5744702 28.512108,12.943748 40.2942841,10.8746715 L40.7874307,10.7893658 L41.952924,10.59777 L42.5444127,10.5057221 L42.5444127,10.5057221 L43.1416104,10.4162001 L44.3527766,10.2448117 L45.2754746,10.1230457 L45.2754746,10.1230457 L46.2101152,10.0071599 L47.4743603,9.86190615 L48.7585887,9.72737849 L50.0620871,9.60373257 L51.3841422,9.49112396 L52.7240408,9.38970828 L54.0810696,9.29964113 L54.4229198,9.27891578 L54.4229198,9.27891578 L54.7657849,9.25891187 L56.1471715,9.18615925 L57.1933219,9.13928902 L57.1933219,9.13928902 L58.2478041,9.09908679 L59.6662207,9.05596972 L60.38056,9.0389489 L60.38056,9.0389489 L61.0982011,9.02497916 L62.5430319,9.00627072 C63.0267047,9.00209889 63.5124004,9 64,9 Z M106.000957,94.3725809 C102.828042,97.3145979 96.0794704,99.6999185 87.2125693,101.210634 L86.047076,101.40223 C85.6546731,101.464433 85.2584046,101.524965 84.8583896,101.5838 L83.6472234,101.755188 C83.2398339,101.810604 82.8288167,101.864296 82.4142907,101.91624 L81.1603047,102.066798 C80.9495923,102.091008 80.7380323,102.114774 80.5256397,102.138094 L79.2414113,102.272622 L77.9379129,102.396267 L76.6158578,102.508876 L75.2759592,102.610292 L73.9189304,102.700359 C73.6913711,102.714416 73.4631277,102.727993 73.2342151,102.741088 L71.8528285,102.813841 C71.158239,102.847296 70.4578944,102.876349 69.7521959,102.900913 L68.3337793,102.94403 C67.8586735,102.95639 67.3813071,102.966729 66.9017989,102.975021 L65.4569681,102.993729 C64.9732953,102.997901 64.4875996,103 64,103 C63.5124004,103 63.0267047,102.997901 62.5430319,102.993729 L61.0982011,102.975021 C60.6186929,102.966729 60.1413265,102.95639 59.6662207,102.94403 L58.2478041,102.900913 C57.5421056,102.876349 56.841761,102.847296 56.1471715,102.813841 L54.7657849,102.741088 C54.5368723,102.727993 54.3086289,102.714416 54.0810696,102.700359 L52.7240408,102.610292 L51.3841422,102.508876 L50.0620871,102.396267 L48.7585887,102.272622 L47.4743603,102.138094 L46.2101152,101.99284 C45.5831074,101.917558 44.9638608,101.838311 44.3527766,101.755188 L43.1416104,101.5838 C42.7415954,101.524965 42.3453269,101.464433 41.952924,101.40223 L40.7874307,101.210634 C31.9215518,99.7000927 25.1735137,97.3151479 22.0001408,94.3735984 L22,107.5 C22,110.170384 26.5339267,112.744842 33.8781658,114.676222 L34.7913889,114.909466 L35.7320002,115.136059 L36.6992965,115.355777 L37.6925745,115.568398 L38.7111311,115.773697 C39.2266118,115.87448 39.7513082,115.972433 40.2848248,116.067431 L41.3635011,116.253452 L42.4649946,116.431369 C42.6504392,116.460335 42.8368052,116.488953 43.0240781,116.51722 L44.1584789,116.682566 C44.3493202,116.709408 44.5410389,116.73589 44.7336205,116.762005 L45.8993464,116.914277 C46.0953206,116.938912 46.2921283,116.963172 46.4897549,116.987053 L47.6852236,117.125748 L48.8996419,117.255113 C49.103585,117.275884 49.3082884,117.296256 49.5137374,117.316226 L50.7552613,117.431177 L52.0139768,117.53624 L53.2891805,117.631191 L54.5801692,117.715808 C54.7966104,117.729037 55.0136799,117.741826 55.2313632,117.754171 L56.5447109,117.822867 C56.7647906,117.833414 56.9854548,117.843508 57.2066888,117.853144 L58.5408133,117.905417 C58.9877225,117.920982 59.4367937,117.934676 59.8879098,117.946462 L61.2472753,117.976057 C61.4748195,117.980022 61.7028457,117.983502 61.9313391,117.98649 L63.3077893,117.99849 C63.5380932,117.999495 63.7688349,118 64,118 L64.6922107,117.99849 L66.0686609,117.98649 C66.2971543,117.983502 66.5251805,117.980022 66.7527247,117.976057 L68.1120902,117.946462 C68.5632063,117.934676 69.0122775,117.920982 69.4591867,117.905417 L70.7933112,117.853144 L72.1137603,117.789866 C72.3326564,117.778415 72.5509535,117.766515 72.7686368,117.754171 L74.0672543,117.674805 C74.282424,117.660701 74.4969506,117.646161 74.7108195,117.631191 L75.9860232,117.53624 L77.2447387,117.431177 L78.4862626,117.316226 C78.6917116,117.296256 78.896415,117.275884 79.1003581,117.255113 L80.3147764,117.125748 L81.5102451,116.987053 L82.6860611,116.839251 C82.8803536,116.813871 83.073798,116.788121 83.2663795,116.762005 L84.4113979,116.600962 C84.7895413,116.545843 85.1641162,116.4893 85.5350054,116.431369 L86.6364989,116.253452 L87.7151752,116.067431 C88.2486918,115.972433 88.7733882,115.87448 89.2888689,115.773697 L90.3074255,115.568398 L91.3007035,115.355777 L92.2679998,115.136059 L93.2086111,114.909466 L94.1218342,114.676222 C101.316191,112.784258 105.813771,110.275196 105.99435,107.663368 L106,107.5 L106.000957,94.3725809 Z M106.000957,25.3725809 C102.895551,28.2520018 96.365025,30.5981635 87.7756508,32.1130208 L87.2125693,32.2106342 L86.047076,32.40223 L85.4555873,32.4942779 L85.4555873,32.4942779 L84.8583896,32.5837999 L83.6472234,32.7551883 L82.7245254,32.8769543 L82.7245254,32.8769543 L81.7898848,32.9928401 L80.5256397,33.1380938 L79.2414113,33.2726215 L77.9379129,33.3962674 L76.6158578,33.508876 L75.2759592,33.6102917 L73.9189304,33.7003589 L73.5770802,33.7210842 L73.5770802,33.7210842 L73.2342151,33.7410881 L71.8528285,33.8138407 L70.8066781,33.860711 L70.8066781,33.860711 L69.7521959,33.9009132 L68.3337793,33.9440303 L67.61944,33.9610511 L67.61944,33.9610511 L66.9017989,33.9750208 L65.4569681,33.9937293 C64.9732953,33.9979011 64.4875996,34 64,34 L63.2700434,33.9984291 L63.2700434,33.9984291 L62.5430319,33.9937293 L61.0982011,33.9750208 L60.38056,33.9610511 L60.38056,33.9610511 L59.6662207,33.9440303 L58.2478041,33.9009132 L57.1933219,33.860711 L57.1933219,33.860711 L56.1471715,33.8138407 L54.7657849,33.7410881 L54.4229198,33.7210842 L54.4229198,33.7210842 L54.0810696,33.7003589 L52.7240408,33.6102917 L51.3841422,33.508876 L50.0620871,33.3962674 L48.7585887,33.2726215 L47.4743603,33.1380938 L47.1563977,33.1027799 L47.1563977,33.1027799 L46.8396953,33.066798 L45.5857093,32.9162395 L44.9665667,32.8370158 L44.9665667,32.8370158 L44.3527766,32.7551883 L43.1416104,32.5837999 L42.5444127,32.4942779 L42.5444127,32.4942779 L41.952924,32.40223 L40.7874307,32.2106342 C31.9214769,30.7000799 25.1733997,28.3151076 22.0000603,25.3735238 L22,38.5 C22,41.1703841 26.5339267,43.7448418 33.8781658,45.6762217 L34.7913889,45.909466 L35.7320002,46.1360589 L36.6992965,46.3557772 L37.6925745,46.5683978 L38.7111311,46.7736973 C39.2266118,46.8744796 39.7513082,46.9724328 40.2848248,47.0674313 L41.3635011,47.2534515 L42.4649946,47.4313695 C42.6504392,47.4603349 42.8368052,47.4889533 43.0240781,47.5172203 L44.1584789,47.6825661 C44.3493202,47.7094082 44.5410389,47.7358895 44.7336205,47.7620053 L45.8993464,47.9142767 C46.0953206,47.9389119 46.2921283,47.9631723 46.4897549,47.9870532 L47.6852236,48.125748 L48.8996419,48.2551126 C49.103585,48.2758835 49.3082884,48.2962563 49.5137374,48.3162264 L50.7552613,48.4311773 L51.2780776,48.4744592 C50.3647036,49.0154421 49.4887298,49.6129038 48.654966,50.2620347 L47.4743603,50.1380938 L46.2101152,49.9928401 C45.5831074,49.9175576 44.9638608,49.8383111 44.3527766,49.7551883 L43.1416104,49.5837999 C42.7415954,49.5249649 42.3453269,49.464433 41.952924,49.40223 L40.7874307,49.2106342 C31.9215518,47.7000927 25.1735137,45.3151479 22.0001408,42.3735984 L22,56.5 C22,59.1703841 26.5339267,61.7448418 33.8781658,63.6762217 L34.7913889,63.909466 L35.7320002,64.1360589 L36.6992965,64.3557772 L37.6925745,64.5683978 L38.7111311,64.7736973 C38.9766719,64.8256135 39.2446582,64.876779 39.5150359,64.9271766 C39.3797336,65.5832759 39.2700608,66.2497973 39.187279,66.9246342 C31.1113831,65.4069807 24.9798871,63.1356662 22.0001408,60.3735984 L22,73.5 C22,76.1703841 26.5339267,78.7448418 33.8781658,80.6762217 L34.7913889,80.909466 L35.7320002,81.1360589 L36.6992965,81.3557772 L37.6925745,81.5683978 L38.7111311,81.7736973 C39.2266118,81.8744796 39.7513082,81.9724328 40.2848248,82.0674313 L41.3635011,82.2534515 L42.2893142,82.4040149 C42.7377731,83.1872605 43.2273962,83.9439134 43.7552343,84.6710248 L43.1416104,84.5837999 C42.7415954,84.5249649 42.3453269,84.464433 41.952924,84.40223 L40.7874307,84.2106342 C31.9215518,82.7000927 25.1735137,80.3151479 22.0001408,77.3735984 L22,90.5 C22,93.1703841 26.5339267,95.7448418 33.8781658,97.6762217 L34.7913889,97.909466 L35.7320002,98.1360589 L36.6992965,98.3557772 L37.6925745,98.5683978 L38.7111311,98.7736973 C39.2266118,98.8744796 39.7513082,98.9724328 40.2848248,99.0674313 L41.3635011,99.2534515 L42.4649946,99.4313695 C42.6504392,99.4603349 42.8368052,99.4889533 43.0240781,99.5172203 L44.1584789,99.6825661 C44.3493202,99.7094082 44.5410389,99.7358895 44.7336205,99.7620053 L45.8993464,99.9142767 C46.0953206,99.9389119 46.2921283,99.9631723 46.4897549,99.9870532 L47.6852236,100.125748 L48.8996419,100.255113 C49.103585,100.275884 49.3082884,100.296256 49.5137374,100.316226 L50.7552613,100.431177 L52.0139768,100.53624 L53.2891805,100.631191 L54.5801692,100.715808 C54.7966104,100.729037 55.0136799,100.741826 55.2313632,100.754171 L56.5447109,100.822867 C56.7647906,100.833414 56.9854548,100.843508 57.2066888,100.853144 L58.5408133,100.905417 C58.9877225,100.920982 59.4367937,100.934676 59.8879098,100.946462 L61.2472753,100.976057 C61.4748195,100.980022 61.7028457,100.983502 61.9313391,100.98649 L63.3077893,100.99849 C63.5380932,100.999495 63.7688349,101 64,101 L64.6922107,100.99849 L66.0686609,100.98649 C66.2971543,100.983502 66.5251805,100.980022 66.7527247,100.976057 L68.1120902,100.946462 C68.5632063,100.934676 69.0122775,100.920982 69.4591867,100.905417 L70.7933112,100.853144 L72.1137603,100.789866 C72.3326564,100.778415 72.5509535,100.766515 72.7686368,100.754171 L74.0672543,100.674805 C74.282424,100.660701 74.4969506,100.646161 74.7108195,100.631191 L75.9860232,100.53624 L77.2447387,100.431177 L78.4862626,100.316226 C78.6917116,100.296256 78.896415,100.275884 79.1003581,100.255113 L80.3147764,100.125748 L81.5102451,99.9870532 L82.6860611,99.8392515 C82.8803536,99.8138714 83.073798,99.7881211 83.2663795,99.7620053 L84.4113979,99.6009618 C84.7895413,99.5458434 85.1641162,99.4893002 85.5350054,99.4313695 L86.6364989,99.2534515 L87.7151752,99.0674313 C88.2486918,98.9724328 88.7733882,98.8744796 89.2888689,98.7736973 L90.3074255,98.5683978 L91.3007035,98.3557772 L92.2679998,98.1360589 L93.2086111,97.909466 L94.1218342,97.6762217 C101.316191,95.7842577 105.813771,93.2751962 105.99435,90.6633684 L106,90.5 L106.000957,77.3725809 C102.828042,80.3145979 96.0794704,82.6999185 87.2125693,84.2106342 L86.047076,84.40223 C85.6546731,84.464433 85.2584046,84.5249649 84.8583896,84.5837999 L84.2447657,84.6710248 C84.7726038,83.9439134 85.2622269,83.1872605 85.7106858,82.4040149 L86.6364989,82.2534515 L87.7151752,82.0674313 C88.2486918,81.9724328 88.7733882,81.8744796 89.2888689,81.7736973 L90.3074255,81.5683978 L91.3007035,81.3557772 L92.2679998,81.1360589 L93.2086111,80.909466 L94.1218342,80.6762217 C101.316191,78.7842577 105.813771,76.2751962 105.99435,73.6633684 L106,73.5 L106.000957,60.3725809 C103.021641,63.1350877 96.8897006,65.4067603 88.8116484,66.9244044 C88.7299392,66.2497973 88.6202664,65.5832759 88.4848072,64.9261748 L87.7151752,65.0674313 C88.2486918,64.9724328 88.7733882,64.8744796 89.2888689,64.7736973 L90.3074255,64.5683978 L91.3007035,64.3557772 L92.2679998,64.1360589 L93.2086111,63.909466 L94.1218342,63.6762217 C101.316191,61.7842577 105.813771,59.2751962 105.99435,56.6633684 L106,56.5 L106.000957,42.3725809 C102.828042,45.3145979 96.0794704,47.6999185 87.2125693,49.2106342 L86.047076,49.40223 C85.6546731,49.464433 85.2584046,49.5249649 84.8583896,49.5837999 L83.6472234,49.7551883 C83.2398339,49.8106035 82.8288167,49.8642959 82.4142907,49.9162395 L81.1603047,50.066798 C80.9495923,50.091008 80.7380323,50.1147744 80.5256397,50.1380938 L79.345034,50.2620347 C78.5112702,49.6129038 77.6352964,49.0154421 76.7219224,48.4744592 L77.2447387,48.4311773 L78.4862626,48.3162264 C78.6917116,48.2962563 78.896415,48.2758835 79.1003581,48.2551126 L80.3147764,48.125748 L81.5102451,47.9870532 L82.6860611,47.8392515 C82.8803536,47.8138714 83.073798,47.7881211 83.2663795,47.7620053 L84.4113979,47.6009618 C84.7895413,47.5458434 85.1641162,47.4893002 85.5350054,47.4313695 L86.6364989,47.2534515 L87.7151752,47.0674313 C88.2486918,46.9724328 88.7733882,46.8744796 89.2888689,46.7736973 L90.3074255,46.5683978 L91.3007035,46.3557772 L92.2679998,46.1360589 L93.2086111,45.909466 L94.1218342,45.6762217 C101.316191,43.7842577 105.813771,41.2751962 105.99435,38.6633684 L106,38.5 L106.000957,25.3725809 Z M64.6922107,11.0015104 L63.3077893,11.0015104 L61.9313391,11.0135101 L61.5889512,11.0183602 L61.5889512,11.0183602 L61.2472753,11.0239435 L59.8879098,11.053538 L59.212784,11.0726433 L59.212784,11.0726433 L58.5408133,11.0945834 L57.2066888,11.1468564 L56.875267,11.1616528 L56.875267,11.1616528 L56.5447109,11.1771335 L55.2313632,11.2458294 L54.9053004,11.2646792 L54.9053004,11.2646792 L54.5801692,11.2841924 L53.2891805,11.3688089 L52.0139768,11.4637601 L50.7552613,11.5688227 L49.5137374,11.6837736 L49.2061249,11.7140302 L49.2061249,11.7140302 L48.8996419,11.7448874 L47.6852236,11.874252 L46.4897549,12.0129468 L46.193931,12.0490522 L46.193931,12.0490522 L45.8993464,12.0857233 L44.7336205,12.2379947 L44.4453971,12.2774419 L44.4453971,12.2774419 L44.1584789,12.3174339 L43.0240781,12.4827797 L42.7438507,12.5254432 L42.7438507,12.5254432 L42.4649946,12.5686305 L41.3635011,12.7465485 L40.2848248,12.9325687 L39.4912145,13.0772668 L39.4912145,13.0772668 L38.7111311,13.2263027 L37.6925745,13.4316022 L36.6992965,13.6442228 L35.7320002,13.8639411 L34.7913889,14.090534 L33.8781658,14.3237783 C26.5339267,16.2551582 22,18.8296159 22,21.5 C22,24.1218317 26.3705554,26.6511934 33.4803684,28.5702392 L33.8781658,28.6762217 L34.7913889,28.909466 L35.7320002,29.1360589 L36.6992965,29.3557772 L37.6925745,29.5683978 L38.7111311,29.7736973 L39.4912145,29.9227332 L39.4912145,29.9227332 L40.2848248,30.0674313 L41.3635011,30.2534515 L42.4649946,30.4313695 L43.0240781,30.5172203 L43.0240781,30.5172203 L43.5886021,30.6009618 L44.7336205,30.7620053 L45.0231381,30.8009043 L45.0231381,30.8009043 L45.3139389,30.8392515 L46.4897549,30.9870532 L47.6852236,31.125748 L48.8996419,31.2551126 L49.2061249,31.2859698 L49.2061249,31.2859698 L49.5137374,31.3162264 L50.7552613,31.4311773 L52.0139768,31.5362399 L53.2891805,31.6311911 L53.6104753,31.6533229 L53.6104753,31.6533229 L53.9327457,31.6748052 L55.2313632,31.7541706 L55.5583467,31.7723536 L55.5583467,31.7723536 L55.8862397,31.7898662 L57.2066888,31.8531436 L58.5408133,31.9054166 L59.212784,31.9273567 L59.212784,31.9273567 L59.8879098,31.946462 L61.2472753,31.9760565 L61.5889512,31.9816398 L61.5889512,31.9816398 L61.9313391,31.9864899 L63.3077893,31.9984896 L64,32 L64.6922107,31.9984896 L66.0686609,31.9864899 L66.4110488,31.9816398 L66.4110488,31.9816398 L66.7527247,31.9760565 L68.1120902,31.946462 L68.787216,31.9273567 L68.787216,31.9273567 L69.4591867,31.9054166 L70.7933112,31.8531436 L71.124733,31.8383472 L71.124733,31.8383472 L71.4552891,31.8228665 L72.7686368,31.7541706 L73.0946996,31.7353208 L73.0946996,31.7353208 L73.4198308,31.7158076 L74.7108195,31.6311911 L75.9860232,31.5362399 L77.2447387,31.4311773 L78.4862626,31.3162264 L78.7938751,31.2859698 L78.7938751,31.2859698 L79.1003581,31.2551126 L80.3147764,31.125748 L81.5102451,30.9870532 L81.806069,30.9509478 L81.806069,30.9509478 L82.1006536,30.9142767 L83.2663795,30.7620053 L83.5546029,30.7225581 L83.5546029,30.7225581 L83.8415211,30.6825661 L84.9759219,30.5172203 L85.2561493,30.4745568 L85.2561493,30.4745568 L85.5350054,30.4313695 L86.6364989,30.2534515 L87.7151752,30.0674313 L88.5087855,29.9227332 L88.5087855,29.9227332 L89.2888689,29.7736973 L90.3074255,29.5683978 L91.3007035,29.3557772 L92.2679998,29.1360589 L93.2086111,28.909466 L94.1218342,28.6762217 C101.466073,26.7448418 106,24.1703841 106,21.5 C106,18.8781683 101.629445,16.3488066 94.5196316,14.4297608 L94.1218342,14.3237783 L93.2086111,14.090534 L92.2679998,13.8639411 L91.3007035,13.6442228 L90.3074255,13.4316022 L89.2888689,13.2263027 L88.5087855,13.0772668 L88.5087855,13.0772668 L87.7151752,12.9325687 L86.6364989,12.7465485 L85.5350054,12.5686305 L84.9759219,12.4827797 L84.9759219,12.4827797 L84.4113979,12.3990382 L83.2663795,12.2379947 L82.9768619,12.1990957 L82.9768619,12.1990957 L82.6860611,12.1607485 L81.5102451,12.0129468 L80.3147764,11.874252 L79.1003581,11.7448874 L78.7938751,11.7140302 L78.7938751,11.7140302 L78.4862626,11.6837736 L77.2447387,11.5688227 L75.9860232,11.4637601 L74.7108195,11.3688089 L74.3895247,11.3466771 L74.3895247,11.3466771 L74.0672543,11.3251948 L72.7686368,11.2458294 L72.4416533,11.2276464 L72.4416533,11.2276464 L72.1137603,11.2101338 L70.7933112,11.1468564 L69.4591867,11.0945834 L68.787216,11.0726433 L68.787216,11.0726433 L68.1120902,11.053538 L66.7527247,11.0239435 L66.4110488,11.0183602 L66.4110488,11.0183602 L66.0686609,11.0135101 L64.6922107,11.0015104 Z" id="Combined-Shape" fill="#53707F" fill-rule="nonzero"></path>
        <path d="M64,45 C77.8071187,45 89,56.1928813 89,70 C89,83.8071187 77.8071187,95 64,95 C50.1928813,95 39,83.8071187 39,70 C39,56.1928813 50.1928813,45 64,45 Z M64,47 C51.2974508,47 41,57.2974508 41,70 C41,82.7025492 51.2974508,93 64,93 C76.7025492,93 87,82.7025492 87,70 C87,57.2974508 76.7025492,47 64,47 Z" id="Oval" fill="#53707F" fill-rule="nonzero"></path>
        <path d="M60.6666667,73 L60.6666667,75 L54.5753597,74.9999292 C56.3675777,78.3711671 59.9157115,80.6666667 64,80.6666667 C68.8494891,80.6666667 72.9431045,77.4304592 74.2390446,72.9998456 L76.3093955,72.9995985 C74.962223,78.5473939 69.9621745,82.6666667 64,82.6666667 C59.5207643,82.6666667 55.5845668,80.3416878 53.3323693,76.8326917 L53.3333333,82.3333333 L51.3333333,82.3333333 L51.3333333,73 L60.6666667,73 Z M67.3333333,67 L67.3333333,65 L73.4241106,64.9990746 C71.6317233,61.6283806 68.0838862,59.3333333 64,59.3333333 C59.1505109,59.3333333 55.0568955,62.5695408 53.7609554,67.0001544 L51.6908484,66.9993974 C53.0383803,61.4521091 58.0381852,57.3333333 64,57.3333333 C68.4781205,57.3333333 72.4134732,59.6571547 74.6659483,63.1646877 L74.6666667,57.6666667 L76.6666667,57.6666667 L76.6666667,67 L67.3333333,67 Z" id="Combined-Shape" fill="#53707F" fill-rule="nonzero"></path>
    </g>
</svg>