<svg width="240" height="240" viewBox="0 0 240 240" fill="none" xmlns="http://www.w3.org/2000/svg">
<path d="M120 208C166.392 208 204 170.392 204 124C204 77.6081 166.392 40 120 40C73.6081 40 36 77.6081 36 124C36 170.392 73.6081 208 120 208Z" fill="#263137"/>
<path d="M120 214C169.706 214 210 173.706 210 124C210 74.2944 169.706 34 120 34C70.2944 34 30 74.2944 30 124C30 173.706 70.2944 214 120 214Z" stroke="#3A4D57" stroke-width="3" stroke-miterlimit="10" stroke-linecap="round" stroke-linejoin="round"/>
<path d="M132.5 159.5C129.311 179.745 130.399 188.24 138 209" stroke="#3A4D57" stroke-width="4"/>
<path d="M70.2673 48.583C138.524 66.1828 183.877 126.752 171.289 198.364" stroke="#3A4D57" stroke-width="4"/>
<path d="M31.5669 112.423C93.5721 99.9289 153.037 116.321 203.973 153.134" stroke="#3A4D57" stroke-width="4"/>
<path d="M168.273 49.0908C97.9132 71.632 69.0164 122.094 70.2718 196.364C121.726 173.334 185.233 129.62 189.893 67.1871" stroke="#3A4D57" stroke-width="4"/>
<path d="M95 110C95 113.866 91.866 117 88 117C84.134 117 81 113.866 81 110C81 106.134 84.134 103 88 103C91.866 103 95 106.134 95 110Z" fill="white" stroke="#445B67" stroke-width="4"/>
<path d="M127 72C127 75.866 123.866 79 120 79C116.134 79 113 75.866 113 72C113 68.134 116.134 65 120 65C123.866 65 127 68.134 127 72Z" fill="white" stroke="#445B67" stroke-width="4"/>
<path d="M145 211C145 214.866 141.866 218 138 218C134.134 218 131 214.866 131 211C131 207.134 134.134 204 138 204C141.866 204 145 207.134 145 211Z" fill="white" stroke="#445B67" stroke-width="4"/>
<path d="M171 130C171 133.866 167.866 137 164 137C160.134 137 157 133.866 157 130C157 126.134 160.134 123 164 123C167.866 123 171 126.134 171 130Z" fill="white" stroke="#445B67" stroke-width="4"/>
<path d="M76 198C76 201.866 72.866 205 69 205C65.134 205 62 201.866 62 198C62 194.134 65.134 191 69 191C72.866 191 76 194.134 76 198Z" fill="white" stroke="#445B67" stroke-width="4"/>
<path d="M83 161.559C83 153.484 76.6978 147 69 147C61.3022 147 55 153.484 55 161.559C55 163.467 55.8182 165.897 57.1584 168.553C58.4853 171.182 60.2652 173.922 62.0616 176.418C63.8555 178.91 65.6517 181.139 67.0004 182.747C67.6175 183.482 68.1401 184.086 68.5247 184.524C68.938 184.084 69.5053 183.471 70.1775 182.722C71.6195 181.114 73.5397 178.885 75.4575 176.392C77.3781 173.896 79.2803 171.157 80.698 168.528C82.1313 165.871 83 163.451 83 161.559Z" fill="#4E6977" stroke="#587787" stroke-width="2"/>
<path fill-rule="evenodd" clip-rule="evenodd" d="M69.9142 154.707L69.2071 154L68.5 154.707L61 162.207L62.4142 163.621L69.2071 156.828L76 163.621L77.4142 162.207L69.9142 154.707ZM63.3547 164.229C63.2602 164.323 63.2071 164.45 63.2071 164.584V167.414H75.2071V164.436C75.2071 164.3 75.1522 164.171 75.0549 164.076L69.2071 158.414L63.3547 164.229Z" fill="white"/>
<path d="M134 35.5591C134 27.4835 127.698 21 120 21C112.302 21 106 27.4835 106 35.5591C106 37.467 106.818 39.8966 108.158 42.5527C109.485 45.1824 111.265 47.922 113.062 50.4177C114.856 52.91 116.652 55.1394 118 56.7467C118.618 57.4821 119.14 58.0863 119.525 58.5245C119.938 58.0843 120.505 57.4712 121.177 56.7218C122.619 55.1142 124.54 52.8845 126.457 50.3921C128.378 47.896 130.28 45.1568 131.698 42.5285C133.131 39.871 134 37.4508 134 35.5591Z" fill="#4E6977" stroke="#587787" stroke-width="2"/>
<path fill-rule="evenodd" clip-rule="evenodd" d="M120.914 28.7071L120.207 28L119.5 28.7071L112 36.2071L113.414 37.6213L120.207 30.8284L127 37.6213L128.414 36.2071L120.914 28.7071ZM114.355 38.2289C114.26 38.3228 114.207 38.4505 114.207 38.5836V41.4142H126.207V38.4356C126.207 38.3002 126.152 38.1706 126.055 38.0764L120.207 32.4142L114.355 38.2289Z" fill="white"/>
<path d="M152 173.559C152 165.484 145.698 159 138 159C130.302 159 124 165.484 124 173.559C124 175.467 124.818 177.897 126.158 180.553C127.485 183.182 129.265 185.922 131.062 188.418C132.856 190.91 134.652 193.139 136 194.747C136.618 195.482 137.14 196.086 137.525 196.524C137.938 196.084 138.505 195.471 139.177 194.722C140.619 193.114 142.54 190.885 144.457 188.392C146.378 185.896 148.28 183.157 149.698 180.528C151.131 177.871 152 175.451 152 173.559Z" fill="#4E6977" stroke="#587787" stroke-width="2"/>
<path fill-rule="evenodd" clip-rule="evenodd" d="M138.914 166.707L138.207 166L137.5 166.707L130 174.207L131.414 175.621L138.207 168.828L145 175.621L146.414 174.207L138.914 166.707ZM132.355 176.229C132.26 176.323 132.207 176.45 132.207 176.584V179.414H144.207V176.436C144.207 176.3 144.152 176.171 144.055 176.076L138.207 170.414L132.355 176.229Z" fill="white"/>
<path d="M180 92.5591C180 84.4835 173.698 78 166 78C158.302 78 152 84.4835 152 92.5591C152 94.467 152.818 96.8966 154.158 99.5527C155.485 102.182 157.265 104.922 159.062 107.418C160.856 109.91 162.652 112.139 164 113.747C164.618 114.482 165.14 115.086 165.525 115.524C165.938 115.084 166.505 114.471 167.177 113.722C168.619 112.114 170.54 109.885 172.457 107.392C174.378 104.896 176.28 102.157 177.698 99.5285C179.131 96.871 180 94.4508 180 92.5591Z" fill="#4E6977" stroke="#587787" stroke-width="2"/>
<path fill-rule="evenodd" clip-rule="evenodd" d="M166.914 85.7071L166.207 85L165.5 85.7071L158 93.2071L159.414 94.6213L166.207 87.8284L173 94.6213L174.414 93.2071L166.914 85.7071ZM160.355 95.2289C160.26 95.3228 160.207 95.4505 160.207 95.5836V98.4142H172.207V95.4356C172.207 95.3002 172.152 95.1706 172.055 95.0764L166.207 89.4142L160.355 95.2289Z" fill="white"/>
<path d="M102 74.5591C102 66.4835 95.6978 60 88 60C80.3022 60 74 66.4835 74 74.5591C74 76.467 74.8182 78.8966 76.1584 81.5527C77.4853 84.1824 79.2652 86.922 81.0616 89.4177C82.8555 91.91 84.6517 94.1394 86.0004 95.7467C86.6175 96.4821 87.1401 97.0863 87.5247 97.5245C87.938 97.0843 88.5053 96.4712 89.1775 95.7218C90.6195 94.1142 92.5397 91.8845 94.4575 89.3921C96.3781 86.896 98.2803 84.1568 99.698 81.5285C101.131 78.871 102 76.4508 102 74.5591Z" fill="#4E6977" stroke="#587787" stroke-width="2"/>
<path fill-rule="evenodd" clip-rule="evenodd" d="M88.9142 67.7071L88.2071 67L87.5 67.7071L80 75.2071L81.4142 76.6213L88.2071 69.8284L95 76.6213L96.4142 75.2071L88.9142 67.7071ZM82.3547 77.2289C82.2602 77.3228 82.2071 77.4505 82.2071 77.5836V80.4142H94.2071V77.4356C94.2071 77.3002 94.1522 77.1706 94.0549 77.0764L88.2071 71.4142L82.3547 77.2289Z" fill="white"/>
</svg>
