<svg width="64" height="64" viewBox="0 0 64 64" fill="none" xmlns="http://www.w3.org/2000/svg">
<path d="M4 4V60H60V53.4884C59.3159 53.4884 58.6385 53.3536 58.0065 53.0918C57.3745 52.83 56.8002 52.4463 56.3165 51.9626C55.8327 51.4789 55.449 50.9046 55.1872 50.2726C54.9254 49.6406 54.7907 48.9632 54.7907 48.2791C54.7907 47.595 54.9254 46.9176 55.1872 46.2856C55.449 45.6535 55.8327 45.0793 56.3165 44.5955C56.8002 44.1118 57.3745 43.7281 58.0065 43.4663C58.6385 43.2045 59.3159 43.0698 60 43.0698V36.5581C59.3159 36.5581 58.6385 36.4234 58.0065 36.1616C57.3745 35.8998 56.8002 35.5161 56.3165 35.0324C55.8327 34.5486 55.449 33.9744 55.1872 33.3424C54.9254 32.7103 54.7907 32.0329 54.7907 31.3488C54.7907 30.6647 54.9254 29.9873 55.1872 29.3553C55.449 28.7233 55.8327 28.149 56.3165 27.6653C56.8002 27.1816 57.3745 26.7979 58.0065 26.5361C58.6385 26.2743 59.3159 26.1395 60 26.1395V19.6279C59.3159 19.6279 58.6385 19.4932 58.0065 19.2314C57.3745 18.9696 56.8002 18.5859 56.3165 18.1021C55.8327 17.6184 55.449 17.0441 55.1872 16.4121C54.9254 15.7801 54.7907 15.1027 54.7907 14.4186C54.7907 13.7345 54.9254 13.0571 55.1872 12.4251C55.449 11.7931 55.8327 11.2188 56.3165 10.7351C56.8002 10.2513 57.3745 9.86763 58.0065 9.60584C58.6385 9.34404 59.3159 9.2093 60 9.2093V4H4Z" stroke="#53707F" stroke-width="1.50047" stroke-linecap="square" stroke-linejoin="bevel"/>
<path d="M10.5116 10.5116H49.5814" stroke="#53707F" stroke-width="2.19089" stroke-linejoin="bevel" stroke-dasharray="8.76 2.19"/>
<path d="M10.5116 23.5349H49.5814" stroke="#53707F" stroke-width="2.19089" stroke-linejoin="bevel" stroke-dasharray="4.38 2.19"/>
<path d="M10.5116 36.5582H49.5814" stroke="#53707F" stroke-width="2.19089" stroke-linejoin="bevel" stroke-dasharray="17.53 2.19"/>
<path d="M10.5116 49.5814H49.5814" stroke="#53707F" stroke-width="2.19089" stroke-linejoin="bevel" stroke-dasharray="13.15 13.15"/>
</svg>
