<?xml version="1.0" encoding="utf-8"?>
<svg width="64" height="64" viewBox="0 0 64 64" fill="none" xmlns="http://www.w3.org/2000/svg">
<path fill-rule="evenodd" clip-rule="evenodd" d="M45.9527 25.4764C45.9527 14.7199 37.2329 6 26.4764 6C15.7199 6 7 14.7199 7 25.4764C7 36.2329 15.7199 44.9527 26.4764 44.9527C31.0601 44.9527 35.2739 43.3693 38.6008 40.7196L54.8812 56.9988L57 54.88L40.7964 38.6775C43.9974 35.207 45.9527 30.57 45.9527 25.4764ZM8.99758 25.4764C8.99758 15.8231 16.8231 7.99758 26.4764 7.99758C36.1296 7.99758 43.9552 15.8231 43.9552 25.4764C43.9552 35.1296 36.1296 42.9552 26.4764 42.9552C16.8231 42.9552 8.99758 35.1296 8.99758 25.4764ZM19.5 23V21H32.5V23H31.5H26H20.5H19.5ZM19 24.5C18.4477 24.5 18 24.0523 18 23.5V20.5C18 19.9477 18.4477 19.5 19 19.5H33C33.5523 19.5 34 19.9477 34 20.5V23.5C34 24.0523 33.5523 24.5 33 24.5V26C33 29.866 29.866 33 26 33C22.134 33 19 29.866 19 26V24.5ZM31.5 24.5H26H20.5V26C20.5 29.0376 22.9624 31.5 26 31.5C29.0376 31.5 31.5 29.0376 31.5 26V24.5ZM27.3 27.95C27.3 28.6404 26.7404 29.2 26.05 29.2C25.3597 29.2 24.8 28.6404 24.8 27.95C24.8 27.2597 25.3597 26.7 26.05 26.7C26.7404 26.7 27.3 27.2597 27.3 27.95Z" fill="#53707F"/>
</svg>

