<svg width="64" height="64" viewBox="0 0 64 64" fill="none" xmlns="http://www.w3.org/2000/svg">
<path fill-rule="evenodd" clip-rule="evenodd" d="M6 5H58V17H6L6 5ZM4 5C4 3.89543 4.89543 3 6 3H58C59.1046 3 60 3.89543 60 5V17C60 18.1046 59.1046 19 58 19H56C56 23.7369 55.3398 28.4507 54.0385 33.0054L53.9615 33.2747C53.8098 33.8058 53.2563 34.1132 52.7253 33.9615C52.1943 33.8098 51.8868 33.2563 52.0385 32.7253L52.1155 32.4559C53.3657 28.08 54 23.5511 54 19H10C10 23.5511 10.6343 28.08 11.8846 32.4559L11.9615 32.7253C12.1132 33.2563 11.8058 33.8098 11.2747 33.9615C10.7437 34.1132 10.1902 33.8058 10.0385 33.2747L9.96152 33.0054C8.66019 28.4507 8 23.7369 8 19H6C4.89543 19 4 18.1046 4 17V5ZM11 9C10.4477 9 10 9.44772 10 10V12C10 12.5523 10.4477 13 11 13H13C13.5523 13 14 12.5523 14 12V10C14 9.44772 13.5523 9 13 9H11ZM16 10C16 9.44772 16.4477 9 17 9H19C19.5523 9 20 9.44772 20 10V12C20 12.5523 19.5523 13 19 13H17C16.4477 13 16 12.5523 16 12V10ZM23 9C22.4477 9 22 9.44772 22 10V12C22 12.5523 22.4477 13 23 13H25C25.5523 13 26 12.5523 26 12V10C26 9.44772 25.5523 9 25 9H23ZM26.9576 24.79C27.0679 23.2185 28.3749 22 29.9503 22H33.7526C35.3279 22 36.6349 23.2185 36.7452 24.79L36.8259 25.9398C37.551 26.2051 38.2506 26.523 38.9201 26.8886L39.8535 26.0775C41.0427 25.0443 42.8285 25.1069 43.9425 26.2208L46.6311 28.9095C47.745 30.0234 47.8076 31.8092 46.7744 32.9984L45.6875 34.2494C45.9339 34.8079 46.1483 35.3838 46.3284 35.9747L48.2112 36.1068C49.7827 36.2171 51.0012 37.5241 51.0012 39.0994V42.9017C51.0012 44.4771 49.7827 45.7841 48.2112 45.8944L45.9757 46.0513C45.7989 46.5121 45.6008 46.9622 45.3826 47.4005L46.7747 49.0028C47.808 50.192 47.7454 51.9778 46.6314 53.0917L43.9428 55.7804C42.8288 56.8943 41.043 56.9569 39.8539 55.9237L38.1955 54.4828C37.7733 54.6852 37.3405 54.8692 36.898 55.0336L36.7452 57.2112C36.6349 58.7827 35.3279 60.0012 33.7526 60.0012H29.9503C28.3749 60.0012 27.0679 58.7827 26.9576 57.2112L26.8222 55.2811C26.2899 55.1127 25.77 54.9165 25.2643 54.6941L23.8491 55.9237C22.6599 56.9569 20.8741 56.8943 19.7602 55.7804L17.0716 53.0917C15.9576 51.9778 15.895 50.192 16.9283 49.0028L17.881 47.9062C17.5443 47.2883 17.2484 46.6447 16.9968 45.9791L15.79 45.8944C14.2185 45.7841 13 44.4771 13 42.9017V39.0994C13 37.5241 14.2185 36.2171 15.79 36.1068L16.6499 36.0465C16.8908 35.2421 17.1952 34.4653 17.5572 33.7219L16.9286 32.9984C15.8954 31.8092 15.958 30.0234 17.0719 28.9095L19.7605 26.2208C20.8745 25.1069 22.6603 25.0443 23.8495 26.0775L24.5179 26.6584C25.2761 26.2753 26.0703 25.9525 26.894 25.6964L26.9576 24.79ZM45.265 50.3145L42.9518 47.6522C43.6248 46.5769 44.1506 45.4001 44.5008 44.1498L48.0712 43.8993C48.595 43.8625 49.0012 43.4269 49.0012 42.9017V39.0994C49.0012 38.5743 48.595 38.1387 48.0712 38.1019L44.7436 37.8684C44.4674 36.4705 43.9754 35.1502 43.3038 33.9435L45.2646 31.6867C45.6091 31.2903 45.5882 30.695 45.2169 30.3237L42.5283 27.6351C42.1569 27.2637 41.5617 27.2429 41.1653 27.5873L39.1263 29.3589C37.8641 28.4933 36.4475 27.8366 34.9262 27.4386L34.7501 24.93C34.7134 24.4062 34.2777 24 33.7526 24H29.9503C29.4252 24 28.9895 24.4062 28.9527 24.93L28.7883 27.2724C27.157 27.6051 25.6327 28.2319 24.2732 29.0952L22.5377 27.5873C22.1413 27.2429 21.5461 27.2637 21.1747 27.6351L18.4861 30.3237C18.1148 30.695 18.0939 31.2903 18.4383 31.6867L19.9789 33.4597C19.1496 34.8139 18.5523 36.3257 18.2425 37.9396L15.93 38.1019C15.4062 38.1387 15 38.5743 15 39.0994V42.9017C15 43.4269 15.4062 43.8625 15.93 43.8993L18.4793 44.0782C18.8793 45.5369 19.5178 46.8969 20.3502 48.1137L18.438 50.3145C18.0936 50.7109 18.1145 51.3062 18.4858 51.6775L21.1744 54.3662C21.5457 54.7375 22.141 54.7583 22.5374 54.4139L24.9573 52.3114C26.1165 52.9549 27.3804 53.4327 28.7171 53.7128L28.9527 57.0712C28.9895 57.595 29.4252 58.0012 29.9503 58.0012H33.7526C34.2777 58.0012 34.7134 57.595 34.7501 57.0712L34.9977 53.5425C36.232 53.2123 37.3965 52.7116 38.4646 52.0671L41.1656 54.4139C41.562 54.7583 42.1573 54.7375 42.5286 54.3662L45.2172 51.6775C45.5885 51.3062 45.6094 50.7109 45.265 50.3145ZM27 36C27 33.2386 29.2386 31 32 31C34.7614 31 37 33.2386 37 36V37C38.1046 37 39 37.8954 39 39V47C39 48.1046 38.1046 49 37 49H27C25.8954 49 25 48.1046 25 47V39C25 37.8954 25.8954 37 27 37V36ZM35 36V37H29V36C29 34.3431 30.3431 33 32 33C33.6569 33 35 34.3431 35 36ZM27 39V47H37V39H27Z" fill="#53707F"/>
</svg>
