<svg width="64" height="64" viewBox="0 0 64 64" fill="none" xmlns="http://www.w3.org/2000/svg">
<path fill-rule="evenodd" clip-rule="evenodd" d="M10.5 8C9.83696 8 9.20107 8.26339 8.73223 8.73223C8.26339 9.20108 8 9.83696 8 10.5V24.5C8 25.163 8.26339 25.7989 8.73223 26.2678C9.20107 26.7366 9.83696 27 10.5 27H14V29H10.5C9.30653 29 8.16193 28.5259 7.31802 27.682C6.47411 26.8381 6 25.6935 6 24.5V10.5C6 9.30652 6.47411 8.16193 7.31802 7.31802C8.16193 6.47411 9.30653 6 10.5 6H24.5C25.6935 6 26.8381 6.47411 27.682 7.31802C28.5259 8.16193 29 9.30653 29 10.5V14H27V10.5C27 9.83696 26.7366 9.20108 26.2678 8.73223C25.7989 8.26339 25.163 8 24.5 8H10.5ZM50 29.0004H53.5C54.6935 29.0004 55.8381 28.5263 56.682 27.6823C57.5259 26.8384 58 25.6938 58 24.5004V10.5004C58 9.30689 57.5259 8.1623 56.682 7.31839C55.8381 6.47447 54.6935 6.00037 53.5 6.00037H39.5C38.3065 6.00037 37.1619 6.47447 36.318 7.31839C35.4741 8.1623 35 9.30689 35 10.5004V14H37V10.5004C37 9.83733 37.2634 9.20144 37.7322 8.7326C38.2011 8.26376 38.837 8.00037 39.5 8.00037H53.5C54.163 8.00037 54.7989 8.26376 55.2678 8.7326C55.7366 9.20144 56 9.83733 56 10.5004V24.5004C56 25.1634 55.7366 25.7993 55.2678 26.2681C54.7989 26.737 54.163 27.0004 53.5 27.0004H50V29.0004ZM35 50V53.5C35 54.6935 35.4741 55.8381 36.318 56.682C37.1619 57.5259 38.3065 58 39.5 58H53.5C54.6935 58 55.8381 57.5259 56.682 56.682C57.5259 55.8381 58 54.6935 58 53.5V39.5C58 38.3065 57.5259 37.1619 56.682 36.318C55.8381 35.4741 54.6935 35 53.5 35H50V37H53.5C54.163 37 54.7989 37.2634 55.2678 37.7322C55.7366 38.2011 56 38.837 56 39.5V53.5C56 54.163 55.7366 54.7989 55.2678 55.2678C54.7989 55.7366 54.163 56 53.5 56H39.5C38.837 56 38.2011 55.7366 37.7322 55.2678C37.2634 54.7989 37 54.163 37 53.5V50H35ZM14 35H10.5002C9.30671 35 8.16212 35.4741 7.31821 36.318C6.47429 37.1619 6.00018 38.3065 6.00018 39.5V53.5C6.00018 54.6935 6.47429 55.8381 7.31821 56.682C8.16212 57.5259 9.30671 58 10.5002 58H24.5002C25.6937 58 26.8382 57.5259 27.6822 56.682C28.5261 55.8381 29.0002 54.6935 29.0002 53.5V50H27.0002V53.5C27.0002 54.163 26.7368 54.7989 26.268 55.2678C25.7991 55.7366 25.1632 56 24.5002 56H10.5002C9.83714 56 9.20126 55.7366 8.73241 55.2678C8.26357 54.7989 8.00018 54.163 8.00018 53.5V39.5C8.00018 38.837 8.26357 38.2011 8.73241 37.7322C9.20126 37.2634 9.83714 37 10.5002 37H14V35Z" fill="#53707F"/>
<circle cx="32" cy="32" r="14" stroke="#53707F" stroke-width="2"/>
<path d="M27.113 25.7097L27.2072 25.7929L32.0001 30.585L36.793 25.7929L36.8872 25.7097C37.2795 25.4047 37.8467 25.4324 38.2072 25.7929C38.5978 26.1834 38.5978 26.8166 38.2072 27.2071L33.4151 32L38.2072 36.7929C38.5978 37.1834 38.5978 37.8166 38.2072 38.2071C37.8467 38.5676 37.2795 38.5954 36.8872 38.2903L36.793 38.2071L32.0001 33.415L27.2072 38.2071L27.113 38.2903C26.7207 38.5954 26.1535 38.5676 25.793 38.2071C25.4025 37.8166 25.4025 37.1834 25.793 36.7929L30.5851 32L25.793 27.2071C25.4025 26.8166 25.4025 26.1834 25.793 25.7929C26.1535 25.4324 26.7207 25.4047 27.113 25.7097Z" fill="#53707F"/>
</svg>
