<?xml version="1.0" encoding="UTF-8" standalone="no"?>
<!-- Created with Inkscape (http://www.inkscape.org/) -->

<svg
   xmlns:dc="http://purl.org/dc/elements/1.1/"
   xmlns:cc="http://creativecommons.org/ns#"
   xmlns:rdf="http://www.w3.org/1999/02/22-rdf-syntax-ns#"
   xmlns:svg="http://www.w3.org/2000/svg"
   xmlns="http://www.w3.org/2000/svg"
   version="1.1"
   width="18"
   height="18"
   id="svg2"
   xml:space="preserve"><metadata
     id="metadata8"><rdf:RDF><cc:Work
         rdf:about=""><dc:format>image/svg+xml</dc:format><dc:type
           rdf:resource="http://purl.org/dc/dcmitype/StillImage" /><dc:title></dc:title></cc:Work></rdf:RDF></metadata><defs
     id="defs6"><clipPath
       id="clipPath18"><path
         d="M 0,256 256,256 256,0 0,0 0,256 z"
         id="path20" /></clipPath></defs><path
     d="M 10.212127,10.046548 C 10.731942,7.6800456 11.035934,5.7795254 11.045892,4.4500002 11.056379,3.05 10.429814,2 9.029814,2 7.6298139,2 7,3.05 7,4.4500002 c 0,1.3295625 0.3315176,3.2300454 0.845624,5.5965478 0.15015,0.662419 0.48419,1.053453 1.18419,1.053453 0.7,0 1.034001,-0.391034 1.182313,-1.053453 z"
     id="path24"
     style="fill:#f3e907;fill-opacity:1;fill-rule:nonzero;stroke:none" /><path
     d="m 11,14 a 2,2 0 0 1 -4,0 2,2 0 1 1 4,0 z"
     id="path3016"
     style="fill:#f3e907;fill-opacity:1;stroke:none" /></svg>