<?xml version="1.0" encoding="UTF-8" standalone="no"?>
<!-- Created with Inkscape (http://www.inkscape.org/) -->

<svg
   xmlns:dc="http://purl.org/dc/elements/1.1/"
   xmlns:cc="http://creativecommons.org/ns#"
   xmlns:rdf="http://www.w3.org/1999/02/22-rdf-syntax-ns#"
   xmlns:svg="http://www.w3.org/2000/svg"
   xmlns="http://www.w3.org/2000/svg"
   version="1.1"
   width="18"
   height="18"
   id="svg2"
   xml:space="preserve"><metadata
     id="metadata8"><rdf:RDF><cc:Work
         rdf:about=""><dc:format>image/svg+xml</dc:format><dc:type
           rdf:resource="http://purl.org/dc/dcmitype/StillImage" /><dc:title></dc:title></cc:Work></rdf:RDF></metadata><defs
     id="defs6"><clipPath
       id="clipPath16"><path
         d="M 0,256 256,256 256,0 0,0 0,256 z"
         id="path18" /></clipPath></defs><path
     d="M 5.3125,8 C 4.5808019,8 4,8.5808019 4,9.3125 l 0,5.375 C 4,15.419198 4.5808019,16 5.3125,16 l 8.375,0 C 14.419198,16 15,15.419198 15,14.6875 l 0,-5.375 C 15,8.5808019 14.419198,8 13.6875,8 l -8.375,0 z m 4.03125,2 A 0.50005,0.50005 0 0 1 9.40625,10 0.50005,0.50005 0 0 1 10,10.5 l 0,3 a 0.50005,0.50005 0 1 1 -1,0 l 0,-3 A 0.50005,0.50005 0 0 1 9.34375,10 z"
     id="rect3775"
     style="fill:#be3938;fill-opacity:1;stroke:none" /><path
     d="M 6,8.5 C 6,6.5188678 5.8420401,2.7669488 9.5,2.7669488 c 3.65796,0 3.5,3.751919 3.5,5.7330512"
     id="path3777"
     style="fill:none;stroke:#be3938;stroke-width:1.58490586;stroke-linecap:butt;stroke-linejoin:miter;stroke-miterlimit:4;stroke-opacity:1;stroke-dasharray:none" /></svg>