<?xml version="1.0" encoding="utf-8"?>
<!-- Generator: Adobe Illustrator 16.0.0, SVG Export Plug-In . SVG Version: 6.00 Build 0)  -->
<!DOCTYPE svg PUBLIC "-//W3C//DTD SVG 1.1//EN" "http://www.w3.org/Graphics/SVG/1.1/DTD/svg11.dtd">
<svg version="1.1" xmlns="http://www.w3.org/2000/svg" xmlns:xlink="http://www.w3.org/1999/xlink" x="0px" y="0px" width="48px"
	 height="48px" viewBox="0 0 48 48" enable-background="new 0 0 48 48" xml:space="preserve">
<g id="Layer_2">
	<rect fill="#212A2F" width="48" height="48"/>
</g>
<g id="Layer_5">
	<path fill="#FFFFFF" d="M24,36c-3.542,0-6.721-1.552-8.919-4H20v-4H8v12h4v-5.452C14.935,37.882,19.22,40,24,40
		c7.439,0,13.69-5.11,15.474-12H35.3C33.647,32.653,29.213,36,24,36z"/>
	<path fill="#FFFFFF" d="M36,8v5.452C33.065,10.118,28.78,8,24,8c-7.439,0-13.69,5.11-15.474,12H12.7c1.652-4.653,6.087-8,11.3-8
		c3.542,0,6.721,1.552,8.919,4H28v4h12V8H36z"/>
</g>
</svg>
