<svg xmlns="http://www.w3.org/2000/svg" width="200" height="75" fill="none" viewBox="0 0 200 75">
  <g class="illustrations/200x75/ptz_promo_old">
    <path fill="#E1E7EA" fill-rule="evenodd" d="M154.821 74.107V.893H45.893v73.214H154.82ZM45 0h110.714v75H45V0Zm58.036 37.5a2.68 2.68 0 1 1-5.358-.001 2.68 2.68 0 0 1 5.358.001Z" class="Primary" clip-rule="evenodd"/>
    <path fill="#E1E7EA" fill-rule="evenodd" d="M96.786 4.41a.5.5 0 1 0 0 1h7.143a.5.5 0 0 0 0-1h-7.143Zm-.5 4.965a.5.5 0 0 1 .5-.5h7.143a.5.5 0 0 1 0 1h-7.143a.5.5 0 0 1-.5-.5Zm.5 3.964a.5.5 0 1 0 0 1h7.143a.5.5 0 0 0 0-1h-7.143Zm-.5 4.965a.5.5 0 0 1 .5-.5h7.143a.5.5 0 0 1 0 1h-7.143a.5.5 0 0 1-.5-.5Zm.5 3.964a.5.5 0 1 0 0 1h7.143a.5.5 0 0 0 0-1h-7.143Zm-.5 4.964a.5.5 0 0 1 .5-.5h7.143a.5.5 0 0 1 0 1h-7.143a.5.5 0 0 1-.5-.5Zm4.071 4.018a6.212 6.212 0 0 1 6.25 6.25 6.212 6.212 0 0 1-6.25 6.25 6.211 6.211 0 0 1-6.25-6.25 6.212 6.212 0 0 1 6.25-6.25Zm0-.893c-3.928 0-7.143 3.215-7.143 7.143 0 3.929 3.215 7.143 7.143 7.143 3.929 0 7.143-3.214 7.143-7.143 0-3.928-3.214-7.143-7.143-7.143Zm-4.071 35.268a.5.5 0 0 1 .5-.5h7.143a.5.5 0 0 1 0 1h-7.143a.5.5 0 0 1-.5-.5Zm.5 3.964a.5.5 0 1 0 0 1h7.143a.5.5 0 0 0 0-1h-7.143Zm-.5-8.428a.5.5 0 0 1 .5-.5h7.143a.5.5 0 0 1 0 1h-7.143a.5.5 0 0 1-.5-.5Zm.5-4.965a.5.5 0 1 0 0 1h7.143a.5.5 0 0 0 0-1h-7.143Zm-.5-3.964a.5.5 0 0 1 .5-.5h7.143a.5.5 0 0 1 0 1h-7.143a.5.5 0 0 1-.5-.5Zm.5-4.964a.5.5 0 1 0 0 1h7.143a.5.5 0 0 0 0-1h-7.143Zm-6.697-13.84a.5.5 0 0 1 .5.5v7.143a.5.5 0 1 1-1 0V33.93a.5.5 0 0 1 .5-.5Zm-3.964.5a.5.5 0 1 0-1 0v7.143a.5.5 0 0 0 1 0V33.93Zm-4.964-.5a.5.5 0 0 1 .5.5v7.143a.5.5 0 0 1-1 0V33.93a.5.5 0 0 1 .5-.5Zm-3.965.5a.5.5 0 1 0-1 0v7.143a.5.5 0 0 0 1 0V33.93Zm-4.964-.5a.5.5 0 0 1 .5.5v7.143a.5.5 0 0 1-1 0V33.93a.5.5 0 0 1 .5-.5Zm-3.964.5a.5.5 0 1 0-1 0v7.143a.5.5 0 0 0 1 0V33.93Zm60.214-.5a.5.5 0 0 1 .5.5v7.143a.5.5 0 0 1-1 0V33.93a.5.5 0 0 1 .5-.5Zm4.964.5a.5.5 0 0 0-1 0v7.143a.5.5 0 0 0 1 0V33.93Zm-9.428-.5a.5.5 0 0 1 .5.5v7.143a.5.5 0 0 1-1 0V33.93a.5.5 0 0 1 .5-.5Zm-3.964.5a.5.5 0 0 0-1 0v7.143a.5.5 0 0 0 1 0V33.93Zm26.285-.5a.5.5 0 0 1 .5.5v7.143a.5.5 0 0 1-1 0V33.93a.5.5 0 0 1 .5-.5Zm4.965.5a.5.5 0 0 0-1 0v7.143a.5.5 0 0 0 1 0V33.93Zm-9.429-.5a.5.5 0 0 1 .5.5v7.143a.5.5 0 0 1-1 0V33.93a.5.5 0 0 1 .5-.5Zm-3.964.5a.5.5 0 0 0-1 0v7.143a.5.5 0 0 0 1 0V33.93Zm-22.822-.5a.5.5 0 0 1 .5.5v7.143a.5.5 0 0 1-1 0V33.93a.5.5 0 0 1 .5-.5Zm-3.964.5a.5.5 0 0 0-1 0v7.143a.5.5 0 0 0 1 0V33.93Zm-47.821-.5a.5.5 0 0 1 .5.5v7.143a.5.5 0 0 1-1 0V33.93a.5.5 0 0 1 .5-.5Zm-3.965.5a.5.5 0 1 0-1 0v7.143a.5.5 0 0 0 1 0V33.93Zm-4.964-.5a.5.5 0 0 1 .5.5v7.143a.5.5 0 0 1-1 0V33.93a.5.5 0 0 1 .5-.5Zm-3.964.5a.5.5 0 1 0-1 0v7.143a.5.5 0 0 0 1 0V33.93Z" class="Primary" clip-rule="evenodd" opacity=".6"/>
  </g>
</svg>
