<?xml version="1.0" encoding="UTF-8" standalone="no"?>
<svg
   xmlns:dc="http://purl.org/dc/elements/1.1/"
   xmlns:cc="http://creativecommons.org/ns#"
   xmlns:rdf="http://www.w3.org/1999/02/22-rdf-syntax-ns#"
   xmlns:svg="http://www.w3.org/2000/svg"
   xmlns="http://www.w3.org/2000/svg"
   id="svg2"
   version="1.1"
   xml:space="preserve"
   width="32"
   height="32"
   viewBox="0 0 32 32"><metadata
     id="metadata8"><rdf:RDF><cc:Work
         rdf:about=""><dc:format>image/svg+xml</dc:format><dc:type
           rdf:resource="http://purl.org/dc/dcmitype/StillImage" /><dc:title></dc:title></cc:Work></rdf:RDF></metadata><defs
     id="defs6"><clipPath
       clipPathUnits="userSpaceOnUse"
       id="clipPath16"><path
         d="M 0,28 28,28 28,0 0,0 0,28 Z"
         id="path18" /></clipPath></defs><rect
     ry="3"
     y="0"
     x="0"
     height="32"
     width="32"
     id="rect4144"
     style="opacity:1;fill:#212a2f;fill-opacity:1;stroke:none;stroke-width:1;stroke-miterlimit:4;stroke-dasharray:none;stroke-opacity:1" /><path
     d="m 16.443886,24.458971 c -4.043428,0 -7.333714,-3.330285 -7.333714,-7.425142 0,-1.307429 0.3417142,-2.594286 0.986286,-3.721143 l 0.06286,-0.102862 c 0.885715,-1.268571 1.993143,-1.774858 2.936,-1.950858 -0.818285,1.270858 -1.262857,2.851429 -1.262857,4.534858 0,3.924571 2.485714,7.118857 5.539428,7.122285 2.288,0 3.864,-0.592 4.947429,-1.433143 -1.348571,1.822858 -3.498286,2.976001 -5.875429,2.976001"
     style="opacity:1;fill:#a5ce39;fill-opacity:1;fill-rule:nonzero;stroke:none"
     id="path38" /><path
     d="m 18.904342,21.557257 c 0.820572,-1.270857 1.264001,-2.852571 1.264001,-4.536 0,-3.924571 -2.484572,-7.1199995 -5.539429,-7.1222858 -2.288,0 -3.864,0.5931428 -4.9485715,1.4354288 1.3485715,-1.8251425 3.4994285,-2.9782863 5.8765715,-2.9782863 4.043428,0 7.333715,3.3302863 7.333715,7.4251433 0,1.308572 -0.341715,2.595429 -0.986287,3.72 l -0.06971,0.113143 c -0.738287,1.059428 -1.742858,1.723428 -2.930287,1.942857"
     style="opacity:1;fill:#fec907;fill-opacity:1;fill-rule:nonzero;stroke:none"
     id="path42" /><path
     id="rect4222"
     d="M 5,4 C 3.3466491,4 2,5.3466487 2,7 l 0,6 c 0,1.653351 1.3466491,3 3,3 l 3.1015625,0 c 0.040892,-0.337742 0.1072327,-0.670494 0.1875,-1 L 5,15 C 3.8833519,15 3,14.116649 3,13 L 3,7 C 3,5.8833525 3.8833519,5 5,5 l 7,0 c 1.116648,0 2,0.8833525 2,2 l 0,0.5058594 C 14.327808,7.442876 14.661214,7.3998578 15,7.3769531 L 15,7 C 15,5.3466487 13.653351,4 12,4 Z"
     style="color:#000000;font-style:normal;font-variant:normal;font-weight:normal;font-stretch:normal;font-size:medium;line-height:normal;font-family:sans-serif;text-indent:0;text-align:start;text-decoration:none;text-decoration-line:none;text-decoration-style:solid;text-decoration-color:#000000;letter-spacing:normal;word-spacing:normal;text-transform:none;direction:ltr;block-progression:tb;writing-mode:lr-tb;baseline-shift:baseline;text-anchor:start;white-space:normal;clip-rule:nonzero;display:inline;overflow:visible;visibility:visible;opacity:1;isolation:auto;mix-blend-mode:normal;color-interpolation:sRGB;color-interpolation-filters:linearRGB;solid-color:#000000;solid-opacity:1;fill:#fec907;fill-opacity:1;fill-rule:nonzero;stroke:none;stroke-width:0.80000001;stroke-linecap:butt;stroke-linejoin:miter;stroke-miterlimit:4;stroke-dasharray:none;stroke-dashoffset:0;stroke-opacity:1;color-rendering:auto;image-rendering:auto;shape-rendering:auto;text-rendering:auto;enable-background:accumulate" /><path
     id="rect4222-7"
     d="m 20,4 c -1.653351,0 -3,1.3466487 -3,3 l 0,0.4804688 c 0.340741,0.060703 0.674666,0.1368518 1,0.2382812 L 18,7 c 0,-1.1166475 0.883352,-2 2,-2 l 7,0 c 1.116647,0 2,0.8833525 2,2 l 0,6 c 0,1.116649 -0.883353,2 -2,2 l -3.138672,0 c 0.02377,0.258039 0.04102,0.517254 0.04102,0.78125 0,0.07329 -0.01179,0.1456 -0.01367,0.21875 L 27,16 c 1.65335,0 3,-1.346649 3,-3 L 30,7 C 30,5.3466487 28.65335,4 27,4 Z"
     style="color:#000000;font-style:normal;font-variant:normal;font-weight:normal;font-stretch:normal;font-size:medium;line-height:normal;font-family:sans-serif;text-indent:0;text-align:start;text-decoration:none;text-decoration-line:none;text-decoration-style:solid;text-decoration-color:#000000;letter-spacing:normal;word-spacing:normal;text-transform:none;direction:ltr;block-progression:tb;writing-mode:lr-tb;baseline-shift:baseline;text-anchor:start;white-space:normal;clip-rule:nonzero;display:inline;overflow:visible;visibility:visible;opacity:1;isolation:auto;mix-blend-mode:normal;color-interpolation:sRGB;color-interpolation-filters:linearRGB;solid-color:#000000;solid-opacity:1;fill:#a5ce39;fill-opacity:1;fill-rule:nonzero;stroke:none;stroke-width:0.80000001;stroke-linecap:butt;stroke-linejoin:miter;stroke-miterlimit:4;stroke-dasharray:none;stroke-dashoffset:0;stroke-opacity:1;color-rendering:auto;image-rendering:auto;shape-rendering:auto;text-rendering:auto;enable-background:accumulate" /><path
     id="rect4222-5"
     d="m 23.808594,17 c -0.04867,0.337498 -0.114734,0.671655 -0.203125,1 L 27,18 c 1.116647,0 2,0.883352 2,2 l 0,6 c 0,1.116648 -0.883353,2 -2,2 l -7,0 c -1.116647,0 -2,-0.883352 -2,-2 l 0,-0.626953 c -0.328208,0.06261 -0.660854,0.106153 -1,0.128906 L 17,26 c 0,1.653351 1.346649,3 3,3 l 7,0 c 1.65335,0 3,-1.346649 3,-3 l 0,-6 c 0,-1.653351 -1.34665,-3 -3,-3 z"
     style="color:#000000;font-style:normal;font-variant:normal;font-weight:normal;font-stretch:normal;font-size:medium;line-height:normal;font-family:sans-serif;text-indent:0;text-align:start;text-decoration:none;text-decoration-line:none;text-decoration-style:solid;text-decoration-color:#000000;letter-spacing:normal;word-spacing:normal;text-transform:none;direction:ltr;block-progression:tb;writing-mode:lr-tb;baseline-shift:baseline;text-anchor:start;white-space:normal;clip-rule:nonzero;display:inline;overflow:visible;visibility:visible;opacity:1;isolation:auto;mix-blend-mode:normal;color-interpolation:sRGB;color-interpolation-filters:linearRGB;solid-color:#000000;solid-opacity:1;fill:#fec907;fill-opacity:1;fill-rule:nonzero;stroke:none;stroke-width:0.80000001;stroke-linecap:butt;stroke-linejoin:miter;stroke-miterlimit:4;stroke-dasharray:none;stroke-dashoffset:0;stroke-opacity:1;color-rendering:auto;image-rendering:auto;shape-rendering:auto;text-rendering:auto;enable-background:accumulate" /><path
     id="rect4222-70"
     d="m 5,17 c -1.6533509,2e-6 -3,1.346649 -3,3 l 0,6 c 0,1.653351 1.3466491,3 3,3 l 7,0 c 1.653351,0 3,-1.346649 3,-3 l 0,-0.599609 C 14.660173,25.340327 14.324657,25.26432 14,25.164062 L 14,26 c 0,1.116648 -0.883352,2 -2,2 L 5,28 C 3.8833519,28 3,27.116648 3,26 l 0,-6 c 0,-1.116648 0.8833519,-2 2,-2 l 3.09375,0 C 8.057719,17.682106 8.035156,17.362329 8.035156,17.035156 c 0,-0.01177 0.0019,-0.02339 0.00195,-0.03516 z"
     style="color:#000000;font-style:normal;font-variant:normal;font-weight:normal;font-stretch:normal;font-size:medium;line-height:normal;font-family:sans-serif;text-indent:0;text-align:start;text-decoration:none;text-decoration-line:none;text-decoration-style:solid;text-decoration-color:#000000;letter-spacing:normal;word-spacing:normal;text-transform:none;direction:ltr;block-progression:tb;writing-mode:lr-tb;baseline-shift:baseline;text-anchor:start;white-space:normal;clip-rule:nonzero;display:inline;overflow:visible;visibility:visible;opacity:1;isolation:auto;mix-blend-mode:normal;color-interpolation:sRGB;color-interpolation-filters:linearRGB;solid-color:#000000;solid-opacity:1;fill:#a5ce39;fill-opacity:1;fill-rule:nonzero;stroke:none;stroke-width:0.80000001;stroke-linecap:butt;stroke-linejoin:miter;stroke-miterlimit:4;stroke-dasharray:none;stroke-dashoffset:0;stroke-opacity:1;color-rendering:auto;image-rendering:auto;shape-rendering:auto;text-rendering:auto;enable-background:accumulate" /><rect
     ry="2.5"
     y="0.5"
     x="0.5"
     height="31"
     width="31"
     id="rect4152"
     style="opacity:1;fill:none;fill-opacity:1;stroke:#a5ce39;stroke-width:1;stroke-miterlimit:4;stroke-dasharray:none;stroke-opacity:1" /></svg>