<svg xmlns="http://www.w3.org/2000/svg" width="16" height="16" fill="none" viewBox="0 0 16 16">
  <g class="16x16/Solid/error">
    <path fill="#EF5350" fill-rule="evenodd" d="M2.586 4.414A2 2 0 0 0 2 5.828v4.344a2 2 0 0 0 .586 1.414l1.828 1.828A2 2 0 0 0 5.828 14h4.344a2 2 0 0 0 1.414-.586l1.828-1.828A2 2 0 0 0 14 10.172V5.828a2 2 0 0 0-.586-1.414l-1.828-1.828A2 2 0 0 0 10.172 2H5.828a2 2 0 0 0-1.414.586L2.586 4.414Zm2.907 1.079a1 1 0 0 1 1.414 0L8 6.586l1.093-1.093a1 1 0 1 1 1.414 1.414L9.414 8l1.093 1.093a1 1 0 0 1-1.414 1.414L8 9.414l-1.093 1.093a1 1 0 0 1-1.414-1.414L6.586 8 5.493 6.907a1 1 0 0 1 0-1.414Z" class="Primary" clip-rule="evenodd"/>
  </g>
</svg>
