<svg xmlns="http://www.w3.org/2000/svg" width="16" height="16" fill="none" viewBox="0 0 16 16">
  <g class="16x16/Solid/eye_close">
    <path fill="#698796" fill-rule="evenodd" d="M14.418 4.242a.6.6 0 0 1 .339.778c-.31.787-.81 1.52-1.439 2.153l1.297 1.25a.6.6 0 1 1-.833.864l-1.379-1.33a7.963 7.963 0 0 1-1.936 1.042l.75 1.987a.6.6 0 0 1-1.122.424l-.787-2.084c-.432.085-.87.13-1.308.13-.449 0-.885-.047-1.306-.134l-.79 2.088a.6.6 0 1 1-1.122-.424l.76-2.013a7.674 7.674 0 0 1-1.865-1.092l-1.46 1.406a.6.6 0 1 1-.832-.864l1.398-1.347a10.405 10.405 0 0 1-1.498-1.971.6.6 0 0 1 1.033-.61C3.584 6.641 5.632 8.255 8 8.255c2.423 0 4.85-1.663 5.64-3.674a.6.6 0 0 1 .778-.34Z" class="Primary" clip-rule="evenodd"/>
  </g>
</svg>
