<svg xmlns="http://www.w3.org/2000/svg" width="16" height="16" fill="none" viewBox="0 0 16 16">
  <g class="16x16/Solid/missed">
    <path fill="#EF5350" fill-rule="evenodd" d="m14.831 1.767-4.585.46.79 1.251-3.062 1.838-5.706-2.853-.536 1.074 6.294 3.147 3.652-2.191.77 1.219 2.383-3.945ZM8 10a5.828 5.828 0 0 0-2.902.747l.54.832a1 1 0 0 1-.293 1.383l-1.258.817a1.5 1.5 0 0 1-2.075-.441L.922 11.66a.5.5 0 0 1 .147-.692l2.936-1.906.003.004C5.15 8.387 6.532 8 8 8s2.849.388 3.992 1.067l.003-.006 2.936 1.907a.5.5 0 0 1 .147.691l-1.09 1.678a1.5 1.5 0 0 1-2.075.44l-1.258-.816a1 1 0 0 1-.294-1.383l.54-.832A5.828 5.828 0 0 0 8 10Z" class="Primary" clip-rule="evenodd"/>
  </g>
</svg>
