<svg xmlns="http://www.w3.org/2000/svg" width="16" height="16" fill="none" viewBox="0 0 16 16">
  <g class="16x16/Solid/setup">
    <path fill="#698796" fill-rule="evenodd" d="M10.81 1.568c-.553-.242-1.137.205-1.558.636A1.745 1.745 0 0 1 8 2.732c-.49 0-.935-.202-1.252-.528-.421-.431-1.005-.878-1.557-.636-.5.22-.97.496-1.4.82-.471.355-.384 1.061-.228 1.63a1.752 1.752 0 0 1-1.688 2.214c-.342 0-.705.17-.765.507a7.042 7.042 0 0 0 0 2.485c.06.337.423.508.765.508a1.75 1.75 0 0 1 1.688 2.214c-.156.568-.243 1.274.227 1.629.431.325.9.6 1.4.82.553.242 1.137-.204 1.558-.636A1.745 1.745 0 0 1 8 13.232c.49 0 .935.202 1.252.527.421.432 1.005.878 1.557.636.5-.22.97-.495 1.4-.82.471-.355.384-1.06.228-1.629a1.753 1.753 0 0 1 1.688-2.214c.342 0 .705-.171.765-.508a7.038 7.038 0 0 0 0-2.485c-.06-.337-.423-.507-.765-.507a1.75 1.75 0 0 1-1.688-2.215c.156-.568.243-1.274-.227-1.628a6.969 6.969 0 0 0-1.4-.82Zm-.185 6.414a2.625 2.625 0 1 1-5.25 0 2.625 2.625 0 0 1 5.25 0Z" class="Primary" clip-rule="evenodd"/>
  </g>
</svg>
