<svg xmlns="http://www.w3.org/2000/svg" width="16" height="16" fill="none" viewBox="0 0 16 16">
  <g class="16x16/Solid/star">
    <path fill="#FFCA28" d="M7.63 1.888a.4.4 0 0 1 .74 0l1.388 3.338a.4.4 0 0 0 .337.245l3.604.289a.4.4 0 0 1 .228.703l-2.746 2.351a.4.4 0 0 0-.128.397l.838 3.517a.4.4 0 0 1-.597.434l-3.085-1.885a.4.4 0 0 0-.417 0l-3.086 1.885a.4.4 0 0 1-.597-.434l.838-3.517a.4.4 0 0 0-.128-.397L2.073 6.463a.4.4 0 0 1 .228-.703l3.604-.289a.4.4 0 0 0 .337-.245l1.389-3.338Z" class="Primary"/>
  </g>
</svg>
