<svg width="48" height="48" viewBox="0 0 48 48" fill="none" xmlns="http://www.w3.org/2000/svg">
<path class="Primary" fill-rule="evenodd" clip-rule="evenodd" d="M40 24C40 32.8366 32.8366 40 24 40C15.1634 40 8 32.8366 8 24C8 15.1634 15.1634 8 24 8C32.8366 8 40 15.1634 40 24ZM44 24C44 35.0457 35.0457 44 24 44C12.9543 44 4 35.0457 4 24C4 12.9543 12.9543 4 24 4C35.0457 4 44 12.9543 44 24ZM33.4195 20.4089C34.1976 19.6249 34.1928 18.3586 33.4089 17.5805C32.6249 16.8024 31.3586 16.8071 30.5805 17.5911L22.7745 25.456L18.7193 21.8968C17.8891 21.1682 16.6255 21.2505 15.8968 22.0807C15.1682 22.9109 15.2505 24.1745 16.0807 24.9032L22.9634 30.944L33.4195 20.4089Z" fill="#E1E7EA"/>
</svg>
