<svg width="48" height="48" viewBox="0 0 48 48" fill="none" xmlns="http://www.w3.org/2000/svg">
<path fill-rule="evenodd" clip-rule="evenodd" d="M38.4 9.6C37.5163 8.71634 36.0837 8.71634 35.2 9.6L24 20.8L12.8 9.6C11.9164 8.71634 10.4837 8.71634 9.60001 9.6C8.71635 10.4837 8.71635 11.9163 9.6 12.8L20.8 24L9.6 35.2C8.71635 36.0837 8.71635 37.5163 9.6 38.4C10.4837 39.2837 11.9163 39.2837 12.8 38.4L24 27.2L35.2 38.4C36.0837 39.2837 37.5163 39.2837 38.4 38.4C39.2837 37.5163 39.2837 36.0837 38.4 35.2L27.2 24L38.4 12.8C39.2837 11.9163 39.2837 10.4837 38.4 9.6Z" class="Primary" fill="#EF5350"/>
</svg>
