<svg xmlns="http://www.w3.org/2000/svg" width="48" height="48" fill="none" viewBox="0 0 48 48">
  <g class="48x48/Outline/restrict">
    <path fill="#EF5350" fill-rule="evenodd" d="M40 24c0 8.837-7.163 16-16 16a15.931 15.931 0 0 1-9.811-3.36l22.45-22.451A15.931 15.931 0 0 1 40 24Zm-28.64 9.811 22.451-22.45A15.93 15.93 0 0 0 24 8C15.163 8 8 15.163 8 24a15.93 15.93 0 0 0 3.36 9.811ZM44 24c0 11.046-8.954 20-20 20S4 35.046 4 24 12.954 4 24 4s20 8.954 20 20Z" class="Primary" clip-rule="evenodd"/>
  </g>
</svg>
