<svg xmlns="http://www.w3.org/2000/svg" width="64" height="64" fill="none" viewBox="0 0 64 64">
  <g class="64x64/Outline/camera">
    <path fill="#53707F" fill-rule="evenodd" d="M13 13h26a5 5 0 0 1 5 5v28a5 5 0 0 1-5 5H13a5 5 0 0 1-5-5V18a5 5 0 0 1 5-5Zm0 2a3 3 0 0 0-3 3v28a3 3 0 0 0 3 3h26a3 3 0 0 0 3-3V18a3 3 0 0 0-3-3H13Zm35.38 9.69 5-4.333c2.59-2.245 6.62-.405 6.62 3.023v17.24c0 3.428-4.03 5.268-6.62 3.023l-5-4.334A4 4 0 0 1 47 36.288v-8.574a4 4 0 0 1 1.38-3.023Zm1.31 1.512a2 2 0 0 0-.69 1.511v8.574a2 2 0 0 0 .69 1.511l5 4.334c1.295 1.122 3.31.202 3.31-1.512V23.38c0-1.714-2.015-2.634-3.31-1.511l-5 4.333Zm-16.983-.91a1 1 0 0 0-1.414 0L26 30.587l-5.293-5.293a1 1 0 0 0-1.414 1.414L24.586 32l-5.293 5.293a1 1 0 0 0 1.414 1.414L26 33.414l5.293 5.293a1 1 0 0 0 1.414-1.414L27.414 32l5.293-5.293a1 1 0 0 0 0-1.414Z" class="Primary" clip-rule="evenodd"/>
  </g>
</svg>
