<svg xmlns="http://www.w3.org/2000/svg" width="64" height="64" fill="none" viewBox="0 0 64 64">
  <g class="64x64/Outline/cloud_off">
    <path fill="#A3B8C2" d="M16.533 52.6c-3.91 0-7.2-1.311-9.866-3.933-2.667-2.623-4-5.89-4-9.8 0-3.556 1.122-6.534 3.366-8.934 2.245-2.4 5.056-3.866 8.434-4.4a19.75 19.75 0 0 1 .433-2.1 8.46 8.46 0 0 1 .833-2.1l-9.666-9.666c-.4-.4-.6-.867-.6-1.4 0-.534.2-1 .6-1.4.4-.4.866-.6 1.4-.6.533 0 1 .2 1.4.6L56 56c.4.4.6.867.6 1.4 0 .533-.2 1-.6 1.4-.4.4-.878.6-1.433.6-.556 0-1.034-.2-1.434-.6l-6.266-6.2H16.533Zm0-4H43l-24-24a5.449 5.449 0 0 0-.967 2.267 13.608 13.608 0 0 0-.233 2.466h-1.267c-2.755 0-5.089.878-7 2.634-1.91 1.755-2.866 4-2.866 6.733 0 2.733.955 5.067 2.866 7 1.911 1.933 4.245 2.9 7 2.9Zm40.4 1.933L53.8 47.4c1.111-.756 1.978-1.6 2.6-2.533.622-.934.933-2.045.933-3.334 0-1.91-.689-3.544-2.066-4.9-1.378-1.355-3.023-2.033-4.934-2.033h-4.466v-5.4c0-3.911-1.356-7.189-4.067-9.833-2.711-2.645-6.012-3.967-9.902-3.967-1.265 0-2.62.2-4.065.6a11.978 11.978 0 0 0-3.966 1.933l-2.8-2.8c1.6-1.289 3.322-2.233 5.166-2.833 1.845-.6 3.723-.9 5.634-.9 4.933 0 9.166 1.756 12.7 5.267 3.533 3.51 5.3 7.733 5.3 12.666v1.4c3.2-.044 5.91.956 8.133 3 2.222 2.045 3.333 4.645 3.333 7.8 0 1.556-.366 3.19-1.1 4.9-.733 1.711-1.833 3.078-3.3 4.1Z" class="Primary"/>
  </g>
</svg>
