<svg xmlns="http://www.w3.org/2000/svg" width="64" height="64" fill="none" viewBox="0 0 64 64">
  <g class="64x64/Outline/cloud">
    <path fill="#698796" fill-rule="evenodd" d="M17.687 24.5C19.599 18.415 25.282 14 32 14c7.948 0 14.453 6.182 14.967 14H49.5C55.851 28 61 33.149 61 39.5S55.851 51 49.5 51H16.25C8.932 51 3 45.068 3 37.75S8.932 24.5 16.25 24.5h1.437ZM32 16c-6.056 0-11.147 4.142-12.59 9.75l-.194.75H16.25C10.037 26.5 5 31.537 5 37.75S10.037 49 16.25 49H49.5a9.5 9.5 0 0 0 0-19H45v-1c0-7.18-5.82-13-13-13Z" class="Primary" clip-rule="evenodd"/>
  </g>
</svg>
