<svg xmlns="http://www.w3.org/2000/svg" width="64" height="64" fill="none" viewBox="0 0 64 64">
  <g class="64x64/Outline/default">
    <path fill="#53707F" fill-rule="evenodd" d="M57.45 6h-50a1 1 0 0 0-1 1v34.813l6.98-5.235a5 5 0 0 1 5.607-.266l8.497 5.193a3 3 0 0 0 3.686-.439l12.64-12.64a5 5 0 0 1 6.42-.55l8.17 5.768V7a1 1 0 0 0-1-1Zm1 30.092-9.324-6.582a3 3 0 0 0-3.851.33l-12.64 12.64a5 5 0 0 1-6.144.731l-8.497-5.193a3 3 0 0 0-3.365.16L6.45 44.313V57a1 1 0 0 0 1 1h50a1 1 0 0 0 1-1V36.092ZM7.45 4a3 3 0 0 0-3 3v50a3 3 0 0 0 3 3h50a3 3 0 0 0 3-3V7a3 3 0 0 0-3-3h-50Zm12 20a6 6 0 1 0 0-12 6 6 0 0 0 0 12Zm0 2a8 8 0 1 0 0-16 8 8 0 0 0 0 16Z" class="Primary" clip-rule="evenodd"/>
  </g>
</svg>
