<svg xmlns="http://www.w3.org/2000/svg" width="64" height="64" fill="none" viewBox="0 0 64 64">
  <g class="64x64/Outline/error">
    <path fill="#EF5350" fill-rule="evenodd" d="M32 61c16.016 0 29-12.984 29-29S48.016 3 32 3 3 15.984 3 32s12.984 29 29 29Zm28-29c0 15.464-12.536 28-28 28S4 47.464 4 32 16.536 4 32 4s28 12.536 28 28ZM42.586 45.414a1 1 0 0 1-1.414 0L32 36.243l-9.172 9.171a1 1 0 0 1-1.414 0l-2.828-2.828a1 1 0 0 1 0-1.414L27.757 32l-9.171-9.172a1 1 0 0 1 0-1.414l2.828-2.828a1 1 0 0 1 1.414 0L32 27.757l9.172-9.171a1 1 0 0 1 1.414 0l2.828 2.828a1 1 0 0 1 0 1.414L36.243 32l9.171 9.172a1 1 0 0 1 0 1.414l-2.828 2.828Z" class="Primary" clip-rule="evenodd"/>
  </g>
</svg>
