<svg xmlns="http://www.w3.org/2000/svg" width="64" height="64" fill="none" viewBox="0 0 64 64">
  <g class="64x64/Outline/error">
    <path fill="#EF5350" fill-rule="evenodd" d="M19.121 56.707 7.293 44.88A1 1 0 0 1 7 44.172V19.828a1 1 0 0 1 .293-.707L19.12 7.293A1 1 0 0 1 19.828 7h24.344a1 1 0 0 1 .707.293L56.707 19.12a1 1 0 0 1 .293.707v24.344a1 1 0 0 1-.293.707L44.88 56.707a1 1 0 0 1-.707.293H19.828a1 1 0 0 1-.707-.293ZM6 19.828a2 2 0 0 1 .586-1.414L18.414 6.586A2 2 0 0 1 19.828 6h24.344a2 2 0 0 1 1.414.586l11.828 11.828A2 2 0 0 1 58 19.828v24.344a2 2 0 0 1-.586 1.414L45.586 57.414a2 2 0 0 1-1.414.586H19.828a2 2 0 0 1-1.414-.586L6.586 45.586A2 2 0 0 1 6 44.172V19.828Zm36.586 25.586a1 1 0 0 1-1.414 0L32 36.243l-9.172 9.171a1 1 0 0 1-1.414 0l-2.828-2.828a1 1 0 0 1 0-1.414L27.757 32l-9.171-9.172a1 1 0 0 1 0-1.414l2.828-2.828a1 1 0 0 1 1.414 0L32 27.757l9.172-9.171a1 1 0 0 1 1.414 0l2.828 2.828a1 1 0 0 1 0 1.414L36.243 32l9.171 9.172a1 1 0 0 1 0 1.414l-2.828 2.828Z" class="Primary" clip-rule="evenodd"/>
  </g>
</svg>
