<svg xmlns="http://www.w3.org/2000/svg" width="64" height="64" fill="none" viewBox="0 0 64 64">
  <g class="64x64/Outline/future">
    <path fill="#53707F" fill-rule="evenodd" d="m46.225 30.75-4.471 4.47h.001a25.78 25.78 0 0 0-12.506 6.908l-5.675 5.674-6.74-6.74 5.674-5.675a25.78 25.78 0 0 0 6.907-12.506l4.471-4.47A40 40 0 0 1 52.47 7.888l5.704-1.426-1.426 5.703A39.999 39.999 0 0 1 46.225 30.75Zm-18.67-8.838 4.917-4.916A42 42 0 0 1 51.984 5.948l7.32-1.83a1 1 0 0 1 1.213 1.213l-1.83 7.32A42 42 0 0 1 47.64 32.163l-4.917 4.917a25.78 25.78 0 0 1-6.733 11.789l-7.36 7.36-1.414 1.414-1.414-1.414-3.913-3.913-1.414-1.414 1.414-1.415.271-.27-.843-.843-.27.27-.301.301-1.114 1.114-1.414-1.414-2.227-2.228-1.415-1.414 1.114-1.113.3-.3.272-.272-.843-.843-.271.271-1.414 1.415-1.414-1.415-3.913-3.912-1.414-1.415 1.414-1.414 7.36-7.36a25.78 25.78 0 0 1 11.789-6.733Zm-.339 32.902 7.36-7.36a23.781 23.781 0 0 0 5.915-9.827 23.781 23.781 0 0 0-9.828 5.915l-7.36 7.36 3.913 3.912ZM13.734 41.332l7.36-7.36a23.778 23.778 0 0 0 5.915-9.828 23.781 23.781 0 0 0-9.828 5.916l-7.36 7.36 3.913 3.912ZM44.64 19.995a2.767 2.767 0 1 0 3.913-3.912 2.767 2.767 0 0 0-3.913 3.912Zm-1.414 1.414a4.767 4.767 0 1 0 6.741-6.74 4.767 4.767 0 0 0-6.74 6.74Zm-3.1 5.327A1.575 1.575 0 1 1 37.9 24.51a1.575 1.575 0 0 1 2.228 2.227Zm1.415 1.415a3.575 3.575 0 1 1-5.056-5.056 3.575 3.575 0 0 1 5.056 5.056ZM16.26 56.8l3.371-3.371 1.415 1.414-3.371 3.37-1.414-1.414ZM6.152 46.687l3.37-3.37 1.414 1.414-3.37 3.37L6.15 46.69Zm6.74 0L1.937 57.643l1.414 1.414 10.954-10.954-1.414-1.415ZM5.307 61.013 16.262 50.06l1.414 1.414L6.722 62.428l-1.415-1.415Z" class="Primary" clip-rule="evenodd"/>
  </g>
</svg>
