<svg xmlns="http://www.w3.org/2000/svg" width="64" height="64" fill="none" viewBox="0 0 64 64">
  <g class="64x64/Outline/list">
    <path fill="#53707F" fill-rule="evenodd" d="M6 6h52v3.14a7.002 7.002 0 0 0 0 13.72v2.28a7.003 7.003 0 0 0 0 13.72v2.68a7 7 0 0 0 0 12.92V58H6V6Zm53.4 5c.203 0 .403.012.6.036V4H4v56h56v-7.049a5.001 5.001 0 0 1 0-9.903v-6.084a5.056 5.056 0 0 1-1.2 0 5 5 0 0 1 1.2-9.928v-6.072a5.056 5.056 0 0 1-1.2 0A5 5 0 0 1 59.4 11Zm-44.981 2h-3.907v-2h3.907v2Zm9.767 0h-7.814v-2h7.814v2Zm9.767 0H26.14v-2h7.814v2Zm9.768 0h-7.814v-2h7.814v2Zm5.86 0h-3.907v-2h3.907v2ZM12.682 26.023h-2.17v-2h2.17v2Zm6.512 0h-4.341v-2h4.34v2Zm6.511 0h-4.34v-2h4.34v2Zm6.512 0h-4.341v-2h4.341v2Zm6.512 0h-4.341v-2h4.34v2Zm6.511 0H40.9v-2h4.34v2Zm4.341 0h-2.17v-2h2.17v2Zm-39.07 13.024h8.683v-2h-8.682v2Zm10.853 0h17.365v-2H21.364v2Zm19.535 0h8.682v-2H40.9v2ZM20.279 52.07h-9.767v-2h9.767v2Zm29.302 0h-9.767v-2h9.767v2Z" class="Primary" clip-rule="evenodd"/>
  </g>
</svg>
