<svg xmlns="http://www.w3.org/2000/svg" width="64" height="64" fill="none" viewBox="0 0 64 64">
  <g class="64x64/Outline/motion">
    <path fill="#53707F" fill-rule="evenodd" d="M36.371 7.072a1 1 0 0 1 .557 1.3C36.322 9.89 36 11.757 36 14a1 1 0 0 1-.684.949c-4.83 1.61-8.287 4.154-10.472 7.588-1.73 2.717-2.682 4.639-3.208 6.217C21.118 30.31 21 31.57 21 33c0 1.176.723 2.826 1.88 4.156 1.183 1.361 2.486 2.02 3.456 1.858a1 1 0 0 1 1.058 1.433c-.654 1.31-1.465 2.572-2.265 3.772l-.526.785c-.623.927-1.22 1.813-1.744 2.695-1.355 2.28-2.01 4.183-1.41 5.985a1 1 0 0 1-1.898.632c-.9-2.698.195-5.295 1.59-7.64.555-.933 1.192-1.881 1.82-2.815.17-.252.338-.502.504-.752.498-.747.979-1.487 1.416-2.23-1.355-.372-2.588-1.349-3.51-2.41C20.026 36.923 19 34.824 19 33c0-1.571.133-3.06.739-4.879.599-1.797 1.646-3.875 3.417-6.658 2.373-3.728 6.02-6.441 10.854-8.179.063-2.13.408-4.022 1.062-5.655a1 1 0 0 1 1.3-.557Z" class="Primary" clip-rule="evenodd" opacity=".5"/>
    <path fill="#53707F" fill-rule="evenodd" d="M29.316 7.051a1 1 0 0 1 .633 1.265c-.337 1.012-1.007 1.668-1.555 2.06a4.76 4.76 0 0 1-.96.53l-.076.028-.025.01h-.004c-3.888 1.374-7.108 5.342-9.46 9.487-2.334 4.116-3.664 8.141-3.888 9.265-.235 1.174-.462 3.013.053 5.13.511 2.1 1.768 4.54 4.606 6.906a1 1 0 0 1 .067 1.475c-3.147 3.147-4.519 6.7-4.21 10.716a1 1 0 0 1-1.994.154c-.332-4.315 1.045-8.167 4.056-11.512-2.618-2.426-3.908-4.965-4.468-7.266-.61-2.508-.337-4.669-.072-5.995.276-1.376 1.696-5.601 4.111-9.86 2.399-4.229 5.927-8.76 10.537-10.387l.015-.005-.003.001h-.003l.022-.007c.023-.01.064-.026.116-.051.106-.05.256-.131.417-.246.327-.233.657-.577.82-1.065a1 1 0 0 1 1.265-.633Zm-2.64 2.003c-.001 0-.001 0 0 0Z" class="Primary" clip-rule="evenodd" opacity=".3"/>
    <path fill="#53707F" fill-rule="evenodd" d="M19.832 6.445a1 1 0 0 1-.277 1.387c-.39.26-1.108.925-2.197 2.098-1.063 1.145-2.421 2.708-4.076 4.694-3.127 4.097-5.313 9.672-6.041 14.95-.736 5.335.05 10.081 2.496 12.75a1 1 0 0 1 .157 1.123C8.302 46.632 7.5 50.144 7.5 54a1 1 0 1 1-2 0c0-3.907.769-7.528 2.316-10.848-2.675-3.366-3.282-8.592-2.557-13.851.771-5.59 3.08-11.507 6.447-15.908l.026-.033c1.672-2.006 3.06-3.605 4.16-4.79 1.077-1.16 1.942-1.995 2.553-2.402a1 1 0 0 1 1.387.277Z" class="Primary" clip-rule="evenodd" opacity=".1"/>
    <path fill="#53707F" fill-rule="evenodd" d="M46 15.2a3 3 0 1 0 0-6 3 3 0 0 0 0 6Zm0 2a5 5 0 1 0 0-10 5 5 0 0 0 0 10ZM34.67 39.217a1.476 1.476 0 0 1 1.561.254c.689.61 1.115 1.099 1.52 1.562l.023.026c.401.46.79.903 1.45 1.492.848.757.934 2.066.18 2.924a34.884 34.884 0 0 0-1.517 1.887l-.136.178a58.7 58.7 0 0 1-1.554 1.974c-.347.417-.696.857-1.06 1.314l-.08.103c-.39.49-.794.996-1.208 1.489-.822.978-1.721 1.948-2.706 2.683-1.225.915-2.57 1.224-3.646.493-.987-.671-1.285-1.931-1.179-3.045.086-.899.493-1.705.984-2.407.492-.703 1.12-1.372 1.735-1.993.202-.205.402-.403.597-.597l.001-.001c.42-.416.82-.815 1.198-1.225.549-.597.974-1.142 1.234-1.658.105-.208.208-.408.308-.603.626-1.216 1.147-2.229 1.365-3.657.087-.568.467-1 .93-1.193Zm.876 2.361c-.33 1.351-.886 2.427-1.407 3.435-.097.188-.193.373-.286.557-.385.764-.957 1.47-1.548 2.112-.41.445-.864.896-1.299 1.328l-.001.002h-.002c-.186.187-.37.369-.544.545-.604.61-1.13 1.179-1.518 1.734-.39.557-.592 1.031-.632 1.451-.07.74.175 1.106.313 1.2.048.033.408.243 1.325-.441.796-.595 1.578-1.423 2.371-2.368.394-.469.782-.955 1.172-1.446l.084-.106c.36-.453.723-.91 1.084-1.345a55.607 55.607 0 0 0 1.505-1.912l.135-.176a36.759 36.759 0 0 1 1.603-1.992.074.074 0 0 0 .017-.056.08.08 0 0 0-.026-.057 17.025 17.025 0 0 1-1.625-1.668l-.013-.015a19.08 19.08 0 0 0-.708-.782Zm3.051-21.712c1.64-.16 3.201-.08 4.587.383 1.397.466 2.293.945 3.238 1.913.995 1.017 2.066 2.596 3.72 5.353.518.863 1.373 1.732 2.121 2.493l.283.288c.888.91 1.537 1.642 1.78 2.267.399 1.022.024 1.5-.27 1.676-.362.216-.955.213-1.43-.31-.536-.592-1.045-1.124-1.531-1.633-2.018-2.11-3.649-3.815-5.273-7.683a1.045 1.045 0 0 0-.682-.607 1.047 1.047 0 0 0-.869.147 1.444 1.444 0 0 0-.394.426l-.002.003a6.555 6.555 0 0 0-.405.802c-.279.63-.627 1.53-.982 2.489a216.894 216.894 0 0 0-1.838 5.222 2.01 2.01 0 0 0 .458 2.038c1.291 1.348 4.962 5.361 6.478 8.773.333.75 1.711 3.872 2.304 6.616.23 1.063.32 1.98.234 2.645-.086.661-.3.832-.47.895-.179.066-.364.067-.687-.226-.362-.33-.75-.926-1.136-1.757-.547-1.178-.824-2.46-1.102-3.749l-.058-.266c-.145-.668-.299-1.348-.502-1.963-.204-.613-.477-1.227-.897-1.737-2.521-3.06-4.553-5.03-6.002-6.433-.57-.553-1.05-1.018-1.433-1.427-.696-.743-1.072-1.289-1.268-1.875-.195-.584-.246-1.317-.08-2.488.236-1.648.834-3.572 1.393-5.189.193-.556.375-1.06.536-1.504l.203-.565c.098-.274.184-.52.246-.719a5.26 5.26 0 0 0 .083-.29c.017-.071.05-.216.05-.374 0-.334-.156-.731-.554-.955a1.2 1.2 0 0 0-.729-.135c-.284.033-.564.153-.772.256-.458.226-1.022.604-1.58 1.061-1.441 1.183-2.442 2.75-3.183 4.353a43 43 0 0 1-.758 1.542 55.86 55.86 0 0 0-.522 1.041c-.474.976-.905 1.627-1.275 2.019-.378.4-.581.418-.616.418-.603-.006-.859-.138-.955-.214-.073-.057-.143-.15-.166-.384-.057-.57.218-1.463.686-2.485.89-1.942 1.928-3.883 3.043-5.47 1.138-1.622 2.276-2.766 2.943-3.22a8.563 8.563 0 0 1 4.035-1.46Zm5.22-1.515c-1.74-.58-3.604-.653-5.414-.475a10.56 10.56 0 0 0-4.965 1.797c-.988.672-2.2 2.077-3.356 3.724a37.772 37.772 0 0 0-3.324 5.787c-.463 1.01-.975 2.352-.858 3.516.063.634.319 1.282.914 1.754.571.452 1.325.637 2.175.646.832.009 1.534-.454 2.093-1.046.567-.6 1.103-1.454 1.619-2.517.143-.294.303-.608.47-.939.268-.527.556-1.093.827-1.678.585-1.266 1.303-2.401 2.227-3.284-.076.213-.154.434-.233.662-.565 1.633-1.217 3.71-1.482 5.56-.19 1.33-.17 2.41.162 3.404.33.992.937 1.79 1.705 2.61a49.044 49.044 0 0 0 1.611 1.605c1.434 1.388 3.294 3.188 5.74 6.159.198.24.376.593.542 1.095.166.5.3 1.084.447 1.758l.065.3c.268 1.25.59 2.742 1.235 4.132.421.908.944 1.793 1.604 2.394.7.637 1.649 1.02 2.724.623 1.174-.432 1.631-1.505 1.762-2.513.131-1.005-.016-2.186-.262-3.325-.642-2.972-2.104-6.27-2.431-7.006-1.677-3.775-5.594-8.02-6.862-9.345-.007-.007-.008-.013-.008-.013a213.78 213.78 0 0 1 1.82-5.169c.17-.46.335-.896.488-1.288 1.52 2.983 3.125 4.658 4.848 6.457.473.493.954.995 1.444 1.536 1.098 1.21 2.736 1.403 3.939.684 1.272-.76 1.797-2.35 1.107-4.12-.419-1.073-1.392-2.095-2.213-2.937l-.277-.283c-.786-.802-1.456-1.486-1.843-2.13-1.646-2.744-2.825-4.515-4.005-5.723-1.23-1.257-2.433-1.878-4.036-2.412Zm1.75 7.298.013-.018-.005.006-.008.012Z" class="Primary" clip-rule="evenodd"/>
  </g>
</svg>
