<svg xmlns="http://www.w3.org/2000/svg" width="64" height="64" fill="none" viewBox="0 0 64 64">
  <g class="64x64/Outline/motion">
    <path fill="#53707F" fill-rule="evenodd" d="M45.962 9.217a3 3 0 1 0 0 6 3 3 0 0 0 0-6Zm-5 3a5 5 0 1 1 10 0 5 5 0 0 1-10 0ZM39 18h3.526c1.439.037 2.955.941 4.114 1.838 1.197.927 2.248 2.032 2.772 2.785.42.604.91 1.433 1.469 2.47a17.996 17.996 0 0 0 2.522 3.566l2.049 2.257a3.088 3.088 0 0 1-4.382 4.352l-.015-.015-2.464-2.627a20.997 20.997 0 0 1-3.224-4.507l-.403-.759-2.43 6.37a173.258 173.258 0 0 1 2.372 2.918c1.444 1.816 3.128 4.015 3.885 5.332 1.028 1.79 2.124 5.22 3.312 10.15a3.088 3.088 0 0 1-2.077 3.828 1 1 0 0 1-.142.032 2.88 2.88 0 0 1-.738.012 3.087 3.087 0 0 1-2.994-2.195l-2.518-8.388-.296-.306c-1.581-1.64-4.993-5.18-6.374-6.362a8.096 8.096 0 0 1-2.182-8.554c.343-1.168.806-2.61 1.258-4.021l.136-.427c-.641.52-1.194 1.175-1.498 1.818l-.017.033-3.046 5.863a3.092 3.092 0 0 1-5.347.249 3.09 3.09 0 0 1-.144-3.088l.002-.004 3.104-5.936c1.794-3.658 5.495-6.656 9.763-6.684H39Zm1.626 16.565a1 1 0 0 1-.169-1l3.423-8.973a1 1 0 0 1 1.817-.114l1.436 2.702a18.996 18.996 0 0 0 2.917 4.078l2.45 2.612a1.088 1.088 0 1 0 1.487-1.593l-2.065-2.274a20 20 0 0 1-2.802-3.962c-.543-1.01-.992-1.762-1.35-2.275-.384-.552-1.281-1.516-2.354-2.346-1.106-.856-2.176-1.396-2.93-1.42h-3.483c-3.328.023-6.434 2.41-7.983 5.575a.877.877 0 0 1-.012.024L27.9 31.543l-.001.001a1.091 1.091 0 0 0 1.939 1l3.04-5.85c.471-.988 1.26-1.88 2.094-2.543.821-.653 1.816-1.186 2.746-1.283a1 1 0 0 1 1.059 1.29c-.262.844-.555 1.76-.849 2.676-.447 1.393-.894 2.79-1.234 3.947a6.096 6.096 0 0 0 1.586 6.465c1.475 1.266 4.954 4.877 6.506 6.487l.454.471a1 1 0 0 1 .239.408l2.587 8.617c.144.475.59.793 1.087.772a.993.993 0 0 1 .187.01c.06.008.122.01.183.007a1.087 1.087 0 0 0 .657-1.335 1.049 1.049 0 0 1-.016-.058c-1.196-4.968-2.24-8.138-3.109-9.649-.667-1.161-2.249-3.24-3.715-5.083a181.813 181.813 0 0 0-2.496-3.065l-.163-.196-.056-.067Zm-5.635 4.549a1 1 0 0 1 .996.282l.246.263c.719.593 1.963 1.844 3.257 3.22a1 1 0 0 1 .24.438c.27 1.059-.157 2.056-.863 2.905l-7.05 8.698a3.088 3.088 0 0 1-2.405 1.143h-.003l.003-1 .004 1h-.004a3.088 3.088 0 0 1-3.077-2.76 3.087 3.087 0 0 1 .673-2.272l.776.63-.776-.63 4.677-5.774a12.991 12.991 0 0 0 2.594-5.393 1 1 0 0 1 .712-.75Zm.78 2.826a14.99 14.99 0 0 1-2.532 4.576L28.56 52.29a1.087 1.087 0 0 0 .162 1.533m7.048-11.884c.56.537 1.268 1.258 2.037 2.07-.015.206-.124.508-.483.938l-7.062 8.712a1.086 1.086 0 0 1-.848.403h-.007a1.09 1.09 0 0 1-.685-.24" class="Primary" clip-rule="evenodd"/>
    <path fill="#53707F" fill-rule="evenodd" d="M36.371 7.072a1 1 0 0 1 .557 1.3C36.322 9.89 36 11.757 36 14a1 1 0 0 1-.684.949c-4.83 1.61-8.287 4.154-10.472 7.588-1.73 2.717-2.682 4.639-3.208 6.217C21.118 30.31 21 31.57 21 33c0 1.176.723 2.826 1.88 4.156 1.183 1.361 2.486 2.02 3.456 1.858a1 1 0 0 1 1.058 1.433c-.654 1.31-1.465 2.572-2.265 3.772l-.526.785c-.623.927-1.22 1.813-1.744 2.695-1.355 2.28-2.01 4.183-1.41 5.985a1 1 0 0 1-1.898.632c-.9-2.698.195-5.295 1.59-7.64.555-.933 1.192-1.881 1.82-2.815.17-.252.338-.502.504-.752.498-.747.979-1.487 1.416-2.23-1.355-.372-2.588-1.349-3.51-2.41C20.026 36.923 19 34.824 19 33c0-1.571.133-3.06.739-4.879.599-1.797 1.646-3.875 3.417-6.658 2.373-3.728 6.02-6.441 10.854-8.179.063-2.13.408-4.022 1.062-5.655a1 1 0 0 1 1.3-.557Z" class="Primary" clip-rule="evenodd" opacity=".5"/>
    <path fill="#53707F" fill-rule="evenodd" d="M29.316 7.051a1 1 0 0 1 .633 1.265c-.338 1.012-1.007 1.668-1.555 2.06a4.76 4.76 0 0 1-.96.53l-.076.028-.025.01h-.004c-3.888 1.374-7.108 5.342-9.46 9.487-2.334 4.116-3.664 8.141-3.888 9.265-.235 1.174-.462 3.013.053 5.13.511 2.1 1.768 4.54 4.606 6.906a1 1 0 0 1 .067 1.475c-3.147 3.147-4.519 6.7-4.21 10.716a1 1 0 1 1-1.994.154c-.332-4.315 1.045-8.167 4.056-11.512-2.618-2.426-3.908-4.965-4.468-7.266-.61-2.508-.337-4.669-.072-5.995.276-1.376 1.696-5.601 4.111-9.86 2.399-4.229 5.927-8.76 10.537-10.387l.015-.005-.003.001h-.003l.022-.007c.023-.01.064-.026.116-.051.106-.05.256-.131.417-.246.327-.233.657-.577.82-1.065a1 1 0 0 1 1.265-.633Zm-2.64 2.003c-.001 0-.001 0 0 0Z" class="Primary" clip-rule="evenodd" opacity=".3"/>
    <path fill="#53707F" fill-rule="evenodd" d="M19.832 6.445a1 1 0 0 1-.277 1.387c-.39.26-1.108.925-2.197 2.098-1.063 1.145-2.421 2.708-4.076 4.694-3.127 4.097-5.313 9.672-6.041 14.95-.736 5.335.05 10.081 2.496 12.75a1 1 0 0 1 .157 1.123C8.302 46.632 7.5 50.144 7.5 54a1 1 0 1 1-2 0c0-3.907.769-7.528 2.316-10.848-2.675-3.366-3.282-8.592-2.557-13.851.771-5.59 3.08-11.507 6.447-15.908l.026-.033c1.672-2.006 3.06-3.605 4.16-4.79 1.077-1.16 1.942-1.995 2.553-2.402a1 1 0 0 1 1.387.277Z" class="Primary" clip-rule="evenodd" opacity=".1"/>
  </g>
</svg>
