<svg xmlns="http://www.w3.org/2000/svg" width="64" height="64" fill="none" viewBox="0 0 64 64">
  <g class="64x64/Outline/no_access">
    <path fill="#53707F" fill-rule="evenodd" d="M30 6.5a2.5 2.5 0 0 1 5 0v20.484a1 1 0 0 0 2 0V10.497a2.5 2.5 0 0 1 5 0v18.686a1 1 0 0 0 2 0V18.987a2.5 2.5 0 0 1 5 .004v18.775c.695.253 1.364.561 2 .92V18.99a4.5 4.5 0 0 0-7-3.742v-4.752a4.5 4.5 0 0 0-7-3.742v-.256a4.5 4.5 0 1 0-9 0v.256a4.5 4.5 0 0 0-7 3.742v22.415a11.64 11.64 0 0 0-1.049.13l-.415.072-1.479-6.174c-1.005-4.196-5.766-6.242-9.503-4.084a1.11 1.11 0 0 0-.516 1.25l4.079 15.11.003.012 1.703 5.993a18.44 18.44 0 0 0 19.736 13.293 13.5 13.5 0 0 1-1.193-1.911 16.44 16.44 0 0 1-16.62-11.928l-1.7-5.987-3.885-14.393c2.462-.97 5.31.438 5.951 3.111l1.583 6.605a1.525 1.525 0 0 0 1.741 1.149l.853-.146a9.537 9.537 0 0 1 10.736 6.63 1 1 0 1 0 1.914-.581A11.54 11.54 0 0 0 23 32.928V10.497a2.5 2.5 0 0 1 5 0v16.487a1 1 0 0 0 2 0V6.5ZM44.446 60a9.538 9.538 0 0 1-6.013-2.119l13.434-13.384A9.449 9.449 0 0 1 54 50.488C54 55.734 49.73 60 44.446 60Zm6.002-16.912L37.017 56.47a9.449 9.449 0 0 1-2.126-5.982c0-5.246 4.27-9.511 9.555-9.511 2.275 0 4.363.79 6.002 2.11ZM44.446 62c-6.382 0-11.555-5.154-11.555-11.512 0-6.358 5.173-11.511 11.555-11.511 6.38 0 11.554 5.153 11.554 11.51C56 56.846 50.827 62 44.446 62Z" class="Primary" clip-rule="evenodd"/>
  </g>
</svg>
