<svg xmlns="http://www.w3.org/2000/svg" width="64" height="64" fill="none" viewBox="0 0 64 64">
  <g class="64x64/Outline/no_camera_settings">
    <path fill="#53707F" fill-rule="evenodd" d="M6 5h52v12H6V5ZM4 5a2 2 0 0 1 2-2h52a2 2 0 0 1 2 2v12a2 2 0 0 1-2 2h-2c0 4.737-.66 9.45-1.962 14.005l-.076.27a1 1 0 1 1-1.924-.55l.078-.27A48.983 48.983 0 0 0 54 19H10c0 4.551.634 9.08 1.885 13.456l.076.27a1 1 0 1 1-1.922.549l-.077-.27A50.98 50.98 0 0 1 8 19H6a2 2 0 0 1-2-2V5Zm7 4a1 1 0 0 0-1 1v2a1 1 0 0 0 1 1h2a1 1 0 0 0 1-1v-2a1 1 0 0 0-1-1h-2Zm5 1a1 1 0 0 1 1-1h2a1 1 0 0 1 1 1v2a1 1 0 0 1-1 1h-2a1 1 0 0 1-1-1v-2Zm7-1a1 1 0 0 0-1 1v2a1 1 0 0 0 1 1h2a1 1 0 0 0 1-1v-2a1 1 0 0 0-1-1h-2Zm3.958 15.79A3 3 0 0 1 29.95 22h3.803a3 3 0 0 1 2.992 2.79l.08 1.15c.726.265 1.426.583 2.095.949l.933-.811a3 3 0 0 1 4.09.143l2.688 2.689a3 3 0 0 1 .143 4.088l-1.087 1.251c.247.559.461 1.135.641 1.726l1.883.132a3 3 0 0 1 2.79 2.992v3.803a3 3 0 0 1-2.79 2.992l-2.235.157c-.177.461-.375.911-.593 1.35l1.392 1.602a3 3 0 0 1-.144 4.089l-2.688 2.688a3 3 0 0 1-4.09.144l-1.657-1.441c-.423.202-.855.386-1.298.55l-.153 2.178a3 3 0 0 1-2.992 2.79H29.95a3 3 0 0 1-2.992-2.79l-.136-1.93a15.423 15.423 0 0 1-1.558-.587l-1.415 1.23a3 3 0 0 1-4.089-.144l-2.688-2.688a3 3 0 0 1-.144-4.09l.953-1.096a15.429 15.429 0 0 1-.884-1.927l-1.207-.085A3 3 0 0 1 13 42.902v-3.803a3 3 0 0 1 2.79-2.992l.86-.06c.24-.805.545-1.582.907-2.325l-.628-.724a3 3 0 0 1 .143-4.088l2.689-2.69a3 3 0 0 1 4.088-.142l.669.58a15.42 15.42 0 0 1 2.376-.962l.064-.906Zm18.307 25.525-2.313-2.663A13.425 13.425 0 0 0 44.5 44.15l3.57-.25a1 1 0 0 0 .93-.998v-3.803a1 1 0 0 0-.93-.997l-3.327-.234a13.411 13.411 0 0 0-1.44-3.925l1.96-2.256a1 1 0 0 0-.047-1.363l-2.689-2.689a1 1 0 0 0-1.363-.048l-2.039 1.772a13.438 13.438 0 0 0-4.2-1.92l-.176-2.509a1 1 0 0 0-.997-.93H29.95a1 1 0 0 0-.997.93l-.165 2.342a13.42 13.42 0 0 0-4.515 1.823l-1.735-1.508a1 1 0 0 0-1.363.048l-2.689 2.689a1 1 0 0 0-.048 1.363l1.54 1.773a13.415 13.415 0 0 0-1.736 4.48l-2.312.162a1 1 0 0 0-.93.997v3.803a1 1 0 0 0 .93.997l2.55.18a13.437 13.437 0 0 0 1.87 4.035l-1.912 2.2a1 1 0 0 0 .048 1.364l2.688 2.688a1 1 0 0 0 1.363.048l2.42-2.103a13.408 13.408 0 0 0 3.76 1.402l.236 3.358a1 1 0 0 0 .997.93h3.803a1 1 0 0 0 .997-.93l.248-3.529c1.234-.33 2.399-.83 3.467-1.475l2.7 2.347a1 1 0 0 0 1.364-.048l2.688-2.688a1 1 0 0 0 .048-1.363ZM27 36a5 5 0 0 1 10 0v1a2 2 0 0 1 2 2v8a2 2 0 0 1-2 2H27a2 2 0 0 1-2-2v-8a2 2 0 0 1 2-2v-1Zm8 0v1h-6v-1a3 3 0 1 1 6 0Zm-8 3v8h10v-8H27Z" class="Primary" clip-rule="evenodd"/>
  </g>
</svg>
