<svg xmlns="http://www.w3.org/2000/svg" width="64" height="64" fill="none" viewBox="0 0 64 64">
  <g class="64x64/Outline/no_information">
    <path fill="#53707F" fill-rule="evenodd" d="M15.51 5a4 4 0 0 0-2.828 1.17l-8.505 8.5a4 4 0 0 0-1.173 2.83v37.497a4 4 0 0 0 4 4H37a4 4 0 0 0 4-4v-7.023a15.93 15.93 0 0 0 9.433-3.775l9.65 9.623 1.417-1.413-9.626-9.598a15.941 15.941 0 0 0 4.204-10.81c0-7.012-4.508-12.968-10.782-15.13-1.359-.47-2.8-.76-4.296-.845V9a4 4 0 0 0-4-4H15.51Zm9.365 32C26.867 43.061 32.384 47.524 39 47.964v7.033a2 2 0 0 1-2 2H7.004a2 2 0 0 1-2-2V19h9.997a2 2 0 0 0 2-2V7H37a2 2 0 0 1 2 2v7.036c-6.616.44-12.132 4.902-14.124 10.964H12v2h12.36a16.017 16.017 0 0 0-.25 2H12v2h12.109c.042.679.126 1.346.25 2H12v2h12.875ZM15.001 7.066a2 2 0 0 0-.905.52L5.59 16.083a2 2 0 0 0-.523.916h9.934V7.066ZM40.078 46c-7.732 0-14-6.268-14-14 0-.142.002-.285.006-.432C26.314 24.035 32.493 18 40.079 18c1.6 0 3.136.268 4.565.762 5.492 1.892 9.434 7.106 9.434 13.239C54.078 39.732 47.811 46 40.08 46Zm-5.256-20.686a1 1 0 0 0-1.415 1.414l5.318 5.318-5.268 5.268a1 1 0 0 0 1.414 1.414l5.268-5.268 5.268 5.268a1 1 0 0 0 1.415-1.414l-5.269-5.268 5.318-5.318a1 1 0 0 0-1.414-1.414l-5.318 5.318-5.317-5.318Z" class="Primary" clip-rule="evenodd"/>
  </g>
</svg>
