<svg xmlns="http://www.w3.org/2000/svg" width="64" height="64" fill="none" viewBox="0 0 64 64">
  <g class="64x64/Outline/no_layouts">
    <path fill="#53707F" fill-rule="evenodd" d="M39 8H8a1 1 0 0 0-1 1v27a1 1 0 0 0 1 1h31a1 1 0 0 0 1-1V9a1 1 0 0 0-1-1ZM8 6a3 3 0 0 0-3 3v27a3 3 0 0 0 3 3h31a3 3 0 0 0 3-3V9a3 3 0 0 0-3-3H8Zm11 38H8a1 1 0 0 0-1 1v9a1 1 0 0 0 1 1h11a1 1 0 0 0 1-1v-9a1 1 0 0 0-1-1ZM8 42a3 3 0 0 0-3 3v9a3 3 0 0 0 3 3h11a3 3 0 0 0 3-3v-9a3 3 0 0 0-3-3H8ZM48 8h9a1 1 0 0 1 1 1v9a1 1 0 0 1-1 1h-9a1 1 0 0 1-1-1V9a1 1 0 0 1 1-1Zm-3 1a3 3 0 0 1 3-3h9a3 3 0 0 1 3 3v9a3 3 0 0 1-3 3h-9a3 3 0 0 1-3-3V9Zm12 17h-9a1 1 0 0 0-1 1v9a1 1 0 0 0 1 1h9a1 1 0 0 0 1-1v-9a1 1 0 0 0-1-1Zm-9-2a3 3 0 0 0-3 3v9a3 3 0 0 0 3 3h9a3 3 0 0 0 3-3v-9a3 3 0 0 0-3-3h-9Zm0 20h9a1 1 0 0 1 1 1v9a1 1 0 0 1-1 1h-9a1 1 0 0 1-1-1v-9a1 1 0 0 1 1-1Zm-3 1a3 3 0 0 1 3-3h9a3 3 0 0 1 3 3v9a3 3 0 0 1-3 3h-9a3 3 0 0 1-3-3v-9Zm-6-1H28a1 1 0 0 0-1 1v9a1 1 0 0 0 1 1h11a1 1 0 0 0 1-1v-9a1 1 0 0 0-1-1Zm-11-2a3 3 0 0 0-3 3v9a3 3 0 0 0 3 3h11a3 3 0 0 0 3-3v-9a3 3 0 0 0-3-3H28Zm-9.293-25.707-.094-.083a1 1 0 0 0-1.32 1.497l4.792 4.793-4.792 4.793a1 1 0 0 0 1.32 1.497l.094-.083 4.793-4.792 4.793 4.792.094.083a1 1 0 0 0 1.32-1.497L24.915 22.5l4.792-4.793a1 1 0 0 0-1.32-1.497l-.094.083-4.793 4.792-4.793-4.792Z" class="Primary" clip-rule="evenodd"/>
  </g>
</svg>
