<svg xmlns="http://www.w3.org/2000/svg" width="64" height="64" fill="none" viewBox="0 0 64 64">
  <g class="64x64/Outline/no_organization">
    <path fill="#53707F" fill-rule="evenodd" d="M20 7a2 2 0 0 1 2-2h24a2 2 0 0 1 2 2v14.03c1.468.091 2.883.38 4.218.84C58.491 24.034 63 29.99 63 37c0 8.501-6.63 15.453-15 15.97V57a2 2 0 0 1-2 2H2a1 1 0 0 1-1-1V22.765a1 1 0 0 1 .816-.983L20 18.375V7Zm26 45.97C37.63 52.452 31 45.5 31 37c0-.166.003-.33.008-.49v-.002c.25-8.277 6.785-14.97 14.992-15.477V7H22v50h24v-4.03ZM3 23.594l17-3.185V57H3V23.595ZM47 51c-7.73 0-14-6.268-14-14 0-.142.003-.285.007-.432C33.236 29.035 39.414 23 47 23c1.6 0 3.136.268 4.565.761C57.057 25.655 61 30.869 61 37.002 61 44.732 54.732 51 47 51Zm5.293-20.707a1 1 0 0 1 1.414 1.414L48.414 37l5.293 5.293a1 1 0 0 1-1.414 1.414L47 38.414l-5.293 5.293a1 1 0 0 1-1.414-1.414L45.586 37l-5.293-5.293a1 1 0 0 1 1.414-1.414L47 35.586l5.293-5.293ZM6 28v-2h11v2H6Zm19-14v2h18v-2H25Zm0-2v-2h18v2H25Zm0 6v2h10v-2H25ZM6 32v-2h11v2H6Zm0 2v2h5v-2H6Z" class="Primary" clip-rule="evenodd"/>
  </g>
</svg>
