<svg xmlns="http://www.w3.org/2000/svg" width="64" height="64" fill="none" viewBox="0 0 64 64">
  <g class="64x64/Outline/no_partner">
    <path fill="#53707F" fill-rule="evenodd" d="M24 4a2 2 0 0 0-2 2v4h2V6h16v4h2V6a2 2 0 0 0-2-2H24ZM10 6h6v2h-6V6Zm38 0h6v2h-6V6ZM6 21.064V43h10v2H6a2 2 0 0 1-2-2V12a2 2 0 0 1 2-2h52a2 2 0 0 1 2 2v31a2 2 0 0 1-2 2H47.97C47.452 53.37 40.5 60 32 60c-8.835 0-16-7.163-16-16 0-.166.003-.33.008-.49v-.002C16.268 34.898 23.33 28 32 28c1.826 0 3.58.306 5.217.87C43.191 30.93 47.564 36.428 47.97 43H58V21.094C49 23.421 41.024 25 33.5 25c-8.51 0-17.48-1.59-27.5-3.936Zm52-2.036C48.832 21.416 40.901 23 33.5 23c-8.405 0-17.337-1.596-27.5-3.99V12h52v7.028ZM18 44.001C18 51.732 24.27 58 32 58c7.732 0 14-6.268 14-14 0-6.132-3.943-11.346-9.434-13.238A13.965 13.965 0 0 0 32 30c-7.587 0-13.765 6.035-13.994 13.568-.004.147-.007.29-.007.433Zm20.707-6.708a1 1 0 0 0-1.414 0L32 42.586l-5.293-5.293a1 1 0 0 0-1.414 1.414L30.586 44l-5.293 5.293a1 1 0 0 0 1.414 1.414L32 45.414l5.293 5.293a1 1 0 1 0 1.414-1.414L33.414 44l5.293-5.293a1 1 0 0 0 0-1.414Z" class="Primary" clip-rule="evenodd"/>
  </g>
</svg>
