<svg xmlns="http://www.w3.org/2000/svg" width="64" height="64" fill="none" viewBox="0 0 64 64">
  <g class="64x64/Outline/nobookmarks">
    <path fill="#53707F" d="M48 5a4 4 0 0 1 4 4v50L32 47.91 12 59V9a4 4 0 0 1 4-4h32Zm0 2H16a2 2 0 0 0-1.995 1.85L14 9v46.603l18-9.98 18 9.981V9a2 2 0 0 0-1.85-1.995L48 7ZM26.737 18.226l.101.09L32 23.476l5.162-5.162.101-.09a1.077 1.077 0 0 1 1.505 1.52l-.083.093L33.523 25l5.162 5.162a1.077 1.077 0 0 1-1.422 1.612l-.101-.09L32 26.524l-5.162 5.162-.101.09a1.077 1.077 0 0 1-1.505-1.52l.083-.093L30.477 25l-5.162-5.162a1.077 1.077 0 0 1 1.422-1.612Z" class="Primary"/>
  </g>
</svg>
