<svg xmlns="http://www.w3.org/2000/svg" width="64" height="64" fill="none" viewBox="0 0 64 64">
  <g class="64x64/Outline/nogroups">
    <path fill="#53707F" fill-rule="evenodd" d="M28.534 10a7.006 7.006 0 0 0-7.006 7.006v3.488a7.006 7.006 0 0 0 14.012 0v-3.488A7.006 7.006 0 0 0 28.534 10Zm-9.006 7.006a9.006 9.006 0 0 1 13.006-8.071 9.006 9.006 0 0 1 13.006 8.07v3.49a9.006 9.006 0 0 1-13.006 8.07 9.006 9.006 0 0 1-13.006-8.07v-3.49ZM34.534 27.21a7.006 7.006 0 0 0 9.006-6.716v-3.488a7.006 7.006 0 0 0-9.006-6.716 8.983 8.983 0 0 1 3.006 6.716v3.488a8.983 8.983 0 0 1-3.006 6.716ZM8.816 42.621a12 12 0 0 1 11.778-9.704h22.812a12 12 0 0 1 11.778 9.704l.779 3.996A2 2 0 0 1 54 49h-8v-2l-.779-3.996a10 10 0 0 0-9.815-8.087H20.595a10 10 0 0 0-9.816 8.087L10 47h8v2h-8a2 2 0 0 1-1.963-2.383l.78-3.996ZM48.038 47H54l-.779-3.996a10 10 0 0 0-9.815-8.087H42.04a11.987 11.987 0 0 1 5.144 7.704L48.038 47ZM28 49v-2 2Zm9.293-6.707a1 1 0 0 1 1.414 1.414L33.414 49l5.293 5.293a1 1 0 1 1-1.414 1.414L32 50.414l-5.293 5.293a1 1 0 0 1-1.414-1.414L30.586 49l-5.293-5.293a1 1 0 0 1 1.414-1.414L32 47.586l5.293-5.293Z" class="Primary" clip-rule="evenodd"/>
  </g>
</svg>
