<svg xmlns="http://www.w3.org/2000/svg" width="64" height="64" fill="none" viewBox="0 0 64 64">
  <g class="64x64/Outline/nolist">
    <path fill="#53707F" fill-rule="evenodd" d="M25 4h26a1 1 0 0 1 1 1v54a1 1 0 0 1-1 1H13a1 1 0 0 1-1-1V15.507 17h11a2 2 0 0 0 2-2V4Zm-2 .138a1 1 0 0 0-.2.155L12.292 14.816a.999.999 0 0 0-.145.184H23V4.138ZM21.385 2.88A3 3 0 0 1 23.508 2H51a3 3 0 0 1 3 3v54a3 3 0 0 1-3 3H13a3 3 0 0 1-3-3V15.523a3 3 0 0 1 .877-2.12L21.385 2.88Zm16.529 20.178a1 1 0 0 0-1.414 0l-4.922 4.922-4.922-4.922a1 1 0 0 0-1.414 1.415l4.921 4.921-5.663 5.664a1 1 0 1 0 1.414 1.414l5.664-5.663 5.664 5.663a1 1 0 0 0 1.414-1.414l-5.664-5.664 4.922-4.921a1 1 0 0 0 0-1.415ZM19 47h26v2H19v-2Zm17-4H19v2h17v-2Zm-17 8h9v2h-9v-2Zm26 0H30v2h15v-2Zm-7-8h7v2h-7v-2Z" class="Primary" clip-rule="evenodd"/>
  </g>
</svg>
