<svg xmlns="http://www.w3.org/2000/svg" width="64" height="64" fill="none" viewBox="0 0 64 64">
  <g class="64x64/Outline/nomembers">
    <path fill="#53707F" fill-rule="evenodd" d="M8 53V11a1 1 0 0 1 1-1h46a1 1 0 0 1 1 1v4.416a5.001 5.001 0 0 0 0 9.168v2.832a5.001 5.001 0 0 0 0 9.168v2.832a5.001 5.001 0 0 0 0 9.168V53a1 1 0 0 1-1 1H9a1 1 0 0 1-1-1Zm50-42v6a3 3 0 1 0 0 6v6a3 3 0 1 0 0 6v6a3 3 0 1 0 0 6v6a3 3 0 0 1-3 3H9a3 3 0 0 1-3-3V11a3 3 0 0 1 3-3h46a3 3 0 0 1 3 3ZM38.172 32.439A9 9 0 1 0 22 27a8.96 8.96 0 0 0 1.828 5.439A5 5 0 0 1 28.123 30h5.754a5 5 0 0 1 4.294 2.439Zm.763 2.179A10.963 10.963 0 0 0 42 27c0-6.075-4.925-11-11-11s-11 4.925-11 11c0 2.957 1.167 5.641 3.065 7.618l-.035.14.228.057A10.965 10.965 0 0 0 31 38c3.019 0 5.754-1.216 7.742-3.185l.228-.057-.035-.14Zm-2.24-.648A3 3 0 0 0 33.877 32h-5.754a3 3 0 0 0-2.818 1.97A8.963 8.963 0 0 0 31 36c2.16 0 4.143-.761 5.695-2.03ZM27 24a4 4 0 0 1 8 0v1a4 4 0 0 1-8 0v-1Zm4-2a2 2 0 0 0-2 2v1a2 2 0 1 0 4 0v-1a2 2 0 0 0-2-2Zm10 20v2H21v-2h20Zm-2 6v-2H23v2h16Z" class="Primary" clip-rule="evenodd"/>
  </g>
</svg>
