<svg xmlns="http://www.w3.org/2000/svg" width="64" height="64" fill="none" viewBox="0 0 64 64">
  <g class="64x64/Outline/noobjects">
    <path fill="#53707F" d="M18 54a1 1 0 0 1 1 1v5a1 1 0 1 1-2 0v-5a1 1 0 0 1 1-1Zm7 0a1 1 0 0 1 1 1v5a1 1 0 1 1-2 0v-5a1 1 0 0 1 1-1Zm7 0a1 1 0 0 1 1 1v5a1 1 0 1 1-2 0v-5a1 1 0 0 1 1-1Zm7 0a1 1 0 0 1 1 1v5a1 1 0 1 1-2 0v-5a1 1 0 0 1 1-1Zm7 0a1 1 0 0 1 1 1v5a1 1 0 1 1-2 0v-5a1 1 0 0 1 1-1Zm2-42a4 4 0 0 1 4 4v32a4 4 0 0 1-4 4H16a4 4 0 0 1-4-4V16a4 4 0 0 1 4-4h32Zm0 2H16a2 2 0 0 0-1.995 1.85L14 16v32a2 2 0 0 0 1.85 1.995L16 50h32a2 2 0 0 0 1.995-1.85L50 48V16a2 2 0 0 0-1.85-1.995L48 14ZM9 45a1 1 0 1 1 0 2H4a1 1 0 1 1 0-2h5Zm51 0a1 1 0 1 1 0 2h-5a1 1 0 1 1 0-2h5ZM9 38a1 1 0 1 1 0 2H4a1 1 0 1 1 0-2h5Zm51 0a1 1 0 1 1 0 2h-5a1 1 0 1 1 0-2h5ZM26.737 25.226l.101.09L32 30.476l5.162-5.162.101-.09a1.077 1.077 0 0 1 1.505 1.52l-.083.093L33.523 32l5.162 5.162a1.077 1.077 0 0 1-1.422 1.612l-.101-.09L32 33.524l-5.162 5.162-.101.09a1.077 1.077 0 0 1-1.505-1.52l.083-.093L30.477 32l-5.162-5.162a1.077 1.077 0 0 1 1.422-1.612ZM9 31a1 1 0 1 1 0 2H4a1 1 0 1 1 0-2h5Zm51 0a1 1 0 1 1 0 2h-5a1 1 0 1 1 0-2h5ZM9 24a1 1 0 1 1 0 2H4a1 1 0 1 1 0-2h5Zm51 0a1 1 0 1 1 0 2h-5a1 1 0 1 1 0-2h5ZM9 17a1 1 0 1 1 0 2H4a1 1 0 1 1 0-2h5Zm51 0a1 1 0 1 1 0 2h-5a1 1 0 1 1 0-2h5ZM18 3a1 1 0 0 1 1 1v5a1 1 0 1 1-2 0V4a1 1 0 0 1 1-1Zm7 0a1 1 0 0 1 1 1v5a1 1 0 1 1-2 0V4a1 1 0 0 1 1-1Zm7 0a1 1 0 0 1 1 1v5a1 1 0 1 1-2 0V4a1 1 0 0 1 1-1Zm7 0a1 1 0 0 1 1 1v5a1 1 0 1 1-2 0V4a1 1 0 0 1 1-1Zm7 0a1 1 0 0 1 1 1v5a1 1 0 1 1-2 0V4a1 1 0 0 1 1-1Z" class="Primary"/>
  </g>
</svg>
