<svg xmlns="http://www.w3.org/2000/svg" width="64" height="64" fill="none" viewBox="0 0 64 64">
  <g class="64x64/Outline/noserver">
    <path fill="#53707F" fill-rule="evenodd" d="M8 8h49a1 1 0 0 1 1 1v10a1 1 0 0 1-1 1H45.417a18.082 18.082 0 0 1 1.552 2H57a3 3 0 0 0 3-3V9a3 3 0 0 0-3-3H8a3 3 0 0 0-3 3v10a3 3 0 0 0 3 3h9.031c.47-.703.99-1.372 1.552-2H8a1 1 0 0 1-1-1V9a1 1 0 0 1 1-1Zm0 16h7.871c-.32.646-.604 1.313-.847 2H8a1 1 0 0 0-1 1v10a1 1 0 0 0 1 1h7.024c.243.687.526 1.354.847 2H8a3 3 0 0 1-3-3V27a3 3 0 0 1 3-3Zm40.129 0c.32.646.604 1.313.847 2H57a1 1 0 0 1 1 1v10a1 1 0 0 1-1 1h-8.024a17.906 17.906 0 0 1-.847 2H57a3 3 0 0 0 3-3V27a3 3 0 0 0-3-3h-8.871ZM8 42h9.031c.47.703.99 1.371 1.552 2H8a1 1 0 0 0-1 1v10a1 1 0 0 0 1 1h49a1 1 0 0 0 1-1V45a1 1 0 0 0-1-1H45.417a18.082 18.082 0 0 0 1.552-2H57a3 3 0 0 1 3 3v10a3 3 0 0 1-3 3H8a3 3 0 0 1-3-3V45a3 3 0 0 1 3-3Zm2-13h4.249c-.11.655-.185 1.323-.222 2H10v-2Zm0-16h10v-2H10v2Zm0 36h10v-2H10v2Zm36-17c0 7.732-6.268 14-14 14s-14-6.268-14-14 6.268-14 14-14 14 6.268 14 14Zm2 0c0 8.837-7.163 16-16 16s-16-7.163-16-16 7.163-16 16-16 16 7.163 16 16Zm-22.707-6.707a1 1 0 0 1 1.414 0L32 30.586l5.293-5.293a1 1 0 0 1 1.414 1.414L33.414 32l5.293 5.293a1 1 0 0 1-1.414 1.414L32 33.414l-5.293 5.293a1 1 0 0 1-1.414-1.414L30.586 32l-5.293-5.293a1 1 0 0 1 0-1.414Z" class="Primary" clip-rule="evenodd"/>
  </g>
</svg>
