<svg xmlns="http://www.w3.org/2000/svg" width="64" height="64" fill="none" viewBox="0 0 64 64">
  <g class="64x64/Outline/notfound">
    <path fill="#53707F" d="M27.476 7c10.757 0 19.477 8.72 19.477 19.476a19.41 19.41 0 0 1-5.157 13.202L58 55.88l-2.119 2.119-16.28-16.28a19.394 19.394 0 0 1-12.125 4.234C16.72 45.953 8 37.233 8 26.476 8 15.72 16.72 7 27.476 7Zm0 1.998c-9.653 0-17.478 7.825-17.478 17.478 0 9.654 7.825 17.48 17.478 17.48 9.654 0 17.48-7.826 17.48-17.48 0-9.653-7.826-17.478-17.48-17.478Zm-4.88 11.196.093.083 4.787 4.786 4.788-4.786.093-.083a.999.999 0 0 1 1.319 1.495l-4.786 4.787 4.786 4.788a.999.999 0 0 1-1.319 1.495l-.093-.083-4.788-4.786-4.787 4.786-.094.083a.999.999 0 0 1-1.318-1.495l4.786-4.788-4.786-4.787a.999.999 0 0 1 1.318-1.495Z" class="Primary"/>
  </g>
</svg>
