<svg xmlns="http://www.w3.org/2000/svg" width="64" height="64" fill="none" viewBox="0 0 64 64">
  <g class="64x64/Outline/notifiaction">
    <path fill="#53707F" fill-rule="evenodd" d="M38 54a4 4 0 0 1-4 4h-4a4 4 0 0 1-4-4h12ZM32 6a2 2 0 0 1 2 2v3.122c7.565.928 13.598 7.051 14.246 14.826L50 47l2.091 3.486A1 1 0 0 1 51.234 52H12.766a1 1 0 0 1-.857-1.514L14 47l1.754-21.052c.648-7.775 6.68-13.898 14.246-14.826V8a2 2 0 0 1 2-2Zm0 7c-7.33 0-13.455 5.538-14.222 12.793l-.03.321-1.755 21.052a2 2 0 0 1-.191.702l-.087.161L14.531 50h34.937l-1.183-1.971a2 2 0 0 1-.254-.681l-.024-.182-1.754-21.052C45.635 18.702 39.438 13 32 13Z" class="Primary" clip-rule="evenodd"/>
  </g>
</svg>
