<svg xmlns="http://www.w3.org/2000/svg" width="64" height="64" fill="none" viewBox="0 0 64 64">
  <g class="64x64/Outline/nousers">
    <path fill="#53707F" fill-rule="evenodd" d="M32 9a7 7 0 0 0-7 7v4a7 7 0 1 0 14 0v-4a7 7 0 0 0-7-7Zm-9 7a9 9 0 1 1 18 0v4a9 9 0 1 1-18 0v-4Zm1.087 18a10 10 0 0 0-9.545 7.017l-1.776 5.685A1 1 0 0 0 13.72 48H19v2h-5.28a3 3 0 0 1-2.863-3.895l1.776-5.684A12 12 0 0 1 24.087 32h15.826a12 12 0 0 1 11.454 8.42l1.776 5.685A3 3 0 0 1 50.28 50H45v-2h5.28a1 1 0 0 0 .954-1.298l-1.776-5.685A10 10 0 0 0 39.913 34H24.087Zm14.62 8.293a1 1 0 0 0-1.414 0L32 47.586l-5.293-5.293a1 1 0 0 0-1.414 1.414L30.586 49l-5.293 5.293a1 1 0 0 0 1.414 1.414L32 50.414l5.293 5.293a1 1 0 0 0 1.414-1.414L33.414 49l5.293-5.293a1 1 0 0 0 0-1.414Z" class="Primary" clip-rule="evenodd"/>
  </g>
</svg>
