<svg xmlns="http://www.w3.org/2000/svg" width="64" height="64" fill="none" viewBox="0 0 64 64">
  <g class="64x64/Outline/question">
    <path fill="#A5B7C0" fill-rule="evenodd" d="M32 61c16.016 0 29-12.984 29-29S48.016 3 32 3 3 15.984 3 32s12.984 29 29 29Zm28-29c0 15.464-12.536 28-28 28S4 47.464 4 32 16.536 4 32 4s28 12.536 28 28ZM30.6 16.433a9.5 9.5 0 0 0-9.5 9.5h5a4.5 4.5 0 0 1 4.5-4.5h2.8a4.5 4.5 0 0 1 0 9H32a2.5 2.5 0 0 0-2.5 2.5v5.6h5V35.37c4.728-.545 8.4-4.562 8.4-9.437a9.5 9.5 0 0 0-9.5-9.5h-2.8Zm-1.4 25.833h5.6v5.6h-5.6v-5.6Z" class="Primary" clip-rule="evenodd"/>
  </g>
</svg>
