<svg xmlns="http://www.w3.org/2000/svg" width="64" height="64" fill="none" viewBox="0 0 64 64">
  <g class="64x64/Outline/question">
    <path fill="#A5B7C0" fill-rule="evenodd" d="M50 7H14a7 7 0 0 0-7 7v36a7 7 0 0 0 7 7h36a7 7 0 0 0 7-7V14a7 7 0 0 0-7-7ZM8 14a6 6 0 0 1 6-6h36a6 6 0 0 1 6 6v36a6 6 0 0 1-6 6H14a6 6 0 0 1-6-6V14Zm22.6 2.433a9.5 9.5 0 0 0-9.5 9.5h5a4.5 4.5 0 0 1 4.5-4.5h2.8a4.5 4.5 0 0 1 0 9H32a2.5 2.5 0 0 0-2.5 2.5v5.6h5V35.37c4.728-.545 8.4-4.562 8.4-9.437a9.5 9.5 0 0 0-9.5-9.5h-2.8Zm-1.4 26.833a1 1 0 0 1 1-1h3.6a1 1 0 0 1 1 1v3.6a1 1 0 0 1-1 1h-3.6a1 1 0 0 1-1-1v-3.6Z" class="Primary" clip-rule="evenodd"/>
  </g>
</svg>
