<svg xmlns="http://www.w3.org/2000/svg" width="64" height="64" fill="none" viewBox="0 0 64 64">
  <g class="64x64/Outline/searchbyip">
    <path fill="#53707F" fill-rule="evenodd" d="M45.953 25.476C45.953 14.72 37.233 6 26.476 6 15.72 6 7 14.72 7 25.476c0 10.757 8.72 19.477 19.476 19.477a19.4 19.4 0 0 0 12.125-4.233l16.28 16.279L57 54.88 40.796 38.677a19.407 19.407 0 0 0 5.157-13.2Zm-36.955 0c0-9.653 7.825-17.478 17.478-17.478 9.654 0 17.48 7.825 17.48 17.478 0 9.654-7.826 17.48-17.48 17.48-9.653 0-17.478-7.826-17.478-17.48ZM20 16h3v18h-3V16Zm9 0h-3v18h3v-7h3a4 4 0 0 0 4-4v-3a4 4 0 0 0-4-4h-3Zm0 9h2a2 2 0 0 0 2-2v-3a2 2 0 0 0-2-2h-2v7Z" class="Primary" clip-rule="evenodd"/>
  </g>
</svg>
