<svg xmlns="http://www.w3.org/2000/svg" width="64" height="64" fill="none" viewBox="0 0 64 64">
  <g class="64x64/Outline/sound">
    <g class="Primary">
      <path fill="#53707F" fill-rule="evenodd" d="M30.383 8.95 15.857 21.681H7a3 3 0 0 0-3 3V39.32a3 3 0 0 0 3 3h8.857l14.526 12.73c1.94 1.7 4.977.323 4.977-2.256V11.207c0-2.579-3.038-3.956-4.977-2.257ZM14.811 22.805c-.122.25-.202.544-.202.876H7a1 1 0 0 0-1 1V39.32a1 1 0 0 0 1 1h9.233a1 1 0 0 1 .659.248l14.81 12.978c.646.567 1.658.108 1.658-.752V11.207a1 1 0 0 0-1.659-.752L16.61 23.68h-2a2 2 0 0 1 .202-.876Z" clip-rule="evenodd"/>
      <path fill="#53707F" d="M58 32c0 7.648-3.117 14.575-8.158 19.59L51.259 53C56.66 47.626 60 40.201 60 32s-3.34-15.626-8.74-21l-1.418 1.41C54.883 17.426 58 24.353 58 32Z"/>
      <path fill="#53707F" d="m45.194 46.964 1.417 1.41c4.211-4.19 6.816-9.98 6.816-16.374 0-6.395-2.605-12.184-6.816-16.374l-1.417 1.41c3.852 3.83 6.233 9.123 6.233 14.964 0 5.841-2.381 11.133-6.233 14.964Z"/>
      <path fill="#53707F" d="m39.988 41.783 1.418 1.41A15.743 15.743 0 0 0 46.065 32c0-4.372-1.78-8.33-4.66-11.194l-1.417 1.411A13.753 13.753 0 0 1 44.065 32a13.75 13.75 0 0 1-4.077 9.783Z"/>
    </g>
  </g>
</svg>
