<svg xmlns="http://www.w3.org/2000/svg" width="64" height="64" fill="none" viewBox="0 0 64 64">
  <g class="64x64/Outline/sound">
    <path fill="#53707F" fill-rule="evenodd" d="M35 9.604c0-1.69-1.967-2.619-3.271-1.544L16.14 20.897H6a2 2 0 0 0-2 2v17.215a2 2 0 0 0 2 2h10.123L31.68 55.778c1.292 1.135 3.32.218 3.32-1.503V9.604ZM17.413 22.44 33 9.604v44.671L17.443 40.61a2 2 0 0 0-1.32-.498H6V22.897h10.141a2 2 0 0 0 1.272-.457ZM58 31.485c0 7.647-3.117 14.575-8.158 19.589l1.417 1.41c5.4-5.374 8.741-12.798 8.741-21 0-8.2-3.34-15.625-8.74-21l-1.418 1.412C54.883 16.91 58 23.837 58 31.485ZM45.194 46.448l1.417 1.411c4.211-4.19 6.816-9.98 6.816-16.374 0-6.395-2.605-12.184-6.816-16.375l-1.417 1.411c3.852 3.83 6.233 9.122 6.233 14.964 0 5.841-2.381 11.133-6.233 14.963Zm-3.788-3.77-1.418-1.41a13.753 13.753 0 0 0 4.077-9.783 13.75 13.75 0 0 0-4.077-9.783l1.418-1.411a15.743 15.743 0 0 1 4.659 11.194 15.74 15.74 0 0 1-4.66 11.194Z" class="Primary" clip-rule="evenodd"/>
  </g>
</svg>
