<svg xmlns="http://www.w3.org/2000/svg" width="64" height="64" fill="none" viewBox="0 0 64 64">
  <g class="64x64/Outline/warning">
    <path fill="#FFCA28" fill-rule="evenodd" d="M60.546 50.775 35.05 5.77c-1.34-2.366-4.75-2.366-6.09 0L3.462 50.775C2.141 53.108 3.827 56 6.508 56h50.993c2.681 0 4.367-2.892 3.045-5.225ZM29.829 6.265c.958-1.69 3.393-1.69 4.35 0l25.497 45.003c.944 1.666-.26 3.732-2.175 3.732H6.508c-1.915 0-3.12-2.066-2.175-3.732L29.83 6.264ZM29 21a1 1 0 0 1 1-1h4a1 1 0 0 1 1 1v17a1 1 0 0 1-1 1h-4a1 1 0 0 1-1-1V21Zm0 23a1 1 0 0 1 1-1h4a1 1 0 0 1 1 1v4a1 1 0 0 1-1 1h-4a1 1 0 0 1-1-1v-4Z" class="Primary" clip-rule="evenodd"/>
  </g>
</svg>
