<?xml version="1.0" encoding="UTF-8" standalone="no"?>
<!-- Created with Inkscape (http://www.inkscape.org/) -->

<svg
   xmlns:dc="http://purl.org/dc/elements/1.1/"
   xmlns:cc="http://creativecommons.org/ns#"
   xmlns:rdf="http://www.w3.org/1999/02/22-rdf-syntax-ns#"
   xmlns:svg="http://www.w3.org/2000/svg"
   xmlns="http://www.w3.org/2000/svg"
   version="1.1"
   width="24"
   height="24"
   id="svg2"
   xml:space="preserve"><metadata
     id="metadata8"><rdf:RDF><cc:Work
         rdf:about=""><dc:format>image/svg+xml</dc:format><dc:type
           rdf:resource="http://purl.org/dc/dcmitype/StillImage" /><dc:title></dc:title></cc:Work></rdf:RDF></metadata><defs
     id="defs6"><clipPath
       id="clipPath16"><path
         d="M 0,256 256,256 256,0 0,0 0,256 z"
         id="path18" /></clipPath></defs><g
     transform="matrix(1.25,0,0,-1.25,0,24)"
     id="g10"><g
       transform="matrix(0.07692308,0,0,0.07692308,-0.24615385,-0.51014616)"
       id="g12"
       style="fill:#212a2f;fill-opacity:1"><g
         clip-path="url(#clipPath16)"
         id="g14"
         style="fill:#212a2f;fill-opacity:1"><g
           transform="translate(24,109.2589)"
           id="g20"
           style="fill:#212a2f;fill-opacity:1"><path
             d="m 0,0 c 1.558,3.814 4.411,6.612 7.283,9.421 3.775,3.69 7.448,7.484 11.202,11.195 5.581,5.516 12.071,5.536 17.631,-0.005 13.025,-12.98 26.011,-26 39.026,-38.991 0.669,-0.667 1.191,-1.54 2.284,-1.858 10.248,15.105 20.509,30.219 30.759,45.341 19.763,29.155 39.552,58.293 59.235,87.503 2.157,3.2 5.017,5.18 8.377,6.704 l 3.167,0 c 3.708,-0.067 6.56,-2.098 9.431,-4.096 4.533,-3.156 9.111,-6.246 13.692,-9.331 3.121,-2.101 5.674,-4.661 5.913,-8.746 l 0,-4.223 c -0.455,-2.546 -1.637,-4.742 -3.077,-6.869 C 189.31,62.969 173.619,39.946 158.025,16.858 148.187,2.291 138.302,-12.245 128.433,-26.791 117.922,-42.282 107.412,-57.774 96.893,-73.26 c -2.295,-3.38 -5.287,-6.058 -9.162,-7.69 -1.597,-0.672 -3.29,-0.293 -4.848,-0.877 l -1.584,0 C 74.765,-81.42 69.895,-77.992 65.43,-73.5 45.098,-53.051 24.685,-32.684 4.269,-12.319 2.111,-10.166 0.241,-7.942 0,-4.751 L 0,0 z"
             id="path22"
             style="fill:#212a2f;fill-opacity:1;fill-rule:nonzero;stroke:none" /></g></g></g></g></svg>