<?xml version="1.0" encoding="UTF-8"?>
<svg width="20px" height="20px" viewBox="0 0 20 20" version="1.1" xmlns="http://www.w3.org/2000/svg" xmlns:xlink="http://www.w3.org/1999/xlink">
    <title>default</title>
    <g id="default" stroke="none" stroke-width="1" fill="none" fill-rule="evenodd">
        <path d="M13,15 L13,17 L12,17 L12,15 L13,15 Z M10.5,15 L10.5,17 L9.5,17 L9.5,15 L10.5,15 Z M8,15 L8,17 L7,17 L7,15 L8,15 Z M13,6 C13.5522847,6 14,6.44771525 14,7 L14,13 C14,13.5522847 13.5522847,14 13,14 L7,14 C6.44771525,14 6,13.5522847 6,13 L6,7 C6,6.44771525 6.44771525,6 7,6 L13,6 Z M13,7 L7,7 L7,13 L13,13 L13,7 Z M5,12 L5,13 L3,13 L3,12 L5,12 Z M17,12 L17,13 L15,13 L15,12 L17,12 Z M5,9.5 L5,10.5 L3,10.5 L3,9.5 L5,9.5 Z M17,9.5 L17,10.5 L15,10.5 L15,9.5 L17,9.5 Z M5,7 L5,8 L3,8 L3,7 L5,7 Z M17,7 L17,8 L15,8 L15,7 L17,7 Z M13,3 L13,5 L12,5 L12,3 L13,3 Z M10.5,3 L10.5,5 L9.5,5 L9.5,3 L10.5,3 Z M8,3 L8,5 L7,5 L7,3 L8,3 Z" id="Combined-Shape" fill="#A5B7C0" fill-rule="nonzero"></path>
    </g>
</svg>