<svg xmlns="http://www.w3.org/2000/svg" width="48" height="48" fill="none" viewBox="0 0 48 48">
  <g class="48x48/Solid/error">
    <path fill="#F44336" d="M24 34.43c.568 0 1.053-.201 1.456-.604.403-.403.605-.889.605-1.456a2.04 2.04 0 0 0-.605-1.466A1.955 1.955 0 0 0 24 30.28c-.568 0-1.053.208-1.456.624a2.038 2.038 0 0 0-.605 1.466c0 .56.202 1.044.605 1.45.403.407.888.61 1.456.61Zm0-7.087c.497 0 .9-.153 1.208-.461.308-.308.462-.71.462-1.208v-10.79c0-.478-.154-.878-.462-1.199-.308-.32-.71-.48-1.208-.48-.497 0-.9.158-1.208.474-.308.317-.462.717-.462 1.2v10.784c0 .478.154.878.462 1.199.308.321.71.482 1.208.482Zm-6.137 15.363a3.932 3.932 0 0 1-1.55-.319 4.16 4.16 0 0 1-1.306-.863l-8.531-8.53a4.16 4.16 0 0 1-.863-1.307 3.933 3.933 0 0 1-.32-1.55V17.863c0-.531.107-1.048.32-1.55.213-.502.5-.938.863-1.306l8.53-8.531a4.25 4.25 0 0 1 1.299-.876 3.816 3.816 0 0 1 1.558-.335h12.274c.534 0 1.053.112 1.558.335.505.223.938.515 1.298.876l8.53 8.53c.362.361.654.794.877 1.299.223.505.335 1.024.335 1.558v12.274c0 .534-.112 1.053-.335 1.558a4.237 4.237 0 0 1-.876 1.298l-8.53 8.53a4.16 4.16 0 0 1-1.307.864 3.932 3.932 0 0 1-1.55.32H17.863Z" class="Primary"/>
  </g>
</svg>
