<svg xmlns="http://www.w3.org/2000/svg" width="48" height="48" fill="none" viewBox="0 0 48 48">
  <g class="48x48/Solid/info">
    <path fill="#1E88E5" d="M24.153 34.31c.514 0 .944-.173 1.29-.52.345-.347.518-.777.518-1.29v-8.69c0-.512-.174-.942-.521-1.29a1.756 1.756 0 0 0-1.293-.52c-.514 0-.944.174-1.29.52a1.76 1.76 0 0 0-.518 1.29v8.69c0 .513.174.943.522 1.29.347.347.778.52 1.292.52Zm-.151-15.586c.588 0 1.08-.194 1.477-.582.397-.388.595-.869.595-1.442 0-.623-.199-1.133-.596-1.53-.397-.396-.89-.594-1.477-.594-.609 0-1.107.198-1.494.595-.387.396-.58.901-.58 1.515 0 .585.198 1.071.596 1.458.398.387.89.58 1.479.58Zm.015 25.983c-2.873 0-5.565-.54-8.075-1.62-2.51-1.08-4.706-2.56-6.587-4.442-1.881-1.881-3.362-4.077-4.442-6.587s-1.62-5.203-1.62-8.08c0-2.875.54-5.57 1.62-8.082 1.08-2.513 2.56-4.702 4.437-6.568 1.879-1.865 4.074-3.342 6.585-4.43 2.511-1.089 5.206-1.633 8.084-1.633 2.878 0 5.574.544 8.089 1.63 2.515 1.087 4.704 2.562 6.568 4.425 1.864 1.863 3.34 4.054 4.428 6.573 1.087 2.518 1.63 5.216 1.63 8.094 0 2.876-.543 5.569-1.632 8.079-1.088 2.51-2.565 4.7-4.43 6.573-1.866 1.873-4.056 3.353-6.572 4.439-2.515 1.086-5.21 1.629-8.083 1.629Z" class="Primary"/>
  </g>
</svg>
