<svg xmlns="http://www.w3.org/2000/svg" width="48" height="48" fill="none" viewBox="0 0 48 48">
  <g class="48x48/Solid/success">
    <path fill="#4CAF50" d="m20.994 27.815-4.363-4.363a1.884 1.884 0 0 0-1.386-.563c-.549 0-1.035.204-1.458.613a1.975 1.975 0 0 0-.563 1.411c0 .546.197 1.007.591 1.383l5.761 5.81c.403.395.873.592 1.41.592.537 0 1.012-.197 1.425-.592l11.61-11.639c.428-.408.642-.882.642-1.421 0-.54-.214-1.02-.641-1.444a1.994 1.994 0 0 0-1.461-.538 2.082 2.082 0 0 0-1.433.588L20.994 27.815Zm3.01 16.891c-2.85 0-5.533-.54-8.05-1.62-2.518-1.079-4.718-2.56-6.6-4.44-1.88-1.882-3.361-4.08-4.44-6.596-1.08-2.515-1.62-5.197-1.62-8.046 0-2.882.54-5.582 1.62-8.1 1.079-2.518 2.558-4.71 4.436-6.576 1.879-1.865 4.076-3.342 6.593-4.43 2.517-1.089 5.2-1.633 8.05-1.633 2.885 0 5.587.544 8.107 1.63 2.52 1.087 4.712 2.562 6.576 4.425 1.864 1.863 3.34 4.054 4.428 6.573 1.087 2.518 1.63 5.22 1.63 8.107 0 2.852-.543 5.536-1.632 8.054-1.088 2.517-2.565 4.716-4.43 6.594-1.866 1.88-4.056 3.359-6.572 4.439-2.515 1.08-5.214 1.62-8.096 1.62Z" class="Primary"/>
  </g>
</svg>
