<svg xmlns="http://www.w3.org/2000/svg" width="48" height="48" fill="none" viewBox="0 0 48 48">
  <g class="48x48/Solid/warning">
    <path fill="#FFC107" d="M24 45.072c-.499 0-.987-.101-1.466-.303a4.442 4.442 0 0 1-1.312-.858L4.089 26.778a4.44 4.44 0 0 1-.858-1.312A3.74 3.74 0 0 1 2.928 24c0-.499.1-.993.299-1.483.199-.49.486-.922.862-1.295L21.222 4.089a3.707 3.707 0 0 1 1.312-.883A4.034 4.034 0 0 1 24 2.928c.499 0 .993.094 1.483.282.49.188.922.481 1.295.88l17.133 17.132c.398.373.69.805.879 1.295.188.49.282.984.282 1.483 0 .499-.093.987-.278 1.466a3.71 3.71 0 0 1-.883 1.312L26.778 43.911a3.856 3.856 0 0 1-1.295.862c-.49.2-.984.299-1.483.299Zm.003-18.902c.514 0 .944-.174 1.29-.521.345-.347.518-.777.518-1.29V15.98c0-.513-.174-.943-.521-1.29a1.756 1.756 0 0 0-1.293-.52c-.514 0-.944.173-1.29.52a1.758 1.758 0 0 0-.518 1.29v8.379c0 .513.174.943.522 1.29.347.347.778.52 1.292.52ZM24 32.29c.501 0 .928-.176 1.281-.53a1.73 1.73 0 0 0 .53-1.267c0-.492-.177-.919-.53-1.281A1.723 1.723 0 0 0 24 28.67c-.501 0-.928.18-1.281.543-.353.362-.53.79-.53 1.281 0 .492.177.915.53 1.268.353.353.78.53 1.281.53Z" class="Primary"/>
  </g>
</svg>
