<svg xmlns="http://www.w3.org/2000/svg" width="16" height="16" fill="none" viewBox="0 0 16 16">
  <g class="16x16/Solid/help">
    <path fill="#4E6977" fill-rule="evenodd" d="M8 15A7 7 0 1 0 8 1a7 7 0 0 0 0 14Zm-.79-4.953h1.18c0-.314.04-.606.121-.876a1.61 1.61 0 0 1 .47-.73c.27-.254.527-.52.768-.8s.438-.578.59-.895c.157-.322.235-.673.235-1.054 0-.495-.1-.922-.298-1.282a2.005 2.005 0 0 0-.87-.838c-.376-.195-.833-.292-1.37-.292a3.11 3.11 0 0 0-1.321.273 2.252 2.252 0 0 0-.94.787c-.228.343-.347.753-.355 1.232h1.174c.005-.297.074-.536.21-.718a1.2 1.2 0 0 1 .533-.412c.22-.09.453-.134.698-.134.296 0 .544.057.743.172.203.114.355.277.457.488.106.212.159.464.159.756 0 .288-.051.535-.153.743a2.447 2.447 0 0 1-.4.57c-.16.174-.338.36-.533.56a7.72 7.72 0 0 0-.64.736 2.119 2.119 0 0 0-.35.717c-.068.258-.104.59-.108.997Zm.127 1.53a.694.694 0 0 0-.178.482c0 .182.06.338.178.47.118.13.29.196.514.196.229 0 .402-.065.52-.197a.677.677 0 0 0 .178-.47c0-.19-.059-.35-.177-.482-.119-.13-.292-.196-.52-.196-.225 0-.397.065-.515.196Z" class="Primary" clip-rule="evenodd"/>
  </g>
</svg>
