<svg xmlns="http://www.w3.org/2000/svg" width="16" height="16" fill="none" viewBox="0 0 16 16">
  <g class="16x16/Solid/sdk">
    <path fill="#A5B7C0" fill-rule="evenodd" d="M2.08 4.592a.273.273 0 0 0 0 .387l2.512 2.512c.107.107.28.107.387 0L7.491 4.98a.273.273 0 0 0 0-.387L4.98 2.08a.273.273 0 0 0-.387 0L2.08 4.592ZM8.43 2.5a.5.5 0 0 1 .5-.5h4.57a.5.5 0 0 1 .5.5v4.571a.5.5 0 0 1-.5.5H8.929a.5.5 0 0 1-.5-.5V2.5ZM2.5 8.428a.5.5 0 0 0-.5.5V13.5a.5.5 0 0 0 .5.5h4.571a.5.5 0 0 0 .5-.5V8.928a.5.5 0 0 0-.5-.5H2.5Zm6.428.001a.5.5 0 0 0-.5.5V13.5a.5.5 0 0 0 .5.5H13.5a.5.5 0 0 0 .5-.5V8.93a.5.5 0 0 0-.5-.5H8.928Z" class="Primary" clip-rule="evenodd"/>
  </g>
</svg>
