<svg xmlns="http://www.w3.org/2000/svg" width="16" height="16" fill="none" viewBox="0 0 16 16">
  <g class="16x16/Solid/update_auto">
    <path fill="#A5B7C0" fill-rule="evenodd" d="m8.4 2.8 3.2.4h1.6l1.2 1.664V13.6H1.6V4.864L2.8 3.2h1.6l3.2-.4-.057.4h.914L8.4 2.8Zm1.891 4.479a3 3 0 0 0-5.018 1.34l1.159.312.021-.074a1.791 1.791 0 0 1 .444-.73 1.8 1.8 0 0 1 2.546 0l-.637.637 2.334.212-.212-2.334-.637.637ZM8.514 3.6H7.486l-.086.6-4.2.6h9.6l-4.2-.6-.085-.6ZM6.11 11.58a3 3 0 0 0 4.947-1.36l-1.154-.327-.027.087a1.8 1.8 0 0 1-2.977.693l.636-.637L5.2 9.824l.212 2.334.637-.637.06.059Z" class="Primary" clip-rule="evenodd"/>
  </g>
</svg>
