<svg width="20" height="20" viewBox="0 0 20 20" fill="none" xmlns="http://www.w3.org/2000/svg">
<path fill-rule="evenodd" clip-rule="evenodd" d="M11 7C11 8.65685 9.65685 10 8 10C6.34315 10 5 8.65685 5 7C5 5.34315 6.34315 4 8 4C9.65685 4 11 5.34315 11 7ZM5.86598 12C3.93459 12 2.29383 13.3888 2.00733 15.266C1.94835 15.6525 2.25286 16 2.65044 16H13.3496C13.7471 16 14.0516 15.6525 13.9927 15.266C13.7062 13.3888 12.0654 12 10.134 12H5.86598ZM12 10C11.6019 10 11.222 9.92247 10.8744 9.78169C11.5712 9.06182 12 8.08099 12 7C12 5.91901 11.5712 4.93818 10.8744 4.21831C11.222 4.07753 11.6019 4 12 4C13.6569 4 15 5.34315 15 7C15 8.65685 13.6569 10 12 10ZM17.3496 16H14.8708C14.9849 15.7335 15.0294 15.4311 14.9812 15.1152C14.7856 13.8333 14.0935 12.7377 13.1192 12H14.134C16.0654 12 17.7062 13.3888 17.9927 15.266C18.0516 15.6525 17.7471 16 17.3496 16Z" fill="#A5B7C0" class="primary"/>
</svg>
