<svg width="20" height="20" viewBox="0 0 20 20" fill="none" xmlns="http://www.w3.org/2000/svg">
<path fill-rule="evenodd" clip-rule="evenodd" d="M3.5 3C3.22386 3 3 3.22386 3 3.5V11.5C3 11.7761 3.22386 12 3.5 12H11.5C11.7761 12 12 11.7761 12 11.5V3.5C12 3.22386 11.7761 3 11.5 3H3.5ZM13.5 8C13.2239 8 13 8.22386 13 8.5V11.5C13 11.7761 13.2239 12 13.5 12H16.5C16.7761 12 17 11.7761 17 11.5V8.5C17 8.22386 16.7761 8 16.5 8H13.5ZM13 3.5C13 3.22386 13.2239 3 13.5 3H16.5C16.7761 3 17 3.22386 17 3.5V6.5C17 6.77614 16.7761 7 16.5 7H13.5C13.2239 7 13 6.77614 13 6.5V3.5ZM3 16.5C3 16.7761 3.22386 17 3.5 17H6.5C6.77614 17 7 16.7761 7 16.5V13.5C7 13.2239 6.77614 13 6.5 13H3.5C3.22386 13 3 13.2239 3 13.5V16.5ZM8.5 17C8.22386 17 8 16.7761 8 16.5V13.5C8 13.2239 8.22386 13 8.5 13H11.5C11.7761 13 12 13.2239 12 13.5V16.5C12 16.7761 11.7761 17 11.5 17H8.5ZM13.5 13C13.2239 13 13 13.2239 13 13.5V16.5C13 16.7761 13.2239 17 13.5 17H16.5C16.7761 17 17 16.7761 17 16.5V13.5C17 13.2239 16.7761 13 16.5 13H13.5Z" fill="#2592C3" class="primary"/>
</svg>
