<svg width="19" height="15" viewBox="0 -3 20 20" fill="none" xmlns="http://www.w3.org/2000/svg">
<path fill-rule="evenodd" clip-rule="evenodd" d="M1 0C0.447715 0 0 0.447715 0 1V6C0 6.55228 0.447715 7 1 7H8C8.55229 7 9 6.55228 9 6V1C9 0.447715 8.55229 0 8 0H1ZM8 1H1V6H8V1ZM2 2H7V5H2V2ZM11 0C10.4477 0 10 0.447715 10 1V6C10 6.55228 10.4477 7 11 7H18C18.5523 7 19 6.55228 19 6V1C19 0.447715 18.5523 0 18 0H11ZM18 1H11V6H18V1ZM12 2H17V5H12V2ZM0 9C0 8.44771 0.447715 8 1 8H8C8.55229 8 9 8.44772 9 9V14C9 14.5523 8.55229 15 8 15H1C0.447715 15 0 14.5523 0 14V9ZM1 9H8V14H1V9ZM7 10H2V13H7V10ZM11 8C10.4477 8 10 8.44771 10 9V14C10 14.5523 10.4477 15 11 15H18C18.5523 15 19 14.5523 19 14V9C19 8.44772 18.5523 8 18 8H11ZM18 9H11V14H18V9ZM12 10H17V13H12V10Z" fill="#698796" class="primary"/>
</svg>
