<svg width="64" height="64" viewBox="0 0 64 64" fill="none" xmlns="http://www.w3.org/2000/svg">
<path fill-rule="evenodd" clip-rule="evenodd" d="M57.45 6H7.45C6.89771 6 6.45 6.44772 6.45 7V41.8125L13.4294 36.578C15.0676 35.3493 17.2893 35.2438 19.0366 36.3116L27.5342 41.5045C28.7166 42.2271 30.24 42.0458 31.2198 41.066L43.8604 28.4254C45.5812 26.7045 48.2911 26.4726 50.2793 27.8761L58.45 33.6436V7C58.45 6.44771 58.0023 6 57.45 6ZM58.45 36.0917L49.126 29.51C47.9331 28.668 46.3071 28.8071 45.2746 29.8396L32.634 42.4802C31.001 44.1132 28.4619 44.4153 26.4913 43.211L17.9937 38.0181C16.9454 37.3774 15.6123 37.4408 14.6294 38.178L6.45 44.3125V57C6.45 57.5523 6.89771 58 7.45 58H57.45C58.0023 58 58.45 57.5523 58.45 57V36.0917ZM7.45 4C5.79315 4 4.45 5.34314 4.45 7V57C4.45 58.6569 5.79314 60 7.45 60H57.45C59.1069 60 60.45 58.6569 60.45 57V7C60.45 5.34315 59.1069 4 57.45 4H7.45ZM19.45 24C22.7637 24 25.45 21.3137 25.45 18C25.45 14.6863 22.7637 12 19.45 12C16.1363 12 13.45 14.6863 13.45 18C13.45 21.3137 16.1363 24 19.45 24ZM19.45 26C23.8683 26 27.45 22.4183 27.45 18C27.45 13.5817 23.8683 10 19.45 10C15.0317 10 11.45 13.5817 11.45 18C11.45 22.4183 15.0317 26 19.45 26Z" fill="#53707F"/>
</svg>
