<svg width="64" height="64" viewBox="0 0 64 64" fill="none" xmlns="http://www.w3.org/2000/svg">
<path d="M33.9846 6.58929C34.6047 6.94365 35.1186 7.45758 35.473 8.07771L60.5803 52.0154C61.6763 53.9335 61.0099 56.3769 59.0918 57.473C58.4874 57.8183 57.8034 58 57.1073 58H6.89272C4.68358 58 2.89272 56.2091 2.89272 54C2.89272 53.3039 3.07438 52.6198 3.41975 52.0154L28.527 8.07771C29.6231 6.15964 32.0665 5.49325 33.9846 6.58929ZM30.3463 8.93726L30.2635 9.06998L5.15623 53.0077C4.98355 53.3099 4.89272 53.652 4.89272 54C4.89272 55.0544 5.7086 55.9182 6.74346 55.9945L6.89272 56H57.1073C57.4553 56 57.7974 55.9092 58.0996 55.7365C59.0129 55.2146 59.3586 54.0816 58.9161 53.1464L58.8438 53.0077L33.7365 9.06998C33.5888 8.8116 33.3858 8.59008 33.1428 8.42089L32.9923 8.32577C32.0789 7.80385 30.9273 8.08121 30.3463 8.93726ZM33 45C34.1046 45 35 45.8954 35 47V49C35 50.1046 34.1046 51 33 51H31C29.8954 51 29 50.1046 29 49V47C29 45.8954 29.8954 45 31 45H33ZM32.8975 21C34.0021 21 34.8975 21.8954 34.8975 23C34.8975 23.0333 34.8967 23.0666 34.895 23.0999L34.095 39.0999C34.0418 40.1643 33.1632 41 32.0975 41H31.9025C30.8368 41 29.9582 40.1643 29.905 39.0999L29.105 23.0999C29.0498 21.9967 29.8994 21.0577 31.0026 21.0025L31.1025 21H32.8975Z" fill="#53707F"/>
</svg>
