<svg width="64" height="64" viewBox="0 0 64 64" fill="none" xmlns="http://www.w3.org/2000/svg">
<path fill-rule="evenodd" clip-rule="evenodd" d="M45 26.5C45 36.165 37.165 44 27.5 44C17.835 44 10 36.165 10 26.5C10 16.835 17.835 9 27.5 9C37.165 9 45 16.835 45 26.5ZM39.2416 42.0701C35.9755 44.537 31.9086 46 27.5 46C16.7304 46 8 37.2696 8 26.5C8 15.7304 16.7304 7 27.5 7C38.2696 7 47 15.7304 47 26.5C47 31.4195 45.1783 35.9135 42.1726 39.3442L58.4142 55.5858L55.5858 58.4142L39.2416 42.0701Z" fill="#53707F"/>
<path fill-rule="evenodd" clip-rule="evenodd" d="M27.0577 18.4074C28.2791 18.4074 29.2692 17.4539 29.2692 16.2778C29.2692 15.1016 28.2791 14.1481 27.0577 14.1481C25.8363 14.1481 24.8461 15.1016 24.8461 16.2778C24.8461 17.4539 25.8363 18.4074 27.0577 18.4074ZM29.1218 26.4248C29.1218 27.601 28.1316 28.5545 26.9102 28.5545C25.6888 28.5545 24.6987 27.601 24.6987 26.4248C24.6987 25.2487 25.6888 24.2952 26.9102 24.2952C28.1316 24.2952 29.1218 25.2487 29.1218 26.4248ZM29.2692 36.7222C29.2692 37.8984 28.2791 38.8519 27.0577 38.8519C25.8363 38.8519 24.8461 37.8984 24.8461 36.7222C24.8461 35.5461 25.8363 34.5926 27.0577 34.5926C28.2791 34.5926 29.2692 35.5461 29.2692 36.7222ZM20.4231 31.6111C20.4231 32.7873 19.4329 33.7407 18.2115 33.7407C16.9901 33.7407 16 32.7873 16 31.6111C16 30.435 16.9901 29.4815 18.2115 29.4815C19.4329 29.4815 20.4231 30.435 20.4231 31.6111ZM36.7884 33.7407C38.0098 33.7407 39 32.7873 39 31.6111C39 30.435 38.0098 29.4815 36.7884 29.4815C35.567 29.4815 34.5769 30.435 34.5769 31.6111C34.5769 32.7873 35.567 33.7407 36.7884 33.7407ZM20.4231 21.3889C20.4231 22.5651 19.4329 23.5185 18.2115 23.5185C16.9901 23.5185 16 22.5651 16 21.3889C16 20.2127 16.9901 19.2593 18.2115 19.2593C19.4329 19.2593 20.4231 20.2127 20.4231 21.3889ZM36.7884 23.5185C38.0098 23.5185 39 22.5651 39 21.3889C39 20.2127 38.0098 19.2593 36.7884 19.2593C35.567 19.2593 34.5769 20.2127 34.5769 21.3889C34.5769 22.5651 35.567 23.5185 36.7884 23.5185Z" fill="#53707F"/>
<path fill-rule="evenodd" clip-rule="evenodd" d="M27.0551 15.9529C26.9854 15.9534 26.92 15.9716 26.863 16.0034L27.0551 15.9529ZM26.863 16.0034L17.2872 21.0729C17.2151 21.1111 17.1579 21.1696 17.121 21.2391C17.121 21.2391 17.1209 21.2392 17.1209 21.2392C17.0617 21.3334 17.0482 21.4398 17.0744 21.5355V31.4644C17.0482 31.5601 17.0617 31.6666 17.1209 31.7608C17.121 31.7608 17.121 31.7609 17.121 31.7609C17.1579 31.8304 17.2151 31.8888 17.2872 31.927L26.8629 36.9965C26.9206 37.0287 26.987 37.047 27.0577 37.047C27.0577 37.047 27.0577 37.047 27.0577 37.047C27.0663 37.047 27.075 37.0468 27.0836 37.0462C27.144 37.0424 27.2007 37.0251 27.2509 36.9974L36.8282 31.927C36.9285 31.8739 37.0001 31.7817 37.028 31.6748C37.0476 31.6155 37.0515 31.5543 37.0411 31.4961V21.5039C37.0515 21.4456 37.0476 21.3844 37.0281 21.3252C37.0001 21.2183 36.9286 21.126 36.8282 21.0729L27.2508 16.0025C27.1935 15.9709 27.1277 15.9529 27.0577 15.9529M27.4577 17.0173L27.0577 16.8055L26.6577 17.0173V25.8404L18.3279 21.4272M17.8744 22.0898V30.9102L26.1986 26.5L17.8744 22.0898ZM18.3279 31.5728L26.6577 35.9827V27.1596L18.3279 31.5728ZM27.4577 35.9827L35.784 31.5746L27.4577 27.1633V35.9827ZM36.2411 30.9139V22.086L27.9097 26.5L36.2411 30.9139ZM35.784 21.4253L27.4577 25.8366V17.0173" fill="#53707F"/>
</svg>
