<svg width="64" height="64" viewBox="0 0 64 64" fill="none" xmlns="http://www.w3.org/2000/svg">
<path d="M35.2557 40.0783L35.5478 40.3913C36.1948 40.913 37.4261 42.1443 38.7617 43.5635C38.9206 44.1878 38.698 44.8626 38.0939 45.5878L31.04 54.2904C30.6422 54.7809 30.0437 55.0648 29.4122 55.0627C28.9343 55.0646 28.4702 54.9025 28.0974 54.6035C27.6644 54.2556 27.3879 53.7495 27.3291 53.1973C27.2704 52.645 27.4342 52.092 27.7843 51.6609L32.4616 45.8864C33.8323 44.1942 34.7891 42.2054 35.2557 40.0783ZM42.5 19C44.6945 19.0559 47.6826 21.8896 48.5913 23.1948C48.9799 23.753 49.4496 24.5436 50.0005 25.5668C50.7317 26.925 51.6256 28.1891 52.6625 29.3313L54.727 31.6052C55.2563 32.1309 55.4651 32.899 55.2745 33.6203C55.084 34.3415 54.5231 34.9064 53.8032 35.102C53.0833 35.2976 52.3137 35.0943 51.7843 34.5687L49.3208 31.9417C48.1123 30.6529 47.0798 29.2097 46.2504 27.6497L44.8139 24.9478L41.3913 33.9217C41.3913 33.9217 46.5 40 47.9235 42.4783C48.8725 44.1304 49.9438 47.4348 51.1374 52.3913C51.2996 52.9227 51.2432 53.4968 50.9807 53.9864C50.7183 54.4761 50.2714 54.8409 49.7391 55C49.5592 55.0263 49.3764 55.0263 49.1965 55C48.2441 55.0407 47.3851 54.4309 47.1096 53.5183L44.5217 44.8991C43.3113 43.647 39.2 39.3478 37.6139 37.9913C35.5643 36.0833 34.8285 33.1484 35.7357 30.4991C36.2991 28.5791 37.1757 25.9496 37.8226 23.8626C36.5 24 34.5556 25.4886 33.7739 27.1391L30.727 33.0035C30.384 33.6671 29.713 34.0973 28.9669 34.132C28.2207 34.1668 27.5127 33.8008 27.1095 33.172C26.7063 32.5432 26.6692 31.7471 27.0122 31.0835L30.1217 25.1357C31.7927 21.7211 35.1986 19.0249 39 19H42.5ZM45.9617 8.21739C48.1709 8.21739 49.9617 10.0083 49.9617 12.2174C49.9617 14.4265 48.1709 16.2174 45.9617 16.2174C43.7526 16.2174 41.9617 14.4265 41.9617 12.2174C41.9617 10.0083 43.7526 8.21739 45.9617 8.21739Z" stroke="#53707F" stroke-width="2" stroke-linejoin="round"/>
<path opacity="0.5" d="M20.5 54C19 49.5 24 45 26.5 40C23.5 40.5 20 36 20 33C20 30 20.5 27.5 24 22C26.3333 18.3333 30 15.6667 35 14C35 11.6667 35.3333 9.66667 36 8" stroke="#53707F" stroke-width="2" stroke-linecap="round" stroke-linejoin="round"/>
<path opacity="0.3" d="M13.5 54C13.1667 49.6667 14.6667 45.8333 18 42.5C12 37.5 12.5 32 13 29.5C13.5 27 18.5 13 27 10C27 10 28.5 9.5 29 8" stroke="#53707F" stroke-width="2" stroke-linecap="round" stroke-linejoin="round"/>
<path opacity="0.1" d="M6.49999 54C6.49999 50 7.33333 46.3333 8.99999 43C3.49999 37 5.99999 22.5 12.5 14C15.8333 10 18 7.66667 19 7" stroke="#53707F" stroke-width="2" stroke-linecap="round" stroke-linejoin="round"/>
</svg>
