<svg width="64" height="64" viewBox="0 0 64 64" fill="none" xmlns="http://www.w3.org/2000/svg">
<path fill-rule="evenodd" clip-rule="evenodd" d="M6 10H58V22H55H53H10H8H6L6 10ZM8 24H6C4.89543 24 4 23.1046 4 22V10C4 8.89543 4.89543 8 6 8H58C59.1046 8 60 8.89543 60 10V22C60 23.1046 59.1046 24 58 24H55V32.5C55 45.4787 44.4787 56 31.5 56C18.5213 56 8 45.4787 8 32.5V24ZM53 24H10V32.5C10 44.3741 19.6259 54 31.5 54C43.3741 54 53 44.3741 53 32.5V24ZM10 15C10 14.4477 10.4477 14 11 14H13C13.5523 14 14 14.4477 14 15V17C14 17.5523 13.5523 18 13 18H11C10.4477 18 10 17.5523 10 17V15ZM17 14C16.4477 14 16 14.4477 16 15V17C16 17.5523 16.4477 18 17 18H19C19.5523 18 20 17.5523 20 17V15C20 14.4477 19.5523 14 19 14H17ZM22 15C22 14.4477 22.4477 14 23 14H25C25.5523 14 26 14.4477 26 15V17C26 17.5523 25.5523 18 25 18H23C22.4477 18 22 17.5523 22 17V15ZM38.7071 31.2929C38.3166 30.9024 37.6834 30.9024 37.2929 31.2929L32 36.5858L26.7071 31.2929C26.3166 30.9024 25.6834 30.9024 25.2929 31.2929C24.9024 31.6834 24.9024 32.3166 25.2929 32.7071L30.5858 38L25.2929 43.2929C24.9024 43.6834 24.9024 44.3166 25.2929 44.7071C25.6834 45.0976 26.3166 45.0976 26.7071 44.7071L32 39.4142L37.2929 44.7071C37.6834 45.0976 38.3166 45.0976 38.7071 44.7071C39.0976 44.3166 39.0976 43.6834 38.7071 43.2929L33.4142 38L38.7071 32.7071C39.0976 32.3166 39.0976 31.6834 38.7071 31.2929Z" fill="#53707F"/>
</svg>
