<svg width="64" height="64" viewBox="0 0 64 64" fill="none" xmlns="http://www.w3.org/2000/svg">
<path d="M18 54C18.5523 54 19 54.4477 19 55V60C19 60.5523 18.5523 61 18 61C17.4477 61 17 60.5523 17 60V55C17 54.4477 17.4477 54 18 54ZM25 54C25.5523 54 26 54.4477 26 55V60C26 60.5523 25.5523 61 25 61C24.4477 61 24 60.5523 24 60V55C24 54.4477 24.4477 54 25 54ZM32 54C32.5523 54 33 54.4477 33 55V60C33 60.5523 32.5523 61 32 61C31.4477 61 31 60.5523 31 60V55C31 54.4477 31.4477 54 32 54ZM39 54C39.5523 54 40 54.4477 40 55V60C40 60.5523 39.5523 61 39 61C38.4477 61 38 60.5523 38 60V55C38 54.4477 38.4477 54 39 54ZM46 54C46.5523 54 47 54.4477 47 55V60C47 60.5523 46.5523 61 46 61C45.4477 61 45 60.5523 45 60V55C45 54.4477 45.4477 54 46 54ZM48 12C50.2091 12 52 13.7909 52 16V48C52 50.2091 50.2091 52 48 52H16C13.7909 52 12 50.2091 12 48V16C12 13.7909 13.7909 12 16 12H48ZM48 14H16C14.9456 14 14.0818 14.8159 14.0055 15.8507L14 16V48C14 49.0544 14.8159 49.9182 15.8507 49.9945L16 50H48C49.0544 50 49.9182 49.1841 49.9945 48.1493L50 48V16C50 14.9456 49.1841 14.0818 48.1493 14.0055L48 14ZM9 45C9.55228 45 10 45.4477 10 46C10 46.5523 9.55228 47 9 47H4C3.44772 47 3 46.5523 3 46C3 45.4477 3.44772 45 4 45H9ZM60 45C60.5523 45 61 45.4477 61 46C61 46.5523 60.5523 47 60 47H55C54.4477 47 54 46.5523 54 46C54 45.4477 54.4477 45 55 45H60ZM9 38C9.55228 38 10 38.4477 10 39C10 39.5523 9.55228 40 9 40H4C3.44772 40 3 39.5523 3 39C3 38.4477 3.44772 38 4 38H9ZM60 38C60.5523 38 61 38.4477 61 39C61 39.5523 60.5523 40 60 40H55C54.4477 40 54 39.5523 54 39C54 38.4477 54.4477 38 55 38H60ZM26.737 25.2258L26.8384 25.3154L32 30.477L37.1616 25.3154L37.263 25.2258C37.6855 24.8973 38.2964 24.9272 38.6846 25.3154C39.0751 25.7059 39.103 26.3218 38.7683 26.7445L38.6846 26.8384L33.523 32L38.6846 37.1616C39.1051 37.5821 39.1051 38.264 38.6846 38.6846C38.2964 39.0728 37.6855 39.1027 37.263 38.7742L37.1616 38.6846L32 33.523L26.8384 38.6846L26.737 38.7742C26.3145 39.1027 25.7036 39.0728 25.3154 38.6846C24.9249 38.2941 24.897 37.6782 25.2317 37.2555L25.3154 37.1616L30.477 32L25.3154 26.8384C24.8949 26.4179 24.8949 25.736 25.3154 25.3154C25.7036 24.9272 26.3145 24.8973 26.737 25.2258ZM9 31C9.55228 31 10 31.4477 10 32C10 32.5523 9.55228 33 9 33H4C3.44772 33 3 32.5523 3 32C3 31.4477 3.44772 31 4 31H9ZM60 31C60.5523 31 61 31.4477 61 32C61 32.5523 60.5523 33 60 33H55C54.4477 33 54 32.5523 54 32C54 31.4477 54.4477 31 55 31H60ZM9 24C9.55228 24 10 24.4477 10 25C10 25.5523 9.55228 26 9 26H4C3.44772 26 3 25.5523 3 25C3 24.4477 3.44772 24 4 24H9ZM60 24C60.5523 24 61 24.4477 61 25C61 25.5523 60.5523 26 60 26H55C54.4477 26 54 25.5523 54 25C54 24.4477 54.4477 24 55 24H60ZM9 17C9.55228 17 10 17.4477 10 18C10 18.5523 9.55228 19 9 19H4C3.44772 19 3 18.5523 3 18C3 17.4477 3.44772 17 4 17H9ZM60 17C60.5523 17 61 17.4477 61 18C61 18.5523 60.5523 19 60 19H55C54.4477 19 54 18.5523 54 18C54 17.4477 54.4477 17 55 17H60ZM18 3C18.5523 3 19 3.44772 19 4V9C19 9.55228 18.5523 10 18 10C17.4477 10 17 9.55228 17 9V4C17 3.44772 17.4477 3 18 3ZM25 3C25.5523 3 26 3.44772 26 4V9C26 9.55228 25.5523 10 25 10C24.4477 10 24 9.55228 24 9V4C24 3.44772 24.4477 3 25 3ZM32 3C32.5523 3 33 3.44772 33 4V9C33 9.55228 32.5523 10 32 10C31.4477 10 31 9.55228 31 9V4C31 3.44772 31.4477 3 32 3ZM39 3C39.5523 3 40 3.44772 40 4V9C40 9.55228 39.5523 10 39 10C38.4477 10 38 9.55228 38 9V4C38 3.44772 38.4477 3 39 3ZM46 3C46.5523 3 47 3.44772 47 4V9C47 9.55228 46.5523 10 46 10C45.4477 10 45 9.55228 45 9V4C45 3.44772 45.4477 3 46 3Z" fill="#53707F"/>
</svg>
