<svg width="64" height="64" viewBox="0 0 64 64" fill="none" xmlns="http://www.w3.org/2000/svg">
<path d="M27.5 7C38.2696 7 47 15.7304 47 26.5C47 31.5998 45.0423 36.2424 41.8374 39.7172L58.0607 55.9393L55.9393 58.0607L39.6391 41.7617C36.3082 44.4146 32.0893 46 27.5 46C16.7304 46 8 37.2696 8 26.5C8 15.7304 16.7304 7 27.5 7ZM27.5 9C17.835 9 10 16.835 10 26.5C10 36.165 17.835 44 27.5 44C37.165 44 45 36.165 45 26.5C45 16.835 37.165 9 27.5 9ZM22.6129 20.2097L22.7071 20.2929L27.5 25.085L32.2929 20.2929L32.3871 20.2097C32.7794 19.9047 33.3466 19.9324 33.7071 20.2929C34.0976 20.6834 34.0976 21.3166 33.7071 21.7071L28.915 26.5L33.7071 31.2929C34.0976 31.6834 34.0976 32.3166 33.7071 32.7071C33.3466 33.0676 32.7794 33.0953 32.3871 32.7903L32.2929 32.7071L27.5 27.915L22.7071 32.7071L22.6129 32.7903C22.2206 33.0953 21.6534 33.0676 21.2929 32.7071C20.9024 32.3166 20.9024 31.6834 21.2929 31.2929L26.085 26.5L21.2929 21.7071C20.9024 21.3166 20.9024 20.6834 21.2929 20.2929C21.6534 19.9324 22.2206 19.9047 22.6129 20.2097Z" fill="#53707F"/>
</svg>
