<svg width="64" height="64" viewBox="0 0 64 64" fill="none" xmlns="http://www.w3.org/2000/svg">
<path fill-rule="evenodd" clip-rule="evenodd" d="M38 54C38 56.2091 36.2092 58 34 58H30C27.7909 58 26 56.2091 26 54H38ZM32 6C33.1046 6 34 6.89543 34 8L34.0002 11.1218C41.5653 12.0497 47.5978 18.1732 48.2457 25.9482L50 47L52.0913 50.4855C52.3755 50.9591 52.2219 51.5733 51.7483 51.8575C51.5929 51.9507 51.4151 52 51.2338 52H12.7662C12.2139 52 11.7662 51.5523 11.7662 51C11.7662 50.8188 11.8155 50.6409 11.9087 50.4855L14 47L15.7543 25.9482C16.4022 18.1732 22.4348 12.0497 29.9998 11.1218L30 8C30 6.89543 30.8954 6 32 6ZM32 13C24.6695 13 18.545 18.5376 17.7778 25.7931L17.7474 26.1143L15.9931 47.1661C15.9728 47.4102 15.9078 47.648 15.802 47.8677L15.715 48.029L14.531 50H49.468L48.285 48.029C48.159 47.819 48.0729 47.588 48.0305 47.3478L48.0069 47.1661L46.2526 26.1143C45.6349 18.7017 39.4383 13 32 13Z" fill="#53707F"/>
</svg>
