<svg width="64" height="64" viewBox="0 0 64 64" fill="none" xmlns="http://www.w3.org/2000/svg">
<path d="M50.7644 24C53.2086 24 55.2945 25.7671 55.6963 28.178L57.9999 42.003L58 20C58 18.4023 56.7511 17.0963 55.1763 17.0051L55 17H35.1716L31.3431 13.1716C30.6466 12.475 29.7196 12.0619 28.7413 12.0064L28.5147 12H13C10.8578 12 9.10892 13.684 9.0049 15.8004L9 16L8.99992 24H50.7644ZM50.7644 26H5.54138C5.4863 26 5.43132 26.0046 5.37699 26.0136C4.87113 26.0979 4.51767 26.5482 4.54245 27.0483L4.55499 27.1644L8.55499 51.1644C8.62866 51.6064 8.98535 51.9402 9.42082 51.9928L9.54138 52H56.4586C56.5137 52 56.5687 51.9954 56.623 51.9864C57.1289 51.9021 57.4823 51.4518 57.4576 50.9517L57.445 50.8356L53.7235 28.5068C53.4925 27.1205 52.3334 26.089 50.9465 26.0055L50.7644 26ZM9.54138 54C8.07487 54 6.8233 52.9398 6.5822 51.4932L2.5822 27.4932C2.30982 25.8589 3.41388 24.3132 5.04819 24.0408C5.21118 24.0137 5.37614 24 5.54138 24H6.99992L7 16C7 12.6863 9.68629 10 13 10H28.5147C30.106 10 31.6321 10.6321 32.7574 11.7574L36 15H55C57.7614 15 60 17.2386 60 20V51C60 52.6569 58.6569 54 57 54H9.54138Z" fill="#53707F"/>
</svg>
