<svg width="64" height="64" viewBox="0 0 64 64" fill="none" xmlns="http://www.w3.org/2000/svg">
<path fill-rule="evenodd" clip-rule="evenodd" d="M27.5 44C37.165 44 45 36.165 45 26.5C45 16.835 37.165 9 27.5 9C17.835 9 10 16.835 10 26.5C10 36.165 17.835 44 27.5 44ZM27.5 46C31.9086 46 35.9755 44.537 39.2416 42.0701L55.5858 58.4142L58.4142 55.5858L42.1726 39.3442C45.1783 35.9135 47 31.4195 47 26.5C47 15.7304 38.2696 7 27.5 7C16.7304 7 8 15.7304 8 26.5C8 37.2696 16.7304 46 27.5 46ZM21 17H24V35H21V17ZM30 17H27V28V35H30V28H33C35.2091 28 37 26.2091 37 24V21C37 18.7909 35.2091 17 33 17H30ZM30 26H32C33.1046 26 34 25.1046 34 24V21C34 19.8954 33.1046 19 32 19H30V26Z" fill="#53707F"/>
</svg>
