<?xml version="1.0" encoding="UTF-8"?>
<svg width="20px" height="20px" viewBox="0 0 20 20" version="1.1" xmlns="http://www.w3.org/2000/svg" xmlns:xlink="http://www.w3.org/1999/xlink">
    <!-- Generator: Sketch 64 (93537) - https://sketch.com -->
    <title>closeeye</title>
    <desc>Created with Sketch.</desc>
    <g id="closeeye" stroke="none" stroke-width="1" fill="none" fill-rule="evenodd">
        <path d="M10,5 C14.418278,5 18,9.16666667 18,10 C18,10.446519 16.9716657,11.8500585 15.337308,13.0568331 L17.7020699,14.9157516 L17.0842484,15.7020699 L14.46365,13.6432992 C14.7706595,13.4570263 15.0625477,13.2597103 15.337308,13.0568331 L12.8046134,11.0672431 C12.9308638,10.7356576 13,10.3759026 13,10 C13,8.34314575 11.6568542,7 10,7 C9.3686724,7 8.78289257,7.19501324 8.29961284,7.5280874 L8.29961284,7.5280874 L6.28242074,5.94306617 C7.39314891,5.3844127 8.65798453,5 10,5 Z M2.91575161,3.29793005 L6.28242074,5.94306617 C5.95523126,6.10762987 5.6414141,6.28731291 5.34293558,6.47674313 L7.57631751,8.23166613 C7.21391599,8.72752768 7,9.33878246 7,10 C7,11.6568542 8.34314575,13 10,13 C10.918844,13 11.7412072,12.5869162 12.2915105,11.9363276 L12.2915105,11.9363276 L14.46365,13.6432992 C13.188656,14.4168803 11.6528655,15 10,15 C5.581722,15 2,10.8333333 2,10 C2,9.49434631 3.31874469,7.7614015 5.34293558,6.47674313 L2.29793005,4.08424839 L2.91575161,3.29793005 Z M10,8 C11.1045695,8 12,8.8954305 12,10 C12,11.1045695 11.1045695,12 10,12 C8.8954305,12 8,11.1045695 8,10 C8,8.8954305 8.8954305,8 10,8 Z" id="Combined-Shape" fill="#E1E7EA" fill-rule="nonzero"></path>
    </g>
</svg>