<svg width="20" height="20" viewBox="0 0 20 20" fill="none" xmlns="http://www.w3.org/2000/svg">
<path d="M14 9H13.25V9.75H14V9ZM6.12602 8V8.75H6.70742L6.85235 8.18694L6.12602 8ZM14 9.75H15V8.25H14V9.75ZM10 5.75C11.7949 5.75 13.25 7.20507 13.25 9H14.75C14.75 6.37665 12.6234 4.25 10 4.25V5.75ZM6.85235 8.18694C7.21317 6.78504 8.48666 5.75 10 5.75V4.25C7.78566 4.25 5.92695 5.76451 5.39969 7.81306L6.85235 8.18694ZM5.5 8.75H6.12602V7.25H5.5V8.75ZM2.75 11.5C2.75 9.98122 3.98122 8.75 5.5 8.75V7.25C3.15279 7.25 1.25 9.15279 1.25 11.5H2.75ZM5.5 14.25C3.98122 14.25 2.75 13.0188 2.75 11.5H1.25C1.25 13.8472 3.15279 15.75 5.5 15.75V14.25ZM8 14.25H5.5V15.75H8V14.25ZM9.5 14.25H8V15.75H9.5V14.25ZM15 14.25H9.5V15.75H15V14.25ZM17.25 12C17.25 13.2426 16.2426 14.25 15 14.25V15.75C17.0711 15.75 18.75 14.0711 18.75 12H17.25ZM15 9.75C16.2426 9.75 17.25 10.7574 17.25 12H18.75C18.75 9.92893 17.0711 8.25 15 8.25V9.75Z" fill="#698796"/>
</svg>
