<?xml version="1.0" encoding="UTF-8"?>
<svg width="22px" height="14px" viewBox="0 0 22 14" version="1.1" xmlns="http://www.w3.org/2000/svg" xmlns:xlink="http://www.w3.org/1999/xlink">
    <!-- Generator: Sketch 64 (93537) - https://sketch.com -->
    <title>cloud</title>
    <desc>Created with Sketch.</desc>
    <g id="cloud" stroke="none" stroke-width="1" fill="none" fill-rule="evenodd">
        <path d="M11,0 C14.1724615,0 16.8520062,2.11042759 17.7112932,5.00394194 C20.0982334,5.11496165 22,7.08539013 22,9.5 C22,11.8160341 20.2503421,13.7234136 18.0007074,13.9724574 L18,14 L5,14 C2.23857625,14 0,11.7614237 0,9 C0,6.35011479 2.06138876,4.18169272 4.66805651,4.01084356 C5.78941665,1.64026577 8.20315603,0 11,0 Z M11,2 C9.12422918,2 7.43740255,3.04147777 6.57893558,4.66067821 L6.47598783,4.86605368 L5.97289028,5.92961198 L4.7988621,6.00656145 C3.22998855,6.10939033 2,7.41763184 2,9 C2,10.5976809 3.24891996,11.9036609 4.82372721,11.9949073 L5,12 L17.636,12 L17.7806436,11.9846012 C18.9822953,11.8515735 19.9156993,10.8679336 19.9945933,9.66529438 L20,9.5 C20,8.21886391 19.0332586,7.15563797 17.783,7.01485586 L17.6183711,7.00178214 L16.198654,6.93574924 L15.7940492,5.57330597 C15.1912331,3.54341744 13.360451,2.1021937 11.2294303,2.00521262 L11,2 Z" id="Combined-Shape" fill="#2FA2DB" fill-rule="nonzero"></path>
        <path d="M11,2 C9.12422918,2 7.43740255,3.04147777 6.57893558,4.66067821 L6.47598783,4.86605368 L5.97289028,5.92961198 L4.7988621,6.00656145 C3.22998855,6.10939033 2,7.41763184 2,9 C2,10.5976809 3.24891996,11.9036609 4.82372721,11.9949073 L5,12 L17.636,12 L17.7806436,11.9846012 C18.9822953,11.8515735 19.9156993,10.8679336 19.9945933,9.66529438 L20,9.5 C20,8.21886391 19.0332586,7.15563797 17.783,7.01485586 L17.6183711,7.00178214 L16.198654,6.93574924 L15.7940492,5.57330597 C15.1912331,3.54341744 13.360451,2.1021937 11.2294303,2.00521262 L11,2 Z" id="Path" fill-opacity="0.4" fill="#2FA2DB" fill-rule="nonzero"></path>
    </g>
</svg>