<svg width="20" height="20" viewBox="-2 -2 24 24" fill="none" xmlns="http://www.w3.org/2000/svg">
<mask id="path-1-inside-1_1_3" fill="white">
<path fill-rule="evenodd" clip-rule="evenodd" d="M3.16584 8.08711C3.86058 5.17662 6.65655 3 10 3C13.6969 3 16.7244 5.6611 16.9822 9.03295C18.687 9.26787 20 10.7306 20 12.5C20 14.433 18.433 16 16.5 16H10H9H4C1.79086 16 0 14.2091 0 12C0 10.0769 1.35709 8.47081 3.16584 8.08711Z"/>
</mask>
<path fill-rule="evenodd" clip-rule="evenodd" d="M3.16584 8.08711C3.86058 5.17662 6.65655 3 10 3C13.6969 3 16.7244 5.6611 16.9822 9.03295C18.687 9.26787 20 10.7306 20 12.5C20 14.433 18.433 16 16.5 16H10H9H4C1.79086 16 0 14.2091 0 12C0 10.0769 1.35709 8.47081 3.16584 8.08711Z" fill="#2FA2DB" fill-opacity="0.4"/>
<path d="M3.16584 8.08711L3.47712 9.55445L4.40469 9.35768L4.62485 8.43538L3.16584 8.08711ZM16.9822 9.03295L15.4866 9.14731L15.5788 10.3537L16.7774 10.5189L16.9822 9.03295ZM4.62485 8.43538C5.14556 6.25397 7.29396 4.5 10 4.5V1.5C6.01914 1.5 2.57561 4.09927 1.70683 7.73883L4.62485 8.43538ZM10 4.5C13.0017 4.5 15.2951 6.6429 15.4866 9.14731L18.4778 8.91859C18.1537 4.67929 14.392 1.5 10 1.5V4.5ZM21.5 12.5C21.5 9.97104 19.6239 7.8828 17.187 7.54699L16.7774 10.5189C17.7502 10.653 18.5 11.4902 18.5 12.5H21.5ZM16.5 17.5C19.2614 17.5 21.5 15.2614 21.5 12.5H18.5C18.5 13.6046 17.6046 14.5 16.5 14.5V17.5ZM10 17.5H16.5V14.5H10V17.5ZM9 17.5H10V14.5H9V17.5ZM4 17.5H9V14.5H4V17.5ZM-1.5 12C-1.5 15.0376 0.962434 17.5 4 17.5V14.5C2.61929 14.5 1.5 13.3807 1.5 12H-1.5ZM2.85456 6.61976C0.367052 7.14746 -1.5 9.35396 -1.5 12H1.5C1.5 10.7999 2.34713 9.79416 3.47712 9.55445L2.85456 6.61976Z" fill="#2FA2DB" mask="url(#path-1-inside-1_1_3)"/>
</svg>
