<svg width="22" height="16" viewBox="0 0 22 16" fill="none" xmlns="http://www.w3.org/2000/svg">
<path d="M14 6H13.25V6.75H14V6ZM6.12202 5.01565L6.18418 5.76307L6.71776 5.7187L6.84911 5.19964L6.12202 5.01565ZM14 6.75H16V5.25H14V6.75ZM10 2.75C11.7949 2.75 13.25 4.20507 13.25 6H14.75C14.75 3.37665 12.6234 1.25 10 1.25V2.75ZM6.84911 5.19964C7.20548 3.79132 8.48207 2.75 10 2.75V1.25C7.77899 1.25 5.91572 2.77365 5.39494 4.83166L6.84911 5.19964ZM2.75 9.5C2.75 7.53539 4.26129 5.92298 6.18418 5.76307L6.05987 4.26823C3.36594 4.49226 1.25 6.74864 1.25 9.5H2.75ZM6.5 13.25C4.42893 13.25 2.75 11.5711 2.75 9.5H1.25C1.25 12.3995 3.60051 14.75 6.5 14.75V13.25ZM8 13.25H6.5V14.75H8V13.25ZM8.5 13.25H8V14.75H8.5V13.25ZM16 13.25H8.5V14.75H16V13.25ZM19.25 10C19.25 11.7949 17.7949 13.25 16 13.25V14.75C18.6234 14.75 20.75 12.6234 20.75 10H19.25ZM16 6.75C17.7949 6.75 19.25 8.20507 19.25 10H20.75C20.75 7.37665 18.6234 5.25 16 5.25V6.75Z" fill="#3A4D57"/>
</svg>

