<svg width="20" height="20" viewBox="0 0 20 20" fill="none" xmlns="http://www.w3.org/2000/svg">
<path fill-rule="evenodd" clip-rule="evenodd" d="M10 5.27411C8.48666 5.27411 7.21317 6.30914 6.85235 7.71105L6.70742 8.27411H6.12602H5.5C3.98122 8.27411 2.75 9.50533 2.75 11.0241C2.75 11.6545 2.96213 12.2354 3.3189 12.6992L2.10167 13.5767C1.56693 12.866 1.25 11.9821 1.25 11.0241C1.25 8.6769 3.15279 6.77411 5.5 6.77411H5.58299C6.27975 5.01711 7.99394 3.77411 10 3.77411C11.3989 3.77411 12.6566 4.37884 13.5259 5.34115L12.2982 6.22614C11.7101 5.63793 10.8975 5.27411 10 5.27411ZM5.72685 15.2741L7.80761 13.7741H8H9.5H15C16.2426 13.7741 17.25 12.7668 17.25 11.5241C17.25 10.2815 16.2426 9.27411 15 9.27411H14.0499L15.959 7.89785C17.5655 8.32157 18.75 9.78451 18.75 11.5241C18.75 13.5952 17.0711 15.2741 15 15.2741H9.5H8H5.72685ZM17.1715 4.00001L1.62009 15.2109L2.54826 16.3892L18.0997 5.17835L17.1715 4.00001Z" fill="#C22626"/>
</svg>
