<?xml version="1.0" encoding="UTF-8"?>
<svg width="54px" height="32px" viewBox="0 0 54 32" version="1.1" xmlns="http://www.w3.org/2000/svg" xmlns:xlink="http://www.w3.org/1999/xlink">
    <!-- Generator: Sketch 64 (93537) - https://sketch.com -->
    <title>Welcome Screen/connecttocloud</title>
    <desc>Created with Sketch.</desc>
    <g id="Welcome-Screen/connecttocloud" stroke="none" stroke-width="1" fill="none" fill-rule="evenodd">
        <path d="M28,3.5 C25.2100676,3.5 22.6335566,4.41391301 20.5537283,5.95887949 C18.4219791,7.54241462 16.8116879,9.78855009 15.4292728,12.734056 C14.8113807,12.581093 14.1651629,12.5 13.5,12.5 C11.2792969,12.5 9.26993006,13.4052122 7.82162466,14.8976537 C6.38698383,16.3760141 5.50393656,18.4291671 5.50375385,20.7471316 C5.56923588,22.9044582 6.48874025,24.8465482 7.94308616,26.2471386 C9.39149164,27.6420081 11.3701655,28.4994695 13.563893,28.499 L28.077,28.499 L41.5000372,28.5 C43.4329966,28.5 45.1829966,27.7164983 46.4497475,26.4497475 C47.7164983,25.1829966 48.5,23.4329966 48.5,21.5 C48.5,19.5670034 47.7164983,17.8170034 46.4497475,16.5502525 C45.1829966,15.2835017 43.4329966,14.5 41.5,14.5 L40.4108058,14.4986068 C40.0290581,11.3078967 38.444973,8.48679162 36.1251113,6.50060111 C33.9400851,4.62985224 31.1019756,3.5 28,3.5 Z" id="Combined-Shape" stroke="#E1E7EA"></path>
        <path d="M27.6128994,10.2097046 L27.7071068,10.2928932 L32.7071068,15.2928932 L31.2928932,16.7071068 L27.9998932,13.415 L28,22 L26,22 L25.9998932,13.415 L22.7071068,16.7071068 L21.2928932,15.2928932 L26.2928932,10.2928932 C26.6533772,9.93240926 27.2206082,9.90467972 27.6128994,10.2097046 Z" id="Combined-Shape" fill="#2FA2DB"></path>
    </g>
</svg>