<?xml version="1.0" encoding="UTF-8"?>
<svg width="54px" height="32px" viewBox="0 0 54 32" version="1.1" xmlns="http://www.w3.org/2000/svg" xmlns:xlink="http://www.w3.org/1999/xlink">
    <!-- Generator: Sketch 64 (93537) - https://sketch.com -->
    <title>Welcome Screen/connecttoserver</title>
    <desc>Created with Sketch.</desc>
    <g id="Welcome-Screen/connecttoserver" stroke="none" stroke-width="1" fill="none" fill-rule="evenodd">
        <path d="M37.5,22.5 L5.5,22.5 L5.5,29.5 L37.5,29.5 L37.5,22.5 Z M37.5,12.5 L5.5,12.5 L5.5,19.5 L37.5,19.5 L37.5,12.5 Z M37.5,2.5 L5.5,2.5 L5.5,9.5 L37.5,9.5 L37.5,2.5 Z" id="Combined-Shape" stroke="#E1E7EA" stroke-linejoin="round"></path>
        <circle id="Oval" fill="#E1E7EA" cx="38.5" cy="16.5" r="10.5"></circle>
        <path d="M9,25 C9.55228475,25 10,25.4477153 10,26 C10,26.5522847 9.55228475,27 9,27 C8.44771525,27 8,26.5522847 8,26 C8,25.4477153 8.44771525,25 9,25 Z M40,11 L40,15.5 L44.5,15.5 L44.5,17.5 L40,17.5 L40,22 L38,22 L38,17.499 L33.5,17.5 L33.5,15.5 L38,15.499 L38,11 L40,11 Z M9,15 C9.55228475,15 10,15.4477153 10,16 C10,16.5522847 9.55228475,17 9,17 C8.44771525,17 8,16.5522847 8,16 C8,15.4477153 8.44771525,15 9,15 Z M9,5 C9.55228475,5 10,5.44771525 10,6 C10,6.55228475 9.55228475,7 9,7 C8.44771525,7 8,6.55228475 8,6 C8,5.44771525 8.44771525,5 9,5 Z" id="Combined-Shape" fill="#2FA2DB"></path>
    </g>
</svg>