<?xml version="1.0" encoding="UTF-8"?>
<svg width="20px" height="20px" viewBox="0 0 20 20" version="1.1" xmlns="http://www.w3.org/2000/svg" xmlns:xlink="http://www.w3.org/1999/xlink">
    <!-- Generator: Sketch 64 (93537) - https://sketch.com -->
    <title>Welcome Screen/eye_full</title>
    <desc>Created with Sketch.</desc>
    <g id="Welcome-Screen/eye_full" stroke="none" stroke-width="1" fill="none" fill-rule="evenodd">
        <path d="M4.79249059,4 L6.56873995,5.77672235 C7.60857232,5.30900783 8.77197337,5 10,5 C14.418278,5 18,9 18,10 C18,10.6249268 16.6012175,12.4214541 14.4736237,13.681198 L16,15.2075094 L15.2075094,16 L13.4302524,14.2237308 C12.3906761,14.6911918 11.22763,15 10,15 C5.581722,15 2,11 2,10 C2,9.3750732 3.39878245,7.57854588 5.52637626,6.31880202 L4,4.79249059 L4.79249059,4 Z M7,10 C7,11.6568542 8.34314575,13 10,13 C10.6258555,13 11.2069494,12.8083527 11.6877975,12.4805423 L7.51945773,8.31220248 C7.1916473,8.79305057 7,9.37414447 7,10 Z M10,7 C9.37414447,7 8.79305057,7.1916473 8.31220248,7.51945773 L12.4805423,11.6877975 C12.8083527,11.2069494 13,10.6258555 13,10 C13,8.34314575 11.6568542,7 10,7 Z" id="Combined-Shape" fill="#E1E7EA"></path>
    </g>
</svg>