<?xml version="1.0" encoding="UTF-8"?>
<svg width="39px" height="78px" viewBox="0 0 39 78" version="1.1" xmlns="http://www.w3.org/2000/svg" xmlns:xlink="http://www.w3.org/1999/xlink">
    <!-- Generator: Sketch 64 (93537) - https://sketch.com -->
    <title>Combined Shape</title>
    <desc>Created with Sketch.</desc>
    <g id="Page-1" stroke="none" stroke-width="1" fill="none" fill-rule="evenodd">
        <g id="Artboard" transform="translate(-276.000000, -185.000000)" fill="#3F545F" fill-rule="nonzero">
            <path d="M315,185 L315,188 L312.029,188 L310.602,195.608 L310.4252,197.6642 L308.1863,198.2386 L307.8558,198.3291 L305.8252,198.9062 L304.621,197.224 L299.572,191.338 L294.427,194.308 L296.994,201.604 L297.8833,203.4745 L296.3548,204.9725 L295.9789,205.3489 L294.5016,206.8641 L292.622,206 L285.308,203.427 L282.338,208.572 L288.2202,213.6172 L289.888,214.8439 L289.3328,216.8385 L289.1975,217.3483 L288.683,219.4014 L286.615,219.601 L279,221.029 L279,226.97 L286.613,228.398 L288.6842,228.6535 L289.2616,230.9001 L289.9001,233.1813 L288.223,234.379 L282.338,239.427 L285.308,244.572 L292.6394,241.9928 L294.5308,241.1743 L296.1636,242.8382 L296.3489,243.021 L297.8641,244.4984 L297,246.377 L294.427,253.691 L299.572,256.661 L304.568,250.836 L305.6482,249.0575 L308.016,249.7159 L308.3483,249.8025 L310.4014,250.317 L310.601,252.384 L312.029,260 L315,260 L315,263 L311.1999,263 C310.2909,263 309.5037,262.3886 309.2696,261.5238 L309.2341,261.3686 L307.6441,252.8886 C307.6332,252.8303 307.6248,252.7716 307.6191,252.7126 L307.3262,252.6369 L307.034,252.5573 L306.9261,252.6962 L301.3091,259.2451 C300.9405,259.6748 300.4227,259.9143 299.889,259.9407 L299.7286,259.9422 C299.4609,259.9339 299.1926,259.8719 298.9403,259.7531 L298.791,259.6751 L292.209,255.8749 C291.4245,255.422 291.0484,254.5037 291.2731,253.6403 L291.3223,253.4792 L294.1853,245.3403 C294.2058,245.2821 294.2289,245.225 294.2546,245.169 L294.0418,244.959 L293.8308,244.746 L293.6597,244.8147 L285.52081,247.6777 C285.3606,247.7341 285.1973,247.7689 285.03436,247.7834 L284.87167,247.7912 C284.2224,247.7958 283.59712,247.4828 283.21533,246.9333 L283.12508,246.791 L279.32494,240.209 C278.87203,239.4245 279.00542,238.4412 279.63173,237.8058 L279.75491,237.6909 L286.3038,232.0739 C286.3486,232.0355 286.3949,231.9992 286.4428,231.9649 L286.2864,231.3811 L286.1994,231.3704 L286.1114,231.3559 L277.63142,229.7659 C276.738031,229.5984 276.076965,228.8523 276.006271,227.9592 L276,227.8001 L276,220.1999 C276,219.2909 276.611436,218.5037 277.47626,218.2696 L277.63142,218.2341 L286.1114,216.6441 C286.1697,216.6332 286.2284,216.6248 286.2874,216.6191 C286.3364,216.4238 286.3886,216.2285 286.4427,216.034 L286.3727,215.9824 L286.3038,215.9261 L279.75491,210.3091 C279.06736,209.7194 278.86687,208.7475 279.24686,207.9403 L279.32494,207.791 L283.12508,201.209 C283.46476,200.6206 284.06624,200.262 284.70999,200.2142 L284.87167,200.2088 C285.03399,200.2099 285.19781,200.2309 285.3597,200.2731 L285.52081,200.3223 L293.6597,203.1853 C293.7178,203.2058 293.775,203.2289 293.8309,203.2546 L294.255,202.8299 C294.2289,202.775 294.2058,202.7179 294.1853,202.6597 L291.3223,194.52081 C291.0029,193.61291 291.3755,192.6063 292.209,192.12508 L298.791,188.32494 C299.0362,188.1834 299.3007,188.09912 299.568,188.06925 L299.7286,188.05784 C300.3176,188.03974 300.9037,188.28222 301.3091,188.75492 L306.9261,195.3038 C306.965,195.3491 307.0015,195.3957 307.0356,195.4434 C307.2285,195.3886 307.4238,195.3364 307.6198,195.2861 C307.6248,195.2284 307.6332,195.1697 307.6441,195.1114 L309.2341,186.63142 C309.4115,185.685477 310.2374,185 311.1999,185 L315,185 Z M315,201 L315,202 L315,202 C302.8497,202 293,211.8497 293,224 C293,236.1503 302.8497,246 315,246 L315,247 L315,247 C302.2975,247 292,236.7025 292,224 C292,211.2975 302.2975,201 315,201 Z M315,210 L315,214 L315,214 C309.4772,214 305,218.4772 305,224 C305,229.5228 309.4772,234 315,234 L315,238 L315,238 C307.268,238 301,231.732 301,224 C301,216.268 307.268,210 315,210 Z" id="Combined-Shape"></path>
        </g>
    </g>
</svg>