<?xml version="1.0" encoding="UTF-8"?>
<svg width="20px" height="20px" viewBox="0 0 20 20" version="1.1" xmlns="http://www.w3.org/2000/svg" xmlns:xlink="http://www.w3.org/1999/xlink">
    <!-- Generator: Sketch 64 (93537) - https://sketch.com -->
    <title>Welcome Screen/star_full</title>
    <desc>Created with Sketch.</desc>
    <g id="Welcome-Screen/star_full" stroke="none" stroke-width="1" fill="none" fill-rule="evenodd">
        <path d="M10,15.3 L5.5169952,17.6568551 C5.29701513,17.7725055 5.02493291,17.6879295 4.90928255,17.4679495 C4.86322997,17.3803523 4.84733837,17.2800166 4.86406795,17.1824757 L5.72024568,12.1905765 L5.72024568,12.1905765 L2.09341861,8.65529382 C1.915451,8.48181828 1.91180946,8.19691731 2.085285,8.0189497 C2.15436388,7.94808206 2.24487796,7.90196283 2.34281462,7.8877318 L7.35496636,7.15942353 L7.35496636,7.15942353 L9.59646877,2.61764359 C9.7064588,2.39477944 9.97629042,2.30327689 10.1991546,2.41326692 C10.2879002,2.45706553 10.3597326,2.52889792 10.4035312,2.61764359 L12.6450336,7.15942353 L12.6450336,7.15942353 L17.6571854,7.8877318 C17.9031306,7.92346973 18.0735372,8.15181902 18.0377993,8.3977642 C18.0235683,8.49570087 17.977449,8.58621495 17.9065814,8.65529382 L14.2797543,12.1905765 L14.2797543,12.1905765 L15.1359321,17.1824757 C15.1779445,17.4274271 15.01343,17.6600573 14.7684786,17.7020697 C14.6709377,17.7187993 14.570602,17.7029077 14.4830048,17.6568551 L10,15.3 L10,15.3 Z" id="Star" fill="#FEBC00"></path>
    </g>
</svg>