<svg xmlns="http://www.w3.org/2000/svg" width="48" height="48" fill="none" viewBox="0 0 48 48">
  <g class="48x48/Outline/checkmark">
    <path fill="#E1E7EA" fill-rule="evenodd" d="M24 42c9.941 0 18-8.059 18-18S33.941 6 24 6 6 14.059 6 24s8.059 18 18 18Zm0 2c11.046 0 20-8.954 20-20S35.046 4 24 4 4 12.954 4 24s8.954 20 20 20Zm7.398-24.376a.882.882 0 1 0-1.248-1.248l-9.364 9.364-3.515-3.516a.882.882 0 0 0-1.248 1.248l4.143 4.143a.882.882 0 0 0 1.314-.074l9.918-9.917Z" class="Primary" clip-rule="evenodd"/>
  </g>
</svg>
