<svg xmlns="http://www.w3.org/2000/svg" width="90" height="124" fill="none" viewBox="0 0 90 124">
  <g class="illustrations/90x124/certificate" clip-path="url(#a)">
    <path fill="#2B383F" d="M87.625 1H2.375C1.615 1 1 1.616 1 2.375v109.25c0 .759.616 1.375 1.375 1.375h85.25c.76 0 1.375-.616 1.375-1.375V2.375C89 1.615 88.384 1 87.625 1Z" class="Primary"/>
    <path fill="#3F545F" fill-rule="evenodd" d="M2.375-.375a2.75 2.75 0 0 0-2.75 2.75v109.25a2.75 2.75 0 0 0 2.75 2.75h85.25a2.75 2.75 0 0 0 2.75-2.75V2.375a2.75 2.75 0 0 0-2.75-2.75H2.375Zm0 2.75h85.25v109.25H2.375V2.375Zm66 6.25h-48.75V10c0 5.868-4.757 10.625-10.625 10.625H7.625v72.75H9c5.868 0 10.625 4.757 10.625 10.625v1.375h60.75v-84.75H79c-5.868 0-10.625-4.757-10.625-10.625V8.625Zm-58 14.68c6.289-.642 11.288-5.641 11.93-11.93h43.39c.642 6.289 5.641 11.288 11.93 11.93v79.32h-55.32c-.642-6.289-5.641-11.288-11.93-11.93v-67.39Z" class="Secondary" clip-rule="evenodd"/>
    <path fill="#A5B7C0" fill-rule="evenodd" d="M66.343 11c0 6.486 5.219 11.745 11.657 11.745V103H21.657c0-6.486-5.219-11.745-11.657-11.745v-68.51c6.438 0 11.657-5.259 11.657-11.745h44.686Z" class="Tertiary" clip-rule="evenodd"/>
    <path fill="#3F545F" fill-rule="evenodd" d="M39 74v-4H15v4h24Zm3-10v-4H15v4h27Zm31 0v-4H44v4h29Zm0-6v-4H15v4h58Zm-38-6v-4H15v4h20Zm38 0v-4H37v4h36Zm-22-5.875V42H15v4.125h36ZM73 46v-4H53v4h20Zm0-6v-4H15v4h58Zm-11-9V20H26v11h36Zm3.667 47.543c10.309 0 18.666 8.38 18.666 18.718a18.71 18.71 0 0 1-8 15.362V124l-10.666-4.011L55 124l-.002-11.378A18.71 18.71 0 0 1 47 97.261c0-10.337 8.357-18.718 18.667-18.718Z" class="Quaternary" clip-rule="evenodd"/>
    <path fill="#2B383F" fill-rule="evenodd" d="M82 97.26c0 9.034-7.305 16.37-16.333 16.37-9.029 0-16.334-7.336-16.334-16.37 0-9.032 7.305-16.369 16.334-16.369 9.028 0 16.333 7.337 16.333 16.37Zm-3 0c0 7.385-5.97 13.37-13.333 13.37-7.364 0-13.334-5.985-13.334-13.37 0-7.383 5.97-13.369 13.334-13.369C73.03 83.891 79 89.877 79 97.261Z" class="Quinary" clip-rule="evenodd"/>
    <path fill="#A5B7C0" d="M70.183 90.856a1.33 1.33 0 0 1 1.76.112 1.34 1.34 0 0 1 0 1.89l-4.391 4.402 4.39 4.403a1.34 1.34 0 0 1 0 1.891 1.33 1.33 0 0 1-1.76.111l-.125-.111-4.391-4.403-4.39 4.403-.126.111a1.33 1.33 0 0 1-1.76-.111 1.34 1.34 0 0 1 0-1.891l4.391-4.403-4.39-4.402a1.34 1.34 0 0 1 0-1.89 1.331 1.331 0 0 1 1.76-.112l.125.112 4.39 4.402 4.391-4.402.126-.112Z" class="Senary"/>
  </g>
  <defs>
    <clipPath id="a" class="a">
      <path fill="#fff" d="M0 0h90v124H0z"/>
    </clipPath>
  </defs>
</svg>
