<svg width="20" height="20" viewBox="0 0 20 20" fill="none" xmlns="http://www.w3.org/2000/svg">
<path fill-rule="evenodd" clip-rule="evenodd" d="M3.75947 10.6565C3.89033 10.8483 4.13352 10.8888 4.31022 10.7759C4.49582 10.6574 4.55032 10.4088 4.43113 10.2242C3.23894 8.38252 3.77964 5.9153 5.63512 4.73031C5.82072 4.61182 5.87437 4.36704 5.75518 4.18247C5.63609 3.99791 5.39004 3.94456 5.20443 4.06306C2.97783 5.48505 2.32985 8.4418 3.75947 10.6565ZM6.61967 5.52182C6.50058 5.33727 6.25443 5.2839 6.06892 5.40241C4.58531 6.3465 4.15276 8.32027 5.1059 9.79675C5.22016 9.97383 5.46745 10.037 5.65665 9.91616C5.84226 9.79767 5.8959 9.55289 5.77671 9.36831C5.06185 8.26097 5.38626 6.78064 6.49962 6.06965C6.68522 5.95115 6.73886 5.7064 6.61967 5.52182ZM9.91227 5.53011C8.33692 5.53011 7.0185 6.72514 6.86422 8.29292L6.5029 11.9644C6.46614 12.3379 6.20629 12.6516 5.84619 12.7573L5.35541 12.9014C5.17673 12.9539 5.05399 13.1178 5.05399 13.304V13.5635H6.44207H14.7705V13.304C14.7705 13.1178 14.6478 12.9539 14.4691 12.9014L13.9784 12.7573C13.6182 12.6516 13.3584 12.3379 13.3216 11.9644L12.9603 8.29292C12.806 6.72514 11.4876 5.53011 9.91227 5.53011ZM9.91225 16C10.7054 16 11.4986 15.2531 11.4986 14.8179C11.4986 14.418 10.899 14.4203 10.122 14.4233H10.1218H10.1215H10.1212H10.121C10.0527 14.4236 9.983 14.4239 9.91225 14.4239C9.84132 14.4239 9.77147 14.4236 9.703 14.4233H9.70273H9.70247C8.92549 14.4203 8.32587 14.418 8.32587 14.8179C8.32587 15.2531 9.11906 16 9.91225 16ZM13.931 5.40241C13.7455 5.2839 13.4993 5.33727 13.3802 5.52182C13.261 5.7064 13.3147 5.95115 13.5003 6.06965C14.6136 6.78064 14.938 8.26097 14.2232 9.36831C14.104 9.55289 14.1576 9.79767 14.3432 9.91616C14.5324 10.037 14.7797 9.97383 14.894 9.79675C15.8471 8.32027 15.4146 6.3465 13.931 5.40241ZM15.6898 10.7759C15.8665 10.8888 16.1097 10.8483 16.2405 10.6565C17.6701 8.4418 17.0222 5.48505 14.7956 4.06306C14.6099 3.94456 14.3639 3.99791 14.2448 4.18247C14.1256 4.36704 14.1793 4.61182 14.3649 4.73031C16.2204 5.9153 16.761 8.38252 15.5689 10.2242C15.4497 10.4088 15.5042 10.6574 15.6898 10.7759Z" fill="#A5B7C0" class="primary"/>
</svg>
