<svg width="20" height="20" viewBox="0 0 20 20" fill="none" xmlns="http://www.w3.org/2000/svg">
<path fill-rule="evenodd" clip-rule="evenodd" d="M7 3H2L2 6H7V3ZM2 2C1.44772 2 1 2.44772 1 3V6C1 6.55228 1.44772 7 2 7H4V16.9996H5V7H7C7.55228 7 8 6.55228 8 6V3C8 2.44772 7.55228 2 7 2H2ZM7.50007 17.5C7.50007 17.7761 7.72393 18 8.00007 18H14.0001C14.2762 18 14.5001 17.7761 14.5001 17.5C14.5001 17.2239 14.2762 17 14.0001 17H11.5V14L12 14H17.5C18.3284 14 19 13.3284 19 12.5V3.5C19 2.67157 18.3284 2 17.5 2H9.50001V3H17.5C17.7761 3 18 3.22386 18 3.5V12.5C18 12.7761 17.7761 13 17.5 13H12H6.50001V14L10.5 14V17H8.00007C7.72393 17 7.50007 17.2239 7.50007 17.5Z" fill="#A5B7C0" class="primary"/>
</svg>
