<svg width="20" height="20" viewBox="0 0 20 20" fill="none" xmlns="http://www.w3.org/2000/svg">
<path d="M15.6568 4.34316C14.1458 2.83216 12.1369 2 9.99997 2C7.86306 2 5.85416 2.83216 4.34313 4.34316C2.83216 5.85416 2 7.86312 2 10C2 12.1369 2.83216 14.1458 4.34316 15.6569C5.85416 17.1678 7.86312 18 10 18C11.3256 18 12.639 17.6689 13.7981 17.0426C14.0319 16.9162 14.1191 16.6242 13.9927 16.3903C13.8664 16.1565 13.5744 16.0694 13.3405 16.1958C12.3215 16.7464 11.1663 17.0374 10 17.0374C6.11953 17.0374 2.96253 13.8805 2.96253 10C2.96253 6.11953 6.11953 2.96256 9.99997 2.96256C13.8804 2.96256 17.0374 6.11956 17.0374 10C17.0374 10.9184 16.8143 12.0111 16.6141 12.4175C16.4365 12.7778 15.9335 13.2852 15.371 13.2852C14.6429 13.2852 14.0505 12.6929 14.0505 11.9648V6.89012C14.0505 6.62434 13.835 6.40884 13.5692 6.40884C13.3034 6.40884 13.0879 6.62431 13.0879 6.89012V7.38188C12.3444 6.50622 11.2361 5.94947 9.99997 5.94947C7.76653 5.94947 5.94944 7.76653 5.94944 10C5.94944 12.2334 7.76647 14.0505 9.99997 14.0505C11.2762 14.0505 12.4163 13.4571 13.1592 12.5317C13.412 13.5172 14.3077 14.2478 15.3709 14.2478C16.2994 14.2478 17.1335 13.541 17.4775 12.8429C17.7705 12.2484 17.9999 10.9997 17.9999 10C18 7.86313 17.1678 5.85416 15.6568 4.34316ZM9.99997 13.088C8.29728 13.088 6.912 11.7027 6.912 10C6.912 8.29728 8.29725 6.91203 9.99997 6.91203C11.7027 6.91203 13.0879 8.29728 13.0879 10C13.0879 11.7027 11.7027 13.088 9.99997 13.088Z" fill="#A5B7C0" class="primary"/>
</svg>
