<svg width="20" height="20" viewBox="0 0 20 20" fill="none" xmlns="http://www.w3.org/2000/svg">
<path fill-rule="evenodd" clip-rule="evenodd" d="M10.7335 9.75699C11.5213 10.6319 12 11.7855 12 13.0498C12 15.7837 9.76142 18 7 18C4.23858 18 2 15.7837 2 13.0498C2 10.3158 4.23858 8.09954 7 8.09954C8.12218 8.09954 9.15801 8.46554 9.99235 9.08355L17.0542 2.13908C17.2511 1.94546 17.5648 1.95094 17.7548 2.15131C17.9448 2.35168 17.9392 2.67107 17.7423 2.86469L16.3508 4.23308L16.3628 4.24576L17.7192 5.67605C18.0993 6.0768 18.0881 6.71558 17.6943 7.10282L15.5798 9.18222C15.186 9.56946 14.5587 9.55851 14.1786 9.15777L12.8223 7.72748L12.8102 7.71479L10.7335 9.75699ZM15.6498 4.94692L13.5353 7.02632L14.8917 8.45661L17.0062 6.37721L15.6498 4.94692ZM7 17C9.21859 17 11 15.222 11 13.0498C11 10.8775 9.21859 9.09954 7 9.09954C4.78141 9.09954 3 10.8775 3 13.0498C3 15.222 4.78141 17 7 17Z" fill="#A5B7C0" class="primary"/>
</svg>
