<svg width="16" height="16" viewBox="0 0 16 16" fill="none" xmlns="http://www.w3.org/2000/svg">
<path fill-rule="evenodd" clip-rule="evenodd" d="M14.831 1.7668L10.2455 2.22796L11.0363 3.47847L7.97369 5.31605L2.26828 2.46334L1.73163 3.53666L7.73163 6.53666L8.02622 6.68396L8.30865 6.5145L11.6779 4.49298L12.4486 5.71188L14.831 1.7668ZM7.99995 10C6.9035 10 5.90673 10.2826 5.09837 10.7468L5.63856 11.5786C5.93935 12.0418 5.80771 12.6611 5.34452 12.9619L4.08652 13.7789C3.39174 14.2301 2.46275 14.0326 2.01155 13.3378L0.922276 11.6605C0.771878 11.4289 0.837699 11.1192 1.06929 10.9688L4.00464 9.06258L4.00777 9.0674C5.15081 8.38791 6.53183 8 7.99995 8C9.46785 8 10.8487 8.3878 11.9916 9.06709L11.9953 9.06144L14.9306 10.9677C15.1622 11.1181 15.228 11.4277 15.0776 11.6593L13.9884 13.3367C13.5372 14.0315 12.6082 14.2289 11.9134 13.7777L10.6554 12.9608C10.1922 12.66 10.0606 12.0406 10.3614 11.5775L10.901 10.7465C10.0927 10.2825 9.09617 10 7.99995 10Z" fill="#C22626"/>
</svg>
