<?xml version="1.0" encoding="utf-8"?>
<!-- Generator: Adobe Illustrator 23.0.1, SVG Export Plug-In . SVG Version: 6.00 Build 0)  -->
<svg version="1.1" id="Layer_10" xmlns="http://www.w3.org/2000/svg" xmlns:xlink="http://www.w3.org/1999/xlink" x="0px" y="0px"
	 viewBox="0 0 20 20" style="enable-background:new 0 0 20 20;" xml:space="preserve">
<style type="text/css">
	.st0{opacity:0.6;fill:#A5B7C0;}
	.st1{opacity:0.3;fill:#A5B7C0;}
	.st2{fill:#A5B7C0;}
</style>
<path class="st0" d="M5.6,19c-0.2,0-0.5-0.2-0.5-0.4C5,17.4,5.3,16.3,6,15.4l1-1.2c-0.1-0.1-0.3-0.1-0.4-0.2C4.7,13,4,10.5,5.1,8.6
	l1.2-2c0.7-1.2,1.6-2.1,2.8-2.7C9,3.6,9,3.3,9,3c0-0.5,0.1-1.1,0.3-1.7C9.4,1.1,9.7,0.9,9.9,1c0.3,0.1,0.4,0.4,0.3,0.6
	C10.1,2.1,10,2.6,10,3c0,0.3,0,0.6,0.1,1c0.1,0.2-0.1,0.5-0.3,0.6L9.7,4.7c-0.1,0-0.1,0-0.2,0.1c-1,0.6-1.9,1.4-2.5,2.4L6,9.1
	c-0.8,1.4-0.3,3.3,1.1,4.1c0.2,0.1,0.5,0.2,0.8,0.3c0.2,0,0.3,0.2,0.4,0.3c0.1,0.2,0,0.3-0.1,0.5l-1.5,1.8c-0.5,0.7-0.8,1.5-0.6,2.3
	C6.2,18.7,6,19,5.6,19C5.7,19,5.6,19,5.6,19z"/>
<path class="st1" d="M2.6,19c-0.3,0-0.5-0.2-0.5-0.5c-0.1-1.3,0.2-2.7,0.8-3.8c-1.6-2.2-1.8-5.2-0.4-7.6l1.2-2c0.6-1,1.4-2,2.4-2.8
	c0-0.3,0.1-0.7,0.1-0.9C6.2,1.1,6.5,1,6.8,1C7,1.1,7.2,1.3,7.1,1.6C7.1,1.9,7,2.2,7,2.6C7,2.8,6.9,2.9,6.8,3c-1,0.7-1.7,1.6-2.3,2.6
	l-1.2,2c-1.2,2.1-1,4.8,0.5,6.7c0.1,0.2,0.1,0.4,0,0.6C3.3,16,3,17.2,3.1,18.5C3.1,18.7,2.9,19,2.6,19C2.6,19,2.6,19,2.6,19z"/>
<path class="st2" d="M12.3,15.6c0.1-0.1,0.1-0.2,0.1-0.2c-0.7-0.7-1.4-1.4-1.6-1.6c0,0,0,0,0,0l-0.2,0.8l-2.3,2.8
	C8,17.7,8,18.1,8.2,18.5c0.1,0.1,0.1,0.2,0.2,0.3C8.6,18.9,8.8,19,9.1,19c0.3,0,0.6-0.1,0.8-0.4l0.1-0.1L12.3,15.6z"/>
<path class="st2" d="M17,17.7L17,17.7L16,14.2c0-0.2-0.1-0.3-0.2-0.4c-0.1-0.1-1.5-1.6-2.4-2.4c0,0,0,0,0-0.1l1-2.7l0.6,1.3
	c0.1,0.1,0.2,0.3,0.3,0.4l0,0l2,1.5c0.2,0.1,0.4,0.2,0.6,0.2c0.3,0,0.6-0.1,0.8-0.4c0.3-0.4,0.2-1.1-0.2-1.4l-1.8-1.4l-0.5-0.9
	l-0.2-0.4c-0.2-0.9-1-1.5-1.9-1.5H14h-1h-0.5c-0.7,0-1.4,0.2-2,0.5C9.8,6.9,9.3,7.4,8.9,8.1l-1.2,2c-0.3,0.5-0.1,1.1,0.4,1.4
	c0.5,0.3,1.1,0.1,1.4-0.4c0,0,0,0,0,0l1.2-2c0.2-0.4,0.5-0.7,0.9-0.8c-0.2,0.5-0.3,1-0.5,1.5c-0.3,1.1,0,2.3,0.7,2.9
	c0.5,0.4,1.7,1.7,2.4,2.4l0.9,3.3v0c0,0.1,0.1,0.2,0.1,0.2c0.2,0.3,0.5,0.5,0.9,0.5c0.1,0,0.2,0,0.3,0c0.3-0.1,0.5-0.2,0.6-0.5
	C17,18.3,17,18,17,17.7z"/>
<path class="st2" d="M12,3c0,0.6,0.3,1.2,0.7,1.5C13.1,4.8,13.5,5,14,5c0.4,0,0.7-0.1,1-0.3c0.6-0.3,1-1,1-1.7
	c0-0.6-0.3-1.1-0.7-1.5C15,1.2,14.5,1,14,1s-1,0.2-1.3,0.5C12.3,1.9,12,2.4,12,3z"/>
</svg>
