<svg width="20" height="20" viewBox="0 0 20 20" fill="none" xmlns="http://www.w3.org/2000/svg">
<path fill-rule="evenodd" clip-rule="evenodd" d="M2.5 3C2.22386 3 2 3.22386 2 3.5V6.5C2 6.77614 2.22386 7 2.5 7H17.5C17.7761 7 18 6.77614 18 6.5V3.5C18 3.22386 17.7761 3 17.5 3H2.5ZM6 4H3V5H6V4ZM2.5 8C2.22386 8 2 8.22386 2 8.5V11.5C2 11.7761 2.22386 12 2.5 12H17.5C17.7761 12 18 11.7761 18 11.5V8.5C18 8.22386 17.7761 8 17.5 8H2.5ZM6 9H3V10H6V9ZM2 13.5C2 13.2239 2.22386 13 2.5 13H17.5C17.7761 13 18 13.2239 18 13.5V16.5C18 16.7761 17.7761 17 17.5 17H2.5C2.22386 17 2 16.7761 2 16.5V13.5ZM3 14H6V15H3V14Z" fill="#A5B7C0" class="primary"/>
</svg>
