<svg width="20" height="20" viewBox="0 0 20 20" fill="none" xmlns="http://www.w3.org/2000/svg">
<path fill-rule="evenodd" clip-rule="evenodd" d="M14.375 10C14.375 11.2105 14.1103 12.3591 13.6356 13.3912L14.7072 14.0506C15.2955 12.8245 15.625 11.4507 15.625 10C15.625 8.3996 15.224 6.89287 14.5169 5.5748L13.4813 6.29176C14.0526 7.4035 14.375 8.6641 14.375 10ZM13.125 10C13.125 8.93771 12.8305 7.94419 12.3187 7.09663L11.2883 7.81004C11.6614 8.4541 11.875 9.20211 11.875 10C11.875 10.7238 11.6992 11.4066 11.388 12.008L12.455 12.6646C12.8824 11.8715 13.125 10.9641 13.125 10ZM8.35957 5.81235L5.46875 8.125H3.75C3.40482 8.125 3.125 8.40482 3.125 8.75V10V11.25C3.125 11.5952 3.40482 11.875 3.75 11.875H5.46875L8.35957 14.1877C8.76879 14.515 9.375 14.2237 9.375 13.6996V11.25V8.75V6.30039C9.375 5.77632 8.76879 5.48497 8.35957 5.81235Z" fill="#A5B7C0" class="primary"/>
</svg>
