<svg width="18" height="18" viewBox="0 0 18 18" fill="none" xmlns="http://www.w3.org/2000/svg">
<g id="stopwatch">
<path id="Union" fill-rule="evenodd" clip-rule="evenodd" d="M6.81264 1.125C6.81264 0.848858 7.0365 0.625 7.31264 0.625H10.6876C10.9638 0.625 11.1876 0.848858 11.1876 1.125C11.1876 1.40114 10.9638 1.625 10.6876 1.625H9.46924V3.95523C10.5041 4.02627 11.4748 4.33056 12.3293 4.81593L14.0193 2.82771C14.1981 2.6173 14.5137 2.59172 14.7241 2.77056C14.9345 2.9494 14.9601 3.26495 14.7812 3.47536L13.1649 5.37685C14.739 6.61261 15.7501 8.53281 15.7501 10.6892C15.7501 14.4171 12.7281 17.4392 9.00014 17.4392C5.27222 17.4392 2.25014 14.4171 2.25014 10.6892C2.25014 8.50196 3.29043 6.55772 4.90322 5.32425L3.33167 3.47536C3.15282 3.26495 3.17841 2.9494 3.38881 2.77056C3.59922 2.59172 3.91476 2.6173 4.09361 2.82771L5.7473 4.77323C6.56589 4.32218 7.48813 4.03609 8.46924 3.95975V1.625H7.31264C7.0365 1.625 6.81264 1.40114 6.81264 1.125ZM12.7336 9.05861C12.8265 9.31867 12.691 9.60478 12.4309 9.69765L9.28092 10.8227C9.02086 10.9155 8.73475 10.78 8.64188 10.5199C8.549 10.2599 8.68452 9.97379 8.94458 9.88091L12.0946 8.75591C12.3546 8.66303 12.6407 8.79856 12.7336 9.05861ZM14.7501 10.6892C14.7501 13.8648 12.1758 16.4392 9.00014 16.4392C5.8245 16.4392 3.25014 13.8648 3.25014 10.6892C3.25014 7.51355 5.8245 4.93918 9.00014 4.93918C12.1758 4.93918 14.7501 7.51355 14.7501 10.6892Z" fill="#A5B7C0" class="primary"/>
</g>
</svg>
