<svg width="20" height="20" viewBox="0 0 20 20" fill="none" xmlns="http://www.w3.org/2000/svg">
<path fill-rule="evenodd" clip-rule="evenodd" d="M14.6842 3H5.31584C4.82227 3 4.40252 3.36011 4.32747 3.84794L3.0733 12H16.9267L15.6725 3.84794C15.5975 3.36011 15.1777 3 14.6842 3ZM17 13H3V16C3 16.5523 3.44772 17 4 17H16C16.5523 17 17 16.5523 17 16V13ZM5.31584 2C4.3287 2 3.4892 2.72022 3.33909 3.69589L2.01163 12.3244C2.00389 12.3747 2 12.4256 2 12.4765V16C2 17.1046 2.89543 18 4 18H16C17.1046 18 18 17.1046 18 16V12.4765C18 12.4256 17.9961 12.3747 17.9884 12.3244L16.6609 3.69588C16.5108 2.72022 15.6713 2 14.6842 2H5.31584ZM12 7.50002C12 8.32845 11.1046 9.00002 10 9.00002C8.89543 9.00002 8 8.32845 8 7.50002C8 6.6716 8.89543 6.00002 10 6.00002C11.1046 6.00002 12 6.6716 12 7.50002Z" fill="#A5B7C0" class="primary"/>
</svg>
