<?xml version="1.0" encoding="utf-8"?>
<!-- Generator: Adobe Illustrator 23.0.4, SVG Export Plug-In . SVG Version: 6.00 Build 0)  -->
<svg version="1.1" id="Layer_3" xmlns="http://www.w3.org/2000/svg" xmlns:xlink="http://www.w3.org/1999/xlink" x="0px" y="0px"
	 width="20" height="20" viewBox="0 0 40 40" style="enable-background:new 0 0 40 40;" xml:space="preserve">
<path class="primary" fill="#A5B7C0" d="M31.8,22.1c-1,5.7-6,10-12.1,9.9C13.5,31.9,8.3,26.8,8,20.5C7.7,13.7,13.2,8,20,8c1.8,0,3.5,0.4,5,1.1l3-3
	c-2.7-1.5-5.9-2.4-9.3-2.1C10.8,4.7,4.3,11.3,4,19.3C3.6,28.5,10.9,36,20,36c8.8,0,16-7.2,16-16c0-0.7-0.1-1.3-0.1-2L31.8,22.1z"/>
<polygon class="primary" fill="#A5B7C0" points="20,26.8 11.6,18.4 14.4,15.6 20,21.2 33.6,7.6 36.4,10.4 "/>
</svg>
