<svg width="16" height="16" viewBox="0 0 16 16" fill="none" xmlns="http://www.w3.org/2000/svg">
<path fill-rule="evenodd" clip-rule="evenodd" d="M8.4001 2.8L11.6001 3.2H13.2001L14.4001 4.864V13.6H1.6001V4.864L2.8001 3.2H4.4001L7.6001 2.8L7.5429 3.2H8.4573L8.4001 2.8ZM10.2913 7.27868C9.11969 6.10711 7.2202 6.10711 6.04863 7.27868C5.7654 7.56191 5.54498 7.89386 5.39544 8.25725C5.34684 8.37536 5.30591 8.49637 5.27283 8.61955L6.43175 8.93082L6.45313 8.85748C6.46842 8.80891 6.48578 8.761 6.50516 8.71389C6.59464 8.49646 6.72652 8.29785 6.89715 8.12721C7.6001 7.42427 8.73979 7.42427 9.44274 8.12721L8.80634 8.76361L11.1398 8.97574L10.9277 6.64229L10.2913 7.27868ZM8.5145 3.6H7.4857L7.4001 4.2L3.2001 4.8H12.8001L8.6001 4.2L8.5145 3.6ZM6.10882 11.5799C7.28438 12.6926 9.13955 12.673 10.2913 11.5213C10.6575 11.1551 10.9179 10.7081 11.0562 10.2197L9.90165 9.8927L9.87463 9.97967C9.78704 10.2382 9.64114 10.4744 9.44274 10.6728C8.73979 11.3757 7.6001 11.3757 6.89715 10.6728L7.53355 10.0364L5.2001 9.82427L5.41223 12.1577L6.04863 11.5213L6.10882 11.5799Z" fill="#A5B7C0" class="primary"/>
</svg>
