<?xml version="1.0" encoding="UTF-8"?>
<svg width="40px" height="40px" viewBox="0 0 40 40" version="1.1" xmlns="http://www.w3.org/2000/svg" xmlns:xlink="http://www.w3.org/1999/xlink">
    <title>update_auto</title>
    <g id="update_auto" stroke="none" stroke-width="1" fill="none" fill-rule="evenodd">
        <path d="M21,7 L29,8 L33,8 L36,12.16 L36,34 L4,34 L4,12.16 L7,8 L11,8 L19,7 L18.857,8 L21.143,8 L21,7 Z M22.5,28 L17.5,28 L17.5,31 L22.5,31 L22.5,28 Z M22.5,24 L17.5,24 L17.5,27 L22.5,27 L22.5,24 Z M20,15 L13,23 L27,23 L20,15 Z M21.286,9 L18.714,9 L18.5,10.5 L8,12 L32,12 L21.5,10.5 L21.286,9 Z" id="Combined-Shape" fill="#A5B7C0" class="primary"></path>
    </g>
</svg>