<svg width="17" height="16" viewBox="0 0 17 16" fill="none" xmlns="http://www.w3.org/2000/svg">
<path fill-rule="evenodd" clip-rule="evenodd" d="M8.91719 2.8L12.1172 3.2H13.7172L14.9172 4.864V13.6H2.11719V4.864L3.31719 3.2H4.91719L8.11719 2.8L8.05999 3.2H8.97439L8.91719 2.8ZM10.8084 7.27868C9.63678 6.10711 7.73729 6.10711 6.56572 7.27868C6.28249 7.56191 6.06207 7.89386 5.91253 8.25725C5.86393 8.37536 5.823 8.49637 5.78992 8.61955L6.94884 8.93082L6.97022 8.85748C6.98551 8.80891 7.00287 8.761 7.02225 8.71389C7.11173 8.49646 7.24361 8.29785 7.41424 8.12721C8.11719 7.42427 9.25688 7.42427 9.95983 8.12721L9.32343 8.76361L11.6569 8.97574L11.4448 6.64229L10.8084 7.27868ZM9.03159 3.6H8.00279L7.91719 4.2L3.71719 4.8H13.3172L9.11719 4.2L9.03159 3.6ZM6.62591 11.5799C7.80147 12.6926 9.65664 12.673 10.8084 11.5213C11.1746 11.1551 11.435 10.7081 11.5733 10.2197L10.4187 9.8927L10.3917 9.97967C10.3041 10.2382 10.1582 10.4744 9.95983 10.6728C9.25688 11.3757 8.11719 11.3757 7.41424 10.6728L8.05064 10.0364L5.71719 9.82427L5.92932 12.1577L6.56572 11.5213L6.62591 11.5799Z" fill="#E1A700"/>
</svg>
