<?xml version="1.0" encoding="UTF-8" standalone="no"?>
<!-- Created with Inkscape (http://www.inkscape.org/) -->

<svg
   xmlns:dc="http://purl.org/dc/elements/1.1/"
   xmlns:cc="http://creativecommons.org/ns#"
   xmlns:rdf="http://www.w3.org/1999/02/22-rdf-syntax-ns#"
   xmlns:svg="http://www.w3.org/2000/svg"
   xmlns="http://www.w3.org/2000/svg"
   version="1.1"
   width="18"
   height="18"
   id="svg2"
   xml:space="preserve"><metadata
     id="metadata8"><rdf:RDF><cc:Work
         rdf:about=""><dc:format>image/svg+xml</dc:format><dc:type
           rdf:resource="http://purl.org/dc/dcmitype/StillImage" /><dc:title></dc:title></cc:Work></rdf:RDF></metadata><defs
     id="defs6"><clipPath
       id="clipPath16"><path
         d="M 0,256 256,256 256,0 0,0 0,256 z"
         id="path18" /></clipPath></defs><path
     d="m 13.949747,4.0502525 c -2.73367,-2.73367 -7.1658245,-2.73367 -9.8994945,0 -2.7336698,2.7336699 -2.73367,7.1658245 0,9.8994945 2.7336699,2.73367 7.1658255,2.73367 9.8994945,0 2.73367,-2.73367 2.73367,-7.1658246 0,-9.8994945 z M 12.49134,5.3760777 a 1.0001,1.0001 0 0 1 0.04419,1.502602 L 10.414214,9 l 2.12132,2.12132 A 1.0001,1.0001 0 1 1 11.12132,12.535534 L 9,10.414214 6.8786797,12.535534 A 1.0001,1.0001 0 1 1 5.4644661,11.12132 L 7.5857864,9 5.4644661,6.8786797 A 1.0001,1.0001 0 0 1 5.3318836,6.7460971 1.0043849,1.0043849 0 0 1 6.8786797,5.4644661 L 9,7.5857864 11.12132,5.4644661 a 1.0001,1.0001 0 0 1 1.259534,-0.1546796 1.0001,1.0001 0 0 1 0.110486,0.066291 z"
     id="path2989"
     style="fill:#212a2f;fill-opacity:1;stroke:none" /></svg>