<?xml version="1.0" encoding="UTF-8" standalone="no"?>
<!-- Created with Inkscape (http://www.inkscape.org/) -->

<svg
   xmlns:dc="http://purl.org/dc/elements/1.1/"
   xmlns:cc="http://creativecommons.org/ns#"
   xmlns:rdf="http://www.w3.org/1999/02/22-rdf-syntax-ns#"
   xmlns:svg="http://www.w3.org/2000/svg"
   xmlns="http://www.w3.org/2000/svg"
   version="1.1"
   width="18"
   height="18"
   id="svg2"
   xml:space="preserve"><metadata
     id="metadata8"><rdf:RDF><cc:Work
         rdf:about=""><dc:format>image/svg+xml</dc:format><dc:type
           rdf:resource="http://purl.org/dc/dcmitype/StillImage" /><dc:title></dc:title></cc:Work></rdf:RDF></metadata><defs
     id="defs6"><clipPath
       id="clipPath16"><path
         d="M 0,256 256,256 256,0 0,0 0,256 z"
         id="path18" /></clipPath></defs><path
     d="m 16.295047,5.999959 -10.577933,0 c -0.5077698,0 -0.9994541,0.2891749 -1.1759243,0.9477701 L 3.1259578,12.361551 c -0.1366583,0.510015 0.2486924,0.627616 0.6856928,0.638231 l 10.5892404,0 c 0.513387,0.01046 1.032324,-0.35655 1.190618,-0.947308 l 1.389227,-5.4105144 c 0.09613,-0.3587444 -0.172914,-0.62876 -0.685692,-0.6420006"
     id="path22"
     style="fill:#212a2f;fill-opacity:1;fill-rule:nonzero;stroke:none" /><path
     d="m 5.634053,4.99996 8.346688,0 c -0.09041,-0.6420138 -0.5,-1.0000012 -1,-1.0000012 l -7.0000001,0 c -0.059924,-0.6348288 -0.5,-0.9999988 -1,-0.9999988 l -3.2838972,0 C 1.2476126,3.008835 0.89993164,3.4353688 0.99133718,3.7765 L 2.3309164,11.714782 3.6527638,6.499959 C 3.9312727,5.46055 4.6340285,4.99996 5.634053,4.99996"
     id="path26"
     style="fill:#2ca0da;fill-opacity:1;fill-rule:nonzero;stroke:none" /></svg>