<?xml version="1.0" encoding="utf-8"?>
<!-- Generator: Adobe Illustrator 16.0.0, SVG Export Plug-In . SVG Version: 6.00 Build 0)  -->
<!DOCTYPE svg PUBLIC "-//W3C//DTD SVG 1.1//EN" "http://www.w3.org/Graphics/SVG/1.1/DTD/svg11.dtd">
<svg version="1.1"
	 id="svg2" xmlns:svg="http://www.w3.org/2000/svg" xmlns:rdf="http://www.w3.org/1999/02/22-rdf-syntax-ns#" xmlns:cc="http://creativecommons.org/ns#" xmlns:dc="http://purl.org/dc/elements/1.1/"
	 xmlns="http://www.w3.org/2000/svg" xmlns:xlink="http://www.w3.org/1999/xlink" x="0px" y="0px" width="18px" height="18px"
	 viewBox="-2.5 21.5 18 18" enable-background="new -2.5 21.5 18 18" xml:space="preserve">
<polygon fill="#2CA0DA" points="2.5,34.5 7.5,34.5 9.5,31.5 2.5,31.5 2.5,28 -2.5,33 2.5,38 "/>
<polygon fill="#212A2F" points="10.5,26.5 5.5,26.5 3.5,29.5 10.5,29.5 10.5,33 15.5,28 10.5,23 "/>
<g id="g3002">
	<path id="path2990" fill="#BE3938" d="M13.682,37.682c-1.756,1.758-4.604,1.76-6.363,0.002C5.561,35.928,5.56,33.08,7.317,31.32
		c0,0,0.001-0.002,0.002-0.002c1.758-1.758,4.607-1.756,6.363,0.002C15.438,33.077,15.438,35.925,13.682,37.682z"/>
	
		<rect id="rect3760" x="9.498" y="31" transform="matrix(-0.7074 -0.7069 0.7069 -0.7074 -6.4621 66.3246)" fill="#FFFFFF" width="2" height="6.999"/>
	
		<rect id="rect3760-5" x="9.5" y="31" transform="matrix(0.7071 -0.7071 0.7071 0.7071 -21.3198 17.5294)" fill="#FFFFFF" width="2" height="6.999"/>
</g>
</svg>
