<?xml version="1.0" encoding="utf-8"?>
<!-- Generator: Adobe Illustrator 16.0.0, SVG Export Plug-In . SVG Version: 6.00 Build 0)  -->
<!DOCTYPE svg PUBLIC "-//W3C//DTD SVG 1.1//EN" "http://www.w3.org/Graphics/SVG/1.1/DTD/svg11.dtd">
<svg version="1.1"
	 id="svg2" xmlns:svg="http://www.w3.org/2000/svg" xmlns:rdf="http://www.w3.org/1999/02/22-rdf-syntax-ns#" xmlns:cc="http://creativecommons.org/ns#" xmlns:dc="http://purl.org/dc/elements/1.1/"
	 xmlns="http://www.w3.org/2000/svg" xmlns:xlink="http://www.w3.org/1999/xlink" x="0px" y="0px" width="18px" height="18px"
	 viewBox="-2.5 21.5 18 18" enable-background="new -2.5 21.5 18 18" xml:space="preserve">
<polygon fill="#2CA0DA" points="2.5,34.5 7.5,34.5 9.5,31.5 2.5,31.5 2.5,28 -2.5,33 2.5,38 "/>
<polygon fill="#212A2F" points="10.5,26.5 5.5,26.5 3.5,29.5 10.5,29.5 10.5,33 15.5,28 10.5,23 "/>
<path fill="#FFFFFF" d="M14.598,31.843c-0.037-0.981-0.238-2.36-1.213-3.349C12.669,27.77,11.698,27.4,10.5,27.4
	s-2.168,0.367-2.885,1.095c-0.975,0.985-1.174,2.366-1.213,3.348C5.855,32.199,5.5,32.813,5.5,33.5v4c0,1.104,0.897,2,2,2h6
	c1.104,0,2-0.896,2-2v-4C15.5,32.813,15.146,32.199,14.598,31.843z"/>
<path fill="#BE3938" d="M13.605,32.521c0.006-1.098-0.065-2.446-0.935-3.324C12.15,28.668,11.42,28.4,10.5,28.4
	s-1.65,0.268-2.173,0.797c-0.867,0.878-0.938,2.229-0.935,3.324C6.894,32.577,6.5,32.984,6.5,33.5v4c0,0.553,0.448,1,1,1h6
	c0.553,0,1-0.447,1-1v-4C14.5,32.984,14.105,32.577,13.605,32.521z M10.5,29.6c0.596,0,1.025,0.146,1.318,0.44
	c0.535,0.543,0.592,1.584,0.589,2.46H8.593c-0.003-0.876,0.054-1.917,0.589-2.46C9.475,29.744,9.904,29.6,10.5,29.6z"/>
</svg>
