<?xml version="1.0" encoding="utf-8"?>
<!-- Generator: Adobe Illustrator 16.0.0, SVG Export Plug-In . SVG Version: 6.00 Build 0)  -->
<!DOCTYPE svg PUBLIC "-//W3C//DTD SVG 1.1//EN" "http://www.w3.org/Graphics/SVG/1.1/DTD/svg11.dtd">
<svg version="1.1"
	 id="svg2" xmlns:dc="http://purl.org/dc/elements/1.1/" xmlns:cc="http://creativecommons.org/ns#" xmlns:rdf="http://www.w3.org/1999/02/22-rdf-syntax-ns#" xmlns:svg="http://www.w3.org/2000/svg"
	 xmlns="http://www.w3.org/2000/svg" xmlns:xlink="http://www.w3.org/1999/xlink" x="0px" y="0px" width="18px" height="18px"
	 viewBox="0 0 18 18" enable-background="new 0 0 18 18" xml:space="preserve">
<g id="rect4155">
	<rect x="2" y="3" fill="#FFFFFF" width="14" height="12"/>
	<path fill="#212A2F" d="M16,16H2c-0.552,0-1-0.447-1-1V3c0-0.552,0.448-1,1-1h14c0.553,0,1,0.448,1,1v12C17,15.553,16.553,16,16,16
		z M3,14h12V4H3V14z"/>
</g>
<path id="path22" fill="#2CA0DA" d="M7.144,5.281C6.334,4.747,6,4.995,6,5.853v6.29C6,13,6.2,13.26,7.144,12.715l4.574-2.859
	c0.772-0.508,0.746-1.225,0-1.715L7.144,5.281z"/>
<g id="g3002" transform="translate(3.5378572e-4,1034.3618)">
	<path id="path2990" fill="#BE3938" d="M16.181-1018.18c-1.756,1.758-4.605,1.759-6.363,0.002s-1.759-4.605-0.002-6.364
		c0-0.001,0.002-0.001,0.002-0.002c1.758-1.756,4.607-1.756,6.363,0.002C17.938-1022.786,17.938-1019.938,16.181-1018.18z"/>
	
		<rect id="rect3760" x="11.999" y="-1024.862" transform="matrix(-0.7069 -0.7074 0.7074 -0.7069 744.6501 -1734.1299)" fill="#FFFFFF" width="2" height="6.999"/>
	
		<rect id="rect3760-5" x="12" y="-1024.861" transform="matrix(0.7071 -0.7071 0.7071 0.7071 726.0193 -289.9578)" fill="#FFFFFF" width="2" height="6.999"/>
</g>
</svg>
