<?xml version="1.0" encoding="UTF-8" standalone="no"?>
<!-- Created with Inkscape (http://www.inkscape.org/) -->

<svg
   xmlns:dc="http://purl.org/dc/elements/1.1/"
   xmlns:cc="http://creativecommons.org/ns#"
   xmlns:rdf="http://www.w3.org/1999/02/22-rdf-syntax-ns#"
   xmlns:svg="http://www.w3.org/2000/svg"
   xmlns="http://www.w3.org/2000/svg"
   version="1.1"
   width="18"
   height="18"
   id="svg2">
  <defs
     id="defs4" />
  <metadata
     id="metadata7">
    <rdf:RDF>
      <cc:Work
         rdf:about="">
        <dc:format>image/svg+xml</dc:format>
        <dc:type
           rdf:resource="http://purl.org/dc/dcmitype/StillImage" />
        <dc:title></dc:title>
      </cc:Work>
    </rdf:RDF>
  </metadata>
  <g
     transform="translate(0,-1034.3622)"
     id="layer1">
    <rect
       width="6"
       height="4.0000172"
       ry="0.5000174"
       x="1"
       y="1037.3622"
       id="rect2987-4"
       style="fill:#212a2f;fill-opacity:1;stroke:none" />
    <rect
       width="6"
       height="4.0000172"
       ry="0.5000174"
       x="8"
       y="1037.3622"
       id="rect2987-4-7"
       style="fill:#212a2f;fill-opacity:1;stroke:none" />
    <rect
       width="6"
       height="4.0000172"
       ry="0.5000174"
       x="1"
       y="1042.3622"
       id="rect2987-4-8"
       style="fill:#212a2f;fill-opacity:1;stroke:none" />
    <rect
       width="14"
       height="9.9999828"
       ry="1.0566038"
       x="3"
       y="1039.3622"
       id="rect2987"
       style="fill:#2ca0da;fill-opacity:1;stroke:none" />
    <g
       transform="translate(3.5378572e-4,1034.3618)"
       id="g3002">
      <path
         d="M 16.18198,16.18198 A 4.4999999,4.4999999 0 1 1 9.8180195,9.8180188 4.4999999,4.4999999 0 0 1 16.18198,16.18198 z"
         id="path2990"
         style="fill:#be3938;fill-opacity:1;stroke:none" />
      <rect
         width="2"
         height="7"
         ry="0"
         x="17.384775"
         y="-3.5000005"
         transform="matrix(0.70710678,0.70710678,-0.70710678,0.70710678,0,0)"
         id="rect3760"
         style="fill:#ffffff;fill-opacity:1;stroke:none" />
      <rect
         width="2"
         height="7"
         ry="0"
         x="-1.0000005"
         y="-21.884775"
         transform="matrix(-0.70710678,0.70710678,-0.70710678,-0.70710678,0,0)"
         id="rect3760-5"
         style="fill:#ffffff;fill-opacity:1;stroke:none" />
    </g>
  </g>
</svg>
