<?xml version="1.0" encoding="utf-8"?>
<!-- Generator: Adobe Illustrator 16.0.0, SVG Export Plug-In . SVG Version: 6.00 Build 0)  -->
<!DOCTYPE svg PUBLIC "-//W3C//DTD SVG 1.1//EN" "http://www.w3.org/Graphics/SVG/1.1/DTD/svg11.dtd">
<svg version="1.1"
	 id="svg2" xmlns:dc="http://purl.org/dc/elements/1.1/" xmlns:cc="http://creativecommons.org/ns#" xmlns:rdf="http://www.w3.org/1999/02/22-rdf-syntax-ns#" xmlns:svg="http://www.w3.org/2000/svg"
	 xmlns="http://www.w3.org/2000/svg" xmlns:xlink="http://www.w3.org/1999/xlink" x="0px" y="0px" width="18px" height="18px"
	 viewBox="-118.5 137.5 18 18" enable-background="new -118.5 137.5 18 18" xml:space="preserve">
<g>
	<circle fill="none" cx="-114.5" cy="146.5" r="1"/>
	<circle fill="none" cx="-114.5" cy="141.5" r="1"/>
	<circle fill="none" cx="-114.5" cy="151.5" r="1"/>
	<path fill="#212A2F" d="M-115.5,143.5h12c1.107,0,2-0.893,2-2s-0.893-2-2-2h-12c-1.108,0-2,0.893-2,2S-116.608,143.5-115.5,143.5z
		 M-114.5,140.5c0.552,0,1,0.447,1,1s-0.448,1-1,1s-1-0.447-1-1S-115.052,140.5-114.5,140.5z"/>
	<path fill="#212A2F" d="M-105.5,145.5c1.521,0,2.898,0.617,3.894,1.615c0.063-0.194,0.106-0.398,0.106-0.615c0-1.107-0.893-2-2-2
		h-12c-1.108,0-2,0.893-2,2s0.892,2,2,2h5.105C-109.483,146.72-107.635,145.5-105.5,145.5z M-114.5,147.5c-0.552,0-1-0.447-1-1
		s0.448-1,1-1s1,0.447,1,1S-113.948,147.5-114.5,147.5z"/>
	<path fill="#212A2F" d="M-110.788,149.5h-4.712c-1.108,0-2,0.893-2,2s0.892,2,2,2h5.105c-0.384-0.751-0.605-1.599-0.605-2.5
		C-111,150.479-110.923,149.978-110.788,149.5z M-114.5,152.5c-0.552,0-1-0.447-1-1s0.448-1,1-1s1,0.447,1,1
		S-113.948,152.5-114.5,152.5z"/>
</g>
<circle fill="#FD991F" cx="-105.5" cy="151" r="4.5"/>
<rect x="-106.5" y="147.5" fill="#212A2F" width="2" height="4"/>
<rect x="-106.5" y="152.5" fill="#212A2F" width="2" height="2"/>
</svg>
