<?xml version="1.0" encoding="UTF-8" standalone="no"?>
<!-- Created with Inkscape (http://www.inkscape.org/) -->

<svg
   xmlns:dc="http://purl.org/dc/elements/1.1/"
   xmlns:cc="http://creativecommons.org/ns#"
   xmlns:rdf="http://www.w3.org/1999/02/22-rdf-syntax-ns#"
   xmlns:svg="http://www.w3.org/2000/svg"
   xmlns="http://www.w3.org/2000/svg"
   version="1.1"
   width="18"
   height="18"
   id="svg2"
   xml:space="preserve"><metadata
     id="metadata8"><rdf:RDF><cc:Work
         rdf:about=""><dc:format>image/svg+xml</dc:format><dc:type
           rdf:resource="http://purl.org/dc/dcmitype/StillImage" /><dc:title></dc:title></cc:Work></rdf:RDF></metadata><defs
     id="defs6"><clipPath
       id="clipPath16"><path
         d="M 0,256 256,256 256,0 0,0 0,256 z"
         id="path18" /></clipPath></defs><g
     transform="matrix(1.25,0,0,-1.25,0,18)"
     id="g10"><path
       d="m 7.6,10.4 c -0.1992564,0.171098 -0.6207293,0.179271 -0.8000001,0 l -4,-3.5999999 C 2.4450384,6.5874568 2.4,6.2112004 2.4,6.0000001 L 2.4,2 C 2.4,1.7884305 2.5887997,1.6000001 2.7999999,1.6000001 l 2.4000001,0 c 0.2120002,0 0.3999999,0.1884304 0.3999999,0.3999999 l 0,3.6000001 c 0,0.2120003 0.1870767,0.4 0.4000001,0.4 l 2.3999999,0 C 8.6111387,6.0000001 8.8,5.8120004 8.8,5.6000001 L 8.8,2 C 8.8,1.7884305 8.9875116,1.5986635 9.2,1.6000001 l 2.416246,0.015199 C 11.827442,1.6165288 12,1.7884305 12,2 l 0,4.0000001 c 0,0.2113849 0.0034,0.4533336 -0.4,0.8 z"
       id="path22"
       style="fill:#212a2f;fill-opacity:1;fill-rule:nonzero;stroke:none" /><path
       d="M 1.6,8 7.2,12.8 12.8,8"
       id="path3025"
       style="fill:none;stroke:#2ca0da;stroke-width:1.60000002;stroke-linecap:round;stroke-linejoin:round;stroke-miterlimit:4;stroke-opacity:1;stroke-dasharray:none" /></g></svg>