<?xml version="1.0" encoding="UTF-8" standalone="no"?>
<!-- Created with Inkscape (http://www.inkscape.org/) -->

<svg
   xmlns:dc="http://purl.org/dc/elements/1.1/"
   xmlns:cc="http://creativecommons.org/ns#"
   xmlns:rdf="http://www.w3.org/1999/02/22-rdf-syntax-ns#"
   xmlns:svg="http://www.w3.org/2000/svg"
   xmlns="http://www.w3.org/2000/svg"
   version="1.1"
   width="18"
   height="18"
   id="svg2"
   xml:space="preserve"><metadata
     id="metadata8"><rdf:RDF><cc:Work
         rdf:about=""><dc:format>image/svg+xml</dc:format><dc:type
           rdf:resource="http://purl.org/dc/dcmitype/StillImage" /><dc:title></dc:title></cc:Work></rdf:RDF></metadata><defs
     id="defs6"><clipPath
       id="clipPath16"><path
         d="M 0,256 256,256 256,0 0,0 0,256 z"
         id="path18" /></clipPath></defs><g
     transform="matrix(1.25,0,0,-1.25,0,18)"
     id="g10"><path
       d="M 3,2 C 1.892,2 1,2.892 1,4 1,5.108 1.892,6 3,6 L 15,6 C 16.108,6 17,5.108 17,4 17,2.892 16.108,2 15,2 L 3,2 z M 4,3 C 4.5522847,3 5,3.4477153 5,4 5,4.5522847 4.5522847,5 4,5 3.4477153,5 3,4.5522847 3,4 3,3.4477153 3.4477153,3 4,3 z"
       transform="matrix(0.8,0,0,-0.8,0,14.4)"
       id="rect3784"
       style="fill:#212a2f;fill-opacity:1;stroke:none" /><path
       d="M 2.4,8.8 C 1.5136,8.8 0.8,8.0864 0.8,7.2 0.8,6.3136 1.5136,5.6 2.4,5.6 l 9.6,0 c 0.8864,0 1.6,0.7136 1.6,1.6 0,0.8864 -0.7136,1.6 -1.6,1.6 l -9.6,0 z M 3.2,8 C 3.6418278,8 4,7.641828 4,7.2 4,6.758172 3.6418278,6.4 3.2,6.4 2.7581722,6.4 2.4,6.758172 2.4,7.2 2.4,7.641828 2.7581722,8 3.2,8 z"
       id="rect3784-1"
       style="fill:#212a2f;fill-opacity:1;stroke:none" /><path
       d="M 2.4,4.8 C 1.5136,4.8 0.8,4.0864 0.8,3.2 0.8,2.3136 1.5136,1.6 2.4,1.6 l 9.6,0 c 0.8864,0 1.6,0.7136 1.6,1.6 0,0.8864 -0.7136,1.6 -1.6,1.6 l -9.6,0 z M 3.2,4 C 3.6418278,4 4,3.641828 4,3.2 4,2.758172 3.6418278,2.4 3.2,2.4 2.7581722,2.4 2.4,2.758172 2.4,3.2 2.4,3.641828 2.7581722,4 3.2,4 z"
       id="rect3784-8"
       style="fill:#212a2f;fill-opacity:1;stroke:none" /></g></svg>