<?xml version="1.0" encoding="utf-8"?>
<!-- Generator: Adobe Illustrator 16.0.0, SVG Export Plug-In . SVG Version: 6.00 Build 0)  -->
<!DOCTYPE svg PUBLIC "-//W3C//DTD SVG 1.1//EN" "http://www.w3.org/Graphics/SVG/1.1/DTD/svg11.dtd">
<svg version="1.1"
	 id="svg2" xmlns:dc="http://purl.org/dc/elements/1.1/" xmlns:cc="http://creativecommons.org/ns#" xmlns:rdf="http://www.w3.org/1999/02/22-rdf-syntax-ns#" xmlns:svg="http://www.w3.org/2000/svg"
	 xmlns="http://www.w3.org/2000/svg" xmlns:xlink="http://www.w3.org/1999/xlink" x="0px" y="0px" width="18px" height="18px"
	 viewBox="0 0 18 18" enable-background="new 0 0 18 18" xml:space="preserve">
<path id="rect3784-1" fill="#212A2F" d="M3,7C1.892,7,1,7.892,1,9c0,1.107,0.892,2,2,2h12V7H3z M4,8c0.552,0,1,0.448,1,1
	c0,0.553-0.448,1-1,1S3,9.553,3,9C3,8.448,3.448,8,4,8z"/>
<path id="rect3784-8" fill="#2CA0DA" d="M3,12c-1.108,0-2,0.893-2,2s0.892,2,2,2h12c1.107,0,2-0.893,2-2s-0.893-2-2-2H3z M4,13
	c0.552,0,1,0.447,1,1s-0.448,1-1,1s-1-0.447-1-1S3.448,13,4,13z"/>
<path fill="#FFFFFF" d="M17.098,10.343c-0.037-0.981-0.238-2.36-1.213-3.349C15.169,6.27,14.198,5.9,13,5.9
	s-2.168,0.367-2.885,1.095C9.14,7.98,8.941,9.361,8.902,10.343C8.355,10.699,8,11.313,8,12v4c0,1.104,0.897,2,2,2h6
	c1.104,0,2-0.896,2-2v-4C18,11.313,17.646,10.699,17.098,10.343z"/>
<path fill="#BE3938" d="M16.105,11.021c0.006-1.099-0.065-2.446-0.936-3.324C14.65,7.168,13.92,6.9,13,6.9s-1.65,0.268-2.173,0.797
	C9.96,8.575,9.889,9.926,9.893,11.021C9.394,11.077,9,11.484,9,12v4c0,0.553,0.448,1,1,1h6c0.553,0,1-0.447,1-1v-4
	C17,11.484,16.605,11.077,16.105,11.021z M13,8.1c0.596,0,1.025,0.146,1.318,0.44c0.535,0.543,0.592,1.584,0.589,2.46h-3.814
	c-0.003-0.876,0.054-1.917,0.589-2.46C11.975,8.244,12.404,8.1,13,8.1z"/>
<path id="rect3784" fill="#2CA0DA" d="M3,2C1.892,2,1,2.892,1,4s0.892,2,2,2h12c1.107,0,2-0.892,2-2s-0.893-2-2-2H3z M4,3
	c0.552,0,1,0.448,1,1S4.552,5,4,5S3,4.552,3,4S3.448,3,4,3z"/>
</svg>
