<?xml version="1.0" encoding="utf-8"?>
<!-- Generator: Adobe Illustrator 16.0.0, SVG Export Plug-In . SVG Version: 6.00 Build 0)  -->
<!DOCTYPE svg PUBLIC "-//W3C//DTD SVG 1.1//EN" "http://www.w3.org/Graphics/SVG/1.1/DTD/svg11.dtd">
<svg version="1.1"
	 id="svg2" xmlns:dc="http://purl.org/dc/elements/1.1/" xmlns:cc="http://creativecommons.org/ns#" xmlns:rdf="http://www.w3.org/1999/02/22-rdf-syntax-ns#" xmlns:svg="http://www.w3.org/2000/svg"
	 xmlns="http://www.w3.org/2000/svg" xmlns:xlink="http://www.w3.org/1999/xlink" x="0px" y="0px" width="18px" height="18px"
	 viewBox="0 0 18 18" enable-background="new 0 0 18 18" xml:space="preserve">
<path id="path14" fill="#FFFFFF" d="M13.217,15.604L1.409,11.123l3.497-9.214l11.808,4.481L13.217,15.604z"/>
<path fill="#2CA0DA" d="M16.617,6.127L5.16,1.542C4.85,1.418,4.5,1.577,4.379,1.892l-3.338,8.78
	c-0.121,0.318,0.033,0.679,0.343,0.801l11.46,4.586c0.309,0.124,0.658-0.035,0.779-0.35l3.336-8.781
	C17.08,6.61,16.926,6.251,16.617,6.127z M14.477,10.944c-0.421-0.702-0.799-1.479-1.049-1.854c-0.291-0.45-0.543-0.411-0.803-0.33
	c-0.176,0.055-3.077,0.941-4.186,1.28l0.997,2.269c0.051,0.113,0,0.248-0.11,0.299c-0.029,0.015-0.059,0.021-0.089,0.021
	c-0.084,0-0.164-0.051-0.202-0.133c0,0-1.687-3.814-1.876-4.227C7.048,8.025,6.934,7.802,6.349,7.975
	C5.646,8.182,3.641,9.069,2.409,9.59l2.659-7.134L16.051,6.8L14.477,10.944z"/>
<path id="path34" fill="#2CA0DA" d="M8.681,8.083c0.832,0.334,1.753-0.038,2.054-0.829c0.301-0.791-0.133-1.703-0.967-2.04
	c-0.832-0.333-1.752,0.042-2.053,0.83C7.412,6.835,7.848,7.749,8.681,8.083"/>
<path id="path2990" fill="#BE3938" d="M16.182,16.182c-1.756,1.758-4.605,1.759-6.363,0.002S8.06,11.578,9.816,9.819
	c0-0.001,0.002-0.001,0.002-0.002c1.758-1.756,4.607-1.756,6.363,0.002C17.938,11.576,17.938,14.424,16.182,16.182z"/>
<rect id="rect3760" x="12" y="9.5" transform="matrix(-0.7069 -0.7074 0.7074 -0.7069 12.994 31.3839)" fill="#FFFFFF" width="2" height="6.999"/>
<rect id="rect3760-5" x="12" y="9.5" transform="matrix(0.7071 -0.7071 0.7071 0.7071 -5.3848 13)" fill="#FFFFFF" width="2" height="6.999"/>
</svg>
