<?xml version="1.0" encoding="UTF-8" standalone="no"?>
<!-- Created with Inkscape (http://www.inkscape.org/) -->

<svg
   xmlns:dc="http://purl.org/dc/elements/1.1/"
   xmlns:cc="http://creativecommons.org/ns#"
   xmlns:rdf="http://www.w3.org/1999/02/22-rdf-syntax-ns#"
   xmlns:svg="http://www.w3.org/2000/svg"
   xmlns="http://www.w3.org/2000/svg"
   version="1.1"
   width="18"
   height="18"
   id="svg2"
   xml:space="preserve"><metadata
     id="metadata8"><rdf:RDF><cc:Work
         rdf:about=""><dc:format>image/svg+xml</dc:format><dc:type
           rdf:resource="http://purl.org/dc/dcmitype/StillImage" /><dc:title></dc:title></cc:Work></rdf:RDF></metadata><defs
     id="defs6"><clipPath
       id="clipPath16"><path
         d="M 0,256 256,256 256,0 0,0 0,256 z"
         id="path18" /></clipPath></defs><g
     transform="matrix(1.25,0,0,-1.25,0,18)"
     id="g10"><rect
       width="4"
       height="2.4000001"
       ry="0.31999999"
       x="0.80000001"
       y="-11.2"
       transform="scale(1,-1)"
       id="rect3847"
       style="fill:#2ca0da;fill-opacity:1;stroke:none" /><rect
       width="4"
       height="2.4000001"
       ry="0.31999999"
       x="5.1999998"
       y="-11.2"
       transform="scale(1,-1)"
       id="rect3847-5"
       style="fill:#2ca0da;fill-opacity:1;stroke:none" /><rect
       width="4"
       height="2.4000001"
       ry="0.31999999"
       x="9.6000004"
       y="-11.2"
       transform="scale(1,-1)"
       id="rect3847-5-3"
       style="fill:#2ca0da;fill-opacity:1;stroke:none" /><rect
       width="4"
       height="2.4000001"
       ry="0.31999999"
       x="0.80000001"
       y="-8.3999996"
       transform="scale(1,-1)"
       id="rect3847-8"
       style="fill:#2ca0da;fill-opacity:1;stroke:none" /><rect
       width="4"
       height="2.4000001"
       ry="0.31999999"
       x="5.2000003"
       y="-8.3999996"
       transform="scale(1,-1)"
       id="rect3847-5-38"
       style="fill:#2ca0da;fill-opacity:1;stroke:none" /><rect
       width="4"
       height="2.4000001"
       ry="0.31999999"
       x="9.6000004"
       y="-8.3999996"
       transform="scale(1,-1)"
       id="rect3847-5-3-9"
       style="fill:#2ca0da;fill-opacity:1;stroke:none" /><rect
       width="4"
       height="2.4000001"
       ry="0.31999999"
       x="0.80000001"
       y="-5.5999999"
       transform="scale(1,-1)"
       id="rect3847-80"
       style="fill:#2ca0da;fill-opacity:1;stroke:none" /><rect
       width="4"
       height="2.4000001"
       ry="0.31999999"
       x="5.2000003"
       y="-5.5999999"
       transform="scale(1,-1)"
       id="rect3847-5-5"
       style="fill:#2ca0da;fill-opacity:1;stroke:none" /><rect
       width="4"
       height="2.4000001"
       ry="0.31999999"
       x="9.6000004"
       y="-5.5999999"
       transform="scale(1,-1)"
       id="rect3847-5-3-1"
       style="fill:#2ca0da;fill-opacity:1;stroke:none" /></g></svg>