<?xml version="1.0" encoding="utf-8"?>
<!-- Generator: Adobe Illustrator 16.0.0, SVG Export Plug-In . SVG Version: 6.00 Build 0)  -->
<!DOCTYPE svg PUBLIC "-//W3C//DTD SVG 1.1//EN" "http://www.w3.org/Graphics/SVG/1.1/DTD/svg11.dtd">
<svg version="1.1" id="Layer_1" xmlns="http://www.w3.org/2000/svg" xmlns:xlink="http://www.w3.org/1999/xlink" x="0px" y="0px"
	 width="36px" height="36px" viewBox="0.5 20.5 36 36" enable-background="new 0.5 20.5 36 36" xml:space="preserve">
<path fill="#212A2F" d="M30.625,51.75H4.25c-1.104,0-2-0.895-2-2v-24c0-1.104,0.896-2,2-2h28c1.105,0,2,0.896,2,2v22.375
	L30.625,51.75z M6.25,47.75h24v-20h-24V47.75z"/>
<polygon fill="#2CA0DA" points="21.664,47.164 18.836,44.336 23.422,39.75 18.836,35.164 21.664,32.336 29.078,39.75 "/>
<polygon fill="#2CA0DA" points="14.836,43.164 7.422,35.75 14.836,28.336 17.664,31.164 13.078,35.75 17.664,40.336 "/>
<path fill="#BE3938" d="M32.615,52.111c-3.514,3.516-9.209,3.52-12.73,0.004c-3.512-3.514-3.514-9.207-0.004-12.73
	c0,0,0.004,0,0.004-0.004c3.521-3.508,9.215-3.508,12.73,0.004C36.129,42.9,36.129,48.596,32.615,52.111z"/>
<polygon fill="#FFFFFF" points="32.613,42.215 29.787,39.387 26.25,42.92 22.717,39.387 19.891,42.215 23.42,45.746 19.887,49.277 
	22.713,52.109 26.248,48.576 29.783,52.113 32.609,49.285 29.076,45.75 "/>
</svg>
