<svg xmlns="http://www.w3.org/2000/svg" width="128" height="128" fill="none" viewBox="0 0 128 128">
  <g class="illustrations/128x128/no_hidden">
    <path fill="#2B383F" fill-rule="evenodd" d="M40 83H12v18h28V83Zm38 0H50v18h28V83Zm38 0H88v18h28V83ZM40 55H12v18h28V55Zm38 0H50v18h28V55Zm38 0H88v18h28V55Zm0-28H88v18h28V27Z" class="Primary" clip-rule="evenodd"/>
    <path fill="#3F545F" fill-rule="evenodd" d="M117 26H87v20h30V26ZM89 44V28h26v16H89ZM41 54H11v20h30V54ZM13 72V56h26v16H13Zm66-18H49v20h30V54ZM51 72V56h26v16H51Zm66-18H87v20h30V54ZM89 72V56h26v16H89ZM41 82H11v20h30V82Zm-28 18V84h26v16H13Zm66-18H49v20h30V82Zm-28 18V84h26v16H51Zm66-18H87v20h30V82Zm-28 18V84h26v16H89ZM13 46v-2h-2v2h2Zm4 0v-2h-2v2h2Zm4 0v-2h-2v2h2Zm4 0v-2h-2v2h2Zm4 0v-2h-2v2h2Zm4 0v-2h-2v2h2Zm4 0v-2h-2v2h2Zm4 0v-2h-2v2h2Zm38 0v-2h-2v2h2Zm-4 0v-2h-2v2h2Zm-4 0v-2h-2v2h2Zm-4 0v-2h-2v2h2Zm-4 0v-2h-2v2h2Zm-4 0v-2h-2v2h2Zm-4 0v-2h-2v2h2Zm-4 0v-2h-2v2h2Zm-10-5v-2h-2v2h2Zm-28 0v-2h-2v2h2Zm38 0v-2h-2v2h2Zm28 0v-2h-2v2h2Zm-38-4v-2h-2v2h2Zm-28 0v-2h-2v2h2Zm38 0v-2h-2v2h2Zm28 0v-2h-2v2h2Zm-38-4v-2h-2v2h2Zm-28 0v-2h-2v2h2Zm38 0v-2h-2v2h2Zm28 0v-2h-2v2h2Zm-54-5v-2h-2v2h2Zm4 0v-2h-2v2h2Zm4 0v-2h-2v2h2Zm4 0v-2h-2v2h2Zm4 0v-2h-2v2h2Zm-28 0v-2h-2v2h2Zm8 0v-2h-2v2h2Zm-4 0v-2h-2v2h2Zm38 0v-2h-2v2h2Zm4 0v-2h-2v2h2Zm4 0v-2h-2v2h2Zm4 0v-2h-2v2h2Zm4 0v-2h-2v2h2Zm4 0v-2h-2v2h2Zm4 0v-2h-2v2h2Zm-28 0v-2h-2v2h2Z" class="Secondary" clip-rule="evenodd"/>
  </g>
</svg>
