<svg xmlns="http://www.w3.org/2000/svg" width="128" height="128" fill="none" viewBox="0 0 128 128">
  <g class="illustrations/128x128/no_systems_found">
    <path fill="#3F545F" fill-rule="evenodd" d="M13 100v2h-2v-2h2Zm58 0v2h-2v-2h2Zm-38 0v2h-2v-2h2Zm42 0v2h-2v-2h2Zm14 0v2h-2v-2h2Zm-72 0v2h-2v-2h2Zm4 0v2h-2v-2h2Zm16 0v2h-2v-2h2Zm-8 0v2h-2v-2h2Zm38 0v2h-2v-2h2Zm-4 0v2h-2v-2h2Zm-4 0v2h-2v-2h2Zm-4 0v2h-2v-2h2Zm-4 0v2h-2v-2h2Zm42 0v2h-2v-2h2Zm4 0v2h-2v-2h2Zm4 0v2h-2v-2h2Zm-60 0v2h-2v-2h2Zm38 0v2h-2v-2h2Zm26 0v2h-2v-2h2Zm4 0v2h-2v-2h2Zm-84 0v2h-2v-2h2Zm88 0v2h-2v-2h2Zm4 0v2h-2v-2h2Zm-38-5v2h-2v-2h2Zm-28 0v2h-2v-2h2Zm-38 0v2h-2v-2h2Zm28 0v2h-2v-2h2Zm76 0v2h-2v-2h2Zm-28 0v2h-2v-2h2Zm-76-4v2h-2v-2h2Zm28 0v2h-2v-2h2Zm10 0v2h-2v-2h2Zm28 0v2h-2v-2h2Zm10 0v2h-2v-2h2Zm28 0v2h-2v-2h2Zm0-4v2h-2v-2h2Zm-28 0v2h-2v-2h2Zm-48 0v2h-2v-2h2Zm-28 0v2h-2v-2h2Zm38 0v2h-2v-2h2Zm28 0v2h-2v-2h2Zm0-5v2h-2v-2h2Zm-28 0v2h-2v-2h2Zm24 0v2h-2v-2h2Zm-4 0v2h-2v-2h2Zm-4 0v2h-2v-2h2Zm-4 0v2h-2v-2h2Zm-4 0v2h-2v-2h2Zm-4 0v2h-2v-2h2Zm-38 0v2h-2v-2h2Zm4 0v2h-2v-2h2Zm-8 0v2h-2v-2h2Zm28 0v2h-2v-2h2Zm-4 0v2h-2v-2h2Zm-4 0v2h-2v-2h2Zm-4 0v2h-2v-2h2Zm-4 0v2h-2v-2h2Zm68 0v2h-2v-2h2Zm4 0v2h-2v-2h2Zm4 0v2h-2v-2h2Zm4 0v2h-2v-2h2Zm4 0v2h-2v-2h2Zm4 0v2h-2v-2h2Zm4 0v2h-2v-2h2Zm-28 0v2h-2v-2h2ZM13 72v2h-2v-2h2Zm100 0v2h-2v-2h2Zm-42 0v2h-2v-2h2Zm-38 0v2h-2v-2h2Zm42 0v2h-2v-2h2Zm14 0v2h-2v-2h2Zm-72 0v2h-2v-2h2Zm4 0v2h-2v-2h2Zm16 0v2h-2v-2h2Zm-8 0v2h-2v-2h2Zm38 0v2h-2v-2h2Zm-4 0v2h-2v-2h2Zm-4 0v2h-2v-2h2Zm-4 0v2h-2v-2h2Zm-4 0v2h-2v-2h2Zm42 0v2h-2v-2h2Zm4 0v2h-2v-2h2Zm4 0v2h-2v-2h2Zm-60 0v2h-2v-2h2Zm38 0v2h-2v-2h2Zm38 0v2h-2v-2h2Zm-92 0v2h-2v-2h2Zm84 0v2h-2v-2h2Zm-4 0v2h-2v-2h2Zm-16-5v2h-2v-2h2Zm-10 0v2h-2v-2h2Zm-28 0v2h-2v-2h2Zm-38 0v2h-2v-2h2Zm28 0v2h-2v-2h2Zm76 0v2h-2v-2h2Zm-38-4v2h-2v-2h2Zm38 0v2h-2v-2h2Zm-28 0v2h-2v-2h2Zm-38 0v2h-2v-2h2Zm-10 0v2h-2v-2h2Zm-28 0v2h-2v-2h2Zm66-4v2h-2v-2h2Zm38 0v2h-2v-2h2Zm-28 0v2h-2v-2h2Zm-48 0v2h-2v-2h2Zm-28 0v2h-2v-2h2Zm38 0v2h-2v-2h2Zm28-5v2h-2v-2h2Zm10 0v2h-2v-2h2Zm28 0v2h-2v-2h2Zm-4 0v2h-2v-2h2Zm-4 0v2h-2v-2h2Zm-4 0v2h-2v-2h2Zm-4 0v2h-2v-2h2Zm-4 0v2h-2v-2h2Zm-4 0v2h-2v-2h2Zm-68 0v2h-2v-2h2Zm4 0v2h-2v-2h2Zm4 0v2h-2v-2h2Zm4 0v2h-2v-2h2Zm4 0v2h-2v-2h2Zm-28 0v2h-2v-2h2Zm8 0v2h-2v-2h2Zm-4 0v2h-2v-2h2Zm38 0v2h-2v-2h2Zm4 0v2h-2v-2h2Zm4 0v2h-2v-2h2Zm4 0v2h-2v-2h2Zm4 0v2h-2v-2h2Zm4 0v2h-2v-2h2Zm-24 0v2h-2v-2h2Zm16-10v2h-2v-2h2Zm-54 0v2h-2v-2h2Zm12 0v2h-2v-2h2Zm46 0v2h-2v-2h2Zm-38 0v2h-2v-2h2Zm42 0v2h-2v-2h2Zm14 0v2h-2v-2h2Zm-60 0v2h-2v-2h2Zm-8 0v2h-2v-2h2Zm42 0v2h-2v-2h2Zm-4 0v2h-2v-2h2Zm-4 0v2h-2v-2h2Zm-4 0v2h-2v-2h2Zm42 0v2h-2v-2h2Zm4 0v2h-2v-2h2Zm4 0v2h-2v-2h2Zm-60 0v2h-2v-2h2Zm38 0v2h-2v-2h2Zm-42 0v2h-2v-2h2Zm80 0v2h-2v-2h2Zm-4 0v2h-2v-2h2Zm-96 0v2h-2v-2h2Zm92 0v2h-2v-2h2Zm-4 0v2h-2v-2h2Zm-54-5v2h-2v-2h2Zm-38 0v2h-2v-2h2Zm28 0v2h-2v-2h2Zm76 0v2h-2v-2h2Zm-28 0v2h-2v-2h2Zm-10 0v2h-2v-2h2Zm-28-4v2h-2v-2h2Zm-38 0v2h-2v-2h2Zm28 0v2h-2v-2h2Zm38 0v2h-2v-2h2Zm10 0v2h-2v-2h2Zm28 0v2h-2v-2h2Zm-38-4v2h-2v-2h2Zm38 0v2h-2v-2h2Zm-28 0v2h-2v-2h2Zm-48 0v2h-2v-2h2Zm-28 0v2h-2v-2h2Zm38 0v2h-2v-2h2Zm28-5v2h-2v-2h2Zm10 0v2h-2v-2h2Zm28 0v2h-2v-2h2Zm-4 0v2h-2v-2h2Zm-4 0v2h-2v-2h2Zm-4 0v2h-2v-2h2Zm-4 0v2h-2v-2h2Zm-4 0v2h-2v-2h2Zm-4 0v2h-2v-2h2Zm-68 0v2h-2v-2h2Zm4 0v2h-2v-2h2Zm4 0v2h-2v-2h2Zm4 0v2h-2v-2h2Zm4 0v2h-2v-2h2Zm-28 0v2h-2v-2h2Zm8 0v2h-2v-2h2Zm-4 0v2h-2v-2h2Zm38 0v2h-2v-2h2Zm4 0v2h-2v-2h2Zm4 0v2h-2v-2h2Zm4 0v2h-2v-2h2Zm4 0v2h-2v-2h2Zm4 0v2h-2v-2h2Zm-24 0v2h-2v-2h2Z" class="Secondary" clip-rule="evenodd"/>
    <path fill="#3F545F" fill-rule="evenodd" d="M40.627 43.627c9.373-9.372 24.569-9.372 33.942 0 9.372 9.373 9.372 24.569 0 33.942-9.373 9.372-24.569 9.372-33.942 0-9.372-9.373-9.372-24.569 0-33.942Zm36.77-2.828c-10.935-10.935-28.663-10.935-39.598 0-10.935 10.935-10.935 28.663 0 39.598 10.46 10.46 27.134 10.914 38.134 1.364l15.606 15.607 2.829-2.829-15.606-15.606c9.549-11 9.094-27.675-1.365-38.134Z" class="Secondary" clip-rule="evenodd"/>
    <path fill="#2B383F" d="M39.213 78.983c10.154 10.153 26.616 10.153 36.77 0 10.153-10.154 10.153-26.616 0-36.77-10.154-10.153-26.616-10.153-36.77 0-10.153 10.154-10.153 26.616 0 36.77Z" class="Primary"/>
    <path fill="#E1E7EA" d="m50.11 51.707.095.083 7.793 7.793 7.792-7.793.095-.083a1 1 0 0 1 1.32 1.498l-7.792 7.793 7.792 7.792a1 1 0 0 1-1.32 1.498l-.095-.083-7.793-7.792-7.792 7.792-.095.083a1 1 0 0 1-1.32-1.498l7.793-7.793-7.793-7.792a1 1 0 0 1 1.32-1.498Z" class="Tertiary"/>
  </g>
</svg>
