<?xml version="1.0" encoding="UTF-8"?>
<svg width="20px" height="20px" viewBox="0 0 20 20" version="1.1" xmlns="http://www.w3.org/2000/svg" xmlns:xlink="http://www.w3.org/1999/xlink">
    <!-- Generator: Sketch 53.2 (72643) - https://sketchapp.com -->
    <title>Lang</title>
    <desc>Created with Sketch.</desc>
    <g id="Lang" stroke="none" stroke-width="1" fill="none" fill-rule="evenodd">
        <path d="M16.0995159,10.5625 L13.488864,10.5625 C13.4020641,12.7458031 12.8143768,14.6469311 11.9556694,15.8061494 C14.2091148,15.0474191 15.8763468,13.0135861 16.0995159,10.5625 Z M16.1096157,9.5625 C15.9327006,7.05573102 14.2473127,4.96544212 11.9556694,4.1938506 C12.8307248,5.37513792 13.4243425,7.32685266 13.4932752,9.5625 L16.1096157,9.5625 Z M3.89038427,9.5625 L6.50672481,9.5625 C6.57565746,7.32685266 7.1692752,5.37513792 8.04433063,4.1938506 C5.75268726,4.96544212 4.06729938,7.05573102 3.89038427,9.5625 Z M3.90048408,10.5625 C4.12365318,13.0135861 5.79088524,15.0474191 8.04433063,15.8061494 C7.18562316,14.6469311 6.59793586,12.7458031 6.51113605,10.5625 L3.90048408,10.5625 Z M3.0222721,10.5625 L3,10.5625 L3,9.5625 L3.01344962,9.5625 C3.23928554,5.90030575 6.28094142,3 10,3 C13.7190586,3 16.7607145,5.90030575 16.9865504,9.5625 L17,9.5625 L17,10.5625 L16.9777279,10.5625 C16.691247,14.1654722 13.6766432,17 10,17 C6.32335677,17 3.30875299,14.1654722 3.0222721,10.5625 Z M12.6130118,10.5625 L7.38698818,10.5625 C7.52261164,13.7321585 8.78596973,16.125 10,16.125 C11.2140303,16.125 12.4773884,13.7321585 12.6130118,10.5625 Z M12.6177598,9.5625 C12.5105064,6.33096294 11.2299387,3.875 10,3.875 C8.77006135,3.875 7.48949365,6.33096294 7.38224021,9.5625 L12.6177598,9.5625 Z" id="Combined-Shape" fill="#698796" fill-rule="nonzero"></path>
    </g>
</svg>