<svg xmlns="http://www.w3.org/2000/svg" width="24" height="24" fill="none" viewBox="0 0 24 24">
  <g class="24x24/Outline/article">
    <path fill="#B0BEC4" fill-rule="evenodd" d="M18.857 3H19a1 1 0 0 1 1 1v3a1 1 0 1 1-2 0v-.624l-4.034 3.52a1.388 1.388 0 0 1-1.829-.008L9.915 7.913l-3.98 3.772a1.156 1.156 0 0 1-1.615-.03 1.113 1.113 0 0 1 .03-1.59L8.944 5.71a1.387 1.387 0 0 1 1.87-.03l2.248 1.998L16.132 5H16a1 1 0 1 1 0-2h2.857ZM18 11a1 1 0 0 0-1 1v9h2v-9a1 1 0 0 0-1-1Zm-5 3a1 1 0 1 1 2 0v7h-2v-7Zm-3 1a1 1 0 0 0-1 1v5h2v-5a1 1 0 0 0-1-1Zm-4 2a1 1 0 0 0-1 1v3h2v-3a1 1 0 0 0-1-1Z" class="Primary" clip-rule="evenodd"/>
  </g>
</svg>
