<svg xmlns="http://www.w3.org/2000/svg" width="24" height="24" fill="none" viewBox="0 0 24 24">
  <g class="24x24/Outline/article">
    <path fill="#B0B9C4" d="M6 17a1 1 0 0 1 1 1v3H5v-3a1 1 0 0 1 1-1Zm4-2a1 1 0 0 1 1 1v5H9v-5a1 1 0 0 1 1-1Zm4-2a1 1 0 0 1 1 1v7h-2v-7a1 1 0 0 1 1-1Zm4-2a1 1 0 0 1 1 1v9h-2v-9a1 1 0 0 1 1-1Zm1-8a1 1 0 0 1 1 1v3a1 1 0 1 1-2 0v-.625l-4.034 3.52a1.387 1.387 0 0 1-1.829-.007L9.915 7.913l-3.98 3.772a1.156 1.156 0 0 1-1.616-.03 1.113 1.113 0 0 1 .031-1.59L8.944 5.71a1.388 1.388 0 0 1 1.87-.03l2.247 1.998L16.131 5H16a1 1 0 0 1 0-2h3Z" class="Primary"/>
  </g>
</svg>
