<svg xmlns="http://www.w3.org/2000/svg" width="24" height="24" fill="none" viewBox="0 0 24 24">
  <g class="24x24/Outline/checkissues">
    <path fill="#fff" fill-rule="evenodd" d="M12.91 2h-1.82v.954a9.052 9.052 0 0 0-1.638.317l-.357-.883-1.686.682.357.883a9.105 9.105 0 0 0-1.52 1.008l-.674-.675-1.286 1.286.675.675c-.352.43-.665.893-.935 1.383l-.877-.372-.71 1.674.877.372a9.048 9.048 0 0 0-.362 1.787H2v1.818h.954c.056.563.163 1.111.317 1.64l-.883.356.682 1.686.883-.357c.285.54.624 1.05 1.008 1.52l-.675.674 1.286 1.286.675-.675c.43.352.893.665 1.383.935l-.372.877 1.674.71.372-.877c.573.178 1.171.3 1.787.362V22h1.818v-.954a9.055 9.055 0 0 0 1.64-.317l.356.883 1.686-.682-.357-.883a9.104 9.104 0 0 0 1.52-1.008l.674.675 1.286-1.286-.675-.675c.352-.43.665-.893.935-1.383l.877.372.71-1.674-.877-.371c.178-.574.3-1.172.362-1.788H22v-1.818h-.954a9.054 9.054 0 0 0-.317-1.64l.883-.356-.682-1.686-.883.357a9.102 9.102 0 0 0-1.008-1.52l.675-.674-1.286-1.286-.675.675a9.112 9.112 0 0 0-1.383-.935l.372-.877-1.674-.71-.371.877a9.049 9.049 0 0 0-1.788-.362V2ZM12 19.59a7.59 7.59 0 1 0 0-15.18 7.59 7.59 0 0 0 0 15.182ZM13 15v2h-2v-2h2Zm0-8v6h-2V7h2Z" class="Primary" clip-rule="evenodd"/>
  </g>
</svg>
