<svg xmlns="http://www.w3.org/2000/svg" width="24" height="24" fill="none" viewBox="0 0 24 24">
  <g class="24x24/Outline/chunk_future">
    <path fill="#B0B9C4" d="M17.085 6.692c.212 0 .399.08.56.241.16.16.24.345.24.554v9a.76.76 0 0 1-.241.555.768.768 0 0 1-1.119 0 .762.762 0 0 1-.24-.554v-9c0-.21.08-.395.24-.555.16-.16.347-.24.56-.24Zm-9.489.98 5.33 3.53a.91.91 0 0 1 .428.794.927.927 0 0 1-.427.802l-5.33 3.506c-.319.22-.645.24-.98.057a.901.901 0 0 1-.502-.846V8.46c0-.374.168-.652.503-.835a.879.879 0 0 1 .978.046Z" class="Primary"/>
  </g>
</svg>
