<svg xmlns="http://www.w3.org/2000/svg" width="24" height="24" fill="none" viewBox="0 0 24 24">
  <g class="24x24/Outline/chunk_previous">
    <path fill="#B0BEC4" d="M6.915 17.308a.767.767 0 0 1-.56-.241.762.762 0 0 1-.24-.555v-9c0-.209.08-.394.241-.554a.768.768 0 0 1 1.119 0c.16.16.24.345.24.554v9c0 .21-.08.395-.24.555a.768.768 0 0 1-.56.24Zm9.489-.98-5.33-3.53a.91.91 0 0 1-.428-.794c0-.337.143-.605.427-.802l5.33-3.506c.319-.22.645-.24.98-.057a.901.901 0 0 1 .502.846v7.055c0 .374-.168.652-.503.835a.879.879 0 0 1-.978-.046Z" class="Primary"/>
  </g>
</svg>
