<svg xmlns="http://www.w3.org/2000/svg" width="24" height="24" fill="none" viewBox="0 0 24 24">
  <g class="24x24/Outline/close">
    <path fill="#B0B9C4" d="M17.282 5.288a.991.991 0 0 1 1.404.007.995.995 0 0 1 .006 1.405l-5.283 5.289 5.304 5.311.067.075a.997.997 0 0 1-.074 1.33.993.993 0 0 1-1.329.075l-.074-.068-5.304-5.311-5.302 5.311-.074.068a.993.993 0 0 1-1.329-.074.997.997 0 0 1-.074-1.331l.067-.075 5.303-5.311-5.282-5.29a.995.995 0 0 1 .007-1.404.991.991 0 0 1 1.403-.007L12 10.577l5.282-5.29Z" class="Primary"/>
  </g>
</svg>
