<svg xmlns="http://www.w3.org/2000/svg" width="24" height="24" fill="none" viewBox="0 0 24 24">
  <g class="24x24/Outline/copy">
    <path fill="#fff" fill-rule="evenodd" d="M12 4.5H5a.5.5 0 0 0-.5.5v10a.5.5 0 0 0 .5.5h5V9a2 2 0 0 1 2-2h.5V5a.5.5 0 0 0-.5-.5ZM14 7h5a2 2 0 0 1 2 2v10a2 2 0 0 1-2 2h-7a2 2 0 0 1-2-2v-2H5a2 2 0 0 1-2-2V5a2 2 0 0 1 2-2h7a2 2 0 0 1 2 2v2Zm-2 1.5h7a.5.5 0 0 1 .5.5v10a.5.5 0 0 1-.5.5h-7a.5.5 0 0 1-.5-.5V9a.5.5 0 0 1 .5-.5Z" class="Primary" clip-rule="evenodd"/>
  </g>
</svg>
