<svg xmlns="http://www.w3.org/2000/svg" width="24" height="24" fill="none" viewBox="0 0 24 24">
  <g class="24x24/Outline/cube">
    <path fill="#A3B1C2" d="M11 19.425v-6.85L5 9.1v6.85l6 3.475Zm2 0 6-3.475V9.1l-6 3.475v6.85Zm-1-8.575 5.925-3.425L12 4 6.075 7.425 12 10.85ZM4 17.7a1.948 1.948 0 0 1-1-1.725v-7.95A1.948 1.948 0 0 1 4 6.3l7-4.025c.317-.183.65-.275 1-.275s.683.092 1 .275L20 6.3a1.948 1.948 0 0 1 1 1.725v7.95a1.948 1.948 0 0 1-1 1.725l-7 4.025c-.317.183-.65.275-1 .275s-.683-.092-1-.275L4 17.7Z" class="Primary"/>
  </g>
</svg>
