<svg xmlns="http://www.w3.org/2000/svg" width="24" height="24" fill="none" viewBox="0 0 24 24">
  <g class="24x24/Outline/dedicated_window">
    <path fill="#fff" fill-rule="evenodd" d="M15 4.5H3a.5.5 0 0 0-.5.5v8a.5.5 0 0 0 .5.5h3V15H3a2 2 0 0 1-2-2V5a2 2 0 0 1 2-2h12a2 2 0 0 1 2 2v3h-1.5V5a.5.5 0 0 0-.5-.5ZM8.5 11a.5.5 0 0 1 .5-.5h12a.5.5 0 0 1 .5.5v8a.5.5 0 0 1-.5.5H9a.5.5 0 0 1-.5-.5v-8ZM7 11a2 2 0 0 1 2-2h12a2 2 0 0 1 2 2v8a2 2 0 0 1-2 2H9a2 2 0 0 1-2-2v-8Z" class="Primary" clip-rule="evenodd"/>
  </g>
</svg>
