<svg xmlns="http://www.w3.org/2000/svg" width="24" height="24" fill="none" viewBox="0 0 24 24">
  <g class="24x24/Outline/eventlog">
    <path fill="#fff" fill-rule="evenodd" d="M13.484 4.96a1.75 1.75 0 0 0-2.968 0L9.866 6H3v1.5h5.928L7.366 10H3v1.5h3.428L4.866 14H3v1.5h.928L2.32 18.073c-.728 1.165.11 2.677 1.484 2.677h16.392c1.374 0 2.212-1.512 1.484-2.677L20.072 15.5H21V14h-1.866l-1.562-2.5H21V10h-4.366l-1.562-2.5H21V6h-6.866l-.65-1.04Zm-1.696.794a.25.25 0 0 1 .424 0l8.196 13.113a.25.25 0 0 1-.212.383H3.804a.25.25 0 0 1-.212-.383l8.196-13.113ZM11.25 15V9h1.5v6h-1.5Zm0 1.5V18h1.5v-1.5h-1.5Z" class="Primary" clip-rule="evenodd"/>
  </g>
</svg>
