<svg xmlns="http://www.w3.org/2000/svg" width="24" height="24" fill="none" viewBox="0 0 24 24">
  <g class="24x24/Outline/eye_view">
    <path fill="#B0B9C4" d="M4.636 21c-.45 0-.835-.16-1.155-.48A1.58 1.58 0 0 1 3 19.364v-1.637a.79.79 0 0 1 .235-.583.792.792 0 0 1 .583-.235c.232 0 .426.079.583.235a.792.792 0 0 1 .235.583v1.637h1.637a.79.79 0 0 1 .583.235.792.792 0 0 1 .235.583.792.792 0 0 1-.235.583.792.792 0 0 1-.583.235H4.636Zm14.728 0h-1.637a.792.792 0 0 1-.583-.235.792.792 0 0 1-.235-.583c0-.232.079-.426.235-.583a.792.792 0 0 1 .583-.235h1.637v-1.637a.79.79 0 0 1 .235-.583.792.792 0 0 1 .583-.235c.232 0 .426.079.583.235a.792.792 0 0 1 .235.583v1.637c0 .45-.16.835-.48 1.155a1.58 1.58 0 0 1-1.156.481ZM12 17.318a7.445 7.445 0 0 1-4.01-1.145c-1.226-.764-2.188-1.807-2.883-3.13a2.226 2.226 0 0 1-.245-1.023 2.293 2.293 0 0 1 .245-1.064c.695-1.322 1.657-2.365 2.884-3.129A7.445 7.445 0 0 1 12 6.682c1.445 0 2.782.382 4.01 1.145 1.226.764 2.188 1.807 2.883 3.13a2.31 2.31 0 0 1 .184 1.585 2.34 2.34 0 0 1-.184.501c-.695 1.323-1.657 2.366-2.884 3.13A7.445 7.445 0 0 1 12 17.318Zm0-2.454c.79 0 1.466-.28 2.025-.839A2.76 2.76 0 0 0 14.864 12c0-.79-.28-1.466-.839-2.025A2.76 2.76 0 0 0 12 9.136c-.79 0-1.466.28-2.025.839A2.76 2.76 0 0 0 9.136 12c0 .79.28 1.466.839 2.025a2.76 2.76 0 0 0 2.025.839Zm0-1.637c-.34 0-.63-.119-.87-.358a1.183 1.183 0 0 1-.357-.869c0-.34.119-.63.358-.87.238-.238.528-.357.869-.357.34 0 .63.119.87.358.238.238.357.528.357.869 0 .34-.119.63-.358.87a1.183 1.183 0 0 1-.869.357Zm9-8.59v1.636a.792.792 0 0 1-.235.583.792.792 0 0 1-.583.235.792.792 0 0 1-.583-.235.791.791 0 0 1-.235-.583V4.636h-1.637a.792.792 0 0 1-.583-.235.792.792 0 0 1-.235-.583c0-.232.079-.426.235-.583A.792.792 0 0 1 17.727 3h1.637c.45 0 .835.16 1.155.48.32.321.481.706.481 1.156ZM4.636 3h1.637a.79.79 0 0 1 .583.235.792.792 0 0 1 .235.583.792.792 0 0 1-.235.583.792.792 0 0 1-.583.235H4.636v1.637a.792.792 0 0 1-.235.583.792.792 0 0 1-.583.235.792.792 0 0 1-.583-.235A.792.792 0 0 1 3 6.273V4.636c0-.45.16-.835.48-1.155A1.58 1.58 0 0 1 4.637 3Z" class="Primary"/>
  </g>
</svg>
