<svg xmlns="http://www.w3.org/2000/svg" width="24" height="24" fill="none" viewBox="0 0 24 24">
  <g class="24x24/Outline/grid_view">
    <path fill="#B0BEC4" d="M5.708 10.857c-.472 0-.875-.17-1.208-.512A1.665 1.665 0 0 1 4 9.143V5.714c0-.471.168-.875.504-1.21C4.84 4.168 5.244 4 5.716 4H9.15c.472 0 .875.168 1.208.504.334.335.5.739.5 1.21v3.429c0 .46-.168.861-.504 1.202a1.64 1.64 0 0 1-1.212.512H5.708Zm0 9.143c-.472 0-.875-.168-1.208-.504a1.66 1.66 0 0 1-.5-1.212V14.85c0-.472.168-.875.504-1.208.336-.333.74-.5 1.212-.5H9.15c.472 0 .875.168 1.208.504.334.336.5.74.5 1.212v3.433c0 .472-.168.875-.504 1.208-.336.333-.74.5-1.212.5H5.708Zm9.15-9.143c-.461 0-.862-.17-1.203-.512a1.646 1.646 0 0 1-.512-1.202V5.714c0-.471.17-.875.512-1.21A1.659 1.659 0 0 1 14.857 4h3.429c.471 0 .875.168 1.21.504.336.335.504.739.504 1.21v3.429c0 .46-.168.861-.504 1.202a1.633 1.633 0 0 1-1.21.512h-3.429Zm0 9.143c-.461 0-.862-.168-1.203-.504a1.64 1.64 0 0 1-.512-1.212V14.85c0-.472.17-.875.512-1.208.341-.333.742-.5 1.202-.5h3.429c.471 0 .875.168 1.21.504.336.336.504.74.504 1.212v3.433c0 .472-.168.875-.504 1.208-.335.333-.739.5-1.21.5h-3.429ZM5.713 9.143h3.429V5.714H5.714v3.429Zm9.143 0h3.429V5.714h-3.429v3.429Zm0 9.143h3.429v-3.429h-3.429v3.429Zm-9.143 0h3.429v-3.429H5.714v3.429Z" class="Primary"/>
  </g>
</svg>
