<svg xmlns="http://www.w3.org/2000/svg" width="24" height="24" fill="none" viewBox="0 0 24 24">
  <g class="24x24/Outline/home">
    <path fill="#B0B9C4" fill-rule="evenodd" d="M19 10.517v7.49a.999.999 0 0 1-1 .997H6c-.552 0-1-.446-1-.997v-7.49c0-.313.147-.608.397-.796l6-4.524a1.002 1.002 0 0 1 1.206 0l6 4.524c.25.188.397.483.397.796Zm-16 0c0-.939.441-1.823 1.191-2.389l6-4.523a3.005 3.005 0 0 1 3.617 0l6 4.523A2.991 2.991 0 0 1 21 10.517v7.49A2.997 2.997 0 0 1 18 21H6c-1.657 0-3-1.34-3-2.993v-7.49Zm6 .482a1 1 0 0 1 1-1h4a1 1 0 1 1 0 2h-4a1 1 0 0 1-1-1Zm-1 4a1 1 0 0 1 1-1h6a1 1 0 1 1 0 2H9a1 1 0 0 1-1-1Z" class="Primary" clip-rule="evenodd"/>
  </g>
</svg>
