<svg xmlns="http://www.w3.org/2000/svg" width="24" height="24" fill="none" viewBox="0 0 24 24">
  <g class="24x24/Outline/home">
    <path fill="#B0B9C4" d="M10.191 3.605a3.006 3.006 0 0 1 3.618 0l6 4.524A2.99 2.99 0 0 1 21 10.517v7.49A2.997 2.997 0 0 1 18 21H6c-1.657 0-3-1.34-3-2.993v-7.49a2.99 2.99 0 0 1 1.191-2.388l6-4.524Zm2.411 1.592a1.002 1.002 0 0 0-1.204 0l-6 4.524a.997.997 0 0 0-.398.796v7.49a1 1 0 0 0 1 .998h12a1 1 0 0 0 1-.998v-7.49a.997.997 0 0 0-.398-.796l-6-4.524ZM15 14a1 1 0 0 1 0 2H9a1 1 0 1 1 0-2h6Zm-1-4a1 1 0 0 1 0 2h-4a1 1 0 1 1 0-2h4Z" class="Primary"/>
  </g>
</svg>
