<svg xmlns="http://www.w3.org/2000/svg" width="24" height="24" fill="none" viewBox="0 0 24 24">
  <g class="24x24/Outline/hotspots">
    <path fill="#E1E7EA" fill-rule="evenodd" d="M12 19.5a7.5 7.5 0 0 0 7.5-7.5V4.5H12a7.5 7.5 0 1 0 0 15Zm9-7.5a9 9 0 1 1-9-9h9v9Zm-5.993 1.615C15.72 13.096 16 12.506 16 12s-.28-1.096-.993-1.615C14.294 9.867 13.237 9.5 12 9.5c-1.236 0-2.294.367-3.007.885C8.28 10.904 8 11.494 8 12s.28 1.096.993 1.615c.713.518 1.77.885 3.007.885 1.236 0 2.294-.367 3.007-.885ZM12 16c3.038 0 5.5-1.79 5.5-4S15.038 8 12 8s-5.5 1.79-5.5 4 2.462 4 5.5 4Zm0-3a1 1 0 1 0 0-2 1 1 0 0 0 0 2Z" class="Primary" clip-rule="evenodd"/>
  </g>
</svg>
