<svg xmlns="http://www.w3.org/2000/svg" width="24" height="24" fill="none" viewBox="0 0 24 24">
  <g class="24x24/Outline/information">
    <path fill="#B0B9C4" d="M13.538 7.52a1.002 1.002 0 0 1 1.201.98v8.099c0 .774.494 1.085.743 1.086h.018a1 1 0 0 1 1 1V20.5a1 1 0 0 1-1 1h-7a1 1 0 0 1-1-1v-1.814a1 1 0 0 1 1-1c.264 0 .762-.326.767-1.077v-3.428c0-.375-.165-.653-.331-.775l-.7-.512a1 1 0 0 1-.41-.807V9.51a1 1 0 0 1 .799-.98l4.913-1.01Zm-3.712 2.804v.255l.29.213c.755.552 1.15 1.473 1.15 2.389v3.432c-.004 1.206-.68 2.404-1.766 2.87v.017h5v-.013c-1.099-.465-1.76-1.685-1.76-2.888V9.726l-2.914.598ZM11.5 2a2 2 0 1 1 0 4 2 2 0 0 1 0-4Z" class="Primary"/>
  </g>
</svg>
