<svg xmlns="http://www.w3.org/2000/svg" width="24" height="24" fill="none" viewBox="0 0 24 24">
  <g class="24x24/Outline/language">
    <path fill="#B0B9C4" d="M12 2c5.523 0 10 4.477 10 10s-4.477 10-10 10S2 17.523 2 12 6.477 2 12 2Zm-1.935 14.6c.166.615.36 1.17.577 1.65.337.75.688 1.236.976 1.507.139.13.243.192.303.22.054.024.076.023.079.023.002 0 .025.001.08-.023.06-.028.163-.09.302-.22.288-.271.639-.757.976-1.507.217-.48.411-1.035.577-1.65h-3.87Zm-4.609 0a8.022 8.022 0 0 0 3.52 2.806c-.394-.796-.723-1.746-.971-2.806H5.456Zm10.54 0c-.249 1.06-.579 2.01-.973 2.806a8.022 8.022 0 0 0 3.52-2.806h-2.548Zm.337-7.3c.108.859.167 1.764.167 2.7 0 .9-.054 1.77-.154 2.6h3.22a7.995 7.995 0 0 0-.034-5.3h-3.199Zm-6.65 0A19.51 19.51 0 0 0 9.5 12c0 .916.062 1.788.17 2.6h4.66c.108-.812.17-1.684.17-2.6 0-.954-.066-1.86-.184-2.7H9.684Zm-5.215 0A7.985 7.985 0 0 0 4 12c0 .91.154 1.784.435 2.6h3.22a21.758 21.758 0 0 1 .012-5.3h-3.2Zm10.555-4.707c.382.77.705 1.686.95 2.707h2.5a8.023 8.023 0 0 0-3.45-2.707Zm-3.102-.57c-.06.028-.164.09-.303.22-.288.271-.639.757-.976 1.507-.205.454-.39.975-.55 1.55h3.815a10.851 10.851 0 0 0-.549-1.55c-.337-.75-.688-1.236-.976-1.507a1.181 1.181 0 0 0-.303-.22C12.025 4 12.002 4 12 4c-.003 0-.025-.001-.08.023Zm-2.944.57A8.024 8.024 0 0 0 5.527 7.3h2.5c.245-1.02.567-1.936.95-2.707Z" class="Primary"/>
  </g>
</svg>
