<svg xmlns="http://www.w3.org/2000/svg" width="24" height="24" fill="none" viewBox="0 0 24 24">
  <g class="24x24/Outline/language_change">
    <path fill="#B0B9C4" d="M21.293 16.793a1 1 0 0 1 1.414 1.414L18.5 22.414l-4.207-4.207a1 1 0 1 1 1.414-1.414l2.793 2.793 2.793-2.793ZM11.942 2.002a9.995 9.995 0 0 1 3.885.759A10.001 10.001 0 0 1 22 12a1 1 0 1 1-2 0c0-.925-.161-1.838-.47-2.7h-3.184c.102.875.154 1.785.154 2.7a1 1 0 1 1-2 0c0-.928-.06-1.839-.17-2.7H9.671c-.043.332-.08.673-.107 1.021a21.782 21.782 0 0 0 .092 4.28H11.7a1 1 0 0 1 0 2h-1.677c.242.975.55 1.784.897 2.38.518.89.933 1.019 1.08 1.019a1 1 0 0 1 0 2 10.001 10.001 0 0 1-1.951-19.808c.62-.123 1.246-.185 1.872-.19h.02ZM5.455 16.6a8 8 0 0 0 3.407 2.757c-.373-.794-.67-1.732-.892-2.757H5.456ZM4.47 9.3a7.999 7.999 0 0 0-.033 5.3h3.209a23.815 23.815 0 0 1-.076-4.433c.023-.292.053-.582.086-.867H4.47Zm10.665-4.658c.296.63.544 1.342.743 2.106.047.18.091.365.133.552h2.462a7.998 7.998 0 0 0-3.338-2.658ZM12.004 4a.491.491 0 0 0-.231.062c-.346.177-.853.746-1.316 1.935-.153.394-.289.83-.41 1.302h3.907c-.004-.016-.007-.033-.012-.049-.366-1.41-.858-2.377-1.332-2.882-.228-.243-.406-.33-.512-.356A.407.407 0 0 0 12.034 4h-.03Zm-3.14.64A8 8 0 0 0 5.526 7.3h2.465a14.1 14.1 0 0 1 .6-2.027c.085-.216.175-.428.271-.632Z" class="Primary"/>
  </g>
</svg>
