<svg xmlns="http://www.w3.org/2000/svg" width="24" height="24" fill="none" viewBox="0 0 24 24">
  <g class="24x24/Outline/loading">
    <path fill="#B0B9C4" fill-rule="evenodd" d="M7.041 19.432a.994.994 0 0 1 1.372-.304c.701.447 1.474.67 2.265.74a.994.994 0 1 1-.174 1.98c-1.05-.091-2.143-.395-3.16-1.043a.995.995 0 0 1-.303-1.373Zm8.28-.19a.994.994 0 1 1 1.2 1.584c-.452.342-1.064.53-1.47.652l-.069.021a.994.994 0 1 1-.58-1.901c.518-.159.783-.253.918-.356Zm3.457-2.891a.995.995 0 0 1 1.891.61c-.059.206-.163.38-.229.481-.075.117-.16.23-.232.322-.068.087-.137.17-.19.233l-.01.013-.074.09-.004.006a.995.995 0 0 1-1.625-1.146c.049-.07.118-.153.162-.206l.01-.01.006-.01c.055-.066.11-.131.162-.198a2.412 2.412 0 0 0 .133-.185Zm-15.54-2.448a.994.994 0 0 1 1.21.714c.208.805.621 1.495 1.153 2.085a.995.995 0 0 1-1.478 1.33c-.706-.784-1.298-1.75-1.6-2.918a.994.994 0 0 1 .714-1.21ZM12.06 2.001c5.468 0 9.94 4.254 9.94 9.61a.994.994 0 0 1-1.988 0c0-4.188-3.51-7.622-7.952-7.622-2.955 0-5.517 1.54-6.851 3.752-.627 1.09-.989 2.15-1.108 3.188a.994.994 0 0 1-1.975-.228c.155-1.346.62-2.668 1.365-3.962l.009-.015C5.195 3.904 8.41 2 12.06 2Z" class="Primary" clip-rule="evenodd"/>
  </g>
</svg>
