<svg xmlns="http://www.w3.org/2000/svg" width="24" height="24" fill="none" viewBox="0 0 24 24">
  <g class="24x24/Outline/notification_off">
    <path fill="#B0B9C4" d="M14 20c0 .55-.196 1.02-.588 1.412A1.926 1.926 0 0 1 12 22c-.55 0-1.02-.196-1.412-.588A1.926 1.926 0 0 1 10 20h4Zm4.786-17.414A1 1 0 0 1 20.2 4l-16 16a1 1 0 1 1-1.414-1.414l16-16Zm-1.144 5.328C17.88 8.565 18 9.261 18 10v7h1a1 1 0 1 1 0 2H6.557l2-2H16v-7a4.41 4.41 0 0 0-.021-.423l1.663-1.663ZM12 2c.417 0 .77.146 1.063.438.291.291.437.645.437 1.062v.7a6.02 6.02 0 0 1 1.57.63l-1.488 1.486A3.933 3.933 0 0 0 12 6c-1.1 0-2.042.391-2.825 1.175C8.392 7.958 8 8.9 8 10v1.9l-2 2V10c0-1.383.417-2.612 1.25-3.688.833-1.074 1.917-1.778 3.25-2.112v-.7c0-.417.146-.77.438-1.063A1.447 1.447 0 0 1 12 2Z" class="Primary"/>
  </g>
</svg>
