<svg xmlns="http://www.w3.org/2000/svg" width="24" height="24" fill="none" viewBox="0 0 24 24">
  <g class="24x24/Outline/notification">
    <path fill="#B0BEC4" d="M4 18.407V16.13h1.928V9.335c0-1.435.428-2.715 1.283-3.84s1.974-1.86 3.355-2.205v-.652c0-.455.159-.842.477-1.16A1.58 1.58 0 0 1 12.203 1c.455 0 .842.16 1.16.478.319.318.478.705.478 1.16v.652c1.385.345 2.504 1.079 3.357 2.202.854 1.123 1.28 2.404 1.28 3.843v6.796h1.928v2.276H4Zm8.21 3.065c-.57 0-1.058-.202-1.464-.607a1.986 1.986 0 0 1-.609-1.458h4.138c0 .57-.202 1.056-.607 1.46a1.992 1.992 0 0 1-1.459.605Zm-4.007-5.34h8V9.334c0-1.1-.391-2.042-1.175-2.825-.783-.784-1.725-1.175-2.825-1.175s-2.041.391-2.825 1.175c-.783.783-1.175 1.725-1.175 2.825v6.796Z" class="Primary"/>
  </g>
</svg>
