<svg xmlns="http://www.w3.org/2000/svg" width="24" height="24" fill="none" viewBox="0 0 24 24">
  <g class="24x24/Outline/partner">
    <path fill="#B0B9C4" d="M14.204 3.01A2 2 0 0 1 16 5v1.5h3a2 2 0 0 1 2 2V18l-.01.204a2 2 0 0 1-1.786 1.785L19 20H5l-.204-.01a2 2 0 0 1-1.785-1.786L3 18V8.5a2 2 0 0 1 2-2h3V5a2 2 0 0 1 2-2h4l.204.01Zm-.613 10.675a3.001 3.001 0 0 1-3.18 0L5 10.304V18h14v-7.696l-5.41 3.381ZM11.47 11.99a.999.999 0 0 0 1.06 0l5.583-3.49H5.887l5.583 3.49ZM10 6.5h4V5h-4v1.5Z" class="Primary"/>
  </g>
</svg>
