<svg xmlns="http://www.w3.org/2000/svg" width="24" height="24" fill="none" viewBox="0 0 24 24">
  <g class="24x24/Outline/play_show_on_layout">
    <path fill="#B0B9C4" d="M15.85 12.425c.15-.1.225-.242.225-.425a.482.482 0 0 0-.225-.425L10.275 8a.445.445 0 0 0-.513-.025.487.487 0 0 0-.262.45v7.15c0 .2.088.35.262.45.175.1.346.092.513-.025l5.575-3.575ZM5 21c-.55 0-1.02-.196-1.413-.587A1.926 1.926 0 0 1 3 19V5c0-.55.196-1.02.587-1.413A1.926 1.926 0 0 1 5 3h14c.55 0 1.02.196 1.413.587.39.393.587.863.587 1.413v14c0 .55-.196 1.02-.587 1.413A1.926 1.926 0 0 1 19 21H5Zm0-2h14V5H5v14Z" class="Primary"/>
  </g>
</svg>
