<svg xmlns="http://www.w3.org/2000/svg" width="24" height="24" fill="none" viewBox="0 0 24 24">
  <g class="24x24/Outline/qr">
    <path fill="#fff" fill-rule="evenodd" d="M5 9V5h4v4H5ZM3 4a1 1 0 0 1 1-1h6a1 1 0 0 1 1 1v6a1 1 0 0 1-1 1H4a1 1 0 0 1-1-1V4Zm12 5V5h4v4h-4Zm-2-5a1 1 0 0 1 1-1h6a1 1 0 0 1 1 1v6a1 1 0 0 1-1 1h-6a1 1 0 0 1-1-1V4ZM5 15v4h4v-4H5Zm-1-2a1 1 0 0 0-1 1v6a1 1 0 0 0 1 1h6a1 1 0 0 0 1-1v-6a1 1 0 0 0-1-1H4Zm4-7H6v2h2V6ZM6 16h2v2H6v-2ZM18 6h-2v2h2V6Zm-5 7h2v2h-2v-2Zm4 2h-2v2h-2v2h2v2h2v-2h2v2h2v-2h-2v-2h2v-2h-2v-2h-2v2Zm0 2v2h-2v-2h2Zm0 0v-2h2v2h-2Z" class="Primary" clip-rule="evenodd"/>
  </g>
</svg>
