<svg xmlns="http://www.w3.org/2000/svg" width="24" height="24" fill="none" viewBox="0 0 24 24">
  <g class="24x24/Outline/re_centre">
    <path fill="#B0B9C4" d="M1 12a1 1 0 0 0 1 1h1.057A9 9 0 0 0 11 20.943V22a1 1 0 1 0 2 0v-1.057A9 9 0 0 0 20.942 13H22a1 1 0 1 0 0-2h-1.058A9 9 0 0 0 13 3.057V2a1 1 0 1 0-2 0v1.057A9 9 0 0 0 3.057 11H2a1 1 0 0 0-1 1Zm5 1a1 1 0 1 0 0-2h-.928A7.002 7.002 0 0 1 11 5.072V6a1 1 0 1 0 2 0v-.928A7.001 7.001 0 0 1 18.927 11H18a1 1 0 1 0 0 2h.927A7.001 7.001 0 0 1 13 18.928V18a1 1 0 1 0-2 0v.928A7.002 7.002 0 0 1 5.072 13H6Zm4-1a2 2 0 1 0 4 0 2 2 0 0 0-4 0Z" class="Primary"/>
  </g>
</svg>
