<svg xmlns="http://www.w3.org/2000/svg" width="24" height="24" fill="none" viewBox="0 0 24 24">
  <g class="24x24/Outline/refresh_auto">
    <path fill="#fff" fill-rule="evenodd" d="M3 2.4h2v3.943A8.978 8.978 0 0 1 12 3a9.004 9.004 0 0 1 8.488 6h-1.612a7.502 7.502 0 0 0-12.8-1.6H10v2H3v-7Zm16 12.2h-5v2h3.924A7.487 7.487 0 0 1 12 19.5V21a8.983 8.983 0 0 0 7-3.343V21.6h2v-7h-2ZM6.827 11.89h.41L9.88 19h-1.7l-.452-1.416H5.272L4.82 19H3.121l2.632-7.11h1.075Zm-1.163 4.463h1.67l-.836-2.613-.834 2.614Z" class="Primary" clip-rule="evenodd"/>
  </g>
</svg>
