<svg xmlns="http://www.w3.org/2000/svg" width="24" height="24" fill="none" viewBox="0 0 24 24">
  <g class="24x24/Outline/return_to_main_window">
    <path fill="#fff" fill-rule="evenodd" d="M4 3.5h17a.5.5 0 0 1 .5.5v16a.5.5 0 0 1-.5.5H4a.5.5 0 0 1-.5-.5V4a.5.5 0 0 1 .5-.5ZM2 4a2 2 0 0 1 2-2h17a2 2 0 0 1 2 2v16a2 2 0 0 1-2 2H4a2 2 0 0 1-2-2V4Zm7 6.5h9a.5.5 0 0 1 .5.5v6a.5.5 0 0 1-.5.5H9a.5.5 0 0 1-.5-.5v-6a.5.5 0 0 1 .5-.5ZM7 11a2 2 0 0 1 2-2h9a2 2 0 0 1 2 2v6a2 2 0 0 1-2 2H9a2 2 0 0 1-2-2v-6Z" class="Primary" clip-rule="evenodd"/>
  </g>
</svg>
