<svg xmlns="http://www.w3.org/2000/svg" width="24" height="24" fill="none" viewBox="0 0 24 24">
  <g class="24x24/Outline/selection">
    <path fill="#B0B9C4" d="M5.923 18.077h12.154v-2.436c0-.27.093-.498.28-.684a.936.936 0 0 1 .686-.278c.271 0 .499.093.682.278a.934.934 0 0 1 .275.684v2.436c0 .529-.188.981-.565 1.358-.377.377-.83.565-1.358.565H5.923a1.85 1.85 0 0 1-1.358-.565A1.851 1.851 0 0 1 4 18.077v-2.436c0-.27.093-.498.28-.684a.936.936 0 0 1 .686-.278c.271 0 .499.093.682.278a.934.934 0 0 1 .275.684v2.436Zm0-12.154v2.436c0 .27-.093.498-.28.684a.935.935 0 0 1-.686.278.921.921 0 0 1-.682-.278A.934.934 0 0 1 4 8.359V5.923c0-.529.188-.981.565-1.358.377-.377.83-.565 1.358-.565h12.154c.529 0 .981.188 1.358.565.377.377.565.83.565 1.358v2.436c0 .27-.093.498-.28.684a.935.935 0 0 1-.686.278.92.92 0 0 1-.682-.278.934.934 0 0 1-.275-.684V5.923H5.923Z" class="Primary"/>
  </g>
</svg>
