<svg xmlns="http://www.w3.org/2000/svg" width="24" height="24" fill="none" viewBox="0 0 24 24">
  <g class="24x24/Outline/settings">
    <path fill="#B0B9C4" d="M13.476 3c.804 0 1.533.566 1.676 1.396l.16.923c.07.404.537.713 1.019.538l.906-.328a1.713 1.713 0 0 1 2.052.724l1.476 2.469a1.663 1.663 0 0 1-.398 2.158l-.747.594a.66.66 0 0 0 0 1.052l.747.594c.65.517.83 1.434.398 2.158l-1.476 2.47a1.713 1.713 0 0 1-2.052.723l-.906-.328c-.482-.175-.95.134-1.02.538l-.159.922A1.695 1.695 0 0 1 13.476 21h-2.95a1.695 1.695 0 0 1-1.678-1.396l-.16-.923c-.07-.404-.537-.713-1.02-.538l-.904.328a1.714 1.714 0 0 1-2.053-.724l-1.476-2.469a1.663 1.663 0 0 1 .398-2.158l.747-.594a.66.66 0 0 0 0-1.052l-.747-.594a1.663 1.663 0 0 1-.398-2.158l1.476-2.47a1.714 1.714 0 0 1 2.053-.723l.905.328c.482.175.95-.134 1.02-.538l.159-.923A1.695 1.695 0 0 1 10.525 3h2.95Zm-2.703 2-.114.66c-.293 1.7-2.086 2.651-3.67 2.077l-.687-.248-1.199 2.005.522.415a2.659 2.659 0 0 1 0 4.182l-.522.415 1.199 2.005.686-.248c1.585-.574 3.378.377 3.671 2.078l.114.659h2.454l.114-.66c.293-1.7 2.086-2.651 3.67-2.077l.687.248 1.198-2.005-.521-.415a2.659 2.659 0 0 1 0-4.182l.521-.415-1.198-2.005-.686.248c-1.585.574-3.378-.377-3.671-2.078L13.227 5h-2.454ZM12 8.5a3.5 3.5 0 1 1 0 7 3.5 3.5 0 0 1 0-7Zm0 2a1.5 1.5 0 1 0 0 3 1.5 1.5 0 0 0 0-3Z" class="Primary"/>
  </g>
</svg>
