<svg xmlns="http://www.w3.org/2000/svg" width="24" height="24" fill="none" viewBox="0 0 24 24">
  <g class="24x24/Outline/settings">
    <path fill="#fff" fill-rule="evenodd" d="M12 14a2 2 0 1 0 0-4 2 2 0 0 0 0 4Zm0 2a4 4 0 1 0 0-8 4 4 0 0 0 0 8ZM11 5.93l-1.25.505c-.52.21-1.004.493-1.441.834L7.246 8.1l-1.674-.966-1 1.732 1.67.965-.185 1.334a6.073 6.073 0 0 0 0 1.67l.186 1.334-1.671.965 1 1.732 1.674-.966 1.063.83c.437.342.922.624 1.441.835l1.25.505V20h2v-1.93l1.25-.505a5.993 5.993 0 0 0 1.441-.834l1.063-.831 1.674.966 1-1.732-1.67-.965.184-1.334a6.067 6.067 0 0 0 0-1.67l-.185-1.334 1.671-.965-1-1.732-1.674.966-1.063-.83a5.993 5.993 0 0 0-1.441-.835L13 5.93V4h-2v1.93Zm6.928 11.802v-.001.001ZM7.078 5.694l-1.372-.792a1 1 0 0 0-1.366.366l-2 3.464a1 1 0 0 0 .366 1.366l1.37.791a8.073 8.073 0 0 0 0 2.222l-1.37.79a1 1 0 0 0-.366 1.367l2 3.464a1 1 0 0 0 1.366.366l1.371-.792A8.014 8.014 0 0 0 9 19.419V21a1 1 0 0 0 1 1h4a1 1 0 0 0 1-1v-1.581a7.994 7.994 0 0 0 1.923-1.113l1.371.792a1 1 0 0 0 1.366-.366l2-3.464a1 1 0 0 0-.366-1.366l-1.37-.791a8.07 8.07 0 0 0 0-2.222l1.37-.79a1 1 0 0 0 .366-1.367l-2-3.464a1 1 0 0 0-1.366-.366l-1.371.792A7.993 7.993 0 0 0 15 4.582V3a1 1 0 0 0-1-1h-4a1 1 0 0 0-1 1v1.582a7.991 7.991 0 0 0-1.923 1.112Z" class="Primary" clip-rule="evenodd"/>
  </g>
</svg>
