<svg xmlns="http://www.w3.org/2000/svg" width="24" height="24" fill="none" viewBox="0 0 24 24">
  <g class="24x24/Outline/show_on_layout">
    <path fill="#B0B9C4" d="M14.24 13.067a.385.385 0 0 1 .467.025l5.088 3.493A.48.48 0 0 1 20 17a.48.48 0 0 1-.205.415l-5.088 3.493a.385.385 0 0 1-.468.025.482.482 0 0 1-.239-.44v-6.986c0-.195.08-.342.24-.44ZM19.2 4c.994 0 1.8.796 1.8 1.777V8c0 .982-.806 1.777-1.8 1.777v3.114c0 .335-.026.665-.071.989L17.4 12.722V9.777H6.602l.002 3.118C6.606 15.837 9.02 18.22 12 18.221v1.777c-3.972-.001-7.193-3.18-7.196-7.102l-.002-3.12H4.8A1.787 1.787 0 0 1 3 8V5.777C3 4.796 3.806 4 4.8 4h14.4ZM4.8 8h14.4V5.777H4.8V8Z" class="Primary"/>
  </g>
</svg>
