<svg xmlns="http://www.w3.org/2000/svg" width="24" height="24" fill="none" viewBox="0 0 24 24">
  <g class="24x24/Outline/site">
    <path fill="#B0B9C4" d="M11.337 7.587a1 1 0 0 1 1.327 0l6 5.315c.213.19.336.463.336.749V20l-.004.102c-.048.47-.423.844-.893.892L18 21H6l-.102-.005a1.001 1.001 0 0 1-.893-.892L5 20v-6.35a1 1 0 0 1 .337-.748l6-5.315ZM7 14.1V19h10v-4.9l-5-4.429L7 14.1Zm4.667-11.802a.5.5 0 0 1 .667 0l9.833 8.799.073.072a1 1 0 0 1-1.407 1.418l-8.499-7.605a.5.5 0 0 0-.667 0l-8.5 7.605a1 1 0 0 1-1.334-1.49l9.834-8.799Z" class="Primary"/>
  </g>
</svg>
