<svg xmlns="http://www.w3.org/2000/svg" width="24" height="24" fill="none" viewBox="0 0 24 24">
  <g class="24x24/Outline/super_admin">
    <path fill="#B0B9C4" d="M14 17a3 3 0 0 1 3 3v1h-2v-1a1 1 0 0 0-1-1h-4a1 1 0 0 0-1 1v1H7v-1a3 3 0 0 1 3-3h4Zm-.525-14c.805 0 1.535.566 1.678 1.396l.158.923c.07.404.538.713 1.02.538l.906-.328a1.714 1.714 0 0 1 2.053.724l1.474 2.469a1.664 1.664 0 0 1-.397 2.158l-.747.594a.66.66 0 0 0 0 1.052l.747.594c.65.517.83 1.434.397 2.158l-.894 1.498a1 1 0 1 1-1.717-1.025l.743-1.245-.521-.415a2.66 2.66 0 0 1 0-4.182l.521-.415L17.7 7.49l-.688.248c-1.584.574-3.377-.377-3.67-2.078L13.226 5h-2.454l-.113.66c-.294 1.7-2.087 2.65-3.671 2.077L6.3 7.49 5.104 9.494l.522.415a2.66 2.66 0 0 1 0 4.182l-.522.415.744 1.245a1 1 0 0 1-1.717 1.025l-.895-1.498a1.664 1.664 0 0 1 .397-2.158l.747-.594a.66.66 0 0 0 0-1.052l-.747-.594a1.664 1.664 0 0 1-.397-2.158l1.475-2.47a1.714 1.714 0 0 1 2.052-.723l.907.328c.482.175.948-.135 1.018-.538l.16-.923A1.696 1.696 0 0 1 10.524 3h2.95ZM12 8.5a3.5 3.5 0 1 1 0 7 3.5 3.5 0 0 1 0-7Zm0 2a1.5 1.5 0 1 0 0 3 1.5 1.5 0 0 0 0-3Z" class="Primary"/>
  </g>
</svg>
