<svg xmlns="http://www.w3.org/2000/svg" width="56" height="56" fill="none" viewBox="0 0 56 56">
  <g class="56x56/Outline/bookmarks">
    <path fill="#E1E7EA" fill-rule="evenodd" d="M17.998 8.5h19.997a2.5 2.5 0 0 1 2.5 2.5v35.312l-11.186-6.901a2.5 2.5 0 0 0-2.625 0l-11.186 6.901V11a2.5 2.5 0 0 1 2.5-2.5Zm-4 2.5a4 4 0 0 1 4-4h19.997a4 4 0 0 1 4 4v5.727l.039.016 1.416.552 5.56 2.25a4 4 0 0 1 2.208 5.209l-9.12 22.543-.08.197a.837.837 0 0 1-.22.311 1 1 0 0 1-1.328.254l-11.948-7.371a1 1 0 0 0-1.05 0l-11.949 7.371a1.001 1.001 0 0 1-1.391-.35.846.846 0 0 1-.128-.215l-.08-.197-9.12-22.543a4 4 0 0 1 2.208-5.209l5.56-2.25 1.417-.552.01-.004V11Zm-.013 7.354-.053 24.961-7.737-19.124a2.5 2.5 0 0 1 1.38-3.255l5.551-2.247.86-.335Zm28.052 0 .054 24.961 7.737-19.124a2.5 2.5 0 0 0-1.38-3.255l-5.552-2.247-.859-.335Z" class="Primary" clip-rule="evenodd"/>
  </g>
</svg>
