<svg xmlns="http://www.w3.org/2000/svg" width="56" height="56" fill="none" viewBox="0 0 56 56">
  <g class="56x56/Outline/bookmarks">
    <path fill="#E1E7EA" fill-rule="evenodd" d="M18 8.5h20a2.5 2.5 0 0 1 2.5 2.5v35.312l-11.187-6.901a2.5 2.5 0 0 0-2.625 0L15.5 46.312V11A2.5 2.5 0 0 1 18 8.5ZM14 11a4 4 0 0 1 4-4h20a4 4 0 0 1 4 4v5.727l.04.016 1.416.552 5.561 2.25a4 4 0 0 1 2.208 5.209l-9.122 22.543-.08.197a.837.837 0 0 1-.22.311 1 1 0 0 1-1.328.254l-11.95-7.371a1 1 0 0 0-1.05 0l-11.95 7.371a1.001 1.001 0 0 1-1.392-.35.847.847 0 0 1-.127-.215l-.08-.197-9.122-22.543a4 4 0 0 1 2.208-5.209l5.562-2.25 1.416-.552.01-.004V11Zm-.013 7.354-.054 24.961-7.738-19.124a2.5 2.5 0 0 1 1.38-3.255l5.553-2.247.859-.335Zm28.056 0 .053 24.961 7.739-19.124a2.5 2.5 0 0 0-1.38-3.255l-5.553-2.247-.86-.335Z" class="Primary" clip-rule="evenodd"/>
  </g>
</svg>
