<svg xmlns="http://www.w3.org/2000/svg" width="56" height="56" fill="none" viewBox="0 0 56 56">
  <g class="56x56/Outline/event_log">
    <path fill="#E1E7EA" fill-rule="evenodd" d="M12.745 8.257v3.118h1.5V8.257h27.51v3.118h1.5V8.257h2.414c1.701 0 2.856 1.141 2.856 2.294v26.79c0 1.154-1.155 2.295-2.856 2.295h-5.91c-.364-1.943-.606-4.446-.606-7.667v-.036c-.015-4.833-2.825-9.012-6.853-10.782v-3.605c0-2.326-1.81-4.295-4.11-4.295h-.379c-2.3 0-4.11 1.97-4.11 4.295v3.605c-4.04 1.773-6.854 5.97-6.854 10.818 0 3.221-.242 5.724-.607 7.667h-5.909c-1.701 0-2.856-1.141-2.856-2.294v-26.79c0-1.154 1.155-2.295 2.856-2.295h2.414Zm3.163 32.879h-5.577c-2.282 0-4.356-1.585-4.356-3.794v-26.79c0-2.21 2.074-3.795 4.356-3.795h2.414V3.639h1.5v3.118h27.51V3.639h1.5v3.118h2.414c2.282 0 4.356 1.585 4.356 3.794v26.79c0 2.21-2.074 3.795-4.356 3.795h-5.577c.377 1.461.825 2.513 1.258 3.266.526.911 1.03 1.384 1.365 1.623.169.12.3.184.375.216a.768.768 0 0 0 .073.027h.002a.75.75 0 0 1-.167 1.482h-9.336c.05.322.077.652.077.988 0 3.281-2.532 6.01-5.738 6.01-3.206 0-5.738-2.729-5.738-6.01 0-.336.026-.666.077-.988h-9.338a.75.75 0 0 1-.168-1.481h.002a.768.768 0 0 0 .073-.028 2 2 0 0 0 .376-.216c.335-.24.84-.712 1.365-1.623.433-.753.881-1.805 1.258-3.266ZM30.8 17.546v3.075a10.679 10.679 0 0 0-2.8-.371c-.968 0-1.906.129-2.8.37v-3.074c0-1.574 1.214-2.795 2.611-2.795h.378c1.398 0 2.611 1.221 2.611 2.795ZM23.85 47.82a.76.76 0 0 0 .01-.071h8.277c.067.317.102.648.102.988 0 2.53-1.934 4.51-4.238 4.51-2.304 0-4.238-1.98-4.238-4.51 0-.315.03-.622.087-.917Zm-8.652-1.571c.248-.303.501-.666.751-1.1 1.24-2.152 2.398-6.058 2.398-13.18 0-5.683 4.359-10.22 9.652-10.22 5.295 0 9.653 4.537 9.653 10.22v.039c.005 7.097 1.16 10.993 2.398 13.142.25.433.504.796.752 1.099H15.197Zm-1.173-16.454c.326-3.964 1.659-6.873 4.859-8.927.341-.22.441-.69.223-1.051-.22-.361-.673-.476-1.015-.257-3.672 2.358-5.175 5.752-5.53 10.069-.035.42.265.798.669.844a.723.723 0 0 0 .794-.678Zm23.038-8.926c3.201 2.054 4.535 4.963 4.862 8.925.035.42.39.723.795.678.404-.046.704-.423.67-.843-.357-4.316-1.861-7.71-5.535-10.067-.342-.22-.797-.104-1.015.257-.219.36-.12.831.223 1.05Z" class="Primary" clip-rule="evenodd"/>
  </g>
</svg>
