<svg xmlns="http://www.w3.org/2000/svg" width="240" height="240" fill="none" viewBox="0 0 240 240">
  <g class="illustrations/240x240/nx_connect_placeholder">
    <path fill="#263137" d="M120 208c46.392 0 84-37.608 84-84s-37.608-84-84-84-84 37.608-84 84 37.608 84 84 84Z" class="Primary"/>
    <path fill="#3A4D57" fill-rule="evenodd" d="M75.636 47.985C88.66 40.366 103.82 36 120 36c16.309 0 31.581 4.436 44.676 12.168-14.297 4.82-26.877 10.83-37.823 17.997A8.98 8.98 0 0 0 120 63a8.963 8.963 0 0 0-5.962 2.258c-11.601-7.363-24.504-13.213-38.402-17.273Zm36.067 20.522c-12.186-7.705-25.858-13.7-40.65-17.65-19.892 13.339-34.043 34.578-37.959 59.227 15.753-3.027 31.337-4.209 46.655-3.684A9.002 9.002 0 0 1 88 101c1.116 0 2.184.203 3.17.574 5.907-9.07 13.006-17.265 21.353-24.564A8.955 8.955 0 0 1 111 72c0-1.239.25-2.42.703-3.493Zm3.746 11.26c-8.223 7.143-15.178 15.158-20.943 24.014a8.99 8.99 0 0 1 2.193 3.902c20.831 2.444 41.086 8.035 60.511 16.409a9.06 9.06 0 0 1 2.503-2.008c-7.859-16.648-19.413-31.335-33.819-43.282A8.966 8.966 0 0 1 120 81a8.96 8.96 0 0 1-4.551-1.234Zm12.812-4.19c15.115 12.491 27.217 27.915 35.371 45.43a8.974 8.974 0 0 1 3.425.526c11.421-15.951 19.11-33.841 20.771-53.603a88.468 88.468 0 0 0-19.019-17.165l.074.23c-15.379 4.928-28.723 11.19-40.172 18.735A8.99 8.99 0 0 1 129 72a8.98 8.98 0 0 1-.739 3.578Zm-95.73 38.692c15.689-3.117 31.213-4.368 46.477-3.891a8.987 8.987 0 0 0 3.558 6.797c-9.483 20.533-14.035 44.579-14.32 71.856a8.968 8.968 0 0 0-5.104 2.136C44.092 175.025 32 150.925 32 124c0-3.289.18-6.536.532-9.731Zm39.71 75.332a9.029 9.029 0 0 1 3.25 2.164c23.975-11.298 49.858-26.928 70.766-46.668a179.077 179.077 0 0 0 10.111-10.325A8.955 8.955 0 0 1 155 130c0-.82.11-1.614.315-2.369-18.802-8.072-38.374-13.483-58.48-15.903a9.003 9.003 0 0 1-10.624 7.094c-9.259 20.037-13.743 43.679-13.97 70.779ZM78 198a8.981 8.981 0 0 1-.533 3.057C90.074 208.031 104.573 212 120 212c3.044 0 6.052-.155 9.016-.456a9 9 0 0 1 4.763-8.495c-2.411-7.159-3.903-12.963-4.562-18.766-.71-6.247-.445-12.411.588-20.173-16.75 12.566-35.004 22.952-52.245 31.102.285.878.44 1.815.44 2.788Zm59.649 4.007a9.004 9.004 0 0 1 8.821 5.942 87.617 87.617 0 0 0 23.067-11.206c3.415-20.529 1.995-40.122-3.41-57.996a9.034 9.034 0 0 1-6.933-1.136 184.19 184.19 0 0 1-10.191 10.395 216.454 216.454 0 0 1-14.653 12.61c-1.483 9.623-1.931 16.416-1.159 23.215.623 5.486 2.049 11.05 4.458 18.176Zm9.297 9.984C184.609 200.471 212 165.434 212 124c0-50.81-41.19-92-92-92s-92 41.19-92 92c0 28.241 12.725 53.511 32.755 70.387A8.97 8.97 0 0 0 60 198a9 9 0 0 0 15.298 6.429C88.533 211.8 103.776 216 120 216c3.438 0 6.832-.189 10.172-.556a9.001 9.001 0 0 0 16.774-3.453Zm22.813-75.074c5.385 17.45 7.083 36.514 4.329 56.503 12.775-9.967 22.727-23.384 28.457-38.851-10.092-7.275-20.516-13.741-31.225-19.332a9.08 9.08 0 0 1-1.561 1.68Zm3.111-5.382c10.642 5.537 21.002 11.92 31.032 19.085A87.955 87.955 0 0 0 208 124c0-19.23-6.168-37.02-16.634-51.497-2.4 18.868-10.057 35.95-20.941 51.195A8.968 8.968 0 0 1 173 130c0 .523-.045 1.036-.13 1.535Z" class="Secondary" clip-rule="evenodd"/>
    <path fill="#587787" fill-rule="evenodd" d="M135 35.56c0-8.594-6.716-15.56-15-15.56-8.284 0-15 6.966-15 15.56C105 44.151 119.5 60 119.5 60S135 44.152 135 35.56Zm-32 39C103 65.965 96.284 59 88 59c-8.284 0-15 6.966-15 15.56C73 83.151 87.5 99 87.5 99S103 83.152 103 74.56ZM69 146c8.284 0 15 6.966 15 15.559S68.5 186 68.5 186 54 170.152 54 161.559C54 152.966 60.716 146 69 146Zm84 27.559c0-8.593-6.716-15.559-15-15.559-8.284 0-15 6.966-15 15.559S137.5 198 137.5 198s15.5-15.848 15.5-24.441ZM166 77c8.284 0 15 6.966 15 15.56 0 8.592-15.5 24.44-15.5 24.44S151 101.152 151 92.56c0-8.594 6.716-15.56 15-15.56Z" class="Tertiary" clip-rule="evenodd"/>
    <path fill="#4E6977" fill-rule="evenodd" d="M133 36.003C133 28.27 127.18 22 120 22s-13 6.27-13 14.003C107 43.737 119.567 57 119.567 57S133 43.737 133 36.003Zm-32 39C101 67.27 95.18 61 88 61s-13 6.27-13 14.003C75 82.737 87.567 96 87.567 96S101 82.737 101 75.003ZM69 148c7.18 0 13 6.269 13 14.003S68.567 183 68.567 183 56 169.737 56 162.003 61.82 148 69 148Zm82 26.003c0-7.734-5.82-14.003-13-14.003s-13 6.269-13 14.003S137.567 195 137.567 195 151 181.737 151 174.003ZM166 79c7.18 0 13 6.27 13 14.003 0 7.734-13.433 20.997-13.433 20.997S153 100.737 153 93.003 158.82 79 166 79Z" class="Quaternary" clip-rule="evenodd"/>
    <path fill="#fff" fill-rule="evenodd" d="m120.207 28 .707.707 7.5 7.5L127 37.621l-6.793-6.793-6.793 6.793L112 36.207l7.5-7.5.707-.707Zm-6 10.584c0-.134.053-.261.148-.355l5.852-5.815 5.848 5.662a.5.5 0 0 1 .152.36v2.978h-12v-2.83ZM125 72a5 5 0 1 1-10 0 5 5 0 0 1 10 0Zm-37 43a5 5 0 1 0 0-10 5 5 0 0 0 0 10Zm76 20a5 5 0 1 0-.001-10.001A5 5 0 0 0 164 135Zm-26 81a5 5 0 1 0-.001-10.001A5 5 0 0 0 138 216Zm-64-18a5 5 0 1 1-10 0 5 5 0 0 1 10 0ZM88.207 67l.707.707 7.5 7.5L95 76.621l-6.793-6.793-6.793 6.793L80 75.207l7.5-7.5.707-.707Zm-6 10.584a.5.5 0 0 1 .148-.355l5.852-5.815 5.848 5.662a.5.5 0 0 1 .152.36v2.978h-12v-2.83Zm-12.293 77.123-.707-.707-.707.707-7.5 7.5 1.414 1.414 6.793-6.793L76 163.621l1.414-1.414-7.5-7.5Zm-6.56 9.522a.5.5 0 0 0-.147.355v2.83h12v-2.978a.502.502 0 0 0-.152-.36l-5.848-5.662-5.852 5.815Zm75.56 2.478-.707-.707-.707.707-7.5 7.5 1.414 1.414 6.793-6.793 6.793 6.793 1.414-1.414-7.5-7.5Zm-6.559 9.522a.498.498 0 0 0-.148.355v2.83h12v-2.978a.503.503 0 0 0-.152-.36l-5.848-5.662-5.852 5.815ZM166.207 85l.707.707 7.5 7.5L173 94.621l-6.793-6.793-6.793 6.793L158 93.207l7.5-7.5.707-.707Zm-6 10.584a.5.5 0 0 1 .148-.355l5.852-5.815 5.848 5.662a.5.5 0 0 1 .152.36v2.978h-12v-2.83Z" class="Quinary" clip-rule="evenodd"/>
  </g>
</svg>
