<?xml version="1.0" encoding="utf-8"?>
<!-- Generator: Adobe Illustrator 19.2.0, SVG Export Plug-In . SVG Version: 6.00 Build 0)  -->
<svg version="1.1" id="Layer_1" xmlns="http://www.w3.org/2000/svg" xmlns:xlink="http://www.w3.org/1999/xlink" x="0px" y="0px"
	 viewBox="0 0 20 20" style="enable-background:new 0 0 20 20;" xml:space="preserve">
<style type="text/css">
	.st0{fill:#A5B7C0;}
</style>
<g>
	<path class="st0" d="M5.5,3C5.2,3,5,2.8,5,2.5v-1C5,1.2,5.2,1,5.5,1S6,1.2,6,1.5v1C6,2.8,5.8,3,5.5,3z"/>
	<path class="st0" d="M8.5,3C8.2,3,8,2.8,8,2.5v-1C8,1.2,8.2,1,8.5,1S9,1.2,9,1.5v1C9,2.8,8.8,3,8.5,3z"/>
	<path class="st0" d="M11.5,3C11.2,3,11,2.8,11,2.5v-1C11,1.2,11.2,1,11.5,1S12,1.2,12,1.5v1C12,2.8,11.8,3,11.5,3z"/>
	<path class="st0" d="M14.5,3C14.2,3,14,2.8,14,2.5v-1C14,1.2,14.2,1,14.5,1S15,1.2,15,1.5v1C15,2.8,14.8,3,14.5,3z"/>
</g>
<g>
	<path class="st0" d="M5.5,19C5.2,19,5,18.8,5,18.5v-1C5,17.2,5.2,17,5.5,17S6,17.2,6,17.5v1C6,18.8,5.8,19,5.5,19z"/>
	<path class="st0" d="M8.5,19C8.2,19,8,18.8,8,18.5v-1C8,17.2,8.2,17,8.5,17S9,17.2,9,17.5v1C9,18.8,8.8,19,8.5,19z"/>
	<path class="st0" d="M11.5,19c-0.3,0-0.5-0.2-0.5-0.5v-1c0-0.3,0.2-0.5,0.5-0.5s0.5,0.2,0.5,0.5v1C12,18.8,11.8,19,11.5,19z"/>
	<path class="st0" d="M14.5,19c-0.3,0-0.5-0.2-0.5-0.5v-1c0-0.3,0.2-0.5,0.5-0.5s0.5,0.2,0.5,0.5v1C15,18.8,14.8,19,14.5,19z"/>
</g>
<g>
	<path class="st0" d="M2.5,9h-1C1.2,9,1,8.8,1,8.5S1.2,8,1.5,8h1C2.8,8,3,8.2,3,8.5S2.8,9,2.5,9z"/>
	<path class="st0" d="M2.5,6h-1C1.2,6,1,5.8,1,5.5S1.2,5,1.5,5h1C2.8,5,3,5.2,3,5.5S2.8,6,2.5,6z"/>
	<path class="st0" d="M2.5,15h-1C1.2,15,1,14.8,1,14.5S1.2,14,1.5,14h1C2.8,14,3,14.2,3,14.5S2.8,15,2.5,15z"/>
	<path class="st0" d="M2.5,12h-1C1.2,12,1,11.8,1,11.5S1.2,11,1.5,11h1C2.8,11,3,11.2,3,11.5S2.8,12,2.5,12z"/>
</g>
<g>
	<path class="st0" d="M18.5,15h-1c-0.3,0-0.5-0.2-0.5-0.5s0.2-0.5,0.5-0.5h1c0.3,0,0.5,0.2,0.5,0.5S18.8,15,18.5,15z"/>
	<path class="st0" d="M18.5,12h-1c-0.3,0-0.5-0.2-0.5-0.5s0.2-0.5,0.5-0.5h1c0.3,0,0.5,0.2,0.5,0.5S18.8,12,18.5,12z"/>
	<path class="st0" d="M18.5,9h-1C17.2,9,17,8.8,17,8.5S17.2,8,17.5,8h1C18.8,8,19,8.2,19,8.5S18.8,9,18.5,9z"/>
	<path class="st0" d="M18.5,6h-1C17.2,6,17,5.8,17,5.5S17.2,5,17.5,5h1C18.8,5,19,5.2,19,5.5S18.8,6,18.5,6z"/>
</g>
<path class="st0" d="M14,6v8H6V6H14 M15,4H5C4.4,4,4,4.4,4,5v10c0,0.6,0.4,1,1,1h10c0.6,0,1-0.4,1-1V5C16,4.4,15.6,4,15,4L15,4z"/>
</svg>
