<svg xmlns="http://www.w3.org/2000/svg" width="52" height="24" fill="none" viewBox="0 0 52 24">
  <g class="52x24/Solid/calendar">
    <rect width="52" height="24" fill="#212A2F" class="Secondary" rx="2"/>
    <path fill="#171C1F" d="M2 8h2v8H2z" class="Tertiary"/>
    <path fill="#FFFFFF" fill-rule="evenodd" d="M24 6h-1v.7h-2.25a.75.75 0 0 0-.75.75v9.75c0 .414.336.75.75.75h10.5a.75.75 0 0 0 .75-.75V7.45a.75.75 0 0 0-.75-.75H30v1h1v1.75H21V7.7h2v.55h1V6Zm1 .7v1h3v.55h1V6h-1v.7h-3Zm-4 10.25v-6.5h10v6.5H21Z" class="Primary" clip-rule="evenodd"/>
  </g>
</svg>
