<svg xmlns="http://www.w3.org/2000/svg" width="52" height="24" fill="none" viewBox="0 0 52 24">
  <g class="52x24/Solid/live">
    <rect width="52" height="24" fill="#212A2F" class="Secondary" rx="2"/>
    <path fill="#171C1F" d="M2 8h2v8H2z" class="Tertiary"/>
    <path fill="#FFFFFF" d="M19.344 15.365v1.166H15.06v-1.166h4.284ZM15.47 8v8.531H14V8h1.47Zm6.58 0v8.531h-1.47V8h1.47Zm4.753 6.973L29.047 8h1.623l-3.059 8.531h-1.095l.287-1.558ZM24.728 8l2.227 6.973.305 1.558h-1.102L23.111 8h1.617Zm12.481 7.365v1.166h-4.53v-1.166h4.53ZM33.096 8v8.531h-1.471V8h1.47Zm3.521 3.563v1.148H32.68v-1.149h3.937ZM37.18 8v1.172h-4.5V8h4.5Z" class="Primary"/>
  </g>
</svg>
