<svg xmlns="http://www.w3.org/2000/svg" width="52" height="24" fill="none" viewBox="0 0 52 24">
  <g class="52x24/Solid/sync">
    <rect width="52" height="24" fill="#212A2F" class="Secondary" rx="2"/>
    <path fill="#171C1F" d="M2 8h2v8H2z" class="Tertiary"/>
    <path fill="#FFFFFF" d="M15.916 14.451a1.25 1.25 0 0 0-.082-.469.916.916 0 0 0-.275-.375 2.272 2.272 0 0 0-.563-.328 7.47 7.47 0 0 0-.914-.334 10.15 10.15 0 0 1-1.125-.416 4.28 4.28 0 0 1-.89-.539 2.304 2.304 0 0 1-.592-.709 1.981 1.981 0 0 1-.211-.931c0-.348.072-.664.216-.95.149-.285.358-.53.627-.738a3 3 0 0 1 .967-.486A4.072 4.072 0 0 1 14.304 8c.633 0 1.178.117 1.636.352.46.234.814.548 1.06.943.25.394.375.83.375 1.307h-1.459c0-.282-.06-.53-.182-.745a1.232 1.232 0 0 0-.539-.515c-.238-.125-.54-.188-.908-.188-.348 0-.637.053-.867.159-.23.105-.402.248-.516.427-.113.18-.17.383-.17.61 0 .16.037.306.112.44.074.128.187.25.34.362.152.11.343.213.574.31.23.098.502.192.814.282.473.14.885.297 1.236.469.352.168.645.36.88.574.234.215.41.46.527.732.117.27.176.577.176.92 0 .36-.073.684-.217.973a2.1 2.1 0 0 1-.621.732 2.97 2.97 0 0 1-.961.463 4.539 4.539 0 0 1-1.242.159c-.41 0-.815-.055-1.213-.164a3.578 3.578 0 0 1-1.079-.498 2.574 2.574 0 0 1-.773-.844c-.191-.34-.287-.737-.287-1.19h1.47c0 .278.048.514.141.71.098.195.233.355.405.48.171.12.37.21.597.27.23.058.477.087.739.087.343 0 .63-.049.86-.146a1.14 1.14 0 0 0 .528-.41c.117-.176.176-.38.176-.61Zm3.592-6.334 1.98 4.072 1.98-4.072h1.63l-2.871 5.39v3.141h-1.483v-3.14l-2.871-5.39h1.635Zm13.289 0v8.531h-1.47l-3.827-6.11v6.11h-1.47v-8.53h1.47l3.838 6.122V8.117h1.459Zm6.791 5.754h1.465a3.38 3.38 0 0 1-.469 1.494 2.79 2.79 0 0 1-1.12 1.026c-.48.25-1.064.375-1.751.375a3.469 3.469 0 0 1-1.424-.282 3.122 3.122 0 0 1-1.084-.808 3.657 3.657 0 0 1-.691-1.272 5.524 5.524 0 0 1-.235-1.664v-.709c0-.613.08-1.168.24-1.664a3.68 3.68 0 0 1 .704-1.271c.304-.356.67-.627 1.095-.815.43-.187.913-.281 1.448-.281.68 0 1.254.125 1.722.375.469.25.832.596 1.09 1.037.262.442.422.947.48 1.518h-1.464a2.708 2.708 0 0 0-.258-.944 1.329 1.329 0 0 0-.574-.597c-.254-.141-.586-.211-.996-.211-.336 0-.63.062-.88.187s-.458.309-.626.551a2.653 2.653 0 0 0-.381.896 5.34 5.34 0 0 0-.123 1.208v.72c0 .43.037.82.111 1.172.078.348.196.647.352.897.16.25.363.443.61.58.245.136.54.205.884.205.418 0 .756-.067 1.014-.2.261-.132.459-.326.591-.58a2.66 2.66 0 0 0 .27-.943Z" class="Primary"/>
  </g>
</svg>
