<svg xmlns="http://www.w3.org/2000/svg" width="128" height="128" fill="none" viewBox="0 0 128 128">
  <g class="128x128/Outline/backup_placeholder">
    <path fill="#53707F" fill-rule="evenodd" d="m64 9 .73.002.364.002.363.002 1.445.019.717.014.715.017 1.418.043 1.055.04 1.046.047 1.381.073.343.02.342.02 1.357.09 1.34.102 1.322.113 1.303.123 1.285.135.318.035.316.036 1.254.15.62.08.613.082 1.211.171.598.09.591.092 1.166.191c12.053 2.054 20.192 5.724 20.756 10.212L108 21v87h-.031c-.565 4.488-8.704 8.157-20.756 10.211l-1.166.191c-.392.062-.789.123-1.189.182l-1.21.171c-.408.056-.82.109-1.234.161l-1.254.151-.634.071-1.285.135-1.303.123-1.322.113-1.34.101-1.357.09-.685.041-1.381.073c-.695.033-1.395.062-2.1.087l-1.42.043c-.474.012-.952.023-1.431.031l-1.445.019a176.201 176.201 0 0 1-2.914 0l-1.445-.019a166.5 166.5 0 0 1-1.432-.031l-1.418-.043a174.31 174.31 0 0 1-2.1-.087l-1.382-.073a144.96 144.96 0 0 1-.685-.041l-1.357-.09-1.34-.101-1.322-.113-1.303-.123-1.285-.135-1.264-.145c-.627-.075-1.246-.155-1.857-.238l-1.211-.171c-.4-.059-.797-.12-1.19-.182l-1.165-.191c-12.052-2.054-20.19-5.723-20.756-10.21L20 108V21h.031c.556-4.425 8.481-8.056 20.263-10.125l.493-.086 1.166-.191.591-.092.598-.09 1.21-.171.924-.122.934-.116 1.264-.145 1.285-.135 1.303-.123 1.322-.113 1.34-.101 1.357-.09.342-.021.343-.02 1.381-.073 1.046-.047 1.055-.04 1.418-.043.715-.017.717-.014 1.445-.019C63.027 9.002 63.513 9 64 9Zm42.001 85.373c-3.173 2.942-9.922 5.327-18.788 6.838l-1.166.191c-.392.062-.789.123-1.189.182l-1.21.171c-.408.056-.82.109-1.234.161l-1.254.151-.634.071-1.285.135-1.303.123-1.322.113-1.34.101-1.357.09-.685.041-1.381.073c-.695.033-1.395.062-2.1.087l-1.42.043c-.474.012-.952.023-1.431.031l-1.445.019a176.201 176.201 0 0 1-2.914 0l-1.445-.019a166.5 166.5 0 0 1-1.432-.031l-1.418-.043a174.31 174.31 0 0 1-2.1-.087l-1.382-.073a144.96 144.96 0 0 1-.685-.041l-1.357-.09-1.34-.101-1.322-.113-1.303-.123-1.285-.135-1.264-.145c-.627-.075-1.246-.155-1.857-.238l-1.211-.171c-.4-.059-.797-.12-1.19-.182l-1.165-.191c-8.865-1.51-15.613-3.896-18.787-6.837V107.5c0 2.67 4.534 5.245 11.878 7.176l.913.233.941.227.967.22.994.212 1.018.206c.516.1 1.04.198 1.574.293l1.079.186 1.101.178.56.086 1.133.166.576.079 1.165.152.59.073 1.196.139 1.215.129.614.061 1.241.115 1.259.105 1.275.095 1.291.085.651.038 1.314.069c.22.01.44.021.662.03l1.334.052c.447.016.896.03 1.347.041l1.36.03.683.01 1.377.012L64 118l.692-.002 1.377-.012.684-.01 1.36-.03c.45-.011.9-.025 1.346-.041l1.334-.052 1.32-.063c.22-.012.438-.023.656-.036l1.298-.079.644-.044 1.275-.095 1.259-.105 1.241-.115.614-.061 1.215-.129 1.195-.139 1.176-.148.58-.077 1.145-.161c.379-.055.753-.112 1.124-.17l1.102-.178 1.078-.186c.534-.095 1.058-.193 1.574-.293l1.018-.206.994-.212.967-.22.94-.227.914-.233c7.194-1.892 11.692-4.401 11.872-7.013l.006-.163.001-13.127Zm0-69c-3.105 2.879-9.636 5.225-18.225 6.74l-.563.098-1.166.191-.591.092-.598.09-1.21.171-.923.122-.935.116-1.264.145-1.285.135-1.303.123-1.322.113-1.34.101-1.357.09-.342.021-.343.02-1.381.073-1.046.047-1.055.04-1.418.043-.715.017-.717.014-1.445.019c-.484.004-.97.006-1.457.006l-.73-.002-.727-.004-1.445-.019-.717-.014-.715-.017-1.418-.043-1.055-.04-1.046-.047-1.381-.073-.343-.02-.342-.02-1.357-.09-1.34-.102-1.322-.113-1.303-.123-1.285-.135-.318-.035-.316-.036-1.254-.15-.62-.08-.613-.082-1.211-.171-.598-.09-.591-.092-1.166-.191C31.922 30.7 25.173 28.315 22 25.374V38.5c0 2.67 4.534 5.245 11.878 7.176l.913.233.941.227.967.22.994.212 1.018.206c.516.1 1.04.198 1.574.293l1.079.187 1.101.177c.185.03.372.058.56.086l1.133.166.576.079 1.165.152c.196.025.393.05.59.073l1.196.139 1.215.13.614.06 1.241.115.523.044A24.884 24.884 0 0 1 64 45a24.89 24.89 0 0 1 12.722 3.474l.523-.043 1.241-.115.614-.06 1.215-.13 1.195-.139 1.176-.148c.194-.025.388-.05.58-.077l1.145-.161c.379-.055.753-.112 1.124-.17l1.102-.177 1.078-.187a94.873 94.873 0 0 0 1.574-.293l1.018-.206.994-.212.967-.22.94-.227.914-.233c7.194-1.892 11.692-4.4 11.872-7.013L106 38.5l.001-13.127ZM47.474 50.138l1.181.124a25 25 0 0 0-9.14 14.665c-.27-.05-.538-.101-.804-.153l-1.018-.206-.994-.212-.967-.22-.94-.226-.914-.234C26.534 61.745 22 59.17 22 56.5V42.374c3.174 2.941 9.922 5.326 18.787 6.837l1.166.191c.392.062.789.123 1.189.182l1.21.171c.612.083 1.231.163 1.858.238l1.264.145ZM22 60.374c2.98 2.762 9.111 5.033 17.187 6.55A25.257 25.257 0 0 0 39 70c0 4.514 1.196 8.749 3.29 12.404l-.926-.15-1.08-.187a94.873 94.873 0 0 1-1.573-.293l-1.018-.206-.994-.212-.967-.22-.94-.227-.914-.233C26.534 78.745 22 76.17 22 73.5V60.374Zm21.142 24.21.613.087C48.3 90.93 55.675 95 64 95c8.326 0 15.701-4.07 20.245-10.329l.613-.087c.4-.059.797-.12 1.19-.182l1.165-.191C96.08 82.7 102.828 80.315 106 77.373V90.5l-.006.163c-.18 2.612-4.678 5.121-11.872 7.013l-.913.233-.941.227-.967.22-.994.212-1.018.206c-.516.1-1.04.198-1.574.293l-1.079.186-1.101.178c-.37.058-.745.115-1.124.17l-1.145.161-.58.077-1.176.148-1.195.139-1.215.129-.614.061-1.241.115-1.259.105-1.275.095-.644.044-1.298.079c-.218.013-.436.024-.655.036l-1.32.063-1.335.052c-.447.016-.896.03-1.347.041l-1.36.03-.683.01-1.377.012L64 101l-.692-.002-1.377-.012-.684-.01-1.36-.03c-.45-.011-.9-.025-1.346-.041l-1.334-.052c-.221-.009-.442-.02-.662-.03l-1.314-.069-.65-.038-1.292-.085-1.275-.095-1.259-.105-1.241-.115-.614-.061-1.215-.129-1.195-.139-.59-.073-1.166-.152a119.57 119.57 0 0 1-.576-.08l-1.134-.165-.559-.086-1.102-.178-1.078-.186a94.873 94.873 0 0 1-1.574-.293l-1.018-.206-.994-.212-.967-.22-.94-.227-.914-.233C26.534 95.745 22 93.17 22 90.5V77.374c3.174 2.941 9.922 5.326 18.787 6.837l1.166.191c.392.062.789.123 1.189.182Zm43.494-2.33-.925.15A24.886 24.886 0 0 0 89 70c0-1.041-.064-2.068-.187-3.076 8.077-1.517 14.209-3.789 17.188-6.551L106 73.5l-.006.163c-.18 2.612-4.678 5.121-11.872 7.013l-.913.233-.941.227-.967.22-.994.212-1.018.206c-.516.1-1.04.198-1.574.293l-1.079.186Zm2.653-17.48c-.266.052-.534.103-.804.153a25 25 0 0 0-9.14-14.665l1.18-.124.635-.071 1.254-.15c.415-.053.826-.106 1.233-.162l1.211-.171c.4-.059.797-.12 1.19-.182l1.165-.191C96.08 47.7 102.828 45.315 106 42.373V56.5l-.006.163c-.18 2.612-4.678 5.121-11.872 7.013l-.913.233-.941.227-.967.22-.994.212-1.018.206ZM64.692 11h-1.384l-1.377.013-.342.004-.342.006-1.36.03-.674.019-.672.022-1.334.052-.332.015-.33.015-1.314.069-.326.019-.325.02-1.29.084-1.276.095-1.259.105-1.241.115-.308.03-.306.03-1.215.13-1.195.139-.296.036-.295.037-1.165.152-.289.04-.287.04-1.134.165-.28.042-.279.044-1.102.177-1.078.187-.794.144-.78.15-1.018.205-.994.212-.967.22-.94.226-.914.234C26.534 16.255 22 18.83 22 21.5c0 2.622 4.37 5.151 11.48 7.07l.398.106.913.234.941.226.967.22.994.212 1.018.206.78.149.794.144 1.079.186 1.101.178.56.086.564.084 1.145.161.29.039.29.038 1.176.148 1.195.139 1.215.13.306.03.308.03 1.241.115 1.259.105 1.275.095.322.022.322.022 1.298.08.327.017.328.018 1.32.063 1.335.052.672.022.675.02 1.36.03.341.005.342.005 1.377.012L64 32l.692-.002 1.377-.012.342-.004.342-.006 1.36-.03.674-.019.672-.022 1.334-.052.332-.015.33-.015 1.314-.069.326-.019.325-.02 1.29-.084 1.276-.095 1.259-.105 1.241-.115.308-.03.306-.03 1.215-.13 1.195-.139.296-.036.295-.037 1.165-.152.289-.04.286-.04 1.135-.165.28-.042.279-.044 1.102-.178 1.078-.186.794-.144.78-.15 1.018-.205.994-.212.967-.22.94-.226.914-.234C101.466 26.745 106 24.17 106 21.5c0-2.622-4.371-5.151-11.48-7.07l-.398-.106-.913-.233-.941-.227-.967-.22-.994-.212-1.018-.206-.78-.149-.794-.144-1.079-.187-1.101-.177-.56-.086-.564-.084-1.145-.161-.29-.039-.29-.038-1.176-.148-1.195-.139-1.215-.13-.306-.03-.308-.03-1.241-.115-1.259-.105-1.275-.095-.322-.022-.322-.022-1.298-.08-.327-.017-.328-.018-1.32-.063-1.335-.052-.672-.022-.675-.02-1.36-.03-.341-.005-.342-.005-1.377-.011ZM64 47c-12.703 0-23 10.297-23 23s10.297 23 23 23 23-10.297 23-23-10.297-23-23-23Zm-3.333 28v-2h-9.334v9.333h2v-5.5A12.657 12.657 0 0 0 64 82.667c5.962 0 10.962-4.12 12.31-9.667h-2.07c-1.297 4.43-5.39 7.667-10.24 7.667A10.665 10.665 0 0 1 54.575 75h6.092Zm6.666-10v2h9.334v-9.333h-2l-.001 5.498A12.657 12.657 0 0 0 64 57.333c-5.962 0-10.962 4.12-12.31 9.666l2.071.001c1.296-4.43 5.39-7.667 10.239-7.667 4.084 0 7.632 2.295 9.424 5.666l-6.09.001Z" class="Primary" clip-rule="evenodd"/>
  </g>
</svg>
