<svg xmlns="http://www.w3.org/2000/svg" width="128" height="128" fill="none" viewBox="0 0 128 128">
  <g class="128x128/Outline/cloud_unavailable">
    <path fill="#698796" fill-rule="evenodd" d="m45.606 55.82-2.248.282C36.955 56.907 32 62.378 32 69c0 7.18 5.82 13 13 13h38c7.18 0 13-5.82 13-13 0-7.159-5.787-12.967-12.938-13l-2.575-.012-1.055-2.35C76.613 47.36 70.312 43 63 43c-7.354 0-13.686 4.41-16.48 10.747l-.914 2.073ZM83.081 52C79.64 44.337 71.944 39 63 39c-8.996 0-16.73 5.399-20.14 13.133C34.48 53.186 28 60.336 28 69c0 9.389 7.611 17 17 17h38c9.389 0 17-7.611 17-17 0-9.362-7.567-16.956-16.92-17Z" class="Primary" clip-rule="evenodd"/>
    <path fill="#EF5350" fill-rule="evenodd" d="M34.86 31.032C42.621 24.167 52.824 20 64 20c24.3 0 44 19.7 44 44 0 11.176-4.167 21.379-11.032 29.14L34.86 31.032Zm-2.874 2.783C24.556 41.694 20 52.315 20 64c0 24.3 19.7 44 44 44 11.685 0 22.306-4.555 30.185-11.986l-62.199-62.2ZM64 16c-26.51 0-48 21.49-48 48s21.49 48 48 48 48-21.49 48-48-21.49-48-48-48Z" class="secondary" clip-rule="evenodd"/>
  </g>
</svg>
