<svg xmlns="http://www.w3.org/2000/svg" width="128" height="128" fill="none" viewBox="0 0 128 128">
  <g class="128x128/Outline/time_placeholder">
    <path fill="#303F47" fill-rule="evenodd" d="M12 65c0-29.271 23.729-53 53-53s53 23.729 53 53-23.729 53-53 53-53-23.729-53-53Zm53-55c-30.376 0-55 24.624-55 55s24.624 55 55 55 55-24.624 55-55-24.624-55-55-55Zm3 55a3 3 0 1 1-5.84-.968L45.38 50.785a1 1 0 1 1 1.24-1.57L63.4 62.462A2.987 2.987 0 0 1 65 62c.746 0 1.428.272 1.952.722l30.549-17.589a1 1 0 1 1 .998 1.734L67.951 64.455c.032.177.049.359.049.545Zm-3-49a1 1 0 0 1 1 1v4a1 1 0 1 1-2 0v-4a1 1 0 0 1 1-1Zm1 93a1 1 0 0 0-2 0v4a1 1 0 0 0 2 0v-4ZM40.5 22.564a1 1 0 0 1 1.366.366l2 3.46a1 1 0 0 1-1.732 1l-2-3.46a1 1 0 0 1 .366-1.366Zm47.366 80.046a1 1 0 1 0-1.732 1l2 3.46a1 1 0 1 0 1.732-1l-2-3.46ZM22.564 40.5a1 1 0 0 1 1.366-.366l3.46 2a1 1 0 0 1-1 1.732l-3.46-2a1 1 0 0 1-.366-1.366Zm81.046 45.634a1 1 0 1 0-1 1.732l3.46 2a1 1 0 1 0 1-1.732l-3.46-2ZM16 65a1 1 0 0 1 1-1h4a1 1 0 1 1 0 2h-4a1 1 0 0 1-1-1Zm93-1a1 1 0 0 0 0 2h4a1 1 0 0 0 0-2h-4ZM27.756 86.5a1 1 0 0 1-.366 1.366l-3.46 2a1 1 0 0 1-1-1.732l3.46-2a1 1 0 0 1 1.366.366Zm79.314-44.634a1 1 0 1 0-1-1.732l-3.46 2a1 1 0 1 0 1 1.732l3.46-2ZM43.5 102.244a1 1 0 0 1 .366 1.366l-2 3.46a1 1 0 1 1-1.732-1l2-3.46a1 1 0 0 1 1.366-.366ZM89.866 23.93a1 1 0 0 0-1.732-1l-2 3.46a1 1 0 0 0 1.732 1l2-3.46Z" class="Primary" clip-rule="evenodd"/>
  </g>
</svg>
