<svg width="32" height="32" viewBox="0 0 32 32" fill="none" xmlns="http://www.w3.org/2000/svg">
<path fill-rule="evenodd" clip-rule="evenodd" d="M16 31C24.2843 31 31 24.2843 31 16C31 7.71573 24.2843 1 16 1C7.71573 1 1 7.71573 1 16C1 24.2843 7.71573 31 16 31ZM11 12C11 14.7614 13.2386 17 16 17C18.7614 17 21 14.7614 21 12C21 9.23856 18.7614 7 16 7C13.2386 7 11 9.23856 11 12ZM16 15C14.3431 15 13 13.6569 13 12C13 10.3431 14.3431 9 16 9C17.6569 9 19 10.3431 19 12C19 13.6569 17.6569 15 16 15ZM9 24C9 21.2386 11.2386 19 14 19H18C20.7614 19 23 21.2386 23 24V25H21V24C21 22.3431 19.6569 21 18 21H14C12.3431 21 11 22.3431 11 24V25H9V24Z" fill="#B0BEC4"/>
</svg>
