<?xml version="1.0" encoding="UTF-8"?>
<svg width="20px" height="20px" viewBox="0 0 20 20" version="1.1" xmlns="http://www.w3.org/2000/svg" xmlns:xlink="http://www.w3.org/1999/xlink">
    <title>Welcome Screen/delete</title>
    <g id="Welcome-Screen/delete" stroke="none" stroke-width="1" fill="none" fill-rule="evenodd">
        <path d="M12,3 C12.5522847,3 13,3.44771525 13,4 L13,5 L16,5 L16,6 L15,6 L15,15 C15,16.0543618 14.1841222,16.9181651 13.1492623,16.9945143 L13,17 L7,17 C5.8954305,17 5,16.1045695 5,15 L5,15 L5,6 L4,6 L4,5 L7,5 L7,4 C7,3.44771525 7.44771525,3 8,3 L12,3 Z M14,6 L6,6 L6,15 C6,15.5522847 6.44771525,16 7,16 L7,16 L13,16 C13.5522847,16 14,15.5522847 14,15 L14,15 L14,6 Z M9,8 L9,14 L8,14 L8,8 L9,8 Z M12,8 L12,14 L11,14 L11,8 L12,8 Z M12,4 L8,4 L8,5 L12,5 L12,4 Z" id="Combined-Shape" fill="#E1E7EA" fill-rule="nonzero"></path>
    </g>
</svg>