<?xml version="1.0" encoding="UTF-8"?>
<svg width="20px" height="20px" viewBox="0 0 20 20" version="1.1" xmlns="http://www.w3.org/2000/svg" xmlns:xlink="http://www.w3.org/1999/xlink">
    <!-- Generator: Sketch 64 (93537) - https://sketch.com -->
    <title>Welcome Screen/eye</title>
    <desc>Created with Sketch.</desc>
    <g id="Welcome-Screen/eye" stroke="none" stroke-width="1" fill="none" fill-rule="evenodd">
        <path d="M10,5 C14.418278,5 18,9 18,10 C18,11 14.418278,15 10,15 C5.581722,15 2,11 2,10 C2,9 5.581722,5 10,5 Z M10,6 C8.33040901,6 6.60657415,6.70355054 5.10204152,7.87270256 C4.486894,8.3507254 3.9514567,8.87810233 3.57067455,9.36310755 C3.44786674,9.51952883 3.346573,9.66502875 3.2704679,9.79176501 L3.15771429,9.999 L3.20289509,10.0880437 C3.2814343,10.2391848 3.4069308,10.4283307 3.57067455,10.6368925 C3.9514567,11.1218977 4.486894,11.6492746 5.10204152,12.1272974 C6.60657415,13.2964495 8.33040901,14 10,14 C11.669591,14 13.3934259,13.2964495 14.8979585,12.1272974 C15.513106,11.6492746 16.0485433,11.1218977 16.4293254,10.6368925 C16.5521333,10.4804712 16.653427,10.3349713 16.7295321,10.208235 L16.8411429,10 L16.7971049,9.91195626 C16.7185657,9.76081521 16.5930692,9.57166926 16.4293254,9.36310755 C16.0485433,8.87810233 15.513106,8.3507254 14.8979585,7.87270256 C13.3934259,6.70355054 11.669591,6 10,6 Z M10,7 C11.6568542,7 13,8.34314575 13,10 C13,11.6568542 11.6568542,13 10,13 C8.34314575,13 7,11.6568542 7,10 C7,8.34314575 8.34314575,7 10,7 Z" id="eye" fill="#E1E7EA" fill-rule="nonzero"></path>
    </g>
</svg>