<?xml version="1.0" encoding="UTF-8"?>
<svg width="20px" height="20px" viewBox="0 0 20 20" version="1.1" xmlns="http://www.w3.org/2000/svg" xmlns:xlink="http://www.w3.org/1999/xlink">
    <!-- Generator: Sketch 64 (93537) - https://sketch.com -->
    <title>Welcome Screen/eye_crossed</title>
    <desc>Created with Sketch.</desc>
    <g id="Welcome-Screen/eye_crossed" stroke="none" stroke-width="1" fill="none" fill-rule="evenodd">
        <path d="M4.72155745,6.84316601 L5.44020165,7.55996047 C5.27671527,7.67296669 5.11546438,7.79127892 4.95674621,7.91461666 C4.33642232,8.39666199 3.79760171,8.92737131 3.41522907,9.41440234 L3.26845558,9.6108893 C3.13693676,9.79566874 3.05168991,9.93922487 3.01728641,9.98665091 L3.006,10 L3.20657333,10.3004105 C3.22590131,10.3286626 3.24653578,10.3583141 3.26845558,10.3891107 L3.41522907,10.5855977 C3.79760171,11.0726287 4.33642232,11.603338 4.95674621,12.0853833 C6.49069725,13.277396 8.26121676,14 10,14 C10.5545254,14 11.1122787,13.9265059 11.664557,13.7877304 L12.4730055,14.5942734 C11.6942339,14.8473651 10.8630779,15 10,15 C5.581722,15 2,11 2,10 C2,9.45777247 3.05306457,8.03351286 4.72155745,6.84316601 Z M10,5 C14.418278,5 18,9 18,10 C18,10.5422275 16.9469354,11.9664871 15.2784426,13.156834 L14.5597983,12.4400395 C14.7232847,12.3270333 14.8845356,12.2087211 15.0432538,12.0853833 C15.6635777,11.603338 16.2023983,11.0726287 16.5847709,10.5855977 L16.7315444,10.3891107 C16.8630632,10.2043313 16.9483101,10.0607751 16.9827136,10.0133491 L16.993,10 L16.7934267,9.69958955 C16.7740987,9.67133736 16.7534642,9.64168587 16.7315444,9.6108893 L16.5847709,9.41440234 C16.2023983,8.92737131 15.6635777,8.39666199 15.0432538,7.91461666 C13.5093028,6.722604 11.7387832,6 10,6 C9.4451403,6 8.88704889,6.07358272 8.33444428,6.21252064 L7.52599269,5.40605225 C8.30505324,5.15276586 9.13655197,5 10,5 Z M7.10166433,9.22275026 L10.7772497,12.8983357 C10.5293544,12.9646465 10.2688058,13 10,13 C8.34314575,13 7,11.6568542 7,10 C7,9.73119416 7.03535346,9.47064556 7.10166433,9.22275026 Z M10,7 C11.6568542,7 13,8.34314575 13,10 C13,10.2688058 12.9646465,10.5293544 12.8983357,10.7772497 L9.22275026,7.10166433 C9.47064556,7.03535346 9.73119416,7 10,7 Z" id="eye_crossed" fill="#E1E7EA" fill-rule="nonzero"></path>
        <polygon id="Path-18" fill="#E1E7EA" fill-rule="nonzero" points="4.79249059 4 16 15.2075094 15.2075094 16 4 4.79249059"></polygon>
    </g>
</svg>