<?xml version="1.0" encoding="UTF-8"?>
<svg width="20px" height="20px" viewBox="0 0 20 20" version="1.1" xmlns="http://www.w3.org/2000/svg" xmlns:xlink="http://www.w3.org/1999/xlink">
    <!-- Generator: Sketch 64 (93537) - https://sketch.com -->
    <title>Welcome Screen/star</title>
    <desc>Created with Sketch.</desc>
    <g id="Welcome-Screen/star" stroke="none" stroke-width="1" fill="none" fill-rule="evenodd">
        <path d="M10.2416309,2.41326692 C10.3303766,2.45706553 10.402209,2.52889792 10.4460076,2.61764359 L12.68751,7.15942353 L17.6996617,7.8877318 C17.9456069,7.92346973 18.1160136,8.15181902 18.0802757,8.3977642 C18.0660446,8.49570087 18.0199254,8.58621495 17.9490578,8.65529382 L14.3222307,12.1905765 L15.1784084,17.1824757 C15.2204209,17.4274271 15.0559064,17.6600573 14.8109549,17.7020697 C14.713414,17.7187993 14.6130784,17.7029077 14.5254812,17.6568551 L10.0424764,15.3 L5.55947156,17.6568551 C5.3394915,17.7725055 5.06740928,17.6879295 4.95175891,17.4679495 C4.90570633,17.3803523 4.88981473,17.2800166 4.90654431,17.1824757 L5.76272204,12.1905765 L2.13589497,8.65529382 C1.95792736,8.48181828 1.95428582,8.19691731 2.12776137,8.0189497 C2.19684024,7.94808206 2.28735432,7.90196283 2.38529099,7.8877318 L7.39744273,7.15942353 L9.63894513,2.61764359 C9.74893516,2.39477944 10.0187668,2.30327689 10.2416309,2.41326692 Z M12.0234445,8.07343129 L10.0424764,4.06 L8.06150824,8.07343129 L3.63147636,8.717 L6.83720261,11.8414566 L6.07947636,16.252 L10.0424764,14.1702243 L14.0044764,16.252 L13.2477501,11.8414566 L16.4524764,8.717 L12.0234445,8.07343129 Z" id="star" fill="#E1E7EA" fill-rule="nonzero"></path>
    </g>
</svg>