<svg width="20" height="20" viewBox="0 0 20 20" fill="none" xmlns="http://www.w3.org/2000/svg">
<path fill-rule="evenodd" clip-rule="evenodd" d="M13.1108 8.05542C13.1108 10.8475 10.8475 13.1108 8.05542 13.1108C5.26339 13.1108 3 10.8475 3 8.05542C3 5.26339 5.26339 3 8.05542 3C10.8475 3 13.1108 5.26339 13.1108 8.05542ZM11.9692 12.6763C10.9137 13.5711 9.54758 14.1108 8.05542 14.1108C4.71111 14.1108 2 11.3997 2 8.05542C2 4.71111 4.71111 2 8.05542 2C11.3997 2 14.1108 4.71111 14.1108 8.05542C14.1108 9.54758 13.5711 10.9137 12.6763 11.9692L17.9967 17.2896L17.2896 17.9967L11.9692 12.6763Z" fill="#698796"/>
</svg>
