<svg width="20" height="20" viewBox="0 0 20 20" fill="none" xmlns="http://www.w3.org/2000/svg">
<g id="error">
<path id="First" fill-rule="evenodd" clip-rule="evenodd" d="M2.58579 5.41421C2.21071 5.78929 2 6.29799 2 6.82843V10V13.1716C2 13.702 2.21071 14.2107 2.58579 14.5858L5.41421 17.4142C5.78929 17.7893 6.29799 18 6.82843 18H10H13.1716C13.702 18 14.2107 17.7893 14.5858 17.4142L17.4142 14.5858C17.7893 14.2107 18 13.702 18 13.1716V10V6.82843C18 6.29799 17.7893 5.78929 17.4142 5.41421L14.5858 2.58579C14.2107 2.21071 13.702 2 13.1716 2H10H6.82843C6.29799 2 5.78929 2.21071 5.41421 2.58579L2.58579 5.41421ZM7.29289 7.29289C7.68342 6.90237 8.31658 6.90237 8.70711 7.29289L10 8.58579L11.2929 7.29289C11.6834 6.90237 12.3166 6.90237 12.7071 7.29289C13.0976 7.68342 13.0976 8.31658 12.7071 8.70711L11.4142 10L12.7071 11.2929C13.0976 11.6834 13.0976 12.3166 12.7071 12.7071C12.3166 13.0976 11.6834 13.0976 11.2929 12.7071L10 11.4142L8.70711 12.7071C8.31658 13.0976 7.68342 13.0976 7.29289 12.7071C6.90237 12.3166 6.90237 11.6834 7.29289 11.2929L8.58579 10L7.29289 8.70711C6.90237 8.31658 6.90237 7.68342 7.29289 7.29289Z" fill="#E1E7EA"/>
</g>
</svg>
