<svg width="20" height="20" viewBox="0 0 20 20" fill="none" xmlns="http://www.w3.org/2000/svg">
<g id="attention">
<path id="First" fill-rule="evenodd" clip-rule="evenodd" d="M1.41421 8.58579C0.633157 9.36684 0.633156 10.6332 1.4142 11.4142L8.58578 18.5858C9.36683 19.3668 10.6332 19.3668 11.4142 18.5858L18.5858 11.4142C19.3668 10.6332 19.3668 9.36684 18.5858 8.58579L11.4142 1.41422C10.6332 0.633169 9.36683 0.633168 8.58578 1.41422L1.41421 8.58579ZM10 5.00001C10.5523 5.00001 11 5.44772 11 6.00001V10C11 10.5523 10.5523 11 10 11C9.44771 11 9 10.5523 9 10V6.00001C9 5.44772 9.44771 5.00001 10 5.00001ZM11 13C11 13.5523 10.5523 14 10 14C9.44771 14 9 13.5523 9 13C9 12.4477 9.44771 12 10 12C10.5523 12 11 12.4477 11 13Z" fill="#FBBC05"/>
</g>
</svg>
