<?xml version="1.0" encoding="UTF-8"?>
<svg width="20px" height="20px" viewBox="0 0 20 20" version="1.1" xmlns="http://www.w3.org/2000/svg" xmlns:xlink="http://www.w3.org/1999/xlink">
    <!-- Generator: Sketch 64 (93537) - https://sketch.com -->
    <title>Actions/Thin/search</title>
    <desc>Created with Sketch.</desc>
    <g id="Actions/Thin/search" stroke="none" stroke-width="1" fill="none" fill-rule="evenodd">
        <path d="M12.3890873,4.61091271 C14.2836217,6.50544715 14.5070876,9.43825049 13.059485,11.5777186 L17,15.519725 L15.519725,17 L11.5777186,13.059485 C9.43825049,14.5070876 6.50544715,14.2836217 4.61091271,12.3890873 C2.4630291,10.2412037 2.4630291,6.75879631 4.61091271,4.61091271 C6.75879631,2.4630291 10.2412037,2.4630291 12.3890873,4.61091271 Z M5.31801949,5.31801949 C3.56066017,7.0753788 3.56066017,9.92462121 5.31801949,11.6819805 C7.0753788,13.4393398 9.92462121,13.4393398 11.6819805,11.6819805 C13.4393398,9.92462121 13.4393398,7.0753788 11.6819805,5.31801949 C9.92462121,3.56066017 7.0753788,3.56066017 5.31801949,5.31801949 Z" id="Combined-Shape" fill="#698796" fill-rule="nonzero"></path>
    </g>
</svg>