<svg width="20" height="20" viewBox="0 0 20 20" fill="none" xmlns="http://www.w3.org/2000/svg">
<path fill-rule="evenodd" clip-rule="evenodd" d="M3.5 5V7H4.5H10H15.5H16.5V5H3.5ZM2 7.5C2 8.05229 2.44772 8.5 3 8.5V10C3 13.866 6.13401 17 10 17C13.866 17 17 13.866 17 10V8.5C17.5523 8.5 18 8.05229 18 7.5V4.5C18 3.94772 17.5523 3.5 17 3.5H3C2.44772 3.5 2 3.94772 2 4.5V7.5ZM10 8.5H15.5V10C15.5 13.0376 13.0376 15.5 10 15.5C6.96243 15.5 4.5 13.0376 4.5 10V8.5H10ZM10.05 13.2C10.7404 13.2 11.3 12.6404 11.3 11.95C11.3 11.2597 10.7404 10.7 10.05 10.7C9.35969 10.7 8.80005 11.2597 8.80005 11.95C8.80005 12.6404 9.35969 13.2 10.05 13.2Z" fill="#698796"/>
</svg>
