<svg width="20" height="20" viewBox="0 0 20 20" fill="none" xmlns="http://www.w3.org/2000/svg">
<path fill-rule="evenodd" clip-rule="evenodd" d="M17 4H3V7L4 7H10H16L17 7V4ZM2 7C2 7.55229 2.44772 8 3 8V10C3 13.866 6.13401 17 10 17C13.866 17 17 13.866 17 10V8C17.5523 8 18 7.55229 18 7V4C18 3.44772 17.5523 3 17 3H3C2.44772 3 2 3.44772 2 4V7ZM10 8H16V10C16 13.3137 13.3137 16 10 16C6.68629 16 4 13.3137 4 10V8H10ZM10.05 13.2C10.7404 13.2 11.3 12.6404 11.3 11.95C11.3 11.2597 10.7404 10.7 10.05 10.7C9.35969 10.7 8.80005 11.2597 8.80005 11.95C8.80005 12.6404 9.35969 13.2 10.05 13.2Z" fill="#698796"/>
</svg>
