<svg width="20" height="20" viewBox="0 0 20 20" fill="none" xmlns="http://www.w3.org/2000/svg">
<path fill-rule="evenodd" clip-rule="evenodd" d="M16.5 10C16.5 13.5899 13.5899 16.5 10 16.5C6.41015 16.5 3.5 13.5899 3.5 10C3.5 6.41015 6.41015 3.5 10 3.5C13.5899 3.5 16.5 6.41015 16.5 10ZM18 10C18 14.4183 14.4183 18 10 18C5.58172 18 2 14.4183 2 10C2 5.58172 5.58172 2 10 2C14.4183 2 18 5.58172 18 10ZM10.75 6.50002C10.75 6.08581 10.4142 5.75002 10 5.75002C9.58579 5.75002 9.25 6.08581 9.25 6.50002V9.94613C9.25 10.3342 9.43025 10.7003 9.73786 10.9369L12.5427 13.0945C12.871 13.347 13.3419 13.2856 13.5945 12.9573C13.847 12.629 13.7856 12.1581 13.4573 11.9056L10.75 9.82303V6.50002Z" fill="#698796"/>
</svg>
