<svg width="20" height="20" viewBox="0 0 20 20" fill="none" xmlns="http://www.w3.org/2000/svg">
<path fill-rule="evenodd" clip-rule="evenodd" d="M17 10C17 13.866 13.866 17 10 17C6.13401 17 3 13.866 3 10C3 6.13401 6.13401 3 10 3C13.866 3 17 6.13401 17 10ZM18 10C18 14.4183 14.4183 18 10 18C5.58172 18 2 14.4183 2 10C2 5.58172 5.58172 2 10 2C14.4183 2 18 5.58172 18 10ZM10.5 6C10.5 5.72386 10.2761 5.5 10 5.5C9.72386 5.5 9.5 5.72386 9.5 6V9.44611C9.5 9.75658 9.6442 10.0494 9.89029 10.2387L12.6951 12.3963C12.914 12.5647 13.2279 12.5237 13.3963 12.3049C13.5647 12.086 13.5237 11.7721 13.3049 11.6037L10.5 9.44611V6Z" fill="#698796"/>
</svg>
