<svg width="20" height="20" viewBox="0 0 20 20" fill="none" xmlns="http://www.w3.org/2000/svg">
<path fill-rule="evenodd" clip-rule="evenodd" d="M5.03033 3.96967C4.73744 3.67678 4.26256 3.67678 3.96967 3.96967C3.67678 4.26256 3.67678 4.73744 3.96967 5.03033L8.93934 10L3.96967 14.9697C3.67678 15.2626 3.67678 15.7374 3.96967 16.0303C4.26256 16.3232 4.73744 16.3232 5.03033 16.0303L10 11.0607L14.9697 16.0303C15.2626 16.3232 15.7374 16.3232 16.0303 16.0303C16.3232 15.7374 16.3232 15.2626 16.0303 14.9697L11.0607 10L16.0303 5.03033C16.3232 4.73744 16.3232 4.26256 16.0303 3.96967C15.7374 3.67678 15.2626 3.67678 14.9697 3.96967L10 8.93934L5.03033 3.96967Z" fill="#698796"/>
</svg>
