<svg width="20" height="20" viewBox="0 0 20 20" fill="none" xmlns="http://www.w3.org/2000/svg">
<path fill-rule="evenodd" clip-rule="evenodd" d="M4.85355 4.14645C4.65829 3.95118 4.34171 3.95118 4.14645 4.14645C3.95118 4.34171 3.95118 4.65829 4.14645 4.85355L9.29289 10L4.14645 15.1464C3.95118 15.3417 3.95118 15.6583 4.14645 15.8536C4.34171 16.0488 4.65829 16.0488 4.85355 15.8536L10 10.7071L15.1464 15.8536C15.3417 16.0488 15.6583 16.0488 15.8536 15.8536C16.0488 15.6583 16.0488 15.3417 15.8536 15.1464L10.7071 10L15.8536 4.85355C16.0488 4.65829 16.0488 4.34171 15.8536 4.14645C15.6583 3.95118 15.3417 3.95118 15.1464 4.14645L10 9.29289L4.85355 4.14645Z" fill="#698796"/>
</svg>
