<svg width="20" height="20" viewBox="0 0 20 20" fill="none" xmlns="http://www.w3.org/2000/svg">
<path fill-rule="evenodd" clip-rule="evenodd" d="M4.99997 1.49997C4.17154 1.49997 3.49997 2.17154 3.49997 2.99997V12C3.49997 12.8284 4.17154 13.5 4.99997 13.5H11C11.8284 13.5 12.5 12.8284 12.5 12V2.99997C12.5 2.17154 11.8284 1.49997 11 1.49997H4.99997ZM4.49997 2.99997C4.49997 2.72383 4.72383 2.49997 4.99997 2.49997H11C11.2761 2.49997 11.5 2.72383 11.5 2.99997V12C11.5 12.2761 11.2761 12.5 11 12.5H4.99997C4.72383 12.5 4.49997 12.2761 4.49997 12V2.99997ZM14 7.50006H15C15.2761 7.50006 15.5 7.72392 15.5 8.00006V17.0001C15.5 17.2762 15.2761 17.5001 15 17.5001H9C8.72386 17.5001 8.5 17.2762 8.5 17.0001V15H7.5V17.0001C7.5 17.8285 8.17157 18.5001 9 18.5001H15C15.8284 18.5001 16.5 17.8285 16.5 17.0001V8.00006C16.5 7.17163 15.8284 6.50006 15 6.50006H14V7.50006Z" fill="#698796"/>
</svg>
