<svg width="20" height="20" viewBox="0 0 20 20" fill="none" xmlns="http://www.w3.org/2000/svg">
<path fill-rule="evenodd" clip-rule="evenodd" d="M4.5 1.75C3.5335 1.75 2.75 2.5335 2.75 3.5V11.5C2.75 12.4665 3.5335 13.25 4.5 13.25H11.5C12.4665 13.25 13.25 12.4665 13.25 11.5V3.5C13.25 2.5335 12.4665 1.75 11.5 1.75H4.5ZM4.25 3.5C4.25 3.36193 4.36193 3.25 4.5 3.25H11.5C11.6381 3.25 11.75 3.36193 11.75 3.5V11.5C11.75 11.6381 11.6381 11.75 11.5 11.75H4.5C4.36193 11.75 4.25 11.6381 4.25 11.5V3.5ZM14.7 8.25H15.5C15.6381 8.25 15.75 8.36193 15.75 8.5V16.5C15.75 16.6381 15.6381 16.75 15.5 16.75H8.5C8.36193 16.75 8.25 16.6381 8.25 16.5V14.5H6.75V16.5C6.75 17.4665 7.5335 18.25 8.5 18.25H15.5C16.4665 18.25 17.25 17.4665 17.25 16.5V8.5C17.25 7.5335 16.4665 6.75 15.5 6.75H14.7V8.25Z" fill="#698796"/>
</svg>
