<svg width="20" height="20" viewBox="0 0 20 20" fill="none" xmlns="http://www.w3.org/2000/svg">
<path fill-rule="evenodd" clip-rule="evenodd" d="M8.00002 4.25V2.5H12V4.25H8.00002ZM6.50002 4.25V2C6.50002 1.44772 6.94774 1 7.50002 1H12.5C13.0523 1 13.5 1.44772 13.5 2V4.25H17V5.75H16V6V16.5C16 17.6046 15.1046 18.5 14 18.5H6C4.89543 18.5 4 17.6046 4 16.5V6V5.75H3V4.25H6.50002ZM12.5 6L10 6L7.50002 6L5.5 6V16.5C5.5 16.7761 5.72386 17 6 17H14C14.2761 17 14.5 16.7761 14.5 16.5V6L12.5 6ZM7.7499 14.5V8.5H9.2499V14.5H7.7499ZM10.7499 8.5V14.5H12.2499V8.5H10.7499Z" fill="#E1E7EA"/>
</svg>
