<svg width="20" height="20" viewBox="0 0 20 20" fill="none" xmlns="http://www.w3.org/2000/svg">
<path fill-rule="evenodd" clip-rule="evenodd" d="M8 2H12V3.95H8V2ZM7 3.95V2C7 1.44772 7.44772 1 8 1H12C12.5523 1 13 1.44772 13 2V3.95H17V4.95H16V5V16C16 17.1046 15.1046 18 14 18H6C4.89543 18 4 17.1046 4 16V5V4.95H3V3.95H7ZM7.99901 5H5V16C5 16.5523 5.44772 17 6 17H14C14.5523 17 15 16.5523 15 16V5H12.001L12 5L10 5L8 5L7.99901 5ZM7.9999 14V8H8.9999V14H7.9999ZM10.9999 8V14H11.9999V8H10.9999Z" fill="#698796"/>
</svg>
