<svg width="20" height="20" viewBox="0 0 20 20" fill="none" xmlns="http://www.w3.org/2000/svg">
<path fill-rule="evenodd" clip-rule="evenodd" d="M10.4 3.5C10.4 3.22386 10.1762 3 9.90003 3C9.62389 3 9.40003 3.22386 9.40003 3.5V12.0301L6.50159 9.16594C6.30517 8.97184 5.9886 8.97372 5.7945 9.17014C5.6004 9.36656 5.60228 9.68314 5.7987 9.87724L9.54859 13.5828C9.74336 13.7753 10.0567 13.7753 10.2515 13.5828L14.0014 9.87724C14.1978 9.68314 14.1997 9.36656 14.0056 9.17014C13.8115 8.97372 13.4949 8.97184 13.2985 9.16594L10.4 12.0301V3.5ZM3 16.0043V12.7987H2V16.0043C2 16.5566 2.44772 17.0043 3 17.0043H16.9996C17.5518 17.0043 17.9996 16.5566 17.9996 16.0043V12.7987H16.9996V16.0043H3Z" fill="#698796"/>
</svg>
