<svg width="20" height="20" viewBox="0 0 20 20" fill="none" xmlns="http://www.w3.org/2000/svg">
<path fill-rule="evenodd" clip-rule="evenodd" d="M10.65 3.5C10.65 3.08579 10.3142 2.75 9.90003 2.75C9.48582 2.75 9.15003 3.08579 9.15003 3.5V11.4316L6.67732 8.98812C6.38269 8.69697 5.90782 8.69979 5.61668 8.99442C5.32553 9.28905 5.32835 9.76391 5.62298 10.0551L9.37286 13.7607C9.66502 14.0494 10.135 14.0494 10.4272 13.7607L14.1771 10.0551C14.4717 9.76391 14.4745 9.28905 14.1834 8.99442C13.8922 8.69979 13.4174 8.69697 13.1228 8.98812L10.65 11.4316V3.5ZM3.25 12.7987V15.7543H16.7496V12.7987H18.2495V16.0043C18.2495 16.6946 17.6899 17.2543 16.9996 17.2543H3C2.30965 17.2543 1.75 16.6946 1.75 16.0043V12.7987H3.25Z" fill="#698796"/>
</svg>
