<svg width="20" height="20" viewBox="0 0 20 20" fill="none" xmlns="http://www.w3.org/2000/svg">
<path fill-rule="evenodd" clip-rule="evenodd" d="M14.215 3.00391L16.9975 5.78634L15.3165 7.46727L12.5341 4.68483L14.215 3.00391ZM11.8358 5.38316L3.92692 13.292L2.99945 17.0019L6.70936 16.0744L14.6182 8.16559L11.8358 5.38316ZM15.3253 8.8727L7.22061 16.9774L3.24198 17.9721C2.5096 18.1552 1.84621 17.4918 2.0293 16.7594L3.02396 12.7808L13.5079 2.2968C13.8984 1.90628 14.5316 1.90628 14.9221 2.2968L17.7046 5.07923C18.0951 5.46976 18.0951 6.10292 17.7046 6.49345L16.0236 8.17437L16.0237 8.1744L15.3253 8.87272L15.3253 8.8727Z" fill="#E1E7EA" class="primary"/>
</svg>
