<svg width="20" height="20" viewBox="0 0 20 20" fill="none" xmlns="http://www.w3.org/2000/svg">
<path fill-rule="evenodd" clip-rule="evenodd" d="M12.8876 5.03855L14.215 3.71118L16.2903 5.78651L14.963 7.11388L12.8876 5.03855ZM11.827 6.09921L4.37838 13.5478L3.68661 16.3149L6.45371 15.6231L13.9023 8.17454L11.827 6.09921ZM14.963 9.2352L7.22058 16.9776L3.24196 17.9722C2.50958 18.1553 1.84618 17.4919 2.02928 16.7596L3.02394 12.7809L13.5079 2.29697C13.8984 1.90644 14.5316 1.90644 14.9221 2.29697L17.7045 5.0794C18.0951 5.46993 18.0951 6.10309 17.7045 6.49362L16.0236 8.17454L16.0236 8.17456L14.963 9.23522L14.963 9.2352Z" fill="#E1E7EA" class="primary"/>
</svg>
