<svg width="20" height="20" viewBox="0 0 20 20" fill="none" xmlns="http://www.w3.org/2000/svg">
<path fill-rule="evenodd" clip-rule="evenodd" d="M16.5 10C16.5 13.5899 13.5899 16.5 10 16.5C6.41015 16.5 3.5 13.5899 3.5 10C3.5 6.41015 6.41015 3.5 10 3.5C13.5899 3.5 16.5 6.41015 16.5 10ZM18 10C18 14.4183 14.4183 18 10 18C5.58172 18 2 14.4183 2 10C2 5.58172 5.58172 2 10 2C14.4183 2 18 5.58172 18 10ZM12.2064 13.2671L10 11.0607L7.79361 13.2671L6.73295 12.2064L8.93935 10L6.73295 7.79361L7.79361 6.73295L10 8.93935L12.2064 6.73295L13.2671 7.79361L11.0607 10L13.2671 12.2064L12.2064 13.2671Z" fill="#C22626"/>
</svg>
