<svg width="20" height="20" viewBox="0 0 20 20" fill="none" xmlns="http://www.w3.org/2000/svg">
<path fill-rule="evenodd" clip-rule="evenodd" d="M4.25 4.5C4.25 4.36193 4.36193 4.25 4.5 4.25H9.55848C9.97269 4.25 10.3085 3.91421 10.3085 3.5C10.3085 3.08579 9.97269 2.75 9.55848 2.75H4.5C3.5335 2.75 2.75 3.5335 2.75 4.5V15.5047C2.75 16.4712 3.5335 17.2547 4.5 17.2547H15.4825C16.449 17.2547 17.2325 16.4712 17.2325 15.5047V10.4358C17.2325 10.0216 16.8967 9.68584 16.4825 9.68584C16.0682 9.68584 15.7325 10.0216 15.7325 10.4358V15.5047C15.7325 15.6428 15.6205 15.7547 15.4825 15.7547H4.5C4.36193 15.7547 4.25 15.6428 4.25 15.5047V4.5ZM11.8039 3.51232C11.8039 3.09776 12.1394 2.76168 12.5533 2.76168L16.5054 2.76168H17.2547V3.51232L17.2547 7.47187C17.2547 7.88644 16.9192 8.22251 16.5054 8.22251C16.0915 8.22251 15.756 7.88644 15.756 7.47187V5.40138L10.2003 10.9666L9.67043 11.4974L8.61068 10.4358L9.14056 9.90506L14.773 4.26297L12.5533 4.26297C12.1394 4.26297 11.8039 3.92689 11.8039 3.51232Z" fill="#698796"/>
</svg>
