<svg width="20" height="20" viewBox="0 0 20 20" fill="none" xmlns="http://www.w3.org/2000/svg">
<path d="M15.4546 18.046H4.54542C3.8703 18.046 3.22288 17.7771 2.74545 17.2984C2.26817 16.8196 2 16.1703 2 15.4933V4.55274C2 3.87568 2.26816 3.22639 2.74545 2.74759C3.22288 2.26894 3.8703 2 4.54542 2H9.9583C9.9583 2.98497 9.9583 2.57307 9.9583 3.45869H4.54542C4.2561 3.45869 3.97865 3.57392 3.77395 3.77905C3.5694 3.98434 3.45449 4.26259 3.45449 4.55275V15.4933C3.45449 15.7834 3.5694 16.0617 3.77395 16.267C3.97864 16.4721 4.25609 16.5873 4.54542 16.5873H15.4546C15.7439 16.5873 16.0213 16.4721 16.226 16.267C16.4306 16.0617 16.5455 15.7834 16.5455 15.4933V10.0648C17.4286 10.0648 17.4286 10.0648 18 10.0648V15.4933C18 16.1703 17.7318 16.8196 17.2546 17.2984C16.7771 17.7771 16.1297 18.046 15.4546 18.046Z" fill="#698796"/>
<path d="M9.33769 11.6973L16.3776 4.59953V7.57918C16.3776 7.83993 16.5164 8.08081 16.7415 8.21127C16.9668 8.34172 17.2442 8.34172 17.4694 8.21127C17.6947 8.08082 17.8333 7.83992 17.8333 7.57918L17.8333 2.89285C17.8322 2.79753 17.8333 2.70277 17.8333 2.60421C17.8333 2.49156 17.8333 2.26626 17.8333 2.16299C17.7575 2.16299 17.2192 2.16427 17.1056 2.16299L12.1542 2.16299C11.8942 2.16299 11.654 2.302 11.524 2.52792C11.3939 2.75384 11.3939 3.03202 11.524 3.25793C11.654 3.4837 11.8942 3.62286 12.1542 3.62286L15.3663 3.62286L8.30439 10.661C8.70546 11.0632 8.85849 11.2167 9.33769 11.6973Z" fill="#698796"/>
</svg>
