<svg width="20" height="20" viewBox="0 0 20 20" fill="none" xmlns="http://www.w3.org/2000/svg">
<path fill-rule="evenodd" clip-rule="evenodd" d="M16.6158 6.03966C16.9253 6.15791 17.0804 6.50471 16.9622 6.81427C16.6397 7.65842 16.115 8.44416 15.4524 9.12208L16.8242 10.483C17.0595 10.7163 17.061 11.0962 16.8276 11.3315C16.5942 11.5667 16.2144 11.5683 15.9791 11.3349L14.5487 9.91595C13.9317 10.3813 13.2429 10.7635 12.5158 11.0367L13.3073 13.1915C13.4215 13.5026 13.262 13.8474 12.9509 13.9616C12.6399 14.0759 12.2951 13.9163 12.1809 13.6053L11.3599 11.3701C10.9119 11.4609 10.4566 11.5089 10.0009 11.5089C9.53403 11.5089 9.08106 11.4591 8.64355 11.3656L7.82092 13.6053C7.70667 13.9163 7.36189 14.0759 7.05084 13.9616C6.73979 13.8474 6.58025 13.5026 6.6945 13.1915L7.49582 11.0099C6.78923 10.7206 6.13315 10.3178 5.53569 9.83393L4.02266 11.3349C3.78741 11.5683 3.40752 11.5667 3.17414 11.3315C2.94077 11.0962 2.94229 10.7163 3.17754 10.483L4.65334 9.01894C4.04266 8.37977 3.51401 7.65677 3.07951 6.89846C2.91476 6.61094 3.01429 6.24431 3.30181 6.07957C3.58932 5.91482 3.95595 6.01435 4.1207 6.30187C5.43333 8.59271 7.55438 10.3089 10.0009 10.3089C12.5005 10.3089 15.0174 8.54259 15.8412 6.38606C15.9594 6.0765 16.3062 5.92142 16.6158 6.03966Z" fill="#698796"/>
</svg>
