<?xml version="1.0" encoding="UTF-8"?>
<svg width="20px" height="20px" viewBox="0 0 20 20" version="1.1" xmlns="http://www.w3.org/2000/svg" xmlns:xlink="http://www.w3.org/1999/xlink">
    <!-- Generator: Sketch 64 (93537) - https://sketch.com -->
    <title>eye_close</title>
    <desc>Created with Sketch.</desc>
    <g id="eye_close" stroke="none" stroke-width="1" fill="none" fill-rule="evenodd">
        <path d="M15.9718816,8 C16.2480239,8 16.4718816,8.22385763 16.4718816,8.5 C16.4718816,8.93068176 16.3086915,9.39125245 16.0201547,9.84736302 L17.6752597,11.392904 L16.9932613,12.1242577 L15.3955327,10.63339 C14.9750421,11.0713032 14.4518842,11.4848886 13.8635582,11.8401095 L14.8049901,13.7687549 L13.906196,14.207126 L12.9788776,12.305976 C12.1911349,12.6637441 11.3322952,12.9091622 10.4716068,12.9793762 L10.4718816,15 L9.47188157,15 L9.4711563,12.9792946 C8.65625128,12.9126869 7.8430277,12.6890403 7.09026056,12.3617029 L6.19885284,14.274387 L5.29254506,13.8517687 L6.19809731,11.9099985 C5.57894289,11.5496606 5.02725246,11.1240755 4.58489805,10.671249 L2.98199836,12.1660551 L2.3,11.4347014 L3.95250944,9.89239113 C3.64599251,9.42160771 3.47188157,8.94485928 3.47188157,8.5 C3.47188157,8.22385763 3.69573919,8 3.97188157,8 C4.24802394,8 4.47188157,8.22385763 4.47188157,8.5 C4.47188157,9.82646714 7.30387257,12 9.97188157,12 C12.6398906,12 15.4718816,9.82646714 15.4718816,8.5 C15.4718816,8.22385763 15.6957392,8 15.9718816,8 Z" id="closedeye" fill="#E1E7EA" fill-rule="nonzero"></path>
    </g>
</svg>