<?xml version="1.0" encoding="UTF-8"?>
<svg width="20px" height="20px" viewBox="0 0 20 20" version="1.1" xmlns="http://www.w3.org/2000/svg" xmlns:xlink="http://www.w3.org/1999/xlink">
    <!-- Generator: Sketch 64 (93537) - https://sketch.com -->
    <title>eye_open</title>
    <desc>Created with Sketch.</desc>
    <g id="eye_open" stroke="none" stroke-width="1" fill="none" fill-rule="evenodd">
        <path d="M10,5 C13.8659932,5 17,9 17,10 C17,11 13.8659932,15 10,15 C6.13400675,15 3,11 3,10 C3,9 6.13400675,5 10,5 Z M10,6 C8.53910788,6 7.03075238,6.70355054 5.71428633,7.87270256 C5.17603225,8.3507254 4.70752462,8.87810233 4.37434023,9.36310755 C4.26688339,9.51952883 4.17825138,9.66502875 4.11165941,9.79176501 L4.013,9.999 L4.05253321,10.0880437 C4.12125501,10.2391848 4.23106445,10.4283307 4.37434023,10.6368925 C4.70752462,11.1218977 5.17603225,11.6492746 5.71428633,12.1272974 C7.03075238,13.2964495 8.53910788,14 10,14 C11.4608921,14 12.9692476,13.2964495 14.2857137,12.1272974 C14.8239678,11.6492746 15.2924754,11.1218977 15.6256598,10.6368925 C15.7331166,10.4804712 15.8217486,10.3349713 15.8883406,10.208235 L15.986,10 L15.9474668,9.91195626 C15.878745,9.76081521 15.7689356,9.57166926 15.6256598,9.36310755 C15.2924754,8.87810233 14.8239678,8.3507254 14.2857137,7.87270256 C12.9692476,6.70355054 11.4608921,6 10,6 Z M10,8 C11.1045695,8 12,8.8954305 12,10 C12,11.1045695 11.1045695,12 10,12 C8.8954305,12 8,11.1045695 8,10 C8,8.8954305 8.8954305,8 10,8 Z" id="eye" fill="#E1E7EA" fill-rule="nonzero"></path>
    </g>
</svg>