<svg width="20" height="20" viewBox="0 0 20 20" fill="none" xmlns="http://www.w3.org/2000/svg">
<path fill-rule="evenodd" clip-rule="evenodd" d="M17.9182 9.83561C17.9559 9.91316 17.9769 9.96715 17.9883 10C17.9769 10.0329 17.9559 10.0868 17.9182 10.1644C17.8316 10.3421 17.6899 10.5758 17.4874 10.851C17.0835 11.3997 16.4817 12.0535 15.7258 12.6801C14.1999 13.9449 12.169 15 10 15C7.83098 15 5.80015 13.9449 4.2742 12.6801C3.51827 12.0535 2.91651 11.3997 2.51263 10.851C2.3101 10.5758 2.16842 10.3421 2.08184 10.1644C2.04406 10.0868 2.02312 10.0329 2.0117 10C2.02312 9.96715 2.04406 9.91316 2.08184 9.83561C2.16842 9.6579 2.3101 9.42419 2.51263 9.14903C2.91651 8.6003 3.51827 7.94649 4.2742 7.3199C5.80015 6.05505 7.83098 5 10 5C12.169 5 14.1999 6.05505 15.7258 7.3199C16.4817 7.94649 17.0835 8.6003 17.4874 9.14903C17.6899 9.42419 17.8316 9.6579 17.9182 9.83561ZM19 10C19 11.2 14.9706 16 10 16C5.02944 16 1 11.2 1 10C1 8.8 5.02944 4 10 4C14.9706 4 19 8.8 19 10ZM10.05 11.8C11.0165 11.8 11.8 11.0165 11.8 10.05C11.8 9.08351 11.0165 8.30001 10.05 8.30001C9.08352 8.30001 8.30002 9.08351 8.30002 10.05C8.30002 11.0165 9.08352 11.8 10.05 11.8Z" fill="#698796"/>
</svg>
