<svg width="20" height="20" viewBox="0 0 20 20" fill="none" xmlns="http://www.w3.org/2000/svg">
<path fill-rule="evenodd" clip-rule="evenodd" d="M16.6693 5.89954C17.0562 6.04735 17.2501 6.48085 17.1023 6.8678C16.7892 7.68728 16.2908 8.45208 15.6627 9.11947L16.9299 10.3765C17.2239 10.6682 17.2258 11.1431 16.9341 11.4371C16.6424 11.7312 16.1675 11.7331 15.8735 11.4414L14.5346 10.1132C13.9731 10.5231 13.3563 10.8657 12.7075 11.1234L13.4481 13.1398C13.5909 13.5286 13.3915 13.9596 13.0027 14.1024C12.6138 14.2452 12.1829 14.0458 12.0401 13.657L11.2631 11.5416C10.8463 11.6185 10.4238 11.6589 10.0009 11.6589C9.56816 11.6589 9.14744 11.6171 8.73987 11.5384L7.96172 13.657C7.81891 14.0458 7.38794 14.2452 6.99913 14.1024C6.61031 13.9596 6.41088 13.5286 6.5537 13.1398L7.30558 11.0928C6.67618 10.8202 6.08803 10.4597 5.54659 10.0344L4.1283 11.4414C3.83424 11.7331 3.35937 11.7312 3.06765 11.4371C2.77593 11.1431 2.77784 10.6682 3.0719 10.3765L4.44407 9.01526C3.86615 8.39265 3.36456 7.69765 2.94936 6.97303C2.74343 6.61364 2.86784 6.15535 3.22723 5.94942C3.58663 5.74349 4.04492 5.8679 4.25085 6.22729C5.54874 8.49241 7.62855 10.1589 10.0009 10.1589C12.4396 10.1589 14.8999 8.42976 15.701 6.33253C15.8489 5.94559 16.2824 5.75173 16.6693 5.89954Z" fill="#698796"/>
</svg>
