<svg width="20" height="20" viewBox="0 0 20 20" fill="none" xmlns="http://www.w3.org/2000/svg">
<path fill-rule="evenodd" clip-rule="evenodd" d="M17.5191 9.82651C17.5192 9.8265 17.5188 9.82787 17.5179 9.83067L17.5191 9.82651ZM17.0847 9.44542C17.2518 9.6724 17.3679 9.86036 17.441 10C17.3679 10.1396 17.2518 10.3276 17.0847 10.5546C16.7066 11.0683 16.1335 11.6928 15.4067 12.2951C13.9321 13.5174 12.0109 14.5 10 14.5C7.98911 14.5 6.06786 13.5174 4.59329 12.2951C3.86655 11.6928 3.29343 11.0683 2.91531 10.5546C2.74824 10.3276 2.6321 10.1396 2.55897 10C2.6321 9.86036 2.74824 9.6724 2.91531 9.44542C3.29343 8.9317 3.86655 8.30724 4.59329 7.70485C6.06786 6.48258 7.98911 5.5 10 5.5C12.0109 5.5 13.9321 6.48258 15.4067 7.70485C16.1335 8.30724 16.7066 8.9317 17.0847 9.44542ZM2.48088 9.82651L2.48212 9.83067C2.48121 9.82787 2.48084 9.8265 2.48088 9.82651ZM2.48088 10.1735C2.48084 10.1735 2.48121 10.1721 2.48212 10.1693L2.48088 10.1735ZM17.5188 10.1724C17.5186 10.1717 17.5183 10.1707 17.5179 10.1693L17.5191 10.1735C17.5191 10.1735 17.519 10.1731 17.5188 10.1724ZM19 10C19 11.2 14.9706 16 10 16C5.02944 16 1 11.2 1 10C1 8.8 5.02944 4 10 4C14.9706 4 19 8.8 19 10ZM10.05 11.8C11.0165 11.8 11.8 11.0165 11.8 10.05C11.8 9.08351 11.0165 8.30001 10.05 8.30001C9.08352 8.30001 8.30002 9.08351 8.30002 10.05C8.30002 11.0165 9.08352 11.8 10.05 11.8Z" fill="#698796"/>
</svg>
