<svg width="20" height="20" viewBox="0 0 20 20" fill="none" xmlns="http://www.w3.org/2000/svg">
<path fill-rule="evenodd" clip-rule="evenodd" d="M3.49998 14.6666V16.5H16.5V12.3131L14.3678 10.8004C14.2684 10.7298 14.1326 10.7413 14.0464 10.8275L10.3783 14.4955C9.80676 15.0671 8.91809 15.1728 8.22836 14.7513L5.70535 13.2095C5.61798 13.1561 5.50689 13.1614 5.42498 13.2228L3.49998 14.6666ZM1.99998 13.9315V17.25C1.99998 17.6642 2.33576 18 2.74998 18H17.25C17.6642 18 18 17.6642 18 17.25V2.75C18 2.33579 17.6642 2 17.25 2H2.74998C2.33576 2 1.99998 2.33579 1.99998 2.75V13.9166L1.99283 13.9219L1.99998 13.9315ZM3.49998 12.7916L4.52498 12.0228C5.09835 11.5928 5.87597 11.5558 6.48752 11.9296L9.01053 13.4714C9.10907 13.5316 9.23602 13.5165 9.31767 13.4349L12.9857 9.76682C13.5891 9.1634 14.5398 9.08319 15.2358 9.57699L16.5 10.4739V3.5H3.49998V12.7916ZM7.75003 9.01437C8.44039 9.01437 9.00003 8.45473 9.00003 7.76437C9.00003 7.07402 8.44039 6.51437 7.75003 6.51437C7.05967 6.51437 6.50003 7.07402 6.50003 7.76437C6.50003 8.45473 7.05967 9.01437 7.75003 9.01437ZM7.75003 10.5144C9.26881 10.5144 10.5 9.28316 10.5 7.76437C10.5 6.24559 9.26881 5.01437 7.75003 5.01437C6.23125 5.01437 5.00003 6.24559 5.00003 7.76437C5.00003 9.28316 6.23125 10.5144 7.75003 10.5144Z" fill="#698796"/>
</svg>
