<svg width="20" height="20" viewBox="0 0 20 20" fill="none" xmlns="http://www.w3.org/2000/svg">
<path fill-rule="evenodd" clip-rule="evenodd" d="M18.3812 3.55353L19.4983 2.56057L18.5017 1.43945L16.7461 3L15.0586 4.5L2.75541 15.4362L1.61882 16.4465L0.501709 17.4395L1.49825 18.5606L3.25389 17H3.25392L10.3755 10.6697L10.3755 10.6697L17.2446 4.56382L18.3812 3.55353ZM17 17H5.51172L7.19922 15.5H17C17.2761 15.5 17.5 15.2761 17.5 15V10.9341L15.0701 13.0603C14.475 13.5809 13.6048 13.6379 12.9469 13.1994L11.2336 12.0571C11.1983 12.0336 11.1586 12.02 11.1184 12.0162L12.3004 10.9656L13.779 11.9513C13.873 12.0139 13.9973 12.0058 14.0823 11.9314L17.5 8.94092V6.34375L19 5.01042V15C19 16.1046 18.1046 17 17 17ZM5.6536 10.8531L8.93598 7.93541C8.68003 6.82663 7.68655 6 6.5 6C5.11929 6 4 7.11929 4 8.5C4 9.58363 4.68944 10.5062 5.6536 10.8531ZM3 4.5H12.8008L14.4883 3H3C1.89543 3 1 3.89543 1 5V14.9896L2.5 13.6563V5C2.5 4.72386 2.72386 4.5 3 4.5ZM6.5 9.5C7.05228 9.5 7.5 9.05228 7.5 8.5C7.5 7.94772 7.05228 7.5 6.5 7.5C5.94772 7.5 5.5 7.94772 5.5 8.5C5.5 9.05228 5.94772 9.5 6.5 9.5Z" fill="#698796"/>
</svg>
