<svg width="20" height="20" viewBox="0 0 20 20" fill="none" xmlns="http://www.w3.org/2000/svg">
<path fill-rule="evenodd" clip-rule="evenodd" d="M3 13.529V17H17V11.1498L14.513 9.39425C14.3141 9.2539 14.0432 9.27709 13.8711 9.44918L10.2016 13.1187C9.71165 13.6086 8.94993 13.6992 8.35873 13.3379L5.83572 11.7961C5.66099 11.6893 5.43881 11.6999 5.27499 11.8227L3 13.529ZM3 12.279L4.67499 11.0227C5.16645 10.6542 5.83298 10.6225 6.35717 10.9428L8.88018 12.4847C9.07725 12.6051 9.33115 12.5749 9.49446 12.4116L13.164 8.74207C13.6802 8.22582 14.4932 8.15625 15.0896 8.57728L17 9.92576V3H3V12.279ZM2.75 2C2.33579 2 2 2.33579 2 2.75V17.25C2 17.6642 2.33579 18 2.75 18H17.25C17.6642 18 18 17.6642 18 17.25V2.75C18 2.33579 17.6642 2 17.25 2H2.75ZM6.28571 7.58573C6.99579 7.58573 7.57143 7.0101 7.57143 6.30002C7.57143 5.58994 6.99579 5.01431 6.28571 5.01431C5.57563 5.01431 5 5.58994 5 6.30002C5 7.0101 5.57563 7.58573 6.28571 7.58573ZM6.28571 8.58573C7.54808 8.58573 8.57143 7.56239 8.57143 6.30002C8.57143 5.03766 7.54808 4.01431 6.28571 4.01431C5.02335 4.01431 4 5.03766 4 6.30002C4 7.56239 5.02335 8.58573 6.28571 8.58573Z" fill="#53707F"/>
</svg>
