<svg width="20" height="20" viewBox="0 0 20 20" fill="none" xmlns="http://www.w3.org/2000/svg">
<path fill-rule="evenodd" clip-rule="evenodd" d="M17 4.5H3C2.72386 4.5 2.5 4.72386 2.5 5V15C2.5 15.2761 2.72386 15.5 3 15.5H4.9409C4.95797 15.481 4.97617 15.4626 4.9955 15.445L9.91777 10.9703C10.512 10.4301 11.3975 10.3636 12.0657 10.8091L13.779 11.9513C13.873 12.0139 13.9973 12.0058 14.0823 11.9314L17.5 8.94092V5C17.5 4.72386 17.2761 4.5 17 4.5ZM17.5 10.9341L15.0701 13.0603C14.475 13.5809 13.6048 13.6379 12.9469 13.1994L11.2336 12.0571C11.1382 11.9935 11.0117 12.003 10.9268 12.0802L7.16495 15.5H17C17.2761 15.5 17.5 15.2761 17.5 15V10.9341ZM3 3C1.89543 3 1 3.89543 1 5V15C1 16.1046 1.89543 17 3 17H17C18.1046 17 19 16.1046 19 15V5C19 3.89543 18.1046 3 17 3H3ZM6.5 9.5C7.05228 9.5 7.5 9.05228 7.5 8.5C7.5 7.94772 7.05228 7.5 6.5 7.5C5.94772 7.5 5.5 7.94772 5.5 8.5C5.5 9.05228 5.94772 9.5 6.5 9.5ZM6.5 11C7.88071 11 9 9.88071 9 8.5C9 7.11929 7.88071 6 6.5 6C5.11929 6 4 7.11929 4 8.5C4 9.88071 5.11929 11 6.5 11Z" fill="#698796"/>
</svg>
