<svg width="20" height="20" viewBox="0 0 20 20" fill="none" xmlns="http://www.w3.org/2000/svg">
<path fill-rule="evenodd" clip-rule="evenodd" d="M2.64681 3.7147L3.18004 4.2421L8.69365 9.69545H6.49773C6.08393 9.69545 5.74848 10.0316 5.74848 10.4462C5.74848 10.8608 6.08393 11.197 6.49773 11.197H10.441H11.1902V10.4462L11.1902 6.49422C11.1902 6.07959 10.8548 5.74347 10.441 5.74347C10.0272 5.74347 9.69172 6.07959 9.69172 6.49422L9.69172 8.57285L4.23272 3.1735L3.69949 2.6461L2.64681 3.7147ZM15.75 4.5224C15.75 4.38433 15.6381 4.2724 15.5 4.2724H10.4538C10.0396 4.2724 9.70384 3.93661 9.70384 3.5224C9.70384 3.10818 10.0396 2.7724 10.4538 2.7724H15.5C16.4665 2.7724 17.25 3.5559 17.25 4.5224V15.5045C17.25 16.471 16.4665 17.2545 15.5 17.2545H4.54394C3.57744 17.2545 2.79394 16.471 2.79394 15.5045V10.4462C2.79394 10.032 3.12972 9.69621 3.54394 9.69621C3.95815 9.69621 4.29394 10.032 4.29394 10.4462V15.5045C4.29394 15.6426 4.40586 15.7545 4.54394 15.7545H15.5C15.6381 15.7545 15.75 15.6426 15.75 15.5045V4.5224Z" fill="#698796"/>
</svg>
