<svg width="20" height="20" viewBox="0 0 20 20" fill="none" xmlns="http://www.w3.org/2000/svg">
<path d="M4.54543 18.046H15.4546C16.1297 18.046 16.7771 17.7771 17.2546 17.2984C17.7318 16.8196 18 16.1703 18 15.4933V4.55274C18 3.87568 17.7318 3.22639 17.2546 2.74759C16.7771 2.26894 16.1297 2 15.4546 2H10.0417C10.0417 2.98497 10.0417 2.57307 10.0417 3.45869H15.4546C15.7439 3.45869 16.0214 3.57392 16.2261 3.77905C16.4306 3.98434 16.5455 4.26259 16.5455 4.55275V15.4933C16.5455 15.7834 16.4306 16.0617 16.2261 16.267C16.0214 16.4721 15.7439 16.5873 15.4546 16.5873H4.54543C4.25611 16.5873 3.97866 16.4721 3.77395 16.267C3.56941 16.0617 3.4545 15.7834 3.4545 15.4933V10.0648C2.57143 10.0648 2.57143 10.0648 2 10.0648V15.4933C2 16.1703 2.26816 16.8196 2.74545 17.2984C3.22288 17.7771 3.87031 18.046 4.54543 18.046Z" fill="#698796"/>
<path d="M3.2 2.16299L10.2399 9.26072V6.28108C10.2399 6.02032 10.3787 5.77944 10.6038 5.64898C10.8291 5.51853 11.1065 5.51853 11.3317 5.64898C11.557 5.77943 11.6956 6.02033 11.6956 6.28108V10.9674C11.6946 11.0627 11.6956 11.1575 11.6956 11.256C11.6956 11.3687 11.6956 11.594 11.6956 11.6973C11.6198 11.6973 11.0815 11.696 10.9679 11.6973H6.01655C5.75655 11.6973 5.51635 11.5583 5.38627 11.3323C5.2562 11.1064 5.2562 10.8282 5.38627 10.6023C5.51635 10.3766 5.75655 10.2374 6.01655 10.2374H9.22862L2.1667 3.19927C2.56777 2.79704 2.72079 2.64357 3.2 2.16299Z" fill="#698796"/>
</svg>
