<svg width="20" height="20" viewBox="0 0 20 20" fill="none" xmlns="http://www.w3.org/2000/svg">
<path fill-rule="evenodd" clip-rule="evenodd" d="M10 16.5C13.5899 16.5 16.5 13.5899 16.5 10C16.5 6.41015 13.5899 3.5 10 3.5C6.41015 3.5 3.5 6.41015 3.5 10C3.5 13.5899 6.41015 16.5 10 16.5ZM10 18C14.4183 18 18 14.4183 18 10C18 5.58172 14.4183 2 10 2C5.58172 2 2 5.58172 2 10C2 14.4183 5.58172 18 10 18ZM10 7.79999C10.4142 7.79999 10.75 7.46421 10.75 7.04999C10.75 6.63578 10.4142 6.29999 10 6.29999C9.58579 6.29999 9.25 6.63578 9.25 7.04999C9.25 7.46421 9.58579 7.79999 10 7.79999ZM10 8.79999C9.58579 8.79999 9.25 9.13578 9.25 9.54999V13.05C9.25 13.4642 9.58579 13.8 10 13.8C10.4142 13.8 10.75 13.4642 10.75 13.05V9.54999C10.75 9.13578 10.4142 8.79999 10 8.79999Z" fill="#698796"/>
</svg>
