<svg width="20" height="20" viewBox="0 0 20 20" fill="none" xmlns="http://www.w3.org/2000/svg">
<path fill-rule="evenodd" clip-rule="evenodd" d="M5.53299 5.5C5.53299 3.01472 7.54771 1 10.033 1C12.5183 1 14.533 3.01472 14.533 5.5V7.99502H16C16.5523 7.99502 17 8.44273 17 8.99502V18C17 18.5523 16.5523 19 16 19H4C3.44772 19 3 18.5523 3 18V8.99502C3 8.44273 3.44772 7.99502 4 7.99502H5.53299V5.5ZM13.533 5.5V7.99502H6.53299V5.5C6.53299 3.567 8.09999 2 10.033 2C11.966 2 13.533 3.567 13.533 5.5ZM16 8.99502H4V18H16V8.99502ZM10 14.4052C10.5523 14.4052 11 13.9575 11 13.4052C11 12.8529 10.5523 12.4052 10 12.4052C9.44772 12.4052 9 12.8529 9 13.4052C9 13.9575 9.44772 14.4052 10 14.4052Z" fill="#698796" class="primary"/>
</svg>
