<svg width="20" height="20" viewBox="0 0 20 20" fill="none" xmlns="http://www.w3.org/2000/svg">
<path fill-rule="evenodd" clip-rule="evenodd" d="M5.28299 5.5C5.28299 2.87665 7.40964 0.75 10.033 0.75C12.6563 0.75 14.783 2.87665 14.783 5.5V8H16C16.5523 8 17 8.44772 17 9V17C17 17.5523 16.5523 18 16 18H4C3.44772 18 3 17.5523 3 17V9C3 8.44772 3.44772 8 4 8H5.28299V5.5ZM13.283 5.5V8H6.78299V5.5C6.78299 3.70507 8.23806 2.25 10.033 2.25C11.8279 2.25 13.283 3.70508 13.283 5.5ZM4.5 9.5V16.5H15.5V9.5H4.5ZM9.99997 14.5C10.8284 14.5 11.5 13.8284 11.5 13C11.5 12.1715 10.8284 11.5 9.99997 11.5C9.17154 11.5 8.49997 12.1715 8.49997 13C8.49997 13.8284 9.17154 14.5 9.99997 14.5Z" fill="#698796"/>
</svg>
