<svg width="20" height="20" viewBox="0 0 20 20" fill="none" xmlns="http://www.w3.org/2000/svg">
<path fill-rule="evenodd" clip-rule="evenodd" d="M4 5H16C16.5523 5 17 5.44772 17 6V14C17 14.5523 16.5523 15 16 15H4C3.44772 15 3 14.5523 3 14V6C3 5.44772 3.44772 5 4 5ZM2 6C2 4.89543 2.89543 4 4 4H16C17.1046 4 18 4.89543 18 6V14C18 15.1046 17.1046 16 16 16H4C2.89543 16 2 15.1046 2 14V6ZM8.33334 11.6169V8.3831C8.33334 7.99445 8.75733 7.75439 9.09059 7.95435L11.7854 9.57126C12.1091 9.76546 12.1091 10.2345 11.7854 10.4287L9.09059 12.0457C8.75733 12.2456 8.33334 12.0056 8.33334 11.6169Z" fill="#698796"/>
</svg>
