<svg width="20" height="20" viewBox="0 0 20 20" fill="none" xmlns="http://www.w3.org/2000/svg">
<path fill-rule="evenodd" clip-rule="evenodd" d="M6.57143 5.57143H10V4.28571C10 3.57563 10.5756 3 11.2857 3C11.9958 3 12.5714 3.57563 12.5714 4.28571V5.57143H16V15H13.4286V14.5714C13.4286 13.388 12.4692 12.4286 11.2857 12.4286C10.1022 12.4286 9.14284 13.388 9.14284 14.5714V15H6.57143V11.5714H5.28571C4.57563 11.5714 4 10.9958 4 10.2857C4 9.57563 4.57563 9 5.28571 9H6.57143V5.57143ZM5.57143 8V4.57143H9V4.28571C9 3.02335 10.0233 2 11.2857 2C12.5481 2 13.5714 3.02335 13.5714 4.28571V4.57143H17V16H12.4286V14.5714C12.4286 13.9402 11.9169 13.4286 11.2857 13.4286C10.6545 13.4286 10.1428 13.9402 10.1428 14.5714V16H5.57143V12.5714H5.28571C4.02335 12.5714 3 11.5481 3 10.2857C3 9.02335 4.02335 8 5.28571 8H5.57143Z" fill="#698796" class="primary"/>
</svg>
