<svg width="20" height="20" viewBox="0 0 20 20" fill="none" xmlns="http://www.w3.org/2000/svg">
<path fill-rule="evenodd" clip-rule="evenodd" d="M7.8751 2.5C7.8751 2.22386 8.09895 2 8.3751 2H11.6251C11.9012 2 12.1251 2.22386 12.1251 2.5C12.1251 2.77614 11.9012 3 11.6251 3H10.4701V5.18995C11.4525 5.25923 12.3745 5.54392 13.1879 5.99641L14.822 4.0988C15.0022 3.88956 15.3179 3.866 15.5271 4.0462C15.7364 4.22639 15.7599 4.54209 15.5797 4.75134L14.0282 6.55309C15.5338 7.72766 16.5 9.54587 16.5 11.5867C16.5 15.1287 13.5898 18 9.99997 18C6.41012 18 3.49997 15.1287 3.49997 11.5867C3.49997 9.51655 4.49409 7.67547 6.037 6.50287L4.52868 4.75134C4.34849 4.54209 4.37204 4.22639 4.58129 4.0462C4.79054 3.866 5.10624 3.88956 5.28644 4.0988L6.88577 5.95603C7.66432 5.53596 8.53955 5.2685 9.47013 5.19443V3H8.3751C8.09895 3 7.8751 2.77614 7.8751 2.5ZM13.6134 10.031C13.7052 10.2914 13.5685 10.577 13.3081 10.6688L10.2747 11.7381C10.0143 11.8299 9.72874 11.6932 9.63693 11.4328C9.54512 11.1724 9.68182 10.8868 9.94226 10.795L12.9756 9.72568C13.236 9.63387 13.5216 9.77057 13.6134 10.031ZM15.5 11.5867C15.5 14.5638 13.0502 17 9.99997 17C6.9497 17 4.49997 14.5638 4.49997 11.5867C4.49997 8.60966 6.9497 6.17343 9.99997 6.17343C13.0502 6.17343 15.5 8.60966 15.5 11.5867Z" fill="#698796"/>
</svg>
