<svg width="20" height="20" viewBox="0 0 20 20" fill="none" xmlns="http://www.w3.org/2000/svg">
<path fill-rule="evenodd" clip-rule="evenodd" d="M7.62513 2.5C7.62513 2.08579 7.96091 1.75 8.37513 1.75H11.6251C12.0393 1.75 12.3751 2.08579 12.3751 2.5C12.3751 2.91421 12.0393 3.25 11.6251 3.25H10.7202V5.21234C11.5199 5.29932 12.276 5.52946 12.9615 5.87622L14.6326 3.93567C14.9028 3.6218 15.3764 3.58647 15.6903 3.85676C16.0041 4.12705 16.0395 4.6006 15.7692 4.91448L14.2224 6.71068C15.6164 7.88695 16.5 9.63503 16.5 11.5867C16.5 15.1287 13.5899 18 10 18C6.41015 18 3.5 15.1287 3.5 11.5867C3.5 9.60571 4.41033 7.83449 5.84076 6.65807L4.33927 4.91448C4.06898 4.6006 4.10431 4.12705 4.41818 3.85676C4.73206 3.58647 5.20561 3.6218 5.4759 3.93567L7.11445 5.83843C7.76247 5.52115 8.47178 5.3074 9.22016 5.21911V3.25H8.37513C7.96091 3.25 7.62513 2.91421 7.62513 2.5ZM13.8492 9.94789C13.9869 10.3385 13.7819 10.7669 13.3912 10.9046L10.3579 11.9739C9.96722 12.1116 9.5389 11.9066 9.40118 11.5159C9.26347 11.1253 9.46852 10.6969 9.85917 10.5592L12.8925 9.4899C13.2832 9.35219 13.7115 9.55724 13.8492 9.94789ZM15 11.5867C15 14.2813 12.7805 16.5 10 16.5C7.21952 16.5 5 14.2813 5 11.5867C5 8.89211 7.21952 6.67343 10 6.67343C12.7805 6.67343 15 8.89211 15 11.5867Z" fill="#698796"/>
</svg>
