<svg width="20" height="20" viewBox="0 0 20 20" fill="none" xmlns="http://www.w3.org/2000/svg">
<path fill-rule="evenodd" clip-rule="evenodd" d="M16.7334 5.71032L15.6697 7.27226C14.9862 5.16876 13.1929 3.50237 10.8628 3.09151C7.50162 2.49885 4.29641 4.74316 3.70375 8.10431L4.68856 8.27796C5.18532 5.4607 7.87186 3.57956 10.6891 4.07632C12.6792 4.42723 14.2022 5.87084 14.7499 7.68134L12.9186 6.43431L12.3558 7.26087L15.0384 9.08768C15.2667 9.24311 15.5777 9.18408 15.7331 8.95584L17.5599 6.27318L16.7334 5.71032ZM2.82654 13.2865L3.95866 11.624C4.61715 13.7747 6.43029 15.4877 8.79731 15.9051C12.1585 16.4977 15.3637 14.2534 15.9563 10.8923L14.9715 10.7186C14.4748 13.5359 11.7882 15.417 8.97096 14.9203C7.01279 14.575 5.50687 13.1718 4.93734 11.4021L6.6413 12.5625L7.20416 11.7359L4.52151 9.90912C4.29326 9.75369 3.98223 9.81272 3.8268 10.041L1.99998 12.7236L2.82654 13.2865Z" fill="#698796"/>
</svg>
