<svg width="20" height="20" viewBox="0 0 20 20" fill="none" xmlns="http://www.w3.org/2000/svg">
<path fill-rule="evenodd" clip-rule="evenodd" d="M17.1663 5.91809L16.2028 7.33291C15.4329 5.07677 13.4904 3.29761 10.9768 2.85439C7.30087 2.20622 3.79545 4.66074 3.14727 8.33672L4.62449 8.59719C5.12881 5.73705 7.85624 3.82728 10.7164 4.3316C12.5317 4.65169 13.9642 5.86735 14.6396 7.44408L13.4378 6.62571L12.5935 7.86554L15.4315 9.79811C15.7738 10.0313 16.2404 9.94271 16.4735 9.60035L18.4061 6.76238L17.1663 5.91809ZM2.61967 14.2821L3.56883 12.8883C4.38741 15.0389 6.28413 16.717 8.71498 17.1456C12.391 17.7938 15.8964 15.3392 16.5446 11.6633L15.0673 11.4028C14.563 14.2629 11.8356 16.1727 8.97545 15.6684C7.23642 15.3617 5.84873 14.2332 5.14141 12.7527L6.34816 13.5745L7.19245 12.3347L4.35448 10.4021C4.01211 10.169 3.54556 10.2575 3.31242 10.5999L1.37984 13.4378L2.61967 14.2821Z" fill="#698796"/>
</svg>
