<svg width="20" height="20" viewBox="0 0 20 20" fill="none" xmlns="http://www.w3.org/2000/svg">
<path fill-rule="evenodd" clip-rule="evenodd" d="M3 9.99883C3 9.74546 3.01347 9.49524 3.03972 9.24883C3.26022 7.17952 4.38274 5.3797 6.00656 4.25L3.59999 4.25L3.59999 2.75L7.59999 2.75C8.0142 2.75 8.34999 3.08579 8.34999 3.5V7.49927L6.84999 7.49927L6.84999 5.4907C5.4291 6.48493 4.5 8.13349 4.5 9.99883C4.5 13.0354 6.96218 15.4976 10 15.4976C13.0378 15.4976 15.5 13.0354 15.5 9.99883C15.5 7.32684 13.5936 5.09965 11.0661 4.60333L11.3129 3.123C14.5513 3.73738 17 6.5822 17 9.99883C17 13.8641 13.866 16.9976 10 16.9976C6.38742 16.9976 3.41401 14.2615 3.03972 10.7488C3.01347 10.5024 3 10.2522 3 9.99883Z" fill="#698796"/>
</svg>
