<svg width="20" height="20" viewBox="0 0 20 20" fill="none" xmlns="http://www.w3.org/2000/svg">
<path fill-rule="evenodd" clip-rule="evenodd" d="M17 10.0012C17 9.83306 16.9941 9.66632 16.9824 9.50117C16.8176 7.1644 15.5062 5.14423 13.6075 4L16.4 4V3L12.4 3C12.1239 3 11.9 3.22386 11.9 3.5V7.50073H12.9V4.74619C14.7484 5.76883 16 7.73873 16 10.0012C16 13.3158 13.3135 16.0024 10 16.0024C6.68646 16.0024 4 13.3158 4 10.0012C4 7.07947 6.08735 4.64563 8.8516 4.10971L8.68715 3.12283C5.4487 3.73743 3 6.58329 3 10.0012C3 13.8679 6.13401 17.0024 10 17.0024C13.6979 17.0024 16.7261 14.1345 16.9824 10.5012C16.9941 10.336 17 10.1693 17 10.0012Z" fill="#698796"/>
</svg>
