<svg width="20" height="20" viewBox="0 0 20 20" fill="none" xmlns="http://www.w3.org/2000/svg">
<path fill-rule="evenodd" clip-rule="evenodd" d="M17 10.0012C17 9.7478 16.9865 9.49758 16.9603 9.25117C16.7399 7.18084 15.6172 5.38015 13.9931 4.25L16.4 4.25L16.4 2.75L12.4 2.75C11.9858 2.75 11.65 3.08579 11.65 3.5V7.50073L13.15 7.50073L13.15 5.49096C14.5708 6.48557 15.5 8.13475 15.5 10.0012C15.5 13.0397 13.0373 15.5024 10 15.5024C6.96269 15.5024 4.5 13.0397 4.5 10.0012C4.5 7.32756 6.4067 5.09973 8.93384 4.60319L8.68715 3.12283C5.4487 3.73743 3 6.58329 3 10.0012C3 13.8679 6.13401 17.0024 10 17.0024C13.6127 17.0024 16.5861 14.2652 16.9603 10.7512C16.9865 10.5048 17 10.2545 17 10.0012Z" fill="#698796"/>
</svg>
