<svg width="20" height="20" viewBox="0 0 20 20" fill="none" xmlns="http://www.w3.org/2000/svg">
<path fill-rule="evenodd" clip-rule="evenodd" d="M3 9.99883C3 9.83072 3.00593 9.66399 3.01759 9.49883C3.18249 7.1631 4.49377 5.14381 6.39229 4L3.59999 4V3L7.59999 3C7.87613 3 8.09999 3.22386 8.09999 3.5V7.49927H7.09999V4.74607C5.25154 5.76833 4 7.73753 4 9.99883C4 13.3117 6.68612 15.9976 10 15.9976C13.3139 15.9976 16 13.3117 16 9.99883C16 7.07862 13.9128 4.64555 11.1484 4.10986L11.3129 3.123C14.5513 3.73738 17 6.5822 17 9.99883C17 13.8641 13.866 16.9976 10 16.9976C6.30215 16.9976 3.27401 14.1308 3.01759 10.4988C3.00593 10.3337 3 10.167 3 9.99883Z" fill="#698796"/>
</svg>
