<svg width="20" height="20" viewBox="0 0 20 20" fill="none" xmlns="http://www.w3.org/2000/svg">
<path fill-rule="evenodd" clip-rule="evenodd" d="M12.6108 8.05542C12.6108 10.5713 10.5713 12.6108 8.05542 12.6108C5.53953 12.6108 3.5 10.5713 3.5 8.05542C3.5 5.53953 5.53953 3.5 8.05542 3.5C10.5713 3.5 12.6108 5.53953 12.6108 8.05542ZM11.7742 12.8348C10.7479 13.6345 9.45727 14.1108 8.05542 14.1108C4.71111 14.1108 2 11.3997 2 8.05542C2 4.71111 4.71111 2 8.05542 2C11.3997 2 14.1108 4.71111 14.1108 8.05542C14.1108 9.45727 13.6345 10.7479 12.8348 11.7742L18.1735 17.1129L17.1129 18.1735L11.7742 12.8348Z" fill="#698796"/>
</svg>
