<svg width="20" height="20" viewBox="0 0 20 20" fill="none" xmlns="http://www.w3.org/2000/svg">
<ellipse cx="10" cy="10" rx="3.2" ry="3.20001" stroke="#698796"/>
<path d="M11.9861 4.32981H11.4861V4.68561L11.8222 4.8022L11.9861 4.32981ZM13.8541 5.38526L13.5343 5.76964L13.7956 5.98702L14.0939 5.824L13.8541 5.38526ZM15.3857 4.54815L15.6255 4.9869L15.3857 4.54815ZM16.7838 4.92231L16.357 5.18265V5.18265L16.7838 4.92231ZM17.8252 6.6298L17.3983 6.89015L17.3983 6.89015L17.8252 6.6298ZM17.4684 7.96315L17.7082 8.40189V8.40189L17.4684 7.96315ZM15.903 8.81874L15.6632 8.38L15.3407 8.55625L15.4126 8.91664L15.903 8.81874ZM15.9305 11.0338L15.4379 10.9482L15.3766 11.3009L15.6907 11.4725L15.9305 11.0338ZM17.499 11.8911L17.7388 11.4523L17.499 11.8911ZM17.8558 13.2244L17.4289 12.9641L17.4289 12.9641L17.8558 13.2244ZM16.8144 14.9319L17.2413 15.1922L16.8144 14.9319ZM15.4163 15.3061L15.6561 14.8673L15.4163 15.3061ZM13.9701 14.5157L14.2099 14.0769L13.9035 13.9094L13.6407 14.1395L13.9701 14.5157ZM12.0126 15.6609L11.8465 15.1893L11.5126 15.3069V15.6609H12.0126ZM8.01258 17.0042H7.51258H8.01258ZM8.01258 15.6562H8.51258V15.3031L8.17976 15.185L8.01258 15.6562ZM6.10006 14.5433L6.42682 14.1648L6.16444 13.9383L5.86026 14.1045L6.10006 14.5433ZM4.61293 15.3561L4.37313 14.9173L4.61293 15.3561ZM3.21476 14.9819L3.64163 14.7216H3.64163L3.21476 14.9819ZM2.17338 13.2744L1.74651 13.5348H1.74651L2.17338 13.2744ZM2.53019 11.9411L2.76999 12.3798H2.76999L2.53019 11.9411ZM4.11521 11.0748L4.35501 11.5135L4.6714 11.3406L4.60723 10.9858L4.11521 11.0748ZM4.12015 8.89828L4.61175 8.98952L4.67787 8.63323L4.35986 8.45949L4.12015 8.89828ZM2.49973 8.01301L2.26001 8.4518H2.26001L2.49973 8.01301ZM2.14301 6.67992L1.71618 6.4195H1.71618L2.14301 6.67992ZM3.1847 4.97262L3.61152 5.23305H3.61152L3.1847 4.97262ZM4.58312 4.59841L4.3434 5.0372L4.3434 5.0372L4.58312 4.59841ZM6.12109 5.43864L5.88137 5.87743L6.18403 6.04278L6.44611 5.8186L6.12109 5.43864ZM7.98607 4.35324L8.15548 4.82366L8.48607 4.70461V4.35324H7.98607ZM8.98607 1.5C8.15765 1.5 7.48607 2.17157 7.48607 3H8.48607C8.48607 2.72386 8.70993 2.5 8.98607 2.5V1.5ZM10.9861 1.5H8.98607V2.5H10.9861V1.5ZM12.4861 3C12.4861 2.17157 11.8145 1.5 10.9861 1.5V2.5C11.2622 2.5 11.4861 2.72386 11.4861 3H12.4861ZM12.4861 4.32981V3H11.4861V4.32981H12.4861ZM14.1738 5.00088C13.5798 4.5067 12.8959 4.11614 12.1499 3.85741L11.8222 4.8022C12.4525 5.02081 13.0311 5.35106 13.5343 5.76964L14.1738 5.00088ZM15.1459 4.10941L13.6143 4.94651L14.0939 5.824L15.6255 4.9869L15.1459 4.10941ZM17.2107 4.66196C16.7842 3.96257 15.8647 3.71652 15.1459 4.10941L15.6255 4.9869C15.8759 4.85004 16.2084 4.93902 16.357 5.18265L17.2107 4.66196ZM18.2521 6.36946L17.2107 4.66196L16.357 5.18265L17.3983 6.89015L18.2521 6.36946ZM17.7082 8.40189C18.4433 8.00012 18.6883 7.08468 18.2521 6.36946L17.3983 6.89015C17.5373 7.11795 17.4627 7.39643 17.2286 7.5244L17.7082 8.40189ZM16.1428 9.25749L17.7082 8.40189L17.2286 7.5244L15.6632 8.38L16.1428 9.25749ZM16.5192 10C16.5192 9.56261 16.4759 9.13482 16.3933 8.72085L15.4126 8.91664C15.4825 9.2665 15.5192 9.62871 15.5192 10H16.5192ZM16.4231 11.1193C16.4863 10.7554 16.5192 10.3813 16.5192 10H15.5192C15.5192 10.3237 15.4913 10.6405 15.4379 10.9482L16.4231 11.1193ZM17.7388 11.4523L16.1703 10.595L15.6907 11.4725L17.2592 12.3298L17.7388 11.4523ZM18.2827 13.4848C18.7189 12.7695 18.4739 11.8541 17.7388 11.4523L17.2592 12.3298C17.4933 12.4578 17.5679 12.7363 17.4289 12.9641L18.2827 13.4848ZM17.2413 15.1922L18.2827 13.4848L17.4289 12.9641L16.3876 14.6716L17.2413 15.1922ZM15.1765 15.7448C15.8953 16.1377 16.8148 15.8916 17.2413 15.1922L16.3876 14.6716C16.239 14.9152 15.9065 15.0042 15.6561 14.8673L15.1765 15.7448ZM13.7303 14.9544L15.1765 15.7448L15.6561 14.8673L14.2099 14.0769L13.7303 14.9544ZM12.1786 16.1325C12.9665 15.8551 13.6845 15.4304 14.2995 14.8918L13.6407 14.1395C13.1197 14.5957 12.5122 14.9549 11.8465 15.1893L12.1786 16.1325ZM12.5126 17.0042V15.6609H11.5126V17.0042H12.5126ZM11.0126 18.5042C11.841 18.5042 12.5126 17.8327 12.5126 17.0042H11.5126C11.5126 17.2804 11.2887 17.5042 11.0126 17.5042V18.5042ZM9.01258 18.5042H11.0126V17.5042H9.01258V18.5042ZM7.51258 17.0042C7.51258 17.8327 8.18415 18.5042 9.01258 18.5042V17.5042C8.73643 17.5042 8.51258 17.2804 8.51258 17.0042H7.51258ZM7.51258 15.6562L7.51258 17.0042H8.51258L8.51258 15.6562H7.51258ZM5.7733 14.9217C6.37689 15.4429 7.07776 15.8551 7.8454 16.1275L8.17976 15.185C7.53115 14.9549 6.93811 14.6063 6.42682 14.1648L5.7733 14.9217ZM5.86026 14.1045L4.37313 14.9173L4.85273 15.7948L6.33986 14.982L5.86026 14.1045ZM4.37313 14.9173C4.12273 15.0542 3.79021 14.9652 3.64163 14.7216L2.78788 15.2423C3.21443 15.9417 4.13388 16.1877 4.85273 15.7948L4.37313 14.9173ZM3.64163 14.7216L2.60026 13.0141L1.74651 13.5348L2.78788 15.2423L3.64163 14.7216ZM2.60026 13.0141C2.46133 12.7863 2.53585 12.5078 2.76999 12.3798L2.29039 11.5023C1.55528 11.9041 1.31031 12.8195 1.74651 13.5348L2.60026 13.0141ZM2.76999 12.3798L4.35501 11.5135L3.87541 10.636L2.29039 11.5023L2.76999 12.3798ZM3.51922 10C3.51922 10.3969 3.55484 10.7858 3.62319 11.1638L4.60723 10.9858C4.54945 10.6663 4.51922 10.3369 4.51922 10H3.51922ZM3.62854 8.80704C3.5567 9.19413 3.51922 9.59291 3.51922 10H4.51922C4.51922 9.65441 4.55103 9.31671 4.61175 8.98952L3.62854 8.80704ZM2.26001 8.4518L3.88043 9.33707L4.35986 8.45949L2.73945 7.57423L2.26001 8.4518ZM1.71618 6.4195C1.27981 7.1347 1.52477 8.05012 2.26001 8.4518L2.73945 7.57423C2.50535 7.44633 2.43089 7.16807 2.56983 6.94035L1.71618 6.4195ZM2.75787 4.7122L1.71618 6.4195L2.56983 6.94035L3.61152 5.23305L2.75787 4.7122ZM4.82284 4.15963C4.10399 3.7669 3.18452 4.01295 2.75787 4.7122L3.61152 5.23305C3.76019 4.98939 4.09291 4.90035 4.3434 5.0372L4.82284 4.15963ZM6.36081 4.99985L4.82284 4.15963L4.3434 5.0372L5.88137 5.87743L6.36081 4.99985ZM7.81667 3.88281C7.06989 4.15173 6.38692 4.55328 5.79608 5.05869L6.44611 5.8186C6.9466 5.39048 7.52447 5.0509 8.15548 4.82366L7.81667 3.88281ZM7.48607 3V4.35324H8.48607V3H7.48607Z" fill="#698796"/>
</svg>
