<svg width="20" height="20" viewBox="0 0 20 20" fill="none" xmlns="http://www.w3.org/2000/svg">
<path fill-rule="evenodd" clip-rule="evenodd" d="M8.98615 1.25C8.01966 1.25 7.23615 2.0335 7.23615 3V3.84886C6.81429 4.04 6.41577 4.27316 6.04588 4.54288L4.94278 3.94023C4.10684 3.48354 3.04068 3.76884 2.54454 4.58199L1.50285 6.28929L2.14309 6.67992L1.50285 6.28929C0.992117 7.12636 1.2797 8.20107 2.14023 8.6712L2.49654 8.019L2.14023 8.6712L3.30447 9.30724C3.2812 9.53518 3.2693 9.7663 3.2693 10C3.2693 10.2241 3.28025 10.4459 3.30167 10.6648L2.17057 11.283C1.31022 11.7532 1.02264 12.8279 1.53315 13.6649L2.57452 15.3724C3.07056 16.1858 4.13675 16.4711 4.97271 16.0142L6.02284 15.4402C6.40691 15.7228 6.82218 15.9658 7.26266 16.1631L7.26266 17.0042C7.26266 17.9707 8.04616 18.7542 9.01266 18.7542H11.0127C11.9792 18.7542 12.7627 17.9707 12.7627 17.0042V16.169C13.2215 15.9647 13.6531 15.7109 14.0507 15.4144L15.0566 15.9642C15.8926 16.4211 16.9588 16.1358 17.4548 15.3224L18.4962 13.6149C19.0067 12.7779 18.7191 11.7032 17.8588 11.2329L16.741 10.622C16.7597 10.417 16.7693 10.2095 16.7693 10C16.7693 9.73785 16.7543 9.47894 16.7251 9.22414L17.8282 8.62126C18.6885 8.15104 18.9761 7.07636 18.4656 6.23929L17.4242 4.53179C16.9282 3.71845 15.862 3.43314 15.026 3.89004L13.9231 4.49283C13.5535 4.23038 13.1561 4.0041 12.7362 3.81926V3C12.7362 2.0335 11.9527 1.25 10.9862 1.25H8.98615ZM8.73615 3C8.73615 2.86193 8.84808 2.75 8.98615 2.75H10.9862C11.1242 2.75 11.2362 2.86193 11.2362 3V4.32981V4.86351L11.7404 5.0384C12.3418 5.24697 12.8941 5.56215 13.3745 5.96183L13.7664 6.2879L14.2138 6.04337L15.7454 5.20627C15.8787 5.13342 16.0645 5.18313 16.1436 5.31282L17.185 7.02032C17.2206 7.07867 17.2242 7.13428 17.2119 7.18009C17.1997 7.22589 17.1688 7.27225 17.1088 7.30503L15.5434 8.16062L15.0596 8.425L15.1676 8.96558C15.2342 9.29942 15.2693 9.64524 15.2693 10C15.2693 10.3093 15.2426 10.6118 15.1916 10.9055L15.0998 11.4344L15.5709 11.6919L17.1394 12.5492C17.1994 12.582 17.2303 12.6283 17.2425 12.6741C17.2548 12.7199 17.2512 12.7755 17.2156 12.8339L16.1742 14.5414C16.0951 14.6711 15.9093 14.7208 15.776 14.6479L14.3299 13.8576L13.8702 13.6063L13.4761 13.9514C12.9786 14.3871 12.3987 14.7298 11.7636 14.9535L11.2627 15.1299V15.6609V17.0042C11.2627 17.1423 11.1507 17.2542 11.0127 17.2542H9.01266C8.87458 17.2542 8.76266 17.1423 8.76266 17.0042L8.76266 15.6562V15.1265L8.26343 14.9494C7.64457 14.7298 7.0785 14.3971 6.59028 13.9756L6.19671 13.6358L5.74044 13.8852L4.25331 14.698C4.12002 14.7708 3.93424 14.7211 3.85515 14.5914L2.81378 12.8839C2.77819 12.8256 2.77455 12.7699 2.7868 12.7241C2.79906 12.6783 2.82999 12.632 2.88997 12.5992L4.47499 11.7329L4.94957 11.4735L4.85332 10.9413C4.79818 10.6364 4.7693 10.3219 4.7693 10C4.7693 9.66979 4.79969 9.34735 4.85763 9.03514L4.95682 8.5007L4.4798 8.2401L2.85939 7.35483C2.79942 7.32207 2.76856 7.27576 2.75634 7.2301C2.74412 7.18443 2.74773 7.1289 2.78332 7.07056L3.82502 5.36326C3.90419 5.23349 4.09022 5.18371 4.22362 5.25659L5.76159 6.09682L6.21558 6.34485L6.6087 6.00857C7.0866 5.59978 7.6382 5.27569 8.24026 5.05888L8.73615 4.8803V4.35324V3ZM7.75 10C7.75 8.75736 8.75736 7.75 10 7.75C11.2426 7.75 12.25 8.75736 12.25 10C12.25 11.2426 11.2426 12.25 10 12.25C8.75736 12.25 7.75 11.2426 7.75 10ZM10 6.25C7.92893 6.25 6.25 7.92893 6.25 10C6.25 12.0711 7.92893 13.75 10 13.75C12.0711 13.75 13.75 12.0711 13.75 10C13.75 7.92893 12.0711 6.25 10 6.25Z" fill="#698796"/>
</svg>
