<svg width="20" height="20" viewBox="0 0 20 20" fill="none" xmlns="http://www.w3.org/2000/svg">
<path fill-rule="evenodd" clip-rule="evenodd" d="M2 4H5H5.39039L5.48507 4.37873L5.89039 6H16.5H17.172L16.9789 6.64367L15.4789 11.6437L15.372 12H15H13H7.5V11H14.628L15.828 7H5.5H5.10961L5.01493 6.62127L4.60961 5H2V4ZM13 12C14.1046 12 15 12.8954 15 14C15 15.1046 14.1046 16 13 16C11.8954 16 11 15.1046 11 14C11 12.8954 11.8954 12 13 12ZM6 9H3.5V8H6H8.5V9H6ZM6.5 10V11H3.5V10H6.5ZM9 14C9 15.1046 8.10457 16 7 16C5.89543 16 5 15.1046 5 14C5 12.8954 5.89543 12 7 12C8.10457 12 9 12.8954 9 14ZM6.14258 14C6.14258 14.4735 6.52646 14.8574 7 14.8574C7.47354 14.8574 7.85742 14.4735 7.85742 14C7.85742 13.5265 7.47354 13.1426 7 13.1426C6.52646 13.1426 6.14258 13.5265 6.14258 14ZM13 14.8574C12.5265 14.8574 12.1426 14.4735 12.1426 14C12.1426 13.5265 12.5265 13.1426 13 13.1426C13.4735 13.1426 13.8574 13.5265 13.8574 14C13.8574 14.4735 13.4735 14.8574 13 14.8574Z" fill="#698796"/>
</svg>
