<svg width="20" height="20" viewBox="0 0 20 20" fill="none" xmlns="http://www.w3.org/2000/svg">
<path fill-rule="evenodd" clip-rule="evenodd" d="M10.5017 2.11619L9.99948 1.66339L9.49726 2.11619L0.997787 9.77935C0.69015 10.0567 0.665611 10.531 0.942978 10.8386C1.22034 11.1462 1.69458 11.1708 2.00222 10.8934L9.99948 3.68305L17.9967 10.8934C18.3044 11.1708 18.7786 11.1462 19.056 10.8386C19.3333 10.531 19.3088 10.0567 19.0012 9.77935L10.5017 2.11619ZM9.99947 7.24009L15.299 11.9803V16.4995H4.69989V11.9803L9.99947 7.24009ZM3.53322 11.0113L9.99947 5.22761L16.4657 11.0113C16.6778 11.201 16.799 11.4721 16.799 11.7567V16.9995C16.799 17.5518 16.3513 17.9995 15.799 17.9995H4.19989C3.64761 17.9995 3.19989 17.5518 3.19989 16.9995V11.7567C3.19989 11.4721 3.32112 11.201 3.53322 11.0113Z" fill="#698796"/>
</svg>
