<svg width="20" height="20" viewBox="0 0 20 20" fill="none" xmlns="http://www.w3.org/2000/svg">
<path fill-rule="evenodd" clip-rule="evenodd" d="M7 4V2.25V2C7 1.44772 7.44772 1 8 1H8.25H11.75H12C12.5523 1 13 1.44772 13 2V2.25V4H14.5H16H17V5.5H16V17C16 18.1046 15.1046 19 14 19H6C4.89543 19 4 18.1046 4 17V5.5H3V4H4H5.5H7ZM8 5.5H5.5V17C5.5 17.2761 5.72386 17.5 6 17.5H14C14.2761 17.5 14.5 17.2761 14.5 17V5.5H12H11.5H10H8.5H8ZM11.5 4H10H8.5V2.5H11.5V4ZM7.75 15V8H9.25V15H7.75ZM10.75 8V15H12.25V8H10.75Z" fill="#698796"/>
</svg>
