<?xml version="1.0" encoding="utf-8"?>
<!-- Generator: Adobe Illustrator 19.2.0, SVG Export Plug-In . SVG Version: 6.00 Build 0)  -->
<svg version="1.1" id="Layer_1" xmlns="http://www.w3.org/2000/svg" xmlns:xlink="http://www.w3.org/1999/xlink" x="0px" y="0px"
	 viewBox="0 0 24 24" style="enable-background:new 0 0 24 24;" xml:space="preserve">
<style type="text/css">
	.st0{fill:#FFFFFF;}
</style>
<path class="st0" d="M18,10.5C18,6.9,15.1,4,11.5,4c-1.2,0-2.4,0.3-3.3,0.9l8.9,8.9C17.7,12.9,18,11.7,18,10.5z"/>
<path class="st0" d="M21.4,14c0.5-0.3,0.9-0.9,0.9-1.5c0-1-0.8-1.8-1.8-1.8s-1.8,0.8-1.8,1.8c0,0.5,0.2,1,0.6,1.3
	c-0.3,0.5-0.6,0.9-0.9,1.3l1.4,1.4C20.5,15.8,21,15,21.4,14z"/>
<path class="st0" d="M3.3,4.3c-0.4,0.4-0.4,1,0,1.4l2.2,2.2C5.2,8.7,5,9.6,5,10.5c0,2.3,1.2,4.3,3,5.5c0,0,0,0,0,0v3
	c0,0.6,0.4,1,1,1h5c0.6,0,1-0.4,1-1v-0.1c0.4-0.1,0.8-0.1,1.3-0.3l3,3c0.2,0.2,0.5,0.3,0.7,0.3s0.5-0.1,0.7-0.3c0.4-0.4,0.4-1,0-1.4
	l-16-16C4.3,3.9,3.7,3.9,3.3,4.3z"/>
</svg>
