<?xml version="1.0" encoding="utf-8"?>
<!-- Generator: Adobe Illustrator 19.2.0, SVG Export Plug-In . SVG Version: 6.00 Build 0)  -->
<svg version="1.1" id="Layer_1" xmlns="http://www.w3.org/2000/svg" xmlns:xlink="http://www.w3.org/1999/xlink" x="0px" y="0px"
	 viewBox="0 0 24 24" style="enable-background:new 0 0 24 24;" xml:space="preserve">
<style type="text/css">
	.st0{fill:#FFFFFF;}
</style>
<path class="st0" d="M20.3,15.6l-1.4-0.8l0.4-0.1c0.5-0.1,0.9-0.7,0.7-1.2c-0.1-0.5-0.7-0.8-1.2-0.7l-2.3,0.6L16,13.2v-2.3l0.5-0.3
	l2.3,0.6c0.1,0,0.2,0,0.3,0c0.4,0,0.8-0.3,1-0.7c0.1-0.5-0.2-1.1-0.7-1.2l-0.4-0.1l1.4-0.8c0.5-0.3,0.6-0.9,0.4-1.4
	c-0.3-0.5-0.9-0.6-1.4-0.4l-1.4,0.8L18,7c0.1-0.5-0.2-1.1-0.7-1.2c-0.5-0.1-1.1,0.2-1.2,0.7l-0.6,2.3L15,9.1l-2-1.2V7.4l1.7-1.7
	c0.4-0.4,0.4-1,0-1.4s-1-0.4-1.4,0L13,4.6V3c0-0.6-0.4-1-1-1s-1,0.4-1,1v1.6l-0.3-0.3c-0.4-0.4-1-0.4-1.4,0s-0.4,1,0,1.4L11,7.4v0.5
	L9,9.1L8.5,8.8L7.9,6.5C7.8,6,7.2,5.7,6.7,5.8C6.1,5.9,5.8,6.5,6,7l0.1,0.4L4.7,6.6C4.2,6.4,3.6,6.5,3.3,7C3.1,7.5,3.2,8.1,3.7,8.4
	l1.4,0.8L4.7,9.3C4.1,9.4,3.8,10,4,10.5c0.1,0.4,0.5,0.7,1,0.7c0.1,0,0.2,0,0.3,0l2.3-0.6L8,10.8v2.3l-0.5,0.3l-2.3-0.6
	C4.7,12.7,4.1,13,4,13.5c-0.1,0.5,0.2,1.1,0.7,1.2l0.4,0.1l-1.4,0.8c-0.5,0.3-0.6,0.9-0.4,1.4c0.2,0.3,0.5,0.5,0.9,0.5
	c0.2,0,0.3,0,0.5-0.1l1.4-0.8L6,17c-0.1,0.5,0.2,1.1,0.7,1.2c0.1,0,0.2,0,0.3,0c0.4,0,0.8-0.3,1-0.7l0.6-2.3L9,14.9l2,1.2v0.5
	l-1.7,1.7c-0.4,0.4-0.4,1,0,1.4s1,0.4,1.4,0l0.3-0.3V21c0,0.6,0.4,1,1,1s1-0.4,1-1v-1.6l0.3,0.3c0.2,0.2,0.5,0.3,0.7,0.3
	s0.5-0.1,0.7-0.3c0.4-0.4,0.4-1,0-1.4L13,16.6V16l2-1.2l0.5,0.3l0.6,2.3c0.1,0.4,0.5,0.7,1,0.7c0.1,0,0.2,0,0.3,0
	c0.5-0.1,0.9-0.7,0.7-1.2l-0.1-0.4l1.4,0.8c0.2,0.1,0.3,0.1,0.5,0.1c0.3,0,0.7-0.2,0.9-0.5C20.9,16.5,20.8,15.9,20.3,15.6z M14,13.1
	l-2,1.2l-2-1.2v-2.3l2-1.2l2,1.2V13.1z"/>
</svg>
