<?xml version="1.0" encoding="utf-8"?>
<!-- Generator: Adobe Illustrator 19.2.0, SVG Export Plug-In . SVG Version: 6.00 Build 0)  -->
<svg version="1.1" id="Layer_1" xmlns="http://www.w3.org/2000/svg" xmlns:xlink="http://www.w3.org/1999/xlink" x="0px" y="0px"
	 viewBox="0 0 24 24" style="enable-background:new 0 0 24 24;" xml:space="preserve">
<style type="text/css">
	.st0{fill:url(#SVGID_1_);}
	.st1{fill:url(#SVGID_2_);}
	.st2{fill:url(#SVGID_3_);}
	.st3{fill:url(#SVGID_4_);}
</style>
<linearGradient id="SVGID_1_" gradientUnits="userSpaceOnUse" x1="7.0509" y1="7.3436" x2="14.4702" y2="6.0353">
	<stop  offset="0" style="stop-color:#FFFFFF;stop-opacity:0"/>
	<stop  offset="1" style="stop-color:#FFFFFF"/>
</linearGradient>
<path class="st0" d="M13.3,10.5c1.1-3.4,1.3-6.1,0.4-7.1c-0.7-0.7-1.3-0.9-2.5-0.9C7.6,2.5,5.7,4,7.3,7.2C8.1,8.8,10,9,10.9,10.4
	c0.3-0.2,0.7-0.4,1.1-0.4C12.5,10,13,10.2,13.3,10.5z"/>
<linearGradient id="SVGID_2_" gradientUnits="userSpaceOnUse" x1="17.2935" y1="17.4888" x2="9.7104" y2="17.4888">
	<stop  offset="0" style="stop-color:#FFFFFF;stop-opacity:0"/>
	<stop  offset="1" style="stop-color:#FFFFFF"/>
</linearGradient>
<path class="st1" d="M10.7,13.5c-1.1,3.4-1.3,6.1-0.4,7.1c0.7,0.7,1.3,0.9,2.5,0.9c3.6,0,5.5-1.5,3.9-4.7c-0.8-1.6-2.7-1.8-3.6-3.2
	C12.8,13.9,12.4,14,12,14C11.5,14,11,13.8,10.7,13.5z"/>
<linearGradient id="SVGID_3_" gradientUnits="userSpaceOnUse" x1="16.5763" y1="6.5962" x2="17.9647" y2="14.4702">
	<stop  offset="0" style="stop-color:#FFFFFF;stop-opacity:0"/>
	<stop  offset="1" style="stop-color:#FFFFFF"/>
</linearGradient>
<path class="st2" d="M16.8,7.3c-1.6,0.8-1.8,2.7-3.2,3.6c0.2,0.3,0.4,0.7,0.4,1.1c0,0.5-0.2,1-0.5,1.3c3.4,1.1,6.1,1.3,7.1,0.4
	c0.7-0.7,0.9-1.3,0.9-2.5C21.5,7.6,20,5.7,16.8,7.3z"/>
<linearGradient id="SVGID_4_" gradientUnits="userSpaceOnUse" x1="7.3436" y1="16.9491" x2="5.9552" y2="9.0751">
	<stop  offset="0" style="stop-color:#FFFFFF;stop-opacity:0"/>
	<stop  offset="1" style="stop-color:#FFFFFF"/>
</linearGradient>
<path class="st3" d="M10.5,10.7c-3.4-1.1-6.1-1.3-7.1-0.4c-0.7,0.7-0.9,1.3-0.9,2.5c0,3.6,1.5,5.5,4.7,3.9c1.6-0.8,1.8-2.7,3.2-3.6
	C10.1,12.8,10,12.4,10,12C10,11.5,10.2,11,10.5,10.7z"/>
</svg>
