<?xml version="1.0" encoding="utf-8"?>
<!-- Generator: Adobe Illustrator 19.2.0, SVG Export Plug-In . SVG Version: 6.00 Build 0)  -->
<svg version="1.1" id="Layer_1" xmlns="http://www.w3.org/2000/svg" xmlns:xlink="http://www.w3.org/1999/xlink" x="0px" y="0px"
	 viewBox="0 0 24 24" style="enable-background:new 0 0 24 24;" xml:space="preserve">
<style type="text/css">
	.st0{fill:#FFFFFF;}
</style>
<path class="st0" d="M12,6c-2.8,0-5,2.3-5,5.1c0,2.2,2.5,4.3,2.5,5.9c0.5,0,1.9,0,2.5,0c0.6,0,1.8,0,2.5,0c0-1.5,2.5-3.7,2.5-5.9
	C17,8.3,14.8,6,12,6z"/>
<polygon class="st0" points="9.5,21 12,22 14.5,21 14.5,18 9.5,18 "/>
<path class="st0" d="M22,10h-3c-0.6,0-1,0.4-1,1s0.4,1,1,1h3c0.6,0,1-0.4,1-1S22.6,10,22,10z"/>
<path class="st0" d="M6,11c0-0.6-0.4-1-1-1H2c-0.6,0-1,0.4-1,1s0.4,1,1,1h3C5.6,12,6,11.6,6,11z"/>
<path class="st0" d="M12,5c0.6,0,1-0.4,1-1V1c0-0.6-0.4-1-1-1s-1,0.4-1,1v3C11,4.6,11.4,5,12,5z"/>
<path class="st0" d="M16.9,7.1c0.3,0,0.5-0.1,0.7-0.3l2.1-2.1c0.4-0.4,0.4-1,0-1.4s-1-0.4-1.4,0l-2.1,2.1c-0.4,0.4-0.4,1,0,1.4
	C16.4,7,16.7,7.1,16.9,7.1z"/>
<path class="st0" d="M6.3,15.2l-2.1,2.1c-0.4,0.4-0.4,1,0,1.4c0.2,0.2,0.5,0.3,0.7,0.3s0.5-0.1,0.7-0.3l2.1-2.1c0.4-0.4,0.4-1,0-1.4
	S6.7,14.9,6.3,15.2z"/>
<path class="st0" d="M17.8,15.4c-0.4-0.4-1-0.4-1.4,0s-0.4,1,0,1.4l2.2,2.2c0.2,0.2,0.5,0.3,0.7,0.3s0.5-0.1,0.7-0.3
	c0.4-0.4,0.4-1,0-1.4L17.8,15.4z"/>
<path class="st0" d="M6.2,6.6c0.2,0.2,0.5,0.3,0.7,0.3s0.5-0.1,0.7-0.3c0.4-0.4,0.4-1,0-1.4L5.4,3C5,2.6,4.4,2.6,4,3S3.6,4,4,4.4
	L6.2,6.6z"/>
</svg>
