<?xml version="1.0" encoding="utf-8"?>
<!-- Generator: Adobe Illustrator 19.2.0, SVG Export Plug-In . SVG Version: 6.00 Build 0)  -->
<svg version="1.1" id="Layer_1" xmlns="http://www.w3.org/2000/svg" xmlns:xlink="http://www.w3.org/1999/xlink" x="0px" y="0px"
	 viewBox="0 0 24 24" style="enable-background:new 0 0 24 24;" xml:space="preserve">
<style type="text/css">
	.st0{fill:#FFFFFF;}
</style>
<path class="st0" d="M12,7c0-0.6-0.4-1-1-1h-1v0.8l2,2V7z"/>
<path class="st0" d="M15,9h6c0.6,0,1-0.4,1-1s-0.4-1-1-1h-6c-0.6,0-1,0.4-1,1S14.4,9,15,9z"/>
<path class="st0" d="M21,13c0.6,0,1-0.4,1-1s-0.4-1-1-1h-6c-0.2,0-0.4,0.1-0.6,0.2l1.8,1.8H21z"/>
<path class="st0" d="M21,17c0.6,0,1-0.4,1-1s-0.4-1-1-1h-2.8l2,2H21z"/>
<path class="st0" d="M4.7,4.3c-0.4-0.4-1-0.4-1.4,0s-0.4,1,0,1.4l1.8,1.8C3.8,8.6,3,10.2,3,12c0,3.3,2.7,6,6,6c0-1.6,0-4.1,0-6.6
	l1,1V18h1c0.6,0,1-0.4,1-1v-2.6l2.3,2.3c0,0,0,0,0,0l5,5c0.2,0.2,0.5,0.3,0.7,0.3s0.5-0.1,0.7-0.3c0.4-0.4,0.4-1,0-1.4L4.7,4.3z"/>
</svg>
