<svg width="24" height="24" viewBox="0 0 24 24" fill="none" xmlns="http://www.w3.org/2000/svg">
<path fill-rule="evenodd" clip-rule="evenodd" d="M2.04717 7.2251C1.89716 6.75318 2.11426 6.24041 2.56621 6.03803C5.51195 4.71895 8.68858 4 12.0004 4C15.3116 4 18.4875 4.71863 21.4327 6.03716C21.8847 6.23951 22.1019 6.75231 21.9518 7.22426L19.0703 16.2898C18.8851 16.8722 18.226 17.1513 17.6593 16.9226C17.3418 16.7945 17.0204 16.6768 16.6956 16.57C16.2504 14.9765 16.2589 13.8251 16.3686 13.001C16.4252 12.5755 16.5101 12.2259 16.5871 11.9182L16.6053 11.8459L16.6053 11.8459C16.6696 11.5916 16.7501 11.2733 16.7501 11H18L16 8L14 11L12 8L10 11L8 8L6 11H8.00009L7.25009 11C7.25009 11.0668 7.22201 11.194 7.13191 11.5542C7.05263 11.871 6.95005 12.2891 6.88166 12.8032C6.75496 13.7556 6.74996 14.9999 7.1568 16.6191C6.88175 16.7126 6.60927 16.8139 6.33955 16.9228C5.77282 17.1515 5.11366 16.8724 4.92853 16.29L2.04717 7.2251ZM8.59978 16.2062C8.63611 16.3533 8.6764 16.5045 8.72097 16.6597C9.24521 18.4859 9.26165 19.6999 9.11504 20.5869C9.04354 21.0195 8.93597 21.3547 8.85727 21.6L8.85485 21.6075C8.76537 21.8864 8.75009 21.9586 8.75009 22H7.25009C7.25009 21.6954 7.34627 21.3978 7.41333 21.1903L7.42657 21.1493C7.50391 20.9082 7.58236 20.6615 7.63512 20.3423C7.7385 19.7168 7.75494 18.7308 7.27921 17.0736C7.2348 16.9189 7.19407 16.7675 7.1568 16.6191C7.6304 16.4581 8.11167 16.3201 8.59978 16.2062ZM10.9879 15.8488C10.1767 15.9037 9.3795 16.0242 8.59978 16.2062C8.25236 14.7994 8.26745 13.761 8.36856 13.001C8.42517 12.5755 8.51009 12.2259 8.58706 11.9182L8.60527 11.8459C8.66961 11.5916 8.7501 11.2733 8.75009 11H10H12.0001L11.2501 11C11.2501 11.0668 11.222 11.194 11.1319 11.5542C11.0526 11.871 10.9501 12.2891 10.8817 12.8032C10.7758 13.5986 10.7549 14.5977 10.9879 15.8488ZM12.5121 15.8234C12.5679 16.0879 12.6368 16.3664 12.721 16.6597C13.2452 18.4859 13.2616 19.6999 13.115 20.5869C13.0435 21.0195 12.936 21.3547 12.8573 21.6L12.8549 21.6075C12.7654 21.8864 12.7501 21.9586 12.7501 22H11.2501C11.2501 21.6954 11.3463 21.3978 11.4133 21.1903L11.4266 21.1493C11.5039 20.9082 11.5824 20.6615 11.6351 20.3423C11.7385 19.7168 11.7549 18.7308 11.2792 17.0736C11.1549 16.6407 11.0595 16.2329 10.9879 15.8488C11.3228 15.8261 11.6602 15.8146 11.9996 15.8146C12.171 15.8146 12.3418 15.8176 12.5121 15.8234ZM12.5121 15.8234C12.2559 14.6088 12.2768 13.6904 12.3686 13.001C12.4252 12.5755 12.5101 12.2259 12.5871 11.9182L12.6053 11.8459L12.6053 11.8459C12.6696 11.5916 12.7501 11.2733 12.7501 11H14H16.0001L15.2501 11C15.2501 11.0668 15.222 11.194 15.1319 11.5542C15.0526 11.871 14.9501 12.2891 14.8817 12.8032C14.7681 13.6569 14.7523 14.7451 15.0432 16.1276C14.217 15.9558 13.3719 15.8527 12.5121 15.8234ZM15.0432 16.1276C15.603 16.244 16.1542 16.392 16.6956 16.57C16.7039 16.5998 16.7123 16.6297 16.721 16.6597C17.2452 18.4859 17.2616 19.6999 17.115 20.5869C17.0435 21.0195 16.936 21.3547 16.8573 21.6L16.8549 21.6075C16.7654 21.8864 16.7501 21.9586 16.7501 22H15.2501C15.2501 21.6954 15.3463 21.3978 15.4133 21.1903L15.4266 21.1493C15.5039 20.9082 15.5824 20.6615 15.6351 20.3423C15.7385 19.7168 15.7549 18.7308 15.2792 17.0736C15.1846 16.7439 15.1066 16.4288 15.0432 16.1276Z" fill="white"/>
</svg>
