<svg width="24" height="24" viewBox="0 0 24 24" fill="none" xmlns="http://www.w3.org/2000/svg">
<path fill-rule="evenodd" clip-rule="evenodd" d="M12 3C10.3431 3 9 4.34315 9 6H11V7H9V7.58579L4.70711 3.29289L3.29289 4.70711L9 10.4142V12C9 13.6569 10.3431 15 12 15C12.4631 15 12.9018 14.895 13.2934 14.7076L14.3957 15.81C13.702 16.2471 12.8805 16.5 12 16.5C9.51472 16.5 7.5 14.4853 7.5 12C7.5 11.7239 7.27614 11.5 7 11.5C6.72386 11.5 6.5 11.7239 6.5 12C6.5 14.869 8.69675 17.225 11.5 17.4776V20H8.5C8.22386 20 8 20.2239 8 20.5C8 20.7761 8.22386 21 8.5 21H15.5C15.7761 21 16 20.7761 16 20.5C16 20.2239 15.7761 20 15.5 20H12.5V17.4776C13.4663 17.3905 14.3605 17.0535 15.1175 16.5317L19.2929 20.7071L20.7071 19.2929L16.5317 15.1175C17.1424 14.2315 17.5 13.1575 17.5 12C17.5 11.7239 17.2761 11.5 17 11.5C16.7239 11.5 16.5 11.7239 16.5 12C16.5 12.8805 16.2471 13.702 15.81 14.3957L14.7076 13.2934C14.895 12.9018 15 12.4631 15 12V11H13V10H15V9H13V8H15V7H13V6H15C15 4.34315 13.6569 3 12 3ZM10.4142 9H11V8H9.41421L10.4142 9Z" fill="white"/>
</svg>
