<svg width="24" height="24" viewBox="0 0 24 24" fill="none" xmlns="http://www.w3.org/2000/svg">
<path d="M12 17V20.5" stroke="white"/>
<path fill-rule="evenodd" clip-rule="evenodd" d="M9 6C9 4.34315 10.3431 3 12 3C13.6569 3 15 4.34315 15 6H13V7H15V8H13V9H15V10H13V11H15V12C15 13.6569 13.6569 15 12 15C10.3431 15 9 13.6569 9 12V11H11V10H9V9H11V8H9V7H11V6H9ZM7 11.5C7.27614 11.5 7.5 11.7239 7.5 12C7.5 14.4853 9.51472 16.5 12 16.5C14.4853 16.5 16.5 14.4853 16.5 12C16.5 11.7239 16.7239 11.5 17 11.5C17.2761 11.5 17.5 11.7239 17.5 12C17.5 15.0376 15.0376 17.5 12 17.5C8.96243 17.5 6.5 15.0376 6.5 12C6.5 11.7239 6.72386 11.5 7 11.5ZM8 20.5C8 20.2239 8.22386 20 8.5 20H15.5C15.7761 20 16 20.2239 16 20.5C16 20.7761 15.7761 21 15.5 21H8.5C8.22386 21 8 20.7761 8 20.5Z" fill="white"/>
</svg>
