<svg width="24" height="24" viewBox="0 0 24 24" fill="none" xmlns="http://www.w3.org/2000/svg">
<path fill-rule="evenodd" clip-rule="evenodd" d="M2.56621 6.03803C2.11426 6.24041 1.89716 6.75318 2.04717 7.2251L4.92853 16.29C5.11366 16.8724 5.77282 17.1515 6.33955 16.9228C8.12184 16.2034 10.0242 15.8146 11.9996 15.8146C13.9749 15.8146 15.8771 16.2034 17.6593 16.9226C18.226 17.1513 18.8851 16.8722 19.0703 16.2898L21.9518 7.22426C22.1019 6.75231 21.8847 6.23951 21.4327 6.03716C18.4875 4.71863 15.3116 4 12.0004 4C8.68858 4 5.51195 4.71895 2.56621 6.03803ZM12.9128 19.5909L7.92302 7.61541L6.07686 8.38464L11.07 20.368C11.2166 20.7382 11.5777 21 12.0001 21C12.5524 21 13.0001 20.5523 13.0001 20C13.0001 19.8542 12.9689 19.7158 12.9128 19.5909Z" fill="white"/>
</svg>
