<?xml version="1.0" encoding="utf-8"?>
<!-- Generator: Adobe Illustrator 24.3.0, SVG Export Plug-In . SVG Version: 6.00 Build 0)  -->
<svg version="1.1" id="Layer_6" xmlns="http://www.w3.org/2000/svg" xmlns:xlink="http://www.w3.org/1999/xlink" x="0px" y="0px"
	 viewBox="0 0 32 32" style="enable-background:new 0 0 32 32;" xml:space="preserve">
<style type="text/css">
	.st0{fill:#A5B7C0;}
</style>
<g>
	<path class="st0" d="M16,5.8L27.7,26H4.3L16,5.8 M16,3.3c-0.5,0-1,0.3-1.3,0.8L2.2,25.7c-0.6,1,0.1,2.3,1.3,2.3h24.9
		c1.2,0,1.9-1.3,1.3-2.3L17.3,4.1C17,3.6,16.5,3.3,16,3.3L16,3.3z"/>
</g>
<g>
	<path class="st0" d="M16,21.2c-1,0-1.8,0.8-1.8,1.8s0.8,1.8,1.8,1.8s1.8-0.8,1.8-1.8S17,21.2,16,21.2L16,21.2z"/>
</g>
<g>
	<path class="st0" d="M17.1,11h-2.3c-0.5,0-0.8,0.3-0.8,0.7l0.7,7.6c0,0.4,0.4,0.6,0.8,0.6h0.9c0.4,0,0.8-0.3,0.8-0.6l0.7-7.6
		C18,11.3,17.6,11,17.1,11L17.1,11z"/>
</g>
</svg>
