<?xml version="1.0" encoding="UTF-8"?>
<svg width="20px" height="20px" viewBox="0 0 20 20" version="1.1" xmlns="http://www.w3.org/2000/svg" xmlns:xlink="http://www.w3.org/1999/xlink">
    <title>image</title>
    <g id="image" stroke="none" stroke-width="1" fill="none" fill-rule="evenodd">
        <path d="M17,4 C17.5522847,4 18,4.44771525 18,5 L18,15 C18,15.5522847 17.5522847,16 17,16 L3,16 C2.44771525,16 2,15.5522847 2,15 L2,5 C2,4.44771525 2.44771525,4 3,4 L17,4 Z M6,9.707 L3.35355339,12.3535534 C3.25604994,12.4510568 3.12829565,12.4998723 3.00050181,12.4999997 L3,15 L11.293,15 L6,9.707 Z M13,11.707 L11.3535534,13.3535534 C11.3009014,13.4062054 11.2394282,13.4446599 11.1738911,13.4689169 L12.3535534,14.6464466 C12.4513121,14.7442053 12.5001275,14.8723734 12.4999997,15.0005018 L16.293,15 L13,11.707 Z M17,5 L3,5 L3,11.292 L6,8.29289322 L10.5310831,12.8261089 C10.5453448,12.787577 10.5645141,12.7504499 10.5885912,12.7156945 L10.6464466,12.6464466 L13,10.2928932 L17,14.293 L17,5 Z M14.5,6 C15.3284271,6 16,6.67157288 16,7.5 C16,8.32842712 15.3284271,9 14.5,9 C13.6715729,9 13,8.32842712 13,7.5 C13,6.67157288 13.6715729,6 14.5,6 Z" id="Combined-Shape" fill="#698796" fill-rule="nonzero"></path>
    </g>
</svg>