<?xml version="1.0" encoding="UTF-8"?>
<svg width="32px" height="32px" viewBox="0 0 32 32" version="1.1" xmlns="http://www.w3.org/2000/svg" xmlns:xlink="http://www.w3.org/1999/xlink">
    <title>localfiles</title>
    <g id="localfiles" stroke="none" stroke-width="1" fill="none" fill-rule="evenodd">
        <path d="M13.798059,8 C14.0991876,8 14.3842835,8.13569727 14.574257,8.36951073 L14.574257,8.36951073 L16.7121112,11 L24,11 C24.5522847,11 25.0522847,11.2238576 25.4142136,11.5857864 C25.7761424,11.9477153 26,12.4477153 26,13 L26,13 L26,22 C26,22.5522847 25.7761424,23.0522847 25.4142136,23.4142136 C25.0522847,23.7761424 24.5522847,24 24,24 L24,24 L8,24 C7.44771525,24 6.94771525,23.7761424 6.58578644,23.4142136 C6.22385763,23.0522847 6,22.5522847 6,22 L6,22 L6,10 C6,9.44771525 6.22385763,8.94771525 6.58578644,8.58578644 C6.94771525,8.22385763 7.44771525,8 8,8 L8,8 Z" id="Combined-Shape" stroke="#A5B7C0" stroke-width="2"></path>
    </g>
</svg>