<?xml version="1.0" encoding="utf-8"?>
<!-- Generator: Adobe Illustrator 24.3.0, SVG Export Plug-In . SVG Version: 6.00 Build 0)  -->
<svg version="1.1" id="Layer_1" xmlns="http://www.w3.org/2000/svg" xmlns:xlink="http://www.w3.org/1999/xlink" x="0px" y="0px"
	 viewBox="0 0 32 32" style="enable-background:new 0 0 32 32;" xml:space="preserve">
<style type="text/css">
	.st0{fill:#A5B7C0;}
	.st1{opacity:0.3;fill:#A5B7C0;enable-background:new    ;}
	.st2{opacity:0.6;fill:#A5B7C0;enable-background:new    ;}
</style>
<path class="st0" d="M17.5,21c-0.1,0-0.1-0.1-0.1-0.1L17,22.4l-3.2,4c-0.3,0.4-0.3,1.1,0.1,1.4c0.2,0.2,0.4,0.2,0.6,0.2
	c0.3,0,0.6-0.1,0.8-0.4l3.4-4.2c0.1-0.1,0.2-0.3,0.2-0.4l0.1-0.6C18.4,21.8,17.8,21.3,17.5,21z"/>
<path class="st0" d="M26.7,16.8l-1.9-1.9l-1.1-2.2c-0.3-1-1.2-1.7-2.2-1.8l0,0l0,0H20h-0.8c-1.8,0-3.3,0.9-4.3,2.7l-1.5,2.8
	c-0.3,0.5-0.1,1.1,0.4,1.3c0.5,0.3,1.1,0.1,1.3-0.4l1.5-2.8c0.5-0.9,1.1-1.4,1.9-1.6c-0.3,1-0.7,2.3-1,3.2c-0.4,1.3-0.1,2.8,0.9,3.6
	c0.8,0.7,2.7,2.7,3.3,3.3l1.2,4.1c0.1,0.4,0.5,0.7,1,0.7c0.1,0,0.2,0,0.3,0c0.5-0.2,0.8-0.7,0.7-1.2l-1.3-4.4c0-0.1-0.1-0.3-0.2-0.4
	s-3.1-4.1-3.1-4.1l1.7-4.3l1.1,2.3c0.1,0.1,0.1,0.2,0.2,0.3l2,2c0.2,0.2,0.5,0.3,0.7,0.3s0.5-0.1,0.7-0.3
	C27.1,17.8,27.1,17.2,26.7,16.8z"/>
<circle class="st0" cx="22.5" cy="7.5" r="2.5"/>
<path class="st1" d="M5.6,28c-0.6,0-1-0.4-1-1c0-1.7,0.4-3.3,1.2-4.8c-1.8-3-2-6.7-0.4-9.8L7,9.3c0.9-1.6,2-2.9,3.3-4
	c0.4-0.4,1.1-0.3,1.4,0.1c0.4,0.4,0.3,1.1-0.1,1.4c-1.1,1-2.1,2.1-2.8,3.5l-1.6,3.1c-1.4,2.7-1.2,5.8,0.6,8.3C8,22,8,22.5,7.8,22.8
	C7,24,6.6,25.5,6.6,27C6.6,27.6,6.1,28,5.6,28L5.6,28z"/>
<path class="st2" d="M10.1,28c-0.6,0-1-0.4-1-1c0-1.3,0.4-2.5,1.2-3.5l1.4-1.7c-2.6-1.4-3.6-4.7-2.3-7.4l1.6-3
	c1.1-2,2.7-3.4,4.5-4.2c0-0.5,0.1-1,0.2-1.5s0.7-0.9,1.2-0.7c0.5,0.1,0.9,0.7,0.7,1.2c-0.1,0.4-0.2,0.8-0.2,1.2c0,0.1,0,0.2,0,0.3
	c0,0.5-0.2,0.9-0.7,1.1c-1.7,0.6-3.1,1.8-4.1,3.5l-1.5,2.9c-0.9,1.7-0.2,3.8,1.5,4.7c0.2,0.1,0.5,0.2,0.9,0.3
	c0.3,0.1,0.6,0.3,0.7,0.6s0.1,0.7-0.2,1l-2.3,2.8c-0.5,0.6-0.8,1.4-0.8,2.2C11.1,27.6,10.6,28,10.1,28L10.1,28z"/>
</svg>
