<?xml version="1.0" encoding="UTF-8"?>
<svg width="20px" height="20px" viewBox="0 0 20 20" version="1.1" xmlns="http://www.w3.org/2000/svg" xmlns:xlink="http://www.w3.org/1999/xlink">
    <title>noimage</title>
    <g id="noimage" stroke="none" stroke-width="1" fill="none" fill-rule="evenodd">
        <path d="M18,15 C18,15.5522847 17.5522847,16 17,16 L5.42,15.9996304 L6.563,14.9996304 L11.293,15 L9.086,12.7926304 L9.839,12.1336304 L10.5310831,12.8261089 C10.5453448,12.787577 10.5645141,12.7504499 10.5885912,12.7156945 L10.6464466,12.6464466 L13,10.2928932 L17,14.293 L17,5.86763035 L17.999982,4.99393516 L17.999982,4.99393516 L18,15 Z M2,5 C2,4.44771525 2.44771525,4 3,4 L14.579,3.99963035 L13.436,4.99963035 L3,5 L3,11.292 L6,8.29289322 L7.714,10.0076304 L6.96,10.6666304 L6,9.707 L3.35355339,12.3535534 C3.25604994,12.4510568 3.12829565,12.4998723 3.00050181,12.4999997 L3,14.1316304 L2.00002493,15.0071358 L2.00002493,15.0071358 L2,5 Z M13,11.707 L11.3535534,13.3535534 C11.3009014,13.4062054 11.2394282,13.4446599 11.1738911,13.4689169 L12.3535534,14.6464466 C12.4513121,14.7442053 12.5001275,14.8723734 12.4999997,15.0005018 L16.293,15 L13,11.707 Z M16,7.5 C16,8.32842712 15.3284271,9 14.5,9 C14.2019577,9 13.9242176,8.91307586 13.6907482,8.76319608 L15.8599119,6.86619142 C15.9497972,7.05872204 16,7.27349828 16,7.5 Z" id="Combined-Shape" fill="#698796" fill-rule="nonzero"></path>
        <polygon id="Path-2" fill="#698796" fill-rule="nonzero" transform="translate(10.000000, 10.000000) scale(-1, 1) translate(-10.000000, -10.000000) " points="2.3292523 2.62371165 18.3292523 16.6237117 17.6707477 17.3762883 1.6707477 3.37628835"></polygon>
    </g>
</svg>