<?xml version="1.0" encoding="UTF-8"?>
<svg width="32px" height="32px" viewBox="0 0 32 32" version="1.1" xmlns="http://www.w3.org/2000/svg" xmlns:xlink="http://www.w3.org/1999/xlink">
    <title>objects</title>
    <g id="objects" stroke="none" stroke-width="1" fill="none" fill-rule="evenodd">
        <path d="M4,22.999 L4,28 L8.999,28 L9,30 L3,30 C2.44771525,30 2,29.5522847 2,29 L2,23 L4,22.999 Z M30,23 L30,29 C30,29.5522847 29.5522847,30 29,30 L23,30 L23,28 L28,28 L28,22.999 L30,23 Z M16,10 C19.3137085,10 22,12.9980538 22,14.5 C22,15.434743 20.9595318,16.948966 19.3748944,17.9593356 L19.481075,15.4747251 C19.8222957,15.0898512 20,14.7236491 20,14.5 C20,14.1858862 19.6494597,13.5905715 18.987687,13.0572705 L18.9030289,12.9919705 L18.9030446,13 C18.9030446,13.0315492 18.9022981,13.063094 18.9008057,13.0946079 L18.6211442,19 L18.6199242,19 L19.4939308,26.8899925 C19.5546862,27.4389253 19.1589403,27.9331753 18.6100075,27.9939308 C18.1002842,28.0503465 17.6377108,27.7131463 17.5255853,27.2251807 L17.5060692,27.1100075 L16.608,19 C16.5516145,18.7162686 16.3035634,18.5 16.005,18.5 C15.7064366,18.5 15.4583855,18.7162686 15.4089579,19.0006944 L15.394,19 L14.4938837,27.1104315 C14.4372505,27.6201307 14.0068952,27.9975859 13.5062193,28.0000877 L13.3895685,27.9938837 C12.8798693,27.9372505 12.5024141,27.5068952 12.4999242,27.0062193 L12.5061163,26.8895685 L13.3829242,19 L13.381444,19 L13.0999027,13.0952528 L13.0973739,12.9903712 C13.0687257,13.0123596 13.0403689,13.0346611 13.012313,13.0572705 C12.3505403,13.5905715 12,14.1858862 12,14.5 C12,14.7238424 12.1780116,15.0904843 12.5198101,15.4757231 L12.6281374,17.9919179 C11.0417954,17.0050616 10,15.5071277 10,14.5 C10,12.8827771 12.6862915,10 16,10 Z M16.5,4 C17.8807119,4 19,5.11928813 19,6.5 C19,7.88071187 17.8807119,9 16.5,9 C15.1192881,9 14,7.88071187 14,6.5 C14,5.11928813 15.1192881,4 16.5,4 Z M29,2 C29.5522847,2 30,2.44771525 30,3 L30,9 L28,8.999 L28,4 L23,4 L23,2 L29,2 Z M9,2 L8.999,4 L4,4 L4,8.999 L2,9 L2,3 C2,2.44771525 2.44771525,2 3,2 L9,2 Z" id="Combined-Shape" fill="#A5B7C0"></path>
    </g>
</svg>