<?xml version="1.0" encoding="utf-8"?>
<!-- Generator: Adobe Illustrator 24.3.0, SVG Export Plug-In . SVG Version: 6.00 Build 0)  -->
<svg version="1.1" id="Layer_5" xmlns="http://www.w3.org/2000/svg" xmlns:xlink="http://www.w3.org/1999/xlink" x="0px" y="0px"
	 viewBox="0 0 32 32" style="enable-background:new 0 0 32 32;" xml:space="preserve">
<style type="text/css">
	.st0{fill:none;stroke:#698796;stroke-width:2;stroke-miterlimit:10;}
</style>
<path class="st0" d="M27,18.9l-2.2-1.3c0.1-0.5,0.2-1.1,0.2-1.6s-0.1-1.1-0.2-1.6l2.2-1.3c0.5-0.3,0.6-0.9,0.4-1.4l-2-3.5
	c-0.3-0.5-0.9-0.6-1.4-0.4l-2.2,1.3C21,8.5,20.1,7.9,19,7.5V5c0-0.6-0.4-1-1-1h-4c-0.6,0-1,0.4-1,1v2.5c-1.1,0.4-2,0.9-2.8,1.6
	L8,7.9C7.5,7.6,6.9,7.8,6.6,8.3l-2,3.5c-0.3,0.5-0.1,1.1,0.4,1.4l2.2,1.3C7.1,14.9,7,15.4,7,16s0.1,1.1,0.2,1.6L5,18.9
	c-0.5,0.3-0.6,0.9-0.4,1.4l2,3.5c0.3,0.5,0.9,0.6,1.4,0.4l2.2-1.3c0.8,0.7,1.8,1.3,2.8,1.6V27c0,0.6,0.4,1,1,1h4c0.6,0,1-0.4,1-1
	v-2.5c1.1-0.4,2-0.9,2.8-1.6l2.2,1.3c0.5,0.3,1.1,0.1,1.4-0.4l2-3.5C27.7,19.8,27.5,19.2,27,18.9z"/>
<circle class="st0" cx="16" cy="16" r="4"/>
</svg>
