<svg width="56" height="56" viewBox="0 0 56 56" fill="none" xmlns="http://www.w3.org/2000/svg">
<path fill-rule="evenodd" clip-rule="evenodd" d="M3 10H53V46H3L3 10ZM1 10C1 8.89543 1.89543 8 3 8H53C54.1046 8 55 8.89543 55 10V46C55 47.1046 54.1046 48 53 48H3C1.89543 48 1 47.1046 1 46V10ZM49 15H26V17H49V15ZM26 21H49V23H26V21ZM49 27H26V29H49V27ZM26 33H49V35H26V33ZM39 39H26V41H39V39Z" fill="#E1E7EA"/>
<path fill-rule="evenodd" clip-rule="evenodd" d="M17.4143 19.925C17.4143 18.475 16.275 17.3357 14.825 17.3357C13.375 17.3357 12.2357 18.475 12.2357 19.925C12.2357 21.375 13.375 22.5143 14.825 22.5143C16.275 22.5143 17.4143 21.375 17.4143 19.925ZM11.2 19.925C11.2 17.9571 12.8572 16.3 14.825 16.3C16.7929 16.3 18.45 17.9571 18.45 19.925C18.45 21.8929 16.7929 23.55 14.825 23.55C12.8572 23.55 11.2 21.8929 11.2 19.925ZM20.6643 28.9357C20.6643 28.2107 18.075 26.6571 14.45 26.6571C10.825 26.6571 8.23573 28.2107 8.23573 28.9357V29.7643H20.6643V28.9357ZM7.20001 28.9357C7.20001 27.175 10.825 25.6214 14.45 25.6214C18.075 25.6214 21.7 27.175 21.7 28.9357V30.8H7.20001V28.9357Z" fill="#E1E7EA"/>
<path d="M8.23573 29.7643H7.73573V30.2643H8.23573V29.7643ZM20.6643 29.7643V30.2643H21.1643V29.7643H20.6643ZM21.7 30.8V31.3H22.2V30.8H21.7ZM7.20001 30.8H6.70001V31.3H7.20001V30.8ZM14.825 17.8357C15.9989 17.8357 16.9143 18.7511 16.9143 19.925H17.9143C17.9143 18.1989 16.5512 16.8357 14.825 16.8357V17.8357ZM12.7357 19.925C12.7357 18.7511 13.6512 17.8357 14.825 17.8357V16.8357C13.0989 16.8357 11.7357 18.1989 11.7357 19.925H12.7357ZM14.825 22.0143C13.6512 22.0143 12.7357 21.0989 12.7357 19.925H11.7357C11.7357 21.6511 13.0989 23.0143 14.825 23.0143V22.0143ZM16.9143 19.925C16.9143 21.0989 15.9989 22.0143 14.825 22.0143V23.0143C16.5512 23.0143 17.9143 21.6511 17.9143 19.925H16.9143ZM14.825 15.8C12.581 15.8 10.7 17.681 10.7 19.925H11.7C11.7 18.2333 13.1333 16.8 14.825 16.8V15.8ZM18.95 19.925C18.95 17.681 17.069 15.8 14.825 15.8V16.8C16.5167 16.8 17.95 18.2333 17.95 19.925H18.95ZM14.825 24.05C17.069 24.05 18.95 22.169 18.95 19.925H17.95C17.95 21.6167 16.5167 23.05 14.825 23.05V24.05ZM10.7 19.925C10.7 22.169 12.581 24.05 14.825 24.05V23.05C13.1333 23.05 11.7 21.6167 11.7 19.925H10.7ZM14.45 27.1571C16.1936 27.1571 17.6793 27.5313 18.717 27.983C19.2375 28.2096 19.6308 28.4494 19.8844 28.6591C20.0117 28.7644 20.0915 28.852 20.1356 28.9153C20.1841 28.985 20.1643 28.9883 20.1643 28.9357H21.1643C21.1643 28.7019 21.0636 28.4981 20.9563 28.344C20.8446 28.1836 20.6938 28.0308 20.5217 27.8885C20.1766 27.6031 19.696 27.3185 19.1161 27.0661C17.9529 26.5598 16.3314 26.1571 14.45 26.1571V27.1571ZM8.73573 28.9357C8.73573 28.9883 8.71593 28.985 8.76441 28.9153C8.80849 28.852 8.8883 28.7644 9.0156 28.6591C9.26923 28.4494 9.66248 28.2096 10.1831 27.983C11.2208 27.5313 12.7064 27.1571 14.45 27.1571V26.1571C12.5686 26.1571 10.9471 26.5598 9.78393 27.0661C9.20406 27.3185 8.72343 27.6031 8.37829 27.8885C8.2062 28.0308 8.0554 28.1836 7.94372 28.344C7.83644 28.4981 7.73573 28.7019 7.73573 28.9357H8.73573ZM8.73573 29.7643V28.9357H7.73573V29.7643H8.73573ZM20.6643 29.2643H8.23573V30.2643H20.6643V29.2643ZM20.1643 28.9357V29.7643H21.1643V28.9357H20.1643ZM14.45 25.1214C12.5736 25.1214 10.6907 25.5221 9.26136 26.1619C8.54753 26.4815 7.92387 26.8708 7.47096 27.3201C7.01964 27.7677 6.70001 28.315 6.70001 28.9357H7.70001C7.70001 28.6761 7.83351 28.3689 8.17516 28.0301C8.51522 27.6928 9.02437 27.3636 9.66992 27.0747C10.9593 26.4975 12.7014 26.1214 14.45 26.1214V25.1214ZM22.2 28.9357C22.2 28.315 21.8804 27.7677 21.4291 27.3201C20.9762 26.8708 20.3525 26.4815 19.6387 26.1619C18.2093 25.5221 16.3264 25.1214 14.45 25.1214V26.1214C16.1986 26.1214 17.9407 26.4975 19.2301 27.0747C19.8757 27.3636 20.3848 27.6928 20.7249 28.0301C21.0665 28.3689 21.2 28.6761 21.2 28.9357H22.2ZM22.2 30.8V28.9357H21.2V30.8H22.2ZM7.20001 31.3H21.7V30.3H7.20001V31.3ZM6.70001 28.9357V30.8H7.70001V28.9357H6.70001Z" fill="#E1E7EA"/>
</svg>
