<svg width="56" height="56" viewBox="0 0 56 56" fill="none" xmlns="http://www.w3.org/2000/svg">
<path fill-rule="evenodd" clip-rule="evenodd" d="M9.55 11C9.24624 11 9 11.2462 9 11.55V13.0214C9 13.3252 9.24624 13.5714 9.55 13.5714H9.64285V15.5C9.64285 17.9853 11.6576 20 14.1429 20C16.6281 20 18.6429 17.9853 18.6429 15.5V13.5714H18.7357C19.0395 13.5714 19.2857 13.3252 19.2857 13.0214V11.55C19.2857 11.2462 19.0395 11 18.7357 11H9.55ZM10.7429 13.5714H17.5429V15.5C17.5429 17.3778 16.0206 18.9 14.1429 18.9C12.2651 18.9 10.7429 17.3778 10.7429 15.5V13.5714ZM15.4286 16.7857C15.4286 17.4958 14.8529 18.0714 14.1429 18.0714C13.4328 18.0714 12.8571 17.4958 12.8571 16.7857C12.8571 16.0756 13.4328 15.5 14.1429 15.5C14.8529 15.5 15.4286 16.0756 15.4286 16.7857ZM9.55 24C9.24624 24 9 24.2462 9 24.55V26.0214C9 26.3252 9.24624 26.5714 9.55 26.5714H9.64285V28.5C9.64285 30.9853 11.6576 33 14.1429 33C16.6281 33 18.6429 30.9853 18.6429 28.5V26.5714H18.7357C19.0395 26.5714 19.2857 26.3252 19.2857 26.0214V24.55C19.2857 24.2462 19.0395 24 18.7357 24H9.55ZM10.7429 28.5V26.5714H17.5429V28.5C17.5429 30.3778 16.0206 31.9 14.1429 31.9C12.2651 31.9 10.7429 30.3778 10.7429 28.5ZM15.4286 29.7857C15.4286 30.4958 14.8529 31.0714 14.1429 31.0714C13.4328 31.0714 12.8571 30.4958 12.8571 29.7857C12.8571 29.0756 13.4328 28.5 14.1429 28.5C14.8529 28.5 15.4286 29.0756 15.4286 29.7857ZM9 37.55C9 37.2462 9.24624 37 9.55 37H18.7357C19.0395 37 19.2857 37.2462 19.2857 37.55V39.0214C19.2857 39.3252 19.0395 39.5714 18.7357 39.5714H18.6429V41.5C18.6429 43.9853 16.6281 46 14.1429 46C11.6576 46 9.64285 43.9853 9.64285 41.5V39.5714H9.55C9.24624 39.5714 9 39.3252 9 39.0214V37.55ZM10.7429 39.5714V41.5C10.7429 43.3778 12.2651 44.9 14.1429 44.9C16.0206 44.9 17.5429 43.3778 17.5429 41.5V39.5714H10.7429ZM14.1429 44.0714C14.8529 44.0714 15.4286 43.4958 15.4286 42.7857C15.4286 42.0756 14.8529 41.5 14.1429 41.5C13.4328 41.5 12.8571 42.0756 12.8571 42.7857C12.8571 43.4958 13.4328 44.0714 14.1429 44.0714ZM47 15.0107H24V17.0179H47V15.0107ZM24 28.0573H47V30.0644H24V28.0573ZM47 41.1038H24V43.111H47V41.1038Z" fill="#E1E7EA"/>
</svg>
