<svg width="28" height="28" viewBox="0 0 28 28" fill="none" xmlns="http://www.w3.org/2000/svg">
<path fill-rule="evenodd" clip-rule="evenodd" d="M21.5742 5.40989C21.0274 4.86322 20.1408 4.86322 19.594 5.40989L17.6384 7.36507L17.6388 7.36549L17.6333 7.37102L18.1361 7.87372L19.0876 8.8461L20.1028 9.83991L20.6287 10.3657L21.4911 9.50354L21.4907 9.50313L22.5894 8.40461C23.1362 7.85794 23.1362 6.9716 22.5894 6.42493L21.5742 5.40989ZM17.6423 9.10032L16.7729 8.23113L15.9106 9.09332L15.9173 9.10009C15.8731 9.13478 15.8304 9.17251 15.7896 9.21327L5.8553 19.1454L5.09896 21.084C4.6558 22.2199 5.77605 23.3399 6.9122 22.8968L8.85127 22.1407L18.7856 12.2086C18.8264 12.1678 18.8641 12.1251 18.8988 12.0809L18.906 12.088L19.7683 11.2258L18.8986 10.3563C18.864 10.3121 18.8263 10.2696 18.7856 10.2289L17.7698 9.21327C17.7291 9.17259 17.6865 9.13494 17.6423 9.10032Z" fill="#E1E7EA"/>
</svg>
