<svg width="56" height="56" viewBox="0 0 56 56" fill="none" xmlns="http://www.w3.org/2000/svg">
<path fill-rule="evenodd" clip-rule="evenodd" d="M53 10H3L3 46H53V10ZM3 8C1.89543 8 1 8.89543 1 10V46C1 47.1046 1.89543 48 3 48H53C54.1046 48 55 47.1046 55 46V10C55 8.89543 54.1046 8 53 8H3ZM26 15H49V17H26V15ZM49 21H26V23H49V21ZM26 27H49V29H26V27ZM49 33H26V35H49V33ZM26 39H39V41H26V39ZM19.941 27C19.8452 26.8257 19.7838 26.6307 19.7644 26.4247L19.1863 20.267C18.9593 17.8485 16.9291 16 14.5 16C12.0709 16 10.0407 17.8485 9.81369 20.267L9.23559 26.4247C9.21625 26.6307 9.15478 26.8257 9.05904 27C8.87693 27.3316 8.57081 27.5884 8.19466 27.7042L7.46372 27.9291C7.18808 28.0139 7 28.2686 7 28.557V29H7.79324H8.5934H8.92493H9H9.14286H9.94273H19.0573H20H20.0751H20.4066H21.2068H22V28.557C22 28.2686 21.8119 28.0139 21.5363 27.9291L20.8053 27.7042C20.4292 27.5884 20.1231 27.3316 19.941 27ZM17.8318 27C17.8052 26.8728 17.7855 26.7431 17.7732 26.6116L17.1951 20.4539C17.0645 19.063 15.897 18 14.5 18C13.103 18 11.9355 19.063 11.8049 20.4539L11.2268 26.6116C11.2145 26.7431 11.1948 26.8728 11.1682 27H17.8318ZM17 30.501C17 31.0529 15.75 32 14.5 32C13.25 32 12 31.0529 12 30.501C12 29.9939 12.945 29.9968 14.1694 30.0006C14.2776 30.001 14.3879 30.0013 14.5 30.0013C14.6121 30.0013 14.7224 30.001 14.8306 30.0006C16.055 29.9968 17 29.9939 17 30.501Z" fill="#E1E7EA"/>
</svg>
