<svg width="56" height="56" viewBox="0 0 56 56" fill="none" xmlns="http://www.w3.org/2000/svg">
<path fill-rule="evenodd" clip-rule="evenodd" d="M47.7006 39.0341C48.2053 39.1877 48.6055 39.5453 48.8221 40C48.9368 40.2407 49 40.5086 49 40.7878V42H47H13H9H7V40.7878C7 40.5086 7.0632 40.2407 7.17785 40C7.39446 39.5453 7.79471 39.1877 8.29943 39.0341L10.3636 38.4059C11.9587 37.9205 13.1029 36.52 13.2604 34.8602L14.866 17.9463C15.5089 11.1734 21.1967 6 28 6C34.8034 6 40.4911 11.1734 41.134 17.9463L42.7396 34.8602C42.8971 36.52 44.0413 37.9205 45.6364 38.4059L47.7006 39.0341ZM40.7485 35.0492C40.9544 37.2182 42.2938 39.0893 44.2257 40H13H11.7743C13.7062 39.0893 15.0456 37.2182 15.2515 35.0492L16.857 18.1353C17.4025 12.3891 22.228 8 28 8C33.772 8 38.5975 12.3891 39.143 18.1353L40.7485 35.0492ZM28 49.9999C31.5 49.9999 35 47.1587 35 45.5029C35 43.9816 32.3541 43.9904 28.9257 44.0019C28.6228 44.0029 28.3138 44.0039 28 44.0039C27.6862 44.0039 27.3772 44.0029 27.0743 44.0019C23.6459 43.9904 21 43.9816 21 45.5029C21 47.1587 24.5 49.9999 28 49.9999Z" fill="#E1E7EA"/>
</svg>
