<svg width="57" height="56" viewBox="0 0 57 56" fill="none" xmlns="http://www.w3.org/2000/svg">
<path d="M18.2 9C16.5432 9 15.2 10.34 15.2 12C15.2 12.8893 15.4192 13.3997 15.6228 13.682C15.686 13.7696 15.6013 14 15.4933 14H10.2V19.2933C10.2 19.4013 9.96962 19.4859 9.88204 19.4228C9.59973 19.2192 9.08927 19 8.20002 19C6.54002 19 5.20002 20.3431 5.20002 22C5.20002 23.6569 6.54002 25 8.20002 25C9.08927 25 9.59973 24.7808 9.88204 24.5772C9.96962 24.5141 10.2 24.5976 10.2 24.7056V30H15.4945C15.6024 30 15.686 29.7696 15.6228 29.682C15.4192 29.3997 15.2 28.8893 15.2 28C15.2 26.34 16.5432 25 18.2 25C19.8569 25 21.2 26.34 21.2 28C21.2 28.8893 20.9808 29.3997 20.7772 29.682C20.7141 29.7696 20.7987 30 20.9067 30H26.2V24.7056C26.2 24.5976 25.9696 24.5141 25.882 24.5772C25.5997 24.7808 25.0893 25 24.2 25C22.54 25 21.2 23.6569 21.2 22C21.2 20.3431 22.54 19 24.2 19C25.0893 19 25.5997 19.2192 25.882 19.4228C25.9696 19.4859 26.2 19.4013 26.2 19.2933V14H20.9056C20.7976 14 20.7141 13.7696 20.7772 13.682C20.9808 13.3997 21.2 12.8893 21.2 12C21.2 10.34 19.8569 9 18.2 9Z" stroke="#E1E7EA" stroke-width="1.5"/>
<path d="M18.2 25C16.5432 25 15.2 26.34 15.2 28C15.2 28.8893 15.4192 29.3997 15.6228 29.682C15.686 29.7696 15.6013 30 15.4933 30H10.2V35.2933C10.2 35.4013 9.96962 35.4859 9.88204 35.4228C9.59973 35.2192 9.08927 35 8.20002 35C6.54002 35 5.20002 36.3431 5.20002 38C5.20002 39.6569 6.54002 41 8.20002 41C9.08927 41 9.59973 40.7808 9.88204 40.5772C9.96962 40.5141 10.2 40.5976 10.2 40.7056V46H15.4945C15.6024 46 15.686 45.7696 15.6228 45.682C15.4192 45.3997 15.2 44.8893 15.2 44C15.2 42.34 16.5432 41 18.2 41C19.8569 41 21.2 42.34 21.2 44C21.2 44.8893 20.9808 45.3997 20.7772 45.682C20.7141 45.7696 20.7987 46 20.9067 46H26.2V40.7056C26.2 40.5976 25.9696 40.5141 25.882 40.5772C25.5997 40.7808 25.0893 41 24.2 41C22.54 41 21.2 39.6569 21.2 38C21.2 36.3431 22.54 35 24.2 35C25.0893 35 25.5997 35.2192 25.882 35.4228C25.9696 35.4859 26.2 35.4013 26.2 35.2933V30H20.9056C20.7976 30 20.7141 29.7696 20.7772 29.682C20.9808 29.3997 21.2 28.8893 21.2 28C21.2 26.34 19.8569 25 18.2 25Z" stroke="#E1E7EA" stroke-width="1.5"/>
<path d="M34.2 25C32.5432 25 31.2 26.34 31.2 28C31.2 28.8893 31.4192 29.3997 31.6228 29.682C31.686 29.7696 31.6013 30 31.4933 30H26.2V35.2933C26.2 35.4013 25.9696 35.4859 25.882 35.4228C25.5997 35.2192 25.0893 35 24.2 35C22.54 35 21.2 36.3431 21.2 38C21.2 39.6569 22.54 41 24.2 41C25.0893 41 25.5997 40.7808 25.882 40.5772C25.9696 40.5141 26.2 40.5976 26.2 40.7056V46H31.4945C31.6024 46 31.686 45.7696 31.6228 45.682C31.4192 45.3997 31.2 44.8893 31.2 44C31.2 42.34 32.5432 41 34.2 41C35.8569 41 37.2 42.34 37.2 44C37.2 44.8893 36.9808 45.3997 36.7772 45.682C36.7141 45.7696 36.7987 46 36.9067 46H42.2V40.7056C42.2 40.5976 41.9696 40.5141 41.882 40.5772C41.5997 40.7808 41.0893 41 40.2 41C38.54 41 37.2 39.6569 37.2 38C37.2 36.3431 38.54 35 40.2 35C41.0893 35 41.5997 35.2192 41.882 35.4228C41.9696 35.4859 42.2 35.4013 42.2 35.2933V30H36.9056C36.7976 30 36.7141 29.7696 36.7772 29.682C36.9808 29.3997 37.2 28.8893 37.2 28C37.2 26.34 35.8569 25 34.2 25Z" stroke="#E1E7EA" stroke-width="1.5"/>
<path d="M45.0455 4.80841C43.5061 4.19558 41.7626 4.94374 41.1486 6.48602C40.8197 7.31221 40.8346 7.86754 40.9193 8.20512C40.9456 8.30985 40.7817 8.4926 40.6814 8.45266L35.7635 6.49479L33.8056 11.4127C33.7656 11.513 33.5203 11.5064 33.4623 11.4154C33.2753 11.1218 32.8821 10.7294 32.0559 10.4004C30.5136 9.78644 28.7719 10.5387 28.159 12.078C27.5462 13.6174 28.2944 15.3609 29.8366 15.9749C30.6628 16.3038 31.2182 16.289 31.5557 16.2043C31.6605 16.178 31.8437 16.3408 31.8037 16.4411L29.8454 21.3601L34.7644 23.3184C34.8647 23.3583 35.0275 23.1751 35.0012 23.0704C34.9165 22.7328 34.9017 22.1775 35.2306 21.3513C35.8446 19.809 37.5881 19.0609 39.1274 19.6737C40.6668 20.2865 41.4191 22.0283 40.8051 23.5706C40.4761 24.3968 40.0837 24.7899 39.7901 24.9769C39.6991 25.0349 39.6925 25.2803 39.7928 25.3202L44.7107 27.2781L46.669 22.3592C46.7089 22.2588 46.5258 22.096 46.421 22.1223C46.0835 22.207 45.5281 22.2219 44.7019 21.893C43.1597 21.279 42.4115 19.5354 43.0243 17.9961C43.6372 16.4567 45.3789 15.7045 46.9212 16.3185C47.7474 16.6474 48.1406 17.0399 48.3276 17.3334C48.3856 17.4245 48.6309 17.431 48.6709 17.3307L50.6287 12.4128L45.7098 10.4545C45.6095 10.4146 45.6171 10.1696 45.7082 10.1116C46.0017 9.92464 46.3942 9.53147 46.7231 8.70528C47.3371 7.16301 46.5848 5.42124 45.0455 4.80841Z" stroke="#E1E7EA" stroke-width="1.5"/>
</svg>
