<?xml version="1.0" encoding="UTF-8"?>
<svg width="90px" height="124px" viewBox="0 0 90 124" version="1.1" xmlns="http://www.w3.org/2000/svg" xmlns:xlink="http://www.w3.org/1999/xlink">
    <title>cert3</title>
    <g id="cert3" stroke="none" stroke-width="1" fill="none" fill-rule="evenodd">
        <rect id="Rectangle" stroke="#3F535E" stroke-width="2.75" fill="#2B383F" x="1" y="1" width="88" height="112" rx="1.375"></rect>
        <path d="M67,10 C67,16.627417 72.372583,22 79,22 L79,104 L21,104 L21,104 C21,97.372583 15.627417,92 9,92 L9,22 L9,22 C15.627417,22 21,16.627417 21,10 L67,10 L67,10 Z" id="Combined-Shape" stroke="#3F535E" stroke-width="2.75" fill="#A5B7C0"></path>
        <path d="M39,70 L39,74 L15,74 L15,70 L39,70 Z M42,60 L42,64 L15,64 L15,60 L42,60 Z M73,60 L73,64 L44,64 L44,60 L73,60 Z M73,54 L73,58 L15,58 L15,54 L73,54 Z M35,48 L35,52 L15,52 L15,48 L35,48 Z M73,48 L73,52 L37,52 L37,48 L73,48 Z M51,42 L51,46.125 L15,46.125 L15,42 L51,42 Z M73,42 L73,46 L53,46 L53,42 L73,42 Z M73,36 L73,40 L15,40 L15,36 L73,36 Z M62,20 L62,31 L26,31 L26,20 L62,20 Z" id="Combined-Shape" fill="#3F535E"></path>
        <g id="Group" transform="translate(47.000000, 78.543478)">
            <path d="M18.6666667,7.10542736e-15 C28.975982,7.10542736e-15 37.3333333,8.38006153 37.3333333,18.7173913 C37.3333333,25.0777108 34.1695278,30.697076 29.3338763,34.0794728 L29.3333333,45.4565217 L18.6666667,41.4456522 L8,45.4565217 L7.99845597,34.0787725 C3.16336894,30.6963004 -3.55271368e-14,25.0772719 -3.55271368e-14,18.7173913 C-3.55271368e-14,8.38006153 8.35735134,7.10542736e-15 18.6666667,7.10542736e-15 Z" id="Combined-Shape" fill="#3F535E"></path>
            <path d="M18.6666667,2.67391304 C27.5032227,2.67391304 34.6666667,9.85682293 34.6666667,18.7173913 C34.6666667,27.5779597 27.5032227,34.7608696 18.6666667,34.7608696 C9.83011067,34.7608696 2.66666667,27.5779597 2.66666667,18.7173913 C2.66666667,9.85682293 9.83011067,2.67391304 18.6666667,2.67391304 Z" id="Path" fill="#2B383F"></path>
            <ellipse id="Combined-Shape" fill="#3F535E" cx="18.6666667" cy="18.7173913" rx="13.3333333" ry="13.3695652"></ellipse>
            <path d="M23.1828007,12.3129746 C23.7058557,11.9051696 24.4621638,11.9422428 24.942809,12.4241942 C25.4635081,12.9463082 25.4635081,13.7928222 24.942809,14.3149362 L24.942809,14.3149362 L20.552,18.7166087 L24.942809,23.1198464 C25.4635081,23.6419604 25.4635081,24.4884744 24.942809,25.0105884 C24.4621638,25.4925398 23.7058557,25.529613 23.1828007,25.121808 L23.057191,25.0105884 L18.666,20.6076087 L14.2761424,25.0105884 L14.1505326,25.121808 C13.6274776,25.529613 12.8711696,25.4925398 12.3905243,25.0105884 C11.8698252,24.4884744 11.8698252,23.6419604 12.3905243,23.1198464 L12.3905243,23.1198464 L16.781,18.7166087 L12.3905243,14.3149362 C11.8698252,13.7928222 11.8698252,12.9463082 12.3905243,12.4241942 C12.8711696,11.9422428 13.6274776,11.9051696 14.1505326,12.3129746 L14.2761424,12.4241942 L18.666,16.8266087 L23.057191,12.4241942 Z" id="Combined-Shape" fill="#A5B7C0" fill-rule="nonzero"></path>
        </g>
    </g>
</svg>