<?xml version="1.0" encoding="UTF-8"?>
<svg width="20px" height="20px" viewBox="0 0 20 20" version="1.1" xmlns="http://www.w3.org/2000/svg" xmlns:xlink="http://www.w3.org/1999/xlink">
    <title>sertificat</title>
    <g id="sertificat" stroke="none" stroke-width="1" fill="none" fill-rule="evenodd">
        <path d="M15,2 C15.5522847,2 16,2.44771525 16,3 L16,15 C16,15.5522847 15.5522847,16 15,16 L13,16 L13,18 L11,17 L9,18 L9,16 L5,16 C4.44771525,16 4,15.5522847 4,15 L4,3 C4,2.44771525 4.44771525,2 5,2 L15,2 Z M11,14 C10.6493978,14 10.3128427,13.9398572 10.0000889,13.8293257 L9.999,16.381 L11,15.881966 L12,16.382 L12.0009007,13.8289758 C11.6878673,13.9397302 11.350972,14 11,14 Z M14,11 C14,11.0998954 13.9951175,11.1986505 13.985578,11.2960396 C13.9832583,11.3197261 13.9806564,11.3433871 13.977781,11.3669636 C13.9748256,11.3911882 13.971598,11.415211 13.9680878,11.439142 C13.9618551,11.4816434 13.954715,11.5239392 13.9466999,11.5659245 C13.9412716,11.5943632 13.9354253,11.6227345 13.9291815,11.6509564 C13.9245621,11.6718314 13.9197558,11.6924999 13.914737,11.7130853 C13.9059097,11.7492922 13.8964251,11.7852424 13.8862968,11.8209218 C13.8736323,11.8655287 13.86,11.9095976 13.8453928,11.9532196 C13.8423743,11.9622367 13.8392208,11.9715045 13.8360235,11.9807519 C13.7758743,12.1546476 13.7003524,12.3209911 13.6109971,12.4784559 C13.5963369,12.5042876 13.5813818,12.529753 13.5660653,12.5549747 C13.5493998,12.5824205 13.5322346,12.6096877 13.5146473,12.6366546 C13.5056685,12.6504213 13.4966249,12.6640426 13.4874737,12.6775851 C13.4637811,12.7126398 13.4395408,12.7469314 13.4146097,12.7806817 C13.3959386,12.8059523 13.3770698,12.8306788 13.3578298,12.8550992 C13.3423864,12.8747077 13.3263742,12.8945161 13.3101174,12.9141143 C13.2917663,12.9362311 13.2733806,12.9577648 13.2546988,12.9790319 C13.2315811,13.0053445 13.2081769,13.0310721 13.1843375,13.0563854 C13.1692036,13.0724558 13.153834,13.0884206 13.1382907,13.104214 L13.1213203,13.1213203 C13.0848043,13.1578364 13.0473513,13.1934154 13.0090005,13.2280183 C13.0063472,13.2304124 13.0036171,13.2328668 13.0008825,13.2353163 L13,15 L15,15 L15,3 L5,3 L5,15 L9,15 L9.00009834,13.2361945 L8.98489817,13.2224981 C8.94596569,13.1871774 8.90796526,13.1508478 8.87093814,13.1135507 L9.00009834,13.2361945 C8.93736867,13.1800549 8.87701525,13.1213146 8.81920756,13.0601431 C8.7942854,13.0337764 8.76962586,13.0067184 8.74546161,12.9792145 C8.72704003,12.9582404 8.70921132,12.937374 8.69166672,12.9162632 C8.67392721,12.8949155 8.65657621,12.8734426 8.63951837,12.8517284 C8.62146018,12.8287433 8.60364105,12.8053669 8.58616099,12.7817246 C8.56785969,12.7569709 8.54995189,12.7319573 8.53242307,12.706661 C8.51424326,12.6804278 8.49639881,12.6537791 8.47897461,12.6268332 C8.46559181,12.606132 8.45263935,12.5855531 8.43993198,12.5648078 C8.4228545,12.5369421 8.40589159,12.5081995 8.3893994,12.4791545 C8.30084014,12.3230926 8.22614392,12.1590859 8.16650112,11.9880229 C8.16143489,11.973481 8.15671148,11.9595937 8.15208745,11.9456611 C8.13703928,11.9003508 8.1228783,11.8539738 8.10982535,11.807135 C8.10116995,11.7760742 8.09301372,11.744859 8.08535195,11.7134501 C8.07952103,11.6895336 8.07405709,11.665873 8.06887484,11.6421072 C8.06338322,11.6169276 8.05818456,11.5915083 8.05330956,11.5659741 C8.04528497,11.5239392 8.03814494,11.4816434 8.03189968,11.4390569 C8.02822222,11.4139503 8.02491803,11.3892573 8.0219161,11.3644711 C8.01919595,11.3420422 8.01667562,11.3190514 8.01441655,11.295984 C8.00487231,11.1984434 8,11.0997907 8,11 C8,9.34314575 9.34314575,8 11,8 C12.6568542,8 14,9.34314575 14,11 Z M11,9 C9.8954305,9 9,9.8954305 9,11 C9,11.1076346 9.00850252,11.2138173 9.0250722,11.3177971 C9.02907298,11.342625 9.03350058,11.3673358 9.0383775,11.3918847 L9.0250722,11.3177971 C9.03339386,11.370018 9.04375028,11.4216833 9.0560863,11.4726977 L9.0383775,11.3918847 C9.04703467,11.4354623 9.05710769,11.47853 9.06854659,11.5210378 L9.0560863,11.4726977 C9.06951158,11.5282167 9.08528148,11.5829648 9.10332494,11.6368194 L9.06854659,11.5210378 C9.08333835,11.5760051 9.10041404,11.6300362 9.11966565,11.6830231 L9.10332494,11.6368194 C9.13803521,11.7404198 9.18115905,11.8407137 9.23219042,11.9368281 C9.24612552,11.9624146 9.26011834,11.9874308 9.27462547,12.0121083 C9.29089334,12.0403695 9.30825454,12.0682951 9.32631011,12.0957949 L9.27462547,12.0121083 C9.30386762,12.0618509 9.33519946,12.1102174 9.36850036,12.157087 L9.32631011,12.0957949 C9.35507165,12.1396005 9.38559516,12.1823257 9.41782437,12.2238733 L9.36850036,12.157087 C9.39749076,12.1978898 9.42797346,12.2375581 9.45986887,12.2760125 L9.41782437,12.2238733 C9.44681221,12.2612423 9.47717992,12.2976587 9.50888656,12.3330519 L9.45986887,12.2760125 C9.82672236,12.7183057 10.3804646,13 11,13 C11.5798498,13 12.1020654,12.7532389 12.4673636,12.3589998 C12.4969805,12.3271725 12.5253291,12.2945635 12.5525463,12.261146 L12.4673636,12.3589998 C12.5045529,12.3188642 12.5401158,12.2772001 12.5739477,12.2341122 L12.5525463,12.261146 C12.5917223,12.2130456 12.6285543,12.1632704 12.6629503,12.1119791 L12.5739477,12.2341122 C12.6073606,12.1915578 12.6390851,12.1476147 12.6690202,12.1023838 L12.6629503,12.1119791 C12.7249074,12.0195887 12.7789609,11.922279 12.8245732,11.8209774 C12.8303635,11.8074562 12.8361389,11.7942549 12.841775,11.7809801 L12.8245732,11.8209774 C12.8448597,11.7759226 12.8634765,11.7300782 12.8803763,11.6835257 L12.841775,11.7809801 C12.8617474,11.7339384 12.8799703,11.6859742 12.8963619,11.6371692 L12.8803763,11.6835257 C12.8998078,11.6299993 12.9169693,11.5755367 12.931789,11.5202622 L12.8963619,11.6371692 C12.9144257,11.5833854 12.9302656,11.5285806 12.9437722,11.472864 L12.931789,11.5202622 C12.9431545,11.4778711 12.9531426,11.4350025 12.9617208,11.3917122 L12.9437722,11.472864 C12.9561271,11.4218981 12.9665297,11.3701694 12.9748964,11.3177613 L12.9617208,11.3917122 C12.9869649,11.2643177 13,11.1332717 13,11 C13,9.9456382 12.1841222,9.08183488 11.1492623,9.00548574 L11,9 L11,9 Z M12,6 L12,7 L6,7 L6,6 L12,6 Z M14,4 L14,5 L6,5 L6,4 L14,4 Z" id="Combined-Shape" fill="#698796" class="primary" fill-rule="nonzero"></path>
    </g>
</svg>