<svg width="128" height="128" viewBox="0 0 128 128" fill="none" xmlns="http://www.w3.org/2000/svg">
<path fill-rule="evenodd" clip-rule="evenodd" d="M45.606 55.8199L43.3583 56.1022C36.9553 56.9065 32 62.3777 32 69C32 76.1797 37.8203 82 45 82H83C90.1797 82 96 76.1797 96 69C96 61.841 90.2131 56.0335 83.0623 56.0001L80.4865 55.9881L79.4317 53.6382C76.6135 47.3597 70.3115 43 63 43C55.6462 43 49.3136 47.4105 46.5199 53.7471L45.606 55.8199ZM83.0809 52.0002C79.6412 44.3371 71.9439 39 63 39C54.0044 39 46.2698 44.399 42.8598 52.1334C34.4813 53.1859 28 60.336 28 69C28 78.3888 35.6112 86 45 86H83C92.3888 86 100 78.3888 100 69C100 59.6381 92.4325 52.0438 83.0809 52.0002Z" fill="#698796"/>
<circle cx="64" cy="64" r="46" stroke="#F02C2C" stroke-width="4"/>
<path d="M31 30L97 96" stroke="#D92A2A" stroke-width="4"/>
</svg>
