<svg width="20" height="20" viewBox="0 0 20 20" fill="none" xmlns="http://www.w3.org/2000/svg">
<path fill-rule="evenodd" clip-rule="evenodd" d="M15 10C15 12.7614 12.7614 15 10 15C9.17864 15 8.40353 14.8019 7.71983 14.451L13.8413 6.79914C14.5647 7.66636 15 8.78235 15 10ZM6.15868 13.2009L12.2802 5.549C11.5965 5.19805 10.8214 5 10 5C7.23858 5 5 7.23858 5 10C5 11.2176 5.43526 12.3336 6.15868 13.2009ZM17 10C17 13.866 13.866 17 10 17C6.13401 17 3 13.866 3 10C3 6.13401 6.13401 3 10 3C13.866 3 17 6.13401 17 10Z" fill="#A5B7C0"/>
</svg>
