<svg width="16" height="16" viewBox="0 0 16 16" fill="none" xmlns="http://www.w3.org/2000/svg">
<path fill-rule="evenodd" clip-rule="evenodd" d="M2.58579 4.41422C2.21071 4.78929 2 5.298 2 5.82843V8.00001V10.1716C2 10.702 2.21071 11.2107 2.58579 11.5858L4.41422 13.4142C4.78929 13.7893 5.298 14 5.82843 14H8.00001H10.1716C10.702 14 11.2107 13.7893 11.5858 13.4142L13.4142 11.5858C13.7893 11.2107 14 10.702 14 10.1716V8.00001V5.82843C14 5.298 13.7893 4.78929 13.4142 4.41422L11.5858 2.58579C11.2107 2.21071 10.702 2 10.1716 2H8.00001H5.82843C5.298 2 4.78929 2.21071 4.41422 2.58579L2.58579 4.41422ZM5.49287 5.49291C5.8834 5.10238 6.51656 5.10238 6.90709 5.49291L7.99998 6.5858L9.09288 5.49291C9.48341 5.10238 10.1166 5.10238 10.5071 5.49291C10.8976 5.88343 10.8976 6.51659 10.5071 6.90712L9.4142 8.00002L10.5071 9.09291C10.8976 9.48343 10.8976 10.1166 10.5071 10.5071C10.1166 10.8976 9.4834 10.8976 9.09288 10.5071L7.99998 9.41423L6.90709 10.5071C6.51657 10.8976 5.8834 10.8976 5.49288 10.5071C5.10235 10.1166 5.10235 9.48343 5.49288 9.09291L6.58577 8.00002L5.49287 6.90712C5.10235 6.51659 5.10235 5.88343 5.49287 5.49291Z" fill="#EF5350"/>
</svg>
