<svg width="64" height="64" viewBox="0 0 64 64" fill="none" xmlns="http://www.w3.org/2000/svg">
<path fill-rule="evenodd" clip-rule="evenodd" d="M46.2254 30.7491L41.754 35.2206L41.755 35.2203C37.0195 36.2985 32.684 38.6926 29.2488 42.1279L23.5744 47.8022L16.8333 41.0611L22.5077 35.3868C25.9427 31.9518 28.3367 27.6167 29.415 22.8815L33.8864 18.4101C39.0128 13.2837 45.436 9.64699 52.4693 7.88866L58.1727 6.46279L56.7469 12.1663C54.9885 19.1996 51.3518 25.6228 46.2254 30.7491ZM27.5559 21.9122L32.4722 16.9959C37.8549 11.6132 44.5992 7.79462 51.9842 5.94838L59.3046 4.11828C60.037 3.93519 60.7003 4.59858 60.5173 5.33096L58.6872 12.6514C56.8409 20.0363 53.0223 26.7807 47.6397 32.1633L42.7233 37.0797C41.5739 41.5354 39.251 45.6078 35.9898 48.869L28.6302 56.2286L27.216 57.6428L25.8018 56.2286L21.8891 52.3159L20.4749 50.9017L21.8891 49.4875L22.1602 49.2164L21.3176 48.3738L21.0465 48.6449L20.746 48.9454L19.6323 50.0591L18.2181 48.6449L15.9907 46.4175L14.5765 45.0032L15.6902 43.8895L15.9907 43.589L16.2617 43.318L15.4191 42.4753L15.148 42.7464L13.7338 44.1606L12.3196 42.7464L8.40695 38.8337L6.99273 37.4195L8.40695 36.0053L15.7666 28.6457C19.0277 25.3846 23.1001 23.0617 27.5559 21.9122ZM27.216 54.8144L34.5756 47.4548C37.3265 44.7039 39.3536 41.3273 40.4911 37.6267C36.7904 38.7641 33.4138 40.7912 30.663 43.5421L23.3033 50.9017L27.216 54.8144ZM13.7338 41.3322L21.0934 33.9726C23.8443 31.2217 25.8714 27.8451 27.0089 24.1445C23.3083 25.282 19.9316 27.3091 17.1808 30.0599L9.82116 37.4195L13.7338 41.3322ZM44.6403 19.9952C45.7208 21.0757 47.4725 21.0757 48.553 19.9952C49.6334 18.9148 49.6334 17.163 48.553 16.0825C47.4725 15.0021 45.7208 15.0021 44.6403 16.0825C43.5599 17.163 43.5599 18.9148 44.6403 19.9952ZM43.2261 21.4094C45.0876 23.2709 48.1057 23.2709 49.9672 21.4094C51.8287 19.5479 51.8287 16.5298 49.9672 14.6683C48.1057 12.8068 45.0876 12.8068 43.2261 14.6683C41.3646 16.5298 41.3646 19.5479 43.2261 21.4094ZM40.1266 26.7363C39.5115 27.3514 38.5143 27.3514 37.8992 26.7363C37.2841 26.1212 37.2842 25.124 37.8992 24.5089C38.5143 23.8938 39.5115 23.8938 40.1266 24.5089C40.7417 25.124 40.7417 26.1212 40.1266 26.7363ZM41.5408 28.1505C40.1447 29.5466 37.8811 29.5466 36.485 28.1505C35.0889 26.7544 35.0889 24.4908 36.485 23.0947C37.8811 21.6986 40.1447 21.6986 41.5408 23.0947C42.937 24.4908 42.937 26.7544 41.5408 28.1505ZM16.2617 56.8002L19.6323 53.4296L21.0465 54.8438L17.676 58.2144L16.2617 56.8002ZM6.1501 46.6885L9.52064 43.318L10.9349 44.7322L7.56431 48.1027L6.1501 46.6885ZM12.8912 46.6885L1.93692 57.6428L3.35113 59.057L14.3054 48.1027L12.8912 46.6885ZM5.30746 61.0134L16.2617 50.0591L17.6759 51.4733L6.72167 62.4276L5.30746 61.0134Z" fill="#53707F"/>
</svg>
