<?xml version="1.0" encoding="UTF-8"?>
<svg width="20px" height="20px" viewBox="0 0 20 20" version="1.1" xmlns="http://www.w3.org/2000/svg" xmlns:xlink="http://www.w3.org/1999/xlink">
    <title>Artboard</title>
    <g id="Artboard" stroke="none" stroke-width="1" fill="none" fill-rule="evenodd">
        <path d="M15.392566,2.7788955 L15.5073668,2.85701007 C16.1443033,3.29040438 16.6937511,3.83985218 17.1271455,4.4767887 L17.20526,4.59158952 C17.6367105,5.22566935 17.5805418,6.07351999 17.0689891,6.6485602 L12.773,11.476 L12.7816668,11.48471 C13.2437628,12.0282113 13.3917481,12.7787386 13.1619787,13.4647053 L12.6334648,15.0425614 C12.4530667,15.5811322 11.870759,15.8730836 11.332844,15.6946531 C11.1816382,15.644497 11.0443154,15.5597821 10.9317506,15.4472173 L8.432,12.948 L3.41006778,17.3635493 C3.19301467,17.5543679 2.86516429,17.544135 2.66043383,17.3401516 C2.45610807,17.1365713 2.44587948,16.8090098 2.63710537,16.5930779 L7.071,11.586 L4.57721974,9.09268647 C4.17677044,8.69223716 4.17795928,8.04179171 4.5798751,7.63987589 C4.69285207,7.52689892 4.8304855,7.44168149 4.98187566,7.3909723 L6.55973179,6.86245834 C7.23097286,6.63762144 7.96403254,6.77449484 8.50444169,7.21344589 L13.3355953,2.91516647 C13.9106355,2.40361372 14.7584862,2.34744499 15.392566,2.7788955 Z M7.00708498,7.80325745 L6.88280884,7.83643955 L5.30495271,8.3649535 L7.7545646,10.8144531 L9.21003053,12.2646083 L9.207,12.267 L11.6594836,14.7194844 L12.1879975,13.1416282 C12.2979726,12.8133023 12.2348688,12.4553961 12.0266001,12.187027 L11.9417493,12.0908182 L7.93361886,8.08268778 C7.68949518,7.83856411 7.34094477,7.73611595 7.00708498,7.80325745 Z M14.094626,3.62218233 L14.0168269,3.68160306 L9.24203004,7.92814846 L12.0553312,10.7414496 L16.3025525,5.96732862 C16.4784518,5.76959892 16.515164,5.48848534 16.4039312,5.2561856 L16.3552669,5.17161955 L16.2771523,5.05681873 C15.967585,4.60186407 15.5869644,4.20047393 15.150281,3.86763858 L14.9273368,3.7070032 L14.812536,3.62888863 C14.5945053,3.48053278 14.311136,3.48121664 14.094626,3.62218233 Z" id="Combined-Shape" fill="#698796" class="primary" fill-rule="nonzero"></path>
    </g>
</svg>