<svg width="20" height="20" viewBox="0 0 20 20" fill="none" xmlns="http://www.w3.org/2000/svg">
<path fill-rule="evenodd" clip-rule="evenodd" d="M6 3.28472C7.69835 2.70149 10 1 10 1C10 1 12.3017 2.70149 14 3.28472C15.4991 3.79954 18 3.94852 18 3.94852V12.7565C18 14.3185 17.0909 15.7375 15.6719 16.3904L10 19L4.32808 16.3904C2.90914 15.7375 2 14.3185 2 12.7565V3.94852C2 3.94852 4.50087 3.79954 6 3.28472ZM16.3761 5.29809L16.5 5.31329V12.7565C16.5 13.7327 15.9318 14.6196 15.0449 15.0277L10 17.3488L4.95505 15.0277C4.06822 14.6196 3.5 13.7327 3.5 12.7565V5.31329L3.62392 5.29809C4.45471 5.19422 5.58337 5.01379 6.48719 4.7034C7.51113 4.35176 8.63426 3.70021 9.43876 3.19132C9.64108 3.06334 9.82994 2.94005 10 2.82669C10.1701 2.94005 10.3589 3.06334 10.5612 3.19132C11.3657 3.70021 12.4889 4.35176 13.5128 4.7034C14.4166 5.01379 15.5453 5.19422 16.3761 5.29809ZM9.95877 12.4087L13.6511 8.40871L12.5489 7.39129L9.34958 10.8572L7.59117 9.33323L6.60878 10.4668L8.91647 12.4668L9.46575 12.9428L9.95877 12.4087Z" fill="#698796"/>
</svg>
