<?xml version="1.0" encoding="UTF-8"?>
<svg width="20px" height="20px" viewBox="0 0 20 20" version="1.1" xmlns="http://www.w3.org/2000/svg" xmlns:xlink="http://www.w3.org/1999/xlink">
    <title>yesshield</title>
    <g id="yesshield" stroke="none" stroke-width="1" fill="none" fill-rule="evenodd">
        <path d="M10.0489826,2.00185737 L10.1459647,2.01671631 L16.5441367,3.50474235 L16.6406452,3.53543328 C16.8561013,3.62355098 17,3.82310297 17,4.04789584 L17,4.04789584 L17,10 L16.992738,10.2792495 C16.8911458,12.2293589 15.725226,14.0817618 13.5953925,15.8154394 C12.8979558,16.3831506 12.1304328,16.9081666 11.3186826,17.3801395 L11.3186826,17.3801395 L10.918132,17.606834 C10.8546438,17.6417406 10.7930295,17.6750995 10.7336473,17.7067463 L10.7336473,17.7067463 L10.407005,17.8747632 L10.2691457,17.940893 C10.0997145,18.0197023 9.90028545,18.0197023 9.73085431,17.940893 C9.70234377,17.9276315 9.67236358,17.9133897 9.64101989,17.8982162 L9.43744472,17.7963852 L9.08186798,17.606834 L8.6813174,17.3801395 C7.86956718,16.9081666 7.10204421,16.3831506 6.40460748,15.8154394 C4.17335332,13.9992057 3,12.0526703 3,10 L3,10 L3,4.04789584 L3.00859922,3.95335269 C3.04823678,3.73753055 3.22143857,3.55926263 3.45586331,3.50474235 L3.45586331,3.50474235 L9.85403526,2.01671631 L9.95101737,2.00185737 C10.0162183,1.99690439 10.0820747,2.00185737 10.1459647,2.01671631 Z M10.0496951,3 L9.95030488,3 L4.15520312,4.33971625 L4,4.52353318 L4,10.0502253 L4.00807381,10.3127579 C4.11023304,11.9743803 5.17979897,13.6142539 7.09874416,15.1669354 C7.76914294,15.7093771 8.51171613,16.2140985 9.29533566,16.6669929 C9.50361064,16.7873659 9.70609696,16.8989394 9.89899934,17 L9.89899934,17 L10.1010007,17 L10.3970678,16.8407386 L10.7046643,16.6669929 C11.4882839,16.2140985 12.2308571,15.7093771 12.9012558,15.1669354 C14.9211981,13.5325339 16,11.8015205 16,10.0502253 L16,10.0502253 L16,4.52353318 L15.8447969,4.33971625 L10.0496951,3 Z M12.6237117,6.9207477 L13.3762883,7.5792523 L9.87628835,11.5792523 C9.71375825,11.765001 9.44436783,11.8014093 9.24075316,11.6776454 L9.16781808,11.6237047 L6.66781808,9.40148244 L7.33218192,8.65407312 L9.455,10.541 L12.6237117,6.9207477 Z" fill="#698796" fill-rule="nonzero"></path>
    </g>
</svg>