<?xml version="1.0" encoding="utf-8"?>
<!-- Generator: Adobe Illustrator 16.0.0, SVG Export Plug-In . SVG Version: 6.00 Build 0)  -->
<!DOCTYPE svg PUBLIC "-//W3C//DTD SVG 1.1//EN" "http://www.w3.org/Graphics/SVG/1.1/DTD/svg11.dtd">
<svg version="1.1" id="Layer_6" xmlns="http://www.w3.org/2000/svg" xmlns:xlink="http://www.w3.org/1999/xlink" x="0px" y="0px"
	 width="18px" height="18px" viewBox="4.5 14.5 18 18" enable-background="new 4.5 14.5 18 18" xml:space="preserve">
<path fill="#FF9600" d="M6.87,30.5c-1.216,0-1.717-0.863-1.114-1.918l6.648-11.626c0.604-1.055,1.59-1.055,2.193,0l6.647,11.626
	c0.604,1.055,0.102,1.918-1.113,1.918H6.87z"/>
<path d="M14.346,25.5h-1.691l-0.239-5h2.17L14.346,25.5z"/>
<path d="M13.497,26.414c0.346,0,0.624,0.103,0.836,0.306c0.212,0.204,0.316,0.466,0.316,0.783c0,0.313-0.104,0.573-0.316,0.777
	c-0.212,0.203-0.49,0.306-0.836,0.306c-0.342,0-0.618-0.103-0.83-0.306c-0.212-0.204-0.316-0.464-0.316-0.777
	s0.104-0.572,0.316-0.779C12.879,26.518,13.155,26.414,13.497,26.414z"/>
</svg>
