<?xml version="1.0" encoding="UTF-8" standalone="no"?>
<!-- Created with Inkscape (http://www.inkscape.org/) -->

<svg
   xmlns:dc="http://purl.org/dc/elements/1.1/"
   xmlns:cc="http://creativecommons.org/ns#"
   xmlns:rdf="http://www.w3.org/1999/02/22-rdf-syntax-ns#"
   xmlns:svg="http://www.w3.org/2000/svg"
   xmlns="http://www.w3.org/2000/svg"
   version="1.1"
   width="18"
   height="18"
   id="svg2"
   xml:space="preserve"><metadata
     id="metadata8"><rdf:RDF><cc:Work
         rdf:about=""><dc:format>image/svg+xml</dc:format><dc:type
           rdf:resource="http://purl.org/dc/dcmitype/StillImage" /><dc:title></dc:title></cc:Work></rdf:RDF></metadata><defs
     id="defs6"><clipPath
       id="clipPath16"><path
         d="M 0,256 256,256 256,0 0,0 0,256 z"
         id="path18" /></clipPath></defs><path
     d="M 16,9 A 7,7 0 0 1 2,9 7,7 0 1 1 16,9 z"
     id="path3775"
     style="fill:#2ca0da;fill-opacity:1;stroke:none" /><path
     d="M 10,7 8,7 8,5.5 C 8.0004219,5.2352025 7.7647969,5.0004212 7.5,5 7.2352031,4.9994362 7.0004922,5.2352737 7,5.5 L 7,7 6,7 5.9960625,9.1231563 C 5.9934625,10.493125 6.9709765,11.497961 8,11.5 l 0,2.5 2,0 0,-2.5 c 1.028953,0.0019 1.993527,-1.006805 1.995988,-2.376703 L 12,7 11,7 11,5.5 C 11.000562,5.2351325 10.764867,5.0004225 10.5,5 10.235203,4.9995088 10.000564,5.2351287 10,5.5 z"
     id="path26"
     style="fill:#127d3e;fill-opacity:1;fill-rule:nonzero;stroke:none" /></svg>