<?xml version="1.0" encoding="UTF-8" standalone="no"?>
<!-- Created with Inkscape (http://www.inkscape.org/) -->

<svg
   xmlns:dc="http://purl.org/dc/elements/1.1/"
   xmlns:cc="http://creativecommons.org/ns#"
   xmlns:rdf="http://www.w3.org/1999/02/22-rdf-syntax-ns#"
   xmlns:svg="http://www.w3.org/2000/svg"
   xmlns="http://www.w3.org/2000/svg"
   version="1.1"
   width="18"
   height="18"
   id="svg2"
   xml:space="preserve"><metadata
     id="metadata8"><rdf:RDF><cc:Work
         rdf:about=""><dc:format>image/svg+xml</dc:format><dc:type
           rdf:resource="http://purl.org/dc/dcmitype/StillImage" /><dc:title></dc:title></cc:Work></rdf:RDF></metadata><defs
     id="defs6"><clipPath
       id="clipPath16"><path
         d="M 0,256 256,256 256,0 0,0 0,256 z"
         id="path18" /></clipPath></defs><g
     transform="matrix(1.25,0,0,-1.25,0,18)"
     id="g10"><g
       transform="matrix(0.05384615,0,0,0.05384615,0.21550537,0.30766628)"
       id="g12"
       style="fill:#2ca0da;fill-opacity:1"><g
         clip-path="url(#clipPath16)"
         id="g14"
         style="fill:#2ca0da;fill-opacity:1"><g
           transform="translate(145.7072,111.9555)"
           id="g20"
           style="fill:#2ca0da;fill-opacity:1"><path
             d="m 0,0 c -6.742,-9.824 -4.475,-23.626 -23.055,-23.626 -12.082,0 -17.976,9.839 -17.976,18.841 0,33.465 49.183,41.021 49.183,68.576 0,15.198 -10.133,24.181 -27.018,24.181 -35.942,0 -21.905,-37.093 -49.174,-37.093 -9.84,0 -18.237,5.91 -18.237,17.161 0,27.538 31.469,52.005 65.732,52.005 36.002,0 71.407,-16.591 71.407,-56.254 C 50.862,27.269 8.967,13.249 0,0 m -21.913,-87.955 c -12.67,0 -23.064,10.41 -23.064,23.02 0,12.662 10.394,23.056 23.064,23.056 12.635,0 23.047,-10.394 23.047,-23.056 0,-12.61 -10.412,-23.02 -23.047,-23.02"
             id="path22"
             style="fill:#2ca0da;fill-opacity:1;fill-rule:nonzero;stroke:none" /></g></g></g></g></svg>