<svg width="20" height="20" viewBox="0 0 20 20" fill="none" xmlns="http://www.w3.org/2000/svg">
<path fill-rule="evenodd" clip-rule="evenodd" d="M3.5 3C3.22386 3 3 3.22386 3 3.5V16.5C3 16.7761 3.22386 17 3.5 17H9.5C9.77614 17 10 16.7761 10 16.5V8.5C10 8.22386 10.2239 8 10.5 8H12.5C12.7761 8 13 7.77614 13 7.5V3.5C13 3.22386 12.7761 3 12.5 3H3.5ZM16.5 9C16.7761 9 17 9.22386 17 9.5V16.5C17 16.7761 16.7761 17 16.5 17H11.5C11.2239 17 11 16.7761 11 16.5V9.5C11 9.22386 11.2239 9 11.5 9H16.5ZM12 5H4V6H12V5ZM9 7H4V8H9V7ZM13 10H14V11H13V10ZM16 10H15V11H16V10ZM13 12H14V13H13V12ZM9 9H4V10H9V9ZM4 11H9V12H4V11Z" fill="white"/>
</svg>
