<svg xmlns="http://www.w3.org/2000/svg" width="54" height="32" fill="none" viewBox="0 0 54 32">
  <g class="illustrations/54x32/connect_to_cloud">
    <path fill="#2FA2DB" fill-rule="evenodd" d="m27.613 10.21.094.083 5 5-1.414 1.414L28 13.415V22h-2v-8.585l-3.293 3.292-1.414-1.414 5-5a1 1 0 0 1 1.32-.083Z" class="Secondary" clip-rule="evenodd"/>
    <path fill="#E1E7EA" fill-rule="evenodd" d="m15.727 13.818-.816-.205a7.078 7.078 0 0 0-1.728-.213 6.978 6.978 0 0 0-5.077 2.178c-1.279 1.34-2.079 3.209-2.083 5.343a7.28 7.28 0 0 0 2.183 4.987 7.168 7.168 0 0 0 5.042 2.051l28.589.001a6.066 6.066 0 0 0 4.341-1.828 6.268 6.268 0 0 0 1.799-4.412 6.268 6.268 0 0 0-1.799-4.412 6.069 6.069 0 0 0-4.341-1.828h-.002l-2.021-.003-.108-.915a12 12 0 0 0-4.035-7.651 11.608 11.608 0 0 0-7.65-2.871c-2.628 0-5.052.874-7.01 2.352-2 1.51-3.556 3.683-4.927 6.653l-.357.773ZM41.837 29l-28.589-.001a8.183 8.183 0 0 1-5.752-2.342A8.328 8.328 0 0 1 5 20.937c0-2.41.904-4.546 2.372-6.083a7.993 7.993 0 0 1 5.81-2.494c.682 0 1.343.084 1.975.243 1.415-3.063 3.063-5.399 5.244-7.046A12.6 12.6 0 0 1 28.021 3c3.175 0 6.08 1.175 8.315 3.12a13.04 13.04 0 0 1 4.386 8.319l1.115.001c1.978 0 3.769.815 5.065 2.132A7.317 7.317 0 0 1 49 21.72a7.32 7.32 0 0 1-2.098 5.148A7.084 7.084 0 0 1 41.837 29Z" class="Primary" clip-rule="evenodd"/>
  </g>
</svg>
