<?xml version="1.0" encoding="UTF-8" standalone="no"?>
<!-- Created with Inkscape (http://www.inkscape.org/) -->

<svg
   xmlns:dc="http://purl.org/dc/elements/1.1/"
   xmlns:cc="http://creativecommons.org/ns#"
   xmlns:rdf="http://www.w3.org/1999/02/22-rdf-syntax-ns#"
   xmlns:svg="http://www.w3.org/2000/svg"
   xmlns="http://www.w3.org/2000/svg"
   version="1.1"
   width="70"
   height="27"
   id="svg2"
   xml:space="preserve"><metadata
     id="metadata8"><rdf:RDF><cc:Work
         rdf:about=""><dc:format>image/svg+xml</dc:format><dc:type
           rdf:resource="http://purl.org/dc/dcmitype/StillImage" /><dc:title></dc:title></cc:Work></rdf:RDF></metadata><defs
     id="defs6"><clipPath
       id="clipPath16"><path
         d="M 0,85 224,85 224,0 0,0 0,85 z"
         id="path18" /></clipPath></defs><path
     d="m 70,0 0,23 c 0,2.216 -1.784,4 -4,4 L 4,27 C 1.784,27 0,25.216 0,23 L 0,0 z"
     id="rect3785"
     style="fill:#ffffff;fill-opacity:1;stroke:none" /><rect
     width="68"
     height="31"
     ry="4"
     x="1"
     y="-5"
     id="rect3779"
     style="fill:#212a2f;fill-opacity:1;stroke:none" /><path
     d="M 64.835823,17.972359 C 65.189186,17.436563 64.952597,17 64.313641,17 l -5.624797,0 c -0.641384,0 -0.878272,0.436563 -0.524603,0.972359 l 2.696828,4.082457 c 0.350946,0.535796 0.929702,0.535796 1.283066,0 l 2.691688,-4.082457 z"
     id="path30"
     style="fill:#ffffff;fill-opacity:1;fill-rule:nonzero;stroke:none" /><path
     d="m 28.517258,16.861431 0,-6.620477 c 1.603955,0 1.879982,1.964677 1.879982,3.380079 0,1.223238 -0.276027,3.223459 -1.879982,3.240398 M 29.867402,7.2549215 C 29.252867,7.0877504 28.572242,7 27.827747,7 L 25,7 l 0,12.999917 3.068785,0 c 1.23601,0 3.017966,-0.186331 4.302574,-1.500375 l -1.718087,-7.717086 -0.78587,-3.5275345 z"
     id="path34-6"
     style="fill:#ffffff;fill-opacity:1;fill-rule:nonzero;stroke:none" /><path
     d="m 37.504429,12.419927 1.315431,7.579907 3.396741,0 2.621421,-12.9999173 -3.124045,0 -1.404294,7.4266203 -1.298491,-7.4266203 -3.019077,0 -1.269614,7.4266203 -1.416789,-7.4266203 -3.157646,0 0.05777,0.2551992 0.785039,3.5272561 1.718641,7.715142 0.335175,1.50232 3.413402,0 1.046348,-7.579907 z"
     id="path38-6"
     style="fill:#ffffff;fill-opacity:1;fill-rule:nonzero;stroke:none" /></svg>