<svg width="20" height="20" viewBox="0 0 20 20" fill="none" xmlns="http://www.w3.org/2000/svg">
<path d="M5.59866 2L6 3.1178C5.42586 3.30818 5.0301 3.64542 4.81271 4.12953C4.60089 4.61363 4.49498 5.16845 4.49498 5.79398V7.47476C4.49498 8.0187 4.37514 8.51368 4.13545 8.95971C3.90134 9.40575 3.52787 9.75931 3.01505 10.0204C2.50223 10.2815 1.83055 10.412 1 10.412V9.28608C1.57414 9.28608 1.98662 9.1229 2.23746 8.79653C2.48829 8.47017 2.61371 8.02958 2.61371 7.47476V5.79398C2.61371 5.22285 2.7029 4.68978 2.88127 4.1948C3.06522 3.69437 3.37458 3.2565 3.80936 2.88118C4.24415 2.50042 4.84058 2.2067 5.59866 2ZM6 16.874L5.59866 18C4.84058 17.7879 4.24415 17.4914 3.80936 17.1107C3.37458 16.7353 3.06522 16.2975 2.88127 15.797C2.7029 15.3021 2.61371 14.769 2.61371 14.1979V12.5334C2.61371 12.1581 2.55797 11.8372 2.44649 11.5706C2.33501 11.2987 2.15942 11.0892 1.91973 10.9424C1.68562 10.7901 1.37904 10.7139 1 10.7139V9.57981C1.83055 9.57981 2.50223 9.71307 3.01505 9.9796C3.52787 10.2407 3.90134 10.5943 4.13545 11.0403C4.37514 11.4809 4.49498 11.9786 4.49498 12.5334V14.1979C4.49498 14.6167 4.53958 15.0029 4.62876 15.3565C4.72352 15.7155 4.8796 16.0255 5.09699 16.2866C5.31996 16.5477 5.62096 16.7435 6 16.874Z" fill="#A5B7C0" class="primary"/>
<path d="M14.4013 18L14 16.8822C14.5741 16.6918 14.9699 16.3546 15.1873 15.8705C15.3991 15.3864 15.505 14.8315 15.505 14.206L15.505 12.5252C15.505 11.9813 15.6249 11.4863 15.8645 11.0403C16.0987 10.5943 16.4721 10.2407 16.985 9.9796C17.4978 9.71851 18.1695 9.58796 19 9.58797L19 10.7139C18.4259 10.7139 18.0134 10.8771 17.7625 11.2035C17.5117 11.5298 17.3863 11.9704 17.3863 12.5252L17.3863 14.206C17.3863 14.7772 17.2971 15.3102 17.1187 15.8052C16.9348 16.3056 16.6254 16.7435 16.1906 17.1188C15.7559 17.4996 15.1594 17.7933 14.4013 18ZM14 3.12596L14.4013 2C15.1594 2.21214 15.7559 2.50858 16.1906 2.88934C16.6254 3.26466 16.9348 3.70253 17.1187 4.20296C17.2971 4.69794 17.3863 5.231 17.3863 5.80214L17.3863 7.4666C17.3863 7.84192 17.442 8.16284 17.5535 8.42937C17.665 8.70134 17.8406 8.91076 18.0803 9.05762C18.3144 9.20993 18.621 9.28608 19 9.28608L19 10.4202C18.1695 10.4202 17.4978 10.2869 16.985 10.0204C16.4721 9.75931 16.0987 9.40575 15.8645 8.95971C15.6249 8.51912 15.505 8.02142 15.505 7.4666L15.505 5.80214C15.505 5.38331 15.4604 4.99711 15.3712 4.64355C15.2765 4.28455 15.1204 3.9745 14.903 3.71341C14.68 3.45232 14.379 3.2565 14 3.12596Z" fill="#A5B7C0" class="primary"/>
<path fill-rule="evenodd" clip-rule="evenodd" d="M11.1846 5.52801C11.1846 5.2364 10.9383 5 10.6346 5H9.36545C9.06166 5 8.81539 5.2364 8.81539 5.52801V5.87583C8.81539 6.11065 8.65226 6.31393 8.42524 6.40143C8.07661 6.53579 7.75181 6.71342 7.45844 6.9272C7.26814 7.06588 7.01019 7.09794 6.80209 6.98525L6.44531 6.79204C6.18446 6.65079 5.85381 6.73581 5.70146 6.98332L5.07659 7.99847C4.91985 8.2531 5.01154 8.58162 5.27989 8.72694L5.60335 8.9021C5.81778 9.01822 5.92172 9.25663 5.88906 9.49087C5.86583 9.65749 5.85385 9.82743 5.85385 10C5.85385 10.1726 5.86583 10.3425 5.88906 10.5091C5.92172 10.7434 5.81778 10.9818 5.60335 11.0979L5.27989 11.2731C5.01155 11.4184 4.91986 11.7469 5.07659 12.0015L5.70146 13.0167C5.85382 13.2642 6.18446 13.3492 6.44532 13.208L6.8021 13.0147C7.01019 12.9021 7.26814 12.9341 7.45844 13.0728C7.75181 13.2866 8.07661 13.4642 8.42524 13.5986C8.65226 13.6861 8.81539 13.8894 8.81539 14.1242V14.472C8.81539 14.7636 9.06166 15 9.36545 15H10.6346C10.9383 15 11.1846 14.7636 11.1846 14.472V14.1242C11.1846 13.8894 11.3477 13.6861 11.5748 13.5986C11.9234 13.4642 12.2482 13.2866 12.5416 13.0728C12.7319 12.9341 12.9898 12.9021 13.1979 13.0148L13.5547 13.208C13.8155 13.3492 14.1462 13.2642 14.2985 13.0167L14.9234 12.0015C15.0801 11.7469 14.9885 11.4184 14.7201 11.2731L14.3967 11.0979C14.1822 10.9818 14.0783 10.7434 14.1109 10.5091C14.1342 10.3425 14.1462 10.1726 14.1462 10C14.1462 9.82743 14.1342 9.65749 14.1109 9.49086C14.0783 9.25662 14.1822 9.01822 14.3967 8.9021L14.7201 8.72693C14.9885 8.58162 15.0801 8.25309 14.9234 7.99847L14.2985 6.98332C14.1462 6.7358 13.8155 6.65078 13.5547 6.79204L13.1979 6.98525C12.9898 7.09794 12.7319 7.06588 12.5416 6.9272C12.2482 6.71342 11.9234 6.53579 11.5748 6.40143C11.3477 6.31393 11.1846 6.11065 11.1846 5.87583V5.52801ZM10 12C11.1046 12 12 11.1046 12 10C12 8.89543 11.1046 8 10 8C8.89543 8 8 8.89543 8 10C8 11.1046 8.89543 12 10 12Z" fill="#A5B7C0" class="primary"/>
</svg>
