<svg width="64" height="64" viewBox="0 0 64 64" fill="none" xmlns="http://www.w3.org/2000/svg">
<path d="M20.5714 10.2857C18.6779 10.2857 17.1429 11.8171 17.1429 13.7143C17.1429 14.7306 17.3934 15.314 17.626 15.6366C17.6982 15.7367 17.6015 16 17.4781 16H11.4286V22.0495C11.4286 22.1729 11.1653 22.2696 11.0652 22.1975C10.7425 21.9648 10.1592 21.7143 9.14287 21.7143C7.24572 21.7143 5.71429 23.2493 5.71429 25.1429C5.71429 27.0364 7.24572 28.5714 9.14287 28.5714C10.1592 28.5714 10.7425 28.3209 11.0652 28.0883C11.1653 28.0161 11.4286 28.1115 11.4286 28.2349V34.2857H17.4794C17.6028 34.2857 17.6982 34.0224 17.626 33.9223C17.3934 33.5997 17.1429 33.0163 17.1429 32C17.1429 30.1029 18.6779 28.5714 20.5714 28.5714C22.465 28.5714 24 30.1029 24 32C24 33.0163 23.7495 33.5997 23.5168 33.9223C23.4447 34.0224 23.5414 34.2857 23.6648 34.2857H29.7143V28.2349C29.7143 28.1115 29.451 28.0161 29.3509 28.0883C29.0282 28.3209 28.4449 28.5714 27.4286 28.5714C25.5314 28.5714 24 27.0364 24 25.1429C24 23.2493 25.5314 21.7143 27.4286 21.7143C28.4449 21.7143 29.0282 21.9648 29.3509 22.1975C29.451 22.2696 29.7143 22.1729 29.7143 22.0495V16H23.6635C23.5401 16 23.4447 15.7367 23.5168 15.6366C23.7495 15.314 24 14.7306 24 13.7143C24 11.8171 22.465 10.2857 20.5714 10.2857Z" stroke="#53707F" stroke-width="1.5"/>
<path d="M20.5714 28.5714C18.6779 28.5714 17.1429 30.1029 17.1429 32C17.1429 33.0163 17.3934 33.5997 17.626 33.9223C17.6982 34.0224 17.6015 34.2857 17.4781 34.2857H11.4286V40.3352C11.4286 40.4586 11.1653 40.5553 11.0652 40.4832C10.7425 40.2505 10.1592 40 9.14287 40C7.24572 40 5.71429 41.535 5.71429 43.4286C5.71429 45.3221 7.24572 46.8571 9.14287 46.8571C10.1592 46.8571 10.7425 46.6066 11.0652 46.374C11.1653 46.3018 11.4286 46.3972 11.4286 46.5206V52.5714H17.4794C17.6028 52.5714 17.6982 52.3081 17.626 52.208C17.3934 51.8854 17.1429 51.302 17.1429 50.2857C17.1429 48.3886 18.6779 46.8571 20.5714 46.8571C22.465 46.8571 24 48.3886 24 50.2857C24 51.302 23.7495 51.8854 23.5168 52.208C23.4447 52.3081 23.5414 52.5714 23.6648 52.5714H29.7143V46.5206C29.7143 46.3972 29.451 46.3018 29.3509 46.374C29.0282 46.6066 28.4449 46.8571 27.4286 46.8571C25.5314 46.8571 24 45.3221 24 43.4286C24 41.535 25.5314 40 27.4286 40C28.4449 40 29.0282 40.2505 29.3509 40.4832C29.451 40.5553 29.7143 40.4586 29.7143 40.3352V34.2857H23.6635C23.5401 34.2857 23.4447 34.0224 23.5168 33.9223C23.7495 33.5997 24 33.0163 24 32C24 30.1029 22.465 28.5714 20.5714 28.5714Z" stroke="#53707F" stroke-width="1.5"/>
<path d="M38.8571 28.5714C36.9636 28.5714 35.4286 30.1029 35.4286 32C35.4286 33.0163 35.6791 33.5997 35.9117 33.9223C35.9839 34.0224 35.8872 34.2857 35.7638 34.2857H29.7143V40.3352C29.7143 40.4586 29.451 40.5553 29.3509 40.4832C29.0282 40.2505 28.4449 40 27.4286 40C25.5314 40 24 41.535 24 43.4286C24 45.3221 25.5314 46.8571 27.4286 46.8571C28.4449 46.8571 29.0282 46.6066 29.3509 46.374C29.451 46.3018 29.7143 46.3972 29.7143 46.5206V52.5714H35.7651C35.8885 52.5714 35.9839 52.3081 35.9117 52.208C35.6791 51.8854 35.4286 51.302 35.4286 50.2857C35.4286 48.3886 36.9636 46.8571 38.8571 46.8571C40.7507 46.8571 42.2857 48.3886 42.2857 50.2857C42.2857 51.302 42.0352 51.8854 41.8025 52.208C41.7304 52.3081 41.8271 52.5714 41.9505 52.5714H48V46.5206C48 46.3972 47.7367 46.3018 47.6366 46.374C47.3139 46.6066 46.7306 46.8571 45.7143 46.8571C43.8171 46.8571 42.2857 45.3221 42.2857 43.4286C42.2857 41.535 43.8171 40 45.7143 40C46.7306 40 47.3139 40.2505 47.6366 40.4832C47.7367 40.5553 48 40.4586 48 40.3352V34.2857H41.9492C41.8258 34.2857 41.7304 34.0224 41.8025 33.9223C42.0352 33.5997 42.2857 33.0163 42.2857 32C42.2857 30.1029 40.7507 28.5714 38.8571 28.5714Z" stroke="#53707F" stroke-width="1.5"/>
<path d="M51.252 5.49533C49.4927 4.79494 47.5001 5.64999 46.7984 7.41259C46.4225 8.35681 46.4395 8.99148 46.5363 9.37728C46.5663 9.49698 46.379 9.70583 46.2644 9.66019L40.6439 7.42262L38.4064 13.0431C38.3607 13.1577 38.0803 13.1502 38.014 13.0461C37.8003 12.7107 37.3509 12.2621 36.4067 11.8862C34.6441 11.1845 32.6535 12.0442 31.9532 13.8035C31.2528 15.5627 32.1078 17.5553 33.8704 18.2571C34.8146 18.633 35.4493 18.616 35.8351 18.5192C35.9548 18.4891 36.1642 18.6752 36.1185 18.7898L33.8805 24.4115L39.5021 26.6496C39.6168 26.6952 39.8028 26.4859 39.7728 26.3662C39.676 25.9804 39.659 25.3457 40.0349 24.4015C40.7366 22.6389 42.7292 21.7838 44.4885 22.4842C46.2478 23.1846 47.1075 25.1752 46.4058 26.9378C46.0299 27.882 45.5813 28.3314 45.2458 28.5451C45.1418 28.6114 45.1342 28.8918 45.2489 28.9374L50.8694 31.175L53.1074 25.5533C53.1531 25.4387 52.9437 25.2526 52.824 25.2826C52.4382 25.3794 51.8035 25.3964 50.8593 25.0205C49.0967 24.3188 48.2417 22.3262 48.9421 20.567C49.6424 18.8077 51.633 17.948 53.3956 18.6497C54.3398 19.0256 54.7892 19.4741 55.0029 19.8096C55.0692 19.9137 55.3496 19.9212 55.3953 19.8066L57.6328 14.1861L52.0112 11.948C51.8965 11.9024 51.9052 11.6225 52.0093 11.5562C52.3448 11.3425 52.7933 10.8931 53.1692 9.9489C53.8709 8.1863 53.0112 6.19571 51.252 5.49533Z" stroke="#53707F" stroke-width="1.5"/>
</svg>
