<svg width="20" height="20" viewBox="0 0 20 20" fill="none" xmlns="http://www.w3.org/2000/svg">
<path d="M5.59866 2L6 3.1178C5.42586 3.30818 5.0301 3.64542 4.81271 4.12953C4.60089 4.61363 4.49498 5.16845 4.49498 5.79398V7.47476C4.49498 8.0187 4.37514 8.51368 4.13545 8.95971C3.90134 9.40575 3.52787 9.75931 3.01505 10.0204C2.50223 10.2815 1.83055 10.412 1 10.412V9.28608C1.57414 9.28608 1.98662 9.1229 2.23746 8.79653C2.48829 8.47017 2.61371 8.02958 2.61371 7.47476V5.79398C2.61371 5.22285 2.7029 4.68978 2.88127 4.1948C3.06522 3.69437 3.37458 3.2565 3.80936 2.88118C4.24415 2.50042 4.84058 2.2067 5.59866 2ZM6 16.874L5.59866 18C4.84058 17.7879 4.24415 17.4914 3.80936 17.1107C3.37458 16.7353 3.06522 16.2975 2.88127 15.797C2.7029 15.3021 2.61371 14.769 2.61371 14.1979V12.5334C2.61371 12.1581 2.55797 11.8372 2.44649 11.5706C2.33501 11.2987 2.15942 11.0892 1.91973 10.9424C1.68562 10.7901 1.37904 10.7139 1 10.7139V9.57981C1.83055 9.57981 2.50223 9.71307 3.01505 9.9796C3.52787 10.2407 3.90134 10.5943 4.13545 11.0403C4.37514 11.4809 4.49498 11.9786 4.49498 12.5334V14.1979C4.49498 14.6167 4.53958 15.0029 4.62876 15.3565C4.72352 15.7155 4.8796 16.0255 5.09699 16.2866C5.31996 16.5477 5.62096 16.7435 6 16.874Z" fill="#A5B7C0" class="primary"/>
<path d="M16.105 13.9309C16.3055 13.4811 16.4177 12.9774 16.4177 12.4455C16.4177 10.5426 14.9811 9 13.2089 9C11.4367 9 10 10.5426 10 12.4455C10 14.3483 11.4367 15.8909 13.2089 15.8909C13.7042 15.8909 14.1734 15.7704 14.5923 15.5551L15.9747 17.0394L14.9873 17.8758L16.5 19.5L19 17.0394L16.105 13.9309Z" fill="#D92A2A"/>
<path fill-rule="evenodd" clip-rule="evenodd" d="M18.8138 10.4179C18.8782 10.5042 18.9403 10.5924 19 10.6822V10.4202L19 9.58797V9.28608C18.621 9.28608 18.3144 9.20993 18.0803 9.05762C17.8406 8.91076 17.665 8.70134 17.5535 8.42937C17.442 8.16284 17.3863 7.84192 17.3863 7.4666V5.80214C17.3863 5.23101 17.2971 4.69794 17.1187 4.20296C16.9348 3.70253 16.6254 3.26466 16.1906 2.88934C15.7559 2.50858 15.1594 2.21214 14.4013 2L14 3.12596C14.379 3.2565 14.68 3.45232 14.903 3.71341C15.1204 3.9745 15.2765 4.28455 15.3712 4.64355C15.4604 4.99711 15.505 5.38331 15.505 5.80214L15.505 7.4666C15.505 7.72751 15.5315 7.9758 15.5845 8.21145C16.5507 8.47532 17.4198 8.97465 18.1261 9.64394C18.3768 9.88149 18.607 10.1405 18.8138 10.4179Z" fill="#A5B7C0" class="primary"/>
<path fill-rule="evenodd" clip-rule="evenodd" d="M10.6346 5C10.9383 5 11.1846 5.2364 11.1846 5.52801V5.87583C11.1846 6.11065 11.3477 6.31393 11.5748 6.40143C11.9234 6.53579 12.2482 6.71342 12.5416 6.9272C12.7319 7.06588 12.9898 7.09794 13.1979 6.98525L13.5547 6.79204C13.8155 6.65078 14.1462 6.7358 14.2985 6.98332L14.9234 7.99847C14.9391 8.02395 14.9523 8.05018 14.9631 8.07688C14.6495 8.02629 14.3278 8 14 8C13.0737 8 12.1964 8.2099 11.4132 8.58474C11.0513 8.22343 10.5518 8 10 8C8.89543 8 8 8.89543 8 10C8 10.5518 8.22343 11.0513 8.58474 11.4132C8.28888 12.0314 8.09577 12.7082 8.02753 13.4215C7.82733 13.3197 7.63706 13.203 7.45844 13.0728C7.26814 12.9341 7.01019 12.9021 6.8021 13.0147L6.44532 13.208C6.18446 13.3492 5.85382 13.2642 5.70146 13.0167L5.07659 12.0015C4.91986 11.7469 5.01155 11.4184 5.27989 11.2731L5.60335 11.0979C5.81778 10.9818 5.92172 10.7434 5.88906 10.5091C5.86583 10.3425 5.85385 10.1726 5.85385 10C5.85385 9.82743 5.86583 9.65749 5.88906 9.49087C5.92172 9.25663 5.81778 9.01822 5.60335 8.9021L5.27989 8.72694C5.01154 8.58162 4.91985 8.2531 5.07659 7.99847L5.70146 6.98332C5.85381 6.73581 6.18446 6.65079 6.44531 6.79204L6.80209 6.98525C7.01019 7.09794 7.26814 7.06588 7.45844 6.9272C7.75181 6.71342 8.07661 6.53579 8.42524 6.40143C8.65226 6.31393 8.81539 6.11065 8.81539 5.87583V5.52801C8.81539 5.2364 9.06166 5 9.36545 5H10.6346Z" fill="#A5B7C0" class="primary"/>
</svg>
