<svg width="20" height="20" viewBox="0 0 20 20" fill="none" xmlns="http://www.w3.org/2000/svg">
<path fill-rule="evenodd" clip-rule="evenodd" d="M3 3V17C3 17.5523 3.44772 18 4 18H15C15.5523 18 16 17.5523 16 17V6L11.2727 2H4C3.44771 2 3 2.44772 3 3ZM10.5939 7.24188C10.5939 6.96574 10.37 6.74188 10.0939 6.74188H8.94027C8.66412 6.74188 8.44027 6.96574 8.44027 7.24188V7.57125C8.44027 7.79362 8.29199 7.98612 8.08563 8.06898C7.76873 8.19621 7.47349 8.36442 7.20683 8.56687C7.03384 8.69819 6.79937 8.72855 6.61022 8.62184L6.2859 8.43888C6.04879 8.30511 5.74824 8.38562 5.60976 8.62001L5.04176 9.58131C4.89929 9.82243 4.98263 10.1335 5.22656 10.2711L5.52058 10.437C5.71549 10.547 5.80997 10.7727 5.78028 10.9946C5.75917 11.1523 5.74828 11.3133 5.74828 11.4767C5.74828 11.6401 5.75917 11.801 5.78028 11.9588C5.80997 12.1806 5.71549 12.4064 5.52058 12.5163L5.22656 12.6822C4.98264 12.8198 4.8993 13.1309 5.04177 13.372L5.60976 14.3334C5.74825 14.5677 6.0488 14.6483 6.28591 14.5145L6.61022 14.3315C6.79938 14.2248 7.03385 14.2552 7.20683 14.3865C7.4735 14.5889 7.76873 14.7572 8.08563 14.8844C8.29199 14.9672 8.44027 15.1597 8.44027 15.3821V15.7115C8.44027 15.9876 8.66412 16.2115 8.94027 16.2115H10.0939C10.37 16.2115 10.5939 15.9876 10.5939 15.7115V15.3821C10.5939 15.1597 10.7421 14.9672 10.9485 14.8844C11.2654 14.7572 11.5606 14.5889 11.8273 14.3865C12.0003 14.2552 12.2347 14.2248 12.4239 14.3315L12.7482 14.5145C12.9853 14.6483 13.2859 14.5677 13.4244 14.3334L13.9924 13.3721C14.1348 13.1309 14.0515 12.8198 13.8076 12.6822L13.5135 12.5164C13.3186 12.4064 13.2242 12.1806 13.2538 11.9588C13.275 11.801 13.2858 11.6401 13.2858 11.4767C13.2858 11.3133 13.275 11.1523 13.2538 10.9945C13.2242 10.7727 13.3186 10.547 13.5135 10.437L13.8076 10.2711C14.0515 10.1335 14.1348 9.82243 13.9924 9.58131L13.4244 8.62C13.2859 8.38562 12.9853 8.30511 12.7482 8.43887L12.4239 8.62183C12.2347 8.72855 12.0003 8.69818 11.8273 8.56686C11.5606 8.36442 11.2654 8.19621 10.9485 8.06898C10.7421 7.98612 10.5939 7.79362 10.5939 7.57125V7.24188ZM11.5463 11.4767C11.5463 12.5974 10.6378 13.5059 9.51706 13.5059C8.39637 13.5059 7.48786 12.5974 7.48786 11.4767C7.48786 10.356 8.39637 9.44748 9.51706 9.44748C10.6378 9.44748 11.5463 10.356 11.5463 11.4767Z" fill="#A5B7C0" class="primary"/>
</svg>
