<?xml version="1.0" encoding="utf-8"?>
<!-- Generator: Adobe Illustrator 19.2.0, SVG Export Plug-In . SVG Version: 6.00 Build 0)  -->
<svg version="1.1" id="Layer_1" xmlns="http://www.w3.org/2000/svg" xmlns:xlink="http://www.w3.org/1999/xlink" x="0px" y="0px"
	 viewBox="0 0 24 24" style="enable-background:new 0 0 24 24;" xml:space="preserve">
<style type="text/css">
	.st0{fill:#FFFFFF;}
</style>
<path class="st0" d="M22.3,12.5c0-1-0.8-1.8-1.8-1.8s-1.8,0.8-1.8,1.8c0,0.5,0.2,1,0.6,1.3c-0.9,1.6-2.4,2.8-4.3,3.1V16c0,0,0,0,0,0
	c1.8-1.2,3-3.2,3-5.5C18,6.9,15.1,4,11.5,4S5,6.9,5,10.5c0,2.3,1.2,4.3,3,5.5c0,0,0,0,0,0v3c0,0.6,0.4,1,1,1h5c0.6,0,1-0.4,1-1v-0.1
	c2.8-0.4,5.3-2.3,6.4-4.9C21.9,13.7,22.3,13.2,22.3,12.5z M11.5,9c0.8,0,1.5,0.7,1.5,1.5S12.3,12,11.5,12S10,11.3,10,10.5
	S10.7,9,11.5,9z"/>
</svg>
