<?xml version="1.0" encoding="utf-8"?>
<!-- Generator: Adobe Illustrator 19.2.0, SVG Export Plug-In . SVG Version: 6.00 Build 0)  -->
<svg version="1.1" id="Layer_1" xmlns="http://www.w3.org/2000/svg" xmlns:xlink="http://www.w3.org/1999/xlink" x="0px" y="0px"
	 viewBox="0 0 24 24" style="enable-background:new 0 0 24 24;" xml:space="preserve">
<style type="text/css">
	.st0{fill:#FFFFFF;}
</style>
<path class="st0" d="M16,10c0-1.7-1-3.1-2.5-3.7c0-0.1,0-0.2,0-0.3c0-0.8-0.7-1.5-1.5-1.5S10.5,5.2,10.5,6c0,0.1,0,0.2,0,0.3
	c-0.2,0.1-0.5,0.2-0.7,0.3l6.8,6.8C16.2,12.1,16,10.6,16,10z"/>
<path class="st0" d="M12,21c1.1,0,2-0.9,2-2h-4C10,20.1,10.9,21,12,21z"/>
<path class="st0" d="M4.7,4.3c-0.4-0.4-1-0.4-1.4,0s-0.4,1,0,1.4L8,10.4c-0.2,1.6-1.2,5.7-2.8,6.3c-0.9,0-0.9,1.3,0,1.3h10.4
	l3.7,3.7c0.2,0.2,0.5,0.3,0.7,0.3s0.5-0.1,0.7-0.3c0.4-0.4,0.4-1,0-1.4L4.7,4.3z"/>
</svg>
