<?xml version="1.0" encoding="utf-8"?>
<!-- Generator: Adobe Illustrator 19.2.0, SVG Export Plug-In . SVG Version: 6.00 Build 0)  -->
<svg version="1.1" id="Layer_1" xmlns="http://www.w3.org/2000/svg" xmlns:xlink="http://www.w3.org/1999/xlink" x="0px" y="0px"
	 viewBox="0 0 24 24" style="enable-background:new 0 0 24 24;" xml:space="preserve">
<style type="text/css">
	.st0{fill:#FFFFFF;}
</style>
<path class="st0" d="M18.9,16.7C17,16,16,11.3,16,10c0-1.7-1-3.1-2.5-3.7c0-0.1,0-0.2,0-0.3c0-0.8-0.7-1.5-1.5-1.5S10.5,5.2,10.5,6
	c0,0.1,0,0.2,0,0.3C9,6.9,8,8.3,8,10c0,1.2-1,6-2.8,6.7c-0.9,0-0.9,1.3,0,1.3h13.7C19.7,18,19.7,16.7,18.9,16.7z"/>
<path class="st0" d="M12,21c1.1,0,2-0.9,2-2h-4C10,20.1,10.9,21,12,21z"/>
</svg>
