<?xml version="1.0" encoding="utf-8"?>
<!-- Generator: Adobe Illustrator 19.2.0, SVG Export Plug-In . SVG Version: 6.00 Build 0)  -->
<svg version="1.1" id="Layer_1" xmlns="http://www.w3.org/2000/svg" xmlns:xlink="http://www.w3.org/1999/xlink" x="0px" y="0px"
	 viewBox="0 0 24 24" style="enable-background:new 0 0 24 24;" xml:space="preserve">
<style type="text/css">
	.st0{fill:#FFFFFF;}
</style>
<path class="st0" d="M21,2H3C2.5,2,2,2.5,2,3v18c0,0.5,0.5,1,1,1h18c0.6,0,1-0.5,1-1V3C22,2.3,21.7,2,21,2z M13,20H4V4h9V20z M19,11
	v5h-3v-5h-2.5l4-4.1l4,4.1H19z"/>
<circle class="st0" cx="8.5" cy="7" r="1.6"/>
<path class="st0" d="M7,14v3c0,0.6,0.4,1,1,1h1c0.6,0,1-0.4,1-1v-3c0.6,0,1-0.4,1-1v-3c0-0.6-0.4-1-1-1H7c-0.6,0-1,0.4-1,1v3
	C6,13.6,6.4,14,7,14z"/>
</svg>
