<?xml version="1.0" encoding="utf-8"?>
<!-- Generator: Adobe Illustrator 19.2.0, SVG Export Plug-In . SVG Version: 6.00 Build 0)  -->
<svg version="1.1" id="Layer_1" xmlns="http://www.w3.org/2000/svg" xmlns:xlink="http://www.w3.org/1999/xlink" x="0px" y="0px"
	 viewBox="0 0 24 24" style="enable-background:new 0 0 24 24;" xml:space="preserve">
<style type="text/css">
	.st0{fill:#FFFFFF;}
</style>
<path class="st0" d="M18.5,8h-3c-0.7,0-1.3,0.3-1.8,0.7L7.5,15h-2C4.1,15,3,16.1,3,17.5S4.1,20,5.5,20h3c0.7,0,1.3-0.3,1.8-0.7
	l6.3-6.3h2c1.4,0,2.5-1.1,2.5-2.5S19.9,8,18.5,8z"/>
<path class="st0" d="M3.3,9.7C3.5,9.9,3.7,10,4,10s0.5-0.1,0.7-0.3L6,8.4l1.3,1.3C7.5,9.9,7.7,10,8,10s0.5-0.1,0.7-0.3
	c0.4-0.4,0.4-1,0-1.4L7.4,7l1.3-1.3c0.4-0.4,0.4-1,0-1.4s-1-0.4-1.4,0L6,5.6L4.7,4.3c-0.4-0.4-1-0.4-1.4,0s-0.4,1,0,1.4L4.6,7
	L3.3,8.3C2.9,8.7,2.9,9.3,3.3,9.7z"/>
</svg>
