<?xml version="1.0" encoding="utf-8"?>
<!-- Generator: Adobe Illustrator 19.2.0, SVG Export Plug-In . SVG Version: 6.00 Build 0)  -->
<svg version="1.1" id="Layer_1" xmlns="http://www.w3.org/2000/svg" xmlns:xlink="http://www.w3.org/1999/xlink" x="0px" y="0px"
	 viewBox="0 0 24 24" style="enable-background:new 0 0 24 24;" xml:space="preserve">
<style type="text/css">
	.st0{fill:#FFFFFF;}
</style>
<path class="st0" d="M9,9c0-0.6-0.4-1-1-1H6.4l3.3-3.3c0.4-0.4,0.4-1,0-1.4s-1-0.4-1.4,0L5,6.6V5c0-0.6-0.4-1-1-1S3,4.4,3,5v5h5
	C8.6,10,9,9.6,9,9z"/>
<path class="st0" d="M18.5,8h-3c-0.7,0-1.3,0.3-1.8,0.7L7.5,15h-2C4.1,15,3,16.1,3,17.5S4.1,20,5.5,20h3c0.7,0,1.3-0.3,1.8-0.7
	l6.3-6.3h2c1.4,0,2.5-1.1,2.5-2.5S19.9,8,18.5,8z"/>
</svg>
