<?xml version="1.0" encoding="utf-8"?>
<!-- Generator: Adobe Illustrator 19.2.0, SVG Export Plug-In . SVG Version: 6.00 Build 0)  -->
<svg version="1.1" id="Layer_1" xmlns="http://www.w3.org/2000/svg" xmlns:xlink="http://www.w3.org/1999/xlink" x="0px" y="0px"
	 viewBox="0 0 24 24" style="enable-background:new 0 0 24 24;" xml:space="preserve">
<style type="text/css">
	.st0{fill:#FFFFFF;}
</style>
<path class="st0" d="M17,12V8c0-2.8-2.2-5-5-5C9.2,3,7,5.2,7,8v4c-1.1,0-2,0.9-2,2v4c0,1.1,0.9,2,2,2h10c1.1,0,2-0.9,2-2v-4
	C19,12.9,18.1,12,17,12z M9,8c0-1.7,1.3-3,3-3s3,1.3,3,3v4H9V8z"/>
</svg>
