<?xml version="1.0" encoding="utf-8"?>
<!-- Generator: Adobe Illustrator 19.2.0, SVG Export Plug-In . SVG Version: 6.00 Build 0)  -->
<svg version="1.1" id="Layer_1" xmlns="http://www.w3.org/2000/svg" xmlns:xlink="http://www.w3.org/1999/xlink" x="0px" y="0px"
	 viewBox="0 0 24 24" style="enable-background:new 0 0 24 24;" xml:space="preserve">
<style type="text/css">
	.st0{fill:#FFFFFF;}
</style>
<path class="st0" d="M21,12h-2c-0.2,0-0.3,0.1-0.5,0.1L8.6,2.3c-0.4-0.4-1-0.4-1.4,0c-0.4,0.4-0.4,1,0,1.4L18,14.5V21
	c0,0.6,0.4,1,1,1h2c0.6,0,1-0.4,1-1v-8C22,12.4,21.6,12,21,12z"/>
<polygon class="st0" points="9,16 3,19 7,19 6,22 12,22 11,19 15,19 "/>
</svg>
