<?xml version="1.0" encoding="utf-8"?>
<!-- Generator: Adobe Illustrator 19.2.0, SVG Export Plug-In . SVG Version: 6.00 Build 0)  -->
<svg version="1.1" id="Layer_1" xmlns="http://www.w3.org/2000/svg" xmlns:xlink="http://www.w3.org/1999/xlink" x="0px" y="0px"
	 viewBox="0 0 24 24" style="enable-background:new 0 0 24 24;" xml:space="preserve">
<style type="text/css">
	.st0{fill:#FFFFFF;}
</style>
<path class="st0" d="M12,21c-5,0-9-4-9-9c0-5,4-9,9-9c5,0,9,4,9,9C21,17,17,21,12,21z M12,5c-3.9,0-7,3.1-7,7c0,3.9,3.1,7,7,7
	c3.9,0,7-3.1,7-7C19,8.1,15.9,5,12,5z"/>
<path class="st0" d="M12,16c-0.6,0-1-0.4-1-1V9c0-0.6,0.4-1,1-1s1,0.4,1,1v6C13,15.6,12.6,16,12,16z"/>
</svg>
