<?xml version="1.0" encoding="utf-8"?>
<!-- Generator: Adobe Illustrator 19.2.0, SVG Export Plug-In . SVG Version: 6.00 Build 0)  -->
<svg version="1.1" id="Layer_1" xmlns="http://www.w3.org/2000/svg" xmlns:xlink="http://www.w3.org/1999/xlink" x="0px" y="0px"
	 viewBox="0 0 24 24" style="enable-background:new 0 0 24 24;" xml:space="preserve">
<style type="text/css">
	.st0{fill:#FFFFFF;}
</style>
<path class="st0" d="M12,21c-5,0-9-4-9-9c0-3.2,1.7-6.2,4.5-7.8C8,3.9,8.6,4.1,8.9,4.6C9.1,5.1,9,5.7,8.5,5.9C6.3,7.2,5,9.5,5,12
	c0,3.9,3.1,7,7,7c3.9,0,7-3.1,7-7c0-2.5-1.3-4.8-3.5-6.1c-0.5-0.3-0.6-0.9-0.4-1.4c0.3-0.5,0.9-0.6,1.4-0.4C19.3,5.8,21,8.8,21,12
	C21,17,17,21,12,21z"/>
<path class="st0" d="M12,11c-0.6,0-1-0.4-1-1V4c0-0.6,0.4-1,1-1s1,0.4,1,1v6C13,10.6,12.6,11,12,11z"/>
</svg>
