<?xml version="1.0" encoding="utf-8"?>
<!-- Generator: Adobe Illustrator 19.2.0, SVG Export Plug-In . SVG Version: 6.00 Build 0)  -->
<svg version="1.1" id="Layer_1" xmlns="http://www.w3.org/2000/svg" xmlns:xlink="http://www.w3.org/1999/xlink" x="0px" y="0px"
	 viewBox="0 0 24 24" style="enable-background:new 0 0 24 24;" xml:space="preserve">
<style type="text/css">
	.st0{fill:#FFFFFF;}
</style>
<path class="st0" d="M16,8c-1-1.5-3-2.6-3-5c0-0.8-0.7-1-1.5-1S10,3.2,10,4c0,1.4,0.7,3.3,0.9,5H5.5C4.7,9,4,9.7,4,10.5
	S4.7,12,5.5,12C4.7,12,4,12.7,4,13.5S4.7,15,5.5,15h1C5.7,15,5,15.7,5,16.5S5.7,18,6.5,18H7c-0.6,0-1,0.4-1,1c0,0.6,0.4,1,1,1h4h2
	c2.1,0,6-2,7-2v-8C19,10,16.7,9,16,8z"/>
</svg>
