<?xml version="1.0" encoding="utf-8"?>
<!-- Generator: Adobe Illustrator 19.2.0, SVG Export Plug-In . SVG Version: 6.00 Build 0)  -->
<svg version="1.1" id="Layer_1" xmlns="http://www.w3.org/2000/svg" xmlns:xlink="http://www.w3.org/1999/xlink" x="0px" y="0px"
	 viewBox="0 0 24 24" style="enable-background:new 0 0 24 24;" xml:space="preserve">
<style type="text/css">
	.st0{fill:#FFFFFF;}
</style>
<path class="st0" d="M13,3h-2H7C6.4,3,6,3.4,6,4c0,0.6,0.4,1,1,1H6.5C5.7,5,5,5.7,5,6.5S5.7,8,6.5,8h-1C4.7,8,4,8.7,4,9.5
	S4.7,11,5.5,11C4.7,11,4,11.7,4,12.5S4.7,14,5.5,14h5.4c-0.2,1.7-0.9,3.6-0.9,5c0,0.8,0.7,2,1.5,2s1.5-0.2,1.5-1c0-2.4,2-3.5,3-5
	c0.7-1,3-2,4-2V5C19,5,15.1,3,13,3z"/>
</svg>
