<?xml version="1.0" encoding="utf-8"?>
<!-- Generator: Adobe Illustrator 19.2.0, SVG Export Plug-In . SVG Version: 6.00 Build 0)  -->
<svg version="1.1" id="Layer_1" xmlns="http://www.w3.org/2000/svg" xmlns:xlink="http://www.w3.org/1999/xlink" x="0px" y="0px"
	 viewBox="0 0 24 24" style="enable-background:new 0 0 24 24;" xml:space="preserve">
<style type="text/css">
	.st0{fill:#FFFFFF;}
</style>
<path class="st0" d="M12,19c-0.6,0-1,0.4-1,1v1c0,0.6,0.4,1,1,1s1-0.4,1-1v-1C13,19.4,12.6,19,12,19z"/>
<path class="st0" d="M2.8,7.9c0.2-0.6,0.6-1.2,1-1.7c0.4-0.4,0.4-1,0-1.4c-0.4-0.4-1-0.4-1.4,0C1.8,5.5,1.2,6.3,0.9,7.3
	C0.8,7.8,1.1,8.4,1.6,8.5c0.1,0,0.2,0,0.3,0C2.3,8.6,2.7,8.3,2.8,7.9z"/>
<path class="st0" d="M6.4,5c0.1,0,0.3,0,0.4,0c0.5,0,1.1,0.1,1.6,0.3c0.1,0,0.2,0.1,0.4,0.1c0.4,0,0.8-0.2,0.9-0.6
	c0.2-0.5-0.1-1.1-0.6-1.3C8.4,3.1,7.6,3,6.8,3c0,0,0,0,0,0C6.6,3,6.4,3,6.2,3c-0.5,0.1-1,0.5-0.9,1.1C5.4,4.7,5.8,5.1,6.4,5z"/>
<path class="st0" d="M15.2,5.3c0.1,0,0.2,0,0.4-0.1C16.2,5,16.9,5,17.5,5c0.6,0.1,1-0.3,1.1-0.9s-0.3-1-0.9-1.1c-1-0.1-2,0-2.9,0.4
	c-0.5,0.2-0.8,0.8-0.6,1.3C14.4,5.1,14.8,5.3,15.2,5.3z"/>
<path class="st0" d="M22.8,7.6c-0.2-1-0.7-1.9-1.4-2.6c-0.4-0.4-1-0.4-1.4-0.1c-0.4,0.4-0.4,1-0.1,1.4c0.5,0.5,0.8,1.1,0.9,1.7
	c0.1,0.5,0.5,0.8,1,0.8c0.1,0,0.2,0,0.2,0C22.6,8.6,23,8.1,22.8,7.6z"/>
<path class="st0" d="M11,12v2c0,0.6,0.4,1,1,1s1-0.4,1-1v-2c0-0.6-0.4-1-1-1S11,11.4,11,12z"/>
<path class="st0" d="M21.4,9.9l-1-0.4c-2.3-0.9-4.8-1.3-7.3-1.4c0.1-0.3,0.2-0.7,0.4-1c0.3-0.5,0.1-1.1-0.4-1.4
	c-0.4-0.2-0.8-0.1-1.1,0.1c-0.3-0.3-0.7-0.3-1.1-0.1c-0.5,0.3-0.7,0.9-0.4,1.4c0.2,0.3,0.3,0.6,0.4,1C8.4,8.2,5.9,8.6,3.6,9.5
	l-1,0.4C2.3,10,2.1,10.2,2,10.4c-0.1,0.3-0.1,0.6,0,0.8l3.5,7.2c0.2,0.5,0.7,0.7,1.2,0.5l0.8-0.3c2.9-1,6-1,8.8,0l0.8,0.3
	c0.1,0,0.2,0.1,0.3,0.1c0.4,0,0.7-0.2,0.9-0.6l3.5-7.2c0.1-0.3,0.1-0.5,0-0.8C21.9,10.2,21.7,10,21.4,9.9z M17.1,16.8L17.1,16.8
	C15.4,16.3,13.7,16,12,16s-3.4,0.3-5.1,0.8l-2.6-5.5c4.9-1.8,10.5-1.8,15.4,0L17.1,16.8z"/>
</svg>
