<?xml version="1.0" encoding="utf-8"?>
<!-- Generator: Adobe Illustrator 19.2.0, SVG Export Plug-In . SVG Version: 6.00 Build 0)  -->
<svg version="1.1" id="Layer_1" xmlns="http://www.w3.org/2000/svg" xmlns:xlink="http://www.w3.org/1999/xlink" x="0px" y="0px"
	 viewBox="0 0 24 24" style="enable-background:new 0 0 24 24;" xml:space="preserve">
<style type="text/css">
	.st0{fill:#FFFFFF;}
</style>
<path class="st0" d="M22,7.4c-0.1-0.3-0.3-0.5-0.6-0.6l-1-0.4c-5.3-2-11.4-2-16.8,0l-1,0.4C2.3,7,2.1,7.2,2,7.4C1.9,7.7,1.9,8,2,8.3
	l3.5,7.2c0.2,0.5,0.7,0.7,1.2,0.5l0.8-0.3c0.2-0.1,0.5-0.1,0.7-0.2l1.8,4.8c0.1,0.4,0.5,0.7,0.9,0.7c0.1,0,0.2,0,0.3-0.1
	c0.5-0.2,0.8-0.8,0.6-1.3l-1.7-4.5c2.1-0.3,4.2-0.1,6.1,0.6l0.8,0.3c0.1,0,0.2,0.1,0.3,0.1c0.4,0,0.7-0.2,0.9-0.6L22,8.3
	C22.1,8,22.1,7.7,22,7.4z M17.1,13.8L17.1,13.8C15.4,13.3,13.7,13,12,13c-0.8,0-1.6,0.1-2.4,0.2L7.9,8.7C7.8,8.1,7.2,7.9,6.7,8.1
	C6.1,8.2,5.9,8.8,6.1,9.3l1.6,4.3c-0.2,0.1-0.5,0.1-0.7,0.2L4.3,8.4c4.9-1.8,10.5-1.8,15.4,0L17.1,13.8z"/>
</svg>
