<?xml version="1.0" encoding="utf-8"?>
<!-- Generator: Adobe Illustrator 19.2.0, SVG Export Plug-In . SVG Version: 6.00 Build 0)  -->
<svg version="1.1" id="Layer_1" xmlns="http://www.w3.org/2000/svg" xmlns:xlink="http://www.w3.org/1999/xlink" x="0px" y="0px"
	 viewBox="0 0 24 24" style="enable-background:new 0 0 24 24;" xml:space="preserve">
<style type="text/css">
	.st0{fill:#FFFFFF;}
</style>
<path class="st0" d="M12,3c-5,0-9,4-9,9c0,5,4,9,9,9c5,0,9-4,9-9C21,7,17,3,12,3z M5,12c0-1.6,0.5-3,1.4-4.2l9.8,9.8
	C15,18.5,13.6,19,12,19C8.1,19,5,15.9,5,12z M17.6,16.2L7.8,6.4C9,5.5,10.4,5,12,5c3.9,0,7,3.1,7,7C19,13.6,18.5,15,17.6,16.2z"/>
</svg>
