<?xml version="1.0" encoding="utf-8"?>
<!-- Generator: Adobe Illustrator 19.2.0, SVG Export Plug-In . SVG Version: 6.00 Build 0)  -->
<svg version="1.1" id="Layer_1" xmlns="http://www.w3.org/2000/svg" xmlns:xlink="http://www.w3.org/1999/xlink" x="0px" y="0px"
	 viewBox="0 0 24 24" style="enable-background:new 0 0 24 24;" xml:space="preserve">
<style type="text/css">
	.st0{fill:#FFFFFF;}
</style>
<path class="st0" d="M18.8,15c0.9-2.8-0.9-5.6-2-8.6c-0.1,0.9-0.4,5.1-1.9,3.8c1-2.9-2.6-3.3-2.1-8.6c-3.2,2.1-2,7-2.8,7.9
	C10.2,8.8,9,7.1,6.1,5.9c1.3,2,1.4,3.9,0.2,6.4c-1.4,3.1,0.1,6.2,3.1,7.6c-1.3,0.6-2.8,0.9-3.8,1.1c0,0,8.8,0,12,0
	c0.4,0,0.7,0,0.9,0c-1.1-0.2-2.5-0.5-3.7-1C17.8,19.3,18.1,17.1,18.8,15z M14.4,19.8c-1.1-0.5-2-1.3-2.4-2.4
	c-0.3,1.1-1.1,1.9-2.2,2.4c-1.1-1.9-2.1-4.2-0.6-6.3c0.4,0.6,0.9,1.1,1.4,1.6c0.4-1,1.2-3.3,2-4.2c0.2,0.9,1.4,3,1.9,3.8
	c0.8,0.2,1-0.8,1.3-1.3C17.4,14.8,15.7,18.3,14.4,19.8z"/>
</svg>
