<?xml version="1.0" encoding="utf-8"?>
<!-- Generator: Adobe Illustrator 19.2.0, SVG Export Plug-In . SVG Version: 6.00 Build 0)  -->
<svg version="1.1" id="Layer_1" xmlns="http://www.w3.org/2000/svg" xmlns:xlink="http://www.w3.org/1999/xlink" x="0px" y="0px"
	 viewBox="0 0 24 24" style="enable-background:new 0 0 24 24;" xml:space="preserve">
<style type="text/css">
	.st0{fill:#FFFFFF;}
</style>
<path class="st0" d="M12,14c1.7,0,3-1.3,3-3V6c0-1.7-1.3-3-3-3c-1.7,0-3,1.3-3,3v5C9,12.7,10.3,14,12,14z"/>
<path class="st0" d="M19,11c0-0.6-0.4-1-1-1s-1,0.4-1,1c0,2.8-2.2,5-5,5c-2.8,0-5-2.2-5-5c0-0.6-0.4-1-1-1s-1,0.4-1,1
	c0,3.5,2.6,6.4,6,6.9V21c0,0.6,0.4,1,1,1s1-0.4,1-1v-3.1C16.4,17.4,19,14.5,19,11z"/>
</svg>
