<?xml version="1.0" encoding="utf-8"?>
<!-- Generator: Adobe Illustrator 19.2.0, SVG Export Plug-In . SVG Version: 6.00 Build 0)  -->
<svg version="1.1" id="Layer_1" xmlns="http://www.w3.org/2000/svg" xmlns:xlink="http://www.w3.org/1999/xlink" x="0px" y="0px"
	 viewBox="0 0 24 24" style="enable-background:new 0 0 24 24;" xml:space="preserve">
<style type="text/css">
	.st0{fill:#FFFFFF;}
</style>
<path class="st0" d="M18,16l-0.8-7.3C17.1,7.2,15.6,6,14,6h-4C8.4,6,6.9,7.2,6.8,8.7L6,16c-0.6,0-1,0.4-1,1v2c0,0.6,0.4,1,1,1h12
	c0.6,0,1-0.4,1-1v-2C19,16.4,18.6,16,18,16z M8.8,8.9C8.8,8.5,9.3,8,10,8h4c0.7,0,1.2,0.5,1.3,0.9L16,16H8L8.8,8.9z"/>
<path class="st0" d="M23,10h-3c-0.6,0-1,0.4-1,1s0.4,1,1,1h3c0.6,0,1-0.4,1-1S23.6,10,23,10z"/>
<path class="st0" d="M4,10H1c-0.6,0-1,0.4-1,1s0.4,1,1,1h3c0.6,0,1-0.4,1-1S4.6,10,4,10z"/>
<path class="st0" d="M12,5c0.6,0,1-0.4,1-1V1c0-0.6-0.4-1-1-1s-1,0.4-1,1v3C11,4.6,11.4,5,12,5z"/>
<path class="st0" d="M18,6c0.3,0,0.5-0.1,0.7-0.3l2-2c0.4-0.4,0.4-1,0-1.4c-0.4-0.4-1-0.4-1.4,0l-2,2c-0.4,0.4-0.4,1,0,1.4
	C17.5,5.9,17.8,6,18,6z"/>
<path class="st0" d="M5.3,5.7C5.5,5.9,5.7,6,6,6s0.5-0.1,0.7-0.3c0.4-0.4,0.4-1,0-1.4l-2-2c-0.4-0.4-1-0.4-1.4,0s-0.4,1,0,1.4
	L5.3,5.7z"/>
<path class="st0" d="M9.7,9.1L9.1,15L12,9h-2C9.9,9,9.8,9.1,9.7,9.1z"/>
</svg>
