<?xml version="1.0" encoding="UTF-8"?>
<svg width="400px" height="200px" viewBox="0 0 400 200" version="1.1" xmlns="http://www.w3.org/2000/svg" xmlns:xlink="http://www.w3.org/1999/xlink">
    <!-- Generator: Sketch 61.2 (89653) - https://sketch.com -->
    <title>Cloud/Placeholders/404</title>
    <desc>Created with Sketch.</desc>
    <g id="Cloud/Placeholders/404" stroke="none" stroke-width="1" fill="none" fill-rule="evenodd">
        <path d="M200.210945,0 C223.998796,0 246.029451,6.81472057 264.053249,18.4064259 L340.298507,18.4079602 C373.270731,18.4079602 400,45.1372289 400,78.1094527 C400,105.592218 381.43002,128.737731 356.153219,135.682834 C343.894564,159.839143 316.90112,176.616915 285.572139,176.616915 C281.10045,176.616915 276.717087,176.275105 272.452289,175.618815 C253.092881,190.808798 227.836903,200 200.210945,200 C172.629834,200 147.411015,190.838615 128.061088,175.692115 C123.948832,176.300277 119.72677,176.616915 115.422886,176.616915 C84.225182,176.616915 57.3267576,159.979456 44.995953,135.985537 C19.1352066,129.435956 3.41650556e-15,106.007338 0,78.1094527 C-4.03793284e-15,45.1372289 26.7292687,18.4079602 59.7014925,18.4079602 L136.368642,18.4064259 C154.39244,6.81472057 176.423094,0 200.210945,0 Z" id="Cloud" fill="#2EA2DB"
              class="brand_element" opacity="0.1"></path>
        <rect id="Rectangle" stroke="#212A2F" stroke-width="2" fill="#E1E7EA" x="157" y="34" width="87" height="15" rx="5"></rect>
        <rect id="Rectangle" stroke="#212A2F" stroke-width="2" fill="#2EA2DB" class="brand_element" x="183" y="42" width="35" height="17" rx="3"></rect>
        <rect id="Rectangle" stroke="#212A2F" stroke-width="2" fill="#F5F7F9" x="193" y="51" width="15" height="64" rx="3"></rect>
        <circle id="Oval" stroke="#212A2F" stroke-width="2" fill="#A5B6C0" cx="200" cy="115" r="43"></circle>
        <circle id="Oval" stroke="#212A2F" stroke-width="2" fill="#F5F7F9" cx="200" cy="123" r="43"></circle>
        <circle id="Oval" stroke="#212A2F" stroke-width="2" fill="#A5B6C0" cx="200" cy="123" r="29"></circle>
        <circle id="Oval" stroke="#212A2F" stroke-width="2" fill="#3F545F" cx="200" cy="123" r="17"></circle>
        <path d="M209,123 C209,118.029437 204.970563,114 200,114" id="Path" stroke="#212A2F"></path>
        <path d="M200,144.5 C199.171573,144.5 198.5,145.171573 198.5,146 C198.5,146.828427 199.171573,147.5 200,147.5 C200.828427,147.5 201.5,146.828427 201.5,146 C201.5,145.171573 200.828427,144.5 200,144.5 Z M182.675884,138.202796 C182.090097,138.788582 182.090097,139.73833 182.675884,140.324116 C183.26167,140.909903 184.211418,140.909903 184.797204,140.324116 C185.382991,139.73833 185.382991,138.788582 184.797204,138.202796 C184.211418,137.617009 183.26167,137.617009 182.675884,138.202796 Z M215.202796,138.202796 C214.617009,138.788582 214.617009,139.73833 215.202796,140.324116 C215.788582,140.909903 216.73833,140.909903 217.324116,140.324116 C217.909903,139.73833 217.909903,138.788582 217.324116,138.202796 C216.73833,137.617009 215.788582,137.617009 215.202796,138.202796 Z M223,121.5 C222.171573,121.5 221.5,122.171573 221.5,123 C221.5,123.828427 222.171573,124.5 223,124.5 C223.828427,124.5 224.5,123.828427 224.5,123 C224.5,122.171573 223.828427,121.5 223,121.5 Z M177,121.5 C176.171573,121.5 175.5,122.171573 175.5,123 C175.5,123.828427 176.171573,124.5 177,124.5 C177.828427,124.5 178.5,123.828427 178.5,123 C178.5,122.171573 177.828427,121.5 177,121.5 Z M215.202796,105.675884 C214.617009,106.26167 214.617009,107.211418 215.202796,107.797204 C215.788582,108.382991 216.73833,108.382991 217.324116,107.797204 C217.909903,107.211418 217.909903,106.26167 217.324116,105.675884 C216.73833,105.090097 215.788582,105.090097 215.202796,105.675884 Z M182.675884,105.675884 C182.090097,106.26167 182.090097,107.211418 182.675884,107.797204 C183.26167,108.382991 184.211418,108.382991 184.797204,107.797204 C185.382991,107.211418 185.382991,106.26167 184.797204,105.675884 C184.211418,105.090097 183.26167,105.090097 182.675884,105.675884 Z M200,98.5 C199.171573,98.5 198.5,99.1715729 198.5,100 C198.5,100.828427 199.171573,101.5 200,101.5 C200.828427,101.5 201.5,100.828427 201.5,100 C201.5,99.1715729 200.828427,98.5 200,98.5 Z" id="Combined-Shape" stroke="#212A2F"></path>
        <path d="M136.226415,48 L136.226415,114.411429 L148,114.411429 L148,130.16 L136.226415,130.16 L136.226415,152 L118.566038,152 L118.566038,130.16 L70,130.16 L70,114.411429 L112.973585,48 L136.226415,48 Z M118.566038,67.76 L88.9849057,114.411429 L118.566038,114.411429 L118.566038,67.76 Z" id="4" stroke="#212A2F" stroke-width="2" fill="#F5F7F9" fill-rule="nonzero"></path>
        <path d="M318.226415,48 L318.226415,114.411429 L330,114.411429 L330,130.16 L318.226415,130.16 L318.226415,152 L300.566038,152 L300.566038,130.16 L252,130.16 L252,114.411429 L294.973585,48 L318.226415,48 Z M300.566038,67.76 L270.984906,114.411429 L300.566038,114.411429 L300.566038,67.76 Z" id="4" stroke="#212A2F" stroke-width="2" fill="#F5F7F9" fill-rule="nonzero"></path>
    </g>
</svg>
