<?xml version="1.0" encoding="UTF-8"?>
<svg width="400px" height="200px" viewBox="0 0 400 200" version="1.1" xmlns="http://www.w3.org/2000/svg" xmlns:xlink="http://www.w3.org/1999/xlink">
    <!-- Generator: Sketch 61.2 (89653) - https://sketch.com -->
    <title>Cloud/Placeholders/500</title>
    <desc>Created with Sketch.</desc>
    <g id="Cloud/Placeholders/500" stroke="none" stroke-width="1" fill="none" fill-rule="evenodd">
        <path d="M200.210945,0 C223.998796,0 246.029451,6.81472057 264.053249,18.4064259 L340.298507,18.4079602 C373.270731,18.4079602 400,45.1372289 400,78.1094527 C400,105.592218 381.43002,128.737731 356.153219,135.682834 C343.894564,159.839143 316.90112,176.616915 285.572139,176.616915 C281.10045,176.616915 276.717087,176.275105 272.452289,175.618815 C253.092881,190.808798 227.836903,200 200.210945,200 C172.629834,200 147.411015,190.838615 128.061088,175.692115 C123.948832,176.300277 119.72677,176.616915 115.422886,176.616915 C84.225182,176.616915 57.3267576,159.979456 44.995953,135.985537 C19.1352066,129.435956 3.41650556e-15,106.007338 0,78.1094527 C-4.03793284e-15,45.1372289 26.7292687,18.4079602 59.7014925,18.4079602 L136.368642,18.4064259 C154.39244,6.81472057 176.423094,0 200.210945,0 Z" id="Cloud" fill="#2EA2DB"
              class="brand_element" opacity="0.1"></path>
        <circle id="Oval" stroke="#212A2F" stroke-width="2" fill="#F5F7F9" cx="201" cy="118" r="43"></circle>
        <circle id="Oval" stroke="#212A2F" stroke-width="2" fill="#A5B6C0" cx="201" cy="118" r="29"></circle>
        <circle id="Oval" stroke="#212A2F" stroke-width="2" fill="#3F545F" cx="201" cy="118" r="19"></circle>
        <path d="M210,117 C210,111.477153 205.522847,107 200,107" id="Path" stroke="#212A2F"></path>
        <path d="M148.997776,69.75 C143.136195,82.1296457 145.200361,98.110581 155.269101,117.72506 C156.782722,120.67368 157.111059,120.77698 157.875901,119.264646 C158.210654,118.602734 158.565714,117.676012 159.045952,116.246032 C159.24373,115.657116 160.20335,112.697732 160.498141,111.816731 C161.952569,107.470068 163.334776,104.039609 165.137243,100.655682 C172.025171,87.724377 182.935882,80.2665473 200.078431,80.2665473 C217.36709,80.2665473 228.575632,87.6564586 235.795751,100.429737 C237.806609,103.98719 239.316902,107.552295 240.940577,112.16684 C241.113642,112.658699 242.218923,115.872769 242.497591,116.638556 C242.990791,117.993884 243.363099,118.848289 243.701285,119.372744 C244.187846,120.127299 244.425287,120.00962 245.518877,117.741801 C254.978688,98.1246319 256.736399,82.1376353 250.864035,69.75 L148.997776,69.75 Z" id="Rectangle" stroke="#212A2F" stroke-width="1.5" fill="#D7DFE3"></path>
        <path d="M135,48 C155,41.3333333 176.666667,38 200,38 C223.333333,38 245,41.3333333 265,48 C265,68 261.666667,81.3333333 255,88 C225,68 175,68 145,88 C138.333333,81.3333333 135,68 135,48 Z" id="Path-5" stroke="#212A2F" stroke-width="2" fill="#E1E7EA" stroke-linejoin="round"></path>
        <path d="M139.5,79 C157.093361,68.3333333 177.508299,63 200.744813,63 C223.981328,63 243.56639,68.8333333 259.5,80.5 C259.16805,82.1666667 257.508299,84.6666667 254.520747,88 C224.645228,68 174.852697,68 144.977178,88 C142.985477,86.3333333 141.159751,83.3333333 139.5,79 Z" id="Path-5" stroke="#212A2F" stroke-width="2" fill="#2EA2DB"
              class="brand_element" stroke-linejoin="round"></path>
        <path d="M77.5,46 L138.25,46 L138.25,61.8476728 L93.55,61.8476728 L91.75,85.1706629 C96.8500255,81.2834784 103.099963,79.3399154 110.5,79.3399154 C115.600026,79.3399154 120.274979,80.1871095 124.525,81.8815233 C128.775021,83.575937 132.399985,86.0178496 135.4,89.2073343 C138.400015,92.396819 140.749991,96.2341102 142.45,100.719323 C144.150009,105.204536 145,110.188031 145,115.669958 C145,121.151884 144.150009,126.13538 142.45,130.620592 C140.749991,135.105805 138.275016,138.918179 135.025,142.057828 C131.774984,145.197477 127.825023,147.639389 123.175,149.383639 C118.524977,151.127888 113.300029,152 107.5,152 C102.699976,152 98.200021,151.377063 94,150.131171 C89.799979,148.885278 86.0750163,147.066303 82.825,144.674189 C79.5749838,142.282075 76.850011,139.366731 74.65,135.928068 C72.449989,132.489405 70.9000045,128.527526 70,124.042313 L88.9,124.042313 C90.4000075,127.730155 92.7749838,130.520912 96.025,132.414669 C99.2750162,134.308425 103.099978,135.255289 107.5,135.255289 C113.200029,135.255289 117.724983,133.560901 121.075,130.172073 C124.425017,126.783246 126.1,121.949256 126.1,115.669958 C126.1,109.39066 124.425017,104.55667 121.075,101.167842 C117.724983,97.7790146 113.200029,96.0846262 107.5,96.0846262 C103.599981,96.0846262 100.175015,96.8819854 97.225,98.4767278 C94.2749853,100.07147 92,102.064868 90.4,104.456982 L73,104.456982 L77.5,46 Z" id="5" stroke="#212A2F" stroke-width="2" fill="#F5F7F9" fill-rule="nonzero"></path>
        <path d="M292.5,46 C298.300029,46 303.524977,46.9103902 308.175,48.7311978 C312.825023,50.5520054 316.774984,53.4308067 320.025,57.367688 C323.275016,61.3045694 325.749991,66.3732281 327.45,72.5738162 C329.150009,78.7744043 330,86.3035769 330,95.1615599 L330,102.83844 C330,111.598001 329.125009,119.077963 327.375,125.278552 C325.624991,131.47914 323.125016,136.572403 319.875,140.558496 C316.624984,144.544588 312.700023,147.447995 308.1,149.268802 C303.499977,151.08961 298.300029,152 292.5,152 C286.699971,152 281.475023,151.08961 276.825,149.268802 C272.174977,147.447995 268.250016,144.569193 265.05,140.632312 C261.849984,136.695431 259.375009,131.626772 257.625,125.426184 C255.874991,119.225596 255,111.696423 255,102.83844 L255,95.1615599 C255,86.4019989 255.874991,78.9220366 257.625,72.7214485 C259.375009,66.5208604 261.874984,61.4275965 265.125,57.4415042 C268.375016,53.4554118 272.299977,50.5520054 276.9,48.7311978 C281.500023,46.9103902 286.699971,46 292.5,46 Z M292.5,62.5348189 C289.599986,62.5348189 287.000012,63.0269266 284.7,64.0111421 C282.399989,64.9953575 280.450008,66.7177221 278.85,69.178273 C277.249992,71.6388238 276.025004,74.9605176 275.175,79.143454 C274.324996,83.3263905 273.9,88.6657057 273.9,95.1615599 L273.9,95.1615599 L273.9,102.83844 C273.9,109.235872 274.324996,114.525977 275.175,118.708914 C276.025004,122.89185 277.274992,126.238149 278.925,128.747911 C280.575008,131.257673 282.524989,133.004638 284.775,133.988858 C287.025011,134.973078 289.599986,135.465181 292.5,135.465181 C295.400014,135.465181 297.999988,134.973078 300.3,133.988858 C302.600011,133.004638 304.549992,131.282278 306.15,128.821727 C307.750008,126.361176 308.974996,123.039482 309.825,118.856546 C310.675004,114.67361 311.1,109.334294 311.1,102.83844 L311.1,102.83844 L311.1,95.1615599 C311.1,88.7641277 310.650005,83.4740228 309.75,79.2910864 C308.849995,75.1081499 307.600008,71.761851 306,69.2520891 C304.4,66.7423273 302.450012,64.9953575 300.15,64.0111421 C297.849988,63.0269266 295.300014,62.5348189 292.5,62.5348189 Z" id="0" stroke="#212A2F" stroke-width="2" fill="#F5F7F9" fill-rule="nonzero"></path>
    </g>
</svg>
