<?xml version="1.0" encoding="UTF-8"?>
<svg version="1.1" viewBox="0 0 24 24" xmlns="http://www.w3.org/2000/svg">
<title>Devices/Bold/SystemAlert24</title>
<desc>Created with Sketch.</desc>
<g fill="none" fill-rule="evenodd">
<path d="m12.946 1.3817 9.6722 9.6722c0.52257 0.52257 0.52257 1.3698 0 1.8924l-9.6722 9.6722c-0.52257 0.52257-1.3698 0.52257-1.8924 0l-9.6722-9.6722c-0.52257-0.52257-0.52257-1.3698 0-1.8924l9.6722-9.6722c0.52257-0.52257 1.3698-0.52257 1.8924 0zm-1.7837 1.8299-0.10865 0.097546-7.7447 7.7447c-0.48773 0.48773-0.52024 1.2583-0.097546 1.7837l0.097546 0.10865 7.7447 7.7447c0.48773 0.48773 1.2583 0.52024 1.7837 0.097546l0.10865-0.097546 7.7447-7.7447c0.48773-0.48773 0.52024-1.2583 0.097546-1.7837l-0.097546-0.10865-7.7447-7.7447c-0.48773-0.48773-1.2583-0.52024-1.7837-0.097546zm1.7837 2.1924 5.6498 5.6498c0.52257 0.52257 0.52257 1.3698 0 1.8924l-5.6498 5.6498c-0.52257 0.52257-1.3698 0.52257-1.8924 0l-5.6498-5.6498c-0.52257-0.52257-0.52257-1.3698 0-1.8924l5.6498-5.6498c0.52257-0.52257 1.3698-0.52257 1.8924 0zm-0.14619 8.996h-1.6v1.6h1.6v-1.6zm0-6.4h-1.6v5h1.6v-5z" fill="#303F47"/>
</g>
</svg>
