<?xml version="1.0" encoding="UTF-8"?>
<svg version="1.1" viewBox="0 0 24 24" xmlns="http://www.w3.org/2000/svg">
<title>Devices/Bold/Camera24</title>
<desc>Created with Sketch.</desc>
<g fill="none" fill-rule="evenodd">
<path d="m20.75 4c0.6875 0 1.25 0.55385 1.25 1.2308v2.4615c0 0.67692-0.5625 1.2308-1.25 1.2308v2.4615c0 4.7495-3.9262 8.6154-8.75 8.6154-4.825 0-8.75-3.8658-8.75-8.6154v-2.4615c-0.6875 0-1.25-0.55385-1.25-1.2308v-2.4615c0-0.67692 0.5625-1.2308 1.25-1.2308zm-2.5 4.9231h-12.5v2.4615c0 3.3932 2.8038 6.1538 6.25 6.1538s6.25-2.7606 6.25-6.1538v-2.4615zm-6.25 3.0769c1.1046 0 2 0.89543 2 2s-0.89543 2-2 2-2-0.89543-2-2 0.89543-2 2-2z" fill="#303F47" fill-rule="nonzero"/>
</g>
</svg>
