<?xml version="1.0" encoding="UTF-8"?>
<svg version="1.1" viewBox="0 0 20 20" xmlns="http://www.w3.org/2000/svg">
<title>Actions/Thin/Download</title>
<desc>Created with Sketch.</desc>
<g fill="none" fill-rule="evenodd">
<g transform="translate(2.5263 3)" fill="#fff">
<path d="m0.47369 8v3.3283c0 0.92327 0.72323 1.6717 1.6154 1.6717h10.769c0.89215 0 1.6154-0.74846 1.6154-1.6717v-3.3283h-1.0769v3.3283c0 0.30776-0.24108 0.55724-0.53846 0.55724h-10.769c-0.29738 0-0.53846-0.24949-0.53846-0.55724v-3.3283h-1.0769z" fill-rule="nonzero"/>
<path d="m7.9737 0v7.793l2.1464-2.1466c0.17357-0.17357 0.44299-0.19285 0.63786-0.057855l0.069248 0.057855c0.17357 0.17357 0.19285 0.44299 0.057856 0.63786l-0.057856 0.069248-3 3c-0.065087 0.065087-0.14365 0.10848-0.22672 0.13017l-0.084226 0.014464h-0.085224c-0.085058-0.0072319-0.16862-0.03616-0.24169-0.086783l-0.069248-0.057855-3-3c-0.19526-0.19526-0.19526-0.51184 0-0.70711 0.17357-0.17357 0.44299-0.19285 0.63786-0.057855l0.069248 0.057855 2.1464 2.1466v-7.793h1z"/>
</g>
</g>
</svg>
