<?xml version="1.0" encoding="UTF-8"?>
<svg width="400px" height="200px" viewBox="0 0 400 200" version="1.1" xmlns="http://www.w3.org/2000/svg" xmlns:xlink="http://www.w3.org/1999/xlink">
    <!-- Generator: Sketch 61.2 (89653) - https://sketch.com -->
    <title>Cloud/Placeholders/Maintenance</title>
    <desc>Created with Sketch.</desc>
    <g id="Cloud/Placeholders/Maintenance" stroke="none" stroke-width="1" fill="none" fill-rule="evenodd">
        <path d="M200.210945,0 C223.998796,0 246.029451,6.81472057 264.053249,18.4064259 L340.298507,18.4079602 C373.270731,18.4079602 400,45.1372289 400,78.1094527 C400,105.592218 381.43002,128.737731 356.153219,135.682834 C343.894564,159.839143 316.90112,176.616915 285.572139,176.616915 C281.10045,176.616915 276.717087,176.275105 272.452289,175.618815 C253.092881,190.808798 227.836903,200 200.210945,200 C172.629834,200 147.411015,190.838615 128.061088,175.692115 C123.948832,176.300277 119.72677,176.616915 115.422886,176.616915 C84.225182,176.616915 57.3267576,159.979456 44.995953,135.985537 C19.1352066,129.435956 3.41650556e-15,106.007338 0,78.1094527 C-4.03793284e-15,45.1372289 26.7292687,18.4079602 59.7014925,18.4079602 L136.368642,18.4064259 C154.39244,6.81472057 176.423094,0 200.210945,0 Z" id="Combined-Shape" fill="#2EA2DB"
              class="brand_element" opacity="0.1"></path>
        <circle id="Oval" stroke="#212A2F" stroke-width="2" fill="#EAF5FB" cx="171" cy="57.5" r="4"></circle>
        <path d="M192.368201,51.3127465 L140.847179,103.408986 L129.594074,92.0138168 L188.921892,32.0236207 C189.296921,31.6444043 189.807881,31.4306873 190.341221,31.4299636 C191.445789,31.4284648 192.342434,32.3226795 192.343933,33.427248 L192.368201,51.3127465 Z" id="Path-3" stroke="#212A2F" stroke-width="2" fill="#FFFFFF"></path>
        <rect id="Rectangle-2" stroke="#212A2F" stroke-width="2" fill="#F5F7F9" transform="translate(116.825385, 39.898102) rotate(-15.000000) translate(-116.825385, -39.898102) " x="92.3253853" y="30.8981023" width="49" height="18" rx="2"></rect>
        <path d="M87.0847279,26.8619674 L141.004103,26.8619674 L141.004103,43.8619674 L98.4459776,43.8619674 C97.2308427,43.8619674 96.0815911,43.3096086 95.3225024,42.3607476 L85.5229903,30.1113575 C84.8329712,29.2488337 84.9728139,27.9902489 85.8353378,27.3002298 C86.1899639,27.0165289 86.6305849,26.8619674 87.0847279,26.8619674 Z" id="Rectangle" stroke="#212A2F" stroke-width="2" fill="#E1E7EA" transform="translate(112.504103, 35.361967) rotate(-15.000000) translate(-112.504103, -35.361967) "></path>
        <rect id="Rectangle" stroke="#212A2F" stroke-width="2" fill="#E1E7EA" x="120.863666" y="56.7740163" width="33" height="9"></rect>
        <rect id="Rectangle" stroke="#212A2F" stroke-width="2" fill="#F5F7F9" x="118.863666" y="35.7740163" width="10" height="34" rx="4.5"></rect>
        <path d="M157.863666,49.7740163 L157.863666,72.7740163 L156.863666,72.7740163 C152.997673,72.7740163 149.863666,69.6400096 149.863666,65.7740163 L149.863666,56.7740163 C149.863666,52.9080231 152.997673,49.7740163 156.863666,49.7740163 L157.863666,49.7740163 Z" id="Rectangle" stroke="#212A2F" stroke-width="2" fill="#A5B6C0" transform="translate(153.863666, 61.274016) rotate(-315.000000) translate(-153.863666, -61.274016) "></path>
        <circle id="Oval" fill="#212A2F" cx="123.863666" cy="61.7740163" r="2"></circle>
        <path d="M138.5,133.5 L75.5,133.5 L75.5,136.5 L138.5,136.5 L138.5,133.5 Z M138.5,119.5 L75.5,119.5 L75.5,122.5 L138.5,122.5 L138.5,119.5 Z" id="Combined-Shape" stroke="#212A2F" fill="#A5B6C0"></path>
        <path d="M135,108.585786 L139,112.585786 L139,142 C139,143.104569 138.104569,144 137,144 L133,144 C131.895431,144 131,143.104569 131,142 L131,112.585786 L135,108.585786 Z M121,108.585786 L125,112.585786 L125,142 C125,143.104569 124.104569,144 123,144 L119,144 C117.895431,144 117,143.104569 117,142 L117,112.585786 L121,108.585786 Z M107,108.585786 L111,112.585786 L111,142 C111,143.104569 110.104569,144 109,144 L105,144 C103.895431,144 103,143.104569 103,142 L103,112.585786 L107,108.585786 Z M93,108.585786 L97,112.585786 L97,142 C97,143.104569 96.1045695,144 95,144 L91,144 C89.8954305,144 89,143.104569 89,142 L89,112.585786 L93,108.585786 Z M79,108.585786 L83,112.585786 L83,142 C83,143.104569 82.1045695,144 81,144 L77,144 C75.8954305,144 75,143.104569 75,142 L75,112.585786 L79,108.585786 Z" id="Combined-Shape" stroke="#212A2F" stroke-width="2" fill="#E1E7EA"></path>
        <path d="M193.336336,50.522737 L204.567119,46.5117433 C205.087228,46.3259898 205.358278,45.7537747 205.172524,45.233665 C205.126634,45.1051722 205.054934,44.9874295 204.961838,44.8876831 L193.731055,32.8547021 C193.354221,32.4509514 192.721432,32.4291311 192.317682,32.8059651 C192.115047,32.9950911 192,33.2598387 192,33.5370203 L192,49.5809951 C192,50.1332798 192.447715,50.5809951 193,50.5809951 C193.114622,50.5809951 193.228392,50.5612887 193.336336,50.522737 Z" id="Path-24" stroke="#212A2F" stroke-width="2" fill="#A5B6C0"></path>
        <path d="M195.394615,30 L280,30 L280,46 L206.421477,46 L193.972251,33.4060154 C193.19573,32.6204652 193.20305,31.3541564 193.9886,30.5776356 C194.362986,30.2075525 194.868187,30 195.394615,30 Z" id="Rectangle" stroke="#212A2F" stroke-width="2" fill="#FFFFFF"></path>
        <rect id="Rectangle" stroke="#212A2F" stroke-width="2" fill="#E1E7EA" x="243" y="123" width="82" height="21" rx="10.5"></rect>
        <rect id="Rectangle" stroke="#212A2F" stroke-width="2" fill="#455A67" x="254" y="113" width="61" height="10"></rect>
        <path d="M290,97.1186441 L322,97.1186441 C323.104569,97.1186441 324,98.0140746 324,99.1186441 L324,111.118644 C324,112.223214 323.104569,113.118644 322,113.118644 L290,113.118644 L290,97.1186441 Z" id="Rectangle" stroke="#212A2F" stroke-width="2" fill="#FFFFFF"></path>
        <path d="M258,113 L291,113 L291,75 L275.824488,75 C275.569446,75 275.324041,75.0974483 275.138475,75.2724106 L258.313987,91.1354994 C258.113594,91.3244414 258,91.5876683 258,91.8630888 L258,113 Z" id="Rectangle" stroke="#212A2F" stroke-width="2" fill="#FFFFFF"></path>
        <circle id="Oval" stroke="#212A2F" stroke-width="2" fill="#A5B6C0" cx="264" cy="134" r="5"></circle>
        <circle id="Oval" stroke="#212A2F" stroke-width="2" fill="#A5B6C0" cx="284" cy="134" r="5"></circle>
        <circle id="Oval" stroke="#212A2F" stroke-width="2" fill="#A5B6C0" cx="304" cy="134" r="5"></circle>
        <polygon id="Path-25" stroke="#212A2F" stroke-width="2" fill="#A5B6C0" points="262 87 251 67 255 59 269 81"></polygon>
        <path d="M268.707107,91.2928932 L278,82 L278,82 L286,82 L286,93 L269.414214,93 C268.861929,93 268.414214,92.5522847 268.414214,92 C268.414214,91.7347835 268.51957,91.4804296 268.707107,91.2928932 Z" id="Path-26" stroke="#212A2F" stroke-width="2" fill="#E1E7EA"></path>
        <rect id="Rectangle" stroke="#212A2F" stroke-width="2" fill="#E1E7EA" transform="translate(234.000000, 76.000000) rotate(-39.000000) translate(-234.000000, -76.000000) " x="206" y="71" width="56" height="10" rx="4.5"></rect>
        <circle id="Oval" stroke="#212A2F" stroke-width="2" fill="#A5B6C0" cx="251.5" cy="61.5" r="1.5"></circle>
        <rect id="Rectangle" stroke="#212A2F" stroke-width="2" fill="#2EA2DB" class="brand_element" x="291" y="101" width="33" height="6"></rect>
        <path d="M192,65.6195175 L236,107.494294 L236,141.8 C236,143.015026 235.015026,144 233.8,144 L150.2,144 C148.984974,144 148,143.015026 148,141.8 L148,107.494294 L192,65.6195175 Z" id="Home" stroke="#212A2F" stroke-width="2" fill="#FFFFFF"></path>
        <circle id="Oval" stroke="#212A2F" stroke-width="2" fill="#F5F7F9" cx="191" cy="141" r="37"></circle>
        <path d="M191,122 L208.076293,138.997193 L203.157648,144 L193.999355,134.925 L194,160 L188,160 L187.999355,135 L179,144 L174.081355,138.997193 L186.011355,127.011 L186,127 L191,122 Z" id="Combined-Shape" fill="#212A2F"></path>
    </g>
</svg>
