<?xml version="1.0" encoding="UTF-8"?>
<svg width="20px" height="20px" viewBox="0 0 20 20" version="1.1" xmlns="http://www.w3.org/2000/svg" xmlns:xlink="http://www.w3.org/1999/xlink">
    <!-- Generator: Sketch 59.1 (86144) - https://sketch.com -->
    <title>Devices/Bold/Network Copy</title>
    <desc>Created with Sketch.</desc>
    <g id="Devices/Bold/Network-Copy" stroke="none" stroke-width="1" fill="none" fill-rule="evenodd">
        <path d="M15,3 C16.1045695,3 17,3.8954305 17,5 L17,15 C17,16.1045695 16.1045695,17 15,17 L5,17 C3.8954305,17 3,16.1045695 3,15 L3,5 C3,3.8954305 3.8954305,3 5,3 L15,3 Z M7,5 L6,5 C5.48716416,5 5.06449284,5.38604019 5.00672773,5.88337887 L5,6 L5,13 C5,13.5128358 5.38604019,13.9355072 5.88337887,13.9932723 L6,14 L8,14 L8,15 L12,15 L12,14 L14,14 C14.5128358,14 14.9355072,13.6139598 14.9932723,13.1166211 L15,13 L15,6 C15,5.44771525 14.5522847,5 14,5 L13,5 L13,7 L12,7 L12,5 L10.5,5 L10.5,7 L9.5,7 L9.5,5 L8,5 L8,7 L7,7 L7,5 Z" id="Combined-Shape" fill="#303F47"></path>
    </g>
</svg>