<?xml version="1.0" encoding="UTF-8"?>
<svg version="1.1" viewBox="0 0 24 24" xmlns="http://www.w3.org/2000/svg">
<title>Devices/Bold/Network24</title>
<desc>Created with Sketch.</desc>
<g fill="none" fill-rule="evenodd">
<path d="m12 21c-0.024735 0-0.049446-9.94e-5 -0.074134-2.979e-4 0.24338 0.0085243 0.48996-0.073378 0.68673-0.24942 0.086944-0.077784 0.15715-0.16767 0.2106-0.26513 2.0332-2.2057 3.0843-4.7147 3.127-7.485l5.0101 5.873e-4c-0.49861 4.4996-4.32 7.9993-8.9603 7.9993zm-0.9441-0.53318c0.046158 0.089314 0.10645 0.17295 0.18085 0.24743 0.19062 0.19083 0.43817 0.2859 0.68555 0.28502-4.6067-0.040162-8.3867-3.5251-8.8825-7.9983l4.9332-8.95e-5c0.19779 2.7607 1.2303 5.2586 3.0829 7.4659zm0.92388-2.0362c-1.1896-1.6496-1.8635-3.4538-2.0305-5.4295l4.0426-1.9e-5c-0.037584 1.975-0.70185 3.7756-2.0121 5.4295zm9.0356-6.4306c0 0.24765-0.010019 0.49296-0.029676 0.73555v-1.4711c0.019656 0.24259 0.029676 0.4879 0.029676 0.73555zm-9.1197-8.999 0.01614-9.5286e-4c-0.20701 0.0020492-0.41506 0.070921-0.59105 0.21083-0.075662 0.060151-0.14032 0.12939-0.19364 0.20504l-0.071445 0.11794 0.076993-0.090857-0.16867 0.20288c-1.791 2.1857-2.792 4.6456-2.9897 7.3541l-4.9347 3.328e-4c0.48861-4.4139 4.1746-7.8658 8.6946-7.9965l0.16144-0.0028371zm-0.08343 2.8129 0.084922-0.12112c1.0151 1.618 1.6634 3.3843 1.9477 5.3072l-3.894-2.968e-4c0.15022-1.7452 0.69601-3.3594 1.6433-4.8542l0.21807-0.3316 0.084922-0.12112zm0.15044-2.8139h0.037369c4.6406 0 8.4622 3.5002 8.9604 8.0003l-5.1381 3.488e-4c-0.34584-2.667-1.3012-5.0902-2.8612-7.255l-0.23751-0.32062 0.15218 0.20282c-0.041853-0.10622-0.10219-0.20631-0.18068-0.29505l-0.084527-0.084749c-0.15736-0.14001-0.34626-0.22002-0.53956-0.24184l-0.10842-0.0061818h0.03738zm-1.1e-5 0-0.067 1e-3 0.01614-9.5286e-4 0.05086-4.714e-5z" fill="#303F47"/>
</g>
</svg>
