<?xml version="1.0" encoding="UTF-8"?>
<svg width="400px" height="200px" viewBox="0 0 400 200" version="1.1" xmlns="http://www.w3.org/2000/svg" xmlns:xlink="http://www.w3.org/1999/xlink">
    <!-- Generator: Sketch 61.2 (89653) - https://sketch.com -->
    <title>Cloud/Placeholders/NewVersion</title>
    <desc>Created with Sketch.</desc>
    <g id="Cloud/Placeholders/NewVersion" stroke="none" stroke-width="1" fill="none" fill-rule="evenodd">
        <path d="M200.210945,0 C223.998796,0 246.029451,6.81472057 264.053249,18.4064259 L340.298507,18.4079602 C373.270731,18.4079602 400,45.1372289 400,78.1094527 C400,105.592218 381.43002,128.737731 356.153219,135.682834 C343.894564,159.839143 316.90112,176.616915 285.572139,176.616915 C281.10045,176.616915 276.717087,176.275105 272.452289,175.618815 C253.092881,190.808798 227.836903,200 200.210945,200 C172.629834,200 147.411015,190.838615 128.061088,175.692115 C123.948832,176.300277 119.72677,176.616915 115.422886,176.616915 C84.225182,176.616915 57.3267576,159.979456 44.995953,135.985537 C19.1352066,129.435956 3.41650556e-15,106.007338 0,78.1094527 C-4.03793284e-15,45.1372289 26.7292687,18.4079602 59.7014925,18.4079602 L136.368642,18.4064259 C154.39244,6.81472057 176.423094,0 200.210945,0 Z" id="Combined-Shape" fill="#2EA2DB"
              class="brand_element" opacity="0.1"></path>
        <path d="M175.8,122.946599 C177.015026,122.946599 178,123.931572 178,125.146599 L178,147.746599 C178,148.961625 177.015026,149.946599 175.8,149.946599 L78.2,149.946599 C76.9849736,149.946599 76,148.961625 76,147.746599 L76,125.146599 C76,123.931572 76.9849736,122.946599 78.2,122.946599 L175.8,122.946599 Z M175.8,85.9465988 C177.015026,85.9465988 178,86.9315724 178,88.1465988 L178,110.746599 C178,111.961625 177.015026,112.946599 175.8,112.946599 L78.2,112.946599 C76.9849736,112.946599 76,111.961625 76,110.746599 L76,88.1465988 C76,86.9315724 76.9849736,85.9465988 78.2,85.9465988 L175.8,85.9465988 Z M87,95.4465988 C84.790861,95.4465988 83,97.2374598 83,99.4465988 C83,101.655738 84.790861,103.446599 87,103.446599 C89.209139,103.446599 91,101.655738 91,99.4465988 C91,97.2374598 89.209139,95.4465988 87,95.4465988 Z M175.8,49.9465988 C177.015026,49.9465988 178,50.9315724 178,52.1465988 L178,74.7465988 C178,75.9616253 177.015026,76.9465988 175.8,76.9465988 L78.2,76.9465988 C76.9849736,76.9465988 76,75.9616253 76,74.7465988 L76,52.1465988 C76,50.9315724 76.9849736,49.9465988 78.2,49.9465988 L175.8,49.9465988 Z M87,59.4465988 C84.790861,59.4465988 83,61.2374598 83,63.4465988 C83,65.6557378 84.790861,67.4465988 87,67.4465988 C89.209139,67.4465988 91,65.6557378 91,63.4465988 C91,61.2374598 89.209139,59.4465988 87,59.4465988 Z" id="Server" stroke="#212A2F" stroke-width="2" fill="#E1E7EA"></path>
        <path d="M295.8,122.946599 C297.015026,122.946599 298,123.931572 298,125.146599 L298,147.746599 C298,148.961625 297.015026,149.946599 295.8,149.946599 L198.2,149.946599 C196.984974,149.946599 196,148.961625 196,147.746599 L196,125.146599 C196,123.931572 196.984974,122.946599 198.2,122.946599 L295.8,122.946599 Z M207,132.446599 C204.790861,132.446599 203,134.23746 203,136.446599 C203,138.655738 204.790861,140.446599 207,140.446599 C209.209139,140.446599 211,138.655738 211,136.446599 C211,134.23746 209.209139,132.446599 207,132.446599 Z M295.8,85.9465988 C297.015026,85.9465988 298,86.9315724 298,88.1465988 L298,110.746599 C298,111.961625 297.015026,112.946599 295.8,112.946599 L198.2,112.946599 C196.984974,112.946599 196,111.961625 196,110.746599 L196,88.1465988 C196,86.9315724 196.984974,85.9465988 198.2,85.9465988 L295.8,85.9465988 Z M207,95.4465988 C204.790861,95.4465988 203,97.2374598 203,99.4465988 C203,101.655738 204.790861,103.446599 207,103.446599 C209.209139,103.446599 211,101.655738 211,99.4465988 C211,97.2374598 209.209139,95.4465988 207,95.4465988 Z M295.8,49.9465988 C297.015026,49.9465988 298,50.9315724 298,52.1465988 L298,74.7465988 C298,75.9616253 297.015026,76.9465988 295.8,76.9465988 L198.2,76.9465988 C196.984974,76.9465988 196,75.9616253 196,74.7465988 L196,52.1465988 C196,50.9315724 196.984974,49.9465988 198.2,49.9465988 L295.8,49.9465988 Z M207,59.4465988 C204.790861,59.4465988 203,61.2374598 203,63.4465988 C203,65.6557378 204.790861,67.4465988 207,67.4465988 C209.209139,67.4465988 211,65.6557378 211,63.4465988 C211,61.2374598 209.209139,59.4465988 207,59.4465988 Z" id="Server" stroke="#212A2F" stroke-width="2" fill="#F5F7F9"></path>
        <path d="M128.010104,75.9415726 L128.270161,75.9396042 C133.785203,75.878475 137.850024,75.4969268 144.062809,74.6230142 C144.423885,74.5722239 145.915774,74.3606744 146.29974,74.3067134 C147.15922,74.1859258 147.845984,74.0919689 148.509073,74.0053519 C158.427926,72.7096858 166.102483,73.020953 179.21942,75.9709684 L180,76.1465217 L180,76.9465988 C180,80.9416296 180.158309,84.3533273 180.564608,90.6185634 C181.52374,105.408646 181.419398,110.692541 179.183701,117.168186 L179.130351,117.322714 L179.030568,117.452209 C176.883821,120.238193 173.63161,119.247711 169.17666,115.778193 C168.407559,115.179217 167.607967,114.513108 166.659663,113.690496 C166.133674,113.234224 164.400599,111.704764 164.117242,111.457713 C163.201991,110.659732 162.545012,110.114676 161.981713,109.695851 C161.789875,109.553214 161.612568,109.428493 161.450609,109.321775 C165.372988,119.958147 167.508769,140.176952 164.523328,147.414175 C164.066137,148.522485 163.194027,149.075885 162.134155,148.819654 C161.403116,148.64292 160.672301,148.099308 159.826274,147.208379 C158.660816,145.981065 157.969426,145.039059 155.046837,140.866582 C154.762299,140.460356 154.530324,140.130651 154.307631,139.816435 C152.56776,137.361502 151.365919,135.833782 150.30558,134.814262 C149.581646,134.118197 149.071153,133.792319 148.736822,133.723435 C148.651883,145.475661 146.445444,155.644443 142.054494,157.646933 C140.916066,158.166112 140.001569,157.569213 139.413902,156.403536 C139.078687,155.738614 138.856478,155.019819 138.455307,153.480931 C138.417316,153.335076 138.417316,153.335076 138.379466,153.189756 C138.045658,151.909178 137.833642,151.201652 137.603982,150.692167 C136.551701,156.159644 130.434371,164.060898 127.50051,163.944031 C124.568035,164.064442 118.448538,156.160582 117.396026,150.69215 C117.166363,151.201635 116.954346,151.909163 116.620534,153.189756 C116.582684,153.335076 116.582684,153.335076 116.544693,153.480931 C116.143522,155.019819 115.921313,155.738614 115.586098,156.403536 C114.998431,157.569213 114.083934,158.166112 112.945506,157.646933 C108.554556,155.644443 106.348117,145.475661 106.263178,133.723435 C105.928847,133.792319 105.418354,134.118197 104.69442,134.814262 C103.634081,135.833782 102.43224,137.361502 100.692369,139.816435 C100.469676,140.130651 100.237701,140.460356 99.9531626,140.866582 C97.0305742,145.039059 96.3391843,145.981065 95.1737262,147.208379 C94.3276995,148.099308 93.5968839,148.64292 92.865845,148.819654 C91.8059732,149.075885 90.9338629,148.522485 90.4766719,147.414175 C87.4912313,140.176952 89.6270115,119.958147 93.5493911,109.321775 C93.3874316,109.428493 93.2101254,109.553214 93.0182866,109.695851 C92.4549885,110.114676 91.7980094,110.659732 90.8827582,111.457713 C90.5994013,111.704764 88.866326,113.234224 88.3403366,113.690496 C87.3920328,114.513108 86.5924413,115.179217 85.8233401,115.778193 C81.3683904,119.247711 78.1161792,120.238193 75.9694316,117.452209 L75.8774784,117.332875 L75.8247644,117.191746 C73.1108751,109.925987 72.7473668,103.681236 73.1611183,86.9822866 C73.2779305,82.2677659 73.3216231,79.8377729 73.3216231,76.9465988 L73.3216231,75.9465988 L74.3216231,75.9465988 C77.0064654,75.9465988 78.3481583,75.7041566 80.2227336,75.0460588 C80.1619514,75.0673973 81.0397505,74.7557373 81.2998628,74.6669171 C87.3366947,72.6055295 97.9405557,72.6033649 128.010104,75.9415726 Z" id="Combined-Shape" stroke="#212A2F" stroke-width="2" fill="#A5B6C0"></path>
        <circle id="Oval" stroke="#212A2F" stroke-width="2" fill="#EAF5FB" cx="167" cy="63.4465988" r="4"></circle>
        <rect id="Rectangle" stroke="#212A2F" stroke-width="2" fill="#E1E7EA" x="112" y="87.9465988" width="31" height="5"></rect>
        <rect id="Rectangle" stroke="#212A2F" stroke-width="2" fill="#E1E7EA" x="216" y="49.9465988" width="28" height="100"></rect>
        <rect id="Rectangle" stroke="#212A2F" stroke-width="2" fill="#E1E7EA" x="252" y="49.9465988" width="28" height="100"></rect>
        <path d="M195,16.9465988 C203.436145,16.9465988 211.483416,18.9064437 218.206817,22.4994445 L218.206817,22.4994445 L217.264172,24.2633668 C210.83484,20.8275168 203.111648,18.9465988 195,18.9465988 C180.69025,18.9465988 167.847997,24.839728 161.352168,33.9374916 L166.741001,35.5610423 L156,46.9465988 L153.336155,31.5224641 L159.338009,33.3304071 C166.106812,23.3573611 179.792941,16.9465988 195,16.9465988 Z" id="Path" fill="#212A2F" fill-rule="nonzero" transform="translate(185.771486, 31.946599) rotate(15.000000) translate(-185.771486, -31.946599) "></path>
        <path d="M196,151.946599 C204.436145,151.946599 212.483416,153.906444 219.206817,157.499444 L219.206817,157.499444 L218.264172,159.263367 C211.83484,155.827517 204.111648,153.946599 196,153.946599 C181.69025,153.946599 168.847997,159.839728 162.352168,168.937492 L167.741001,170.561042 L157,181.946599 L154.336155,166.522464 L160.338009,168.330407 C167.106812,158.357361 180.792941,151.946599 196,151.946599 Z" id="Path" fill="#212A2F" fill-rule="nonzero" transform="translate(186.771486, 166.946599) scale(-1, -1) rotate(15.000000) translate(-186.771486, -166.946599) "></path>
        <path d="M304.005943,27.4066002 L310.875,34.6009274 L320.539999,36.9525417 L313.345671,43.8215988 L310.994057,53.4865975 L304.125,46.2922703 L294.460001,43.9406559 L301.654329,37.0715988 L304.005943,27.4066002 Z M305.084712,31.4326206 L303.459144,38.1136096 L298.486022,42.861887 L305.167011,44.4874547 L309.915288,49.460577 L311.540856,42.7795881 L316.513978,38.0313106 L309.832989,36.4057429 L305.084712,31.4326206 Z M285.188267,28.185118 L288.75,31.9155099 L293.761481,33.1348655 L290.031089,36.6965988 L288.811733,41.7080796 L285.25,37.9776877 L280.238519,36.7583321 L283.968911,33.1965988 L285.188267,28.185118 Z M286.267036,32.2111385 L285.773727,34.2386096 L284.26454,35.6795632 L286.292011,36.1728722 L287.732964,37.6820592 L288.226273,35.6545881 L289.73546,34.2136344 L287.707989,33.7203255 L286.267036,32.2111385 Z" id="Combined-Shape" fill="#212A2F" fill-rule="nonzero"></path>
        <path d="M213.840898,122.975896 L215.478898,122.975896 L215.640898,123.983896 C216.312902,123.203892 217.242892,122.813896 218.430898,122.813896 C219.534904,122.813896 220.395895,123.140892 221.013898,123.794896 C221.631902,124.448899 221.940898,125.435889 221.940898,126.755896 L221.940898,131.975896 L219.852898,131.975896 L219.852898,126.755896 C219.852898,126.095892 219.6939,125.597897 219.375898,125.261896 C219.057897,124.925894 218.622901,124.757896 218.070898,124.757896 C217.422895,124.757896 216.9099,124.931894 216.531898,125.279896 C216.153897,125.627897 215.952899,126.089893 215.928898,126.665896 L215.928898,131.975896 L213.840898,131.975896 L213.840898,122.975896 Z M228.180898,132.137896 C227.532895,132.137896 226.950898,132.038897 226.434898,131.840896 C225.918896,131.642895 225.4749,131.354898 225.102898,130.976896 C224.730897,130.598894 224.445899,130.139898 224.247898,129.599896 C224.049897,129.059893 223.950898,128.447899 223.950898,127.763896 L223.950898,127.187896 C223.950898,126.503892 224.049897,125.891898 224.247898,125.351896 C224.445899,124.811893 224.730897,124.352898 225.102898,123.974896 C225.4749,123.596894 225.918896,123.308897 226.434898,123.110896 C226.950898,122.912895 227.532895,122.813896 228.180898,122.813896 C229.488905,122.813896 230.520895,123.215892 231.276898,124.019896 C232.032902,124.8239 232.410898,125.975888 232.410898,127.475896 L232.410898,128.177896 L226.038898,128.177896 C226.098899,128.933899 226.308897,129.476894 226.668898,129.806896 C227.0289,130.136897 227.532895,130.301896 228.180898,130.301896 C228.816902,130.301896 229.281897,130.190897 229.575898,129.968896 C229.8699,129.746895 230.064898,129.485897 230.160898,129.185896 L232.320898,129.185896 C232.224898,129.605898 232.074899,129.995894 231.870898,130.355896 C231.666897,130.715898 231.3969,131.027894 231.060898,131.291896 C230.724897,131.555897 230.316901,131.762895 229.836898,131.912896 C229.356896,132.062896 228.804902,132.137896 228.180898,132.137896 Z M228.180898,124.649896 C227.568895,124.649896 227.0889,124.799894 226.740898,125.099896 C226.392897,125.399897 226.170899,125.873892 226.074898,126.521896 L230.286898,126.521896 C230.202898,125.849892 229.9839,125.369897 229.629898,125.081896 C229.275897,124.793894 228.792901,124.649896 228.180898,124.649896 Z M240.054898,125.405896 L238.470898,131.975896 L235.950898,131.975896 L233.430898,122.975896 L235.590898,122.975896 L237.264898,129.473896 L238.848898,122.975896 L241.368898,122.975896 L243.150898,129.401896 L244.698898,122.975896 L246.750898,122.975896 L244.410898,131.975896 L241.890898,131.975896 L240.054898,125.405896 Z" id="new" fill="#212A2F" fill-rule="nonzero" transform="translate(230.295898, 127.475896) rotate(-90.000000) translate(-230.295898, -127.475896) "></path>
        <path d="M235.09,110.946599 L237.358,110.946599 L239.698,117.678599 L241.93,110.946599 L244.09,110.946599 L240.94,119.946599 L238.42,119.946599 L235.09,110.946599 Z M248.98,120.108599 C248.331997,120.108599 247.75,120.0096 247.234,119.811599 C246.717997,119.613598 246.274002,119.325601 245.902,118.947599 C245.529998,118.569597 245.245001,118.110602 245.047,117.570599 C244.848999,117.030596 244.75,116.418602 244.75,115.734599 L244.75,115.158599 C244.75,114.474595 244.848999,113.862602 245.047,113.322599 C245.245001,112.782596 245.529998,112.323601 245.902,111.945599 C246.274002,111.567597 246.717997,111.2796 247.234,111.081599 C247.75,110.883598 248.331997,110.784599 248.98,110.784599 C250.288007,110.784599 251.319996,111.186595 252.076,111.990599 C252.832004,112.794603 253.21,113.946591 253.21,115.446599 L253.21,116.148599 L246.838,116.148599 C246.898,116.904603 247.107998,117.447597 247.468,117.777599 C247.828002,118.1076 248.331997,118.272599 248.98,118.272599 C249.616003,118.272599 250.080999,118.1616 250.375,117.939599 C250.669001,117.717598 250.864,117.4566 250.96,117.156599 L253.12,117.156599 C253.024,117.576601 252.874001,117.966597 252.67,118.326599 C252.465999,118.686601 252.196002,118.998598 251.86,119.262599 C251.523998,119.5266 251.116002,119.733598 250.636,119.883599 C250.155998,120.0336 249.604003,120.108599 248.98,120.108599 Z M248.98,112.620599 C248.367997,112.620599 247.888002,112.770597 247.54,113.070599 C247.191998,113.3706 246.97,113.844596 246.874,114.492599 L251.086,114.492599 C251.002,113.820595 250.783002,113.3406 250.429,113.052599 C250.074998,112.764597 249.592003,112.620599 248.98,112.620599 Z M255.31,110.946599 L256.948,110.946599 L257.11,111.954599 C257.422002,111.570597 257.808998,111.2796 258.271,111.081599 C258.733002,110.883598 259.245997,110.784599 259.81,110.784599 L260.71,110.784599 L260.71,112.728599 L259.81,112.728599 C258.981996,112.728599 258.373002,112.908597 257.983,113.268599 C257.592998,113.628601 257.398,114.114596 257.398,114.726599 L257.398,119.946599 L255.31,119.946599 L255.31,110.946599 Z M265.51,120.108599 C264.273994,120.108599 263.359003,119.835602 262.765,119.289599 C262.170997,118.743596 261.826,117.972604 261.73,116.976599 L263.926,116.976599 C264.022,117.492601 264.180999,117.855598 264.403,118.065599 C264.625001,118.2756 264.993997,118.380599 265.51,118.380599 C266.122003,118.380599 266.538999,118.2936 266.761,118.119599 C266.983001,117.945598 267.094,117.7146 267.094,117.426599 C267.094,117.102597 266.965001,116.8566 266.707,116.688599 C266.448999,116.520598 266.128002,116.385599 265.744,116.283599 C265.359998,116.181598 264.946002,116.085599 264.502,115.995599 C264.057998,115.905598 263.644002,115.7676 263.26,115.581599 C262.875998,115.395598 262.555001,115.1376 262.297,114.807599 C262.038999,114.477597 261.91,114.018602 261.91,113.430599 C261.91,113.058597 261.981999,112.7106 262.126,112.386599 C262.270001,112.062597 262.491999,111.7836 262.792,111.549599 C263.092001,111.315598 263.466998,111.1296 263.917,110.991599 C264.367002,110.853598 264.897997,110.784599 265.51,110.784599 C266.662006,110.784599 267.525997,111.051596 268.102,111.585599 C268.678003,112.119601 269.014,112.866594 269.11,113.826599 L266.914,113.826599 C266.818,113.334596 266.671001,112.9926 266.473,112.800599 C266.274999,112.608598 265.954002,112.512599 265.51,112.512599 C264.993997,112.512599 264.631001,112.596598 264.421,112.764599 C264.210999,112.9326 264.106,113.136598 264.106,113.376599 C264.106,113.6766 264.234999,113.895598 264.493,114.033599 C264.751001,114.1716 265.071998,114.285598 265.456,114.375599 C265.840002,114.465599 266.253998,114.555598 266.698,114.645599 C267.142002,114.735599 267.555998,114.879598 267.94,115.077599 C268.324002,115.2756 268.644999,115.554597 268.903,115.914599 C269.161001,116.274601 269.29,116.760596 269.29,117.372599 C269.29,117.768601 269.215001,118.134597 269.065,118.470599 C268.914999,118.806601 268.687002,119.094598 268.381,119.334599 C268.074998,119.5746 267.685002,119.763598 267.211,119.901599 C266.736998,120.0396 266.170003,120.108599 265.51,120.108599 Z M271.48,110.946599 L273.568,110.946599 L273.568,119.946599 L271.48,119.946599 L271.48,110.946599 Z M272.524,109.866599 C272.139998,109.866599 271.819001,109.7376 271.561,109.479599 C271.302999,109.221598 271.174,108.900601 271.174,108.516599 C271.174,108.132597 271.302999,107.8116 271.561,107.553599 C271.819001,107.295598 272.139998,107.166599 272.524,107.166599 C272.896002,107.166599 273.213999,107.295598 273.478,107.553599 C273.742001,107.8116 273.874,108.132597 273.874,108.516599 C273.874,108.900601 273.742001,109.221598 273.478,109.479599 C273.213999,109.7376 272.896002,109.866599 272.524,109.866599 Z M280.078,120.108599 C278.721993,120.108599 277.663004,119.724603 276.901,118.956599 C276.138996,118.188595 275.758,117.114606 275.758,115.734599 L275.758,115.158599 C275.758,114.474595 275.856999,113.862602 276.055,113.322599 C276.253001,112.782596 276.540998,112.323601 276.919,111.945599 C277.297002,111.567597 277.749997,111.2796 278.278,111.081599 C278.806003,110.883598 279.405997,110.784599 280.078,110.784599 C281.434007,110.784599 282.492996,111.168595 283.255,111.936599 C284.017004,112.704603 284.398,113.778592 284.398,115.158599 L284.398,115.734599 C284.398,116.418602 284.299001,117.030596 284.101,117.570599 C283.902999,118.110602 283.615002,118.569597 283.237,118.947599 C282.858998,119.325601 282.403003,119.613598 281.869,119.811599 C281.334997,120.0096 280.738003,120.108599 280.078,120.108599 Z M280.078,118.164599 C280.762003,118.164599 281.286998,117.966601 281.653,117.570599 C282.019002,117.174597 282.202,116.562603 282.202,115.734599 L282.202,115.158599 C282.202,114.342595 282.013002,113.733601 281.635,113.331599 C281.256998,112.929597 280.738003,112.728599 280.078,112.728599 C279.393997,112.728599 278.869002,112.926597 278.503,113.322599 C278.136998,113.718601 277.954,114.330595 277.954,115.158599 L277.954,115.734599 C277.954,116.550603 278.142998,117.159597 278.521,117.561599 C278.899002,117.963601 279.417997,118.164599 280.078,118.164599 Z M286.498,110.946599 L288.136,110.946599 L288.298,111.954599 C288.970003,111.174595 289.899994,110.784599 291.088,110.784599 C292.192006,110.784599 293.052997,111.111596 293.671,111.765599 C294.289003,112.419602 294.598,113.406592 294.598,114.726599 L294.598,119.946599 L292.51,119.946599 L292.51,114.726599 C292.51,114.066596 292.351002,113.568601 292.033,113.232599 C291.714998,112.896597 291.280003,112.728599 290.728,112.728599 C290.079997,112.728599 289.567002,112.902597 289.189,113.250599 C288.810998,113.598601 288.61,114.060596 288.586,114.636599 L288.586,119.946599 L286.498,119.946599 L286.498,110.946599 Z" id="version" fill="#212A2F" fill-rule="nonzero" transform="translate(264.844000, 113.637599) rotate(-90.000000) translate(-264.844000, -113.637599) "></path>
        <path d="M227,49.9465988 L227,104.165822 L233,105.665822 L233,49.9465988 L227,49.9465988 Z" id="Rectangle" stroke="#212A2F" stroke-width="2" fill="#2FA2DB"
              class="brand_element"></path>
        <path d="M264,49.9465988 L264,76.1658224 L270,77.6658224 L270,49.9465988 L264,49.9465988 Z" id="Rectangle" stroke="#212A2F" stroke-width="2" fill="#2FA2DB"
              class="brand_element"></path>
    </g>
</svg>
