<?xml version="1.0" encoding="UTF-8"?>
<svg width="400px" height="200px" viewBox="0 0 400 200" version="1.1" xmlns="http://www.w3.org/2000/svg" xmlns:xlink="http://www.w3.org/1999/xlink">
    <!-- Generator: Sketch 61.2 (89653) - https://sketch.com -->
    <title>Cloud/Placeholders/NoAccess</title>
    <desc>Created with Sketch.</desc>
    <g id="Cloud/Placeholders/NoAccess" stroke="none" stroke-width="1" fill="none" fill-rule="evenodd">
        <path d="M200.210945,0 C223.998796,0 246.029451,6.81472057 264.053249,18.4064259 L340.298507,18.4079602 C373.270731,18.4079602 400,45.1372289 400,78.1094527 C400,105.592218 381.43002,128.737731 356.153219,135.682834 C343.894564,159.839143 316.90112,176.616915 285.572139,176.616915 C281.10045,176.616915 276.717087,176.275105 272.452289,175.618815 C253.092881,190.808798 227.836903,200 200.210945,200 C172.629834,200 147.411015,190.838615 128.061088,175.692115 C123.948832,176.300277 119.72677,176.616915 115.422886,176.616915 C84.225182,176.616915 57.3267576,159.979456 44.995953,135.985537 C19.1352066,129.435956 3.41650556e-15,106.007338 0,78.1094527 C-4.03793284e-15,45.1372289 26.7292687,18.4079602 59.7014925,18.4079602 L136.368642,18.4064259 C154.39244,6.81472057 176.423094,0 200.210945,0 Z" id="Combined-Shape" fill="#2EA2DB"
              class="brand_element" opacity="0.1"></path>
        <circle id="Oval" stroke="#212A2F" stroke-width="2" fill="#EAF5FB" cx="180" cy="67.5" r="4"></circle>
        <path d="M201,75.6195175 L245,117.494294 L245,151.8 C245,153.015026 244.015026,154 242.8,154 L159.2,154 C157.984974,154 157,153.015026 157,151.8 L157,117.494294 L201,75.6195175 Z M200.369593,62.3225036 L149.847179,113.408986 L138.594074,102.013817 L200.338688,39.5798415 L262.40592,101.996293 L251.183826,113.422642 L200.369593,62.3225036 Z" id="Home" stroke="#212A2F" stroke-width="2" fill="#FFFFFF"></path>
        <g id="Group-3" transform="translate(240.000000, 31.000000)" stroke="#212A2F" stroke-width="2">
            <circle id="Oval" fill="#2EA2DB" class="brand_element" cx="52" cy="28" r="11"></circle>
            <line x1="52" y1="56" x2="52" y2="44" id="Path-4"></line>
            <line x1="68" y1="28" x2="80" y2="28" id="Path-4"></line>
            <line x1="63.3137085" y1="16.6862915" x2="71.7989899" y2="8.20101013" id="Path-4"></line>
            <line x1="32.2010101" y1="47.7989899" x2="40.6862915" y2="39.3137085" id="Path-4"></line>
            <line x1="63.3137085" y1="39.3137085" x2="71.7989899" y2="47.7989899" id="Path-4"></line>
            <path d="M49.5836099,9.49211047 C54.51697,11.0304089 58,15.6308624 58,20.9473684 C58,27.5747854 52.627417,32.9473684 46,32.9473684 L11,32.9473684 C4.372583,32.9473684 -1,27.5747854 -1,20.9473684 C-1,14.3199514 4.372583,8.94736842 11.0001847,8.94736844 L12.254059,8.94760009 C12.0863187,8.30077973 12,7.62988412 12,6.94736842 C12,2.55815804 15.558158,-1 19.9473684,-1 L42.0526316,-1 C46.441842,-1 50,2.55815804 50,6.94736842 C50,7.82395871 49.8575854,8.68105269 49.5836099,9.49211047 Z" id="Combined-Shape" fill="#FFFFFF"></path>
        </g>
        <rect id="Rectangle-2" stroke="#212A2F" stroke-width="2" fill="#F5F7F9" transform="translate(125.825385, 49.898102) rotate(-15.000000) translate(-125.825385, -49.898102) " x="101.325385" y="40.8981023" width="49" height="18" rx="2"></rect>
        <path d="M96.0847279,36.8619674 L150.004103,36.8619674 L150.004103,53.8619674 L107.445978,53.8619674 C106.230843,53.8619674 105.081591,53.3096086 104.322502,52.3607476 L94.5229903,40.1113575 C93.8329712,39.2488337 93.9728139,37.9902489 94.8353378,37.3002298 C95.1899639,37.0165289 95.6305849,36.8619674 96.0847279,36.8619674 Z" id="Rectangle" stroke="#212A2F" stroke-width="2" fill="#E1E7EA" transform="translate(121.504103, 45.361967) rotate(-15.000000) translate(-121.504103, -45.361967) "></path>
        <rect id="Rectangle" stroke="#212A2F" stroke-width="2" fill="#E1E7EA" x="129.863666" y="66.7740163" width="33" height="9"></rect>
        <rect id="Rectangle" stroke="#212A2F" stroke-width="2" fill="#F5F7F9" x="127.863666" y="45.7740163" width="10" height="34" rx="4.5"></rect>
        <path d="M166.863666,59.7740163 L166.863666,82.7740163 L165.863666,82.7740163 C161.997673,82.7740163 158.863666,79.6400096 158.863666,75.7740163 L158.863666,66.7740163 C158.863666,62.9080231 161.997673,59.7740163 165.863666,59.7740163 L166.863666,59.7740163 Z" id="Rectangle" stroke="#212A2F" stroke-width="2" fill="#A5B6C0" transform="translate(162.863666, 71.274016) rotate(-315.000000) translate(-162.863666, -71.274016) "></path>
        <circle id="Oval" fill="#212A2F" cx="132.863666" cy="71.7740163" r="2"></circle>
        <path d="M147.5,143.5 L84.5,143.5 L84.5,146.5 L147.5,146.5 L147.5,143.5 Z M147.5,129.5 L84.5,129.5 L84.5,132.5 L147.5,132.5 L147.5,129.5 Z" id="Combined-Shape" stroke="#212A2F" fill="#A5B6C0"></path>
        <path d="M144,118.585786 L148,122.585786 L148,152 C148,153.104569 147.104569,154 146,154 L142,154 C140.895431,154 140,153.104569 140,152 L140,122.585786 L144,118.585786 Z M130,118.585786 L134,122.585786 L134,152 C134,153.104569 133.104569,154 132,154 L128,154 C126.895431,154 126,153.104569 126,152 L126,122.585786 L130,118.585786 Z M116,118.585786 L120,122.585786 L120,152 C120,153.104569 119.104569,154 118,154 L114,154 C112.895431,154 112,153.104569 112,152 L112,122.585786 L116,118.585786 Z M102,118.585786 L106,122.585786 L106,152 C106,153.104569 105.104569,154 104,154 L100,154 C98.8954305,154 98,153.104569 98,152 L98,122.585786 L102,118.585786 Z M88,118.585786 L92,122.585786 L92,152 C92,153.104569 91.1045695,154 90,154 L86,154 C84.8954305,154 84,153.104569 84,152 L84,122.585786 L88,118.585786 Z" id="Combined-Shape" stroke="#212A2F" stroke-width="2" fill="#E1E7EA"></path>
        <path d="M319.5,143.5 L256.5,143.5 L256.5,146.5 L319.5,146.5 L319.5,143.5 Z M319.5,129.5 L256.5,129.5 L256.5,132.5 L319.5,132.5 L319.5,129.5 Z" id="Combined-Shape" stroke="#212A2F" fill="#A5B6C0"></path>
        <path d="M316,118.585786 L320,122.585786 L320,152 C320,153.104569 319.104569,154 318,154 L314,154 C312.895431,154 312,153.104569 312,152 L312,122.585786 L316,118.585786 Z M302,118.585786 L306,122.585786 L306,152 C306,153.104569 305.104569,154 304,154 L300,154 C298.895431,154 298,153.104569 298,152 L298,122.585786 L302,118.585786 Z M288,118.585786 L292,122.585786 L292,152 C292,153.104569 291.104569,154 290,154 L286,154 C284.895431,154 284,153.104569 284,152 L284,122.585786 L288,118.585786 Z M274,118.585786 L278,122.585786 L278,152 C278,153.104569 277.104569,154 276,154 L272,154 C270.895431,154 270,153.104569 270,152 L270,122.585786 L274,118.585786 Z M260,118.585786 L264,122.585786 L264,152 C264,153.104569 263.104569,154 262,154 L258,154 C256.895431,154 256,153.104569 256,152 L256,122.585786 L260,118.585786 Z" id="Combined-Shape" stroke="#212A2F" stroke-width="2" fill="#E1E7EA"></path>
        <circle id="Oval" stroke="#212A2F" stroke-width="2" fill="#F5F7F9" cx="200" cy="151" r="37"></circle>
        <g id="Group-5" transform="translate(186.000000, 128.000000)" stroke="#212A2F">
            <g id="Group-4">
                <path d="M6,18 L23,18 L23,10.5 C23,5.80557963 19.1944204,2 14.5,2 C9.80557963,2 6,5.80557963 6,10.5 L6,18 Z" id="Rectangle" stroke-width="4"></path>
                <rect id="Rectangle" stroke-width="2" fill="#455A67" x="-1" y="17" width="30" height="31"></rect>
            </g>
            <path d="M11.9999676,40 L16.0001999,40 L16.0012993,34.500028 L16.4003828,34.2000781 C17.4008085,33.4481613 18,32.2748073 18,31 C18,28.790861 16.209139,27 14,27 C11.790861,27 10,28.790861 10,31 C10,32.2751616 10.5995281,33.4488064 11.600422,34.2006829 L11.9997895,34.5006896 L11.9999676,40 Z" id="Combined-Shape" stroke-width="2" fill="#FFFFFF"></path>
        </g>
    </g>
</svg>
