<?xml version="1.0" encoding="UTF-8"?>
<svg width="400px" height="200px" viewBox="0 0 400 200" version="1.1" xmlns="http://www.w3.org/2000/svg" xmlns:xlink="http://www.w3.org/1999/xlink">
    <!-- Generator: Sketch 61.2 (89653) - https://sketch.com -->
    <title>Cloud/Placeholders/NoActions</title>
    <desc>Created with Sketch.</desc>
    <g id="Cloud/Placeholders/NoActions" stroke="none" stroke-width="1" fill="none" fill-rule="evenodd">
        <path d="M200.210945,0 C223.998796,0 246.029451,6.81472057 264.053249,18.4064259 L340.298507,18.4079602 C373.270731,18.4079602 400,45.1372289 400,78.1094527 C400,105.592218 381.43002,128.737731 356.153219,135.682834 C343.894564,159.839143 316.90112,176.616915 285.572139,176.616915 C281.10045,176.616915 276.717087,176.275105 272.452289,175.618815 C253.092881,190.808798 227.836903,200 200.210945,200 C172.629834,200 147.411015,190.838615 128.061088,175.692115 C123.948832,176.300277 119.72677,176.616915 115.422886,176.616915 C84.225182,176.616915 57.3267576,159.979456 44.995953,135.985537 C19.1352066,129.435956 3.41650556e-15,106.007338 0,78.1094527 C-4.03793284e-15,45.1372289 26.7292687,18.4079602 59.7014925,18.4079602 L136.368642,18.4064259 C154.39244,6.81472057 176.423094,0 200.210945,0 Z" id="Combined-Shape" fill="#2EA2DB"
              class="brand_element" opacity="0.1"></path>
        <path d="M126,155 L274,155 L274,107 C274,66.1309285 240.869071,33 200,33 C159.130929,33 126,66.1309285 126,107 L126,155 Z" id="Rectangle" stroke="#212A2F" stroke-width="2" fill="#F5F7F9"></path>
        <rect id="Rectangle" stroke="#212A2F" stroke-width="2" fill="#F5F7F9" x="121" y="154" width="158" height="6" rx="3"></rect>
        <path d="M250,99.5 C250,72.1619049 227.838095,50 200.5,50" id="Path" stroke="#212A2F"></path>
        <rect id="Rectangle" stroke="#212A2F" stroke-width="2" fill="#F5F7F9" x="197" y="27" width="6" height="6" rx="2"></rect>
        <g id="alert" transform="translate(291.166016, 41.557617) rotate(-15.000000) translate(-291.166016, -41.557617) translate(278.166016, 30.057617)">
            <path d="M14.2438093,0.325464097 L14.4687898,0.468139912 C14.7573995,0.673418889 14.9991234,0.937471257 15.1768271,1.24343889 L25.6692024,19.3090505 C26.3562578,20.4920119 25.9385315,21.9989801 24.7361846,22.6749581 C24.3573207,22.8879612 23.9285177,23 23.4921608,23 L2.50741015,23 C1.12260576,23 0,21.895494 0,20.5330169 C0,20.1036953 0.113874828,19.6818059 0.330368483,19.3090505 L10.8227438,1.24343889 C11.4693842,0.130063406 12.8641892,-0.299490782 14.0284508,0.217393169 L14.2438093,0.325464097 Z" id="Triangle" stroke="#212A2F" stroke-width="2" fill="#F5F7F9" fill-rule="nonzero"></path>
            <path d="M15,17 L15,20 L12,20 L12,17 L15,17 Z M15,7 L15,15 L12,15 L12,7 L15,7 Z" id="Combined-Shape" fill="#212A2F"></path>
        </g>
        <g id="alert" transform="translate(109.000000, 43.500000) rotate(12.000000) translate(-109.000000, -43.500000) translate(96.000000, 32.000000)">
            <path d="M14.2438093,0.325464097 L14.4687898,0.468139912 C14.7573995,0.673418889 14.9991234,0.937471257 15.1768271,1.24343889 L25.6692024,19.3090505 C26.3562578,20.4920119 25.9385315,21.9989801 24.7361846,22.6749581 C24.3573207,22.8879612 23.9285177,23 23.4921608,23 L2.50741015,23 C1.12260576,23 0,21.895494 0,20.5330169 C0,20.1036953 0.113874828,19.6818059 0.330368483,19.3090505 L10.8227438,1.24343889 C11.4693842,0.130063406 12.8641892,-0.299490782 14.0284508,0.217393169 L14.2438093,0.325464097 Z" id="Triangle" stroke="#212A2F" stroke-width="2" fill="#F5F7F9" fill-rule="nonzero"></path>
            <path d="M15,17 L15,20 L12,20 L12,17 L15,17 Z M15,7 L15,15 L12,15 L12,7 L15,7 Z" id="Combined-Shape" fill="#212A2F"></path>
        </g>
        <path d="M326,103 C326,104.656854 324.656854,106 323,106 L320,106 C318.343146,106 317,104.656854 317,103 L317,102 L326,102 L326,103 Z M312,99 L312,91.1666667 C312,85.5679345 316.235721,81 321.5,81 C326.764279,81 331,85.5679345 331,91.1666667 L331,99 L332,99 L332,103 L310,103 L310,99 L312,99 Z" id="Warning" stroke="#212A2F" stroke-width="2" fill="#F5F7F9" fill-rule="nonzero" transform="translate(321.000000, 93.500000) rotate(-9.000000) translate(-321.000000, -93.500000) "></path>
        <path d="M87,116 C87,117.656854 85.6568542,119 84,119 L81,119 C79.3431458,119 78,117.656854 78,116 L78,115 L87,115 L87,116 Z M73,112 L73,104.166667 C73,98.5679345 77.235721,94 82.5,94 C87.764279,94 92,98.5679345 92,104.166667 L92,112 L93,112 L93,116 L71,116 L71,112 L73,112 Z" id="Warning" stroke="#212A2F" stroke-width="2" fill="#F5F7F9" fill-rule="nonzero" transform="translate(82.000000, 106.500000) rotate(8.000000) translate(-82.000000, -106.500000) "></path>
        <polygon id="Path-6" fill="#212A2F" fill-rule="nonzero" points="277.742752 57.5712535 278.257248 58.4287465 268.832862 64.0833779 285.059 78.899 287.757085 75.9455257 291.369243 85.3371347 281.688661 82.5918951 284.385 79.637 267.167138 63.9166221"></polygon>
        <polygon id="Path-6" fill="#212A2F" fill-rule="nonzero" points="302.854419 98.5216631 303.145581 99.4783369 280.985472 106.222718 297.059 120.899 299.757085 117.945526 303.369243 127.337135 293.688661 124.591895 296.385 121.637 279.014528 105.777282"></polygon>
        <polygon id="Path-6" fill="#212A2F" fill-rule="nonzero" transform="translate(109.177358, 127.407736) scale(-1, 1) translate(-109.177358, -127.407736) " points="120.839892 113 121.131053 113.956674 98.9709448 120.701055 115.044472 135.377337 117.742558 132.423863 121.354715 141.815472 111.674134 139.070232 114.370472 136.115337 97 120.255619"></polygon>
        <polygon id="Path-6" fill="#212A2F" fill-rule="nonzero" transform="translate(121.101052, 72.882941) scale(-1, 1) translate(-121.101052, -72.882941) " points="119.575614 59 120.09011 59.8574929 110.665724 65.5121244 126.892401 80.327973 129.589948 77.3742721 133.202105 86.7658811 123.521523 84.0206416 126.218401 81.065973 109 65.3453685"></polygon>
        <path d="M157,139 L207,139 L207,67 C207,65.3431458 205.656854,64 204,64 L160,64 C158.343146,64 157,65.3431458 157,67 L157,139 Z" id="Rectangle" stroke="#212A2F" stroke-width="2" fill="#F5F7F9"></path>
        <path d="M234.8,123 C236.015026,123 237,123.984974 237,125.2 L237,136.8 C237,138.015026 236.015026,139 234.8,139 L177.2,139 C175.984974,139 175,138.015026 175,136.8 L175,125.2 C175,123.984974 175.984974,123 177.2,123 L234.8,123 Z M234.8,103 C236.015026,103 237,103.984974 237,105.2 L237,116.8 C237,118.015026 236.015026,119 234.8,119 L177.2,119 C175.984974,119 175,118.015026 175,116.8 L175,105.2 C175,103.984974 175.984974,103 177.2,103 L234.8,103 Z M182,109 C180.895431,109 180,109.895431 180,111 C180,112.104569 180.895431,113 182,113 C183.104569,113 184,112.104569 184,111 C184,109.895431 183.104569,109 182,109 Z M234.8,83 C236.015026,83 237,83.9849736 237,85.2 L237,96.8 C237,98.0150264 236.015026,99 234.8,99 L177.2,99 C175.984974,99 175,98.0150264 175,96.8 L175,85.2 C175,83.9849736 175.984974,83 177.2,83 L234.8,83 Z M182,89 C180.895431,89 180,89.8954305 180,91 C180,92.1045695 180.895431,93 182,93 C183.104569,93 184,92.1045695 184,91 C184,89.8954305 183.104569,89 182,89 Z" id="Server" stroke="#212A2F" stroke-width="2" fill="#E1E7EA"></path>
        <rect id="Rectangle" stroke="#212A2F" stroke-width="2" fill="#2EA2DB" class="brand_element" x="157" y="72" width="50" height="5"></rect>
        <path d="M164,127 L164,131 L162,131 L162,127 L164,127 Z M164,121 L164,125 L162,125 L162,121 L164,121 Z M164,115 L164,119 L162,119 L162,115 L164,115 Z M164,89 L164,113 L162,113 L162,89 L164,89 Z" id="Combined-Shape" fill="#212A2F"></path>
        <circle id="Oval" stroke="#212A2F" stroke-width="2" fill="#F5F7F9" cx="200" cy="151" r="37"></circle>
        <polygon id="Path-7" fill="#212A2F" fill-rule="nonzero" points="182.059871 147.818961 177.940129 152.181039 198.449171 171.55069 222.446521 137.736241 217.553479 134.263759 197.550829 162.44931"></polygon>
    </g>
</svg>
