<?xml version="1.0" encoding="UTF-8"?>
<svg width="400px" height="200px" viewBox="0 0 400 200" version="1.1" xmlns="http://www.w3.org/2000/svg" xmlns:xlink="http://www.w3.org/1999/xlink">
    <!-- Generator: Sketch 61.2 (89653) - https://sketch.com -->
    <title>Cloud/Placeholders/Offline</title>
    <desc>Created with Sketch.</desc>
    <g id="Cloud/Placeholders/Offline" stroke="none" stroke-width="1" fill="none" fill-rule="evenodd">
        <path d="M200.210945,0 C223.998796,0 246.029451,6.81472057 264.053249,18.4064259 L340.298507,18.4079602 C373.270731,18.4079602 400,45.1372289 400,78.1094527 C400,105.592218 381.43002,128.737731 356.153219,135.682834 C343.894564,159.839143 316.90112,176.616915 285.572139,176.616915 C281.10045,176.616915 276.717087,176.275105 272.452289,175.618815 C253.092881,190.808798 227.836903,200 200.210945,200 C172.629834,200 147.411015,190.838615 128.061088,175.692115 C123.948832,176.300277 119.72677,176.616915 115.422886,176.616915 C84.225182,176.616915 57.3267576,159.979456 44.995953,135.985537 C19.1352066,129.435956 3.41650556e-15,106.007338 0,78.1094527 C-4.03793284e-15,45.1372289 26.7292687,18.4079602 59.7014925,18.4079602 L136.368642,18.4064259 C154.39244,6.81472057 176.423094,0 200.210945,0 Z" id="Combined-Shape" fill="#2EA2DB"
              class="brand_element" opacity="0.1"></path>
        <path d="M203.660254,74.7616531 L247.660254,116.63643 L247.660254,150.942136 C247.660254,152.157162 246.67528,153.142136 245.460254,153.142136 L161.860254,153.142136 C160.645228,153.142136 159.660254,152.157162 159.660254,150.942136 L159.660254,116.63643 L203.660254,74.7616531 Z M203.029847,61.4646392 L152.507433,112.551121 L141.254328,101.155952 L202.998943,38.7219771 L265.066174,101.138429 L253.84408,112.564778 L203.029847,61.4646392 Z" id="Home" stroke="#212A2F" stroke-width="2" fill="#FFFFFF"></path>
        <circle id="Oval" stroke="#212A2F" stroke-width="2" fill="#F5F7F9" cx="203" cy="150" r="37"></circle>
        <path d="M188,165 L218,135 M218,165 L188,135" id="Combined-Shape" stroke="#212A2F" stroke-width="6"></path>
        <path d="M150.160254,142.642136 L87.160254,142.642136 L87.160254,145.642136 L150.160254,145.642136 L150.160254,142.642136 Z M150.160254,128.642136 L87.160254,128.642136 L87.160254,131.642136 L150.160254,131.642136 L150.160254,128.642136 Z" id="Combined-Shape" stroke="#212A2F" fill="#A5B6C0"></path>
        <path d="M146.660254,117.727922 L150.660254,121.727922 L150.660254,151.142136 C150.660254,152.246705 149.764824,153.142136 148.660254,153.142136 L144.660254,153.142136 C143.555685,153.142136 142.660254,152.246705 142.660254,151.142136 L142.660254,121.727922 L146.660254,117.727922 Z M132.660254,117.727922 L136.660254,121.727922 L136.660254,151.142136 C136.660254,152.246705 135.764824,153.142136 134.660254,153.142136 L130.660254,153.142136 C129.555685,153.142136 128.660254,152.246705 128.660254,151.142136 L128.660254,121.727922 L132.660254,117.727922 Z M118.660254,117.727922 L122.660254,121.727922 L122.660254,151.142136 C122.660254,152.246705 121.764824,153.142136 120.660254,153.142136 L116.660254,153.142136 C115.555685,153.142136 114.660254,152.246705 114.660254,151.142136 L114.660254,121.727922 L118.660254,117.727922 Z M104.660254,117.727922 L108.660254,121.727922 L108.660254,151.142136 C108.660254,152.246705 107.764824,153.142136 106.660254,153.142136 L102.660254,153.142136 C101.555685,153.142136 100.660254,152.246705 100.660254,151.142136 L100.660254,121.727922 L104.660254,117.727922 Z M90.660254,117.727922 L94.660254,121.727922 L94.660254,151.142136 C94.660254,152.246705 93.7648235,153.142136 92.660254,153.142136 L88.660254,153.142136 C87.5556845,153.142136 86.660254,152.246705 86.660254,151.142136 L86.660254,121.727922 L90.660254,117.727922 Z" id="Combined-Shape" stroke="#212A2F" stroke-width="2" fill="#E1E7EA"></path>
        <path d="M322.160254,142.642136 L259.160254,142.642136 L259.160254,145.642136 L322.160254,145.642136 L322.160254,142.642136 Z M322.160254,128.642136 L259.160254,128.642136 L259.160254,131.642136 L322.160254,131.642136 L322.160254,128.642136 Z" id="Combined-Shape" stroke="#212A2F" fill="#A5B6C0"></path>
        <path d="M318.660254,117.727922 L322.660254,121.727922 L322.660254,151.142136 C322.660254,152.246705 321.764824,153.142136 320.660254,153.142136 L316.660254,153.142136 C315.555685,153.142136 314.660254,152.246705 314.660254,151.142136 L314.660254,121.727922 L318.660254,117.727922 Z M304.660254,117.727922 L308.660254,121.727922 L308.660254,151.142136 C308.660254,152.246705 307.764824,153.142136 306.660254,153.142136 L302.660254,153.142136 C301.555685,153.142136 300.660254,152.246705 300.660254,151.142136 L300.660254,121.727922 L304.660254,117.727922 Z M290.660254,117.727922 L294.660254,121.727922 L294.660254,151.142136 C294.660254,152.246705 293.764824,153.142136 292.660254,153.142136 L288.660254,153.142136 C287.555685,153.142136 286.660254,152.246705 286.660254,151.142136 L286.660254,121.727922 L290.660254,117.727922 Z M276.660254,117.727922 L280.660254,121.727922 L280.660254,151.142136 C280.660254,152.246705 279.764824,153.142136 278.660254,153.142136 L274.660254,153.142136 C273.555685,153.142136 272.660254,152.246705 272.660254,151.142136 L272.660254,121.727922 L276.660254,117.727922 Z M262.660254,117.727922 L266.660254,121.727922 L266.660254,151.142136 C266.660254,152.246705 265.764824,153.142136 264.660254,153.142136 L260.660254,153.142136 C259.555685,153.142136 258.660254,152.246705 258.660254,151.142136 L258.660254,121.727922 L262.660254,117.727922 Z" id="Combined-Shape" stroke="#212A2F" stroke-width="2" fill="#E1E7EA"></path>
        <path d="M271.832118,53.8771994 C276.03897,56.8090083 278.660799,61.7358077 278.660799,67.1421356 C278.660799,72.548351 276.039078,77.475092 271.832242,80.4073034 C273.211056,80.8910514 274.668158,81.1421356 276.160799,81.1421356 C283.608915,81.1421356 289.660799,74.8815659 289.660799,67.1421356 C289.660799,59.4027054 283.608915,53.1421356 276.160799,53.1421356 C274.667955,53.1421356 273.210803,53.3932873 271.832118,53.8771994 Z" id="Combined-Shape" stroke="#212A2F" stroke-width="2" fill="#2EA2DB"
              class="brand_element" transform="translate(280.160527, 67.142136) scale(-1, 1) translate(-280.160527, -67.142136) "></path>
        <rect id="Rectangle-2" stroke="#212A2F" stroke-width="2" fill="#F5F7F9" transform="translate(129.006889, 47.911077) rotate(-30.000000) translate(-129.006889, -47.911077) " x="104.506889" y="38.9110774" width="49" height="18" rx="2"></rect>
        <path d="M98.2394381,36.1479377 L152.158813,36.1479377 L152.158813,53.1479377 L109.600688,53.1479377 C108.385553,53.1479377 107.236301,52.5955788 106.477213,51.6467179 L96.6777004,39.3973278 C95.9876813,38.5348039 96.1275241,37.2762191 96.990048,36.5862001 C97.3446741,36.3024992 97.7852951,36.1479377 98.2394381,36.1479377 Z" id="Rectangle" stroke="#212A2F" stroke-width="2" fill="#E1E7EA" transform="translate(123.658813, 44.647938) rotate(-30.000000) translate(-123.658813, -44.647938) "></path>
        <rect id="Rectangle" stroke="#212A2F" stroke-width="2" fill="#E1E7EA" x="132.523921" y="65.9161519" width="33" height="9"></rect>
        <rect id="Rectangle" stroke="#212A2F" stroke-width="2" fill="#F5F7F9" x="130.523921" y="44.9161519" width="10" height="34" rx="4.5"></rect>
        <path d="M169.523921,58.9161519 L169.523921,81.9161519 L168.523921,81.9161519 C164.657927,81.9161519 161.523921,78.7821452 161.523921,74.9161519 L161.523921,65.9161519 C161.523921,62.0501587 164.657927,58.9161519 168.523921,58.9161519 L169.523921,58.9161519 Z" id="Rectangle" stroke="#212A2F" stroke-width="2" fill="#A5B6C0" transform="translate(165.523921, 70.416152) rotate(-315.000000) translate(-165.523921, -70.416152) "></path>
        <circle id="Oval" fill="#212A2F" cx="135.523921" cy="70.9161519" r="2"></circle>
        <path d="M89.0720636,74.4828774 L94.160254,79.8120086 L101.319512,81.5539452 L95.9903811,86.6421356 L94.2484445,93.8013939 L89.160254,88.4722626 L82.0009958,86.7303261 L87.330127,81.6421356 L89.0720636,74.4828774 Z M90.1508325,78.5088978 L89.1349426,82.6841464 L86.0270162,85.6515571 L90.2022648,86.6674471 L93.1696756,89.7753734 L94.1855655,85.6001249 L97.2934919,82.6327141 L93.1182433,81.6168242 L90.1508325,78.5088978 Z M249.248444,28.4828774 L250.990381,35.6421356 L256.319512,40.7303261 L249.160254,42.4722626 L244.072064,47.8013939 L242.330127,40.6421356 L237.000996,35.5539452 L244.160254,33.8120086 L249.248444,28.4828774 Z M248.169676,32.5088978 L245.202265,35.6168242 L241.027016,36.6327141 L244.134943,39.6001249 L245.150833,43.7753734 L248.118243,40.6674471 L252.293492,39.6515571 L249.185565,36.6841464 L248.169676,32.5088978 Z M183.660254,16.1421356 L187.195788,22.6066017 L193.660254,26.1421356 L187.195788,29.6776695 L183.660254,36.1421356 L180.12472,29.6776695 L173.660254,26.1421356 L180.12472,22.6066017 L183.660254,16.1421356 Z M183.660254,20.3101787 L181.598346,24.0802275 L177.828297,26.1421356 L181.598346,28.2040438 L183.660254,31.9740926 L185.722162,28.2040438 L189.492211,26.1421356 L185.722162,24.0802275 L183.660254,20.3101787 Z" id="Combined-Shape" fill="#212A2F" fill-rule="nonzero"></path>
    </g>
</svg>
