<?xml version="1.0" encoding="UTF-8"?>
<svg version="1.1" viewBox="0 0 20 20" xmlns="http://www.w3.org/2000/svg">
<title>Actions/Thin/Reload</title>
<desc>Created with Sketch.</desc>
<g fill="none" fill-rule="evenodd">
<g transform="translate(4 3)" fill="#fff">
<path d="m3.5 8c0.27614 0 0.5 0.22386 0.5 0.5s-0.22386 0.5-0.5 0.5l-1.7214 8.9209e-4c1.6875 2.1494 3.4259 3.1991 5.2214 3.1991 1.7829 0 3.114-1.0353 4.0404-3.197 0.10878-0.25381 0.40272-0.37139 0.65653-0.26261 0.25381 0.10878 0.37139 0.40272 0.26261 0.65653-1.0736 2.505-2.7425 3.803-4.9596 3.803-2.0915 0-4.0526-1.1548-5.8776-3.4177l-0.12245-0.15527v2.073c0 0.27614-0.22386 0.5-0.5 0.5s-0.5-0.22386-0.5-0.5v-3.7h3.5zm1.5001-8c2.0915 0 4.0526 1.1548 5.8776 3.4177l0.12232 0.15527 1.282e-4 -2.073c0-0.27614 0.22386-0.5 0.5-0.5s0.5 0.22386 0.5 0.5v3.7h-3.5c-0.27614 0-0.5-0.22386-0.5-0.5s0.22386-0.5 0.5-0.5l1.7214-8.9209e-4c-1.6875-2.1494-3.4259-3.1991-5.2214-3.1991-1.7829 0-3.114 1.0353-4.0404 3.197-0.10878 0.25381-0.40272 0.37139-0.65653 0.26261-0.25381-0.10878-0.37139-0.40272-0.26261-0.65653 1.0736-2.505 2.7425-3.803 4.9596-3.803z"/>
</g>
</g>
</svg>
