<?xml version="1.0" encoding="UTF-8"?>
<svg version="1.1" viewBox="0 0 24 24" xmlns="http://www.w3.org/2000/svg">
<title>Devices/Bold/Server24</title>
<desc>Created with Sketch.</desc>
<g fill="none" fill-rule="evenodd">
<path d="m20.8 15c0.66274 0 1.2 0.53726 1.2 1.2v2.6c0 0.66274-0.53726 1.2-1.2 1.2h-17.6c-0.66274 0-1.2-0.53726-1.2-1.2v-2.6c0-0.66274 0.53726-1.2 1.2-1.2h17.6zm-16.8 1.5c-0.55228 0-1 0.44772-1 1s0.44772 1 1 1 1-0.44772 1-1-0.44772-1-1-1zm16.8-7.5c0.66274 0 1.2 0.53726 1.2 1.2v2.6c0 0.66274-0.53726 1.2-1.2 1.2h-17.6c-0.66274 0-1.2-0.53726-1.2-1.2v-2.6c0-0.66274 0.53726-1.2 1.2-1.2h17.6zm-16.8 1.5c-0.55228 0-1 0.44772-1 1s0.44772 1 1 1 1-0.44772 1-1-0.44772-1-1-1zm16.8-7.5c0.66274 0 1.2 0.53726 1.2 1.2v2.6c0 0.66274-0.53726 1.2-1.2 1.2h-17.6c-0.66274 0-1.2-0.53726-1.2-1.2v-2.6c0-0.66274 0.53726-1.2 1.2-1.2h17.6zm-16.8 1.5c-0.55228 0-1 0.44772-1 1s0.44772 1 1 1 1-0.44772 1-1-0.44772-1-1-1z" fill="#303F47"/>
</g>
</svg>
