<?xml version="1.0" encoding="UTF-8"?>
<svg version="1.1" viewBox="0 0 24 24" xmlns="http://www.w3.org/2000/svg">
<title>Devices/Bold/Storage24</title>
<desc>Created with Sketch.</desc>
<g fill="none" fill-rule="evenodd">
<path d="m20.8 15c0.66274 0 1.2 0.53726 1.2 1.2v2.6c0 0.66274-0.53726 1.2-1.2 1.2h-17.6c-0.66274 0-1.2-0.53726-1.2-1.2v-2.6c0-0.66274 0.53726-1.2 1.2-1.2zm-0.8 1.5c-0.55228 0-1 0.44772-1 1s0.44772 1 1 1 1-0.44772 1-1-0.44772-1-1-1zm-2.2259-12.5c0.49223 0 0.93455 0.3006 1.1157 0.75827l3.0089 7.6c0.24396 0.61621-0.057805 1.3135-0.67401 1.5575-0.14062 0.055672-0.29049 0.08426-0.44173 0.08426h-17.583c-0.66274 0-1.2-0.53726-1.2-1.2 0-0.15136 0.028635-0.30136 0.084395-0.44207l3.0116-7.6c0.18129-0.45749 0.62351-0.75793 1.1156-0.75793h11.563zm-5.7741 2c-3.3137 0-6 1.1193-6 2.5s2.6863 2.5 6 2.5 6-1.1193 6-2.5-2.6863-2.5-6-2.5zm0 1.5c1.6569 0 3 0.44772 3 1s-1.3431 1-3 1-3-0.44772-3-1 1.3431-1 3-1z" fill="#303F47"/>
</g>
</svg>
