<?xml version="1.0" encoding="utf-8"?>
<!-- Generator: Adobe Illustrator 24.0.0, SVG Export Plug-In . SVG Version: 6.00 Build 0)  -->
<svg version="1.1" id="Layer_16" xmlns="http://www.w3.org/2000/svg" xmlns:xlink="http://www.w3.org/1999/xlink" x="0px" y="0px"
	 viewBox="0 0 64 64" style="enable-background:new 0 0 64 64;" xml:space="preserve">
<style type="text/css">
	.st0{fill:#698796;}
</style>
<path class="st0" d="M32,42.8c-5.9,0-10.8-4.8-10.8-10.8c0-0.4,0.3-0.8,0.8-0.8s0.8,0.3,0.8,0.8c0,5.1,4.1,9.2,9.2,9.2
	s9.2-4.1,9.2-9.2s-4.1-9.2-9.2-9.2c-0.4,0-0.8-0.3-0.8-0.8s0.3-0.8,0.8-0.8c5.9,0,10.8,4.8,10.8,10.8S37.9,42.8,32,42.8z"/>
<path class="st0" d="M32,38.8c-3.7,0-6.8-3-6.8-6.8s3-6.8,6.8-6.8s6.8,3,6.8,6.8S35.7,38.8,32,38.8z M32,26.8
	c-2.9,0-5.2,2.4-5.2,5.2s2.4,5.2,5.2,5.2s5.2-2.4,5.2-5.2S34.9,26.8,32,26.8z"/>
<path class="st0" d="M33.5,11.5c0.3,0,0.5,0.2,0.5,0.5v0.1l0,0.1l0.9,4.6l0.2,0.9l0.9,0.3c1.1,0.3,2.1,0.7,3,1.2l0.8,0.4l0.8-0.5
	l3.9-2.6l0.1-0.1l0.1-0.1c0.1-0.1,0.3-0.1,0.4-0.1c0.1,0,0.2,0,0.4,0.1l2.1,2.1c0.1,0.1,0.1,0.3,0.1,0.4c0,0.1,0,0.2-0.1,0.4
	l-0.1,0.1l-0.1,0.1l-2.6,3.9l-0.5,0.8l0.4,0.8c0.5,0.9,0.9,1.9,1.2,3l0.3,0.9l0.9,0.2l4.6,0.9l0.1,0H52c0.3,0,0.5,0.2,0.5,0.5v3
	c0,0.3-0.2,0.5-0.5,0.5h-0.1l-0.1,0L47.1,35l-0.9,0.2L45.9,36c-0.3,1.1-0.7,2.1-1.2,3l-0.4,0.8l0.5,0.8l2.6,3.9l0.1,0.1l0.1,0.1
	c0.1,0.1,0.1,0.3,0.1,0.4s0,0.2-0.1,0.4l-2.1,2.1c-0.1,0.1-0.3,0.1-0.4,0.1s-0.2,0-0.4-0.1l-0.1-0.1l-0.1-0.1l-3.9-2.6l-0.8-0.5
	L39,44.7c-0.9,0.5-1.9,0.9-3,1.2l-0.9,0.3L35,47.1L34,51.7l0,0.1V52c0,0.3-0.2,0.5-0.5,0.5h-3c-0.3,0-0.5-0.2-0.5-0.5v-0.1l0-0.1
	L29,47.1l-0.2-0.9L28,45.9c-1.1-0.3-2.1-0.7-3-1.2l-0.8-0.4l-0.8,0.5l-3.9,2.6l-0.1,0.1l-0.1,0.1c-0.1,0.1-0.3,0.1-0.4,0.1
	c-0.1,0-0.2,0-0.4-0.1l-2.1-2.1c-0.1-0.1-0.1-0.3-0.1-0.4c0-0.1,0-0.2,0.1-0.4l0.1-0.1l0.1-0.1l2.6-3.9l0.5-0.8L19.3,39
	c-0.5-0.9-0.9-1.9-1.2-3l-0.3-0.9L16.9,35L12.3,34l-0.1,0H12c-0.3,0-0.5-0.2-0.5-0.5v-3c0-0.3,0.2-0.5,0.5-0.5h0.1l0.1,0l4.6-0.9
	l0.9-0.2l0.3-0.9c0.3-1.1,0.7-2.1,1.2-3l0.4-0.8l-0.5-0.8l-2.6-3.9l-0.1-0.1l-0.1-0.1c-0.1-0.1-0.1-0.3-0.1-0.4c0-0.1,0-0.2,0.1-0.4
	l2.1-2.1c0.1-0.1,0.3-0.1,0.4-0.1c0.1,0,0.2,0,0.4,0.1l0.1,0.1l0.1,0.1l3.9,2.6l0.8,0.5l0.8-0.4c0.9-0.5,1.9-0.9,3-1.2l0.9-0.3
	l0.2-0.9l0.9-4.6l0-0.1V12c0-0.3,0.2-0.5,0.5-0.5H33.5 M33.5,10h-3c-1.1,0-2,0.9-2,2l-0.9,4.6c-1.2,0.3-2.3,0.8-3.3,1.4l-3.9-2.6
	c-0.4-0.4-0.9-0.6-1.4-0.6s-1,0.2-1.4,0.6l-2.1,2.1c-0.8,0.8-0.8,2,0,2.8l2.6,3.9c-0.6,1-1,2.2-1.4,3.3L12,28.5c-1.1,0-2,0.9-2,2v3
	c0,1.1,0.9,2,2,2l4.6,0.9c0.3,1.2,0.8,2.3,1.4,3.3l-2.6,3.9c-0.8,0.8-0.8,2,0,2.8l2.1,2.1c0.4,0.4,0.9,0.6,1.4,0.6s1-0.2,1.4-0.6
	l3.9-2.6c1,0.6,2.2,1,3.3,1.4l0.9,4.6c0,1.1,0.9,2,2,2h3c1.1,0,2-0.9,2-2l0.9-4.6c1.2-0.3,2.3-0.8,3.3-1.4l3.9,2.6
	c0.4,0.4,0.9,0.6,1.4,0.6s1-0.2,1.4-0.6l2.1-2.1c0.8-0.8,0.8-2,0-2.8L46,39.7c0.6-1,1-2.2,1.4-3.3l4.6-0.9c1.1,0,2-0.9,2-2v-3
	c0-1.1-0.9-2-2-2l-4.6-0.9c-0.3-1.2-0.8-2.3-1.4-3.3l2.6-3.9c0.8-0.8,0.8-2,0-2.8l-2.1-2.1c-0.4-0.4-0.9-0.6-1.4-0.6s-1,0.2-1.4,0.6
	L39.7,18c-1-0.6-2.2-1-3.3-1.4L35.5,12C35.5,10.9,34.6,10,33.5,10L33.5,10z"/>
</svg>
