<?xml version="1.0" encoding="UTF-8"?>
<svg width="400px" height="200px" viewBox="0 0 400 200" version="1.1" xmlns="http://www.w3.org/2000/svg" xmlns:xlink="http://www.w3.org/1999/xlink">
    <!-- Generator: Sketch 61.2 (89653) - https://sketch.com -->
    <title>Cloud/Placeholders/Wrong</title>
    <desc>Created with Sketch.</desc>
    <g id="Cloud/Placeholders/Wrong" stroke="none" stroke-width="1" fill="none" fill-rule="evenodd">
        <path d="M200.210945,0 C223.998796,0 246.029451,6.81472057 264.053249,18.4064259 L340.298507,18.4079602 C373.270731,18.4079602 400,45.1372289 400,78.1094527 C400,105.592218 381.43002,128.737731 356.153219,135.682834 C343.894564,159.839143 316.90112,176.616915 285.572139,176.616915 C281.10045,176.616915 276.717087,176.275105 272.452289,175.618815 C253.092881,190.808798 227.836903,200 200.210945,200 C172.629834,200 147.411015,190.838615 128.061088,175.692115 C123.948832,176.300277 119.72677,176.616915 115.422886,176.616915 C84.225182,176.616915 57.3267576,159.979456 44.995953,135.985537 C19.1352066,129.435956 3.41650556e-15,106.007338 0,78.1094527 C-4.03793284e-15,45.1372289 26.7292687,18.4079602 59.7014925,18.4079602 L136.368642,18.4064259 C154.39244,6.81472057 176.423094,0 200.210945,0 Z" id="Combined-Shape" fill="#2EA2DB"
              class="brand_element" opacity="0.1"></path>
        <path d="M258.8,145 C260.015026,145 261,145.984974 261,147.2 L261,168.8 C261,170.015026 260.015026,171 258.8,171 L141.2,171 C139.984974,171 139,170.015026 139,168.8 L139,147.2 C139,145.984974 139.984974,145 141.2,145 L258.8,145 Z M149,154 C146.790861,154 145,155.790861 145,158 C145,160.209139 146.790861,162 149,162 C151.209139,162 153,160.209139 153,158 C153,155.790861 151.209139,154 149,154 Z" id="Server" stroke="#212A2F" stroke-width="2" fill="#F5F7F9"></path>
        <path d="M258.8,113 C260.015026,113 261,113.984974 261,115.2 L261,136.8 C261,138.015026 260.015026,139 258.8,139 L141.2,139 C139.984974,139 139,138.015026 139,136.8 L139,115.2 C139,113.984974 139.984974,113 141.2,113 L258.8,113 Z M149,122 C146.790861,122 145,123.790861 145,126 C145,128.209139 146.790861,130 149,130 C151.209139,130 153,128.209139 153,126 C153,123.790861 151.209139,122 149,122 Z" id="Server" stroke="#212A2F" stroke-width="2" fill="#F5F7F9"></path>
        <path d="M258.8,81 C260.015026,81 261,81.9849736 261,83.2 L261,104.8 C261,106.015026 260.015026,107 258.8,107 L141.2,107 C139.984974,107 139,106.015026 139,104.8 L139,83.2 C139,81.9849736 139.984974,81 141.2,81 L258.8,81 Z M149,90 C146.790861,90 145,91.790861 145,94 C145,96.209139 146.790861,98 149,98 C151.209139,98 153,96.209139 153,94 C153,91.790861 151.209139,90 149,90 Z" id="Server" stroke="#212A2F" stroke-width="2" fill="#F5F7F9"></path>
        <g id="Group-3" transform="translate(225.000000, 48.000000) scale(-1, 1) rotate(-135.000000) translate(-225.000000, -48.000000) translate(209.000000, 37.000000)" stroke="#212A2F" stroke-width="2">
            <path d="M1,1 L1,14 C1,17.8659932 4.13400675,21 8,21 L16,21 C19.8659932,21 23,17.8659932 23,14 L23,1 L1,1 Z" id="Rectangle" fill="#E1E7EA"></path>
            <rect id="Rectangle" fill="#2EA2DB" class="brand_element" x="1" y="7" width="22" height="5"></rect>
            <path d="M23,4 L23,12 L27,12 C29.209139,12 31,10.209139 31,8 C31,5.790861 29.209139,4 27,4 L23,4 Z" id="Rectangle"></path>
        </g>
        <path d="M260.441969,79 L230,79 L230,78 C230,73.3720149 226.501527,69.5459093 222,69.0538007 L222,99 C222,101.209139 223.790861,103 226,103 C227.275516,103 228.449452,102.400135 229.201287,101.398773 L231.001462,99.001139 L231.000975,101.999352 L231,108 C231,111.865993 234.134007,115 238,115 C240.573386,115 242.900063,113.600207 244.126139,111.38983 L246.000911,108.009981 L246.000617,111.874971 L246,120 C246,123.865993 249.134007,127 253,127 C256.865993,127 260,123.865993 260,120.000042 L259.999832,116.001373 L261.749696,117.984042 C262.316529,118.626288 263.126915,119 264,119 C265.656854,119 267,117.656854 267,116 L267,86 C267,82.4602592 264.35758,79.4887478 260.877096,79.0543127 L260.441969,79 Z" id="Combined-Shape" stroke="#212A2F" stroke-width="2" fill="#455A67"></path>
        <polyline id="Path-16" stroke="#212A2F" points="89.6966793 62 105.696679 45 112.696679 76"></polyline>
        <g id="Group-6" transform="translate(96.696679, 81.000000) rotate(18.000000) translate(-96.696679, -81.000000) translate(72.696679, 62.000000)">
            <g id="Group-5">
                <rect id="Rectangle" stroke="#212A2F" stroke-width="2" fill="#FFFFFF" x="-1" y="-1" width="50" height="40" rx="2"></rect>
                <rect id="Rectangle" stroke="#000000" x="3.93554688" y="3.85449219" width="40" height="30"></rect>
                <path d="M8.43554688,24.8544922 L4.43554688,24.8544922 L4.93554688,25.3544922 L4.93554688,24.3544922 L4.43554688,24.8544922 L8.43554688,24.8544922 Z M8.43554688,24.8544922 L12.4355469,24.8544922 L11.9355469,24.3544922 L11.9355469,25.3544922 L12.4355469,24.8544922 L8.43554688,24.8544922 Z M39.9355469,32.8544922 L39.9355469,19.8544922 L40.1855469,19.8544922 L38.6855469,19.8544922 L38.9355469,19.8544922 L38.9355469,32.8544922 L39.9355469,32.8544922 Z M38.6855469,13.8544922 L39.9355469,13.8544922 L39.9355469,4.85449219 L38.9355469,4.85449219 L38.9355469,13.8544922 L38.6855469,13.8544922 Z M9.93554688,13.8544922 L4.43554688,13.8544922 L4.93554688,14.3544922 L4.93554688,13.3544922 L4.43554688,13.8544922 L9.93554688,13.8544922 Z M9.93554688,13.8544922 L15.4355469,13.8544922 L14.9355469,13.3544922 L14.9355469,14.3544922 L15.4355469,13.8544922 L9.93554688,13.8544922 Z M20.9355469,8.85449219 L20.9355469,14.3544922 L21.4355469,13.8544922 L20.4355469,13.8544922 L20.9355469,14.3544922 L20.9355469,8.85449219 Z M20.9355469,8.85449219 L20.9355469,3.35449219 L20.4355469,3.85449219 L21.4355469,3.85449219 L20.9355469,3.35449219 L20.9355469,8.85449219 Z" id="Combined-Shape" stroke="#000000" fill="#D8D8D8"></path>
                <path d="M12.4355469,28.3544922 L12.4355469,33.3544922 L6.43554688,33.3544922 L6.43554688,31.3544922 L9.43554688,31.3544922 L9.43554688,28.3544922 L12.4355469,28.3544922 Z M33.4355469,28.3544922 L33.4355469,31.3544922 L36.4355469,31.3544922 L36.4355469,33.3544922 L30.4355469,33.3544922 L30.4355469,28.3544922 L33.4355469,28.3544922 Z M26.4355469,28.3544922 L26.4355469,33.3544922 L23.4355469,33.3544922 L23.4355469,28.3544922 L26.4355469,28.3544922 Z M22.4355469,28.3544922 L22.4355469,33.3544922 L19.4355469,33.3544922 L19.4355469,28.3544922 L22.4355469,28.3544922 Z M26.4355469,20.3544922 L26.4355469,23.3544922 L28.4355469,23.3544922 L28.4355469,25.3544922 L23.4355469,25.3544922 L23.4355469,20.3544922 L26.4355469,20.3544922 Z M22.4355469,20.3544922 L22.4355469,25.3544922 L16.9355469,25.3544922 L16.9355469,23.3544922 L19.4355469,23.3544922 L19.4355469,20.3544922 L22.4355469,20.3544922 Z M36.4355469,20.3544922 L36.4355469,22.3544922 L33.4355469,22.3544922 L33.4355469,25.3544922 L30.4355469,25.3544922 L30.4355469,20.3544922 L36.4355469,20.3544922 Z M10.4355469,8.35449219 L10.4355469,13.3544922 L7.43554688,13.3544922 L7.43554688,8.35449219 L10.4355469,8.35449219 Z M35.4399414,8.35449219 L35.4399414,13.3544922 L32.4399414,13.3544922 L32.4399414,8.35449219 L35.4399414,8.35449219 Z M17.4355469,4.35449219 L17.4355469,9.35449219 L14.4355469,9.35449219 L14.4355469,4.35449219 L17.4355469,4.35449219 Z M27.4355469,4.35449219 L27.4355469,9.35449219 L24.4355469,9.35449219 L24.4355469,4.35449219 L27.4355469,4.35449219 Z" id="Combined-Shape" fill="#A5B6C0"></path>
            </g>
            <path d="M9.43554688,16.3544922 L9.43554688,17.3544922 L12.4355469,17.3544922 L12.4355469,20.3544922 L9.43554688,20.3544922 L9.43554688,21.3544922 L6.43554688,18.8544922 L9.43554688,16.3544922 Z" id="Combined-Shape" fill="#2EA2DB"
                  class="brand_element"></path>
        </g>
        <g id="Group-7" transform="translate(149.000000, 19.000000)" stroke="#212A2F" stroke-width="2">
            <path d="M38,9 C38,10.1045695 37.1045695,11 36,11 C34.8954305,11 34,10.1045695 34,9 L34,6 C34,4.34314575 32.6568542,3 31,3 C29.399045,3 28.0819345,4.25756986 28.0045948,5.82487292 L28,5.99998946 L28.0001551,20.7093272 L26.3332395,19.2174851 C24.8594009,17.8984415 24,16.0173555 24,14 L24,6 C24,2.13400675 27.1340068,-1 31,-1 C34.8659932,-1 38,2.13400675 38,6 L38,9 Z" id="Combined-Shape" fill="#A5B6C0"></path>
            <ellipse id="Oval" fill="#A5B6C0" cx="26" cy="33" rx="17" ry="19"></ellipse>
            <path d="M45.662343,20.945976 C44.6018799,20.5824984 41.3536216,21.8288309 36.3406755,24.758246 L35.9141794,25.0074774 L35.4570671,24.8202249 C32.5502127,23.629455 29.3319026,23 26,23 C22.4494628,23 19.0292537,23.7149309 15.9800634,25.0594377 L15.5100955,25.2666649 L15.0678945,25.0053772 C9.81422435,21.9010894 6.41909549,20.5707092 5.3242367,20.945976 C4.57183424,21.2038647 4.85823862,25.2114879 6.86793592,32.3928719 L6.97759008,32.7847063 L6.7825197,33.1417859 C5.61144814,35.2854519 5,37.6078974 5,40 C5,49.3395897 14.3627237,57 26,57 C37.6372763,57 47,49.3395897 47,40 C47,37.1928363 46.1573796,34.482739 44.5632347,32.0505462 L44.3177244,31.67597 L44.4337126,31.2433855 C46.1683717,24.7738784 46.3516588,21.1822415 45.662343,20.945976 Z" id="Combined-Shape" fill="#E1E7EA"></path>
            <path d="M36.3336737,38.3462369 C36.3336737,36.4132402 34.7666703,34.8462369 32.8336737,34.8462369 C30.9006771,34.8462369 29.3336737,36.4132402 29.3336737,38.3462369" id="Path" transform="translate(32.833674, 36.596237) rotate(-15.000000) translate(-32.833674, -36.596237) "></path>
            <g id="Group-4" transform="translate(20.000000, 43.000000)">
                <path d="M5,0 L5,6.375 C5,7.82474747 3.88071187,9 2.5,9 C1.11928813,9 0,7.82474747 0,6.375" id="Path"></path>
                <path d="M10,0 L10,6.375 C10,7.82474747 8.88071187,9 7.5,9 C6.11928813,9 5,7.82474747 5,6.375" id="Path" transform="translate(7.500000, 4.500000) scale(-1, 1) translate(-7.500000, -4.500000) "></path>
            </g>
            <path d="M20.3336737,38.3462369 C20.3336737,36.4132402 18.7666703,34.8462369 16.8336737,34.8462369 C14.9006771,34.8462369 13.3336737,36.4132402 13.3336737,38.3462369" id="Path" transform="translate(16.833674, 36.596237) scale(-1, 1) rotate(-15.000000) translate(-16.833674, -36.596237) "></path>
            <ellipse id="Oval" fill="#E1E7EA" cx="43.5" cy="54" rx="6.5" ry="5"></ellipse>
            <path d="M23,41 C22.867974,41 22.7372548,41.0261438 22.6153846,41.0769231 C22.1055833,41.2893403 21.8645059,41.8748141 22.0769231,42.3846154 L22.9423077,44.4615385 C23.0781686,44.7876045 23.3967618,45 23.75,45 L26.25,45 C26.6032382,45 26.9218314,44.7876045 27.0576923,44.4615385 L27.9230769,42.3846154 C27.9738562,42.2627452 28,42.132026 28,42 C28,41.4477153 27.5522847,41 27,41 L23,41 Z" id="Rectangle" fill="#2EA2DB"
                  class="brand_element"></path>
            <line x1="42" y1="54" x2="42" y2="58" id="Path-17"></line>
            <line x1="45" y1="54" x2="45" y2="58" id="Path-17"></line>
            <ellipse id="Oval" fill="#E1E7EA" cx="8.5" cy="54" rx="6.5" ry="5"></ellipse>
            <line x1="7" y1="55" x2="7" y2="59" id="Path-17"></line>
            <line x1="10" y1="55" x2="10" y2="59" id="Path-17"></line>
            <path d="M40,41 C43.3333333,39 47,38 51,38" id="Path-18"></path>
            <path d="M41,44 C45.6666667,43.3333333 49,44 51,46" id="Path-19"></path>
            <path d="M0,41 C3.33333333,39 7,38 11,38" id="Path-18" transform="translate(5.500000, 39.500000) scale(-1, 1) translate(-5.500000, -39.500000) "></path>
            <path d="M1,44 C5.66666667,43.3333333 9,44 11,46" id="Path-19" transform="translate(6.000000, 44.875000) scale(-1, 1) translate(-6.000000, -44.875000) "></path>
        </g>
        <circle id="Oval" fill="#212A2F" cx="105.696679" cy="45" r="2"></circle>
        <path d="M298.199528,127.787169 C299.308075,127.250181 300.329942,126.801683 301.266026,126.441648 L301.872583,126.208355 L302.332114,126.667886 C304.374092,128.709864 304.499071,132.171182 302.947597,136.117474 L302.792068,136.513072 L302.399295,136.675602 C300.595117,137.422173 298.795015,138.102979 296.998995,138.717988 C296.990452,141.695272 296.927384,143.753553 296.807195,144.915401 L296.770663,145.268558 L296.51961,145.51961 C289.758878,152.280342 281.401806,155.066033 277.667886,151.332114 C273.933967,147.598194 276.719658,139.241122 283.48039,132.48039 C287.125382,128.835398 291.335417,126.263033 295.05655,125.355782 L295.596495,125.224138 L295.9934,125.613159 C296.86703,126.469434 297.602332,127.194028 298.199528,127.787169 Z" id="Oval" stroke="#212A2F" stroke-width="2" fill="#E1E7EA"></path>
        <path d="M284.394603,143.605397 C285.475919,144.686713 288.829406,143.568884 291.699145,140.699145 C294.568884,137.829406 295.686713,134.475919 294.605397,133.394603 C293.524081,132.313287 290.170594,133.431116 287.300855,136.300855 C284.431116,139.170594 283.313287,142.524081 284.394603,143.605397 Z" id="Oval" stroke="#212A2F" stroke-width="2" fill="#A5B6C0"></path>
        <path d="M306,146 L306,150.248145 C306.000044,150.800405 306.44774,151.2481 307,151.2481 C307.191973,151.2481 307.379888,151.19284 307.541301,151.088921 C308.691222,150.348588 309.510789,149.652282 310,149 C310.491863,148.344182 310.974166,147.300353 311.446909,145.868513 C311.620072,145.344071 311.335293,144.778556 310.810848,144.605403 C310.606312,144.537872 310.385438,144.538187 310.181095,144.606302 L306,146 L306,146 Z" id="Path-22" stroke="#212A2F" stroke-width="2" fill="#E1E7EA"></path>
        <path d="M304,109 C304,109 304,107.333333 304,104 C304.666667,104 305.333333,104 306,104 C306.666667,104 307.333333,104.666667 308,106 C305.333333,108 304,109 304,109 Z" id="Path-23" stroke="#212A2F" stroke-width="2" fill="#E1E7EA" stroke-linejoin="round"></path>
    </g>
</svg>
