<svg version="1.1" xmlns="http://www.w3.org/2000/svg" xmlns:xlink="http://www.w3.org/1999/xlink" x="0px" y="0px" width="240"
	 height="240" viewBox="-3 -48 240 240" style="overflow:visible;enable-background:new 0 0 240 240;" xml:space="preserve">
<style type="text/css">
	.st0{fill-rule:evenodd;clip-rule:evenodd;fill:none;stroke:#C22626;stroke-width:6;stroke-linecap:round;stroke-miterlimit:100;}
</style>
<defs>
</defs>
<circle class="st0" cx="222" cy="42" r="9"/>
<circle class="st0" cx="192" cy="72" r="9"/>
<circle class="st0" cx="222" cy="72" r="9"/>
<circle class="st0" cx="222" cy="102" r="9"/>
<circle class="st0" cx="192" cy="132" r="9"/>
<circle class="st0" cx="12" cy="12" r="9"/>
<circle class="st0" cx="42" cy="12" r="9"/>
<circle class="st0" cx="102" cy="12" r="9"/>
<circle class="st0" cx="162" cy="12" r="9"/>
<circle class="st0" cx="12" cy="42" r="9"/>
<circle class="st0" cx="72" cy="42" r="9"/>
<circle class="st0" cx="102" cy="42" r="9"/>
<circle class="st0" cx="72" cy="72" r="9"/>
<circle class="st0" cx="102" cy="72" r="9"/>
<circle class="st0" cx="132" cy="72" r="9"/>
<circle class="st0" cx="12" cy="102" r="9"/>
<circle class="st0" cx="162" cy="102" r="9"/>
<circle class="st0" cx="12" cy="132" r="9"/>
<circle class="st0" cx="72" cy="132" r="9"/>
<circle class="st0" cx="132" cy="132" r="9"/>
<circle class="st0" cx="162" cy="132" r="9"/>
<line class="st0" x1="72" y1="3" x2="72" y2="21"/>
<line class="st0" x1="42" y1="33" x2="42" y2="51"/>
<line class="st0" x1="132" y1="33" x2="132" y2="51"/>
<line class="st0" x1="162" y1="33" x2="162" y2="51"/>
<line class="st0" x1="192" y1="33" x2="192" y2="51"/>
<line class="st0" x1="162" y1="63" x2="162" y2="81"/>
<line class="st0" x1="192" y1="93" x2="192" y2="111"/>
<line class="st0" x1="222" y1="123" x2="222" y2="141"/>
<line class="st0" x1="132" y1="93" x2="132" y2="111"/>
<line class="st0" x1="102" y1="93" x2="102" y2="111"/>
<line class="st0" x1="102" y1="123" x2="102" y2="141"/>
<line class="st0" x1="72" y1="93" x2="72" y2="111"/>
<line class="st0" x1="42" y1="93" x2="42" y2="111"/>
<line class="st0" x1="42" y1="123" x2="42" y2="141"/>
<line class="st0" x1="42" y1="63" x2="42" y2="81"/>
<line class="st0" x1="12" y1="63" x2="12" y2="81"/>
<line class="st0" x1="132" y1="3" x2="132" y2="21"/>
<line class="st0" x1="192" y1="3" x2="192" y2="21"/>
<line class="st0" x1="222" y1="3" x2="222" y2="21"/>
</svg>
