<svg width="240" height="240" viewBox="0 0 240 240" fill="none" xmlns="http://www.w3.org/2000/svg">
<path fill-rule="evenodd" clip-rule="evenodd" d="M141.05 215.348C147.397 220.742 155.631 224 164.634 224C184.736 224 201 207.759 201 187.764C201 178.795 197.728 170.581 192.305 164.25L141.05 215.348ZM136.963 211.277L188.218 160.179C181.871 154.785 173.637 151.527 164.634 151.527C144.532 151.527 128.268 167.768 128.268 187.764C128.268 196.732 131.54 204.946 136.963 211.277ZM122.268 187.764C122.268 211.09 141.236 230 164.634 230C188.032 230 207 211.09 207 187.764C207 164.437 188.032 145.527 164.634 145.527C141.236 145.527 122.268 164.437 122.268 187.764Z" fill="#AA1E1E"/>
<path fill-rule="evenodd" clip-rule="evenodd" d="M106.088 104.861C107.72 104.861 109.066 103.52 109.066 101.895V25.5257C109.066 20.2015 113.39 15.8933 118.733 15.8933C124.077 15.8933 128.4 20.2015 128.4 25.5257V101.895C128.4 103.52 129.747 104.861 131.378 104.861C133.01 104.861 134.356 103.52 134.356 101.895V41.1349C134.383 40.9753 134.397 40.8116 134.397 40.6449C134.397 35.3206 138.721 31.0124 144.064 31.0124C149.408 31.0124 153.65 35.3206 153.65 40.6449V110.308C153.65 111.893 154.996 113.234 156.628 113.234C158.259 113.234 159.605 111.893 159.605 110.267V73.0409C159.632 72.8811 159.647 72.7171 159.647 72.5501C159.647 67.2259 163.97 62.9177 169.314 62.9177C174.657 62.9177 178.981 67.2259 178.981 72.5501V135.545C180.988 136.092 182.948 136.751 184.855 137.514V72.5501C184.855 63.9744 177.88 57.0244 169.273 57.0244C165.62 57.0244 162.262 58.2762 159.605 60.3728V40.6449C159.605 32.0692 152.63 25.1192 144.023 25.1192C140.371 25.1192 137.012 26.3709 134.356 28.4674V25.5257C134.315 16.95 127.34 10 118.733 10C110.127 10 103.152 16.95 103.152 25.5257V28.6483C100.467 26.5167 97.0643 25.2413 93.3808 25.2413C84.7956 25.2413 77.838 32.1698 77.838 40.719V124.195C76.1984 124.311 74.5552 124.518 72.9275 124.817L72.5604 124.899L66.3195 101.732C64.7287 95.7575 60.8945 90.799 55.5102 87.7101C51.9615 85.6779 48.0049 84.6212 43.9667 84.6212C41.9272 84.6212 39.9285 84.9057 37.9298 85.4341C35.8495 86.0031 34.1363 87.3037 33.0758 89.1733C32.0152 91.0022 31.7297 93.1563 32.26 95.2291L51.6352 167.33C53.5931 174.565 56.6931 181.393 60.8945 187.611C64.9734 193.667 70.0314 198.992 75.8235 203.422C81.6565 207.852 88.1013 211.347 95.0355 213.704C102.133 216.062 109.557 217.281 117.103 217.281C117.651 217.281 118.199 217.275 118.746 217.262C117.527 215.373 116.422 213.404 115.441 211.364C88.2095 210.619 64.5001 192.063 57.4273 165.705L38.0522 93.6034C37.8482 92.8718 38.0929 92.3028 38.2561 92.0183C38.4193 91.7338 38.7864 91.2461 39.5206 91.0429C40.989 90.6364 42.4982 90.4738 43.9667 90.4738C51.7575 90.4738 58.6102 95.7168 60.6497 103.195L67.6248 129.126C67.8287 129.898 68.3182 130.508 69.0116 130.914C69.4603 131.158 69.9906 131.32 70.4801 131.32C70.7248 131.32 71.0103 131.28 71.2551 131.239C74.4367 130.386 77.6999 129.979 80.9223 129.979C97.85 129.979 110.813 139.439 115.177 155.737C115.503 157.038 116.686 157.932 118.032 157.932C118.277 157.932 118.563 157.892 118.807 157.851C119.582 157.648 120.194 157.16 120.602 156.469C121.01 155.778 121.092 155.006 120.888 154.234C116.626 138.281 103.149 126.757 86.8776 124.492C85.8324 124.34 84.7639 124.235 83.6971 124.169V40.719C83.6971 35.4112 88.01 31.1163 93.3401 31.1163C98.3958 31.1163 102.72 34.9802 103.152 39.9075V101.895C103.152 103.52 104.457 104.861 106.088 104.861Z" fill="#AA1E1E"/>
</svg>
