<svg width="400" height="400" viewBox="0 0 400 400" fill="none" xmlns="http://www.w3.org/2000/svg">
<path fill-rule="evenodd" clip-rule="evenodd" d="M93 116C90.2386 116 88 118.239 88 121V279C88 281.761 90.2386 284 93 284H307C309.761 284 312 281.761 312 279V121C312 118.239 309.761 116 307 116H93ZM94 278V122H306V278H94ZM218.84 149.966C219.374 148.398 218.535 146.693 216.966 146.16C215.398 145.626 213.693 146.465 213.16 148.034L180.308 244.599C179.774 246.167 180.613 247.871 182.182 248.405C183.75 248.939 185.455 248.1 185.988 246.531L218.84 149.966ZM227.879 164.879C229.05 163.707 230.95 163.707 232.121 164.879L262.121 194.879L264.243 197L262.121 199.121L232.121 229.121C230.95 230.293 229.05 230.293 227.879 229.121C226.707 227.95 226.707 226.05 227.879 224.879L255.757 197L227.879 169.121C226.707 167.95 226.707 166.05 227.879 164.879ZM166.879 164.879C168.05 163.707 169.95 163.707 171.121 164.879C172.293 166.05 172.293 167.95 171.121 169.121L143.243 197L171.121 224.879C172.293 226.05 172.293 227.95 171.121 229.121C169.95 230.293 168.05 230.293 166.879 229.121L136.879 199.121L134.757 197L136.879 194.879L166.879 164.879Z" fill="#263137"/>
</svg>
