<svg width="400" height="400" viewBox="0 0 400 400" fill="none" xmlns="http://www.w3.org/2000/svg">
<path fill-rule="evenodd" clip-rule="evenodd" d="M88 121C88 118.239 90.2386 116 93 116H307C309.761 116 312 118.239 312 121V279C312 281.761 309.761 284 307 284H93C90.2386 284 88 281.761 88 279V121ZM94 203.015V278H306V203H303H289C287.343 203 286 201.657 286 200C286 198.343 287.343 197 289 197H303H306V122H94V197.015H112.854L120.973 187.132C122.671 185.064 125.882 185.215 127.379 187.433L138.592 204.044L154.445 179.605C156.2 176.898 160.274 177.277 161.5 180.261L175.518 214.371L188.588 148.182C189.467 143.728 195.911 143.951 196.481 148.455L207.676 236.924L219.203 183.618C219.924 180.284 224.219 179.324 226.29 182.034L237.742 197.015L254.5 197.015C256.157 197.015 257.5 198.358 257.5 200.015C257.5 201.671 256.157 203.015 254.5 203.015L236.754 203.015C235.507 203.015 234.332 202.434 233.576 201.444L224.152 189.117L211.069 249.62C210.118 254.017 203.756 253.74 203.191 249.277L192.08 161.471L180.117 222.051C179.35 225.94 174 226.463 172.493 222.796L157.401 186.072L141.981 209.844C140.422 212.249 136.914 212.281 135.31 209.905L123.906 193.013L116.59 201.919L115.69 203.015H114.272H94Z" fill="#263137"/>
</svg>
