<svg width="24" height="24" viewBox="0 0 24 24" fill="none" xmlns="http://www.w3.org/2000/svg">
<mask id="mask0_295_10390" style="mask-type:alpha" maskUnits="userSpaceOnUse" x="0" y="0" width="24" height="24">
<rect width="24" height="24" fill="#ffffff" class="Primary"/>
</mask>
<g mask="url(#mask0_295_10390)">
<path d="M14.8305 12L7.29777 4.46725C7.0991 4.26858 7.00235 4.03208 7.00752 3.75775C7.01269 3.48342 7.1146 3.24683 7.31327 3.048C7.51194 2.84933 7.74844 2.75 8.02277 2.75C8.2971 2.75 8.53369 2.84933 8.73252 3.048L16.3883 10.7193C16.5689 10.9001 16.7029 11.1027 16.79 11.327C16.8774 11.5513 16.921 11.7757 16.921 12C16.921 12.2243 16.8774 12.4487 16.79 12.673C16.7029 12.8973 16.5689 13.0999 16.3883 13.2808L8.71702 20.952C8.51835 21.1507 8.28444 21.2474 8.01527 21.2423C7.74594 21.2371 7.51194 21.1352 7.31327 20.9365C7.1146 20.7378 7.01527 20.5013 7.01527 20.227C7.01527 19.9527 7.1146 19.7161 7.31327 19.5173L14.8305 12Z" fill="#F6F7F9"/>
</g>
</svg>
