<svg width="24" height="24" viewBox="0 0 24 24" fill="none" xmlns="http://www.w3.org/2000/svg">
<path fill-rule="evenodd" clip-rule="evenodd" d="M16 10.5C16 13.5376 13.5376 16 10.5 16C7.46243 16 5 13.5376 5 10.5C5 7.46243 7.46243 5 10.5 5C13.5376 5 16 7.46243 16 10.5ZM15.0491 16.4633C13.7873 17.4274 12.2105 18 10.5 18C6.35786 18 3 14.6421 3 10.5C3 6.35786 6.35786 3 10.5 3C14.6421 3 18 6.35786 18 10.5C18 12.2105 17.4274 13.7873 16.4633 15.0491L20.7071 19.2929C21.0976 19.6834 21.0976 20.3166 20.7071 20.7071C20.3166 21.0976 19.6834 21.0976 19.2929 20.7071L15.0491 16.4633Z" fill="#ffffff" class="Primary"/>
<rect x="7" y="10" width="7" height="1" rx="0.5" fill="#ffffff" class="Primary"/>
<rect x="11" y="7" width="7" height="1" rx="0.5" transform="rotate(90 11 7)" fill="#ffffff" class="Primary"/>
</svg>
