<?xml version="1.0" encoding="UTF-8"?>
<svg width="64px" height="64px" viewBox="0 0 64 64" version="1.1" xmlns="http://www.w3.org/2000/svg" xmlns:xlink="http://www.w3.org/1999/xlink">
    <title>bookmarks</title>
    <g id="bookmarks" stroke="none" stroke-width="1" fill="none" fill-rule="evenodd">
        <path d="M48,5 C50.209139,5 52,6.790861 52,9 L52,59 L32,47.9107143 L12,59 L12,9 C12,6.790861 13.790861,5 16,5 L48,5 Z M48,7 L16,7 C14.9456382,7 14.0818349,7.81587779 14.0054857,8.85073766 L14,9 L14,55.603 L32,45.6238556 L50,55.604 L50,9 C50,7.9456382 49.1841222,7.08183488 48.1492623,7.00548574 L48,7 Z M26.7369686,18.2258357 L26.8384227,18.3154235 L32,23.477 L37.1615773,18.3154235 L37.2630314,18.2258357 C37.6854988,17.8973474 38.296363,17.92721 38.6845765,18.3154235 C39.0751008,18.7059478 39.1029954,19.3217813 38.7682603,19.7444926 L38.6845765,19.8384227 L33.523,25 L38.6845765,30.1615773 C39.1051412,30.5821419 39.1051412,31.2640119 38.6845765,31.6845765 C38.296363,32.07279 37.6854988,32.1026526 37.2630314,31.7741643 L37.1615773,31.6845765 L32,26.523 L26.8384227,31.6845765 L26.7369686,31.7741643 C26.3145012,32.1026526 25.703637,32.07279 25.3154235,31.6845765 C24.9248992,31.2940522 24.8970046,30.6782187 25.2317397,30.2555074 L25.3154235,30.1615773 L30.477,25 L25.3154235,19.8384227 C24.8948588,19.4178581 24.8948588,18.7359881 25.3154235,18.3154235 C25.703637,17.92721 26.3145012,17.8973474 26.7369686,18.2258357 Z" id="Combined-Shape" fill="#303F47" fill-rule="nonzero"></path>
    </g>
</svg>