<?xml version="1.0" encoding="UTF-8"?>
<svg width="64px" height="64px" viewBox="0 0 64 64" version="1.1" xmlns="http://www.w3.org/2000/svg" xmlns:xlink="http://www.w3.org/1999/xlink">
    <title>events</title>
    <g id="events" stroke="none" stroke-width="1" fill="none" fill-rule="evenodd">
        <path d="M33.9845558,6.58928518 C34.6046809,6.94364238 35.1186154,7.45757689 35.4729726,8.07770199 L60.5802539,52.0154442 C61.6762937,53.933514 61.0099068,56.3769327 59.091837,57.4729726 C58.4874463,57.8183387 57.803389,58 57.1072813,58 L6.89271871,58 C4.68357971,58 2.89271871,56.209139 2.89271871,54 C2.89271871,53.3038922 3.07437998,52.619835 3.41974614,52.0154442 L28.5270274,8.07770199 C29.6230673,6.15963221 32.066486,5.4932453 33.9845558,6.58928518 Z M30.3462841,8.93725989 L30.2635137,9.06997987 L5.15623243,53.0077221 C4.98354935,53.3099175 4.89271871,53.6519461 4.89271871,54 C4.89271871,55.0543618 5.7085965,55.9181651 6.74345637,55.9945143 L6.89271871,56 L57.1072813,56 C57.4553352,56 57.7973638,55.9091694 58.0995592,55.7364863 C59.0129257,55.2145625 59.3586357,54.0815826 58.9160891,53.1464129 L58.8437676,53.0077221 L33.7364863,9.06997987 C33.5888374,8.81159441 33.3857798,8.59008069 33.142761,8.42088624 L32.9922779,8.32577146 C32.0789113,7.80384771 30.9272913,8.08121048 30.3462841,8.93725989 Z M33,45 C34.1045695,45 35,45.8954305 35,47 L35,49 C35,50.1045695 34.1045695,51 33,51 L31,51 C29.8954305,51 29,50.1045695 29,49 L29,47 C29,45.8954305 29.8954305,45 31,45 L33,45 Z M32.8975016,21 C34.0020711,21 34.8975016,21.8954305 34.8975016,23 C34.8975016,23.0333073 34.8966695,23.0666095 34.8950062,23.0998752 L34.0950062,39.0998752 C34.0417853,40.1642939 33.1632499,41 32.0975016,41 L31.9024984,41 C30.8367501,41 29.9582147,40.1642939 29.9049938,39.0998752 L29.1049938,23.0998752 C29.0498342,21.9966839 29.8994318,21.0576549 31.0026232,21.0024953 L31.1024984,21 L31.1024984,21 L32.8975016,21 Z" id="Combined-Shape" fill="#303F47" fill-rule="nonzero"></path>
    </g>
</svg>