<?xml version="1.0" encoding="UTF-8"?>
<svg width="64px" height="64px" viewBox="0 0 64 64" version="1.1" xmlns="http://www.w3.org/2000/svg" xmlns:xlink="http://www.w3.org/1999/xlink">
    <title>folder</title>
    <g id="folder" stroke="none" stroke-width="1" fill="none" fill-rule="evenodd">
        <path d="M50.7643646,24 C53.2085603,24 55.2945109,25.7670652 55.6963342,28.1780051 L57.9999131,42.003 L58,20 C58,18.4023191 56.75108,17.0963391 55.1762728,17.0050927 L55,17 L35.1715729,17 L31.3431458,13.1715729 C30.6465821,12.4750092 29.7195661,12.061881 28.7413004,12.0064166 L28.5147186,12 L13,12 C10.8578046,12 9.10892112,13.6839685 9.00489531,15.8003597 L9,16 L8.99991313,24 L50.7643646,24 Z M50.7643646,26 L5.54138127,26 C5.4863004,26 5.4313137,26.0045508 5.37698228,26.0136061 C4.87112412,26.0979158 4.51766832,26.5481902 4.54245114,27.0482586 L4.55498734,27.164399 L8.55498734,51.164399 C8.62865495,51.6064046 8.98534949,51.9402036 9.42081762,51.9927672 L9.54138127,52 L56.4586187,52 C56.5136996,52 56.5686863,51.9954492 56.6230177,51.9863939 C57.1288759,51.9020842 57.4823317,51.4518098 57.4575489,50.9517414 L57.4450127,50.835601 L53.7235463,28.506803 C53.4924979,27.1205126 52.3334252,26.089024 50.9465022,26.0054733 L50.7643646,26 Z M9.54138127,54 C8.07486381,54 6.82329348,52.9397609 6.58219949,51.493197 L2.58219949,27.493197 C2.30981433,25.858886 3.41387334,24.3132034 5.0481843,24.0408182 C5.21117858,24.0136525 5.37613868,24 5.54138127,24 L6.99991313,24 L7,16 C7,12.6862915 9.6862915,10 13,10 L28.5147186,10 C30.1060176,10 31.632141,10.632141 32.7573593,11.7573593 L36,15 L55,15 C57.7614237,15 60,17.2385763 60,20 L60,51 C60,52.6568542 58.6568542,54 57,54 L9.54138127,54 Z" id="Combined-Shape" fill="#303F47" fill-rule="nonzero"></path>
    </g>
</svg>