<?xml version="1.0" encoding="UTF-8"?>
<svg width="64px" height="64px" viewBox="0 0 64 64" version="1.1" xmlns="http://www.w3.org/2000/svg" xmlns:xlink="http://www.w3.org/1999/xlink">
    <title>motion</title>
    <g id="motion" stroke="none" stroke-width="1" fill="none" fill-rule="evenodd" stroke-linejoin="round">
        <path d="M35.2556522,40.0782609 L35.5478261,40.3913043 C36.1947826,40.9130435 37.426087,42.1443478 38.7617391,43.5634783 C38.9205797,44.1878261 38.697971,44.8626087 38.093913,45.5878261 L38.093913,45.5878261 L31.04,54.2904348 C30.6421634,54.7808518 30.0436628,55.0647559 29.4121739,55.0626632 C28.9342708,55.0646204 28.4701548,54.9025482 28.0973913,54.6034783 C27.6643902,54.2556386 27.387905,53.7495459 27.3291501,53.1972504 C27.2703953,52.644955 27.4342181,52.0920211 27.7843478,51.6608696 L27.7843478,51.6608696 L32.4616363,45.8864394 C33.8323303,44.1942245 34.7890559,42.2053907 35.2556522,40.0782609 L35.2556522,40.0782609 Z M42.5,19 C44.6945189,19.0559065 47.6826087,21.8895652 48.5913043,23.1947826 C48.9799152,23.7529691 49.4496343,24.5436262 50.0004617,25.566754 C50.7317083,26.9249993 51.6256421,28.1891383 52.6625215,29.3312561 L52.6625215,29.3312561 L54.7269565,31.6052174 C55.256331,32.1308638 55.4650641,32.898999 55.2745281,33.6202739 C55.0839922,34.3415488 54.5231341,34.9063846 53.8032238,35.1020131 C53.0833134,35.2976416 52.3137222,35.0943421 51.7843478,34.5686957 L51.7843478,34.5686957 L49.3208168,31.9416626 C48.1122674,30.6529029 47.0798138,29.2096854 46.2504118,27.6496901 L46.2504118,27.6496901 L44.813913,24.9478261 L41.3913043,33.9217391 C41.3913043,33.9217391 46.5,40 47.9234783,42.4782609 C48.8724638,44.1304348 49.9437681,47.4347826 51.1373913,52.3913043 C51.2995606,52.9226652 51.2431728,53.4967556 50.9807183,53.9864094 C50.7182639,54.4760632 50.271407,54.8408621 49.7391304,55 C49.5592143,55.0262633 49.3764379,55.0262633 49.1965217,55 C48.2440975,55.0407032 47.385151,54.4308512 47.1095652,53.5182609 L47.1095652,53.5182609 L44.5217391,44.8991304 C43.3113043,43.6469565 39.2,39.3478261 37.613913,37.9913043 C35.5643191,36.0833128 34.8285366,33.1483584 35.7356522,30.4991304 C36.2991304,28.5791304 37.1756522,25.9495652 37.8226087,23.8626087 C36.5,24 34.5555952,25.4885694 33.773913,27.1391304 L33.773913,27.1391304 L30.7269565,33.0034783 C30.3839816,33.6670603 29.7130428,34.0972604 28.9668765,34.1320264 C28.2207101,34.1667923 27.5126765,33.8008424 27.1094851,33.1720263 C26.7062938,32.5432103 26.6691989,31.7470603 27.0121739,31.0834783 L27.0121739,31.0834783 L30.1217391,25.1356522 C31.792731,21.7211036 35.1985876,19.0248832 39,19 L39,19 Z M45.9617391,8.2173913 C48.1708781,8.2173913 49.9617391,10.0082523 49.9617391,12.2173913 C49.9617391,14.4265303 48.1708781,16.2173913 45.9617391,16.2173913 C43.7526001,16.2173913 41.9617391,14.4265303 41.9617391,12.2173913 C41.9617391,10.0082523 43.7526001,8.2173913 45.9617391,8.2173913 Z" id="Combined-Shape" stroke="#303F47" stroke-width="2" fill-rule="nonzero"></path>
        <path d="M20.5,54 C19,49.5 24,45 26.5,40 C23.5,40.5 20,36 20,33 C20,30 20.5,27.5 24,22 C26.3333333,18.3333333 30,15.6666667 35,14 C35,11.6666667 35.3333333,9.66666667 36,8" id="Path-6" stroke="#303F47" stroke-width="2" opacity="0.5" stroke-linecap="round"></path>
        <path d="M13.5,54 C13.1666667,49.6666667 14.6666667,45.8333333 18,42.5 C12,37.5 12.5,32 13,29.5 C13.5,27 18.5,13 27,10 C27,10 28.5,9.5 29,8" id="Path-7" stroke="#303F47" stroke-width="2" opacity="0.300000012" stroke-linecap="round"></path>
        <path d="M6.5,54 C6.5,50 7.33333333,46.3333333 9,43 C3.5,37 6,22.5 12.5,14 C15.8333333,10 18,7.66666667 19,7" id="Path-8" stroke="#303F47" stroke-width="2" opacity="0.100000001" stroke-linecap="round"></path>
    </g>
</svg>