<?xml version="1.0" encoding="UTF-8"?>
<svg width="64px" height="64px" viewBox="0 0 64 64" version="1.1" xmlns="http://www.w3.org/2000/svg" xmlns:xlink="http://www.w3.org/1999/xlink">
    <title>notifiaction</title>
    <g id="notifiaction" stroke="none" stroke-width="1" fill="none" fill-rule="evenodd">
        <path d="M38,54 C38,56.209139 36.209139,58 34,58 L30,58 C27.790861,58 26,56.209139 26,54 L38,54 Z M32,6 C33.1045695,6 34,6.8954305 34,8 L34,8 L34.0002015,11.1218466 C41.5652606,12.0496606 47.5977699,18.1732391 48.2456822,25.9481864 L50,47 L52.0913025,50.4855042 C52.3754507,50.9590845 52.2218856,51.5733448 51.7483054,51.8574929 C51.59289,51.9507422 51.4150536,52 51.2338096,52 L12.7661904,52 C12.2139056,52 11.7661904,51.5522847 11.7661904,51 C11.7661904,50.8187561 11.8154482,50.6409196 11.9086975,50.4855042 L14,47 L15.7543178,25.9481864 C16.4022301,18.1732391 22.4347394,12.0496606 29.9997985,11.1218466 L30,8 C30,6.8954305 30.8954305,6 32,6 Z M32,13 C24.6694974,13 18.5449984,18.5375987 17.7777687,25.7930802 L17.7474093,26.1142773 L15.9930915,47.166091 C15.9727495,47.4101946 15.9077876,47.6479546 15.8019601,47.8677218 L15.7149859,48.0289915 L14.531,50 L49.468,50 L48.2850141,48.0289915 C48.1589885,47.8189488 48.0728899,47.588001 48.0304725,47.3477972 L48.0069085,47.166091 L46.2525907,26.1142773 C45.6348731,18.7016669 39.4383042,13 32,13 Z" id="Combined-Shape" fill="#303F47"></path>
    </g>
</svg>