<?xml version="1.0" encoding="UTF-8"?>
<svg width="64px" height="64px" viewBox="0 0 64 64" version="1.1" xmlns="http://www.w3.org/2000/svg" xmlns:xlink="http://www.w3.org/1999/xlink">
    <title>object</title>
    <g id="object" stroke="none" stroke-width="1" fill="none" fill-rule="evenodd">
        <path d="M18,54 C18.5522847,54 19,54.4477153 19,55 L19,60 C19,60.5522847 18.5522847,61 18,61 C17.4477153,61 17,60.5522847 17,60 L17,55 C17,54.4477153 17.4477153,54 18,54 Z M25,54 C25.5522847,54 26,54.4477153 26,55 L26,60 C26,60.5522847 25.5522847,61 25,61 C24.4477153,61 24,60.5522847 24,60 L24,55 C24,54.4477153 24.4477153,54 25,54 Z M32,54 C32.5522847,54 33,54.4477153 33,55 L33,60 C33,60.5522847 32.5522847,61 32,61 C31.4477153,61 31,60.5522847 31,60 L31,55 C31,54.4477153 31.4477153,54 32,54 Z M39,54 C39.5522847,54 40,54.4477153 40,55 L40,60 C40,60.5522847 39.5522847,61 39,61 C38.4477153,61 38,60.5522847 38,60 L38,55 C38,54.4477153 38.4477153,54 39,54 Z M46,54 C46.5522847,54 47,54.4477153 47,55 L47,60 C47,60.5522847 46.5522847,61 46,61 C45.4477153,61 45,60.5522847 45,60 L45,55 C45,54.4477153 45.4477153,54 46,54 Z M48,12 C50.209139,12 52,13.790861 52,16 L52,48 C52,50.209139 50.209139,52 48,52 L16,52 C13.790861,52 12,50.209139 12,48 L12,16 C12,13.790861 13.790861,12 16,12 L48,12 Z M48,14 L16,14 C14.9456382,14 14.0818349,14.8158778 14.0054857,15.8507377 L14,16 L14,48 C14,49.0543618 14.8158778,49.9181651 15.8507377,49.9945143 L16,50 L48,50 C49.0543618,50 49.9181651,49.1841222 49.9945143,48.1492623 L50,48 L50,16 C50,14.9456382 49.1841222,14.0818349 48.1492623,14.0054857 L48,14 Z M9,45 C9.55228475,45 10,45.4477153 10,46 C10,46.5522847 9.55228475,47 9,47 L4,47 C3.44771525,47 3,46.5522847 3,46 C3,45.4477153 3.44771525,45 4,45 L9,45 Z M60,45 C60.5522847,45 61,45.4477153 61,46 C61,46.5522847 60.5522847,47 60,47 L55,47 C54.4477153,47 54,46.5522847 54,46 C54,45.4477153 54.4477153,45 55,45 L60,45 Z M9,38 C9.55228475,38 10,38.4477153 10,39 C10,39.5522847 9.55228475,40 9,40 L4,40 C3.44771525,40 3,39.5522847 3,39 C3,38.4477153 3.44771525,38 4,38 L9,38 Z M60,38 C60.5522847,38 61,38.4477153 61,39 C61,39.5522847 60.5522847,40 60,40 L55,40 C54.4477153,40 54,39.5522847 54,39 C54,38.4477153 54.4477153,38 55,38 L60,38 Z M26.7369686,25.2258357 L26.8384227,25.3154235 L32,30.477 L37.1615773,25.3154235 L37.2630314,25.2258357 C37.6854988,24.8973474 38.296363,24.92721 38.6845765,25.3154235 C39.0751008,25.7059478 39.1029954,26.3217813 38.7682603,26.7444926 L38.6845765,26.8384227 L33.523,32 L38.6845765,37.1615773 C39.1051412,37.5821419 39.1051412,38.2640119 38.6845765,38.6845765 C38.296363,39.07279 37.6854988,39.1026526 37.2630314,38.7741643 L37.1615773,38.6845765 L32,33.523 L26.8384227,38.6845765 L26.7369686,38.7741643 C26.3145012,39.1026526 25.703637,39.07279 25.3154235,38.6845765 C24.9248992,38.2940522 24.8970046,37.6782187 25.2317397,37.2555074 L25.3154235,37.1615773 L30.477,32 L25.3154235,26.8384227 C24.8948588,26.4178581 24.8948588,25.7359881 25.3154235,25.3154235 C25.703637,24.92721 26.3145012,24.8973474 26.7369686,25.2258357 Z M9,31 C9.55228475,31 10,31.4477153 10,32 C10,32.5522847 9.55228475,33 9,33 L4,33 C3.44771525,33 3,32.5522847 3,32 C3,31.4477153 3.44771525,31 4,31 L9,31 Z M60,31 C60.5522847,31 61,31.4477153 61,32 C61,32.5522847 60.5522847,33 60,33 L55,33 C54.4477153,33 54,32.5522847 54,32 C54,31.4477153 54.4477153,31 55,31 L60,31 Z M9,24 C9.55228475,24 10,24.4477153 10,25 C10,25.5522847 9.55228475,26 9,26 L4,26 C3.44771525,26 3,25.5522847 3,25 C3,24.4477153 3.44771525,24 4,24 L9,24 Z M60,24 C60.5522847,24 61,24.4477153 61,25 C61,25.5522847 60.5522847,26 60,26 L55,26 C54.4477153,26 54,25.5522847 54,25 C54,24.4477153 54.4477153,24 55,24 L60,24 Z M9,17 C9.55228475,17 10,17.4477153 10,18 C10,18.5522847 9.55228475,19 9,19 L4,19 C3.44771525,19 3,18.5522847 3,18 C3,17.4477153 3.44771525,17 4,17 L9,17 Z M60,17 C60.5522847,17 61,17.4477153 61,18 C61,18.5522847 60.5522847,19 60,19 L55,19 C54.4477153,19 54,18.5522847 54,18 C54,17.4477153 54.4477153,17 55,17 L60,17 Z M18,3 C18.5522847,3 19,3.44771525 19,4 L19,9 C19,9.55228475 18.5522847,10 18,10 C17.4477153,10 17,9.55228475 17,9 L17,4 C17,3.44771525 17.4477153,3 18,3 Z M25,3 C25.5522847,3 26,3.44771525 26,4 L26,9 C26,9.55228475 25.5522847,10 25,10 C24.4477153,10 24,9.55228475 24,9 L24,4 C24,3.44771525 24.4477153,3 25,3 Z M32,3 C32.5522847,3 33,3.44771525 33,4 L33,9 C33,9.55228475 32.5522847,10 32,10 C31.4477153,10 31,9.55228475 31,9 L31,4 C31,3.44771525 31.4477153,3 32,3 Z M39,3 C39.5522847,3 40,3.44771525 40,4 L40,9 C40,9.55228475 39.5522847,10 39,10 C38.4477153,10 38,9.55228475 38,9 L38,4 C38,3.44771525 38.4477153,3 39,3 Z M46,3 C46.5522847,3 47,3.44771525 47,4 L47,9 C47,9.55228475 46.5522847,10 46,10 C45.4477153,10 45,9.55228475 45,9 L45,4 C45,3.44771525 45.4477153,3 46,3 Z" id="Combined-Shape" fill="#303F47" fill-rule="nonzero"></path>
    </g>
</svg>