<?xml version="1.0" encoding="UTF-8"?>
<svg width="64px" height="64px" viewBox="0 0 64 64" version="1.1" xmlns="http://www.w3.org/2000/svg" xmlns:xlink="http://www.w3.org/1999/xlink">
    <title>search</title>
    <g id="search" stroke="none" stroke-width="1" fill="none" fill-rule="evenodd">
        <path d="M27.5,7 C38.2695526,7 47,15.7304474 47,26.5 C47,31.5998209 45.042278,36.2423913 41.8373683,39.717177 L58.0606602,55.9393398 L55.9393398,58.0606602 L39.6391493,41.7617258 C36.3082332,44.4146479 32.089256,46 27.5,46 C16.7304474,46 8,37.2695526 8,26.5 C8,15.7304474 16.7304474,7 27.5,7 Z M27.5,9 C17.8350169,9 10,16.8350169 10,26.5 C10,36.1649831 17.8350169,44 27.5,44 C37.1649831,44 45,36.1649831 45,26.5 C45,16.8350169 37.1649831,9 27.5,9 Z M22.6128994,20.2097046 L22.7071068,20.2928932 L27.5,25.085 L32.2928932,20.2928932 L32.3871006,20.2097046 C32.7793918,19.9046797 33.3466228,19.9324093 33.7071068,20.2928932 C34.0976311,20.6834175 34.0976311,21.3165825 33.7071068,21.7071068 L33.7071068,21.7071068 L28.915,26.5 L33.7071068,31.2928932 C34.0976311,31.6834175 34.0976311,32.3165825 33.7071068,32.7071068 C33.3466228,33.0675907 32.7793918,33.0953203 32.3871006,32.7902954 L32.2928932,32.7071068 L27.5,27.915 L22.7071068,32.7071068 L22.6128994,32.7902954 C22.2206082,33.0953203 21.6533772,33.0675907 21.2928932,32.7071068 C20.9023689,32.3165825 20.9023689,31.6834175 21.2928932,31.2928932 L21.2928932,31.2928932 L26.085,26.5 L21.2928932,21.7071068 C20.9023689,21.3165825 20.9023689,20.6834175 21.2928932,20.2928932 C21.6533772,19.9324093 22.2206082,19.9046797 22.6128994,20.2097046 Z" id="Combined-Shape" fill="#53707f" fill-rule="nonzero"></path>
    </g>
</svg>