<?xml version="1.0" encoding="utf-8"?>
<!-- Generator: Adobe Illustrator 16.0.0, SVG Export Plug-In . SVG Version: 6.00 Build 0)  -->
<!DOCTYPE svg PUBLIC "-//W3C//DTD SVG 1.1//EN" "http://www.w3.org/Graphics/SVG/1.1/DTD/svg11.dtd">
<svg version="1.1" id="Layer_1" xmlns="http://www.w3.org/2000/svg" xmlns:xlink="http://www.w3.org/1999/xlink" x="0px" y="0px"
	 width="18px" height="18px" viewBox="4.5 14.5 18 18" enable-background="new 4.5 14.5 18 18" xml:space="preserve">
<path fill="#2CA0DA" d="M13.5,29.031c0.827,0,1.5-0.672,1.5-1.5c-0.844,0-2.279,0-3,0C12,28.359,12.673,29.031,13.5,29.031z"/>
<path fill="#2CA0DA" d="M18.093,21.318c0.579,0.828,0.578,2.591-0.001,3.43l0.822,0.568c0.816-1.184,0.814-3.402-0.001-4.57
	L18.093,21.318z"/>
<path fill="#2CA0DA" d="M20.418,19.254l-0.83,0.559c1.229,1.828,1.229,4.602-0.001,6.443l0.832,0.555
	C21.859,24.648,21.859,21.398,20.418,19.254z"/>
<path fill="#2CA0DA" d="M8.906,24.521c-0.579-0.828-0.578-2.59,0.002-3.432l-0.822-0.566c-0.816,1.182-0.816,3.401,0.001,4.569
	L8.906,24.521z"/>
<path fill="#2CA0DA" d="M6.581,19.031c-1.44,2.16-1.44,5.41,0.001,7.557l0.83-0.559c-1.229-1.829-1.229-4.6,0.001-6.443
	L6.581,19.031z"/>
<path fill="#2CA0DA" d="M16.499,21.531c0-1.307-0.845-2.406-2.015-2.818c0.005-0.074,0.008-0.148,0.008-0.213
	c0-0.552-0.45-1-1.004-1c-0.555,0-1.004,0.448-1.004,1c0,0.064,0,0.139,0,0.215c-1.166,0.414-1.984,1.512-1.984,2.816v2.5l-2.5,2.5
	h11l-2.501-2.5V21.531z"/>
</svg>
