<?xml version="1.0" encoding="UTF-8" standalone="no"?>
<!-- Created with Inkscape (http://www.inkscape.org/) -->

<svg
   xmlns:dc="http://purl.org/dc/elements/1.1/"
   xmlns:cc="http://creativecommons.org/ns#"
   xmlns:rdf="http://www.w3.org/1999/02/22-rdf-syntax-ns#"
   xmlns:svg="http://www.w3.org/2000/svg"
   xmlns="http://www.w3.org/2000/svg"
   version="1.1"
   width="18"
   height="18"
   id="svg2"
   xml:space="preserve"><metadata
     id="metadata8"><rdf:RDF><cc:Work
         rdf:about=""><dc:format>image/svg+xml</dc:format><dc:type
           rdf:resource="http://purl.org/dc/dcmitype/StillImage" /><dc:title></dc:title></cc:Work></rdf:RDF></metadata><defs
     id="defs6"><clipPath
       id="clipPath16"><path
         d="m 0,255.333 255.333,0 L 255.333,0 0,0 0,255.333 z"
         id="path18" /></clipPath></defs><path
     d="M 2.8125,4 C 2.4801,4 2.183625,4.212675 2.0625,4.5 l 5.71875,4.09375 c 0.7754103,0.5632361 1.6479461,0.5674077 2.40625,0 l 0.03125,0 L 15.9375,4.5 C 15.816375,4.212675 15.5199,4 15.1875,4 L 2.8125,4 z"
     id="path3786"
     style="fill:#2ca0da;fill-opacity:1;stroke:none" /><path
     d="M 2,5.6875 2,11.3125 5.9375,8.5 2,5.6875 z m 14,0 L 12.0625,8.5 16,11.3125 16,5.6875 z M 6.8125,9.09375 2.0625,12.5 c 0.1246406,0.290841 0.4176,0.5 0.75,0.5 l 12.375,0 c 0.3324,0 0.625359,-0.209159 0.75,-0.5 l -4.71875,-3.375 -0.40625,0.28125 -0.03125,0 c -1.0791645,0.790819 -2.4838924,0.78347 -3.5625,0 L 6.8125,9.09375 z"
     id="rect2988"
     style="fill:#2ca0da;fill-opacity:1;stroke:none" /></svg>