<?xml version="1.0" encoding="UTF-8" standalone="no"?>
<!-- Created with Inkscape (http://www.inkscape.org/) -->

<svg
   xmlns:dc="http://purl.org/dc/elements/1.1/"
   xmlns:cc="http://creativecommons.org/ns#"
   xmlns:rdf="http://www.w3.org/1999/02/22-rdf-syntax-ns#"
   xmlns:svg="http://www.w3.org/2000/svg"
   xmlns="http://www.w3.org/2000/svg"
   version="1.1"
   width="18"
   height="18"
   id="svg2"
   xml:space="preserve"><metadata
     id="metadata8"><rdf:RDF><cc:Work
         rdf:about=""><dc:format>image/svg+xml</dc:format><dc:type
           rdf:resource="http://purl.org/dc/dcmitype/StillImage" /><dc:title></dc:title></cc:Work></rdf:RDF></metadata><defs
     id="defs6"><clipPath
       id="clipPath18"><path
         d="M 0,256 256,256 256,0 0,0 0,256 z"
         id="path20" /></clipPath></defs><path
     d="m 13.5,12 0,3.5 -9,0 0,-3.368534"
     id="path3007-1"
     style="fill:none;stroke:#2ca0da;stroke-width:1;stroke-linecap:butt;stroke-linejoin:round;stroke-miterlimit:4;stroke-opacity:1;stroke-dasharray:none" /><path
     d="M 4.34375,7 C 3.6050834,7 3,7.6050833 3,8.34375 l 0,3.3125 C 3,12.394917 3.6050834,13 4.34375,13 l 9.3125,0 C 14.394916,13 15,12.394917 15,11.65625 l 0,-3.3125 C 15,7.6050833 14.394916,7 13.65625,7 z M 4,8 l 1,0 0,3.25 1.65625,0 0,0.75 L 4,12 z m 4.75,0 c 0.1636631,-3.39e-4 0.4169191,0.067329 0.625,0.15625 0.2080758,0.088927 0.3818576,0.2096083 0.53125,0.375 0.151165,0.1653988 0.260159,0.3572195 0.34375,0.59375 0.08536,0.236536 0.124997,0.4842515 0.125,0.78125 C 10.3661,10.315628 10.32268,10.593381 10.25,10.875 10.16641,11.111535 10.057415,11.334606 9.90625,11.5 9.7568576,11.665399 9.5830758,11.786079 9.375,11.875 9.1686978,11.962146 8.9659519,12 8.71875,12 8.4679873,12 8.2411051,11.962134 8.03125,11.875 7.8231704,11.78608 7.6511673,11.665399 7.5,11.5 7.3506097,11.334607 7.2085866,11.111533 7.125,10.875 7.0192037,10.525439 6.9900441,10.248644 7,9.90625 7,9.6092515 7.043192,9.3615361 7.125,9.125 7.2085866,8.8884696 7.31936,8.6966488 7.46875,8.53125 7.6199175,8.3658584 7.7606703,8.2451761 7.96875,8.15625 8.1802942,8.0717707 8.3948334,8 8.75,8 z m 3.65625,0 c 0.268541,4e-6 0.495426,0.027949 0.6875,0.09375 0.19207,0.064031 0.371951,0.1638763 0.5,0.28125 0.128054,0.1173813 0.213665,0.2444143 0.28125,0.40625 0.06758,0.161842 0.10544,0.3686519 0.125,0.5625 l -0.90625,0 C 13.07953,9.247717 13.06147,9.1684478 13.03125,9.09375 12.891076,8.8112454 12.738218,8.7449748 12.5,8.71875 12.364527,8.71094 12.278078,8.739898 12.15625,8.8125 12.024742,8.890866 11.812639,9.124805 11.75,9.375 11.6905,9.6478247 11.68668,9.7178724 11.6875,10 c 0.01563,0.387703 0.08715,0.804373 0.21875,1 0.133385,0.193853 0.340448,0.28125 0.625,0.28125 0.194962,-0.0066 0.373604,-0.04163 0.5625,-0.15625 l 0,-0.5 -0.6875,0 0,-0.625 1.59375,0 0,1.46875 c -0.118418,0.16164 -0.298096,0.275184 -0.53125,0.375 -0.321136,0.114818 -0.568696,0.148524 -1,0.15625 C 12.209096,12 11.959855,11.95858 11.75,11.875 11.540142,11.7914 11.368138,11.660061 11.21875,11.5 11.069359,11.339939 10.956807,11.139228 10.875,10.90625 10.79497,10.671495 10.75,10.427337 10.75,10.125 10.7184,9.7660326 10.77249,9.3642242 10.875,9.09375 10.95681,8.8590077 11.072917,8.6600634 11.21875,8.5 11.557018,8.1212693 11.908983,8.019538 12.40625,8 z M 8.625,8.75 C 8.363103,8.7568289 8.1808086,8.8861582 8.09375,9.03125 7.9710353,9.2304392 7.9375,9.5203294 7.9375,9.90625 7.925422,10.285098 7.947961,10.64323 8.09375,10.9375 8.1965804,11.134207 8.4385152,11.25 8.6875,11.25 8.9258099,11.25 9.0906994,11.17152 9.21875,10.96875 9.4027855,10.585244 9.3924947,10.274137 9.3970971,9.9007257 9.3970971,9.5148051 9.3485766,9.2929392 9.21875,9.09375 9.0399185,8.8498201 8.8689942,8.7578157 8.625,8.75 z"
     id="path2998"
     style="fill:#2ca0da;fill-opacity:1;stroke:none" /><path
     d="m 4.5,7.5 0,-5 6.5,0 2.5,2.5 0,2.5"
     id="path3007"
     style="fill:none;stroke:#2ca0da;stroke-width:1;stroke-linecap:butt;stroke-linejoin:round;stroke-miterlimit:4;stroke-opacity:1;stroke-dasharray:none" /><path
     d="m 10.5,2.5 0,3 3,0 -3,-3"
     id="path3777"
     style="fill:#2ca0da;fill-opacity:1;stroke:#2ca0da;stroke-width:1;stroke-linecap:butt;stroke-linejoin:round;stroke-miterlimit:4;stroke-opacity:1;stroke-dasharray:none" /></svg>