<?xml version="1.0" encoding="UTF-8" standalone="no"?>
<!-- Created with Inkscape (http://www.inkscape.org/) -->

<svg
   xmlns:dc="http://purl.org/dc/elements/1.1/"
   xmlns:cc="http://creativecommons.org/ns#"
   xmlns:rdf="http://www.w3.org/1999/02/22-rdf-syntax-ns#"
   xmlns:svg="http://www.w3.org/2000/svg"
   xmlns="http://www.w3.org/2000/svg"
   version="1.1"
   width="200"
   height="200"
   id="svg2"
   xml:space="preserve"><metadata
     id="metadata8"><rdf:RDF><cc:Work
         rdf:about=""><dc:format>image/svg+xml</dc:format><dc:type
           rdf:resource="http://purl.org/dc/dcmitype/StillImage" /><dc:title></dc:title></cc:Work></rdf:RDF></metadata><defs
     id="defs6"><clipPath
       id="clipPath20"><path
         d="M 0,512 512,512 512,0 0,0 0,512 z"
         id="path22" /></clipPath></defs><text
     x="44"
     y="152"
     id="text12"
     style="font-size:4.6875px"><tspan
       x="44 59.950253 76.651962 81.790947 93.741516 99.534996 115.19437 131.14462 145.97981"
       y="152"
       id="tspan14"
       style="font-size:24.24050713px;font-variant:normal;font-weight:normal;font-stretch:normal;writing-mode:lr-tb;fill:#6d6f71;fill-opacity:1;fill-rule:nonzero;stroke:none;font-family:Myriad Pro;-inkscape-font-specification:MyriadPro-Regular">NO SIGNAL</tspan></text>
<path
     d="m 126.71937,80.994258 c 0,-15.483203 -12.54257,-28.009766 -28.015229,-28.01836 -15.478907,0.0086 -28.028125,12.535157 -28.028125,28.01836 0,11.392187 6.81875,21.181642 16.591406,25.557812 0.238281,0.10664 0.487109,0.15977 0.736328,0.15977 0.692578,0 1.354687,-0.4043 1.655859,-1.06875 0.408594,-0.91524 0,-1.98594 -0.912109,-2.39219 -8.517188,-3.825002 -14.453906,-12.339455 -14.448438,-22.256642 0.01992,-13.471485 10.923829,-24.363672 24.405079,-24.39336 13.470699,0.02969 24.366799,10.921875 24.389059,24.39336 0,9.378906 -5.30312,17.516406 -13.09179,21.605472 -0.88204,0.46562 -1.225,1.55351 -0.7543,2.44765 0.46172,0.88321 1.55664,1.22383 2.44648,0.75782 l -0.003,0 c 8.92422,-4.67852 15.0289,-14.035942 15.0289,-24.810942"
     id="path26"
     style="fill:#58595b;fill-opacity:1;fill-rule:nonzero;stroke:none" /><path
     d="m 98.760391,44.446797 c -20.200391,0 -36.5625,16.347265 -36.5625,36.547656 0,14.816797 8.841796,27.560937 21.53164,33.292967 0.145703,0.0641 0.296875,0.0981 0.449219,0.0981 0.421094,0 0.820313,-0.24258 1.005469,-0.64492 0.252344,-0.56016 0.0066,-1.20703 -0.545703,-1.45821 C 72.705703,106.88859 64.402969,94.9175 64.402969,80.994453 64.431875,62.015938 79.776406,46.692109 98.760391,46.649922 c 18.968749,0.04219 34.311719,15.366016 34.346489,34.344531 0,13.284375 -7.56485,24.789457 -18.61524,30.506637 -0.54375,0.27891 -0.75234,0.94493 -0.47148,1.4836 0.27343,0.53867 0.94179,0.75586 1.48164,0.47265 11.75273,-6.075 19.80312,-18.324996 19.80312,-32.462887 0,-20.20039 -16.3582,-36.547656 -36.544529,-36.547656"
     id="path30"
     style="fill:#2ca0da;fill-opacity:1;fill-rule:nonzero;stroke:none" /><path
     d="m 104.27559,119.07254 -2.9418,0 0,-25.719532 c -0.83125,0.198047 -1.691017,0.3125 -2.58086,0.3125 -0.888672,0 -1.750782,-0.114453 -2.582032,-0.3125 l 0,25.719532 -2.939453,0 c -0.933203,0 -1.697656,0.76406 -1.697656,1.70078 l 0,0.1 c 0,0.93438 0.764453,1.69844 1.697656,1.69844 l 11.044145,0 c 0.93242,0 1.69648,-0.76406 1.69648,-1.69844 l 0,-0.1 c 0,-0.93672 -0.76406,-1.70078 -1.69648,-1.70078"
     id="path34"
     style="fill:#bbbcbf;fill-opacity:1;fill-rule:nonzero;stroke:none" /><path
     d="m 116.80645,80.985742 c -0.002,-9.972265 -8.0918,-18.05664 -18.05352,-18.060937 -9.964844,0.0043 -18.056641,8.088672 -18.059766,18.060937 0.0031,6.969141 3.975,13.029297 9.776563,16.026172 0.377734,0.198047 0.782031,0.295703 1.183593,0.295703 0.927735,0 1.827344,-0.510937 2.287891,-1.39414 0.654687,-1.26211 0.159766,-2.820313 -1.102734,-3.473829 -4.153516,-2.154296 -6.996485,-6.485937 -6.99336,-11.453906 0.01524,-7.115625 5.796094,-12.898828 12.907813,-12.911719 7.1082,0.01289 12.88984,5.796094 12.90039,12.911719 0.004,4.57461 -2.39492,8.597656 -6.01133,10.887891 -1.20156,0.764062 -1.56328,2.35625 -0.8,3.554687 0.76094,1.204688 2.35625,1.558203 3.55664,0.800391 5.04688,-3.191016 8.40782,-8.837891 8.40782,-15.242969"
     id="path38"
     style="fill:#939497;fill-opacity:1;fill-rule:nonzero;stroke:none" /><path
     d="m 106.39137,80.985742 c 0,-4.223047 -3.41524,-7.641406 -7.637112,-7.641406 -4.221094,0 -7.640625,3.418359 -7.640625,7.641406 0,4.20625 3.419531,7.628906 7.640625,7.628906 4.221872,0 7.637112,-3.422656 7.637112,-7.628906"
     id="path42"
     style="fill:#bbbcbf;fill-opacity:1;fill-rule:nonzero;stroke:none" /></svg>