<?xml version="1.0" encoding="UTF-8" standalone="no"?>
<!-- Created with Inkscape (http://www.inkscape.org/) -->

<svg
   xmlns:dc="http://purl.org/dc/elements/1.1/"
   xmlns:cc="http://creativecommons.org/ns#"
   xmlns:rdf="http://www.w3.org/1999/02/22-rdf-syntax-ns#"
   xmlns:svg="http://www.w3.org/2000/svg"
   xmlns="http://www.w3.org/2000/svg"
   version="1.1"
   width="200"
   height="200"
   id="svg2"
   xml:space="preserve"><metadata
     id="metadata8"><rdf:RDF><cc:Work
         rdf:about=""><dc:format>image/svg+xml</dc:format><dc:type
           rdf:resource="http://purl.org/dc/dcmitype/StillImage" /><dc:title></dc:title></cc:Work></rdf:RDF></metadata><defs
     id="defs6"><clipPath
       id="clipPath16"><path
         d="M 0,512 512,512 512,0 0,0 0,512 z"
         id="path18" /></clipPath></defs><g
     transform="matrix(0.390625,0,0,-0.390625,0,200)"
     id="g10"><g
       id="g12"
       style="fill:#d4d4d4;fill-opacity:1"><g
         clip-path="url(#clipPath16)"
         id="g14"
         style="fill:#d4d4d4;fill-opacity:1"><g
           transform="translate(249.105,184.0569)"
           id="g20"
           style="fill:#d4d4d4;fill-opacity:1"><path
             d="M 0,0 C -1.734,3.136 -2.27,6.541 -2.302,10.384 L -24.386,111.919 -55.243,61.339 C -61.328,48.953 -75.106,40.261 -89.198,39.94 l -45.753,0 0,13.434 45.753,0 c 7.488,-0.32 18.604,6.702 21.398,13.467 l 35.975,61.627 c 1.192,2.57 2.354,4.657 3.837,6.509 1.499,1.627 3.302,3.929 7.868,4.175 5.733,-0.246 7.894,-4.667 8.494,-6.798 0.793,-2.536 1.017,-5.137 1.049,-8.317 L 11.476,10.384 c -0.011,-0.503 0.01,-0.985 0.043,-1.37 0.31,0.278 0.642,0.599 0.995,0.973 l 33.409,36.558 c 9.174,9.58 24.397,16.26 37.82,16.485 l 63.973,0 0,-13.402 -63.973,0 C 75.608,49.885 61.478,43.708 56.211,37.606 L 22.769,1.049 C 19.151,-2.719 15.447,-5.663 9.837,-5.899 l -0.299,0 C 5.47,-5.899 1.563,-3.093 0,0 m 83.743,36.203 63.609,0 0,-55.054 c 0,-18.006 -14.719,-32.735 -32.736,-32.735 l -217.399,0 c -18.015,0 -32.74,14.729 -32.74,32.735 l 0,45.388 46.646,0 c 19.001,0.439 37.29,11.829 45.769,28.389 L -30.542,75.544 -16.047,8.81 c 0.139,-4.046 0.819,-9.603 3.704,-14.762 4.057,-8.007 12.846,-13.359 21.881,-13.359 l 0.802,0 c 10.759,0.375 17.685,6.186 22.716,11.433 l 33.753,36.877 c 2.302,2.677 12.01,7.204 16.934,7.204 m 63.609,115.549 0,-75.298 -63.865,0 C 66.274,76.133 47.572,67.965 35.647,55.462 L 20.05,38.42 3.158,125.397 c -0.065,3.211 -0.375,6.904 -1.499,10.49 -2.719,9.677 -11.037,16.229 -21.137,16.668 l -0.711,0.042 -0.713,-0.042 c -10.051,-0.546 -15.227,-6.274 -17.154,-8.435 l -0.498,-0.536 -0.235,-0.3 c -2.425,-2.987 -4.068,-6.058 -5.353,-8.746 l -35.626,-61.081 -0.39,-0.622 -0.358,-0.856 c -1.071,-1.916 -5.995,-5.031 -8.698,-5.18 l -46.309,0 0,84.953 c 0,17.995 14.725,32.756 32.74,32.756 l 217.399,0 c 18.017,0 32.736,-14.761 32.736,-32.756 M 161.14,-18.851 c 0,-25.649 -20.864,-46.534 -46.524,-46.534 l -217.399,0 c -25.654,0 -46.517,20.885 -46.517,46.534 l 0,170.603 c 0,25.638 20.863,46.534 46.517,46.534 l 217.399,0 c 25.66,0 46.524,-20.896 46.524,-46.534 l 0,-170.603 z m -46.524,230.903 -217.399,0 c -33.26,0 -60.3,-27.041 -60.3,-60.3 l 0,-170.625 c 0,-33.227 27.04,-60.268 60.3,-60.268 l 217.399,0 c 33.26,0 60.301,27.041 60.301,60.268 l 0,170.625 c 0,33.259 -27.041,60.3 -60.301,60.3"
             id="path22"
             style="fill:#d4d4d4;fill-opacity:1;fill-rule:nonzero;stroke:none" /></g></g></g></g></svg>