<?xml version="1.0" encoding="UTF-8" standalone="no"?>
<!-- Created with Inkscape (http://www.inkscape.org/) -->

<svg
   xmlns:dc="http://purl.org/dc/elements/1.1/"
   xmlns:cc="http://creativecommons.org/ns#"
   xmlns:rdf="http://www.w3.org/1999/02/22-rdf-syntax-ns#"
   xmlns:svg="http://www.w3.org/2000/svg"
   xmlns="http://www.w3.org/2000/svg"
   version="1.1"
   width="200"
   height="200"
   id="svg2"
   xml:space="preserve"><metadata
     id="metadata8"><rdf:RDF><cc:Work
         rdf:about=""><dc:format>image/svg+xml</dc:format><dc:type
           rdf:resource="http://purl.org/dc/dcmitype/StillImage" /><dc:title></dc:title></cc:Work></rdf:RDF></metadata><defs
     id="defs6"><clipPath
       id="clipPath20"><path
         d="M 0,512 512,512 512,0 0,0 0,512 z"
         id="path22" /></clipPath></defs><text
     x="54"
     y="152"
     id="text12"
     style="font-size:4.6875px"><tspan
       x="54 69.950249 86.651962 91.790947 107.59576 120.56443 130.79393"
       y="152"
       id="tspan14"
       style="font-size:24.24050713px;font-variant:normal;font-weight:normal;font-stretch:normal;writing-mode:lr-tb;fill:#6d6f71;fill-opacity:1;fill-rule:nonzero;stroke:none;font-family:Myriad Pro;-inkscape-font-specification:MyriadPro-Regular">NO DATA</tspan></text>
<g
     transform="matrix(0.390625,0,0,-0.390625,100.60172,73.907578)"
     id="g24"
     style="fill:#2ca0da;fill-opacity:1"><path
       d="m 0,0 c -10.064,0 -18.207,-8.149 -18.207,-18.205 0,-10.03 8.143,-18.173 18.207,-18.173 10.037,0 18.187,8.143 18.187,18.173 C 18.187,-8.149 10.037,0 0,0"
       id="path26"
       style="fill:#2ca0da;fill-opacity:1;fill-rule:nonzero;stroke:none" /></g><g
     transform="matrix(0.390625,0,0,-0.390625,118.65523,90.173359)"
     id="g28"><path
       d="m 0,0 c -2.668,6.998 -5.863,14.264 -9.498,21.712 4.21,8.558 7.788,16.91 10.69,24.866 C 20.865,41.35 33.12,32.939 33.12,23.443 33.12,13.761 20.384,5.215 0,0 m -23.841,-4.142 c 1.81,2.897 3.614,5.884 5.372,8.938 2.511,4.352 4.854,8.704 7.046,13.009 3.012,-6.538 5.471,-12.805 7.442,-18.762 -6.077,-1.355 -12.71,-2.432 -19.86,-3.185 m -8.662,-0.701 c -4.759,-0.309 -9.671,-0.492 -14.771,-0.492 -5.492,0 -10.754,0.246 -15.885,0.591 -2.621,3.965 -5.241,8.133 -7.767,12.517 -3.51,6.088 -6.591,12.064 -9.316,17.909 1.957,3.863 4.022,7.757 6.288,11.693 2.892,5.014 5.873,9.723 8.881,14.172 5.696,0.426 11.643,0.672 17.799,0.672 5.764,0 11.345,-0.198 16.702,-0.583 3.221,-4.723 6.412,-9.752 9.493,-15.098 2.123,-3.672 4.085,-7.305 5.905,-10.892 -2.61,-5.54 -5.586,-11.262 -8.923,-17.037 -2.725,-4.723 -5.539,-9.205 -8.406,-13.452 m -15.351,-20.07 c -3.452,3.923 -6.92,8.28 -10.357,13.024 3.442,-0.126 6.915,-0.215 10.456,-0.215 3.489,0 6.925,0.053 10.325,0.184 -3.463,-4.744 -6.956,-9.065 -10.424,-12.993 m -41.782,-22.423 c -8.149,4.702 -9.206,19.473 -3.996,39.009 8.275,-1.444 17.266,-2.469 26.681,-3.086 4.577,-6.857 9.263,-13.196 13.971,-18.982 -14.646,-14.912 -28.365,-21.738 -36.656,-16.941 m 5.586,65.088 c 2.187,-4.288 4.504,-8.619 7.004,-12.956 1.742,-3.028 3.515,-5.968 5.32,-8.845 -7.077,0.759 -13.631,1.873 -19.652,3.244 1.936,5.894 4.373,12.108 7.328,18.557 m -5.037,30.466 c 6.068,1.273 12.684,2.267 19.73,2.939 -2.61,-4.04 -5.189,-8.214 -7.689,-12.548 -1.747,-3.028 -3.405,-6.033 -5,-9.03 -2.887,6.496 -5.205,12.739 -7.041,18.639 m 2.469,44.279 c 8.134,4.692 21.472,-1.768 35.793,-16.069 -5.414,-6.446 -10.828,-13.662 -16.079,-21.546 -8.196,-0.534 -16.032,-1.405 -23.385,-2.579 -5.566,20.137 -4.619,35.408 3.671,40.194 m 53.576,-37.351 c -4.801,0.235 -9.712,0.363 -14.713,0.363 -5.047,0 -9.995,-0.128 -14.834,-0.371 4.881,6.912 9.849,13.019 14.75,18.262 4.896,-5.243 9.876,-11.387 14.797,-18.254 m 26.818,-6.808 c -1.868,-5.957 -4.258,-12.3 -7.213,-18.888 -1.617,3.037 -3.264,6.079 -5.032,9.151 -2.542,4.381 -5.142,8.555 -7.789,12.656 7.177,-0.664 13.893,-1.648 20.034,-2.919 m 8.97,2.534 c 4.666,13.816 7.223,26.242 7.38,36.096 -3.091,-3.314 -7.406,-5.421 -12.229,-5.631 1.35,-7.312 0.314,-17.36 -2.95,-29.066 -7.396,1.198 -15.31,2.077 -23.558,2.611 -5.293,7.931 -10.754,15.186 -16.183,21.685 9.127,9.133 17.851,15.041 25.122,16.884 -0.602,1.782 -0.989,3.652 -0.989,5.639 0,1.988 0.387,3.884 1.015,5.673 -8.609,-5.03 -18.296,-13.558 -28.119,-24.754 -19.897,22.682 -39.229,34.509 -49.999,28.295 -10.764,-6.222 -10.184,-28.884 -0.497,-57.432 -29.61,-5.863 -49.496,-16.732 -49.496,-29.165 0,-6.863 6.062,-13.254 16.439,-18.563 0.335,4.859 2.626,9.142 6.099,12.15 -2.103,2.592 -3.296,5.32 -3.296,8.149 0,9.397 12.287,17.714 31.813,22.973 2.897,-7.927 6.444,-16.22 10.639,-24.709 -20.415,-41.405 -25.938,-78.364 -11.712,-86.592 10.781,-6.219 30.123,5.618 50.02,28.292 19.892,-22.674 39.224,-34.511 50.009,-28.292 5.848,3.374 8.327,11.607 7.851,22.983 -2.029,-0.779 -4.21,-1.255 -6.485,-1.255 -1.69,0 -3.291,0.303 -4.828,0.727 -1.156,-2.155 -2.652,-3.902 -4.598,-5.021 -8.384,-4.849 -22.141,1.904 -36.828,16.92 4.712,5.801 9.425,12.167 14.023,19.04 46.076,3.039 80.854,16.737 80.854,33.198 0,12.433 -19.887,23.302 -49.497,29.165"
       id="path30"
       style="fill:#bbbcbf;fill-opacity:1;fill-rule:nonzero;stroke:none" /></g><g
     transform="matrix(0.390625,0,0,-0.390625,120.065,95.730859)"
     id="g32"><path
       d="m 0,0 c -6.151,0 -11.151,-4.99 -11.151,-11.12 0,-6.146 5,-11.141 11.151,-11.141 6.146,0 11.13,4.995 11.13,11.141 C 11.13,-4.99 6.146,0 0,0"
       id="path34"
       style="fill:#939497;fill-opacity:1;fill-rule:nonzero;stroke:none" /></g><g
     transform="matrix(0.390625,0,0,-0.390625,117.5418,55.820352)"
     id="g36"><path
       d="m 0,0 c 6.146,0 11.125,5 11.125,11.138 0,6.149 -4.979,11.136 -11.125,11.136 -6.157,0 -11.147,-4.987 -11.147,-11.136 C -11.147,5 -6.157,0 0,0"
       id="path38"
       style="fill:#393839;fill-opacity:1;fill-rule:nonzero;stroke:none" /></g><g
     transform="matrix(0.390625,0,0,-0.390625,74.267187,85.083789)"
     id="g40"><path
       d="m 0,0 c -6.141,0 -11.126,-4.99 -11.126,-11.146 0,-6.141 4.985,-11.131 11.126,-11.131 6.151,0 11.146,4.99 11.146,11.131 C 11.146,-4.99 6.151,0 0,0"
       id="path42"
       style="fill:#6d6f71;fill-opacity:1;fill-rule:nonzero;stroke:none" /></g></svg>