<?xml version="1.0" encoding="UTF-8" standalone="no"?>
<!-- Created with Inkscape (http://www.inkscape.org/) -->

<svg
   xmlns:dc="http://purl.org/dc/elements/1.1/"
   xmlns:cc="http://creativecommons.org/ns#"
   xmlns:rdf="http://www.w3.org/1999/02/22-rdf-syntax-ns#"
   xmlns:svg="http://www.w3.org/2000/svg"
   xmlns="http://www.w3.org/2000/svg"
   version="1.1"
   width="200"
   height="200"
   id="svg2"
   xml:space="preserve"><metadata
     id="metadata8"><rdf:RDF><cc:Work
         rdf:about=""><dc:format>image/svg+xml</dc:format><dc:type
           rdf:resource="http://purl.org/dc/dcmitype/StillImage" /><dc:title></dc:title></cc:Work></rdf:RDF></metadata><defs
     id="defs6"><clipPath
       id="clipPath16"><path
         d="M 0,512 512,512 512,0 0,0 0,512 z"
         id="path18" /></clipPath></defs><path
     d="m 94.568477,74.255781 c -0.0031,0.779297 -2.307031,2.259766 -2.99375,1.880859 C 83.387618,71.617109 75.217305,67.0675 67.014961,62.575312 66.106758,62.078047 66.180586,61.687422 66.65168,60.94914 c 3.126953,-4.899218 7.114453,-8.934375 11.959375,-12.142968 0.799219,-0.529297 1.160156,-0.389063 1.624609,0.425 4.637501,8.122656 9.314844,16.222265 13.978516,24.329687 0.129688,0.225 0.236719,0.462891 0.354297,0.694922"
     id="path22"
     style="fill:#393839;fill-opacity:1;fill-rule:nonzero;stroke:none" /><path
     d="m 75.753633,82.438789 c 4.484766,0 8.969531,-0.0043 13.454297,0.0043 0.680469,0.0016 1.623047,-0.204297 1.526953,0.914453 -0.08984,1.044922 1.475,2.146094 -0.353516,3.168359 -7.93164,4.432813 -15.808203,8.964844 -23.680859,13.501559 -0.878516,0.50625 -1.273047,0.44531 -1.744531,-0.491012 -2.489453,-4.941406 -3.844141,-10.170703 -4.233203,-15.677734 -0.07852,-1.107422 0.257031,-1.457031 1.382031,-1.442969 4.548828,0.05586 9.099219,0.02305 13.648828,0.02305"
     id="path26"
     style="fill:#58595b;fill-opacity:1;fill-rule:nonzero;stroke:none" /><path
     d="m 120.73672,115.07363 c -0.72773,0.0809 -0.79141,-0.57344 -1.025,-0.97734 -4.61875,-7.97657 -9.20352,-15.972269 -13.85195,-23.931254 -0.54492,-0.932812 -0.17813,-1.376172 0.42617,-1.960547 0.60078,-0.580468 0.97812,-1.245703 2.06992,-0.635156 8.15938,4.560156 16.35547,9.055469 24.54844,13.555467 0.68672,0.37695 0.98945,0.73867 0.49609,1.5086 -3.16601,4.93945 -7.17578,9.02968 -12.14297,12.16757 -0.16367,0.10352 -0.34414,0.18086 -0.5207,0.27266"
     id="path30"
     style="fill:#a6a8ab;fill-opacity:1;fill-rule:nonzero;stroke:none" /><path
     d="m 100.60402,105.94156 c 0,-4.42617 0.10781,-8.85625 -0.0527,-13.276563 -0.0648,-1.776953 1.10937,-1.659765 2.11328,-2.108203 1.17539,-0.525 1.46211,0.267188 1.88672,1.00625 4.43867,7.725391 8.85078,15.466796 13.35859,23.151956 0.79375,1.35312 0.45469,1.82851 -0.81719,2.43554 -4.70273,2.24375 -9.67851,3.33633 -14.82461,3.83985 -1.2582,0.12344 -1.71406,-0.24492 -1.69218,-1.57539 0.0738,-4.49024 0.0281,-8.98203 0.0281,-13.47344"
     id="path34"
     style="fill:#939497;fill-opacity:1;fill-rule:nonzero;stroke:none" /><path
     d="m 79.845469,115.3957 c -0.362891,-0.21953 -0.700391,-0.41289 -1.027734,-0.62305 -4.600782,-2.95117 -8.383204,-6.73281 -11.507813,-11.21015 -0.685156,-0.98164 -0.623047,-1.43203 0.457813,-2.04063 7.860156,-4.424998 15.713281,-8.864451 23.491015,-13.430467 1.417188,-0.832031 1.750781,0.223438 2.535156,0.73711 0.940235,0.615234 0.603125,1.198437 0.192188,1.932812 -4.403906,7.871094 -8.781641,15.757035 -13.183984,23.628905 -0.220704,0.39414 -0.276172,1.03086 -0.956641,1.00547"
     id="path38"
     style="fill:#6d6f71;fill-opacity:1;fill-rule:nonzero;stroke:none" /><path
     d="m 123.97578,82.402578 c 4.54727,0 9.09453,0.03555 13.64102,-0.02305 1.25703,-0.01601 1.71015,0.351953 1.66875,1.657422 -0.16758,5.276563 -1.59415,10.204688 -3.84727,14.940625 -0.47383,0.996094 -0.99336,0.957422 -1.82188,0.495313 -8.04375,-4.487891 -16.09101,-8.969532 -24.1625,-13.408204 -1.00156,-0.550781 -1.16328,-1.136718 -0.88906,-2.201171 0.26485,-1.027344 0.5793,-1.5125 1.76992,-1.492188 4.5461,0.07734 9.09375,0.03125 13.64102,0.03125"
     id="path42"
     style="fill:#bbbcbf;fill-opacity:1;fill-rule:nonzero;stroke:none" /><path
     d="m 98.725664,57.770898 c 0,4.549609 -0.0168,9.099609 0.01406,13.649219 0.0062,0.923047 -0.07578,1.563672 -1.167578,1.864843 -1.103906,0.305079 -1.504687,-0.224999 -1.961328,-1.022656 -4.548437,-7.945703 -9.098047,-15.891015 -13.704687,-23.803125 -0.603516,-1.036719 -0.31211,-1.40664 0.623828,-1.867578 4.6,-2.266406 9.467187,-3.508984 14.551953,-4.021484 1.260937,-0.127344 1.69375,0.229687 1.672266,1.551953 -0.07422,4.548437 -0.02852,9.099219 -0.02852,13.648828"
     id="path46"
     style="fill:#2ca0da;fill-opacity:1;fill-rule:nonzero;stroke:none" /><path
     d="m 65.241836,63.726367 c 8.403906,4.65 16.807422,9.309375 25.226563,13.940625 0.683203,0.376172 0.971093,0.756641 0.660156,1.522266 -0.285156,0.701172 -0.342188,1.414453 -1.471875,1.408203 -9.239453,-0.05117 -18.479688,-0.03906 -27.719141,-0.01367 -0.916406,0.0023 -1.207031,-0.245703 -1.203906,-1.209766 0.01445,-4.212109 2.203516,-12.014062 4.508203,-15.647656"
     id="path50"
     style="fill:#414142;fill-opacity:1;fill-rule:nonzero;stroke:none" /><path
     d="m 98.718164,105.96684 c 0,4.41914 -0.05859,8.83945 0.03164,13.25664 0.03203,1.55391 -0.458985,1.77891 -1.922657,1.63555 -4.701171,-0.46055 -9.171875,-1.65117 -13.482031,-3.56446 -1.178516,-0.52343 -1.541797,-0.90859 -0.799219,-2.21445 4.332813,-7.61836 8.553125,-15.30078 12.832422,-22.949999 0.436719,-0.780859 0.616016,-1.78164 2.101563,-1.401562 1.552734,0.397265 1.229297,1.397656 1.232422,2.370703 0.01367,4.289062 0.0059,8.578518 0.0059,12.867578"
     id="path54"
     style="fill:#808285;fill-opacity:1;fill-rule:nonzero;stroke:none" /><text
     x="44"
     y="152"
     id="text56"
     style="font-size:4.6875px"><tspan
       x="44 54.49614 70.858475 85.693665 101.83784 107.63133 123.58159 139.24095 144.25874 149.27652"
       y="152"
       id="tspan58"
       style="font-size:24.24050713px;font-variant:normal;font-weight:normal;font-stretch:normal;writing-mode:lr-tb;fill:#6d6f71;fill-opacity:1;fill-rule:nonzero;stroke:none;font-family:Myriad Pro;-inkscape-font-specification:MyriadPro-Regular">LOADING...</tspan></text>
</svg>