<svg xmlns="http://www.w3.org/2000/svg" width="20" height="20" fill="none" viewBox="0 0 20 20">
  <g class="20x20/Solid/airplane">
    <path fill="#ffffff" fill-rule="evenodd" d="m5.846 11.772 11.257-3.085c2.185-.599-.144-2.537-1.457-2.124l-2.66.837-5.43-2.063a7.595 7.595 0 0 1-.39-.163c-.517-.228-.732-.323-1.332.298-.468.484-.342.573.042.842.097.067.21.147.335.247l2.654 2.135L4.78 9.981l-1.452-.8c-.445-.366-.657-.17-.972.12l-.074.068c-.379.344-.344.385-.09.692.06.073.133.16.215.27 1.274 1.701 1.64 1.934 3.438 1.441ZM2.5 14a.5.5 0 0 0 0 1h11.444a.5.5 0 1 0 0-1H2.5Z" class="Primary" clip-rule="evenodd"/>
  </g>
</svg>
