<svg xmlns="http://www.w3.org/2000/svg" width="20" height="20" fill="none" viewBox="0 0 20 20">
  <g class="20x20/Solid/all_events">
    <path fill="#A3B8C2" d="M4.087 14.583a.648.648 0 0 1-.478-.192.648.648 0 0 1-.192-.477v-2.66c0-.19.064-.35.192-.478a.648.648 0 0 1 .478-.193h11.826c.19 0 .35.065.478.193a.648.648 0 0 1 .192.477v2.66a.65.65 0 0 1-.192.478.648.648 0 0 1-.478.192H4.087Zm-.129-5.5a.526.526 0 0 1-.541-.537c0-.152.052-.282.155-.387A.52.52 0 0 1 3.958 8h12.084a.526.526 0 0 1 .541.538.532.532 0 0 1-.155.387.52.52 0 0 1-.386.158H3.958Zm0-2.583a.526.526 0 0 1-.541-.537c0-.153.052-.282.155-.388a.52.52 0 0 1 .386-.158h12.084a.526.526 0 0 1 .541.537.532.532 0 0 1-.155.387.52.52 0 0 1-.386.16H3.958Z" class="Primary"/>
  </g>
</svg>
