<svg xmlns="http://www.w3.org/2000/svg" width="20" height="20" fill="none" viewBox="0 0 20 20">
  <g class="20x20/Solid/attention">
    <path fill="#FFCA28" fill-rule="evenodd" d="M1.601 8.586a2 2 0 0 0 0 2.828L8.586 18.4a2 2 0 0 0 2.828 0l6.985-6.985a2 2 0 0 0 0-2.828L11.414 1.6a2 2 0 0 0-2.828 0L1.6 8.586ZM10 5.094a.98.98 0 0 1 .981.98V10a.981.981 0 1 1-1.962 0V6.075A.98.98 0 0 1 10 5.094Zm.981 7.85a.981.981 0 1 1-1.962 0 .981.981 0 0 1 1.962 0Z" class="Primary" clip-rule="evenodd"/>
  </g>
</svg>
