<svg xmlns="http://www.w3.org/2000/svg" width="20" height="20" fill="none" viewBox="0 0 20 20">
  <g class="20x20/Solid/cancel">
    <path fill="#A5B7C0" d="m10 10.817 2.702 2.701c.121.122.256.18.404.176a.604.604 0 0 0 .412-.198.573.573 0 0 0 .191-.408.57.57 0 0 0-.19-.407l-2.702-2.692 2.701-2.692a.574.574 0 0 0 .187-.403.56.56 0 0 0-.187-.412.569.569 0 0 0-.408-.191.571.571 0 0 0-.408.19L10 9.184 7.298 6.482a.567.567 0 0 0-.393-.187c-.14-.003-.274.06-.401.187a.573.573 0 0 0-.191.408c0 .145.063.281.189.408L9.183 10l-2.701 2.702a.525.525 0 0 0-.176.393c.005.14.07.274.198.401a.572.572 0 0 0 .408.191c.145 0 .28-.063.406-.189L10 10.817ZM10.008 18a7.808 7.808 0 0 1-3.11-.625 8.065 8.065 0 0 1-2.553-1.719 8.064 8.064 0 0 1-1.72-2.55A7.816 7.816 0 0 1 2 9.99c0-1.104.208-2.139.625-3.104a8.064 8.064 0 0 1 4.27-4.262A7.815 7.815 0 0 1 10.009 2c1.104 0 2.139.208 3.104.625a8.08 8.08 0 0 1 4.262 4.265c.417.968.625 2.002.625 3.102a7.808 7.808 0 0 1-.625 3.11 8.065 8.065 0 0 1-1.719 2.553 8.08 8.08 0 0 1-2.546 1.72 7.764 7.764 0 0 1-3.102.625Z" class="Primary"/>
  </g>
</svg>
