<svg xmlns="http://www.w3.org/2000/svg" width="20" height="20" fill="none" viewBox="0 0 20 20">
  <g class="20x20/Solid/capslock_text">
    <path fill="#A3B8C2" fill-rule="evenodd" d="M17 14.756a1.99 1.99 0 0 1-1 .267H4a1.99 1.99 0 0 1-1-.267v.356a1 1 0 0 0 1 1h12a1 1 0 0 0 1-1v-.356ZM2 13.023V4.89a1.99 1.99 0 0 1 .882-1.658A1.99 1.99 0 0 1 4 2.89h12a2 2 0 0 1 2 2v10.223a2 2 0 0 1-2 2H4a2 2 0 0 1-2-2v-2.09Zm3.826-6.008h.791c-.013.244-.08.46-.2.647a1.223 1.223 0 0 1-.496.437 1.691 1.691 0 0 1-.754.156c-.233 0-.441-.04-.625-.12a1.293 1.293 0 0 1-.469-.342 1.58 1.58 0 0 1-.293-.54c-.067-.21-.1-.45-.1-.715v-.217c0-.265.035-.504.105-.715.07-.212.17-.392.3-.542.13-.15.287-.265.469-.344.182-.08.386-.12.61-.12.303 0 .559.055.767.164.208.109.37.258.483.449.116.19.185.408.208.652h-.794a.899.899 0 0 0-.078-.35.46.46 0 0 0-.21-.217.822.822 0 0 0-.376-.073.674.674 0 0 0-.3.063.535.535 0 0 0-.212.198c-.056.09-.097.204-.125.342-.028.137-.041.3-.041.488v.222c0 .188.012.35.036.486a1 1 0 0 0 .117.34c.056.09.127.156.213.2a.688.688 0 0 0 .315.066c.141 0 .26-.022.354-.066a.482.482 0 0 0 .217-.205.804.804 0 0 0 .088-.344Zm3-2.364h-.742L6.768 8.206h.85l.226-.708H9.07l.227.708h.85L8.825 4.651Zm.049 2.232H8.04l.417-1.307.418 1.307Zm2.364.088h.605c.283 0 .526-.047.728-.14.203-.094.359-.226.466-.395.109-.17.163-.369.163-.598a1.111 1.111 0 0 0-.63-1.033 1.59 1.59 0 0 0-.727-.154h-1.401v3.555h.796V6.971Zm0-.618V5.269h.605c.132 0 .238.027.317.08a.475.475 0 0 1 .179.213.674.674 0 0 1 0 .544.407.407 0 0 1-.179.181.657.657 0 0 1-.317.066h-.605Zm4.29.915a.452.452 0 0 0-.028-.16.327.327 0 0 0-.097-.135.894.894 0 0 0-.2-.122 2.47 2.47 0 0 0-.34-.13 4.592 4.592 0 0 1-.457-.175 1.968 1.968 0 0 1-.383-.232 1.015 1.015 0 0 1-.266-.308.848.848 0 0 1-.095-.41c0-.151.033-.288.1-.41a.932.932 0 0 1 .28-.313c.121-.087.263-.154.426-.2.162-.047.341-.07.537-.07.26 0 .489.046.686.139.198.09.353.22.464.385.11.165.166.356.166.574h-.791c0-.096-.02-.18-.062-.254a.41.41 0 0 0-.18-.176.636.636 0 0 0-.3-.063.72.72 0 0 0-.296.054.402.402 0 0 0-.178.141.356.356 0 0 0-.059.198.29.29 0 0 0 .044.156.527.527 0 0 0 .132.13c.059.039.13.076.215.112.085.036.181.07.29.102.19.06.36.127.506.2.148.074.272.157.373.25a.921.921 0 0 1 .306.713.92.92 0 0 1-.093.42.864.864 0 0 1-.264.312c-.114.085-.25.149-.41.193-.16.044-.338.066-.535.066-.179 0-.355-.023-.53-.069a1.568 1.568 0 0 1-.473-.214 1.1 1.1 0 0 1-.337-.367 1.081 1.081 0 0 1-.124-.532h.795c0 .108.016.199.047.274a.44.44 0 0 0 .132.178.538.538 0 0 0 .212.097c.083.02.176.03.278.03a.717.717 0 0 0 .288-.05.364.364 0 0 0 .166-.138.367.367 0 0 0 .054-.196ZM6.345 13.18v-.616H4.823v-2.94h-.796v3.556h2.319Zm3.193-1.856v.159c0 .27-.037.512-.112.727a1.556 1.556 0 0 1-.315.55 1.375 1.375 0 0 1-.483.349 1.55 1.55 0 0 1-.618.12c-.226 0-.433-.04-.62-.12a1.424 1.424 0 0 1-.488-.35 1.586 1.586 0 0 1-.318-.549 2.202 2.202 0 0 1-.112-.727v-.159c0-.27.037-.513.112-.727.075-.217.18-.4.315-.552.137-.152.299-.267.486-.347.187-.081.394-.122.62-.122.226 0 .433.04.62.122.187.08.349.195.484.347.136.151.242.335.317.552.075.214.112.457.112.727Zm-.803.159v-.164c0-.18-.016-.34-.049-.478a1.088 1.088 0 0 0-.141-.352.607.607 0 0 0-.23-.212.646.646 0 0 0-.31-.074.613.613 0 0 0-.542.286 1.14 1.14 0 0 0-.139.352 2.26 2.26 0 0 0-.046.478v.164c0 .179.015.338.046.478.033.139.08.256.142.352a.628.628 0 0 0 .227.217.661.661 0 0 0 .317.073.631.631 0 0 0 .308-.073.621.621 0 0 0 .23-.217c.061-.096.107-.213.138-.352.033-.14.05-.3.05-.478Zm4.126.505h-.79a.803.803 0 0 1-.089.344.482.482 0 0 1-.217.205.839.839 0 0 1-.354.066.688.688 0 0 1-.315-.066.532.532 0 0 1-.212-.2 1 1 0 0 1-.118-.34 2.803 2.803 0 0 1-.036-.485v-.222c0-.189.014-.352.041-.488.028-.139.07-.253.125-.342a.536.536 0 0 1 .212-.198.674.674 0 0 1 .3-.064c.157 0 .282.025.377.074a.461.461 0 0 1 .21.217c.045.094.071.21.077.35h.794a1.51 1.51 0 0 0-.208-.653 1.195 1.195 0 0 0-.483-.449 1.638 1.638 0 0 0-.767-.164c-.224 0-.428.04-.61.12a1.33 1.33 0 0 0-.469.344c-.13.15-.23.33-.3.542-.07.212-.105.45-.105.716v.217c0 .265.033.504.1.715.069.21.166.39.293.54.129.148.285.262.469.342.184.08.392.12.625.12.291 0 .543-.053.754-.157.212-.106.377-.251.496-.437a1.3 1.3 0 0 0 .2-.647ZM14.1 9.625v1.598l.312-.448.835-1.15h.977l-1.23 1.57 1.25 1.985H15.3l-.835-1.381-.366.397v.984h-.796V9.625h.796Z" class="Primary" clip-rule="evenodd"/>
  </g>
</svg>
