<svg xmlns="http://www.w3.org/2000/svg" width="20" height="20" fill="none" viewBox="0 0 20 20">
  <g class="20x20/Solid/car_solid">
    <path fill="#A5B7C0" fill-rule="evenodd" d="M13.9 5.2A3 3 0 0 0 11.5 4h-4a3 3 0 0 0-2.4 1.2L3.3 7.6a1 1 0 0 1-.8.4h-1A1.5 1.5 0 0 0 0 9.5V11a2 2 0 0 0 2 2h1.05a2.5 2.5 0 1 1 4.9 0h5.1a2.5 2.5 0 1 1 4.9 0H18a2 2 0 0 0 2-2v-1a2 2 0 0 0-2-2h-2l-2.1-2.8ZM7.5 5H9v3H4.249L5.9 5.8l.108-.132A2 2 0 0 1 7.5 5ZM10 5h1.5l.17.007a2 2 0 0 1 1.43.793L14.75 8H10V5Zm-3 7.5a1.5 1.5 0 1 1-3 0 1.5 1.5 0 0 1 3 0Zm10 0a1.5 1.5 0 1 1-3 0 1.5 1.5 0 0 1 3 0Z" class="Primary" clip-rule="evenodd"/>
  </g>
</svg>
