<svg xmlns="http://www.w3.org/2000/svg" width="20" height="20" fill="none" viewBox="0 0 20 20">
  <g class="20x20/Solid/chunk_mode">
    <path fill="#A5B7C0" d="M3.75 4a.75.75 0 0 1 .75.75v10.5a.75.75 0 0 1-1.5 0V4.75A.75.75 0 0 1 3.75 4Zm12 0a.75.75 0 0 1 .75.75v10.5a.75.75 0 0 1-1.5 0V4.75a.75.75 0 0 1 .75-.75ZM7.747 6.562c.165-.094.324-.08.479.04l4.058 2.988c.144.1.216.237.216.411a.47.47 0 0 1-.216.41L8.226 13.4c-.155.12-.314.133-.479.038a.469.469 0 0 1-.247-.432v-6.01c0-.196.082-.34.247-.434Z" class="Primary"/>
  </g>
</svg>
