<svg xmlns="http://www.w3.org/2000/svg" width="20" height="20" fill="none" viewBox="0 0 20 20">
  <g class="20x20/Solid/cloud">
    <path class="Primary" fill="#2FA2DB" opacity="0.3" fill-rule="evenodd" d="M7.256 8a4.502 4.502 0 0 1 8.571.26A3.501 3.501 0 0 1 14.5 15h-8a3.5 3.5 0 1 1 0-7h.756Z" clip-rule="evenodd"/>
    <path class="Primary" fill="#2FA2DB" d="M7.256 8v1h.707l.236-.667L7.256 8Zm8.571.26-.961.275.133.467.449.184.38-.926ZM11.5 4a5.502 5.502 0 0 0-5.187 3.667l1.886.666A3.502 3.502 0 0 1 11.5 6V4Zm5.289 3.985A5.502 5.502 0 0 0 11.5 4v2a3.502 3.502 0 0 1 3.366 2.535l1.923-.55ZM19 11.5a4.501 4.501 0 0 0-2.794-4.165l-.758 1.85A2.501 2.501 0 0 1 17 11.5h2ZM14.5 16a4.5 4.5 0 0 0 4.5-4.5h-2a2.5 2.5 0 0 1-2.5 2.5v2ZM12 16h2.5v-2H12v2Zm0-2H8v2h4v-2Zm-4 0H6.5v2H8v-2Zm-1.5 0A2.5 2.5 0 0 1 4 11.5H2A4.5 4.5 0 0 0 6.5 16v-2ZM4 11.5A2.5 2.5 0 0 1 6.5 9V7A4.5 4.5 0 0 0 2 11.5h2ZM6.5 9h.756V7H6.5v2Z"/>
  </g>
</svg>
