<svg xmlns="http://www.w3.org/2000/svg" width="20" height="20" fill="none" viewBox="0 0 20 20">
  <g class="20x20/Solid/color">
    <path fill="#A5B7C0" d="M15.13 11.945a.61.61 0 0 1 .863 0S18 13.997 18 16.033a2.439 2.439 0 0 1-4.876 0c0-2.036 2.007-4.088 2.007-4.088ZM7.08 1.18a.609.609 0 0 1 .86 0l.98.98.006.004 6.32 6.32a1.422 1.422 0 0 1 0 2.011l-4.597 4.598a3.048 3.048 0 0 1-4.31 0l-3.446-3.447a3.048 3.048 0 0 1 0-4.31l4.739-4.741-.553-.554a.609.609 0 0 1 0-.861ZM3.754 8.195c-.195.195-.34.43-.43.685H13.92L9.054 4.015l-.005-.004-.555-.555-4.74 4.74Z" class="Primary"/>
  </g>
</svg>
