<svg xmlns="http://www.w3.org/2000/svg" width="20" height="20" fill="none" viewBox="0 0 20 20">
  <g class="20x20/Solid/default_solid">
    <path fill="#A5B7C0" d="M7.5 17.5v-2h-1v2h1Zm2 0v-2h-1v2h1Zm2 0v-2h-1v2h1Zm2 0v-2h-1v2h1Zm1-11a1 1 0 0 0-1-1h-7a1 1 0 0 0-1 1v7a1 1 0 0 0 1 1h7a1 1 0 0 0 1-1v-7Zm3 7v-1h-2v1h2Zm-13 0v-1h-2v1h2Zm13-2v-1h-2v1h2Zm-13 0v-1h-2v1h2Zm13-2v-1h-2v1h2Zm-13 0v-1h-2v1h2Zm13-2v-1h-2v1h2Zm-13 0v-1h-2v1h2Zm3-3v-2h-1v2h1Zm2 0v-2h-1v2h1Zm2 0v-2h-1v2h1Zm2 0v-2h-1v2h1Z" class="Primary"/>
  </g>
</svg>
