<svg width="20" height="20" viewBox="0 0 20 20" fill="none" xmlns="http://www.w3.org/2000/svg">
  <g class="20x20/Solid/drag_handle">
    <path d="M4.16659 12.5C3.93047 12.5 3.73256 12.4201 3.57284 12.2604C3.41311 12.1007 3.33325 11.9028 3.33325 11.6667C3.33325 11.4306 3.41311 11.2326 3.57284 11.0729C3.73256 10.9132 3.93047 10.8333 4.16659 10.8333H15.8333C16.0694 10.8333 16.2673 10.9132 16.427 11.0729C16.5867 11.2326 16.6666 11.4306 16.6666 11.6667C16.6666 11.9028 16.5867 12.1007 16.427 12.2604C16.2673 12.4201 16.0694 12.5 15.8333 12.5H4.16659ZM4.16659 9.16667C3.93047 9.16667 3.73256 9.08681 3.57284 8.92708C3.41311 8.76736 3.33325 8.56944 3.33325 8.33333C3.33325 8.09722 3.41311 7.89931 3.57284 7.73958C3.73256 7.57986 3.93047 7.5 4.16659 7.5H15.8333C16.0694 7.5 16.2673 7.57986 16.427 7.73958C16.5867 7.89931 16.6666 8.09722 16.6666 8.33333C16.6666 8.56944 16.5867 8.76736 16.427 8.92708C16.2673 9.08681 16.0694 9.16667 15.8333 9.16667H4.16659Z" fill="#272D35" class="Primary"/>
  </g>
</svg>
