<svg xmlns="http://www.w3.org/2000/svg" width="20" height="20" fill="none" viewBox="0 0 20 20">
  <g class="20x20/Solid/error">
    <path fill="#fff" fill-rule="evenodd" d="M2.586 5.414A2 2 0 0 0 2 6.828v6.344a2 2 0 0 0 .586 1.414l2.828 2.828A2 2 0 0 0 6.828 18h6.344a2 2 0 0 0 1.414-.586l2.828-2.828A2 2 0 0 0 18 13.172V6.828a2 2 0 0 0-.586-1.414l-2.828-2.828A2 2 0 0 0 13.172 2H6.828a2 2 0 0 0-1.414.586L2.586 5.414Zm4.707 1.879a1 1 0 0 1 1.414 0L10 8.586l1.293-1.293a1 1 0 1 1 1.414 1.414L11.414 10l1.293 1.293a1 1 0 0 1-1.414 1.414L10 11.414l-1.293 1.293a1 1 0 0 1-1.414-1.414L8.586 10 7.293 8.707a1 1 0 0 1 0-1.414Z" class="Primary" clip-rule="evenodd"/>
  </g>
</svg>
