<svg xmlns="http://www.w3.org/2000/svg" width="20" height="20" viewBox="0 0 20 20" fill="none">
<g>
<path id="Primary" fill-rule="evenodd" clip-rule="evenodd" d="M2.5 3C2.22386 3 2 3.22386 2 3.5V6H18V3.5C18 3.22386 17.7761 3 17.5 3H2.5ZM18 7H2V16.5C2 16.7761 2.22386 17 2.5 17H17.5C17.7761 17 18 16.7761 18 16.5V7ZM7 4H8V5H7V4ZM4 4H3V5H4V4ZM5 4H6V5H5V4ZM5.46967 11.4697L8.46967 8.46967L9.53033 9.53033L7.06066 12L9.53033 14.4697L8.46967 15.5303L5.46967 12.5303C5.17678 12.2374 5.17678 11.7626 5.46967 11.4697ZM14.5303 11.4697L11.5303 8.46967L10.4697 9.53033L12.9393 12L10.4697 14.4697L11.5303 15.5303L14.5303 12.5303C14.8232 12.2374 14.8232 11.7626 14.5303 11.4697Z" fill="#A5B7C0" class="Primary"/>
</g>
</svg>