<svg xmlns="http://www.w3.org/2000/svg" width="20" height="20" fill="none" viewBox="0 0 20 20">
  <g class="20x20/Solid/eye">
    <path fill="#A3B8C2" d="M10.025 13.022c.957 0 1.768-.341 2.435-1.025.667-.683 1-1.503 1-2.46 0-.956-.335-1.768-1.004-2.434-.67-.667-1.483-1-2.44-1-.956 0-1.775.334-2.455 1.004a3.294 3.294 0 0 0-1.02 2.439c0 .968.338 1.79 1.016 2.464.677.675 1.5 1.012 2.468 1.012Zm-.004-1.21a2.19 2.19 0 0 1-1.609-.662 2.19 2.19 0 0 1-.662-1.608c0-.62.22-1.146.662-1.58a2.21 2.21 0 0 1 1.609-.65c.619 0 1.145.217 1.579.65.433.434.65.96.65 1.58a2.21 2.21 0 0 1-.65 1.608 2.13 2.13 0 0 1-1.58.662ZM10 15.417c-1.838 0-3.516-.484-5.036-1.45a9.299 9.299 0 0 1-3.456-3.901 2.292 2.292 0 0 1-.065-.23 1.193 1.193 0 0 1 0-.548c.021-.088.043-.165.065-.229A9.216 9.216 0 0 1 4.97 5.17C6.495 4.21 8.171 3.73 10 3.73c1.829 0 3.505.48 5.03 1.44a9.216 9.216 0 0 1 3.462 3.89c.022.064.044.14.065.23a1.195 1.195 0 0 1 0 .548 2.502 2.502 0 0 1-.065.229 9.299 9.299 0 0 1-3.456 3.901c-1.52.966-3.198 1.45-5.036 1.45Z" class="Primary"/>
  </g>
</svg>
