<svg xmlns="http://www.w3.org/2000/svg" width="20" height="20" fill="none" viewBox="0 0 20 20">
  <g class="20x20/Solid/fast_forward">
    <path fill="#A5B7C0" d="m4.248 13.845 4.495-3.143a.836.836 0 0 0 .36-.71.836.836 0 0 0-.36-.71L4.248 6.16c-.268-.197-.543-.213-.825-.05-.282.165-.423.415-.423.751v6.281c0 .337.141.586.423.746.282.161.557.147.825-.044Zm7.898 0 4.494-3.143a.836.836 0 0 0 .36-.71.836.836 0 0 0-.36-.71L12.146 6.16c-.268-.197-.543-.213-.825-.05a.814.814 0 0 0-.424.751v6.281c0 .337.142.586.424.746.282.161.557.147.825-.044Z" class="Primary"/>
  </g>
</svg>
