<svg xmlns="http://www.w3.org/2000/svg" width="20" height="20" fill="none" viewBox="0 0 20 20">
  <g class="20x20/Solid/fast_rewind">
    <path fill="#A5B7C0" d="m15.752 13.845-4.495-3.143a.836.836 0 0 1-.36-.71c0-.298.12-.535.36-.71l4.495-3.121c.268-.197.543-.213.825-.05.282.165.423.415.423.751v6.281c0 .337-.141.586-.423.746-.282.161-.557.147-.825-.044Zm-7.898 0L3.36 10.702a.836.836 0 0 1-.36-.71c0-.298.12-.535.36-.71L7.854 6.16c.268-.197.543-.213.825-.05.283.165.424.415.424.751v6.281c0 .337-.141.586-.424.746-.282.161-.557.147-.825-.044Z" class="Primary"/>
  </g>
</svg>
