<svg xmlns="http://www.w3.org/2000/svg" width="20" height="20" fill="none" viewBox="0 0 20 20">
  <g class="20x20/Solid/favorite">
    <path fill="#A3B8C2" d="M9.992 15.945a1.34 1.34 0 0 1-.475-.085 1.37 1.37 0 0 1-.434-.27l-.988-.901c-1.52-1.347-2.846-2.65-3.979-3.908s-1.7-2.588-1.7-3.99c0-1.099.379-2.02 1.135-2.761.755-.742 1.69-1.113 2.803-1.113.644 0 1.284.148 1.918.444.635.295 1.21.799 1.728 1.51.545-.711 1.128-1.215 1.748-1.51a4.366 4.366 0 0 1 1.898-.444c1.113 0 2.048.37 2.803 1.113.756.742 1.134 1.662 1.134 2.762 0 1.417-.58 2.76-1.74 4.025a55.363 55.363 0 0 1-3.938 3.864l-.996.909a1.356 1.356 0 0 1-.917.355Z" class="Primary"/>
  </g>
</svg>
