<svg xmlns="http://www.w3.org/2000/svg" width="20" height="20" fill="none" viewBox="0 0 20 20">
  <g class="20x20/Solid/group">
    <path fill="#A5B7C0" fill-rule="evenodd" d="M5 6a3 3 0 0 1 6 0v1a2.99 2.99 0 0 1-1 2.236A3 3 0 0 1 5 7V6Zm7 1V6a3.987 3.987 0 0 0-1.126-2.782A3 3 0 0 1 15 6v1a3 3 0 0 1-4.126 2.782A3.987 3.987 0 0 0 12 7Zm-9.993 8.266C2.294 13.389 3.935 12 5.866 12h4.268c1.931 0 3.572 1.389 3.859 3.266a.643.643 0 0 1-.643.734H2.65a.643.643 0 0 1-.643-.734ZM14.871 16h2.479a.643.643 0 0 0 .643-.734C17.706 13.389 16.065 12 14.134 12h-1.015a4.81 4.81 0 0 1 1.862 3.115 1.62 1.62 0 0 1-.11.885Z" class="Primary" clip-rule="evenodd"/>
  </g>
</svg>
