<svg xmlns="http://www.w3.org/2000/svg" width="20" height="20" fill="none" viewBox="0 0 20 20">
  <g class="20x20/Solid/group_ldap">
    <path fill="#A5B7C0" fill-rule="evenodd" d="M8 3a3 3 0 0 0-3 3v1a3 3 0 0 0 6 0V6c0-.888-.386-1.687-1-2.236A2.989 2.989 0 0 0 8 3Zm4 3v1a3.987 3.987 0 0 1-1.126 2.782A3 3 0 0 0 15 7V6a3 3 0 0 0-4.126-2.782A3.989 3.989 0 0 1 12 6Zm-6.134 6c-1.931 0-3.572 1.389-3.859 3.266A.643.643 0 0 0 2.65 16h6.995a3.496 3.496 0 0 1 1.39-3.897 3.973 3.973 0 0 0-.901-.103H5.866ZM15 15.405V14.5h1a.5.5 0 0 1 0 1h-1v-.095Zm1.062-2.904a3.833 3.833 0 0 1 1.93 2.765.643.643 0 0 1-.642.734h-.232A1.5 1.5 0 0 0 16 13.5a.5.5 0 0 1 0-1h.062Zm-3.81.113A2.501 2.501 0 0 0 10.708 16h1.174A1.5 1.5 0 0 1 13 13.5c.07 0 .137-.014.197-.04a3.891 3.891 0 0 0-.945-.846Zm1.54 1.886H13a.5.5 0 0 0 0 1h.985a.639.639 0 0 0 .008-.234 3.786 3.786 0 0 0-.2-.766Z" class="Primary" clip-rule="evenodd"/>
    <path fill="#E1E7EA" fill-rule="evenodd" d="M13 13.5a1.5 1.5 0 0 0 0 3 .5.5 0 0 1 0 1 2.5 2.5 0 0 1 0-5 .5.5 0 0 1 0 1Zm3 0a1.5 1.5 0 0 1 0 3 .5.5 0 0 0 0 1 2.5 2.5 0 0 0 0-5 .5.5 0 0 0 0 1Zm-3 1a.5.5 0 0 0 0 1h3a.5.5 0 0 0 0-1h-3Z" class="Secondary" clip-rule="evenodd"/>
  </g>
</svg>
