<svg xmlns="http://www.w3.org/2000/svg" width="20" height="20" fill="none" viewBox="0 0 20 20">
  <g class="20x20/Solid/health_monitor_offline">
    <path fill="#EF5350" fill-rule="evenodd" d="M15 12.116 12.884 10l-1.768 1.768 2.116 2.116L11.116 16l1.768 1.768L15 15.652l2.116 2.116L18.884 16l-2.116-2.116 2.116-2.116L17.116 10 15 12.116Z" class="Secondary" clip-rule="evenodd"/>
    <path fill="#A5B7C0" fill-rule="evenodd" d="M3 4v12h7.116c0 .256.098.512.293.707l.293.293H2.5a.5.5 0 0 1-.5-.5v-13a.5.5 0 0 1 .5-.5h15a.5.5 0 0 1 .5.5v5.97l-.177-.177A.998.998 0 0 0 17 9.007V4H3Zm13 5.702V9.25h-2a.75.75 0 0 0-.36.092l1.36 1.36 1-1Zm-4.871.639L8.624 6.584a.75.75 0 0 0-1.248 0L5.599 9.25H4v1.5h2a.75.75 0 0 0 .624-.334L8 8.352l2.138 3.207a.995.995 0 0 1 .271-.498l.72-.72Z" class="Primary" clip-rule="evenodd"/>
  </g>
</svg>
