<svg xmlns="http://www.w3.org/2000/svg" width="20" height="20" fill="none" viewBox="0 0 20 20">
  <g class="20x20/Solid/integration">
    <path fill="#A5B7C0" fill-rule="evenodd" d="M10.498 2.5a.5.5 0 0 1 .5-.5h6.5a.5.5 0 0 1 .5.5V9a.5.5 0 0 1-.5.5h-6.5a.5.5 0 0 1-.5-.5V2.5Zm-7.998 8a.5.5 0 0 0-.5.5v6.5a.5.5 0 0 0 .5.5H9a.5.5 0 0 0 .5-.5V11a.5.5 0 0 0-.5-.5H2.5Zm8.498 0a.5.5 0 0 0-.5.5v6.5a.5.5 0 0 0 .5.5h6.5a.5.5 0 0 0 .5-.5V11a.5.5 0 0 0-.5-.5h-6.5Zm-8.89-5.01a.368.368 0 0 0 0 .52L5.49 9.392a.368.368 0 0 0 .52 0L9.392 6.01a.368.368 0 0 0 0-.52L6.01 2.108a.368.368 0 0 0-.52 0L2.108 5.49Z" class="Primary" clip-rule="evenodd"/>
  </g>
</svg>
