<svg xmlns="http://www.w3.org/2000/svg" width="20" height="20" fill="none" viewBox="0 0 20 20">
  <g class="20x20/Solid/layout_cloud_star">
    <path fill="#A5B7C0" fill-rule="evenodd" d="M6.126 6a4.002 4.002 0 0 1 7.748 0H15a3 3 0 0 1 2.864 3.895l-1.248-.14-.6-1.42c-.754-1.78-3.278-1.78-4.031 0l-.6 1.42-1.438.16c-1.168.13-1.9 1.08-1.947 2.085H5a3 3 0 1 1 0-6h1.126Zm2.105 7.078A.5.5 0 0 0 8 13.5v3a.5.5 0 0 0 .5.5h.968c-.016-.2-.004-.407.039-.621l.324-1.61-1.15-1.091a2.213 2.213 0 0 1-.45-.6ZM2.5 17a.5.5 0 0 1-.5-.5v-3a.5.5 0 0 1 .5-.5h4a.5.5 0 0 1 .5.5v3a.5.5 0 0 1-.5.5h-4Z" class="Primary" clip-rule="evenodd"/>
    <path fill="#FFCA28" d="M13.827 9.115a.188.188 0 0 1 .346 0l1.014 2.397a.188.188 0 0 0 .153.114l2.492.277a.19.19 0 0 1 .109.325l-1.875 1.78a.189.189 0 0 0-.055.174l.522 2.591a.188.188 0 0 1-.282.2l-2.153-1.31a.188.188 0 0 0-.196 0l-2.153 1.31a.188.188 0 0 1-.282-.2l.522-2.59a.189.189 0 0 0-.055-.175l-1.875-1.78a.189.189 0 0 1 .109-.325l2.492-.277a.188.188 0 0 0 .153-.114l1.014-2.397Z" class="Secondary"/>
  </g>
</svg>
