<svg xmlns="http://www.w3.org/2000/svg" width="20" height="20" fill="none" viewBox="0 0 20 20">
  <g class="20x20/Solid/layout_star">
    <path fill="#A5B7C0" fill-rule="evenodd" d="M2 3.5a.5.5 0 0 1 .5-.5h10a.5.5 0 0 1 .5.5v3.736c-.43.217-.797.584-1.015 1.1l-.6 1.42-1.438.16c-1.168.13-1.9 1.08-1.947 2.084H2.5a.5.5 0 0 1-.5-.5v-8Zm6.231 9.578A.5.5 0 0 0 8 13.5v3a.5.5 0 0 0 .5.5h.968c-.016-.2-.004-.407.039-.621l.324-1.61-1.15-1.091a2.213 2.213 0 0 1-.45-.6ZM18 9.91V8.5a.5.5 0 0 0-.5-.5h-1.66c.066.104.124.216.175.336l.6 1.42L18 9.91ZM14.5 3a.5.5 0 0 0-.5.5v3a.5.5 0 0 0 .5.5h3a.5.5 0 0 0 .5-.5v-3a.5.5 0 0 0-.5-.5h-3Zm-12 14a.5.5 0 0 1-.5-.5v-3a.5.5 0 0 1 .5-.5h4a.5.5 0 0 1 .5.5v3a.5.5 0 0 1-.5.5h-4Z" class="Primary" clip-rule="evenodd"/>
    <path fill="#FFCA28" d="M13.827 9.115a.188.188 0 0 1 .346 0l1.014 2.397a.188.188 0 0 0 .153.114l2.492.277a.19.19 0 0 1 .109.325l-1.875 1.78a.189.189 0 0 0-.055.174l.522 2.591a.188.188 0 0 1-.282.2l-2.153-1.31a.188.188 0 0 0-.196 0l-2.153 1.31a.188.188 0 0 1-.282-.2l.522-2.59a.189.189 0 0 0-.055-.175l-1.875-1.78a.189.189 0 0 1 .109-.325l2.492-.277a.188.188 0 0 0 .153-.114l1.014-2.397Z" class="Secondary"/>
  </g>
</svg>
