<svg xmlns="http://www.w3.org/2000/svg" width="20" height="20" fill="none" viewBox="0 0 20 20">
  <g class="20x20/Solid/layouts_shared">
    <path fill="#E1E7EA" fill-rule="evenodd" d="M18 11.5a1.5 1.5 0 0 1-2.327 1.252l-1.496.748 1.496.748a1.5 1.5 0 1 1-.67 1.342l-1.676-.838a1.5 1.5 0 1 1 0-2.504l1.676-.838A1.5 1.5 0 0 1 18 11.5Z" class="Secondary" clip-rule="evenodd"/>
    <path fill="#A5B7C0" fill-rule="evenodd" d="M1 13V3h13v7.793l.12-.06c.16-.497.471-.926.88-1.233v-7a.5.5 0 0 0-.5-.5H.5a.5.5 0 0 0-.5.5v11a.5.5 0 0 0 .5.5h9.55a2.512 2.512 0 0 1 0-1H1Zm12-1.95a2.507 2.507 0 0 0-2.5.95H10v-2h3v1.05ZM10.5 15H2v1h11.587l-.272-.136A2.496 2.496 0 0 1 10.5 15Zm4 2H4v1h15V6h-1v3.5c.607.456 1 1.182 1 2 0 .818-.393 1.544-1 2a2.5 2.5 0 1 1-3.5 3.5ZM17 9.05a2.512 2.512 0 0 0-1 0V4h1v5.05ZM10 7h3v2h-3V7Zm3-3h-3v2h3V4Zm-7 6h3v2H6v-2Zm-1 0H2v2h3v-2ZM2 4h7v5H2V4Z" class="Primary" clip-rule="evenodd"/>
  </g>
</svg>
