<svg xmlns="http://www.w3.org/2000/svg" width="20" height="20" fill="none" viewBox="0 0 20 20">
  <g class="20x20/Solid/map">
    <path fill="#B0BEC4" fill-rule="evenodd" d="M7.143 6.131 3.34 2h7.4L7.143 6.131Zm1.019.92 4.464-5.035h4.116l-6.176 7.52-2.404-2.485Zm6.486-.12 3.345 3.841V3.118s-2.852 3.145-3.345 3.814Zm3.345 6.002L13.808 8.17l-2.093 2.422 6.278 6.621s.016-2.864 0-4.279ZM2 3v13.615C2 17.38 2.6 18 3.34 18H17L2 3Zm6.939 13.203a.438.438 0 0 1-.524.039l-1.95-1.26-1.95 1.26a.435.435 0 0 1-.525-.039.472.472 0 0 1-.126-.527l2.187-4.539a.447.447 0 0 1 .414-.287c.18 0 .344.114.413.287l2.187 4.539a.472.472 0 0 1-.126.527Z" class="Primary" clip-rule="evenodd"/>
  </g>
</svg>
