<svg xmlns="http://www.w3.org/2000/svg" width="20" height="20" fill="none" viewBox="0 0 20 20">
  <g class="20x20/Solid/map_locked">
    <path fill="#B0BEC4" fill-rule="evenodd" d="m3.34 2 3.803 4.131L10.74 2h-7.4Zm9.286.016L8.162 7.051l2.404 2.485 6.176-7.52h-4.116Zm2.022 4.916 3.345 3.84V3.118s-2.852 3.145-3.345 3.814ZM2 16.615V3l9 9v1.085a1.5 1.5 0 0 0-1 1.415v3c0 .175.03.344.085.5H3.34C2.601 18 2 17.379 2 16.615Zm6.651-.303a.438.438 0 0 0 .288-.109.472.472 0 0 0 .126-.527l-2.187-4.539a.447.447 0 0 0-.413-.287.447.447 0 0 0-.414.287l-2.187 4.539a.472.472 0 0 0 .126.527c.148.13.36.145.524.039l1.95-1.26 1.95 1.26c.073.047.155.07.237.07Z" class="Primary" clip-rule="evenodd"/>
    <path fill="#EF5350" fill-rule="evenodd" d="M14 11.5h1a.5.5 0 0 1 .5.5v2h-2v-2a.5.5 0 0 1 .5-.5ZM12 14v-2a2 2 0 0 1 2-2h1a2 2 0 0 1 2 2v2h.5a.5.5 0 0 1 .5.5v3a.5.5 0 0 1-.5.5h-6a.5.5 0 0 1-.5-.5v-3a.5.5 0 0 1 .5-.5h.5Z" class="Secondary" clip-rule="evenodd"/>
  </g>
</svg>
