<svg xmlns="http://www.w3.org/2000/svg" width="20" height="20" fill="none" viewBox="0 0 20 20">
  <g class="20x20/Solid/maps">
    <path fill="#B0BEC4" fill-rule="evenodd" d="M5.988 5.098 3.038 2h5.738L5.988 5.098Zm.79.69 3.46-3.776h3.192l-4.788 5.64-1.864-1.864Zm5.028-.09L14.4 8.58V2.84s-2.211 2.358-2.594 2.86ZM16 4h-1v11H4v1h12V4ZM6 17h11V7h1v11H6v-1Zm5.155-10.373L14.3 9.725c.012 1.06 0 3.684 0 3.684L9.532 8.443l1.623-1.816ZM2.101 2.59A1.032 1.032 0 0 0 2 3.038v9.924A1.04 1.04 0 0 0 3.038 14h9.924c.16 0 .311-.037.447-.101L2.101 2.59ZM7.38 12.652a.346.346 0 0 1-.406.03l-1.512-.946-1.512.945a.346.346 0 0 1-.504-.424L5.14 8.103a.346.346 0 0 1 .641 0l1.695 4.154a.346.346 0 0 1-.097.396Z" class="Primary" clip-rule="evenodd"/>
  </g>
</svg>
