<svg xmlns="http://www.w3.org/2000/svg" width="20" height="20" fill="none" viewBox="0 0 20 20">
  <g class="20x20/Solid/multisensor_offline">
    <path fill="#A5B7C0" fill-rule="evenodd" d="M17 4H3a1 1 0 0 0-1 1v2c0 .528.413.95.932.986l.05.39.09.684c.36-.502.863-.81 1.428-.81.173 0 .337.037.495.091l-.027-.209L4.951 8h10.098l-.046.358a1.54 1.54 0 0 1 .497-.092c.546 0 1.034.288 1.392.76a1 1 0 0 1 .042-.01l.134-1.029A.994.994 0 0 0 18 7V5a1 1 0 0 0-1-1Zm-5.296 9.998-1.295 1.295a.996.996 0 0 0-.293.701H5.932c-1.083.075-2.051-.689-2.189-1.739a170.779 170.779 0 0 1-.101-.771c.26.166.548.266.858.266.424 0 .812-.173 1.133-.471l.093.714.052-.005.111.006 5.815.004Zm-.063-4.17-1.232 1.233a1 1 0 0 0 0 1.414l.389.389a2 2 0 1 1 .843-3.035Zm4.625-.392L15 10.702l-.61-.61c.21-.64.628-1.076 1.11-1.076.289 0 .555.157.766.42ZM5.75 11c0 1.105-.56 2-1.25 2s-1.25-.895-1.25-2 .56-2 1.25-2 1.25.895 1.25 2Z" class="Primary" clip-rule="evenodd"/>
    <path fill="#EF5350" fill-rule="evenodd" d="M15 12.116 12.884 10l-1.768 1.768 2.116 2.116L11.116 16l1.768 1.768L15 15.652l2.116 2.116L18.884 16l-2.116-2.116 2.116-2.116L17.116 10 15 12.116Z" class="Secondary" clip-rule="evenodd"/>
  </g>
</svg>
