<svg xmlns="http://www.w3.org/2000/svg" width="20" height="20" fill="none" viewBox="0 0 20 20">
  <g class="20x20/Solid/multisensor">
    <path fill="#A5B7C0" fill-rule="evenodd" d="M3 4h14a1 1 0 0 1 1 1v2c0 .528-.413.95-.932.987l-.141 1.086c-.361-.5-.863-.807-1.427-.807a1.54 1.54 0 0 0-.497.092L15.049 8H4.951l.017.132.027.209A1.523 1.523 0 0 0 4.5 8.25c-.565 0-1.068.308-1.428.81l-.09-.684-.05-.39A.992.992 0 0 1 2 7V5a1 1 0 0 1 1-1Zm11.315 9.396.022-.136c.326.317.725.506 1.164.505.309 0 .596-.099.855-.264l-.099.754c-.131 1-1.02 1.745-2.034 1.745-.052 0-.103-.002-.156-.006H5.932c-1.083.075-2.051-.689-2.189-1.739a170.779 170.779 0 0 1-.101-.771c.26.166.548.266.858.266.424 0 .812-.173 1.133-.471l.093.714.052-.005.111.006 8.326.005c.037-.21.068-.408.1-.602v-.001ZM4.5 13c.69 0 1.25-.895 1.25-2S5.19 9 4.5 9s-1.25.895-1.25 2 .56 2 1.25 2Zm12.25-1.984c0 1.105-.56 2-1.25 2s-1.25-.895-1.25-2 .56-2 1.25-2 1.25.895 1.25 2Zm-4.719 0a2 2 0 1 1-3.999.001 2 2 0 0 1 3.999-.001Z" class="Primary" clip-rule="evenodd"/>
  </g>
</svg>
