<svg xmlns="http://www.w3.org/2000/svg" width="20" height="20" fill="none" viewBox="0 0 20 20">
  <g class="20x20/Solid/next_chunk">
    <path fill="#A5B7C0" d="M18 5.5c.18 0 .339.068.475.204a.648.648 0 0 1 .204.472v7.648a.649.649 0 0 1-.204.472.653.653 0 0 1-.95 0 .648.648 0 0 1-.205-.472V6.176a.65.65 0 0 1 .204-.472A.652.652 0 0 1 18 5.5Zm-16.253.785c.284-.155.56-.138.83.049l4.53 2.98a.788.788 0 0 1 .363.68.774.774 0 0 1-.363.676l-4.53 3a.747.747 0 0 1-.83.04.76.76 0 0 1-.427-.71V7.004c0-.324.142-.564.427-.719Zm8 0c.284-.155.56-.138.83.049l4.53 2.98a.788.788 0 0 1 .363.68.775.775 0 0 1-.363.676l-4.53 3a.747.747 0 0 1-.83.04.76.76 0 0 1-.427-.71V7.004c0-.324.142-.564.427-.719Z" class="Primary"/>
  </g>
</svg>
