<svg xmlns="http://www.w3.org/2000/svg" width="20" height="20" fill="none" viewBox="0 0 20 20">
  <g class="20x20/Solid/notification">
    <path fill="#A5B7C0" fill-rule="evenodd" d="M10 2a4.41 4.41 0 0 0-4.39 3.981l-.523 5.351a1.332 1.332 0 0 1-.95 1.15l-.703.208a.606.606 0 0 0-.434.58V14h14v-.73a.606.606 0 0 0-.434-.58l-.704-.208a1.334 1.334 0 0 1-.95-1.15l-.523-5.351A4.41 4.41 0 0 0 10 2Zm0 16c1.143 0 2.286-1.083 2.286-1.714 0-.58-.864-.577-1.984-.573a74.378 74.378 0 0 1-.604 0c-1.12-.004-1.984-.007-1.984.573C7.714 16.916 8.857 18 10 18Z" class="Primary" clip-rule="evenodd"/>
  </g>
</svg>
