<svg xmlns="http://www.w3.org/2000/svg" width="20" height="20" fill="none" viewBox="0 0 20 20">
  <g class="20x20/Solid/object">
    <path fill="#A5B7C0" fill-rule="evenodd" d="M6.444 2H3a1 1 0 0 0-1 1v3.444h1.5V3.5h2.944V2Zm7.112 1.5H16.5v2.944H18V3a1 1 0 0 0-1-1h-3.444v1.5ZM18 13.556h-1.5V16.5h-2.944V18H17a1 1 0 0 0 1-1v-3.444ZM6.444 18v-1.5H3.5v-2.944H2V17a1 1 0 0 0 1 1h3.444ZM10 6c2.21 0 4 1.999 4 3 0 .623-.694 1.633-1.75 2.306l.07-1.656c.228-.257.347-.5.347-.65 0-.21-.234-.606-.675-.962l-.057-.043V8l-.001.063L11.747 12l.582 5.26a.667.667 0 0 1-1.312.223l-.013-.076L10.405 12a.412.412 0 0 0-.402-.333.403.403 0 0 0-.397.333h-.01l-.6 5.407a.667.667 0 0 1-.659.593l-.077-.004a.667.667 0 0 1-.593-.659l.004-.077.584-5.26-.188-3.937-.002-.07a3.08 3.08 0 0 0-.057.045c-.441.356-.675.753-.675.962 0 .15.119.394.347.65l.072 1.678C6.695 10.67 6 9.67 6 9c0-1.078 1.79-3 4-3Zm0-.444A1.778 1.778 0 1 0 10 2a1.778 1.778 0 0 0 0 3.556Z" class="Primary" clip-rule="evenodd"/>
  </g>
</svg>
