<svg xmlns="http://www.w3.org/2000/svg" width="20" height="20" fill="none" viewBox="0 0 20 20">
  <g class="20x20/Solid/org_map">
    <path fill="#B0BEC4" d="m9.388 10.02-1.25.128a.5.5 0 0 0-.28.873l2.631 2.315a.5.5 0 0 1 .159.481l-.738 3.395a.493.493 0 0 0 .018.272H3.34c-.739 0-1.34-.602-1.34-1.34V3.34c0-.207.047-.402.13-.577l7.258 7.257Zm4.367 5.982a.5.5 0 0 1 .49 0l2.432 1.368a1.332 1.332 0 0 1-.533.114h-5.021l2.632-1.482ZM6.467 9.597a.448.448 0 0 0-.414.278l-2.188 5.36a.447.447 0 0 0 .65.547l1.952-1.219 1.95 1.22a.449.449 0 0 0 .524-.038.447.447 0 0 0 .126-.51L6.88 9.874a.447.447 0 0 0-.413-.278ZM18 9.956l-.53-.055-2.779-3.086-.026-.058c.525-.677 3.32-3.659 3.335-3.675v6.874Zm-7.43-.663L8.165 6.888l4.466-4.872h4.118L10.57 9.293ZM7.146 5.998 3.34 2h7.403L7.146 5.998Z" class="Primary"/>
    <path fill="#FFCA28" d="M13.548 8.26a.5.5 0 0 1 .904 0l.88 1.867a.5.5 0 0 0 .402.285l2.098.21a.5.5 0 0 1 .275.877l-1.528 1.303a.5.5 0 0 0-.163.49l.433 1.931a.5.5 0 0 1-.728.548l-1.881-1.027a.5.5 0 0 0-.48 0l-1.881 1.027a.5.5 0 0 1-.728-.548l.433-1.931a.5.5 0 0 0-.163-.49L9.893 11.5a.5.5 0 0 1 .274-.878l2.099-.21a.5.5 0 0 0 .402-.284l.88-1.867Z" class="Secondary"/>
  </g>
</svg>
