<svg xmlns="http://www.w3.org/2000/svg" width="20" height="20" fill="none" viewBox="0 0 20 20">
  <g class="20x20/Solid/pin">
    <path fill="#E5E8EB" d="m16.012 3.367-.115-.078a1.678 1.678 0 0 0-2.057.136L9.007 7.72a2.054 2.054 0 0 0-1.946-.35l-1.578.528a1.026 1.026 0 0 0-.405 1.7l2.495 2.492-4.436 5.003a.544.544 0 0 0 .023.747.55.55 0 0 0 .75.023l5.024-4.412 2.5 2.497a1.032 1.032 0 0 0 1.702-.404l.53-1.577a2.048 2.048 0 0 0-.38-1.978l-.01-.009 4.298-4.824a1.674 1.674 0 0 0 .137-2.056l-.078-.114a6.13 6.13 0 0 0-1.62-1.619Z" class="Primary"/>
  </g>
</svg>
