<svg xmlns="http://www.w3.org/2000/svg" width="20" height="20" fill="none" viewBox="0 0 20 20">
  <g class="20x20/Solid/pin_default" clip-path="url(#a)">
    <path fill="#E5E8EB" d="m9.354 1.559-.136.026a1.678 1.678 0 0 0-1.36 1.55l-.38 6.456a2.054 2.054 0 0 0-1.623 1.127l-.743 1.49a1.026 1.026 0 0 0 .916 1.489l3.526-.003.402 6.675a.544.544 0 0 0 .544.511.55.55 0 0 0 .547-.514l.432-6.672 3.535-.002a1.032 1.032 0 0 0 .918-1.49l-.742-1.489a2.048 2.048 0 0 0-1.668-1.13h-.012l-.372-6.45a1.674 1.674 0 0 0-1.357-1.55l-.137-.026a6.13 6.13 0 0 0-2.29.002Z" class="Primary"/>
  </g>
  <defs>
    <clipPath id="a" class="a">
      <path fill="#ffffff" d="M0 0h20v20H0z"/>
    </clipPath>
  </defs>
</svg>
