<svg xmlns="http://www.w3.org/2000/svg" width="20" height="20" fill="none" viewBox="0 0 20 20">
  <g class="20x20/Solid/prev_chunk">
    <path fill="#A5B7C0" d="M2 5.5c-.18 0-.34.068-.476.204a.648.648 0 0 0-.204.472v7.648a.65.65 0 0 0 .204.472.652.652 0 0 0 .951 0 .648.648 0 0 0 .204-.472V6.176a.649.649 0 0 0-.204-.472A.652.652 0 0 0 2 5.5Zm16.253.785c-.285-.155-.561-.138-.831.049l-4.53 2.98a.788.788 0 0 0-.363.68c0 .287.121.512.363.676l4.53 3c.27.182.546.196.83.04a.76.76 0 0 0 .427-.71V7.004a.767.767 0 0 0-.426-.719Zm-8 0c-.285-.155-.561-.138-.831.049l-4.53 2.98a.788.788 0 0 0-.363.68c0 .287.121.512.363.676l4.53 3c.27.182.546.196.83.04a.76.76 0 0 0 .427-.71V7.004a.767.767 0 0 0-.426-.719Z" class="Primary"/>
  </g>
</svg>
