<svg xmlns="http://www.w3.org/2000/svg" width="20" height="20" fill="none" viewBox="0 0 20 20">
  <g class="20x20/Solid/server_current">
    <path fill="#E1E7EA" fill-rule="evenodd" d="M14 13a2 2 0 1 0 0-4 2 2 0 0 0 0 4Zm-2 2a2 2 0 0 0-2 2h8a2 2 0 0 0-2-2h-4Z" class="Secondary" clip-rule="evenodd"/>
    <path fill="#A5B7C0" fill-rule="evenodd" d="M2 3.5a.5.5 0 0 1 .5-.5h15a.5.5 0 0 1 .5.5v3a.5.5 0 0 1-.5.5h-15a.5.5 0 0 1-.5-.5v-3ZM3 4h3v1H3V4ZM2 8.5a.5.5 0 0 1 .5-.5H14a3 3 0 0 0-2.83 4H2.5a.5.5 0 0 1-.5-.5v-3Zm9.764 4.5H2.5a.5.5 0 0 0-.5.5v3a.5.5 0 0 0 .5.5H9a3 3 0 0 1 3-3h4c.768 0 1.47.289 2 .764V13.5a.5.5 0 0 0-.5-.5h-1.264c-.55.614-1.348 1-2.236 1a2.993 2.993 0 0 1-2.236-1Zm5.065-1A3 3 0 0 0 14 8h3.501a.5.5 0 0 1 .5.5v3a.5.5 0 0 1-.5.5h-.67ZM3 9h3v1H3V9Zm3 5H3v1h3v-1Z" class="Primary" clip-rule="evenodd"/>
  </g>
</svg>
