<svg xmlns="http://www.w3.org/2000/svg" width="20" height="20" fill="none" viewBox="0 0 20 20">
  <g class="20x20/Solid/skip_next">
    <path fill="#A5B7C0" d="M14.32 15c.181 0 .34-.068.476-.204a.648.648 0 0 0 .204-.472V6.676a.648.648 0 0 0-.204-.472.652.652 0 0 0-.951 0 .648.648 0 0 0-.205.472v7.648c0 .178.069.335.205.472a.652.652 0 0 0 .476.204Zm-8.062-.832 4.53-3a.773.773 0 0 0 .362-.675.788.788 0 0 0-.362-.682l-4.53-2.98a.74.74 0 0 0-.832-.048.766.766 0 0 0-.426.719v5.996a.76.76 0 0 0 .427.71.746.746 0 0 0 .831-.04Z" class="Primary"/>
  </g>
</svg>
