<svg xmlns="http://www.w3.org/2000/svg" width="20" height="20" fill="none" viewBox="0 0 20 20">
  <g class="20x20/Solid/skip_previous">
    <path fill="#A5B7C0" d="M5.68 15a.651.651 0 0 1-.476-.204.648.648 0 0 1-.204-.472V6.676c0-.178.068-.335.205-.472a.652.652 0 0 1 .95 0 .648.648 0 0 1 .204.472v7.648a.647.647 0 0 1-.204.472.652.652 0 0 1-.476.204Zm8.062-.832-4.53-3a.773.773 0 0 1-.362-.675c0-.287.12-.514.362-.682l4.53-2.98c.27-.187.547-.203.831-.048a.766.766 0 0 1 .427.719v5.996a.76.76 0 0 1-.427.71.747.747 0 0 1-.831-.04Z" class="Primary"/>
  </g>
</svg>
