<svg xmlns="http://www.w3.org/2000/svg" width="20" height="20" fill="none" viewBox="0 0 20 20">
  <g class="20x20/Solid/sound">
    <path fill="#A5B7C0" fill-rule="evenodd" d="M8.733 4.139 4.75 7.34H2.375a.625.625 0 0 0-.625.625v3.572c0 .345.28.625.625.625H4.75l3.983 3.201a.625.625 0 0 0 1.017-.487V4.626a.625.625 0 0 0-1.017-.487Zm7.517 5.612a10.56 10.56 0 0 1-.96 4.414l1.285.794a12.052 12.052 0 0 0 1.175-5.208c0-2.058-.513-3.995-1.418-5.69l-1.242.863a10.553 10.553 0 0 1 1.16 4.827Zm-1.7 0a7.223 7.223 0 0 0-1.032-3.733l-1.235.859a5.73 5.73 0 0 1 .767 2.874c0 .951-.23 1.847-.636 2.636l1.279.79a7.226 7.226 0 0 0 .857-3.426Z" class="Primary" clip-rule="evenodd"/>
  </g>
</svg>
