<svg xmlns="http://www.w3.org/2000/svg" width="20" height="20" fill="none" viewBox="0 0 20 20">
  <g class="20x20/Solid/thumbnails">
    <path fill="#A5B7C0" d="M4.237 3c-.347 0-.64.116-.878.348a1.14 1.14 0 0 0-.359.85v9.382c0 .335.12.619.359.85.239.232.531.348.878.348h3.23l2.107 2.042a.6.6 0 0 0 .43.18.582.582 0 0 0 .425-.183l2.104-2.039h3.23c.347 0 .64-.116.878-.348a1.14 1.14 0 0 0 .359-.85V4.198c0-.335-.12-.619-.359-.85A1.214 1.214 0 0 0 15.763 3H4.237Zm0 .97h11.526a.23.23 0 0 1 .163.07c.05.049.074.101.074.158v9.382c0 .057-.025.11-.074.157a.23.23 0 0 1-.163.072H4.237a.23.23 0 0 1-.163-.072A.216.216 0 0 1 4 13.58V4.198c0-.057.025-.11.074-.157a.23.23 0 0 1 .163-.072Zm1.296 2.083v5.672c0 .17.058.313.176.427a.609.609 0 0 0 .442.172h7.698a.61.61 0 0 0 .442-.172.571.571 0 0 0 .176-.427V6.053a.571.571 0 0 0-.176-.427.61.61 0 0 0-.442-.172H6.151a.61.61 0 0 0-.442.172.571.571 0 0 0-.176.427Z" class="Primary"/>
  </g>
</svg>
