<svg xmlns="http://www.w3.org/2000/svg" width="20" height="20" fill="none" viewBox="0 0 20 20">
  <g class="20x20/Solid/user_organization">
    <path fill="#A5B7C0" fill-rule="evenodd" d="M7 6a3 3 0 0 1 6 0v1a3 3 0 1 1-6 0V6Zm.21 6.054c-1.636.273-2.95 1.551-3.203 3.212A.643.643 0 0 0 4.65 16H8l-.79-3.946Zm5.58 0L12 16h3.35a.643.643 0 0 0 .643-.734c-.254-1.66-1.567-2.94-3.204-3.212Z" class="Primary" clip-rule="evenodd"/>
    <path fill="#E1E7EA" fill-rule="evenodd" d="M10.94 11.5H9.06a.3.3 0 0 0-.25.466L9.5 13h1l.69-1.034a.3.3 0 0 0-.25-.466Zm-.273 2H9.333L8.5 16h3l-.833-2.5Z" class="Secondary" clip-rule="evenodd"/>
  </g>
</svg>
