<svg xmlns="http://www.w3.org/2000/svg" width="20" height="20" fill="none" viewBox="0 0 20 20">
  <g class="20x20/Solid/user_organization">
    <path fill="#A5B7C0" fill-rule="evenodd" d="M10 3a3 3 0 0 0-3 3v1a3 3 0 0 0 6 0V6a3 3 0 0 0-3-3ZM4.007 15.266c.254-1.66 1.567-2.94 3.204-3.212L8 16H4.65a.643.643 0 0 1-.643-.734ZM12 16l.79-3.946c1.636.273 2.95 1.551 3.203 3.212a.643.643 0 0 1-.643.734H12Zm-3.19-4.034a.3.3 0 0 1 .25-.466h1.88a.3.3 0 0 1 .25.466L10.5 13h-1l-.69-1.034Zm.523 1.534h1.334L11.5 16h-3l.833-2.5Z" class="Primary" clip-rule="evenodd"/>
  </g>
</svg>
