<svg xmlns="http://www.w3.org/2000/svg" width="20" height="20" fill="none" viewBox="0 0 20 20">
  <g class="20x20/Solid/volume_on">
    <path fill="#A5B7C0" d="M15.372 9.986c0-1.082-.3-2.069-.9-2.96a5.587 5.587 0 0 0-2.363-2.001.738.738 0 0 1-.337-.312.418.418 0 0 1-.004-.416.536.536 0 0 1 .355-.31.698.698 0 0 1 .496.028 6.426 6.426 0 0 1 2.798 2.418 6.466 6.466 0 0 1 1.038 3.57 6.403 6.403 0 0 1-1.038 3.557 6.454 6.454 0 0 1-2.798 2.404.697.697 0 0 1-.496.028.536.536 0 0 1-.355-.31.418.418 0 0 1 .004-.416.738.738 0 0 1 .337-.312 5.58 5.58 0 0 0 2.363-2.005c.6-.892.9-1.88.9-2.963Zm-9.067 1.597h-2.09a.649.649 0 0 1-.478-.191.649.649 0 0 1-.192-.478V9.087c0-.192.064-.351.192-.479a.649.649 0 0 1 .478-.191h2.09l2.472-2.473a.505.505 0 0 1 .596-.117.51.51 0 0 1 .339.51v7.323a.512.512 0 0 1-.339.512.503.503 0 0 1-.596-.116l-2.472-2.473ZM13.21 10c0 .45-.1.918-.302 1.403-.202.486-.5.86-.895 1.121a.322.322 0 0 1-.319.023c-.108-.05-.163-.143-.163-.281V7.734c0-.138.055-.231.163-.28a.322.322 0 0 1 .32.022c.394.243.692.611.894 1.107.202.495.302.967.302 1.417Z" class="Primary"/>
  </g>
</svg>
